<?xml version="1.0" encoding="UTF-8" standalone="no"?>
<!DOCTYPE svg PUBLIC "-//W3C//DTD SVG 1.1//EN"
 "http://www.w3.org/Graphics/SVG/1.1/DTD/svg11.dtd">
<!-- Generated by graphviz version 2.38.0 (20140413.2041)
 -->
<!-- Title: hydra::detail::product Pages: 1 -->
<svg width="296pt" height="78pt"
 viewBox="0.00 0.00 296.00 77.50" xmlns="http://www.w3.org/2000/svg" xmlns:xlink="http://www.w3.org/1999/xlink">
<g id="graph0" class="graph" transform="scale(1 1) rotate(0) translate(4 73.5)">
<title>hydra::detail::product</title>
<!-- Node1 -->
<g id="node1" class="node"><title>Node1</title>
<polygon fill="#bfbfbf" stroke="black" points="0,-28 0,-47 108,-47 108,-28 0,-28"/>
<text text-anchor="middle" x="54" y="-35" font-family="Helvetica,sans-Serif" font-size="10.00">hydra::detail::product</text>
</g>
<!-- Node2 -->
<g id="node2" class="node"><title>Node2</title>
<g id="a_node2"><a xlink:href="../../d8/d53/a00081.html#a4b965af624a83dc265e1251718db695c" target="_top" xlink:title="hydra::detail::TypeTraits::one">
<polygon fill="none" stroke="black" points="144,-50 144,-69 288,-69 288,-50 144,-50"/>
<text text-anchor="middle" x="216" y="-57" font-family="Helvetica,sans-Serif" font-size="10.00">hydra::detail::TypeTraits::one</text>
</a>
</g>
</g>
<!-- Node1&#45;&gt;Node2 -->
<g id="edge1" class="edge"><title>Node1&#45;&gt;Node2</title>
<path fill="none" stroke="midnightblue" d="M108.278,-44.8257C117.09,-46.0374 126.391,-47.3162 135.68,-48.5935"/>
<polygon fill="midnightblue" stroke="midnightblue" points="135.347,-52.0805 145.73,-49.9754 136.3,-45.1458 135.347,-52.0805"/>
</g>
<!-- Node3 -->
<g id="node3" class="node"><title>Node3</title>
<g id="a_node3"><a xlink:href="../../d8/d84/a00001.html#a3b7a4baf282beb3e6e55a3f351d72cd9" target="_top" xlink:title="hydra::detail::product\l_tuple">
<polygon fill="none" stroke="black" points="162,-0.5 162,-30.5 270,-30.5 270,-0.5 162,-0.5"/>
<text text-anchor="start" x="170" y="-18.5" font-family="Helvetica,sans-Serif" font-size="10.00">hydra::detail::product</text>
<text text-anchor="middle" x="216" y="-7.5" font-family="Helvetica,sans-Serif" font-size="10.00">_tuple</text>
</a>
</g>
</g>
<!-- Node1&#45;&gt;Node3 -->
<g id="edge2" class="edge"><title>Node1&#45;&gt;Node3</title>
<path fill="none" stroke="midnightblue" d="M108.278,-30.1743C122.176,-28.2632 137.291,-26.185 151.656,-24.2098"/>
<polygon fill="midnightblue" stroke="midnightblue" points="152.525,-27.6233 161.955,-22.7937 151.571,-20.6886 152.525,-27.6233"/>
</g>
</g>
</svg>
