<?xml version="1.0" encoding="UTF-8" standalone="no"?>
<!DOCTYPE svg PUBLIC "-//W3C//DTD SVG 1.1//EN"
 "http://www.w3.org/Graphics/SVG/1.1/DTD/svg11.dtd">
<!-- Generated by graphviz version 2.38.0 (20140413.2041)
 -->
<!-- Title: hydra::AddPdf::operator= Pages: 1 -->
<svg width="315pt" height="142pt"
 viewBox="0.00 0.00 315.00 142.00" xmlns="http://www.w3.org/2000/svg" xmlns:xlink="http://www.w3.org/1999/xlink">
<g id="graph0" class="graph" transform="scale(1 1) rotate(0) translate(4 138)">
<title>hydra::AddPdf::operator=</title>
<!-- Node1 -->
<g id="node1" class="node"><title>Node1</title>
<polygon fill="#bfbfbf" stroke="black" points="0,-57.5 0,-76.5 126,-76.5 126,-57.5 0,-57.5"/>
<text text-anchor="middle" x="63" y="-64.5" font-family="Helvetica,sans-Serif" font-size="10.00">hydra::AddPdf::operator=</text>
</g>
<!-- Node2 -->
<g id="node2" class="node"><title>Node2</title>
<g id="a_node2"><a xlink:href="../../d8/d84/a00001.html#a547432121739ccba4c67f2ad3b10cbd1" target="_top" xlink:title="hydra::AddPdf::GetCoeficient">
<polygon fill="none" stroke="black" points="162,-114.5 162,-133.5 307,-133.5 307,-114.5 162,-114.5"/>
<text text-anchor="middle" x="234.5" y="-121.5" font-family="Helvetica,sans-Serif" font-size="10.00">hydra::AddPdf::GetCoeficient</text>
</a>
</g>
</g>
<!-- Node1&#45;&gt;Node2 -->
<g id="edge1" class="edge"><title>Node1&#45;&gt;Node2</title>
<path fill="none" stroke="midnightblue" d="M86.7121,-76.628C106.412,-84.7802 135.8,-96.4678 162,-105 169.218,-107.351 176.914,-109.628 184.483,-111.742"/>
<polygon fill="midnightblue" stroke="midnightblue" points="183.74,-115.167 194.308,-114.418 185.579,-108.413 183.74,-115.167"/>
</g>
<!-- Node3 -->
<g id="node3" class="node"><title>Node3</title>
<g id="a_node3"><a xlink:href="../../d8/d84/a00001.html#a7fc08b49793aeadfe8f767da6f264a7f" target="_top" xlink:title="hydra::AddPdf::GetCoefSum">
<polygon fill="none" stroke="black" points="163.5,-76.5 163.5,-95.5 305.5,-95.5 305.5,-76.5 163.5,-76.5"/>
<text text-anchor="middle" x="234.5" y="-83.5" font-family="Helvetica,sans-Serif" font-size="10.00">hydra::AddPdf::GetCoefSum</text>
</a>
</g>
</g>
<!-- Node1&#45;&gt;Node3 -->
<g id="edge2" class="edge"><title>Node1&#45;&gt;Node3</title>
<path fill="none" stroke="midnightblue" d="M126.153,-73.967C134.94,-74.952 144.076,-75.9761 153.146,-76.9927"/>
<polygon fill="midnightblue" stroke="midnightblue" points="153.007,-80.499 163.334,-78.1348 153.786,-73.5426 153.007,-80.499"/>
</g>
<!-- Node4 -->
<g id="node4" class="node"><title>Node4</title>
<g id="a_node4"><a xlink:href="../../d8/d84/a00001.html#a3879d720358159542af1aaf3a64b46b4" target="_top" xlink:title="hydra::AddPdf::GetPdFs">
<polygon fill="none" stroke="black" points="172.5,-38.5 172.5,-57.5 296.5,-57.5 296.5,-38.5 172.5,-38.5"/>
<text text-anchor="middle" x="234.5" y="-45.5" font-family="Helvetica,sans-Serif" font-size="10.00">hydra::AddPdf::GetPdFs</text>
</a>
</g>
</g>
<!-- Node1&#45;&gt;Node4 -->
<g id="edge3" class="edge"><title>Node1&#45;&gt;Node4</title>
<path fill="none" stroke="midnightblue" d="M126.153,-60.033C137.963,-58.7091 150.405,-57.3144 162.467,-55.9624"/>
<polygon fill="midnightblue" stroke="midnightblue" points="162.938,-59.4316 172.486,-54.8393 162.159,-52.4751 162.938,-59.4316"/>
</g>
<!-- Node5 -->
<g id="node5" class="node"><title>Node5</title>
<g id="a_node5"><a xlink:href="../../d8/d84/a00001.html#adfbdafb558049a8c7fc8a459ebc5a026" target="_top" xlink:title="hydra::AddPdf::IsExtended">
<polygon fill="none" stroke="black" points="167.5,-0.5 167.5,-19.5 301.5,-19.5 301.5,-0.5 167.5,-0.5"/>
<text text-anchor="middle" x="234.5" y="-7.5" font-family="Helvetica,sans-Serif" font-size="10.00">hydra::AddPdf::IsExtended</text>
</a>
</g>
</g>
<!-- Node1&#45;&gt;Node5 -->
<g id="edge4" class="edge"><title>Node1&#45;&gt;Node5</title>
<path fill="none" stroke="midnightblue" d="M86.7121,-57.372C106.412,-49.2198 135.8,-37.5322 162,-29 169.218,-26.6495 176.914,-24.3716 184.483,-22.2581"/>
<polygon fill="midnightblue" stroke="midnightblue" points="185.579,-25.5869 194.308,-19.5821 183.74,-18.833 185.579,-25.5869"/>
</g>
</g>
</svg>
