<?xml version="1.0" encoding="UTF-8" standalone="no"?>
<!DOCTYPE svg PUBLIC "-//W3C//DTD SVG 1.1//EN"
 "http://www.w3.org/Graphics/SVG/1.1/DTD/svg11.dtd">
<!-- Generated by graphviz version 2.38.0 (20140413.2041)
 -->
<!-- Title: hydra::detail::make_tuple_helper Pages: 1 -->
<svg width="244pt" height="39pt"
 viewBox="0.00 0.00 244.00 39.00" xmlns="http://www.w3.org/2000/svg" xmlns:xlink="http://www.w3.org/1999/xlink">
<g id="graph0" class="graph" transform="scale(1 1) rotate(0) translate(4 35)">
<title>hydra::detail::make_tuple_helper</title>
<!-- Node1 -->
<g id="node1" class="node"><title>Node1</title>
<polygon fill="#bfbfbf" stroke="black" points="0,-0.5 0,-30.5 100,-30.5 100,-0.5 0,-0.5"/>
<text text-anchor="start" x="8" y="-18.5" font-family="Helvetica,sans-Serif" font-size="10.00">hydra::detail::make</text>
<text text-anchor="middle" x="50" y="-7.5" font-family="Helvetica,sans-Serif" font-size="10.00">_tuple_helper</text>
</g>
<!-- Node2 -->
<g id="node2" class="node"><title>Node2</title>
<g id="a_node2"><a xlink:href="../../d8/d84/a00001.html#a7a6512a045d76df0767fcabda4adafa0" target="_top" xlink:title="hydra::detail::make\l_tuple">
<polygon fill="none" stroke="black" points="136,-0.5 136,-30.5 236,-30.5 236,-0.5 136,-0.5"/>
<text text-anchor="start" x="144" y="-18.5" font-family="Helvetica,sans-Serif" font-size="10.00">hydra::detail::make</text>
<text text-anchor="middle" x="186" y="-7.5" font-family="Helvetica,sans-Serif" font-size="10.00">_tuple</text>
</a>
</g>
</g>
<!-- Node1&#45;&gt;Node2 -->
<g id="edge1" class="edge"><title>Node1&#45;&gt;Node2</title>
<path fill="none" stroke="midnightblue" d="M100.136,-8.96794C108.42,-8.76132 117.097,-8.70161 125.608,-8.78883"/>
<polygon fill="midnightblue" stroke="midnightblue" points="125.811,-12.2928 135.87,-8.96809 125.933,-5.29387 125.811,-12.2928"/>
</g>
<!-- Node2&#45;&gt;Node1 -->
<g id="edge2" class="edge"><title>Node2&#45;&gt;Node1</title>
<path fill="none" stroke="midnightblue" d="M135.87,-22.0319C127.586,-22.2386 118.909,-22.2984 110.398,-22.2112"/>
<polygon fill="midnightblue" stroke="midnightblue" points="110.195,-18.7073 100.136,-22.0321 110.073,-25.7062 110.195,-18.7073"/>
</g>
</g>
</svg>
