<?xml version="1.0" encoding="UTF-8" standalone="no"?>
<!DOCTYPE svg PUBLIC "-//W3C//DTD SVG 1.1//EN"
 "http://www.w3.org/Graphics/SVG/1.1/DTD/svg11.dtd">
<!-- Generated by graphviz version 2.38.0 (20140413.2041)
 -->
<!-- Title: hydra::detail::get_zip_iterator Pages: 1 -->
<svg width="402pt" height="116pt"
 viewBox="0.00 0.00 402.00 116.00" xmlns="http://www.w3.org/2000/svg" xmlns:xlink="http://www.w3.org/1999/xlink">
<g id="graph0" class="graph" transform="scale(1 1) rotate(0) translate(4 112)">
<title>hydra::detail::get_zip_iterator</title>
<!-- Node1 -->
<g id="node1" class="node"><title>Node1</title>
<polygon fill="#bfbfbf" stroke="black" points="0,-39 0,-69 89,-69 89,-39 0,-39"/>
<text text-anchor="start" x="8" y="-57" font-family="Helvetica,sans-Serif" font-size="10.00">hydra::detail::get</text>
<text text-anchor="middle" x="44.5" y="-46" font-family="Helvetica,sans-Serif" font-size="10.00">_zip_iterator</text>
</g>
<!-- Node2 -->
<g id="node2" class="node"><title>Node2</title>
<g id="a_node2"><a xlink:href="../../d3/d52/a00023.html#a5ab93fc4938347f998143d541f3c5ded" target="_top" xlink:title="hydra::Events::Events">
<polygon fill="none" stroke="black" points="130.5,-88.5 130.5,-107.5 244.5,-107.5 244.5,-88.5 130.5,-88.5"/>
<text text-anchor="middle" x="187.5" y="-95.5" font-family="Helvetica,sans-Serif" font-size="10.00">hydra::Events::Events</text>
</a>
</g>
</g>
<!-- Node1&#45;&gt;Node2 -->
<g id="edge1" class="edge"><title>Node1&#45;&gt;Node2</title>
<path fill="none" stroke="midnightblue" d="M98.9297,-70.8423C107.641,-73.5766 116.57,-76.3723 125,-79 134.922,-82.0927 145.751,-85.4458 155.519,-88.4621"/>
<polygon fill="midnightblue" stroke="midnightblue" points="99.8149,-67.4518 89.2256,-67.7936 97.7168,-74.13 99.8149,-67.4518"/>
</g>
<!-- Node3 -->
<g id="node3" class="node"><title>Node3</title>
<g id="a_node3"><a xlink:href="../../d8/d84/a00001.html#ab9ff11feecf1326d0b788d755293c639" target="_top" xlink:title="hydra::detail::launch\l_decayer">
<polygon fill="none" stroke="black" points="135.5,-39 135.5,-69 239.5,-69 239.5,-39 135.5,-39"/>
<text text-anchor="start" x="143.5" y="-57" font-family="Helvetica,sans-Serif" font-size="10.00">hydra::detail::launch</text>
<text text-anchor="middle" x="187.5" y="-46" font-family="Helvetica,sans-Serif" font-size="10.00">_decayer</text>
</a>
</g>
</g>
<!-- Node1&#45;&gt;Node3 -->
<g id="edge2" class="edge"><title>Node1&#45;&gt;Node3</title>
<path fill="none" stroke="midnightblue" d="M99.469,-54C111.225,-54 123.632,-54 135.278,-54"/>
<polygon fill="midnightblue" stroke="midnightblue" points="99.3404,-50.5001 89.3404,-54 99.3403,-57.5001 99.3404,-50.5001"/>
</g>
<!-- Node5 -->
<g id="node5" class="node"><title>Node5</title>
<g id="a_node5"><a xlink:href="../../d3/d52/a00023.html#ace3fe647bf093ad875cc1568ac8bdb53" target="_top" xlink:title="hydra::Events::operator=">
<polygon fill="none" stroke="black" points="125,-0.5 125,-19.5 250,-19.5 250,-0.5 125,-0.5"/>
<text text-anchor="middle" x="187.5" y="-7.5" font-family="Helvetica,sans-Serif" font-size="10.00">hydra::Events::operator=</text>
</a>
</g>
</g>
<!-- Node1&#45;&gt;Node5 -->
<g id="edge4" class="edge"><title>Node1&#45;&gt;Node5</title>
<path fill="none" stroke="midnightblue" d="M99.1407,-37.2611C118.249,-31.2982 139.113,-24.7875 155.658,-19.6245"/>
<polygon fill="midnightblue" stroke="midnightblue" points="97.8437,-33.9992 89.3404,-40.3193 99.929,-40.6815 97.8437,-33.9992"/>
</g>
<!-- Node4 -->
<g id="node4" class="node"><title>Node4</title>
<g id="a_node4"><a xlink:href="../../d1/d6f/a00063.html#a4ca0a20cd6c56424099b22b2bee2fa7e" target="_top" xlink:title="hydra::PhaseSpace::\lGenerate">
<polygon fill="none" stroke="black" points="286,-39 286,-69 394,-69 394,-39 286,-39"/>
<text text-anchor="start" x="294" y="-57" font-family="Helvetica,sans-Serif" font-size="10.00">hydra::PhaseSpace::</text>
<text text-anchor="middle" x="340" y="-46" font-family="Helvetica,sans-Serif" font-size="10.00">Generate</text>
</a>
</g>
</g>
<!-- Node3&#45;&gt;Node4 -->
<g id="edge3" class="edge"><title>Node3&#45;&gt;Node4</title>
<path fill="none" stroke="midnightblue" d="M250.125,-54C261.962,-54 274.265,-54 285.809,-54"/>
<polygon fill="midnightblue" stroke="midnightblue" points="249.873,-50.5001 239.873,-54 249.873,-57.5001 249.873,-50.5001"/>
</g>
</g>
</svg>
