<?xml version="1.0" encoding="UTF-8" standalone="no"?>
<!DOCTYPE svg PUBLIC "-//W3C//DTD SVG 1.1//EN"
 "http://www.w3.org/Graphics/SVG/1.1/DTD/svg11.dtd">
<!-- Generated by graphviz version 2.38.0 (20140413.2041)
 -->
<!-- Title: hydra::detail::accumulate Pages: 1 -->
<svg width="292pt" height="88pt"
 viewBox="0.00 0.00 292.00 88.00" xmlns="http://www.w3.org/2000/svg" xmlns:xlink="http://www.w3.org/1999/xlink">
<g id="graph0" class="graph" transform="scale(1 1) rotate(0) translate(4 84)">
<title>hydra::detail::accumulate</title>
<!-- Node1 -->
<g id="node1" class="node"><title>Node1</title>
<polygon fill="#bfbfbf" stroke="black" points="0,-30 0,-49 126,-49 126,-30 0,-30"/>
<text text-anchor="middle" x="63" y="-37" font-family="Helvetica,sans-Serif" font-size="10.00">hydra::detail::accumulate</text>
</g>
<!-- Node2 -->
<g id="node2" class="node"><title>Node2</title>
<g id="a_node2"><a xlink:href="../../d8/d84/a00001.html#a40b711ffcfa631bc3c7272471feca961" target="_top" xlink:title="hydra::detail::sum\l_tuple">
<polygon fill="none" stroke="black" points="175.5,-49.5 175.5,-79.5 270.5,-79.5 270.5,-49.5 175.5,-49.5"/>
<text text-anchor="start" x="183.5" y="-67.5" font-family="Helvetica,sans-Serif" font-size="10.00">hydra::detail::sum</text>
<text text-anchor="middle" x="223" y="-56.5" font-family="Helvetica,sans-Serif" font-size="10.00">_tuple</text>
</a>
</g>
</g>
<!-- Node1&#45;&gt;Node2 -->
<g id="edge1" class="edge"><title>Node1&#45;&gt;Node2</title>
<path fill="none" stroke="midnightblue" d="M124.184,-49.0227C137.666,-51.156 151.924,-53.412 165.26,-55.5222"/>
<polygon fill="midnightblue" stroke="midnightblue" points="164.827,-58.9971 175.251,-57.103 165.921,-52.0831 164.827,-58.9971"/>
</g>
<!-- Node3 -->
<g id="node3" class="node"><title>Node3</title>
<g id="a_node3"><a xlink:href="../../d8/d53/a00081.html#ae3c60acde5c7c544e48dde85961ee521" target="_top" xlink:title="hydra::detail::TypeTraits\l::zero">
<polygon fill="none" stroke="black" points="162,-0.5 162,-30.5 284,-30.5 284,-0.5 162,-0.5"/>
<text text-anchor="start" x="170" y="-18.5" font-family="Helvetica,sans-Serif" font-size="10.00">hydra::detail::TypeTraits</text>
<text text-anchor="middle" x="223" y="-7.5" font-family="Helvetica,sans-Serif" font-size="10.00">::zero</text>
</a>
</g>
</g>
<!-- Node1&#45;&gt;Node3 -->
<g id="edge2" class="edge"><title>Node1&#45;&gt;Node3</title>
<path fill="none" stroke="midnightblue" d="M126.446,-30.0146C134.724,-28.757 143.257,-27.461 151.658,-26.1849"/>
<polygon fill="midnightblue" stroke="midnightblue" points="152.452,-29.6045 161.813,-24.6424 151.4,-22.6839 152.452,-29.6045"/>
</g>
</g>
</svg>
