<?xml version="1.0" encoding="UTF-8" standalone="no"?>
<!DOCTYPE svg PUBLIC "-//W3C//DTD SVG 1.1//EN"
 "http://www.w3.org/Graphics/SVG/1.1/DTD/svg11.dtd">
<!-- Generated by graphviz version 2.38.0 (20140413.2041)
 -->
<!-- Title: hydra::detail::addTuples Pages: 1 -->
<svg width="286pt" height="66pt"
 viewBox="0.00 0.00 286.00 66.00" xmlns="http://www.w3.org/2000/svg" xmlns:xlink="http://www.w3.org/1999/xlink">
<g id="graph0" class="graph" transform="scale(1 1) rotate(0) translate(4 62)">
<title>hydra::detail::addTuples</title>
<!-- Node1 -->
<g id="node1" class="node"><title>Node1</title>
<polygon fill="#bfbfbf" stroke="black" points="0,-19.5 0,-38.5 121,-38.5 121,-19.5 0,-19.5"/>
<text text-anchor="middle" x="60.5" y="-26.5" font-family="Helvetica,sans-Serif" font-size="10.00">hydra::detail::addTuples</text>
</g>
<!-- Node2 -->
<g id="node2" class="node"><title>Node2</title>
<g id="a_node2"><a xlink:href="../../d8/d84/a00001.html#ac2879f2cb813e483ba54a58699425ec8" target="_top" xlink:title="hydra::detail::addTuples">
<polygon fill="none" stroke="black" points="157,-38.5 157,-57.5 278,-57.5 278,-38.5 157,-38.5"/>
<text text-anchor="middle" x="217.5" y="-45.5" font-family="Helvetica,sans-Serif" font-size="10.00">hydra::detail::addTuples</text>
</a>
</g>
</g>
<!-- Node1&#45;&gt;Node2 -->
<g id="edge1" class="edge"><title>Node1&#45;&gt;Node2</title>
<path fill="none" stroke="midnightblue" d="M131.382,-37.5662C139.933,-38.6144 148.609,-39.6779 156.988,-40.7049"/>
<polygon fill="midnightblue" stroke="midnightblue" points="131.779,-34.0887 121.427,-36.3459 130.927,-41.0367 131.779,-34.0887"/>
</g>
<!-- Node3 -->
<g id="node3" class="node"><title>Node3</title>
<g id="a_node3"><a xlink:href="../../d7/de0/a00022.html#a0a8274fbbbbe6c610c7233441a053058" target="_top" xlink:title="hydra::operator+">
<polygon fill="none" stroke="black" points="173.5,-0.5 173.5,-19.5 261.5,-19.5 261.5,-0.5 173.5,-0.5"/>
<text text-anchor="middle" x="217.5" y="-7.5" font-family="Helvetica,sans-Serif" font-size="10.00">hydra::operator+</text>
</a>
</g>
</g>
<!-- Node1&#45;&gt;Node3 -->
<g id="edge2" class="edge"><title>Node1&#45;&gt;Node3</title>
<path fill="none" stroke="midnightblue" d="M131.623,-20.4043C145.742,-18.6736 160.19,-16.9025 173.071,-15.3236"/>
<polygon fill="midnightblue" stroke="midnightblue" points="130.927,-16.9633 121.427,-21.6541 131.779,-23.9113 130.927,-16.9633"/>
</g>
</g>
</svg>
