<?xml version="1.0" encoding="UTF-8" standalone="no"?>
<!DOCTYPE svg PUBLIC "-//W3C//DTD SVG 1.1//EN"
 "http://www.w3.org/Graphics/SVG/1.1/DTD/svg11.dtd">
<!-- Generated by graphviz version 2.38.0 (20140413.2041)
 -->
<!-- Title: Parameter.h Pages: 1 -->
<svg width="1337pt" height="252pt"
 viewBox="0.00 0.00 1336.63 252.00" xmlns="http://www.w3.org/2000/svg" xmlns:xlink="http://www.w3.org/1999/xlink">
<g id="graph0" class="graph" transform="scale(1 1) rotate(0) translate(4 248)">
<title>Parameter.h</title>
<!-- Node1 -->
<g id="node1" class="node"><title>Node1</title>
<polygon fill="#bfbfbf" stroke="black" points="208.131,-224.5 208.131,-243.5 278.131,-243.5 278.131,-224.5 208.131,-224.5"/>
<text text-anchor="middle" x="243.131" y="-231.5" font-family="Helvetica,sans-Serif" font-size="10.00">Parameter.h</text>
</g>
<!-- Node2 -->
<g id="node2" class="node"><title>Node2</title>
<g id="a_node2"><a xlink:href="../../d1/d6f/a00063.html" target="_top" xlink:title="AddPdf.h">
<polygon fill="none" stroke="black" points="204.631,-56.5 204.631,-75.5 261.631,-75.5 261.631,-56.5 204.631,-56.5"/>
<text text-anchor="middle" x="233.131" y="-63.5" font-family="Helvetica,sans-Serif" font-size="10.00">AddPdf.h</text>
</a>
</g>
</g>
<!-- Node1&#45;&gt;Node2 -->
<g id="edge1" class="edge"><title>Node1&#45;&gt;Node2</title>
<path fill="none" stroke="midnightblue" d="M241.982,-213.93C239.813,-177.92 235.193,-101.231 233.647,-75.5681"/>
<polygon fill="midnightblue" stroke="midnightblue" points="238.498,-214.304 242.593,-224.075 245.485,-213.883 238.498,-214.304"/>
</g>
<!-- Node3 -->
<g id="node3" class="node"><title>Node3</title>
<g id="a_node3"><a xlink:href="../../db/dab/a00089.html" target="_top" xlink:title="HydraFitExample.cpp">
<polygon fill="none" stroke="black" points="264.631,-0.5 264.631,-19.5 375.631,-19.5 375.631,-0.5 264.631,-0.5"/>
<text text-anchor="middle" x="320.131" y="-7.5" font-family="Helvetica,sans-Serif" font-size="10.00">HydraFitExample.cpp</text>
</a>
</g>
</g>
<!-- Node1&#45;&gt;Node3 -->
<g id="edge56" class="edge"><title>Node1&#45;&gt;Node3</title>
<path fill="none" stroke="midnightblue" d="M249.518,-214.585C265.282,-169.135 305.589,-52.9236 317.049,-19.8837"/>
<polygon fill="midnightblue" stroke="midnightblue" points="246.119,-213.703 246.149,-224.297 252.733,-215.996 246.119,-213.703"/>
</g>
<!-- Node4 -->
<g id="node4" class="node"><title>Node4</title>
<g id="a_node4"><a xlink:href="../../d9/dec/a00090.html" target="_top" xlink:title="HydraFitExample.cu">
<polygon fill="none" stroke="black" points="140.131,-0.5 140.131,-19.5 246.131,-19.5 246.131,-0.5 140.131,-0.5"/>
<text text-anchor="middle" x="193.131" y="-7.5" font-family="Helvetica,sans-Serif" font-size="10.00">HydraFitExample.cu</text>
</a>
</g>
</g>
<!-- Node1&#45;&gt;Node4 -->
<g id="edge57" class="edge"><title>Node1&#45;&gt;Node4</title>
<path fill="none" stroke="midnightblue" d="M205.659,-221.177C150.013,-201.342 47.5465,-155.518 5.13056,-76 -23.3129,-22.6762 74.9836,-11.8815 140.034,-10.3889"/>
<polygon fill="midnightblue" stroke="midnightblue" points="204.558,-224.499 215.153,-224.47 206.852,-217.886 204.558,-224.499"/>
</g>
<!-- Node5 -->
<g id="node5" class="node"><title>Node5</title>
<g id="a_node5"><a xlink:href="../../d8/d53/a00081.html" target="_top" xlink:title="Function.h">
<polygon fill="none" stroke="black" points="562.131,-168.5 562.131,-187.5 624.131,-187.5 624.131,-168.5 562.131,-168.5"/>
<text text-anchor="middle" x="593.131" y="-175.5" font-family="Helvetica,sans-Serif" font-size="10.00">Function.h</text>
</a>
</g>
</g>
<!-- Node1&#45;&gt;Node5 -->
<g id="edge4" class="edge"><title>Node1&#45;&gt;Node5</title>
<path fill="none" stroke="midnightblue" d="M288.443,-226.009C360.661,-214.867 500.025,-193.365 562.049,-183.795"/>
<polygon fill="midnightblue" stroke="midnightblue" points="287.642,-222.591 278.292,-227.575 288.709,-229.509 287.642,-222.591"/>
</g>
<!-- Node16 -->
<g id="node16" class="node"><title>Node16</title>
<g id="a_node16"><a xlink:href="../../d9/da4/a00078.html" target="_top" xlink:title="Exp.h">
<polygon fill="none" stroke="black" points="394.131,-56.5 394.131,-75.5 436.131,-75.5 436.131,-56.5 394.131,-56.5"/>
<text text-anchor="middle" x="415.131" y="-63.5" font-family="Helvetica,sans-Serif" font-size="10.00">Exp.h</text>
</a>
</g>
</g>
<!-- Node1&#45;&gt;Node16 -->
<g id="edge54" class="edge"><title>Node1&#45;&gt;Node16</title>
<path fill="none" stroke="midnightblue" d="M258.17,-216.807C280.329,-193.158 323.327,-148.066 362.131,-112 376.277,-98.8519 393.444,-84.5608 404.329,-75.6914"/>
<polygon fill="midnightblue" stroke="midnightblue" points="255.508,-214.529 251.242,-224.228 260.624,-219.306 255.508,-214.529"/>
</g>
<!-- Node17 -->
<g id="node17" class="node"><title>Node17</title>
<g id="a_node17"><a xlink:href="../../df/d13/a00085.html" target="_top" xlink:title="Gauss.h">
<polygon fill="none" stroke="black" points="454.631,-56.5 454.631,-75.5 507.631,-75.5 507.631,-56.5 454.631,-56.5"/>
<text text-anchor="middle" x="481.131" y="-63.5" font-family="Helvetica,sans-Serif" font-size="10.00">Gauss.h</text>
</a>
</g>
</g>
<!-- Node1&#45;&gt;Node17 -->
<g id="edge55" class="edge"><title>Node1&#45;&gt;Node17</title>
<path fill="none" stroke="midnightblue" d="M264.103,-218.815C277.101,-209.995 294.124,-198.393 309.131,-188 369.459,-146.217 441.086,-95.4533 469.078,-75.5696"/>
<polygon fill="midnightblue" stroke="midnightblue" points="262.135,-215.921 255.821,-224.428 266.063,-221.715 262.135,-215.921"/>
</g>
<!-- Node18 -->
<g id="node18" class="node"><title>Node18</title>
<g id="a_node18"><a xlink:href="../../d9/dcc/a00102.html" target="_top" xlink:title="Pdf.h">
<polygon fill="none" stroke="black" points="156.131,-112.5 156.131,-131.5 196.131,-131.5 196.131,-112.5 156.131,-112.5"/>
<text text-anchor="middle" x="176.131" y="-119.5" font-family="Helvetica,sans-Serif" font-size="10.00">Pdf.h</text>
</a>
</g>
</g>
<!-- Node1&#45;&gt;Node18 -->
<g id="edge47" class="edge"><title>Node1&#45;&gt;Node18</title>
<path fill="none" stroke="midnightblue" d="M229.892,-216.221C223.598,-207.933 216.152,-197.661 210.131,-188 198.006,-168.546 186.122,-144.314 180.135,-131.641"/>
<polygon fill="midnightblue" stroke="midnightblue" points="227.262,-218.542 236.148,-224.312 232.8,-214.26 227.262,-218.542"/>
</g>
<!-- Node19 -->
<g id="node19" class="node"><title>Node19</title>
<g id="a_node19"><a xlink:href="../../df/d6a/a00119.html" target="_top" xlink:title="UserParameters.h">
<polygon fill="none" stroke="black" points="14.1306,-56.5 14.1306,-75.5 110.131,-75.5 110.131,-56.5 14.1306,-56.5"/>
<text text-anchor="middle" x="62.1306" y="-63.5" font-family="Helvetica,sans-Serif" font-size="10.00">UserParameters.h</text>
</a>
</g>
</g>
<!-- Node1&#45;&gt;Node19 -->
<g id="edge51" class="edge"><title>Node1&#45;&gt;Node19</title>
<path fill="none" stroke="midnightblue" d="M225.781,-217.088C188.193,-182.615 100.303,-102.009 71.4729,-75.5681"/>
<polygon fill="midnightblue" stroke="midnightblue" points="223.664,-219.895 233.399,-224.075 228.395,-214.737 223.664,-219.895"/>
</g>
<!-- Node2&#45;&gt;Node3 -->
<g id="edge2" class="edge"><title>Node2&#45;&gt;Node3</title>
<path fill="none" stroke="midnightblue" d="M255.846,-50.9005C271.799,-40.9986 292.628,-28.0705 306.187,-19.6545"/>
<polygon fill="midnightblue" stroke="midnightblue" points="253.759,-48.0765 247.109,-56.324 257.451,-54.024 253.759,-48.0765"/>
</g>
<!-- Node2&#45;&gt;Node4 -->
<g id="edge3" class="edge"><title>Node2&#45;&gt;Node4</title>
<path fill="none" stroke="midnightblue" d="M220.431,-47.8554C213.505,-38.5048 205.224,-27.3265 199.613,-19.7511"/>
<polygon fill="midnightblue" stroke="midnightblue" points="217.761,-50.1307 226.525,-56.083 223.386,-45.9641 217.761,-50.1307"/>
</g>
<!-- Node5&#45;&gt;Node3 -->
<g id="edge41" class="edge"><title>Node5&#45;&gt;Node3</title>
<path fill="none" stroke="midnightblue" d="M555.437,-165.324C531.107,-157.222 499.083,-145.488 472.131,-132 431.008,-111.421 420.926,-104.867 385.131,-76 362.521,-57.7668 339.206,-32.6058 327.617,-19.5832"/>
<polygon fill="midnightblue" stroke="midnightblue" points="554.43,-168.677 565.022,-168.461 556.607,-162.024 554.43,-168.677"/>
</g>
<!-- Node5&#45;&gt;Node4 -->
<g id="edge42" class="edge"><title>Node5&#45;&gt;Node4</title>
<path fill="none" stroke="midnightblue" d="M552.229,-167.919C519.251,-160.041 471.969,-147.48 432.131,-132 343.479,-97.554 243.95,-40.9276 207.493,-19.5383"/>
<polygon fill="midnightblue" stroke="midnightblue" points="551.445,-171.33 561.981,-170.212 553.047,-164.516 551.445,-171.33"/>
</g>
<!-- Node6 -->
<g id="node6" class="node"><title>Node6</title>
<g id="a_node6"><a xlink:href="../../d4/d3e/a00116.html" target="_top" xlink:title="Sum.h">
<polygon fill="none" stroke="black" points="681.631,-112.5 681.631,-131.5 726.631,-131.5 726.631,-112.5 681.631,-112.5"/>
<text text-anchor="middle" x="704.131" y="-119.5" font-family="Helvetica,sans-Serif" font-size="10.00">Sum.h</text>
</a>
</g>
</g>
<!-- Node5&#45;&gt;Node6 -->
<g id="edge5" class="edge"><title>Node5&#45;&gt;Node6</title>
<path fill="none" stroke="midnightblue" d="M620.136,-163.862C640.718,-153.849 668.475,-140.346 686.341,-131.655"/>
<polygon fill="midnightblue" stroke="midnightblue" points="618.426,-160.802 610.965,-168.324 621.488,-167.097 618.426,-160.802"/>
</g>
<!-- Node8 -->
<g id="node8" class="node"><title>Node8</title>
<g id="a_node8"><a xlink:href="../../d1/d7c/a00003.html" target="_top" xlink:title="HydraEvaluateExample take parameters from the command line, fill a range with random numbers and eval...">
<polygon fill="none" stroke="black" points="735.131,-0.5 735.131,-19.5 873.131,-19.5 873.131,-0.5 735.131,-0.5"/>
<text text-anchor="middle" x="804.131" y="-7.5" font-family="Helvetica,sans-Serif" font-size="10.00">HydraEvaluateExample.cpp</text>
</a>
</g>
</g>
<!-- Node5&#45;&gt;Node8 -->
<g id="edge39" class="edge"><title>Node5&#45;&gt;Node8</title>
<path fill="none" stroke="midnightblue" d="M634.362,-169.039C663.832,-162.163 703.674,-150.385 735.131,-132 766.623,-113.594 778.327,-108.376 795.131,-76 804.682,-57.5968 805.201,-32.5075 804.703,-19.5406"/>
<polygon fill="midnightblue" stroke="midnightblue" points="633.396,-165.668 624.402,-171.269 634.925,-172.499 633.396,-165.668"/>
</g>
<!-- Node9 -->
<g id="node9" class="node"><title>Node9</title>
<g id="a_node9"><a xlink:href="../../d8/d84/a00001.html" target="_top" xlink:title="HydraEvaluateExample takes parameters from the command line, fill a range with random numbers and eva...">
<polygon fill="none" stroke="black" points="891.631,-0.5 891.631,-19.5 1024.63,-19.5 1024.63,-0.5 891.631,-0.5"/>
<text text-anchor="middle" x="958.131" y="-7.5" font-family="Helvetica,sans-Serif" font-size="10.00">HydraEvaluateExample.cu</text>
</a>
</g>
</g>
<!-- Node5&#45;&gt;Node9 -->
<g id="edge40" class="edge"><title>Node5&#45;&gt;Node9</title>
<path fill="none" stroke="midnightblue" d="M634.612,-174.514C687.292,-170.321 780.335,-159.419 855.131,-132 901.148,-115.131 923.258,-116.988 950.131,-76 961.476,-58.6944 960.733,-33.1421 959.356,-19.8157"/>
<polygon fill="midnightblue" stroke="midnightblue" points="634.027,-171.048 624.318,-175.288 634.552,-178.028 634.027,-171.048"/>
</g>
<!-- Node10 -->
<g id="node10" class="node"><title>Node10</title>
<g id="a_node10"><a xlink:href="../../da/d82/a00091.html" target="_top" xlink:title="HydraPhaseSpaceExample.cpp">
<polygon fill="none" stroke="black" points="393.631,-0.5 393.631,-19.5 548.631,-19.5 548.631,-0.5 393.631,-0.5"/>
<text text-anchor="middle" x="471.131" y="-7.5" font-family="Helvetica,sans-Serif" font-size="10.00">HydraPhaseSpaceExample.cpp</text>
</a>
</g>
</g>
<!-- Node5&#45;&gt;Node10 -->
<g id="edge43" class="edge"><title>Node5&#45;&gt;Node10</title>
<path fill="none" stroke="midnightblue" d="M583.66,-159.586C570.12,-135.333 543.792,-90.4831 516.131,-56 505.207,-42.383 490.626,-28.4331 481.063,-19.7482"/>
<polygon fill="midnightblue" stroke="midnightblue" points="580.604,-161.292 588.499,-168.357 586.733,-157.91 580.604,-161.292"/>
</g>
<!-- Node11 -->
<g id="node11" class="node"><title>Node11</title>
<g id="a_node11"><a xlink:href="../../d1/dc1/a00092.html" target="_top" xlink:title="HydraPhaseSpaceExample.cu">
<polygon fill="none" stroke="black" points="567.131,-0.5 567.131,-19.5 717.131,-19.5 717.131,-0.5 567.131,-0.5"/>
<text text-anchor="middle" x="642.131" y="-7.5" font-family="Helvetica,sans-Serif" font-size="10.00">HydraPhaseSpaceExample.cu</text>
</a>
</g>
</g>
<!-- Node5&#45;&gt;Node11 -->
<g id="edge44" class="edge"><title>Node5&#45;&gt;Node11</title>
<path fill="none" stroke="midnightblue" d="M588.704,-158.506C583.784,-133.929 578.329,-89.6901 593.131,-56 600.099,-40.1383 615.724,-27.415 627.469,-19.598"/>
<polygon fill="midnightblue" stroke="midnightblue" points="585.292,-159.287 590.852,-168.306 592.13,-157.788 585.292,-159.287"/>
</g>
<!-- Node12 -->
<g id="node12" class="node"><title>Node12</title>
<g id="a_node12"><a xlink:href="../../d4/d7d/a00093.html" target="_top" xlink:title="HydraRandomExample.cpp">
<polygon fill="none" stroke="black" points="1042.63,-0.5 1042.63,-19.5 1179.63,-19.5 1179.63,-0.5 1042.63,-0.5"/>
<text text-anchor="middle" x="1111.13" y="-7.5" font-family="Helvetica,sans-Serif" font-size="10.00">HydraRandomExample.cpp</text>
</a>
</g>
</g>
<!-- Node5&#45;&gt;Node12 -->
<g id="edge45" class="edge"><title>Node5&#45;&gt;Node12</title>
<path fill="none" stroke="midnightblue" d="M634.342,-175.666C693.867,-172.685 806.686,-163.059 897.131,-132 980.286,-103.445 1068.18,-42.4954 1099.35,-19.7764"/>
<polygon fill="midnightblue" stroke="midnightblue" points="634.04,-172.176 624.212,-176.134 634.363,-179.169 634.04,-172.176"/>
</g>
<!-- Node13 -->
<g id="node13" class="node"><title>Node13</title>
<g id="a_node13"><a xlink:href="../../dc/d54/a00094.html" target="_top" xlink:title="HydraRandomExample.cu">
<polygon fill="none" stroke="black" points="1197.63,-0.5 1197.63,-19.5 1328.63,-19.5 1328.63,-0.5 1197.63,-0.5"/>
<text text-anchor="middle" x="1263.13" y="-7.5" font-family="Helvetica,sans-Serif" font-size="10.00">HydraRandomExample.cu</text>
</a>
</g>
</g>
<!-- Node5&#45;&gt;Node13 -->
<g id="edge46" class="edge"><title>Node5&#45;&gt;Node13</title>
<path fill="none" stroke="midnightblue" d="M634.554,-174.568C699.59,-170.08 829.264,-158.427 936.131,-132 1057.18,-102.065 1195.16,-41.9565 1244.43,-19.6185"/>
<polygon fill="midnightblue" stroke="midnightblue" points="634.053,-171.093 624.308,-175.252 634.519,-178.078 634.053,-171.093"/>
</g>
<!-- Node14 -->
<g id="node14" class="node"><title>Node14</title>
<g id="a_node14"><a xlink:href="../../db/df8/a00076.html" target="_top" xlink:title="Evaluate.h">
<polygon fill="none" stroke="black" points="602.631,-56.5 602.631,-75.5 665.631,-75.5 665.631,-56.5 602.631,-56.5"/>
<text text-anchor="middle" x="634.131" y="-63.5" font-family="Helvetica,sans-Serif" font-size="10.00">Evaluate.h</text>
</a>
</g>
</g>
<!-- Node5&#45;&gt;Node14 -->
<g id="edge15" class="edge"><title>Node5&#45;&gt;Node14</title>
<path fill="none" stroke="midnightblue" d="M599.84,-158.998C608.786,-134.997 624.265,-93.4683 630.928,-75.5914"/>
<polygon fill="midnightblue" stroke="midnightblue" points="596.561,-157.776 596.348,-168.368 603.12,-160.221 596.561,-157.776"/>
</g>
<!-- Node15 -->
<g id="node15" class="node"><title>Node15</title>
<g id="a_node15"><a xlink:href="../../d4/d63/a00082.html" target="_top" xlink:title="FunctionWrapper.h">
<polygon fill="none" stroke="black" points="842.631,-56.5 842.631,-75.5 941.631,-75.5 941.631,-56.5 842.631,-56.5"/>
<text text-anchor="middle" x="892.131" y="-63.5" font-family="Helvetica,sans-Serif" font-size="10.00">FunctionWrapper.h</text>
</a>
</g>
</g>
<!-- Node5&#45;&gt;Node15 -->
<g id="edge21" class="edge"><title>Node5&#45;&gt;Node15</title>
<path fill="none" stroke="midnightblue" d="M634.577,-176.417C683.551,-174.127 766.194,-165.13 828.131,-132 854.105,-118.107 876.12,-90.089 886.218,-75.8057"/>
<polygon fill="midnightblue" stroke="midnightblue" points="634.217,-172.929 624.362,-176.82 634.493,-179.923 634.217,-172.929"/>
</g>
<!-- Node5&#45;&gt;Node16 -->
<g id="edge29" class="edge"><title>Node5&#45;&gt;Node16</title>
<path fill="none" stroke="midnightblue" d="M564.268,-164.126C546.27,-155.721 522.86,-144.094 503.131,-132 473.659,-113.934 441.614,-88.7025 425.551,-75.6251"/>
<polygon fill="midnightblue" stroke="midnightblue" points="563.106,-167.444 573.653,-168.447 566.033,-161.085 563.106,-167.444"/>
</g>
<!-- Node5&#45;&gt;Node17 -->
<g id="edge34" class="edge"><title>Node5&#45;&gt;Node17</title>
<path fill="none" stroke="midnightblue" d="M566.116,-163.637C551.933,-155.744 534.899,-144.796 522.131,-132 504.979,-114.811 491.492,-89.2095 485.128,-75.8449"/>
<polygon fill="midnightblue" stroke="midnightblue" points="564.484,-166.733 574.951,-168.372 567.79,-160.563 564.484,-166.733"/>
</g>
<!-- Node7 -->
<g id="node7" class="node"><title>Node7</title>
<g id="a_node7"><a xlink:href="../../d2/d1f/a00083.html" target="_top" xlink:title="FunctorArithmetic.h">
<polygon fill="none" stroke="black" points="684.131,-56.5 684.131,-75.5 786.131,-75.5 786.131,-56.5 684.131,-56.5"/>
<text text-anchor="middle" x="735.131" y="-63.5" font-family="Helvetica,sans-Serif" font-size="10.00">FunctorArithmetic.h</text>
</a>
</g>
</g>
<!-- Node6&#45;&gt;Node7 -->
<g id="edge6" class="edge"><title>Node6&#45;&gt;Node7</title>
<path fill="none" stroke="midnightblue" d="M714.306,-103.275C719.604,-94.0454 725.848,-83.1703 730.107,-75.7511"/>
<polygon fill="midnightblue" stroke="midnightblue" points="711.193,-101.668 709.25,-112.083 717.264,-105.153 711.193,-101.668"/>
</g>
<!-- Node7&#45;&gt;Node3 -->
<g id="edge9" class="edge"><title>Node7&#45;&gt;Node3</title>
<path fill="none" stroke="midnightblue" d="M673.933,-56.0036C543.787,-38.4389 509.742,-36.6275 384.131,-20 381.461,-19.6466 378.729,-19.2804 375.971,-18.9068"/>
<polygon fill="midnightblue" stroke="midnightblue" points="673.508,-59.4779 683.888,-57.3524 674.448,-52.5413 673.508,-59.4779"/>
</g>
<!-- Node7&#45;&gt;Node4 -->
<g id="edge10" class="edge"><title>Node7&#45;&gt;Node4</title>
<path fill="none" stroke="midnightblue" d="M673.735,-56.0334C486.762,-34.5896 437.542,-41.0576 255.131,-20 252.213,-19.6632 249.222,-19.2974 246.204,-18.9123"/>
<polygon fill="midnightblue" stroke="midnightblue" points="673.569,-59.5375 683.905,-57.2116 674.375,-52.584 673.569,-59.5375"/>
</g>
<!-- Node7&#45;&gt;Node8 -->
<g id="edge7" class="edge"><title>Node7&#45;&gt;Node8</title>
<path fill="none" stroke="midnightblue" d="M754.168,-50.1008C766.586,-40.3824 782.374,-28.0269 792.843,-19.8339"/>
<polygon fill="midnightblue" stroke="midnightblue" points="751.935,-47.4046 746.217,-56.324 756.249,-52.9171 751.935,-47.4046"/>
</g>
<!-- Node7&#45;&gt;Node9 -->
<g id="edge8" class="edge"><title>Node7&#45;&gt;Node9</title>
<path fill="none" stroke="midnightblue" d="M780.192,-54.0884C822.321,-43.8865 884.371,-28.8612 922.961,-19.5164"/>
<polygon fill="midnightblue" stroke="midnightblue" points="779.361,-50.6883 770.466,-56.4435 781.008,-57.4916 779.361,-50.6883"/>
</g>
<!-- Node7&#45;&gt;Node10 -->
<g id="edge11" class="edge"><title>Node7&#45;&gt;Node10</title>
<path fill="none" stroke="midnightblue" d="M683.355,-54.4096C633.462,-44.2042 558.934,-28.9597 512.766,-19.5164"/>
<polygon fill="midnightblue" stroke="midnightblue" points="682.8,-57.8685 693.299,-56.4435 684.203,-51.0105 682.8,-57.8685"/>
</g>
<!-- Node7&#45;&gt;Node11 -->
<g id="edge12" class="edge"><title>Node7&#45;&gt;Node11</title>
<path fill="none" stroke="midnightblue" d="M711.325,-51.1774C694.212,-41.2407 671.665,-28.1492 657.036,-19.6545"/>
<polygon fill="midnightblue" stroke="midnightblue" points="709.783,-54.3293 720.189,-56.324 713.298,-48.2758 709.783,-54.3293"/>
</g>
<!-- Node7&#45;&gt;Node12 -->
<g id="edge13" class="edge"><title>Node7&#45;&gt;Node12</title>
<path fill="none" stroke="midnightblue" d="M796.304,-56.2145C866.842,-46.084 982.013,-29.5435 1051.77,-19.5246"/>
<polygon fill="midnightblue" stroke="midnightblue" points="795.632,-52.775 786.231,-57.6611 796.627,-59.7039 795.632,-52.775"/>
</g>
<!-- Node7&#45;&gt;Node13 -->
<g id="edge14" class="edge"><title>Node7&#45;&gt;Node13</title>
<path fill="none" stroke="midnightblue" d="M796.22,-59.3796C883.439,-51.2564 1048.65,-35.5026 1189.13,-20 1191.83,-19.7019 1194.59,-19.3921 1197.37,-19.0746"/>
<polygon fill="midnightblue" stroke="midnightblue" points="795.866,-55.8973 786.233,-60.3081 796.515,-62.8673 795.866,-55.8973"/>
</g>
<!-- Node14&#45;&gt;Node3 -->
<g id="edge18" class="edge"><title>Node14&#45;&gt;Node3</title>
<path fill="none" stroke="midnightblue" d="M592.384,-57.8207C534.767,-47.912 431.043,-30.0741 369.603,-19.5081"/>
<polygon fill="midnightblue" stroke="midnightblue" points="592.137,-61.3295 602.585,-59.575 593.323,-54.4307 592.137,-61.3295"/>
</g>
<!-- Node14&#45;&gt;Node8 -->
<g id="edge16" class="edge"><title>Node14&#45;&gt;Node8</title>
<path fill="none" stroke="midnightblue" d="M670.95,-53.3044C702.982,-43.1294 748.646,-28.6246 777.32,-19.5164"/>
<polygon fill="midnightblue" stroke="midnightblue" points="669.539,-50.0803 661.068,-56.4435 671.658,-56.7518 669.539,-50.0803"/>
</g>
<!-- Node14&#45;&gt;Node9 -->
<g id="edge17" class="edge"><title>Node14&#45;&gt;Node9</title>
<path fill="none" stroke="midnightblue" d="M675.953,-55.9385C758.651,-40.455 842.888,-27.5666 898.054,-19.5134"/>
<polygon fill="midnightblue" stroke="midnightblue" points="675.055,-52.5461 665.877,-57.8395 676.353,-59.4247 675.055,-52.5461"/>
</g>
<!-- Node14&#45;&gt;Node10 -->
<g id="edge19" class="edge"><title>Node14&#45;&gt;Node10</title>
<path fill="none" stroke="midnightblue" d="M598.428,-53.172C567.735,-43.0039 524.212,-28.5852 496.838,-19.5164"/>
<polygon fill="midnightblue" stroke="midnightblue" points="597.709,-56.6211 608.303,-56.4435 599.911,-49.9762 597.709,-56.6211"/>
</g>
<!-- Node14&#45;&gt;Node11 -->
<g id="edge20" class="edge"><title>Node14&#45;&gt;Node11</title>
<path fill="none" stroke="midnightblue" d="M636.93,-46.1005C638.259,-37.1357 639.781,-26.8579 640.834,-19.7511"/>
<polygon fill="midnightblue" stroke="midnightblue" points="633.455,-45.678 635.452,-56.083 640.379,-46.7039 633.455,-45.678"/>
</g>
<!-- Node15&#45;&gt;Node3 -->
<g id="edge24" class="edge"><title>Node15&#45;&gt;Node3</title>
<path fill="none" stroke="midnightblue" d="M832.161,-59.3871C819.911,-58.2543 807.106,-57.08 795.131,-56 612.506,-39.5297 566.316,-40.7744 384.131,-20 381.455,-19.6949 378.719,-19.3679 375.956,-19.0258"/>
<polygon fill="midnightblue" stroke="midnightblue" points="832.01,-62.888 842.29,-60.326 832.656,-55.9179 832.01,-62.888"/>
</g>
<!-- Node15&#45;&gt;Node8 -->
<g id="edge22" class="edge"><title>Node15&#45;&gt;Node8</title>
<path fill="none" stroke="midnightblue" d="M869.154,-50.9005C853.017,-40.9986 831.949,-28.0705 818.234,-19.6545"/>
<polygon fill="midnightblue" stroke="midnightblue" points="867.638,-54.0769 877.992,-56.324 871.299,-48.1106 867.638,-54.0769"/>
</g>
<!-- Node15&#45;&gt;Node9 -->
<g id="edge23" class="edge"><title>Node15&#45;&gt;Node9</title>
<path fill="none" stroke="midnightblue" d="M910.684,-49.8197C922.509,-40.1452 937.416,-27.9481 947.334,-19.8339"/>
<polygon fill="midnightblue" stroke="midnightblue" points="908.258,-47.2827 902.735,-56.324 912.691,-52.7004 908.258,-47.2827"/>
</g>
<!-- Node15&#45;&gt;Node10 -->
<g id="edge25" class="edge"><title>Node15&#45;&gt;Node10</title>
<path fill="none" stroke="midnightblue" d="M832.462,-57.3466C754.522,-47.3495 618.477,-29.8995 537.405,-19.5008"/>
<polygon fill="midnightblue" stroke="midnightblue" points="832.234,-60.846 842.599,-58.6467 833.125,-53.9028 832.234,-60.846"/>
</g>
<!-- Node15&#45;&gt;Node11 -->
<g id="edge26" class="edge"><title>Node15&#45;&gt;Node11</title>
<path fill="none" stroke="midnightblue" d="M842.508,-54.2815C795.265,-44.0769 725.095,-28.9203 681.558,-19.5164"/>
<polygon fill="midnightblue" stroke="midnightblue" points="842.004,-57.7533 852.517,-56.4435 843.482,-50.9111 842.004,-57.7533"/>
</g>
<!-- Node15&#45;&gt;Node12 -->
<g id="edge27" class="edge"><title>Node15&#45;&gt;Node12</title>
<path fill="none" stroke="midnightblue" d="M936.645,-54.0237C978.014,-43.8232 1038.77,-28.8414 1076.59,-19.5164"/>
<polygon fill="midnightblue" stroke="midnightblue" points="935.703,-50.6512 926.832,-56.4435 937.379,-57.4476 935.703,-50.6512"/>
</g>
<!-- Node15&#45;&gt;Node13 -->
<g id="edge28" class="edge"><title>Node15&#45;&gt;Node13</title>
<path fill="none" stroke="midnightblue" d="M951.706,-56.3287C1021.25,-46.2064 1135.52,-29.5736 1204.61,-19.5177"/>
<polygon fill="midnightblue" stroke="midnightblue" points="951.172,-52.8694 941.78,-57.7734 952.18,-59.7964 951.172,-52.8694"/>
</g>
<!-- Node16&#45;&gt;Node3 -->
<g id="edge30" class="edge"><title>Node16&#45;&gt;Node3</title>
<path fill="none" stroke="midnightblue" d="M390.813,-51.1774C373.332,-41.2407 350.3,-28.1492 335.356,-19.6545"/>
<polygon fill="midnightblue" stroke="midnightblue" points="389.444,-54.425 399.867,-56.324 392.903,-48.3395 389.444,-54.425"/>
</g>
<!-- Node16&#45;&gt;Node4 -->
<g id="edge31" class="edge"><title>Node16&#45;&gt;Node4</title>
<path fill="none" stroke="midnightblue" d="M384.122,-57.4575C343.105,-47.4803 271.006,-29.9426 228.095,-19.5048"/>
<polygon fill="midnightblue" stroke="midnightblue" points="383.3,-60.8595 393.844,-59.8223 384.955,-54.0578 383.3,-60.8595"/>
</g>
<!-- Node16&#45;&gt;Node10 -->
<g id="edge32" class="edge"><title>Node16&#45;&gt;Node10</title>
<path fill="none" stroke="midnightblue" d="M431.46,-49.2533C441.396,-39.6731 453.718,-27.7906 461.969,-19.8339"/>
<polygon fill="midnightblue" stroke="midnightblue" points="428.897,-46.8631 424.128,-56.324 433.756,-51.902 428.897,-46.8631"/>
</g>
<!-- Node16&#45;&gt;Node11 -->
<g id="edge33" class="edge"><title>Node16&#45;&gt;Node11</title>
<path fill="none" stroke="midnightblue" d="M446.246,-55.8329C505.253,-40.4129 563.314,-27.5809 601.188,-19.5166"/>
<polygon fill="midnightblue" stroke="midnightblue" points="445.164,-52.4986 436.386,-58.4319 446.948,-59.2674 445.164,-52.4986"/>
</g>
<!-- Node17&#45;&gt;Node3 -->
<g id="edge35" class="edge"><title>Node17&#45;&gt;Node3</title>
<path fill="none" stroke="midnightblue" d="M445.866,-53.172C415.55,-43.0039 372.56,-28.5852 345.522,-19.5164"/>
<polygon fill="midnightblue" stroke="midnightblue" points="445.026,-56.5819 455.62,-56.4435 447.252,-49.9452 445.026,-56.5819"/>
</g>
<!-- Node17&#45;&gt;Node4 -->
<g id="edge36" class="edge"><title>Node17&#45;&gt;Node4</title>
<path fill="none" stroke="midnightblue" d="M444.439,-55.975C370.137,-40.2369 295.381,-27.4219 246.432,-19.4328"/>
<polygon fill="midnightblue" stroke="midnightblue" points="443.931,-59.4454 454.441,-58.1123 445.394,-52.5999 443.931,-59.4454"/>
</g>
<!-- Node17&#45;&gt;Node10 -->
<g id="edge37" class="edge"><title>Node17&#45;&gt;Node10</title>
<path fill="none" stroke="midnightblue" d="M477.631,-46.1005C475.971,-37.1357 474.067,-26.8579 472.751,-19.7511"/>
<polygon fill="midnightblue" stroke="midnightblue" points="474.217,-46.8875 479.479,-56.083 481.1,-45.6128 474.217,-46.8875"/>
</g>
<!-- Node17&#45;&gt;Node11 -->
<g id="edge38" class="edge"><title>Node17&#45;&gt;Node11</title>
<path fill="none" stroke="midnightblue" d="M516.395,-53.172C546.712,-43.0039 589.701,-28.5852 616.739,-19.5164"/>
<polygon fill="midnightblue" stroke="midnightblue" points="515.009,-49.9452 506.641,-56.4435 517.235,-56.5819 515.009,-49.9452"/>
</g>
<!-- Node18&#45;&gt;Node2 -->
<g id="edge48" class="edge"><title>Node18&#45;&gt;Node2</title>
<path fill="none" stroke="midnightblue" d="M192.752,-105.253C202.865,-95.6731 215.407,-83.7906 223.806,-75.8339"/>
<polygon fill="midnightblue" stroke="midnightblue" points="190.141,-102.906 185.289,-112.324 194.955,-107.987 190.141,-102.906"/>
</g>
<!-- Node18&#45;&gt;Node3 -->
<g id="edge49" class="edge"><title>Node18&#45;&gt;Node3</title>
<path fill="none" stroke="midnightblue" d="M177.155,-101.996C178.894,-87.671 183.435,-68.4335 195.131,-56 213.225,-36.7635 240.139,-25.7326 264.364,-19.4153"/>
<polygon fill="midnightblue" stroke="midnightblue" points="173.646,-101.944 176.277,-112.207 180.621,-102.543 173.646,-101.944"/>
</g>
<!-- Node18&#45;&gt;Node4 -->
<g id="edge50" class="edge"><title>Node18&#45;&gt;Node4</title>
<path fill="none" stroke="midnightblue" d="M167.381,-103.131C162.103,-89.947 157.26,-71.6553 162.131,-56 166.527,-41.8686 177.077,-28.2496 184.648,-19.7661"/>
<polygon fill="midnightblue" stroke="midnightblue" points="164.269,-104.746 171.529,-112.461 170.665,-101.902 164.269,-104.746"/>
</g>
<!-- Node19&#45;&gt;Node3 -->
<g id="edge52" class="edge"><title>Node19&#45;&gt;Node3</title>
<path fill="none" stroke="midnightblue" d="M113.035,-54.3456C161.793,-44.1405 234.417,-28.94 279.441,-19.5164"/>
<polygon fill="midnightblue" stroke="midnightblue" points="112.082,-50.9691 103.011,-56.4435 113.516,-57.8206 112.082,-50.9691"/>
</g>
<!-- Node19&#45;&gt;Node4 -->
<g id="edge53" class="edge"><title>Node19&#45;&gt;Node4</title>
<path fill="none" stroke="midnightblue" d="M92.4474,-52.503C117.006,-42.3795 150.949,-28.388 172.47,-19.5164"/>
<polygon fill="midnightblue" stroke="midnightblue" points="90.7993,-49.3966 82.8879,-56.4435 93.4671,-55.8683 90.7993,-49.3966"/>
</g>
</g>
</svg>
