<?xml version="1.0" encoding="UTF-8" standalone="no"?>
<!DOCTYPE svg PUBLIC "-//W3C//DTD SVG 1.1//EN"
 "http://www.w3.org/Graphics/SVG/1.1/DTD/svg11.dtd">
<!-- Generated by graphviz version 2.38.0 (20140413.2041)
 -->
<!-- Title: hydra::Events::operator= Pages: 1 -->
<svg width="318pt" height="306pt"
 viewBox="0.00 0.00 318.00 305.50" xmlns="http://www.w3.org/2000/svg" xmlns:xlink="http://www.w3.org/1999/xlink">
<g id="graph0" class="graph" transform="scale(1 1) rotate(0) translate(4 301.5)">
<title>hydra::Events::operator=</title>
<!-- Node1 -->
<g id="node1" class="node"><title>Node1</title>
<polygon fill="#bfbfbf" stroke="black" points="0,-133.5 0,-152.5 125,-152.5 125,-133.5 0,-133.5"/>
<text text-anchor="middle" x="62.5" y="-140.5" font-family="Helvetica,sans-Serif" font-size="10.00">hydra::Events::operator=</text>
</g>
<!-- Node2 -->
<g id="node2" class="node"><title>Node2</title>
<g id="a_node2"><a xlink:href="../../d1/d2b/a00018.html#a7424b190a4c812ee893086df70f3792a" target="_top" xlink:title="hydra::Events::Daughters\lBegin">
<polygon fill="none" stroke="black" points="171.5,-267 171.5,-297 299.5,-297 299.5,-267 171.5,-267"/>
<text text-anchor="start" x="179.5" y="-285" font-family="Helvetica,sans-Serif" font-size="10.00">hydra::Events::Daughters</text>
<text text-anchor="middle" x="235.5" y="-274" font-family="Helvetica,sans-Serif" font-size="10.00">Begin</text>
</a>
</g>
</g>
<!-- Node1&#45;&gt;Node2 -->
<g id="edge1" class="edge"><title>Node1&#45;&gt;Node2</title>
<path fill="none" stroke="midnightblue" d="M69.2655,-152.784C82.6263,-174.637 117.881,-227.781 161,-257 163.934,-258.988 167.041,-260.832 170.254,-262.54"/>
<polygon fill="midnightblue" stroke="midnightblue" points="169.007,-265.823 179.536,-266.999 172.038,-259.514 169.007,-265.823"/>
</g>
<!-- Node3 -->
<g id="node3" class="node"><title>Node3</title>
<g id="a_node3"><a xlink:href="../../d1/d2b/a00018.html#ad61a31f6a9ebedfb25198b49de978e3c" target="_top" xlink:title="hydra::Events::DaughtersEnd">
<polygon fill="none" stroke="black" points="162.5,-228.5 162.5,-247.5 308.5,-247.5 308.5,-228.5 162.5,-228.5"/>
<text text-anchor="middle" x="235.5" y="-235.5" font-family="Helvetica,sans-Serif" font-size="10.00">hydra::Events::DaughtersEnd</text>
</a>
</g>
</g>
<!-- Node1&#45;&gt;Node3 -->
<g id="edge2" class="edge"><title>Node1&#45;&gt;Node3</title>
<path fill="none" stroke="midnightblue" d="M73.0839,-152.723C89.566,-168.891 124.994,-201.271 161,-219 165.877,-221.402 171.091,-223.523 176.407,-225.391"/>
<polygon fill="midnightblue" stroke="midnightblue" points="175.442,-228.757 186.033,-228.487 177.585,-222.093 175.442,-228.757"/>
</g>
<!-- Node4 -->
<g id="node4" class="node"><title>Node4</title>
<g id="a_node4"><a xlink:href="../../d1/d2b/a00018.html#ad93e6690e08e08c53aa890616e2093fc" target="_top" xlink:title="hydra::Events::FlagsBegin">
<polygon fill="none" stroke="black" points="169.5,-190.5 169.5,-209.5 301.5,-209.5 301.5,-190.5 169.5,-190.5"/>
<text text-anchor="middle" x="235.5" y="-197.5" font-family="Helvetica,sans-Serif" font-size="10.00">hydra::Events::FlagsBegin</text>
</a>
</g>
</g>
<!-- Node1&#45;&gt;Node4 -->
<g id="edge3" class="edge"><title>Node1&#45;&gt;Node4</title>
<path fill="none" stroke="midnightblue" d="M85.6888,-152.518C105.276,-160.71 134.721,-172.516 161,-181 168.408,-183.392 176.31,-185.691 184.084,-187.814"/>
<polygon fill="midnightblue" stroke="midnightblue" points="183.251,-191.214 193.815,-190.401 185.05,-184.449 183.251,-191.214"/>
</g>
<!-- Node5 -->
<g id="node5" class="node"><title>Node5</title>
<g id="a_node5"><a xlink:href="../../d1/d2b/a00018.html#ab634fcf28a5253706f8d32e0f9fde20f" target="_top" xlink:title="hydra::Events::FlagsEnd">
<polygon fill="none" stroke="black" points="173,-152.5 173,-171.5 298,-171.5 298,-152.5 173,-152.5"/>
<text text-anchor="middle" x="235.5" y="-159.5" font-family="Helvetica,sans-Serif" font-size="10.00">hydra::Events::FlagsEnd</text>
</a>
</g>
</g>
<!-- Node1&#45;&gt;Node5 -->
<g id="edge4" class="edge"><title>Node1&#45;&gt;Node5</title>
<path fill="none" stroke="midnightblue" d="M125.235,-149.859C137.343,-151.205 150.141,-152.627 162.549,-154.005"/>
<polygon fill="midnightblue" stroke="midnightblue" points="162.53,-157.525 172.856,-155.151 163.303,-150.568 162.53,-157.525"/>
</g>
<!-- Node6 -->
<g id="node6" class="node"><title>Node6</title>
<g id="a_node6"><a xlink:href="../../d1/d2b/a00018.html#a42fa6730eacc8e4be21e12487d19bd61" target="_top" xlink:title="hydra::Events::GetMaxWeight">
<polygon fill="none" stroke="black" points="161,-114.5 161,-133.5 310,-133.5 310,-114.5 161,-114.5"/>
<text text-anchor="middle" x="235.5" y="-121.5" font-family="Helvetica,sans-Serif" font-size="10.00">hydra::Events::GetMaxWeight</text>
</a>
</g>
</g>
<!-- Node1&#45;&gt;Node6 -->
<g id="edge5" class="edge"><title>Node1&#45;&gt;Node6</title>
<path fill="none" stroke="midnightblue" d="M125.235,-136.141C133.555,-135.216 142.201,-134.255 150.822,-133.298"/>
<polygon fill="midnightblue" stroke="midnightblue" points="151.358,-136.76 160.911,-132.177 150.585,-129.802 151.358,-136.76"/>
</g>
<!-- Node7 -->
<g id="node7" class="node"><title>Node7</title>
<g id="a_node7"><a xlink:href="../../d1/d2b/a00018.html#a9a4dce1f4cc7bacdc30fa4bb75894ab3" target="_top" xlink:title="hydra::Events::GetNEvents">
<polygon fill="none" stroke="black" points="167,-76.5 167,-95.5 304,-95.5 304,-76.5 167,-76.5"/>
<text text-anchor="middle" x="235.5" y="-83.5" font-family="Helvetica,sans-Serif" font-size="10.00">hydra::Events::GetNEvents</text>
</a>
</g>
</g>
<!-- Node1&#45;&gt;Node7 -->
<g id="edge6" class="edge"><title>Node1&#45;&gt;Node7</title>
<path fill="none" stroke="midnightblue" d="M85.6888,-133.482C105.276,-125.29 134.721,-113.484 161,-105 168.408,-102.608 176.31,-100.309 184.084,-98.1863"/>
<polygon fill="midnightblue" stroke="midnightblue" points="185.05,-101.551 193.815,-95.5989 183.251,-94.7861 185.05,-101.551"/>
</g>
<!-- Node8 -->
<g id="node8" class="node"><title>Node8</title>
<g id="a_node8"><a xlink:href="../../d1/d2b/a00018.html#a81acb98e6856035e548612a0b76627fc" target="_top" xlink:title="hydra::Events::WeightsBegin">
<polygon fill="none" stroke="black" points="163.5,-38.5 163.5,-57.5 307.5,-57.5 307.5,-38.5 163.5,-38.5"/>
<text text-anchor="middle" x="235.5" y="-45.5" font-family="Helvetica,sans-Serif" font-size="10.00">hydra::Events::WeightsBegin</text>
</a>
</g>
</g>
<!-- Node1&#45;&gt;Node8 -->
<g id="edge7" class="edge"><title>Node1&#45;&gt;Node8</title>
<path fill="none" stroke="midnightblue" d="M73.0839,-133.277C89.566,-117.109 124.994,-84.7288 161,-67 165.877,-64.5984 171.091,-62.4774 176.407,-60.609"/>
<polygon fill="midnightblue" stroke="midnightblue" points="177.585,-63.9066 186.033,-57.5126 175.442,-57.2429 177.585,-63.9066"/>
</g>
<!-- Node9 -->
<g id="node9" class="node"><title>Node9</title>
<g id="a_node9"><a xlink:href="../../d1/d2b/a00018.html#a4af0795dbfe9812be3f4e530237f0e09" target="_top" xlink:title="hydra::Events::WeightsEnd">
<polygon fill="none" stroke="black" points="167,-0.5 167,-19.5 304,-19.5 304,-0.5 167,-0.5"/>
<text text-anchor="middle" x="235.5" y="-7.5" font-family="Helvetica,sans-Serif" font-size="10.00">hydra::Events::WeightsEnd</text>
</a>
</g>
</g>
<!-- Node1&#45;&gt;Node9 -->
<g id="edge8" class="edge"><title>Node1&#45;&gt;Node9</title>
<path fill="none" stroke="midnightblue" d="M68.9187,-133.314C81.8146,-111.189 116.597,-56.7218 161,-29 164.424,-26.8624 168.08,-24.9644 171.865,-23.2791"/>
<polygon fill="midnightblue" stroke="midnightblue" points="173.442,-26.4202 181.476,-19.5132 170.889,-19.9026 173.442,-26.4202"/>
</g>
</g>
</svg>
