<?xml version="1.0" encoding="UTF-8" standalone="no"?>
<!DOCTYPE svg PUBLIC "-//W3C//DTD SVG 1.1//EN"
 "http://www.w3.org/Graphics/SVG/1.1/DTD/svg11.dtd">
<!-- Generated by graphviz version 2.38.0 (20140413.2041)
 -->
<!-- Title: hydra::Events::DaughtersBegin Pages: 1 -->
<svg width="297pt" height="66pt"
 viewBox="0.00 0.00 297.00 66.00" xmlns="http://www.w3.org/2000/svg" xmlns:xlink="http://www.w3.org/1999/xlink">
<g id="graph0" class="graph" transform="scale(1 1) rotate(0) translate(4 62)">
<title>hydra::Events::DaughtersBegin</title>
<!-- Node1 -->
<g id="node1" class="node"><title>Node1</title>
<polygon fill="#bfbfbf" stroke="black" points="0,-14 0,-44 128,-44 128,-14 0,-14"/>
<text text-anchor="start" x="8" y="-32" font-family="Helvetica,sans-Serif" font-size="10.00">hydra::Events::Daughters</text>
<text text-anchor="middle" x="64" y="-21" font-family="Helvetica,sans-Serif" font-size="10.00">Begin</text>
</g>
<!-- Node2 -->
<g id="node2" class="node"><title>Node2</title>
<g id="a_node2"><a xlink:href="../../db/db2/a00020.html#a4bc30bbd45a57a1724f16f60b1353cf5" target="_top" xlink:title="hydra::Events::Events">
<polygon fill="none" stroke="black" points="169.5,-38.5 169.5,-57.5 283.5,-57.5 283.5,-38.5 169.5,-38.5"/>
<text text-anchor="middle" x="226.5" y="-45.5" font-family="Helvetica,sans-Serif" font-size="10.00">hydra::Events::Events</text>
</a>
</g>
</g>
<!-- Node1&#45;&gt;Node2 -->
<g id="edge1" class="edge"><title>Node1&#45;&gt;Node2</title>
<path fill="none" stroke="midnightblue" d="M138.653,-37.7191C148.947,-38.9376 159.386,-40.1734 169.287,-41.3455"/>
<polygon fill="midnightblue" stroke="midnightblue" points="138.776,-34.2093 128.434,-36.5093 137.953,-41.1607 138.776,-34.2093"/>
</g>
<!-- Node3 -->
<g id="node3" class="node"><title>Node3</title>
<g id="a_node3"><a xlink:href="../../db/db2/a00020.html#ace3fe647bf093ad875cc1568ac8bdb53" target="_top" xlink:title="hydra::Events::operator=">
<polygon fill="none" stroke="black" points="164,-0.5 164,-19.5 289,-19.5 289,-0.5 164,-0.5"/>
<text text-anchor="middle" x="226.5" y="-7.5" font-family="Helvetica,sans-Serif" font-size="10.00">hydra::Events::operator=</text>
</a>
</g>
</g>
<!-- Node1&#45;&gt;Node3 -->
<g id="edge2" class="edge"><title>Node1&#45;&gt;Node3</title>
<path fill="none" stroke="midnightblue" d="M138.639,-20.2826C147.065,-19.2851 155.59,-18.2759 163.837,-17.2996"/>
<polygon fill="midnightblue" stroke="midnightblue" points="137.953,-16.8393 128.434,-21.4907 138.776,-23.7907 137.953,-16.8393"/>
</g>
</g>
</svg>
