<?xml version="1.0" encoding="UTF-8" standalone="no"?>
<!DOCTYPE svg PUBLIC "-//W3C//DTD SVG 1.1//EN"
 "http://www.w3.org/Graphics/SVG/1.1/DTD/svg11.dtd">
<!-- Generated by graphviz version 2.38.0 (20140413.2041)
 -->
<!-- Title: hydra::Vegas::SetNCalls Pages: 1 -->
<svg width="432pt" height="28pt"
 viewBox="0.00 0.00 432.00 28.00" xmlns="http://www.w3.org/2000/svg" xmlns:xlink="http://www.w3.org/1999/xlink">
<g id="graph0" class="graph" transform="scale(1 1) rotate(0) translate(4 24)">
<title>hydra::Vegas::SetNCalls</title>
<!-- Node1 -->
<g id="node1" class="node"><title>Node1</title>
<polygon fill="#bfbfbf" stroke="black" points="0,-0.5 0,-19.5 125,-19.5 125,-0.5 0,-0.5"/>
<text text-anchor="middle" x="62.5" y="-7.5" font-family="Helvetica,sans-Serif" font-size="10.00">hydra::Vegas::SetNCalls</text>
</g>
<!-- Node2 -->
<g id="node2" class="node"><title>Node2</title>
<g id="a_node2"><a xlink:href="../../dc/dee/a00053.html#a87f00c841d243f5aed0de39c3d1efaea" target="_top" xlink:title="hydra::Vegas::Integrate">
<polygon fill="none" stroke="black" points="161,-0.5 161,-19.5 280,-19.5 280,-0.5 161,-0.5"/>
<text text-anchor="middle" x="220.5" y="-7.5" font-family="Helvetica,sans-Serif" font-size="10.00">hydra::Vegas::Integrate</text>
</a>
</g>
</g>
<!-- Node1&#45;&gt;Node2 -->
<g id="edge1" class="edge"><title>Node1&#45;&gt;Node2</title>
<path fill="none" stroke="midnightblue" d="M135.17,-10C143.762,-10 152.458,-10 160.836,-10"/>
<polygon fill="midnightblue" stroke="midnightblue" points="135.155,-6.5001 125.155,-10 135.155,-13.5001 135.155,-6.5001"/>
</g>
<!-- Node3 -->
<g id="node3" class="node"><title>Node3</title>
<g id="a_node3"><a xlink:href="../../dc/dee/a00053.html#a93dc7dcfa985d3b47edeb355e4c3f947" target="_top" xlink:title="hydra::Vegas::Vegas">
<polygon fill="none" stroke="black" points="316,-0.5 316,-19.5 424,-19.5 424,-0.5 316,-0.5"/>
<text text-anchor="middle" x="370" y="-7.5" font-family="Helvetica,sans-Serif" font-size="10.00">hydra::Vegas::Vegas</text>
</a>
</g>
</g>
<!-- Node2&#45;&gt;Node3 -->
<g id="edge2" class="edge"><title>Node2&#45;&gt;Node3</title>
<path fill="none" stroke="midnightblue" d="M290.494,-10C298.976,-10 307.542,-10 315.741,-10"/>
<polygon fill="midnightblue" stroke="midnightblue" points="290.22,-6.5001 280.22,-10 290.22,-13.5001 290.22,-6.5001"/>
</g>
</g>
</svg>
