<?xml version="1.0" encoding="UTF-8" standalone="no"?>
<!DOCTYPE svg PUBLIC "-//W3C//DTD SVG 1.1//EN"
 "http://www.w3.org/Graphics/SVG/1.1/DTD/svg11.dtd">
<!-- Generated by graphviz version 2.38.0 (20140413.2041)
 -->
<!-- Title: FunctionWrapper.h Pages: 1 -->
<svg width="944pt" height="84pt"
 viewBox="0.00 0.00 943.50 84.00" xmlns="http://www.w3.org/2000/svg" xmlns:xlink="http://www.w3.org/1999/xlink">
<g id="graph0" class="graph" transform="scale(1 1) rotate(0) translate(4 80)">
<title>FunctionWrapper.h</title>
<!-- Node1 -->
<g id="node1" class="node"><title>Node1</title>
<polygon fill="#bfbfbf" stroke="black" points="420.5,-56.5 420.5,-75.5 519.5,-75.5 519.5,-56.5 420.5,-56.5"/>
<text text-anchor="middle" x="470" y="-63.5" font-family="Helvetica,sans-Serif" font-size="10.00">FunctionWrapper.h</text>
</g>
<!-- Node2 -->
<g id="node2" class="node"><title>Node2</title>
<g id="a_node2"><a xlink:href="../../d4/d3a/a00101.html" target="_top" xlink:title="HydraEvaluateExample.cpp">
<polygon fill="none" stroke="black" points="0,-0.5 0,-19.5 138,-19.5 138,-0.5 0,-0.5"/>
<text text-anchor="middle" x="69" y="-7.5" font-family="Helvetica,sans-Serif" font-size="10.00">HydraEvaluateExample.cpp</text>
</a>
</g>
</g>
<!-- Node1&#45;&gt;Node2 -->
<g id="edge1" class="edge"><title>Node1&#45;&gt;Node2</title>
<path fill="none" stroke="midnightblue" d="M410.258,-56.955C335.647,-46.9076 208.557,-29.7932 132.314,-19.5261"/>
<polygon fill="midnightblue" stroke="midnightblue" points="410.05,-60.4584 420.427,-58.3244 410.984,-53.521 410.05,-60.4584"/>
</g>
<!-- Node3 -->
<g id="node3" class="node"><title>Node3</title>
<g id="a_node3"><a xlink:href="../../d1/d7c/a00003.html" target="_top" xlink:title="HydraEvaluateExample.cu">
<polygon fill="none" stroke="black" points="156.5,-0.5 156.5,-19.5 289.5,-19.5 289.5,-0.5 156.5,-0.5"/>
<text text-anchor="middle" x="223" y="-7.5" font-family="Helvetica,sans-Serif" font-size="10.00">HydraEvaluateExample.cu</text>
</a>
</g>
</g>
<!-- Node1&#45;&gt;Node3 -->
<g id="edge2" class="edge"><title>Node1&#45;&gt;Node3</title>
<path fill="none" stroke="midnightblue" d="M420.973,-54.2815C374.296,-44.0769 304.969,-28.9203 261.955,-19.5164"/>
<polygon fill="midnightblue" stroke="midnightblue" points="420.345,-57.7269 430.862,-56.4435 421.84,-50.8884 420.345,-57.7269"/>
</g>
<!-- Node4 -->
<g id="node4" class="node"><title>Node4</title>
<g id="a_node4"><a xlink:href="../../da/da0/a00009.html" target="_top" xlink:title="HydraPhaseSpaceExample.cpp">
<polygon fill="none" stroke="black" points="307.5,-0.5 307.5,-19.5 462.5,-19.5 462.5,-0.5 307.5,-0.5"/>
<text text-anchor="middle" x="385" y="-7.5" font-family="Helvetica,sans-Serif" font-size="10.00">HydraPhaseSpaceExample.cpp</text>
</a>
</g>
</g>
<!-- Node1&#45;&gt;Node4 -->
<g id="edge3" class="edge"><title>Node1&#45;&gt;Node4</title>
<path fill="none" stroke="midnightblue" d="M447.806,-50.9005C432.22,-40.9986 411.87,-28.0705 398.623,-19.6545"/>
<polygon fill="midnightblue" stroke="midnightblue" points="446.026,-53.9158 456.343,-56.324 449.779,-48.0073 446.026,-53.9158"/>
</g>
<!-- Node5 -->
<g id="node5" class="node"><title>Node5</title>
<g id="a_node5"><a xlink:href="../../da/d45/a00011.html" target="_top" xlink:title="HydraPhaseSpaceExample.cu">
<polygon fill="none" stroke="black" points="481,-0.5 481,-19.5 631,-19.5 631,-0.5 481,-0.5"/>
<text text-anchor="middle" x="556" y="-7.5" font-family="Helvetica,sans-Serif" font-size="10.00">HydraPhaseSpaceExample.cu</text>
</a>
</g>
</g>
<!-- Node1&#45;&gt;Node5 -->
<g id="edge4" class="edge"><title>Node1&#45;&gt;Node5</title>
<path fill="none" stroke="midnightblue" d="M492.455,-50.9005C508.224,-40.9986 528.814,-28.0705 542.217,-19.6545"/>
<polygon fill="midnightblue" stroke="midnightblue" points="490.425,-48.0421 483.817,-56.324 494.148,-53.9704 490.425,-48.0421"/>
</g>
<!-- Node6 -->
<g id="node6" class="node"><title>Node6</title>
<g id="a_node6"><a xlink:href="../../d7/dd4/a00013.html" target="_top" xlink:title="HydraRandomExample.cpp">
<polygon fill="none" stroke="black" points="649.5,-0.5 649.5,-19.5 786.5,-19.5 786.5,-0.5 649.5,-0.5"/>
<text text-anchor="middle" x="718" y="-7.5" font-family="Helvetica,sans-Serif" font-size="10.00">HydraRandomExample.cpp</text>
</a>
</g>
</g>
<!-- Node1&#45;&gt;Node6 -->
<g id="edge5" class="edge"><title>Node1&#45;&gt;Node6</title>
<path fill="none" stroke="midnightblue" d="M519.226,-54.2815C566.091,-44.0769 635.699,-28.9203 678.888,-19.5164"/>
<polygon fill="midnightblue" stroke="midnightblue" points="518.323,-50.896 509.296,-56.4435 519.812,-57.7358 518.323,-50.896"/>
</g>
<!-- Node7 -->
<g id="node7" class="node"><title>Node7</title>
<g id="a_node7"><a xlink:href="../../dd/d1b/a00015.html" target="_top" xlink:title="HydraRandomExample.cu">
<polygon fill="none" stroke="black" points="804.5,-0.5 804.5,-19.5 935.5,-19.5 935.5,-0.5 804.5,-0.5"/>
<text text-anchor="middle" x="870" y="-7.5" font-family="Helvetica,sans-Serif" font-size="10.00">HydraRandomExample.cu</text>
</a>
</g>
</g>
<!-- Node1&#45;&gt;Node7 -->
<g id="edge6" class="edge"><title>Node1&#45;&gt;Node7</title>
<path fill="none" stroke="midnightblue" d="M530.012,-56.8984C604.54,-46.8371 731.092,-29.7526 806.986,-19.5069"/>
<polygon fill="midnightblue" stroke="midnightblue" points="529.293,-53.4636 519.852,-58.27 530.23,-60.4006 529.293,-53.4636"/>
</g>
</g>
</svg>
