<?xml version="1.0" encoding="UTF-8" standalone="no"?>
<!DOCTYPE svg PUBLIC "-//W3C//DTD SVG 1.1//EN"
 "http://www.w3.org/Graphics/SVG/1.1/DTD/svg11.dtd">
<!-- Generated by graphviz version 2.38.0 (20140413.2041)
 -->
<!-- Title: Events.h Pages: 1 -->
<!--zoomable 486 -->
<svg id="main" version="1.1" xmlns="http://www.w3.org/2000/svg" xmlns:xlink="http://www.w3.org/1999/xlink" xml:space="preserve" onload="init(evt)">
<style type="text/css"><![CDATA[
.edge:hover path { stroke: red; }
.edge:hover polygon { stroke: red; fill: red; }
]]></style>
<script type="text/javascript"><![CDATA[
var edges = document.getElementsByTagName('g');
if (edges && edges.length) {
  for (var i=0;i<edges.length;i++) {
    if (edges[i].id.substr(0,4)=='edge') {
      edges[i].setAttribute('class','edge');
    }
  }
}
]]></script>
        <defs>
                <circle id="rim" cx="0" cy="0" r="7"/>
                <circle id="rim2" cx="0" cy="0" r="3.5"/>
                <g id="zoomPlus">
                        <use xlink:href="#rim" target="_top" fill="#404040">
                                <set attributeName="fill" to="#808080" begin="zoomplus.mouseover" end="zoomplus.mouseout"/>
                        </use>
                        <path d="M-4,0h8M0,-4v8" fill="none" stroke="white" stroke-width="1.5" pointer-events="none"/>
                </g>
                <g id="zoomMin">
                        <use xlink:href="#rim" target="_top" fill="#404040">
                                <set attributeName="fill" to="#808080" begin="zoomminus.mouseover" end="zoomminus.mouseout"/>
                        </use>
                        <path d="M-4,0h8" fill="none" stroke="white" stroke-width="1.5" pointer-events="none"/>
                </g>
                <g id="dirArrow">
                        <path fill="none" stroke="white" stroke-width="1.5" d="M0,-3.0v7 M-2.5,-0.5L0,-3.0L2.5,-0.5"/>
                </g>
               <g id="resetDef">
                       <use xlink:href="#rim2" target="_top" fill="#404040">
                               <set attributeName="fill" to="#808080" begin="reset.mouseover" end="reset.mouseout"/>
                       </use>
               </g>
        </defs>

<script type="text/javascript">
var viewWidth = 1571;
var viewHeight = 486;
var sectionId = 'dynsection-0';
</script>
<script xlink:href="../../svgpan.js" target="_top"/>
<svg id="graph" class="graph">
<g id="viewport">
<title>Events.h</title>
<!-- Node1 -->
<g id="node1" class="node"><title>Node1</title>
<polygon fill="#bfbfbf" stroke="black" points="424,-458.5 424,-477.5 480,-477.5 480,-458.5 424,-458.5"/>
<text text-anchor="middle" x="452" y="-465.5" font-family="Helvetica,sans-Serif" font-size="10.00">Events.h</text>
</g>
<!-- Node2 -->
<g id="node2" class="node"><title>Node2</title>
<polygon fill="none" stroke="#bfbfbf" points="1402,-201.5 1402,-220.5 1440,-220.5 1440,-201.5 1402,-201.5"/>
<text text-anchor="middle" x="1421" y="-208.5" font-family="Helvetica,sans-Serif" font-size="10.00">array</text>
</g>
<!-- Node1&#45;&gt;Node2 -->
<g id="edge1" class="edge"><title>Node1&#45;&gt;Node2</title>
<path fill="none" stroke="midnightblue" d="M480.079,-466.544C604.895,-464.346 1110.05,-453.633 1265,-422 1350.68,-404.508 1397.15,-424.674 1450,-355 1476.36,-320.252 1468.86,-298.35 1455,-257 1451.4,-246.251 1444.1,-236.02 1437.18,-228.038"/>
<polygon fill="midnightblue" stroke="midnightblue" points="1439.65,-225.556 1430.29,-220.605 1434.52,-230.317 1439.65,-225.556"/>
</g>
<!-- Node3 -->
<g id="node3" class="node"><title>Node3</title>
<polygon fill="none" stroke="#bfbfbf" points="221,-201.5 221,-220.5 265,-220.5 265,-201.5 221,-201.5"/>
<text text-anchor="middle" x="243" y="-208.5" font-family="Helvetica,sans-Serif" font-size="10.00">vector</text>
</g>
<!-- Node1&#45;&gt;Node3 -->
<g id="edge2" class="edge"><title>Node1&#45;&gt;Node3</title>
<path fill="none" stroke="midnightblue" d="M423.981,-465.072C372.992,-460.92 268.234,-449.215 246,-422 200.145,-365.872 223.691,-270.298 236.509,-230.375"/>
<polygon fill="midnightblue" stroke="midnightblue" points="239.835,-231.464 239.702,-220.87 233.2,-229.235 239.835,-231.464"/>
</g>
<!-- Node4 -->
<g id="node4" class="node"><title>Node4</title>
<polygon fill="none" stroke="#bfbfbf" points="66.5,-397 66.5,-416 107.5,-416 107.5,-397 66.5,-397"/>
<text text-anchor="middle" x="87" y="-404" font-family="Helvetica,sans-Serif" font-size="10.00">string</text>
</g>
<!-- Node1&#45;&gt;Node4 -->
<g id="edge3" class="edge"><title>Node1&#45;&gt;Node4</title>
<path fill="none" stroke="midnightblue" d="M423.899,-466.347C365.346,-464.317 226.538,-455.999 116,-422 114.335,-421.488 112.65,-420.888 110.972,-420.229"/>
<polygon fill="midnightblue" stroke="midnightblue" points="112.212,-416.948 101.659,-416.005 109.321,-423.323 112.212,-416.948"/>
</g>
<!-- Node5 -->
<g id="node5" class="node"><title>Node5</title>
<polygon fill="none" stroke="#bfbfbf" points="125.5,-397 125.5,-416 160.5,-416 160.5,-397 125.5,-397"/>
<text text-anchor="middle" x="143" y="-404" font-family="Helvetica,sans-Serif" font-size="10.00">map</text>
</g>
<!-- Node1&#45;&gt;Node5 -->
<g id="edge4" class="edge"><title>Node1&#45;&gt;Node5</title>
<path fill="none" stroke="midnightblue" d="M423.93,-464.905C373.277,-460.585 263.618,-448.758 175,-422 173.073,-421.418 171.111,-420.745 169.156,-420.015"/>
<polygon fill="midnightblue" stroke="midnightblue" points="170.194,-416.656 159.617,-416.033 167.497,-423.115 170.194,-416.656"/>
</g>
<!-- Node6 -->
<g id="node6" class="node"><title>Node6</title>
<polygon fill="none" stroke="#bfbfbf" points="186,-11.5 186,-30.5 230,-30.5 230,-11.5 186,-11.5"/>
<text text-anchor="middle" x="208" y="-18.5" font-family="Helvetica,sans-Serif" font-size="10.00">omp.h</text>
</g>
<!-- Node1&#45;&gt;Node6 -->
<g id="edge5" class="edge"><title>Node1&#45;&gt;Node6</title>
<path fill="none" stroke="midnightblue" d="M423.81,-467.584C340.232,-468.769 95.7723,-468.127 34,-422 2.55244,-398.517 0,-379.748 0,-340.5 0,-340.5 0,-340.5 0,-148.5 0,-67.3313 117.057,-36.7544 175.543,-26.5427"/>
<polygon fill="midnightblue" stroke="midnightblue" points="176.441,-29.9421 185.74,-24.8654 175.305,-23.0349 176.441,-29.9421"/>
</g>
<!-- Node7 -->
<g id="node7" class="node"><title>Node7</title>
<polygon fill="none" stroke="#bfbfbf" points="86,-78.5 86,-97.5 140,-97.5 140,-78.5 86,-78.5"/>
<text text-anchor="middle" x="113" y="-85.5" font-family="Helvetica,sans-Serif" font-size="10.00">iostream</text>
</g>
<!-- Node1&#45;&gt;Node7 -->
<g id="edge6" class="edge"><title>Node1&#45;&gt;Node7</title>
<path fill="none" stroke="midnightblue" d="M423.73,-465.641C337.875,-461.259 84.3497,-446.358 57,-422 29.2248,-397.263 38,-377.694 38,-340.5 38,-340.5 38,-340.5 38,-210 38,-166.637 73.2293,-125.876 95.3981,-104.519"/>
<polygon fill="midnightblue" stroke="midnightblue" points="97.9434,-106.932 102.885,-97.5602 93.1777,-101.805 97.9434,-106.932"/>
</g>
<!-- Node8 -->
<g id="node8" class="node"><title>Node8</title>
<polygon fill="none" stroke="#bfbfbf" points="255,-397 255,-416 307,-416 307,-397 255,-397"/>
<text text-anchor="middle" x="281" y="-404" font-family="Helvetica,sans-Serif" font-size="10.00">ostream</text>
</g>
<!-- Node1&#45;&gt;Node8 -->
<g id="edge7" class="edge"><title>Node1&#45;&gt;Node8</title>
<path fill="none" stroke="midnightblue" d="M424.183,-458.452C396.549,-449.808 353.062,-435.788 316,-422 314.151,-421.312 312.254,-420.586 310.347,-419.841"/>
<polygon fill="midnightblue" stroke="midnightblue" points="311.473,-416.521 300.89,-416.036 308.86,-423.015 311.473,-416.521"/>
</g>
<!-- Node9 -->
<g id="node9" class="node"><title>Node9</title>
<polygon fill="none" stroke="#bfbfbf" points="325,-397 325,-416 381,-416 381,-397 325,-397"/>
<text text-anchor="middle" x="353" y="-404" font-family="Helvetica,sans-Serif" font-size="10.00">algorithm</text>
</g>
<!-- Node1&#45;&gt;Node9 -->
<g id="edge8" class="edge"><title>Node1&#45;&gt;Node9</title>
<path fill="none" stroke="midnightblue" d="M437.816,-458.475C421.642,-448.755 394.974,-432.727 375.857,-421.237"/>
<polygon fill="midnightblue" stroke="midnightblue" points="377.532,-418.161 367.158,-416.009 373.926,-424.16 377.532,-418.161"/>
</g>
<!-- Node10 -->
<g id="node10" class="node"><title>Node10</title>
<polygon fill="none" stroke="#bfbfbf" points="399,-397 399,-416 443,-416 443,-397 399,-397"/>
<text text-anchor="middle" x="421" y="-404" font-family="Helvetica,sans-Serif" font-size="10.00">time.h</text>
</g>
<!-- Node1&#45;&gt;Node10 -->
<g id="edge9" class="edge"><title>Node1&#45;&gt;Node10</title>
<path fill="none" stroke="midnightblue" d="M447.558,-458.475C443.047,-449.815 435.926,-436.149 430.193,-425.145"/>
<polygon fill="midnightblue" stroke="midnightblue" points="433.158,-423.26 425.433,-416.009 426.95,-426.495 433.158,-423.26"/>
</g>
<!-- Node11 -->
<g id="node11" class="node"><title>Node11</title>
<polygon fill="none" stroke="#bfbfbf" points="461,-397 461,-416 507,-416 507,-397 461,-397"/>
<text text-anchor="middle" x="484" y="-404" font-family="Helvetica,sans-Serif" font-size="10.00">stdio.h</text>
</g>
<!-- Node1&#45;&gt;Node11 -->
<g id="edge10" class="edge"><title>Node1&#45;&gt;Node11</title>
<path fill="none" stroke="midnightblue" d="M456.585,-458.475C461.242,-449.815 468.592,-436.149 474.51,-425.145"/>
<polygon fill="midnightblue" stroke="midnightblue" points="477.77,-426.474 479.424,-416.009 471.605,-423.158 477.77,-426.474"/>
</g>
<!-- Node12 -->
<g id="node12" class="node"><title>Node12</title>
<polygon fill="none" stroke="#bfbfbf" points="525,-397 525,-416 599,-416 599,-397 525,-397"/>
<text text-anchor="middle" x="562" y="-404" font-family="Helvetica,sans-Serif" font-size="10.00">thrust/copy.h</text>
</g>
<!-- Node1&#45;&gt;Node12 -->
<g id="edge11" class="edge"><title>Node1&#45;&gt;Node12</title>
<path fill="none" stroke="midnightblue" d="M467.76,-458.475C485.976,-448.622 516.173,-432.288 537.468,-420.77"/>
<polygon fill="midnightblue" stroke="midnightblue" points="539.138,-423.845 546.269,-416.009 535.808,-417.688 539.138,-423.845"/>
</g>
<!-- Node13 -->
<g id="node13" class="node"><title>Node13</title>
<g id="a_node13"><a xlink:href="../../d9/db3/a00066.html" target="_top" target="_top" xlink:title="hydra/detail/Config.h">
<polygon fill="none" stroke="black" points="804.5,-78.5 804.5,-97.5 911.5,-97.5 911.5,-78.5 804.5,-78.5"/>
<text text-anchor="middle" x="858" y="-85.5" font-family="Helvetica,sans-Serif" font-size="10.00">hydra/detail/Config.h</text>
</a>
</g>
</g>
<!-- Node1&#45;&gt;Node13 -->
<g id="edge12" class="edge"><title>Node1&#45;&gt;Node13</title>
<path fill="none" stroke="midnightblue" d="M480.409,-466.8C614.007,-465.674 1180.49,-458.78 1353,-422 1450.92,-401.125 1563,-440.616 1563,-340.5 1563,-340.5 1563,-340.5 1563,-210 1563,-122.342 1466.13,-154.896 1381,-134 1219.01,-94.2385 1021.32,-88.3298 921.78,-88.1922"/>
<polygon fill="midnightblue" stroke="midnightblue" points="921.584,-84.6922 911.586,-88.198 921.588,-91.6922 921.584,-84.6922"/>
</g>
<!-- Node22 -->
<g id="node22" class="node"><title>Node22</title>
<g id="a_node22"><a xlink:href="../../d4/d3e/a00116.html" target="_top" target="_top" xlink:title="hydra/Types.h">
<polygon fill="none" stroke="black" points="486.5,-78.5 486.5,-97.5 565.5,-97.5 565.5,-78.5 486.5,-78.5"/>
<text text-anchor="middle" x="526" y="-85.5" font-family="Helvetica,sans-Serif" font-size="10.00">hydra/Types.h</text>
</a>
</g>
</g>
<!-- Node1&#45;&gt;Node22 -->
<g id="edge22" class="edge"><title>Node1&#45;&gt;Node22</title>
<path fill="none" stroke="midnightblue" d="M480.129,-463.822C524.468,-458.17 607.394,-444.772 625,-422 684.254,-345.361 473.303,-223.916 472,-221 453.578,-179.77 488.813,-130.289 510.602,-105.241"/>
<polygon fill="midnightblue" stroke="midnightblue" points="513.278,-107.499 517.378,-97.7298 508.081,-102.81 513.278,-107.499"/>
</g>
<!-- Node23 -->
<g id="node23" class="node"><title>Node23</title>
<g id="a_node23"><a xlink:href="../../da/d24/a00068.html" target="_top" target="_top" xlink:title="Typedef for useful container classes used in MCBooster. ">
<polygon fill="none" stroke="black" points="653.5,-263 653.5,-282 752.5,-282 752.5,-263 653.5,-263"/>
<text text-anchor="middle" x="703" y="-270" font-family="Helvetica,sans-Serif" font-size="10.00">hydra/Containers.h</text>
</a>
</g>
</g>
<!-- Node1&#45;&gt;Node23 -->
<g id="edge23" class="edge"><title>Node1&#45;&gt;Node23</title>
<path fill="none" stroke="midnightblue" d="M480.31,-465.324C534.929,-461.484 651.866,-450.114 679,-422 712.92,-386.855 710.087,-323.799 706.099,-292.375"/>
<polygon fill="midnightblue" stroke="midnightblue" points="709.542,-291.733 704.643,-282.339 702.615,-292.738 709.542,-291.733"/>
</g>
<!-- Node24 -->
<g id="node24" class="node"><title>Node24</title>
<g id="a_node24"><a xlink:href="../../d4/d98/a00120.html" target="_top" target="_top" xlink:title="hydra/Vector3R.h">
<polygon fill="none" stroke="black" points="173.5,-140 173.5,-159 266.5,-159 266.5,-140 173.5,-140"/>
<text text-anchor="middle" x="220" y="-147" font-family="Helvetica,sans-Serif" font-size="10.00">hydra/Vector3R.h</text>
</a>
</g>
</g>
<!-- Node1&#45;&gt;Node24 -->
<g id="edge45" class="edge"><title>Node1&#45;&gt;Node24</title>
<path fill="none" stroke="midnightblue" d="M423.588,-464.564C369.926,-459.455 256.325,-446.054 226,-422 194.834,-397.279 189,-380.28 189,-340.5 189,-340.5 189,-340.5 189,-271.5 189,-233.889 203.229,-191.702 212.407,-168.403"/>
<polygon fill="midnightblue" stroke="midnightblue" points="215.661,-169.692 216.199,-159.111 209.18,-167.047 215.661,-169.692"/>
</g>
<!-- Node28 -->
<g id="node28" class="node"><title>Node28</title>
<g id="a_node28"><a xlink:href="../../d8/dfa/a00121.html" target="_top" target="_top" xlink:title="hydra/Vector4R.h">
<polygon fill="none" stroke="black" points="331.5,-201.5 331.5,-220.5 424.5,-220.5 424.5,-201.5 331.5,-201.5"/>
<text text-anchor="middle" x="378" y="-208.5" font-family="Helvetica,sans-Serif" font-size="10.00">hydra/Vector4R.h</text>
</a>
</g>
</g>
<!-- Node1&#45;&gt;Node28 -->
<g id="edge46" class="edge"><title>Node1&#45;&gt;Node28</title>
<path fill="none" stroke="midnightblue" d="M480.038,-462.979C520.635,-456.517 592.622,-442.442 608,-422 616.283,-410.99 614.051,-403.378 608,-391 566.035,-305.164 460.84,-248.566 408.526,-224.775"/>
<polygon fill="midnightblue" stroke="midnightblue" points="409.661,-221.449 399.102,-220.585 406.817,-227.845 409.661,-221.449"/>
</g>
<!-- Node33 -->
<g id="node33" class="node"><title>Node33</title>
<g id="a_node33"><a xlink:href="../../df/d6a/a00119.html" target="_top" target="_top" xlink:title="hydra/detail/utility\l/Utility_Tuple.h">
<polygon fill="none" stroke="black" points="1163.5,-391.5 1163.5,-421.5 1256.5,-421.5 1256.5,-391.5 1163.5,-391.5"/>
<text text-anchor="start" x="1171.5" y="-409.5" font-family="Helvetica,sans-Serif" font-size="10.00">hydra/detail/utility</text>
<text text-anchor="middle" x="1210" y="-398.5" font-family="Helvetica,sans-Serif" font-size="10.00">/Utility_Tuple.h</text>
</a>
</g>
</g>
<!-- Node1&#45;&gt;Node33 -->
<g id="edge47" class="edge"><title>Node1&#45;&gt;Node33</title>
<path fill="none" stroke="midnightblue" d="M480.331,-464.776C591.859,-456.022 1001.91,-423.834 1153.33,-411.949"/>
<polygon fill="midnightblue" stroke="midnightblue" points="1153.65,-415.434 1163.35,-411.162 1153.1,-408.455 1153.65,-415.434"/>
</g>
<!-- Node41 -->
<g id="node41" class="node"><title>Node41</title>
<g id="a_node41"><a xlink:href="../../d9/da4/a00078.html" target="_top" target="_top" xlink:title="Implements FlagAcceptReject. ">
<polygon fill="none" stroke="black" points="689,-134.5 689,-164.5 795,-164.5 795,-134.5 689,-134.5"/>
<text text-anchor="start" x="697" y="-152.5" font-family="Helvetica,sans-Serif" font-size="10.00">hydra/detail/functors</text>
<text text-anchor="middle" x="742" y="-141.5" font-family="Helvetica,sans-Serif" font-size="10.00">/FlagAcceptReject.h</text>
</a>
</g>
</g>
<!-- Node1&#45;&gt;Node41 -->
<g id="edge65" class="edge"><title>Node1&#45;&gt;Node41</title>
<path fill="none" stroke="midnightblue" d="M480.297,-464.408C537.684,-458.756 665.498,-444.035 703,-422 784.693,-373.999 759.907,-310.659 838,-257 880.049,-228.107 917.112,-262.347 947,-221 985.062,-168.345 878.571,-154.646 805.174,-151.308"/>
<polygon fill="midnightblue" stroke="midnightblue" points="805.187,-147.806 795.055,-150.903 804.907,-154.8 805.187,-147.806"/>
</g>
<!-- Node13&#45;&gt;Node6 -->
<g id="edge15" class="edge"><title>Node13&#45;&gt;Node6</title>
<path fill="none" stroke="midnightblue" d="M804.466,-79.3725C800.588,-78.8861 796.736,-78.4228 793,-78 611.677,-57.4798 565.56,-60.3034 384,-42 333.811,-36.9404 275.681,-30.1535 240.392,-25.9301"/>
<polygon fill="midnightblue" stroke="midnightblue" points="240.553,-22.4244 230.207,-24.7064 239.718,-29.3744 240.553,-22.4244"/>
</g>
<!-- Node14 -->
<g id="node14" class="node"><title>Node14</title>
<polygon fill="none" stroke="#bfbfbf" points="867.5,-11.5 867.5,-30.5 972.5,-30.5 972.5,-11.5 867.5,-11.5"/>
<text text-anchor="middle" x="920" y="-18.5" font-family="Helvetica,sans-Serif" font-size="10.00">thrust/detail/config.h</text>
</g>
<!-- Node13&#45;&gt;Node14 -->
<g id="edge13" class="edge"><title>Node13&#45;&gt;Node14</title>
<path fill="none" stroke="midnightblue" d="M866.362,-78.2338C876.123,-68.0004 892.468,-50.8642 904.555,-38.1924"/>
<polygon fill="midnightblue" stroke="midnightblue" points="907.401,-40.2792 911.771,-30.6273 902.336,-35.4477 907.401,-40.2792"/>
</g>
<!-- Node15 -->
<g id="node15" class="node"><title>Node15</title>
<polygon fill="none" stroke="#bfbfbf" points="990.5,-6 990.5,-36 1087.5,-36 1087.5,-6 990.5,-6"/>
<text text-anchor="start" x="998.5" y="-24" font-family="Helvetica,sans-Serif" font-size="10.00">thrust/detail/config</text>
<text text-anchor="middle" x="1039" y="-13" font-family="Helvetica,sans-Serif" font-size="10.00">/host_device.h</text>
</g>
<!-- Node13&#45;&gt;Node15 -->
<g id="edge14" class="edge"><title>Node13&#45;&gt;Node15</title>
<path fill="none" stroke="midnightblue" d="M882.035,-78.3685C909.548,-68.4883 955.325,-52.0491 990.363,-39.4662"/>
<polygon fill="midnightblue" stroke="midnightblue" points="991.709,-42.702 999.937,-36.0281 989.343,-36.1139 991.709,-42.702"/>
</g>
<!-- Node16 -->
<g id="node16" class="node"><title>Node16</title>
<polygon fill="none" stroke="#bfbfbf" points="1106,-11.5 1106,-30.5 1152,-30.5 1152,-11.5 1106,-11.5"/>
<text text-anchor="middle" x="1129" y="-18.5" font-family="Helvetica,sans-Serif" font-size="10.00">cuda.h</text>
</g>
<!-- Node13&#45;&gt;Node16 -->
<g id="edge16" class="edge"><title>Node13&#45;&gt;Node16</title>
<path fill="none" stroke="midnightblue" d="M911.961,-82.3491C961.204,-76.8217 1035.33,-65.2435 1096,-42 1100.22,-40.3822 1104.51,-38.2271 1108.54,-35.9305"/>
<polygon fill="midnightblue" stroke="midnightblue" points="1110.65,-38.7409 1117.31,-30.5012 1106.97,-32.7891 1110.65,-38.7409"/>
</g>
<!-- Node17 -->
<g id="node17" class="node"><title>Node17</title>
<polygon fill="none" stroke="#bfbfbf" points="1170.5,-11.5 1170.5,-30.5 1253.5,-30.5 1253.5,-11.5 1170.5,-11.5"/>
<text text-anchor="middle" x="1212" y="-18.5" font-family="Helvetica,sans-Serif" font-size="10.00">cuda_runtime.h</text>
</g>
<!-- Node13&#45;&gt;Node17 -->
<g id="edge17" class="edge"><title>Node13&#45;&gt;Node17</title>
<path fill="none" stroke="midnightblue" d="M911.561,-82.7362C972.698,-77.0235 1075.31,-64.8477 1161,-42 1168.46,-40.0122 1176.31,-37.2757 1183.55,-34.4648"/>
<polygon fill="midnightblue" stroke="midnightblue" points="1185.02,-37.6486 1192.97,-30.6489 1182.39,-31.1611 1185.02,-37.6486"/>
</g>
<!-- Node18 -->
<g id="node18" class="node"><title>Node18</title>
<polygon fill="none" stroke="#bfbfbf" points="393.5,-11.5 393.5,-30.5 494.5,-30.5 494.5,-11.5 393.5,-11.5"/>
<text text-anchor="middle" x="444" y="-18.5" font-family="Helvetica,sans-Serif" font-size="10.00">cuda_runtime_api.h</text>
</g>
<!-- Node13&#45;&gt;Node18 -->
<g id="edge18" class="edge"><title>Node13&#45;&gt;Node18</title>
<path fill="none" stroke="midnightblue" d="M804.447,-79.526C800.574,-79.0035 796.727,-78.4902 793,-78 664.668,-61.1233 630.237,-70.6056 504,-42 494.741,-39.9019 484.892,-36.9397 475.908,-33.9364"/>
<polygon fill="midnightblue" stroke="midnightblue" points="476.805,-30.5428 466.21,-30.5719 474.511,-37.1562 476.805,-30.5428"/>
</g>
<!-- Node19 -->
<g id="node19" class="node"><title>Node19</title>
<polygon fill="none" stroke="#bfbfbf" points="513,-11.5 513,-30.5 605,-30.5 605,-11.5 513,-11.5"/>
<text text-anchor="middle" x="559" y="-18.5" font-family="Helvetica,sans-Serif" font-size="10.00">math_functions.h</text>
</g>
<!-- Node13&#45;&gt;Node19 -->
<g id="edge19" class="edge"><title>Node13&#45;&gt;Node19</title>
<path fill="none" stroke="midnightblue" d="M806.12,-78.475C745.619,-68.3498 649.383,-51.624 614,-42 605.935,-39.8062 597.373,-36.9571 589.467,-34.1003"/>
<polygon fill="midnightblue" stroke="midnightblue" points="590.483,-30.7437 579.891,-30.5264 588.036,-37.3019 590.483,-30.7437"/>
</g>
<!-- Node20 -->
<g id="node20" class="node"><title>Node20</title>
<polygon fill="none" stroke="#bfbfbf" points="623.5,-6 623.5,-36 724.5,-36 724.5,-6 623.5,-6"/>
<text text-anchor="start" x="631.5" y="-24" font-family="Helvetica,sans-Serif" font-size="10.00">thrust/system/cuda</text>
<text text-anchor="middle" x="674" y="-13" font-family="Helvetica,sans-Serif" font-size="10.00">/execution_policy.h</text>
</g>
<!-- Node13&#45;&gt;Node20 -->
<g id="edge20" class="edge"><title>Node13&#45;&gt;Node20</title>
<path fill="none" stroke="midnightblue" d="M833.566,-78.3685C805.598,-68.4883 759.062,-52.0491 723.443,-39.4662"/>
<polygon fill="midnightblue" stroke="midnightblue" points="724.305,-36.0589 713.71,-36.0281 721.973,-42.6592 724.305,-36.0589"/>
</g>
<!-- Node21 -->
<g id="node21" class="node"><title>Node21</title>
<polygon fill="none" stroke="#bfbfbf" points="742.5,-0.5 742.5,-41.5 849.5,-41.5 849.5,-0.5 742.5,-0.5"/>
<text text-anchor="start" x="750.5" y="-29.5" font-family="Helvetica,sans-Serif" font-size="10.00">thrust/system/cuda</text>
<text text-anchor="start" x="750.5" y="-18.5" font-family="Helvetica,sans-Serif" font-size="10.00">/experimental/pinned</text>
<text text-anchor="middle" x="796" y="-7.5" font-family="Helvetica,sans-Serif" font-size="10.00">_allocator.h</text>
</g>
<!-- Node13&#45;&gt;Node21 -->
<g id="edge21" class="edge"><title>Node13&#45;&gt;Node21</title>
<path fill="none" stroke="midnightblue" d="M849.638,-78.2338C842.457,-70.705 831.712,-59.4398 821.72,-48.9649"/>
<polygon fill="midnightblue" stroke="midnightblue" points="824.075,-46.3624 814.64,-41.5421 819.01,-51.1939 824.075,-46.3624"/>
</g>
<!-- Node23&#45;&gt;Node2 -->
<g id="edge25" class="edge"><title>Node23&#45;&gt;Node2</title>
<path fill="none" stroke="midnightblue" d="M752.654,-265.807C778.147,-262.976 809.716,-259.61 838,-257 1050.3,-237.41 1306.64,-219.676 1391.88,-213.938"/>
<polygon fill="midnightblue" stroke="midnightblue" points="1392.12,-217.43 1401.86,-213.268 1391.65,-210.446 1392.12,-217.43"/>
</g>
<!-- Node23&#45;&gt;Node3 -->
<g id="edge24" class="edge"><title>Node23&#45;&gt;Node3</title>
<path fill="none" stroke="midnightblue" d="M653.377,-266.882C575.039,-259.278 418.034,-242.771 286,-221 282.508,-220.424 278.869,-219.761 275.251,-219.062"/>
<polygon fill="midnightblue" stroke="midnightblue" points="275.745,-215.591 265.25,-217.036 274.356,-222.452 275.745,-215.591"/>
</g>
<!-- Node23&#45;&gt;Node13 -->
<g id="edge26" class="edge"><title>Node23&#45;&gt;Node13</title>
<path fill="none" stroke="midnightblue" d="M718.823,-262.848C746.295,-247.029 802.856,-210.814 834,-165 845.882,-147.521 852.129,-123.843 855.236,-107.586"/>
<polygon fill="midnightblue" stroke="midnightblue" points="858.693,-108.129 856.915,-97.6846 851.792,-106.958 858.693,-108.129"/>
</g>
<!-- Node23&#45;&gt;Node22 -->
<g id="edge27" class="edge"><title>Node23&#45;&gt;Node22</title>
<path fill="none" stroke="midnightblue" d="M691.296,-262.707C678.661,-253.015 658.177,-236.707 642,-221 602.058,-182.218 560.117,-131.653 539.323,-105.81"/>
<polygon fill="midnightblue" stroke="midnightblue" points="541.865,-103.385 532.887,-97.7599 536.397,-107.756 541.865,-103.385"/>
</g>
<!-- Node23&#45;&gt;Node24 -->
<g id="edge28" class="edge"><title>Node23&#45;&gt;Node24</title>
<path fill="none" stroke="midnightblue" d="M653.378,-272.234C578.876,-271.74 434.829,-264.539 322,-221 288.761,-208.174 255.867,-182.464 236.765,-165.891"/>
<polygon fill="midnightblue" stroke="midnightblue" points="239.036,-163.228 229.234,-159.206 234.389,-168.462 239.036,-163.228"/>
</g>
<!-- Node23&#45;&gt;Node28 -->
<g id="edge35" class="edge"><title>Node23&#45;&gt;Node28</title>
<path fill="none" stroke="midnightblue" d="M656.435,-262.975C597.911,-252.261 497.524,-233.882 434.621,-222.366"/>
<polygon fill="midnightblue" stroke="midnightblue" points="434.945,-218.867 424.478,-220.509 433.684,-225.753 434.945,-218.867"/>
</g>
<!-- Node30 -->
<g id="node30" class="node"><title>Node30</title>
<polygon fill="none" stroke="#bfbfbf" points="481.5,-201.5 481.5,-220.5 594.5,-220.5 594.5,-201.5 481.5,-201.5"/>
<text text-anchor="middle" x="538" y="-208.5" font-family="Helvetica,sans-Serif" font-size="10.00">thrust/device_vector.h</text>
</g>
<!-- Node23&#45;&gt;Node30 -->
<g id="edge42" class="edge"><title>Node23&#45;&gt;Node30</title>
<path fill="none" stroke="midnightblue" d="M679.36,-262.975C651.056,-252.769 603.467,-235.608 571.414,-224.049"/>
<polygon fill="midnightblue" stroke="midnightblue" points="572.191,-220.609 561.597,-220.509 569.816,-227.194 572.191,-220.609"/>
</g>
<!-- Node31 -->
<g id="node31" class="node"><title>Node31</title>
<polygon fill="none" stroke="#bfbfbf" points="651,-201.5 651,-220.5 755,-220.5 755,-201.5 651,-201.5"/>
<text text-anchor="middle" x="703" y="-208.5" font-family="Helvetica,sans-Serif" font-size="10.00">thrust/host_vector.h</text>
</g>
<!-- Node23&#45;&gt;Node31 -->
<g id="edge43" class="edge"><title>Node23&#45;&gt;Node31</title>
<path fill="none" stroke="midnightblue" d="M703,-262.975C703,-254.58 703,-241.481 703,-230.663"/>
<polygon fill="midnightblue" stroke="midnightblue" points="706.5,-230.509 703,-220.509 699.5,-230.509 706.5,-230.509"/>
</g>
<!-- Node32 -->
<g id="node32" class="node"><title>Node32</title>
<polygon fill="none" stroke="#bfbfbf" points="849.5,-201.5 849.5,-220.5 938.5,-220.5 938.5,-201.5 849.5,-201.5"/>
<text text-anchor="middle" x="894" y="-208.5" font-family="Helvetica,sans-Serif" font-size="10.00">thrust/complex.h</text>
</g>
<!-- Node23&#45;&gt;Node32 -->
<g id="edge44" class="edge"><title>Node23&#45;&gt;Node32</title>
<path fill="none" stroke="midnightblue" d="M730.366,-262.975C763.554,-252.636 819.651,-235.161 856.758,-223.602"/>
<polygon fill="midnightblue" stroke="midnightblue" points="858.179,-226.825 866.685,-220.509 856.097,-220.142 858.179,-226.825"/>
</g>
<!-- Node24&#45;&gt;Node7 -->
<g id="edge32" class="edge"><title>Node24&#45;&gt;Node7</title>
<path fill="none" stroke="midnightblue" d="M204.67,-139.975C187.03,-130.166 157.84,-113.935 137.142,-102.425"/>
<polygon fill="midnightblue" stroke="midnightblue" points="138.743,-99.3102 128.302,-97.5091 135.341,-105.428 138.743,-99.3102"/>
</g>
<!-- Node24&#45;&gt;Node13 -->
<g id="edge29" class="edge"><title>Node24&#45;&gt;Node13</title>
<path fill="none" stroke="midnightblue" d="M248.849,-139.949C257.509,-137.676 267.079,-135.453 276,-134 503.339,-96.9757 563.9,-121.809 793,-98 793.467,-97.9514 793.937,-97.9021 794.408,-97.852"/>
<polygon fill="midnightblue" stroke="midnightblue" points="794.935,-101.315 804.474,-96.7053 794.142,-94.3597 794.935,-101.315"/>
</g>
<!-- Node24&#45;&gt;Node22 -->
<g id="edge30" class="edge"><title>Node24&#45;&gt;Node22</title>
<path fill="none" stroke="midnightblue" d="M251.295,-139.953C259.319,-137.884 267.956,-135.763 276,-134 345.117,-118.854 425.799,-105.017 476.399,-96.7975"/>
<polygon fill="midnightblue" stroke="midnightblue" points="477.101,-100.23 486.415,-95.1801 475.985,-93.3191 477.101,-100.23"/>
</g>
<!-- Node25 -->
<g id="node25" class="node"><title>Node25</title>
<polygon fill="none" stroke="#bfbfbf" points="300.5,-78.5 300.5,-97.5 345.5,-97.5 345.5,-78.5 300.5,-78.5"/>
<text text-anchor="middle" x="323" y="-85.5" font-family="Helvetica,sans-Serif" font-size="10.00">iosfwd</text>
</g>
<!-- Node24&#45;&gt;Node25 -->
<g id="edge31" class="edge"><title>Node24&#45;&gt;Node25</title>
<path fill="none" stroke="midnightblue" d="M234.757,-139.975C251.661,-130.211 279.583,-114.081 299.49,-102.581"/>
<polygon fill="midnightblue" stroke="midnightblue" points="301.362,-105.542 308.27,-97.5091 297.86,-99.4805 301.362,-105.542"/>
</g>
<!-- Node26 -->
<g id="node26" class="node"><title>Node26</title>
<polygon fill="none" stroke="#bfbfbf" points="399.5,-78.5 399.5,-97.5 446.5,-97.5 446.5,-78.5 399.5,-78.5"/>
<text text-anchor="middle" x="423" y="-85.5" font-family="Helvetica,sans-Serif" font-size="10.00">math.h</text>
</g>
<!-- Node24&#45;&gt;Node26 -->
<g id="edge33" class="edge"><title>Node24&#45;&gt;Node26</title>
<path fill="none" stroke="midnightblue" d="M249.085,-139.975C286.299,-129.067 350.614,-110.217 389.736,-98.7498"/>
<polygon fill="midnightblue" stroke="midnightblue" points="390.734,-102.105 399.346,-95.9332 388.765,-95.3873 390.734,-102.105"/>
</g>
<!-- Node27 -->
<g id="node27" class="node"><title>Node27</title>
<polygon fill="none" stroke="#bfbfbf" points="158,-78.5 158,-97.5 282,-97.5 282,-78.5 158,-78.5"/>
<text text-anchor="middle" x="220" y="-85.5" font-family="Helvetica,sans-Serif" font-size="10.00">hydra/detail/Vector3R.inl</text>
</g>
<!-- Node24&#45;&gt;Node27 -->
<g id="edge34" class="edge"><title>Node24&#45;&gt;Node27</title>
<path fill="none" stroke="midnightblue" d="M220,-139.975C220,-131.58 220,-118.481 220,-107.663"/>
<polygon fill="midnightblue" stroke="midnightblue" points="223.5,-107.509 220,-97.5091 216.5,-107.509 223.5,-107.509"/>
</g>
<!-- Node28&#45;&gt;Node7 -->
<g id="edge37" class="edge"><title>Node28&#45;&gt;Node7</title>
<path fill="none" stroke="midnightblue" d="M331.311,-204.352C276.847,-197.052 190.83,-183.101 164,-165 142.858,-150.737 128.18,-124.485 120.17,-106.884"/>
<polygon fill="midnightblue" stroke="midnightblue" points="123.381,-105.49 116.227,-97.6757 116.946,-108.246 123.381,-105.49"/>
</g>
<!-- Node28&#45;&gt;Node13 -->
<g id="edge38" class="edge"><title>Node28&#45;&gt;Node13</title>
<path fill="none" stroke="midnightblue" d="M424.693,-205.319C534.445,-194.282 799.927,-167.382 804,-165 826.53,-151.825 842.102,-125.094 850.543,-107.112"/>
<polygon fill="midnightblue" stroke="midnightblue" points="853.758,-108.496 854.593,-97.9336 847.354,-105.67 853.758,-108.496"/>
</g>
<!-- Node28&#45;&gt;Node22 -->
<g id="edge39" class="edge"><title>Node28&#45;&gt;Node22</title>
<path fill="none" stroke="midnightblue" d="M389.665,-201.175C401.457,-192.201 420.151,-177.831 436,-165 461.407,-144.431 490.174,-119.919 508.2,-104.406"/>
<polygon fill="midnightblue" stroke="midnightblue" points="510.838,-106.753 516.124,-97.5709 506.266,-101.452 510.838,-106.753"/>
</g>
<!-- Node28&#45;&gt;Node24 -->
<g id="edge40" class="edge"><title>Node28&#45;&gt;Node24</title>
<path fill="none" stroke="midnightblue" d="M355.362,-201.475C328.26,-191.269 282.69,-174.108 251.996,-162.549"/>
<polygon fill="midnightblue" stroke="midnightblue" points="253.187,-159.258 242.596,-159.009 250.72,-165.809 253.187,-159.258"/>
</g>
<!-- Node28&#45;&gt;Node26 -->
<g id="edge36" class="edge"><title>Node28&#45;&gt;Node26</title>
<path fill="none" stroke="midnightblue" d="M389.032,-201.334C398.575,-193.118 411.788,-179.85 418,-165 425.637,-146.742 426.053,-123.855 425.081,-107.992"/>
<polygon fill="midnightblue" stroke="midnightblue" points="428.553,-107.515 424.212,-97.8502 421.579,-108.113 428.553,-107.515"/>
</g>
<!-- Node29 -->
<g id="node29" class="node"><title>Node29</title>
<polygon fill="none" stroke="#bfbfbf" points="285,-140 285,-159 409,-159 409,-140 285,-140"/>
<text text-anchor="middle" x="347" y="-147" font-family="Helvetica,sans-Serif" font-size="10.00">hydra/detail/Vector4R.inl</text>
</g>
<!-- Node28&#45;&gt;Node29 -->
<g id="edge41" class="edge"><title>Node28&#45;&gt;Node29</title>
<path fill="none" stroke="midnightblue" d="M373.558,-201.475C369.047,-192.815 361.926,-179.149 356.193,-168.145"/>
<polygon fill="midnightblue" stroke="midnightblue" points="359.158,-166.26 351.433,-159.009 352.95,-169.495 359.158,-166.26"/>
</g>
<!-- Node33&#45;&gt;Node2 -->
<g id="edge64" class="edge"><title>Node33&#45;&gt;Node2</title>
<path fill="none" stroke="midnightblue" d="M1256.51,-401.452C1314.29,-395.347 1407.86,-381.564 1429,-355 1457.82,-318.781 1440.5,-259.63 1428.9,-230.043"/>
<polygon fill="midnightblue" stroke="midnightblue" points="1432.04,-228.479 1424.98,-220.578 1425.57,-231.156 1432.04,-228.479"/>
</g>
<!-- Node33&#45;&gt;Node13 -->
<g id="edge48" class="edge"><title>Node33&#45;&gt;Node13</title>
<path fill="none" stroke="midnightblue" d="M1256.82,-406.26C1344.57,-404.981 1525,-388.384 1525,-273.5 1525,-273.5 1525,-273.5 1525,-210 1525,-149.084 1088.73,-107.556 921.858,-93.9002"/>
<polygon fill="midnightblue" stroke="midnightblue" points="921.987,-90.3992 911.737,-93.0791 921.421,-97.3763 921.987,-90.3992"/>
</g>
<!-- Node33&#45;&gt;Node22 -->
<g id="edge49" class="edge"><title>Node33&#45;&gt;Node22</title>
<path fill="none" stroke="midnightblue" d="M1163.43,-404.572C1075.43,-401.964 888.993,-392.093 838,-355 776.592,-310.331 818.838,-253.527 764,-201 734.668,-172.904 716.892,-181.994 680,-165 634.306,-143.952 581.943,-117.632 551.554,-102.134"/>
<polygon fill="midnightblue" stroke="midnightblue" points="552.993,-98.9393 542.496,-97.5035 549.806,-105.172 552.993,-98.9393"/>
</g>
<!-- Node34 -->
<g id="node34" class="node"><title>Node34</title>
<g id="a_node34"><a xlink:href="../../df/d5d/a00084.html" target="_top" target="_top" xlink:title="hydra/detail/utility\l/Generic.h">
<polygon fill="none" stroke="black" points="1327.5,-324.5 1327.5,-354.5 1420.5,-354.5 1420.5,-324.5 1327.5,-324.5"/>
<text text-anchor="start" x="1335.5" y="-342.5" font-family="Helvetica,sans-Serif" font-size="10.00">hydra/detail/utility</text>
<text text-anchor="middle" x="1374" y="-331.5" font-family="Helvetica,sans-Serif" font-size="10.00">/Generic.h</text>
</a>
</g>
</g>
<!-- Node33&#45;&gt;Node34 -->
<g id="edge50" class="edge"><title>Node33&#45;&gt;Node34</title>
<path fill="none" stroke="midnightblue" d="M1245.59,-391.396C1270.09,-381.686 1302.83,-368.709 1329.12,-358.289"/>
<polygon fill="midnightblue" stroke="midnightblue" points="1330.48,-361.515 1338.48,-354.577 1327.9,-355.007 1330.48,-361.515"/>
</g>
<!-- Node35 -->
<g id="node35" class="node"><title>Node35</title>
<polygon fill="none" stroke="#bfbfbf" points="1268,-263 1268,-282 1330,-282 1330,-263 1268,-263"/>
<text text-anchor="middle" x="1299" y="-270" font-family="Helvetica,sans-Serif" font-size="10.00">type_traits</text>
</g>
<!-- Node33&#45;&gt;Node35 -->
<g id="edge63" class="edge"><title>Node33&#45;&gt;Node35</title>
<path fill="none" stroke="midnightblue" d="M1225.51,-391.483C1235.58,-381.866 1248.53,-368.455 1258,-355 1272.34,-334.617 1284.54,-308.502 1291.81,-291.401"/>
<polygon fill="midnightblue" stroke="midnightblue" points="1295.09,-292.629 1295.68,-282.05 1288.63,-289.953 1295.09,-292.629"/>
</g>
<!-- Node36 -->
<g id="node36" class="node"><title>Node36</title>
<g id="a_node36"><a xlink:href="../../d9/d4b/a00117.html" target="_top" target="_top" xlink:title="hydra/detail/TypeTraits.h">
<polygon fill="none" stroke="black" points="847.5,-330 847.5,-349 972.5,-349 972.5,-330 847.5,-330"/>
<text text-anchor="middle" x="910" y="-337" font-family="Helvetica,sans-Serif" font-size="10.00">hydra/detail/TypeTraits.h</text>
</a>
</g>
</g>
<!-- Node33&#45;&gt;Node36 -->
<g id="edge53" class="edge"><title>Node33&#45;&gt;Node36</title>
<path fill="none" stroke="midnightblue" d="M1163.45,-395.415C1108.03,-383.406 1015.86,-363.436 959.261,-351.173"/>
<polygon fill="midnightblue" stroke="midnightblue" points="959.982,-347.748 949.467,-349.051 958.499,-354.589 959.982,-347.748"/>
</g>
<!-- Node37 -->
<g id="node37" class="node"><title>Node37</title>
<polygon fill="none" stroke="#bfbfbf" points="1114.5,-257.5 1114.5,-287.5 1203.5,-287.5 1203.5,-257.5 1114.5,-257.5"/>
<text text-anchor="start" x="1122.5" y="-275.5" font-family="Helvetica,sans-Serif" font-size="10.00">thrust/detail/type</text>
<text text-anchor="middle" x="1159" y="-264.5" font-family="Helvetica,sans-Serif" font-size="10.00">_traits.h</text>
</g>
<!-- Node33&#45;&gt;Node37 -->
<g id="edge61" class="edge"><title>Node33&#45;&gt;Node37</title>
<path fill="none" stroke="midnightblue" d="M1222.63,-391.398C1235.97,-374.699 1253.48,-346.336 1241,-324 1233.38,-310.35 1220.38,-299.934 1206.95,-292.21"/>
<polygon fill="midnightblue" stroke="midnightblue" points="1208.59,-289.118 1198.12,-287.517 1205.31,-295.3 1208.59,-289.118"/>
</g>
<!-- Node39 -->
<g id="node39" class="node"><title>Node39</title>
<polygon fill="none" stroke="#bfbfbf" points="991,-330 991,-349 1065,-349 1065,-330 991,-330"/>
<text text-anchor="middle" x="1028" y="-337" font-family="Helvetica,sans-Serif" font-size="10.00">thrust/tuple.h</text>
</g>
<!-- Node33&#45;&gt;Node39 -->
<g id="edge60" class="edge"><title>Node33&#45;&gt;Node39</title>
<path fill="none" stroke="midnightblue" d="M1170.51,-391.396C1137.87,-379.739 1092.04,-363.373 1061.25,-352.376"/>
<polygon fill="midnightblue" stroke="midnightblue" points="1062.41,-349.074 1051.82,-349.007 1060.06,-355.667 1062.41,-349.074"/>
</g>
<!-- Node40 -->
<g id="node40" class="node"><title>Node40</title>
<polygon fill="none" stroke="#bfbfbf" points="1083.5,-324.5 1083.5,-354.5 1232.5,-354.5 1232.5,-324.5 1083.5,-324.5"/>
<text text-anchor="start" x="1091.5" y="-342.5" font-family="Helvetica,sans-Serif" font-size="10.00">thrust/iterator/detail</text>
<text text-anchor="middle" x="1158" y="-331.5" font-family="Helvetica,sans-Serif" font-size="10.00">/tuple_of_iterator_references.h</text>
</g>
<!-- Node33&#45;&gt;Node40 -->
<g id="edge62" class="edge"><title>Node33&#45;&gt;Node40</title>
<path fill="none" stroke="midnightblue" d="M1198.72,-391.396C1191.97,-382.963 1183.25,-372.067 1175.62,-362.522"/>
<polygon fill="midnightblue" stroke="midnightblue" points="1178.24,-360.199 1169.26,-354.577 1172.78,-364.572 1178.24,-360.199"/>
</g>
<!-- Node34&#45;&gt;Node2 -->
<g id="edge52" class="edge"><title>Node34&#45;&gt;Node2</title>
<path fill="none" stroke="midnightblue" d="M1379.21,-324.479C1387.74,-301.514 1404.69,-255.889 1414.17,-230.37"/>
<polygon fill="midnightblue" stroke="midnightblue" points="1417.53,-231.381 1417.73,-220.789 1410.97,-228.943 1417.53,-231.381"/>
</g>
<!-- Node34&#45;&gt;Node35 -->
<g id="edge51" class="edge"><title>Node34&#45;&gt;Node35</title>
<path fill="none" stroke="midnightblue" d="M1357.73,-324.396C1345.68,-313.96 1329.29,-299.751 1316.88,-288.998"/>
<polygon fill="midnightblue" stroke="midnightblue" points="1318.88,-286.099 1309.03,-282.195 1314.3,-291.389 1318.88,-286.099"/>
</g>
<!-- Node36&#45;&gt;Node13 -->
<g id="edge54" class="edge"><title>Node36&#45;&gt;Node13</title>
<path fill="none" stroke="midnightblue" d="M940.218,-329.935C960.482,-322.443 985.642,-309.341 998,-288 1004.9,-276.077 1000.02,-270.628 998,-257 994.181,-231.271 994.892,-222.99 981,-201 954.391,-158.882 907.795,-122.672 880.228,-103.531"/>
<polygon fill="midnightblue" stroke="midnightblue" points="881.903,-100.438 871.666,-97.7102 877.968,-106.227 881.903,-100.438"/>
</g>
<!-- Node36&#45;&gt;Node23 -->
<g id="edge55" class="edge"><title>Node36&#45;&gt;Node23</title>
<path fill="none" stroke="midnightblue" d="M882.512,-329.869C845.835,-318.351 780.774,-297.922 739.868,-285.077"/>
<polygon fill="midnightblue" stroke="midnightblue" points="740.861,-281.72 730.272,-282.064 738.764,-288.399 740.861,-281.72"/>
</g>
<!-- Node36&#45;&gt;Node32 -->
<g id="edge57" class="edge"><title>Node36&#45;&gt;Node32</title>
<path fill="none" stroke="midnightblue" d="M931.427,-329.906C948.31,-321.851 970.667,-308.03 981,-288 987.317,-275.756 988.163,-268.769 981,-257 971.54,-241.457 954.79,-231.045 938.495,-224.191"/>
<polygon fill="midnightblue" stroke="midnightblue" points="939.603,-220.868 929.013,-220.555 937.097,-227.403 939.603,-220.868"/>
</g>
<!-- Node36&#45;&gt;Node35 -->
<g id="edge56" class="edge"><title>Node36&#45;&gt;Node35</title>
<path fill="none" stroke="midnightblue" d="M950.684,-329.986C960.892,-327.938 971.833,-325.819 982,-324 1083.85,-305.782 1109.86,-304.505 1212,-288 1226.84,-285.602 1243.09,-282.911 1257.49,-280.504"/>
<polygon fill="midnightblue" stroke="midnightblue" points="1258.32,-283.914 1267.6,-278.81 1257.16,-277.011 1258.32,-283.914"/>
</g>
<!-- Node36&#45;&gt;Node37 -->
<g id="edge58" class="edge"><title>Node36&#45;&gt;Node37</title>
<path fill="none" stroke="midnightblue" d="M942.808,-329.936C983.95,-319.196 1055.07,-300.631 1104.45,-287.74"/>
<polygon fill="midnightblue" stroke="midnightblue" points="1105.54,-291.074 1114.33,-285.161 1103.77,-284.301 1105.54,-291.074"/>
</g>
<!-- Node38 -->
<g id="node38" class="node"><title>Node38</title>
<polygon fill="none" stroke="#bfbfbf" points="847.5,-263 847.5,-282 972.5,-282 972.5,-263 847.5,-263"/>
<text text-anchor="middle" x="910" y="-270" font-family="Helvetica,sans-Serif" font-size="10.00">thrust/execution_policy.h</text>
</g>
<!-- Node36&#45;&gt;Node38 -->
<g id="edge59" class="edge"><title>Node36&#45;&gt;Node38</title>
<path fill="none" stroke="midnightblue" d="M910,-329.734C910,-320.183 910,-304.618 910,-292.283"/>
<polygon fill="midnightblue" stroke="midnightblue" points="913.5,-292.127 910,-282.127 906.5,-292.127 913.5,-292.127"/>
</g>
<!-- Node41&#45;&gt;Node13 -->
<g id="edge66" class="edge"><title>Node41&#45;&gt;Node13</title>
<path fill="none" stroke="midnightblue" d="M769.49,-134.399C788.432,-124.684 813.442,-111.855 832.044,-102.314"/>
<polygon fill="midnightblue" stroke="midnightblue" points="833.821,-105.336 841.121,-97.6578 830.626,-99.1076 833.821,-105.336"/>
</g>
<!-- Node41&#45;&gt;Node22 -->
<g id="edge67" class="edge"><title>Node41&#45;&gt;Node22</title>
<path fill="none" stroke="midnightblue" d="M691.085,-134.475C653.169,-124.03 602.081,-109.958 566.829,-100.247"/>
<polygon fill="midnightblue" stroke="midnightblue" points="567.451,-96.7878 556.88,-97.5064 565.592,-103.536 567.451,-96.7878"/>
</g>
<!-- Node42 -->
<g id="node42" class="node"><title>Node42</title>
<polygon fill="none" stroke="#bfbfbf" points="699.5,-78.5 699.5,-97.5 784.5,-97.5 784.5,-78.5 699.5,-78.5"/>
<text text-anchor="middle" x="742" y="-85.5" font-family="Helvetica,sans-Serif" font-size="10.00">thrust/random.h</text>
</g>
<!-- Node41&#45;&gt;Node42 -->
<g id="edge68" class="edge"><title>Node41&#45;&gt;Node42</title>
<path fill="none" stroke="midnightblue" d="M742,-134.399C742,-126.466 742,-116.458 742,-107.858"/>
<polygon fill="midnightblue" stroke="midnightblue" points="745.5,-107.658 742,-97.6578 738.5,-107.658 745.5,-107.658"/>
</g>
</g>
</svg>
        <g id="navigator" transform="translate(0 0)" fill="#404254">
                <rect fill="#f2f5e9" fill-opacity="0.5" stroke="#606060" stroke-width=".5" x="0" y="0" width="60" height="60"/>
                <use id="zoomplus" xlink:href="#zoomPlus" target="_top" x="17" y="9" onmousedown="handleZoom(evt,'in')"/>
                <use id="zoomminus" xlink:href="#zoomMin" target="_top" x="42" y="9" onmousedown="handleZoom(evt,'out')"/>
                <use id="reset" xlink:href="#resetDef" target="_top" x="30" y="36" onmousedown="handleReset()"/>
                <g id="arrowUp" xlink:href="#dirArrow" target="_top" transform="translate(30 24)" onmousedown="handlePan(0,-1)">
                  <use xlink:href="#rim" target="_top" fill="#404040">
                        <set attributeName="fill" to="#808080" begin="arrowUp.mouseover" end="arrowUp.mouseout"/>
                  </use>
                  <path fill="none" stroke="white" stroke-width="1.5" d="M0,-3.0v7 M-2.5,-0.5L0,-3.0L2.5,-0.5"/>
                </g>
                <g id="arrowRight" xlink:href="#dirArrow" target="_top" transform="rotate(90) translate(36 -43)" onmousedown="handlePan(1,0)">
                  <use xlink:href="#rim" target="_top" fill="#404040">
                        <set attributeName="fill" to="#808080" begin="arrowRight.mouseover" end="arrowRight.mouseout"/>
                  </use>
                  <path fill="none" stroke="white" stroke-width="1.5" d="M0,-3.0v7 M-2.5,-0.5L0,-3.0L2.5,-0.5"/>
                </g>
                <g id="arrowDown" xlink:href="#dirArrow" target="_top" transform="rotate(180) translate(-30 -48)" onmousedown="handlePan(0,1)">
                  <use xlink:href="#rim" target="_top" fill="#404040">
                        <set attributeName="fill" to="#808080" begin="arrowDown.mouseover" end="arrowDown.mouseout"/>
                  </use>
                  <path fill="none" stroke="white" stroke-width="1.5" d="M0,-3.0v7 M-2.5,-0.5L0,-3.0L2.5,-0.5"/>
                </g>
                <g id="arrowLeft" xlink:href="#dirArrow" target="_top" transform="rotate(270) translate(-36 17)" onmousedown="handlePan(-1,0)">
                  <use xlink:href="#rim" target="_top" fill="#404040">
                        <set attributeName="fill" to="#808080" begin="arrowLeft.mouseover" end="arrowLeft.mouseout"/>
                  </use>
                  <path fill="none" stroke="white" stroke-width="1.5" d="M0,-3.0v7 M-2.5,-0.5L0,-3.0L2.5,-0.5"/>
                </g>
        </g>
        <svg viewBox="0 0 15 15" width="100%" height="30px" preserveAspectRatio="xMaxYMin meet">
         <g id="arrow_out" transform="scale(0.3 0.3)">
          <a xlink:href="a00159_org.svg" target="_top" target="_base">
           <rect id="button" ry="5" rx="5" y="6" x="6" height="38" width="38"
                fill="#f2f5e9" fill-opacity="0.5" stroke="#606060" stroke-width="1.0"/>
           <path id="arrow"
             d="M 11.500037,31.436501 C 11.940474,20.09759 22.043105,11.32322 32.158766,21.979434 L 37.068811,17.246167 C 37.068811,17.246167 37.088388,32 37.088388,32 L 22.160133,31.978069 C 22.160133,31.978069 26.997745,27.140456 26.997745,27.140456 C 18.528582,18.264221 13.291696,25.230495 11.500037,31.436501 z"
             style="fill:#404040;"/>
          </a>
         </g>
        </svg>
</svg>
