<?xml version="1.0" encoding="UTF-8" standalone="no"?>
<!DOCTYPE svg PUBLIC "-//W3C//DTD SVG 1.1//EN"
 "http://www.w3.org/Graphics/SVG/1.1/DTD/svg11.dtd">
<!-- Generated by graphviz version 2.38.0 (20140413.2041)
 -->
<!-- Title: strided_iterator.h Pages: 1 -->
<svg width="332pt" height="140pt"
 viewBox="0.00 0.00 331.50 140.00" xmlns="http://www.w3.org/2000/svg" xmlns:xlink="http://www.w3.org/1999/xlink">
<g id="graph0" class="graph" transform="scale(1 1) rotate(0) translate(4 136)">
<title>strided_iterator.h</title>
<!-- Node1 -->
<g id="node1" class="node"><title>Node1</title>
<polygon fill="#bfbfbf" stroke="black" points="118,-112.5 118,-131.5 207,-131.5 207,-112.5 118,-112.5"/>
<text text-anchor="middle" x="162.5" y="-119.5" font-family="Helvetica,sans-Serif" font-size="10.00">strided_iterator.h</text>
</g>
<!-- Node2 -->
<g id="node2" class="node"><title>Node2</title>
<g id="a_node2"><a xlink:href="../../dd/d42/a00109.html" target="_top" xlink:title="PhaseSpace.h">
<polygon fill="none" stroke="black" points="122.5,-56.5 122.5,-75.5 202.5,-75.5 202.5,-56.5 122.5,-56.5"/>
<text text-anchor="middle" x="162.5" y="-63.5" font-family="Helvetica,sans-Serif" font-size="10.00">PhaseSpace.h</text>
</a>
</g>
</g>
<!-- Node1&#45;&gt;Node2 -->
<g id="edge1" class="edge"><title>Node1&#45;&gt;Node2</title>
<path fill="none" stroke="midnightblue" d="M162.5,-101.805C162.5,-92.9102 162.5,-82.7798 162.5,-75.7511"/>
<polygon fill="midnightblue" stroke="midnightblue" points="159,-102.083 162.5,-112.083 166,-102.083 159,-102.083"/>
</g>
<!-- Node3 -->
<g id="node3" class="node"><title>Node3</title>
<g id="a_node3"><a xlink:href="../../da/da0/a00009.html" target="_top" xlink:title="HydraPhaseSpaceExample take parameters from the command line and generates sample of 3&#45;body phase&#45;spa...">
<polygon fill="none" stroke="black" points="0,-0.5 0,-19.5 155,-19.5 155,-0.5 0,-0.5"/>
<text text-anchor="middle" x="77.5" y="-7.5" font-family="Helvetica,sans-Serif" font-size="10.00">HydraPhaseSpaceExample.cpp</text>
</a>
</g>
</g>
<!-- Node2&#45;&gt;Node3 -->
<g id="edge2" class="edge"><title>Node2&#45;&gt;Node3</title>
<path fill="none" stroke="midnightblue" d="M140.306,-50.9005C124.72,-40.9986 104.37,-28.0705 91.1228,-19.6545"/>
<polygon fill="midnightblue" stroke="midnightblue" points="138.526,-53.9158 148.843,-56.324 142.279,-48.0073 138.526,-53.9158"/>
</g>
<!-- Node4 -->
<g id="node4" class="node"><title>Node4</title>
<g id="a_node4"><a xlink:href="../../da/d45/a00011.html" target="_top" xlink:title="HydraPhaseSpaceExample take parameters from the command line and generates sample of 3&#45;body phase&#45;spa...">
<polygon fill="none" stroke="black" points="173.5,-0.5 173.5,-19.5 323.5,-19.5 323.5,-0.5 173.5,-0.5"/>
<text text-anchor="middle" x="248.5" y="-7.5" font-family="Helvetica,sans-Serif" font-size="10.00">HydraPhaseSpaceExample.cu</text>
</a>
</g>
</g>
<!-- Node2&#45;&gt;Node4 -->
<g id="edge3" class="edge"><title>Node2&#45;&gt;Node4</title>
<path fill="none" stroke="midnightblue" d="M184.955,-50.9005C200.724,-40.9986 221.314,-28.0705 234.717,-19.6545"/>
<polygon fill="midnightblue" stroke="midnightblue" points="182.925,-48.0421 176.317,-56.324 186.648,-53.9704 182.925,-48.0421"/>
</g>
</g>
</svg>
