<?xml version="1.0" encoding="UTF-8" standalone="no"?>
<!DOCTYPE svg PUBLIC "-//W3C//DTD SVG 1.1//EN"
 "http://www.w3.org/Graphics/SVG/1.1/DTD/svg11.dtd">
<!-- Generated by graphviz version 2.38.0 (20140413.2041)
 -->
<!-- Title: base_functor.h Pages: 1 -->
<!--zoomable 564 -->
<svg id="main" version="1.1" xmlns="http://www.w3.org/2000/svg" xmlns:xlink="http://www.w3.org/1999/xlink" xml:space="preserve" onload="init(evt)">
<style type="text/css"><![CDATA[
.edge:hover path { stroke: red; }
.edge:hover polygon { stroke: red; fill: red; }
]]></style>
<script type="text/javascript"><![CDATA[
var edges = document.getElementsByTagName('g');
if (edges && edges.length) {
  for (var i=0;i<edges.length;i++) {
    if (edges[i].id.substr(0,4)=='edge') {
      edges[i].setAttribute('class','edge');
    }
  }
}
]]></script>
        <defs>
                <circle id="rim" cx="0" cy="0" r="7"/>
                <circle id="rim2" cx="0" cy="0" r="3.5"/>
                <g id="zoomPlus">
                        <use xlink:href="#rim" fill="#404040">
                                <set attributeName="fill" to="#808080" begin="zoomplus.mouseover" end="zoomplus.mouseout"/>
                        </use>
                        <path d="M-4,0h8M0,-4v8" fill="none" stroke="white" stroke-width="1.5" pointer-events="none"/>
                </g>
                <g id="zoomMin">
                        <use xlink:href="#rim" fill="#404040">
                                <set attributeName="fill" to="#808080" begin="zoomminus.mouseover" end="zoomminus.mouseout"/>
                        </use>
                        <path d="M-4,0h8" fill="none" stroke="white" stroke-width="1.5" pointer-events="none"/>
                </g>
                <g id="dirArrow">
                        <path fill="none" stroke="white" stroke-width="1.5" d="M0,-3.0v7 M-2.5,-0.5L0,-3.0L2.5,-0.5"/>
                </g>
               <g id="resetDef">
                       <use xlink:href="#rim2" fill="#404040">
                               <set attributeName="fill" to="#808080" begin="reset.mouseover" end="reset.mouseout"/>
                       </use>
               </g>
        </defs>

<script type="text/javascript">
var viewWidth = 1546;
var viewHeight = 564;
var sectionId = 'dynsection-0';
</script>
<script xlink:href="svgpan.js"/>
<svg id="graph" class="graph">
<g id="viewport">
<title>base_functor.h</title>
<!-- Node0 -->
<g id="node1" class="node"><title>Node0</title>
<polygon fill="#bfbfbf" stroke="black" points="379.26,-536.5 379.26,-555.5 460.26,-555.5 460.26,-536.5 379.26,-536.5"/>
<text text-anchor="middle" x="419.76" y="-543.5" font-family="Helvetica,sans-Serif" font-size="10.00">base_functor.h</text>
</g>
<!-- Node1 -->
<g id="node2" class="node"><title>Node1</title>
<polygon fill="none" stroke="#bfbfbf" points="181.76,-279.5 181.76,-298.5 243.76,-298.5 243.76,-279.5 181.76,-279.5"/>
<text text-anchor="middle" x="212.76" y="-286.5" font-family="Helvetica,sans-Serif" font-size="10.00">type_traits</text>
</g>
<!-- Node0&#45;&gt;Node1 -->
<g id="edge1" class="edge"><title>Node0&#45;&gt;Node1</title>
<path fill="none" stroke="midnightblue" d="M404.638,-536.349C367.098,-513.917 269.86,-449.741 230.76,-366 222.174,-347.611 217.475,-324.746 215.053,-308.925"/>
<polygon fill="midnightblue" stroke="midnightblue" points="218.493,-308.246 213.668,-298.814 211.557,-309.196 218.493,-308.246"/>
</g>
<!-- Node2 -->
<g id="node3" class="node"><title>Node2</title>
<g id="a_node3"><a xlink:href="a00053.html" target="_top" xlink:title="hydra/detail/Config.h">
<polygon fill="none" stroke="black" points="1216.26,-78.5 1216.26,-97.5 1323.26,-97.5 1323.26,-78.5 1216.26,-78.5"/>
<text text-anchor="middle" x="1269.76" y="-85.5" font-family="Helvetica,sans-Serif" font-size="10.00">hydra/detail/Config.h</text>
</a>
</g>
</g>
<!-- Node0&#45;&gt;Node2 -->
<g id="edge2" class="edge"><title>Node0&#45;&gt;Node2</title>
<path fill="none" stroke="midnightblue" d="M460.338,-544.826C650.059,-543.817 1441.94,-537.373 1477.76,-500 1592.41,-380.369 1528.68,-246.213 1406.76,-134 1386.68,-115.516 1358.85,-104.614 1333.52,-98.1884"/>
<polygon fill="midnightblue" stroke="midnightblue" points="1334.12,-94.735 1323.59,-95.859 1332.52,-101.55 1334.12,-94.735"/>
</g>
<!-- Node5 -->
<g id="node6" class="node"><title>Node5</title>
<g id="a_node6"><a xlink:href="a00383.html" target="_top" xlink:title="Common and useful typedefs. ">
<polygon fill="none" stroke="black" points="152.26,-78.5 152.26,-97.5 231.26,-97.5 231.26,-78.5 152.26,-78.5"/>
<text text-anchor="middle" x="191.76" y="-85.5" font-family="Helvetica,sans-Serif" font-size="10.00">hydra/Types.h</text>
</a>
</g>
</g>
<!-- Node0&#45;&gt;Node5 -->
<g id="edge5" class="edge"><title>Node0&#45;&gt;Node5</title>
<path fill="none" stroke="midnightblue" d="M379.104,-541.962C305.11,-535.984 151.572,-521.392 102.76,-500 59.6551,-481.109 40.9281,-475.523 20.7602,-433 -39.998,-304.895 118.074,-152.331 173.433,-104.271"/>
<polygon fill="midnightblue" stroke="midnightblue" points="175.777,-106.872 181.103,-97.7131 171.228,-101.551 175.777,-106.872"/>
</g>
<!-- Node6 -->
<g id="node7" class="node"><title>Node6</title>
<g id="a_node7"><a xlink:href="a00266.html" target="_top" xlink:title="hydra/detail/utility\l/Utility_Tuple.h">
<polygon fill="none" stroke="black" points="373.26,-469.5 373.26,-499.5 466.26,-499.5 466.26,-469.5 373.26,-469.5"/>
<text text-anchor="start" x="381.26" y="-487.5" font-family="Helvetica,sans-Serif" font-size="10.00">hydra/detail/utility</text>
<text text-anchor="middle" x="419.76" y="-476.5" font-family="Helvetica,sans-Serif" font-size="10.00">/Utility_Tuple.h</text>
</a>
</g>
</g>
<!-- Node0&#45;&gt;Node6 -->
<g id="edge6" class="edge"><title>Node0&#45;&gt;Node6</title>
<path fill="none" stroke="midnightblue" d="M419.76,-536.475C419.76,-529.471 419.76,-519.192 419.76,-509.696"/>
<polygon fill="midnightblue" stroke="midnightblue" points="423.26,-509.523 419.76,-499.523 416.26,-509.523 423.26,-509.523"/>
</g>
<!-- Node7 -->
<g id="node8" class="node"><title>Node7</title>
<g id="a_node8"><a xlink:href="a00254.html" target="_top" xlink:title="hydra/detail/utility\l/Generic.h">
<polygon fill="none" stroke="black" points="30.2602,-402.5 30.2602,-432.5 123.26,-432.5 123.26,-402.5 30.2602,-402.5"/>
<text text-anchor="start" x="38.2602" y="-420.5" font-family="Helvetica,sans-Serif" font-size="10.00">hydra/detail/utility</text>
<text text-anchor="middle" x="76.7602" y="-409.5" font-family="Helvetica,sans-Serif" font-size="10.00">/Generic.h</text>
</a>
</g>
</g>
<!-- Node0&#45;&gt;Node7 -->
<g id="edge64" class="edge"><title>Node0&#45;&gt;Node7</title>
<path fill="none" stroke="midnightblue" d="M379.084,-542.261C311.038,-537.067 177.654,-524.09 137.76,-500 114.981,-486.245 97.8966,-460.478 87.6873,-441.587"/>
<polygon fill="midnightblue" stroke="midnightblue" points="90.7968,-439.98 83.1072,-432.692 84.5733,-443.185 90.7968,-439.98"/>
</g>
<!-- Node9 -->
<g id="node10" class="node"><title>Node9</title>
<g id="a_node10"><a xlink:href="a00248.html" target="_top" xlink:title="hydra/detail/TypeTraits.h">
<polygon fill="none" stroke="black" points="933.26,-346.5 933.26,-365.5 1058.26,-365.5 1058.26,-346.5 933.26,-346.5"/>
<text text-anchor="middle" x="995.76" y="-353.5" font-family="Helvetica,sans-Serif" font-size="10.00">hydra/detail/TypeTraits.h</text>
</a>
</g>
</g>
<!-- Node0&#45;&gt;Node9 -->
<g id="edge65" class="edge"><title>Node0&#45;&gt;Node9</title>
<path fill="none" stroke="midnightblue" d="M460.447,-544.908C594.988,-543.659 1021.75,-531.844 1105.76,-433 1114.68,-422.502 1113.44,-413.439 1105.76,-402 1094.84,-385.734 1076.89,-375.344 1058.62,-368.708"/>
<polygon fill="midnightblue" stroke="midnightblue" points="1059.67,-365.369 1049.08,-365.569 1057.49,-372.018 1059.67,-365.369"/>
</g>
<!-- Node17 -->
<g id="node18" class="node"><title>Node17</title>
<polygon fill="none" stroke="#bfbfbf" points="253.76,-6 253.76,-36 357.76,-36 357.76,-6 253.76,-6"/>
<text text-anchor="start" x="261.76" y="-24" font-family="Helvetica,sans-Serif" font-size="10.00">hydra/detail/external</text>
<text text-anchor="middle" x="305.76" y="-13" font-family="Helvetica,sans-Serif" font-size="10.00">/thrust/tuple.h</text>
</g>
<!-- Node0&#45;&gt;Node17 -->
<g id="edge66" class="edge"><title>Node0&#45;&gt;Node17</title>
<path fill="none" stroke="midnightblue" d="M460.529,-545.308C558.01,-545.318 811.872,-541.034 1018.76,-500 1206.39,-462.786 1282.07,-489.95 1427.76,-366 1482.27,-319.63 1501.76,-294.561 1501.76,-223 1501.76,-223 1501.76,-223 1501.76,-154 1501.76,-71.6434 1412.78,-97.4596 1332.76,-78 1148.23,-33.1265 561.31,-24.1617 368.096,-22.4129"/>
<polygon fill="midnightblue" stroke="midnightblue" points="367.866,-18.9109 357.836,-22.3235 367.805,-25.9106 367.866,-18.9109"/>
</g>
<!-- Node3 -->
<g id="node4" class="node"><title>Node3</title>
<polygon fill="none" stroke="#bfbfbf" points="1153.76,-6 1153.76,-36 1261.76,-36 1261.76,-6 1153.76,-6"/>
<text text-anchor="start" x="1161.76" y="-24" font-family="Helvetica,sans-Serif" font-size="10.00">hydra/detail/external</text>
<text text-anchor="middle" x="1207.76" y="-13" font-family="Helvetica,sans-Serif" font-size="10.00">/thrust/detail/config.h</text>
</g>
<!-- Node2&#45;&gt;Node3 -->
<g id="edge3" class="edge"><title>Node2&#45;&gt;Node3</title>
<path fill="none" stroke="midnightblue" d="M1261.4,-78.2338C1252.94,-69.3649 1239.53,-55.3111 1228.24,-43.4722"/>
<polygon fill="midnightblue" stroke="midnightblue" points="1230.63,-40.9094 1221.2,-36.089 1225.57,-45.7409 1230.63,-40.9094"/>
</g>
<!-- Node4 -->
<g id="node5" class="node"><title>Node4</title>
<polygon fill="none" stroke="#bfbfbf" points="1279.76,-0.5 1279.76,-41.5 1383.76,-41.5 1383.76,-0.5 1279.76,-0.5"/>
<text text-anchor="start" x="1287.76" y="-29.5" font-family="Helvetica,sans-Serif" font-size="10.00">hydra/detail/external</text>
<text text-anchor="start" x="1287.76" y="-18.5" font-family="Helvetica,sans-Serif" font-size="10.00">/thrust/detail/config</text>
<text text-anchor="middle" x="1331.76" y="-7.5" font-family="Helvetica,sans-Serif" font-size="10.00">/host_device.h</text>
</g>
<!-- Node2&#45;&gt;Node4 -->
<g id="edge4" class="edge"><title>Node2&#45;&gt;Node4</title>
<path fill="none" stroke="midnightblue" d="M1278.12,-78.2338C1285.3,-70.705 1296.05,-59.4398 1306.04,-48.9649"/>
<polygon fill="midnightblue" stroke="midnightblue" points="1308.75,-51.1939 1313.12,-41.5421 1303.69,-46.3624 1308.75,-51.1939"/>
</g>
<!-- Node6&#45;&gt;Node1 -->
<g id="edge62" class="edge"><title>Node6&#45;&gt;Node1</title>
<path fill="none" stroke="midnightblue" d="M389.389,-469.475C351.549,-450.667 286.984,-414.006 246.76,-366 232.58,-349.076 223.217,-325.29 217.971,-308.857"/>
<polygon fill="midnightblue" stroke="midnightblue" points="221.194,-307.416 214.988,-298.829 214.485,-309.412 221.194,-307.416"/>
</g>
<!-- Node6&#45;&gt;Node2 -->
<g id="edge7" class="edge"><title>Node6&#45;&gt;Node2</title>
<path fill="none" stroke="midnightblue" d="M466.597,-482.4C577.962,-479.273 867.108,-468.154 1105.76,-433 1241.35,-413.027 1308.6,-461.644 1406.76,-366 1431.7,-341.702 1425.76,-324.817 1425.76,-290 1425.76,-290 1425.76,-290 1425.76,-221 1425.76,-175.723 1406.87,-163.779 1372.76,-134 1355.33,-118.779 1331.94,-108.003 1311.86,-100.821"/>
<polygon fill="midnightblue" stroke="midnightblue" points="1312.9,-97.4781 1302.31,-97.5794 1310.65,-104.107 1312.9,-97.4781"/>
</g>
<!-- Node6&#45;&gt;Node5 -->
<g id="edge8" class="edge"><title>Node6&#45;&gt;Node5</title>
<path fill="none" stroke="midnightblue" d="M373.214,-472.89C344.825,-464.948 308.744,-452.119 280.76,-433 220.692,-391.961 203.523,-375.925 172.76,-310 139.563,-238.859 132.803,-208.433 157.76,-134 161.364,-123.251 168.663,-113.02 175.577,-105.038"/>
<polygon fill="midnightblue" stroke="midnightblue" points="178.237,-107.317 182.472,-97.6053 173.105,-102.556 178.237,-107.317"/>
</g>
<!-- Node6&#45;&gt;Node7 -->
<g id="edge9" class="edge"><title>Node6&#45;&gt;Node7</title>
<path fill="none" stroke="midnightblue" d="M373.145,-474.666C310.772,-462.846 200.266,-441.905 133.24,-429.203"/>
<polygon fill="midnightblue" stroke="midnightblue" points="133.751,-425.738 123.274,-427.315 132.447,-432.615 133.751,-425.738"/>
</g>
<!-- Node8 -->
<g id="node9" class="node"><title>Node8</title>
<polygon fill="none" stroke="#bfbfbf" points="181.76,-212.5 181.76,-231.5 219.76,-231.5 219.76,-212.5 181.76,-212.5"/>
<text text-anchor="middle" x="200.76" y="-219.5" font-family="Helvetica,sans-Serif" font-size="10.00">array</text>
</g>
<!-- Node6&#45;&gt;Node8 -->
<g id="edge63" class="edge"><title>Node6&#45;&gt;Node8</title>
<path fill="none" stroke="midnightblue" d="M421.341,-469.403C423.579,-443.043 425.022,-385.398 400.76,-346 361.298,-281.92 274.737,-246.294 229.533,-231.41"/>
<polygon fill="midnightblue" stroke="midnightblue" points="230.354,-227.998 219.764,-228.305 228.234,-234.67 230.354,-227.998"/>
</g>
<!-- Node6&#45;&gt;Node9 -->
<g id="edge12" class="edge"><title>Node6&#45;&gt;Node9</title>
<path fill="none" stroke="midnightblue" d="M466.409,-473.255C573.801,-449.67 837.66,-391.722 947.037,-367.701"/>
<polygon fill="midnightblue" stroke="midnightblue" points="947.803,-371.116 956.819,-365.552 946.301,-364.279 947.803,-371.116"/>
</g>
<!-- Node6&#45;&gt;Node17 -->
<g id="edge59" class="edge"><title>Node6&#45;&gt;Node17</title>
<path fill="none" stroke="midnightblue" d="M425.588,-469.198C429.323,-459.237 433.821,-445.543 435.76,-433 441.768,-394.147 437.875,-380.893 419.76,-346 399.228,-306.45 392.851,-294.138 356.76,-268 320.191,-241.516 301.13,-254.107 261.76,-232 244.086,-222.076 203.217,-191.158 189.76,-176 162.89,-145.733 153.601,-136.995 142.76,-98 129.824,-51.4659 192.035,-33.4193 243.301,-26.4235"/>
<polygon fill="midnightblue" stroke="midnightblue" points="243.893,-29.8769 253.383,-25.1665 243.027,-22.9307 243.893,-29.8769"/>
</g>
<!-- Node18 -->
<g id="node19" class="node"><title>Node18</title>
<polygon fill="none" stroke="#bfbfbf" points="7.26024,-0.5 7.26024,-41.5 156.26,-41.5 156.26,-0.5 7.26024,-0.5"/>
<text text-anchor="start" x="15.2602" y="-29.5" font-family="Helvetica,sans-Serif" font-size="10.00">hydra/detail/external</text>
<text text-anchor="start" x="15.2602" y="-18.5" font-family="Helvetica,sans-Serif" font-size="10.00">/thrust/iterator/detail</text>
<text text-anchor="middle" x="81.7602" y="-7.5" font-family="Helvetica,sans-Serif" font-size="10.00">/tuple_of_iterator_references.h</text>
</g>
<!-- Node6&#45;&gt;Node18 -->
<g id="edge61" class="edge"><title>Node6&#45;&gt;Node18</title>
<path fill="none" stroke="midnightblue" d="M373.074,-483.963C279.164,-483.907 72.0042,-478.478 20.7602,-433 -5.28071,-409.889 1.76024,-391.817 1.76024,-357 1.76024,-357 1.76024,-357 1.76024,-154 1.76024,-112.959 30.3941,-73.779 53.4004,-48.9229"/>
<polygon fill="midnightblue" stroke="midnightblue" points="55.9416,-51.3296 60.3217,-41.6825 50.8817,-46.4926 55.9416,-51.3296"/>
</g>
<!-- Node27 -->
<g id="node28" class="node"><title>Node27</title>
<polygon fill="none" stroke="#bfbfbf" points="431.76,-274 431.76,-304 559.76,-304 559.76,-274 431.76,-274"/>
<text text-anchor="start" x="439.76" y="-292" font-family="Helvetica,sans-Serif" font-size="10.00">hydra/detail/external</text>
<text text-anchor="middle" x="495.76" y="-281" font-family="Helvetica,sans-Serif" font-size="10.00">/thrust/detail/type_traits.h</text>
</g>
<!-- Node6&#45;&gt;Node27 -->
<g id="edge60" class="edge"><title>Node6&#45;&gt;Node27</title>
<path fill="none" stroke="midnightblue" d="M439.627,-469.37C450.869,-460.283 464.16,-447.487 471.76,-433 491.671,-395.048 495.714,-344.329 496.188,-314.61"/>
<polygon fill="midnightblue" stroke="midnightblue" points="499.689,-314.33 496.22,-304.319 492.689,-314.307 499.689,-314.33"/>
</g>
<!-- Node31 -->
<g id="node32" class="node"><title>Node31</title>
<g id="a_node32"><a xlink:href="a00158.html" target="_top" xlink:title="hydra/detail/FunctorTraits.h">
<polygon fill="none" stroke="black" points="255.76,-346.5 255.76,-365.5 391.76,-365.5 391.76,-346.5 255.76,-346.5"/>
<text text-anchor="middle" x="323.76" y="-353.5" font-family="Helvetica,sans-Serif" font-size="10.00">hydra/detail/FunctorTraits.h</text>
</a>
</g>
</g>
<!-- Node6&#45;&gt;Node31 -->
<g id="edge50" class="edge"><title>Node6&#45;&gt;Node31</title>
<path fill="none" stroke="midnightblue" d="M409.12,-469.479C391.381,-446.104 355.826,-399.253 336.678,-374.022"/>
<polygon fill="midnightblue" stroke="midnightblue" points="339.263,-371.639 330.43,-365.789 333.687,-375.87 339.263,-371.639"/>
</g>
<!-- Node32 -->
<g id="node33" class="node"><title>Node32</title>
<g id="a_node33"><a xlink:href="a00341.html" target="_top" xlink:title="hydra/Parameter.h">
<polygon fill="none" stroke="black" points="1000.26,-408 1000.26,-427 1097.26,-427 1097.26,-408 1000.26,-408"/>
<text text-anchor="middle" x="1048.76" y="-415" font-family="Helvetica,sans-Serif" font-size="10.00">hydra/Parameter.h</text>
</a>
</g>
</g>
<!-- Node6&#45;&gt;Node32 -->
<g id="edge53" class="edge"><title>Node6&#45;&gt;Node32</title>
<path fill="none" stroke="midnightblue" d="M466.268,-478.694C578.779,-467.067 865.529,-437.435 989.82,-424.591"/>
<polygon fill="midnightblue" stroke="midnightblue" points="990.322,-428.058 999.909,-423.548 989.602,-421.095 990.322,-428.058"/>
</g>
<!-- Node7&#45;&gt;Node1 -->
<g id="edge10" class="edge"><title>Node7&#45;&gt;Node1</title>
<path fill="none" stroke="midnightblue" d="M87.4157,-402.463C98.9978,-387.639 118.447,-363.972 137.76,-346 154.566,-330.361 175.664,-314.929 191.198,-304.238"/>
<polygon fill="midnightblue" stroke="midnightblue" points="193.313,-307.032 199.627,-298.525 189.386,-301.238 193.313,-307.032"/>
</g>
<!-- Node7&#45;&gt;Node8 -->
<g id="edge11" class="edge"><title>Node7&#45;&gt;Node8</title>
<path fill="none" stroke="midnightblue" d="M84.3899,-402.253C92.1991,-387.868 104.845,-365.105 116.76,-346 140.921,-307.26 171.712,-263.449 188.494,-239.989"/>
<polygon fill="midnightblue" stroke="midnightblue" points="191.398,-241.947 194.389,-231.783 185.712,-237.863 191.398,-241.947"/>
</g>
<!-- Node9&#45;&gt;Node1 -->
<g id="edge44" class="edge"><title>Node9&#45;&gt;Node1</title>
<path fill="none" stroke="midnightblue" d="M932.989,-350.412C827.539,-342.629 608.162,-326.108 422.76,-310 364.235,-304.915 296.603,-298.35 254.255,-294.157"/>
<polygon fill="midnightblue" stroke="midnightblue" points="254.351,-290.649 244.055,-293.144 253.66,-297.615 254.351,-290.649"/>
</g>
<!-- Node9&#45;&gt;Node2 -->
<g id="edge13" class="edge"><title>Node9&#45;&gt;Node2</title>
<path fill="none" stroke="midnightblue" d="M1009.23,-346.483C1022.24,-337.969 1042.22,-324.142 1057.76,-310 1076.16,-293.258 1074.37,-282.254 1094.76,-268 1187.02,-203.494 1267.24,-268.943 1330.76,-176 1341.29,-160.589 1339.17,-150.663 1330.76,-134 1323.95,-120.52 1310.99,-110.083 1298.76,-102.67"/>
<polygon fill="midnightblue" stroke="midnightblue" points="1300.1,-99.4099 1289.67,-97.5896 1296.69,-105.521 1300.1,-99.4099"/>
</g>
<!-- Node10 -->
<g id="node11" class="node"><title>Node10</title>
<g id="a_node11"><a xlink:href="a00017.html" target="_top" xlink:title="Typedefs for useful container classes used in MCBooster. ">
<polygon fill="none" stroke="black" points="616.26,-279.5 616.26,-298.5 715.26,-298.5 715.26,-279.5 616.26,-279.5"/>
<text text-anchor="middle" x="665.76" y="-286.5" font-family="Helvetica,sans-Serif" font-size="10.00">hydra/Containers.h</text>
</a>
</g>
</g>
<!-- Node9&#45;&gt;Node10 -->
<g id="edge14" class="edge"><title>Node9&#45;&gt;Node10</title>
<path fill="none" stroke="midnightblue" d="M952.279,-346.436C892.223,-334.606 783.971,-313.284 719.1,-300.506"/>
<polygon fill="midnightblue" stroke="midnightblue" points="719.563,-297.03 709.075,-298.532 718.21,-303.898 719.563,-297.03"/>
</g>
<!-- Node22 -->
<g id="node23" class="node"><title>Node22</title>
<polygon fill="none" stroke="#bfbfbf" points="1217.76,-140 1217.76,-170 1321.76,-170 1321.76,-140 1217.76,-140"/>
<text text-anchor="start" x="1225.76" y="-158" font-family="Helvetica,sans-Serif" font-size="10.00">hydra/detail/external</text>
<text text-anchor="middle" x="1269.76" y="-147" font-family="Helvetica,sans-Serif" font-size="10.00">/thrust/complex.h</text>
</g>
<!-- Node9&#45;&gt;Node22 -->
<g id="edge45" class="edge"><title>Node9&#45;&gt;Node22</title>
<path fill="none" stroke="midnightblue" d="M1000.58,-346.371C1010.32,-329.546 1033.82,-291.915 1061.76,-268 1111.11,-225.764 1179.01,-192.92 1223.62,-174.013"/>
<polygon fill="midnightblue" stroke="midnightblue" points="1225.16,-177.16 1233.04,-170.078 1222.47,-170.7 1225.16,-177.16"/>
</g>
<!-- Node9&#45;&gt;Node27 -->
<g id="edge46" class="edge"><title>Node9&#45;&gt;Node27</title>
<path fill="none" stroke="midnightblue" d="M932.943,-348.965C855.907,-341.28 721.429,-326.946 606.76,-310 594.881,-308.244 582.322,-306.182 570.093,-304.061"/>
<polygon fill="midnightblue" stroke="midnightblue" points="570.374,-300.557 559.919,-302.271 569.161,-307.451 570.374,-300.557"/>
</g>
<!-- Node28 -->
<g id="node29" class="node"><title>Node28</title>
<polygon fill="none" stroke="#bfbfbf" points="1103.76,-274 1103.76,-304 1231.76,-304 1231.76,-274 1103.76,-274"/>
<text text-anchor="start" x="1111.76" y="-292" font-family="Helvetica,sans-Serif" font-size="10.00">hydra/detail/external</text>
<text text-anchor="middle" x="1167.76" y="-281" font-family="Helvetica,sans-Serif" font-size="10.00">/thrust/execution_policy.h</text>
</g>
<!-- Node9&#45;&gt;Node28 -->
<g id="edge47" class="edge"><title>Node9&#45;&gt;Node28</title>
<path fill="none" stroke="midnightblue" d="M1018.6,-346.369C1044.63,-336.531 1087.87,-320.189 1121.11,-307.628"/>
<polygon fill="midnightblue" stroke="midnightblue" points="1122.52,-310.837 1130.64,-304.028 1120.05,-304.289 1122.52,-310.837"/>
</g>
<!-- Node29 -->
<g id="node30" class="node"><title>Node29</title>
<polygon fill="none" stroke="#bfbfbf" points="1249.76,-268.5 1249.76,-309.5 1359.76,-309.5 1359.76,-268.5 1249.76,-268.5"/>
<text text-anchor="start" x="1257.76" y="-297.5" font-family="Helvetica,sans-Serif" font-size="10.00">hydra/detail/external</text>
<text text-anchor="start" x="1257.76" y="-286.5" font-family="Helvetica,sans-Serif" font-size="10.00">/thrust/iterator/iterator</text>
<text text-anchor="middle" x="1304.76" y="-275.5" font-family="Helvetica,sans-Serif" font-size="10.00">_categories.h</text>
</g>
<!-- Node9&#45;&gt;Node29 -->
<g id="edge48" class="edge"><title>Node9&#45;&gt;Node29</title>
<path fill="none" stroke="midnightblue" d="M1053.11,-346.484C1100.79,-338.947 1170.54,-326.865 1239.94,-310.066"/>
<polygon fill="midnightblue" stroke="midnightblue" points="1240.84,-313.447 1249.72,-307.665 1239.18,-306.649 1240.84,-313.447"/>
</g>
<!-- Node30 -->
<g id="node31" class="node"><title>Node30</title>
<polygon fill="none" stroke="#bfbfbf" points="896.26,-268.5 896.26,-309.5 1009.26,-309.5 1009.26,-268.5 896.26,-268.5"/>
<text text-anchor="start" x="904.26" y="-297.5" font-family="Helvetica,sans-Serif" font-size="10.00">hydra/detail/external</text>
<text text-anchor="start" x="904.26" y="-286.5" font-family="Helvetica,sans-Serif" font-size="10.00">/thrust/iterator/detail</text>
<text text-anchor="middle" x="952.76" y="-275.5" font-family="Helvetica,sans-Serif" font-size="10.00">/is_iterator_category.h</text>
</g>
<!-- Node9&#45;&gt;Node30 -->
<g id="edge49" class="edge"><title>Node9&#45;&gt;Node30</title>
<path fill="none" stroke="midnightblue" d="M989.961,-346.234C985.174,-338.997 978.103,-328.309 971.408,-318.189"/>
<polygon fill="midnightblue" stroke="midnightblue" points="974.125,-315.951 965.688,-309.542 968.286,-319.813 974.125,-315.951"/>
</g>
<!-- Node10&#45;&gt;Node2 -->
<g id="edge17" class="edge"><title>Node10&#45;&gt;Node2</title>
<path fill="none" stroke="midnightblue" d="M670.186,-279.369C675.72,-268.454 685.367,-249.029 692.76,-232 711.364,-189.149 693.349,-161.977 730.76,-134 768.047,-106.117 1071.08,-94.4281 1205.71,-90.5769"/>
<polygon fill="midnightblue" stroke="midnightblue" points="1205.98,-94.0707 1215.88,-90.2917 1205.78,-87.0735 1205.98,-94.0707"/>
</g>
<!-- Node10&#45;&gt;Node5 -->
<g id="edge18" class="edge"><title>Node10&#45;&gt;Node5</title>
<path fill="none" stroke="midnightblue" d="M640.038,-279.499C628.405,-275.774 614.449,-271.47 601.76,-268 443.3,-224.658 374.605,-275.338 243.76,-176 220.476,-158.322 205.512,-126.947 197.876,-107.098"/>
<polygon fill="midnightblue" stroke="midnightblue" points="201.156,-105.874 194.464,-97.6602 194.573,-108.254 201.156,-105.874"/>
</g>
<!-- Node10&#45;&gt;Node8 -->
<g id="edge16" class="edge"><title>Node10&#45;&gt;Node8</title>
<path fill="none" stroke="midnightblue" d="M628.12,-279.493C610.205,-275.636 588.443,-271.227 568.76,-268 443.529,-247.468 292.915,-231.87 230.297,-225.785"/>
<polygon fill="midnightblue" stroke="midnightblue" points="230.284,-222.267 219.994,-224.793 229.612,-229.235 230.284,-222.267"/>
</g>
<!-- Node11 -->
<g id="node12" class="node"><title>Node11</title>
<polygon fill="none" stroke="#bfbfbf" points="639.76,-212.5 639.76,-231.5 683.76,-231.5 683.76,-212.5 639.76,-212.5"/>
<text text-anchor="middle" x="661.76" y="-219.5" font-family="Helvetica,sans-Serif" font-size="10.00">vector</text>
</g>
<!-- Node10&#45;&gt;Node11 -->
<g id="edge15" class="edge"><title>Node10&#45;&gt;Node11</title>
<path fill="none" stroke="midnightblue" d="M665.221,-279.234C664.633,-269.683 663.675,-254.118 662.916,-241.783"/>
<polygon fill="midnightblue" stroke="midnightblue" points="666.399,-241.393 662.291,-231.627 659.412,-241.823 666.399,-241.393"/>
</g>
<!-- Node12 -->
<g id="node13" class="node"><title>Node12</title>
<g id="a_node13"><a xlink:href="a00392.html" target="_top" xlink:title="hydra/Vector3R.h">
<polygon fill="none" stroke="black" points="552.26,-145.5 552.26,-164.5 645.26,-164.5 645.26,-145.5 552.26,-145.5"/>
<text text-anchor="middle" x="598.76" y="-152.5" font-family="Helvetica,sans-Serif" font-size="10.00">hydra/Vector3R.h</text>
</a>
</g>
</g>
<!-- Node10&#45;&gt;Node12 -->
<g id="edge19" class="edge"><title>Node10&#45;&gt;Node12</title>
<path fill="none" stroke="midnightblue" d="M659.603,-279.144C652.225,-268.319 639.736,-249.301 630.76,-232 620.797,-212.795 611.445,-189.779 605.455,-174.145"/>
<polygon fill="midnightblue" stroke="midnightblue" points="608.676,-172.765 601.879,-164.638 602.124,-175.23 608.676,-172.765"/>
</g>
<!-- Node20 -->
<g id="node21" class="node"><title>Node20</title>
<g id="a_node21"><a xlink:href="a00395.html" target="_top" xlink:title="hydra/Vector4R.h">
<polygon fill="none" stroke="black" points="458.26,-212.5 458.26,-231.5 551.26,-231.5 551.26,-212.5 458.26,-212.5"/>
<text text-anchor="middle" x="504.76" y="-219.5" font-family="Helvetica,sans-Serif" font-size="10.00">hydra/Vector4R.h</text>
</a>
</g>
</g>
<!-- Node10&#45;&gt;Node20 -->
<g id="edge29" class="edge"><title>Node10&#45;&gt;Node20</title>
<path fill="none" stroke="midnightblue" d="M644.381,-279.369C616.397,-268.071 567.169,-248.196 535.272,-235.318"/>
<polygon fill="midnightblue" stroke="midnightblue" points="536.555,-232.062 525.972,-231.564 533.934,-238.553 536.555,-232.062"/>
</g>
<!-- Node10&#45;&gt;Node22 -->
<g id="edge37" class="edge"><title>Node10&#45;&gt;Node22</title>
<path fill="none" stroke="midnightblue" d="M715.272,-283.215C778.129,-276.235 889.386,-260.832 980.76,-232 1000.86,-225.658 1003.73,-218.558 1023.76,-212 1101.3,-186.617 1124.63,-195.853 1203.76,-176 1207.63,-175.028 1211.62,-173.97 1215.62,-172.864"/>
<polygon fill="midnightblue" stroke="midnightblue" points="1216.89,-176.143 1225.55,-170.041 1214.97,-169.41 1216.89,-176.143"/>
</g>
<!-- Node23 -->
<g id="node24" class="node"><title>Node23</title>
<g id="a_node24"><a xlink:href="a00059.html" target="_top" xlink:title="hydra/detail/Containers.inl">
<polygon fill="none" stroke="black" points="841.76,-212.5 841.76,-231.5 971.76,-231.5 971.76,-212.5 841.76,-212.5"/>
<text text-anchor="middle" x="906.76" y="-219.5" font-family="Helvetica,sans-Serif" font-size="10.00">hydra/detail/Containers.inl</text>
</a>
</g>
</g>
<!-- Node10&#45;&gt;Node23 -->
<g id="edge38" class="edge"><title>Node10&#45;&gt;Node23</title>
<path fill="none" stroke="midnightblue" d="M697.763,-279.369C740.916,-267.73 817.817,-246.989 865.337,-234.172"/>
<polygon fill="midnightblue" stroke="midnightblue" points="866.265,-237.547 875.009,-231.564 864.442,-230.789 866.265,-237.547"/>
</g>
<!-- Node12&#45;&gt;Node2 -->
<g id="edge20" class="edge"><title>Node12&#45;&gt;Node2</title>
<path fill="none" stroke="midnightblue" d="M620.439,-145.465C631.943,-141.304 646.422,-136.638 659.76,-134 856.243,-95.1456 1094.32,-89.1173 1206.05,-88.6359"/>
<polygon fill="midnightblue" stroke="midnightblue" points="1206.15,-92.1357 1216.14,-88.6062 1206.13,-85.1358 1206.15,-92.1357"/>
</g>
<!-- Node12&#45;&gt;Node5 -->
<g id="edge21" class="edge"><title>Node12&#45;&gt;Node5</title>
<path fill="none" stroke="midnightblue" d="M552.072,-146.544C474.838,-134.209 321.142,-109.663 241.774,-96.9874"/>
<polygon fill="midnightblue" stroke="midnightblue" points="241.973,-93.475 231.547,-95.3541 240.869,-100.387 241.973,-93.475"/>
</g>
<!-- Node13 -->
<g id="node14" class="node"><title>Node13</title>
<polygon fill="none" stroke="#bfbfbf" points="586.26,-78.5 586.26,-97.5 631.26,-97.5 631.26,-78.5 586.26,-78.5"/>
<text text-anchor="middle" x="608.76" y="-85.5" font-family="Helvetica,sans-Serif" font-size="10.00">iosfwd</text>
</g>
<!-- Node12&#45;&gt;Node13 -->
<g id="edge22" class="edge"><title>Node12&#45;&gt;Node13</title>
<path fill="none" stroke="midnightblue" d="M600.109,-145.234C601.578,-135.683 603.973,-120.118 605.871,-107.783"/>
<polygon fill="midnightblue" stroke="midnightblue" points="609.372,-108.043 607.433,-97.6273 602.453,-106.979 609.372,-108.043"/>
</g>
<!-- Node14 -->
<g id="node15" class="node"><title>Node14</title>
<polygon fill="none" stroke="#bfbfbf" points="448.76,-78.5 448.76,-97.5 502.76,-97.5 502.76,-78.5 448.76,-78.5"/>
<text text-anchor="middle" x="475.76" y="-85.5" font-family="Helvetica,sans-Serif" font-size="10.00">iostream</text>
</g>
<!-- Node12&#45;&gt;Node14 -->
<g id="edge23" class="edge"><title>Node12&#45;&gt;Node14</title>
<path fill="none" stroke="midnightblue" d="M582.427,-145.369C561.658,-134.393 525.574,-115.324 501.19,-102.438"/>
<polygon fill="midnightblue" stroke="midnightblue" points="502.638,-99.245 492.161,-97.6672 499.367,-105.434 502.638,-99.245"/>
</g>
<!-- Node15 -->
<g id="node16" class="node"><title>Node15</title>
<polygon fill="none" stroke="#bfbfbf" points="521.26,-78.5 521.26,-97.5 568.26,-97.5 568.26,-78.5 521.26,-78.5"/>
<text text-anchor="middle" x="544.76" y="-85.5" font-family="Helvetica,sans-Serif" font-size="10.00">math.h</text>
</g>
<!-- Node12&#45;&gt;Node15 -->
<g id="edge24" class="edge"><title>Node12&#45;&gt;Node15</title>
<path fill="none" stroke="midnightblue" d="M591.478,-145.234C583.057,-135.098 569.01,-118.19 558.514,-105.556"/>
<polygon fill="midnightblue" stroke="midnightblue" points="561.01,-103.083 551.928,-97.6273 555.626,-107.556 561.01,-103.083"/>
</g>
<!-- Node16 -->
<g id="node17" class="node"><title>Node16</title>
<g id="a_node17"><a xlink:href="a00011.html" target="_top" xlink:title="hydra/Collection.h">
<polygon fill="none" stroke="black" points="258.26,-78.5 258.26,-97.5 353.26,-97.5 353.26,-78.5 258.26,-78.5"/>
<text text-anchor="middle" x="305.76" y="-85.5" font-family="Helvetica,sans-Serif" font-size="10.00">hydra/Collection.h</text>
</a>
</g>
</g>
<!-- Node12&#45;&gt;Node16 -->
<g id="edge25" class="edge"><title>Node12&#45;&gt;Node16</title>
<path fill="none" stroke="midnightblue" d="M560.154,-145.436C507.234,-133.696 412.165,-112.605 354.43,-99.7971"/>
<polygon fill="midnightblue" stroke="midnightblue" points="354.972,-96.3323 344.452,-97.5834 353.456,-103.166 354.972,-96.3323"/>
</g>
<!-- Node19 -->
<g id="node20" class="node"><title>Node19</title>
<g id="a_node20"><a xlink:href="a00269.html" target="_top" xlink:title="hydra/detail/Vector3R.inl">
<polygon fill="none" stroke="black" points="649.76,-78.5 649.76,-97.5 773.76,-97.5 773.76,-78.5 649.76,-78.5"/>
<text text-anchor="middle" x="711.76" y="-85.5" font-family="Helvetica,sans-Serif" font-size="10.00">hydra/detail/Vector3R.inl</text>
</a>
</g>
</g>
<!-- Node12&#45;&gt;Node19 -->
<g id="edge28" class="edge"><title>Node12&#45;&gt;Node19</title>
<path fill="none" stroke="midnightblue" d="M614,-145.234C632.976,-134.318 665.606,-115.549 687.907,-102.721"/>
<polygon fill="midnightblue" stroke="midnightblue" points="689.839,-105.647 696.762,-97.6273 686.349,-99.5796 689.839,-105.647"/>
</g>
<!-- Node16&#45;&gt;Node17 -->
<g id="edge26" class="edge"><title>Node16&#45;&gt;Node17</title>
<path fill="none" stroke="midnightblue" d="M305.76,-78.2338C305.76,-70.0406 305.76,-57.4225 305.76,-46.2136"/>
<polygon fill="midnightblue" stroke="midnightblue" points="309.26,-46.089 305.76,-36.089 302.26,-46.0891 309.26,-46.089"/>
</g>
<!-- Node16&#45;&gt;Node18 -->
<g id="edge27" class="edge"><title>Node16&#45;&gt;Node18</title>
<path fill="none" stroke="midnightblue" d="M276.015,-78.3685C246.33,-69.7546 199.464,-56.1552 159.203,-44.4723"/>
<polygon fill="midnightblue" stroke="midnightblue" points="159.972,-41.051 149.393,-41.6254 158.021,-47.7737 159.972,-41.051"/>
</g>
<!-- Node20&#45;&gt;Node2 -->
<g id="edge32" class="edge"><title>Node20&#45;&gt;Node2</title>
<path fill="none" stroke="midnightblue" d="M551.356,-212.806C581.943,-206.05 622.01,-194.506 653.76,-176 677.117,-162.386 673.079,-145.032 697.76,-134 787.079,-94.0776 1076.1,-88.9265 1205.77,-88.6909"/>
<polygon fill="midnightblue" stroke="midnightblue" points="1205.95,-92.1908 1215.94,-88.6819 1205.94,-85.1908 1205.95,-92.1908"/>
</g>
<!-- Node20&#45;&gt;Node5 -->
<g id="edge33" class="edge"><title>Node20&#45;&gt;Node5</title>
<path fill="none" stroke="midnightblue" d="M457.93,-216.533C415.714,-211.144 352.774,-199.667 302.76,-176 282.677,-166.497 235.283,-126.744 209.394,-104.407"/>
<polygon fill="midnightblue" stroke="midnightblue" points="211.357,-101.476 201.51,-97.5681 206.771,-106.764 211.357,-101.476"/>
</g>
<!-- Node20&#45;&gt;Node12 -->
<g id="edge34" class="edge"><title>Node20&#45;&gt;Node12</title>
<path fill="none" stroke="midnightblue" d="M517.437,-212.234C532.941,-201.513 559.401,-183.216 577.916,-170.414"/>
<polygon fill="midnightblue" stroke="midnightblue" points="580.049,-173.194 586.284,-164.627 576.068,-167.436 580.049,-173.194"/>
</g>
<!-- Node20&#45;&gt;Node14 -->
<g id="edge31" class="edge"><title>Node20&#45;&gt;Node14</title>
<path fill="none" stroke="midnightblue" d="M502.857,-212.339C498.207,-191.174 486.184,-136.448 479.832,-107.533"/>
<polygon fill="midnightblue" stroke="midnightblue" points="483.197,-106.537 477.632,-97.5212 476.36,-108.039 483.197,-106.537"/>
</g>
<!-- Node20&#45;&gt;Node15 -->
<g id="edge30" class="edge"><title>Node20&#45;&gt;Node15</title>
<path fill="none" stroke="midnightblue" d="M507.385,-212.339C513.827,-191.08 530.529,-135.963 539.26,-107.151"/>
<polygon fill="midnightblue" stroke="midnightblue" points="542.628,-108.106 542.178,-97.5212 535.928,-106.076 542.628,-108.106"/>
</g>
<!-- Node20&#45;&gt;Node16 -->
<g id="edge35" class="edge"><title>Node20&#45;&gt;Node16</title>
<path fill="none" stroke="midnightblue" d="M457.993,-214.957C411.018,-207.931 343.043,-194.839 324.76,-176 307.119,-157.822 304.276,-127.276 304.516,-107.639"/>
<polygon fill="midnightblue" stroke="midnightblue" points="308.018,-107.646 304.924,-97.5135 301.024,-107.364 308.018,-107.646"/>
</g>
<!-- Node21 -->
<g id="node22" class="node"><title>Node21</title>
<g id="a_node22"><a xlink:href="a00272.html" target="_top" xlink:title="hydra/detail/Vector4R.inl">
<polygon fill="none" stroke="black" points="333.76,-145.5 333.76,-164.5 457.76,-164.5 457.76,-145.5 333.76,-145.5"/>
<text text-anchor="middle" x="395.76" y="-152.5" font-family="Helvetica,sans-Serif" font-size="10.00">hydra/detail/Vector4R.inl</text>
</a>
</g>
</g>
<!-- Node20&#45;&gt;Node21 -->
<g id="edge36" class="edge"><title>Node20&#45;&gt;Node21</title>
<path fill="none" stroke="midnightblue" d="M490.06,-212.234C471.837,-201.367 440.561,-182.716 419.058,-169.893"/>
<polygon fill="midnightblue" stroke="midnightblue" points="420.609,-166.743 410.228,-164.627 417.024,-172.755 420.609,-166.743"/>
</g>
<!-- Node23&#45;&gt;Node2 -->
<g id="edge39" class="edge"><title>Node23&#45;&gt;Node2</title>
<path fill="none" stroke="midnightblue" d="M969.045,-212.483C1041.17,-202.287 1152.37,-185.41 1169.76,-176 1192.16,-163.878 1189.76,-150.968 1208.76,-134 1221.12,-122.963 1236.08,-111.897 1248.09,-103.501"/>
<polygon fill="midnightblue" stroke="midnightblue" points="1250.35,-106.195 1256.6,-97.6454 1246.38,-100.426 1250.35,-106.195"/>
</g>
<!-- Node23&#45;&gt;Node22 -->
<g id="edge42" class="edge"><title>Node23&#45;&gt;Node22</title>
<path fill="none" stroke="midnightblue" d="M970.155,-212.486C1043.74,-202.411 1160.52,-185.773 1203.76,-176 1208.08,-175.023 1212.53,-173.911 1216.98,-172.723"/>
<polygon fill="midnightblue" stroke="midnightblue" points="1217.99,-176.076 1226.69,-170.024 1216.11,-169.333 1217.99,-176.076"/>
</g>
<!-- Node24 -->
<g id="node25" class="node"><title>Node24</title>
<polygon fill="none" stroke="#bfbfbf" points="919.76,-140 919.76,-170 1035.76,-170 1035.76,-140 919.76,-140"/>
<text text-anchor="start" x="927.76" y="-158" font-family="Helvetica,sans-Serif" font-size="10.00">hydra/detail/external</text>
<text text-anchor="middle" x="977.76" y="-147" font-family="Helvetica,sans-Serif" font-size="10.00">/thrust/device_vector.h</text>
</g>
<!-- Node23&#45;&gt;Node24 -->
<g id="edge40" class="edge"><title>Node23&#45;&gt;Node24</title>
<path fill="none" stroke="midnightblue" d="M916.336,-212.234C926.115,-203.28 941.667,-189.043 954.675,-177.135"/>
<polygon fill="midnightblue" stroke="midnightblue" points="957.358,-179.423 962.371,-170.089 952.631,-174.26 957.358,-179.423"/>
</g>
<!-- Node25 -->
<g id="node26" class="node"><title>Node25</title>
<polygon fill="none" stroke="#bfbfbf" points="1054.26,-140 1054.26,-170 1161.26,-170 1161.26,-140 1054.26,-140"/>
<text text-anchor="start" x="1062.26" y="-158" font-family="Helvetica,sans-Serif" font-size="10.00">hydra/detail/external</text>
<text text-anchor="middle" x="1107.76" y="-147" font-family="Helvetica,sans-Serif" font-size="10.00">/thrust/host_vector.h</text>
</g>
<!-- Node23&#45;&gt;Node25 -->
<g id="edge41" class="edge"><title>Node23&#45;&gt;Node25</title>
<path fill="none" stroke="midnightblue" d="M933.451,-212.369C964.265,-202.404 1015.71,-185.768 1054.74,-173.144"/>
<polygon fill="midnightblue" stroke="midnightblue" points="1055.94,-176.435 1064.38,-170.028 1053.79,-169.775 1055.94,-176.435"/>
</g>
<!-- Node26 -->
<g id="node27" class="node"><title>Node26</title>
<polygon fill="none" stroke="#bfbfbf" points="739.76,-134.5 739.76,-175.5 901.76,-175.5 901.76,-134.5 739.76,-134.5"/>
<text text-anchor="start" x="747.76" y="-163.5" font-family="Helvetica,sans-Serif" font-size="10.00">hydra/detail/external</text>
<text text-anchor="start" x="747.76" y="-152.5" font-family="Helvetica,sans-Serif" font-size="10.00">/thrust/system/cuda/experimental</text>
<text text-anchor="middle" x="820.76" y="-141.5" font-family="Helvetica,sans-Serif" font-size="10.00">/pinned_allocator.h</text>
</g>
<!-- Node23&#45;&gt;Node26 -->
<g id="edge43" class="edge"><title>Node23&#45;&gt;Node26</title>
<path fill="none" stroke="midnightblue" d="M895.162,-212.234C884.814,-204.413 869.131,-192.559 854.827,-181.748"/>
<polygon fill="midnightblue" stroke="midnightblue" points="856.704,-178.78 846.616,-175.542 852.483,-184.364 856.704,-178.78"/>
</g>
<!-- Node31&#45;&gt;Node1 -->
<g id="edge51" class="edge"><title>Node31&#45;&gt;Node1</title>
<path fill="none" stroke="midnightblue" d="M308.79,-346.234C290.15,-335.318 258.097,-316.549 236.191,-303.721"/>
<polygon fill="midnightblue" stroke="midnightblue" points="237.891,-300.66 227.493,-298.627 234.354,-306.701 237.891,-300.66"/>
</g>
<!-- Node31&#45;&gt;Node5 -->
<g id="edge52" class="edge"><title>Node31&#45;&gt;Node5</title>
<path fill="none" stroke="midnightblue" d="M318.725,-346.477C308.328,-329.509 282.919,-291.146 252.76,-268 221.83,-244.262 193.931,-264.742 172.76,-232 147.569,-193.04 168.785,-135.584 182.437,-106.802"/>
<polygon fill="midnightblue" stroke="midnightblue" points="185.702,-108.095 187.024,-97.5831 179.435,-104.977 185.702,-108.095"/>
</g>
<!-- Node32&#45;&gt;Node2 -->
<g id="edge54" class="edge"><title>Node32&#45;&gt;Node2</title>
<path fill="none" stroke="midnightblue" d="M1097.29,-416.638C1170.24,-413.893 1306.26,-396.672 1368.76,-310 1393.09,-276.263 1395.44,-203.466 1347.76,-134 1337.65,-119.269 1321.02,-108.723 1305.71,-101.56"/>
<polygon fill="midnightblue" stroke="midnightblue" points="1306.98,-98.2977 1296.42,-97.5307 1304.2,-104.72 1306.98,-98.2977"/>
</g>
<!-- Node32&#45;&gt;Node5 -->
<g id="edge55" class="edge"><title>Node32&#45;&gt;Node5</title>
<path fill="none" stroke="midnightblue" d="M1000.14,-414.087C914.817,-407.921 735.028,-386.175 606.76,-310 585.116,-297.146 591.04,-279.718 568.76,-268 462.004,-211.851 413.48,-272.216 299.76,-232 288.478,-228.01 214.546,-185.857 207.76,-176 193.769,-155.678 191.037,-126.599 190.943,-107.758"/>
<polygon fill="midnightblue" stroke="midnightblue" points="194.447,-107.587 191.148,-97.519 187.448,-107.447 194.447,-107.587"/>
</g>
<!-- Node32&#45;&gt;Node9 -->
<g id="edge56" class="edge"><title>Node32&#45;&gt;Node9</title>
<path fill="none" stroke="midnightblue" d="M1041.17,-407.975C1033.06,-398.873 1020.03,-384.241 1010,-372.983"/>
<polygon fill="midnightblue" stroke="midnightblue" points="1012.6,-370.648 1003.34,-365.509 1007.38,-375.304 1012.6,-370.648"/>
</g>
<!-- Node33 -->
<g id="node34" class="node"><title>Node33</title>
<polygon fill="none" stroke="#bfbfbf" points="1356.26,-346.5 1356.26,-365.5 1397.26,-365.5 1397.26,-346.5 1356.26,-346.5"/>
<text text-anchor="middle" x="1376.76" y="-353.5" font-family="Helvetica,sans-Serif" font-size="10.00">string</text>
</g>
<!-- Node32&#45;&gt;Node33 -->
<g id="edge57" class="edge"><title>Node32&#45;&gt;Node33</title>
<path fill="none" stroke="midnightblue" d="M1097.47,-409.342C1155.8,-400.485 1256.34,-384.313 1341.76,-366 1343.22,-365.688 1344.71,-365.356 1346.21,-365.011"/>
<polygon fill="midnightblue" stroke="midnightblue" points="1347.21,-368.37 1356.1,-362.609 1345.55,-361.567 1347.21,-368.37"/>
</g>
<!-- Node34 -->
<g id="node35" class="node"><title>Node34</title>
<polygon fill="none" stroke="#bfbfbf" points="1076.76,-346.5 1076.76,-365.5 1128.76,-365.5 1128.76,-346.5 1076.76,-346.5"/>
<text text-anchor="middle" x="1102.76" y="-353.5" font-family="Helvetica,sans-Serif" font-size="10.00">ostream</text>
</g>
<!-- Node32&#45;&gt;Node34 -->
<g id="edge58" class="edge"><title>Node32&#45;&gt;Node34</title>
<path fill="none" stroke="midnightblue" d="M1056.5,-407.975C1064.76,-398.873 1078.04,-384.241 1088.25,-372.983"/>
<polygon fill="midnightblue" stroke="midnightblue" points="1090.91,-375.266 1095.04,-365.509 1085.73,-370.562 1090.91,-375.266"/>
</g>
</g>
</svg>
        <g id="navigator" transform="translate(0 0)" fill="#404254">
                <rect fill="#f2f5e9" fill-opacity="0.5" stroke="#606060" stroke-width=".5" x="0" y="0" width="60" height="60"/>
                <use id="zoomplus" xlink:href="#zoomPlus" x="17" y="9" onmousedown="handleZoom(evt,'in')"/>
                <use id="zoomminus" xlink:href="#zoomMin" x="42" y="9" onmousedown="handleZoom(evt,'out')"/>
                <use id="reset" xlink:href="#resetDef" x="30" y="36" onmousedown="handleReset()"/>
                <g id="arrowUp" xlink:href="#dirArrow" transform="translate(30 24)" onmousedown="handlePan(0,-1)">
                  <use xlink:href="#rim" fill="#404040">
                        <set attributeName="fill" to="#808080" begin="arrowUp.mouseover" end="arrowUp.mouseout"/>
                  </use>
                  <path fill="none" stroke="white" stroke-width="1.5" d="M0,-3.0v7 M-2.5,-0.5L0,-3.0L2.5,-0.5"/>
                </g>
                <g id="arrowRight" xlink:href="#dirArrow" transform="rotate(90) translate(36 -43)" onmousedown="handlePan(1,0)">
                  <use xlink:href="#rim" fill="#404040">
                        <set attributeName="fill" to="#808080" begin="arrowRight.mouseover" end="arrowRight.mouseout"/>
                  </use>
                  <path fill="none" stroke="white" stroke-width="1.5" d="M0,-3.0v7 M-2.5,-0.5L0,-3.0L2.5,-0.5"/>
                </g>
                <g id="arrowDown" xlink:href="#dirArrow" transform="rotate(180) translate(-30 -48)" onmousedown="handlePan(0,1)">
                  <use xlink:href="#rim" fill="#404040">
                        <set attributeName="fill" to="#808080" begin="arrowDown.mouseover" end="arrowDown.mouseout"/>
                  </use>
                  <path fill="none" stroke="white" stroke-width="1.5" d="M0,-3.0v7 M-2.5,-0.5L0,-3.0L2.5,-0.5"/>
                </g>
                <g id="arrowLeft" xlink:href="#dirArrow" transform="rotate(270) translate(-36 17)" onmousedown="handlePan(-1,0)">
                  <use xlink:href="#rim" fill="#404040">
                        <set attributeName="fill" to="#808080" begin="arrowLeft.mouseover" end="arrowLeft.mouseout"/>
                  </use>
                  <path fill="none" stroke="white" stroke-width="1.5" d="M0,-3.0v7 M-2.5,-0.5L0,-3.0L2.5,-0.5"/>
                </g>
        </g>
        <svg viewBox="0 0 15 15" width="100%" height="30px" preserveAspectRatio="xMaxYMin meet">
         <g id="arrow_out" transform="scale(0.3 0.3)">
          <a xlink:href="a00042_org.svg" target="_base">
           <rect id="button" ry="5" rx="5" y="6" x="6" height="38" width="38"
                fill="#f2f5e9" fill-opacity="0.5" stroke="#606060" stroke-width="1.0"/>
           <path id="arrow"
             d="M 11.500037,31.436501 C 11.940474,20.09759 22.043105,11.32322 32.158766,21.979434 L 37.068811,17.246167 C 37.068811,17.246167 37.088388,32 37.088388,32 L 22.160133,31.978069 C 22.160133,31.978069 26.997745,27.140456 26.997745,27.140456 C 18.528582,18.264221 13.291696,25.230495 11.500037,31.436501 z"
             style="fill:#404040;"/>
          </a>
         </g>
        </svg>
</svg>
