<?xml version="1.0" encoding="UTF-8" standalone="no"?>
<!DOCTYPE svg PUBLIC "-//W3C//DTD SVG 1.1//EN"
 "http://www.w3.org/Graphics/SVG/1.1/DTD/svg11.dtd">
<!-- Generated by graphviz version 2.38.0 (20140413.2041)
 -->
<!-- Title: hydra::detail::set_ptrs_to_tuple Pages: 1 -->
<svg width="243pt" height="137pt"
 viewBox="0.00 0.00 243.00 137.00" xmlns="http://www.w3.org/2000/svg" xmlns:xlink="http://www.w3.org/1999/xlink">
<g id="graph0" class="graph" transform="scale(1 1) rotate(0) translate(4 133)">
<title>hydra::detail::set_ptrs_to_tuple</title>
<!-- Node1 -->
<g id="node1" class="node"><title>Node1</title>
<polygon fill="#bfbfbf" stroke="black" points="0,-49.5 0,-79.5 89,-79.5 89,-49.5 0,-49.5"/>
<text text-anchor="start" x="8" y="-67.5" font-family="Helvetica,sans-Serif" font-size="10.00">hydra::detail::set</text>
<text text-anchor="middle" x="44.5" y="-56.5" font-family="Helvetica,sans-Serif" font-size="10.00">_ptrs_to_tuple</text>
</g>
<!-- Node2 -->
<g id="node2" class="node"><title>Node2</title>
<g id="a_node2"><a xlink:href="a00032.html#ada23cf08810fc2aa96dda7efbf67e961" target="_top" xlink:title="hydra::HyRndTrial::\loperator()">
<polygon fill="none" stroke="black" points="129,-98.5 129,-128.5 231,-128.5 231,-98.5 129,-98.5"/>
<text text-anchor="start" x="137" y="-116.5" font-family="Helvetica,sans-Serif" font-size="10.00">hydra::HyRndTrial::</text>
<text text-anchor="middle" x="180" y="-105.5" font-family="Helvetica,sans-Serif" font-size="10.00">operator()</text>
</a>
</g>
</g>
<!-- Node1&#45;&gt;Node2 -->
<g id="edge1" class="edge"><title>Node1&#45;&gt;Node2</title>
<path fill="none" stroke="midnightblue" d="M96.3978,-83.1816C110.071,-88.2001 124.685,-93.5643 137.762,-98.3641"/>
<polygon fill="midnightblue" stroke="midnightblue" points="97.2373,-79.7615 86.6437,-79.6014 94.8254,-86.3328 97.2373,-79.7615"/>
</g>
<!-- Node3 -->
<g id="node3" class="node"><title>Node3</title>
<g id="a_node3"><a xlink:href="a00020.html#a9aca189a3fd086fa12e869e922cfee52" target="_top" xlink:title="hydra::DecayMothers\l::operator()">
<polygon fill="none" stroke="black" points="125,-49.5 125,-79.5 235,-79.5 235,-49.5 125,-49.5"/>
<text text-anchor="start" x="133" y="-67.5" font-family="Helvetica,sans-Serif" font-size="10.00">hydra::DecayMothers</text>
<text text-anchor="middle" x="180" y="-56.5" font-family="Helvetica,sans-Serif" font-size="10.00">::operator()</text>
</a>
</g>
</g>
<!-- Node1&#45;&gt;Node3 -->
<g id="edge2" class="edge"><title>Node1&#45;&gt;Node3</title>
<path fill="none" stroke="midnightblue" d="M99.3228,-64.5C107.759,-64.5 116.481,-64.5 124.923,-64.5"/>
<polygon fill="midnightblue" stroke="midnightblue" points="99.2129,-61.0001 89.2129,-64.5 99.2129,-68.0001 99.2129,-61.0001"/>
</g>
<!-- Node4 -->
<g id="node4" class="node"><title>Node4</title>
<g id="a_node4"><a xlink:href="a00019.html#a0641a168fd464992197d785a9147af4f" target="_top" xlink:title="hydra::DecayMother\l::operator()">
<polygon fill="none" stroke="black" points="127.5,-0.5 127.5,-30.5 232.5,-30.5 232.5,-0.5 127.5,-0.5"/>
<text text-anchor="start" x="135.5" y="-18.5" font-family="Helvetica,sans-Serif" font-size="10.00">hydra::DecayMother</text>
<text text-anchor="middle" x="180" y="-7.5" font-family="Helvetica,sans-Serif" font-size="10.00">::operator()</text>
</a>
</g>
</g>
<!-- Node1&#45;&gt;Node4 -->
<g id="edge3" class="edge"><title>Node1&#45;&gt;Node4</title>
<path fill="none" stroke="midnightblue" d="M96.3978,-45.8184C110.071,-40.7999 124.685,-35.4357 137.762,-30.6359"/>
<polygon fill="midnightblue" stroke="midnightblue" points="94.8254,-42.6672 86.6437,-49.3986 97.2373,-49.2385 94.8254,-42.6672"/>
</g>
</g>
</svg>
