<?xml version="1.0" encoding="UTF-8" standalone="no"?>
<!DOCTYPE svg PUBLIC "-//W3C//DTD SVG 1.1//EN"
 "http://www.w3.org/Graphics/SVG/1.1/DTD/svg11.dtd">
<!-- Generated by graphviz version 2.38.0 (20140413.2041)
 -->
<!-- Title: hydra::UserParameters::GetState Pages: 1 -->
<svg width="281pt" height="78pt"
 viewBox="0.00 0.00 281.00 77.50" xmlns="http://www.w3.org/2000/svg" xmlns:xlink="http://www.w3.org/1999/xlink">
<g id="graph0" class="graph" transform="scale(1 1) rotate(0) translate(4 73.5)">
<title>hydra::UserParameters::GetState</title>
<!-- Node1 -->
<g id="node1" class="node"><title>Node1</title>
<polygon fill="#bfbfbf" stroke="black" points="0,-22.5 0,-52.5 118,-52.5 118,-22.5 0,-22.5"/>
<text text-anchor="start" x="8" y="-40.5" font-family="Helvetica,sans-Serif" font-size="10.00">hydra::UserParameters</text>
<text text-anchor="middle" x="59" y="-29.5" font-family="Helvetica,sans-Serif" font-size="10.00">::GetState</text>
</g>
<!-- Node2 -->
<g id="node2" class="node"><title>Node2</title>
<g id="a_node2"><a xlink:href="a00022.html#a268e82d7c372bfc5fe6a107f6e076b84" target="_top" xlink:title="hydra::operator\&lt;\&lt;">
<polygon fill="none" stroke="black" points="166.5,-50 166.5,-69 260.5,-69 260.5,-50 166.5,-50"/>
<text text-anchor="middle" x="213.5" y="-57" font-family="Helvetica,sans-Serif" font-size="10.00">hydra::operator&lt;&lt;</text>
</a>
</g>
</g>
<!-- Node1&#45;&gt;Node2 -->
<g id="edge1" class="edge"><title>Node1&#45;&gt;Node2</title>
<path fill="none" stroke="midnightblue" d="M128.332,-47.3577C141.221,-49.2171 154.415,-51.1206 166.42,-52.8524"/>
<polygon fill="midnightblue" stroke="midnightblue" points="128.486,-43.8438 118.089,-45.88 127.487,-50.7721 128.486,-43.8438"/>
</g>
<!-- Node3 -->
<g id="node3" class="node"><title>Node3</title>
<g id="a_node3"><a xlink:href="a00083.html#ae827fda081825eb09704bc35e289fdf3" target="_top" xlink:title="hydra::UserParameters\l::PrintMinuitParameters">
<polygon fill="none" stroke="black" points="154,-0.5 154,-30.5 273,-30.5 273,-0.5 154,-0.5"/>
<text text-anchor="start" x="162" y="-18.5" font-family="Helvetica,sans-Serif" font-size="10.00">hydra::UserParameters</text>
<text text-anchor="middle" x="213.5" y="-7.5" font-family="Helvetica,sans-Serif" font-size="10.00">::PrintMinuitParameters</text>
</a>
</g>
</g>
<!-- Node1&#45;&gt;Node3 -->
<g id="edge2" class="edge"><title>Node1&#45;&gt;Node3</title>
<path fill="none" stroke="midnightblue" d="M128.078,-27.6789C136.664,-26.4402 145.391,-25.1813 153.815,-23.9661"/>
<polygon fill="midnightblue" stroke="midnightblue" points="127.487,-24.2279 118.089,-29.12 128.486,-31.1562 127.487,-24.2279"/>
</g>
</g>
</svg>
