<?xml version="1.0" encoding="UTF-8" standalone="no"?>
<!DOCTYPE svg PUBLIC "-//W3C//DTD SVG 1.1//EN"
 "http://www.w3.org/Graphics/SVG/1.1/DTD/svg11.dtd">
<!-- Generated by graphviz version 2.38.0 (20140413.2041)
 -->
<!-- Title: hydra::Vegas::PrintHead Pages: 1 -->
<svg width="431pt" height="47pt"
 viewBox="0.00 0.00 431.00 47.00" xmlns="http://www.w3.org/2000/svg" xmlns:xlink="http://www.w3.org/1999/xlink">
<g id="graph0" class="graph" transform="scale(1 1) rotate(0) translate(4 43)">
<title>hydra::Vegas::PrintHead</title>
<!-- Node1 -->
<g id="node1" class="node"><title>Node1</title>
<polygon fill="#bfbfbf" stroke="black" points="0,-0.5 0,-19.5 124,-19.5 124,-0.5 0,-0.5"/>
<text text-anchor="middle" x="62" y="-7.5" font-family="Helvetica,sans-Serif" font-size="10.00">hydra::Vegas::PrintHead</text>
</g>
<!-- Node2 -->
<g id="node2" class="node"><title>Node2</title>
<g id="a_node2"><a xlink:href="a00087.html#a87f00c841d243f5aed0de39c3d1efaea" target="_top" xlink:title="hydra::Vegas::Integrate">
<polygon fill="none" stroke="black" points="160,-19.5 160,-38.5 279,-38.5 279,-19.5 160,-19.5"/>
<text text-anchor="middle" x="219.5" y="-26.5" font-family="Helvetica,sans-Serif" font-size="10.00">hydra::Vegas::Integrate</text>
</a>
</g>
</g>
<!-- Node1&#45;&gt;Node2 -->
<g id="edge1" class="edge"><title>Node1&#45;&gt;Node2</title>
<path fill="none" stroke="midnightblue" d="M134.093,-18.6866C142.747,-19.744 151.511,-20.8149 159.954,-21.8464"/>
<polygon fill="midnightblue" stroke="midnightblue" points="134.362,-15.1935 124.011,-17.4548 133.513,-22.1419 134.362,-15.1935"/>
</g>
<!-- Node3 -->
<g id="node3" class="node"><title>Node3</title>
<g id="a_node3"><a xlink:href="a00087.html#a93dc7dcfa985d3b47edeb355e4c3f947" target="_top" xlink:title="hydra::Vegas::Vegas">
<polygon fill="none" stroke="black" points="315,-0.5 315,-19.5 423,-19.5 423,-0.5 315,-0.5"/>
<text text-anchor="middle" x="369" y="-7.5" font-family="Helvetica,sans-Serif" font-size="10.00">hydra::Vegas::Vegas</text>
</a>
</g>
</g>
<!-- Node1&#45;&gt;Node3 -->
<g id="edge3" class="edge"><title>Node1&#45;&gt;Node3</title>
<path fill="none" stroke="midnightblue" d="M134.424,-10C189.658,-10 264.897,-10 314.89,-10"/>
<polygon fill="midnightblue" stroke="midnightblue" points="134.354,-6.5001 124.354,-10 134.354,-13.5001 134.354,-6.5001"/>
</g>
<!-- Node2&#45;&gt;Node3 -->
<g id="edge2" class="edge"><title>Node2&#45;&gt;Node3</title>
<path fill="none" stroke="midnightblue" d="M289.214,-20.1487C297.787,-19.0443 306.452,-17.9283 314.741,-16.8605"/>
<polygon fill="midnightblue" stroke="midnightblue" points="288.691,-16.6871 279.22,-21.4361 289.585,-23.6298 288.691,-16.6871"/>
</g>
</g>
</svg>
