<?xml version="1.0" encoding="UTF-8" standalone="no"?>
<!DOCTYPE svg PUBLIC "-//W3C//DTD SVG 1.1//EN"
 "http://www.w3.org/Graphics/SVG/1.1/DTD/svg11.dtd">
<!-- Generated by graphviz version 2.38.0 (20140413.2041)
 -->
<!-- Title: /home/augalves/Development/Release/Hydra/hydra/detail/Config.h Pages: 1 -->
<svg width="238pt" height="128pt"
 viewBox="0.00 0.00 238.00 128.00" xmlns="http://www.w3.org/2000/svg" xmlns:xlink="http://www.w3.org/1999/xlink">
<g id="graph0" class="graph" transform="scale(1 1) rotate(0) translate(4 124)">
<title>/home/augalves/Development/Release/Hydra/hydra/detail/Config.h</title>
<!-- Node0 -->
<g id="node1" class="node"><title>Node0</title>
<polygon fill="#bfbfbf" stroke="black" points="43,-78.5 43,-119.5 189,-119.5 189,-78.5 43,-78.5"/>
<text text-anchor="start" x="51" y="-107.5" font-family="Helvetica,sans-Serif" font-size="10.00">/home/augalves/Development</text>
<text text-anchor="start" x="51" y="-96.5" font-family="Helvetica,sans-Serif" font-size="10.00">/Release/Hydra/hydra/detail</text>
<text text-anchor="middle" x="116" y="-85.5" font-family="Helvetica,sans-Serif" font-size="10.00">/Config.h</text>
</g>
<!-- Node1 -->
<g id="node2" class="node"><title>Node1</title>
<polygon fill="none" stroke="#bfbfbf" points="0,-6 0,-36 108,-36 108,-6 0,-6"/>
<text text-anchor="start" x="8" y="-24" font-family="Helvetica,sans-Serif" font-size="10.00">hydra/detail/external</text>
<text text-anchor="middle" x="54" y="-13" font-family="Helvetica,sans-Serif" font-size="10.00">/thrust/detail/config.h</text>
</g>
<!-- Node0&#45;&gt;Node1 -->
<g id="edge1" class="edge"><title>Node0&#45;&gt;Node1</title>
<path fill="none" stroke="midnightblue" d="M100.033,-78.4281C91.4561,-67.9139 80.8527,-54.9162 71.9852,-44.0464"/>
<polygon fill="midnightblue" stroke="midnightblue" points="74.6382,-41.7616 65.6049,-36.2254 69.2142,-46.1865 74.6382,-41.7616"/>
</g>
<!-- Node2 -->
<g id="node3" class="node"><title>Node2</title>
<polygon fill="none" stroke="#bfbfbf" points="126,-0.5 126,-41.5 230,-41.5 230,-0.5 126,-0.5"/>
<text text-anchor="start" x="134" y="-29.5" font-family="Helvetica,sans-Serif" font-size="10.00">hydra/detail/external</text>
<text text-anchor="start" x="134" y="-18.5" font-family="Helvetica,sans-Serif" font-size="10.00">/thrust/detail/config</text>
<text text-anchor="middle" x="178" y="-7.5" font-family="Helvetica,sans-Serif" font-size="10.00">/host_device.h</text>
</g>
<!-- Node0&#45;&gt;Node2 -->
<g id="edge2" class="edge"><title>Node0&#45;&gt;Node2</title>
<path fill="none" stroke="midnightblue" d="M131.967,-78.4281C139.198,-69.5632 147.871,-58.9328 155.728,-49.3009"/>
<polygon fill="midnightblue" stroke="midnightblue" points="158.478,-51.4667 162.088,-41.5056 153.054,-47.0418 158.478,-51.4667"/>
</g>
</g>
</svg>
