<?xml version="1.0" encoding="UTF-8" standalone="no"?>
<!DOCTYPE svg PUBLIC "-//W3C//DTD SVG 1.1//EN"
 "http://www.w3.org/Graphics/SVG/1.1/DTD/svg11.dtd">
<!-- Generated by graphviz version 2.38.0 (20140413.2041)
 -->
<!-- Title: hydra::Events::DaughtersBegin Pages: 1 -->
<svg width="441pt" height="116pt"
 viewBox="0.00 0.00 441.00 116.00" xmlns="http://www.w3.org/2000/svg" xmlns:xlink="http://www.w3.org/1999/xlink">
<g id="graph0" class="graph" transform="scale(1 1) rotate(0) translate(4 112)">
<title>hydra::Events::DaughtersBegin</title>
<!-- Node1 -->
<g id="node1" class="node"><title>Node1</title>
<polygon fill="#bfbfbf" stroke="black" points="0,-39 0,-69 128,-69 128,-39 0,-39"/>
<text text-anchor="start" x="8" y="-57" font-family="Helvetica,sans-Serif" font-size="10.00">hydra::Events::Daughters</text>
<text text-anchor="middle" x="64" y="-46" font-family="Helvetica,sans-Serif" font-size="10.00">Begin</text>
</g>
<!-- Node2 -->
<g id="node2" class="node"><title>Node2</title>
<g id="a_node2"><a xlink:href="a00023.html#a4bc30bbd45a57a1724f16f60b1353cf5" target="_top" xlink:title="hydra::Events::Events">
<polygon fill="none" stroke="black" points="169.5,-88.5 169.5,-107.5 283.5,-107.5 283.5,-88.5 169.5,-88.5"/>
<text text-anchor="middle" x="226.5" y="-95.5" font-family="Helvetica,sans-Serif" font-size="10.00">hydra::Events::Events</text>
</a>
</g>
</g>
<!-- Node1&#45;&gt;Node2 -->
<g id="edge1" class="edge"><title>Node1&#45;&gt;Node2</title>
<path fill="none" stroke="midnightblue" d="M129.553,-71.6969C150.394,-77.4101 172.704,-83.5262 190.561,-88.4217"/>
<polygon fill="midnightblue" stroke="midnightblue" points="130.356,-68.2877 119.786,-69.0192 128.505,-75.0387 130.356,-68.2877"/>
</g>
<!-- Node3 -->
<g id="node3" class="node"><title>Node3</title>
<g id="a_node3"><a xlink:href="a00001.html#ab9ff11feecf1326d0b788d755293c639" target="_top" xlink:title="hydra::detail::launch\l_decayer">
<polygon fill="none" stroke="black" points="174.5,-39 174.5,-69 278.5,-69 278.5,-39 174.5,-39"/>
<text text-anchor="start" x="182.5" y="-57" font-family="Helvetica,sans-Serif" font-size="10.00">hydra::detail::launch</text>
<text text-anchor="middle" x="226.5" y="-46" font-family="Helvetica,sans-Serif" font-size="10.00">_decayer</text>
</a>
</g>
</g>
<!-- Node1&#45;&gt;Node3 -->
<g id="edge2" class="edge"><title>Node1&#45;&gt;Node3</title>
<path fill="none" stroke="midnightblue" d="M138.536,-54C150.65,-54 162.969,-54 174.379,-54"/>
<polygon fill="midnightblue" stroke="midnightblue" points="138.434,-50.5001 128.434,-54 138.434,-57.5001 138.434,-50.5001"/>
</g>
<!-- Node5 -->
<g id="node5" class="node"><title>Node5</title>
<g id="a_node5"><a xlink:href="a00023.html#ace3fe647bf093ad875cc1568ac8bdb53" target="_top" xlink:title="hydra::Events::operator=">
<polygon fill="none" stroke="black" points="164,-0.5 164,-19.5 289,-19.5 289,-0.5 164,-0.5"/>
<text text-anchor="middle" x="226.5" y="-7.5" font-family="Helvetica,sans-Serif" font-size="10.00">hydra::Events::operator=</text>
</a>
</g>
</g>
<!-- Node1&#45;&gt;Node5 -->
<g id="edge4" class="edge"><title>Node1&#45;&gt;Node5</title>
<path fill="none" stroke="midnightblue" d="M129.553,-36.3031C150.394,-30.5899 172.704,-24.4738 190.561,-19.5783"/>
<polygon fill="midnightblue" stroke="midnightblue" points="128.505,-32.9613 119.786,-38.9808 130.356,-39.7123 128.505,-32.9613"/>
</g>
<!-- Node4 -->
<g id="node4" class="node"><title>Node4</title>
<g id="a_node4"><a xlink:href="a00063.html#a4ca0a20cd6c56424099b22b2bee2fa7e" target="_top" xlink:title="hydra::PhaseSpace::\lGenerate">
<polygon fill="none" stroke="black" points="325,-39 325,-69 433,-69 433,-39 325,-39"/>
<text text-anchor="start" x="333" y="-57" font-family="Helvetica,sans-Serif" font-size="10.00">hydra::PhaseSpace::</text>
<text text-anchor="middle" x="379" y="-46" font-family="Helvetica,sans-Serif" font-size="10.00">Generate</text>
</a>
</g>
</g>
<!-- Node3&#45;&gt;Node4 -->
<g id="edge3" class="edge"><title>Node3&#45;&gt;Node4</title>
<path fill="none" stroke="midnightblue" d="M289.125,-54C300.962,-54 313.265,-54 324.809,-54"/>
<polygon fill="midnightblue" stroke="midnightblue" points="288.873,-50.5001 278.873,-54 288.873,-57.5001 288.873,-50.5001"/>
</g>
</g>
</svg>
