<?xml version="1.0" encoding="UTF-8" standalone="no"?>
<!DOCTYPE svg PUBLIC "-//W3C//DTD SVG 1.1//EN"
 "http://www.w3.org/Graphics/SVG/1.1/DTD/svg11.dtd">
<!-- Generated by graphviz version 2.38.0 (20140413.2041)
 -->
<!-- Title: hydra::Random::SetSeed Pages: 1 -->
<svg width="314pt" height="218pt"
 viewBox="0.00 0.00 314.00 218.00" xmlns="http://www.w3.org/2000/svg" xmlns:xlink="http://www.w3.org/1999/xlink">
<g id="graph0" class="graph" transform="scale(1 1) rotate(0) translate(4 214)">
<title>hydra::Random::SetSeed</title>
<!-- Node1 -->
<g id="node1" class="node"><title>Node1</title>
<polygon fill="#bfbfbf" stroke="black" points="0,-95.5 0,-114.5 127,-114.5 127,-95.5 0,-95.5"/>
<text text-anchor="middle" x="63.5" y="-102.5" font-family="Helvetica,sans-Serif" font-size="10.00">hydra::Random::SetSeed</text>
</g>
<!-- Node2 -->
<g id="node2" class="node"><title>Node2</title>
<g id="a_node2"><a xlink:href="a00075.html#a1d1d32fe3630bb302342c6dffae639f3" target="_top" xlink:title="Fill the range (begin, end) with an exponential distribution. ">
<polygon fill="none" stroke="black" points="164.5,-190.5 164.5,-209.5 304.5,-209.5 304.5,-190.5 164.5,-190.5"/>
<text text-anchor="middle" x="234.5" y="-197.5" font-family="Helvetica,sans-Serif" font-size="10.00">hydra::Random::BreitWigner</text>
</a>
</g>
</g>
<!-- Node1&#45;&gt;Node2 -->
<g id="edge1" class="edge"><title>Node1&#45;&gt;Node2</title>
<path fill="none" stroke="midnightblue" d="M74.2229,-114.678C90.9341,-130.777 126.812,-163.061 163,-181 167.637,-183.299 172.588,-185.347 177.635,-187.167"/>
<polygon fill="midnightblue" stroke="midnightblue" points="176.809,-190.58 187.402,-190.391 179.003,-183.933 176.809,-190.58"/>
</g>
<!-- Node3 -->
<g id="node3" class="node"><title>Node3</title>
<g id="a_node3"><a xlink:href="a00075.html#a3dbc414994aa19965b7ff815300aff96" target="_top" xlink:title="Fill the range (begin, end) with an exponential distribution. ">
<polygon fill="none" stroke="black" points="181,-152.5 181,-171.5 288,-171.5 288,-152.5 181,-152.5"/>
<text text-anchor="middle" x="234.5" y="-159.5" font-family="Helvetica,sans-Serif" font-size="10.00">hydra::Random::Exp</text>
</a>
</g>
</g>
<!-- Node1&#45;&gt;Node3 -->
<g id="edge2" class="edge"><title>Node1&#45;&gt;Node3</title>
<path fill="none" stroke="midnightblue" d="M87.3407,-114.597C107.149,-122.73 136.691,-134.406 163,-143 170.205,-145.354 177.891,-147.644 185.44,-149.773"/>
<polygon fill="midnightblue" stroke="midnightblue" points="184.662,-153.189 195.232,-152.47 186.521,-146.44 184.662,-153.189"/>
</g>
<!-- Node4 -->
<g id="node4" class="node"><title>Node4</title>
<g id="a_node4"><a xlink:href="a00075.html#aeafd0b8dd2740a3943457b8c8e06d1dd" target="_top" xlink:title="hydra::Random::Gauss">
<polygon fill="none" stroke="black" points="175.5,-114.5 175.5,-133.5 293.5,-133.5 293.5,-114.5 175.5,-114.5"/>
<text text-anchor="middle" x="234.5" y="-121.5" font-family="Helvetica,sans-Serif" font-size="10.00">hydra::Random::Gauss</text>
</a>
</g>
</g>
<!-- Node1&#45;&gt;Node4 -->
<g id="edge3" class="edge"><title>Node1&#45;&gt;Node4</title>
<path fill="none" stroke="midnightblue" d="M127.429,-112.075C139.673,-113.451 152.565,-114.901 164.979,-116.296"/>
<polygon fill="midnightblue" stroke="midnightblue" points="164.941,-119.814 175.27,-117.453 165.723,-112.858 164.941,-119.814"/>
</g>
<!-- Node5 -->
<g id="node5" class="node"><title>Node5</title>
<g id="a_node5"><a xlink:href="a00075.html#aca3224e0c691d1503b25ac318b5b4f4d" target="_top" xlink:title="hydra::Random::InverseCDF">
<polygon fill="none" stroke="black" points="163,-76.5 163,-95.5 306,-95.5 306,-76.5 163,-76.5"/>
<text text-anchor="middle" x="234.5" y="-83.5" font-family="Helvetica,sans-Serif" font-size="10.00">hydra::Random::InverseCDF</text>
</a>
</g>
</g>
<!-- Node1&#45;&gt;Node5 -->
<g id="edge4" class="edge"><title>Node1&#45;&gt;Node5</title>
<path fill="none" stroke="midnightblue" d="M127.429,-97.9251C135.726,-96.9924 144.32,-96.0262 152.861,-95.0659"/>
<polygon fill="midnightblue" stroke="midnightblue" points="153.296,-98.5392 162.842,-93.9438 152.514,-91.583 153.296,-98.5392"/>
</g>
<!-- Node6 -->
<g id="node6" class="node"><title>Node6</title>
<g id="a_node6"><a xlink:href="a00075.html#a2f6f0199659a7a31b893da88809f0d4b" target="_top" xlink:title="hydra::Random::Sample">
<polygon fill="none" stroke="black" points="173.5,-38.5 173.5,-57.5 295.5,-57.5 295.5,-38.5 173.5,-38.5"/>
<text text-anchor="middle" x="234.5" y="-45.5" font-family="Helvetica,sans-Serif" font-size="10.00">hydra::Random::Sample</text>
</a>
</g>
</g>
<!-- Node1&#45;&gt;Node6 -->
<g id="edge5" class="edge"><title>Node1&#45;&gt;Node6</title>
<path fill="none" stroke="midnightblue" d="M87.3407,-95.4031C107.149,-87.2704 136.691,-75.5938 163,-67 170.205,-64.6464 177.891,-62.3556 185.44,-60.2268"/>
<polygon fill="midnightblue" stroke="midnightblue" points="186.521,-63.5595 195.232,-57.5299 184.662,-56.8108 186.521,-63.5595"/>
</g>
<!-- Node7 -->
<g id="node7" class="node"><title>Node7</title>
<g id="a_node7"><a xlink:href="a00075.html#aff81053c79f3cfbb30b212127d2c73ef" target="_top" xlink:title="Fill the range (begin, end) with a uniform distribution between [min, max]. ">
<polygon fill="none" stroke="black" points="172.5,-0.5 172.5,-19.5 296.5,-19.5 296.5,-0.5 172.5,-0.5"/>
<text text-anchor="middle" x="234.5" y="-7.5" font-family="Helvetica,sans-Serif" font-size="10.00">hydra::Random::Uniform</text>
</a>
</g>
</g>
<!-- Node1&#45;&gt;Node7 -->
<g id="edge6" class="edge"><title>Node1&#45;&gt;Node7</title>
<path fill="none" stroke="midnightblue" d="M74.2229,-95.3223C90.9341,-79.2226 126.812,-46.9388 163,-29 167.637,-26.7014 172.588,-24.6527 177.635,-22.8327"/>
<polygon fill="midnightblue" stroke="midnightblue" points="179.003,-26.067 187.402,-19.6089 176.809,-19.4197 179.003,-26.067"/>
</g>
</g>
</svg>
