<?xml version="1.0" encoding="UTF-8" standalone="no"?>
<!DOCTYPE svg PUBLIC "-//W3C//DTD SVG 1.1//EN"
 "http://www.w3.org/Graphics/SVG/1.1/DTD/svg11.dtd">
<!-- Generated by graphviz version 2.38.0 (20140413.2041)
 -->
<!-- Title: hydra::Vegas::PrintDistribution Pages: 1 -->
<svg width="457pt" height="47pt"
 viewBox="0.00 0.00 457.00 47.00" xmlns="http://www.w3.org/2000/svg" xmlns:xlink="http://www.w3.org/1999/xlink">
<g id="graph0" class="graph" transform="scale(1 1) rotate(0) translate(4 43)">
<title>hydra::Vegas::PrintDistribution</title>
<!-- Node1 -->
<g id="node1" class="node"><title>Node1</title>
<polygon fill="#bfbfbf" stroke="black" points="0,-0.5 0,-19.5 150,-19.5 150,-0.5 0,-0.5"/>
<text text-anchor="middle" x="75" y="-7.5" font-family="Helvetica,sans-Serif" font-size="10.00">hydra::Vegas::PrintDistribution</text>
</g>
<!-- Node2 -->
<g id="node2" class="node"><title>Node2</title>
<g id="a_node2"><a xlink:href="a00087.html#a87f00c841d243f5aed0de39c3d1efaea" target="_top" xlink:title="hydra::Vegas::Integrate">
<polygon fill="none" stroke="black" points="186,-19.5 186,-38.5 305,-38.5 305,-19.5 186,-19.5"/>
<text text-anchor="middle" x="245.5" y="-26.5" font-family="Helvetica,sans-Serif" font-size="10.00">hydra::Vegas::Integrate</text>
</a>
</g>
</g>
<!-- Node1&#45;&gt;Node2 -->
<g id="edge1" class="edge"><title>Node1&#45;&gt;Node2</title>
<path fill="none" stroke="midnightblue" d="M160.481,-19.526C169.088,-20.4965 177.691,-21.4667 185.933,-22.396"/>
<polygon fill="midnightblue" stroke="midnightblue" points="160.726,-16.0316 150.397,-18.389 159.942,-22.9875 160.726,-16.0316"/>
</g>
<!-- Node3 -->
<g id="node3" class="node"><title>Node3</title>
<g id="a_node3"><a xlink:href="a00087.html#a93dc7dcfa985d3b47edeb355e4c3f947" target="_top" xlink:title="hydra::Vegas::Vegas">
<polygon fill="none" stroke="black" points="341,-0.5 341,-19.5 449,-19.5 449,-0.5 341,-0.5"/>
<text text-anchor="middle" x="395" y="-7.5" font-family="Helvetica,sans-Serif" font-size="10.00">hydra::Vegas::Vegas</text>
</a>
</g>
</g>
<!-- Node1&#45;&gt;Node3 -->
<g id="edge3" class="edge"><title>Node1&#45;&gt;Node3</title>
<path fill="none" stroke="midnightblue" d="M160.271,-10C217.483,-10 291.404,-10 340.641,-10"/>
<polygon fill="midnightblue" stroke="midnightblue" points="160.156,-6.5001 150.156,-10 160.156,-13.5001 160.156,-6.5001"/>
</g>
<!-- Node2&#45;&gt;Node3 -->
<g id="edge2" class="edge"><title>Node2&#45;&gt;Node3</title>
<path fill="none" stroke="midnightblue" d="M315.214,-20.1487C323.787,-19.0443 332.452,-17.9283 340.741,-16.8605"/>
<polygon fill="midnightblue" stroke="midnightblue" points="314.691,-16.6871 305.22,-21.4361 315.585,-23.6298 314.691,-16.6871"/>
</g>
</g>
</svg>
