<?xml version="1.0" encoding="UTF-8" standalone="no"?>
<!DOCTYPE svg PUBLIC "-//W3C//DTD SVG 1.1//EN"
 "http://www.w3.org/Graphics/SVG/1.1/DTD/svg11.dtd">
<!-- Generated by graphviz version 2.38.0 (20140413.2041)
 -->
<!-- Title: AddPdfBase.h Pages: 1 -->
<!--zoomable 564 -->
<svg id="main" version="1.1" xmlns="http://www.w3.org/2000/svg" xmlns:xlink="http://www.w3.org/1999/xlink" xml:space="preserve" onload="init(evt)">
<style type="text/css"><![CDATA[
.edge:hover path { stroke: red; }
.edge:hover polygon { stroke: red; fill: red; }
]]></style>
<script type="text/javascript"><![CDATA[
var edges = document.getElementsByTagName('g');
if (edges && edges.length) {
  for (var i=0;i<edges.length;i++) {
    if (edges[i].id.substr(0,4)=='edge') {
      edges[i].setAttribute('class','edge');
    }
  }
}
]]></script>
        <defs>
                <circle id="rim" cx="0" cy="0" r="7"/>
                <circle id="rim2" cx="0" cy="0" r="3.5"/>
                <g id="zoomPlus">
                        <use xlink:href="#rim" fill="#404040">
                                <set attributeName="fill" to="#808080" begin="zoomplus.mouseover" end="zoomplus.mouseout"/>
                        </use>
                        <path d="M-4,0h8M0,-4v8" fill="none" stroke="white" stroke-width="1.5" pointer-events="none"/>
                </g>
                <g id="zoomMin">
                        <use xlink:href="#rim" fill="#404040">
                                <set attributeName="fill" to="#808080" begin="zoomminus.mouseover" end="zoomminus.mouseout"/>
                        </use>
                        <path d="M-4,0h8" fill="none" stroke="white" stroke-width="1.5" pointer-events="none"/>
                </g>
                <g id="dirArrow">
                        <path fill="none" stroke="white" stroke-width="1.5" d="M0,-3.0v7 M-2.5,-0.5L0,-3.0L2.5,-0.5"/>
                </g>
               <g id="resetDef">
                       <use xlink:href="#rim2" fill="#404040">
                               <set attributeName="fill" to="#808080" begin="reset.mouseover" end="reset.mouseout"/>
                       </use>
               </g>
        </defs>

<script type="text/javascript">
var viewWidth = 1840;
var viewHeight = 564;
var sectionId = 'dynsection-0';
</script>
<script xlink:href="svgpan.js"/>
<svg id="graph" class="graph">
<g id="viewport">
<title>AddPdfBase.h</title>
<!-- Node0 -->
<g id="node1" class="node"><title>Node0</title>
<polygon fill="#bfbfbf" stroke="black" points="1544,-536.5 1544,-555.5 1624,-555.5 1624,-536.5 1544,-536.5"/>
<text text-anchor="middle" x="1584" y="-543.5" font-family="Helvetica,sans-Serif" font-size="10.00">AddPdfBase.h</text>
</g>
<!-- Node1 -->
<g id="node2" class="node"><title>Node1</title>
<g id="a_node2"><a xlink:href="a00053.html" target="_top" xlink:title="hydra/detail/Config.h">
<polygon fill="none" stroke="black" points="178.5,-78.5 178.5,-97.5 285.5,-97.5 285.5,-78.5 178.5,-78.5"/>
<text text-anchor="middle" x="232" y="-85.5" font-family="Helvetica,sans-Serif" font-size="10.00">hydra/detail/Config.h</text>
</a>
</g>
</g>
<!-- Node0&#45;&gt;Node1 -->
<g id="edge1" class="edge"><title>Node0&#45;&gt;Node1</title>
<path fill="none" stroke="midnightblue" d="M1543.65,-543.95C1296.72,-537.268 0,-498.375 0,-418.5 0,-418.5 0,-418.5 0,-355 0,-249.112 11.2646,-205.899 89,-134 110.697,-113.932 141.282,-102.813 168.6,-96.6531"/>
<polygon fill="midnightblue" stroke="midnightblue" points="169.415,-100.059 178.495,-94.6004 167.993,-93.2047 169.415,-100.059"/>
</g>
<!-- Node4 -->
<g id="node5" class="node"><title>Node4</title>
<g id="a_node5"><a xlink:href="a00383.html" target="_top" xlink:title="Common and useful typedefs. ">
<polygon fill="none" stroke="black" points="1270.5,-78.5 1270.5,-97.5 1349.5,-97.5 1349.5,-78.5 1270.5,-78.5"/>
<text text-anchor="middle" x="1310" y="-85.5" font-family="Helvetica,sans-Serif" font-size="10.00">hydra/Types.h</text>
</a>
</g>
</g>
<!-- Node0&#45;&gt;Node4 -->
<g id="edge4" class="edge"><title>Node0&#45;&gt;Node4</title>
<path fill="none" stroke="midnightblue" d="M1621.73,-536.471C1674.52,-522.053 1764,-487.443 1764,-418.5 1764,-418.5 1764,-418.5 1764,-355 1764,-169.447 1478.19,-110.885 1360.11,-94.6087"/>
<polygon fill="midnightblue" stroke="midnightblue" points="1360.27,-91.0984 1349.89,-93.2482 1359.34,-98.0372 1360.27,-91.0984"/>
</g>
<!-- Node5 -->
<g id="node6" class="node"><title>Node5</title>
<g id="a_node6"><a xlink:href="a00266.html" target="_top" xlink:title="hydra/detail/utility\l/Utility_Tuple.h">
<polygon fill="none" stroke="black" points="1318.5,-469.5 1318.5,-499.5 1411.5,-499.5 1411.5,-469.5 1318.5,-469.5"/>
<text text-anchor="start" x="1326.5" y="-487.5" font-family="Helvetica,sans-Serif" font-size="10.00">hydra/detail/utility</text>
<text text-anchor="middle" x="1365" y="-476.5" font-family="Helvetica,sans-Serif" font-size="10.00">/Utility_Tuple.h</text>
</a>
</g>
</g>
<!-- Node0&#45;&gt;Node5 -->
<g id="edge5" class="edge"><title>Node0&#45;&gt;Node5</title>
<path fill="none" stroke="midnightblue" d="M1552.62,-536.475C1518.46,-527.194 1463.13,-512.161 1421.39,-500.82"/>
<polygon fill="midnightblue" stroke="midnightblue" points="1422.2,-497.413 1411.63,-498.168 1420.36,-504.168 1422.2,-497.413"/>
</g>
<!-- Node6 -->
<g id="node7" class="node"><title>Node6</title>
<g id="a_node7"><a xlink:href="a00254.html" target="_top" xlink:title="hydra/detail/utility\l/Generic.h">
<polygon fill="none" stroke="black" points="1604.5,-402.5 1604.5,-432.5 1697.5,-432.5 1697.5,-402.5 1604.5,-402.5"/>
<text text-anchor="start" x="1612.5" y="-420.5" font-family="Helvetica,sans-Serif" font-size="10.00">hydra/detail/utility</text>
<text text-anchor="middle" x="1651" y="-409.5" font-family="Helvetica,sans-Serif" font-size="10.00">/Generic.h</text>
</a>
</g>
</g>
<!-- Node0&#45;&gt;Node6 -->
<g id="edge63" class="edge"><title>Node0&#45;&gt;Node6</title>
<path fill="none" stroke="midnightblue" d="M1588.61,-536.305C1598.81,-517.047 1623.59,-470.254 1638.67,-441.777"/>
<polygon fill="midnightblue" stroke="midnightblue" points="1641.79,-443.363 1643.38,-432.888 1635.61,-440.087 1641.79,-443.363"/>
</g>
<!-- Node31 -->
<g id="node32" class="node"><title>Node31</title>
<g id="a_node32"><a xlink:href="a00158.html" target="_top" xlink:title="hydra/detail/FunctorTraits.h">
<polygon fill="none" stroke="black" points="1450,-408 1450,-427 1586,-427 1586,-408 1450,-408"/>
<text text-anchor="middle" x="1518" y="-415" font-family="Helvetica,sans-Serif" font-size="10.00">hydra/detail/FunctorTraits.h</text>
</a>
</g>
</g>
<!-- Node0&#45;&gt;Node31 -->
<g id="edge64" class="edge"><title>Node0&#45;&gt;Node31</title>
<path fill="none" stroke="midnightblue" d="M1579.46,-536.305C1568.73,-515.723 1541.58,-463.689 1527.22,-436.178"/>
<polygon fill="midnightblue" stroke="midnightblue" points="1530.3,-434.503 1522.57,-427.256 1524.09,-437.741 1530.3,-434.503"/>
</g>
<!-- Node35 -->
<g id="node36" class="node"><title>Node35</title>
<polygon fill="none" stroke="#bfbfbf" points="1792,-475 1792,-494 1832,-494 1832,-475 1792,-475"/>
<text text-anchor="middle" x="1812" y="-482" font-family="Helvetica,sans-Serif" font-size="10.00">utility</text>
</g>
<!-- Node0&#45;&gt;Node35 -->
<g id="edge65" class="edge"><title>Node0&#45;&gt;Node35</title>
<path fill="none" stroke="midnightblue" d="M1624.32,-537.79C1663.95,-530.203 1725.9,-517.005 1778,-500 1779.92,-499.373 1781.89,-498.68 1783.85,-497.948"/>
<polygon fill="midnightblue" stroke="midnightblue" points="1785.54,-501.043 1793.52,-494.076 1782.93,-494.545 1785.54,-501.043"/>
</g>
<!-- Node2 -->
<g id="node3" class="node"><title>Node2</title>
<polygon fill="none" stroke="#bfbfbf" points="55,-6 55,-36 163,-36 163,-6 55,-6"/>
<text text-anchor="start" x="63" y="-24" font-family="Helvetica,sans-Serif" font-size="10.00">hydra/detail/external</text>
<text text-anchor="middle" x="109" y="-13" font-family="Helvetica,sans-Serif" font-size="10.00">/thrust/detail/config.h</text>
</g>
<!-- Node1&#45;&gt;Node2 -->
<g id="edge2" class="edge"><title>Node1&#45;&gt;Node2</title>
<path fill="none" stroke="midnightblue" d="M215.667,-78.3685C197.667,-68.8566 168.164,-53.2655 144.743,-40.8888"/>
<polygon fill="midnightblue" stroke="midnightblue" points="146.256,-37.7295 135.779,-36.1516 142.985,-43.9184 146.256,-37.7295"/>
</g>
<!-- Node3 -->
<g id="node4" class="node"><title>Node3</title>
<polygon fill="none" stroke="#bfbfbf" points="303,-0.5 303,-41.5 407,-41.5 407,-0.5 303,-0.5"/>
<text text-anchor="start" x="311" y="-29.5" font-family="Helvetica,sans-Serif" font-size="10.00">hydra/detail/external</text>
<text text-anchor="start" x="311" y="-18.5" font-family="Helvetica,sans-Serif" font-size="10.00">/thrust/detail/config</text>
<text text-anchor="middle" x="355" y="-7.5" font-family="Helvetica,sans-Serif" font-size="10.00">/host_device.h</text>
</g>
<!-- Node1&#45;&gt;Node3 -->
<g id="edge3" class="edge"><title>Node1&#45;&gt;Node3</title>
<path fill="none" stroke="midnightblue" d="M248.333,-78.3685C263.772,-70.2099 287.674,-57.5789 308.942,-46.3398"/>
<polygon fill="midnightblue" stroke="midnightblue" points="310.657,-49.3922 317.863,-41.6254 307.386,-43.2033 310.657,-49.3922"/>
</g>
<!-- Node5&#45;&gt;Node1 -->
<g id="edge6" class="edge"><title>Node5&#45;&gt;Node1</title>
<path fill="none" stroke="midnightblue" d="M1318.36,-483.915C1087.27,-485.373 76,-484.467 76,-357 76,-357 76,-357 76,-221 76,-158.4 150.111,-119.385 196.171,-101.183"/>
<polygon fill="midnightblue" stroke="midnightblue" points="197.439,-104.445 205.537,-97.6132 194.946,-97.9038 197.439,-104.445"/>
</g>
<!-- Node5&#45;&gt;Node4 -->
<g id="edge7" class="edge"><title>Node5&#45;&gt;Node4</title>
<path fill="none" stroke="midnightblue" d="M1362.92,-469.455C1358.38,-437.611 1348,-357.446 1348,-290 1348,-290 1348,-290 1348,-221 1348,-178.85 1329.89,-131.98 1318.67,-107"/>
<polygon fill="midnightblue" stroke="midnightblue" points="1321.74,-105.309 1314.36,-97.7119 1315.39,-108.256 1321.74,-105.309"/>
</g>
<!-- Node5&#45;&gt;Node6 -->
<g id="edge8" class="edge"><title>Node5&#45;&gt;Node6</title>
<path fill="none" stroke="midnightblue" d="M1411.81,-473.756C1456.28,-464.379 1525.24,-449.529 1594.51,-433.068"/>
<polygon fill="midnightblue" stroke="midnightblue" points="1595.37,-436.462 1604.28,-430.735 1593.74,-429.653 1595.37,-436.462"/>
</g>
<!-- Node7 -->
<g id="node8" class="node"><title>Node7</title>
<polygon fill="none" stroke="#bfbfbf" points="1416,-279.5 1416,-298.5 1478,-298.5 1478,-279.5 1416,-279.5"/>
<text text-anchor="middle" x="1447" y="-286.5" font-family="Helvetica,sans-Serif" font-size="10.00">type_traits</text>
</g>
<!-- Node5&#45;&gt;Node7 -->
<g id="edge61" class="edge"><title>Node5&#45;&gt;Node7</title>
<path fill="none" stroke="midnightblue" d="M1375.53,-469.48C1382.56,-459.646 1391.66,-445.986 1398,-433 1418.86,-390.308 1434.72,-336.475 1442.22,-308.615"/>
<polygon fill="midnightblue" stroke="midnightblue" points="1445.68,-309.237 1444.84,-298.675 1438.91,-307.456 1445.68,-309.237"/>
</g>
<!-- Node8 -->
<g id="node9" class="node"><title>Node8</title>
<polygon fill="none" stroke="#bfbfbf" points="1376,-212.5 1376,-231.5 1414,-231.5 1414,-212.5 1376,-212.5"/>
<text text-anchor="middle" x="1395" y="-219.5" font-family="Helvetica,sans-Serif" font-size="10.00">array</text>
</g>
<!-- Node5&#45;&gt;Node8 -->
<g id="edge62" class="edge"><title>Node5&#45;&gt;Node8</title>
<path fill="none" stroke="midnightblue" d="M1366.61,-469.494C1371.66,-425.669 1387.15,-291.13 1392.86,-241.576"/>
<polygon fill="midnightblue" stroke="midnightblue" points="1396.34,-241.96 1394.01,-231.626 1389.39,-241.159 1396.34,-241.96"/>
</g>
<!-- Node9 -->
<g id="node10" class="node"><title>Node9</title>
<g id="a_node10"><a xlink:href="a00248.html" target="_top" xlink:title="hydra/detail/TypeTraits.h">
<polygon fill="none" stroke="black" points="934.5,-346.5 934.5,-365.5 1059.5,-365.5 1059.5,-346.5 934.5,-346.5"/>
<text text-anchor="middle" x="997" y="-353.5" font-family="Helvetica,sans-Serif" font-size="10.00">hydra/detail/TypeTraits.h</text>
</a>
</g>
</g>
<!-- Node5&#45;&gt;Node9 -->
<g id="edge11" class="edge"><title>Node5&#45;&gt;Node9</title>
<path fill="none" stroke="midnightblue" d="M1318.33,-477.986C1269.61,-471.22 1191.59,-457.506 1128,-433 1086.26,-416.917 1042.15,-388.65 1017.25,-371.493"/>
<polygon fill="midnightblue" stroke="midnightblue" points="1019.19,-368.577 1008.98,-365.718 1015.18,-374.315 1019.19,-368.577"/>
</g>
<!-- Node17 -->
<g id="node18" class="node"><title>Node17</title>
<polygon fill="none" stroke="#bfbfbf" points="181,-6 181,-36 285,-36 285,-6 181,-6"/>
<text text-anchor="start" x="189" y="-24" font-family="Helvetica,sans-Serif" font-size="10.00">hydra/detail/external</text>
<text text-anchor="middle" x="233" y="-13" font-family="Helvetica,sans-Serif" font-size="10.00">/thrust/tuple.h</text>
</g>
<!-- Node5&#45;&gt;Node17 -->
<g id="edge58" class="edge"><title>Node5&#45;&gt;Node17</title>
<path fill="none" stroke="midnightblue" d="M1318.29,-482.699C1098.76,-478.797 178.002,-460.821 124,-433 5.06062,-371.723 11.0966,-242.777 89,-134 117.908,-93.6352 165.409,-60.7082 197.892,-41.2456"/>
<polygon fill="midnightblue" stroke="midnightblue" points="199.775,-44.1987 206.627,-36.1183 196.231,-38.1618 199.775,-44.1987"/>
</g>
<!-- Node18 -->
<g id="node19" class="node"><title>Node18</title>
<polygon fill="none" stroke="#bfbfbf" points="1379.5,-0.5 1379.5,-41.5 1528.5,-41.5 1528.5,-0.5 1379.5,-0.5"/>
<text text-anchor="start" x="1387.5" y="-29.5" font-family="Helvetica,sans-Serif" font-size="10.00">hydra/detail/external</text>
<text text-anchor="start" x="1387.5" y="-18.5" font-family="Helvetica,sans-Serif" font-size="10.00">/thrust/iterator/detail</text>
<text text-anchor="middle" x="1454" y="-7.5" font-family="Helvetica,sans-Serif" font-size="10.00">/tuple_of_iterator_references.h</text>
</g>
<!-- Node5&#45;&gt;Node18 -->
<g id="edge60" class="edge"><title>Node5&#45;&gt;Node18</title>
<path fill="none" stroke="midnightblue" d="M1411.55,-482.76C1494.56,-480.471 1663.42,-471.125 1706,-433 1732.02,-409.701 1726,-391.928 1726,-357 1726,-357 1726,-357 1726,-154 1726,-69.5609 1618.59,-39.1198 1538.77,-28.1559"/>
<polygon fill="midnightblue" stroke="midnightblue" points="1539.05,-24.6638 1528.68,-26.8533 1538.15,-31.6061 1539.05,-24.6638"/>
</g>
<!-- Node27 -->
<g id="node28" class="node"><title>Node27</title>
<polygon fill="none" stroke="#bfbfbf" points="1154,-274 1154,-304 1282,-304 1282,-274 1154,-274"/>
<text text-anchor="start" x="1162" y="-292" font-family="Helvetica,sans-Serif" font-size="10.00">hydra/detail/external</text>
<text text-anchor="middle" x="1218" y="-281" font-family="Helvetica,sans-Serif" font-size="10.00">/thrust/detail/type_traits.h</text>
</g>
<!-- Node5&#45;&gt;Node27 -->
<g id="edge59" class="edge"><title>Node5&#45;&gt;Node27</title>
<path fill="none" stroke="midnightblue" d="M1318.5,-483.295C1276.48,-480.558 1215.74,-469.841 1179,-433 1151.12,-405.042 1145.73,-382.413 1161,-346 1166.83,-332.103 1177.97,-319.916 1188.88,-310.491"/>
<polygon fill="midnightblue" stroke="midnightblue" points="1191.14,-313.157 1196.69,-304.13 1186.72,-307.728 1191.14,-313.157"/>
</g>
<!-- Node5&#45;&gt;Node31 -->
<g id="edge49" class="edge"><title>Node5&#45;&gt;Node31</title>
<path fill="none" stroke="midnightblue" d="M1398.2,-469.396C1425.16,-457.941 1462.83,-441.938 1488.69,-430.952"/>
<polygon fill="midnightblue" stroke="midnightblue" points="1490.14,-434.139 1497.98,-427.007 1487.4,-427.696 1490.14,-434.139"/>
</g>
<!-- Node32 -->
<g id="node33" class="node"><title>Node32</title>
<g id="a_node33"><a xlink:href="a00341.html" target="_top" xlink:title="hydra/Parameter.h">
<polygon fill="none" stroke="black" points="1188.5,-408 1188.5,-427 1285.5,-427 1285.5,-408 1188.5,-408"/>
<text text-anchor="middle" x="1237" y="-415" font-family="Helvetica,sans-Serif" font-size="10.00">hydra/Parameter.h</text>
</a>
</g>
</g>
<!-- Node5&#45;&gt;Node32 -->
<g id="edge52" class="edge"><title>Node5&#45;&gt;Node32</title>
<path fill="none" stroke="midnightblue" d="M1337.23,-469.396C1315.06,-458.142 1284.26,-442.501 1262.67,-431.538"/>
<polygon fill="midnightblue" stroke="midnightblue" points="1264.25,-428.414 1253.75,-427.007 1261.08,-434.656 1264.25,-428.414"/>
</g>
<!-- Node6&#45;&gt;Node7 -->
<g id="edge9" class="edge"><title>Node6&#45;&gt;Node7</title>
<path fill="none" stroke="midnightblue" d="M1628.39,-402.479C1589.11,-378.122 1508.72,-328.274 1469.51,-303.959"/>
<polygon fill="midnightblue" stroke="midnightblue" points="1471.26,-300.926 1460.92,-298.63 1467.57,-306.875 1471.26,-300.926"/>
</g>
<!-- Node6&#45;&gt;Node8 -->
<g id="edge10" class="edge"><title>Node6&#45;&gt;Node8</title>
<path fill="none" stroke="midnightblue" d="M1638.07,-402.379C1611.71,-374.18 1549.01,-310.005 1487,-268 1466.94,-254.414 1442.17,-242.542 1423.39,-234.409"/>
<polygon fill="midnightblue" stroke="midnightblue" points="1424.75,-231.181 1414.17,-230.507 1422.02,-237.628 1424.75,-231.181"/>
</g>
<!-- Node9&#45;&gt;Node1 -->
<g id="edge12" class="edge"><title>Node9&#45;&gt;Node1</title>
<path fill="none" stroke="midnightblue" d="M934.425,-353.135C806.543,-348.825 519.356,-336.453 425,-310 297.921,-274.373 229.132,-288.425 160,-176 150.222,-160.099 150.951,-150.327 160,-134 168.089,-119.405 183.103,-108.918 197.336,-101.761"/>
<polygon fill="midnightblue" stroke="midnightblue" points="198.886,-104.9 206.496,-97.5282 195.95,-98.5459 198.886,-104.9"/>
</g>
<!-- Node9&#45;&gt;Node7 -->
<g id="edge43" class="edge"><title>Node9&#45;&gt;Node7</title>
<path fill="none" stroke="midnightblue" d="M1056.29,-346.436C1148.91,-333.057 1325.59,-307.537 1405.69,-295.967"/>
<polygon fill="midnightblue" stroke="midnightblue" points="1406.48,-299.389 1415.88,-294.495 1405.48,-292.461 1406.48,-299.389"/>
</g>
<!-- Node10 -->
<g id="node11" class="node"><title>Node10</title>
<g id="a_node11"><a xlink:href="a00017.html" target="_top" xlink:title="Typedefs for useful container classes used in MCBooster. ">
<polygon fill="none" stroke="black" points="1036.5,-279.5 1036.5,-298.5 1135.5,-298.5 1135.5,-279.5 1036.5,-279.5"/>
<text text-anchor="middle" x="1086" y="-286.5" font-family="Helvetica,sans-Serif" font-size="10.00">hydra/Containers.h</text>
</a>
</g>
</g>
<!-- Node9&#45;&gt;Node10 -->
<g id="edge13" class="edge"><title>Node9&#45;&gt;Node10</title>
<path fill="none" stroke="midnightblue" d="M1009,-346.234C1023.55,-335.611 1048.28,-317.549 1065.78,-304.764"/>
<polygon fill="midnightblue" stroke="midnightblue" points="1068.18,-307.352 1074.19,-298.627 1064.05,-301.699 1068.18,-307.352"/>
</g>
<!-- Node22 -->
<g id="node23" class="node"><title>Node22</title>
<polygon fill="none" stroke="#bfbfbf" points="180,-140 180,-170 284,-170 284,-140 180,-140"/>
<text text-anchor="start" x="188" y="-158" font-family="Helvetica,sans-Serif" font-size="10.00">hydra/detail/external</text>
<text text-anchor="middle" x="232" y="-147" font-family="Helvetica,sans-Serif" font-size="10.00">/thrust/complex.h</text>
</g>
<!-- Node9&#45;&gt;Node22 -->
<g id="edge44" class="edge"><title>Node9&#45;&gt;Node22</title>
<path fill="none" stroke="midnightblue" d="M934.384,-354.499C812.224,-351.202 536.206,-332.237 332,-232 302.711,-217.623 273.498,-194.09 254.278,-177.015"/>
<polygon fill="midnightblue" stroke="midnightblue" points="256.444,-174.254 246.682,-170.138 251.746,-179.444 256.444,-174.254"/>
</g>
<!-- Node9&#45;&gt;Node27 -->
<g id="edge45" class="edge"><title>Node9&#45;&gt;Node27</title>
<path fill="none" stroke="midnightblue" d="M1026.35,-346.369C1060.44,-336.341 1117.51,-319.556 1160.53,-306.904"/>
<polygon fill="midnightblue" stroke="midnightblue" points="1161.7,-310.208 1170.3,-304.028 1159.72,-303.492 1161.7,-310.208"/>
</g>
<!-- Node28 -->
<g id="node29" class="node"><title>Node28</title>
<polygon fill="none" stroke="#bfbfbf" points="631,-274 631,-304 759,-304 759,-274 631,-274"/>
<text text-anchor="start" x="639" y="-292" font-family="Helvetica,sans-Serif" font-size="10.00">hydra/detail/external</text>
<text text-anchor="middle" x="695" y="-281" font-family="Helvetica,sans-Serif" font-size="10.00">/thrust/execution_policy.h</text>
</g>
<!-- Node9&#45;&gt;Node28 -->
<g id="edge46" class="edge"><title>Node9&#45;&gt;Node28</title>
<path fill="none" stroke="midnightblue" d="M948.085,-346.462C901.567,-338.089 829.729,-324.501 768,-310 763.563,-308.958 758.987,-307.831 754.393,-306.661"/>
<polygon fill="midnightblue" stroke="midnightblue" points="754.911,-303.179 744.352,-304.048 753.149,-309.954 754.911,-303.179"/>
</g>
<!-- Node29 -->
<g id="node30" class="node"><title>Node29</title>
<polygon fill="none" stroke="#bfbfbf" points="777,-268.5 777,-309.5 887,-309.5 887,-268.5 777,-268.5"/>
<text text-anchor="start" x="785" y="-297.5" font-family="Helvetica,sans-Serif" font-size="10.00">hydra/detail/external</text>
<text text-anchor="start" x="785" y="-286.5" font-family="Helvetica,sans-Serif" font-size="10.00">/thrust/iterator/iterator</text>
<text text-anchor="middle" x="832" y="-275.5" font-family="Helvetica,sans-Serif" font-size="10.00">_categories.h</text>
</g>
<!-- Node9&#45;&gt;Node29 -->
<g id="edge47" class="edge"><title>Node9&#45;&gt;Node29</title>
<path fill="none" stroke="midnightblue" d="M975.089,-346.369C953.824,-337.991 920.59,-324.899 891.501,-313.44"/>
<polygon fill="midnightblue" stroke="midnightblue" points="892.405,-310.034 881.818,-309.625 889.84,-316.547 892.405,-310.034"/>
</g>
<!-- Node30 -->
<g id="node31" class="node"><title>Node30</title>
<polygon fill="none" stroke="#bfbfbf" points="905.5,-268.5 905.5,-309.5 1018.5,-309.5 1018.5,-268.5 905.5,-268.5"/>
<text text-anchor="start" x="913.5" y="-297.5" font-family="Helvetica,sans-Serif" font-size="10.00">hydra/detail/external</text>
<text text-anchor="start" x="913.5" y="-286.5" font-family="Helvetica,sans-Serif" font-size="10.00">/thrust/iterator/detail</text>
<text text-anchor="middle" x="962" y="-275.5" font-family="Helvetica,sans-Serif" font-size="10.00">/is_iterator_category.h</text>
</g>
<!-- Node9&#45;&gt;Node30 -->
<g id="edge48" class="edge"><title>Node9&#45;&gt;Node30</title>
<path fill="none" stroke="midnightblue" d="M992.28,-346.234C988.423,-339.07 982.744,-328.525 977.344,-318.495"/>
<polygon fill="midnightblue" stroke="midnightblue" points="980.345,-316.687 972.523,-309.542 974.182,-320.006 980.345,-316.687"/>
</g>
<!-- Node10&#45;&gt;Node1 -->
<g id="edge16" class="edge"><title>Node10&#45;&gt;Node1</title>
<path fill="none" stroke="midnightblue" d="M1065.35,-279.441C1054.2,-275.218 1040.07,-270.503 1027,-268 723.222,-209.801 635.546,-291.4 332,-232 257.65,-217.451 214.898,-237.746 171,-176 160.184,-160.786 162.586,-150.663 171,-134 177.807,-120.52 190.768,-110.083 202.998,-102.67"/>
<polygon fill="midnightblue" stroke="midnightblue" points="205.07,-105.521 212.094,-97.5896 201.657,-99.4099 205.07,-105.521"/>
</g>
<!-- Node10&#45;&gt;Node4 -->
<g id="edge17" class="edge"><title>Node10&#45;&gt;Node4</title>
<path fill="none" stroke="midnightblue" d="M1098.26,-279.276C1123.49,-261.133 1182.61,-217.56 1228,-176 1253.26,-152.872 1280.02,-123.416 1295.86,-105.397"/>
<polygon fill="midnightblue" stroke="midnightblue" points="1298.77,-107.386 1302.7,-97.5477 1293.49,-102.786 1298.77,-107.386"/>
</g>
<!-- Node10&#45;&gt;Node8 -->
<g id="edge15" class="edge"><title>Node10&#45;&gt;Node8</title>
<path fill="none" stroke="midnightblue" d="M1108.74,-279.41C1119.6,-275.534 1132.85,-271.134 1145,-268 1223.84,-247.663 1318.99,-233.255 1365.92,-226.801"/>
<polygon fill="midnightblue" stroke="midnightblue" points="1366.54,-230.25 1375.98,-225.439 1365.6,-223.313 1366.54,-230.25"/>
</g>
<!-- Node11 -->
<g id="node12" class="node"><title>Node11</title>
<polygon fill="none" stroke="#bfbfbf" points="977,-212.5 977,-231.5 1021,-231.5 1021,-212.5 977,-212.5"/>
<text text-anchor="middle" x="999" y="-219.5" font-family="Helvetica,sans-Serif" font-size="10.00">vector</text>
</g>
<!-- Node10&#45;&gt;Node11 -->
<g id="edge14" class="edge"><title>Node10&#45;&gt;Node11</title>
<path fill="none" stroke="midnightblue" d="M1074.27,-279.234C1060.05,-268.611 1035.87,-250.549 1018.76,-237.764"/>
<polygon fill="midnightblue" stroke="midnightblue" points="1020.65,-234.809 1010.55,-231.627 1016.46,-240.416 1020.65,-234.809"/>
</g>
<!-- Node12 -->
<g id="node13" class="node"><title>Node12</title>
<g id="a_node13"><a xlink:href="a00392.html" target="_top" xlink:title="hydra/Vector3R.h">
<polygon fill="none" stroke="black" points="856.5,-145.5 856.5,-164.5 949.5,-164.5 949.5,-145.5 856.5,-145.5"/>
<text text-anchor="middle" x="903" y="-152.5" font-family="Helvetica,sans-Serif" font-size="10.00">hydra/Vector3R.h</text>
</a>
</g>
</g>
<!-- Node10&#45;&gt;Node12 -->
<g id="edge18" class="edge"><title>Node10&#45;&gt;Node12</title>
<path fill="none" stroke="midnightblue" d="M1060.35,-279.41C1035.22,-270.207 996.633,-253.911 968,-232 945.896,-215.085 925.986,-189.552 914.19,-172.827"/>
<polygon fill="midnightblue" stroke="midnightblue" points="917.055,-170.816 908.51,-164.552 911.284,-174.778 917.055,-170.816"/>
</g>
<!-- Node20 -->
<g id="node21" class="node"><title>Node20</title>
<g id="a_node21"><a xlink:href="a00395.html" target="_top" xlink:title="hydra/Vector4R.h">
<polygon fill="none" stroke="black" points="1039.5,-212.5 1039.5,-231.5 1132.5,-231.5 1132.5,-212.5 1039.5,-212.5"/>
<text text-anchor="middle" x="1086" y="-219.5" font-family="Helvetica,sans-Serif" font-size="10.00">hydra/Vector4R.h</text>
</a>
</g>
</g>
<!-- Node10&#45;&gt;Node20 -->
<g id="edge28" class="edge"><title>Node10&#45;&gt;Node20</title>
<path fill="none" stroke="midnightblue" d="M1086,-279.234C1086,-269.683 1086,-254.118 1086,-241.783"/>
<polygon fill="midnightblue" stroke="midnightblue" points="1089.5,-241.627 1086,-231.627 1082.5,-241.627 1089.5,-241.627"/>
</g>
<!-- Node10&#45;&gt;Node22 -->
<g id="edge36" class="edge"><title>Node10&#45;&gt;Node22</title>
<path fill="none" stroke="midnightblue" d="M1065.35,-279.466C1054.19,-275.249 1040.06,-270.533 1027,-268 748.19,-213.918 663.923,-303.254 389,-232 342.51,-219.951 293.367,-193.663 262.7,-175.402"/>
<polygon fill="midnightblue" stroke="midnightblue" points="264.167,-172.199 253.8,-170.018 260.544,-178.189 264.167,-172.199"/>
</g>
<!-- Node23 -->
<g id="node24" class="node"><title>Node23</title>
<g id="a_node24"><a xlink:href="a00059.html" target="_top" xlink:title="hydra/detail/Containers.inl">
<polygon fill="none" stroke="black" points="398,-212.5 398,-231.5 528,-231.5 528,-212.5 398,-212.5"/>
<text text-anchor="middle" x="463" y="-219.5" font-family="Helvetica,sans-Serif" font-size="10.00">hydra/detail/Containers.inl</text>
</a>
</g>
</g>
<!-- Node10&#45;&gt;Node23 -->
<g id="edge37" class="edge"><title>Node10&#45;&gt;Node23</title>
<path fill="none" stroke="midnightblue" d="M1065.05,-279.486C1053.93,-275.33 1039.92,-270.663 1027,-268 854.58,-232.47 647.155,-224.633 538.241,-223.127"/>
<polygon fill="midnightblue" stroke="midnightblue" points="538.056,-219.625 528.013,-223.001 537.969,-226.624 538.056,-219.625"/>
</g>
<!-- Node12&#45;&gt;Node1 -->
<g id="edge19" class="edge"><title>Node12&#45;&gt;Node1</title>
<path fill="none" stroke="midnightblue" d="M881.321,-145.465C869.818,-141.304 855.339,-136.638 842,-134 645.517,-95.1456 407.436,-89.1173 295.708,-88.6359"/>
<polygon fill="midnightblue" stroke="midnightblue" points="295.629,-85.1358 285.619,-88.6062 295.608,-92.1357 295.629,-85.1358"/>
</g>
<!-- Node12&#45;&gt;Node4 -->
<g id="edge20" class="edge"><title>Node12&#45;&gt;Node4</title>
<path fill="none" stroke="midnightblue" d="M940.395,-145.444C957.585,-141.665 978.274,-137.334 997,-134 1022.33,-129.489 1178.43,-107.45 1260.18,-95.9759"/>
<polygon fill="midnightblue" stroke="midnightblue" points="1260.83,-99.4194 1270.24,-94.5638 1259.86,-92.4873 1260.83,-99.4194"/>
</g>
<!-- Node13 -->
<g id="node14" class="node"><title>Node13</title>
<polygon fill="none" stroke="#bfbfbf" points="752.5,-78.5 752.5,-97.5 797.5,-97.5 797.5,-78.5 752.5,-78.5"/>
<text text-anchor="middle" x="775" y="-85.5" font-family="Helvetica,sans-Serif" font-size="10.00">iosfwd</text>
</g>
<!-- Node12&#45;&gt;Node13 -->
<g id="edge21" class="edge"><title>Node12&#45;&gt;Node13</title>
<path fill="none" stroke="midnightblue" d="M886.003,-145.369C864.294,-134.345 826.506,-115.155 801.127,-102.268"/>
<polygon fill="midnightblue" stroke="midnightblue" points="802.569,-99.0743 792.068,-97.6672 799.399,-105.316 802.569,-99.0743"/>
</g>
<!-- Node14 -->
<g id="node15" class="node"><title>Node14</title>
<polygon fill="none" stroke="#bfbfbf" points="958,-78.5 958,-97.5 1012,-97.5 1012,-78.5 958,-78.5"/>
<text text-anchor="middle" x="985" y="-85.5" font-family="Helvetica,sans-Serif" font-size="10.00">iostream</text>
</g>
<!-- Node12&#45;&gt;Node14 -->
<g id="edge22" class="edge"><title>Node12&#45;&gt;Node14</title>
<path fill="none" stroke="midnightblue" d="M914.059,-145.234C927.338,-134.708 949.829,-116.879 965.929,-104.117"/>
<polygon fill="midnightblue" stroke="midnightblue" points="968.454,-106.582 974.116,-97.6273 964.106,-101.096 968.454,-106.582"/>
</g>
<!-- Node15 -->
<g id="node16" class="node"><title>Node15</title>
<polygon fill="none" stroke="#bfbfbf" points="1060.5,-78.5 1060.5,-97.5 1107.5,-97.5 1107.5,-78.5 1060.5,-78.5"/>
<text text-anchor="middle" x="1084" y="-85.5" font-family="Helvetica,sans-Serif" font-size="10.00">math.h</text>
</g>
<!-- Node12&#45;&gt;Node15 -->
<g id="edge23" class="edge"><title>Node12&#45;&gt;Node15</title>
<path fill="none" stroke="midnightblue" d="M927.035,-145.369C958.855,-133.942 1015.11,-113.741 1050.92,-100.88"/>
<polygon fill="midnightblue" stroke="midnightblue" points="1052.21,-104.135 1060.44,-97.4606 1049.85,-97.5465 1052.21,-104.135"/>
</g>
<!-- Node16 -->
<g id="node17" class="node"><title>Node16</title>
<g id="a_node17"><a xlink:href="a00011.html" target="_top" xlink:title="hydra/Collection.h">
<polygon fill="none" stroke="black" points="1140.5,-78.5 1140.5,-97.5 1235.5,-97.5 1235.5,-78.5 1140.5,-78.5"/>
<text text-anchor="middle" x="1188" y="-85.5" font-family="Helvetica,sans-Serif" font-size="10.00">hydra/Collection.h</text>
</a>
</g>
</g>
<!-- Node12&#45;&gt;Node16 -->
<g id="edge24" class="edge"><title>Node12&#45;&gt;Node16</title>
<path fill="none" stroke="midnightblue" d="M940.552,-145.436C991.92,-133.72 1084.12,-112.693 1140.31,-99.8768"/>
<polygon fill="midnightblue" stroke="midnightblue" points="1141.39,-103.219 1150.36,-97.5834 1139.84,-96.3947 1141.39,-103.219"/>
</g>
<!-- Node19 -->
<g id="node20" class="node"><title>Node19</title>
<g id="a_node20"><a xlink:href="a00269.html" target="_top" xlink:title="hydra/detail/Vector3R.inl">
<polygon fill="none" stroke="black" points="816,-78.5 816,-97.5 940,-97.5 940,-78.5 816,-78.5"/>
<text text-anchor="middle" x="878" y="-85.5" font-family="Helvetica,sans-Serif" font-size="10.00">hydra/detail/Vector3R.inl</text>
</a>
</g>
</g>
<!-- Node12&#45;&gt;Node19 -->
<g id="edge27" class="edge"><title>Node12&#45;&gt;Node19</title>
<path fill="none" stroke="midnightblue" d="M899.628,-145.234C895.88,-135.488 889.723,-119.481 884.935,-107.032"/>
<polygon fill="midnightblue" stroke="midnightblue" points="888.175,-105.704 881.318,-97.6273 881.641,-108.217 888.175,-105.704"/>
</g>
<!-- Node16&#45;&gt;Node17 -->
<g id="edge25" class="edge"><title>Node16&#45;&gt;Node17</title>
<path fill="none" stroke="midnightblue" d="M1140.42,-80.5031C1132.28,-79.5498 1123.91,-78.6663 1116,-78 751.608,-47.2963 653.756,-107.575 294,-42 289.499,-41.1797 284.874,-40.1082 280.279,-38.8873"/>
<polygon fill="midnightblue" stroke="midnightblue" points="280.909,-35.4261 270.33,-36.0151 278.967,-42.1515 280.909,-35.4261"/>
</g>
<!-- Node16&#45;&gt;Node18 -->
<g id="edge26" class="edge"><title>Node16&#45;&gt;Node18</title>
<path fill="none" stroke="midnightblue" d="M1223.05,-78.4355C1260.15,-69.3702 1320.06,-54.7295 1369.57,-42.6319"/>
<polygon fill="midnightblue" stroke="midnightblue" points="1370.44,-46.0226 1379.32,-40.2487 1368.78,-39.2226 1370.44,-46.0226"/>
</g>
<!-- Node20&#45;&gt;Node1 -->
<g id="edge31" class="edge"><title>Node20&#45;&gt;Node1</title>
<path fill="none" stroke="midnightblue" d="M1039.49,-212.957C972.402,-201.251 855.509,-180.428 847,-176 823.303,-163.667 828.326,-145.041 804,-134 714.912,-93.5653 425.77,-88.688 296.03,-88.6076"/>
<polygon fill="midnightblue" stroke="midnightblue" points="295.846,-85.1076 285.847,-88.611 295.848,-92.1076 295.846,-85.1076"/>
</g>
<!-- Node20&#45;&gt;Node4 -->
<g id="edge32" class="edge"><title>Node20&#45;&gt;Node4</title>
<path fill="none" stroke="midnightblue" d="M1106.46,-212.379C1126.01,-203.895 1156.1,-190.184 1181,-176 1221.34,-153.015 1265.67,-121.673 1290.44,-103.559"/>
<polygon fill="midnightblue" stroke="midnightblue" points="1292.66,-106.272 1298.64,-97.5244 1288.51,-100.634 1292.66,-106.272"/>
</g>
<!-- Node20&#45;&gt;Node12 -->
<g id="edge33" class="edge"><title>Node20&#45;&gt;Node12</title>
<path fill="none" stroke="midnightblue" d="M1061.7,-212.369C1029.62,-200.973 972.97,-180.853 936.748,-167.987"/>
<polygon fill="midnightblue" stroke="midnightblue" points="937.705,-164.613 927.11,-164.564 935.362,-171.209 937.705,-164.613"/>
</g>
<!-- Node20&#45;&gt;Node14 -->
<g id="edge30" class="edge"><title>Node20&#45;&gt;Node14</title>
<path fill="none" stroke="midnightblue" d="M1052.49,-212.496C1033.17,-205.813 1010.18,-194.462 997,-176 982.703,-155.968 981.664,-126.609 982.849,-107.65"/>
<polygon fill="midnightblue" stroke="midnightblue" points="986.343,-107.872 983.747,-97.6006 979.37,-107.249 986.343,-107.872"/>
</g>
<!-- Node20&#45;&gt;Node15 -->
<g id="edge29" class="edge"><title>Node20&#45;&gt;Node15</title>
<path fill="none" stroke="midnightblue" d="M1102.33,-212.387C1114.96,-204.72 1131.5,-192.213 1139,-176 1146.84,-159.059 1146.99,-150.869 1139,-134 1132.87,-121.068 1121.01,-110.617 1109.86,-103.053"/>
<polygon fill="midnightblue" stroke="midnightblue" points="1111.53,-99.9678 1101.2,-97.6136 1107.81,-105.896 1111.53,-99.9678"/>
</g>
<!-- Node20&#45;&gt;Node16 -->
<g id="edge34" class="edge"><title>Node20&#45;&gt;Node16</title>
<path fill="none" stroke="midnightblue" d="M1106.04,-212.484C1121.6,-204.946 1142.71,-192.568 1156,-176 1172.25,-155.735 1180.73,-126.437 1184.78,-107.554"/>
<polygon fill="midnightblue" stroke="midnightblue" points="1188.25,-108.034 1186.72,-97.5514 1181.38,-106.704 1188.25,-108.034"/>
</g>
<!-- Node21 -->
<g id="node22" class="node"><title>Node21</title>
<g id="a_node22"><a xlink:href="a00272.html" target="_top" xlink:title="hydra/detail/Vector4R.inl">
<polygon fill="none" stroke="black" points="1006,-145.5 1006,-164.5 1130,-164.5 1130,-145.5 1006,-145.5"/>
<text text-anchor="middle" x="1068" y="-152.5" font-family="Helvetica,sans-Serif" font-size="10.00">hydra/detail/Vector4R.inl</text>
</a>
</g>
</g>
<!-- Node20&#45;&gt;Node21 -->
<g id="edge35" class="edge"><title>Node20&#45;&gt;Node21</title>
<path fill="none" stroke="midnightblue" d="M1083.57,-212.234C1080.9,-202.585 1076.53,-186.8 1073.1,-174.406"/>
<polygon fill="midnightblue" stroke="midnightblue" points="1076.43,-173.331 1070.39,-164.627 1069.68,-175.199 1076.43,-173.331"/>
</g>
<!-- Node23&#45;&gt;Node1 -->
<g id="edge38" class="edge"><title>Node23&#45;&gt;Node1</title>
<path fill="none" stroke="midnightblue" d="M421.011,-212.461C393.781,-205.583 358.407,-194.033 331,-176 309.971,-162.163 311.666,-150.889 293,-134 280.714,-122.883 265.757,-111.816 253.729,-103.439"/>
<polygon fill="midnightblue" stroke="midnightblue" points="255.425,-100.359 245.195,-97.6014 251.473,-106.136 255.425,-100.359"/>
</g>
<!-- Node23&#45;&gt;Node22 -->
<g id="edge41" class="edge"><title>Node23&#45;&gt;Node22</title>
<path fill="none" stroke="midnightblue" d="M430.676,-212.471C397.357,-203.612 343.939,-189.222 298,-176 294.618,-175.027 291.143,-174.013 287.641,-172.982"/>
<polygon fill="midnightblue" stroke="midnightblue" points="288.335,-169.537 277.752,-170.045 286.342,-176.247 288.335,-169.537"/>
</g>
<!-- Node24 -->
<g id="node25" class="node"><title>Node24</title>
<polygon fill="none" stroke="#bfbfbf" points="340,-140 340,-170 456,-170 456,-140 340,-140"/>
<text text-anchor="start" x="348" y="-158" font-family="Helvetica,sans-Serif" font-size="10.00">hydra/detail/external</text>
<text text-anchor="middle" x="398" y="-147" font-family="Helvetica,sans-Serif" font-size="10.00">/thrust/device_vector.h</text>
</g>
<!-- Node23&#45;&gt;Node24 -->
<g id="edge39" class="edge"><title>Node23&#45;&gt;Node24</title>
<path fill="none" stroke="midnightblue" d="M454.234,-212.234C445.365,-203.365 431.311,-189.311 419.472,-177.472"/>
<polygon fill="midnightblue" stroke="midnightblue" points="421.635,-174.685 412.089,-170.089 416.685,-179.635 421.635,-174.685"/>
</g>
<!-- Node25 -->
<g id="node26" class="node"><title>Node25</title>
<polygon fill="none" stroke="#bfbfbf" points="474.5,-140 474.5,-170 581.5,-170 581.5,-140 474.5,-140"/>
<text text-anchor="start" x="482.5" y="-158" font-family="Helvetica,sans-Serif" font-size="10.00">hydra/detail/external</text>
<text text-anchor="middle" x="528" y="-147" font-family="Helvetica,sans-Serif" font-size="10.00">/thrust/host_vector.h</text>
</g>
<!-- Node23&#45;&gt;Node25 -->
<g id="edge40" class="edge"><title>Node23&#45;&gt;Node25</title>
<path fill="none" stroke="midnightblue" d="M471.766,-212.234C480.635,-203.365 494.689,-189.311 506.528,-177.472"/>
<polygon fill="midnightblue" stroke="midnightblue" points="509.315,-179.635 513.911,-170.089 504.365,-174.685 509.315,-179.635"/>
</g>
<!-- Node26 -->
<g id="node27" class="node"><title>Node26</title>
<polygon fill="none" stroke="#bfbfbf" points="600,-134.5 600,-175.5 762,-175.5 762,-134.5 600,-134.5"/>
<text text-anchor="start" x="608" y="-163.5" font-family="Helvetica,sans-Serif" font-size="10.00">hydra/detail/external</text>
<text text-anchor="start" x="608" y="-152.5" font-family="Helvetica,sans-Serif" font-size="10.00">/thrust/system/cuda/experimental</text>
<text text-anchor="middle" x="681" y="-141.5" font-family="Helvetica,sans-Serif" font-size="10.00">/pinned_allocator.h</text>
</g>
<!-- Node23&#45;&gt;Node26 -->
<g id="edge42" class="edge"><title>Node23&#45;&gt;Node26</title>
<path fill="none" stroke="midnightblue" d="M491.949,-212.369C520.777,-203.773 566.256,-190.213 605.383,-178.546"/>
<polygon fill="midnightblue" stroke="midnightblue" points="606.596,-181.837 615.179,-175.625 604.596,-175.129 606.596,-181.837"/>
</g>
<!-- Node31&#45;&gt;Node4 -->
<g id="edge51" class="edge"><title>Node31&#45;&gt;Node4</title>
<path fill="none" stroke="midnightblue" d="M1517.54,-407.914C1516.49,-387.486 1514,-334.385 1514,-290 1514,-290 1514,-290 1514,-221 1514,-147.674 1419.95,-113.067 1359.57,-98.4054"/>
<polygon fill="midnightblue" stroke="midnightblue" points="1360.35,-94.9943 1349.82,-96.1389 1358.77,-101.813 1360.35,-94.9943"/>
</g>
<!-- Node31&#45;&gt;Node7 -->
<g id="edge50" class="edge"><title>Node31&#45;&gt;Node7</title>
<path fill="none" stroke="midnightblue" d="M1513.12,-407.805C1501.57,-387.223 1472.36,-335.189 1456.92,-307.678"/>
<polygon fill="midnightblue" stroke="midnightblue" points="1459.86,-305.763 1451.91,-298.756 1453.76,-309.189 1459.86,-305.763"/>
</g>
<!-- Node32&#45;&gt;Node1 -->
<g id="edge53" class="edge"><title>Node32&#45;&gt;Node1</title>
<path fill="none" stroke="midnightblue" d="M1188.33,-415.819C1055.9,-412.83 694.17,-396.73 622,-310 556.444,-231.218 840.391,-209.426 771,-134 739.399,-99.651 431.773,-91.513 295.928,-89.5912"/>
<polygon fill="midnightblue" stroke="midnightblue" points="295.715,-86.0881 285.669,-89.4533 295.621,-93.0875 295.715,-86.0881"/>
</g>
<!-- Node32&#45;&gt;Node4 -->
<g id="edge54" class="edge"><title>Node32&#45;&gt;Node4</title>
<path fill="none" stroke="midnightblue" d="M1249.69,-407.989C1262.09,-399.001 1280.58,-383.7 1291,-366 1308.66,-335.993 1310,-324.817 1310,-290 1310,-290 1310,-290 1310,-221 1310,-180.658 1310,-133.38 1310,-107.782"/>
<polygon fill="midnightblue" stroke="midnightblue" points="1313.5,-107.649 1310,-97.6487 1306.5,-107.649 1313.5,-107.649"/>
</g>
<!-- Node32&#45;&gt;Node9 -->
<g id="edge55" class="edge"><title>Node32&#45;&gt;Node9</title>
<path fill="none" stroke="midnightblue" d="M1202.61,-407.975C1160.11,-397.437 1087.7,-379.486 1041.13,-367.941"/>
<polygon fill="midnightblue" stroke="midnightblue" points="1041.87,-364.518 1031.32,-365.509 1040.19,-371.313 1041.87,-364.518"/>
</g>
<!-- Node33 -->
<g id="node34" class="node"><title>Node33</title>
<polygon fill="none" stroke="#bfbfbf" points="1170.5,-346.5 1170.5,-365.5 1211.5,-365.5 1211.5,-346.5 1170.5,-346.5"/>
<text text-anchor="middle" x="1191" y="-353.5" font-family="Helvetica,sans-Serif" font-size="10.00">string</text>
</g>
<!-- Node32&#45;&gt;Node33 -->
<g id="edge56" class="edge"><title>Node32&#45;&gt;Node33</title>
<path fill="none" stroke="midnightblue" d="M1230.41,-407.975C1223.51,-399.05 1212.5,-384.807 1203.87,-373.643"/>
<polygon fill="midnightblue" stroke="midnightblue" points="1206.46,-371.28 1197.58,-365.509 1200.93,-375.561 1206.46,-371.28"/>
</g>
<!-- Node34 -->
<g id="node35" class="node"><title>Node34</title>
<polygon fill="none" stroke="#bfbfbf" points="1230,-346.5 1230,-365.5 1282,-365.5 1282,-346.5 1230,-346.5"/>
<text text-anchor="middle" x="1256" y="-353.5" font-family="Helvetica,sans-Serif" font-size="10.00">ostream</text>
</g>
<!-- Node32&#45;&gt;Node34 -->
<g id="edge57" class="edge"><title>Node32&#45;&gt;Node34</title>
<path fill="none" stroke="midnightblue" d="M1239.72,-407.975C1242.43,-399.492 1246.67,-386.204 1250.15,-375.322"/>
<polygon fill="midnightblue" stroke="midnightblue" points="1253.57,-376.1 1253.28,-365.509 1246.91,-373.97 1253.57,-376.1"/>
</g>
</g>
</svg>
        <g id="navigator" transform="translate(0 0)" fill="#404254">
                <rect fill="#f2f5e9" fill-opacity="0.5" stroke="#606060" stroke-width=".5" x="0" y="0" width="60" height="60"/>
                <use id="zoomplus" xlink:href="#zoomPlus" x="17" y="9" onmousedown="handleZoom(evt,'in')"/>
                <use id="zoomminus" xlink:href="#zoomMin" x="42" y="9" onmousedown="handleZoom(evt,'out')"/>
                <use id="reset" xlink:href="#resetDef" x="30" y="36" onmousedown="handleReset()"/>
                <g id="arrowUp" xlink:href="#dirArrow" transform="translate(30 24)" onmousedown="handlePan(0,-1)">
                  <use xlink:href="#rim" fill="#404040">
                        <set attributeName="fill" to="#808080" begin="arrowUp.mouseover" end="arrowUp.mouseout"/>
                  </use>
                  <path fill="none" stroke="white" stroke-width="1.5" d="M0,-3.0v7 M-2.5,-0.5L0,-3.0L2.5,-0.5"/>
                </g>
                <g id="arrowRight" xlink:href="#dirArrow" transform="rotate(90) translate(36 -43)" onmousedown="handlePan(1,0)">
                  <use xlink:href="#rim" fill="#404040">
                        <set attributeName="fill" to="#808080" begin="arrowRight.mouseover" end="arrowRight.mouseout"/>
                  </use>
                  <path fill="none" stroke="white" stroke-width="1.5" d="M0,-3.0v7 M-2.5,-0.5L0,-3.0L2.5,-0.5"/>
                </g>
                <g id="arrowDown" xlink:href="#dirArrow" transform="rotate(180) translate(-30 -48)" onmousedown="handlePan(0,1)">
                  <use xlink:href="#rim" fill="#404040">
                        <set attributeName="fill" to="#808080" begin="arrowDown.mouseover" end="arrowDown.mouseout"/>
                  </use>
                  <path fill="none" stroke="white" stroke-width="1.5" d="M0,-3.0v7 M-2.5,-0.5L0,-3.0L2.5,-0.5"/>
                </g>
                <g id="arrowLeft" xlink:href="#dirArrow" transform="rotate(270) translate(-36 17)" onmousedown="handlePan(-1,0)">
                  <use xlink:href="#rim" fill="#404040">
                        <set attributeName="fill" to="#808080" begin="arrowLeft.mouseover" end="arrowLeft.mouseout"/>
                  </use>
                  <path fill="none" stroke="white" stroke-width="1.5" d="M0,-3.0v7 M-2.5,-0.5L0,-3.0L2.5,-0.5"/>
                </g>
        </g>
        <svg viewBox="0 0 15 15" width="100%" height="30px" preserveAspectRatio="xMaxYMin meet">
         <g id="arrow_out" transform="scale(0.3 0.3)">
          <a xlink:href="a00033_org.svg" target="_base">
           <rect id="button" ry="5" rx="5" y="6" x="6" height="38" width="38"
                fill="#f2f5e9" fill-opacity="0.5" stroke="#606060" stroke-width="1.0"/>
           <path id="arrow"
             d="M 11.500037,31.436501 C 11.940474,20.09759 22.043105,11.32322 32.158766,21.979434 L 37.068811,17.246167 C 37.068811,17.246167 37.088388,32 37.088388,32 L 22.160133,31.978069 C 22.160133,31.978069 26.997745,27.140456 26.997745,27.140456 C 18.528582,18.264221 13.291696,25.230495 11.500037,31.436501 z"
             style="fill:#404040;"/>
          </a>
         </g>
        </svg>
</svg>
