<?xml version="1.0" encoding="UTF-8" standalone="no"?>
<!DOCTYPE svg PUBLIC "-//W3C//DTD SVG 1.1//EN"
 "http://www.w3.org/Graphics/SVG/1.1/DTD/svg11.dtd">
<!-- Generated by graphviz version 2.38.0 (20140413.2041)
 -->
<!-- Title: hydra::Events::operator= Pages: 1 -->
<!--zoomable 356 -->
<svg id="main" version="1.1" xmlns="http://www.w3.org/2000/svg" xmlns:xlink="http://www.w3.org/1999/xlink" xml:space="preserve" onload="init(evt)">
<style type="text/css"><![CDATA[
.edge:hover path { stroke: red; }
.edge:hover polygon { stroke: red; fill: red; }
]]></style>
<script type="text/javascript"><![CDATA[
var edges = document.getElementsByTagName('g');
if (edges && edges.length) {
  for (var i=0;i<edges.length;i++) {
    if (edges[i].id.substr(0,4)=='edge') {
      edges[i].setAttribute('class','edge');
    }
  }
}
]]></script>
        <defs>
                <circle id="rim" cx="0" cy="0" r="7"/>
                <circle id="rim2" cx="0" cy="0" r="3.5"/>
                <g id="zoomPlus">
                        <use xlink:href="#rim" fill="#404040">
                                <set attributeName="fill" to="#808080" begin="zoomplus.mouseover" end="zoomplus.mouseout"/>
                        </use>
                        <path d="M-4,0h8M0,-4v8" fill="none" stroke="white" stroke-width="1.5" pointer-events="none"/>
                </g>
                <g id="zoomMin">
                        <use xlink:href="#rim" fill="#404040">
                                <set attributeName="fill" to="#808080" begin="zoomminus.mouseover" end="zoomminus.mouseout"/>
                        </use>
                        <path d="M-4,0h8" fill="none" stroke="white" stroke-width="1.5" pointer-events="none"/>
                </g>
                <g id="dirArrow">
                        <path fill="none" stroke="white" stroke-width="1.5" d="M0,-3.0v7 M-2.5,-0.5L0,-3.0L2.5,-0.5"/>
                </g>
               <g id="resetDef">
                       <use xlink:href="#rim2" fill="#404040">
                               <set attributeName="fill" to="#808080" begin="reset.mouseover" end="reset.mouseout"/>
                       </use>
               </g>
        </defs>

<script type="text/javascript">
var viewWidth = 727;
var viewHeight = 356;
var sectionId = 'dynsection-9';
</script>
<script xlink:href="svgpan.js"/>
<svg id="graph" class="graph">
<g id="viewport">
<title>hydra::Events::operator=</title>
<!-- Node1 -->
<g id="node1" class="node"><title>Node1</title>
<polygon fill="#bfbfbf" stroke="black" points="0,-158.5 0,-177.5 125,-177.5 125,-158.5 0,-158.5"/>
<text text-anchor="middle" x="62.5" y="-165.5" font-family="Helvetica,sans-Serif" font-size="10.00">hydra::Events::operator=</text>
</g>
<!-- Node2 -->
<g id="node2" class="node"><title>Node2</title>
<g id="a_node2"><a xlink:href="a00023.html#a7424b190a4c812ee893086df70f3792a" target="_top" xlink:title="hydra::Events::Daughters\lBegin">
<polygon fill="none" stroke="black" points="171.5,-317 171.5,-347 299.5,-347 299.5,-317 171.5,-317"/>
<text text-anchor="start" x="179.5" y="-335" font-family="Helvetica,sans-Serif" font-size="10.00">hydra::Events::Daughters</text>
<text text-anchor="middle" x="235.5" y="-324" font-family="Helvetica,sans-Serif" font-size="10.00">Begin</text>
</a>
</g>
</g>
<!-- Node1&#45;&gt;Node2 -->
<g id="edge1" class="edge"><title>Node1&#45;&gt;Node2</title>
<path fill="none" stroke="midnightblue" d="M67.6458,-177.667C78.8907,-202.763 112.422,-270.568 161,-307 163.507,-308.88 166.165,-310.625 168.926,-312.244"/>
<polygon fill="midnightblue" stroke="midnightblue" points="167.548,-315.473 178.033,-316.995 170.786,-309.266 167.548,-315.473"/>
</g>
<!-- Node3 -->
<g id="node3" class="node"><title>Node3</title>
<g id="a_node3"><a xlink:href="a00023.html#ad61a31f6a9ebedfb25198b49de978e3c" target="_top" xlink:title="hydra::Events::DaughtersEnd">
<polygon fill="none" stroke="black" points="162.5,-278.5 162.5,-297.5 308.5,-297.5 308.5,-278.5 162.5,-278.5"/>
<text text-anchor="middle" x="235.5" y="-285.5" font-family="Helvetica,sans-Serif" font-size="10.00">hydra::Events::DaughtersEnd</text>
</a>
</g>
</g>
<!-- Node1&#45;&gt;Node3 -->
<g id="edge2" class="edge"><title>Node1&#45;&gt;Node3</title>
<path fill="none" stroke="midnightblue" d="M70.0405,-177.767C84.1456,-198.04 119.526,-244.811 161,-269 164.714,-271.166 168.676,-273.089 172.761,-274.795"/>
<polygon fill="midnightblue" stroke="midnightblue" points="171.866,-278.196 182.459,-278.395 174.302,-271.634 171.866,-278.196"/>
</g>
<!-- Node4 -->
<g id="node4" class="node"><title>Node4</title>
<g id="a_node4"><a xlink:href="a00023.html#ad93e6690e08e08c53aa890616e2093fc" target="_top" xlink:title="hydra::Events::FlagsBegin">
<polygon fill="none" stroke="black" points="169.5,-240.5 169.5,-259.5 301.5,-259.5 301.5,-240.5 169.5,-240.5"/>
<text text-anchor="middle" x="235.5" y="-247.5" font-family="Helvetica,sans-Serif" font-size="10.00">hydra::Events::FlagsBegin</text>
</a>
</g>
</g>
<!-- Node1&#45;&gt;Node4 -->
<g id="edge3" class="edge"><title>Node1&#45;&gt;Node4</title>
<path fill="none" stroke="midnightblue" d="M75.3934,-177.508C93.0724,-191.203 127.779,-216.43 161,-231 166.49,-233.408 172.349,-235.56 178.274,-237.471"/>
<polygon fill="midnightblue" stroke="midnightblue" points="177.667,-240.943 188.251,-240.462 179.677,-234.238 177.667,-240.943"/>
</g>
<!-- Node5 -->
<g id="node5" class="node"><title>Node5</title>
<g id="a_node5"><a xlink:href="a00023.html#ab634fcf28a5253706f8d32e0f9fde20f" target="_top" xlink:title="hydra::Events::FlagsEnd">
<polygon fill="none" stroke="black" points="173,-202.5 173,-221.5 298,-221.5 298,-202.5 173,-202.5"/>
<text text-anchor="middle" x="235.5" y="-209.5" font-family="Helvetica,sans-Serif" font-size="10.00">hydra::Events::FlagsEnd</text>
</a>
</g>
</g>
<!-- Node1&#45;&gt;Node5 -->
<g id="edge4" class="edge"><title>Node1&#45;&gt;Node5</title>
<path fill="none" stroke="midnightblue" d="M100.604,-177.547C126.15,-184.12 160.289,-192.905 187.701,-199.958"/>
<polygon fill="midnightblue" stroke="midnightblue" points="186.911,-203.369 197.468,-202.471 188.656,-196.59 186.911,-203.369"/>
</g>
<!-- Node6 -->
<g id="node6" class="node"><title>Node6</title>
<g id="a_node6"><a xlink:href="a00001.html#a7b5763c30b7e89dc051fc11270802dd4" target="_top" xlink:title="hydra::detail::get\l_zip_iterator">
<polygon fill="none" stroke="black" points="191,-153 191,-183 280,-183 280,-153 191,-153"/>
<text text-anchor="start" x="199" y="-171" font-family="Helvetica,sans-Serif" font-size="10.00">hydra::detail::get</text>
<text text-anchor="middle" x="235.5" y="-160" font-family="Helvetica,sans-Serif" font-size="10.00">_zip_iterator</text>
</a>
</g>
</g>
<!-- Node1&#45;&gt;Node6 -->
<g id="edge5" class="edge"><title>Node1&#45;&gt;Node6</title>
<path fill="none" stroke="midnightblue" d="M125.235,-168C143.388,-168 163.094,-168 180.708,-168"/>
<polygon fill="midnightblue" stroke="midnightblue" points="180.81,-171.5 190.81,-168 180.81,-164.5 180.81,-171.5"/>
</g>
<!-- Node10 -->
<g id="node10" class="node"><title>Node10</title>
<g id="a_node10"><a xlink:href="a00023.html#a42fa6730eacc8e4be21e12487d19bd61" target="_top" xlink:title="hydra::Events::GetMaxWeight">
<polygon fill="none" stroke="black" points="161,-114.5 161,-133.5 310,-133.5 310,-114.5 161,-114.5"/>
<text text-anchor="middle" x="235.5" y="-121.5" font-family="Helvetica,sans-Serif" font-size="10.00">hydra::Events::GetMaxWeight</text>
</a>
</g>
</g>
<!-- Node1&#45;&gt;Node10 -->
<g id="edge10" class="edge"><title>Node1&#45;&gt;Node10</title>
<path fill="none" stroke="midnightblue" d="M100.604,-158.453C126.15,-151.88 160.289,-143.095 187.701,-136.042"/>
<polygon fill="midnightblue" stroke="midnightblue" points="188.656,-139.41 197.468,-133.529 186.911,-132.631 188.656,-139.41"/>
</g>
<!-- Node11 -->
<g id="node11" class="node"><title>Node11</title>
<g id="a_node11"><a xlink:href="a00023.html#a9a4dce1f4cc7bacdc30fa4bb75894ab3" target="_top" xlink:title="hydra::Events::GetNEvents">
<polygon fill="none" stroke="black" points="167,-76.5 167,-95.5 304,-95.5 304,-76.5 167,-76.5"/>
<text text-anchor="middle" x="235.5" y="-83.5" font-family="Helvetica,sans-Serif" font-size="10.00">hydra::Events::GetNEvents</text>
</a>
</g>
</g>
<!-- Node1&#45;&gt;Node11 -->
<g id="edge11" class="edge"><title>Node1&#45;&gt;Node11</title>
<path fill="none" stroke="midnightblue" d="M75.3934,-158.492C93.0724,-144.797 127.779,-119.57 161,-105 166.49,-102.592 172.349,-100.44 178.274,-98.5292"/>
<polygon fill="midnightblue" stroke="midnightblue" points="179.677,-101.762 188.251,-95.5378 177.667,-95.0571 179.677,-101.762"/>
</g>
<!-- Node12 -->
<g id="node12" class="node"><title>Node12</title>
<g id="a_node12"><a xlink:href="a00023.html#a81acb98e6856035e548612a0b76627fc" target="_top" xlink:title="hydra::Events::WeightsBegin">
<polygon fill="none" stroke="black" points="163.5,-38.5 163.5,-57.5 307.5,-57.5 307.5,-38.5 163.5,-38.5"/>
<text text-anchor="middle" x="235.5" y="-45.5" font-family="Helvetica,sans-Serif" font-size="10.00">hydra::Events::WeightsBegin</text>
</a>
</g>
</g>
<!-- Node1&#45;&gt;Node12 -->
<g id="edge12" class="edge"><title>Node1&#45;&gt;Node12</title>
<path fill="none" stroke="midnightblue" d="M70.0405,-158.233C84.1456,-137.96 119.526,-91.189 161,-67 164.714,-64.8337 168.676,-62.9109 172.761,-61.2048"/>
<polygon fill="midnightblue" stroke="midnightblue" points="174.302,-64.366 182.459,-57.6046 171.866,-57.8036 174.302,-64.366"/>
</g>
<!-- Node13 -->
<g id="node13" class="node"><title>Node13</title>
<g id="a_node13"><a xlink:href="a00023.html#a4af0795dbfe9812be3f4e530237f0e09" target="_top" xlink:title="hydra::Events::WeightsEnd">
<polygon fill="none" stroke="black" points="167,-0.5 167,-19.5 304,-19.5 304,-0.5 167,-0.5"/>
<text text-anchor="middle" x="235.5" y="-7.5" font-family="Helvetica,sans-Serif" font-size="10.00">hydra::Events::WeightsEnd</text>
</a>
</g>
</g>
<!-- Node1&#45;&gt;Node13 -->
<g id="edge13" class="edge"><title>Node1&#45;&gt;Node13</title>
<path fill="none" stroke="midnightblue" d="M67.3367,-158.492C78.0539,-133.187 110.85,-63.756 161,-29 163.905,-26.9871 167.007,-25.1874 170.234,-23.5783"/>
<polygon fill="midnightblue" stroke="midnightblue" points="171.807,-26.7112 179.597,-19.5297 169.029,-20.2861 171.807,-26.7112"/>
</g>
<!-- Node7 -->
<g id="node7" class="node"><title>Node7</title>
<g id="a_node7"><a xlink:href="a00001.html#aec4882c7853643e5933edcba69048fbe" target="_top" xlink:title="hydra::detail::get\l_zip_iterator_helper">
<polygon fill="none" stroke="black" points="346,-153 346,-183 447,-183 447,-153 346,-153"/>
<text text-anchor="start" x="354" y="-171" font-family="Helvetica,sans-Serif" font-size="10.00">hydra::detail::get</text>
<text text-anchor="middle" x="396.5" y="-160" font-family="Helvetica,sans-Serif" font-size="10.00">_zip_iterator_helper</text>
</a>
</g>
</g>
<!-- Node6&#45;&gt;Node7 -->
<g id="edge6" class="edge"><title>Node6&#45;&gt;Node7</title>
<path fill="none" stroke="midnightblue" d="M280.368,-168C297.509,-168 317.435,-168 335.845,-168"/>
<polygon fill="midnightblue" stroke="midnightblue" points="335.889,-171.5 345.889,-168 335.889,-164.5 335.889,-171.5"/>
</g>
<!-- Node8 -->
<g id="node8" class="node"><title>Node8</title>
<g id="a_node8"><a xlink:href="a00001.html#a7a6512a045d76df0767fcabda4adafa0" target="_top" xlink:title="hydra::detail::make\l_tuple">
<polygon fill="none" stroke="black" points="483,-153 483,-183 583,-183 583,-153 483,-153"/>
<text text-anchor="start" x="491" y="-171" font-family="Helvetica,sans-Serif" font-size="10.00">hydra::detail::make</text>
<text text-anchor="middle" x="533" y="-160" font-family="Helvetica,sans-Serif" font-size="10.00">_tuple</text>
</a>
</g>
</g>
<!-- Node7&#45;&gt;Node8 -->
<g id="edge7" class="edge"><title>Node7&#45;&gt;Node8</title>
<path fill="none" stroke="midnightblue" d="M447.201,-168C455.5,-168 464.183,-168 472.693,-168"/>
<polygon fill="midnightblue" stroke="midnightblue" points="472.952,-171.5 482.952,-168 472.952,-164.5 472.952,-171.5"/>
</g>
<!-- Node9 -->
<g id="node9" class="node"><title>Node9</title>
<g id="a_node9"><a xlink:href="a00001.html#a96f52c88e113c55f7f6a7b7505afc4a5" target="_top" xlink:title="hydra::detail::make\l_tuple_helper">
<polygon fill="none" stroke="black" points="619,-153 619,-183 719,-183 719,-153 619,-153"/>
<text text-anchor="start" x="627" y="-171" font-family="Helvetica,sans-Serif" font-size="10.00">hydra::detail::make</text>
<text text-anchor="middle" x="669" y="-160" font-family="Helvetica,sans-Serif" font-size="10.00">_tuple_helper</text>
</a>
</g>
</g>
<!-- Node8&#45;&gt;Node9 -->
<g id="edge8" class="edge"><title>Node8&#45;&gt;Node9</title>
<path fill="none" stroke="midnightblue" d="M583.136,-161.468C591.42,-161.261 600.097,-161.202 608.608,-161.289"/>
<polygon fill="midnightblue" stroke="midnightblue" points="608.811,-164.793 618.87,-161.468 608.933,-157.794 608.811,-164.793"/>
</g>
<!-- Node9&#45;&gt;Node8 -->
<g id="edge9" class="edge"><title>Node9&#45;&gt;Node8</title>
<path fill="none" stroke="midnightblue" d="M618.87,-174.532C610.586,-174.739 601.909,-174.798 593.398,-174.711"/>
<polygon fill="midnightblue" stroke="midnightblue" points="593.195,-171.207 583.136,-174.532 593.073,-178.206 593.195,-171.207"/>
</g>
</g>
</svg>
        <g id="navigator" transform="translate(0 0)" fill="#404254">
                <rect fill="#f2f5e9" fill-opacity="0.5" stroke="#606060" stroke-width=".5" x="0" y="0" width="60" height="60"/>
                <use id="zoomplus" xlink:href="#zoomPlus" x="17" y="9" onmousedown="handleZoom(evt,'in')"/>
                <use id="zoomminus" xlink:href="#zoomMin" x="42" y="9" onmousedown="handleZoom(evt,'out')"/>
                <use id="reset" xlink:href="#resetDef" x="30" y="36" onmousedown="handleReset()"/>
                <g id="arrowUp" xlink:href="#dirArrow" transform="translate(30 24)" onmousedown="handlePan(0,-1)">
                  <use xlink:href="#rim" fill="#404040">
                        <set attributeName="fill" to="#808080" begin="arrowUp.mouseover" end="arrowUp.mouseout"/>
                  </use>
                  <path fill="none" stroke="white" stroke-width="1.5" d="M0,-3.0v7 M-2.5,-0.5L0,-3.0L2.5,-0.5"/>
                </g>
                <g id="arrowRight" xlink:href="#dirArrow" transform="rotate(90) translate(36 -43)" onmousedown="handlePan(1,0)">
                  <use xlink:href="#rim" fill="#404040">
                        <set attributeName="fill" to="#808080" begin="arrowRight.mouseover" end="arrowRight.mouseout"/>
                  </use>
                  <path fill="none" stroke="white" stroke-width="1.5" d="M0,-3.0v7 M-2.5,-0.5L0,-3.0L2.5,-0.5"/>
                </g>
                <g id="arrowDown" xlink:href="#dirArrow" transform="rotate(180) translate(-30 -48)" onmousedown="handlePan(0,1)">
                  <use xlink:href="#rim" fill="#404040">
                        <set attributeName="fill" to="#808080" begin="arrowDown.mouseover" end="arrowDown.mouseout"/>
                  </use>
                  <path fill="none" stroke="white" stroke-width="1.5" d="M0,-3.0v7 M-2.5,-0.5L0,-3.0L2.5,-0.5"/>
                </g>
                <g id="arrowLeft" xlink:href="#dirArrow" transform="rotate(270) translate(-36 17)" onmousedown="handlePan(-1,0)">
                  <use xlink:href="#rim" fill="#404040">
                        <set attributeName="fill" to="#808080" begin="arrowLeft.mouseover" end="arrowLeft.mouseout"/>
                  </use>
                  <path fill="none" stroke="white" stroke-width="1.5" d="M0,-3.0v7 M-2.5,-0.5L0,-3.0L2.5,-0.5"/>
                </g>
        </g>
        <svg viewBox="0 0 15 15" width="100%" height="30px" preserveAspectRatio="xMaxYMin meet">
         <g id="arrow_out" transform="scale(0.3 0.3)">
          <a xlink:href="a00023_ace3fe647bf093ad875cc1568ac8bdb53_cgraph_org.svg" target="_base">
           <rect id="button" ry="5" rx="5" y="6" x="6" height="38" width="38"
                fill="#f2f5e9" fill-opacity="0.5" stroke="#606060" stroke-width="1.0"/>
           <path id="arrow"
             d="M 11.500037,31.436501 C 11.940474,20.09759 22.043105,11.32322 32.158766,21.979434 L 37.068811,17.246167 C 37.068811,17.246167 37.088388,32 37.088388,32 L 22.160133,31.978069 C 22.160133,31.978069 26.997745,27.140456 26.997745,27.140456 C 18.528582,18.264221 13.291696,25.230495 11.500037,31.436501 z"
             style="fill:#404040;"/>
          </a>
         </g>
        </svg>
</svg>
