<?xml version="1.0" encoding="UTF-8" standalone="no"?>
<!DOCTYPE svg PUBLIC "-//W3C//DTD SVG 1.1//EN"
 "http://www.w3.org/Graphics/SVG/1.1/DTD/svg11.dtd">
<!-- Generated by graphviz version 2.38.0 (20140413.2041)
 -->
<!-- Title: LogLikelihood1.h Pages: 1 -->
<svg width="1411pt" height="274pt"
 viewBox="0.00 0.00 1410.50 274.00" xmlns="http://www.w3.org/2000/svg" xmlns:xlink="http://www.w3.org/1999/xlink">
<g id="graph0" class="graph" transform="scale(1 1) rotate(0) translate(4 270)">
<title>LogLikelihood1.h</title>
<!-- Node36 -->
<g id="node1" class="node"><title>Node36</title>
<polygon fill="#bfbfbf" stroke="black" points="655.5,-246.5 655.5,-265.5 744.5,-265.5 744.5,-246.5 655.5,-246.5"/>
<text text-anchor="middle" x="700" y="-253.5" font-family="Helvetica,sans-Serif" font-size="10.00">LogLikelihood1.h</text>
</g>
<!-- Node37 -->
<g id="node2" class="node"><title>Node37</title>
<g id="a_node2"><a xlink:href="a00185.html" target="_top" xlink:title="LogLikelihoodFCN1.inl">
<polygon fill="none" stroke="black" points="509.5,-190.5 509.5,-209.5 624.5,-209.5 624.5,-190.5 509.5,-190.5"/>
<text text-anchor="middle" x="567" y="-197.5" font-family="Helvetica,sans-Serif" font-size="10.00">LogLikelihoodFCN1.inl</text>
</a>
</g>
</g>
<!-- Node36&#45;&gt;Node37 -->
<g id="edge1" class="edge"><title>Node36&#45;&gt;Node37</title>
<path fill="none" stroke="midnightblue" d="M669.552,-242.638C644.593,-232.504 609.923,-218.427 587.976,-209.516"/>
<polygon fill="midnightblue" stroke="midnightblue" points="668.344,-245.924 678.926,-246.444 670.977,-239.439 668.344,-245.924"/>
</g>
<!-- Node57 -->
<g id="node22" class="node"><title>Node57</title>
<g id="a_node22"><a xlink:href="a00188.html" target="_top" xlink:title="LogLikelihoodFCN2.inl">
<polygon fill="none" stroke="black" points="642.5,-190.5 642.5,-209.5 757.5,-209.5 757.5,-190.5 642.5,-190.5"/>
<text text-anchor="middle" x="700" y="-197.5" font-family="Helvetica,sans-Serif" font-size="10.00">LogLikelihoodFCN2.inl</text>
</a>
</g>
</g>
<!-- Node36&#45;&gt;Node57 -->
<g id="edge21" class="edge"><title>Node36&#45;&gt;Node57</title>
<path fill="none" stroke="midnightblue" d="M700,-235.805C700,-226.91 700,-216.78 700,-209.751"/>
<polygon fill="midnightblue" stroke="midnightblue" points="696.5,-236.083 700,-246.083 703.5,-236.083 696.5,-236.083"/>
</g>
<!-- Node58 -->
<g id="node23" class="node"><title>Node58</title>
<g id="a_node23"><a xlink:href="a00191.html" target="_top" xlink:title="LogLikelihoodFCN3.inl">
<polygon fill="none" stroke="black" points="775.5,-190.5 775.5,-209.5 890.5,-209.5 890.5,-190.5 775.5,-190.5"/>
<text text-anchor="middle" x="833" y="-197.5" font-family="Helvetica,sans-Serif" font-size="10.00">LogLikelihoodFCN3.inl</text>
</a>
</g>
</g>
<!-- Node36&#45;&gt;Node58 -->
<g id="edge23" class="edge"><title>Node36&#45;&gt;Node58</title>
<path fill="none" stroke="midnightblue" d="M730.448,-242.638C755.407,-232.504 790.077,-218.427 812.024,-209.516"/>
<polygon fill="midnightblue" stroke="midnightblue" points="729.023,-239.439 721.074,-246.444 731.656,-245.924 729.023,-239.439"/>
</g>
<!-- Node38 -->
<g id="node3" class="node"><title>Node38</title>
<g id="a_node3"><a xlink:href="a00332.html" target="_top" xlink:title="LogLikelihoodFCN.h">
<polygon fill="none" stroke="black" points="647.5,-134.5 647.5,-153.5 752.5,-153.5 752.5,-134.5 647.5,-134.5"/>
<text text-anchor="middle" x="700" y="-141.5" font-family="Helvetica,sans-Serif" font-size="10.00">LogLikelihoodFCN.h</text>
</a>
</g>
</g>
<!-- Node37&#45;&gt;Node38 -->
<g id="edge2" class="edge"><title>Node37&#45;&gt;Node38</title>
<path fill="none" stroke="midnightblue" d="M597.448,-186.638C622.407,-176.504 657.077,-162.427 679.024,-153.516"/>
<polygon fill="midnightblue" stroke="midnightblue" points="596.023,-183.439 588.074,-190.444 598.656,-189.924 596.023,-183.439"/>
</g>
<!-- Node39 -->
<g id="node4" class="node"><title>Node39</title>
<g id="a_node4"><a xlink:href="a00425.html" target="_top" xlink:title="basic_fit.inl">
<polygon fill="none" stroke="black" points="91,-73 91,-92 157,-92 157,-73 91,-73"/>
<text text-anchor="middle" x="124" y="-80" font-family="Helvetica,sans-Serif" font-size="10.00">basic_fit.inl</text>
</a>
</g>
</g>
<!-- Node38&#45;&gt;Node39 -->
<g id="edge3" class="edge"><title>Node38&#45;&gt;Node39</title>
<path fill="none" stroke="midnightblue" d="M637.068,-136.499C515.145,-123.905 250.548,-96.5722 157.323,-86.9422"/>
<polygon fill="midnightblue" stroke="midnightblue" points="637.05,-140.016 647.357,-137.562 637.769,-133.053 637.05,-140.016"/>
</g>
<!-- Node42 -->
<g id="node7" class="node"><title>Node42</title>
<g id="a_node7"><a xlink:href="a00434.html" target="_top" xlink:title="extended_logLL_fit.inl">
<polygon fill="none" stroke="black" points="311.5,-73 311.5,-92 422.5,-92 422.5,-73 311.5,-73"/>
<text text-anchor="middle" x="367" y="-80" font-family="Helvetica,sans-Serif" font-size="10.00">extended_logLL_fit.inl</text>
</a>
</g>
</g>
<!-- Node38&#45;&gt;Node42 -->
<g id="edge6" class="edge"><title>Node38&#45;&gt;Node42</title>
<path fill="none" stroke="midnightblue" d="M642.288,-132.688C577.825,-121.17 474.669,-102.738 414.622,-92.0091"/>
<polygon fill="midnightblue" stroke="midnightblue" points="641.829,-136.162 652.289,-134.475 643.061,-129.271 641.829,-136.162"/>
</g>
<!-- Node45 -->
<g id="node10" class="node"><title>Node45</title>
<g id="a_node10"><a xlink:href="a00443.html" target="_top" xlink:title="fractional_logLL_fit.inl">
<polygon fill="none" stroke="black" points="577.5,-73 577.5,-92 688.5,-92 688.5,-73 577.5,-73"/>
<text text-anchor="middle" x="633" y="-80" font-family="Helvetica,sans-Serif" font-size="10.00">fractional_logLL_fit.inl</text>
</a>
</g>
</g>
<!-- Node38&#45;&gt;Node45 -->
<g id="edge9" class="edge"><title>Node38&#45;&gt;Node45</title>
<path fill="none" stroke="midnightblue" d="M682.715,-127.65C669.941,-116.306 653.022,-101.281 642.582,-92.0091"/>
<polygon fill="midnightblue" stroke="midnightblue" points="680.599,-130.452 690.401,-134.475 685.247,-125.218 680.599,-130.452"/>
</g>
<!-- Node48 -->
<g id="node13" class="node"><title>Node48</title>
<g id="a_node13"><a xlink:href="a00452.html" target="_top" xlink:title="multidimensional_fit.inl">
<polygon fill="none" stroke="black" points="710,-73 710,-92 826,-92 826,-73 710,-73"/>
<text text-anchor="middle" x="768" y="-80" font-family="Helvetica,sans-Serif" font-size="10.00">multidimensional_fit.inl</text>
</a>
</g>
</g>
<!-- Node38&#45;&gt;Node48 -->
<g id="edge12" class="edge"><title>Node38&#45;&gt;Node48</title>
<path fill="none" stroke="midnightblue" d="M717.543,-127.65C730.508,-116.306 747.679,-101.281 758.275,-92.0091"/>
<polygon fill="midnightblue" stroke="midnightblue" points="714.964,-125.256 709.743,-134.475 719.573,-130.524 714.964,-125.256"/>
</g>
<!-- Node51 -->
<g id="node16" class="node"><title>Node51</title>
<g id="a_node16"><a xlink:href="a00461.html" target="_top" xlink:title="phsp_unweighting_functor\l_and_fit.inl">
<polygon fill="none" stroke="black" points="981,-67.5 981,-97.5 1111,-97.5 1111,-67.5 981,-67.5"/>
<text text-anchor="start" x="989" y="-85.5" font-family="Helvetica,sans-Serif" font-size="10.00">phsp_unweighting_functor</text>
<text text-anchor="middle" x="1046" y="-74.5" font-family="Helvetica,sans-Serif" font-size="10.00">_and_fit.inl</text>
</a>
</g>
</g>
<!-- Node38&#45;&gt;Node51 -->
<g id="edge15" class="edge"><title>Node38&#45;&gt;Node51</title>
<path fill="none" stroke="midnightblue" d="M759.539,-132.761C821.19,-122.16 917.233,-105.644 980.871,-94.7"/>
<polygon fill="midnightblue" stroke="midnightblue" points="758.836,-129.331 749.573,-134.475 760.022,-136.23 758.836,-129.331"/>
</g>
<!-- Node54 -->
<g id="node19" class="node"><title>Node54</title>
<g id="a_node19"><a xlink:href="a00470.html" target="_top" xlink:title="splot.inl">
<polygon fill="none" stroke="black" points="1280,-73 1280,-92 1330,-92 1330,-73 1280,-73"/>
<text text-anchor="middle" x="1305" y="-80" font-family="Helvetica,sans-Serif" font-size="10.00">splot.inl</text>
</a>
</g>
</g>
<!-- Node38&#45;&gt;Node54 -->
<g id="edge18" class="edge"><title>Node38&#45;&gt;Node54</title>
<path fill="none" stroke="midnightblue" d="M762.905,-136.814C893.95,-123.926 1191.36,-94.6762 1279.76,-85.9819"/>
<polygon fill="midnightblue" stroke="midnightblue" points="762.241,-133.362 752.631,-137.824 762.926,-140.328 762.241,-133.362"/>
</g>
<!-- Node40 -->
<g id="node5" class="node"><title>Node40</title>
<g id="a_node5"><a xlink:href="a00419.html" target="_top" xlink:title="basic_fit.cpp">
<polygon fill="none" stroke="black" points="0,-6 0,-25 72,-25 72,-6 0,-6"/>
<text text-anchor="middle" x="36" y="-13" font-family="Helvetica,sans-Serif" font-size="10.00">basic_fit.cpp</text>
</a>
</g>
</g>
<!-- Node39&#45;&gt;Node40 -->
<g id="edge4" class="edge"><title>Node39&#45;&gt;Node40</title>
<path fill="none" stroke="midnightblue" d="M103.784,-66.5678C86.414,-53.7376 61.9739,-35.6853 47.68,-25.1273"/>
<polygon fill="midnightblue" stroke="midnightblue" points="102.009,-69.6077 112.132,-72.7338 106.168,-63.9771 102.009,-69.6077"/>
</g>
<!-- Node41 -->
<g id="node6" class="node"><title>Node41</title>
<g id="a_node6"><a xlink:href="a00422.html" target="_top" xlink:title="basic_fit.cu">
<polygon fill="none" stroke="black" points="90.5,-6 90.5,-25 157.5,-25 157.5,-6 90.5,-6"/>
<text text-anchor="middle" x="124" y="-13" font-family="Helvetica,sans-Serif" font-size="10.00">basic_fit.cu</text>
</a>
</g>
</g>
<!-- Node39&#45;&gt;Node41 -->
<g id="edge5" class="edge"><title>Node39&#45;&gt;Node41</title>
<path fill="none" stroke="midnightblue" d="M124,-62.537C124,-50.1703 124,-34.6198 124,-25.1273"/>
<polygon fill="midnightblue" stroke="midnightblue" points="120.5,-62.7338 124,-72.7338 127.5,-62.7338 120.5,-62.7338"/>
</g>
<!-- Node43 -->
<g id="node8" class="node"><title>Node43</title>
<g id="a_node8"><a xlink:href="a00428.html" target="_top" xlink:title="extended_logLL_fit.cpp">
<polygon fill="none" stroke="black" points="175.5,-6 175.5,-25 292.5,-25 292.5,-6 175.5,-6"/>
<text text-anchor="middle" x="234" y="-13" font-family="Helvetica,sans-Serif" font-size="10.00">extended_logLL_fit.cpp</text>
</a>
</g>
</g>
<!-- Node42&#45;&gt;Node43 -->
<g id="edge7" class="edge"><title>Node42&#45;&gt;Node43</title>
<path fill="none" stroke="midnightblue" d="M340.285,-68.4436C313.941,-55.5691 274.426,-36.2573 251.734,-25.1672"/>
<polygon fill="midnightblue" stroke="midnightblue" points="338.817,-71.6221 349.339,-72.8685 341.891,-65.333 338.817,-71.6221"/>
</g>
<!-- Node44 -->
<g id="node9" class="node"><title>Node44</title>
<g id="a_node9"><a xlink:href="a00431.html" target="_top" xlink:title="extended_logLL_fit.cu">
<polygon fill="none" stroke="black" points="311,-6 311,-25 423,-25 423,-6 311,-6"/>
<text text-anchor="middle" x="367" y="-13" font-family="Helvetica,sans-Serif" font-size="10.00">extended_logLL_fit.cu</text>
</a>
</g>
</g>
<!-- Node42&#45;&gt;Node44 -->
<g id="edge8" class="edge"><title>Node42&#45;&gt;Node44</title>
<path fill="none" stroke="midnightblue" d="M367,-62.537C367,-50.1703 367,-34.6198 367,-25.1273"/>
<polygon fill="midnightblue" stroke="midnightblue" points="363.5,-62.7338 367,-72.7338 370.5,-62.7338 363.5,-62.7338"/>
</g>
<!-- Node46 -->
<g id="node11" class="node"><title>Node46</title>
<g id="a_node11"><a xlink:href="a00437.html" target="_top" xlink:title="fractional_logLL_fit.cpp">
<polygon fill="none" stroke="black" points="441.5,-6 441.5,-25 558.5,-25 558.5,-6 441.5,-6"/>
<text text-anchor="middle" x="500" y="-13" font-family="Helvetica,sans-Serif" font-size="10.00">fractional_logLL_fit.cpp</text>
</a>
</g>
</g>
<!-- Node45&#45;&gt;Node46 -->
<g id="edge10" class="edge"><title>Node45&#45;&gt;Node46</title>
<path fill="none" stroke="midnightblue" d="M606.285,-68.4436C579.941,-55.5691 540.426,-36.2573 517.734,-25.1672"/>
<polygon fill="midnightblue" stroke="midnightblue" points="604.817,-71.6221 615.339,-72.8685 607.891,-65.333 604.817,-71.6221"/>
</g>
<!-- Node47 -->
<g id="node12" class="node"><title>Node47</title>
<g id="a_node12"><a xlink:href="a00440.html" target="_top" xlink:title="fractional_logLL_fit.cu">
<polygon fill="none" stroke="black" points="577,-6 577,-25 689,-25 689,-6 577,-6"/>
<text text-anchor="middle" x="633" y="-13" font-family="Helvetica,sans-Serif" font-size="10.00">fractional_logLL_fit.cu</text>
</a>
</g>
</g>
<!-- Node45&#45;&gt;Node47 -->
<g id="edge11" class="edge"><title>Node45&#45;&gt;Node47</title>
<path fill="none" stroke="midnightblue" d="M633,-62.537C633,-50.1703 633,-34.6198 633,-25.1273"/>
<polygon fill="midnightblue" stroke="midnightblue" points="629.5,-62.7338 633,-72.7338 636.5,-62.7338 629.5,-62.7338"/>
</g>
<!-- Node49 -->
<g id="node14" class="node"><title>Node49</title>
<g id="a_node14"><a xlink:href="a00446.html" target="_top" xlink:title="multidimensional_fit.cpp">
<polygon fill="none" stroke="black" points="707,-6 707,-25 829,-25 829,-6 707,-6"/>
<text text-anchor="middle" x="768" y="-13" font-family="Helvetica,sans-Serif" font-size="10.00">multidimensional_fit.cpp</text>
</a>
</g>
</g>
<!-- Node48&#45;&gt;Node49 -->
<g id="edge13" class="edge"><title>Node48&#45;&gt;Node49</title>
<path fill="none" stroke="midnightblue" d="M768,-62.537C768,-50.1703 768,-34.6198 768,-25.1273"/>
<polygon fill="midnightblue" stroke="midnightblue" points="764.5,-62.7338 768,-72.7338 771.5,-62.7338 764.5,-62.7338"/>
</g>
<!-- Node50 -->
<g id="node15" class="node"><title>Node50</title>
<g id="a_node15"><a xlink:href="a00449.html" target="_top" xlink:title="multidimensional_fit.cu">
<polygon fill="none" stroke="black" points="847,-6 847,-25 963,-25 963,-6 847,-6"/>
<text text-anchor="middle" x="905" y="-13" font-family="Helvetica,sans-Serif" font-size="10.00">multidimensional_fit.cu</text>
</a>
</g>
</g>
<!-- Node48&#45;&gt;Node50 -->
<g id="edge14" class="edge"><title>Node48&#45;&gt;Node50</title>
<path fill="none" stroke="midnightblue" d="M795.519,-68.4436C822.654,-55.5691 863.358,-36.2573 886.732,-25.1672"/>
<polygon fill="midnightblue" stroke="midnightblue" points="793.727,-65.4198 786.193,-72.8685 796.728,-71.7441 793.727,-65.4198"/>
</g>
<!-- Node52 -->
<g id="node17" class="node"><title>Node52</title>
<g id="a_node17"><a xlink:href="a00455.html" target="_top" xlink:title="phsp_unweighting_functor\l_and_fit.cpp">
<polygon fill="none" stroke="black" points="981,-0.5 981,-30.5 1111,-30.5 1111,-0.5 981,-0.5"/>
<text text-anchor="start" x="989" y="-18.5" font-family="Helvetica,sans-Serif" font-size="10.00">phsp_unweighting_functor</text>
<text text-anchor="middle" x="1046" y="-7.5" font-family="Helvetica,sans-Serif" font-size="10.00">_and_fit.cpp</text>
</a>
</g>
</g>
<!-- Node51&#45;&gt;Node52 -->
<g id="edge16" class="edge"><title>Node51&#45;&gt;Node52</title>
<path fill="none" stroke="midnightblue" d="M1046,-57.1081C1046,-48.1539 1046,-38.3227 1046,-30.5765"/>
<polygon fill="midnightblue" stroke="midnightblue" points="1042.5,-57.3959 1046,-67.396 1049.5,-57.396 1042.5,-57.3959"/>
</g>
<!-- Node53 -->
<g id="node18" class="node"><title>Node53</title>
<g id="a_node18"><a xlink:href="a00458.html" target="_top" xlink:title="phsp_unweighting_functor\l_and_fit.cu">
<polygon fill="none" stroke="black" points="1129,-0.5 1129,-30.5 1259,-30.5 1259,-0.5 1129,-0.5"/>
<text text-anchor="start" x="1137" y="-18.5" font-family="Helvetica,sans-Serif" font-size="10.00">phsp_unweighting_functor</text>
<text text-anchor="middle" x="1194" y="-7.5" font-family="Helvetica,sans-Serif" font-size="10.00">_and_fit.cu</text>
</a>
</g>
</g>
<!-- Node51&#45;&gt;Node53 -->
<g id="edge17" class="edge"><title>Node51&#45;&gt;Node53</title>
<path fill="none" stroke="midnightblue" d="M1087.51,-63.2687C1111.08,-52.9159 1140.14,-40.1528 1161.95,-30.5765"/>
<polygon fill="midnightblue" stroke="midnightblue" points="1085.86,-60.1702 1078.11,-67.396 1088.68,-66.5793 1085.86,-60.1702"/>
</g>
<!-- Node55 -->
<g id="node20" class="node"><title>Node55</title>
<g id="a_node20"><a xlink:href="a00464.html" target="_top" xlink:title="splot.cpp">
<polygon fill="none" stroke="black" points="1277,-6 1277,-25 1333,-25 1333,-6 1277,-6"/>
<text text-anchor="middle" x="1305" y="-13" font-family="Helvetica,sans-Serif" font-size="10.00">splot.cpp</text>
</a>
</g>
</g>
<!-- Node54&#45;&gt;Node55 -->
<g id="edge19" class="edge"><title>Node54&#45;&gt;Node55</title>
<path fill="none" stroke="midnightblue" d="M1305,-62.537C1305,-50.1703 1305,-34.6198 1305,-25.1273"/>
<polygon fill="midnightblue" stroke="midnightblue" points="1301.5,-62.7338 1305,-72.7338 1308.5,-62.7338 1301.5,-62.7338"/>
</g>
<!-- Node56 -->
<g id="node21" class="node"><title>Node56</title>
<g id="a_node21"><a xlink:href="a00467.html" target="_top" xlink:title="splot.cu">
<polygon fill="none" stroke="black" points="1351.5,-6 1351.5,-25 1402.5,-25 1402.5,-6 1351.5,-6"/>
<text text-anchor="middle" x="1377" y="-13" font-family="Helvetica,sans-Serif" font-size="10.00">splot.cu</text>
</a>
</g>
</g>
<!-- Node54&#45;&gt;Node56 -->
<g id="edge20" class="edge"><title>Node54&#45;&gt;Node56</title>
<path fill="none" stroke="midnightblue" d="M1322.33,-65.8564C1336.48,-53.0777 1355.96,-35.4915 1367.44,-25.1273"/>
<polygon fill="midnightblue" stroke="midnightblue" points="1319.79,-63.4348 1314.71,-72.7338 1324.48,-68.6307 1319.79,-63.4348"/>
</g>
<!-- Node57&#45;&gt;Node38 -->
<g id="edge22" class="edge"><title>Node57&#45;&gt;Node38</title>
<path fill="none" stroke="midnightblue" d="M700,-179.805C700,-170.91 700,-160.78 700,-153.751"/>
<polygon fill="midnightblue" stroke="midnightblue" points="696.5,-180.083 700,-190.083 703.5,-180.083 696.5,-180.083"/>
</g>
<!-- Node58&#45;&gt;Node38 -->
<g id="edge24" class="edge"><title>Node58&#45;&gt;Node38</title>
<path fill="none" stroke="midnightblue" d="M802.552,-186.638C777.593,-176.504 742.923,-162.427 720.976,-153.516"/>
<polygon fill="midnightblue" stroke="midnightblue" points="801.344,-189.924 811.926,-190.444 803.977,-183.439 801.344,-189.924"/>
</g>
</g>
</svg>
