<?xml version="1.0" encoding="UTF-8" standalone="no"?>
<!DOCTYPE svg PUBLIC "-//W3C//DTD SVG 1.1//EN"
 "http://www.w3.org/Graphics/SVG/1.1/DTD/svg11.dtd">
<!-- Generated by graphviz version 2.38.0 (20140413.2041)
 -->
<!-- Title: GenzMalikQuadrature.inl Pages: 1 -->
<svg width="366pt" height="196pt"
 viewBox="0.00 0.00 365.50 196.00" xmlns="http://www.w3.org/2000/svg" xmlns:xlink="http://www.w3.org/1999/xlink">
<g id="graph0" class="graph" transform="scale(1 1) rotate(0) translate(4 192)">
<title>GenzMalikQuadrature.inl</title>
<!-- Node72 -->
<g id="node1" class="node"><title>Node72</title>
<polygon fill="#bfbfbf" stroke="black" points="59.5,-168.5 59.5,-187.5 183.5,-187.5 183.5,-168.5 59.5,-168.5"/>
<text text-anchor="middle" x="121.5" y="-175.5" font-family="Helvetica,sans-Serif" font-size="10.00">GenzMalikQuadrature.inl</text>
</g>
<!-- Node73 -->
<g id="node2" class="node"><title>Node73</title>
<g id="a_node2"><a xlink:href="a00320.html" target="_top" xlink:title="GenzMalikQuadrature.h">
<polygon fill="none" stroke="black" points="106,-112.5 106,-131.5 225,-131.5 225,-112.5 106,-112.5"/>
<text text-anchor="middle" x="165.5" y="-119.5" font-family="Helvetica,sans-Serif" font-size="10.00">GenzMalikQuadrature.h</text>
</a>
</g>
</g>
<!-- Node72&#45;&gt;Node73 -->
<g id="edge1" class="edge"><title>Node72&#45;&gt;Node73</title>
<path fill="none" stroke="midnightblue" d="M135.235,-160.144C142.901,-150.736 152.133,-139.405 158.369,-131.751"/>
<polygon fill="midnightblue" stroke="midnightblue" points="132.369,-158.12 128.766,-168.083 137.796,-162.541 132.369,-158.12"/>
</g>
<!-- Node74 -->
<g id="node3" class="node"><title>Node74</title>
<g id="a_node3"><a xlink:href="a00146.html" target="_top" xlink:title="ProcessGenzMalikQuadrature.h">
<polygon fill="none" stroke="black" points="0,-56.5 0,-75.5 155,-75.5 155,-56.5 0,-56.5"/>
<text text-anchor="middle" x="77.5" y="-63.5" font-family="Helvetica,sans-Serif" font-size="10.00">ProcessGenzMalikQuadrature.h</text>
</a>
</g>
</g>
<!-- Node73&#45;&gt;Node74 -->
<g id="edge2" class="edge"><title>Node73&#45;&gt;Node74</title>
<path fill="none" stroke="midnightblue" d="M142.523,-106.901C126.387,-96.9986 105.319,-84.0705 91.6036,-75.6545"/>
<polygon fill="midnightblue" stroke="midnightblue" points="141.007,-110.077 151.361,-112.324 144.669,-104.111 141.007,-110.077"/>
</g>
<!-- Node75 -->
<g id="node4" class="node"><title>Node75</title>
<g id="a_node4"><a xlink:href="a00452.html" target="_top" xlink:title="multidimensional_fit.inl">
<polygon fill="none" stroke="black" points="173.5,-56.5 173.5,-75.5 289.5,-75.5 289.5,-56.5 173.5,-56.5"/>
<text text-anchor="middle" x="231.5" y="-63.5" font-family="Helvetica,sans-Serif" font-size="10.00">multidimensional_fit.inl</text>
</a>
</g>
</g>
<!-- Node73&#45;&gt;Node75 -->
<g id="edge4" class="edge"><title>Node73&#45;&gt;Node75</title>
<path fill="none" stroke="midnightblue" d="M184.054,-105.82C195.878,-96.1452 210.786,-83.9481 220.703,-75.8339"/>
<polygon fill="midnightblue" stroke="midnightblue" points="181.627,-103.283 176.104,-112.324 186.06,-108.7 181.627,-103.283"/>
</g>
<!-- Node74&#45;&gt;Node72 -->
<g id="edge3" class="edge"><title>Node74&#45;&gt;Node72</title>
<path fill="none" stroke="midnightblue" d="M81.7154,-85.4114C85.022,-98.6357 90.1266,-116.745 96.5,-132 102.012,-145.194 110.4,-159.474 115.915,-168.328"/>
<polygon fill="midnightblue" stroke="midnightblue" points="85.104,-84.5325 79.3724,-75.6218 78.2962,-86.1619 85.104,-84.5325"/>
</g>
<!-- Node76 -->
<g id="node5" class="node"><title>Node76</title>
<g id="a_node5"><a xlink:href="a00446.html" target="_top" xlink:title="multidimensional_fit.cpp">
<polygon fill="none" stroke="black" points="101.5,-0.5 101.5,-19.5 223.5,-19.5 223.5,-0.5 101.5,-0.5"/>
<text text-anchor="middle" x="162.5" y="-7.5" font-family="Helvetica,sans-Serif" font-size="10.00">multidimensional_fit.cpp</text>
</a>
</g>
</g>
<!-- Node75&#45;&gt;Node76 -->
<g id="edge5" class="edge"><title>Node75&#45;&gt;Node76</title>
<path fill="none" stroke="midnightblue" d="M212.462,-50.1008C200.044,-40.3824 184.257,-28.0269 173.788,-19.8339"/>
<polygon fill="midnightblue" stroke="midnightblue" points="210.382,-52.9171 220.414,-56.324 214.696,-47.4046 210.382,-52.9171"/>
</g>
<!-- Node77 -->
<g id="node6" class="node"><title>Node77</title>
<g id="a_node6"><a xlink:href="a00449.html" target="_top" xlink:title="multidimensional_fit.cu">
<polygon fill="none" stroke="black" points="241.5,-0.5 241.5,-19.5 357.5,-19.5 357.5,-0.5 241.5,-0.5"/>
<text text-anchor="middle" x="299.5" y="-7.5" font-family="Helvetica,sans-Serif" font-size="10.00">multidimensional_fit.cu</text>
</a>
</g>
</g>
<!-- Node75&#45;&gt;Node77 -->
<g id="edge6" class="edge"><title>Node75&#45;&gt;Node77</title>
<path fill="none" stroke="midnightblue" d="M250.262,-50.1008C262.5,-40.3824 278.059,-28.0269 288.376,-19.8339"/>
<polygon fill="midnightblue" stroke="midnightblue" points="248.08,-47.3642 242.425,-56.324 252.433,-52.846 248.08,-47.3642"/>
</g>
</g>
</svg>
