<?xml version="1.0" encoding="UTF-8" standalone="no"?>
<!DOCTYPE svg PUBLIC "-//W3C//DTD SVG 1.1//EN"
 "http://www.w3.org/Graphics/SVG/1.1/DTD/svg11.dtd">
<!-- Generated by graphviz version 2.38.0 (20140413.2041)
 -->
<!-- Title: /home/augalves/Development/Release/Hydra/hydra/detail/functors/ProcessGenzMalikQuadrature.h Pages: 1 -->
<svg width="3278pt" height="787pt"
 viewBox="0.00 0.00 3277.86 787.00" xmlns="http://www.w3.org/2000/svg" xmlns:xlink="http://www.w3.org/1999/xlink">
<g id="graph0" class="graph" transform="scale(1 1) rotate(0) translate(4 783)">
<title>/home/augalves/Development/Release/Hydra/hydra/detail/functors/ProcessGenzMalikQuadrature.h</title>
<!-- Node0 -->
<g id="node1" class="node"><title>Node0</title>
<polygon fill="#bfbfbf" stroke="black" points="2492.36,-737.5 2492.36,-778.5 2689.36,-778.5 2689.36,-737.5 2492.36,-737.5"/>
<text text-anchor="start" x="2500.36" y="-766.5" font-family="Helvetica,sans-Serif" font-size="10.00">/home/augalves/Development</text>
<text text-anchor="start" x="2500.36" y="-755.5" font-family="Helvetica,sans-Serif" font-size="10.00">/Release/Hydra/hydra/detail</text>
<text text-anchor="middle" x="2590.86" y="-744.5" font-family="Helvetica,sans-Serif" font-size="10.00">/functors/ProcessGenzMalikQuadrature.h</text>
</g>
<!-- Node1 -->
<g id="node2" class="node"><title>Node1</title>
<g id="a_node2"><a xlink:href="a00047.html" target="_top" xlink:title="hydra/detail/Config.h">
<polygon fill="none" stroke="black" points="1427.36,-78.5 1427.36,-97.5 1534.36,-97.5 1534.36,-78.5 1427.36,-78.5"/>
<text text-anchor="middle" x="1480.86" y="-85.5" font-family="Helvetica,sans-Serif" font-size="10.00">hydra/detail/Config.h</text>
</a>
</g>
</g>
<!-- Node0&#45;&gt;Node1 -->
<g id="edge1" class="edge"><title>Node0&#45;&gt;Node1</title>
<path fill="none" stroke="midnightblue" d="M2492.19,-756.993C2078.49,-756.638 495.157,-751.935 277.863,-701 200.041,-682.758 114.863,-704.932 114.863,-625 114.863,-625 114.863,-625 114.863,-355 114.863,-308.122 129.688,-297.163 153.863,-257 158.904,-248.626 202.13,-194.389 210.863,-190 319.905,-135.194 642.226,-189.909 758.863,-154 775.619,-148.841 776.107,-139.156 792.863,-134 822.419,-124.905 1252.66,-101.166 1417.37,-92.3553"/>
<polygon fill="midnightblue" stroke="midnightblue" points="1417.56,-95.8502 1427.36,-91.8218 1417.19,-88.8602 1417.56,-95.8502"/>
</g>
<!-- Node4 -->
<g id="node5" class="node"><title>Node4</title>
<g id="a_node5"><a xlink:href="a00305.html" target="_top" xlink:title="Common and useful typedefs. ">
<polygon fill="none" stroke="black" points="2147.36,-78.5 2147.36,-97.5 2226.36,-97.5 2226.36,-78.5 2147.36,-78.5"/>
<text text-anchor="middle" x="2186.86" y="-85.5" font-family="Helvetica,sans-Serif" font-size="10.00">hydra/Types.h</text>
</a>
</g>
</g>
<!-- Node0&#45;&gt;Node4 -->
<g id="edge4" class="edge"><title>Node0&#45;&gt;Node4</title>
<path fill="none" stroke="midnightblue" d="M2642.22,-737.458C2666.1,-727.639 2694.53,-714.884 2718.86,-701 2739.33,-689.324 2739.88,-678.46 2761.86,-670 2983.8,-584.603 3269.86,-739.804 3269.86,-502 3269.86,-502 3269.86,-502 3269.86,-277 3269.86,-190.539 3176.17,-222.034 3095.86,-190 3016.47,-158.329 2995.98,-149.196 2911.86,-134 2781.71,-110.489 2378.13,-95.2957 2236.56,-90.5734"/>
<polygon fill="midnightblue" stroke="midnightblue" points="2236.54,-87.071 2226.43,-90.2386 2236.31,-94.0672 2236.54,-87.071"/>
</g>
<!-- Node5 -->
<g id="node6" class="node"><title>Node5</title>
<g id="a_node6"><a xlink:href="a00017.html" target="_top" xlink:title="Typedefs for useful container classes used in MCBooster. ">
<polygon fill="none" stroke="black" points="1338.36,-268.5 1338.36,-287.5 1437.36,-287.5 1437.36,-268.5 1338.36,-268.5"/>
<text text-anchor="middle" x="1387.86" y="-275.5" font-family="Helvetica,sans-Serif" font-size="10.00">hydra/Containers.h</text>
</a>
</g>
</g>
<!-- Node0&#45;&gt;Node5 -->
<g id="edge5" class="edge"><title>Node0&#45;&gt;Node5</title>
<path fill="none" stroke="midnightblue" d="M2492.23,-756.105C2073.56,-751.672 464.863,-727.94 464.863,-625 464.863,-625 464.863,-625 464.863,-500 464.863,-426.439 424.911,-386.061 477.863,-335 511.926,-302.153 1282.35,-307.684 1328.86,-299 1338.54,-297.193 1348.8,-294.14 1358.01,-290.958"/>
<polygon fill="midnightblue" stroke="midnightblue" points="1359.29,-294.213 1367.5,-287.506 1356.9,-287.635 1359.29,-294.213"/>
</g>
<!-- Node20 -->
<g id="node21" class="node"><title>Node20</title>
<g id="a_node21"><a xlink:href="a00200.html" target="_top" xlink:title="hydra/detail/utility\l/Utility_Tuple.h">
<polygon fill="none" stroke="black" points="2657.36,-486 2657.36,-516 2750.36,-516 2750.36,-486 2657.36,-486"/>
<text text-anchor="start" x="2665.36" y="-504" font-family="Helvetica,sans-Serif" font-size="10.00">hydra/detail/utility</text>
<text text-anchor="middle" x="2703.86" y="-493" font-family="Helvetica,sans-Serif" font-size="10.00">/Utility_Tuple.h</text>
</a>
</g>
</g>
<!-- Node0&#45;&gt;Node20 -->
<g id="edge30" class="edge"><title>Node0&#45;&gt;Node20</title>
<path fill="none" stroke="midnightblue" d="M2613.35,-737.294C2623.58,-727.301 2635.11,-714.448 2642.86,-701 2676.27,-643.052 2693.26,-564.867 2700.1,-526.004"/>
<polygon fill="midnightblue" stroke="midnightblue" points="2703.56,-526.578 2701.77,-516.135 2696.65,-525.412 2703.56,-526.578"/>
</g>
<!-- Node21 -->
<g id="node22" class="node"><title>Node21</title>
<g id="a_node22"><a xlink:href="a00188.html" target="_top" xlink:title="hydra/detail/utility\l/Generic.h">
<polygon fill="none" stroke="black" points="1982.36,-341 1982.36,-371 2075.36,-371 2075.36,-341 1982.36,-341"/>
<text text-anchor="start" x="1990.36" y="-359" font-family="Helvetica,sans-Serif" font-size="10.00">hydra/detail/utility</text>
<text text-anchor="middle" x="2028.86" y="-348" font-family="Helvetica,sans-Serif" font-size="10.00">/Generic.h</text>
</a>
</g>
</g>
<!-- Node0&#45;&gt;Node21 -->
<g id="edge59" class="edge"><title>Node0&#45;&gt;Node21</title>
<path fill="none" stroke="midnightblue" d="M2600.26,-737.381C2611.51,-712.034 2628.86,-666.256 2628.86,-625 2628.86,-625 2628.86,-625 2628.86,-567 2628.86,-433.019 2254.08,-459.274 2203.86,-444 2150.75,-427.844 2094.05,-396.801 2060.03,-376.5"/>
<polygon fill="midnightblue" stroke="midnightblue" points="2061.43,-373.257 2051.07,-371.081 2057.81,-379.248 2061.43,-373.257"/>
</g>
<!-- Node23 -->
<g id="node24" class="node"><title>Node23</title>
<g id="a_node24"><a xlink:href="a00182.html" target="_top" xlink:title="hydra/detail/TypeTraits.h">
<polygon fill="none" stroke="black" points="2398.36,-346.5 2398.36,-365.5 2523.36,-365.5 2523.36,-346.5 2398.36,-346.5"/>
<text text-anchor="middle" x="2460.86" y="-353.5" font-family="Helvetica,sans-Serif" font-size="10.00">hydra/detail/TypeTraits.h</text>
</a>
</g>
</g>
<!-- Node0&#45;&gt;Node23 -->
<g id="edge139" class="edge"><title>Node0&#45;&gt;Node23</title>
<path fill="none" stroke="midnightblue" d="M2581.47,-737.381C2570.22,-712.034 2552.86,-666.256 2552.86,-625 2552.86,-625 2552.86,-625 2552.86,-567 2552.86,-507.474 2524.75,-498.075 2499.86,-444 2488.98,-420.341 2476.74,-392.899 2468.92,-375.262"/>
<polygon fill="midnightblue" stroke="midnightblue" points="2471.93,-373.399 2464.68,-365.669 2465.53,-376.231 2471.93,-373.399"/>
</g>
<!-- Node25 -->
<g id="node26" class="node"><title>Node25</title>
<polygon fill="none" stroke="#bfbfbf" points="420.863,-263 420.863,-293 548.863,-293 548.863,-263 420.863,-263"/>
<text text-anchor="start" x="428.863" y="-281" font-family="Helvetica,sans-Serif" font-size="10.00">hydra/detail/external</text>
<text text-anchor="middle" x="484.863" y="-270" font-family="Helvetica,sans-Serif" font-size="10.00">/thrust/execution_policy.h</text>
</g>
<!-- Node0&#45;&gt;Node25 -->
<g id="edge165" class="edge"><title>Node0&#45;&gt;Node25</title>
<path fill="none" stroke="midnightblue" d="M2492.17,-757.554C2144.26,-758.984 976.063,-759.228 606.863,-701 489.627,-682.51 350.863,-743.686 350.863,-625 350.863,-625 350.863,-625 350.863,-500 350.863,-426.655 306.973,-395.889 347.863,-335 362.343,-313.438 386.748,-300.173 410.982,-292.014"/>
<polygon fill="midnightblue" stroke="midnightblue" points="412.088,-295.335 420.6,-289.027 410.012,-288.65 412.088,-295.335"/>
</g>
<!-- Node32 -->
<g id="node33" class="node"><title>Node32</title>
<g id="a_node33"><a xlink:href="a00137.html" target="_top" xlink:title="hydra/detail/GenzMalikBox.h">
<polygon fill="none" stroke="black" points="142.863,-419 142.863,-438 284.863,-438 284.863,-419 142.863,-419"/>
<text text-anchor="middle" x="213.863" y="-426" font-family="Helvetica,sans-Serif" font-size="10.00">hydra/detail/GenzMalikBox.h</text>
</a>
</g>
</g>
<!-- Node0&#45;&gt;Node32 -->
<g id="edge60" class="edge"><title>Node0&#45;&gt;Node32</title>
<path fill="none" stroke="midnightblue" d="M2492.07,-756.638C2070.2,-754.823 436.623,-744.975 336.863,-701 294.007,-682.108 263.863,-671.836 263.863,-625 263.863,-625 263.863,-625 263.863,-567 263.863,-521.479 239.36,-472.308 224.661,-446.905"/>
<polygon fill="midnightblue" stroke="midnightblue" points="227.539,-444.899 219.405,-438.11 221.53,-448.49 227.539,-444.899"/>
</g>
<!-- Node36 -->
<g id="node37" class="node"><title>Node36</title>
<g id="a_node37"><a xlink:href="a00242.html" target="_top" xlink:title="hydra/GenzMalikQuadrature.h">
<polygon fill="none" stroke="black" points="1108.86,-676 1108.86,-695 1254.86,-695 1254.86,-676 1108.86,-676"/>
<text text-anchor="middle" x="1181.86" y="-683" font-family="Helvetica,sans-Serif" font-size="10.00">hydra/GenzMalikQuadrature.h</text>
</a>
</g>
</g>
<!-- Node0&#45;&gt;Node36 -->
<g id="edge72" class="edge"><title>Node0&#45;&gt;Node36</title>
<path fill="none" stroke="midnightblue" d="M2492.35,-752.071C2228.68,-738.878 1510.37,-702.937 1265.18,-690.669"/>
<polygon fill="midnightblue" stroke="midnightblue" points="1265.07,-687.159 1254.91,-690.155 1264.72,-694.15 1265.07,-687.159"/>
</g>
<!-- Node55 -->
<g id="node56" class="node"><title>Node55</title>
<polygon fill="none" stroke="#bfbfbf" points="2306.86,-486 2306.86,-516 2410.86,-516 2410.86,-486 2306.86,-486"/>
<text text-anchor="start" x="2314.86" y="-504" font-family="Helvetica,sans-Serif" font-size="10.00">hydra/detail/external</text>
<text text-anchor="middle" x="2358.86" y="-493" font-family="Helvetica,sans-Serif" font-size="10.00">/thrust/functional.h</text>
</g>
<!-- Node0&#45;&gt;Node55 -->
<g id="edge160" class="edge"><title>Node0&#45;&gt;Node55</title>
<path fill="none" stroke="midnightblue" d="M2552.18,-737.424C2535.34,-727.812 2516.02,-715.233 2500.86,-701 2442.81,-646.504 2393.59,-565.012 2371.42,-525.356"/>
<polygon fill="midnightblue" stroke="midnightblue" points="2374.28,-523.283 2366.38,-516.217 2368.15,-526.664 2374.28,-523.283"/>
</g>
<!-- Node60 -->
<g id="node61" class="node"><title>Node60</title>
<g id="a_node61"><a xlink:href="a00185.html" target="_top" xlink:title="hydra/detail/utility\l/Arithmetic_Tuple.h">
<polygon fill="none" stroke="black" points="2294.36,-413.5 2294.36,-443.5 2395.36,-443.5 2395.36,-413.5 2294.36,-413.5"/>
<text text-anchor="start" x="2302.36" y="-431.5" font-family="Helvetica,sans-Serif" font-size="10.00">hydra/detail/utility</text>
<text text-anchor="middle" x="2344.86" y="-420.5" font-family="Helvetica,sans-Serif" font-size="10.00">/Arithmetic_Tuple.h</text>
</a>
</g>
</g>
<!-- Node0&#45;&gt;Node60 -->
<g id="edge140" class="edge"><title>Node0&#45;&gt;Node60</title>
<path fill="none" stroke="midnightblue" d="M2568.43,-737.265C2558.2,-727.266 2546.67,-714.416 2538.86,-701 2521.04,-670.386 2514.86,-660.422 2514.86,-625 2514.86,-625 2514.86,-625 2514.86,-567 2514.86,-526.889 2518.31,-509.253 2490.86,-480 2478.71,-467.048 2440.06,-453.983 2405.58,-444.387"/>
<polygon fill="midnightblue" stroke="midnightblue" points="2406.09,-440.898 2395.52,-441.65 2404.25,-447.653 2406.09,-440.898"/>
</g>
<!-- Node61 -->
<g id="node62" class="node"><title>Node61</title>
<g id="a_node62"><a xlink:href="a00035.html" target="_top" xlink:title="hydra/detail/Argument.h">
<polygon fill="none" stroke="black" points="2958.86,-614.5 2958.86,-633.5 3078.86,-633.5 3078.86,-614.5 2958.86,-614.5"/>
<text text-anchor="middle" x="3018.86" y="-621.5" font-family="Helvetica,sans-Serif" font-size="10.00">hydra/detail/Argument.h</text>
</a>
</g>
</g>
<!-- Node0&#45;&gt;Node61 -->
<g id="edge147" class="edge"><title>Node0&#45;&gt;Node61</title>
<path fill="none" stroke="midnightblue" d="M2622.6,-737.433C2639.87,-726.739 2661.59,-713.218 2680.86,-701 2702.31,-687.402 2705.13,-679.034 2728.86,-670 2800.66,-642.673 2888.48,-631.926 2948.55,-627.707"/>
<polygon fill="midnightblue" stroke="midnightblue" points="2948.94,-631.189 2958.68,-627.039 2948.48,-624.205 2948.94,-631.189"/>
</g>
<!-- Node63 -->
<g id="node64" class="node"><title>Node63</title>
<polygon fill="none" stroke="#bfbfbf" points="2771.36,-670.5 2771.36,-700.5 2902.36,-700.5 2902.36,-670.5 2771.36,-670.5"/>
<text text-anchor="start" x="2779.36" y="-688.5" font-family="Helvetica,sans-Serif" font-size="10.00">hydra/detail/external</text>
<text text-anchor="middle" x="2836.86" y="-677.5" font-family="Helvetica,sans-Serif" font-size="10.00">/thrust/transform_reduce.h</text>
</g>
<!-- Node0&#45;&gt;Node63 -->
<g id="edge161" class="edge"><title>Node0&#45;&gt;Node63</title>
<path fill="none" stroke="midnightblue" d="M2659.06,-737.455C2696.36,-726.765 2742.12,-713.653 2777.87,-703.406"/>
<polygon fill="midnightblue" stroke="midnightblue" points="2779.03,-706.716 2787.67,-700.597 2777.1,-699.987 2779.03,-706.716"/>
</g>
<!-- Node64 -->
<g id="node65" class="node"><title>Node64</title>
<polygon fill="none" stroke="#bfbfbf" points="2920.86,-670.5 2920.86,-700.5 3024.86,-700.5 3024.86,-670.5 2920.86,-670.5"/>
<text text-anchor="start" x="2928.86" y="-688.5" font-family="Helvetica,sans-Serif" font-size="10.00">hydra/detail/external</text>
<text text-anchor="middle" x="2972.86" y="-677.5" font-family="Helvetica,sans-Serif" font-size="10.00">/thrust/reduce.h</text>
</g>
<!-- Node0&#45;&gt;Node64 -->
<g id="edge162" class="edge"><title>Node0&#45;&gt;Node64</title>
<path fill="none" stroke="midnightblue" d="M2689.53,-741.214C2752.93,-730.705 2836.95,-716.097 2910.86,-701 2910.96,-700.979 2911.07,-700.958 2911.17,-700.938"/>
<polygon fill="midnightblue" stroke="midnightblue" points="2911.76,-704.391 2920.81,-698.898 2910.31,-697.542 2911.76,-704.391"/>
</g>
<!-- Node65 -->
<g id="node66" class="node"><title>Node65</title>
<polygon fill="none" stroke="#bfbfbf" points="3042.86,-670.5 3042.86,-700.5 3146.86,-700.5 3146.86,-670.5 3042.86,-670.5"/>
<text text-anchor="start" x="3050.86" y="-688.5" font-family="Helvetica,sans-Serif" font-size="10.00">hydra/detail/external</text>
<text text-anchor="middle" x="3094.86" y="-677.5" font-family="Helvetica,sans-Serif" font-size="10.00">/thrust/transform.h</text>
</g>
<!-- Node0&#45;&gt;Node65 -->
<g id="edge163" class="edge"><title>Node0&#45;&gt;Node65</title>
<path fill="none" stroke="midnightblue" d="M2689.42,-747.614C2777.13,-738.553 2909.03,-723.193 3032.67,-701.1"/>
<polygon fill="midnightblue" stroke="midnightblue" points="3033.48,-704.511 3042.7,-699.29 3032.23,-697.622 3033.48,-704.511"/>
</g>
<!-- Node66 -->
<g id="node67" class="node"><title>Node66</title>
<polygon fill="none" stroke="#bfbfbf" points="3164.86,-670.5 3164.86,-700.5 3268.86,-700.5 3268.86,-670.5 3164.86,-670.5"/>
<text text-anchor="start" x="3172.86" y="-688.5" font-family="Helvetica,sans-Serif" font-size="10.00">hydra/detail/external</text>
<text text-anchor="middle" x="3216.86" y="-677.5" font-family="Helvetica,sans-Serif" font-size="10.00">/thrust/copy.h</text>
</g>
<!-- Node0&#45;&gt;Node66 -->
<g id="edge164" class="edge"><title>Node0&#45;&gt;Node66</title>
<path fill="none" stroke="midnightblue" d="M2689.38,-751.269C2800.33,-743.9 2986.08,-728.818 3154.66,-701.058"/>
<polygon fill="midnightblue" stroke="midnightblue" points="3155.42,-704.479 3164.71,-699.384 3154.27,-697.574 3155.42,-704.479"/>
</g>
<!-- Node2 -->
<g id="node3" class="node"><title>Node2</title>
<polygon fill="none" stroke="#bfbfbf" points="1502.86,-6 1502.86,-36 1610.86,-36 1610.86,-6 1502.86,-6"/>
<text text-anchor="start" x="1510.86" y="-24" font-family="Helvetica,sans-Serif" font-size="10.00">hydra/detail/external</text>
<text text-anchor="middle" x="1556.86" y="-13" font-family="Helvetica,sans-Serif" font-size="10.00">/thrust/detail/config.h</text>
</g>
<!-- Node1&#45;&gt;Node2 -->
<g id="edge2" class="edge"><title>Node1&#45;&gt;Node2</title>
<path fill="none" stroke="midnightblue" d="M1491.11,-78.2338C1501.68,-69.1959 1518.54,-54.7739 1532.55,-42.7982"/>
<polygon fill="midnightblue" stroke="midnightblue" points="1535.07,-45.2486 1540.39,-36.089 1530.52,-39.9288 1535.07,-45.2486"/>
</g>
<!-- Node3 -->
<g id="node4" class="node"><title>Node3</title>
<polygon fill="none" stroke="#bfbfbf" points="1380.86,-0.5 1380.86,-41.5 1484.86,-41.5 1484.86,-0.5 1380.86,-0.5"/>
<text text-anchor="start" x="1388.86" y="-29.5" font-family="Helvetica,sans-Serif" font-size="10.00">hydra/detail/external</text>
<text text-anchor="start" x="1388.86" y="-18.5" font-family="Helvetica,sans-Serif" font-size="10.00">/thrust/detail/config</text>
<text text-anchor="middle" x="1432.86" y="-7.5" font-family="Helvetica,sans-Serif" font-size="10.00">/host_device.h</text>
</g>
<!-- Node1&#45;&gt;Node3 -->
<g id="edge3" class="edge"><title>Node1&#45;&gt;Node3</title>
<path fill="none" stroke="midnightblue" d="M1474.39,-78.2338C1468.99,-70.9242 1460.99,-60.0928 1453.45,-49.8821"/>
<polygon fill="midnightblue" stroke="midnightblue" points="1456.05,-47.5073 1447.29,-41.5421 1450.42,-51.6656 1456.05,-47.5073"/>
</g>
<!-- Node5&#45;&gt;Node1 -->
<g id="edge8" class="edge"><title>Node5&#45;&gt;Node1</title>
<path fill="none" stroke="midnightblue" d="M1406.08,-268.476C1423.45,-259.323 1448.85,-243.064 1461.86,-221 1482.96,-185.23 1483.82,-134.78 1482.45,-107.784"/>
<polygon fill="midnightblue" stroke="midnightblue" points="1485.94,-107.504 1481.77,-97.7618 1478.95,-107.974 1485.94,-107.504"/>
</g>
<!-- Node5&#45;&gt;Node4 -->
<g id="edge9" class="edge"><title>Node5&#45;&gt;Node4</title>
<path fill="none" stroke="midnightblue" d="M1402.22,-268.48C1438.33,-247.079 1530.57,-192.579 1537.86,-190 1752.14,-114.207 2026.18,-95.2108 2137.02,-90.5146"/>
<polygon fill="midnightblue" stroke="midnightblue" points="2137.38,-94.003 2147.23,-90.1033 2137.1,-87.0087 2137.38,-94.003"/>
</g>
<!-- Node6 -->
<g id="node7" class="node"><title>Node6</title>
<polygon fill="none" stroke="#bfbfbf" points="1110.86,-196 1110.86,-215 1154.86,-215 1154.86,-196 1110.86,-196"/>
<text text-anchor="middle" x="1132.86" y="-203" font-family="Helvetica,sans-Serif" font-size="10.00">vector</text>
</g>
<!-- Node5&#45;&gt;Node6 -->
<g id="edge6" class="edge"><title>Node5&#45;&gt;Node6</title>
<path fill="none" stroke="midnightblue" d="M1364.5,-268.446C1353.73,-264.668 1340.73,-260.337 1328.86,-257 1258.69,-237.272 1238.45,-242.687 1168.86,-221 1166.58,-220.29 1164.25,-219.498 1161.91,-218.661"/>
<polygon fill="midnightblue" stroke="midnightblue" points="1163.05,-215.352 1152.46,-215.06 1160.56,-221.893 1163.05,-215.352"/>
</g>
<!-- Node7 -->
<g id="node8" class="node"><title>Node7</title>
<polygon fill="none" stroke="#bfbfbf" points="1546.86,-196 1546.86,-215 1584.86,-215 1584.86,-196 1546.86,-196"/>
<text text-anchor="middle" x="1565.86" y="-203" font-family="Helvetica,sans-Serif" font-size="10.00">array</text>
</g>
<!-- Node5&#45;&gt;Node7 -->
<g id="edge7" class="edge"><title>Node5&#45;&gt;Node7</title>
<path fill="none" stroke="midnightblue" d="M1410.84,-268.493C1439.54,-257.784 1490.08,-238.65 1532.86,-221 1534.27,-220.418 1535.71,-219.816 1537.17,-219.202"/>
<polygon fill="midnightblue" stroke="midnightblue" points="1538.93,-222.253 1546.73,-215.082 1536.16,-215.824 1538.93,-222.253"/>
</g>
<!-- Node8 -->
<g id="node9" class="node"><title>Node8</title>
<g id="a_node9"><a xlink:href="a00314.html" target="_top" xlink:title="hydra/Vector3R.h">
<polygon fill="none" stroke="black" points="657.363,-134.5 657.363,-153.5 750.363,-153.5 750.363,-134.5 657.363,-134.5"/>
<text text-anchor="middle" x="703.863" y="-141.5" font-family="Helvetica,sans-Serif" font-size="10.00">hydra/Vector3R.h</text>
</a>
</g>
</g>
<!-- Node5&#45;&gt;Node8 -->
<g id="edge10" class="edge"><title>Node5&#45;&gt;Node8</title>
<path fill="none" stroke="midnightblue" d="M1363.55,-268.451C1352.94,-264.799 1340.33,-260.565 1328.86,-257 1272.84,-239.577 1253.89,-248.105 1201.86,-221 1182.53,-210.93 1184.02,-198.305 1163.86,-190 1092.24,-160.485 867.009,-149.894 760.603,-146.47"/>
<polygon fill="midnightblue" stroke="midnightblue" points="760.483,-142.965 750.378,-146.152 760.264,-149.961 760.483,-142.965"/>
</g>
<!-- Node16 -->
<g id="node17" class="node"><title>Node16</title>
<g id="a_node17"><a xlink:href="a00317.html" target="_top" xlink:title="hydra/Vector4R.h">
<polygon fill="none" stroke="black" points="1211.36,-196 1211.36,-215 1304.36,-215 1304.36,-196 1211.36,-196"/>
<text text-anchor="middle" x="1257.86" y="-203" font-family="Helvetica,sans-Serif" font-size="10.00">hydra/Vector4R.h</text>
</a>
</g>
</g>
<!-- Node5&#45;&gt;Node16 -->
<g id="edge20" class="edge"><title>Node5&#45;&gt;Node16</title>
<path fill="none" stroke="midnightblue" d="M1372.18,-268.496C1349.93,-256.428 1308.96,-234.213 1282.59,-219.912"/>
<polygon fill="midnightblue" stroke="midnightblue" points="1284.06,-216.725 1273.6,-215.034 1280.72,-222.878 1284.06,-216.725"/>
</g>
<!-- Node18 -->
<g id="node19" class="node"><title>Node18</title>
<polygon fill="none" stroke="#bfbfbf" points="1829.86,-190.5 1829.86,-220.5 1933.86,-220.5 1933.86,-190.5 1829.86,-190.5"/>
<text text-anchor="start" x="1837.86" y="-208.5" font-family="Helvetica,sans-Serif" font-size="10.00">hydra/detail/external</text>
<text text-anchor="middle" x="1881.86" y="-197.5" font-family="Helvetica,sans-Serif" font-size="10.00">/thrust/complex.h</text>
</g>
<!-- Node5&#45;&gt;Node18 -->
<g id="edge28" class="edge"><title>Node5&#45;&gt;Node18</title>
<path fill="none" stroke="midnightblue" d="M1437.49,-269.917C1528.12,-256.984 1720.18,-229.574 1819.49,-215.402"/>
<polygon fill="midnightblue" stroke="midnightblue" points="1820.27,-218.826 1829.67,-213.948 1819.28,-211.896 1820.27,-218.826"/>
</g>
<!-- Node19 -->
<g id="node20" class="node"><title>Node19</title>
<polygon fill="none" stroke="#bfbfbf" points="1322.86,-196 1322.86,-215 1452.86,-215 1452.86,-196 1322.86,-196"/>
<text text-anchor="middle" x="1387.86" y="-203" font-family="Helvetica,sans-Serif" font-size="10.00">hydra/detail/Containers.inl</text>
</g>
<!-- Node5&#45;&gt;Node19 -->
<g id="edge29" class="edge"><title>Node5&#45;&gt;Node19</title>
<path fill="none" stroke="midnightblue" d="M1387.86,-268.355C1387.86,-257.679 1387.86,-239.217 1387.86,-225.234"/>
<polygon fill="midnightblue" stroke="midnightblue" points="1391.36,-225.215 1387.86,-215.215 1384.36,-225.215 1391.36,-225.215"/>
</g>
<!-- Node8&#45;&gt;Node1 -->
<g id="edge11" class="edge"><title>Node8&#45;&gt;Node1</title>
<path fill="none" stroke="midnightblue" d="M750.439,-135.718C755.303,-135.081 760.179,-134.492 764.863,-134 890.492,-120.808 1266.55,-100.27 1417.31,-92.309"/>
<polygon fill="midnightblue" stroke="midnightblue" points="1417.54,-95.8019 1427.34,-91.7804 1417.17,-88.8116 1417.54,-95.8019"/>
</g>
<!-- Node8&#45;&gt;Node4 -->
<g id="edge12" class="edge"><title>Node8&#45;&gt;Node4</title>
<path fill="none" stroke="midnightblue" d="M750.696,-141.295C971.697,-133.247 1909.06,-99.1157 2136.83,-90.8218"/>
<polygon fill="midnightblue" stroke="midnightblue" points="2137.27,-94.3082 2147.14,-90.4465 2137.02,-87.3128 2137.27,-94.3082"/>
</g>
<!-- Node9 -->
<g id="node10" class="node"><title>Node9</title>
<polygon fill="none" stroke="#bfbfbf" points="678.363,-78.5 678.363,-97.5 723.363,-97.5 723.363,-78.5 678.363,-78.5"/>
<text text-anchor="middle" x="700.863" y="-85.5" font-family="Helvetica,sans-Serif" font-size="10.00">iosfwd</text>
</g>
<!-- Node8&#45;&gt;Node9 -->
<g id="edge13" class="edge"><title>Node8&#45;&gt;Node9</title>
<path fill="none" stroke="midnightblue" d="M703.368,-134.083C702.975,-127.006 702.411,-116.861 701.918,-107.986"/>
<polygon fill="midnightblue" stroke="midnightblue" points="705.399,-107.542 701.349,-97.7511 698.41,-107.93 705.399,-107.542"/>
</g>
<!-- Node10 -->
<g id="node11" class="node"><title>Node10</title>
<polygon fill="none" stroke="#bfbfbf" points="582.863,-78.5 582.863,-97.5 636.863,-97.5 636.863,-78.5 582.863,-78.5"/>
<text text-anchor="middle" x="609.863" y="-85.5" font-family="Helvetica,sans-Serif" font-size="10.00">iostream</text>
</g>
<!-- Node8&#45;&gt;Node10 -->
<g id="edge14" class="edge"><title>Node8&#45;&gt;Node10</title>
<path fill="none" stroke="midnightblue" d="M688.761,-134.324C673.96,-125.822 651.169,-112.729 633.881,-102.797"/>
<polygon fill="midnightblue" stroke="midnightblue" points="635.343,-99.6009 624.929,-97.6545 631.856,-105.671 635.343,-99.6009"/>
</g>
<!-- Node11 -->
<g id="node12" class="node"><title>Node11</title>
<polygon fill="none" stroke="#bfbfbf" points="485.363,-78.5 485.363,-97.5 532.363,-97.5 532.363,-78.5 485.363,-78.5"/>
<text text-anchor="middle" x="508.863" y="-85.5" font-family="Helvetica,sans-Serif" font-size="10.00">math.h</text>
</g>
<!-- Node8&#45;&gt;Node11 -->
<g id="edge15" class="edge"><title>Node8&#45;&gt;Node11</title>
<path fill="none" stroke="midnightblue" d="M672.965,-134.444C637.332,-124.576 578.964,-108.413 542.294,-98.2577"/>
<polygon fill="midnightblue" stroke="midnightblue" points="543.135,-94.8589 532.563,-95.5631 541.266,-101.605 543.135,-94.8589"/>
</g>
<!-- Node12 -->
<g id="node13" class="node"><title>Node12</title>
<g id="a_node13"><a xlink:href="a00011.html" target="_top" xlink:title="hydra/Collection.h">
<polygon fill="none" stroke="black" points="1191.36,-78.5 1191.36,-97.5 1286.36,-97.5 1286.36,-78.5 1191.36,-78.5"/>
<text text-anchor="middle" x="1238.86" y="-85.5" font-family="Helvetica,sans-Serif" font-size="10.00">hydra/Collection.h</text>
</a>
</g>
</g>
<!-- Node8&#45;&gt;Node12 -->
<g id="edge16" class="edge"><title>Node8&#45;&gt;Node12</title>
<path fill="none" stroke="midnightblue" d="M750.457,-135.872C755.317,-135.204 760.187,-134.567 764.863,-134 914.645,-115.853 1091.8,-100.708 1181.15,-93.5084"/>
<polygon fill="midnightblue" stroke="midnightblue" points="1181.66,-96.9792 1191.34,-92.691 1181.1,-90.0016 1181.66,-96.9792"/>
</g>
<!-- Node15 -->
<g id="node16" class="node"><title>Node15</title>
<polygon fill="none" stroke="#bfbfbf" points="741.863,-78.5 741.863,-97.5 865.863,-97.5 865.863,-78.5 741.863,-78.5"/>
<text text-anchor="middle" x="803.863" y="-85.5" font-family="Helvetica,sans-Serif" font-size="10.00">hydra/detail/Vector3R.inl</text>
</g>
<!-- Node8&#45;&gt;Node15 -->
<g id="edge19" class="edge"><title>Node8&#45;&gt;Node15</title>
<path fill="none" stroke="midnightblue" d="M719.93,-134.324C735.821,-125.743 760.371,-112.486 778.822,-102.522"/>
<polygon fill="midnightblue" stroke="midnightblue" points="780.7,-105.486 787.836,-97.6545 777.374,-99.3264 780.7,-105.486"/>
</g>
<!-- Node13 -->
<g id="node14" class="node"><title>Node13</title>
<polygon fill="none" stroke="#bfbfbf" points="1944.86,-6 1944.86,-36 2048.86,-36 2048.86,-6 1944.86,-6"/>
<text text-anchor="start" x="1952.86" y="-24" font-family="Helvetica,sans-Serif" font-size="10.00">hydra/detail/external</text>
<text text-anchor="middle" x="1996.86" y="-13" font-family="Helvetica,sans-Serif" font-size="10.00">/thrust/tuple.h</text>
</g>
<!-- Node12&#45;&gt;Node13 -->
<g id="edge17" class="edge"><title>Node12&#45;&gt;Node13</title>
<path fill="none" stroke="midnightblue" d="M1286.57,-82.9093C1418.27,-71.6156 1786.92,-40.003 1934.56,-27.3423"/>
<polygon fill="midnightblue" stroke="midnightblue" points="1935.14,-30.8056 1944.81,-26.464 1934.54,-23.8312 1935.14,-30.8056"/>
</g>
<!-- Node14 -->
<g id="node15" class="node"><title>Node14</title>
<polygon fill="none" stroke="#bfbfbf" points="1164.36,-0.5 1164.36,-41.5 1313.36,-41.5 1313.36,-0.5 1164.36,-0.5"/>
<text text-anchor="start" x="1172.36" y="-29.5" font-family="Helvetica,sans-Serif" font-size="10.00">hydra/detail/external</text>
<text text-anchor="start" x="1172.36" y="-18.5" font-family="Helvetica,sans-Serif" font-size="10.00">/thrust/iterator/detail</text>
<text text-anchor="middle" x="1238.86" y="-7.5" font-family="Helvetica,sans-Serif" font-size="10.00">/tuple_of_iterator_references.h</text>
</g>
<!-- Node12&#45;&gt;Node14 -->
<g id="edge18" class="edge"><title>Node12&#45;&gt;Node14</title>
<path fill="none" stroke="midnightblue" d="M1238.86,-78.2338C1238.86,-71.3628 1238.86,-61.3799 1238.86,-51.7259"/>
<polygon fill="midnightblue" stroke="midnightblue" points="1242.36,-51.542 1238.86,-41.5421 1235.36,-51.5421 1242.36,-51.542"/>
</g>
<!-- Node16&#45;&gt;Node1 -->
<g id="edge23" class="edge"><title>Node16&#45;&gt;Node1</title>
<path fill="none" stroke="midnightblue" d="M1260.1,-195.601C1264.38,-180.508 1275.17,-149.976 1295.86,-134 1330.45,-107.296 1378.64,-96.1716 1417.17,-91.6573"/>
<polygon fill="midnightblue" stroke="midnightblue" points="1417.67,-95.1241 1427.25,-90.5991 1416.94,-88.1624 1417.67,-95.1241"/>
</g>
<!-- Node16&#45;&gt;Node4 -->
<g id="edge24" class="edge"><title>Node16&#45;&gt;Node4</title>
<path fill="none" stroke="midnightblue" d="M1287.63,-195.979C1296.06,-193.788 1305.27,-191.601 1313.86,-190 1623.82,-132.227 2002.24,-101.912 2136.61,-92.3717"/>
<polygon fill="midnightblue" stroke="midnightblue" points="2137.25,-95.8352 2146.98,-91.6422 2136.76,-88.8524 2137.25,-95.8352"/>
</g>
<!-- Node16&#45;&gt;Node8 -->
<g id="edge25" class="edge"><title>Node16&#45;&gt;Node8</title>
<path fill="none" stroke="midnightblue" d="M1225.75,-195.961C1216.48,-193.744 1206.32,-191.547 1196.86,-190 1040.26,-164.374 853.107,-152.305 760.93,-147.567"/>
<polygon fill="midnightblue" stroke="midnightblue" points="760.867,-144.06 750.703,-147.052 760.515,-151.051 760.867,-144.06"/>
</g>
<!-- Node16&#45;&gt;Node10 -->
<g id="edge22" class="edge"><title>Node16&#45;&gt;Node10</title>
<path fill="none" stroke="midnightblue" d="M1211.11,-196.501C1196.06,-194.138 1179.29,-191.725 1163.86,-190 1049.63,-177.227 745.512,-214.639 647.863,-154 631.064,-143.568 620.849,-122.766 615.304,-107.494"/>
<polygon fill="midnightblue" stroke="midnightblue" points="618.496,-105.996 612.063,-97.578 611.843,-108.171 618.496,-105.996"/>
</g>
<!-- Node16&#45;&gt;Node11 -->
<g id="edge21" class="edge"><title>Node16&#45;&gt;Node11</title>
<path fill="none" stroke="midnightblue" d="M1211.11,-196.475C1196.06,-194.11 1179.29,-191.703 1163.86,-190 925.664,-163.708 855.71,-221.828 625.863,-154 589.038,-143.133 551.008,-119.215 528.67,-103.621"/>
<polygon fill="midnightblue" stroke="midnightblue" points="530.548,-100.662 520.374,-97.705 526.484,-106.361 530.548,-100.662"/>
</g>
<!-- Node16&#45;&gt;Node12 -->
<g id="edge26" class="edge"><title>Node16&#45;&gt;Node12</title>
<path fill="none" stroke="midnightblue" d="M1256.44,-195.819C1253.38,-177.257 1246.16,-133.339 1241.98,-107.973"/>
<polygon fill="midnightblue" stroke="midnightblue" points="1245.38,-107.081 1240.31,-97.782 1238.48,-108.218 1245.38,-107.081"/>
</g>
<!-- Node17 -->
<g id="node18" class="node"><title>Node17</title>
<polygon fill="none" stroke="#bfbfbf" points="1304.86,-134.5 1304.86,-153.5 1428.86,-153.5 1428.86,-134.5 1304.86,-134.5"/>
<text text-anchor="middle" x="1366.86" y="-141.5" font-family="Helvetica,sans-Serif" font-size="10.00">hydra/detail/Vector4R.inl</text>
</g>
<!-- Node16&#45;&gt;Node17 -->
<g id="edge27" class="edge"><title>Node16&#45;&gt;Node17</title>
<path fill="none" stroke="midnightblue" d="M1273.48,-195.975C1291.45,-186.166 1321.18,-169.935 1342.27,-158.425"/>
<polygon fill="midnightblue" stroke="midnightblue" points="1344.17,-161.373 1351.28,-153.509 1340.82,-155.228 1344.17,-161.373"/>
</g>
<!-- Node20&#45;&gt;Node1 -->
<g id="edge31" class="edge"><title>Node20&#45;&gt;Node1</title>
<path fill="none" stroke="midnightblue" d="M2657.31,-489.827C2615.45,-480.069 2552.61,-463.9 2499.86,-444 2346.75,-386.233 1990.6,-173.813 1831.86,-134 1733.32,-109.284 1615.63,-97.7222 1544.64,-92.6335"/>
<polygon fill="midnightblue" stroke="midnightblue" points="1544.73,-89.1316 1534.51,-91.9289 1544.25,-96.1147 1544.73,-89.1316"/>
</g>
<!-- Node20&#45;&gt;Node4 -->
<g id="edge32" class="edge"><title>Node20&#45;&gt;Node4</title>
<path fill="none" stroke="midnightblue" d="M2724.32,-485.737C2750.24,-467.899 2796.52,-436.811 2837.86,-413 2868.52,-395.342 2890.35,-407.148 2908.86,-377 2972.21,-273.853 2890.99,-194.012 2785.86,-134 2738.7,-107.073 2371.63,-94.171 2236.55,-90.2992"/>
<polygon fill="midnightblue" stroke="midnightblue" points="2236.56,-86.7984 2226.47,-90.0149 2236.37,-93.7957 2236.56,-86.7984"/>
</g>
<!-- Node20&#45;&gt;Node7 -->
<g id="edge58" class="edge"><title>Node20&#45;&gt;Node7</title>
<path fill="none" stroke="midnightblue" d="M2665.16,-485.92C2657.83,-483.652 2650.17,-481.546 2642.86,-480 2486.41,-446.895 2434.39,-500.697 2284.86,-444 2262.83,-435.647 2262.05,-425.145 2241.86,-413 2076.93,-313.776 2024.58,-303.744 1837.86,-257 1750.62,-235.158 1645.47,-218.249 1595.29,-210.743"/>
<polygon fill="midnightblue" stroke="midnightblue" points="1595.57,-207.246 1585.17,-209.245 1594.55,-214.171 1595.57,-207.246"/>
</g>
<!-- Node20&#45;&gt;Node13 -->
<g id="edge54" class="edge"><title>Node20&#45;&gt;Node13</title>
<path fill="none" stroke="midnightblue" d="M2750.42,-496.295C2824.8,-487.941 2970.7,-461.203 3055.86,-377 3117.65,-315.91 3160.26,-262.819 3112.86,-190 3045.78,-86.94 2979.29,-107.323 2859.86,-78 2707.77,-40.6557 2230.48,-26.9877 2058.99,-23.2073"/>
<polygon fill="midnightblue" stroke="midnightblue" points="2058.94,-19.7055 2048.87,-22.9879 2058.79,-26.7039 2058.94,-19.7055"/>
</g>
<!-- Node20&#45;&gt;Node14 -->
<g id="edge56" class="edge"><title>Node20&#45;&gt;Node14</title>
<path fill="none" stroke="midnightblue" d="M2750.49,-489.85C2805.01,-475.23 2892.87,-442.472 2932.86,-377 2995.34,-274.705 2928.23,-175.737 2815.86,-134 2614.54,-59.2206 1425.55,-47.1082 1371.86,-42 1356.32,-40.5213 1339.83,-38.4509 1323.94,-36.1987"/>
<polygon fill="midnightblue" stroke="midnightblue" points="1324,-32.6709 1313.6,-34.6969 1322.99,-39.5982 1324,-32.6709"/>
</g>
<!-- Node20&#45;&gt;Node21 -->
<g id="edge33" class="edge"><title>Node20&#45;&gt;Node21</title>
<path fill="none" stroke="midnightblue" d="M2665.5,-485.972C2658.07,-483.67 2650.28,-481.538 2642.86,-480 2471.98,-444.591 2416.81,-500.983 2251.86,-444 2227.86,-435.708 2226.84,-423.809 2203.86,-413 2155.78,-390.385 2140.44,-393.277 2089.86,-377 2086.99,-376.074 2084.03,-375.12 2081.05,-374.153"/>
<polygon fill="midnightblue" stroke="midnightblue" points="2082.1,-370.812 2071.51,-371.047 2079.93,-377.469 2082.1,-370.812"/>
</g>
<!-- Node22 -->
<g id="node23" class="node"><title>Node22</title>
<polygon fill="none" stroke="#bfbfbf" points="2657.86,-268.5 2657.86,-287.5 2719.86,-287.5 2719.86,-268.5 2657.86,-268.5"/>
<text text-anchor="middle" x="2688.86" y="-275.5" font-family="Helvetica,sans-Serif" font-size="10.00">type_traits</text>
</g>
<!-- Node20&#45;&gt;Node22 -->
<g id="edge57" class="edge"><title>Node20&#45;&gt;Node22</title>
<path fill="none" stroke="midnightblue" d="M2702.9,-485.839C2700.29,-447.36 2693.06,-340.869 2690.13,-297.62"/>
<polygon fill="midnightblue" stroke="midnightblue" points="2693.62,-297.374 2689.45,-287.634 2686.63,-297.848 2693.62,-297.374"/>
</g>
<!-- Node20&#45;&gt;Node23 -->
<g id="edge36" class="edge"><title>Node20&#45;&gt;Node23</title>
<path fill="none" stroke="midnightblue" d="M2661.05,-485.881C2611.73,-469.594 2537.23,-444.915 2535.86,-444 2507.96,-425.297 2484.31,-393.542 2471.39,-374.008"/>
<polygon fill="midnightblue" stroke="midnightblue" points="2474.29,-372.038 2465.94,-365.51 2468.39,-375.817 2474.29,-372.038"/>
</g>
<!-- Node24 -->
<g id="node25" class="node"><title>Node24</title>
<polygon fill="none" stroke="#bfbfbf" points="1645.86,-263 1645.86,-293 1773.86,-293 1773.86,-263 1645.86,-263"/>
<text text-anchor="start" x="1653.86" y="-281" font-family="Helvetica,sans-Serif" font-size="10.00">hydra/detail/external</text>
<text text-anchor="middle" x="1709.86" y="-270" font-family="Helvetica,sans-Serif" font-size="10.00">/thrust/detail/type_traits.h</text>
</g>
<!-- Node20&#45;&gt;Node24 -->
<g id="edge55" class="edge"><title>Node20&#45;&gt;Node24</title>
<path fill="none" stroke="midnightblue" d="M2657.23,-497.572C2567.78,-492.309 2366.21,-477.519 2199.86,-444 2096.74,-423.222 2072.65,-410.274 1972.86,-377 1895.57,-351.226 1807.03,-317.308 1754.92,-296.884"/>
<polygon fill="midnightblue" stroke="midnightblue" points="1755.9,-293.508 1745.32,-293.109 1753.34,-300.023 1755.9,-293.508"/>
</g>
<!-- Node28 -->
<g id="node29" class="node"><title>Node28</title>
<g id="a_node29"><a xlink:href="a00134.html" target="_top" xlink:title="hydra/detail/FunctorTraits.h">
<polygon fill="none" stroke="black" points="2763.86,-346.5 2763.86,-365.5 2899.86,-365.5 2899.86,-346.5 2763.86,-346.5"/>
<text text-anchor="middle" x="2831.86" y="-353.5" font-family="Helvetica,sans-Serif" font-size="10.00">hydra/detail/FunctorTraits.h</text>
</a>
</g>
</g>
<!-- Node20&#45;&gt;Node28 -->
<g id="edge45" class="edge"><title>Node20&#45;&gt;Node28</title>
<path fill="none" stroke="midnightblue" d="M2716.6,-485.766C2740.44,-459.133 2791.67,-401.907 2817.02,-373.581"/>
<polygon fill="midnightblue" stroke="midnightblue" points="2819.94,-375.569 2824,-365.784 2814.72,-370.9 2819.94,-375.569"/>
</g>
<!-- Node29 -->
<g id="node30" class="node"><title>Node29</title>
<g id="a_node30"><a xlink:href="a00263.html" target="_top" xlink:title="hydra/Parameter.h">
<polygon fill="none" stroke="black" points="2578.36,-419 2578.36,-438 2675.36,-438 2675.36,-419 2578.36,-419"/>
<text text-anchor="middle" x="2626.86" y="-426" font-family="Helvetica,sans-Serif" font-size="10.00">hydra/Parameter.h</text>
</a>
</g>
</g>
<!-- Node20&#45;&gt;Node29 -->
<g id="edge48" class="edge"><title>Node20&#45;&gt;Node29</title>
<path fill="none" stroke="midnightblue" d="M2688.28,-485.733C2675.47,-474.005 2657.34,-457.404 2644.1,-445.28"/>
<polygon fill="midnightblue" stroke="midnightblue" points="2646.32,-442.565 2636.58,-438.393 2641.59,-447.728 2646.32,-442.565"/>
</g>
<!-- Node21&#45;&gt;Node7 -->
<g id="edge35" class="edge"><title>Node21&#45;&gt;Node7</title>
<path fill="none" stroke="midnightblue" d="M1982.29,-341.262C1948.85,-330.901 1902.96,-315.66 1863.86,-299 1826.56,-283.105 1820.91,-271.038 1782.86,-257 1717.63,-232.928 1637.01,-217.762 1594.78,-210.864"/>
<polygon fill="midnightblue" stroke="midnightblue" points="1595.33,-207.407 1584.9,-209.288 1594.22,-214.32 1595.33,-207.407"/>
</g>
<!-- Node21&#45;&gt;Node22 -->
<g id="edge34" class="edge"><title>Node21&#45;&gt;Node22</title>
<path fill="none" stroke="midnightblue" d="M2075.58,-353.032C2200.66,-347.405 2541,-329.65 2648.86,-299 2654.56,-297.382 2660.41,-294.953 2665.82,-292.341"/>
<polygon fill="midnightblue" stroke="midnightblue" points="2667.7,-295.305 2674.95,-287.574 2664.46,-289.1 2667.7,-295.305"/>
</g>
<!-- Node23&#45;&gt;Node1 -->
<g id="edge37" class="edge"><title>Node23&#45;&gt;Node1</title>
<path fill="none" stroke="midnightblue" d="M2445.9,-346.299C2414.19,-328.097 2337.59,-285.341 2269.86,-257 2108.83,-189.62 2067.47,-170.925 1896.86,-134 1773.97,-107.401 1627.07,-96.1989 1544.82,-91.7328"/>
<polygon fill="midnightblue" stroke="midnightblue" points="1544.8,-88.2269 1534.63,-91.196 1544.43,-95.2172 1544.8,-88.2269"/>
</g>
<!-- Node23&#45;&gt;Node5 -->
<g id="edge38" class="edge"><title>Node23&#45;&gt;Node5</title>
<path fill="none" stroke="midnightblue" d="M2398.31,-351.012C2260.64,-342.178 1921.06,-320.07 1636.86,-299 1572.12,-294.2 1497.96,-288.176 1447.53,-284"/>
<polygon fill="midnightblue" stroke="midnightblue" points="1447.71,-280.503 1437.45,-283.164 1447.13,-287.479 1447.71,-280.503"/>
</g>
<!-- Node23&#45;&gt;Node18 -->
<g id="edge40" class="edge"><title>Node23&#45;&gt;Node18</title>
<path fill="none" stroke="midnightblue" d="M2427.65,-346.483C2333.93,-322.445 2066.27,-253.796 1944.07,-222.454"/>
<polygon fill="midnightblue" stroke="midnightblue" points="1944.67,-218.995 1934.11,-219.901 1942.93,-225.775 1944.67,-218.995"/>
</g>
<!-- Node23&#45;&gt;Node22 -->
<g id="edge39" class="edge"><title>Node23&#45;&gt;Node22</title>
<path fill="none" stroke="midnightblue" d="M2492.06,-346.42C2537.64,-333.764 2620.12,-310.365 2648.86,-299 2653.88,-297.017 2659.12,-294.637 2664.09,-292.222"/>
<polygon fill="midnightblue" stroke="midnightblue" points="2665.84,-295.259 2673.19,-287.63 2662.69,-289.009 2665.84,-295.259"/>
</g>
<!-- Node23&#45;&gt;Node24 -->
<g id="edge41" class="edge"><title>Node23&#45;&gt;Node24</title>
<path fill="none" stroke="midnightblue" d="M2398.13,-348.651C2260.42,-334.715 1932.21,-301.502 1784.34,-286.537"/>
<polygon fill="midnightblue" stroke="midnightblue" points="1784.32,-283.017 1774.01,-285.492 1783.61,-289.981 1784.32,-283.017"/>
</g>
<!-- Node23&#45;&gt;Node25 -->
<g id="edge42" class="edge"><title>Node23&#45;&gt;Node25</title>
<path fill="none" stroke="midnightblue" d="M2398.18,-351.189C2323.39,-346.754 2194.54,-339.47 2083.86,-335 1507.22,-311.712 1362.34,-326.136 785.863,-299 708.592,-295.363 620.286,-289.265 559.401,-284.756"/>
<polygon fill="midnightblue" stroke="midnightblue" points="559.35,-281.243 549.117,-283.991 558.83,-288.224 559.35,-281.243"/>
</g>
<!-- Node26 -->
<g id="node27" class="node"><title>Node26</title>
<polygon fill="none" stroke="#bfbfbf" points="2529.86,-257.5 2529.86,-298.5 2639.86,-298.5 2639.86,-257.5 2529.86,-257.5"/>
<text text-anchor="start" x="2537.86" y="-286.5" font-family="Helvetica,sans-Serif" font-size="10.00">hydra/detail/external</text>
<text text-anchor="start" x="2537.86" y="-275.5" font-family="Helvetica,sans-Serif" font-size="10.00">/thrust/iterator/iterator</text>
<text text-anchor="middle" x="2584.86" y="-264.5" font-family="Helvetica,sans-Serif" font-size="10.00">_categories.h</text>
</g>
<!-- Node23&#45;&gt;Node26 -->
<g id="edge43" class="edge"><title>Node23&#45;&gt;Node26</title>
<path fill="none" stroke="midnightblue" d="M2475.09,-346.282C2491.91,-335.968 2520.66,-318.353 2544.51,-303.734"/>
<polygon fill="midnightblue" stroke="midnightblue" points="2546.35,-306.712 2553.04,-298.502 2542.69,-300.744 2546.35,-306.712"/>
</g>
<!-- Node27 -->
<g id="node28" class="node"><title>Node27</title>
<polygon fill="none" stroke="#bfbfbf" points="2398.36,-257.5 2398.36,-298.5 2511.36,-298.5 2511.36,-257.5 2398.36,-257.5"/>
<text text-anchor="start" x="2406.36" y="-286.5" font-family="Helvetica,sans-Serif" font-size="10.00">hydra/detail/external</text>
<text text-anchor="start" x="2406.36" y="-275.5" font-family="Helvetica,sans-Serif" font-size="10.00">/thrust/iterator/detail</text>
<text text-anchor="middle" x="2454.86" y="-264.5" font-family="Helvetica,sans-Serif" font-size="10.00">/is_iterator_category.h</text>
</g>
<!-- Node23&#45;&gt;Node27 -->
<g id="edge44" class="edge"><title>Node23&#45;&gt;Node27</title>
<path fill="none" stroke="midnightblue" d="M2460.18,-346.282C2459.46,-337.175 2458.29,-322.376 2457.23,-308.973"/>
<polygon fill="midnightblue" stroke="midnightblue" points="2460.69,-308.352 2456.42,-298.658 2453.71,-308.903 2460.69,-308.352"/>
</g>
<!-- Node28&#45;&gt;Node4 -->
<g id="edge47" class="edge"><title>Node28&#45;&gt;Node4</title>
<path fill="none" stroke="midnightblue" d="M2832.21,-346.384C2833.06,-312.699 2831.21,-189.058 2761.86,-134 2721.21,-101.718 2369.08,-92.2077 2236.8,-89.7596"/>
<polygon fill="midnightblue" stroke="midnightblue" points="2236.61,-86.2557 2226.55,-89.576 2236.48,-93.2546 2236.61,-86.2557"/>
</g>
<!-- Node28&#45;&gt;Node22 -->
<g id="edge46" class="edge"><title>Node28&#45;&gt;Node22</title>
<path fill="none" stroke="midnightblue" d="M2815.74,-346.43C2791.06,-333.316 2743.72,-308.153 2714.36,-292.55"/>
<polygon fill="midnightblue" stroke="midnightblue" points="2715.62,-289.258 2705.15,-287.656 2712.34,-295.439 2715.62,-289.258"/>
</g>
<!-- Node29&#45;&gt;Node1 -->
<g id="edge49" class="edge"><title>Node29&#45;&gt;Node1</title>
<path fill="none" stroke="midnightblue" d="M2611.7,-418.945C2598.14,-410.331 2579.16,-395.66 2570.86,-377 2563.28,-359.944 2559.22,-349.592 2570.86,-335 2615.78,-278.699 2683.95,-355.301 2728.86,-299 2740.5,-284.408 2740.98,-271.196 2728.86,-257 2700.56,-223.846 1997.11,-139.484 1953.86,-134 1807.89,-115.491 1635.7,-100.928 1544.69,-93.7979"/>
<polygon fill="midnightblue" stroke="midnightblue" points="1544.78,-90.2942 1534.54,-93.0069 1544.24,-97.2731 1544.78,-90.2942"/>
</g>
<!-- Node29&#45;&gt;Node4 -->
<g id="edge50" class="edge"><title>Node29&#45;&gt;Node4</title>
<path fill="none" stroke="midnightblue" d="M2643.3,-418.932C2688.69,-394.178 2809.31,-320.29 2761.86,-257 2697.62,-171.306 2364.57,-114.757 2236.82,-95.9248"/>
<polygon fill="midnightblue" stroke="midnightblue" points="2236.94,-92.4059 2226.54,-94.4261 2235.93,-99.3326 2236.94,-92.4059"/>
</g>
<!-- Node29&#45;&gt;Node23 -->
<g id="edge51" class="edge"><title>Node29&#45;&gt;Node23</title>
<path fill="none" stroke="midnightblue" d="M2606.84,-418.996C2577.8,-406.663 2523.81,-383.734 2490.25,-369.482"/>
<polygon fill="midnightblue" stroke="midnightblue" points="2491.53,-366.222 2480.96,-365.534 2488.79,-372.665 2491.53,-366.222"/>
</g>
<!-- Node30 -->
<g id="node31" class="node"><title>Node30</title>
<polygon fill="none" stroke="#bfbfbf" points="1279.36,-268.5 1279.36,-287.5 1320.36,-287.5 1320.36,-268.5 1279.36,-268.5"/>
<text text-anchor="middle" x="1299.86" y="-275.5" font-family="Helvetica,sans-Serif" font-size="10.00">string</text>
</g>
<!-- Node29&#45;&gt;Node30 -->
<g id="edge52" class="edge"><title>Node29&#45;&gt;Node30</title>
<path fill="none" stroke="midnightblue" d="M2586.91,-418.982C2497.35,-400.268 2273.53,-355.6 2083.86,-335 1916.88,-316.863 1488,-352.745 1328.86,-299 1324.93,-297.673 1321.05,-295.646 1317.47,-293.382"/>
<polygon fill="midnightblue" stroke="midnightblue" points="1319.48,-290.517 1309.31,-287.533 1315.4,-296.206 1319.48,-290.517"/>
</g>
<!-- Node31 -->
<g id="node32" class="node"><title>Node31</title>
<polygon fill="none" stroke="#bfbfbf" points="2579.86,-346.5 2579.86,-365.5 2631.86,-365.5 2631.86,-346.5 2579.86,-346.5"/>
<text text-anchor="middle" x="2605.86" y="-353.5" font-family="Helvetica,sans-Serif" font-size="10.00">ostream</text>
</g>
<!-- Node29&#45;&gt;Node31 -->
<g id="edge53" class="edge"><title>Node29&#45;&gt;Node31</title>
<path fill="none" stroke="midnightblue" d="M2624.29,-418.855C2621.08,-408.073 2615.5,-389.35 2611.32,-375.32"/>
<polygon fill="midnightblue" stroke="midnightblue" points="2614.67,-374.3 2608.46,-365.715 2607.96,-376.298 2614.67,-374.3"/>
</g>
<!-- Node32&#45;&gt;Node1 -->
<g id="edge61" class="edge"><title>Node32&#45;&gt;Node1</title>
<path fill="none" stroke="midnightblue" d="M204.775,-418.843C195.7,-409.512 182.338,-393.735 176.863,-377 160.281,-326.31 142.958,-298.169 176.863,-257 275.607,-137.102 366.572,-215.054 519.863,-190 640.644,-170.259 674.686,-185.811 792.863,-154 815.18,-147.993 818.374,-139.325 840.863,-134 895.893,-120.97 1266.38,-100.294 1417.19,-92.3031"/>
<polygon fill="midnightblue" stroke="midnightblue" points="1417.43,-95.7954 1427.23,-91.7726 1417.06,-88.8051 1417.43,-95.7954"/>
</g>
<!-- Node32&#45;&gt;Node4 -->
<g id="edge64" class="edge"><title>Node32&#45;&gt;Node4</title>
<path fill="none" stroke="midnightblue" d="M212.988,-418.956C211.611,-402.171 210.182,-364.007 221.863,-335 238.51,-293.664 246.347,-279.411 284.863,-257 357.854,-214.531 950.845,-142.498 1034.86,-134 1459.9,-91.0118 1976.98,-88.4251 2137.17,-88.7532"/>
<polygon fill="midnightblue" stroke="midnightblue" points="2137.19,-92.2532 2147.2,-88.7787 2137.21,-85.2532 2137.19,-92.2532"/>
</g>
<!-- Node32&#45;&gt;Node7 -->
<g id="edge68" class="edge"><title>Node32&#45;&gt;Node7</title>
<path fill="none" stroke="midnightblue" d="M214.829,-418.993C217.259,-401.254 225.147,-359.901 247.863,-335 302.26,-275.371 333.447,-276.116 411.863,-257 638.691,-201.706 1229.26,-241.147 1461.86,-221 1487.23,-218.803 1515.87,-214.688 1536.66,-211.401"/>
<polygon fill="midnightblue" stroke="midnightblue" points="1537.45,-214.82 1546.76,-209.772 1536.33,-207.909 1537.45,-214.82"/>
</g>
<!-- Node32&#45;&gt;Node11 -->
<g id="edge70" class="edge"><title>Node32&#45;&gt;Node11</title>
<path fill="none" stroke="midnightblue" d="M190.548,-418.909C172.825,-410.997 149.705,-397.37 138.863,-377 98.749,-301.629 114.639,-241.336 182.863,-190 273.718,-121.635 411.544,-99.0111 474.869,-91.9673"/>
<polygon fill="midnightblue" stroke="midnightblue" points="475.508,-95.4196 485.088,-90.8954 474.778,-88.4578 475.508,-95.4196"/>
</g>
<!-- Node32&#45;&gt;Node13 -->
<g id="edge66" class="edge"><title>Node32&#45;&gt;Node13</title>
<path fill="none" stroke="midnightblue" d="M180.36,-418.846C158.971,-411.452 132.739,-398.501 118.863,-377 89.9183,-332.149 102.069,-309.06 113.863,-257 131.225,-180.365 167.987,-163.386 240.863,-134 340.442,-93.8469 369.438,-92.2057 475.863,-78 980.087,-10.6957 1111.62,-63.4756 1619.86,-42 1730.72,-37.3157 1859.82,-30.0809 1934.56,-25.7171"/>
<polygon fill="midnightblue" stroke="midnightblue" points="1934.96,-29.1998 1944.74,-25.121 1934.55,-22.2118 1934.96,-29.1998"/>
</g>
<!-- Node32&#45;&gt;Node14 -->
<g id="edge67" class="edge"><title>Node32&#45;&gt;Node14</title>
<path fill="none" stroke="midnightblue" d="M142.64,-425.602C102.9,-420.784 55.3992,-408.182 24.8633,-377 -6.51177,-344.961 0.863295,-323.843 0.863295,-279 0.863295,-279 0.863295,-279 0.863295,-143 0.863295,-112.205 0.00886954,-96.1825 24.8633,-78 70.3355,-44.7343 885.303,-27.9916 1153.84,-23.3606"/>
<polygon fill="midnightblue" stroke="midnightblue" points="1153.98,-26.8587 1163.92,-23.188 1153.86,-19.8597 1153.98,-26.8587"/>
</g>
<!-- Node32&#45;&gt;Node21 -->
<g id="edge65" class="edge"><title>Node32&#45;&gt;Node21</title>
<path fill="none" stroke="midnightblue" d="M284.911,-425.419C571.252,-417.002 1632.44,-385.53 1782.86,-377 1847.77,-373.319 1922.14,-366.977 1971.96,-362.421"/>
<polygon fill="midnightblue" stroke="midnightblue" points="1972.57,-365.88 1982.21,-361.477 1971.93,-358.909 1972.57,-365.88"/>
</g>
<!-- Node33 -->
<g id="node34" class="node"><title>Node33</title>
<g id="a_node34"><a xlink:href="a00038.html" target="_top" xlink:title="hydra/detail/BackendPolicy.h">
<polygon fill="none" stroke="black" points="487.363,-346.5 487.363,-365.5 630.363,-365.5 630.363,-346.5 487.363,-346.5"/>
<text text-anchor="middle" x="558.863" y="-353.5" font-family="Helvetica,sans-Serif" font-size="10.00">hydra/detail/BackendPolicy.h</text>
</a>
</g>
</g>
<!-- Node32&#45;&gt;Node33 -->
<g id="edge62" class="edge"><title>Node32&#45;&gt;Node33</title>
<path fill="none" stroke="midnightblue" d="M255.478,-418.996C318.551,-406.107 438.258,-381.645 506.941,-367.61"/>
<polygon fill="midnightblue" stroke="midnightblue" points="508.004,-370.965 517.101,-365.534 506.602,-364.107 508.004,-370.965"/>
</g>
<!-- Node34 -->
<g id="node35" class="node"><title>Node34</title>
<polygon fill="none" stroke="#bfbfbf" points="357.363,-346.5 357.363,-365.5 430.363,-365.5 430.363,-346.5 357.363,-346.5"/>
<text text-anchor="middle" x="393.863" y="-353.5" font-family="Helvetica,sans-Serif" font-size="10.00">initializer_list</text>
</g>
<!-- Node32&#45;&gt;Node34 -->
<g id="edge69" class="edge"><title>Node32&#45;&gt;Node34</title>
<path fill="none" stroke="midnightblue" d="M235.576,-418.996C267.199,-406.61 326.11,-383.537 362.461,-369.299"/>
<polygon fill="midnightblue" stroke="midnightblue" points="364.039,-372.44 372.074,-365.534 361.486,-365.922 364.039,-372.44"/>
</g>
<!-- Node35 -->
<g id="node36" class="node"><title>Node35</title>
<polygon fill="none" stroke="#bfbfbf" points="256.863,-346.5 256.863,-365.5 300.863,-365.5 300.863,-346.5 256.863,-346.5"/>
<text text-anchor="middle" x="278.863" y="-353.5" font-family="Helvetica,sans-Serif" font-size="10.00">cmath</text>
</g>
<!-- Node32&#45;&gt;Node35 -->
<g id="edge71" class="edge"><title>Node32&#45;&gt;Node35</title>
<path fill="none" stroke="midnightblue" d="M221.834,-418.855C232.262,-407.544 250.747,-387.496 263.842,-373.292"/>
<polygon fill="midnightblue" stroke="midnightblue" points="266.623,-375.44 270.828,-365.715 261.476,-370.695 266.623,-375.44"/>
</g>
<!-- Node33&#45;&gt;Node25 -->
<g id="edge63" class="edge"><title>Node33&#45;&gt;Node25</title>
<path fill="none" stroke="midnightblue" d="M550.375,-346.282C539.577,-335.192 520.559,-315.661 505.786,-300.489"/>
<polygon fill="midnightblue" stroke="midnightblue" points="507.998,-297.743 498.514,-293.02 502.983,-302.626 507.998,-297.743"/>
</g>
<!-- Node36&#45;&gt;Node1 -->
<g id="edge73" class="edge"><title>Node36&#45;&gt;Node1</title>
<path fill="none" stroke="midnightblue" d="M1109.4,-675.97C1065.19,-668.826 1008.41,-656.105 961.863,-634 778.683,-547.014 644.776,-450.678 704.863,-257 715.566,-222.502 722.895,-212.858 750.863,-190 757.031,-184.959 875.122,-135.879 882.863,-134 933.696,-121.659 1273.26,-100.961 1416.89,-92.6333"/>
<polygon fill="midnightblue" stroke="midnightblue" points="1417.52,-96.103 1427.3,-92.0316 1417.12,-89.1147 1417.52,-96.103"/>
</g>
<!-- Node36&#45;&gt;Node4 -->
<g id="edge75" class="edge"><title>Node36&#45;&gt;Node4</title>
<path fill="none" stroke="midnightblue" d="M1255.22,-680.413C1509.59,-665.503 2342.44,-610.249 2419.86,-522 2432.17,-507.968 2432.35,-493.875 2419.86,-480 2368.89,-423.361 2150.84,-469.011 2078.86,-444 2052.54,-434.853 1986.31,-401.407 1972.86,-377 1963.86,-360.65 1966.32,-352.483 1972.86,-335 1993.68,-279.358 2124.22,-149.584 2170.57,-104.647"/>
<polygon fill="midnightblue" stroke="midnightblue" points="2173.2,-106.97 2177.96,-97.505 2168.34,-101.935 2173.2,-106.97"/>
</g>
<!-- Node36&#45;&gt;Node21 -->
<g id="edge135" class="edge"><title>Node36&#45;&gt;Node21</title>
<path fill="none" stroke="midnightblue" d="M1255.26,-684.359C1519.83,-683.494 2411.19,-677.363 2452.86,-634 2500.29,-584.651 2498.51,-531 2452.86,-480 2404.55,-426.021 2195.21,-473.097 2128.86,-444 2095.38,-429.313 2064.93,-399.338 2046.65,-378.713"/>
<polygon fill="midnightblue" stroke="midnightblue" points="2049.22,-376.334 2040.04,-371.052 2043.93,-380.908 2049.22,-376.334"/>
</g>
<!-- Node36&#45;&gt;Node32 -->
<g id="edge129" class="edge"><title>Node36&#45;&gt;Node32</title>
<path fill="none" stroke="midnightblue" d="M1108.8,-682.874C928.819,-678.419 474.244,-664.282 412.863,-634 331.236,-593.73 343.867,-542.675 277.863,-480 264.187,-467.013 247.409,-453.864 234.463,-444.24"/>
<polygon fill="midnightblue" stroke="midnightblue" points="236.333,-441.272 226.198,-438.186 232.197,-446.919 236.333,-441.272"/>
</g>
<!-- Node36&#45;&gt;Node33 -->
<g id="edge74" class="edge"><title>Node36&#45;&gt;Node33</title>
<path fill="none" stroke="midnightblue" d="M1108.68,-683.255C947.486,-679.891 572.421,-668.419 526.863,-634 502.292,-615.436 502.863,-599.795 502.863,-569 502.863,-569 502.863,-569 502.863,-500 502.863,-451.771 530.823,-400.301 547.23,-374.251"/>
<polygon fill="midnightblue" stroke="midnightblue" points="550.356,-375.863 552.87,-365.571 544.487,-372.049 550.356,-375.863"/>
</g>
<!-- Node36&#45;&gt;Node35 -->
<g id="edge137" class="edge"><title>Node36&#45;&gt;Node35</title>
<path fill="none" stroke="midnightblue" d="M1108.62,-682.276C944.662,-676.834 558.302,-661.262 505.863,-634 389.998,-573.764 311.456,-425.916 286.985,-374.761"/>
<polygon fill="midnightblue" stroke="midnightblue" points="290.116,-373.194 282.703,-365.625 283.778,-376.165 290.116,-373.194"/>
</g>
<!-- Node37 -->
<g id="node38" class="node"><title>Node37</title>
<g id="a_node38"><a xlink:href="a00245.html" target="_top" xlink:title="hydra/GenzMalikRule.h">
<polygon fill="none" stroke="black" points="1039.36,-614.5 1039.36,-633.5 1158.36,-633.5 1158.36,-614.5 1039.36,-614.5"/>
<text text-anchor="middle" x="1098.86" y="-621.5" font-family="Helvetica,sans-Serif" font-size="10.00">hydra/GenzMalikRule.h</text>
</a>
</g>
</g>
<!-- Node36&#45;&gt;Node37 -->
<g id="edge76" class="edge"><title>Node36&#45;&gt;Node37</title>
<path fill="none" stroke="midnightblue" d="M1169.97,-675.975C1156.66,-666.431 1134.86,-650.807 1118.91,-639.368"/>
<polygon fill="midnightblue" stroke="midnightblue" points="1120.9,-636.491 1110.73,-633.509 1116.82,-642.18 1120.9,-636.491"/>
</g>
<!-- Node44 -->
<g id="node45" class="node"><title>Node44</title>
<g id="a_node45"><a xlink:href="a00260.html" target="_top" xlink:title="hydra/multivector.h">
<polygon fill="none" stroke="black" points="1513.86,-558.5 1513.86,-577.5 1613.86,-577.5 1613.86,-558.5 1513.86,-558.5"/>
<text text-anchor="middle" x="1563.86" y="-565.5" font-family="Helvetica,sans-Serif" font-size="10.00">hydra/multivector.h</text>
</a>
</g>
</g>
<!-- Node36&#45;&gt;Node44 -->
<g id="edge130" class="edge"><title>Node36&#45;&gt;Node44</title>
<path fill="none" stroke="midnightblue" d="M1213.83,-675.923C1249.9,-666.154 1310.27,-649.531 1361.86,-634 1420.73,-616.279 1488.67,-594.045 1528.85,-580.709"/>
<polygon fill="midnightblue" stroke="midnightblue" points="1530.06,-583.995 1538.45,-577.518 1527.86,-577.353 1530.06,-583.995"/>
</g>
<!-- Node57 -->
<g id="node58" class="node"><title>Node57</title>
<polygon fill="none" stroke="#bfbfbf" points="1669.86,-558.5 1669.86,-577.5 1725.86,-577.5 1725.86,-558.5 1669.86,-558.5"/>
<text text-anchor="middle" x="1697.86" y="-565.5" font-family="Helvetica,sans-Serif" font-size="10.00">algorithm</text>
</g>
<!-- Node36&#45;&gt;Node57 -->
<g id="edge136" class="edge"><title>Node36&#45;&gt;Node57</title>
<path fill="none" stroke="midnightblue" d="M1220.23,-675.913C1316,-654.475 1564.74,-598.799 1659.99,-577.478"/>
<polygon fill="midnightblue" stroke="midnightblue" points="1660.78,-580.887 1669.78,-575.287 1659.25,-574.056 1660.78,-580.887"/>
</g>
<!-- Node58 -->
<g id="node59" class="node"><title>Node58</title>
<g id="a_node59"><a xlink:href="a00143.html" target="_top" xlink:title="hydra/detail/Integrator.h">
<polygon fill="none" stroke="black" points="759.363,-419 759.363,-438 878.363,-438 878.363,-419 759.363,-419"/>
<text text-anchor="middle" x="818.863" y="-426" font-family="Helvetica,sans-Serif" font-size="10.00">hydra/detail/Integrator.h</text>
</a>
</g>
</g>
<!-- Node36&#45;&gt;Node58 -->
<g id="edge131" class="edge"><title>Node36&#45;&gt;Node58</title>
<path fill="none" stroke="midnightblue" d="M1133.36,-675.964C1074.79,-663.474 976.139,-635.198 911.863,-578 869.174,-540.012 839.059,-477.814 826.05,-447.392"/>
<polygon fill="midnightblue" stroke="midnightblue" points="829.238,-445.94 822.17,-438.048 822.773,-448.625 829.238,-445.94"/>
</g>
<!-- Node59 -->
<g id="node60" class="node"><title>Node59</title>
<polygon fill="none" stroke="#bfbfbf" points="1176.36,-614.5 1176.36,-633.5 1353.36,-633.5 1353.36,-614.5 1176.36,-614.5"/>
<text text-anchor="middle" x="1264.86" y="-621.5" font-family="Helvetica,sans-Serif" font-size="10.00">hydra/detail/GenzMalikQuadrature.inl</text>
</g>
<!-- Node36&#45;&gt;Node59 -->
<g id="edge138" class="edge"><title>Node36&#45;&gt;Node59</title>
<path fill="none" stroke="midnightblue" d="M1193.76,-675.975C1207.07,-666.431 1228.86,-650.807 1244.82,-639.368"/>
<polygon fill="midnightblue" stroke="midnightblue" points="1246.91,-642.18 1252.99,-633.509 1242.83,-636.491 1246.91,-642.18"/>
</g>
<!-- Node37&#45;&gt;Node1 -->
<g id="edge77" class="edge"><title>Node37&#45;&gt;Node1</title>
<path fill="none" stroke="midnightblue" d="M1098.54,-614.159C1098.16,-601.645 1097.71,-578.054 1098.86,-558 1100.87,-523.161 1101.46,-514.305 1107.86,-480 1123.11,-398.298 1144.33,-381.443 1154.86,-299 1157.23,-280.484 1163.6,-273.496 1154.86,-257 1141.54,-231.836 1115.19,-246.164 1101.86,-221 1082.28,-184.02 1102.52,-156.404 1137.86,-134 1182.95,-105.419 1330.82,-94.8327 1416.98,-91.0315"/>
<polygon fill="midnightblue" stroke="midnightblue" points="1417.33,-94.52 1427.18,-90.6008 1417.04,-87.5263 1417.33,-94.52"/>
</g>
<!-- Node37&#45;&gt;Node4 -->
<g id="edge79" class="edge"><title>Node37&#45;&gt;Node4</title>
<path fill="none" stroke="midnightblue" d="M1124.76,-614.385C1144.06,-607.002 1170.21,-594.872 1188.86,-578 1227.09,-543.431 1219.96,-521.247 1250.86,-480 1274.66,-448.247 1280.37,-439.543 1309.86,-413 1354.41,-372.908 1365.58,-360.407 1419.86,-335 1476.49,-308.493 1497.54,-321.527 1555.86,-299 1593.69,-284.39 1598.1,-268.896 1636.86,-257 1767.78,-216.829 1812.31,-262.318 1942.86,-221 2032.08,-192.764 2126.43,-131.347 2166.73,-103.385"/>
<polygon fill="midnightblue" stroke="midnightblue" points="2168.74,-106.25 2174.91,-97.6429 2164.72,-100.518 2168.74,-106.25"/>
</g>
<!-- Node37&#45;&gt;Node6 -->
<g id="edge125" class="edge"><title>Node37&#45;&gt;Node6</title>
<path fill="none" stroke="midnightblue" d="M1099.27,-614.359C1100.55,-591.685 1105.52,-528.87 1122.86,-480 1134.32,-447.739 1141.86,-441.475 1160.86,-413 1172.12,-396.14 1182.29,-396.173 1188.86,-377 1206.34,-326.05 1194.62,-305.824 1171.86,-257 1166.06,-244.546 1156.72,-232.306 1148.64,-222.996"/>
<polygon fill="midnightblue" stroke="midnightblue" points="1151.02,-220.406 1141.71,-215.347 1145.83,-225.107 1151.02,-220.406"/>
</g>
<!-- Node37&#45;&gt;Node7 -->
<g id="edge122" class="edge"><title>Node37&#45;&gt;Node7</title>
<path fill="none" stroke="midnightblue" d="M1102.63,-614.173C1115.05,-585.033 1154.37,-493.016 1160.86,-480 1176.14,-449.363 1178.3,-440.373 1198.86,-413 1227.93,-374.298 1232.46,-358.33 1274.86,-335 1342.91,-297.565 1379.61,-339.521 1445.86,-299 1466.35,-286.47 1461.66,-272.666 1479.86,-257 1497.47,-241.848 1520.24,-228.708 1537.93,-219.633"/>
<polygon fill="midnightblue" stroke="midnightblue" points="1539.78,-222.619 1547.17,-215.022 1536.66,-216.356 1539.78,-222.619"/>
</g>
<!-- Node37&#45;&gt;Node11 -->
<g id="edge124" class="edge"><title>Node37&#45;&gt;Node11</title>
<path fill="none" stroke="midnightblue" d="M1039.2,-615.714C1001.24,-609.401 951.885,-598.01 911.863,-578 828.288,-536.215 803.518,-520.498 749.863,-444 720.318,-401.876 736.23,-379.764 710.863,-335 656.152,-238.451 562.98,-142.004 525.351,-104.907"/>
<polygon fill="midnightblue" stroke="midnightblue" points="527.405,-102.021 517.807,-97.5345 522.512,-107.027 527.405,-102.021"/>
</g>
<!-- Node37&#45;&gt;Node13 -->
<g id="edge118" class="edge"><title>Node37&#45;&gt;Node13</title>
<path fill="none" stroke="midnightblue" d="M1106.16,-614.383C1113.82,-605.333 1126.21,-590.682 1136.86,-578 1228.7,-468.724 1225.01,-409.337 1346.86,-335 1398.04,-303.778 1421.18,-321.227 1476.86,-299 1477.66,-298.681 1844.48,-103.206 1961.47,-40.8643"/>
<polygon fill="midnightblue" stroke="midnightblue" points="1963.23,-43.8908 1970.41,-36.0989 1959.94,-37.7132 1963.23,-43.8908"/>
</g>
<!-- Node37&#45;&gt;Node14 -->
<g id="edge120" class="edge"><title>Node37&#45;&gt;Node14</title>
<path fill="none" stroke="midnightblue" d="M1039.01,-616.79C991.906,-610.595 925.204,-598.897 869.863,-578 823.653,-560.551 810.447,-555.189 773.863,-522 697.944,-453.125 706.051,-412.416 638.863,-335 606.105,-297.255 595.963,-289.345 557.863,-257 463.596,-176.971 260.202,-168.13 344.863,-78 372.326,-48.763 936.367,-30.2748 1154.12,-24.203"/>
<polygon fill="midnightblue" stroke="midnightblue" points="1154.33,-27.6988 1164.23,-23.9233 1154.13,-20.7015 1154.33,-27.6988"/>
</g>
<!-- Node37&#45;&gt;Node20 -->
<g id="edge93" class="edge"><title>Node37&#45;&gt;Node20</title>
<path fill="none" stroke="midnightblue" d="M1158.55,-614.92C1161.36,-614.596 1164.14,-614.288 1166.86,-614 1369.04,-592.655 1427.58,-634.501 1622.86,-578 1641.2,-572.696 1642.45,-563.016 1660.86,-558 1823.78,-513.622 2251.3,-531.932 2419.86,-522 2498.6,-517.361 2589.52,-510.735 2646.85,-506.401"/>
<polygon fill="midnightblue" stroke="midnightblue" points="2647.44,-509.866 2657.15,-505.619 2646.91,-502.886 2647.44,-509.866"/>
</g>
<!-- Node37&#45;&gt;Node21 -->
<g id="edge94" class="edge"><title>Node37&#45;&gt;Node21</title>
<path fill="none" stroke="midnightblue" d="M1151.01,-614.443C1202.3,-605.502 1276.62,-590.993 1302.86,-578 1328.3,-565.408 1471.76,-424.148 1497.86,-413 1519.44,-403.783 1839.18,-374.104 1971.84,-362.105"/>
<polygon fill="midnightblue" stroke="midnightblue" points="1972.55,-365.555 1982.2,-361.17 1971.92,-358.583 1972.55,-365.555"/>
</g>
<!-- Node37&#45;&gt;Node22 -->
<g id="edge121" class="edge"><title>Node37&#45;&gt;Node22</title>
<path fill="none" stroke="midnightblue" d="M1143.3,-614.499C1174.13,-607.467 1215.49,-595.724 1248.86,-578 1352.47,-522.986 1352.6,-470.46 1454.86,-413 1540.21,-365.045 1564.9,-354.372 1660.86,-335 1876.22,-291.527 2435.99,-353.362 2648.86,-299 2654.69,-297.511 2660.66,-295.091 2666.14,-292.439"/>
<polygon fill="midnightblue" stroke="midnightblue" points="2668.16,-295.334 2675.37,-287.569 2664.89,-289.144 2668.16,-295.334"/>
</g>
<!-- Node37&#45;&gt;Node24 -->
<g id="edge119" class="edge"><title>Node37&#45;&gt;Node24</title>
<path fill="none" stroke="midnightblue" d="M1150.34,-614.455C1175.8,-608.026 1205.56,-596.937 1226.86,-578 1263.11,-545.776 1241.73,-515.418 1274.86,-480 1363.14,-385.635 1408.33,-386.454 1526.86,-335 1549.04,-325.375 1605.12,-308.602 1649.4,-295.915"/>
<polygon fill="midnightblue" stroke="midnightblue" points="1650.57,-299.221 1659.23,-293.111 1648.65,-292.49 1650.57,-299.221"/>
</g>
<!-- Node37&#45;&gt;Node33 -->
<g id="edge78" class="edge"><title>Node37&#45;&gt;Node33</title>
<path fill="none" stroke="midnightblue" d="M1039.07,-617.315C924.865,-606.359 686.271,-582.96 678.863,-578 605.444,-528.837 573.111,-419.286 562.788,-375.553"/>
<polygon fill="midnightblue" stroke="midnightblue" points="566.185,-374.703 560.58,-365.711 559.354,-376.235 566.185,-374.703"/>
</g>
<!-- Node37&#45;&gt;Node34 -->
<g id="edge123" class="edge"><title>Node37&#45;&gt;Node34</title>
<path fill="none" stroke="midnightblue" d="M1039.05,-621.396C933.777,-617.846 720.075,-607.187 651.863,-578 540.495,-530.346 441.756,-416.901 407.069,-373.909"/>
<polygon fill="midnightblue" stroke="midnightblue" points="409.623,-371.499 400.657,-365.854 404.146,-375.858 409.623,-371.499"/>
</g>
<!-- Node38 -->
<g id="node39" class="node"><title>Node38</title>
<g id="a_node39"><a xlink:href="a00176.html" target="_top" xlink:title="hydra/detail/Print.h">
<polygon fill="none" stroke="black" points="972.863,-419 972.863,-438 1070.86,-438 1070.86,-419 972.863,-419"/>
<text text-anchor="middle" x="1021.86" y="-426" font-family="Helvetica,sans-Serif" font-size="10.00">hydra/detail/Print.h</text>
</a>
</g>
</g>
<!-- Node37&#45;&gt;Node38 -->
<g id="edge80" class="edge"><title>Node37&#45;&gt;Node38</title>
<path fill="none" stroke="midnightblue" d="M1061.76,-614.458C1042.42,-607.918 1020.44,-596.724 1008.86,-578 983.537,-537.022 1001.91,-477.124 1013.83,-447.485"/>
<polygon fill="midnightblue" stroke="midnightblue" points="1017.16,-448.599 1017.83,-438.026 1010.71,-445.87 1017.16,-448.599"/>
</g>
<!-- Node40 -->
<g id="node41" class="node"><title>Node40</title>
<polygon fill="none" stroke="#bfbfbf" points="794.863,-268.5 794.863,-287.5 832.863,-287.5 832.863,-268.5 794.863,-268.5"/>
<text text-anchor="middle" x="813.863" y="-275.5" font-family="Helvetica,sans-Serif" font-size="10.00">tuple</text>
</g>
<!-- Node37&#45;&gt;Node40 -->
<g id="edge126" class="edge"><title>Node37&#45;&gt;Node40</title>
<path fill="none" stroke="midnightblue" d="M1068.8,-614.395C1023.99,-599.509 944.863,-564.393 944.863,-502 944.863,-502 944.863,-502 944.863,-427.5 944.863,-379.21 920.34,-370.738 887.863,-335 872.828,-318.454 852.349,-303.392 836.747,-293.066"/>
<polygon fill="midnightblue" stroke="midnightblue" points="838.503,-290.034 828.202,-287.559 834.711,-295.918 838.503,-290.034"/>
</g>
<!-- Node37&#45;&gt;Node44 -->
<g id="edge95" class="edge"><title>Node37&#45;&gt;Node44</title>
<path fill="none" stroke="midnightblue" d="M1158.56,-615.035C1161.37,-614.681 1164.14,-614.334 1166.86,-614 1286.12,-599.35 1425.76,-583.922 1503.59,-575.477"/>
<polygon fill="midnightblue" stroke="midnightblue" points="1504.13,-578.939 1513.69,-574.382 1503.37,-571.98 1504.13,-578.939"/>
</g>
<!-- Node48 -->
<g id="node49" class="node"><title>Node48</title>
<polygon fill="none" stroke="#bfbfbf" points="838.863,-346.5 838.863,-365.5 878.863,-365.5 878.863,-346.5 838.863,-346.5"/>
<text text-anchor="middle" x="858.863" y="-353.5" font-family="Helvetica,sans-Serif" font-size="10.00">utility</text>
</g>
<!-- Node37&#45;&gt;Node48 -->
<g id="edge127" class="edge"><title>Node37&#45;&gt;Node48</title>
<path fill="none" stroke="midnightblue" d="M1039.03,-621.449C1003.15,-617.366 959.138,-606.306 930.863,-578 877.227,-524.304 913.75,-483.974 886.863,-413 881.851,-399.77 874.698,-385.517 868.876,-374.701"/>
<polygon fill="midnightblue" stroke="midnightblue" points="871.897,-372.931 864.004,-365.863 865.766,-376.31 871.897,-372.931"/>
</g>
<!-- Node37&#45;&gt;Node57 -->
<g id="edge128" class="edge"><title>Node37&#45;&gt;Node57</title>
<path fill="none" stroke="midnightblue" d="M1158.54,-614.902C1161.35,-614.583 1164.14,-614.28 1166.86,-614 1383.64,-591.694 1440.14,-608.904 1655.86,-578 1657.11,-577.822 1658.37,-577.628 1659.65,-577.421"/>
<polygon fill="midnightblue" stroke="midnightblue" points="1660.28,-580.863 1669.49,-575.633 1659.03,-573.976 1660.28,-580.863"/>
</g>
<!-- Node38&#45;&gt;Node1 -->
<g id="edge90" class="edge"><title>Node38&#45;&gt;Node1</title>
<path fill="none" stroke="midnightblue" d="M1011.19,-418.95C988.669,-400.143 936.825,-352.569 917.863,-299 899.128,-246.071 952.278,-136.099 954.863,-134 972.568,-119.625 1280.79,-100.396 1417.01,-92.5544"/>
<polygon fill="midnightblue" stroke="midnightblue" points="1417.51,-96.0313 1427.3,-91.965 1417.11,-89.0428 1417.51,-96.0313"/>
</g>
<!-- Node38&#45;&gt;Node4 -->
<g id="edge91" class="edge"><title>Node38&#45;&gt;Node4</title>
<path fill="none" stroke="midnightblue" d="M1045.16,-418.944C1065.1,-410.682 1093.57,-396.543 1112.86,-377 1140.53,-348.983 1145.24,-337.178 1154.86,-299 1159.43,-280.9 1163.6,-273.496 1154.86,-257 1141.54,-231.836 1115.19,-246.164 1101.86,-221 1095.41,-208.824 1093.58,-201.011 1101.86,-190 1155.81,-118.281 1207.35,-148.806 1295.86,-134 1459.64,-106.605 1974.12,-93.5318 2136.94,-90.0077"/>
<polygon fill="midnightblue" stroke="midnightblue" points="2137.22,-93.5025 2147.15,-89.7894 2137.07,-86.5041 2137.22,-93.5025"/>
</g>
<!-- Node38&#45;&gt;Node10 -->
<g id="edge92" class="edge"><title>Node38&#45;&gt;Node10</title>
<path fill="none" stroke="midnightblue" d="M1011.36,-418.788C989.547,-401.024 937.218,-360.178 887.863,-335 845.04,-313.153 827.086,-323.734 785.863,-299 724.362,-262.099 723.679,-233.773 666.863,-190 643.425,-171.942 625.241,-179.86 610.863,-154 603.065,-139.975 603.621,-121.477 605.657,-107.802"/>
<polygon fill="midnightblue" stroke="midnightblue" points="609.157,-108.128 607.564,-97.6535 602.277,-106.835 609.157,-108.128"/>
</g>
<!-- Node39 -->
<g id="node40" class="node"><title>Node39</title>
<g id="a_node40"><a xlink:href="a00197.html" target="_top" xlink:title="hydra/detail/utility\l/StreamSTL.h">
<polygon fill="none" stroke="black" points="1011.36,-341 1011.36,-371 1104.36,-371 1104.36,-341 1011.36,-341"/>
<text text-anchor="start" x="1019.36" y="-359" font-family="Helvetica,sans-Serif" font-size="10.00">hydra/detail/utility</text>
<text text-anchor="middle" x="1057.86" y="-348" font-family="Helvetica,sans-Serif" font-size="10.00">/StreamSTL.h</text>
</a>
</g>
</g>
<!-- Node38&#45;&gt;Node39 -->
<g id="edge81" class="edge"><title>Node38&#45;&gt;Node39</title>
<path fill="none" stroke="midnightblue" d="M1026.28,-418.855C1031.17,-409.269 1039.27,-393.407 1046.04,-380.146"/>
<polygon fill="midnightblue" stroke="midnightblue" points="1049.24,-381.574 1050.68,-371.076 1043.01,-378.39 1049.24,-381.574"/>
</g>
<!-- Node39&#45;&gt;Node7 -->
<g id="edge83" class="edge"><title>Node39&#45;&gt;Node7</title>
<path fill="none" stroke="midnightblue" d="M1058.54,-340.945C1060.42,-319.101 1067.48,-277.399 1093.86,-257 1158.87,-206.743 1380.27,-230.675 1461.86,-221 1487.15,-218.002 1515.79,-213.96 1536.61,-210.905"/>
<polygon fill="midnightblue" stroke="midnightblue" points="1537.35,-214.335 1546.73,-209.408 1536.32,-207.41 1537.35,-214.335"/>
</g>
<!-- Node39&#45;&gt;Node10 -->
<g id="edge82" class="edge"><title>Node39&#45;&gt;Node10</title>
<path fill="none" stroke="midnightblue" d="M1017.21,-340.902C988.81,-330.537 950.325,-315.44 917.863,-299 836.117,-257.601 826.237,-228.013 742.863,-190 693.36,-167.43 663.219,-193.554 625.863,-154 614.278,-141.733 610.687,-122.473 609.749,-108.098"/>
<polygon fill="midnightblue" stroke="midnightblue" points="613.241,-107.742 609.464,-97.8434 606.244,-107.937 613.241,-107.742"/>
</g>
<!-- Node39&#45;&gt;Node22 -->
<g id="edge85" class="edge"><title>Node39&#45;&gt;Node22</title>
<path fill="none" stroke="midnightblue" d="M1104.62,-353.354C1367.41,-344.104 2648.86,-299 2648.86,-299 2654.69,-297.515 2660.66,-295.096 2666.15,-292.445"/>
<polygon fill="midnightblue" stroke="midnightblue" points="2668.16,-295.339 2675.37,-287.573 2664.89,-289.15 2668.16,-295.339"/>
</g>
<!-- Node39&#45;&gt;Node30 -->
<g id="edge87" class="edge"><title>Node39&#45;&gt;Node30</title>
<path fill="none" stroke="midnightblue" d="M1102.53,-340.972C1151.11,-325.717 1227.42,-301.75 1269.49,-288.537"/>
<polygon fill="midnightblue" stroke="midnightblue" points="1270.68,-291.835 1279.17,-285.499 1268.58,-285.156 1270.68,-291.835"/>
</g>
<!-- Node39&#45;&gt;Node40 -->
<g id="edge84" class="edge"><title>Node39&#45;&gt;Node40</title>
<path fill="none" stroke="midnightblue" d="M1012.83,-340.972C963.086,-325.479 884.499,-301.001 842.526,-287.928"/>
<polygon fill="midnightblue" stroke="midnightblue" points="843.515,-284.57 832.927,-284.938 841.433,-291.253 843.515,-284.57"/>
</g>
<!-- Node41 -->
<g id="node42" class="node"><title>Node41</title>
<polygon fill="none" stroke="#bfbfbf" points="1103.36,-268.5 1103.36,-287.5 1146.36,-287.5 1146.36,-268.5 1103.36,-268.5"/>
<text text-anchor="middle" x="1124.86" y="-275.5" font-family="Helvetica,sans-Serif" font-size="10.00">cstdio</text>
</g>
<!-- Node39&#45;&gt;Node41 -->
<g id="edge86" class="edge"><title>Node39&#45;&gt;Node41</title>
<path fill="none" stroke="midnightblue" d="M1070.47,-340.705C1081.89,-327.744 1098.72,-308.656 1110.63,-295.148"/>
<polygon fill="midnightblue" stroke="midnightblue" points="1113.33,-297.379 1117.31,-287.564 1108.08,-292.75 1113.33,-297.379"/>
</g>
<!-- Node42 -->
<g id="node43" class="node"><title>Node42</title>
<polygon fill="none" stroke="#bfbfbf" points="927.363,-268.5 927.363,-287.5 976.363,-287.5 976.363,-268.5 927.363,-268.5"/>
<text text-anchor="middle" x="951.863" y="-275.5" font-family="Helvetica,sans-Serif" font-size="10.00">cassert</text>
</g>
<!-- Node39&#45;&gt;Node42 -->
<g id="edge88" class="edge"><title>Node39&#45;&gt;Node42</title>
<path fill="none" stroke="midnightblue" d="M1037.93,-340.705C1019.08,-327.193 990.95,-307.024 972.03,-293.459"/>
<polygon fill="midnightblue" stroke="midnightblue" points="973.974,-290.546 963.807,-287.564 969.895,-296.235 973.974,-290.546"/>
</g>
<!-- Node43 -->
<g id="node44" class="node"><title>Node43</title>
<polygon fill="none" stroke="#bfbfbf" points="994.863,-268.5 994.863,-287.5 1046.86,-287.5 1046.86,-268.5 994.863,-268.5"/>
<text text-anchor="middle" x="1020.86" y="-275.5" font-family="Helvetica,sans-Serif" font-size="10.00">memory</text>
</g>
<!-- Node39&#45;&gt;Node43 -->
<g id="edge89" class="edge"><title>Node39&#45;&gt;Node43</title>
<path fill="none" stroke="midnightblue" d="M1050.9,-340.705C1044.83,-328.233 1036,-310.088 1029.48,-296.701"/>
<polygon fill="midnightblue" stroke="midnightblue" points="1032.56,-295.023 1025.03,-287.564 1026.26,-298.087 1032.56,-295.023"/>
</g>
<!-- Node44&#45;&gt;Node1 -->
<g id="edge96" class="edge"><title>Node44&#45;&gt;Node1</title>
<path fill="none" stroke="midnightblue" d="M1513.82,-560.075C1490.59,-554.077 1465.03,-542.885 1450.86,-522 1440.39,-506.551 1448.04,-498.452 1450.86,-480 1455.58,-449.153 1458.04,-440.977 1471.86,-413 1490.65,-374.971 1501.32,-368.867 1526.86,-335 1539.23,-318.596 1544.85,-316.345 1555.86,-299 1576.53,-266.446 1585.2,-258.575 1593.86,-221 1596.96,-207.575 1599.49,-202.576 1593.86,-190 1575.91,-149.864 1533.24,-119.09 1505.78,-102.558"/>
<polygon fill="midnightblue" stroke="midnightblue" points="1507.51,-99.5149 1497.11,-97.5046 1503.98,-105.563 1507.51,-99.5149"/>
</g>
<!-- Node44&#45;&gt;Node7 -->
<g id="edge117" class="edge"><title>Node44&#45;&gt;Node7</title>
<path fill="none" stroke="midnightblue" d="M1513.75,-563.536C1457.36,-558.473 1370.98,-546.807 1350.86,-522 1297.45,-456.123 1326.64,-392.628 1388.86,-335 1420.77,-305.446 1443.95,-323.532 1479.86,-299 1510.8,-277.872 1538.74,-243.75 1553.91,-223.385"/>
<polygon fill="midnightblue" stroke="midnightblue" points="1556.89,-225.237 1559.95,-215.093 1551.23,-221.118 1556.89,-225.237"/>
</g>
<!-- Node44&#45;&gt;Node13 -->
<g id="edge112" class="edge"><title>Node44&#45;&gt;Node13</title>
<path fill="none" stroke="midnightblue" d="M1613.89,-558.583C1615.57,-558.374 1617.23,-558.179 1618.86,-558 1689.66,-550.238 2209.94,-573.758 2258.86,-522 2271.69,-508.435 2271.05,-494.141 2258.86,-480 2188.17,-397.959 2116.35,-489.047 2017.86,-444 1976.3,-424.991 1958.94,-418.529 1939.86,-377 1912.42,-317.245 1968.75,-115.401 1989.56,-45.8154"/>
<polygon fill="midnightblue" stroke="midnightblue" points="1992.93,-46.7664 1992.46,-36.1816 1986.22,-44.7442 1992.93,-46.7664"/>
</g>
<!-- Node44&#45;&gt;Node20 -->
<g id="edge98" class="edge"><title>Node44&#45;&gt;Node20</title>
<path fill="none" stroke="midnightblue" d="M1614.12,-559.477C1618.76,-558.92 1623.39,-558.415 1627.86,-558 1978.72,-525.43 2068.09,-542.378 2419.86,-522 2498.6,-517.439 2589.52,-510.793 2646.85,-506.434"/>
<polygon fill="midnightblue" stroke="midnightblue" points="2647.44,-509.899 2657.15,-505.648 2646.91,-502.919 2647.44,-509.899"/>
</g>
<!-- Node44&#45;&gt;Node24 -->
<g id="edge115" class="edge"><title>Node44&#45;&gt;Node24</title>
<path fill="none" stroke="midnightblue" d="M1515.81,-558.458C1494.92,-552.101 1472.39,-541.074 1459.86,-522 1449.61,-506.398 1455.1,-498.049 1459.86,-480 1485.15,-384.152 1596.13,-324.418 1661.42,-296.916"/>
<polygon fill="midnightblue" stroke="midnightblue" points="1662.79,-300.136 1670.7,-293.091 1660.12,-293.663 1662.79,-300.136"/>
</g>
<!-- Node44&#45;&gt;Node33 -->
<g id="edge97" class="edge"><title>Node44&#45;&gt;Node33</title>
<path fill="none" stroke="midnightblue" d="M1513.73,-564.262C1384.61,-556.18 1031.07,-527.517 749.863,-444 687.284,-425.415 618.75,-390.233 583.245,-370.787"/>
<polygon fill="midnightblue" stroke="midnightblue" points="584.583,-367.527 574.139,-365.746 581.193,-373.652 584.583,-367.527"/>
</g>
<!-- Node45 -->
<g id="node46" class="node"><title>Node45</title>
<g id="a_node46"><a xlink:href="a00071.html" target="_top" xlink:title="hydra/detail/functors\l/Caster.h">
<polygon fill="none" stroke="black" points="2145.36,-486 2145.36,-516 2250.36,-516 2250.36,-486 2145.36,-486"/>
<text text-anchor="start" x="2153.36" y="-504" font-family="Helvetica,sans-Serif" font-size="10.00">hydra/detail/functors</text>
<text text-anchor="middle" x="2197.86" y="-493" font-family="Helvetica,sans-Serif" font-size="10.00">/Caster.h</text>
</a>
</g>
</g>
<!-- Node44&#45;&gt;Node45 -->
<g id="edge99" class="edge"><title>Node44&#45;&gt;Node45</title>
<path fill="none" stroke="midnightblue" d="M1614.13,-559.597C1618.77,-559.015 1623.4,-558.471 1627.86,-558 1852.96,-534.226 1913.65,-565.057 2135.86,-522 2140.29,-521.142 2144.85,-520.065 2149.38,-518.86"/>
<polygon fill="midnightblue" stroke="midnightblue" points="2150.56,-522.163 2159.21,-516.048 2148.63,-515.432 2150.56,-522.163"/>
</g>
<!-- Node47 -->
<g id="node48" class="node"><title>Node47</title>
<g id="a_node48"><a xlink:href="a00302.html" target="_top" xlink:title="hydra/Tuple.h">
<polygon fill="none" stroke="black" points="1702.86,-419 1702.86,-438 1778.86,-438 1778.86,-419 1702.86,-419"/>
<text text-anchor="middle" x="1740.86" y="-426" font-family="Helvetica,sans-Serif" font-size="10.00">hydra/Tuple.h</text>
</a>
</g>
</g>
<!-- Node44&#45;&gt;Node47 -->
<g id="edge102" class="edge"><title>Node44&#45;&gt;Node47</title>
<path fill="none" stroke="midnightblue" d="M1567.75,-558.401C1575.87,-541.296 1596.21,-502.698 1623.86,-480 1645.79,-462.008 1675.09,-449.372 1698.89,-441.24"/>
<polygon fill="midnightblue" stroke="midnightblue" points="1700.29,-444.462 1708.71,-438.028 1698.12,-437.809 1700.29,-444.462"/>
</g>
<!-- Node50 -->
<g id="node51" class="node"><title>Node50</title>
<g id="a_node51"><a xlink:href="a00281.html" target="_top" xlink:title="hydra/Placeholders.h">
<polygon fill="none" stroke="black" points="1468.86,-491.5 1468.86,-510.5 1576.86,-510.5 1576.86,-491.5 1468.86,-491.5"/>
<text text-anchor="middle" x="1522.86" y="-498.5" font-family="Helvetica,sans-Serif" font-size="10.00">hydra/Placeholders.h</text>
</a>
</g>
</g>
<!-- Node44&#45;&gt;Node50 -->
<g id="edge107" class="edge"><title>Node44&#45;&gt;Node50</title>
<path fill="none" stroke="midnightblue" d="M1558.33,-558.234C1552.06,-548.293 1541.68,-531.838 1533.77,-519.289"/>
<polygon fill="midnightblue" stroke="midnightblue" points="1536.6,-517.218 1528.31,-510.627 1530.68,-520.953 1536.6,-517.218"/>
</g>
<!-- Node52 -->
<g id="node53" class="node"><title>Node52</title>
<polygon fill="none" stroke="#bfbfbf" points="1632.86,-480.5 1632.86,-521.5 1736.86,-521.5 1736.86,-480.5 1632.86,-480.5"/>
<text text-anchor="start" x="1640.86" y="-509.5" font-family="Helvetica,sans-Serif" font-size="10.00">hydra/detail/external</text>
<text text-anchor="start" x="1640.86" y="-498.5" font-family="Helvetica,sans-Serif" font-size="10.00">/thrust/iterator/zip</text>
<text text-anchor="middle" x="1684.86" y="-487.5" font-family="Helvetica,sans-Serif" font-size="10.00">_iterator.h</text>
</g>
<!-- Node44&#45;&gt;Node52 -->
<g id="edge110" class="edge"><title>Node44&#45;&gt;Node52</title>
<path fill="none" stroke="midnightblue" d="M1580.18,-558.234C1595.35,-550.084 1618.68,-537.555 1639.46,-526.39"/>
<polygon fill="midnightblue" stroke="midnightblue" points="1641.33,-529.358 1648.48,-521.542 1638.02,-523.191 1641.33,-529.358"/>
</g>
<!-- Node53 -->
<g id="node54" class="node"><title>Node53</title>
<polygon fill="none" stroke="#bfbfbf" points="1754.86,-480.5 1754.86,-521.5 1864.86,-521.5 1864.86,-480.5 1754.86,-480.5"/>
<text text-anchor="start" x="1762.86" y="-509.5" font-family="Helvetica,sans-Serif" font-size="10.00">hydra/detail/external</text>
<text text-anchor="start" x="1762.86" y="-498.5" font-family="Helvetica,sans-Serif" font-size="10.00">/thrust/iterator/iterator</text>
<text text-anchor="middle" x="1809.86" y="-487.5" font-family="Helvetica,sans-Serif" font-size="10.00">_traits.h</text>
</g>
<!-- Node44&#45;&gt;Node53 -->
<g id="edge111" class="edge"><title>Node44&#45;&gt;Node53</title>
<path fill="none" stroke="midnightblue" d="M1601.33,-558.435C1636.16,-550.319 1689.68,-537.454 1744.82,-522.219"/>
<polygon fill="midnightblue" stroke="midnightblue" points="1746.07,-525.504 1754.77,-519.449 1744.2,-518.76 1746.07,-525.504"/>
</g>
<!-- Node54 -->
<g id="node55" class="node"><title>Node54</title>
<polygon fill="none" stroke="#bfbfbf" points="1882.86,-486 1882.86,-516 1986.86,-516 1986.86,-486 1882.86,-486"/>
<text text-anchor="start" x="1890.86" y="-504" font-family="Helvetica,sans-Serif" font-size="10.00">hydra/detail/external</text>
<text text-anchor="middle" x="1934.86" y="-493" font-family="Helvetica,sans-Serif" font-size="10.00">/thrust/logical.h</text>
</g>
<!-- Node44&#45;&gt;Node54 -->
<g id="edge113" class="edge"><title>Node44&#45;&gt;Node54</title>
<path fill="none" stroke="midnightblue" d="M1613.88,-559.97C1698.35,-548.064 1861.35,-524.935 1873.86,-522 1877.72,-521.095 1881.68,-520.056 1885.65,-518.937"/>
<polygon fill="midnightblue" stroke="midnightblue" points="1886.85,-522.229 1895.44,-516.023 1884.86,-515.519 1886.85,-522.229"/>
</g>
<!-- Node44&#45;&gt;Node55 -->
<g id="edge114" class="edge"><title>Node44&#45;&gt;Node55</title>
<path fill="none" stroke="midnightblue" d="M1614.12,-559.518C1618.76,-558.952 1623.4,-558.434 1627.86,-558 1922.46,-529.365 2001.35,-573.289 2292.86,-522 2297.89,-521.115 2303.08,-519.97 2308.23,-518.675"/>
<polygon fill="midnightblue" stroke="midnightblue" points="2309.3,-522.013 2318.04,-516.032 2307.47,-515.254 2309.3,-522.013"/>
</g>
<!-- Node56 -->
<g id="node57" class="node"><title>Node56</title>
<polygon fill="none" stroke="#bfbfbf" points="2004.86,-480.5 2004.86,-521.5 2126.86,-521.5 2126.86,-480.5 2004.86,-480.5"/>
<text text-anchor="start" x="2012.86" y="-509.5" font-family="Helvetica,sans-Serif" font-size="10.00">hydra/detail/external</text>
<text text-anchor="start" x="2012.86" y="-498.5" font-family="Helvetica,sans-Serif" font-size="10.00">/thrust/iterator/transform</text>
<text text-anchor="middle" x="2065.86" y="-487.5" font-family="Helvetica,sans-Serif" font-size="10.00">_iterator.h</text>
</g>
<!-- Node44&#45;&gt;Node56 -->
<g id="edge116" class="edge"><title>Node44&#45;&gt;Node56</title>
<path fill="none" stroke="midnightblue" d="M1614.15,-559.725C1618.78,-559.116 1623.41,-558.531 1627.86,-558 1787.7,-538.952 1832.59,-552.133 1994.24,-522.137"/>
<polygon fill="midnightblue" stroke="midnightblue" points="1995.37,-525.486 2004.55,-520.195 1994.08,-518.606 1995.37,-525.486"/>
</g>
<!-- Node45&#45;&gt;Node1 -->
<g id="edge100" class="edge"><title>Node45&#45;&gt;Node1</title>
<path fill="none" stroke="midnightblue" d="M2157.43,-485.965C2150.3,-483.775 2142.9,-481.683 2135.86,-480 2036.51,-456.249 1995,-498.915 1908.86,-444 1824.36,-390.124 1845.78,-335.002 1782.86,-257 1735.3,-198.037 1730.49,-171.838 1664.86,-134 1628.14,-112.83 1581.76,-101.57 1544.75,-95.6079"/>
<polygon fill="midnightblue" stroke="midnightblue" points="1544.99,-92.1039 1534.58,-94.0629 1543.94,-99.0246 1544.99,-92.1039"/>
</g>
<!-- Node46 -->
<g id="node47" class="node"><title>Node46</title>
<polygon fill="none" stroke="#bfbfbf" points="1797.36,-419 1797.36,-438 1856.36,-438 1856.36,-419 1797.36,-419"/>
<text text-anchor="middle" x="1826.86" y="-426" font-family="Helvetica,sans-Serif" font-size="10.00">functional</text>
</g>
<!-- Node45&#45;&gt;Node46 -->
<g id="edge101" class="edge"><title>Node45&#45;&gt;Node46</title>
<path fill="none" stroke="midnightblue" d="M2157.8,-485.935C2150.56,-483.721 2143.03,-481.63 2135.86,-480 2019.96,-453.652 1986.68,-470.713 1870.86,-444 1867.39,-443.198 1863.8,-442.24 1860.23,-441.202"/>
<polygon fill="midnightblue" stroke="midnightblue" points="1860.97,-437.767 1850.39,-438.134 1858.89,-444.45 1860.97,-437.767"/>
</g>
<!-- Node47&#45;&gt;Node13 -->
<g id="edge104" class="edge"><title>Node47&#45;&gt;Node13</title>
<path fill="none" stroke="midnightblue" d="M1750.46,-418.811C1760.18,-409.456 1774.88,-393.657 1782.86,-377 1819.53,-300.527 1779.86,-264.241 1820.86,-190 1856.82,-124.89 1926.58,-69.8685 1966.63,-41.8601"/>
<polygon fill="midnightblue" stroke="midnightblue" points="1968.69,-44.6915 1974.94,-36.1377 1964.72,-38.926 1968.69,-44.6915"/>
</g>
<!-- Node47&#45;&gt;Node21 -->
<g id="edge106" class="edge"><title>Node47&#45;&gt;Node21</title>
<path fill="none" stroke="midnightblue" d="M1767.61,-418.889C1774.21,-416.865 1781.27,-414.781 1787.86,-413 1850.52,-396.078 1923.17,-379.624 1972.18,-368.98"/>
<polygon fill="midnightblue" stroke="midnightblue" points="1972.93,-372.399 1981.97,-366.865 1971.45,-365.557 1972.93,-372.399"/>
</g>
<!-- Node47&#45;&gt;Node48 -->
<g id="edge103" class="edge"><title>Node47&#45;&gt;Node48</title>
<path fill="none" stroke="midnightblue" d="M1702.46,-420.081C1687.64,-417.465 1670.51,-414.745 1654.86,-413 1365.99,-380.787 1291.16,-405.155 1001.86,-377 962.754,-373.194 917.925,-366.55 889.044,-361.971"/>
<polygon fill="midnightblue" stroke="midnightblue" points="889.593,-358.515 879.165,-360.387 888.484,-365.426 889.593,-358.515"/>
</g>
<!-- Node49 -->
<g id="node50" class="node"><title>Node49</title>
<polygon fill="none" stroke="#bfbfbf" points="1669.86,-335.5 1669.86,-376.5 1773.86,-376.5 1773.86,-335.5 1669.86,-335.5"/>
<text text-anchor="start" x="1677.86" y="-364.5" font-family="Helvetica,sans-Serif" font-size="10.00">hydra/detail/external</text>
<text text-anchor="start" x="1677.86" y="-353.5" font-family="Helvetica,sans-Serif" font-size="10.00">/thrust/detail/tuple</text>
<text text-anchor="middle" x="1721.86" y="-342.5" font-family="Helvetica,sans-Serif" font-size="10.00">/tuple.h</text>
</g>
<!-- Node47&#45;&gt;Node49 -->
<g id="edge105" class="edge"><title>Node47&#45;&gt;Node49</title>
<path fill="none" stroke="midnightblue" d="M1738.53,-418.855C1736.36,-410.779 1732.98,-398.247 1729.83,-386.57"/>
<polygon fill="midnightblue" stroke="midnightblue" points="1733.14,-385.406 1727.16,-376.662 1726.39,-387.228 1733.14,-385.406"/>
</g>
<!-- Node50&#45;&gt;Node24 -->
<g id="edge108" class="edge"><title>Node50&#45;&gt;Node24</title>
<path fill="none" stroke="midnightblue" d="M1546.75,-491.426C1582.97,-478.201 1648.28,-453.371 1654.86,-444 1682.75,-404.296 1642.56,-379.931 1660.86,-335 1666.17,-321.973 1675.83,-309.896 1685.18,-300.318"/>
<polygon fill="midnightblue" stroke="midnightblue" points="1687.77,-302.676 1692.52,-293.202 1682.9,-297.65 1687.77,-302.676"/>
</g>
<!-- Node51 -->
<g id="node52" class="node"><title>Node51</title>
<polygon fill="none" stroke="#bfbfbf" points="1507.36,-419 1507.36,-438 1646.36,-438 1646.36,-419 1507.36,-419"/>
<text text-anchor="middle" x="1576.86" y="-426" font-family="Helvetica,sans-Serif" font-size="10.00">hydra/detail/Placeholders.inl</text>
</g>
<!-- Node50&#45;&gt;Node51 -->
<g id="edge109" class="edge"><title>Node50&#45;&gt;Node51</title>
<path fill="none" stroke="midnightblue" d="M1529.48,-491.355C1538.07,-480.15 1553.22,-460.37 1564.08,-446.192"/>
<polygon fill="midnightblue" stroke="midnightblue" points="1566.89,-448.282 1570.19,-438.215 1561.33,-444.026 1566.89,-448.282"/>
</g>
<!-- Node58&#45;&gt;Node1 -->
<g id="edge132" class="edge"><title>Node58&#45;&gt;Node1</title>
<path fill="none" stroke="midnightblue" d="M812.794,-418.842C801.008,-402.178 773.972,-364.67 748.863,-335 734.646,-318.2 722.994,-319.451 714.863,-299 707.967,-281.654 705.312,-273.038 714.863,-257 744.219,-207.705 886.884,-150.402 941.863,-134 986.37,-120.722 1284.01,-101.09 1416.95,-92.8559"/>
<polygon fill="midnightblue" stroke="midnightblue" points="1417.23,-96.3453 1426.99,-92.2359 1416.8,-89.3586 1417.23,-96.3453"/>
</g>
<!-- Node58&#45;&gt;Node4 -->
<g id="edge133" class="edge"><title>Node58&#45;&gt;Node4</title>
<path fill="none" stroke="midnightblue" d="M815.481,-418.692C803.805,-387.635 766.928,-283.675 785.863,-257 833.827,-189.433 1056.49,-149.61 1137.86,-134 1333.01,-96.566 1956.59,-90.2545 2137.33,-89.2057"/>
<polygon fill="midnightblue" stroke="midnightblue" points="2137.37,-92.7056 2147.35,-89.1504 2137.33,-85.7058 2137.37,-92.7056"/>
</g>
<!-- Node58&#45;&gt;Node48 -->
<g id="edge134" class="edge"><title>Node58&#45;&gt;Node48</title>
<path fill="none" stroke="midnightblue" d="M823.768,-418.855C830.006,-407.862 840.927,-388.613 848.934,-374.501"/>
<polygon fill="midnightblue" stroke="midnightblue" points="852.028,-376.14 853.918,-365.715 845.939,-372.686 852.028,-376.14"/>
</g>
<!-- Node60&#45;&gt;Node1 -->
<g id="edge141" class="edge"><title>Node60&#45;&gt;Node1</title>
<path fill="none" stroke="midnightblue" d="M2318.19,-413.377C2257.83,-381.163 2106.67,-299.002 1985.86,-221 1966.07,-208.221 1963.8,-200.794 1942.86,-190 1874.03,-154.52 1853.11,-152.317 1777.86,-134 1698.59,-114.702 1605.28,-102.185 1544.71,-95.3677"/>
<polygon fill="midnightblue" stroke="midnightblue" points="1544.85,-91.8628 1534.53,-94.2416 1544.08,-98.8203 1544.85,-91.8628"/>
</g>
<!-- Node60&#45;&gt;Node4 -->
<g id="edge142" class="edge"><title>Node60&#45;&gt;Node4</title>
<path fill="none" stroke="midnightblue" d="M2337.16,-413.426C2331.68,-403.337 2324.19,-389.396 2317.86,-377 2266.75,-276.912 2213.66,-152.851 2194.4,-107.065"/>
<polygon fill="midnightblue" stroke="midnightblue" points="2197.54,-105.485 2190.44,-97.6154 2191.08,-108.191 2197.54,-105.485"/>
</g>
<!-- Node60&#45;&gt;Node13 -->
<g id="edge144" class="edge"><title>Node60&#45;&gt;Node13</title>
<path fill="none" stroke="midnightblue" d="M2346.43,-413.4C2350.85,-376.306 2364.72,-277.451 2388.86,-257 2458.82,-197.74 2722.73,-270.561 2799.86,-221 2855.19,-185.451 2882.79,-126.02 2837.86,-78 2784.97,-21.4682 2244.82,-20.133 2059.15,-21.3687"/>
<polygon fill="midnightblue" stroke="midnightblue" points="2058.97,-17.8697 2049,-21.4412 2059.03,-24.8696 2058.97,-17.8697"/>
</g>
<!-- Node60&#45;&gt;Node14 -->
<g id="edge146" class="edge"><title>Node60&#45;&gt;Node14</title>
<path fill="none" stroke="midnightblue" d="M2345.57,-413.365C2347.43,-359.04 2346.01,-162.506 2234.86,-78 2196.66,-48.9575 1419.63,-46.5745 1371.86,-42 1356.32,-40.5118 1339.83,-38.4369 1323.94,-36.1832"/>
<polygon fill="midnightblue" stroke="midnightblue" points="1324,-32.6554 1313.6,-34.6808 1322.99,-39.5826 1324,-32.6554"/>
</g>
<!-- Node60&#45;&gt;Node21 -->
<g id="edge143" class="edge"><title>Node60&#45;&gt;Node21</title>
<path fill="none" stroke="midnightblue" d="M2294.13,-419.322C2242.38,-410.543 2159.93,-395.353 2089.86,-377 2086.31,-376.07 2082.67,-375.048 2079.01,-373.973"/>
<polygon fill="midnightblue" stroke="midnightblue" points="2079.93,-370.597 2069.35,-371.033 2077.89,-377.294 2079.93,-370.597"/>
</g>
<!-- Node60&#45;&gt;Node24 -->
<g id="edge145" class="edge"><title>Node60&#45;&gt;Node24</title>
<path fill="none" stroke="midnightblue" d="M2305.41,-413.409C2233.85,-387.864 2089.47,-336.399 2083.86,-335 1981.45,-309.436 1860.15,-293.894 1784.09,-285.869"/>
<polygon fill="midnightblue" stroke="midnightblue" points="1784.43,-282.385 1774.12,-284.833 1783.71,-289.348 1784.43,-282.385"/>
</g>
<!-- Node61&#45;&gt;Node1 -->
<g id="edge149" class="edge"><title>Node61&#45;&gt;Node1</title>
<path fill="none" stroke="midnightblue" d="M3043.04,-614.426C3082.37,-598.751 3155.86,-561.5 3155.86,-502 3155.86,-502 3155.86,-502 3155.86,-355 3155.86,-249.581 3040.22,-289.268 2939.86,-257 2613.28,-151.993 2519.28,-167.477 2177.86,-134 1945.39,-111.205 1668.12,-97.2354 1545.1,-91.7164"/>
<polygon fill="midnightblue" stroke="midnightblue" points="1544.89,-88.2036 1534.74,-91.2554 1544.58,-95.1967 1544.89,-88.2036"/>
</g>
<!-- Node61&#45;&gt;Node4 -->
<g id="edge150" class="edge"><title>Node61&#45;&gt;Node4</title>
<path fill="none" stroke="midnightblue" d="M3079.05,-614.883C3142.03,-602.607 3231.86,-572.705 3231.86,-502 3231.86,-502 3231.86,-502 3231.86,-427.5 3231.86,-346.868 3223.42,-317.275 3169.86,-257 3125.9,-207.522 3098.27,-214.709 3036.86,-190 2958.35,-158.406 2938.08,-149.391 2854.86,-134 2626.77,-91.8146 2348.36,-88.0539 2236.69,-88.4461"/>
<polygon fill="midnightblue" stroke="midnightblue" points="2236.39,-84.9474 2226.41,-88.4958 2236.43,-91.9473 2236.39,-84.9474"/>
</g>
<!-- Node61&#45;&gt;Node20 -->
<g id="edge151" class="edge"><title>Node61&#45;&gt;Node20</title>
<path fill="none" stroke="midnightblue" d="M2989.84,-614.478C2961.52,-605.961 2917.37,-592.132 2879.86,-578 2832.32,-560.085 2778.9,-536.513 2743.51,-520.4"/>
<polygon fill="midnightblue" stroke="midnightblue" points="2744.58,-517.039 2734.03,-516.064 2741.67,-523.405 2744.58,-517.039"/>
</g>
<!-- Node61&#45;&gt;Node22 -->
<g id="edge148" class="edge"><title>Node61&#45;&gt;Node22</title>
<path fill="none" stroke="midnightblue" d="M3023.17,-614.099C3028.69,-601.513 3036.97,-577.837 3031.86,-558 3003.64,-448.388 2998.42,-404.218 2908.86,-335 2856.39,-294.443 2777.84,-283.008 2730.18,-279.933"/>
<polygon fill="midnightblue" stroke="midnightblue" points="2730.09,-276.423 2719.91,-279.37 2729.71,-283.413 2730.09,-276.423"/>
</g>
<!-- Node62 -->
<g id="node63" class="node"><title>Node62</title>
<g id="a_node63"><a xlink:href="a00041.html" target="_top" xlink:title="hydra/detail/base_functor.h">
<polygon fill="none" stroke="black" points="2888.86,-558.5 2888.86,-577.5 3022.86,-577.5 3022.86,-558.5 2888.86,-558.5"/>
<text text-anchor="middle" x="2955.86" y="-565.5" font-family="Helvetica,sans-Serif" font-size="10.00">hydra/detail/base_functor.h</text>
</a>
</g>
</g>
<!-- Node61&#45;&gt;Node62 -->
<g id="edge152" class="edge"><title>Node61&#45;&gt;Node62</title>
<path fill="none" stroke="midnightblue" d="M3008.74,-614.324C2999.34,-606.263 2985.12,-594.077 2973.79,-584.369"/>
<polygon fill="midnightblue" stroke="midnightblue" points="2976.04,-581.684 2966.17,-577.834 2971.48,-586.999 2976.04,-581.684"/>
</g>
<!-- Node62&#45;&gt;Node1 -->
<g id="edge154" class="edge"><title>Node62&#45;&gt;Node1</title>
<path fill="none" stroke="midnightblue" d="M2956.66,-558.318C2959.2,-525.34 2964.03,-406.112 2908.86,-335 2860.13,-272.176 2822.42,-284.638 2747.86,-257 2450.86,-146.896 2360.98,-166.183 2045.86,-134 1864.44,-115.471 1649.59,-100.186 1544.79,-93.1586"/>
<polygon fill="midnightblue" stroke="midnightblue" points="1544.9,-89.6584 1534.69,-92.4842 1544.43,-96.6428 1544.9,-89.6584"/>
</g>
<!-- Node62&#45;&gt;Node4 -->
<g id="edge155" class="edge"><title>Node62&#45;&gt;Node4</title>
<path fill="none" stroke="midnightblue" d="M2976.09,-558.495C2990.63,-551.168 3009.16,-539.063 3017.86,-522 3055.61,-447.957 3046.34,-413.08 3017.86,-335 2974.47,-216.016 2935.22,-176.365 2815.86,-134 2709.38,-96.2052 2365.7,-90.1029 2236.54,-89.1569"/>
<polygon fill="midnightblue" stroke="midnightblue" points="2236.55,-85.657 2226.53,-89.0909 2236.5,-92.6569 2236.55,-85.657"/>
</g>
<!-- Node62&#45;&gt;Node13 -->
<g id="edge159" class="edge"><title>Node62&#45;&gt;Node13</title>
<path fill="none" stroke="midnightblue" d="M2979.64,-558.485C2997.98,-551.019 3023.14,-538.736 3040.86,-522 3160.05,-409.472 3231.86,-370.416 3231.86,-206.5 3231.86,-206.5 3231.86,-206.5 3231.86,-143 3231.86,-23.8723 2309.94,-20.2713 2059.18,-21.4952"/>
<polygon fill="midnightblue" stroke="midnightblue" points="2059.12,-17.9953 2049.14,-21.5485 2059.16,-24.9952 2059.12,-17.9953"/>
</g>
<!-- Node62&#45;&gt;Node20 -->
<g id="edge156" class="edge"><title>Node62&#45;&gt;Node20</title>
<path fill="none" stroke="midnightblue" d="M2914.99,-558.431C2876.14,-550.036 2816.19,-536.432 2764.86,-522 2761.54,-521.067 2758.14,-520.067 2754.71,-519.03"/>
<polygon fill="midnightblue" stroke="midnightblue" points="2755.65,-515.657 2745.06,-516.036 2753.57,-522.343 2755.65,-515.657"/>
</g>
<!-- Node62&#45;&gt;Node21 -->
<g id="edge157" class="edge"><title>Node62&#45;&gt;Node21</title>
<path fill="none" stroke="midnightblue" d="M2888.78,-559.481C2826.12,-551.92 2730.17,-538.961 2647.86,-522 2577.12,-507.421 2561.76,-493.8 2490.86,-480 2362.94,-455.101 2324.48,-482.121 2199.86,-444 2172.4,-435.598 2104.33,-399.034 2062.84,-376.064"/>
<polygon fill="midnightblue" stroke="midnightblue" points="2064.35,-372.9 2053.9,-371.104 2060.95,-379.019 2064.35,-372.9"/>
</g>
<!-- Node62&#45;&gt;Node22 -->
<g id="edge153" class="edge"><title>Node62&#45;&gt;Node22</title>
<path fill="none" stroke="midnightblue" d="M2945.04,-558.252C2913.55,-532.498 2820.07,-453.924 2754.86,-377 2732.52,-350.643 2711.01,-316.545 2698.9,-296.302"/>
<polygon fill="midnightblue" stroke="midnightblue" points="2701.85,-294.408 2693.76,-287.572 2695.82,-297.964 2701.85,-294.408"/>
</g>
<!-- Node62&#45;&gt;Node23 -->
<g id="edge158" class="edge"><title>Node62&#45;&gt;Node23</title>
<path fill="none" stroke="midnightblue" d="M2940,-558.49C2907.14,-541.2 2828.84,-501.765 2758.86,-480 2676.79,-454.473 2646.03,-481.852 2568.86,-444 2550.21,-434.848 2549.89,-426.221 2533.86,-413 2516.41,-398.609 2495.93,-383.003 2481.11,-371.931"/>
<polygon fill="midnightblue" stroke="midnightblue" points="2482.81,-368.83 2472.69,-365.674 2478.63,-374.448 2482.81,-368.83"/>
</g>
</g>
</svg>
