<?xml version="1.0" encoding="UTF-8" standalone="no"?>
<!DOCTYPE svg PUBLIC "-//W3C//DTD SVG 1.1//EN"
 "http://www.w3.org/Graphics/SVG/1.1/DTD/svg11.dtd">
<!-- Generated by graphviz version 2.38.0 (20140413.2041)
 -->
<!-- Title: ProcessGenzMalikQuadrature.h Pages: 1 -->
<svg width="264pt" height="252pt"
 viewBox="0.00 0.00 264.00 252.00" xmlns="http://www.w3.org/2000/svg" xmlns:xlink="http://www.w3.org/1999/xlink">
<g id="graph0" class="graph" transform="scale(1 1) rotate(0) translate(4 248)">
<title>ProcessGenzMalikQuadrature.h</title>
<!-- Node72 -->
<g id="node1" class="node"><title>Node72</title>
<polygon fill="#bfbfbf" stroke="black" points="51.5,-224.5 51.5,-243.5 206.5,-243.5 206.5,-224.5 51.5,-224.5"/>
<text text-anchor="middle" x="129" y="-231.5" font-family="Helvetica,sans-Serif" font-size="10.00">ProcessGenzMalikQuadrature.h</text>
</g>
<!-- Node73 -->
<g id="node2" class="node"><title>Node73</title>
<g id="a_node2"><a xlink:href="a00170.html" target="_top" xlink:title="GenzMalikQuadrature.inl">
<polygon fill="none" stroke="black" points="22,-168.5 22,-187.5 146,-187.5 146,-168.5 22,-168.5"/>
<text text-anchor="middle" x="84" y="-175.5" font-family="Helvetica,sans-Serif" font-size="10.00">GenzMalikQuadrature.inl</text>
</a>
</g>
</g>
<!-- Node72&#45;&gt;Node73 -->
<g id="edge1" class="edge"><title>Node72&#45;&gt;Node73</title>
<path fill="none" stroke="midnightblue" d="M114.953,-216.144C107.113,-206.736 97.6705,-195.405 91.2926,-187.751"/>
<polygon fill="midnightblue" stroke="midnightblue" points="112.479,-218.641 121.569,-224.083 117.856,-214.16 112.479,-218.641"/>
</g>
<!-- Node74 -->
<g id="node3" class="node"><title>Node74</title>
<g id="a_node3"><a xlink:href="a00320.html" target="_top" xlink:title="GenzMalikQuadrature.h">
<polygon fill="none" stroke="black" points="69.5,-112.5 69.5,-131.5 188.5,-131.5 188.5,-112.5 69.5,-112.5"/>
<text text-anchor="middle" x="129" y="-119.5" font-family="Helvetica,sans-Serif" font-size="10.00">GenzMalikQuadrature.h</text>
</a>
</g>
</g>
<!-- Node73&#45;&gt;Node74 -->
<g id="edge2" class="edge"><title>Node73&#45;&gt;Node74</title>
<path fill="none" stroke="midnightblue" d="M98.0467,-160.144C105.887,-150.736 115.329,-139.405 121.707,-131.751"/>
<polygon fill="midnightblue" stroke="midnightblue" points="95.1439,-158.16 91.4308,-168.083 100.521,-162.641 95.1439,-158.16"/>
</g>
<!-- Node74&#45;&gt;Node72 -->
<g id="edge3" class="edge"><title>Node74&#45;&gt;Node72</title>
<path fill="none" stroke="midnightblue" d="M141.726,-140.099C146.931,-148.131 152.346,-158.103 155,-168 160.603,-188.896 145.844,-212.158 136.331,-224.394"/>
<polygon fill="midnightblue" stroke="midnightblue" points="144.464,-137.906 135.89,-131.681 138.711,-141.894 144.464,-137.906"/>
</g>
<!-- Node75 -->
<g id="node4" class="node"><title>Node75</title>
<g id="a_node4"><a xlink:href="a00452.html" target="_top" xlink:title="multidimensional_fit.inl">
<polygon fill="none" stroke="black" points="71,-56.5 71,-75.5 187,-75.5 187,-56.5 71,-56.5"/>
<text text-anchor="middle" x="129" y="-63.5" font-family="Helvetica,sans-Serif" font-size="10.00">multidimensional_fit.inl</text>
</a>
</g>
</g>
<!-- Node74&#45;&gt;Node75 -->
<g id="edge4" class="edge"><title>Node74&#45;&gt;Node75</title>
<path fill="none" stroke="midnightblue" d="M129,-101.805C129,-92.9102 129,-82.7798 129,-75.7511"/>
<polygon fill="midnightblue" stroke="midnightblue" points="125.5,-102.083 129,-112.083 132.5,-102.083 125.5,-102.083"/>
</g>
<!-- Node76 -->
<g id="node5" class="node"><title>Node76</title>
<g id="a_node5"><a xlink:href="a00446.html" target="_top" xlink:title="multidimensional_fit.cpp">
<polygon fill="none" stroke="black" points="0,-0.5 0,-19.5 122,-19.5 122,-0.5 0,-0.5"/>
<text text-anchor="middle" x="61" y="-7.5" font-family="Helvetica,sans-Serif" font-size="10.00">multidimensional_fit.cpp</text>
</a>
</g>
</g>
<!-- Node75&#45;&gt;Node76 -->
<g id="edge5" class="edge"><title>Node75&#45;&gt;Node76</title>
<path fill="none" stroke="midnightblue" d="M110.238,-50.1008C98.0001,-40.3824 82.4413,-28.0269 72.1242,-19.8339"/>
<polygon fill="midnightblue" stroke="midnightblue" points="108.067,-52.846 118.075,-56.324 112.42,-47.3642 108.067,-52.846"/>
</g>
<!-- Node77 -->
<g id="node6" class="node"><title>Node77</title>
<g id="a_node6"><a xlink:href="a00449.html" target="_top" xlink:title="multidimensional_fit.cu">
<polygon fill="none" stroke="black" points="140,-0.5 140,-19.5 256,-19.5 256,-0.5 140,-0.5"/>
<text text-anchor="middle" x="198" y="-7.5" font-family="Helvetica,sans-Serif" font-size="10.00">multidimensional_fit.cu</text>
</a>
</g>
</g>
<!-- Node75&#45;&gt;Node77 -->
<g id="edge6" class="edge"><title>Node75&#45;&gt;Node77</title>
<path fill="none" stroke="midnightblue" d="M148.038,-50.1008C160.456,-40.3824 176.243,-28.0269 186.712,-19.8339"/>
<polygon fill="midnightblue" stroke="midnightblue" points="145.804,-47.4046 140.086,-56.324 150.118,-52.9171 145.804,-47.4046"/>
</g>
</g>
</svg>
