<?xml version="1.0" encoding="UTF-8" standalone="no"?>
<!DOCTYPE svg PUBLIC "-//W3C//DTD SVG 1.1//EN"
 "http://www.w3.org/Graphics/SVG/1.1/DTD/svg11.dtd">
<!-- Generated by graphviz version 2.38.0 (20140413.2041)
 -->
<!-- Title: FlagAcceptReject.h Pages: 1 -->
<svg width="2154pt" height="218pt"
 viewBox="0.00 0.00 2154.00 218.00" xmlns="http://www.w3.org/2000/svg" xmlns:xlink="http://www.w3.org/1999/xlink">
<g id="graph0" class="graph" transform="scale(1 1) rotate(0) translate(4 214)">
<title>FlagAcceptReject.h</title>
<!-- Node6 -->
<g id="node1" class="node"><title>Node6</title>
<polygon fill="#bfbfbf" stroke="black" points="626,-190.5 626,-209.5 729,-209.5 729,-190.5 626,-190.5"/>
<text text-anchor="middle" x="677.5" y="-197.5" font-family="Helvetica,sans-Serif" font-size="10.00">FlagAcceptReject.h</text>
</g>
<!-- Node7 -->
<g id="node2" class="node"><title>Node7</title>
<g id="a_node2"><a xlink:href="a00008.html" target="_top" xlink:title="Chains.h">
<polygon fill="none" stroke="black" points="338.5,-134.5 338.5,-153.5 394.5,-153.5 394.5,-134.5 338.5,-134.5"/>
<text text-anchor="middle" x="366.5" y="-141.5" font-family="Helvetica,sans-Serif" font-size="10.00">Chains.h</text>
</a>
</g>
</g>
<!-- Node6&#45;&gt;Node7 -->
<g id="edge1" class="edge"><title>Node6&#45;&gt;Node7</title>
<path fill="none" stroke="midnightblue" d="M618.225,-188.708C551.22,-177.074 444.94,-158.62 394.649,-149.888"/>
<polygon fill="midnightblue" stroke="midnightblue" points="617.77,-192.181 628.221,-190.444 618.967,-185.284 617.77,-192.181"/>
</g>
<!-- Node11 -->
<g id="node6" class="node"><title>Node11</title>
<g id="a_node6"><a xlink:href="a00080.html" target="_top" xlink:title="Events.inl">
<polygon fill="none" stroke="black" points="609.5,-134.5 609.5,-153.5 669.5,-153.5 669.5,-134.5 609.5,-134.5"/>
<text text-anchor="middle" x="639.5" y="-141.5" font-family="Helvetica,sans-Serif" font-size="10.00">Events.inl</text>
</a>
</g>
</g>
<!-- Node6&#45;&gt;Node11 -->
<g id="edge5" class="edge"><title>Node6&#45;&gt;Node11</title>
<path fill="none" stroke="midnightblue" d="M665.435,-181.855C658.855,-172.505 650.989,-161.327 645.658,-153.751"/>
<polygon fill="midnightblue" stroke="midnightblue" points="662.608,-183.919 671.225,-190.083 668.332,-179.891 662.608,-183.919"/>
</g>
<!-- Node12 -->
<g id="node7" class="node"><title>Node12</title>
<g id="a_node7"><a xlink:href="a00287.html" target="_top" xlink:title="Events.h">
<polygon fill="none" stroke="black" points="687.5,-134.5 687.5,-153.5 743.5,-153.5 743.5,-134.5 687.5,-134.5"/>
<text text-anchor="middle" x="715.5" y="-141.5" font-family="Helvetica,sans-Serif" font-size="10.00">Events.h</text>
</a>
</g>
</g>
<!-- Node6&#45;&gt;Node12 -->
<g id="edge6" class="edge"><title>Node6&#45;&gt;Node12</title>
<path fill="none" stroke="midnightblue" d="M689.565,-181.855C696.145,-172.505 704.011,-161.327 709.342,-153.751"/>
<polygon fill="midnightblue" stroke="midnightblue" points="686.668,-179.891 683.775,-190.083 692.392,-183.919 686.668,-179.891"/>
</g>
<!-- Node13 -->
<g id="node8" class="node"><title>Node13</title>
<g id="a_node8"><a xlink:href="a00353.html" target="_top" xlink:title="PhaseSpace.h">
<polygon fill="none" stroke="black" points="860.5,-134.5 860.5,-153.5 940.5,-153.5 940.5,-134.5 860.5,-134.5"/>
<text text-anchor="middle" x="900.5" y="-141.5" font-family="Helvetica,sans-Serif" font-size="10.00">PhaseSpace.h</text>
</a>
</g>
</g>
<!-- Node6&#45;&gt;Node13 -->
<g id="edge7" class="edge"><title>Node6&#45;&gt;Node13</title>
<path fill="none" stroke="midnightblue" d="M722.561,-188.088C764.691,-177.887 826.74,-162.861 865.33,-153.516"/>
<polygon fill="midnightblue" stroke="midnightblue" points="721.73,-184.688 712.835,-190.444 723.378,-191.492 721.73,-184.688"/>
</g>
<!-- Node8 -->
<g id="node3" class="node"><title>Node8</title>
<g id="a_node3"><a xlink:href="a00578.html" target="_top" xlink:title="phsp_chain.inl">
<polygon fill="none" stroke="black" points="178,-73 178,-92 257,-92 257,-73 178,-73"/>
<text text-anchor="middle" x="217.5" y="-80" font-family="Helvetica,sans-Serif" font-size="10.00">phsp_chain.inl</text>
</a>
</g>
</g>
<!-- Node7&#45;&gt;Node8 -->
<g id="edge2" class="edge"><title>Node7&#45;&gt;Node8</title>
<path fill="none" stroke="midnightblue" d="M335.526,-130.631C306.579,-119.072 264.128,-102.12 238.808,-92.0091"/>
<polygon fill="midnightblue" stroke="midnightblue" points="334.567,-134.017 345.152,-134.475 337.163,-127.516 334.567,-134.017"/>
</g>
<!-- Node9 -->
<g id="node4" class="node"><title>Node9</title>
<g id="a_node4"><a xlink:href="a00572.html" target="_top" xlink:title="phsp_chain.cpp">
<polygon fill="none" stroke="black" points="0,-6 0,-25 85,-25 85,-6 0,-6"/>
<text text-anchor="middle" x="42.5" y="-13" font-family="Helvetica,sans-Serif" font-size="10.00">phsp_chain.cpp</text>
</a>
</g>
</g>
<!-- Node8&#45;&gt;Node9 -->
<g id="edge3" class="edge"><title>Node8&#45;&gt;Node9</title>
<path fill="none" stroke="midnightblue" d="M184.575,-69.2706C149.842,-56.3699 96.0115,-36.3757 65.556,-25.0637"/>
<polygon fill="midnightblue" stroke="midnightblue" points="183.668,-72.6676 194.261,-72.8685 186.106,-66.1056 183.668,-72.6676"/>
</g>
<!-- Node10 -->
<g id="node5" class="node"><title>Node10</title>
<g id="a_node5"><a xlink:href="a00575.html" target="_top" xlink:title="phsp_chain.cu">
<polygon fill="none" stroke="black" points="103.5,-6 103.5,-25 183.5,-25 183.5,-6 103.5,-6"/>
<text text-anchor="middle" x="143.5" y="-13" font-family="Helvetica,sans-Serif" font-size="10.00">phsp_chain.cu</text>
</a>
</g>
</g>
<!-- Node8&#45;&gt;Node10 -->
<g id="edge4" class="edge"><title>Node8&#45;&gt;Node10</title>
<path fill="none" stroke="midnightblue" d="M199.69,-65.8564C185.142,-53.0777 165.121,-35.4915 153.322,-25.1273"/>
<polygon fill="midnightblue" stroke="midnightblue" points="197.697,-68.764 207.52,-72.7338 202.317,-63.5047 197.697,-68.764"/>
</g>
<!-- Node13&#45;&gt;Node8 -->
<g id="edge17" class="edge"><title>Node13&#45;&gt;Node8</title>
<path fill="none" stroke="midnightblue" d="M850.171,-139.586C752.033,-132.788 528.264,-116.605 340.5,-98 312.577,-95.2331 281.159,-91.5192 257.066,-88.5428"/>
<polygon fill="midnightblue" stroke="midnightblue" points="850.174,-143.094 860.391,-140.291 850.656,-136.111 850.174,-143.094"/>
</g>
<!-- Node14 -->
<g id="node9" class="node"><title>Node14</title>
<g id="a_node9"><a xlink:href="a00461.html" target="_top" xlink:title="phsp_unweighting_functor\l_and_fit.inl">
<polygon fill="none" stroke="black" points="349.5,-67.5 349.5,-97.5 479.5,-97.5 479.5,-67.5 349.5,-67.5"/>
<text text-anchor="start" x="357.5" y="-85.5" font-family="Helvetica,sans-Serif" font-size="10.00">phsp_unweighting_functor</text>
<text text-anchor="middle" x="414.5" y="-74.5" font-family="Helvetica,sans-Serif" font-size="10.00">_and_fit.inl</text>
</a>
</g>
</g>
<!-- Node13&#45;&gt;Node14 -->
<g id="edge8" class="edge"><title>Node13&#45;&gt;Node14</title>
<path fill="none" stroke="midnightblue" d="M850.257,-136.849C761.714,-126.009 577.988,-103.515 479.765,-91.4903"/>
<polygon fill="midnightblue" stroke="midnightblue" points="849.964,-140.339 860.315,-138.08 850.815,-133.391 849.964,-140.339"/>
</g>
<!-- Node17 -->
<g id="node12" class="node"><title>Node17</title>
<g id="a_node12"><a xlink:href="a00560.html" target="_top" xlink:title="phsp_averaging_functor.inl">
<polygon fill="none" stroke="black" points="656,-73 656,-92 789,-92 789,-73 656,-73"/>
<text text-anchor="middle" x="722.5" y="-80" font-family="Helvetica,sans-Serif" font-size="10.00">phsp_averaging_functor.inl</text>
</a>
</g>
</g>
<!-- Node13&#45;&gt;Node17 -->
<g id="edge11" class="edge"><title>Node13&#45;&gt;Node17</title>
<path fill="none" stroke="midnightblue" d="M865.295,-131.232C830.694,-119.666 778.732,-102.297 747.956,-92.0091"/>
<polygon fill="midnightblue" stroke="midnightblue" points="864.403,-134.624 874.997,-134.475 866.622,-127.985 864.403,-134.624"/>
</g>
<!-- Node20 -->
<g id="node15" class="node"><title>Node20</title>
<g id="a_node15"><a xlink:href="a00569.html" target="_top" xlink:title="phsp_basic.inl">
<polygon fill="none" stroke="black" points="861,-73 861,-92 940,-92 940,-73 861,-73"/>
<text text-anchor="middle" x="900.5" y="-80" font-family="Helvetica,sans-Serif" font-size="10.00">phsp_basic.inl</text>
</a>
</g>
</g>
<!-- Node13&#45;&gt;Node20 -->
<g id="edge14" class="edge"><title>Node13&#45;&gt;Node20</title>
<path fill="none" stroke="midnightblue" d="M900.5,-124.317C900.5,-113.496 900.5,-100.398 900.5,-92.0091"/>
<polygon fill="midnightblue" stroke="midnightblue" points="897,-124.475 900.5,-134.475 904,-124.475 897,-124.475"/>
</g>
<!-- Node23 -->
<g id="node18" class="node"><title>Node23</title>
<g id="a_node18"><a xlink:href="a00587.html" target="_top" xlink:title="phsp_evaluating_functor.inl">
<polygon fill="none" stroke="black" points="1013,-73 1013,-92 1148,-92 1148,-73 1013,-73"/>
<text text-anchor="middle" x="1080.5" y="-80" font-family="Helvetica,sans-Serif" font-size="10.00">phsp_evaluating_functor.inl</text>
</a>
</g>
</g>
<!-- Node13&#45;&gt;Node23 -->
<g id="edge18" class="edge"><title>Node13&#45;&gt;Node23</title>
<path fill="none" stroke="midnightblue" d="M936.101,-131.232C971.09,-119.666 1023.64,-102.297 1054.76,-92.0091"/>
<polygon fill="midnightblue" stroke="midnightblue" points="934.686,-128.013 926.29,-134.475 936.883,-134.66 934.686,-128.013"/>
</g>
<!-- Node26 -->
<g id="node21" class="node"><title>Node26</title>
<g id="a_node21"><a xlink:href="a00596.html" target="_top" xlink:title="phsp_reweighting.inl">
<polygon fill="none" stroke="black" points="1327,-73 1327,-92 1432,-92 1432,-73 1327,-73"/>
<text text-anchor="middle" x="1379.5" y="-80" font-family="Helvetica,sans-Serif" font-size="10.00">phsp_reweighting.inl</text>
</a>
</g>
</g>
<!-- Node13&#45;&gt;Node26 -->
<g id="edge21" class="edge"><title>Node13&#45;&gt;Node26</title>
<path fill="none" stroke="midnightblue" d="M950.588,-136.778C1041.69,-125.462 1233.67,-101.614 1326.72,-90.0561"/>
<polygon fill="midnightblue" stroke="midnightblue" points="950.008,-133.323 940.515,-138.029 950.871,-140.27 950.008,-133.323"/>
</g>
<!-- Node29 -->
<g id="node24" class="node"><title>Node29</title>
<g id="a_node24"><a xlink:href="a00605.html" target="_top" xlink:title="phsp_unweighting.inl">
<polygon fill="none" stroke="black" points="1581,-73 1581,-92 1688,-92 1688,-73 1581,-73"/>
<text text-anchor="middle" x="1634.5" y="-80" font-family="Helvetica,sans-Serif" font-size="10.00">phsp_unweighting.inl</text>
</a>
</g>
</g>
<!-- Node13&#45;&gt;Node29 -->
<g id="edge24" class="edge"><title>Node13&#45;&gt;Node29</title>
<path fill="none" stroke="midnightblue" d="M951.064,-138.901C1084.31,-128.1 1444.2,-98.9265 1580.86,-87.848"/>
<polygon fill="midnightblue" stroke="midnightblue" points="950.431,-135.441 940.746,-139.738 950.996,-142.418 950.431,-135.441"/>
</g>
<!-- Node32 -->
<g id="node27" class="node"><title>Node32</title>
<g id="a_node27"><a xlink:href="a00614.html" target="_top" xlink:title="phsp_unweighting_functor.inl">
<polygon fill="none" stroke="black" points="1839,-73 1839,-92 1982,-92 1982,-73 1839,-73"/>
<text text-anchor="middle" x="1910.5" y="-80" font-family="Helvetica,sans-Serif" font-size="10.00">phsp_unweighting_functor.inl</text>
</a>
</g>
</g>
<!-- Node13&#45;&gt;Node32 -->
<g id="edge27" class="edge"><title>Node13&#45;&gt;Node32</title>
<path fill="none" stroke="midnightblue" d="M950.775,-140.353C1076.49,-133.693 1414.66,-115.515 1696.5,-98 1743.89,-95.0552 1797.15,-91.447 1838.69,-88.5666"/>
<polygon fill="midnightblue" stroke="midnightblue" points="950.483,-136.864 940.682,-140.888 950.853,-143.854 950.483,-136.864"/>
</g>
<!-- Node15 -->
<g id="node10" class="node"><title>Node15</title>
<g id="a_node10"><a xlink:href="a00455.html" target="_top" xlink:title="phsp_unweighting_functor\l_and_fit.cpp">
<polygon fill="none" stroke="black" points="201.5,-0.5 201.5,-30.5 331.5,-30.5 331.5,-0.5 201.5,-0.5"/>
<text text-anchor="start" x="209.5" y="-18.5" font-family="Helvetica,sans-Serif" font-size="10.00">phsp_unweighting_functor</text>
<text text-anchor="middle" x="266.5" y="-7.5" font-family="Helvetica,sans-Serif" font-size="10.00">_and_fit.cpp</text>
</a>
</g>
</g>
<!-- Node14&#45;&gt;Node15 -->
<g id="edge9" class="edge"><title>Node14&#45;&gt;Node15</title>
<path fill="none" stroke="midnightblue" d="M372.989,-63.2687C349.416,-52.9159 320.356,-40.1528 298.551,-30.5765"/>
<polygon fill="midnightblue" stroke="midnightblue" points="371.823,-66.5793 382.386,-67.396 374.638,-60.1702 371.823,-66.5793"/>
</g>
<!-- Node16 -->
<g id="node11" class="node"><title>Node16</title>
<g id="a_node11"><a xlink:href="a00458.html" target="_top" xlink:title="phsp_unweighting_functor\l_and_fit.cu">
<polygon fill="none" stroke="black" points="349.5,-0.5 349.5,-30.5 479.5,-30.5 479.5,-0.5 349.5,-0.5"/>
<text text-anchor="start" x="357.5" y="-18.5" font-family="Helvetica,sans-Serif" font-size="10.00">phsp_unweighting_functor</text>
<text text-anchor="middle" x="414.5" y="-7.5" font-family="Helvetica,sans-Serif" font-size="10.00">_and_fit.cu</text>
</a>
</g>
</g>
<!-- Node14&#45;&gt;Node16 -->
<g id="edge10" class="edge"><title>Node14&#45;&gt;Node16</title>
<path fill="none" stroke="midnightblue" d="M414.5,-57.1081C414.5,-48.1539 414.5,-38.3227 414.5,-30.5765"/>
<polygon fill="midnightblue" stroke="midnightblue" points="411,-57.3959 414.5,-67.396 418,-57.396 411,-57.3959"/>
</g>
<!-- Node18 -->
<g id="node13" class="node"><title>Node18</title>
<g id="a_node13"><a xlink:href="a00554.html" target="_top" xlink:title="phsp_averaging_functor.cpp">
<polygon fill="none" stroke="black" points="498,-6 498,-25 637,-25 637,-6 498,-6"/>
<text text-anchor="middle" x="567.5" y="-13" font-family="Helvetica,sans-Serif" font-size="10.00">phsp_averaging_functor.cpp</text>
</a>
</g>
</g>
<!-- Node17&#45;&gt;Node18 -->
<g id="edge12" class="edge"><title>Node17&#45;&gt;Node18</title>
<path fill="none" stroke="midnightblue" d="M692.569,-68.9485C661.88,-56.0787 614.961,-36.4032 588.168,-25.1672"/>
<polygon fill="midnightblue" stroke="midnightblue" points="691.342,-72.2289 701.917,-72.8685 694.049,-65.7735 691.342,-72.2289"/>
</g>
<!-- Node19 -->
<g id="node14" class="node"><title>Node19</title>
<g id="a_node14"><a xlink:href="a00557.html" target="_top" xlink:title="phsp_averaging_functor.cu">
<polygon fill="none" stroke="black" points="655.5,-6 655.5,-25 789.5,-25 789.5,-6 655.5,-6"/>
<text text-anchor="middle" x="722.5" y="-13" font-family="Helvetica,sans-Serif" font-size="10.00">phsp_averaging_functor.cu</text>
</a>
</g>
</g>
<!-- Node17&#45;&gt;Node19 -->
<g id="edge13" class="edge"><title>Node17&#45;&gt;Node19</title>
<path fill="none" stroke="midnightblue" d="M722.5,-62.537C722.5,-50.1703 722.5,-34.6198 722.5,-25.1273"/>
<polygon fill="midnightblue" stroke="midnightblue" points="719,-62.7338 722.5,-72.7338 726,-62.7338 719,-62.7338"/>
</g>
<!-- Node21 -->
<g id="node16" class="node"><title>Node21</title>
<g id="a_node16"><a xlink:href="a00563.html" target="_top" xlink:title="phsp_basic.cpp">
<polygon fill="none" stroke="black" points="808,-6 808,-25 893,-25 893,-6 808,-6"/>
<text text-anchor="middle" x="850.5" y="-13" font-family="Helvetica,sans-Serif" font-size="10.00">phsp_basic.cpp</text>
</a>
</g>
</g>
<!-- Node20&#45;&gt;Node21 -->
<g id="edge15" class="edge"><title>Node20&#45;&gt;Node21</title>
<path fill="none" stroke="midnightblue" d="M887.631,-64.7705C877.882,-52.0972 864.885,-35.201 857.136,-25.1273"/>
<polygon fill="midnightblue" stroke="midnightblue" points="884.885,-66.9416 893.757,-72.7338 890.434,-62.6735 884.885,-66.9416"/>
</g>
<!-- Node22 -->
<g id="node17" class="node"><title>Node22</title>
<g id="a_node17"><a xlink:href="a00566.html" target="_top" xlink:title="phsp_basic.cu">
<polygon fill="none" stroke="black" points="911.5,-6 911.5,-25 991.5,-25 991.5,-6 911.5,-6"/>
<text text-anchor="middle" x="951.5" y="-13" font-family="Helvetica,sans-Serif" font-size="10.00">phsp_basic.cu</text>
</a>
</g>
</g>
<!-- Node20&#45;&gt;Node22 -->
<g id="edge16" class="edge"><title>Node20&#45;&gt;Node22</title>
<path fill="none" stroke="midnightblue" d="M913.626,-64.7705C923.57,-52.0972 936.827,-35.201 944.731,-25.1273"/>
<polygon fill="midnightblue" stroke="midnightblue" points="910.797,-62.7059 907.378,-72.7338 916.305,-67.0269 910.797,-62.7059"/>
</g>
<!-- Node24 -->
<g id="node19" class="node"><title>Node24</title>
<g id="a_node19"><a xlink:href="a00581.html" target="_top" xlink:title="phsp_evaluating_functor.cpp">
<polygon fill="none" stroke="black" points="1010,-6 1010,-25 1151,-25 1151,-6 1010,-6"/>
<text text-anchor="middle" x="1080.5" y="-13" font-family="Helvetica,sans-Serif" font-size="10.00">phsp_evaluating_functor.cpp</text>
</a>
</g>
</g>
<!-- Node23&#45;&gt;Node24 -->
<g id="edge19" class="edge"><title>Node23&#45;&gt;Node24</title>
<path fill="none" stroke="midnightblue" d="M1080.5,-62.537C1080.5,-50.1703 1080.5,-34.6198 1080.5,-25.1273"/>
<polygon fill="midnightblue" stroke="midnightblue" points="1077,-62.7338 1080.5,-72.7338 1084,-62.7338 1077,-62.7338"/>
</g>
<!-- Node25 -->
<g id="node20" class="node"><title>Node25</title>
<g id="a_node20"><a xlink:href="a00584.html" target="_top" xlink:title="phsp_evaluating_functor.cu">
<polygon fill="none" stroke="black" points="1169.5,-6 1169.5,-25 1305.5,-25 1305.5,-6 1169.5,-6"/>
<text text-anchor="middle" x="1237.5" y="-13" font-family="Helvetica,sans-Serif" font-size="10.00">phsp_evaluating_functor.cu</text>
</a>
</g>
</g>
<!-- Node23&#45;&gt;Node25 -->
<g id="edge20" class="edge"><title>Node23&#45;&gt;Node25</title>
<path fill="none" stroke="midnightblue" d="M1110.82,-68.9485C1141.9,-56.0787 1189.43,-36.4032 1216.57,-25.1672"/>
<polygon fill="midnightblue" stroke="midnightblue" points="1109.25,-65.8094 1101.35,-72.8685 1111.93,-72.277 1109.25,-65.8094"/>
</g>
<!-- Node27 -->
<g id="node22" class="node"><title>Node27</title>
<g id="a_node22"><a xlink:href="a00590.html" target="_top" xlink:title="phsp_reweighting.cpp">
<polygon fill="none" stroke="black" points="1324,-6 1324,-25 1435,-25 1435,-6 1324,-6"/>
<text text-anchor="middle" x="1379.5" y="-13" font-family="Helvetica,sans-Serif" font-size="10.00">phsp_reweighting.cpp</text>
</a>
</g>
</g>
<!-- Node26&#45;&gt;Node27 -->
<g id="edge22" class="edge"><title>Node26&#45;&gt;Node27</title>
<path fill="none" stroke="midnightblue" d="M1379.5,-62.537C1379.5,-50.1703 1379.5,-34.6198 1379.5,-25.1273"/>
<polygon fill="midnightblue" stroke="midnightblue" points="1376,-62.7338 1379.5,-72.7338 1383,-62.7338 1376,-62.7338"/>
</g>
<!-- Node28 -->
<g id="node23" class="node"><title>Node28</title>
<g id="a_node23"><a xlink:href="a00593.html" target="_top" xlink:title="phsp_reweighting.cu">
<polygon fill="none" stroke="black" points="1453.5,-6 1453.5,-25 1559.5,-25 1559.5,-6 1453.5,-6"/>
<text text-anchor="middle" x="1506.5" y="-13" font-family="Helvetica,sans-Serif" font-size="10.00">phsp_reweighting.cu</text>
</a>
</g>
</g>
<!-- Node26&#45;&gt;Node28 -->
<g id="edge23" class="edge"><title>Node26&#45;&gt;Node28</title>
<path fill="none" stroke="midnightblue" d="M1405.34,-68.2739C1430.5,-55.3999 1467.99,-36.2086 1489.57,-25.1672"/>
<polygon fill="midnightblue" stroke="midnightblue" points="1403.67,-65.1968 1396.36,-72.8685 1406.86,-71.428 1403.67,-65.1968"/>
</g>
<!-- Node30 -->
<g id="node25" class="node"><title>Node30</title>
<g id="a_node25"><a xlink:href="a00599.html" target="_top" xlink:title="phsp_unweighting.cpp">
<polygon fill="none" stroke="black" points="1578,-6 1578,-25 1691,-25 1691,-6 1578,-6"/>
<text text-anchor="middle" x="1634.5" y="-13" font-family="Helvetica,sans-Serif" font-size="10.00">phsp_unweighting.cpp</text>
</a>
</g>
</g>
<!-- Node29&#45;&gt;Node30 -->
<g id="edge25" class="edge"><title>Node29&#45;&gt;Node30</title>
<path fill="none" stroke="midnightblue" d="M1634.5,-62.537C1634.5,-50.1703 1634.5,-34.6198 1634.5,-25.1273"/>
<polygon fill="midnightblue" stroke="midnightblue" points="1631,-62.7338 1634.5,-72.7338 1638,-62.7338 1631,-62.7338"/>
</g>
<!-- Node31 -->
<g id="node26" class="node"><title>Node31</title>
<g id="a_node26"><a xlink:href="a00602.html" target="_top" xlink:title="phsp_unweighting.cu">
<polygon fill="none" stroke="black" points="1709.5,-6 1709.5,-25 1817.5,-25 1817.5,-6 1709.5,-6"/>
<text text-anchor="middle" x="1763.5" y="-13" font-family="Helvetica,sans-Serif" font-size="10.00">phsp_unweighting.cu</text>
</a>
</g>
</g>
<!-- Node29&#45;&gt;Node31 -->
<g id="edge26" class="edge"><title>Node29&#45;&gt;Node31</title>
<path fill="none" stroke="midnightblue" d="M1660.75,-68.2739C1686.3,-55.3999 1724.39,-36.2086 1746.3,-25.1672"/>
<polygon fill="midnightblue" stroke="midnightblue" points="1658.99,-65.243 1651.63,-72.8685 1662.14,-71.4943 1658.99,-65.243"/>
</g>
<!-- Node33 -->
<g id="node28" class="node"><title>Node33</title>
<g id="a_node28"><a xlink:href="a00608.html" target="_top" xlink:title="phsp_unweighting_functor.cpp">
<polygon fill="none" stroke="black" points="1836,-6 1836,-25 1985,-25 1985,-6 1836,-6"/>
<text text-anchor="middle" x="1910.5" y="-13" font-family="Helvetica,sans-Serif" font-size="10.00">phsp_unweighting_functor.cpp</text>
</a>
</g>
</g>
<!-- Node32&#45;&gt;Node33 -->
<g id="edge28" class="edge"><title>Node32&#45;&gt;Node33</title>
<path fill="none" stroke="midnightblue" d="M1910.5,-62.537C1910.5,-50.1703 1910.5,-34.6198 1910.5,-25.1273"/>
<polygon fill="midnightblue" stroke="midnightblue" points="1907,-62.7338 1910.5,-72.7338 1914,-62.7338 1907,-62.7338"/>
</g>
<!-- Node34 -->
<g id="node29" class="node"><title>Node34</title>
<g id="a_node29"><a xlink:href="a00611.html" target="_top" xlink:title="phsp_unweighting_functor.cu">
<polygon fill="none" stroke="black" points="2003,-6 2003,-25 2146,-25 2146,-6 2003,-6"/>
<text text-anchor="middle" x="2074.5" y="-13" font-family="Helvetica,sans-Serif" font-size="10.00">phsp_unweighting_functor.cu</text>
</a>
</g>
</g>
<!-- Node32&#45;&gt;Node34 -->
<g id="edge29" class="edge"><title>Node32&#45;&gt;Node34</title>
<path fill="none" stroke="midnightblue" d="M1941.78,-69.1041C1974.34,-56.1984 2024.47,-36.3272 2052.89,-25.0637"/>
<polygon fill="midnightblue" stroke="midnightblue" points="1940.28,-65.9301 1932.28,-72.8685 1942.86,-72.4376 1940.28,-65.9301"/>
</g>
</g>
</svg>
