<?xml version="1.0" encoding="UTF-8" standalone="no"?>
<!DOCTYPE svg PUBLIC "-//W3C//DTD SVG 1.1//EN"
 "http://www.w3.org/Graphics/SVG/1.1/DTD/svg11.dtd">
<!-- Generated by graphviz version 2.38.0 (20140413.2041)
 -->
<!-- Title: /home/augalves/Development/Release/Hydra/hydra/detail/functors/StatsPHSP.h Pages: 1 -->
<svg width="684pt" height="195pt"
 viewBox="0.00 0.00 684.00 195.00" xmlns="http://www.w3.org/2000/svg" xmlns:xlink="http://www.w3.org/1999/xlink">
<g id="graph0" class="graph" transform="scale(1 1) rotate(0) translate(4 191)">
<title>/home/augalves/Development/Release/Hydra/hydra/detail/functors/StatsPHSP.h</title>
<!-- Node1 -->
<g id="node1" class="node"><title>Node1</title>
<polygon fill="#bfbfbf" stroke="black" points="328,-145.5 328,-186.5 474,-186.5 474,-145.5 328,-145.5"/>
<text text-anchor="start" x="336" y="-174.5" font-family="Helvetica,sans-Serif" font-size="10.00">/home/augalves/Development</text>
<text text-anchor="start" x="336" y="-163.5" font-family="Helvetica,sans-Serif" font-size="10.00">/Release/Hydra/hydra/detail</text>
<text text-anchor="middle" x="401" y="-152.5" font-family="Helvetica,sans-Serif" font-size="10.00">/functors/StatsPHSP.h</text>
</g>
<!-- Node2 -->
<g id="node2" class="node"><title>Node2</title>
<g id="a_node2"><a xlink:href="a00065.html" target="_top" xlink:title="/home/augalves/Development\l/Release/Hydra/hydra/detail\l/functors/AverageMother.h">
<polygon fill="none" stroke="black" points="0,-67.5 0,-108.5 146,-108.5 146,-67.5 0,-67.5"/>
<text text-anchor="start" x="8" y="-96.5" font-family="Helvetica,sans-Serif" font-size="10.00">/home/augalves/Development</text>
<text text-anchor="start" x="8" y="-85.5" font-family="Helvetica,sans-Serif" font-size="10.00">/Release/Hydra/hydra/detail</text>
<text text-anchor="middle" x="73" y="-74.5" font-family="Helvetica,sans-Serif" font-size="10.00">/functors/AverageMother.h</text>
</a>
</g>
</g>
<!-- Node1&#45;&gt;Node2 -->
<g id="edge1" class="edge"><title>Node1&#45;&gt;Node2</title>
<path fill="none" stroke="midnightblue" d="M317.768,-146.388C270.079,-135.64 209.13,-121.761 155,-109 152.148,-108.328 149.24,-107.638 146.304,-106.938"/>
<polygon fill="midnightblue" stroke="midnightblue" points="317.211,-149.85 327.735,-148.632 318.748,-143.021 317.211,-149.85"/>
</g>
<!-- Node3 -->
<g id="node3" class="node"><title>Node3</title>
<g id="a_node3"><a xlink:href="a00068.html" target="_top" xlink:title="/home/augalves/Development\l/Release/Hydra/hydra/detail\l/functors/AverageMothers.h">
<polygon fill="none" stroke="black" points="164,-67.5 164,-108.5 310,-108.5 310,-67.5 164,-67.5"/>
<text text-anchor="start" x="172" y="-96.5" font-family="Helvetica,sans-Serif" font-size="10.00">/home/augalves/Development</text>
<text text-anchor="start" x="172" y="-85.5" font-family="Helvetica,sans-Serif" font-size="10.00">/Release/Hydra/hydra/detail</text>
<text text-anchor="middle" x="237" y="-74.5" font-family="Helvetica,sans-Serif" font-size="10.00">/functors/AverageMothers.h</text>
</a>
</g>
</g>
<!-- Node1&#45;&gt;Node3 -->
<g id="edge2" class="edge"><title>Node1&#45;&gt;Node3</title>
<path fill="none" stroke="midnightblue" d="M349.618,-141.189C326.93,-130.675 300.59,-118.469 279.091,-108.506"/>
<polygon fill="midnightblue" stroke="midnightblue" points="348.221,-144.399 358.766,-145.428 351.164,-138.048 348.221,-144.399"/>
</g>
<!-- Node4 -->
<g id="node4" class="node"><title>Node4</title>
<g id="a_node4"><a xlink:href="a00086.html" target="_top" xlink:title="/home/augalves/Development\l/Release/Hydra/hydra/detail\l/functors/EvalMother.h">
<polygon fill="none" stroke="black" points="328,-67.5 328,-108.5 474,-108.5 474,-67.5 328,-67.5"/>
<text text-anchor="start" x="336" y="-96.5" font-family="Helvetica,sans-Serif" font-size="10.00">/home/augalves/Development</text>
<text text-anchor="start" x="336" y="-85.5" font-family="Helvetica,sans-Serif" font-size="10.00">/Release/Hydra/hydra/detail</text>
<text text-anchor="middle" x="401" y="-74.5" font-family="Helvetica,sans-Serif" font-size="10.00">/functors/EvalMother.h</text>
</a>
</g>
</g>
<!-- Node1&#45;&gt;Node4 -->
<g id="edge3" class="edge"><title>Node1&#45;&gt;Node4</title>
<path fill="none" stroke="midnightblue" d="M401,-135.297C401,-126.301 401,-116.653 401,-108.506"/>
<polygon fill="midnightblue" stroke="midnightblue" points="397.5,-135.428 401,-145.428 404.5,-135.428 397.5,-135.428"/>
</g>
<!-- Node5 -->
<g id="node5" class="node"><title>Node5</title>
<g id="a_node5"><a xlink:href="a00275.html" target="_top" xlink:title="/home/augalves/Development\l/Release/Hydra/hydra/PhaseSpace.h">
<polygon fill="none" stroke="black" points="412.5,-0.5 412.5,-30.5 591.5,-30.5 591.5,-0.5 412.5,-0.5"/>
<text text-anchor="start" x="420.5" y="-18.5" font-family="Helvetica,sans-Serif" font-size="10.00">/home/augalves/Development</text>
<text text-anchor="middle" x="502" y="-7.5" font-family="Helvetica,sans-Serif" font-size="10.00">/Release/Hydra/hydra/PhaseSpace.h</text>
</a>
</g>
</g>
<!-- Node1&#45;&gt;Node5 -->
<g id="edge7" class="edge"><title>Node1&#45;&gt;Node5</title>
<path fill="none" stroke="midnightblue" d="M450.884,-139.842C463.029,-131.547 474.853,-121.244 483,-109 499.075,-84.8412 502.004,-49.8705 502.281,-30.5877"/>
<polygon fill="midnightblue" stroke="midnightblue" points="448.978,-136.907 442.466,-145.264 452.768,-142.792 448.978,-136.907"/>
</g>
<!-- Node6 -->
<g id="node6" class="node"><title>Node6</title>
<g id="a_node6"><a xlink:href="a00089.html" target="_top" xlink:title="/home/augalves/Development\l/Release/Hydra/hydra/detail\l/functors/EvalMothers.h">
<polygon fill="none" stroke="black" points="530,-67.5 530,-108.5 676,-108.5 676,-67.5 530,-67.5"/>
<text text-anchor="start" x="538" y="-96.5" font-family="Helvetica,sans-Serif" font-size="10.00">/home/augalves/Development</text>
<text text-anchor="start" x="538" y="-85.5" font-family="Helvetica,sans-Serif" font-size="10.00">/Release/Hydra/hydra/detail</text>
<text text-anchor="middle" x="603" y="-74.5" font-family="Helvetica,sans-Serif" font-size="10.00">/functors/EvalMothers.h</text>
</a>
</g>
</g>
<!-- Node1&#45;&gt;Node6 -->
<g id="edge5" class="edge"><title>Node1&#45;&gt;Node6</title>
<path fill="none" stroke="midnightblue" d="M462.431,-141.887C490.788,-131.219 524.087,-118.69 551.156,-108.506"/>
<polygon fill="midnightblue" stroke="midnightblue" points="461.147,-138.631 453.02,-145.428 463.612,-145.182 461.147,-138.631"/>
</g>
<!-- Node4&#45;&gt;Node5 -->
<g id="edge4" class="edge"><title>Node4&#45;&gt;Node5</title>
<path fill="none" stroke="midnightblue" d="M437.637,-61.4264C452.493,-51.0568 469.084,-39.4763 481.7,-30.67"/>
<polygon fill="midnightblue" stroke="midnightblue" points="435.331,-58.7681 429.134,-67.3618 439.337,-64.508 435.331,-58.7681"/>
</g>
<!-- Node6&#45;&gt;Node5 -->
<g id="edge6" class="edge"><title>Node6&#45;&gt;Node5</title>
<path fill="none" stroke="midnightblue" d="M566.363,-61.4264C551.507,-51.0568 534.916,-39.4763 522.3,-30.67"/>
<polygon fill="midnightblue" stroke="midnightblue" points="564.663,-64.508 574.866,-67.3618 568.669,-58.7681 564.663,-64.508"/>
</g>
</g>
</svg>
