<?xml version="1.0" encoding="UTF-8" standalone="no"?>
<!DOCTYPE svg PUBLIC "-//W3C//DTD SVG 1.1//EN"
 "http://www.w3.org/Graphics/SVG/1.1/DTD/svg11.dtd">
<!-- Generated by graphviz version 2.38.0 (20140413.2041)
 -->
<!-- Title: OMP.h Pages: 1 -->
<svg width="501pt" height="196pt"
 viewBox="0.00 0.00 501.00 196.00" xmlns="http://www.w3.org/2000/svg" xmlns:xlink="http://www.w3.org/1999/xlink">
<g id="graph0" class="graph" transform="scale(1 1) rotate(0) translate(4 192)">
<title>OMP.h</title>
<!-- Node8 -->
<g id="node1" class="node"><title>Node8</title>
<polygon fill="#bfbfbf" stroke="black" points="199,-168.5 199,-187.5 246,-187.5 246,-168.5 199,-168.5"/>
<text text-anchor="middle" x="222.5" y="-175.5" font-family="Helvetica,sans-Serif" font-size="10.00">OMP.h</text>
</g>
<!-- Node9 -->
<g id="node2" class="node"><title>Node9</title>
<g id="a_node2"><a xlink:href="a02389.html" target="_top" xlink:title="System.h">
<polygon fill="none" stroke="black" points="193,-112.5 193,-131.5 252,-131.5 252,-112.5 193,-112.5"/>
<text text-anchor="middle" x="222.5" y="-119.5" font-family="Helvetica,sans-Serif" font-size="10.00">System.h</text>
</a>
</g>
</g>
<!-- Node8&#45;&gt;Node9 -->
<g id="edge1" class="edge"><title>Node8&#45;&gt;Node9</title>
<path fill="none" stroke="midnightblue" d="M222.5,-157.805C222.5,-148.91 222.5,-138.78 222.5,-131.751"/>
<polygon fill="midnightblue" stroke="midnightblue" points="219,-158.083 222.5,-168.083 226,-158.083 219,-158.083"/>
</g>
<!-- Node10 -->
<g id="node3" class="node"><title>Node10</title>
<g id="a_node3"><a xlink:href="a00416.html" target="_top" xlink:title="async_mc.inl">
<polygon fill="none" stroke="black" points="70.5,-56.5 70.5,-75.5 144.5,-75.5 144.5,-56.5 70.5,-56.5"/>
<text text-anchor="middle" x="107.5" y="-63.5" font-family="Helvetica,sans-Serif" font-size="10.00">async_mc.inl</text>
</a>
</g>
</g>
<!-- Node9&#45;&gt;Node10 -->
<g id="edge2" class="edge"><title>Node9&#45;&gt;Node10</title>
<path fill="none" stroke="midnightblue" d="M195.019,-108.096C173.534,-98.0073 144.278,-84.2697 125.637,-75.5164"/>
<polygon fill="midnightblue" stroke="midnightblue" points="193.738,-111.361 204.278,-112.444 196.714,-105.025 193.738,-111.361"/>
</g>
<!-- Node12 -->
<g id="node5" class="node"><title>Node12</title>
<g id="a_node5"><a xlink:href="a00452.html" target="_top" xlink:title="multidimensional_fit.inl">
<polygon fill="none" stroke="black" points="164.5,-56.5 164.5,-75.5 280.5,-75.5 280.5,-56.5 164.5,-56.5"/>
<text text-anchor="middle" x="222.5" y="-63.5" font-family="Helvetica,sans-Serif" font-size="10.00">multidimensional_fit.inl</text>
</a>
</g>
</g>
<!-- Node9&#45;&gt;Node12 -->
<g id="edge4" class="edge"><title>Node9&#45;&gt;Node12</title>
<path fill="none" stroke="midnightblue" d="M222.5,-101.805C222.5,-92.9102 222.5,-82.7798 222.5,-75.7511"/>
<polygon fill="midnightblue" stroke="midnightblue" points="219,-102.083 222.5,-112.083 226,-102.083 219,-102.083"/>
</g>
<!-- Node15 -->
<g id="node8" class="node"><title>Node15</title>
<g id="a_node8"><a xlink:href="a00470.html" target="_top" xlink:title="splot.inl">
<polygon fill="none" stroke="black" points="370.5,-56.5 370.5,-75.5 420.5,-75.5 420.5,-56.5 370.5,-56.5"/>
<text text-anchor="middle" x="395.5" y="-63.5" font-family="Helvetica,sans-Serif" font-size="10.00">splot.inl</text>
</a>
</g>
</g>
<!-- Node9&#45;&gt;Node15 -->
<g id="edge7" class="edge"><title>Node9&#45;&gt;Node15</title>
<path fill="none" stroke="midnightblue" d="M259.785,-109.362C293.24,-98.9192 341.416,-83.8818 370.463,-74.8151"/>
<polygon fill="midnightblue" stroke="midnightblue" points="258.415,-106.123 249.912,-112.444 260.501,-112.805 258.415,-106.123"/>
</g>
<!-- Node11 -->
<g id="node4" class="node"><title>Node11</title>
<g id="a_node4"><a xlink:href="a00413.html" target="_top" xlink:title="async_mc.cu">
<polygon fill="none" stroke="black" points="0,-0.5 0,-19.5 75,-19.5 75,-0.5 0,-0.5"/>
<text text-anchor="middle" x="37.5" y="-7.5" font-family="Helvetica,sans-Serif" font-size="10.00">async_mc.cu</text>
</a>
</g>
</g>
<!-- Node10&#45;&gt;Node11 -->
<g id="edge3" class="edge"><title>Node10&#45;&gt;Node11</title>
<path fill="none" stroke="midnightblue" d="M88.1862,-50.1008C75.5883,-40.3824 59.5719,-28.0269 48.9513,-19.8339"/>
<polygon fill="midnightblue" stroke="midnightblue" points="86.1976,-52.9871 96.2533,-56.324 90.4733,-47.4446 86.1976,-52.9871"/>
</g>
<!-- Node13 -->
<g id="node6" class="node"><title>Node13</title>
<g id="a_node6"><a xlink:href="a00446.html" target="_top" xlink:title="multidimensional_fit.cpp">
<polygon fill="none" stroke="black" points="93.5,-0.5 93.5,-19.5 215.5,-19.5 215.5,-0.5 93.5,-0.5"/>
<text text-anchor="middle" x="154.5" y="-7.5" font-family="Helvetica,sans-Serif" font-size="10.00">multidimensional_fit.cpp</text>
</a>
</g>
</g>
<!-- Node12&#45;&gt;Node13 -->
<g id="edge5" class="edge"><title>Node12&#45;&gt;Node13</title>
<path fill="none" stroke="midnightblue" d="M203.738,-50.1008C191.5,-40.3824 175.941,-28.0269 165.624,-19.8339"/>
<polygon fill="midnightblue" stroke="midnightblue" points="201.567,-52.846 211.575,-56.324 205.92,-47.3642 201.567,-52.846"/>
</g>
<!-- Node14 -->
<g id="node7" class="node"><title>Node14</title>
<g id="a_node7"><a xlink:href="a00449.html" target="_top" xlink:title="multidimensional_fit.cu">
<polygon fill="none" stroke="black" points="233.5,-0.5 233.5,-19.5 349.5,-19.5 349.5,-0.5 233.5,-0.5"/>
<text text-anchor="middle" x="291.5" y="-7.5" font-family="Helvetica,sans-Serif" font-size="10.00">multidimensional_fit.cu</text>
</a>
</g>
</g>
<!-- Node12&#45;&gt;Node14 -->
<g id="edge6" class="edge"><title>Node12&#45;&gt;Node14</title>
<path fill="none" stroke="midnightblue" d="M241.538,-50.1008C253.956,-40.3824 269.743,-28.0269 280.212,-19.8339"/>
<polygon fill="midnightblue" stroke="midnightblue" points="239.304,-47.4046 233.586,-56.324 243.618,-52.9171 239.304,-47.4046"/>
</g>
<!-- Node16 -->
<g id="node9" class="node"><title>Node16</title>
<g id="a_node9"><a xlink:href="a00464.html" target="_top" xlink:title="splot.cpp">
<polygon fill="none" stroke="black" points="367.5,-0.5 367.5,-19.5 423.5,-19.5 423.5,-0.5 367.5,-0.5"/>
<text text-anchor="middle" x="395.5" y="-7.5" font-family="Helvetica,sans-Serif" font-size="10.00">splot.cpp</text>
</a>
</g>
</g>
<!-- Node15&#45;&gt;Node16 -->
<g id="edge8" class="edge"><title>Node15&#45;&gt;Node16</title>
<path fill="none" stroke="midnightblue" d="M395.5,-45.8045C395.5,-36.9102 395.5,-26.7798 395.5,-19.7511"/>
<polygon fill="midnightblue" stroke="midnightblue" points="392,-46.083 395.5,-56.083 399,-46.083 392,-46.083"/>
</g>
<!-- Node17 -->
<g id="node10" class="node"><title>Node17</title>
<g id="a_node10"><a xlink:href="a00467.html" target="_top" xlink:title="splot.cu">
<polygon fill="none" stroke="black" points="442,-0.5 442,-19.5 493,-19.5 493,-0.5 442,-0.5"/>
<text text-anchor="middle" x="467.5" y="-7.5" font-family="Helvetica,sans-Serif" font-size="10.00">splot.cu</text>
</a>
</g>
</g>
<!-- Node15&#45;&gt;Node17 -->
<g id="edge9" class="edge"><title>Node15&#45;&gt;Node17</title>
<path fill="none" stroke="midnightblue" d="M415.366,-50.1008C428.323,-40.3824 444.797,-28.0269 455.721,-19.8339"/>
<polygon fill="midnightblue" stroke="midnightblue" points="412.968,-47.5239 407.068,-56.324 417.168,-53.1239 412.968,-47.5239"/>
</g>
</g>
</svg>
