<?xml version="1.0" encoding="UTF-8" standalone="no"?>
<!DOCTYPE svg PUBLIC "-//W3C//DTD SVG 1.1//EN"
 "http://www.w3.org/Graphics/SVG/1.1/DTD/svg11.dtd">
<!-- Generated by graphviz version 2.38.0 (20140413.2041)
 -->
<!-- Title: Hash.h Pages: 1 -->
<svg width="113pt" height="140pt"
 viewBox="0.00 0.00 113.00 140.00" xmlns="http://www.w3.org/2000/svg" xmlns:xlink="http://www.w3.org/1999/xlink">
<g id="graph0" class="graph" transform="scale(1 1) rotate(0) translate(4 136)">
<title>Hash.h</title>
<!-- Node1 -->
<g id="node1" class="node"><title>Node1</title>
<polygon fill="#bfbfbf" stroke="black" points="28.5,-112.5 28.5,-131.5 76.5,-131.5 76.5,-112.5 28.5,-112.5"/>
<text text-anchor="middle" x="52.5" y="-119.5" font-family="Helvetica,sans-Serif" font-size="10.00">Hash.h</text>
</g>
<!-- Node2 -->
<g id="node2" class="node"><title>Node2</title>
<g id="a_node2"><a xlink:href="a00104.html" target="_top" xlink:title="FCN.h">
<polygon fill="none" stroke="black" points="4.5,-56.5 4.5,-75.5 50.5,-75.5 50.5,-56.5 4.5,-56.5"/>
<text text-anchor="middle" x="27.5" y="-63.5" font-family="Helvetica,sans-Serif" font-size="10.00">FCN.h</text>
</a>
</g>
</g>
<!-- Node1&#45;&gt;Node2 -->
<g id="edge1" class="edge"><title>Node1&#45;&gt;Node2</title>
<path fill="none" stroke="midnightblue" d="M44.1587,-102.983C39.9152,-93.8168 34.9501,-83.0922 31.5514,-75.7511"/>
<polygon fill="midnightblue" stroke="midnightblue" points="40.9943,-104.479 48.3718,-112.083 47.3466,-101.538 40.9943,-104.479"/>
</g>
<!-- Node3 -->
<g id="node3" class="node"><title>Node3</title>
<g id="a_node3"><a xlink:href="a00117.html" target="_top" xlink:title="LogLikelihoodFCN.h">
<polygon fill="none" stroke="black" points="0,-0.5 0,-19.5 105,-19.5 105,-0.5 0,-0.5"/>
<text text-anchor="middle" x="52.5" y="-7.5" font-family="Helvetica,sans-Serif" font-size="10.00">LogLikelihoodFCN.h</text>
</a>
</g>
</g>
<!-- Node1&#45;&gt;Node3 -->
<g id="edge3" class="edge"><title>Node1&#45;&gt;Node3</title>
<path fill="none" stroke="midnightblue" d="M56.0281,-102.547C57.4081,-94.4374 58.8212,-84.7796 59.5,-76 61.0573,-55.8572 57.0648,-32.3006 54.4872,-19.8158"/>
<polygon fill="midnightblue" stroke="midnightblue" points="52.5785,-101.955 54.2389,-112.419 59.4663,-103.204 52.5785,-101.955"/>
</g>
<!-- Node2&#45;&gt;Node3 -->
<g id="edge2" class="edge"><title>Node2&#45;&gt;Node3</title>
<path fill="none" stroke="midnightblue" d="M35.8413,-46.9827C40.0848,-37.8168 45.0499,-27.0922 48.4486,-19.7511"/>
<polygon fill="midnightblue" stroke="midnightblue" points="32.6534,-45.5379 31.6282,-56.083 39.0057,-48.4788 32.6534,-45.5379"/>
</g>
</g>
</svg>
