<?xml version="1.0" encoding="UTF-8" standalone="no"?>
<!DOCTYPE svg PUBLIC "-//W3C//DTD SVG 1.1//EN"
 "http://www.w3.org/Graphics/SVG/1.1/DTD/svg11.dtd">
<!-- Generated by graphviz version 2.38.0 (20140413.2041)
 -->
<!-- Title: Sum.h Pages: 1 -->
<!--zoomable 218 -->
<svg id="main" version="1.1" xmlns="http://www.w3.org/2000/svg" xmlns:xlink="http://www.w3.org/1999/xlink" xml:space="preserve" onload="init(evt)">
<style type="text/css"><![CDATA[
.edge:hover path { stroke: red; }
.edge:hover polygon { stroke: red; fill: red; }
]]></style>
<script type="text/javascript"><![CDATA[
var edges = document.getElementsByTagName('g');
if (edges && edges.length) {
  for (var i=0;i<edges.length;i++) {
    if (edges[i].id.substr(0,4)=='edge') {
      edges[i].setAttribute('class','edge');
    }
  }
}
]]></script>
        <defs>
                <circle id="rim" cx="0" cy="0" r="7"/>
                <circle id="rim2" cx="0" cy="0" r="3.5"/>
                <g id="zoomPlus">
                        <use xlink:href="#rim" fill="#404040">
                                <set attributeName="fill" to="#808080" begin="zoomplus.mouseover" end="zoomplus.mouseout"/>
                        </use>
                        <path d="M-4,0h8M0,-4v8" fill="none" stroke="white" stroke-width="1.5" pointer-events="none"/>
                </g>
                <g id="zoomMin">
                        <use xlink:href="#rim" fill="#404040">
                                <set attributeName="fill" to="#808080" begin="zoomminus.mouseover" end="zoomminus.mouseout"/>
                        </use>
                        <path d="M-4,0h8" fill="none" stroke="white" stroke-width="1.5" pointer-events="none"/>
                </g>
                <g id="dirArrow">
                        <path fill="none" stroke="white" stroke-width="1.5" d="M0,-3.0v7 M-2.5,-0.5L0,-3.0L2.5,-0.5"/>
                </g>
               <g id="resetDef">
                       <use xlink:href="#rim2" fill="#404040">
                               <set attributeName="fill" to="#808080" begin="reset.mouseover" end="reset.mouseout"/>
                       </use>
               </g>
        </defs>

<script type="text/javascript">
var viewWidth = 3359;
var viewHeight = 218;
var sectionId = 'dynsection-1';
</script>
<script xlink:href="svgpan.js"/>
<svg id="graph" class="graph">
<g id="viewport">
<title>Sum.h</title>
<!-- Node49 -->
<g id="node1" class="node"><title>Node49</title>
<polygon fill="#bfbfbf" stroke="black" points="1497,-190.5 1497,-209.5 1542,-209.5 1542,-190.5 1497,-190.5"/>
<text text-anchor="middle" x="1519.5" y="-197.5" font-family="Helvetica,sans-Serif" font-size="10.00">Sum.h</text>
</g>
<!-- Node50 -->
<g id="node2" class="node"><title>Node50</title>
<g id="a_node2"><a xlink:href="a00302.html" target="_top" xlink:title="This file should be included in order to enable functor aritmethic in hydra. ">
<polygon fill="none" stroke="black" points="1468.5,-134.5 1468.5,-153.5 1570.5,-153.5 1570.5,-134.5 1468.5,-134.5"/>
<text text-anchor="middle" x="1519.5" y="-141.5" font-family="Helvetica,sans-Serif" font-size="10.00">FunctorArithmetic.h</text>
</a>
</g>
</g>
<!-- Node49&#45;&gt;Node50 -->
<g id="edge1" class="edge"><title>Node49&#45;&gt;Node50</title>
<path fill="none" stroke="midnightblue" d="M1519.5,-179.805C1519.5,-170.91 1519.5,-160.78 1519.5,-153.751"/>
<polygon fill="midnightblue" stroke="midnightblue" points="1516,-180.083 1519.5,-190.083 1523,-180.083 1516,-180.083"/>
</g>
<!-- Node51 -->
<g id="node3" class="node"><title>Node51</title>
<g id="a_node3"><a xlink:href="a00416.html" target="_top" xlink:title="async_mc.inl">
<polygon fill="none" stroke="black" points="75.5,-73 75.5,-92 149.5,-92 149.5,-73 75.5,-73"/>
<text text-anchor="middle" x="112.5" y="-80" font-family="Helvetica,sans-Serif" font-size="10.00">async_mc.inl</text>
</a>
</g>
</g>
<!-- Node50&#45;&gt;Node51 -->
<g id="edge2" class="edge"><title>Node50&#45;&gt;Node51</title>
<path fill="none" stroke="midnightblue" d="M1458.13,-142.71C1272.87,-141.436 703.119,-134.594 232.5,-98 204.674,-95.8364 173.372,-92.0071 149.715,-88.827"/>
<polygon fill="midnightblue" stroke="midnightblue" points="1458.2,-146.21 1468.22,-142.776 1458.24,-139.21 1458.2,-146.21"/>
</g>
<!-- Node53 -->
<g id="node5" class="node"><title>Node53</title>
<g id="a_node5"><a xlink:href="a00461.html" target="_top" xlink:title="phsp_unweighting_functor\l_and_fit.inl">
<polygon fill="none" stroke="black" points="241.5,-67.5 241.5,-97.5 371.5,-97.5 371.5,-67.5 241.5,-67.5"/>
<text text-anchor="start" x="249.5" y="-85.5" font-family="Helvetica,sans-Serif" font-size="10.00">phsp_unweighting_functor</text>
<text text-anchor="middle" x="306.5" y="-74.5" font-family="Helvetica,sans-Serif" font-size="10.00">_and_fit.inl</text>
</a>
</g>
</g>
<!-- Node50&#45;&gt;Node53 -->
<g id="edge4" class="edge"><title>Node50&#45;&gt;Node53</title>
<path fill="none" stroke="midnightblue" d="M1458.01,-140.846C1300.23,-135.191 868.135,-118.908 508.5,-98 462.694,-95.337 411.097,-91.6211 371.516,-88.6177"/>
<polygon fill="midnightblue" stroke="midnightblue" points="1458.33,-144.359 1468.45,-141.219 1458.58,-137.364 1458.33,-144.359"/>
</g>
<!-- Node56 -->
<g id="node8" class="node"><title>Node56</title>
<g id="a_node8"><a xlink:href="a00479.html" target="_top" xlink:title="dense_histogram.inl">
<polygon fill="none" stroke="black" points="517.5,-73 517.5,-92 621.5,-92 621.5,-73 517.5,-73"/>
<text text-anchor="middle" x="569.5" y="-80" font-family="Helvetica,sans-Serif" font-size="10.00">dense_histogram.inl</text>
</a>
</g>
</g>
<!-- Node50&#45;&gt;Node56 -->
<g id="edge7" class="edge"><title>Node50&#45;&gt;Node56</title>
<path fill="none" stroke="midnightblue" d="M1458.4,-139.707C1329.55,-132.688 1020.51,-115.467 761.5,-98 714.139,-94.806 660.245,-90.694 621.638,-87.6652"/>
<polygon fill="midnightblue" stroke="midnightblue" points="1458.29,-143.206 1468.47,-140.254 1458.67,-136.216 1458.29,-143.206"/>
</g>
<!-- Node59 -->
<g id="node11" class="node"><title>Node59</title>
<g id="a_node11"><a xlink:href="a00488.html" target="_top" xlink:title="sparse_histogram.inl">
<polygon fill="none" stroke="black" points="771,-73 771,-92 878,-92 878,-73 771,-73"/>
<text text-anchor="middle" x="824.5" y="-80" font-family="Helvetica,sans-Serif" font-size="10.00">sparse_histogram.inl</text>
</a>
</g>
</g>
<!-- Node50&#45;&gt;Node59 -->
<g id="edge10" class="edge"><title>Node50&#45;&gt;Node59</title>
<path fill="none" stroke="midnightblue" d="M1457.98,-138.053C1357.87,-129.96 1153.5,-113.262 980.5,-98 946.496,-95.0003 908.34,-91.4569 878.276,-88.6239"/>
<polygon fill="midnightblue" stroke="midnightblue" points="1457.96,-141.562 1468.21,-138.879 1458.52,-134.585 1457.96,-141.562"/>
</g>
<!-- Node62 -->
<g id="node14" class="node"><title>Node62</title>
<g id="a_node14"><a xlink:href="a00542.html" target="_top" xlink:title="plain_mc.inl">
<polygon fill="none" stroke="black" points="989.5,-73 989.5,-92 1057.5,-92 1057.5,-73 989.5,-73"/>
<text text-anchor="middle" x="1023.5" y="-80" font-family="Helvetica,sans-Serif" font-size="10.00">plain_mc.inl</text>
</a>
</g>
</g>
<!-- Node50&#45;&gt;Node62 -->
<g id="edge13" class="edge"><title>Node50&#45;&gt;Node62</title>
<path fill="none" stroke="midnightblue" d="M1458.12,-135.636C1352.65,-122.985 1140.42,-97.5262 1057.65,-87.5972"/>
<polygon fill="midnightblue" stroke="midnightblue" points="1457.94,-139.141 1468.29,-136.857 1458.78,-132.19 1457.94,-139.141"/>
</g>
<!-- Node65 -->
<g id="node17" class="node"><title>Node65</title>
<g id="a_node17"><a xlink:href="a00551.html" target="_top" xlink:title="vegas.inl">
<polygon fill="none" stroke="black" points="1156.5,-73 1156.5,-92 1212.5,-92 1212.5,-73 1156.5,-73"/>
<text text-anchor="middle" x="1184.5" y="-80" font-family="Helvetica,sans-Serif" font-size="10.00">vegas.inl</text>
</a>
</g>
</g>
<!-- Node50&#45;&gt;Node65 -->
<g id="edge16" class="edge"><title>Node50&#45;&gt;Node65</title>
<path fill="none" stroke="midnightblue" d="M1461.6,-132.716C1389,-119.822 1267.45,-98.2327 1212.72,-88.5121"/>
<polygon fill="midnightblue" stroke="midnightblue" points="1461.04,-136.172 1471.5,-134.475 1462.27,-129.28 1461.04,-136.172"/>
</g>
<!-- Node68 -->
<g id="node20" class="node"><title>Node68</title>
<g id="a_node20"><a xlink:href="a00560.html" target="_top" xlink:title="phsp_averaging_functor.inl">
<polygon fill="none" stroke="black" points="1389,-73 1389,-92 1522,-92 1522,-73 1389,-73"/>
<text text-anchor="middle" x="1455.5" y="-80" font-family="Helvetica,sans-Serif" font-size="10.00">phsp_averaging_functor.inl</text>
</a>
</g>
</g>
<!-- Node50&#45;&gt;Node68 -->
<g id="edge19" class="edge"><title>Node50&#45;&gt;Node68</title>
<path fill="none" stroke="midnightblue" d="M1502.99,-127.65C1490.79,-116.306 1474.63,-101.281 1464.65,-92.0091"/>
<polygon fill="midnightblue" stroke="midnightblue" points="1500.62,-130.23 1510.33,-134.475 1505.39,-125.103 1500.62,-130.23"/>
</g>
<!-- Node71 -->
<g id="node23" class="node"><title>Node71</title>
<g id="a_node23"><a xlink:href="a00569.html" target="_top" xlink:title="phsp_basic.inl">
<polygon fill="none" stroke="black" points="1544,-73 1544,-92 1623,-92 1623,-73 1544,-73"/>
<text text-anchor="middle" x="1583.5" y="-80" font-family="Helvetica,sans-Serif" font-size="10.00">phsp_basic.inl</text>
</a>
</g>
</g>
<!-- Node50&#45;&gt;Node71 -->
<g id="edge22" class="edge"><title>Node50&#45;&gt;Node71</title>
<path fill="none" stroke="midnightblue" d="M1536.01,-127.65C1548.21,-116.306 1564.37,-101.281 1574.35,-92.0091"/>
<polygon fill="midnightblue" stroke="midnightblue" points="1533.61,-125.103 1528.67,-134.475 1538.38,-130.23 1533.61,-125.103"/>
</g>
<!-- Node74 -->
<g id="node26" class="node"><title>Node74</title>
<g id="a_node26"><a xlink:href="a00578.html" target="_top" xlink:title="phsp_chain.inl">
<polygon fill="none" stroke="black" points="1746,-73 1746,-92 1825,-92 1825,-73 1746,-73"/>
<text text-anchor="middle" x="1785.5" y="-80" font-family="Helvetica,sans-Serif" font-size="10.00">phsp_chain.inl</text>
</a>
</g>
</g>
<!-- Node50&#45;&gt;Node74 -->
<g id="edge25" class="edge"><title>Node50&#45;&gt;Node74</title>
<path fill="none" stroke="midnightblue" d="M1567.52,-132.258C1619.12,-120.716 1700.09,-102.606 1747.46,-92.0091"/>
<polygon fill="midnightblue" stroke="midnightblue" points="1566.61,-128.877 1557.61,-134.475 1568.13,-135.708 1566.61,-128.877"/>
</g>
<!-- Node77 -->
<g id="node29" class="node"><title>Node77</title>
<g id="a_node29"><a xlink:href="a00587.html" target="_top" xlink:title="phsp_evaluating_functor.inl">
<polygon fill="none" stroke="black" points="1948,-73 1948,-92 2083,-92 2083,-73 1948,-73"/>
<text text-anchor="middle" x="2015.5" y="-80" font-family="Helvetica,sans-Serif" font-size="10.00">phsp_evaluating_functor.inl</text>
</a>
</g>
</g>
<!-- Node50&#45;&gt;Node77 -->
<g id="edge28" class="edge"><title>Node50&#45;&gt;Node77</title>
<path fill="none" stroke="midnightblue" d="M1580.83,-135.642C1674.04,-124.461 1850.73,-103.266 1947.66,-91.638"/>
<polygon fill="midnightblue" stroke="midnightblue" points="1580.22,-132.19 1570.71,-136.857 1581.06,-139.141 1580.22,-132.19"/>
</g>
<!-- Node80 -->
<g id="node32" class="node"><title>Node80</title>
<g id="a_node32"><a xlink:href="a00596.html" target="_top" xlink:title="phsp_reweighting.inl">
<polygon fill="none" stroke="black" points="2262,-73 2262,-92 2367,-92 2367,-73 2262,-73"/>
<text text-anchor="middle" x="2314.5" y="-80" font-family="Helvetica,sans-Serif" font-size="10.00">phsp_reweighting.inl</text>
</a>
</g>
</g>
<!-- Node50&#45;&gt;Node80 -->
<g id="edge31" class="edge"><title>Node50&#45;&gt;Node80</title>
<path fill="none" stroke="midnightblue" d="M1580.78,-138.414C1731.93,-127.101 2120.49,-98.0201 2261.97,-87.4312"/>
<polygon fill="midnightblue" stroke="midnightblue" points="1580.46,-134.928 1570.74,-139.165 1580.98,-141.909 1580.46,-134.928"/>
</g>
<!-- Node83 -->
<g id="node35" class="node"><title>Node83</title>
<g id="a_node35"><a xlink:href="a00605.html" target="_top" xlink:title="phsp_unweighting.inl">
<polygon fill="none" stroke="black" points="2516,-73 2516,-92 2623,-92 2623,-73 2516,-73"/>
<text text-anchor="middle" x="2569.5" y="-80" font-family="Helvetica,sans-Serif" font-size="10.00">phsp_unweighting.inl</text>
</a>
</g>
</g>
<!-- Node50&#45;&gt;Node83 -->
<g id="edge34" class="edge"><title>Node50&#45;&gt;Node83</title>
<path fill="none" stroke="midnightblue" d="M1580.8,-140.243C1721.37,-133.818 2077.75,-116.951 2375.5,-98 2423.03,-94.9751 2477.05,-90.8836 2516,-87.818"/>
<polygon fill="midnightblue" stroke="midnightblue" points="1580.49,-136.753 1570.66,-140.705 1580.81,-143.746 1580.49,-136.753"/>
</g>
<!-- Node86 -->
<g id="node38" class="node"><title>Node86</title>
<g id="a_node38"><a xlink:href="a00614.html" target="_top" xlink:title="phsp_unweighting_functor.inl">
<polygon fill="none" stroke="black" points="2774,-73 2774,-92 2917,-92 2917,-73 2774,-73"/>
<text text-anchor="middle" x="2845.5" y="-80" font-family="Helvetica,sans-Serif" font-size="10.00">phsp_unweighting_functor.inl</text>
</a>
</g>
</g>
<!-- Node50&#45;&gt;Node86 -->
<g id="edge37" class="edge"><title>Node50&#45;&gt;Node86</title>
<path fill="none" stroke="midnightblue" d="M1580.64,-141.11C1748.54,-135.795 2230.87,-119.675 2631.5,-98 2678.91,-95.4351 2732.18,-91.8283 2773.71,-88.8537"/>
<polygon fill="midnightblue" stroke="midnightblue" points="1580.39,-137.616 1570.51,-141.43 1580.61,-144.613 1580.39,-137.616"/>
</g>
<!-- Node89 -->
<g id="node41" class="node"><title>Node89</title>
<g id="a_node41"><a xlink:href="a00632.html" target="_top" xlink:title="sample_distribution.inl">
<polygon fill="none" stroke="black" points="3102,-73 3102,-92 3215,-92 3215,-73 3102,-73"/>
<text text-anchor="middle" x="3158.5" y="-80" font-family="Helvetica,sans-Serif" font-size="10.00">sample_distribution.inl</text>
</a>
</g>
</g>
<!-- Node50&#45;&gt;Node89 -->
<g id="edge40" class="edge"><title>Node50&#45;&gt;Node89</title>
<path fill="none" stroke="midnightblue" d="M1580.69,-141.701C1776.51,-137.401 2405.43,-122.499 2925.5,-98 2985.62,-95.1679 3054.39,-90.7423 3101.55,-87.525"/>
<polygon fill="midnightblue" stroke="midnightblue" points="1580.51,-138.204 1570.59,-141.921 1580.67,-145.202 1580.51,-138.204"/>
</g>
<!-- Node52 -->
<g id="node4" class="node"><title>Node52</title>
<g id="a_node4"><a xlink:href="a00413.html" target="_top" xlink:title="async_mc.cu">
<polygon fill="none" stroke="black" points="0,-6 0,-25 75,-25 75,-6 0,-6"/>
<text text-anchor="middle" x="37.5" y="-13" font-family="Helvetica,sans-Serif" font-size="10.00">async_mc.cu</text>
</a>
</g>
</g>
<!-- Node51&#45;&gt;Node52 -->
<g id="edge3" class="edge"><title>Node51&#45;&gt;Node52</title>
<path fill="none" stroke="midnightblue" d="M94.4497,-65.8564C79.705,-53.0777 59.4133,-35.4915 47.4546,-25.1273"/>
<polygon fill="midnightblue" stroke="midnightblue" points="92.536,-68.8294 102.385,-72.7338 97.1205,-63.5396 92.536,-68.8294"/>
</g>
<!-- Node54 -->
<g id="node6" class="node"><title>Node54</title>
<g id="a_node6"><a xlink:href="a00455.html" target="_top" xlink:title="phsp_unweighting_functor\l_and_fit.cpp">
<polygon fill="none" stroke="black" points="93.5,-0.5 93.5,-30.5 223.5,-30.5 223.5,-0.5 93.5,-0.5"/>
<text text-anchor="start" x="101.5" y="-18.5" font-family="Helvetica,sans-Serif" font-size="10.00">phsp_unweighting_functor</text>
<text text-anchor="middle" x="158.5" y="-7.5" font-family="Helvetica,sans-Serif" font-size="10.00">_and_fit.cpp</text>
</a>
</g>
</g>
<!-- Node53&#45;&gt;Node54 -->
<g id="edge5" class="edge"><title>Node53&#45;&gt;Node54</title>
<path fill="none" stroke="midnightblue" d="M264.989,-63.2687C241.416,-52.9159 212.356,-40.1528 190.551,-30.5765"/>
<polygon fill="midnightblue" stroke="midnightblue" points="263.823,-66.5793 274.386,-67.396 266.638,-60.1702 263.823,-66.5793"/>
</g>
<!-- Node55 -->
<g id="node7" class="node"><title>Node55</title>
<g id="a_node7"><a xlink:href="a00458.html" target="_top" xlink:title="phsp_unweighting_functor\l_and_fit.cu">
<polygon fill="none" stroke="black" points="241.5,-0.5 241.5,-30.5 371.5,-30.5 371.5,-0.5 241.5,-0.5"/>
<text text-anchor="start" x="249.5" y="-18.5" font-family="Helvetica,sans-Serif" font-size="10.00">phsp_unweighting_functor</text>
<text text-anchor="middle" x="306.5" y="-7.5" font-family="Helvetica,sans-Serif" font-size="10.00">_and_fit.cu</text>
</a>
</g>
</g>
<!-- Node53&#45;&gt;Node55 -->
<g id="edge6" class="edge"><title>Node53&#45;&gt;Node55</title>
<path fill="none" stroke="midnightblue" d="M306.5,-57.1081C306.5,-48.1539 306.5,-38.3227 306.5,-30.5765"/>
<polygon fill="midnightblue" stroke="midnightblue" points="303,-57.3959 306.5,-67.396 310,-57.396 303,-57.3959"/>
</g>
<!-- Node57 -->
<g id="node9" class="node"><title>Node57</title>
<g id="a_node9"><a xlink:href="a00473.html" target="_top" xlink:title="dense_histogram.cpp">
<polygon fill="none" stroke="black" points="389.5,-6 389.5,-25 499.5,-25 499.5,-6 389.5,-6"/>
<text text-anchor="middle" x="444.5" y="-13" font-family="Helvetica,sans-Serif" font-size="10.00">dense_histogram.cpp</text>
</a>
</g>
</g>
<!-- Node56&#45;&gt;Node57 -->
<g id="edge8" class="edge"><title>Node56&#45;&gt;Node57</title>
<path fill="none" stroke="midnightblue" d="M543.737,-68.1034C518.983,-55.2309 482.308,-36.16 461.168,-25.1672"/>
<polygon fill="midnightblue" stroke="midnightblue" points="542.414,-71.3602 552.901,-72.8685 545.644,-65.1497 542.414,-71.3602"/>
</g>
<!-- Node58 -->
<g id="node10" class="node"><title>Node58</title>
<g id="a_node10"><a xlink:href="a00476.html" target="_top" xlink:title="dense_histogram.cu">
<polygon fill="none" stroke="black" points="517.5,-6 517.5,-25 621.5,-25 621.5,-6 517.5,-6"/>
<text text-anchor="middle" x="569.5" y="-13" font-family="Helvetica,sans-Serif" font-size="10.00">dense_histogram.cu</text>
</a>
</g>
</g>
<!-- Node56&#45;&gt;Node58 -->
<g id="edge9" class="edge"><title>Node56&#45;&gt;Node58</title>
<path fill="none" stroke="midnightblue" d="M569.5,-62.537C569.5,-50.1703 569.5,-34.6198 569.5,-25.1273"/>
<polygon fill="midnightblue" stroke="midnightblue" points="566,-62.7338 569.5,-72.7338 573,-62.7338 566,-62.7338"/>
</g>
<!-- Node60 -->
<g id="node12" class="node"><title>Node60</title>
<g id="a_node12"><a xlink:href="a00482.html" target="_top" xlink:title="sparse_histogram.cpp">
<polygon fill="none" stroke="black" points="640,-6 640,-25 753,-25 753,-6 640,-6"/>
<text text-anchor="middle" x="696.5" y="-13" font-family="Helvetica,sans-Serif" font-size="10.00">sparse_histogram.cpp</text>
</a>
</g>
</g>
<!-- Node59&#45;&gt;Node60 -->
<g id="edge11" class="edge"><title>Node59&#45;&gt;Node60</title>
<path fill="none" stroke="midnightblue" d="M798.455,-68.2739C773.103,-55.3999 735.311,-36.2086 713.568,-25.1672"/>
<polygon fill="midnightblue" stroke="midnightblue" points="797.002,-71.4614 807.503,-72.8685 800.171,-65.22 797.002,-71.4614"/>
</g>
<!-- Node61 -->
<g id="node13" class="node"><title>Node61</title>
<g id="a_node13"><a xlink:href="a00485.html" target="_top" xlink:title="sparse_histogram.cu">
<polygon fill="none" stroke="black" points="771,-6 771,-25 878,-25 878,-6 771,-6"/>
<text text-anchor="middle" x="824.5" y="-13" font-family="Helvetica,sans-Serif" font-size="10.00">sparse_histogram.cu</text>
</a>
</g>
</g>
<!-- Node59&#45;&gt;Node61 -->
<g id="edge12" class="edge"><title>Node59&#45;&gt;Node61</title>
<path fill="none" stroke="midnightblue" d="M824.5,-62.537C824.5,-50.1703 824.5,-34.6198 824.5,-25.1273"/>
<polygon fill="midnightblue" stroke="midnightblue" points="821,-62.7338 824.5,-72.7338 828,-62.7338 821,-62.7338"/>
</g>
<!-- Node63 -->
<g id="node15" class="node"><title>Node63</title>
<g id="a_node15"><a xlink:href="a00536.html" target="_top" xlink:title="plain_mc.cpp">
<polygon fill="none" stroke="black" points="896.5,-6 896.5,-25 970.5,-25 970.5,-6 896.5,-6"/>
<text text-anchor="middle" x="933.5" y="-13" font-family="Helvetica,sans-Serif" font-size="10.00">plain_mc.cpp</text>
</a>
</g>
</g>
<!-- Node62&#45;&gt;Node63 -->
<g id="edge14" class="edge"><title>Node62&#45;&gt;Node63</title>
<path fill="none" stroke="midnightblue" d="M1002.82,-66.5678C985.06,-53.7376 960.064,-35.6853 945.445,-25.1273"/>
<polygon fill="midnightblue" stroke="midnightblue" points="1001.21,-69.7162 1011.36,-72.7338 1005.3,-64.0415 1001.21,-69.7162"/>
</g>
<!-- Node64 -->
<g id="node16" class="node"><title>Node64</title>
<g id="a_node16"><a xlink:href="a00539.html" target="_top" xlink:title="plain_mc.cu">
<polygon fill="none" stroke="black" points="989,-6 989,-25 1058,-25 1058,-6 989,-6"/>
<text text-anchor="middle" x="1023.5" y="-13" font-family="Helvetica,sans-Serif" font-size="10.00">plain_mc.cu</text>
</a>
</g>
</g>
<!-- Node62&#45;&gt;Node64 -->
<g id="edge15" class="edge"><title>Node62&#45;&gt;Node64</title>
<path fill="none" stroke="midnightblue" d="M1023.5,-62.537C1023.5,-50.1703 1023.5,-34.6198 1023.5,-25.1273"/>
<polygon fill="midnightblue" stroke="midnightblue" points="1020,-62.7338 1023.5,-72.7338 1027,-62.7338 1020,-62.7338"/>
</g>
<!-- Node66 -->
<g id="node18" class="node"><title>Node66</title>
<g id="a_node18"><a xlink:href="a00545.html" target="_top" xlink:title="vegas.cpp">
<polygon fill="none" stroke="black" points="1076.5,-6 1076.5,-25 1138.5,-25 1138.5,-6 1076.5,-6"/>
<text text-anchor="middle" x="1107.5" y="-13" font-family="Helvetica,sans-Serif" font-size="10.00">vegas.cpp</text>
</a>
</g>
</g>
<!-- Node65&#45;&gt;Node66 -->
<g id="edge17" class="edge"><title>Node65&#45;&gt;Node66</title>
<path fill="none" stroke="midnightblue" d="M1166.39,-66.2134C1151.22,-53.407 1130.11,-35.5884 1117.72,-25.1273"/>
<polygon fill="midnightblue" stroke="midnightblue" points="1164.22,-68.9577 1174.12,-72.7338 1168.73,-63.6088 1164.22,-68.9577"/>
</g>
<!-- Node67 -->
<g id="node19" class="node"><title>Node67</title>
<g id="a_node19"><a xlink:href="a00548.html" target="_top" xlink:title="vegas.cu">
<polygon fill="none" stroke="black" points="1156.5,-6 1156.5,-25 1212.5,-25 1212.5,-6 1156.5,-6"/>
<text text-anchor="middle" x="1184.5" y="-13" font-family="Helvetica,sans-Serif" font-size="10.00">vegas.cu</text>
</a>
</g>
</g>
<!-- Node65&#45;&gt;Node67 -->
<g id="edge18" class="edge"><title>Node65&#45;&gt;Node67</title>
<path fill="none" stroke="midnightblue" d="M1184.5,-62.537C1184.5,-50.1703 1184.5,-34.6198 1184.5,-25.1273"/>
<polygon fill="midnightblue" stroke="midnightblue" points="1181,-62.7338 1184.5,-72.7338 1188,-62.7338 1181,-62.7338"/>
</g>
<!-- Node69 -->
<g id="node21" class="node"><title>Node69</title>
<g id="a_node21"><a xlink:href="a00554.html" target="_top" xlink:title="phsp_averaging_functor.cpp">
<polygon fill="none" stroke="black" points="1231,-6 1231,-25 1370,-25 1370,-6 1231,-6"/>
<text text-anchor="middle" x="1300.5" y="-13" font-family="Helvetica,sans-Serif" font-size="10.00">phsp_averaging_functor.cpp</text>
</a>
</g>
</g>
<!-- Node68&#45;&gt;Node69 -->
<g id="edge20" class="edge"><title>Node68&#45;&gt;Node69</title>
<path fill="none" stroke="midnightblue" d="M1425.57,-68.9485C1394.88,-56.0787 1347.96,-36.4032 1321.17,-25.1672"/>
<polygon fill="midnightblue" stroke="midnightblue" points="1424.34,-72.2289 1434.92,-72.8685 1427.05,-65.7735 1424.34,-72.2289"/>
</g>
<!-- Node70 -->
<g id="node22" class="node"><title>Node70</title>
<g id="a_node22"><a xlink:href="a00557.html" target="_top" xlink:title="phsp_averaging_functor.cu">
<polygon fill="none" stroke="black" points="1388.5,-6 1388.5,-25 1522.5,-25 1522.5,-6 1388.5,-6"/>
<text text-anchor="middle" x="1455.5" y="-13" font-family="Helvetica,sans-Serif" font-size="10.00">phsp_averaging_functor.cu</text>
</a>
</g>
</g>
<!-- Node68&#45;&gt;Node70 -->
<g id="edge21" class="edge"><title>Node68&#45;&gt;Node70</title>
<path fill="none" stroke="midnightblue" d="M1455.5,-62.537C1455.5,-50.1703 1455.5,-34.6198 1455.5,-25.1273"/>
<polygon fill="midnightblue" stroke="midnightblue" points="1452,-62.7338 1455.5,-72.7338 1459,-62.7338 1452,-62.7338"/>
</g>
<!-- Node72 -->
<g id="node24" class="node"><title>Node72</title>
<g id="a_node24"><a xlink:href="a00563.html" target="_top" xlink:title="phsp_basic.cpp">
<polygon fill="none" stroke="black" points="1541,-6 1541,-25 1626,-25 1626,-6 1541,-6"/>
<text text-anchor="middle" x="1583.5" y="-13" font-family="Helvetica,sans-Serif" font-size="10.00">phsp_basic.cpp</text>
</a>
</g>
</g>
<!-- Node71&#45;&gt;Node72 -->
<g id="edge23" class="edge"><title>Node71&#45;&gt;Node72</title>
<path fill="none" stroke="midnightblue" d="M1583.5,-62.537C1583.5,-50.1703 1583.5,-34.6198 1583.5,-25.1273"/>
<polygon fill="midnightblue" stroke="midnightblue" points="1580,-62.7338 1583.5,-72.7338 1587,-62.7338 1580,-62.7338"/>
</g>
<!-- Node73 -->
<g id="node25" class="node"><title>Node73</title>
<g id="a_node25"><a xlink:href="a00566.html" target="_top" xlink:title="phsp_basic.cu">
<polygon fill="none" stroke="black" points="1644.5,-6 1644.5,-25 1724.5,-25 1724.5,-6 1644.5,-6"/>
<text text-anchor="middle" x="1684.5" y="-13" font-family="Helvetica,sans-Serif" font-size="10.00">phsp_basic.cu</text>
</a>
</g>
</g>
<!-- Node71&#45;&gt;Node73 -->
<g id="edge24" class="edge"><title>Node71&#45;&gt;Node73</title>
<path fill="none" stroke="midnightblue" d="M1605.61,-67.2687C1625.61,-54.4026 1654.39,-35.879 1671.09,-25.1273"/>
<polygon fill="midnightblue" stroke="midnightblue" points="1603.64,-64.3788 1597.12,-72.7338 1607.42,-70.2652 1603.64,-64.3788"/>
</g>
<!-- Node75 -->
<g id="node27" class="node"><title>Node75</title>
<g id="a_node27"><a xlink:href="a00572.html" target="_top" xlink:title="phsp_chain.cpp">
<polygon fill="none" stroke="black" points="1743,-6 1743,-25 1828,-25 1828,-6 1743,-6"/>
<text text-anchor="middle" x="1785.5" y="-13" font-family="Helvetica,sans-Serif" font-size="10.00">phsp_chain.cpp</text>
</a>
</g>
</g>
<!-- Node74&#45;&gt;Node75 -->
<g id="edge26" class="edge"><title>Node74&#45;&gt;Node75</title>
<path fill="none" stroke="midnightblue" d="M1785.5,-62.537C1785.5,-50.1703 1785.5,-34.6198 1785.5,-25.1273"/>
<polygon fill="midnightblue" stroke="midnightblue" points="1782,-62.7338 1785.5,-72.7338 1789,-62.7338 1782,-62.7338"/>
</g>
<!-- Node76 -->
<g id="node28" class="node"><title>Node76</title>
<g id="a_node28"><a xlink:href="a00575.html" target="_top" xlink:title="phsp_chain.cu">
<polygon fill="none" stroke="black" points="1846.5,-6 1846.5,-25 1926.5,-25 1926.5,-6 1846.5,-6"/>
<text text-anchor="middle" x="1886.5" y="-13" font-family="Helvetica,sans-Serif" font-size="10.00">phsp_chain.cu</text>
</a>
</g>
</g>
<!-- Node74&#45;&gt;Node76 -->
<g id="edge27" class="edge"><title>Node74&#45;&gt;Node76</title>
<path fill="none" stroke="midnightblue" d="M1807.61,-67.2687C1827.61,-54.4026 1856.39,-35.879 1873.09,-25.1273"/>
<polygon fill="midnightblue" stroke="midnightblue" points="1805.64,-64.3788 1799.12,-72.7338 1809.42,-70.2652 1805.64,-64.3788"/>
</g>
<!-- Node78 -->
<g id="node30" class="node"><title>Node78</title>
<g id="a_node30"><a xlink:href="a00581.html" target="_top" xlink:title="phsp_evaluating_functor.cpp">
<polygon fill="none" stroke="black" points="1945,-6 1945,-25 2086,-25 2086,-6 1945,-6"/>
<text text-anchor="middle" x="2015.5" y="-13" font-family="Helvetica,sans-Serif" font-size="10.00">phsp_evaluating_functor.cpp</text>
</a>
</g>
</g>
<!-- Node77&#45;&gt;Node78 -->
<g id="edge29" class="edge"><title>Node77&#45;&gt;Node78</title>
<path fill="none" stroke="midnightblue" d="M2015.5,-62.537C2015.5,-50.1703 2015.5,-34.6198 2015.5,-25.1273"/>
<polygon fill="midnightblue" stroke="midnightblue" points="2012,-62.7338 2015.5,-72.7338 2019,-62.7338 2012,-62.7338"/>
</g>
<!-- Node79 -->
<g id="node31" class="node"><title>Node79</title>
<g id="a_node31"><a xlink:href="a00584.html" target="_top" xlink:title="phsp_evaluating_functor.cu">
<polygon fill="none" stroke="black" points="2104.5,-6 2104.5,-25 2240.5,-25 2240.5,-6 2104.5,-6"/>
<text text-anchor="middle" x="2172.5" y="-13" font-family="Helvetica,sans-Serif" font-size="10.00">phsp_evaluating_functor.cu</text>
</a>
</g>
</g>
<!-- Node77&#45;&gt;Node79 -->
<g id="edge30" class="edge"><title>Node77&#45;&gt;Node79</title>
<path fill="none" stroke="midnightblue" d="M2045.82,-68.9485C2076.9,-56.0787 2124.43,-36.4032 2151.57,-25.1672"/>
<polygon fill="midnightblue" stroke="midnightblue" points="2044.25,-65.8094 2036.35,-72.8685 2046.93,-72.277 2044.25,-65.8094"/>
</g>
<!-- Node81 -->
<g id="node33" class="node"><title>Node81</title>
<g id="a_node33"><a xlink:href="a00590.html" target="_top" xlink:title="phsp_reweighting.cpp">
<polygon fill="none" stroke="black" points="2259,-6 2259,-25 2370,-25 2370,-6 2259,-6"/>
<text text-anchor="middle" x="2314.5" y="-13" font-family="Helvetica,sans-Serif" font-size="10.00">phsp_reweighting.cpp</text>
</a>
</g>
</g>
<!-- Node80&#45;&gt;Node81 -->
<g id="edge32" class="edge"><title>Node80&#45;&gt;Node81</title>
<path fill="none" stroke="midnightblue" d="M2314.5,-62.537C2314.5,-50.1703 2314.5,-34.6198 2314.5,-25.1273"/>
<polygon fill="midnightblue" stroke="midnightblue" points="2311,-62.7338 2314.5,-72.7338 2318,-62.7338 2311,-62.7338"/>
</g>
<!-- Node82 -->
<g id="node34" class="node"><title>Node82</title>
<g id="a_node34"><a xlink:href="a00593.html" target="_top" xlink:title="phsp_reweighting.cu">
<polygon fill="none" stroke="black" points="2388.5,-6 2388.5,-25 2494.5,-25 2494.5,-6 2388.5,-6"/>
<text text-anchor="middle" x="2441.5" y="-13" font-family="Helvetica,sans-Serif" font-size="10.00">phsp_reweighting.cu</text>
</a>
</g>
</g>
<!-- Node80&#45;&gt;Node82 -->
<g id="edge33" class="edge"><title>Node80&#45;&gt;Node82</title>
<path fill="none" stroke="midnightblue" d="M2340.34,-68.2739C2365.5,-55.3999 2402.99,-36.2086 2424.57,-25.1672"/>
<polygon fill="midnightblue" stroke="midnightblue" points="2338.67,-65.1968 2331.36,-72.8685 2341.86,-71.428 2338.67,-65.1968"/>
</g>
<!-- Node84 -->
<g id="node36" class="node"><title>Node84</title>
<g id="a_node36"><a xlink:href="a00599.html" target="_top" xlink:title="phsp_unweighting.cpp">
<polygon fill="none" stroke="black" points="2513,-6 2513,-25 2626,-25 2626,-6 2513,-6"/>
<text text-anchor="middle" x="2569.5" y="-13" font-family="Helvetica,sans-Serif" font-size="10.00">phsp_unweighting.cpp</text>
</a>
</g>
</g>
<!-- Node83&#45;&gt;Node84 -->
<g id="edge35" class="edge"><title>Node83&#45;&gt;Node84</title>
<path fill="none" stroke="midnightblue" d="M2569.5,-62.537C2569.5,-50.1703 2569.5,-34.6198 2569.5,-25.1273"/>
<polygon fill="midnightblue" stroke="midnightblue" points="2566,-62.7338 2569.5,-72.7338 2573,-62.7338 2566,-62.7338"/>
</g>
<!-- Node85 -->
<g id="node37" class="node"><title>Node85</title>
<g id="a_node37"><a xlink:href="a00602.html" target="_top" xlink:title="phsp_unweighting.cu">
<polygon fill="none" stroke="black" points="2644.5,-6 2644.5,-25 2752.5,-25 2752.5,-6 2644.5,-6"/>
<text text-anchor="middle" x="2698.5" y="-13" font-family="Helvetica,sans-Serif" font-size="10.00">phsp_unweighting.cu</text>
</a>
</g>
</g>
<!-- Node83&#45;&gt;Node85 -->
<g id="edge36" class="edge"><title>Node83&#45;&gt;Node85</title>
<path fill="none" stroke="midnightblue" d="M2595.75,-68.2739C2621.3,-55.3999 2659.39,-36.2086 2681.3,-25.1672"/>
<polygon fill="midnightblue" stroke="midnightblue" points="2593.99,-65.243 2586.63,-72.8685 2597.14,-71.4943 2593.99,-65.243"/>
</g>
<!-- Node87 -->
<g id="node39" class="node"><title>Node87</title>
<g id="a_node39"><a xlink:href="a00608.html" target="_top" xlink:title="phsp_unweighting_functor.cpp">
<polygon fill="none" stroke="black" points="2771,-6 2771,-25 2920,-25 2920,-6 2771,-6"/>
<text text-anchor="middle" x="2845.5" y="-13" font-family="Helvetica,sans-Serif" font-size="10.00">phsp_unweighting_functor.cpp</text>
</a>
</g>
</g>
<!-- Node86&#45;&gt;Node87 -->
<g id="edge38" class="edge"><title>Node86&#45;&gt;Node87</title>
<path fill="none" stroke="midnightblue" d="M2845.5,-62.537C2845.5,-50.1703 2845.5,-34.6198 2845.5,-25.1273"/>
<polygon fill="midnightblue" stroke="midnightblue" points="2842,-62.7338 2845.5,-72.7338 2849,-62.7338 2842,-62.7338"/>
</g>
<!-- Node88 -->
<g id="node40" class="node"><title>Node88</title>
<g id="a_node40"><a xlink:href="a00611.html" target="_top" xlink:title="phsp_unweighting_functor.cu">
<polygon fill="none" stroke="black" points="2938,-6 2938,-25 3081,-25 3081,-6 2938,-6"/>
<text text-anchor="middle" x="3009.5" y="-13" font-family="Helvetica,sans-Serif" font-size="10.00">phsp_unweighting_functor.cu</text>
</a>
</g>
</g>
<!-- Node86&#45;&gt;Node88 -->
<g id="edge39" class="edge"><title>Node86&#45;&gt;Node88</title>
<path fill="none" stroke="midnightblue" d="M2876.78,-69.1041C2909.34,-56.1984 2959.47,-36.3272 2987.89,-25.0637"/>
<polygon fill="midnightblue" stroke="midnightblue" points="2875.28,-65.9301 2867.28,-72.8685 2877.86,-72.4376 2875.28,-65.9301"/>
</g>
<!-- Node90 -->
<g id="node42" class="node"><title>Node90</title>
<g id="a_node42"><a xlink:href="a00626.html" target="_top" xlink:title="sample_distribution.cpp">
<polygon fill="none" stroke="black" points="3099,-6 3099,-25 3218,-25 3218,-6 3099,-6"/>
<text text-anchor="middle" x="3158.5" y="-13" font-family="Helvetica,sans-Serif" font-size="10.00">sample_distribution.cpp</text>
</a>
</g>
</g>
<!-- Node89&#45;&gt;Node90 -->
<g id="edge41" class="edge"><title>Node89&#45;&gt;Node90</title>
<path fill="none" stroke="midnightblue" d="M3158.5,-62.537C3158.5,-50.1703 3158.5,-34.6198 3158.5,-25.1273"/>
<polygon fill="midnightblue" stroke="midnightblue" points="3155,-62.7338 3158.5,-72.7338 3162,-62.7338 3155,-62.7338"/>
</g>
<!-- Node91 -->
<g id="node43" class="node"><title>Node91</title>
<g id="a_node43"><a xlink:href="a00629.html" target="_top" xlink:title="sample_distribution.cu">
<polygon fill="none" stroke="black" points="3236.5,-6 3236.5,-25 3350.5,-25 3350.5,-6 3236.5,-6"/>
<text text-anchor="middle" x="3293.5" y="-13" font-family="Helvetica,sans-Serif" font-size="10.00">sample_distribution.cu</text>
</a>
</g>
</g>
<!-- Node89&#45;&gt;Node91 -->
<g id="edge42" class="edge"><title>Node89&#45;&gt;Node91</title>
<path fill="none" stroke="midnightblue" d="M3185.62,-68.4436C3212.36,-55.5691 3252.47,-36.2573 3275.5,-25.1672"/>
<polygon fill="midnightblue" stroke="midnightblue" points="3183.92,-65.3768 3176.43,-72.8685 3186.96,-71.6838 3183.92,-65.3768"/>
</g>
</g>
</svg>
        <g id="navigator" transform="translate(0 0)" fill="#404254">
                <rect fill="#f2f5e9" fill-opacity="0.5" stroke="#606060" stroke-width=".5" x="0" y="0" width="60" height="60"/>
                <use id="zoomplus" xlink:href="#zoomPlus" x="17" y="9" onmousedown="handleZoom(evt,'in')"/>
                <use id="zoomminus" xlink:href="#zoomMin" x="42" y="9" onmousedown="handleZoom(evt,'out')"/>
                <use id="reset" xlink:href="#resetDef" x="30" y="36" onmousedown="handleReset()"/>
                <g id="arrowUp" xlink:href="#dirArrow" transform="translate(30 24)" onmousedown="handlePan(0,-1)">
                  <use xlink:href="#rim" fill="#404040">
                        <set attributeName="fill" to="#808080" begin="arrowUp.mouseover" end="arrowUp.mouseout"/>
                  </use>
                  <path fill="none" stroke="white" stroke-width="1.5" d="M0,-3.0v7 M-2.5,-0.5L0,-3.0L2.5,-0.5"/>
                </g>
                <g id="arrowRight" xlink:href="#dirArrow" transform="rotate(90) translate(36 -43)" onmousedown="handlePan(1,0)">
                  <use xlink:href="#rim" fill="#404040">
                        <set attributeName="fill" to="#808080" begin="arrowRight.mouseover" end="arrowRight.mouseout"/>
                  </use>
                  <path fill="none" stroke="white" stroke-width="1.5" d="M0,-3.0v7 M-2.5,-0.5L0,-3.0L2.5,-0.5"/>
                </g>
                <g id="arrowDown" xlink:href="#dirArrow" transform="rotate(180) translate(-30 -48)" onmousedown="handlePan(0,1)">
                  <use xlink:href="#rim" fill="#404040">
                        <set attributeName="fill" to="#808080" begin="arrowDown.mouseover" end="arrowDown.mouseout"/>
                  </use>
                  <path fill="none" stroke="white" stroke-width="1.5" d="M0,-3.0v7 M-2.5,-0.5L0,-3.0L2.5,-0.5"/>
                </g>
                <g id="arrowLeft" xlink:href="#dirArrow" transform="rotate(270) translate(-36 17)" onmousedown="handlePan(-1,0)">
                  <use xlink:href="#rim" fill="#404040">
                        <set attributeName="fill" to="#808080" begin="arrowLeft.mouseover" end="arrowLeft.mouseout"/>
                  </use>
                  <path fill="none" stroke="white" stroke-width="1.5" d="M0,-3.0v7 M-2.5,-0.5L0,-3.0L2.5,-0.5"/>
                </g>
        </g>
        <svg viewBox="0 0 15 15" width="100%" height="30px" preserveAspectRatio="xMaxYMin meet">
         <g id="arrow_out" transform="scale(0.3 0.3)">
          <a xlink:href="a00247_org.svg" target="_base">
           <rect id="button" ry="5" rx="5" y="6" x="6" height="38" width="38"
                fill="#f2f5e9" fill-opacity="0.5" stroke="#606060" stroke-width="1.0"/>
           <path id="arrow"
             d="M 11.500037,31.436501 C 11.940474,20.09759 22.043105,11.32322 32.158766,21.979434 L 37.068811,17.246167 C 37.068811,17.246167 37.088388,32 37.088388,32 L 22.160133,31.978069 C 22.160133,31.978069 26.997745,27.140456 26.997745,27.140456 C 18.528582,18.264221 13.291696,25.230495 11.500037,31.436501 z"
             style="fill:#404040;"/>
          </a>
         </g>
        </svg>
</svg>
