<?xml version="1.0" encoding="UTF-8" standalone="no"?>
<!DOCTYPE svg PUBLIC "-//W3C//DTD SVG 1.1//EN"
 "http://www.w3.org/Graphics/SVG/1.1/DTD/svg11.dtd">
<!-- Generated by graphviz version 2.38.0 (20140413.2041)
 -->
<!-- Title: Filter.h Pages: 1 -->
<!--zoomable 318 -->
<svg id="main" version="1.1" xmlns="http://www.w3.org/2000/svg" xmlns:xlink="http://www.w3.org/1999/xlink" xml:space="preserve" onload="init(evt)">
<style type="text/css"><![CDATA[
.edge:hover path { stroke: red; }
.edge:hover polygon { stroke: red; fill: red; }
]]></style>
<script type="text/javascript"><![CDATA[
var edges = document.getElementsByTagName('g');
if (edges && edges.length) {
  for (var i=0;i<edges.length;i++) {
    if (edges[i].id.substr(0,4)=='edge') {
      edges[i].setAttribute('class','edge');
    }
  }
}
]]></script>
        <defs>
                <circle id="rim" cx="0" cy="0" r="7"/>
                <circle id="rim2" cx="0" cy="0" r="3.5"/>
                <g id="zoomPlus">
                        <use xlink:href="#rim" fill="#404040">
                                <set attributeName="fill" to="#808080" begin="zoomplus.mouseover" end="zoomplus.mouseout"/>
                        </use>
                        <path d="M-4,0h8M0,-4v8" fill="none" stroke="white" stroke-width="1.5" pointer-events="none"/>
                </g>
                <g id="zoomMin">
                        <use xlink:href="#rim" fill="#404040">
                                <set attributeName="fill" to="#808080" begin="zoomminus.mouseover" end="zoomminus.mouseout"/>
                        </use>
                        <path d="M-4,0h8" fill="none" stroke="white" stroke-width="1.5" pointer-events="none"/>
                </g>
                <g id="dirArrow">
                        <path fill="none" stroke="white" stroke-width="1.5" d="M0,-3.0v7 M-2.5,-0.5L0,-3.0L2.5,-0.5"/>
                </g>
               <g id="resetDef">
                       <use xlink:href="#rim2" fill="#404040">
                               <set attributeName="fill" to="#808080" begin="reset.mouseover" end="reset.mouseout"/>
                       </use>
               </g>
        </defs>

<script type="text/javascript">
var viewWidth = 896;
var viewHeight = 318;
var sectionId = 'dynsection-0';
</script>
<script xlink:href="svgpan.js"/>
<svg id="graph" class="graph">
<g id="viewport">
<title>Filter.h</title>
<!-- Node0 -->
<g id="node1" class="node"><title>Node0</title>
<polygon fill="#bfbfbf" stroke="black" points="440.5,-290.5 440.5,-309.5 487.5,-309.5 487.5,-290.5 440.5,-290.5"/>
<text text-anchor="middle" x="464" y="-297.5" font-family="Helvetica,sans-Serif" font-size="10.00">Filter.h</text>
</g>
<!-- Node1 -->
<g id="node2" class="node"><title>Node1</title>
<g id="a_node2"><a xlink:href="a00053.html" target="_top" xlink:title="hydra/detail/Config.h">
<polygon fill="none" stroke="black" points="119.5,-84 119.5,-103 226.5,-103 226.5,-84 119.5,-84"/>
<text text-anchor="middle" x="173" y="-91" font-family="Helvetica,sans-Serif" font-size="10.00">hydra/detail/Config.h</text>
</a>
</g>
</g>
<!-- Node0&#45;&gt;Node1 -->
<g id="edge1" class="edge"><title>Node0&#45;&gt;Node1</title>
<path fill="none" stroke="midnightblue" d="M440.421,-299.206C401.332,-298.401 322.248,-291.789 270,-254 219.745,-217.653 190.421,-146.518 178.817,-112.916"/>
<polygon fill="midnightblue" stroke="midnightblue" points="182.021,-111.458 175.556,-103.064 175.376,-113.657 182.021,-111.458"/>
</g>
<!-- Node4 -->
<g id="node5" class="node"><title>Node4</title>
<g id="a_node5"><a xlink:href="a00038.html" target="_top" xlink:title="hydra/detail/BackendPolicy.h">
<polygon fill="none" stroke="black" points="244.5,-84 244.5,-103 387.5,-103 387.5,-84 244.5,-84"/>
<text text-anchor="middle" x="316" y="-91" font-family="Helvetica,sans-Serif" font-size="10.00">hydra/detail/BackendPolicy.h</text>
</a>
</g>
</g>
<!-- Node0&#45;&gt;Node4 -->
<g id="edge4" class="edge"><title>Node0&#45;&gt;Node4</title>
<path fill="none" stroke="midnightblue" d="M440.399,-296.575C396.472,-291.522 304.898,-278.27 286,-254 252.898,-211.489 285.985,-143.495 304.85,-111.805"/>
<polygon fill="midnightblue" stroke="midnightblue" points="307.885,-113.552 310.159,-103.204 301.928,-109.875 307.885,-113.552"/>
</g>
<!-- Node6 -->
<g id="node7" class="node"><title>Node6</title>
<g id="a_node7"><a xlink:href="a00383.html" target="_top" xlink:title="Common and useful typedefs. ">
<polygon fill="none" stroke="black" points="528.5,-84 528.5,-103 607.5,-103 607.5,-84 528.5,-84"/>
<text text-anchor="middle" x="568" y="-91" font-family="Helvetica,sans-Serif" font-size="10.00">hydra/Types.h</text>
</a>
</g>
</g>
<!-- Node0&#45;&gt;Node6 -->
<g id="edge6" class="edge"><title>Node0&#45;&gt;Node6</title>
<path fill="none" stroke="midnightblue" d="M462.623,-290.457C459.095,-265.648 452.057,-192.359 483,-145 494.407,-127.541 514.133,-115.279 531.712,-107.214"/>
<polygon fill="midnightblue" stroke="midnightblue" points="533.373,-110.31 541.19,-103.158 530.62,-103.874 533.373,-110.31"/>
</g>
<!-- Node7 -->
<g id="node8" class="node"><title>Node7</title>
<g id="a_node8"><a xlink:href="a00380.html" target="_top" xlink:title="hydra/Tuple.h">
<polygon fill="none" stroke="black" points="506,-229 506,-248 582,-248 582,-229 506,-229"/>
<text text-anchor="middle" x="544" y="-236" font-family="Helvetica,sans-Serif" font-size="10.00">hydra/Tuple.h</text>
</a>
</g>
</g>
<!-- Node0&#45;&gt;Node7 -->
<g id="edge7" class="edge"><title>Node0&#45;&gt;Node7</title>
<path fill="none" stroke="midnightblue" d="M475.462,-290.475C488.175,-281.02 508.913,-265.596 524.253,-254.187"/>
<polygon fill="midnightblue" stroke="midnightblue" points="526.624,-256.785 532.559,-248.009 522.446,-251.169 526.624,-256.785"/>
</g>
<!-- Node14 -->
<g id="node15" class="node"><title>Node14</title>
<g id="a_node15"><a xlink:href="a00317.html" target="_top" xlink:title="hydra/GenericRange.h">
<polygon fill="none" stroke="black" points="295,-229 295,-248 409,-248 409,-229 295,-229"/>
<text text-anchor="middle" x="352" y="-236" font-family="Helvetica,sans-Serif" font-size="10.00">hydra/GenericRange.h</text>
</a>
</g>
</g>
<!-- Node0&#45;&gt;Node14 -->
<g id="edge14" class="edge"><title>Node0&#45;&gt;Node14</title>
<path fill="none" stroke="midnightblue" d="M447.953,-290.475C429.407,-280.622 398.66,-264.288 376.978,-252.77"/>
<polygon fill="midnightblue" stroke="midnightblue" points="378.49,-249.61 368.017,-248.009 375.206,-255.792 378.49,-249.61"/>
</g>
<!-- Node17 -->
<g id="node18" class="node"><title>Node17</title>
<polygon fill="none" stroke="#bfbfbf" points="600,-223.5 600,-253.5 704,-253.5 704,-223.5 600,-223.5"/>
<text text-anchor="start" x="608" y="-241.5" font-family="Helvetica,sans-Serif" font-size="10.00">hydra/detail/external</text>
<text text-anchor="middle" x="652" y="-230.5" font-family="Helvetica,sans-Serif" font-size="10.00">/thrust/partition.h</text>
</g>
<!-- Node0&#45;&gt;Node17 -->
<g id="edge22" class="edge"><title>Node0&#45;&gt;Node17</title>
<path fill="none" stroke="midnightblue" d="M487.81,-291.464C515.266,-282.775 561.282,-268.211 597.625,-256.709"/>
<polygon fill="midnightblue" stroke="midnightblue" points="599.118,-259.908 607.595,-253.554 597.005,-253.234 599.118,-259.908"/>
</g>
<!-- Node18 -->
<g id="node19" class="node"><title>Node18</title>
<g id="a_node19"><a xlink:href="a00083.html" target="_top" xlink:title="hydra/detail/Filter.inl">
<polygon fill="none" stroke="black" points="722,-229 722,-248 826,-248 826,-229 722,-229"/>
<text text-anchor="middle" x="774" y="-236" font-family="Helvetica,sans-Serif" font-size="10.00">hydra/detail/Filter.inl</text>
</a>
</g>
</g>
<!-- Node0&#45;&gt;Node18 -->
<g id="edge23" class="edge"><title>Node0&#45;&gt;Node18</title>
<path fill="none" stroke="midnightblue" d="M487.773,-295.148C532.172,-287.855 630.655,-271.214 713,-254 718.394,-252.872 724.04,-251.624 729.628,-250.346"/>
<polygon fill="midnightblue" stroke="midnightblue" points="730.61,-253.711 739.555,-248.034 729.022,-246.893 730.61,-253.711"/>
</g>
<!-- Node2 -->
<g id="node3" class="node"><title>Node2</title>
<polygon fill="none" stroke="#bfbfbf" points="0,-6 0,-36 108,-36 108,-6 0,-6"/>
<text text-anchor="start" x="8" y="-24" font-family="Helvetica,sans-Serif" font-size="10.00">hydra/detail/external</text>
<text text-anchor="middle" x="54" y="-13" font-family="Helvetica,sans-Serif" font-size="10.00">/thrust/detail/config.h</text>
</g>
<!-- Node1&#45;&gt;Node2 -->
<g id="edge2" class="edge"><title>Node1&#45;&gt;Node2</title>
<path fill="none" stroke="midnightblue" d="M158.408,-83.8553C140.578,-73.2918 109.883,-55.1073 86.3756,-41.1805"/>
<polygon fill="midnightblue" stroke="midnightblue" points="88.1472,-38.162 77.7597,-36.0762 84.5793,-44.1845 88.1472,-38.162"/>
</g>
<!-- Node3 -->
<g id="node4" class="node"><title>Node3</title>
<polygon fill="none" stroke="#bfbfbf" points="126,-0.5 126,-41.5 230,-41.5 230,-0.5 126,-0.5"/>
<text text-anchor="start" x="134" y="-29.5" font-family="Helvetica,sans-Serif" font-size="10.00">hydra/detail/external</text>
<text text-anchor="start" x="134" y="-18.5" font-family="Helvetica,sans-Serif" font-size="10.00">/thrust/detail/config</text>
<text text-anchor="middle" x="178" y="-7.5" font-family="Helvetica,sans-Serif" font-size="10.00">/host_device.h</text>
</g>
<!-- Node1&#45;&gt;Node3 -->
<g id="edge3" class="edge"><title>Node1&#45;&gt;Node3</title>
<path fill="none" stroke="midnightblue" d="M173.613,-83.8553C174.18,-75.8604 175.057,-63.5002 175.878,-51.9243"/>
<polygon fill="midnightblue" stroke="midnightblue" points="179.389,-51.8842 176.606,-41.6616 172.407,-51.3889 179.389,-51.8842"/>
</g>
<!-- Node5 -->
<g id="node6" class="node"><title>Node5</title>
<polygon fill="none" stroke="#bfbfbf" points="252,-6 252,-36 380,-36 380,-6 252,-6"/>
<text text-anchor="start" x="260" y="-24" font-family="Helvetica,sans-Serif" font-size="10.00">hydra/detail/external</text>
<text text-anchor="middle" x="316" y="-13" font-family="Helvetica,sans-Serif" font-size="10.00">/thrust/execution_policy.h</text>
</g>
<!-- Node4&#45;&gt;Node5 -->
<g id="edge5" class="edge"><title>Node4&#45;&gt;Node5</title>
<path fill="none" stroke="midnightblue" d="M316,-83.8553C316,-74.5483 316,-59.3253 316,-46.3107"/>
<polygon fill="midnightblue" stroke="midnightblue" points="319.5,-46.0761 316,-36.0762 312.5,-46.0762 319.5,-46.0761"/>
</g>
<!-- Node8 -->
<g id="node9" class="node"><title>Node8</title>
<polygon fill="none" stroke="#bfbfbf" points="726,-156.5 726,-175.5 766,-175.5 766,-156.5 726,-156.5"/>
<text text-anchor="middle" x="746" y="-163.5" font-family="Helvetica,sans-Serif" font-size="10.00">utility</text>
</g>
<!-- Node7&#45;&gt;Node8 -->
<g id="edge8" class="edge"><title>Node7&#45;&gt;Node8</title>
<path fill="none" stroke="midnightblue" d="M571.309,-228.969C577.758,-226.984 584.615,-224.897 591,-223 646.829,-206.414 664.332,-211.861 717,-187 720.308,-185.438 723.653,-183.515 726.838,-181.484"/>
<polygon fill="midnightblue" stroke="midnightblue" points="728.989,-184.252 735.223,-175.685 725.007,-178.494 728.989,-184.252"/>
</g>
<!-- Node9 -->
<g id="node10" class="node"><title>Node9</title>
<polygon fill="none" stroke="#bfbfbf" points="784,-151 784,-181 888,-181 888,-151 784,-151"/>
<text text-anchor="start" x="792" y="-169" font-family="Helvetica,sans-Serif" font-size="10.00">hydra/detail/external</text>
<text text-anchor="middle" x="836" y="-158" font-family="Helvetica,sans-Serif" font-size="10.00">/thrust/tuple.h</text>
</g>
<!-- Node7&#45;&gt;Node9 -->
<g id="edge9" class="edge"><title>Node7&#45;&gt;Node9</title>
<path fill="none" stroke="midnightblue" d="M570.211,-228.875C576.946,-226.808 584.209,-224.707 591,-223 671.815,-202.689 694.367,-208.021 775,-187 778.552,-186.074 782.2,-185.055 785.86,-183.983"/>
<polygon fill="midnightblue" stroke="midnightblue" points="786.971,-187.303 795.52,-181.046 784.935,-180.606 786.971,-187.303"/>
</g>
<!-- Node10 -->
<g id="node11" class="node"><title>Node10</title>
<polygon fill="none" stroke="#bfbfbf" points="492,-145.5 492,-186.5 596,-186.5 596,-145.5 492,-145.5"/>
<text text-anchor="start" x="500" y="-174.5" font-family="Helvetica,sans-Serif" font-size="10.00">hydra/detail/external</text>
<text text-anchor="start" x="500" y="-163.5" font-family="Helvetica,sans-Serif" font-size="10.00">/thrust/detail/tuple</text>
<text text-anchor="middle" x="544" y="-152.5" font-family="Helvetica,sans-Serif" font-size="10.00">/tuple.h</text>
</g>
<!-- Node7&#45;&gt;Node10 -->
<g id="edge10" class="edge"><title>Node7&#45;&gt;Node10</title>
<path fill="none" stroke="midnightblue" d="M544,-228.855C544,-220.86 544,-208.5 544,-196.924"/>
<polygon fill="midnightblue" stroke="midnightblue" points="547.5,-196.662 544,-186.662 540.5,-196.662 547.5,-196.662"/>
</g>
<!-- Node11 -->
<g id="node12" class="node"><title>Node11</title>
<g id="a_node12"><a xlink:href="a00254.html" target="_top" xlink:title="hydra/detail/utility\l/Generic.h">
<polygon fill="none" stroke="black" points="614.5,-151 614.5,-181 707.5,-181 707.5,-151 614.5,-151"/>
<text text-anchor="start" x="622.5" y="-169" font-family="Helvetica,sans-Serif" font-size="10.00">hydra/detail/utility</text>
<text text-anchor="middle" x="661" y="-158" font-family="Helvetica,sans-Serif" font-size="10.00">/Generic.h</text>
</a>
</g>
</g>
<!-- Node7&#45;&gt;Node11 -->
<g id="edge11" class="edge"><title>Node7&#45;&gt;Node11</title>
<path fill="none" stroke="midnightblue" d="M558.346,-228.855C575.8,-218.338 605.79,-200.267 628.863,-186.365"/>
<polygon fill="midnightblue" stroke="midnightblue" points="630.881,-189.235 637.64,-181.076 627.268,-183.239 630.881,-189.235"/>
</g>
<!-- Node12 -->
<g id="node13" class="node"><title>Node12</title>
<polygon fill="none" stroke="#bfbfbf" points="628,-84 628,-103 690,-103 690,-84 628,-84"/>
<text text-anchor="middle" x="659" y="-91" font-family="Helvetica,sans-Serif" font-size="10.00">type_traits</text>
</g>
<!-- Node11&#45;&gt;Node12 -->
<g id="edge12" class="edge"><title>Node11&#45;&gt;Node12</title>
<path fill="none" stroke="midnightblue" d="M660.595,-150.733C660.291,-140.001 659.871,-125.187 659.538,-113.459"/>
<polygon fill="midnightblue" stroke="midnightblue" points="663.035,-113.29 659.252,-103.393 656.037,-113.488 663.035,-113.29"/>
</g>
<!-- Node13 -->
<g id="node14" class="node"><title>Node13</title>
<polygon fill="none" stroke="#bfbfbf" points="708,-84 708,-103 746,-103 746,-84 708,-84"/>
<text text-anchor="middle" x="727" y="-91" font-family="Helvetica,sans-Serif" font-size="10.00">array</text>
</g>
<!-- Node11&#45;&gt;Node13 -->
<g id="edge13" class="edge"><title>Node11&#45;&gt;Node13</title>
<path fill="none" stroke="midnightblue" d="M674.356,-150.733C685.129,-139.226 700.293,-123.028 711.581,-110.971"/>
<polygon fill="midnightblue" stroke="midnightblue" points="714.395,-113.085 718.674,-103.393 709.285,-108.301 714.395,-113.085"/>
</g>
<!-- Node14&#45;&gt;Node1 -->
<g id="edge15" class="edge"><title>Node14&#45;&gt;Node1</title>
<path fill="none" stroke="midnightblue" d="M341.339,-228.983C311.935,-205.492 229.39,-139.549 191.923,-109.617"/>
<polygon fill="midnightblue" stroke="midnightblue" points="193.829,-106.66 183.832,-103.153 189.46,-112.129 193.829,-106.66"/>
</g>
<!-- Node14&#45;&gt;Node4 -->
<g id="edge16" class="edge"><title>Node14&#45;&gt;Node4</title>
<path fill="none" stroke="midnightblue" d="M348.658,-228.661C344.962,-218.658 339.002,-201.826 335,-187 328.175,-161.715 322.469,-131.967 319.143,-113.172"/>
<polygon fill="midnightblue" stroke="midnightblue" points="322.582,-112.514 317.431,-103.255 315.684,-113.705 322.582,-112.514"/>
</g>
<!-- Node15 -->
<g id="node16" class="node"><title>Node15</title>
<g id="a_node16"><a xlink:href="a00281.html" target="_top" xlink:title="hydra/Distance.h">
<polygon fill="none" stroke="black" points="344.5,-156.5 344.5,-175.5 435.5,-175.5 435.5,-156.5 344.5,-156.5"/>
<text text-anchor="middle" x="390" y="-163.5" font-family="Helvetica,sans-Serif" font-size="10.00">hydra/Distance.h</text>
</a>
</g>
</g>
<!-- Node14&#45;&gt;Node15 -->
<g id="edge17" class="edge"><title>Node14&#45;&gt;Node15</title>
<path fill="none" stroke="midnightblue" d="M356.66,-228.855C362.528,-217.967 372.761,-198.983 380.347,-184.909"/>
<polygon fill="midnightblue" stroke="midnightblue" points="383.639,-186.179 385.302,-175.715 377.477,-182.857 383.639,-186.179"/>
</g>
<!-- Node15&#45;&gt;Node1 -->
<g id="edge18" class="edge"><title>Node15&#45;&gt;Node1</title>
<path fill="none" stroke="midnightblue" d="M363.825,-156.496C325.13,-143.925 252.548,-120.344 208.909,-106.166"/>
<polygon fill="midnightblue" stroke="midnightblue" points="209.86,-102.795 199.268,-103.034 207.697,-109.453 209.86,-102.795"/>
</g>
<!-- Node15&#45;&gt;Node4 -->
<g id="edge19" class="edge"><title>Node15&#45;&gt;Node4</title>
<path fill="none" stroke="midnightblue" d="M380.926,-156.355C368.943,-144.939 347.616,-124.62 332.685,-110.396"/>
<polygon fill="midnightblue" stroke="midnightblue" points="334.803,-107.579 325.148,-103.215 329.974,-112.647 334.803,-107.579"/>
</g>
<!-- Node15&#45;&gt;Node6 -->
<g id="edge20" class="edge"><title>Node15&#45;&gt;Node6</title>
<path fill="none" stroke="midnightblue" d="M411.471,-156.496C442.743,-144.11 501,-121.037 536.947,-106.799"/>
<polygon fill="midnightblue" stroke="midnightblue" points="538.444,-109.971 546.453,-103.034 535.867,-103.462 538.444,-109.971"/>
</g>
<!-- Node16 -->
<g id="node17" class="node"><title>Node16</title>
<polygon fill="none" stroke="#bfbfbf" points="406,-78.5 406,-108.5 510,-108.5 510,-78.5 406,-78.5"/>
<text text-anchor="start" x="414" y="-96.5" font-family="Helvetica,sans-Serif" font-size="10.00">hydra/detail/external</text>
<text text-anchor="middle" x="458" y="-85.5" font-family="Helvetica,sans-Serif" font-size="10.00">/thrust/distance.h</text>
</g>
<!-- Node15&#45;&gt;Node16 -->
<g id="edge21" class="edge"><title>Node15&#45;&gt;Node16</title>
<path fill="none" stroke="midnightblue" d="M398.338,-156.355C407.944,-146.397 424.082,-129.665 437.154,-116.113"/>
<polygon fill="midnightblue" stroke="midnightblue" points="440,-118.204 444.423,-108.576 434.962,-113.344 440,-118.204"/>
</g>
</g>
</svg>
        <g id="navigator" transform="translate(0 0)" fill="#404254">
                <rect fill="#f2f5e9" fill-opacity="0.5" stroke="#606060" stroke-width=".5" x="0" y="0" width="60" height="60"/>
                <use id="zoomplus" xlink:href="#zoomPlus" x="17" y="9" onmousedown="handleZoom(evt,'in')"/>
                <use id="zoomminus" xlink:href="#zoomMin" x="42" y="9" onmousedown="handleZoom(evt,'out')"/>
                <use id="reset" xlink:href="#resetDef" x="30" y="36" onmousedown="handleReset()"/>
                <g id="arrowUp" xlink:href="#dirArrow" transform="translate(30 24)" onmousedown="handlePan(0,-1)">
                  <use xlink:href="#rim" fill="#404040">
                        <set attributeName="fill" to="#808080" begin="arrowUp.mouseover" end="arrowUp.mouseout"/>
                  </use>
                  <path fill="none" stroke="white" stroke-width="1.5" d="M0,-3.0v7 M-2.5,-0.5L0,-3.0L2.5,-0.5"/>
                </g>
                <g id="arrowRight" xlink:href="#dirArrow" transform="rotate(90) translate(36 -43)" onmousedown="handlePan(1,0)">
                  <use xlink:href="#rim" fill="#404040">
                        <set attributeName="fill" to="#808080" begin="arrowRight.mouseover" end="arrowRight.mouseout"/>
                  </use>
                  <path fill="none" stroke="white" stroke-width="1.5" d="M0,-3.0v7 M-2.5,-0.5L0,-3.0L2.5,-0.5"/>
                </g>
                <g id="arrowDown" xlink:href="#dirArrow" transform="rotate(180) translate(-30 -48)" onmousedown="handlePan(0,1)">
                  <use xlink:href="#rim" fill="#404040">
                        <set attributeName="fill" to="#808080" begin="arrowDown.mouseover" end="arrowDown.mouseout"/>
                  </use>
                  <path fill="none" stroke="white" stroke-width="1.5" d="M0,-3.0v7 M-2.5,-0.5L0,-3.0L2.5,-0.5"/>
                </g>
                <g id="arrowLeft" xlink:href="#dirArrow" transform="rotate(270) translate(-36 17)" onmousedown="handlePan(-1,0)">
                  <use xlink:href="#rim" fill="#404040">
                        <set attributeName="fill" to="#808080" begin="arrowLeft.mouseover" end="arrowLeft.mouseout"/>
                  </use>
                  <path fill="none" stroke="white" stroke-width="1.5" d="M0,-3.0v7 M-2.5,-0.5L0,-3.0L2.5,-0.5"/>
                </g>
        </g>
        <svg viewBox="0 0 15 15" width="100%" height="30px" preserveAspectRatio="xMaxYMin meet">
         <g id="arrow_out" transform="scale(0.3 0.3)">
          <a xlink:href="a00294_org.svg" target="_base">
           <rect id="button" ry="5" rx="5" y="6" x="6" height="38" width="38"
                fill="#f2f5e9" fill-opacity="0.5" stroke="#606060" stroke-width="1.0"/>
           <path id="arrow"
             d="M 11.500037,31.436501 C 11.940474,20.09759 22.043105,11.32322 32.158766,21.979434 L 37.068811,17.246167 C 37.068811,17.246167 37.088388,32 37.088388,32 L 22.160133,31.978069 C 22.160133,31.978069 26.997745,27.140456 26.997745,27.140456 C 18.528582,18.264221 13.291696,25.230495 11.500037,31.436501 z"
             style="fill:#404040;"/>
          </a>
         </g>
        </svg>
</svg>
