<?xml version="1.0" encoding="UTF-8" standalone="no"?>
<!DOCTYPE svg PUBLIC "-//W3C//DTD SVG 1.1//EN"
 "http://www.w3.org/Graphics/SVG/1.1/DTD/svg11.dtd">
<!-- Generated by graphviz version 2.38.0 (20140413.2041)
 -->
<!-- Title: Parameter.h Pages: 1 -->
<svg width="326pt" height="196pt"
 viewBox="0.00 0.00 326.00 196.00" xmlns="http://www.w3.org/2000/svg" xmlns:xlink="http://www.w3.org/1999/xlink">
<g id="graph0" class="graph" transform="scale(1 1) rotate(0) translate(4 192)">
<title>Parameter.h</title>
<!-- Node1 -->
<g id="node1" class="node"><title>Node1</title>
<polygon fill="#bfbfbf" stroke="black" points="75.5,-168.5 75.5,-187.5 145.5,-187.5 145.5,-168.5 75.5,-168.5"/>
<text text-anchor="middle" x="110.5" y="-175.5" font-family="Helvetica,sans-Serif" font-size="10.00">Parameter.h</text>
</g>
<!-- Node2 -->
<g id="node2" class="node"><title>Node2</title>
<g id="a_node2"><a xlink:href="a00089.html" target="_top" xlink:title="AddPdf.h">
<polygon fill="none" stroke="black" points="0,-56.5 0,-75.5 57,-75.5 57,-56.5 0,-56.5"/>
<text text-anchor="middle" x="28.5" y="-63.5" font-family="Helvetica,sans-Serif" font-size="10.00">AddPdf.h</text>
</a>
</g>
</g>
<!-- Node1&#45;&gt;Node2 -->
<g id="edge1" class="edge"><title>Node1&#45;&gt;Node2</title>
<path fill="none" stroke="midnightblue" d="M83.6695,-163.354C71.0472,-155.699 56.7679,-145.052 47.5,-132 35.1114,-114.553 30.7346,-89.0606 29.2395,-75.7804"/>
<polygon fill="midnightblue" stroke="midnightblue" points="82.0544,-166.462 92.4723,-168.391 85.531,-160.386 82.0544,-166.462"/>
</g>
<!-- Node3 -->
<g id="node3" class="node"><title>Node3</title>
<g id="a_node3"><a xlink:href="a00106.html" target="_top" xlink:title="Function.h">
<polygon fill="none" stroke="black" points="114.5,-112.5 114.5,-131.5 176.5,-131.5 176.5,-112.5 114.5,-112.5"/>
<text text-anchor="middle" x="145.5" y="-119.5" font-family="Helvetica,sans-Serif" font-size="10.00">Function.h</text>
</a>
</g>
</g>
<!-- Node1&#45;&gt;Node3 -->
<g id="edge2" class="edge"><title>Node1&#45;&gt;Node3</title>
<path fill="none" stroke="midnightblue" d="M121.8,-159.566C127.822,-150.275 134.969,-139.248 139.828,-131.751"/>
<polygon fill="midnightblue" stroke="midnightblue" points="118.781,-157.788 116.28,-168.083 124.656,-161.595 118.781,-157.788"/>
</g>
<!-- Node8 -->
<g id="node8" class="node"><title>Node8</title>
<g id="a_node8"><a xlink:href="a00122.html" target="_top" xlink:title="Pdf.h">
<polygon fill="none" stroke="black" points="56.5,-112.5 56.5,-131.5 96.5,-131.5 96.5,-112.5 56.5,-112.5"/>
<text text-anchor="middle" x="76.5" y="-119.5" font-family="Helvetica,sans-Serif" font-size="10.00">Pdf.h</text>
</a>
</g>
</g>
<!-- Node1&#45;&gt;Node8 -->
<g id="edge7" class="edge"><title>Node1&#45;&gt;Node8</title>
<path fill="none" stroke="midnightblue" d="M99.5228,-159.566C93.673,-150.275 86.7305,-139.248 82.0099,-131.751"/>
<polygon fill="midnightblue" stroke="midnightblue" points="96.5956,-161.486 104.886,-168.083 102.519,-157.756 96.5956,-161.486"/>
</g>
<!-- Node9 -->
<g id="node9" class="node"><title>Node9</title>
<g id="a_node9"><a xlink:href="a00141.html" target="_top" xlink:title="UserParameters.h">
<polygon fill="none" stroke="black" points="194.5,-112.5 194.5,-131.5 290.5,-131.5 290.5,-112.5 194.5,-112.5"/>
<text text-anchor="middle" x="242.5" y="-119.5" font-family="Helvetica,sans-Serif" font-size="10.00">UserParameters.h</text>
</a>
</g>
</g>
<!-- Node1&#45;&gt;Node9 -->
<g id="edge9" class="edge"><title>Node1&#45;&gt;Node9</title>
<path fill="none" stroke="midnightblue" d="M140.719,-164.638C165.49,-154.504 199.9,-140.427 221.682,-131.516"/>
<polygon fill="midnightblue" stroke="midnightblue" points="139.346,-161.418 131.416,-168.444 141.997,-167.897 139.346,-161.418"/>
</g>
<!-- Node4 -->
<g id="node4" class="node"><title>Node4</title>
<g id="a_node4"><a xlink:href="a00138.html" target="_top" xlink:title="Sum.h">
<polygon fill="none" stroke="black" points="75,-56.5 75,-75.5 120,-75.5 120,-56.5 75,-56.5"/>
<text text-anchor="middle" x="97.5" y="-63.5" font-family="Helvetica,sans-Serif" font-size="10.00">Sum.h</text>
</a>
</g>
</g>
<!-- Node3&#45;&gt;Node4 -->
<g id="edge3" class="edge"><title>Node3&#45;&gt;Node4</title>
<path fill="none" stroke="midnightblue" d="M130.772,-104.431C122.36,-94.9673 112.151,-83.4827 105.279,-75.7511"/>
<polygon fill="midnightblue" stroke="midnightblue" points="128.314,-106.934 137.574,-112.083 133.546,-102.284 128.314,-106.934"/>
</g>
<!-- Node6 -->
<g id="node6" class="node"><title>Node6</title>
<g id="a_node6"><a xlink:href="a00101.html" target="_top" xlink:title="Evaluate.h">
<polygon fill="none" stroke="black" points="138,-56.5 138,-75.5 201,-75.5 201,-56.5 138,-56.5"/>
<text text-anchor="middle" x="169.5" y="-63.5" font-family="Helvetica,sans-Serif" font-size="10.00">Evaluate.h</text>
</a>
</g>
</g>
<!-- Node3&#45;&gt;Node6 -->
<g id="edge5" class="edge"><title>Node3&#45;&gt;Node6</title>
<path fill="none" stroke="midnightblue" d="M153.638,-102.69C157.683,-93.589 162.383,-83.0141 165.611,-75.7511"/>
<polygon fill="midnightblue" stroke="midnightblue" points="150.326,-101.523 149.463,-112.083 156.723,-104.366 150.326,-101.523"/>
</g>
<!-- Node7 -->
<g id="node7" class="node"><title>Node7</title>
<g id="a_node7"><a xlink:href="a00107.html" target="_top" xlink:title="FunctionWrapper.h">
<polygon fill="none" stroke="black" points="219,-56.5 219,-75.5 318,-75.5 318,-56.5 219,-56.5"/>
<text text-anchor="middle" x="268.5" y="-63.5" font-family="Helvetica,sans-Serif" font-size="10.00">FunctionWrapper.h</text>
</a>
</g>
</g>
<!-- Node3&#45;&gt;Node7 -->
<g id="edge6" class="edge"><title>Node3&#45;&gt;Node7</title>
<path fill="none" stroke="midnightblue" d="M174.273,-108.368C197.307,-98.2553 228.984,-84.3486 249.101,-75.5164"/>
<polygon fill="midnightblue" stroke="midnightblue" points="172.739,-105.219 164.99,-112.444 175.553,-111.628 172.739,-105.219"/>
</g>
<!-- Node5 -->
<g id="node5" class="node"><title>Node5</title>
<g id="a_node5"><a xlink:href="a00108.html" target="_top" xlink:title="FunctorArithmetic.h">
<polygon fill="none" stroke="black" points="46.5,-0.5 46.5,-19.5 148.5,-19.5 148.5,-0.5 46.5,-0.5"/>
<text text-anchor="middle" x="97.5" y="-7.5" font-family="Helvetica,sans-Serif" font-size="10.00">FunctorArithmetic.h</text>
</a>
</g>
</g>
<!-- Node4&#45;&gt;Node5 -->
<g id="edge4" class="edge"><title>Node4&#45;&gt;Node5</title>
<path fill="none" stroke="midnightblue" d="M97.5,-45.8045C97.5,-36.9102 97.5,-26.7798 97.5,-19.7511"/>
<polygon fill="midnightblue" stroke="midnightblue" points="94.0001,-46.083 97.5,-56.083 101,-46.083 94.0001,-46.083"/>
</g>
<!-- Node8&#45;&gt;Node2 -->
<g id="edge8" class="edge"><title>Node8&#45;&gt;Node2</title>
<path fill="none" stroke="midnightblue" d="M61.7723,-104.431C53.3599,-94.9673 43.1513,-83.4827 36.2787,-75.7511"/>
<polygon fill="midnightblue" stroke="midnightblue" points="59.3142,-106.934 68.5738,-112.083 64.546,-102.284 59.3142,-106.934"/>
</g>
</g>
</svg>
