<?xml version="1.0" encoding="UTF-8" standalone="no"?>
<!DOCTYPE svg PUBLIC "-//W3C//DTD SVG 1.1//EN"
 "http://www.w3.org/Graphics/SVG/1.1/DTD/svg11.dtd">
<!-- Generated by graphviz version 2.38.0 (20140413.2041)
 -->
<!-- Title: StreamSTL.h Pages: 1 -->
<svg width="512pt" height="84pt"
 viewBox="0.00 0.00 512.00 84.00" xmlns="http://www.w3.org/2000/svg" xmlns:xlink="http://www.w3.org/1999/xlink">
<g id="graph0" class="graph" transform="scale(1 1) rotate(0) translate(4 80)">
<title>StreamSTL.h</title>
<!-- Node0 -->
<g id="node1" class="node"><title>Node0</title>
<polygon fill="#bfbfbf" stroke="black" points="213,-56.5 213,-75.5 287,-75.5 287,-56.5 213,-56.5"/>
<text text-anchor="middle" x="250" y="-63.5" font-family="Helvetica,sans-Serif" font-size="10.00">StreamSTL.h</text>
</g>
<!-- Node1 -->
<g id="node2" class="node"><title>Node1</title>
<polygon fill="none" stroke="#bfbfbf" points="0,-0.5 0,-19.5 54,-19.5 54,-0.5 0,-0.5"/>
<text text-anchor="middle" x="27" y="-7.5" font-family="Helvetica,sans-Serif" font-size="10.00">iostream</text>
</g>
<!-- Node0&#45;&gt;Node1 -->
<g id="edge1" class="edge"><title>Node0&#45;&gt;Node1</title>
<path fill="none" stroke="midnightblue" d="M214.128,-56.467C178.526,-47.9763 122.132,-34.468 64.1886,-20.2764"/>
<polygon fill="midnightblue" stroke="midnightblue" points="64.6663,-16.7899 54.1204,-17.8073 62.999,-23.5884 64.6663,-16.7899"/>
</g>
<!-- Node2 -->
<g id="node3" class="node"><title>Node2</title>
<polygon fill="none" stroke="#bfbfbf" points="72,-0.5 72,-19.5 110,-19.5 110,-0.5 72,-0.5"/>
<text text-anchor="middle" x="91" y="-7.5" font-family="Helvetica,sans-Serif" font-size="10.00">array</text>
</g>
<!-- Node0&#45;&gt;Node2 -->
<g id="edge2" class="edge"><title>Node0&#45;&gt;Node2</title>
<path fill="none" stroke="midnightblue" d="M224.806,-56.4435C196.169,-46.7178 149.525,-30.8764 119.56,-20.6997"/>
<polygon fill="midnightblue" stroke="midnightblue" points="120.682,-17.3844 110.088,-17.4826 118.431,-24.0126 120.682,-17.3844"/>
</g>
<!-- Node3 -->
<g id="node4" class="node"><title>Node3</title>
<polygon fill="none" stroke="#bfbfbf" points="128,-0.5 128,-19.5 166,-19.5 166,-0.5 128,-0.5"/>
<text text-anchor="middle" x="147" y="-7.5" font-family="Helvetica,sans-Serif" font-size="10.00">tuple</text>
</g>
<!-- Node0&#45;&gt;Node3 -->
<g id="edge3" class="edge"><title>Node0&#45;&gt;Node3</title>
<path fill="none" stroke="midnightblue" d="M233.451,-56.324C217.008,-47.7034 191.565,-34.3643 172.532,-24.3855"/>
<polygon fill="midnightblue" stroke="midnightblue" points="173.989,-21.198 163.508,-19.6545 170.739,-27.3977 173.989,-21.198"/>
</g>
<!-- Node4 -->
<g id="node5" class="node"><title>Node4</title>
<polygon fill="none" stroke="#bfbfbf" points="184,-0.5 184,-19.5 246,-19.5 246,-0.5 184,-0.5"/>
<text text-anchor="middle" x="215" y="-7.5" font-family="Helvetica,sans-Serif" font-size="10.00">type_traits</text>
</g>
<!-- Node0&#45;&gt;Node4 -->
<g id="edge4" class="edge"><title>Node0&#45;&gt;Node4</title>
<path fill="none" stroke="midnightblue" d="M244.22,-56.083C239.328,-48.5341 232.173,-37.4948 226.167,-28.2298"/>
<polygon fill="midnightblue" stroke="midnightblue" points="229.048,-26.239 220.672,-19.7511 223.174,-30.0463 229.048,-26.239"/>
</g>
<!-- Node5 -->
<g id="node6" class="node"><title>Node5</title>
<polygon fill="none" stroke="#bfbfbf" points="264.5,-0.5 264.5,-19.5 307.5,-19.5 307.5,-0.5 264.5,-0.5"/>
<text text-anchor="middle" x="286" y="-7.5" font-family="Helvetica,sans-Serif" font-size="10.00">cstdio</text>
</g>
<!-- Node0&#45;&gt;Node5 -->
<g id="edge5" class="edge"><title>Node0&#45;&gt;Node5</title>
<path fill="none" stroke="midnightblue" d="M255.945,-56.083C260.977,-48.5341 268.337,-37.4948 274.513,-28.2298"/>
<polygon fill="midnightblue" stroke="midnightblue" points="277.531,-30.0131 280.166,-19.7511 271.707,-26.1301 277.531,-30.0131"/>
</g>
<!-- Node6 -->
<g id="node7" class="node"><title>Node6</title>
<polygon fill="none" stroke="#bfbfbf" points="325.5,-0.5 325.5,-19.5 366.5,-19.5 366.5,-0.5 325.5,-0.5"/>
<text text-anchor="middle" x="346" y="-7.5" font-family="Helvetica,sans-Serif" font-size="10.00">string</text>
</g>
<!-- Node0&#45;&gt;Node6 -->
<g id="edge6" class="edge"><title>Node0&#45;&gt;Node6</title>
<path fill="none" stroke="midnightblue" d="M265.424,-56.324C280.54,-47.8215 303.815,-34.7288 321.471,-24.7975"/>
<polygon fill="midnightblue" stroke="midnightblue" points="323.614,-27.6077 330.614,-19.6545 320.183,-21.5066 323.614,-27.6077"/>
</g>
<!-- Node7 -->
<g id="node8" class="node"><title>Node7</title>
<polygon fill="none" stroke="#bfbfbf" points="384.5,-0.5 384.5,-19.5 433.5,-19.5 433.5,-0.5 384.5,-0.5"/>
<text text-anchor="middle" x="409" y="-7.5" font-family="Helvetica,sans-Serif" font-size="10.00">cassert</text>
</g>
<!-- Node0&#45;&gt;Node7 -->
<g id="edge7" class="edge"><title>Node0&#45;&gt;Node7</title>
<path fill="none" stroke="midnightblue" d="M275.194,-56.4435C302.1,-47.3057 344.903,-32.7689 374.832,-22.6044"/>
<polygon fill="midnightblue" stroke="midnightblue" points="376.103,-25.869 384.446,-19.339 373.852,-19.2408 376.103,-25.869"/>
</g>
<!-- Node8 -->
<g id="node9" class="node"><title>Node8</title>
<polygon fill="none" stroke="#bfbfbf" points="452,-0.5 452,-19.5 504,-19.5 504,-0.5 452,-0.5"/>
<text text-anchor="middle" x="478" y="-7.5" font-family="Helvetica,sans-Serif" font-size="10.00">memory</text>
</g>
<!-- Node0&#45;&gt;Node8 -->
<g id="edge8" class="edge"><title>Node0&#45;&gt;Node8</title>
<path fill="none" stroke="midnightblue" d="M287.059,-56.6212C323.906,-48.2321 382.297,-34.7826 441.714,-20.2773"/>
<polygon fill="midnightblue" stroke="midnightblue" points="442.762,-23.6239 451.643,-17.8456 441.097,-16.8249 442.762,-23.6239"/>
</g>
</g>
</svg>
