<?xml version="1.0" encoding="UTF-8" standalone="no"?>
<!DOCTYPE svg PUBLIC "-//W3C//DTD SVG 1.1//EN"
 "http://www.w3.org/Graphics/SVG/1.1/DTD/svg11.dtd">
<!-- Generated by graphviz version 2.38.0 (20140413.2041)
 -->
<!-- Title: hydra::PointError&lt; T, N, bool &gt; Pages: 1 -->
<svg width="197pt" height="409pt"
 viewBox="0.00 0.00 197.00 409.00" xmlns="http://www.w3.org/2000/svg" xmlns:xlink="http://www.w3.org/1999/xlink">
<g id="graph0" class="graph" transform="scale(1 1) rotate(0) translate(4 405)">
<title>hydra::PointError&lt; T, N, bool &gt;</title>
<!-- Node1 -->
<g id="node1" class="node"><title>Node1</title>
<polygon fill="#bfbfbf" stroke="black" points="32,-332.5 32,-400.5 128,-400.5 128,-332.5 32,-332.5"/>
<text text-anchor="start" x="40" y="-388.5" font-family="Helvetica,sans-Serif" font-size="10.00">hydra::PointError&lt;</text>
<text text-anchor="middle" x="80" y="-377.5" font-family="Helvetica,sans-Serif" font-size="10.00"> T, N, bool &gt;</text>
<polyline fill="none" stroke="black" points="32,-370.5 128,-370.5 "/>
<text text-anchor="middle" x="80" y="-358.5" font-family="Helvetica,sans-Serif" font-size="10.00"> </text>
<polyline fill="none" stroke="black" points="32,-351.5 128,-351.5 "/>
<text text-anchor="middle" x="80" y="-339.5" font-family="Helvetica,sans-Serif" font-size="10.00"> </text>
</g>
<!-- Node2 -->
<g id="node2" class="node"><title>Node2</title>
<g id="a_node2"><a xlink:href="a00022.html" target="_top" xlink:title="{hydra::PointError\&lt;\l T, N, HasPointError \&gt;\n||}">
<polygon fill="none" stroke="black" points="22,-216.5 22,-284.5 138,-284.5 138,-216.5 22,-216.5"/>
<text text-anchor="start" x="30" y="-272.5" font-family="Helvetica,sans-Serif" font-size="10.00">hydra::PointError&lt;</text>
<text text-anchor="middle" x="80" y="-261.5" font-family="Helvetica,sans-Serif" font-size="10.00"> T, N, HasPointError &gt;</text>
<polyline fill="none" stroke="black" points="22,-254.5 138,-254.5 "/>
<text text-anchor="middle" x="80" y="-242.5" font-family="Helvetica,sans-Serif" font-size="10.00"> </text>
<polyline fill="none" stroke="black" points="22,-235.5 138,-235.5 "/>
<text text-anchor="middle" x="80" y="-223.5" font-family="Helvetica,sans-Serif" font-size="10.00"> </text>
</a>
</g>
</g>
<!-- Node1&#45;&gt;Node2 -->
<g id="edge1" class="edge"><title>Node1&#45;&gt;Node2</title>
<path fill="none" stroke="orange" d="M80,-322.06C80,-309.644 80,-296.316 80,-284.624"/>
<polygon fill="orange" stroke="orange" points="76.5001,-322.22 80,-332.22 83.5001,-322.22 76.5001,-322.22"/>
<text text-anchor="middle" x="134.5" y="-306" font-family="Helvetica,sans-Serif" font-size="10.00"> &lt; T, N, HasPointError &gt;</text>
</g>
<!-- Node3 -->
<g id="node3" class="node"><title>Node3</title>
<g id="a_node3"><a xlink:href="a00066.html" target="_top" xlink:title="{hydra::Point\&lt; T, N,\l HasValueError, HasPointError \&gt;\n|+ Dimension\l|+ Point()\l+ Point()\l+ Point()\l+ Point()\l+ Point()\l+ Point()\l+ Point()\l+ Point()\l+ Point()\l+ Point()\land 18 more...\l}">
<polygon fill="none" stroke="black" points="0,-0.5 0,-178.5 160,-178.5 160,-0.5 0,-0.5"/>
<text text-anchor="start" x="8" y="-166.5" font-family="Helvetica,sans-Serif" font-size="10.00">hydra::Point&lt; T, N,</text>
<text text-anchor="middle" x="80" y="-155.5" font-family="Helvetica,sans-Serif" font-size="10.00"> HasValueError, HasPointError &gt;</text>
<polyline fill="none" stroke="black" points="0,-148.5 160,-148.5 "/>
<text text-anchor="start" x="8" y="-136.5" font-family="Helvetica,sans-Serif" font-size="10.00">+ Dimension</text>
<polyline fill="none" stroke="black" points="0,-129.5 160,-129.5 "/>
<text text-anchor="start" x="8" y="-117.5" font-family="Helvetica,sans-Serif" font-size="10.00">+ Point()</text>
<text text-anchor="start" x="8" y="-106.5" font-family="Helvetica,sans-Serif" font-size="10.00">+ Point()</text>
<text text-anchor="start" x="8" y="-95.5" font-family="Helvetica,sans-Serif" font-size="10.00">+ Point()</text>
<text text-anchor="start" x="8" y="-84.5" font-family="Helvetica,sans-Serif" font-size="10.00">+ Point()</text>
<text text-anchor="start" x="8" y="-73.5" font-family="Helvetica,sans-Serif" font-size="10.00">+ Point()</text>
<text text-anchor="start" x="8" y="-62.5" font-family="Helvetica,sans-Serif" font-size="10.00">+ Point()</text>
<text text-anchor="start" x="8" y="-51.5" font-family="Helvetica,sans-Serif" font-size="10.00">+ Point()</text>
<text text-anchor="start" x="8" y="-40.5" font-family="Helvetica,sans-Serif" font-size="10.00">+ Point()</text>
<text text-anchor="start" x="8" y="-29.5" font-family="Helvetica,sans-Serif" font-size="10.00">+ Point()</text>
<text text-anchor="start" x="8" y="-18.5" font-family="Helvetica,sans-Serif" font-size="10.00">+ Point()</text>
<text text-anchor="start" x="8" y="-7.5" font-family="Helvetica,sans-Serif" font-size="10.00">and 18 more...</text>
</a>
</g>
</g>
<!-- Node2&#45;&gt;Node3 -->
<g id="edge2" class="edge"><title>Node2&#45;&gt;Node3</title>
<path fill="none" stroke="midnightblue" d="M80,-206.109C80,-197.544 80,-188.269 80,-178.825"/>
<polygon fill="none" stroke="midnightblue" points="76.5001,-206.168 80,-216.168 83.5001,-206.168 76.5001,-206.168"/>
</g>
</g>
</svg>
