<?xml version="1.0" encoding="UTF-8" standalone="no"?>
<!DOCTYPE svg PUBLIC "-//W3C//DTD SVG 1.1//EN"
 "http://www.w3.org/Graphics/SVG/1.1/DTD/svg11.dtd">
<!-- Generated by graphviz version 2.38.0 (20140413.2041)
 -->
<!-- Title: Minus.h Pages: 1 -->
<svg width="1255pt" height="531pt"
 viewBox="0.00 0.00 1254.50 531.00" xmlns="http://www.w3.org/2000/svg" xmlns:xlink="http://www.w3.org/1999/xlink">
<g id="graph0" class="graph" transform="scale(1 1) rotate(0) translate(4 527)">
<title>Minus.h</title>
<!-- Node1 -->
<g id="node1" class="node"><title>Node1</title>
<polygon fill="#bfbfbf" stroke="black" points="833,-503.5 833,-522.5 884,-522.5 884,-503.5 833,-503.5"/>
<text text-anchor="middle" x="858.5" y="-510.5" font-family="Helvetica,sans-Serif" font-size="10.00">Minus.h</text>
</g>
<!-- Node2 -->
<g id="node2" class="node"><title>Node2</title>
<g id="a_node2"><a xlink:href="a00094.html" target="_top" xlink:title="hydra/detail/Config.h">
<polygon fill="none" stroke="black" points="353,-78.5 353,-97.5 460,-97.5 460,-78.5 353,-78.5"/>
<text text-anchor="middle" x="406.5" y="-85.5" font-family="Helvetica,sans-Serif" font-size="10.00">hydra/detail/Config.h</text>
</a>
</g>
</g>
<!-- Node1&#45;&gt;Node2 -->
<g id="edge1" class="edge"><title>Node1&#45;&gt;Node2</title>
<path fill="none" stroke="midnightblue" d="M832.709,-512.311C721.983,-512.971 292.5,-508.322 292.5,-396.5 292.5,-396.5 292.5,-396.5 292.5,-199 292.5,-152.115 343.052,-118.894 376.829,-101.93"/>
<polygon fill="midnightblue" stroke="midnightblue" points="378.368,-105.074 385.855,-97.5787 375.328,-98.7687 378.368,-105.074"/>
</g>
<!-- Node12 -->
<g id="node12" class="node"><title>Node12</title>
<g id="a_node12"><a xlink:href="a00139.html" target="_top" xlink:title="hydra/Types.h">
<polygon fill="none" stroke="black" points="947,-78.5 947,-97.5 1026,-97.5 1026,-78.5 947,-78.5"/>
<text text-anchor="middle" x="986.5" y="-85.5" font-family="Helvetica,sans-Serif" font-size="10.00">hydra/Types.h</text>
</a>
</g>
</g>
<!-- Node1&#45;&gt;Node12 -->
<g id="edge11" class="edge"><title>Node1&#45;&gt;Node12</title>
<path fill="none" stroke="midnightblue" d="M884.258,-509.955C970.916,-502.377 1246.5,-472.317 1246.5,-396.5 1246.5,-396.5 1246.5,-396.5 1246.5,-199 1246.5,-108.772 1112.05,-91.4287 1036.52,-88.8044"/>
<polygon fill="midnightblue" stroke="midnightblue" points="1036.36,-85.2989 1026.27,-88.5257 1036.17,-92.2963 1036.36,-85.2989"/>
</g>
<!-- Node13 -->
<g id="node13" class="node"><title>Node13</title>
<g id="a_node13"><a xlink:href="a00140.html" target="_top" xlink:title="hydra/detail/TypeTraits.h">
<polygon fill="none" stroke="black" points="532,-319 532,-338 657,-338 657,-319 532,-319"/>
<text text-anchor="middle" x="594.5" y="-326" font-family="Helvetica,sans-Serif" font-size="10.00">hydra/detail/TypeTraits.h</text>
</a>
</g>
</g>
<!-- Node1&#45;&gt;Node13 -->
<g id="edge12" class="edge"><title>Node1&#45;&gt;Node13</title>
<path fill="none" stroke="midnightblue" d="M846.121,-503.442C804.288,-474.524 667.876,-380.224 615.365,-343.924"/>
<polygon fill="midnightblue" stroke="midnightblue" points="617.069,-340.846 606.852,-338.039 613.088,-346.605 617.069,-340.846"/>
</g>
<!-- Node30 -->
<g id="node30" class="node"><title>Node30</title>
<g id="a_node30"><a xlink:href="a00142.html" target="_top" xlink:title="hydra/detail/utility\l/Utility_Tuple.h">
<polygon fill="none" stroke="black" points="812,-380.5 812,-410.5 905,-410.5 905,-380.5 812,-380.5"/>
<text text-anchor="start" x="820" y="-398.5" font-family="Helvetica,sans-Serif" font-size="10.00">hydra/detail/utility</text>
<text text-anchor="middle" x="858.5" y="-387.5" font-family="Helvetica,sans-Serif" font-size="10.00">/Utility_Tuple.h</text>
</a>
</g>
</g>
<!-- Node1&#45;&gt;Node30 -->
<g id="edge40" class="edge"><title>Node1&#45;&gt;Node30</title>
<path fill="none" stroke="midnightblue" d="M858.5,-503.319C858.5,-485.967 858.5,-446.457 858.5,-420.658"/>
<polygon fill="midnightblue" stroke="midnightblue" points="862,-420.545 858.5,-410.545 855,-420.545 862,-420.545"/>
</g>
<!-- Node34 -->
<g id="node34" class="node"><title>Node34</title>
<g id="a_node34"><a xlink:href="a00092.html" target="_top" xlink:title="hydra/detail/base_functor.h">
<polygon fill="none" stroke="black" points="909.5,-447.5 909.5,-466.5 1043.5,-466.5 1043.5,-447.5 909.5,-447.5"/>
<text text-anchor="middle" x="976.5" y="-454.5" font-family="Helvetica,sans-Serif" font-size="10.00">hydra/detail/base_functor.h</text>
</a>
</g>
</g>
<!-- Node1&#45;&gt;Node34 -->
<g id="edge52" class="edge"><title>Node1&#45;&gt;Node34</title>
<path fill="none" stroke="midnightblue" d="M877.197,-503.444C896.444,-494.636 926.652,-480.812 948.7,-470.722"/>
<polygon fill="midnightblue" stroke="midnightblue" points="950.253,-473.86 957.89,-466.516 947.34,-467.495 950.253,-473.86"/>
</g>
<!-- Node3 -->
<g id="node3" class="node"><title>Node3</title>
<polygon fill="none" stroke="#bfbfbf" points="0,-11.5 0,-30.5 105,-30.5 105,-11.5 0,-11.5"/>
<text text-anchor="middle" x="52.5" y="-18.5" font-family="Helvetica,sans-Serif" font-size="10.00">thrust/detail/config.h</text>
</g>
<!-- Node2&#45;&gt;Node3 -->
<g id="edge2" class="edge"><title>Node2&#45;&gt;Node3</title>
<path fill="none" stroke="midnightblue" d="M352.791,-81.4363C293.638,-74.6884 195.965,-61.71 113.5,-42 104.107,-39.7549 94.0832,-36.7381 84.9324,-33.7293"/>
<polygon fill="midnightblue" stroke="midnightblue" points="86.0107,-30.3992 75.4164,-30.5044 83.7639,-37.0289 86.0107,-30.3992"/>
</g>
<!-- Node4 -->
<g id="node4" class="node"><title>Node4</title>
<polygon fill="none" stroke="#bfbfbf" points="123,-6 123,-36 220,-36 220,-6 123,-6"/>
<text text-anchor="start" x="131" y="-24" font-family="Helvetica,sans-Serif" font-size="10.00">thrust/detail/config</text>
<text text-anchor="middle" x="171.5" y="-13" font-family="Helvetica,sans-Serif" font-size="10.00">/host_device.h</text>
</g>
<!-- Node2&#45;&gt;Node4 -->
<g id="edge3" class="edge"><title>Node2&#45;&gt;Node4</title>
<path fill="none" stroke="midnightblue" d="M369.303,-78.4937C333.316,-70.0408 277.346,-56.3044 229.5,-42 226.584,-41.1281 223.596,-40.2016 220.588,-39.2436"/>
<polygon fill="midnightblue" stroke="midnightblue" points="221.574,-35.8837 210.981,-36.1048 219.4,-42.5375 221.574,-35.8837"/>
</g>
<!-- Node5 -->
<g id="node5" class="node"><title>Node5</title>
<polygon fill="none" stroke="#bfbfbf" points="238.5,-11.5 238.5,-30.5 282.5,-30.5 282.5,-11.5 238.5,-11.5"/>
<text text-anchor="middle" x="260.5" y="-18.5" font-family="Helvetica,sans-Serif" font-size="10.00">omp.h</text>
</g>
<!-- Node2&#45;&gt;Node5 -->
<g id="edge4" class="edge"><title>Node2&#45;&gt;Node5</title>
<path fill="none" stroke="midnightblue" d="M380.277,-78.4243C356.538,-70.2698 320.892,-57.0404 291.5,-42 288.047,-40.233 284.493,-38.1827 281.078,-36.0821"/>
<polygon fill="midnightblue" stroke="midnightblue" points="282.833,-33.0485 272.533,-30.564 279.035,-38.929 282.833,-33.0485"/>
</g>
<!-- Node6 -->
<g id="node6" class="node"><title>Node6</title>
<polygon fill="none" stroke="#bfbfbf" points="300.5,-11.5 300.5,-30.5 346.5,-30.5 346.5,-11.5 300.5,-11.5"/>
<text text-anchor="middle" x="323.5" y="-18.5" font-family="Helvetica,sans-Serif" font-size="10.00">cuda.h</text>
</g>
<!-- Node2&#45;&gt;Node6 -->
<g id="edge5" class="edge"><title>Node2&#45;&gt;Node6</title>
<path fill="none" stroke="midnightblue" d="M395.306,-78.2338C381.866,-67.708 359.1,-49.8793 342.804,-37.1174"/>
<polygon fill="midnightblue" stroke="midnightblue" points="344.547,-34.0374 334.516,-30.6273 340.231,-39.5486 344.547,-34.0374"/>
</g>
<!-- Node7 -->
<g id="node7" class="node"><title>Node7</title>
<polygon fill="none" stroke="#bfbfbf" points="365,-11.5 365,-30.5 448,-30.5 448,-11.5 365,-11.5"/>
<text text-anchor="middle" x="406.5" y="-18.5" font-family="Helvetica,sans-Serif" font-size="10.00">cuda_runtime.h</text>
</g>
<!-- Node2&#45;&gt;Node7 -->
<g id="edge6" class="edge"><title>Node2&#45;&gt;Node7</title>
<path fill="none" stroke="midnightblue" d="M406.5,-78.2338C406.5,-68.6826 406.5,-53.1183 406.5,-40.7829"/>
<polygon fill="midnightblue" stroke="midnightblue" points="410,-40.6273 406.5,-30.6273 403,-40.6273 410,-40.6273"/>
</g>
<!-- Node8 -->
<g id="node8" class="node"><title>Node8</title>
<polygon fill="none" stroke="#bfbfbf" points="466,-11.5 466,-30.5 567,-30.5 567,-11.5 466,-11.5"/>
<text text-anchor="middle" x="516.5" y="-18.5" font-family="Helvetica,sans-Serif" font-size="10.00">cuda_runtime_api.h</text>
</g>
<!-- Node2&#45;&gt;Node8 -->
<g id="edge7" class="edge"><title>Node2&#45;&gt;Node8</title>
<path fill="none" stroke="midnightblue" d="M421.335,-78.2338C439.808,-67.3182 471.572,-48.5487 493.28,-35.7209"/>
<polygon fill="midnightblue" stroke="midnightblue" points="495.071,-38.7279 501.9,-30.6273 491.51,-32.7014 495.071,-38.7279"/>
</g>
<!-- Node9 -->
<g id="node9" class="node"><title>Node9</title>
<polygon fill="none" stroke="#bfbfbf" points="585.5,-11.5 585.5,-30.5 677.5,-30.5 677.5,-11.5 585.5,-11.5"/>
<text text-anchor="middle" x="631.5" y="-18.5" font-family="Helvetica,sans-Serif" font-size="10.00">math_functions.h</text>
</g>
<!-- Node2&#45;&gt;Node9 -->
<g id="edge8" class="edge"><title>Node2&#45;&gt;Node9</title>
<path fill="none" stroke="midnightblue" d="M442.025,-78.4502C476.393,-69.9654 529.838,-56.2065 575.5,-42 583.332,-39.5632 591.697,-36.7125 599.509,-33.9395"/>
<polygon fill="midnightblue" stroke="midnightblue" points="600.809,-37.1916 609.028,-30.5057 598.433,-30.6069 600.809,-37.1916"/>
</g>
<!-- Node10 -->
<g id="node10" class="node"><title>Node10</title>
<polygon fill="none" stroke="#bfbfbf" points="696,-6 696,-36 797,-36 797,-6 696,-6"/>
<text text-anchor="start" x="704" y="-24" font-family="Helvetica,sans-Serif" font-size="10.00">thrust/system/cuda</text>
<text text-anchor="middle" x="746.5" y="-13" font-family="Helvetica,sans-Serif" font-size="10.00">/execution_policy.h</text>
</g>
<!-- Node2&#45;&gt;Node10 -->
<g id="edge9" class="edge"><title>Node2&#45;&gt;Node10</title>
<path fill="none" stroke="midnightblue" d="M460.173,-81.0042C516.921,-74.0549 608.797,-61.0606 686.5,-42 690.126,-41.1106 693.847,-40.1047 697.574,-39.0288"/>
<polygon fill="midnightblue" stroke="midnightblue" points="698.839,-42.3026 707.392,-36.0498 696.807,-35.6041 698.839,-42.3026"/>
</g>
<!-- Node11 -->
<g id="node11" class="node"><title>Node11</title>
<polygon fill="none" stroke="#bfbfbf" points="815,-0.5 815,-41.5 922,-41.5 922,-0.5 815,-0.5"/>
<text text-anchor="start" x="823" y="-29.5" font-family="Helvetica,sans-Serif" font-size="10.00">thrust/system/cuda</text>
<text text-anchor="start" x="823" y="-18.5" font-family="Helvetica,sans-Serif" font-size="10.00">/experimental/pinned</text>
<text text-anchor="middle" x="868.5" y="-7.5" font-family="Helvetica,sans-Serif" font-size="10.00">_allocator.h</text>
</g>
<!-- Node2&#45;&gt;Node11 -->
<g id="edge10" class="edge"><title>Node2&#45;&gt;Node11</title>
<path fill="none" stroke="midnightblue" d="M460.052,-81.0278C557.35,-70.1689 756.914,-47.8565 804.825,-41.352"/>
<polygon fill="midnightblue" stroke="midnightblue" points="805.377,-44.8083 814.729,-39.8301 804.314,-37.8895 805.377,-44.8083"/>
</g>
<!-- Node13&#45;&gt;Node2 -->
<g id="edge13" class="edge"><title>Node13&#45;&gt;Node2</title>
<path fill="none" stroke="midnightblue" d="M584.137,-318.922C562.295,-300.865 512.099,-259.488 494.5,-246 472.766,-229.343 461.629,-231.364 444.5,-210 420.134,-179.61 411.297,-133.44 408.163,-107.811"/>
<polygon fill="midnightblue" stroke="midnightblue" points="411.617,-107.19 407.089,-97.6114 404.655,-107.923 411.617,-107.19"/>
</g>
<!-- Node14 -->
<g id="node14" class="node"><title>Node14</title>
<g id="a_node14"><a xlink:href="a00096.html" target="_top" xlink:title="Typedef for useful container classes used in MCBooster. ">
<polygon fill="none" stroke="black" points="687,-252 687,-271 786,-271 786,-252 687,-252"/>
<text text-anchor="middle" x="736.5" y="-259" font-family="Helvetica,sans-Serif" font-size="10.00">hydra/Containers.h</text>
</a>
</g>
</g>
<!-- Node13&#45;&gt;Node14 -->
<g id="edge14" class="edge"><title>Node13&#45;&gt;Node14</title>
<path fill="none" stroke="midnightblue" d="M613.357,-318.869C637.651,-307.748 680.101,-288.317 708.256,-275.429"/>
<polygon fill="midnightblue" stroke="midnightblue" points="709.93,-278.512 717.566,-271.167 707.016,-272.147 709.93,-278.512"/>
</g>
<!-- Node26 -->
<g id="node26" class="node"><title>Node26</title>
<polygon fill="none" stroke="#bfbfbf" points="977,-190.5 977,-209.5 1066,-209.5 1066,-190.5 977,-190.5"/>
<text text-anchor="middle" x="1021.5" y="-197.5" font-family="Helvetica,sans-Serif" font-size="10.00">thrust/complex.h</text>
</g>
<!-- Node13&#45;&gt;Node26 -->
<g id="edge37" class="edge"><title>Node13&#45;&gt;Node26</title>
<path fill="none" stroke="midnightblue" d="M635.929,-318.909C685.85,-308.232 766.512,-289.854 794.5,-277 816.239,-267.016 816.731,-255.917 838.5,-246 861.544,-235.503 923.628,-221.247 969.114,-211.617"/>
<polygon fill="midnightblue" stroke="midnightblue" points="970.059,-214.995 979.126,-209.515 968.62,-208.144 970.059,-214.995"/>
</g>
<!-- Node27 -->
<g id="node27" class="node"><title>Node27</title>
<polygon fill="none" stroke="#bfbfbf" points="973.5,-252 973.5,-271 1035.5,-271 1035.5,-252 973.5,-252"/>
<text text-anchor="middle" x="1004.5" y="-259" font-family="Helvetica,sans-Serif" font-size="10.00">type_traits</text>
</g>
<!-- Node13&#45;&gt;Node27 -->
<g id="edge36" class="edge"><title>Node13&#45;&gt;Node27</title>
<path fill="none" stroke="midnightblue" d="M634.233,-318.995C644.405,-316.925 655.341,-314.793 665.5,-313 772.353,-294.144 898.982,-276.528 963,-267.953"/>
<polygon fill="midnightblue" stroke="midnightblue" points="963.646,-271.397 973.095,-266.606 962.72,-264.459 963.646,-271.397"/>
</g>
<!-- Node28 -->
<g id="node28" class="node"><title>Node28</title>
<polygon fill="none" stroke="#bfbfbf" points="397,-246.5 397,-276.5 486,-276.5 486,-246.5 397,-246.5"/>
<text text-anchor="start" x="405" y="-264.5" font-family="Helvetica,sans-Serif" font-size="10.00">thrust/detail/type</text>
<text text-anchor="middle" x="441.5" y="-253.5" font-family="Helvetica,sans-Serif" font-size="10.00">_traits.h</text>
</g>
<!-- Node13&#45;&gt;Node28 -->
<g id="edge38" class="edge"><title>Node13&#45;&gt;Node28</title>
<path fill="none" stroke="midnightblue" d="M574.183,-318.869C551.225,-309.115 513.221,-292.97 483.756,-280.452"/>
<polygon fill="midnightblue" stroke="midnightblue" points="485.092,-277.217 474.52,-276.528 482.355,-283.66 485.092,-277.217"/>
</g>
<!-- Node29 -->
<g id="node29" class="node"><title>Node29</title>
<polygon fill="none" stroke="#bfbfbf" points="543,-252 543,-271 668,-271 668,-252 543,-252"/>
<text text-anchor="middle" x="605.5" y="-259" font-family="Helvetica,sans-Serif" font-size="10.00">thrust/execution_policy.h</text>
</g>
<!-- Node13&#45;&gt;Node29 -->
<g id="edge39" class="edge"><title>Node13&#45;&gt;Node29</title>
<path fill="none" stroke="midnightblue" d="M595.984,-318.734C597.6,-309.183 600.234,-293.618 602.321,-281.283"/>
<polygon fill="midnightblue" stroke="midnightblue" points="605.822,-281.571 604.04,-271.127 598.92,-280.403 605.822,-281.571"/>
</g>
<!-- Node14&#45;&gt;Node2 -->
<g id="edge17" class="edge"><title>Node14&#45;&gt;Node2</title>
<path fill="none" stroke="midnightblue" d="M702.955,-251.957C694.358,-249.888 685.108,-247.765 676.5,-246 582.448,-226.712 539.99,-268.027 463.5,-210 446.117,-196.813 423.54,-137.785 412.761,-107.322"/>
<polygon fill="midnightblue" stroke="midnightblue" points="415.946,-105.825 409.355,-97.5294 409.335,-108.124 415.946,-105.825"/>
</g>
<!-- Node14&#45;&gt;Node12 -->
<g id="edge18" class="edge"><title>Node14&#45;&gt;Node12</title>
<path fill="none" stroke="midnightblue" d="M768.185,-251.951C775.51,-249.986 783.274,-247.913 790.5,-246 851.776,-229.781 879.594,-250.323 928.5,-210 960.898,-183.288 976.427,-134.205 982.781,-107.497"/>
<polygon fill="midnightblue" stroke="midnightblue" points="986.238,-108.069 984.964,-97.5506 979.401,-106.568 986.238,-108.069"/>
</g>
<!-- Node15 -->
<g id="node15" class="node"><title>Node15</title>
<polygon fill="none" stroke="#bfbfbf" points="764.5,-190.5 764.5,-209.5 808.5,-209.5 808.5,-190.5 764.5,-190.5"/>
<text text-anchor="middle" x="786.5" y="-197.5" font-family="Helvetica,sans-Serif" font-size="10.00">vector</text>
</g>
<!-- Node14&#45;&gt;Node15 -->
<g id="edge15" class="edge"><title>Node14&#45;&gt;Node15</title>
<path fill="none" stroke="midnightblue" d="M743.664,-251.975C751.238,-242.962 763.37,-228.525 772.793,-217.312"/>
<polygon fill="midnightblue" stroke="midnightblue" points="775.596,-219.417 779.35,-209.509 770.237,-214.913 775.596,-219.417"/>
</g>
<!-- Node16 -->
<g id="node16" class="node"><title>Node16</title>
<polygon fill="none" stroke="#bfbfbf" points="1122.5,-190.5 1122.5,-209.5 1160.5,-209.5 1160.5,-190.5 1122.5,-190.5"/>
<text text-anchor="middle" x="1141.5" y="-197.5" font-family="Helvetica,sans-Serif" font-size="10.00">array</text>
</g>
<!-- Node14&#45;&gt;Node16 -->
<g id="edge16" class="edge"><title>Node14&#45;&gt;Node16</title>
<path fill="none" stroke="midnightblue" d="M786.161,-253.204C871.573,-240.656 1043.72,-215.366 1112.32,-205.288"/>
<polygon fill="midnightblue" stroke="midnightblue" points="1113.02,-208.721 1122.41,-203.805 1112.01,-201.796 1113.02,-208.721"/>
</g>
<!-- Node17 -->
<g id="node17" class="node"><title>Node17</title>
<g id="a_node17"><a xlink:href="a00143.html" target="_top" xlink:title="hydra/Vector3R.h">
<polygon fill="none" stroke="black" points="593,-134.5 593,-153.5 686,-153.5 686,-134.5 593,-134.5"/>
<text text-anchor="middle" x="639.5" y="-141.5" font-family="Helvetica,sans-Serif" font-size="10.00">hydra/Vector3R.h</text>
</a>
</g>
</g>
<!-- Node14&#45;&gt;Node17 -->
<g id="edge19" class="edge"><title>Node14&#45;&gt;Node17</title>
<path fill="none" stroke="midnightblue" d="M736.238,-251.762C735.388,-237.439 731.87,-208.693 717.5,-190 706.374,-175.527 689.171,-164.895 673.748,-157.611"/>
<polygon fill="midnightblue" stroke="midnightblue" points="675.007,-154.341 664.446,-153.504 672.18,-160.745 675.007,-154.341"/>
</g>
<!-- Node22 -->
<g id="node22" class="node"><title>Node22</title>
<g id="a_node22"><a xlink:href="a00145.html" target="_top" xlink:title="hydra/Vector4R.h">
<polygon fill="none" stroke="black" points="827,-190.5 827,-209.5 920,-209.5 920,-190.5 827,-190.5"/>
<text text-anchor="middle" x="873.5" y="-197.5" font-family="Helvetica,sans-Serif" font-size="10.00">hydra/Vector4R.h</text>
</a>
</g>
</g>
<!-- Node14&#45;&gt;Node22 -->
<g id="edge26" class="edge"><title>Node14&#45;&gt;Node22</title>
<path fill="none" stroke="midnightblue" d="M756.129,-251.975C779.324,-241.901 818.119,-225.053 844.713,-213.502"/>
<polygon fill="midnightblue" stroke="midnightblue" points="846.13,-216.703 853.908,-209.509 843.341,-210.282 846.13,-216.703"/>
</g>
<!-- Node24 -->
<g id="node24" class="node"><title>Node24</title>
<polygon fill="none" stroke="#bfbfbf" points="473,-190.5 473,-209.5 586,-209.5 586,-190.5 473,-190.5"/>
<text text-anchor="middle" x="529.5" y="-197.5" font-family="Helvetica,sans-Serif" font-size="10.00">thrust/device_vector.h</text>
</g>
<!-- Node14&#45;&gt;Node24 -->
<g id="edge33" class="edge"><title>Node14&#45;&gt;Node24</title>
<path fill="none" stroke="midnightblue" d="M706.842,-251.975C670.566,-241.548 609.036,-223.862 568.836,-212.307"/>
<polygon fill="midnightblue" stroke="midnightblue" points="569.681,-208.908 559.103,-209.509 567.747,-215.635 569.681,-208.908"/>
</g>
<!-- Node25 -->
<g id="node25" class="node"><title>Node25</title>
<polygon fill="none" stroke="#bfbfbf" points="604.5,-190.5 604.5,-209.5 708.5,-209.5 708.5,-190.5 604.5,-190.5"/>
<text text-anchor="middle" x="656.5" y="-197.5" font-family="Helvetica,sans-Serif" font-size="10.00">thrust/host_vector.h</text>
</g>
<!-- Node14&#45;&gt;Node25 -->
<g id="edge34" class="edge"><title>Node14&#45;&gt;Node25</title>
<path fill="none" stroke="midnightblue" d="M725.038,-251.975C712.325,-242.52 691.587,-227.096 676.247,-215.687"/>
<polygon fill="midnightblue" stroke="midnightblue" points="678.054,-212.669 667.941,-209.509 673.876,-218.285 678.054,-212.669"/>
</g>
<!-- Node14&#45;&gt;Node26 -->
<g id="edge35" class="edge"><title>Node14&#45;&gt;Node26</title>
<path fill="none" stroke="midnightblue" d="M773.696,-251.928C782.477,-249.944 791.812,-247.868 800.5,-246 857.677,-233.703 923.367,-220.437 968.171,-211.518"/>
<polygon fill="midnightblue" stroke="midnightblue" points="969.121,-214.898 978.247,-209.516 967.757,-208.032 969.121,-214.898"/>
</g>
<!-- Node17&#45;&gt;Node2 -->
<g id="edge20" class="edge"><title>Node17&#45;&gt;Node2</title>
<path fill="none" stroke="midnightblue" d="M602.58,-134.444C562.105,-125.063 497.079,-109.993 453.116,-99.8036"/>
<polygon fill="midnightblue" stroke="midnightblue" points="453.779,-96.3646 443.247,-97.5164 452.198,-103.184 453.779,-96.3646"/>
</g>
<!-- Node17&#45;&gt;Node12 -->
<g id="edge21" class="edge"><title>Node17&#45;&gt;Node12</title>
<path fill="none" stroke="midnightblue" d="M686.248,-135.466C689.378,-134.968 692.485,-134.475 695.5,-134 780.294,-120.63 879.051,-105.439 936.972,-96.5676"/>
<polygon fill="midnightblue" stroke="midnightblue" points="937.596,-100.013 946.951,-95.0398 936.537,-93.0935 937.596,-100.013"/>
</g>
<!-- Node18 -->
<g id="node18" class="node"><title>Node18</title>
<polygon fill="none" stroke="#bfbfbf" points="639,-78.5 639,-97.5 684,-97.5 684,-78.5 639,-78.5"/>
<text text-anchor="middle" x="661.5" y="-85.5" font-family="Helvetica,sans-Serif" font-size="10.00">iosfwd</text>
</g>
<!-- Node17&#45;&gt;Node18 -->
<g id="edge22" class="edge"><title>Node17&#45;&gt;Node18</title>
<path fill="none" stroke="midnightblue" d="M643.133,-134.083C646.112,-126.77 650.426,-116.181 654.125,-107.103"/>
<polygon fill="midnightblue" stroke="midnightblue" points="657.403,-108.333 657.935,-97.7511 650.92,-105.691 657.403,-108.333"/>
</g>
<!-- Node19 -->
<g id="node19" class="node"><title>Node19</title>
<polygon fill="none" stroke="#bfbfbf" points="725.5,-78.5 725.5,-97.5 779.5,-97.5 779.5,-78.5 725.5,-78.5"/>
<text text-anchor="middle" x="752.5" y="-85.5" font-family="Helvetica,sans-Serif" font-size="10.00">iostream</text>
</g>
<!-- Node17&#45;&gt;Node19 -->
<g id="edge23" class="edge"><title>Node17&#45;&gt;Node19</title>
<path fill="none" stroke="midnightblue" d="M657.405,-134.444C675.754,-125.675 704.505,-111.935 725.594,-101.858"/>
<polygon fill="midnightblue" stroke="midnightblue" points="727.165,-104.986 734.679,-97.5164 724.147,-98.6703 727.165,-104.986"/>
</g>
<!-- Node20 -->
<g id="node20" class="node"><title>Node20</title>
<polygon fill="none" stroke="#bfbfbf" points="854,-78.5 854,-97.5 901,-97.5 901,-78.5 854,-78.5"/>
<text text-anchor="middle" x="877.5" y="-85.5" font-family="Helvetica,sans-Serif" font-size="10.00">math.h</text>
</g>
<!-- Node17&#45;&gt;Node20 -->
<g id="edge24" class="edge"><title>Node17&#45;&gt;Node20</title>
<path fill="none" stroke="midnightblue" d="M677.212,-134.444C723.08,-124.036 799.813,-106.626 843.792,-96.648"/>
<polygon fill="midnightblue" stroke="midnightblue" points="844.727,-100.025 853.705,-94.3989 843.178,-93.1984 844.727,-100.025"/>
</g>
<!-- Node21 -->
<g id="node21" class="node"><title>Node21</title>
<g id="a_node21"><a xlink:href="a00144.html" target="_top" xlink:title="hydra/detail/Vector3R.inl">
<polygon fill="none" stroke="black" points="496.5,-78.5 496.5,-97.5 620.5,-97.5 620.5,-78.5 496.5,-78.5"/>
<text text-anchor="middle" x="558.5" y="-85.5" font-family="Helvetica,sans-Serif" font-size="10.00">hydra/detail/Vector3R.inl</text>
</a>
</g>
</g>
<!-- Node17&#45;&gt;Node21 -->
<g id="edge25" class="edge"><title>Node17&#45;&gt;Node21</title>
<path fill="none" stroke="midnightblue" d="M626.486,-134.324C613.968,-125.979 594.818,-113.212 580.029,-103.352"/>
<polygon fill="midnightblue" stroke="midnightblue" points="581.744,-100.289 571.482,-97.6545 577.861,-106.114 581.744,-100.289"/>
</g>
<!-- Node22&#45;&gt;Node2 -->
<g id="edge29" class="edge"><title>Node22&#45;&gt;Node2</title>
<path fill="none" stroke="midnightblue" d="M826.753,-191.463C823.622,-190.966 820.515,-190.474 817.5,-190 713.554,-173.652 685.392,-180.267 583.5,-154 529.836,-140.166 469.745,-116.204 435.194,-101.559"/>
<polygon fill="midnightblue" stroke="midnightblue" points="436.31,-98.2293 425.739,-97.5127 433.556,-104.665 436.31,-98.2293"/>
</g>
<!-- Node22&#45;&gt;Node12 -->
<g id="edge30" class="edge"><title>Node22&#45;&gt;Node12</title>
<path fill="none" stroke="midnightblue" d="M882.367,-190.368C901.345,-171.894 946.136,-128.293 970.327,-104.744"/>
<polygon fill="midnightblue" stroke="midnightblue" points="972.95,-107.075 977.674,-97.5914 968.067,-102.059 972.95,-107.075"/>
</g>
<!-- Node22&#45;&gt;Node17 -->
<g id="edge31" class="edge"><title>Node22&#45;&gt;Node17</title>
<path fill="none" stroke="midnightblue" d="M836.422,-190.444C795.772,-181.063 730.468,-165.993 686.316,-155.804"/>
<polygon fill="midnightblue" stroke="midnightblue" points="686.935,-152.355 676.405,-153.516 685.361,-159.175 686.935,-152.355"/>
</g>
<!-- Node22&#45;&gt;Node19 -->
<g id="edge28" class="edge"><title>Node22&#45;&gt;Node19</title>
<path fill="none" stroke="midnightblue" d="M870.579,-190.412C865.627,-176.93 854.442,-150.624 837.5,-134 823.154,-119.922 803.506,-109.134 786.713,-101.655"/>
<polygon fill="midnightblue" stroke="midnightblue" points="787.791,-98.3102 777.218,-97.6331 785.061,-104.756 787.791,-98.3102"/>
</g>
<!-- Node22&#45;&gt;Node20 -->
<g id="edge27" class="edge"><title>Node22&#45;&gt;Node20</title>
<path fill="none" stroke="midnightblue" d="M873.814,-190.368C874.459,-172.617 875.948,-131.666 876.824,-107.597"/>
<polygon fill="midnightblue" stroke="midnightblue" points="880.322,-107.712 877.188,-97.5914 873.326,-107.458 880.322,-107.712"/>
</g>
<!-- Node23 -->
<g id="node23" class="node"><title>Node23</title>
<g id="a_node23"><a xlink:href="a00146.html" target="_top" xlink:title="hydra/detail/Vector4R.inl">
<polygon fill="none" stroke="black" points="704.5,-134.5 704.5,-153.5 828.5,-153.5 828.5,-134.5 704.5,-134.5"/>
<text text-anchor="middle" x="766.5" y="-141.5" font-family="Helvetica,sans-Serif" font-size="10.00">hydra/detail/Vector4R.inl</text>
</a>
</g>
</g>
<!-- Node22&#45;&gt;Node23 -->
<g id="edge32" class="edge"><title>Node22&#45;&gt;Node23</title>
<path fill="none" stroke="midnightblue" d="M856.309,-190.324C839.149,-181.664 812.554,-168.242 792.753,-158.249"/>
<polygon fill="midnightblue" stroke="midnightblue" points="794.153,-155.035 783.649,-153.655 790.999,-161.285 794.153,-155.035"/>
</g>
<!-- Node30&#45;&gt;Node2 -->
<g id="edge41" class="edge"><title>Node30&#45;&gt;Node2</title>
<path fill="none" stroke="midnightblue" d="M811.742,-391.157C724.182,-384.425 538.965,-367.817 479.5,-344 432.543,-325.193 416.134,-318.698 387.5,-277 355.46,-230.342 361.897,-210.115 354.5,-154 353.338,-145.187 350.805,-142.084 354.5,-134 360.277,-121.36 371.552,-110.911 382.131,-103.274"/>
<polygon fill="midnightblue" stroke="midnightblue" points="384.349,-106.001 390.717,-97.5333 380.458,-100.182 384.349,-106.001"/>
</g>
<!-- Node30&#45;&gt;Node12 -->
<g id="edge42" class="edge"><title>Node30&#45;&gt;Node12</title>
<path fill="none" stroke="midnightblue" d="M860.18,-380.423C864.655,-349.897 879.891,-277.807 926.5,-246 982.416,-207.841 1032.67,-263.225 1074.5,-210 1104.12,-172.318 1045.33,-126.097 1010.18,-103.222"/>
<polygon fill="midnightblue" stroke="midnightblue" points="1011.73,-100.059 1001.41,-97.6712 1007.99,-105.975 1011.73,-100.059"/>
</g>
<!-- Node30&#45;&gt;Node13 -->
<g id="edge46" class="edge"><title>Node30&#45;&gt;Node13</title>
<path fill="none" stroke="midnightblue" d="M811.91,-383.029C763.127,-371.018 687.069,-352.292 639.059,-340.471"/>
<polygon fill="midnightblue" stroke="midnightblue" points="639.807,-337.051 629.26,-338.058 638.134,-343.848 639.807,-337.051"/>
</g>
<!-- Node30&#45;&gt;Node16 -->
<g id="edge51" class="edge"><title>Node30&#45;&gt;Node16</title>
<path fill="none" stroke="midnightblue" d="M864.268,-380.362C877.286,-350.357 911.967,-280.26 964.5,-246 1019.76,-209.964 1044.67,-226.68 1108.5,-210 1109.76,-209.671 1111.05,-209.332 1112.35,-208.987"/>
<polygon fill="midnightblue" stroke="midnightblue" points="1113.58,-212.281 1122.32,-206.304 1111.76,-205.521 1113.58,-212.281"/>
</g>
<!-- Node30&#45;&gt;Node27 -->
<g id="edge50" class="edge"><title>Node30&#45;&gt;Node27</title>
<path fill="none" stroke="midnightblue" d="M873.865,-380.288C891.55,-363.964 921.503,-336.417 947.5,-313 960.651,-301.154 975.636,-287.887 986.94,-277.925"/>
<polygon fill="midnightblue" stroke="midnightblue" points="989.58,-280.264 994.775,-271.03 984.956,-275.009 989.58,-280.264"/>
</g>
<!-- Node30&#45;&gt;Node28 -->
<g id="edge48" class="edge"><title>Node30&#45;&gt;Node28</title>
<path fill="none" stroke="midnightblue" d="M811.721,-391.109C731.67,-384.71 572.229,-369.187 522.5,-344 495.338,-330.243 471.773,-303.921 457.17,-284.906"/>
<polygon fill="midnightblue" stroke="midnightblue" points="459.885,-282.692 451.11,-276.755 454.268,-286.868 459.885,-282.692"/>
</g>
<!-- Node31 -->
<g id="node31" class="node"><title>Node31</title>
<g id="a_node31"><a xlink:href="a00110.html" target="_top" xlink:title="hydra/detail/utility\l/Generic.h">
<polygon fill="none" stroke="black" points="1087,-313.5 1087,-343.5 1180,-343.5 1180,-313.5 1087,-313.5"/>
<text text-anchor="start" x="1095" y="-331.5" font-family="Helvetica,sans-Serif" font-size="10.00">hydra/detail/utility</text>
<text text-anchor="middle" x="1133.5" y="-320.5" font-family="Helvetica,sans-Serif" font-size="10.00">/Generic.h</text>
</a>
</g>
</g>
<!-- Node30&#45;&gt;Node31 -->
<g id="edge43" class="edge"><title>Node30&#45;&gt;Node31</title>
<path fill="none" stroke="midnightblue" d="M905.15,-383.474C952.559,-372.268 1026.05,-354.898 1076.79,-342.904"/>
<polygon fill="midnightblue" stroke="midnightblue" points="1077.69,-346.287 1086.62,-340.58 1076.08,-339.475 1077.69,-346.287"/>
</g>
<!-- Node32 -->
<g id="node32" class="node"><title>Node32</title>
<polygon fill="none" stroke="#bfbfbf" points="956.5,-319 956.5,-338 1030.5,-338 1030.5,-319 956.5,-319"/>
<text text-anchor="middle" x="993.5" y="-326" font-family="Helvetica,sans-Serif" font-size="10.00">thrust/tuple.h</text>
</g>
<!-- Node30&#45;&gt;Node32 -->
<g id="edge47" class="edge"><title>Node30&#45;&gt;Node32</title>
<path fill="none" stroke="midnightblue" d="M887.793,-380.396C911.271,-369.092 943.943,-353.361 966.728,-342.39"/>
<polygon fill="midnightblue" stroke="midnightblue" points="968.34,-345.499 975.832,-338.007 965.303,-339.192 968.34,-345.499"/>
</g>
<!-- Node33 -->
<g id="node33" class="node"><title>Node33</title>
<polygon fill="none" stroke="#bfbfbf" points="675,-313.5 675,-343.5 824,-343.5 824,-313.5 675,-313.5"/>
<text text-anchor="start" x="683" y="-331.5" font-family="Helvetica,sans-Serif" font-size="10.00">thrust/iterator/detail</text>
<text text-anchor="middle" x="749.5" y="-320.5" font-family="Helvetica,sans-Serif" font-size="10.00">/tuple_of_iterator_references.h</text>
</g>
<!-- Node30&#45;&gt;Node33 -->
<g id="edge49" class="edge"><title>Node30&#45;&gt;Node33</title>
<path fill="none" stroke="midnightblue" d="M834.849,-380.396C819.422,-371.197 799.08,-359.066 782.124,-348.955"/>
<polygon fill="midnightblue" stroke="midnightblue" points="783.487,-345.692 773.105,-343.577 779.901,-351.704 783.487,-345.692"/>
</g>
<!-- Node31&#45;&gt;Node16 -->
<g id="edge45" class="edge"><title>Node31&#45;&gt;Node16</title>
<path fill="none" stroke="midnightblue" d="M1134.39,-313.479C1135.83,-290.719 1138.67,-245.702 1140.29,-220.058"/>
<polygon fill="midnightblue" stroke="midnightblue" points="1143.81,-219.99 1140.94,-209.789 1136.82,-219.548 1143.81,-219.99"/>
</g>
<!-- Node31&#45;&gt;Node27 -->
<g id="edge44" class="edge"><title>Node31&#45;&gt;Node27</title>
<path fill="none" stroke="midnightblue" d="M1105.51,-313.396C1083.17,-302.142 1052.13,-286.501 1030.37,-275.538"/>
<polygon fill="midnightblue" stroke="midnightblue" points="1031.89,-272.381 1021.38,-271.007 1028.74,-278.633 1031.89,-272.381"/>
</g>
<!-- Node34&#45;&gt;Node2 -->
<g id="edge54" class="edge"><title>Node34&#45;&gt;Node2</title>
<path fill="none" stroke="midnightblue" d="M909.402,-456.054C751.281,-454.374 368.5,-439.001 368.5,-329.5 368.5,-329.5 368.5,-329.5 368.5,-199 368.5,-164.813 385.1,-127.764 396.357,-106.571"/>
<polygon fill="midnightblue" stroke="midnightblue" points="399.447,-108.215 401.216,-97.769 393.319,-104.832 399.447,-108.215"/>
</g>
<!-- Node34&#45;&gt;Node12 -->
<g id="edge55" class="edge"><title>Node34&#45;&gt;Node12</title>
<path fill="none" stroke="midnightblue" d="M1043.6,-448.105C1112.12,-435.866 1208.5,-405.196 1208.5,-329.5 1208.5,-329.5 1208.5,-329.5 1208.5,-199 1208.5,-122.649 1101.77,-99.2934 1036.32,-92.1487"/>
<polygon fill="midnightblue" stroke="midnightblue" points="1036.49,-88.6485 1026.19,-91.1356 1035.79,-95.6137 1036.49,-88.6485"/>
</g>
<!-- Node34&#45;&gt;Node13 -->
<g id="edge58" class="edge"><title>Node34&#45;&gt;Node13</title>
<path fill="none" stroke="midnightblue" d="M938.104,-447.473C902.592,-439.257 848.51,-425.904 802.5,-411 737.363,-389.901 663.148,-359.144 623.352,-342.083"/>
<polygon fill="midnightblue" stroke="midnightblue" points="624.571,-338.798 614.002,-338.055 621.801,-345.226 624.571,-338.798"/>
</g>
<!-- Node34&#45;&gt;Node27 -->
<g id="edge53" class="edge"><title>Node34&#45;&gt;Node27</title>
<path fill="none" stroke="midnightblue" d="M983.434,-447.398C997.377,-429.48 1028.42,-386.3 1039.5,-344 1042.99,-330.672 1043.61,-326.15 1039.5,-313 1035.55,-300.372 1027.21,-288.126 1019.67,-278.857"/>
<polygon fill="midnightblue" stroke="midnightblue" points="1022.29,-276.539 1013.11,-271.255 1016.99,-281.112 1022.29,-276.539"/>
</g>
<!-- Node34&#45;&gt;Node30 -->
<g id="edge56" class="edge"><title>Node34&#45;&gt;Node30</title>
<path fill="none" stroke="midnightblue" d="M959.593,-447.475C942.94,-439.078 916.95,-425.973 895.493,-415.153"/>
<polygon fill="midnightblue" stroke="midnightblue" points="896.815,-411.9 886.31,-410.523 893.664,-418.151 896.815,-411.9"/>
</g>
<!-- Node34&#45;&gt;Node31 -->
<g id="edge57" class="edge"><title>Node34&#45;&gt;Node31</title>
<path fill="none" stroke="midnightblue" d="M1003.32,-447.46C1023.75,-440.05 1051.8,-427.851 1072.5,-411 1092.69,-394.561 1109.84,-370.053 1120.77,-352.206"/>
<polygon fill="midnightblue" stroke="midnightblue" points="1123.81,-353.945 1125.9,-343.558 1117.79,-350.374 1123.81,-353.945"/>
</g>
<!-- Node34&#45;&gt;Node32 -->
<g id="edge59" class="edge"><title>Node34&#45;&gt;Node32</title>
<path fill="none" stroke="midnightblue" d="M977.668,-447.305C980.398,-426.994 987.244,-376.053 990.977,-348.277"/>
<polygon fill="midnightblue" stroke="midnightblue" points="994.46,-348.633 992.323,-338.256 987.523,-347.7 994.46,-348.633"/>
</g>
</g>
</svg>
