<?xml version="1.0" encoding="UTF-8" standalone="no"?>
<!DOCTYPE svg PUBLIC "-//W3C//DTD SVG 1.1//EN"
 "http://www.w3.org/Graphics/SVG/1.1/DTD/svg11.dtd">
<!-- Generated by graphviz version 2.38.0 (20140413.2041)
 -->
<!-- Title: Utility_Tuple.h Pages: 1 -->
<!--zoomable 497 -->
<svg id="main" version="1.1" xmlns="http://www.w3.org/2000/svg" xmlns:xlink="http://www.w3.org/1999/xlink" xml:space="preserve" onload="init(evt)">
<style type="text/css"><![CDATA[
.edge:hover path { stroke: red; }
.edge:hover polygon { stroke: red; fill: red; }
]]></style>
<script type="text/javascript"><![CDATA[
var edges = document.getElementsByTagName('g');
if (edges && edges.length) {
  for (var i=0;i<edges.length;i++) {
    if (edges[i].id.substr(0,4)=='edge') {
      edges[i].setAttribute('class','edge');
    }
  }
}
]]></script>
        <defs>
                <circle id="rim" cx="0" cy="0" r="7"/>
                <circle id="rim2" cx="0" cy="0" r="3.5"/>
                <g id="zoomPlus">
                        <use xlink:href="#rim" fill="#404040">
                                <set attributeName="fill" to="#808080" begin="zoomplus.mouseover" end="zoomplus.mouseout"/>
                        </use>
                        <path d="M-4,0h8M0,-4v8" fill="none" stroke="white" stroke-width="1.5" pointer-events="none"/>
                </g>
                <g id="zoomMin">
                        <use xlink:href="#rim" fill="#404040">
                                <set attributeName="fill" to="#808080" begin="zoomminus.mouseover" end="zoomminus.mouseout"/>
                        </use>
                        <path d="M-4,0h8" fill="none" stroke="white" stroke-width="1.5" pointer-events="none"/>
                </g>
                <g id="dirArrow">
                        <path fill="none" stroke="white" stroke-width="1.5" d="M0,-3.0v7 M-2.5,-0.5L0,-3.0L2.5,-0.5"/>
                </g>
               <g id="resetDef">
                       <use xlink:href="#rim2" fill="#404040">
                               <set attributeName="fill" to="#808080" begin="reset.mouseover" end="reset.mouseout"/>
                       </use>
               </g>
        </defs>

<script type="text/javascript">
var viewWidth = 1777;
var viewHeight = 497;
var sectionId = 'dynsection-0';
</script>
<script xlink:href="svgpan.js"/>
<svg id="graph" class="graph">
<g id="viewport">
<title>Utility_Tuple.h</title>
<!-- Node0 -->
<g id="node1" class="node"><title>Node0</title>
<polygon fill="#bfbfbf" stroke="black" points="378,-469.5 378,-488.5 458,-488.5 458,-469.5 378,-469.5"/>
<text text-anchor="middle" x="418" y="-476.5" font-family="Helvetica,sans-Serif" font-size="10.00">Utility_Tuple.h</text>
</g>
<!-- Node1 -->
<g id="node2" class="node"><title>Node1</title>
<g id="a_node2"><a xlink:href="a00053.html" target="_top" xlink:title="hydra/detail/Config.h">
<polygon fill="none" stroke="black" points="1040.5,-78.5 1040.5,-97.5 1147.5,-97.5 1147.5,-78.5 1040.5,-78.5"/>
<text text-anchor="middle" x="1094" y="-85.5" font-family="Helvetica,sans-Serif" font-size="10.00">hydra/detail/Config.h</text>
</a>
</g>
</g>
<!-- Node0&#45;&gt;Node1 -->
<g id="edge1" class="edge"><title>Node0&#45;&gt;Node1</title>
<path fill="none" stroke="midnightblue" d="M418,-469.307C418,-450.062 418,-402.404 418,-362.5 418,-362.5 418,-362.5 418,-221 418,-181.422 407.039,-159.861 437,-134 481.206,-95.8436 873.306,-89.929 1029.86,-89.0961"/>
<polygon fill="midnightblue" stroke="midnightblue" points="1030.29,-92.5942 1040.27,-89.0464 1030.25,-85.5943 1030.29,-92.5942"/>
</g>
<!-- Node4 -->
<g id="node5" class="node"><title>Node4</title>
<g id="a_node5"><a xlink:href="a00383.html" target="_top" xlink:title="Common and useful typedefs. ">
<polygon fill="none" stroke="black" points="321.5,-78.5 321.5,-97.5 400.5,-97.5 400.5,-78.5 321.5,-78.5"/>
<text text-anchor="middle" x="361" y="-85.5" font-family="Helvetica,sans-Serif" font-size="10.00">hydra/Types.h</text>
</a>
</g>
</g>
<!-- Node0&#45;&gt;Node4 -->
<g id="edge4" class="edge"><title>Node0&#45;&gt;Node4</title>
<path fill="none" stroke="midnightblue" d="M377.92,-475.174C302.019,-469.389 140.309,-454.871 89,-433 42.5792,-413.213 0,-412.962 0,-362.5 0,-362.5 0,-362.5 0,-221 0,-155.502 212.266,-112.837 311.264,-96.5011"/>
<polygon fill="midnightblue" stroke="midnightblue" points="312.024,-99.9235 321.334,-94.8658 310.902,-93.014 312.024,-99.9235"/>
</g>
<!-- Node5 -->
<g id="node6" class="node"><title>Node5</title>
<g id="a_node6"><a xlink:href="a00254.html" target="_top" xlink:title="hydra/detail/utility\l/Generic.h">
<polygon fill="none" stroke="black" points="66.5,-346.5 66.5,-376.5 159.5,-376.5 159.5,-346.5 66.5,-346.5"/>
<text text-anchor="start" x="74.5" y="-364.5" font-family="Helvetica,sans-Serif" font-size="10.00">hydra/detail/utility</text>
<text text-anchor="middle" x="113" y="-353.5" font-family="Helvetica,sans-Serif" font-size="10.00">/Generic.h</text>
</a>
</g>
</g>
<!-- Node0&#45;&gt;Node5 -->
<g id="edge5" class="edge"><title>Node0&#45;&gt;Node5</title>
<path fill="none" stroke="midnightblue" d="M377.639,-478.543C326.854,-477.515 238.485,-469.917 174,-433 154.156,-421.64 137.637,-401.348 126.817,-385.442"/>
<polygon fill="midnightblue" stroke="midnightblue" points="129.508,-383.16 121.122,-376.684 123.639,-386.976 129.508,-383.16"/>
</g>
<!-- Node6 -->
<g id="node7" class="node"><title>Node6</title>
<polygon fill="none" stroke="#bfbfbf" points="176,-279.5 176,-298.5 238,-298.5 238,-279.5 176,-279.5"/>
<text text-anchor="middle" x="207" y="-286.5" font-family="Helvetica,sans-Serif" font-size="10.00">type_traits</text>
</g>
<!-- Node0&#45;&gt;Node6 -->
<g id="edge58" class="edge"><title>Node0&#45;&gt;Node6</title>
<path fill="none" stroke="midnightblue" d="M377.653,-471.78C327.644,-461.672 244.45,-436.446 207,-377 194.011,-356.382 197.394,-327.197 201.672,-308.433"/>
<polygon fill="midnightblue" stroke="midnightblue" points="205.065,-309.29 204.177,-298.732 198.288,-307.539 205.065,-309.29"/>
</g>
<!-- Node7 -->
<g id="node8" class="node"><title>Node7</title>
<polygon fill="none" stroke="#bfbfbf" points="94,-212.5 94,-231.5 132,-231.5 132,-212.5 94,-212.5"/>
<text text-anchor="middle" x="113" y="-219.5" font-family="Helvetica,sans-Serif" font-size="10.00">array</text>
</g>
<!-- Node0&#45;&gt;Node7 -->
<g id="edge59" class="edge"><title>Node0&#45;&gt;Node7</title>
<path fill="none" stroke="midnightblue" d="M377.695,-476.21C323.618,-472.721 225.318,-462.531 147,-433 102.918,-416.379 79.8792,-418.183 57,-377 30.8445,-329.92 73.9974,-268.255 98.2548,-239.322"/>
<polygon fill="midnightblue" stroke="midnightblue" points="100.905,-241.609 104.801,-231.756 95.6111,-237.028 100.905,-241.609"/>
</g>
<!-- Node8 -->
<g id="node9" class="node"><title>Node8</title>
<g id="a_node9"><a xlink:href="a00248.html" target="_top" xlink:title="hydra/detail/TypeTraits.h">
<polygon fill="none" stroke="black" points="706.5,-352 706.5,-371 831.5,-371 831.5,-352 706.5,-352"/>
<text text-anchor="middle" x="769" y="-359" font-family="Helvetica,sans-Serif" font-size="10.00">hydra/detail/TypeTraits.h</text>
</a>
</g>
</g>
<!-- Node0&#45;&gt;Node8 -->
<g id="edge8" class="edge"><title>Node0&#45;&gt;Node8</title>
<path fill="none" stroke="midnightblue" d="M448.715,-469.42C479.522,-460.695 528.252,-446.564 570,-433 629.164,-413.777 697.35,-389.054 736.588,-374.574"/>
<polygon fill="midnightblue" stroke="midnightblue" points="737.988,-377.789 746.152,-371.036 735.559,-371.223 737.988,-377.789"/>
</g>
<!-- Node16 -->
<g id="node17" class="node"><title>Node16</title>
<polygon fill="none" stroke="#bfbfbf" points="1497,-6 1497,-36 1601,-36 1601,-6 1497,-6"/>
<text text-anchor="start" x="1505" y="-24" font-family="Helvetica,sans-Serif" font-size="10.00">hydra/detail/external</text>
<text text-anchor="middle" x="1549" y="-13" font-family="Helvetica,sans-Serif" font-size="10.00">/thrust/tuple.h</text>
</g>
<!-- Node0&#45;&gt;Node16 -->
<g id="edge55" class="edge"><title>Node0&#45;&gt;Node16</title>
<path fill="none" stroke="midnightblue" d="M458.079,-476.339C668.189,-467.375 1633,-422.921 1633,-362.5 1633,-362.5 1633,-362.5 1633,-154 1633,-119.183 1632.27,-107.641 1614,-78 1605.36,-63.9881 1592.07,-51.6388 1579.75,-42.1275"/>
<polygon fill="midnightblue" stroke="midnightblue" points="1581.58,-39.1236 1571.45,-36.0106 1577.43,-44.7595 1581.58,-39.1236"/>
</g>
<!-- Node17 -->
<g id="node18" class="node"><title>Node17</title>
<polygon fill="none" stroke="#bfbfbf" points="1619.5,-0.5 1619.5,-41.5 1768.5,-41.5 1768.5,-0.5 1619.5,-0.5"/>
<text text-anchor="start" x="1627.5" y="-29.5" font-family="Helvetica,sans-Serif" font-size="10.00">hydra/detail/external</text>
<text text-anchor="start" x="1627.5" y="-18.5" font-family="Helvetica,sans-Serif" font-size="10.00">/thrust/iterator/detail</text>
<text text-anchor="middle" x="1694" y="-7.5" font-family="Helvetica,sans-Serif" font-size="10.00">/tuple_of_iterator_references.h</text>
</g>
<!-- Node0&#45;&gt;Node17 -->
<g id="edge57" class="edge"><title>Node0&#45;&gt;Node17</title>
<path fill="none" stroke="midnightblue" d="M458.416,-477.715C585.211,-476.45 986.318,-469.615 1316,-433 1482.38,-414.521 1686,-529.903 1686,-362.5 1686,-362.5 1686,-362.5 1686,-154 1686,-118.889 1688.85,-78.6214 1691.15,-51.8877"/>
<polygon fill="midnightblue" stroke="midnightblue" points="1694.66,-51.9282 1692.06,-41.6575 1687.69,-51.3082 1694.66,-51.9282"/>
</g>
<!-- Node26 -->
<g id="node27" class="node"><title>Node26</title>
<polygon fill="none" stroke="#bfbfbf" points="1198,-274 1198,-304 1326,-304 1326,-274 1198,-274"/>
<text text-anchor="start" x="1206" y="-292" font-family="Helvetica,sans-Serif" font-size="10.00">hydra/detail/external</text>
<text text-anchor="middle" x="1262" y="-281" font-family="Helvetica,sans-Serif" font-size="10.00">/thrust/detail/type_traits.h</text>
</g>
<!-- Node0&#45;&gt;Node26 -->
<g id="edge56" class="edge"><title>Node0&#45;&gt;Node26</title>
<path fill="none" stroke="midnightblue" d="M458.394,-469.663C572.601,-445.978 907.503,-375.748 1184,-310 1188.68,-308.886 1193.52,-307.71 1198.38,-306.509"/>
<polygon fill="midnightblue" stroke="midnightblue" points="1199.5,-309.837 1208.35,-304.019 1197.8,-303.045 1199.5,-309.837"/>
</g>
<!-- Node30 -->
<g id="node31" class="node"><title>Node30</title>
<g id="a_node31"><a xlink:href="a00158.html" target="_top" xlink:title="hydra/detail/FunctorTraits.h">
<polygon fill="none" stroke="black" points="216,-352 216,-371 352,-371 352,-352 216,-352"/>
<text text-anchor="middle" x="284" y="-359" font-family="Helvetica,sans-Serif" font-size="10.00">hydra/detail/FunctorTraits.h</text>
</a>
</g>
</g>
<!-- Node0&#45;&gt;Node30 -->
<g id="edge46" class="edge"><title>Node0&#45;&gt;Node30</title>
<path fill="none" stroke="midnightblue" d="M407.928,-469.319C385.326,-449.837 330.32,-402.425 301.803,-377.845"/>
<polygon fill="midnightblue" stroke="midnightblue" points="304.048,-375.16 294.189,-371.282 299.478,-380.462 304.048,-375.16"/>
</g>
<!-- Node31 -->
<g id="node32" class="node"><title>Node31</title>
<g id="a_node32"><a xlink:href="a00341.html" target="_top" xlink:title="hydra/Parameter.h">
<polygon fill="none" stroke="black" points="464.5,-413.5 464.5,-432.5 561.5,-432.5 561.5,-413.5 464.5,-413.5"/>
<text text-anchor="middle" x="513" y="-420.5" font-family="Helvetica,sans-Serif" font-size="10.00">hydra/Parameter.h</text>
</a>
</g>
</g>
<!-- Node0&#45;&gt;Node31 -->
<g id="edge49" class="edge"><title>Node0&#45;&gt;Node31</title>
<path fill="none" stroke="midnightblue" d="M433.263,-469.324C448.221,-460.822 471.255,-447.729 488.727,-437.797"/>
<polygon fill="midnightblue" stroke="midnightblue" points="490.81,-440.639 497.774,-432.655 487.351,-434.553 490.81,-440.639"/>
</g>
<!-- Node2 -->
<g id="node3" class="node"><title>Node2</title>
<polygon fill="none" stroke="#bfbfbf" points="978,-6 978,-36 1086,-36 1086,-6 978,-6"/>
<text text-anchor="start" x="986" y="-24" font-family="Helvetica,sans-Serif" font-size="10.00">hydra/detail/external</text>
<text text-anchor="middle" x="1032" y="-13" font-family="Helvetica,sans-Serif" font-size="10.00">/thrust/detail/config.h</text>
</g>
<!-- Node1&#45;&gt;Node2 -->
<g id="edge2" class="edge"><title>Node1&#45;&gt;Node2</title>
<path fill="none" stroke="midnightblue" d="M1085.64,-78.2338C1077.18,-69.3649 1063.77,-55.3111 1052.48,-43.4722"/>
<polygon fill="midnightblue" stroke="midnightblue" points="1054.87,-40.9094 1045.44,-36.089 1049.81,-45.7409 1054.87,-40.9094"/>
</g>
<!-- Node3 -->
<g id="node4" class="node"><title>Node3</title>
<polygon fill="none" stroke="#bfbfbf" points="1104,-0.5 1104,-41.5 1208,-41.5 1208,-0.5 1104,-0.5"/>
<text text-anchor="start" x="1112" y="-29.5" font-family="Helvetica,sans-Serif" font-size="10.00">hydra/detail/external</text>
<text text-anchor="start" x="1112" y="-18.5" font-family="Helvetica,sans-Serif" font-size="10.00">/thrust/detail/config</text>
<text text-anchor="middle" x="1156" y="-7.5" font-family="Helvetica,sans-Serif" font-size="10.00">/host_device.h</text>
</g>
<!-- Node1&#45;&gt;Node3 -->
<g id="edge3" class="edge"><title>Node1&#45;&gt;Node3</title>
<path fill="none" stroke="midnightblue" d="M1102.36,-78.2338C1109.54,-70.705 1120.29,-59.4398 1130.28,-48.9649"/>
<polygon fill="midnightblue" stroke="midnightblue" points="1132.99,-51.1939 1137.36,-41.5421 1127.93,-46.3624 1132.99,-51.1939"/>
</g>
<!-- Node5&#45;&gt;Node6 -->
<g id="edge6" class="edge"><title>Node5&#45;&gt;Node6</title>
<path fill="none" stroke="midnightblue" d="M132.022,-346.233C148.046,-334.216 170.891,-317.082 187.145,-304.891"/>
<polygon fill="midnightblue" stroke="midnightblue" points="189.512,-307.491 195.412,-298.691 185.312,-301.891 189.512,-307.491"/>
</g>
<!-- Node5&#45;&gt;Node7 -->
<g id="edge7" class="edge"><title>Node5&#45;&gt;Node7</title>
<path fill="none" stroke="midnightblue" d="M113,-346.303C113,-321.336 113,-269.58 113,-241.722"/>
<polygon fill="midnightblue" stroke="midnightblue" points="116.5,-241.701 113,-231.701 109.5,-241.701 116.5,-241.701"/>
</g>
<!-- Node8&#45;&gt;Node1 -->
<g id="edge9" class="edge"><title>Node8&#45;&gt;Node1</title>
<path fill="none" stroke="midnightblue" d="M831.717,-353.251C938.527,-340.759 1144.79,-315.944 1150,-310 1202.87,-249.665 1136.93,-146.347 1107.16,-105.92"/>
<polygon fill="midnightblue" stroke="midnightblue" points="1109.91,-103.752 1101.09,-97.8729 1104.32,-107.965 1109.91,-103.752"/>
</g>
<!-- Node8&#45;&gt;Node6 -->
<g id="edge40" class="edge"><title>Node8&#45;&gt;Node6</title>
<path fill="none" stroke="midnightblue" d="M706.438,-352.652C590.635,-338.125 345.805,-307.412 248.318,-295.183"/>
<polygon fill="midnightblue" stroke="midnightblue" points="248.62,-291.694 238.262,-293.922 247.748,-298.639 248.62,-291.694"/>
</g>
<!-- Node9 -->
<g id="node10" class="node"><title>Node9</title>
<g id="a_node10"><a xlink:href="a00017.html" target="_top" xlink:title="Typedefs for useful container classes used in MCBooster. ">
<polygon fill="none" stroke="black" points="1042.5,-279.5 1042.5,-298.5 1141.5,-298.5 1141.5,-279.5 1042.5,-279.5"/>
<text text-anchor="middle" x="1092" y="-286.5" font-family="Helvetica,sans-Serif" font-size="10.00">hydra/Containers.h</text>
</a>
</g>
</g>
<!-- Node8&#45;&gt;Node9 -->
<g id="edge10" class="edge"><title>Node8&#45;&gt;Node9</title>
<path fill="none" stroke="midnightblue" d="M825.64,-351.986C879.446,-343.353 962.386,-328.627 1033,-310 1041.72,-307.7 1051.02,-304.777 1059.59,-301.88"/>
<polygon fill="midnightblue" stroke="midnightblue" points="1060.95,-305.115 1069.25,-298.531 1058.65,-298.501 1060.95,-305.115"/>
</g>
<!-- Node21 -->
<g id="node22" class="node"><title>Node21</title>
<polygon fill="none" stroke="#bfbfbf" points="446,-140 446,-170 550,-170 550,-140 446,-140"/>
<text text-anchor="start" x="454" y="-158" font-family="Helvetica,sans-Serif" font-size="10.00">hydra/detail/external</text>
<text text-anchor="middle" x="498" y="-147" font-family="Helvetica,sans-Serif" font-size="10.00">/thrust/complex.h</text>
</g>
<!-- Node8&#45;&gt;Node21 -->
<g id="edge41" class="edge"><title>Node8&#45;&gt;Node21</title>
<path fill="none" stroke="midnightblue" d="M728.377,-351.982C698.678,-344.383 658.438,-331.129 628,-310 575.981,-273.889 532.539,-211.867 511.546,-178.619"/>
<polygon fill="midnightblue" stroke="midnightblue" points="514.477,-176.703 506.232,-170.049 508.528,-180.392 514.477,-176.703"/>
</g>
<!-- Node8&#45;&gt;Node26 -->
<g id="edge42" class="edge"><title>Node8&#45;&gt;Node26</title>
<path fill="none" stroke="midnightblue" d="M831.611,-355.435C913.195,-348.252 1060.07,-333.327 1184,-310 1189.63,-308.94 1195.46,-307.706 1201.28,-306.382"/>
<polygon fill="midnightblue" stroke="midnightblue" points="1202.1,-309.786 1211.03,-304.082 1200.49,-302.973 1202.1,-309.786"/>
</g>
<!-- Node27 -->
<g id="node28" class="node"><title>Node27</title>
<polygon fill="none" stroke="#bfbfbf" points="637,-274 637,-304 765,-304 765,-274 637,-274"/>
<text text-anchor="start" x="645" y="-292" font-family="Helvetica,sans-Serif" font-size="10.00">hydra/detail/external</text>
<text text-anchor="middle" x="701" y="-281" font-family="Helvetica,sans-Serif" font-size="10.00">/thrust/execution_policy.h</text>
</g>
<!-- Node8&#45;&gt;Node27 -->
<g id="edge43" class="edge"><title>Node8&#45;&gt;Node27</title>
<path fill="none" stroke="midnightblue" d="M760.662,-351.855C751.056,-341.897 734.918,-325.165 721.846,-311.613"/>
<polygon fill="midnightblue" stroke="midnightblue" points="724.038,-308.844 714.577,-304.076 719,-313.704 724.038,-308.844"/>
</g>
<!-- Node28 -->
<g id="node29" class="node"><title>Node28</title>
<polygon fill="none" stroke="#bfbfbf" points="783,-268.5 783,-309.5 893,-309.5 893,-268.5 783,-268.5"/>
<text text-anchor="start" x="791" y="-297.5" font-family="Helvetica,sans-Serif" font-size="10.00">hydra/detail/external</text>
<text text-anchor="start" x="791" y="-286.5" font-family="Helvetica,sans-Serif" font-size="10.00">/thrust/iterator/iterator</text>
<text text-anchor="middle" x="838" y="-275.5" font-family="Helvetica,sans-Serif" font-size="10.00">_categories.h</text>
</g>
<!-- Node8&#45;&gt;Node28 -->
<g id="edge44" class="edge"><title>Node8&#45;&gt;Node28</title>
<path fill="none" stroke="midnightblue" d="M777.461,-351.855C785.924,-343.208 799.386,-329.453 811.469,-317.108"/>
<polygon fill="midnightblue" stroke="midnightblue" points="814.263,-319.256 818.757,-309.662 809.261,-314.36 814.263,-319.256"/>
</g>
<!-- Node29 -->
<g id="node30" class="node"><title>Node29</title>
<polygon fill="none" stroke="#bfbfbf" points="911.5,-268.5 911.5,-309.5 1024.5,-309.5 1024.5,-268.5 911.5,-268.5"/>
<text text-anchor="start" x="919.5" y="-297.5" font-family="Helvetica,sans-Serif" font-size="10.00">hydra/detail/external</text>
<text text-anchor="start" x="919.5" y="-286.5" font-family="Helvetica,sans-Serif" font-size="10.00">/thrust/iterator/detail</text>
<text text-anchor="middle" x="968" y="-275.5" font-family="Helvetica,sans-Serif" font-size="10.00">/is_iterator_category.h</text>
</g>
<!-- Node8&#45;&gt;Node29 -->
<g id="edge45" class="edge"><title>Node8&#45;&gt;Node29</title>
<path fill="none" stroke="midnightblue" d="M793.004,-351.996C820.049,-342.415 865.147,-326.438 902.786,-313.103"/>
<polygon fill="midnightblue" stroke="midnightblue" points="904.423,-316.237 912.68,-309.598 902.085,-309.639 904.423,-316.237"/>
</g>
<!-- Node9&#45;&gt;Node1 -->
<g id="edge13" class="edge"><title>Node9&#45;&gt;Node1</title>
<path fill="none" stroke="midnightblue" d="M1094.45,-279.28C1100.74,-255.747 1116.36,-189.01 1108,-134 1106.63,-125.001 1103.81,-115.325 1101.05,-107.26"/>
<polygon fill="midnightblue" stroke="midnightblue" points="1104.31,-105.976 1097.6,-97.7782 1097.73,-108.372 1104.31,-105.976"/>
</g>
<!-- Node9&#45;&gt;Node4 -->
<g id="edge14" class="edge"><title>Node9&#45;&gt;Node4</title>
<path fill="none" stroke="midnightblue" d="M1070.76,-279.467C1059.68,-275.359 1045.8,-270.741 1033,-268 770.919,-211.861 665.28,-316.451 437,-176 408.228,-158.298 384.417,-126.227 371.494,-106.359"/>
<polygon fill="midnightblue" stroke="midnightblue" points="374.336,-104.305 366.05,-97.7024 368.41,-108.031 374.336,-104.305"/>
</g>
<!-- Node9&#45;&gt;Node7 -->
<g id="edge12" class="edge"><title>Node9&#45;&gt;Node7</title>
<path fill="none" stroke="midnightblue" d="M1071.35,-279.426C1060.2,-275.198 1046.07,-270.484 1033,-268 856.143,-234.381 278.736,-225.089 142.151,-223.338"/>
<polygon fill="midnightblue" stroke="midnightblue" points="142.084,-219.837 132.041,-223.212 141.997,-226.837 142.084,-219.837"/>
</g>
<!-- Node10 -->
<g id="node11" class="node"><title>Node10</title>
<polygon fill="none" stroke="#bfbfbf" points="1022,-212.5 1022,-231.5 1066,-231.5 1066,-212.5 1022,-212.5"/>
<text text-anchor="middle" x="1044" y="-219.5" font-family="Helvetica,sans-Serif" font-size="10.00">vector</text>
</g>
<!-- Node9&#45;&gt;Node10 -->
<g id="edge11" class="edge"><title>Node9&#45;&gt;Node10</title>
<path fill="none" stroke="midnightblue" d="M1085.53,-279.234C1078.11,-269.195 1065.8,-252.514 1056.5,-239.921"/>
<polygon fill="midnightblue" stroke="midnightblue" points="1059.13,-237.592 1050.37,-231.627 1053.5,-241.751 1059.13,-237.592"/>
</g>
<!-- Node11 -->
<g id="node12" class="node"><title>Node11</title>
<g id="a_node12"><a xlink:href="a00392.html" target="_top" xlink:title="hydra/Vector3R.h">
<polygon fill="none" stroke="black" points="1236.5,-145.5 1236.5,-164.5 1329.5,-164.5 1329.5,-145.5 1236.5,-145.5"/>
<text text-anchor="middle" x="1283" y="-152.5" font-family="Helvetica,sans-Serif" font-size="10.00">hydra/Vector3R.h</text>
</a>
</g>
</g>
<!-- Node9&#45;&gt;Node11 -->
<g id="edge15" class="edge"><title>Node9&#45;&gt;Node11</title>
<path fill="none" stroke="midnightblue" d="M1104.53,-279.339C1136.72,-257.097 1222.53,-197.792 1262.27,-170.327"/>
<polygon fill="midnightblue" stroke="midnightblue" points="1264.43,-173.086 1270.67,-164.521 1260.45,-167.327 1264.43,-173.086"/>
</g>
<!-- Node19 -->
<g id="node20" class="node"><title>Node19</title>
<g id="a_node20"><a xlink:href="a00395.html" target="_top" xlink:title="hydra/Vector4R.h">
<polygon fill="none" stroke="black" points="1299.5,-212.5 1299.5,-231.5 1392.5,-231.5 1392.5,-212.5 1299.5,-212.5"/>
<text text-anchor="middle" x="1346" y="-219.5" font-family="Helvetica,sans-Serif" font-size="10.00">hydra/Vector4R.h</text>
</a>
</g>
</g>
<!-- Node9&#45;&gt;Node19 -->
<g id="edge25" class="edge"><title>Node9&#45;&gt;Node19</title>
<path fill="none" stroke="midnightblue" d="M1125.47,-279.436C1170.96,-267.793 1252.4,-246.954 1302.56,-234.117"/>
<polygon fill="midnightblue" stroke="midnightblue" points="1303.64,-237.453 1312.46,-231.583 1301.9,-230.672 1303.64,-237.453"/>
</g>
<!-- Node9&#45;&gt;Node21 -->
<g id="edge33" class="edge"><title>Node9&#45;&gt;Node21</title>
<path fill="none" stroke="midnightblue" d="M1070.45,-279.493C1059.41,-275.443 1045.66,-270.869 1033,-268 901.603,-238.212 863.599,-260.882 732,-232 653.062,-214.675 635.842,-201.034 559,-176 556.126,-175.064 553.176,-174.101 550.198,-173.128"/>
<polygon fill="midnightblue" stroke="midnightblue" points="551.247,-169.789 540.654,-170.008 549.071,-176.442 551.247,-169.789"/>
</g>
<!-- Node22 -->
<g id="node23" class="node"><title>Node22</title>
<g id="a_node23"><a xlink:href="a00059.html" target="_top" xlink:title="hydra/detail/Containers.inl">
<polygon fill="none" stroke="black" points="741,-212.5 741,-231.5 871,-231.5 871,-212.5 741,-212.5"/>
<text text-anchor="middle" x="806" y="-219.5" font-family="Helvetica,sans-Serif" font-size="10.00">hydra/detail/Containers.inl</text>
</a>
</g>
</g>
<!-- Node9&#45;&gt;Node22 -->
<g id="edge34" class="edge"><title>Node9&#45;&gt;Node22</title>
<path fill="none" stroke="midnightblue" d="M1068.96,-279.406C1058.14,-275.575 1045.02,-271.213 1033,-268 978.333,-253.383 915.106,-241.229 869.286,-233.251"/>
<polygon fill="midnightblue" stroke="midnightblue" points="869.649,-229.763 859.2,-231.514 868.46,-236.661 869.649,-229.763"/>
</g>
<!-- Node11&#45;&gt;Node1 -->
<g id="edge16" class="edge"><title>Node11&#45;&gt;Node1</title>
<path fill="none" stroke="midnightblue" d="M1257.9,-145.369C1224.63,-133.924 1165.76,-113.681 1128.38,-100.822"/>
<polygon fill="midnightblue" stroke="midnightblue" points="1129.5,-97.5062 1118.9,-97.5637 1127.22,-104.126 1129.5,-97.5062"/>
</g>
<!-- Node11&#45;&gt;Node4 -->
<g id="edge17" class="edge"><title>Node11&#45;&gt;Node4</title>
<path fill="none" stroke="midnightblue" d="M1236.5,-149.225C1193.37,-144.894 1127.39,-138.515 1070,-134 822.884,-114.561 526.798,-97.909 410.934,-91.6489"/>
<polygon fill="midnightblue" stroke="midnightblue" points="410.791,-88.1362 400.617,-91.0932 410.414,-95.126 410.791,-88.1362"/>
</g>
<!-- Node12 -->
<g id="node13" class="node"><title>Node12</title>
<polygon fill="none" stroke="#bfbfbf" points="1308.5,-78.5 1308.5,-97.5 1353.5,-97.5 1353.5,-78.5 1308.5,-78.5"/>
<text text-anchor="middle" x="1331" y="-85.5" font-family="Helvetica,sans-Serif" font-size="10.00">iosfwd</text>
</g>
<!-- Node11&#45;&gt;Node12 -->
<g id="edge18" class="edge"><title>Node11&#45;&gt;Node12</title>
<path fill="none" stroke="midnightblue" d="M1289.47,-145.234C1296.89,-135.195 1309.2,-118.514 1318.5,-105.921"/>
<polygon fill="midnightblue" stroke="midnightblue" points="1321.5,-107.751 1324.63,-97.6273 1315.87,-103.592 1321.5,-107.751"/>
</g>
<!-- Node13 -->
<g id="node14" class="node"><title>Node13</title>
<polygon fill="none" stroke="#bfbfbf" points="1372,-78.5 1372,-97.5 1426,-97.5 1426,-78.5 1372,-78.5"/>
<text text-anchor="middle" x="1399" y="-85.5" font-family="Helvetica,sans-Serif" font-size="10.00">iostream</text>
</g>
<!-- Node11&#45;&gt;Node13 -->
<g id="edge19" class="edge"><title>Node11&#45;&gt;Node13</title>
<path fill="none" stroke="midnightblue" d="M1298.64,-145.234C1318.21,-134.269 1351.92,-115.381 1374.82,-102.549"/>
<polygon fill="midnightblue" stroke="midnightblue" points="1376.59,-105.569 1383.6,-97.6273 1373.17,-99.4623 1376.59,-105.569"/>
</g>
<!-- Node14 -->
<g id="node15" class="node"><title>Node14</title>
<polygon fill="none" stroke="#bfbfbf" points="1444.5,-78.5 1444.5,-97.5 1491.5,-97.5 1491.5,-78.5 1444.5,-78.5"/>
<text text-anchor="middle" x="1468" y="-85.5" font-family="Helvetica,sans-Serif" font-size="10.00">math.h</text>
</g>
<!-- Node11&#45;&gt;Node14 -->
<g id="edge20" class="edge"><title>Node11&#45;&gt;Node14</title>
<path fill="none" stroke="midnightblue" d="M1306.69,-145.495C1316.66,-141.927 1328.39,-137.746 1339,-134 1371.38,-122.569 1408.4,-109.675 1434.45,-100.628"/>
<polygon fill="midnightblue" stroke="midnightblue" points="1435.91,-103.827 1444.21,-97.2414 1433.61,-97.2139 1435.91,-103.827"/>
</g>
<!-- Node15 -->
<g id="node16" class="node"><title>Node15</title>
<g id="a_node16"><a xlink:href="a00011.html" target="_top" xlink:title="hydra/Collection.h">
<polygon fill="none" stroke="black" points="1509.5,-78.5 1509.5,-97.5 1604.5,-97.5 1604.5,-78.5 1509.5,-78.5"/>
<text text-anchor="middle" x="1557" y="-85.5" font-family="Helvetica,sans-Serif" font-size="10.00">hydra/Collection.h</text>
</a>
</g>
</g>
<!-- Node11&#45;&gt;Node15 -->
<g id="edge21" class="edge"><title>Node11&#45;&gt;Node15</title>
<path fill="none" stroke="midnightblue" d="M1304.58,-145.498C1314.89,-141.642 1327.47,-137.232 1339,-134 1392.68,-118.953 1455.09,-106.574 1499.34,-98.6351"/>
<polygon fill="midnightblue" stroke="midnightblue" points="1500.1,-102.054 1509.34,-96.8615 1498.88,-95.1621 1500.1,-102.054"/>
</g>
<!-- Node18 -->
<g id="node19" class="node"><title>Node18</title>
<g id="a_node19"><a xlink:href="a00269.html" target="_top" xlink:title="hydra/detail/Vector3R.inl">
<polygon fill="none" stroke="black" points="1166,-78.5 1166,-97.5 1290,-97.5 1290,-78.5 1166,-78.5"/>
<text text-anchor="middle" x="1228" y="-85.5" font-family="Helvetica,sans-Serif" font-size="10.00">hydra/detail/Vector3R.inl</text>
</a>
</g>
</g>
<!-- Node11&#45;&gt;Node18 -->
<g id="edge24" class="edge"><title>Node11&#45;&gt;Node18</title>
<path fill="none" stroke="midnightblue" d="M1275.58,-145.234C1267.01,-135.098 1252.7,-118.19 1242.01,-105.556"/>
<polygon fill="midnightblue" stroke="midnightblue" points="1244.43,-103 1235.3,-97.6273 1239.09,-107.522 1244.43,-103"/>
</g>
<!-- Node15&#45;&gt;Node16 -->
<g id="edge22" class="edge"><title>Node15&#45;&gt;Node16</title>
<path fill="none" stroke="midnightblue" d="M1555.92,-78.2338C1554.91,-70.0406 1553.36,-57.4225 1551.98,-46.2136"/>
<polygon fill="midnightblue" stroke="midnightblue" points="1555.43,-45.5866 1550.73,-36.089 1548.48,-46.4417 1555.43,-45.5866"/>
</g>
<!-- Node15&#45;&gt;Node17 -->
<g id="edge23" class="edge"><title>Node15&#45;&gt;Node17</title>
<path fill="none" stroke="midnightblue" d="M1575.19,-78.3685C1592.54,-70.1371 1619.49,-57.3529 1643.33,-46.0391"/>
<polygon fill="midnightblue" stroke="midnightblue" points="1645.1,-49.0742 1652.64,-41.6254 1642.1,-42.7499 1645.1,-49.0742"/>
</g>
<!-- Node19&#45;&gt;Node1 -->
<g id="edge28" class="edge"><title>Node19&#45;&gt;Node1</title>
<path fill="none" stroke="midnightblue" d="M1313.59,-212.453C1288.93,-205.073 1254.79,-192.916 1228,-176 1205.14,-161.566 1206.11,-149.551 1184,-134 1165.55,-121.027 1142.82,-109.695 1124.82,-101.648"/>
<polygon fill="midnightblue" stroke="midnightblue" points="1125.93,-98.3129 1115.37,-97.5253 1123.13,-104.73 1125.93,-98.3129"/>
</g>
<!-- Node19&#45;&gt;Node4 -->
<g id="edge29" class="edge"><title>Node19&#45;&gt;Node4</title>
<path fill="none" stroke="midnightblue" d="M1315.01,-212.486C1242.08,-192.573 1061.1,-143.897 999,-134 781.982,-99.4148 519.203,-91.4095 411.121,-89.5572"/>
<polygon fill="midnightblue" stroke="midnightblue" points="410.901,-86.0533 400.846,-89.3919 410.788,-93.0524 410.901,-86.0533"/>
</g>
<!-- Node19&#45;&gt;Node11 -->
<g id="edge30" class="edge"><title>Node19&#45;&gt;Node11</title>
<path fill="none" stroke="midnightblue" d="M1337.5,-212.234C1327.49,-201.903 1310.66,-184.537 1298.34,-171.832"/>
<polygon fill="midnightblue" stroke="midnightblue" points="1300.83,-169.372 1291.36,-164.627 1295.81,-174.244 1300.83,-169.372"/>
</g>
<!-- Node19&#45;&gt;Node13 -->
<g id="edge27" class="edge"><title>Node19&#45;&gt;Node13</title>
<path fill="none" stroke="midnightblue" d="M1392.57,-218.805C1423.12,-214.653 1460.99,-203.758 1481,-176 1491.91,-160.857 1490.51,-150.064 1481,-134 1471.18,-117.412 1452.84,-106.532 1435.99,-99.6331"/>
<polygon fill="midnightblue" stroke="midnightblue" points="1436.91,-96.2401 1426.31,-96.0181 1434.45,-102.797 1436.91,-96.2401"/>
</g>
<!-- Node19&#45;&gt;Node14 -->
<g id="edge26" class="edge"><title>Node19&#45;&gt;Node14</title>
<path fill="none" stroke="midnightblue" d="M1392.76,-221.046C1427.9,-218.303 1473.96,-208.193 1498,-176 1513.93,-154.672 1496.42,-124.254 1482.24,-105.613"/>
<polygon fill="midnightblue" stroke="midnightblue" points="1484.9,-103.329 1475.91,-97.7247 1479.44,-107.713 1484.9,-103.329"/>
</g>
<!-- Node19&#45;&gt;Node15 -->
<g id="edge31" class="edge"><title>Node19&#45;&gt;Node15</title>
<path fill="none" stroke="midnightblue" d="M1392.74,-218.976C1429.63,-215.122 1480.48,-204.529 1515,-176 1536.28,-158.413 1547.56,-127.472 1552.9,-107.622"/>
<polygon fill="midnightblue" stroke="midnightblue" points="1556.36,-108.191 1555.34,-97.646 1549.56,-106.531 1556.36,-108.191"/>
</g>
<!-- Node20 -->
<g id="node21" class="node"><title>Node20</title>
<g id="a_node21"><a xlink:href="a00272.html" target="_top" xlink:title="hydra/detail/Vector4R.inl">
<polygon fill="none" stroke="black" points="1348,-145.5 1348,-164.5 1472,-164.5 1472,-145.5 1348,-145.5"/>
<text text-anchor="middle" x="1410" y="-152.5" font-family="Helvetica,sans-Serif" font-size="10.00">hydra/detail/Vector4R.inl</text>
</a>
</g>
</g>
<!-- Node19&#45;&gt;Node20 -->
<g id="edge32" class="edge"><title>Node19&#45;&gt;Node20</title>
<path fill="none" stroke="midnightblue" d="M1354.63,-212.234C1364.8,-201.903 1381.9,-184.537 1394.41,-171.832"/>
<polygon fill="midnightblue" stroke="midnightblue" points="1396.98,-174.209 1401.51,-164.627 1392,-169.297 1396.98,-174.209"/>
</g>
<!-- Node22&#45;&gt;Node1 -->
<g id="edge35" class="edge"><title>Node22&#45;&gt;Node1</title>
<path fill="none" stroke="midnightblue" d="M871.039,-214.259C909.907,-208.228 959.284,-196.943 999,-176 1032.78,-158.19 1063.75,-125.438 1080.64,-105.597"/>
<polygon fill="midnightblue" stroke="midnightblue" points="1083.48,-107.657 1087.18,-97.7276 1078.1,-103.184 1083.48,-107.657"/>
</g>
<!-- Node22&#45;&gt;Node21 -->
<g id="edge38" class="edge"><title>Node22&#45;&gt;Node21</title>
<path fill="none" stroke="midnightblue" d="M746.37,-212.476C696.035,-204.725 622.267,-192.055 559,-176 555.385,-175.083 551.672,-174.063 547.949,-172.984"/>
<polygon fill="midnightblue" stroke="midnightblue" points="548.716,-169.56 538.131,-170.018 546.691,-176.26 548.716,-169.56"/>
</g>
<!-- Node23 -->
<g id="node24" class="node"><title>Node23</title>
<polygon fill="none" stroke="#bfbfbf" points="874,-140 874,-170 990,-170 990,-140 874,-140"/>
<text text-anchor="start" x="882" y="-158" font-family="Helvetica,sans-Serif" font-size="10.00">hydra/detail/external</text>
<text text-anchor="middle" x="932" y="-147" font-family="Helvetica,sans-Serif" font-size="10.00">/thrust/device_vector.h</text>
</g>
<!-- Node22&#45;&gt;Node23 -->
<g id="edge36" class="edge"><title>Node22&#45;&gt;Node23</title>
<path fill="none" stroke="midnightblue" d="M822.732,-212.369C841.17,-202.857 871.393,-187.265 895.385,-174.889"/>
<polygon fill="midnightblue" stroke="midnightblue" points="897.285,-177.847 904.568,-170.152 894.076,-171.626 897.285,-177.847"/>
</g>
<!-- Node24 -->
<g id="node25" class="node"><title>Node24</title>
<polygon fill="none" stroke="#bfbfbf" points="568.5,-140 568.5,-170 675.5,-170 675.5,-140 568.5,-140"/>
<text text-anchor="start" x="576.5" y="-158" font-family="Helvetica,sans-Serif" font-size="10.00">hydra/detail/external</text>
<text text-anchor="middle" x="622" y="-147" font-family="Helvetica,sans-Serif" font-size="10.00">/thrust/host_vector.h</text>
</g>
<!-- Node22&#45;&gt;Node24 -->
<g id="edge37" class="edge"><title>Node22&#45;&gt;Node24</title>
<path fill="none" stroke="midnightblue" d="M781.566,-212.369C753.598,-202.488 707.062,-186.049 671.443,-173.466"/>
<polygon fill="midnightblue" stroke="midnightblue" points="672.305,-170.059 661.71,-170.028 669.973,-176.659 672.305,-170.059"/>
</g>
<!-- Node25 -->
<g id="node26" class="node"><title>Node25</title>
<polygon fill="none" stroke="#bfbfbf" points="694,-134.5 694,-175.5 856,-175.5 856,-134.5 694,-134.5"/>
<text text-anchor="start" x="702" y="-163.5" font-family="Helvetica,sans-Serif" font-size="10.00">hydra/detail/external</text>
<text text-anchor="start" x="702" y="-152.5" font-family="Helvetica,sans-Serif" font-size="10.00">/thrust/system/cuda/experimental</text>
<text text-anchor="middle" x="775" y="-141.5" font-family="Helvetica,sans-Serif" font-size="10.00">/pinned_allocator.h</text>
</g>
<!-- Node22&#45;&gt;Node25 -->
<g id="edge39" class="edge"><title>Node22&#45;&gt;Node25</title>
<path fill="none" stroke="midnightblue" d="M801.819,-212.234C798.438,-205.144 793.476,-194.74 788.737,-184.803"/>
<polygon fill="midnightblue" stroke="midnightblue" points="791.784,-183.061 784.32,-175.542 785.466,-186.075 791.784,-183.061"/>
</g>
<!-- Node30&#45;&gt;Node4 -->
<g id="edge48" class="edge"><title>Node30&#45;&gt;Node4</title>
<path fill="none" stroke="midnightblue" d="M284.327,-351.877C285.772,-321.011 293.166,-213.641 328,-134 332.505,-123.701 339.705,-113.493 346.232,-105.41"/>
<polygon fill="midnightblue" stroke="midnightblue" points="349.086,-107.457 352.891,-97.5691 343.75,-102.926 349.086,-107.457"/>
</g>
<!-- Node30&#45;&gt;Node6 -->
<g id="edge47" class="edge"><title>Node30&#45;&gt;Node6</title>
<path fill="none" stroke="midnightblue" d="M274.558,-351.855C261.974,-340.333 239.486,-319.743 223.931,-305.502"/>
<polygon fill="midnightblue" stroke="midnightblue" points="226.258,-302.887 216.519,-298.715 221.531,-308.05 226.258,-302.887"/>
</g>
<!-- Node31&#45;&gt;Node1 -->
<g id="edge50" class="edge"><title>Node31&#45;&gt;Node1</title>
<path fill="none" stroke="midnightblue" d="M525.714,-413.469C537.445,-405.151 554.836,-391.645 567,-377 602.471,-334.295 582.221,-299.403 628,-268 721.297,-204.002 770.086,-258.815 880,-232 953.194,-214.144 981.227,-223.138 1040,-176 1063.04,-157.521 1078.92,-126.384 1087.23,-106.802"/>
<polygon fill="midnightblue" stroke="midnightblue" points="1090.48,-108.088 1090.97,-97.5044 1083.99,-105.473 1090.48,-108.088"/>
</g>
<!-- Node31&#45;&gt;Node4 -->
<g id="edge51" class="edge"><title>Node31&#45;&gt;Node4</title>
<path fill="none" stroke="midnightblue" d="M488.66,-413.359C471.766,-406.149 450.035,-394.25 437,-377 372.638,-291.825 362.658,-156.727 361.206,-107.619"/>
<polygon fill="midnightblue" stroke="midnightblue" points="364.703,-107.462 360.997,-97.5367 357.705,-107.607 364.703,-107.462"/>
</g>
<!-- Node31&#45;&gt;Node8 -->
<g id="edge52" class="edge"><title>Node31&#45;&gt;Node8</title>
<path fill="none" stroke="midnightblue" d="M549.679,-413.475C595.207,-402.893 672.9,-384.836 722.547,-373.297"/>
<polygon fill="midnightblue" stroke="midnightblue" points="723.441,-376.682 732.389,-371.009 721.857,-369.864 723.441,-376.682"/>
</g>
<!-- Node32 -->
<g id="node33" class="node"><title>Node32</title>
<polygon fill="none" stroke="#bfbfbf" points="446.5,-352 446.5,-371 487.5,-371 487.5,-352 446.5,-352"/>
<text text-anchor="middle" x="467" y="-359" font-family="Helvetica,sans-Serif" font-size="10.00">string</text>
</g>
<!-- Node31&#45;&gt;Node32 -->
<g id="edge53" class="edge"><title>Node31&#45;&gt;Node32</title>
<path fill="none" stroke="midnightblue" d="M506.409,-413.475C499.509,-404.55 488.498,-390.307 479.866,-379.143"/>
<polygon fill="midnightblue" stroke="midnightblue" points="482.464,-376.78 473.578,-371.009 476.926,-381.061 482.464,-376.78"/>
</g>
<!-- Node33 -->
<g id="node34" class="node"><title>Node33</title>
<polygon fill="none" stroke="#bfbfbf" points="506,-352 506,-371 558,-371 558,-352 506,-352"/>
<text text-anchor="middle" x="532" y="-359" font-family="Helvetica,sans-Serif" font-size="10.00">ostream</text>
</g>
<!-- Node31&#45;&gt;Node33 -->
<g id="edge54" class="edge"><title>Node31&#45;&gt;Node33</title>
<path fill="none" stroke="midnightblue" d="M515.722,-413.475C518.431,-404.992 522.674,-391.704 526.149,-380.822"/>
<polygon fill="midnightblue" stroke="midnightblue" points="529.575,-381.6 529.283,-371.009 522.907,-379.47 529.575,-381.6"/>
</g>
</g>
</svg>
        <g id="navigator" transform="translate(0 0)" fill="#404254">
                <rect fill="#f2f5e9" fill-opacity="0.5" stroke="#606060" stroke-width=".5" x="0" y="0" width="60" height="60"/>
                <use id="zoomplus" xlink:href="#zoomPlus" x="17" y="9" onmousedown="handleZoom(evt,'in')"/>
                <use id="zoomminus" xlink:href="#zoomMin" x="42" y="9" onmousedown="handleZoom(evt,'out')"/>
                <use id="reset" xlink:href="#resetDef" x="30" y="36" onmousedown="handleReset()"/>
                <g id="arrowUp" xlink:href="#dirArrow" transform="translate(30 24)" onmousedown="handlePan(0,-1)">
                  <use xlink:href="#rim" fill="#404040">
                        <set attributeName="fill" to="#808080" begin="arrowUp.mouseover" end="arrowUp.mouseout"/>
                  </use>
                  <path fill="none" stroke="white" stroke-width="1.5" d="M0,-3.0v7 M-2.5,-0.5L0,-3.0L2.5,-0.5"/>
                </g>
                <g id="arrowRight" xlink:href="#dirArrow" transform="rotate(90) translate(36 -43)" onmousedown="handlePan(1,0)">
                  <use xlink:href="#rim" fill="#404040">
                        <set attributeName="fill" to="#808080" begin="arrowRight.mouseover" end="arrowRight.mouseout"/>
                  </use>
                  <path fill="none" stroke="white" stroke-width="1.5" d="M0,-3.0v7 M-2.5,-0.5L0,-3.0L2.5,-0.5"/>
                </g>
                <g id="arrowDown" xlink:href="#dirArrow" transform="rotate(180) translate(-30 -48)" onmousedown="handlePan(0,1)">
                  <use xlink:href="#rim" fill="#404040">
                        <set attributeName="fill" to="#808080" begin="arrowDown.mouseover" end="arrowDown.mouseout"/>
                  </use>
                  <path fill="none" stroke="white" stroke-width="1.5" d="M0,-3.0v7 M-2.5,-0.5L0,-3.0L2.5,-0.5"/>
                </g>
                <g id="arrowLeft" xlink:href="#dirArrow" transform="rotate(270) translate(-36 17)" onmousedown="handlePan(-1,0)">
                  <use xlink:href="#rim" fill="#404040">
                        <set attributeName="fill" to="#808080" begin="arrowLeft.mouseover" end="arrowLeft.mouseout"/>
                  </use>
                  <path fill="none" stroke="white" stroke-width="1.5" d="M0,-3.0v7 M-2.5,-0.5L0,-3.0L2.5,-0.5"/>
                </g>
        </g>
        <svg viewBox="0 0 15 15" width="100%" height="30px" preserveAspectRatio="xMaxYMin meet">
         <g id="arrow_out" transform="scale(0.3 0.3)">
          <a xlink:href="a00267_org.svg" target="_base">
           <rect id="button" ry="5" rx="5" y="6" x="6" height="38" width="38"
                fill="#f2f5e9" fill-opacity="0.5" stroke="#606060" stroke-width="1.0"/>
           <path id="arrow"
             d="M 11.500037,31.436501 C 11.940474,20.09759 22.043105,11.32322 32.158766,21.979434 L 37.068811,17.246167 C 37.068811,17.246167 37.088388,32 37.088388,32 L 22.160133,31.978069 C 22.160133,31.978069 26.997745,27.140456 26.997745,27.140456 C 18.528582,18.264221 13.291696,25.230495 11.500037,31.436501 z"
             style="fill:#404040;"/>
          </a>
         </g>
        </svg>
</svg>
