<?xml version="1.0" encoding="UTF-8" standalone="no"?>
<!DOCTYPE svg PUBLIC "-//W3C//DTD SVG 1.1//EN"
 "http://www.w3.org/Graphics/SVG/1.1/DTD/svg11.dtd">
<!-- Generated by graphviz version 2.38.0 (20140413.2041)
 -->
<!-- Title: UserParameters.h Pages: 1 -->
<svg width="1411pt" height="330pt"
 viewBox="0.00 0.00 1410.50 330.00" xmlns="http://www.w3.org/2000/svg" xmlns:xlink="http://www.w3.org/1999/xlink">
<g id="graph0" class="graph" transform="scale(1 1) rotate(0) translate(4 326)">
<title>UserParameters.h</title>
<!-- Node45 -->
<g id="node1" class="node"><title>Node45</title>
<polygon fill="#bfbfbf" stroke="black" points="587,-302.5 587,-321.5 683,-321.5 683,-302.5 587,-302.5"/>
<text text-anchor="middle" x="635" y="-309.5" font-family="Helvetica,sans-Serif" font-size="10.00">UserParameters.h</text>
</g>
<!-- Node46 -->
<g id="node2" class="node"><title>Node46</title>
<g id="a_node2"><a xlink:href="a00290.html" target="_top" xlink:title="FCN.h">
<polygon fill="none" stroke="black" points="612,-246.5 612,-265.5 658,-265.5 658,-246.5 612,-246.5"/>
<text text-anchor="middle" x="635" y="-253.5" font-family="Helvetica,sans-Serif" font-size="10.00">FCN.h</text>
</a>
</g>
</g>
<!-- Node45&#45;&gt;Node46 -->
<g id="edge1" class="edge"><title>Node45&#45;&gt;Node46</title>
<path fill="none" stroke="midnightblue" d="M635,-291.805C635,-282.91 635,-272.78 635,-265.751"/>
<polygon fill="midnightblue" stroke="midnightblue" points="631.5,-292.083 635,-302.083 638.5,-292.083 631.5,-292.083"/>
</g>
<!-- Node49 -->
<g id="node5" class="node"><title>Node49</title>
<g id="a_node5"><a xlink:href="a00425.html" target="_top" xlink:title="basic_fit.inl">
<polygon fill="none" stroke="black" points="155,-73 155,-92 221,-92 221,-73 155,-73"/>
<text text-anchor="middle" x="188" y="-80" font-family="Helvetica,sans-Serif" font-size="10.00">basic_fit.inl</text>
</a>
</g>
</g>
<!-- Node45&#45;&gt;Node49 -->
<g id="edge27" class="edge"><title>Node45&#45;&gt;Node49</title>
<path fill="none" stroke="midnightblue" d="M590.309,-299.862C561.595,-291.999 523.848,-280.328 492,-266 371.584,-211.825 239.532,-120.309 199.883,-92.062"/>
<polygon fill="midnightblue" stroke="midnightblue" points="589.498,-303.268 600.064,-302.482 591.314,-296.508 589.498,-303.268"/>
</g>
<!-- Node52 -->
<g id="node8" class="node"><title>Node52</title>
<g id="a_node8"><a xlink:href="a00434.html" target="_top" xlink:title="extended_logLL_fit.inl">
<polygon fill="none" stroke="black" points="337.5,-73 337.5,-92 448.5,-92 448.5,-73 337.5,-73"/>
<text text-anchor="middle" x="393" y="-80" font-family="Helvetica,sans-Serif" font-size="10.00">extended_logLL_fit.inl</text>
</a>
</g>
</g>
<!-- Node45&#45;&gt;Node52 -->
<g id="edge28" class="edge"><title>Node45&#45;&gt;Node52</title>
<path fill="none" stroke="midnightblue" d="M586.741,-299.598C564.207,-292.572 538.006,-281.808 518,-266 453.216,-214.81 409.082,-120.879 396.607,-92.1049"/>
<polygon fill="midnightblue" stroke="midnightblue" points="585.89,-302.996 596.472,-302.476 587.875,-296.284 585.89,-302.996"/>
</g>
<!-- Node55 -->
<g id="node11" class="node"><title>Node55</title>
<g id="a_node11"><a xlink:href="a00443.html" target="_top" xlink:title="fractional_logLL_fit.inl">
<polygon fill="none" stroke="black" points="516.5,-73 516.5,-92 627.5,-92 627.5,-73 516.5,-73"/>
<text text-anchor="middle" x="572" y="-80" font-family="Helvetica,sans-Serif" font-size="10.00">fractional_logLL_fit.inl</text>
</a>
</g>
</g>
<!-- Node45&#45;&gt;Node55 -->
<g id="edge29" class="edge"><title>Node45&#45;&gt;Node55</title>
<path fill="none" stroke="midnightblue" d="M602.154,-298.405C567.805,-283.242 515.786,-254.169 493,-210 469.139,-163.748 531.448,-112.143 559.323,-92.1033"/>
<polygon fill="midnightblue" stroke="midnightblue" points="601.192,-301.799 611.765,-302.49 603.931,-295.357 601.192,-301.799"/>
</g>
<!-- Node58 -->
<g id="node14" class="node"><title>Node58</title>
<g id="a_node14"><a xlink:href="a00452.html" target="_top" xlink:title="multidimensional_fit.inl">
<polygon fill="none" stroke="black" points="715,-73 715,-92 831,-92 831,-73 715,-73"/>
<text text-anchor="middle" x="773" y="-80" font-family="Helvetica,sans-Serif" font-size="10.00">multidimensional_fit.inl</text>
</a>
</g>
</g>
<!-- Node45&#45;&gt;Node58 -->
<g id="edge30" class="edge"><title>Node45&#45;&gt;Node58</title>
<path fill="none" stroke="midnightblue" d="M693.237,-307.355C756.402,-299.926 854.43,-277.497 901,-210 936.22,-158.953 839.864,-111.013 794.802,-92.0529"/>
<polygon fill="midnightblue" stroke="midnightblue" points="692.592,-303.904 683.027,-308.461 693.346,-310.863 692.592,-303.904"/>
</g>
<!-- Node61 -->
<g id="node17" class="node"><title>Node61</title>
<g id="a_node17"><a xlink:href="a00461.html" target="_top" xlink:title="phsp_unweighting_functor\l_and_fit.inl">
<polygon fill="none" stroke="black" points="976,-67.5 976,-97.5 1106,-97.5 1106,-67.5 976,-67.5"/>
<text text-anchor="start" x="984" y="-85.5" font-family="Helvetica,sans-Serif" font-size="10.00">phsp_unweighting_functor</text>
<text text-anchor="middle" x="1041" y="-74.5" font-family="Helvetica,sans-Serif" font-size="10.00">_and_fit.inl</text>
</a>
</g>
</g>
<!-- Node45&#45;&gt;Node61 -->
<g id="edge31" class="edge"><title>Node45&#45;&gt;Node61</title>
<path fill="none" stroke="midnightblue" d="M693.313,-309.453C742.344,-305.944 812.892,-295.588 867,-266 945.355,-223.153 1009.32,-132.704 1032.08,-97.7271"/>
<polygon fill="midnightblue" stroke="midnightblue" points="692.946,-305.969 683.191,-310.102 693.394,-312.954 692.946,-305.969"/>
</g>
<!-- Node64 -->
<g id="node20" class="node"><title>Node64</title>
<g id="a_node20"><a xlink:href="a00470.html" target="_top" xlink:title="splot.inl">
<polygon fill="none" stroke="black" points="1263,-73 1263,-92 1313,-92 1313,-73 1263,-73"/>
<text text-anchor="middle" x="1288" y="-80" font-family="Helvetica,sans-Serif" font-size="10.00">splot.inl</text>
</a>
</g>
</g>
<!-- Node45&#45;&gt;Node64 -->
<g id="edge32" class="edge"><title>Node45&#45;&gt;Node64</title>
<path fill="none" stroke="midnightblue" d="M693.049,-305.452C746.638,-299.291 827.977,-287.283 896,-266 1050.39,-217.694 1222.63,-121.392 1273.26,-92.1307"/>
<polygon fill="midnightblue" stroke="midnightblue" points="692.593,-301.982 683.044,-306.572 693.371,-308.938 692.593,-301.982"/>
</g>
<!-- Node47 -->
<g id="node3" class="node"><title>Node47</title>
<g id="a_node3"><a xlink:href="a00185.html" target="_top" xlink:title="LogLikelihoodFCN1.inl">
<polygon fill="none" stroke="black" points="511.5,-190.5 511.5,-209.5 626.5,-209.5 626.5,-190.5 511.5,-190.5"/>
<text text-anchor="middle" x="569" y="-197.5" font-family="Helvetica,sans-Serif" font-size="10.00">LogLikelihoodFCN1.inl</text>
</a>
</g>
</g>
<!-- Node46&#45;&gt;Node47 -->
<g id="edge2" class="edge"><title>Node46&#45;&gt;Node47</title>
<path fill="none" stroke="midnightblue" d="M616.446,-239.82C604.622,-230.145 589.714,-217.948 579.797,-209.834"/>
<polygon fill="midnightblue" stroke="midnightblue" points="614.44,-242.7 624.396,-246.324 618.873,-237.283 614.44,-242.7"/>
</g>
<!-- Node48 -->
<g id="node4" class="node"><title>Node48</title>
<g id="a_node4"><a xlink:href="a00332.html" target="_top" xlink:title="LogLikelihoodFCN.h">
<polygon fill="none" stroke="black" points="568.5,-134.5 568.5,-153.5 673.5,-153.5 673.5,-134.5 568.5,-134.5"/>
<text text-anchor="middle" x="621" y="-141.5" font-family="Helvetica,sans-Serif" font-size="10.00">LogLikelihoodFCN.h</text>
</a>
</g>
</g>
<!-- Node46&#45;&gt;Node48 -->
<g id="edge26" class="edge"><title>Node46&#45;&gt;Node48</title>
<path fill="none" stroke="midnightblue" d="M601.663,-254.055C570.18,-251.173 524.531,-241.409 502,-210 480.732,-180.351 528.842,-162.777 570.115,-153.524"/>
<polygon fill="midnightblue" stroke="midnightblue" points="601.514,-257.554 611.743,-254.79 602.024,-250.572 601.514,-257.554"/>
</g>
<!-- Node67 -->
<g id="node23" class="node"><title>Node67</title>
<g id="a_node23"><a xlink:href="a00188.html" target="_top" xlink:title="LogLikelihoodFCN2.inl">
<polygon fill="none" stroke="black" points="644.5,-190.5 644.5,-209.5 759.5,-209.5 759.5,-190.5 644.5,-190.5"/>
<text text-anchor="middle" x="702" y="-197.5" font-family="Helvetica,sans-Serif" font-size="10.00">LogLikelihoodFCN2.inl</text>
</a>
</g>
</g>
<!-- Node46&#45;&gt;Node67 -->
<g id="edge22" class="edge"><title>Node46&#45;&gt;Node67</title>
<path fill="none" stroke="midnightblue" d="M653.835,-239.82C665.838,-230.145 680.972,-217.948 691.039,-209.834"/>
<polygon fill="midnightblue" stroke="midnightblue" points="651.354,-237.324 645.765,-246.324 655.747,-242.774 651.354,-237.324"/>
</g>
<!-- Node68 -->
<g id="node24" class="node"><title>Node68</title>
<g id="a_node24"><a xlink:href="a00191.html" target="_top" xlink:title="LogLikelihoodFCN3.inl">
<polygon fill="none" stroke="black" points="777.5,-190.5 777.5,-209.5 892.5,-209.5 892.5,-190.5 777.5,-190.5"/>
<text text-anchor="middle" x="835" y="-197.5" font-family="Helvetica,sans-Serif" font-size="10.00">LogLikelihoodFCN3.inl</text>
</a>
</g>
</g>
<!-- Node46&#45;&gt;Node68 -->
<g id="edge24" class="edge"><title>Node46&#45;&gt;Node68</title>
<path fill="none" stroke="midnightblue" d="M668.268,-246.018C705.796,-235.885 766.389,-219.525 803.271,-209.567"/>
<polygon fill="midnightblue" stroke="midnightblue" points="667.076,-242.714 658.334,-248.7 668.901,-249.472 667.076,-242.714"/>
</g>
<!-- Node47&#45;&gt;Node48 -->
<g id="edge3" class="edge"><title>Node47&#45;&gt;Node48</title>
<path fill="none" stroke="midnightblue" d="M584.679,-182.718C593.845,-173.2 605.053,-161.561 612.573,-153.751"/>
<polygon fill="midnightblue" stroke="midnightblue" points="582.002,-180.452 577.587,-190.083 587.044,-185.308 582.002,-180.452"/>
</g>
<!-- Node48&#45;&gt;Node49 -->
<g id="edge4" class="edge"><title>Node48&#45;&gt;Node49</title>
<path fill="none" stroke="midnightblue" d="M558.192,-134.369C464.94,-121.555 293.149,-97.9489 221.134,-88.0531"/>
<polygon fill="midnightblue" stroke="midnightblue" points="557.955,-137.87 568.339,-135.764 558.908,-130.935 557.955,-137.87"/>
</g>
<!-- Node48&#45;&gt;Node52 -->
<g id="edge7" class="edge"><title>Node48&#45;&gt;Node52</title>
<path fill="none" stroke="midnightblue" d="M578.449,-131.896C534.167,-120.34 465.789,-102.495 425.606,-92.0091"/>
<polygon fill="midnightblue" stroke="midnightblue" points="577.773,-135.337 588.333,-134.475 579.541,-128.563 577.773,-135.337"/>
</g>
<!-- Node48&#45;&gt;Node55 -->
<g id="edge10" class="edge"><title>Node48&#45;&gt;Node55</title>
<path fill="none" stroke="midnightblue" d="M607.551,-126.669C598.313,-115.452 586.425,-101.016 579.007,-92.0091"/>
<polygon fill="midnightblue" stroke="midnightblue" points="604.921,-128.981 613.979,-134.475 610.324,-124.531 604.921,-128.981"/>
</g>
<!-- Node48&#45;&gt;Node58 -->
<g id="edge13" class="edge"><title>Node48&#45;&gt;Node58</title>
<path fill="none" stroke="midnightblue" d="M652.211,-130.782C681.749,-119.22 725.32,-102.164 751.263,-92.0091"/>
<polygon fill="midnightblue" stroke="midnightblue" points="650.814,-127.571 642.778,-134.475 653.366,-134.089 650.814,-127.571"/>
</g>
<!-- Node48&#45;&gt;Node61 -->
<g id="edge16" class="edge"><title>Node48&#45;&gt;Node61</title>
<path fill="none" stroke="midnightblue" d="M684.004,-134.074C762.542,-122.948 896.111,-104.026 975.703,-92.7504"/>
<polygon fill="midnightblue" stroke="midnightblue" points="683.178,-130.656 673.768,-135.525 684.16,-137.587 683.178,-130.656"/>
</g>
<!-- Node48&#45;&gt;Node64 -->
<g id="edge19" class="edge"><title>Node48&#45;&gt;Node64</title>
<path fill="none" stroke="midnightblue" d="M683.919,-137.387C826.219,-124.693 1167.8,-94.2221 1263,-85.7303"/>
<polygon fill="midnightblue" stroke="midnightblue" points="683.266,-133.932 673.617,-138.306 683.888,-140.904 683.266,-133.932"/>
</g>
<!-- Node50 -->
<g id="node6" class="node"><title>Node50</title>
<g id="a_node6"><a xlink:href="a00419.html" target="_top" xlink:title="basic_fit.cpp">
<polygon fill="none" stroke="black" points="0,-6 0,-25 72,-25 72,-6 0,-6"/>
<text text-anchor="middle" x="36" y="-13" font-family="Helvetica,sans-Serif" font-size="10.00">basic_fit.cpp</text>
</a>
</g>
</g>
<!-- Node49&#45;&gt;Node50 -->
<g id="edge5" class="edge"><title>Node49&#45;&gt;Node50</title>
<path fill="none" stroke="midnightblue" d="M158.257,-68.781C128.155,-55.9085 82.4291,-36.3545 56.2679,-25.1672"/>
<polygon fill="midnightblue" stroke="midnightblue" points="157.245,-72.1547 167.816,-72.8685 159.997,-65.7184 157.245,-72.1547"/>
</g>
<!-- Node51 -->
<g id="node7" class="node"><title>Node51</title>
<g id="a_node7"><a xlink:href="a00422.html" target="_top" xlink:title="basic_fit.cu">
<polygon fill="none" stroke="black" points="90.5,-6 90.5,-25 157.5,-25 157.5,-6 90.5,-6"/>
<text text-anchor="middle" x="124" y="-13" font-family="Helvetica,sans-Serif" font-size="10.00">basic_fit.cu</text>
</a>
</g>
</g>
<!-- Node49&#45;&gt;Node51 -->
<g id="edge6" class="edge"><title>Node49&#45;&gt;Node51</title>
<path fill="none" stroke="midnightblue" d="M172.243,-65.4968C159.692,-52.7496 142.604,-35.3947 132.495,-25.1273"/>
<polygon fill="midnightblue" stroke="midnightblue" points="169.859,-68.0637 179.369,-72.7338 174.847,-63.1525 169.859,-68.0637"/>
</g>
<!-- Node53 -->
<g id="node9" class="node"><title>Node53</title>
<g id="a_node9"><a xlink:href="a00428.html" target="_top" xlink:title="extended_logLL_fit.cpp">
<polygon fill="none" stroke="black" points="175.5,-6 175.5,-25 292.5,-25 292.5,-6 175.5,-6"/>
<text text-anchor="middle" x="234" y="-13" font-family="Helvetica,sans-Serif" font-size="10.00">extended_logLL_fit.cpp</text>
</a>
</g>
</g>
<!-- Node52&#45;&gt;Node53 -->
<g id="edge8" class="edge"><title>Node52&#45;&gt;Node53</title>
<path fill="none" stroke="midnightblue" d="M362.269,-68.9369C330.69,-56.0273 282.382,-36.2786 254.948,-25.0637"/>
<polygon fill="midnightblue" stroke="midnightblue" points="361.305,-72.3241 371.886,-72.8685 363.954,-65.8446 361.305,-72.3241"/>
</g>
<!-- Node54 -->
<g id="node10" class="node"><title>Node54</title>
<g id="a_node10"><a xlink:href="a00431.html" target="_top" xlink:title="extended_logLL_fit.cu">
<polygon fill="none" stroke="black" points="311,-6 311,-25 423,-25 423,-6 311,-6"/>
<text text-anchor="middle" x="367" y="-13" font-family="Helvetica,sans-Serif" font-size="10.00">extended_logLL_fit.cu</text>
</a>
</g>
</g>
<!-- Node52&#45;&gt;Node54 -->
<g id="edge9" class="edge"><title>Node52&#45;&gt;Node54</title>
<path fill="none" stroke="midnightblue" d="M385.716,-63.29C380.723,-50.8076 374.325,-34.8135 370.451,-25.1273"/>
<polygon fill="midnightblue" stroke="midnightblue" points="382.53,-64.7489 389.494,-72.7338 389.029,-62.1491 382.53,-64.7489"/>
</g>
<!-- Node56 -->
<g id="node12" class="node"><title>Node56</title>
<g id="a_node12"><a xlink:href="a00437.html" target="_top" xlink:title="fractional_logLL_fit.cpp">
<polygon fill="none" stroke="black" points="441.5,-6 441.5,-25 558.5,-25 558.5,-6 441.5,-6"/>
<text text-anchor="middle" x="500" y="-13" font-family="Helvetica,sans-Serif" font-size="10.00">fractional_logLL_fit.cpp</text>
</a>
</g>
</g>
<!-- Node55&#45;&gt;Node56 -->
<g id="edge11" class="edge"><title>Node55&#45;&gt;Node56</title>
<path fill="none" stroke="midnightblue" d="M554.672,-65.8564C540.517,-53.0777 521.037,-35.4915 509.556,-25.1273"/>
<polygon fill="midnightblue" stroke="midnightblue" points="552.522,-68.6307 562.29,-72.7338 557.212,-63.4348 552.522,-68.6307"/>
</g>
<!-- Node57 -->
<g id="node13" class="node"><title>Node57</title>
<g id="a_node13"><a xlink:href="a00440.html" target="_top" xlink:title="fractional_logLL_fit.cu">
<polygon fill="none" stroke="black" points="577,-6 577,-25 689,-25 689,-6 577,-6"/>
<text text-anchor="middle" x="633" y="-13" font-family="Helvetica,sans-Serif" font-size="10.00">fractional_logLL_fit.cu</text>
</a>
</g>
</g>
<!-- Node55&#45;&gt;Node57 -->
<g id="edge12" class="edge"><title>Node55&#45;&gt;Node57</title>
<path fill="none" stroke="midnightblue" d="M587.358,-65.1348C599.288,-52.4228 615.359,-35.2978 624.904,-25.1273"/>
<polygon fill="midnightblue" stroke="midnightblue" points="584.518,-63.0468 580.227,-72.7338 589.622,-67.837 584.518,-63.0468"/>
</g>
<!-- Node59 -->
<g id="node15" class="node"><title>Node59</title>
<g id="a_node15"><a xlink:href="a00446.html" target="_top" xlink:title="multidimensional_fit.cpp">
<polygon fill="none" stroke="black" points="707,-6 707,-25 829,-25 829,-6 707,-6"/>
<text text-anchor="middle" x="768" y="-13" font-family="Helvetica,sans-Serif" font-size="10.00">multidimensional_fit.cpp</text>
</a>
</g>
</g>
<!-- Node58&#45;&gt;Node59 -->
<g id="edge14" class="edge"><title>Node58&#45;&gt;Node59</title>
<path fill="none" stroke="midnightblue" d="M771.541,-62.537C770.59,-50.1703 769.394,-34.6198 768.664,-25.1273"/>
<polygon fill="midnightblue" stroke="midnightblue" points="768.069,-63.0317 772.326,-72.7338 775.048,-62.4948 768.069,-63.0317"/>
</g>
<!-- Node60 -->
<g id="node16" class="node"><title>Node60</title>
<g id="a_node16"><a xlink:href="a00449.html" target="_top" xlink:title="multidimensional_fit.cu">
<polygon fill="none" stroke="black" points="847,-6 847,-25 963,-25 963,-6 847,-6"/>
<text text-anchor="middle" x="905" y="-13" font-family="Helvetica,sans-Serif" font-size="10.00">multidimensional_fit.cu</text>
</a>
</g>
</g>
<!-- Node58&#45;&gt;Node60 -->
<g id="edge15" class="edge"><title>Node58&#45;&gt;Node60</title>
<path fill="none" stroke="midnightblue" d="M799.514,-68.4436C825.66,-55.5691 864.878,-36.2573 887.399,-25.1672"/>
<polygon fill="midnightblue" stroke="midnightblue" points="797.954,-65.3108 790.529,-72.8685 801.046,-71.5907 797.954,-65.3108"/>
</g>
<!-- Node62 -->
<g id="node18" class="node"><title>Node62</title>
<g id="a_node18"><a xlink:href="a00455.html" target="_top" xlink:title="phsp_unweighting_functor\l_and_fit.cpp">
<polygon fill="none" stroke="black" points="981,-0.5 981,-30.5 1111,-30.5 1111,-0.5 981,-0.5"/>
<text text-anchor="start" x="989" y="-18.5" font-family="Helvetica,sans-Serif" font-size="10.00">phsp_unweighting_functor</text>
<text text-anchor="middle" x="1046" y="-7.5" font-family="Helvetica,sans-Serif" font-size="10.00">_and_fit.cpp</text>
</a>
</g>
</g>
<!-- Node61&#45;&gt;Node62 -->
<g id="edge17" class="edge"><title>Node61&#45;&gt;Node62</title>
<path fill="none" stroke="midnightblue" d="M1042.85,-57.4029C1043.55,-48.3703 1044.31,-38.4078 1044.92,-30.5765"/>
<polygon fill="midnightblue" stroke="midnightblue" points="1039.36,-57.157 1042.08,-67.396 1046.34,-57.6939 1039.36,-57.157"/>
</g>
<!-- Node63 -->
<g id="node19" class="node"><title>Node63</title>
<g id="a_node19"><a xlink:href="a00458.html" target="_top" xlink:title="phsp_unweighting_functor\l_and_fit.cu">
<polygon fill="none" stroke="black" points="1129,-0.5 1129,-30.5 1259,-30.5 1259,-0.5 1129,-0.5"/>
<text text-anchor="start" x="1137" y="-18.5" font-family="Helvetica,sans-Serif" font-size="10.00">phsp_unweighting_functor</text>
<text text-anchor="middle" x="1194" y="-7.5" font-family="Helvetica,sans-Serif" font-size="10.00">_and_fit.cu</text>
</a>
</g>
</g>
<!-- Node61&#45;&gt;Node63 -->
<g id="edge18" class="edge"><title>Node61&#45;&gt;Node63</title>
<path fill="none" stroke="midnightblue" d="M1083.59,-63.4066C1108.02,-53.0294 1138.22,-40.1954 1160.87,-30.5765"/>
<polygon fill="midnightblue" stroke="midnightblue" points="1082.03,-60.2644 1074.2,-67.396 1084.77,-66.7071 1082.03,-60.2644"/>
</g>
<!-- Node65 -->
<g id="node21" class="node"><title>Node65</title>
<g id="a_node21"><a xlink:href="a00464.html" target="_top" xlink:title="splot.cpp">
<polygon fill="none" stroke="black" points="1277,-6 1277,-25 1333,-25 1333,-6 1277,-6"/>
<text text-anchor="middle" x="1305" y="-13" font-family="Helvetica,sans-Serif" font-size="10.00">splot.cpp</text>
</a>
</g>
</g>
<!-- Node64&#45;&gt;Node65 -->
<g id="edge20" class="edge"><title>Node64&#45;&gt;Node65</title>
<path fill="none" stroke="midnightblue" d="M1292.86,-62.9145C1296.11,-50.4883 1300.24,-34.7166 1302.74,-25.1273"/>
<polygon fill="midnightblue" stroke="midnightblue" points="1289.44,-62.1736 1290.29,-72.7338 1296.21,-63.9448 1289.44,-62.1736"/>
</g>
<!-- Node66 -->
<g id="node22" class="node"><title>Node66</title>
<g id="a_node22"><a xlink:href="a00467.html" target="_top" xlink:title="splot.cu">
<polygon fill="none" stroke="black" points="1351.5,-6 1351.5,-25 1402.5,-25 1402.5,-6 1351.5,-6"/>
<text text-anchor="middle" x="1377" y="-13" font-family="Helvetica,sans-Serif" font-size="10.00">splot.cu</text>
</a>
</g>
</g>
<!-- Node64&#45;&gt;Node66 -->
<g id="edge21" class="edge"><title>Node64&#45;&gt;Node66</title>
<path fill="none" stroke="midnightblue" d="M1308.45,-66.5678C1326.01,-53.7376 1350.73,-35.6853 1365.19,-25.1273"/>
<polygon fill="midnightblue" stroke="midnightblue" points="1306.01,-64.0094 1300,-72.7338 1310.14,-69.6623 1306.01,-64.0094"/>
</g>
<!-- Node67&#45;&gt;Node48 -->
<g id="edge23" class="edge"><title>Node67&#45;&gt;Node48</title>
<path fill="none" stroke="midnightblue" d="M680.433,-184.622C665.636,-174.757 646.488,-161.992 633.982,-153.655"/>
<polygon fill="midnightblue" stroke="midnightblue" points="678.724,-187.689 688.986,-190.324 682.607,-181.865 678.724,-187.689"/>
</g>
<!-- Node68&#45;&gt;Node48 -->
<g id="edge25" class="edge"><title>Node68&#45;&gt;Node48</title>
<path fill="none" stroke="midnightblue" d="M791.245,-187.959C750.826,-177.76 691.627,-162.822 654.75,-153.516"/>
<polygon fill="midnightblue" stroke="midnightblue" points="790.539,-191.39 801.091,-190.444 792.251,-184.603 790.539,-191.39"/>
</g>
</g>
</svg>
