<?xml version="1.0" encoding="UTF-8" standalone="no"?>
<!DOCTYPE svg PUBLIC "-//W3C//DTD SVG 1.1//EN"
 "http://www.w3.org/Graphics/SVG/1.1/DTD/svg11.dtd">
<!-- Generated by graphviz version 2.38.0 (20140413.2041)
 -->
<!-- Title: VegasState.inl Pages: 1 -->
<svg width="105pt" height="196pt"
 viewBox="0.00 0.00 104.50 196.00" xmlns="http://www.w3.org/2000/svg" xmlns:xlink="http://www.w3.org/1999/xlink">
<g id="graph0" class="graph" transform="scale(1 1) rotate(0) translate(4 192)">
<title>VegasState.inl</title>
<!-- Node1 -->
<g id="node1" class="node"><title>Node1</title>
<polygon fill="#bfbfbf" stroke="black" points="16.5,-168.5 16.5,-187.5 96.5,-187.5 96.5,-168.5 16.5,-168.5"/>
<text text-anchor="middle" x="56.5" y="-175.5" font-family="Helvetica,sans-Serif" font-size="10.00">VegasState.inl</text>
</g>
<!-- Node2 -->
<g id="node2" class="node"><title>Node2</title>
<g id="a_node2"><a xlink:href="a00149.html" target="_top" xlink:title="VegasState.h">
<polygon fill="none" stroke="black" points="18.5,-112.5 18.5,-131.5 94.5,-131.5 94.5,-112.5 18.5,-112.5"/>
<text text-anchor="middle" x="56.5" y="-119.5" font-family="Helvetica,sans-Serif" font-size="10.00">VegasState.h</text>
</a>
</g>
</g>
<!-- Node1&#45;&gt;Node2 -->
<g id="edge1" class="edge"><title>Node1&#45;&gt;Node2</title>
<path fill="none" stroke="midnightblue" d="M56.5,-157.805C56.5,-148.91 56.5,-138.78 56.5,-131.751"/>
<polygon fill="midnightblue" stroke="midnightblue" points="53.0001,-158.083 56.5,-168.083 60.0001,-158.083 53.0001,-158.083"/>
</g>
<!-- Node3 -->
<g id="node3" class="node"><title>Node3</title>
<g id="a_node3"><a xlink:href="a00148.html" target="_top" xlink:title="Vegas.inl">
<polygon fill="none" stroke="black" points="0,-56.5 0,-75.5 57,-75.5 57,-56.5 0,-56.5"/>
<text text-anchor="middle" x="28.5" y="-63.5" font-family="Helvetica,sans-Serif" font-size="10.00">Vegas.inl</text>
</a>
</g>
</g>
<!-- Node2&#45;&gt;Node3 -->
<g id="edge2" class="edge"><title>Node2&#45;&gt;Node3</title>
<path fill="none" stroke="midnightblue" d="M47.1577,-102.983C42.405,-93.8168 36.8441,-83.0922 33.0376,-75.7511"/>
<polygon fill="midnightblue" stroke="midnightblue" points="44.166,-104.817 51.8764,-112.083 50.3803,-101.594 44.166,-104.817"/>
</g>
<!-- Node4 -->
<g id="node4" class="node"><title>Node4</title>
<g id="a_node4"><a xlink:href="a00147.html" target="_top" xlink:title="Vegas.h">
<polygon fill="none" stroke="black" points="30,-0.5 30,-19.5 83,-19.5 83,-0.5 30,-0.5"/>
<text text-anchor="middle" x="56.5" y="-7.5" font-family="Helvetica,sans-Serif" font-size="10.00">Vegas.h</text>
</a>
</g>
</g>
<!-- Node2&#45;&gt;Node4 -->
<g id="edge4" class="edge"><title>Node2&#45;&gt;Node4</title>
<path fill="none" stroke="midnightblue" d="M62.0337,-102.191C65.1935,-89.2427 68.2152,-71.6248 66.5,-56 65.0853,-43.1124 61.4566,-28.5154 58.9824,-19.5332"/>
<polygon fill="midnightblue" stroke="midnightblue" points="58.5589,-101.634 59.3369,-112.201 65.3179,-103.455 58.5589,-101.634"/>
</g>
<!-- Node3&#45;&gt;Node4 -->
<g id="edge3" class="edge"><title>Node3&#45;&gt;Node4</title>
<path fill="none" stroke="midnightblue" d="M37.8423,-46.9827C42.595,-37.8168 48.1559,-27.0922 51.9624,-19.7511"/>
<polygon fill="midnightblue" stroke="midnightblue" points="34.6197,-45.5943 33.1236,-56.083 40.834,-48.8166 34.6197,-45.5943"/>
</g>
</g>
</svg>
