<?xml version="1.0" encoding="UTF-8" standalone="no"?>
<!DOCTYPE svg PUBLIC "-//W3C//DTD SVG 1.1//EN"
 "http://www.w3.org/Graphics/SVG/1.1/DTD/svg11.dtd">
<!-- Generated by graphviz version 2.38.0 (20140413.2041)
 -->
<!-- Title: /home/augalves/Development/Release/Hydra/hydra/Weights.h Pages: 1 -->
<svg width="877pt" height="195pt"
 viewBox="0.00 0.00 877.00 195.00" xmlns="http://www.w3.org/2000/svg" xmlns:xlink="http://www.w3.org/1999/xlink">
<g id="graph0" class="graph" transform="scale(1 1) rotate(0) translate(4 191)">
<title>/home/augalves/Development/Release/Hydra/hydra/Weights.h</title>
<!-- Node0 -->
<g id="node1" class="node"><title>Node0</title>
<polygon fill="#bfbfbf" stroke="black" points="420.5,-156.5 420.5,-186.5 579.5,-186.5 579.5,-156.5 420.5,-156.5"/>
<text text-anchor="start" x="428.5" y="-174.5" font-family="Helvetica,sans-Serif" font-size="10.00">/home/augalves/Development</text>
<text text-anchor="middle" x="500" y="-163.5" font-family="Helvetica,sans-Serif" font-size="10.00">/Release/Hydra/hydra/Weights.h</text>
</g>
<!-- Node1 -->
<g id="node2" class="node"><title>Node1</title>
<g id="a_node2"><a xlink:href="a00047.html" target="_top" xlink:title="hydra/detail/Config.h">
<polygon fill="none" stroke="black" points="119.5,-89.5 119.5,-108.5 226.5,-108.5 226.5,-89.5 119.5,-89.5"/>
<text text-anchor="middle" x="173" y="-96.5" font-family="Helvetica,sans-Serif" font-size="10.00">hydra/detail/Config.h</text>
</a>
</g>
</g>
<!-- Node0&#45;&gt;Node1 -->
<g id="edge1" class="edge"><title>Node0&#45;&gt;Node1</title>
<path fill="none" stroke="midnightblue" d="M420.293,-157.959C367.385,-148.987 296.599,-135.74 235,-120 225.746,-117.635 215.85,-114.654 206.743,-111.721"/>
<polygon fill="midnightblue" stroke="midnightblue" points="207.831,-108.394 197.238,-108.588 205.64,-115.042 207.831,-108.394"/>
</g>
<!-- Node4 -->
<g id="node5" class="node"><title>Node4</title>
<g id="a_node5"><a xlink:href="a00038.html" target="_top" xlink:title="hydra/detail/BackendPolicy.h">
<polygon fill="none" stroke="black" points="244.5,-89.5 244.5,-108.5 387.5,-108.5 387.5,-89.5 244.5,-89.5"/>
<text text-anchor="middle" x="316" y="-96.5" font-family="Helvetica,sans-Serif" font-size="10.00">hydra/detail/BackendPolicy.h</text>
</a>
</g>
</g>
<!-- Node0&#45;&gt;Node4 -->
<g id="edge4" class="edge"><title>Node0&#45;&gt;Node4</title>
<path fill="none" stroke="midnightblue" d="M463.207,-156.403C429.372,-143.439 379.728,-124.417 347.632,-112.12"/>
<polygon fill="midnightblue" stroke="midnightblue" points="348.862,-108.843 338.272,-108.534 346.358,-115.38 348.862,-108.843"/>
</g>
<!-- Node6 -->
<g id="node7" class="node"><title>Node6</title>
<g id="a_node7"><a xlink:href="a00305.html" target="_top" xlink:title="Common and useful typedefs. ">
<polygon fill="none" stroke="black" points="405.5,-89.5 405.5,-108.5 484.5,-108.5 484.5,-89.5 405.5,-89.5"/>
<text text-anchor="middle" x="445" y="-96.5" font-family="Helvetica,sans-Serif" font-size="10.00">hydra/Types.h</text>
</a>
</g>
</g>
<!-- Node0&#45;&gt;Node6 -->
<g id="edge6" class="edge"><title>Node0&#45;&gt;Node6</title>
<path fill="none" stroke="midnightblue" d="M488.87,-156.233C479.979,-144.837 467.499,-128.839 458.122,-116.82"/>
<polygon fill="midnightblue" stroke="midnightblue" points="460.849,-114.625 451.938,-108.893 455.329,-118.931 460.849,-114.625"/>
</g>
<!-- Node7 -->
<g id="node8" class="node"><title>Node7</title>
<polygon fill="none" stroke="#bfbfbf" points="503,-84 503,-114 607,-114 607,-84 503,-84"/>
<text text-anchor="start" x="511" y="-102" font-family="Helvetica,sans-Serif" font-size="10.00">hydra/detail/external</text>
<text text-anchor="middle" x="555" y="-91" font-family="Helvetica,sans-Serif" font-size="10.00">/thrust/copy.h</text>
</g>
<!-- Node0&#45;&gt;Node7 -->
<g id="edge7" class="edge"><title>Node0&#45;&gt;Node7</title>
<path fill="none" stroke="midnightblue" d="M511.13,-156.233C518.734,-146.486 528.963,-133.374 537.632,-122.263"/>
<polygon fill="midnightblue" stroke="midnightblue" points="540.495,-124.283 543.886,-114.246 534.976,-119.977 540.495,-124.283"/>
</g>
<!-- Node8 -->
<g id="node9" class="node"><title>Node8</title>
<polygon fill="none" stroke="#bfbfbf" points="625,-84 625,-114 729,-114 729,-84 625,-84"/>
<text text-anchor="start" x="633" y="-102" font-family="Helvetica,sans-Serif" font-size="10.00">hydra/detail/external</text>
<text text-anchor="middle" x="677" y="-91" font-family="Helvetica,sans-Serif" font-size="10.00">/thrust/reduce.h</text>
</g>
<!-- Node0&#45;&gt;Node8 -->
<g id="edge8" class="edge"><title>Node0&#45;&gt;Node8</title>
<path fill="none" stroke="midnightblue" d="M535.393,-156.403C563.249,-145.307 602.244,-129.775 632.263,-117.819"/>
<polygon fill="midnightblue" stroke="midnightblue" points="633.673,-121.025 641.668,-114.073 631.083,-114.522 633.673,-121.025"/>
</g>
<!-- Node9 -->
<g id="node10" class="node"><title>Node9</title>
<polygon fill="none" stroke="#bfbfbf" points="747,-78.5 747,-119.5 869,-119.5 869,-78.5 747,-78.5"/>
<text text-anchor="start" x="755" y="-107.5" font-family="Helvetica,sans-Serif" font-size="10.00">hydra/detail/external</text>
<text text-anchor="start" x="755" y="-96.5" font-family="Helvetica,sans-Serif" font-size="10.00">/thrust/iterator/transform</text>
<text text-anchor="middle" x="808" y="-85.5" font-family="Helvetica,sans-Serif" font-size="10.00">_iterator.h</text>
</g>
<!-- Node0&#45;&gt;Node9 -->
<g id="edge9" class="edge"><title>Node0&#45;&gt;Node9</title>
<path fill="none" stroke="midnightblue" d="M572.423,-156.488C617.334,-147.483 676.403,-135.071 737.211,-120.123"/>
<polygon fill="midnightblue" stroke="midnightblue" points="738.118,-123.504 746.983,-117.702 736.435,-116.71 738.118,-123.504"/>
</g>
<!-- Node2 -->
<g id="node3" class="node"><title>Node2</title>
<polygon fill="none" stroke="#bfbfbf" points="0,-6 0,-36 108,-36 108,-6 0,-6"/>
<text text-anchor="start" x="8" y="-24" font-family="Helvetica,sans-Serif" font-size="10.00">hydra/detail/external</text>
<text text-anchor="middle" x="54" y="-13" font-family="Helvetica,sans-Serif" font-size="10.00">/thrust/detail/config.h</text>
</g>
<!-- Node1&#45;&gt;Node2 -->
<g id="edge2" class="edge"><title>Node1&#45;&gt;Node2</title>
<path fill="none" stroke="midnightblue" d="M159.349,-89.2818C141.189,-77.6836 108.57,-56.8511 84.4226,-41.4295"/>
<polygon fill="midnightblue" stroke="midnightblue" points="86.2639,-38.4526 75.9521,-36.0198 82.4961,-44.3521 86.2639,-38.4526"/>
</g>
<!-- Node3 -->
<g id="node4" class="node"><title>Node3</title>
<polygon fill="none" stroke="#bfbfbf" points="126,-0.5 126,-41.5 230,-41.5 230,-0.5 126,-0.5"/>
<text text-anchor="start" x="134" y="-29.5" font-family="Helvetica,sans-Serif" font-size="10.00">hydra/detail/external</text>
<text text-anchor="start" x="134" y="-18.5" font-family="Helvetica,sans-Serif" font-size="10.00">/thrust/detail/config</text>
<text text-anchor="middle" x="178" y="-7.5" font-family="Helvetica,sans-Serif" font-size="10.00">/host_device.h</text>
</g>
<!-- Node1&#45;&gt;Node3 -->
<g id="edge3" class="edge"><title>Node1&#45;&gt;Node3</title>
<path fill="none" stroke="midnightblue" d="M173.574,-89.2818C174.173,-80.1753 175.146,-65.376 176.028,-51.9727"/>
<polygon fill="midnightblue" stroke="midnightblue" points="179.543,-51.8666 176.707,-41.6584 172.558,-51.407 179.543,-51.8666"/>
</g>
<!-- Node5 -->
<g id="node6" class="node"><title>Node5</title>
<polygon fill="none" stroke="#bfbfbf" points="252,-6 252,-36 380,-36 380,-6 252,-6"/>
<text text-anchor="start" x="260" y="-24" font-family="Helvetica,sans-Serif" font-size="10.00">hydra/detail/external</text>
<text text-anchor="middle" x="316" y="-13" font-family="Helvetica,sans-Serif" font-size="10.00">/thrust/execution_policy.h</text>
</g>
<!-- Node4&#45;&gt;Node5 -->
<g id="edge5" class="edge"><title>Node4&#45;&gt;Node5</title>
<path fill="none" stroke="midnightblue" d="M316,-89.2818C316,-78.8027 316,-60.7855 316,-46.0317"/>
<polygon fill="midnightblue" stroke="midnightblue" points="319.5,-46.0198 316,-36.0198 312.5,-46.0199 319.5,-46.0198"/>
</g>
</g>
</svg>
