<?xml version="1.0" encoding="UTF-8" standalone="no"?>
<!DOCTYPE svg PUBLIC "-//W3C//DTD SVG 1.1//EN"
 "http://www.w3.org/Graphics/SVG/1.1/DTD/svg11.dtd">
<!-- Generated by graphviz version 2.38.0 (20140413.2041)
 -->
<!-- Title: GenzMalikRule.h Pages: 1 -->
<svg width="369pt" height="252pt"
 viewBox="0.00 0.00 368.50 252.00" xmlns="http://www.w3.org/2000/svg" xmlns:xlink="http://www.w3.org/1999/xlink">
<g id="graph0" class="graph" transform="scale(1 1) rotate(0) translate(4 248)">
<title>GenzMalikRule.h</title>
<!-- Node57 -->
<g id="node1" class="node"><title>Node57</title>
<polygon fill="#bfbfbf" stroke="black" points="192,-224.5 192,-243.5 284,-243.5 284,-224.5 192,-224.5"/>
<text text-anchor="middle" x="238" y="-231.5" font-family="Helvetica,sans-Serif" font-size="10.00">GenzMalikRule.h</text>
</g>
<!-- Node58 -->
<g id="node2" class="node"><title>Node58</title>
<g id="a_node2"><a xlink:href="a00170.html" target="_top" xlink:title="GenzMalikQuadrature.inl">
<polygon fill="none" stroke="black" points="221,-168.5 221,-187.5 345,-187.5 345,-168.5 221,-168.5"/>
<text text-anchor="middle" x="283" y="-175.5" font-family="Helvetica,sans-Serif" font-size="10.00">GenzMalikQuadrature.inl</text>
</a>
</g>
</g>
<!-- Node57&#45;&gt;Node58 -->
<g id="edge1" class="edge"><title>Node57&#45;&gt;Node58</title>
<path fill="none" stroke="midnightblue" d="M252.047,-216.144C259.887,-206.736 269.329,-195.405 275.707,-187.751"/>
<polygon fill="midnightblue" stroke="midnightblue" points="249.144,-214.16 245.431,-224.083 254.521,-218.641 249.144,-214.16"/>
</g>
<!-- Node59 -->
<g id="node3" class="node"><title>Node59</title>
<g id="a_node3"><a xlink:href="a00320.html" target="_top" xlink:title="GenzMalikQuadrature.h">
<polygon fill="none" stroke="black" points="134.5,-112.5 134.5,-131.5 253.5,-131.5 253.5,-112.5 134.5,-112.5"/>
<text text-anchor="middle" x="194" y="-119.5" font-family="Helvetica,sans-Serif" font-size="10.00">GenzMalikQuadrature.h</text>
</a>
</g>
</g>
<!-- Node57&#45;&gt;Node59 -->
<g id="edge8" class="edge"><title>Node57&#45;&gt;Node59</title>
<path fill="none" stroke="midnightblue" d="M226.678,-215.793C221.667,-207.622 216.012,-197.569 212,-188 203.85,-168.563 198.262,-144.324 195.662,-131.645"/>
<polygon fill="midnightblue" stroke="midnightblue" points="223.814,-217.812 232.129,-224.378 229.724,-214.06 223.814,-217.812"/>
</g>
<!-- Node58&#45;&gt;Node59 -->
<g id="edge2" class="edge"><title>Node58&#45;&gt;Node59</title>
<path fill="none" stroke="midnightblue" d="M259.762,-162.901C243.442,-152.999 222.135,-140.071 208.264,-131.655"/>
<polygon fill="midnightblue" stroke="midnightblue" points="258.336,-166.129 268.701,-168.324 261.967,-160.144 258.336,-166.129"/>
</g>
<!-- Node60 -->
<g id="node4" class="node"><title>Node60</title>
<g id="a_node4"><a xlink:href="a00146.html" target="_top" xlink:title="ProcessGenzMalikQuadrature.h">
<polygon fill="none" stroke="black" points="205.5,-56.5 205.5,-75.5 360.5,-75.5 360.5,-56.5 205.5,-56.5"/>
<text text-anchor="middle" x="283" y="-63.5" font-family="Helvetica,sans-Serif" font-size="10.00">ProcessGenzMalikQuadrature.h</text>
</a>
</g>
</g>
<!-- Node59&#45;&gt;Node60 -->
<g id="edge3" class="edge"><title>Node59&#45;&gt;Node60</title>
<path fill="none" stroke="midnightblue" d="M217.238,-106.901C233.558,-96.9986 254.865,-84.0705 268.736,-75.6545"/>
<polygon fill="midnightblue" stroke="midnightblue" points="215.033,-104.144 208.299,-112.324 218.664,-110.129 215.033,-104.144"/>
</g>
<!-- Node61 -->
<g id="node5" class="node"><title>Node61</title>
<g id="a_node5"><a xlink:href="a00452.html" target="_top" xlink:title="multidimensional_fit.inl">
<polygon fill="none" stroke="black" points="71,-56.5 71,-75.5 187,-75.5 187,-56.5 71,-56.5"/>
<text text-anchor="middle" x="129" y="-63.5" font-family="Helvetica,sans-Serif" font-size="10.00">multidimensional_fit.inl</text>
</a>
</g>
</g>
<!-- Node59&#45;&gt;Node61 -->
<g id="edge5" class="edge"><title>Node59&#45;&gt;Node61</title>
<path fill="none" stroke="midnightblue" d="M175.727,-105.82C164.082,-96.1452 149.401,-83.9481 139.633,-75.8339"/>
<polygon fill="midnightblue" stroke="midnightblue" points="173.628,-108.626 183.557,-112.324 178.101,-103.242 173.628,-108.626"/>
</g>
<!-- Node60&#45;&gt;Node58 -->
<g id="edge4" class="edge"><title>Node60&#45;&gt;Node58</title>
<path fill="none" stroke="midnightblue" d="M283,-85.5974C283,-109.666 283,-150.617 283,-168.368"/>
<polygon fill="midnightblue" stroke="midnightblue" points="286.5,-85.5914 283,-75.5914 279.5,-85.5915 286.5,-85.5914"/>
</g>
<!-- Node62 -->
<g id="node6" class="node"><title>Node62</title>
<g id="a_node6"><a xlink:href="a00446.html" target="_top" xlink:title="multidimensional_fit.cpp">
<polygon fill="none" stroke="black" points="0,-0.5 0,-19.5 122,-19.5 122,-0.5 0,-0.5"/>
<text text-anchor="middle" x="61" y="-7.5" font-family="Helvetica,sans-Serif" font-size="10.00">multidimensional_fit.cpp</text>
</a>
</g>
</g>
<!-- Node61&#45;&gt;Node62 -->
<g id="edge6" class="edge"><title>Node61&#45;&gt;Node62</title>
<path fill="none" stroke="midnightblue" d="M110.238,-50.1008C98.0001,-40.3824 82.4413,-28.0269 72.1242,-19.8339"/>
<polygon fill="midnightblue" stroke="midnightblue" points="108.067,-52.846 118.075,-56.324 112.42,-47.3642 108.067,-52.846"/>
</g>
<!-- Node63 -->
<g id="node7" class="node"><title>Node63</title>
<g id="a_node7"><a xlink:href="a00449.html" target="_top" xlink:title="multidimensional_fit.cu">
<polygon fill="none" stroke="black" points="140,-0.5 140,-19.5 256,-19.5 256,-0.5 140,-0.5"/>
<text text-anchor="middle" x="198" y="-7.5" font-family="Helvetica,sans-Serif" font-size="10.00">multidimensional_fit.cu</text>
</a>
</g>
</g>
<!-- Node61&#45;&gt;Node63 -->
<g id="edge7" class="edge"><title>Node61&#45;&gt;Node63</title>
<path fill="none" stroke="midnightblue" d="M148.038,-50.1008C160.456,-40.3824 176.243,-28.0269 186.712,-19.8339"/>
<polygon fill="midnightblue" stroke="midnightblue" points="145.804,-47.4046 140.086,-56.324 150.118,-52.9171 145.804,-47.4046"/>
</g>
</g>
</svg>
