<?xml version="1.0" encoding="UTF-8" standalone="no"?>
<!DOCTYPE svg PUBLIC "-//W3C//DTD SVG 1.1//EN"
 "http://www.w3.org/Graphics/SVG/1.1/DTD/svg11.dtd">
<!-- Generated by graphviz version 2.38.0 (20140413.2041)
 -->
<!-- Title: Parameter.h Pages: 1 -->
<!--zoomable 430 -->
<svg id="main" version="1.1" xmlns="http://www.w3.org/2000/svg" xmlns:xlink="http://www.w3.org/1999/xlink" xml:space="preserve" onload="init(evt)">
<style type="text/css"><![CDATA[
.edge:hover path { stroke: red; }
.edge:hover polygon { stroke: red; fill: red; }
]]></style>
<script type="text/javascript"><![CDATA[
var edges = document.getElementsByTagName('g');
if (edges && edges.length) {
  for (var i=0;i<edges.length;i++) {
    if (edges[i].id.substr(0,4)=='edge') {
      edges[i].setAttribute('class','edge');
    }
  }
}
]]></script>
        <defs>
                <circle id="rim" cx="0" cy="0" r="7"/>
                <circle id="rim2" cx="0" cy="0" r="3.5"/>
                <g id="zoomPlus">
                        <use xlink:href="#rim" fill="#404040">
                                <set attributeName="fill" to="#808080" begin="zoomplus.mouseover" end="zoomplus.mouseout"/>
                        </use>
                        <path d="M-4,0h8M0,-4v8" fill="none" stroke="white" stroke-width="1.5" pointer-events="none"/>
                </g>
                <g id="zoomMin">
                        <use xlink:href="#rim" fill="#404040">
                                <set attributeName="fill" to="#808080" begin="zoomminus.mouseover" end="zoomminus.mouseout"/>
                        </use>
                        <path d="M-4,0h8" fill="none" stroke="white" stroke-width="1.5" pointer-events="none"/>
                </g>
                <g id="dirArrow">
                        <path fill="none" stroke="white" stroke-width="1.5" d="M0,-3.0v7 M-2.5,-0.5L0,-3.0L2.5,-0.5"/>
                </g>
               <g id="resetDef">
                       <use xlink:href="#rim2" fill="#404040">
                               <set attributeName="fill" to="#808080" begin="reset.mouseover" end="reset.mouseout"/>
                       </use>
               </g>
        </defs>

<script type="text/javascript">
var viewWidth = 1635;
var viewHeight = 430;
var sectionId = 'dynsection-0';
</script>
<script xlink:href="svgpan.js"/>
<svg id="graph" class="graph">
<g id="viewport">
<title>Parameter.h</title>
<!-- Node0 -->
<g id="node1" class="node"><title>Node0</title>
<polygon fill="#bfbfbf" stroke="black" points="1451.5,-402.5 1451.5,-421.5 1521.5,-421.5 1521.5,-402.5 1451.5,-402.5"/>
<text text-anchor="middle" x="1486.5" y="-409.5" font-family="Helvetica,sans-Serif" font-size="10.00">Parameter.h</text>
</g>
<!-- Node1 -->
<g id="node2" class="node"><title>Node1</title>
<g id="a_node2"><a xlink:href="a00053.html" target="_top" xlink:title="hydra/detail/Config.h">
<polygon fill="none" stroke="black" points="962,-78.5 962,-97.5 1069,-97.5 1069,-78.5 962,-78.5"/>
<text text-anchor="middle" x="1015.5" y="-85.5" font-family="Helvetica,sans-Serif" font-size="10.00">hydra/detail/Config.h</text>
</a>
</g>
</g>
<!-- Node0&#45;&gt;Node1 -->
<g id="edge1" class="edge"><title>Node0&#45;&gt;Node1</title>
<path fill="none" stroke="midnightblue" d="M1486.5,-402.491C1486.5,-382.736 1486.5,-332.224 1486.5,-290 1486.5,-290 1486.5,-290 1486.5,-221 1486.5,-137.388 1207.82,-104.304 1079.18,-93.4867"/>
<polygon fill="midnightblue" stroke="midnightblue" points="1079.32,-89.9866 1069.07,-92.6563 1078.75,-96.9631 1079.32,-89.9866"/>
</g>
<!-- Node4 -->
<g id="node5" class="node"><title>Node4</title>
<g id="a_node5"><a xlink:href="a00383.html" target="_top" xlink:title="Common and useful typedefs. ">
<polygon fill="none" stroke="black" points="0,-78.5 0,-97.5 79,-97.5 79,-78.5 0,-78.5"/>
<text text-anchor="middle" x="39.5" y="-85.5" font-family="Helvetica,sans-Serif" font-size="10.00">hydra/Types.h</text>
</a>
</g>
</g>
<!-- Node0&#45;&gt;Node4 -->
<g id="edge4" class="edge"><title>Node0&#45;&gt;Node4</title>
<path fill="none" stroke="midnightblue" d="M1451.45,-409.959C1230.47,-403.17 39.5,-363.185 39.5,-290 39.5,-290 39.5,-290 39.5,-221 39.5,-180.658 39.5,-133.38 39.5,-107.782"/>
<polygon fill="midnightblue" stroke="midnightblue" points="43.0001,-107.649 39.5,-97.6487 36.0001,-107.649 43.0001,-107.649"/>
</g>
<!-- Node5 -->
<g id="node6" class="node"><title>Node5</title>
<g id="a_node6"><a xlink:href="a00248.html" target="_top" xlink:title="hydra/detail/TypeTraits.h">
<polygon fill="none" stroke="black" points="1122,-346.5 1122,-365.5 1247,-365.5 1247,-346.5 1122,-346.5"/>
<text text-anchor="middle" x="1184.5" y="-353.5" font-family="Helvetica,sans-Serif" font-size="10.00">hydra/detail/TypeTraits.h</text>
</a>
</g>
</g>
<!-- Node0&#45;&gt;Node5 -->
<g id="edge5" class="edge"><title>Node0&#45;&gt;Node5</title>
<path fill="none" stroke="midnightblue" d="M1451.27,-404.7C1399.9,-395.515 1303.87,-378.344 1242.13,-367.304"/>
<polygon fill="midnightblue" stroke="midnightblue" points="1242.61,-363.835 1232.15,-365.52 1241.38,-370.725 1242.61,-363.835"/>
</g>
<!-- Node29 -->
<g id="node30" class="node"><title>Node29</title>
<polygon fill="none" stroke="#bfbfbf" points="1515,-346.5 1515,-365.5 1556,-365.5 1556,-346.5 1515,-346.5"/>
<text text-anchor="middle" x="1535.5" y="-353.5" font-family="Helvetica,sans-Serif" font-size="10.00">string</text>
</g>
<!-- Node0&#45;&gt;Node29 -->
<g id="edge43" class="edge"><title>Node0&#45;&gt;Node29</title>
<path fill="none" stroke="midnightblue" d="M1494.59,-402.083C1501.66,-394.298 1512.09,-382.801 1520.65,-373.367"/>
<polygon fill="midnightblue" stroke="midnightblue" points="1523.43,-375.509 1527.56,-365.751 1518.25,-370.805 1523.43,-375.509"/>
</g>
<!-- Node30 -->
<g id="node31" class="node"><title>Node30</title>
<polygon fill="none" stroke="#bfbfbf" points="1574.5,-346.5 1574.5,-365.5 1626.5,-365.5 1626.5,-346.5 1574.5,-346.5"/>
<text text-anchor="middle" x="1600.5" y="-353.5" font-family="Helvetica,sans-Serif" font-size="10.00">ostream</text>
</g>
<!-- Node0&#45;&gt;Node30 -->
<g id="edge44" class="edge"><title>Node0&#45;&gt;Node30</title>
<path fill="none" stroke="midnightblue" d="M1504.56,-402.444C1523.07,-393.675 1552.08,-379.935 1573.36,-369.858"/>
<polygon fill="midnightblue" stroke="midnightblue" points="1574.98,-372.96 1582.52,-365.516 1571.99,-366.634 1574.98,-372.96"/>
</g>
<!-- Node2 -->
<g id="node3" class="node"><title>Node2</title>
<polygon fill="none" stroke="#bfbfbf" points="899.5,-6 899.5,-36 1007.5,-36 1007.5,-6 899.5,-6"/>
<text text-anchor="start" x="907.5" y="-24" font-family="Helvetica,sans-Serif" font-size="10.00">hydra/detail/external</text>
<text text-anchor="middle" x="953.5" y="-13" font-family="Helvetica,sans-Serif" font-size="10.00">/thrust/detail/config.h</text>
</g>
<!-- Node1&#45;&gt;Node2 -->
<g id="edge2" class="edge"><title>Node1&#45;&gt;Node2</title>
<path fill="none" stroke="midnightblue" d="M1007.14,-78.2338C998.679,-69.3649 985.274,-55.3111 973.981,-43.4722"/>
<polygon fill="midnightblue" stroke="midnightblue" points="976.374,-40.9094 966.939,-36.089 971.308,-45.7409 976.374,-40.9094"/>
</g>
<!-- Node3 -->
<g id="node4" class="node"><title>Node3</title>
<polygon fill="none" stroke="#bfbfbf" points="1025.5,-0.5 1025.5,-41.5 1129.5,-41.5 1129.5,-0.5 1025.5,-0.5"/>
<text text-anchor="start" x="1033.5" y="-29.5" font-family="Helvetica,sans-Serif" font-size="10.00">hydra/detail/external</text>
<text text-anchor="start" x="1033.5" y="-18.5" font-family="Helvetica,sans-Serif" font-size="10.00">/thrust/detail/config</text>
<text text-anchor="middle" x="1077.5" y="-7.5" font-family="Helvetica,sans-Serif" font-size="10.00">/host_device.h</text>
</g>
<!-- Node1&#45;&gt;Node3 -->
<g id="edge3" class="edge"><title>Node1&#45;&gt;Node3</title>
<path fill="none" stroke="midnightblue" d="M1023.86,-78.2338C1031.04,-70.705 1041.79,-59.4398 1051.78,-48.9649"/>
<polygon fill="midnightblue" stroke="midnightblue" points="1054.49,-51.1939 1058.86,-41.5421 1049.43,-46.3624 1054.49,-51.1939"/>
</g>
<!-- Node5&#45;&gt;Node1 -->
<g id="edge6" class="edge"><title>Node5&#45;&gt;Node1</title>
<path fill="none" stroke="midnightblue" d="M1187.82,-346.216C1199.39,-313.925 1234.57,-200.241 1183.5,-134 1170.53,-117.175 1121.06,-105.25 1079.13,-97.9219"/>
<polygon fill="midnightblue" stroke="midnightblue" points="1079.66,-94.4616 1069.21,-96.2479 1078.49,-101.364 1079.66,-94.4616"/>
</g>
<!-- Node6 -->
<g id="node7" class="node"><title>Node6</title>
<g id="a_node7"><a xlink:href="a00017.html" target="_top" xlink:title="Typedefs for useful container classes used in MCBooster. ">
<polygon fill="none" stroke="black" points="1022,-279.5 1022,-298.5 1121,-298.5 1121,-279.5 1022,-279.5"/>
<text text-anchor="middle" x="1071.5" y="-286.5" font-family="Helvetica,sans-Serif" font-size="10.00">hydra/Containers.h</text>
</a>
</g>
</g>
<!-- Node5&#45;&gt;Node6 -->
<g id="edge7" class="edge"><title>Node5&#45;&gt;Node6</title>
<path fill="none" stroke="midnightblue" d="M1169.26,-346.234C1150.28,-335.318 1117.65,-316.549 1095.35,-303.721"/>
<polygon fill="midnightblue" stroke="midnightblue" points="1096.91,-300.58 1086.5,-298.627 1093.42,-306.647 1096.91,-300.58"/>
</g>
<!-- Node19 -->
<g id="node20" class="node"><title>Node19</title>
<polygon fill="none" stroke="#bfbfbf" points="1052.5,-140 1052.5,-170 1156.5,-170 1156.5,-140 1052.5,-140"/>
<text text-anchor="start" x="1060.5" y="-158" font-family="Helvetica,sans-Serif" font-size="10.00">hydra/detail/external</text>
<text text-anchor="middle" x="1104.5" y="-147" font-family="Helvetica,sans-Serif" font-size="10.00">/thrust/complex.h</text>
</g>
<!-- Node5&#45;&gt;Node19 -->
<g id="edge38" class="edge"><title>Node5&#45;&gt;Node19</title>
<path fill="none" stroke="midnightblue" d="M1181.06,-346.282C1172.24,-323.935 1148.05,-262.788 1127.5,-212 1123.18,-201.332 1118.35,-189.544 1114.23,-179.547"/>
<polygon fill="midnightblue" stroke="midnightblue" points="1117.45,-178.164 1110.4,-170.254 1110.98,-180.833 1117.45,-178.164"/>
</g>
<!-- Node24 -->
<g id="node25" class="node"><title>Node24</title>
<polygon fill="none" stroke="#bfbfbf" points="1250.5,-279.5 1250.5,-298.5 1312.5,-298.5 1312.5,-279.5 1250.5,-279.5"/>
<text text-anchor="middle" x="1281.5" y="-286.5" font-family="Helvetica,sans-Serif" font-size="10.00">type_traits</text>
</g>
<!-- Node5&#45;&gt;Node24 -->
<g id="edge37" class="edge"><title>Node5&#45;&gt;Node24</title>
<path fill="none" stroke="midnightblue" d="M1197.58,-346.234C1213.65,-335.464 1241.13,-317.05 1260.25,-304.239"/>
<polygon fill="midnightblue" stroke="midnightblue" points="1262.27,-307.102 1268.63,-298.627 1258.37,-301.287 1262.27,-307.102"/>
</g>
<!-- Node25 -->
<g id="node26" class="node"><title>Node25</title>
<polygon fill="none" stroke="#bfbfbf" points="1330.5,-274 1330.5,-304 1458.5,-304 1458.5,-274 1330.5,-274"/>
<text text-anchor="start" x="1338.5" y="-292" font-family="Helvetica,sans-Serif" font-size="10.00">hydra/detail/external</text>
<text text-anchor="middle" x="1394.5" y="-281" font-family="Helvetica,sans-Serif" font-size="10.00">/thrust/detail/type_traits.h</text>
</g>
<!-- Node5&#45;&gt;Node25 -->
<g id="edge39" class="edge"><title>Node5&#45;&gt;Node25</title>
<path fill="none" stroke="midnightblue" d="M1212.39,-346.369C1244.65,-336.383 1298.56,-319.697 1339.37,-307.064"/>
<polygon fill="midnightblue" stroke="midnightblue" points="1340.66,-310.328 1349.18,-304.028 1338.59,-303.641 1340.66,-310.328"/>
</g>
<!-- Node26 -->
<g id="node27" class="node"><title>Node26</title>
<polygon fill="none" stroke="#bfbfbf" points="616.5,-274 616.5,-304 744.5,-304 744.5,-274 616.5,-274"/>
<text text-anchor="start" x="624.5" y="-292" font-family="Helvetica,sans-Serif" font-size="10.00">hydra/detail/external</text>
<text text-anchor="middle" x="680.5" y="-281" font-family="Helvetica,sans-Serif" font-size="10.00">/thrust/execution_policy.h</text>
</g>
<!-- Node5&#45;&gt;Node26 -->
<g id="edge40" class="edge"><title>Node5&#45;&gt;Node26</title>
<path fill="none" stroke="midnightblue" d="M1121.94,-351.682C1037.67,-346.482 883.264,-334.381 753.5,-310 748.173,-308.999 742.667,-307.801 737.178,-306.496"/>
<polygon fill="midnightblue" stroke="midnightblue" points="737.909,-303.072 727.36,-304.051 736.217,-309.864 737.909,-303.072"/>
</g>
<!-- Node27 -->
<g id="node28" class="node"><title>Node27</title>
<polygon fill="none" stroke="#bfbfbf" points="762.5,-268.5 762.5,-309.5 872.5,-309.5 872.5,-268.5 762.5,-268.5"/>
<text text-anchor="start" x="770.5" y="-297.5" font-family="Helvetica,sans-Serif" font-size="10.00">hydra/detail/external</text>
<text text-anchor="start" x="770.5" y="-286.5" font-family="Helvetica,sans-Serif" font-size="10.00">/thrust/iterator/iterator</text>
<text text-anchor="middle" x="817.5" y="-275.5" font-family="Helvetica,sans-Serif" font-size="10.00">_categories.h</text>
</g>
<!-- Node5&#45;&gt;Node27 -->
<g id="edge41" class="edge"><title>Node5&#45;&gt;Node27</title>
<path fill="none" stroke="midnightblue" d="M1121.81,-348.45C1060.38,-341.377 964.306,-328.569 882.5,-310 882.399,-309.977 882.298,-309.954 882.198,-309.931"/>
<polygon fill="midnightblue" stroke="midnightblue" points="883.212,-306.576 872.666,-307.593 881.544,-313.375 883.212,-306.576"/>
</g>
<!-- Node28 -->
<g id="node29" class="node"><title>Node28</title>
<polygon fill="none" stroke="#bfbfbf" points="891,-268.5 891,-309.5 1004,-309.5 1004,-268.5 891,-268.5"/>
<text text-anchor="start" x="899" y="-297.5" font-family="Helvetica,sans-Serif" font-size="10.00">hydra/detail/external</text>
<text text-anchor="start" x="899" y="-286.5" font-family="Helvetica,sans-Serif" font-size="10.00">/thrust/iterator/detail</text>
<text text-anchor="middle" x="947.5" y="-275.5" font-family="Helvetica,sans-Serif" font-size="10.00">/is_iterator_category.h</text>
</g>
<!-- Node5&#45;&gt;Node28 -->
<g id="edge42" class="edge"><title>Node5&#45;&gt;Node28</title>
<path fill="none" stroke="midnightblue" d="M1150.66,-346.486C1118.11,-338.213 1067.3,-325.071 1014.27,-310.172"/>
<polygon fill="midnightblue" stroke="midnightblue" points="1014.92,-306.719 1004.34,-307.37 1013.02,-313.455 1014.92,-306.719"/>
</g>
<!-- Node6&#45;&gt;Node1 -->
<g id="edge10" class="edge"><title>Node6&#45;&gt;Node1</title>
<path fill="none" stroke="midnightblue" d="M1084.28,-279.301C1118.03,-255.266 1204.39,-186.271 1165.5,-134 1145.66,-107.33 1110.55,-95.8705 1079.29,-91.1761"/>
<polygon fill="midnightblue" stroke="midnightblue" points="1079.67,-87.6957 1069.3,-89.8789 1078.76,-94.6374 1079.67,-87.6957"/>
</g>
<!-- Node6&#45;&gt;Node4 -->
<g id="edge11" class="edge"><title>Node6&#45;&gt;Node4</title>
<path fill="none" stroke="midnightblue" d="M1051.22,-279.42C1040.26,-275.19 1026.36,-270.476 1013.5,-268 687.979,-205.338 594.652,-291.292 268.5,-232 188.57,-217.469 158.718,-225.759 94.5,-176 71.0322,-157.816 54.8599,-126.592 46.3979,-106.911"/>
<polygon fill="midnightblue" stroke="midnightblue" points="49.6022,-105.5 42.5851,-97.5618 43.1205,-108.143 49.6022,-105.5"/>
</g>
<!-- Node7 -->
<g id="node8" class="node"><title>Node7</title>
<polygon fill="none" stroke="#bfbfbf" points="1074.5,-212.5 1074.5,-231.5 1118.5,-231.5 1118.5,-212.5 1074.5,-212.5"/>
<text text-anchor="middle" x="1096.5" y="-219.5" font-family="Helvetica,sans-Serif" font-size="10.00">vector</text>
</g>
<!-- Node6&#45;&gt;Node7 -->
<g id="edge8" class="edge"><title>Node6&#45;&gt;Node7</title>
<path fill="none" stroke="midnightblue" d="M1074.87,-279.234C1078.62,-269.488 1084.78,-253.481 1089.56,-241.032"/>
<polygon fill="midnightblue" stroke="midnightblue" points="1092.86,-242.217 1093.18,-231.627 1086.33,-239.704 1092.86,-242.217"/>
</g>
<!-- Node8 -->
<g id="node9" class="node"><title>Node8</title>
<polygon fill="none" stroke="#bfbfbf" points="277.5,-212.5 277.5,-231.5 315.5,-231.5 315.5,-212.5 277.5,-212.5"/>
<text text-anchor="middle" x="296.5" y="-219.5" font-family="Helvetica,sans-Serif" font-size="10.00">array</text>
</g>
<!-- Node6&#45;&gt;Node8 -->
<g id="edge9" class="edge"><title>Node6&#45;&gt;Node8</title>
<path fill="none" stroke="midnightblue" d="M1051.21,-279.442C1040.25,-275.219 1026.36,-270.504 1013.5,-268 714.692,-209.814 630.061,-280.325 329.5,-232 328.214,-231.793 326.906,-231.556 325.589,-231.294"/>
<polygon fill="midnightblue" stroke="midnightblue" points="326.079,-227.814 315.543,-228.936 324.479,-234.629 326.079,-227.814"/>
</g>
<!-- Node9 -->
<g id="node10" class="node"><title>Node9</title>
<g id="a_node10"><a xlink:href="a00392.html" target="_top" xlink:title="hydra/Vector3R.h">
<polygon fill="none" stroke="black" points="169,-145.5 169,-164.5 262,-164.5 262,-145.5 169,-145.5"/>
<text text-anchor="middle" x="215.5" y="-152.5" font-family="Helvetica,sans-Serif" font-size="10.00">hydra/Vector3R.h</text>
</a>
</g>
</g>
<!-- Node6&#45;&gt;Node9 -->
<g id="edge12" class="edge"><title>Node6&#45;&gt;Node9</title>
<path fill="none" stroke="midnightblue" d="M1051.21,-279.456C1040.25,-275.237 1026.36,-270.521 1013.5,-268 729.141,-212.235 641.788,-309.253 362.5,-232 344.105,-226.912 341.433,-220.805 324.5,-212 296.219,-197.293 263.706,-180.619 241.601,-169.318"/>
<polygon fill="midnightblue" stroke="midnightblue" points="243.016,-166.111 232.519,-164.678 239.832,-172.345 243.016,-166.111"/>
</g>
<!-- Node17 -->
<g id="node18" class="node"><title>Node17</title>
<g id="a_node18"><a xlink:href="a00395.html" target="_top" xlink:title="hydra/Vector4R.h">
<polygon fill="none" stroke="black" points="372,-212.5 372,-231.5 465,-231.5 465,-212.5 372,-212.5"/>
<text text-anchor="middle" x="418.5" y="-219.5" font-family="Helvetica,sans-Serif" font-size="10.00">hydra/Vector4R.h</text>
</a>
</g>
</g>
<!-- Node6&#45;&gt;Node17 -->
<g id="edge22" class="edge"><title>Node6&#45;&gt;Node17</title>
<path fill="none" stroke="midnightblue" d="M1050.92,-279.459C1039.99,-275.295 1026.23,-270.63 1013.5,-268 819.102,-227.829 582.361,-222.583 475.582,-222.485"/>
<polygon fill="midnightblue" stroke="midnightblue" points="475.351,-218.985 465.353,-222.491 475.355,-225.985 475.351,-218.985"/>
</g>
<!-- Node6&#45;&gt;Node19 -->
<g id="edge30" class="edge"><title>Node6&#45;&gt;Node19</title>
<path fill="none" stroke="midnightblue" d="M1068.75,-279.329C1064.64,-264.965 1058.13,-235.488 1065.5,-212 1069.34,-199.76 1076.91,-187.856 1084.37,-178.193"/>
<polygon fill="midnightblue" stroke="midnightblue" points="1087.18,-180.285 1090.79,-170.326 1081.76,-175.856 1087.18,-180.285"/>
</g>
<!-- Node20 -->
<g id="node21" class="node"><title>Node20</title>
<g id="a_node21"><a xlink:href="a00059.html" target="_top" xlink:title="hydra/detail/Containers.inl">
<polygon fill="none" stroke="black" points="836.5,-212.5 836.5,-231.5 966.5,-231.5 966.5,-212.5 836.5,-212.5"/>
<text text-anchor="middle" x="901.5" y="-219.5" font-family="Helvetica,sans-Serif" font-size="10.00">hydra/detail/Containers.inl</text>
</a>
</g>
</g>
<!-- Node6&#45;&gt;Node20 -->
<g id="edge31" class="edge"><title>Node6&#45;&gt;Node20</title>
<path fill="none" stroke="midnightblue" d="M1048.93,-279.369C1019.25,-268.022 966.949,-248.025 933.283,-235.152"/>
<polygon fill="midnightblue" stroke="midnightblue" points="934.488,-231.866 923.897,-231.564 931.988,-238.404 934.488,-231.866"/>
</g>
<!-- Node9&#45;&gt;Node1 -->
<g id="edge13" class="edge"><title>Node9&#45;&gt;Node1</title>
<path fill="none" stroke="midnightblue" d="M262.11,-145.971C287.323,-141.873 319.044,-137.109 347.5,-134 568.682,-109.836 832.579,-96.6487 951.645,-91.533"/>
<polygon fill="midnightblue" stroke="midnightblue" points="951.84,-95.028 961.683,-91.1062 951.543,-88.0343 951.84,-95.028"/>
</g>
<!-- Node9&#45;&gt;Node4 -->
<g id="edge14" class="edge"><title>Node9&#45;&gt;Node4</title>
<path fill="none" stroke="midnightblue" d="M192.129,-145.369C161.405,-134.022 107.259,-114.025 72.4045,-101.152"/>
<polygon fill="midnightblue" stroke="midnightblue" points="73.2811,-97.7449 62.6878,-97.5637 70.8559,-104.311 73.2811,-97.7449"/>
</g>
<!-- Node10 -->
<g id="node11" class="node"><title>Node10</title>
<polygon fill="none" stroke="#bfbfbf" points="97,-78.5 97,-97.5 142,-97.5 142,-78.5 97,-78.5"/>
<text text-anchor="middle" x="119.5" y="-85.5" font-family="Helvetica,sans-Serif" font-size="10.00">iosfwd</text>
</g>
<!-- Node9&#45;&gt;Node10 -->
<g id="edge15" class="edge"><title>Node9&#45;&gt;Node10</title>
<path fill="none" stroke="midnightblue" d="M202.553,-145.234C186.647,-134.464 159.451,-116.05 140.531,-103.239"/>
<polygon fill="midnightblue" stroke="midnightblue" points="142.485,-100.336 132.242,-97.6273 138.56,-106.132 142.485,-100.336"/>
</g>
<!-- Node11 -->
<g id="node12" class="node"><title>Node11</title>
<polygon fill="none" stroke="#bfbfbf" points="302.5,-78.5 302.5,-97.5 356.5,-97.5 356.5,-78.5 302.5,-78.5"/>
<text text-anchor="middle" x="329.5" y="-85.5" font-family="Helvetica,sans-Serif" font-size="10.00">iostream</text>
</g>
<!-- Node9&#45;&gt;Node11 -->
<g id="edge16" class="edge"><title>Node9&#45;&gt;Node11</title>
<path fill="none" stroke="midnightblue" d="M230.875,-145.234C250.019,-134.318 282.938,-115.549 305.436,-102.721"/>
<polygon fill="midnightblue" stroke="midnightblue" points="307.416,-105.621 314.369,-97.6273 303.948,-99.54 307.416,-105.621"/>
</g>
<!-- Node12 -->
<g id="node13" class="node"><title>Node12</title>
<polygon fill="none" stroke="#bfbfbf" points="375,-78.5 375,-97.5 422,-97.5 422,-78.5 375,-78.5"/>
<text text-anchor="middle" x="398.5" y="-85.5" font-family="Helvetica,sans-Serif" font-size="10.00">math.h</text>
</g>
<!-- Node9&#45;&gt;Node12 -->
<g id="edge17" class="edge"><title>Node9&#45;&gt;Node12</title>
<path fill="none" stroke="midnightblue" d="M239.801,-145.369C272.061,-133.91 329.158,-113.63 365.353,-100.774"/>
<polygon fill="midnightblue" stroke="midnightblue" points="366.717,-104.003 374.969,-97.3581 364.374,-97.4071 366.717,-104.003"/>
</g>
<!-- Node13 -->
<g id="node14" class="node"><title>Node13</title>
<g id="a_node14"><a xlink:href="a00011.html" target="_top" xlink:title="hydra/Collection.h">
<polygon fill="none" stroke="black" points="454,-78.5 454,-97.5 549,-97.5 549,-78.5 454,-78.5"/>
<text text-anchor="middle" x="501.5" y="-85.5" font-family="Helvetica,sans-Serif" font-size="10.00">hydra/Collection.h</text>
</a>
</g>
</g>
<!-- Node9&#45;&gt;Node13 -->
<g id="edge18" class="edge"><title>Node9&#45;&gt;Node13</title>
<path fill="none" stroke="midnightblue" d="M253.184,-145.436C304.732,-133.72 397.253,-112.693 453.642,-99.8768"/>
<polygon fill="midnightblue" stroke="midnightblue" points="454.757,-103.213 463.733,-97.5834 453.206,-96.3867 454.757,-103.213"/>
</g>
<!-- Node16 -->
<g id="node17" class="node"><title>Node16</title>
<g id="a_node17"><a xlink:href="a00269.html" target="_top" xlink:title="hydra/detail/Vector3R.inl">
<polygon fill="none" stroke="black" points="160.5,-78.5 160.5,-97.5 284.5,-97.5 284.5,-78.5 160.5,-78.5"/>
<text text-anchor="middle" x="222.5" y="-85.5" font-family="Helvetica,sans-Serif" font-size="10.00">hydra/detail/Vector3R.inl</text>
</a>
</g>
</g>
<!-- Node9&#45;&gt;Node16 -->
<g id="edge21" class="edge"><title>Node9&#45;&gt;Node16</title>
<path fill="none" stroke="midnightblue" d="M216.444,-145.234C217.473,-135.683 219.149,-120.118 220.477,-107.783"/>
<polygon fill="midnightblue" stroke="midnightblue" points="223.98,-107.945 221.571,-97.6273 217.02,-107.195 223.98,-107.945"/>
</g>
<!-- Node14 -->
<g id="node15" class="node"><title>Node14</title>
<polygon fill="none" stroke="#bfbfbf" points="376.5,-6 376.5,-36 480.5,-36 480.5,-6 376.5,-6"/>
<text text-anchor="start" x="384.5" y="-24" font-family="Helvetica,sans-Serif" font-size="10.00">hydra/detail/external</text>
<text text-anchor="middle" x="428.5" y="-13" font-family="Helvetica,sans-Serif" font-size="10.00">/thrust/tuple.h</text>
</g>
<!-- Node13&#45;&gt;Node14 -->
<g id="edge19" class="edge"><title>Node13&#45;&gt;Node14</title>
<path fill="none" stroke="midnightblue" d="M491.655,-78.2338C481.505,-69.1959 465.308,-54.7739 451.858,-42.7982"/>
<polygon fill="midnightblue" stroke="midnightblue" points="454.119,-40.1251 444.323,-36.089 449.464,-45.353 454.119,-40.1251"/>
</g>
<!-- Node15 -->
<g id="node16" class="node"><title>Node15</title>
<polygon fill="none" stroke="#bfbfbf" points="499,-0.5 499,-41.5 648,-41.5 648,-0.5 499,-0.5"/>
<text text-anchor="start" x="507" y="-29.5" font-family="Helvetica,sans-Serif" font-size="10.00">hydra/detail/external</text>
<text text-anchor="start" x="507" y="-18.5" font-family="Helvetica,sans-Serif" font-size="10.00">/thrust/iterator/detail</text>
<text text-anchor="middle" x="573.5" y="-7.5" font-family="Helvetica,sans-Serif" font-size="10.00">/tuple_of_iterator_references.h</text>
</g>
<!-- Node13&#45;&gt;Node15 -->
<g id="edge20" class="edge"><title>Node13&#45;&gt;Node15</title>
<path fill="none" stroke="midnightblue" d="M511.21,-78.2338C519.712,-70.5588 532.514,-59.0009 544.306,-48.3557"/>
<polygon fill="midnightblue" stroke="midnightblue" points="546.776,-50.8411 551.853,-41.5421 542.085,-45.6452 546.776,-50.8411"/>
</g>
<!-- Node17&#45;&gt;Node1 -->
<g id="edge25" class="edge"><title>Node17&#45;&gt;Node1</title>
<path fill="none" stroke="midnightblue" d="M436.63,-212.498C455.293,-203.661 485.144,-189.288 510.5,-176 544.339,-158.267 549.087,-145.559 585.5,-134 652.073,-112.867 849.109,-98.6779 951.735,-92.5054"/>
<polygon fill="midnightblue" stroke="midnightblue" points="952.19,-95.9846 961.965,-91.8979 951.775,-88.997 952.19,-95.9846"/>
</g>
<!-- Node17&#45;&gt;Node4 -->
<g id="edge26" class="edge"><title>Node17&#45;&gt;Node4</title>
<path fill="none" stroke="midnightblue" d="M371.978,-215.482C308.139,-207.475 197.023,-191.85 159.5,-176 137.803,-166.835 85.7744,-126.29 57.8885,-103.931"/>
<polygon fill="midnightblue" stroke="midnightblue" points="60.0524,-101.179 50.0697,-97.6301 55.6602,-106.63 60.0524,-101.179"/>
</g>
<!-- Node17&#45;&gt;Node9 -->
<g id="edge27" class="edge"><title>Node17&#45;&gt;Node9</title>
<path fill="none" stroke="midnightblue" d="M391.252,-212.453C362.647,-203.46 316.374,-188.854 276.5,-176 268.19,-173.321 259.253,-170.409 250.851,-167.657"/>
<polygon fill="midnightblue" stroke="midnightblue" points="251.897,-164.316 241.304,-164.523 249.714,-170.967 251.897,-164.316"/>
</g>
<!-- Node17&#45;&gt;Node11 -->
<g id="edge24" class="edge"><title>Node17&#45;&gt;Node11</title>
<path fill="none" stroke="midnightblue" d="M388.866,-212.385C370.913,-205.541 349.272,-194.058 337.5,-176 324.199,-155.596 324.437,-126.557 326.462,-107.746"/>
<polygon fill="midnightblue" stroke="midnightblue" points="329.941,-108.136 327.811,-97.7578 323.004,-107.2 329.941,-108.136"/>
</g>
<!-- Node17&#45;&gt;Node12 -->
<g id="edge23" class="edge"><title>Node17&#45;&gt;Node12</title>
<path fill="none" stroke="midnightblue" d="M393.339,-212.378C377.081,-205.343 357.207,-193.645 347.5,-176 338.503,-159.645 339.822,-151.014 347.5,-134 353.116,-121.555 364.063,-111.172 374.379,-103.527"/>
<polygon fill="midnightblue" stroke="midnightblue" points="376.506,-106.312 382.766,-97.7643 372.542,-100.543 376.506,-106.312"/>
</g>
<!-- Node17&#45;&gt;Node13 -->
<g id="edge28" class="edge"><title>Node17&#45;&gt;Node13</title>
<path fill="none" stroke="midnightblue" d="M441.873,-212.394C457.962,-205.201 478.37,-193.307 489.5,-176 502.681,-155.503 504.081,-126.688 503.272,-107.931"/>
<polygon fill="midnightblue" stroke="midnightblue" points="506.748,-107.453 502.569,-97.7165 499.764,-107.933 506.748,-107.453"/>
</g>
<!-- Node18 -->
<g id="node19" class="node"><title>Node18</title>
<g id="a_node19"><a xlink:href="a00272.html" target="_top" xlink:title="hydra/detail/Vector4R.inl">
<polygon fill="none" stroke="black" points="356.5,-145.5 356.5,-164.5 480.5,-164.5 480.5,-145.5 356.5,-145.5"/>
<text text-anchor="middle" x="418.5" y="-152.5" font-family="Helvetica,sans-Serif" font-size="10.00">hydra/detail/Vector4R.inl</text>
</a>
</g>
</g>
<!-- Node17&#45;&gt;Node18 -->
<g id="edge29" class="edge"><title>Node17&#45;&gt;Node18</title>
<path fill="none" stroke="midnightblue" d="M418.5,-212.234C418.5,-202.683 418.5,-187.118 418.5,-174.783"/>
<polygon fill="midnightblue" stroke="midnightblue" points="422,-174.627 418.5,-164.627 415,-174.627 422,-174.627"/>
</g>
<!-- Node20&#45;&gt;Node1 -->
<g id="edge32" class="edge"><title>Node20&#45;&gt;Node1</title>
<path fill="none" stroke="midnightblue" d="M836.126,-221.82C729.302,-221.056 535.674,-209.637 603.5,-134 626.274,-108.604 841.379,-96.14 951.379,-91.3845"/>
<polygon fill="midnightblue" stroke="midnightblue" points="951.843,-94.8681 961.686,-90.9482 951.547,-87.8743 951.843,-94.8681"/>
</g>
<!-- Node20&#45;&gt;Node19 -->
<g id="edge35" class="edge"><title>Node20&#45;&gt;Node19</title>
<path fill="none" stroke="midnightblue" d="M928.748,-212.453C957.353,-203.46 1003.63,-188.854 1043.5,-176 1046.38,-175.072 1049.33,-174.117 1052.31,-173.15"/>
<polygon fill="midnightblue" stroke="midnightblue" points="1053.43,-176.465 1061.86,-170.041 1051.26,-169.809 1053.43,-176.465"/>
</g>
<!-- Node21 -->
<g id="node22" class="node"><title>Node21</title>
<polygon fill="none" stroke="#bfbfbf" points="792.5,-140 792.5,-170 908.5,-170 908.5,-140 792.5,-140"/>
<text text-anchor="start" x="800.5" y="-158" font-family="Helvetica,sans-Serif" font-size="10.00">hydra/detail/external</text>
<text text-anchor="middle" x="850.5" y="-147" font-family="Helvetica,sans-Serif" font-size="10.00">/thrust/device_vector.h</text>
</g>
<!-- Node20&#45;&gt;Node21 -->
<g id="edge33" class="edge"><title>Node20&#45;&gt;Node21</title>
<path fill="none" stroke="midnightblue" d="M894.622,-212.234C887.796,-203.534 877.055,-189.845 867.88,-178.151"/>
<polygon fill="midnightblue" stroke="midnightblue" points="870.481,-175.796 861.554,-170.089 864.974,-180.117 870.481,-175.796"/>
</g>
<!-- Node22 -->
<g id="node23" class="node"><title>Node22</title>
<polygon fill="none" stroke="#bfbfbf" points="927,-140 927,-170 1034,-170 1034,-140 927,-140"/>
<text text-anchor="start" x="935" y="-158" font-family="Helvetica,sans-Serif" font-size="10.00">hydra/detail/external</text>
<text text-anchor="middle" x="980.5" y="-147" font-family="Helvetica,sans-Serif" font-size="10.00">/thrust/host_vector.h</text>
</g>
<!-- Node20&#45;&gt;Node22 -->
<g id="edge34" class="edge"><title>Node20&#45;&gt;Node22</title>
<path fill="none" stroke="midnightblue" d="M912.154,-212.234C923.241,-203.111 940.995,-188.504 955.629,-176.463"/>
<polygon fill="midnightblue" stroke="midnightblue" points="957.878,-179.145 963.376,-170.089 953.43,-173.74 957.878,-179.145"/>
</g>
<!-- Node23 -->
<g id="node24" class="node"><title>Node23</title>
<polygon fill="none" stroke="#bfbfbf" points="612.5,-134.5 612.5,-175.5 774.5,-175.5 774.5,-134.5 612.5,-134.5"/>
<text text-anchor="start" x="620.5" y="-163.5" font-family="Helvetica,sans-Serif" font-size="10.00">hydra/detail/external</text>
<text text-anchor="start" x="620.5" y="-152.5" font-family="Helvetica,sans-Serif" font-size="10.00">/thrust/system/cuda/experimental</text>
<text text-anchor="middle" x="693.5" y="-141.5" font-family="Helvetica,sans-Serif" font-size="10.00">/pinned_allocator.h</text>
</g>
<!-- Node20&#45;&gt;Node23 -->
<g id="edge36" class="edge"><title>Node20&#45;&gt;Node23</title>
<path fill="none" stroke="midnightblue" d="M873.879,-212.369C846.49,-203.809 803.348,-190.328 766.124,-178.695"/>
<polygon fill="midnightblue" stroke="midnightblue" points="766.89,-175.268 756.301,-175.625 764.802,-181.949 766.89,-175.268"/>
</g>
</g>
</svg>
        <g id="navigator" transform="translate(0 0)" fill="#404254">
                <rect fill="#f2f5e9" fill-opacity="0.5" stroke="#606060" stroke-width=".5" x="0" y="0" width="60" height="60"/>
                <use id="zoomplus" xlink:href="#zoomPlus" x="17" y="9" onmousedown="handleZoom(evt,'in')"/>
                <use id="zoomminus" xlink:href="#zoomMin" x="42" y="9" onmousedown="handleZoom(evt,'out')"/>
                <use id="reset" xlink:href="#resetDef" x="30" y="36" onmousedown="handleReset()"/>
                <g id="arrowUp" xlink:href="#dirArrow" transform="translate(30 24)" onmousedown="handlePan(0,-1)">
                  <use xlink:href="#rim" fill="#404040">
                        <set attributeName="fill" to="#808080" begin="arrowUp.mouseover" end="arrowUp.mouseout"/>
                  </use>
                  <path fill="none" stroke="white" stroke-width="1.5" d="M0,-3.0v7 M-2.5,-0.5L0,-3.0L2.5,-0.5"/>
                </g>
                <g id="arrowRight" xlink:href="#dirArrow" transform="rotate(90) translate(36 -43)" onmousedown="handlePan(1,0)">
                  <use xlink:href="#rim" fill="#404040">
                        <set attributeName="fill" to="#808080" begin="arrowRight.mouseover" end="arrowRight.mouseout"/>
                  </use>
                  <path fill="none" stroke="white" stroke-width="1.5" d="M0,-3.0v7 M-2.5,-0.5L0,-3.0L2.5,-0.5"/>
                </g>
                <g id="arrowDown" xlink:href="#dirArrow" transform="rotate(180) translate(-30 -48)" onmousedown="handlePan(0,1)">
                  <use xlink:href="#rim" fill="#404040">
                        <set attributeName="fill" to="#808080" begin="arrowDown.mouseover" end="arrowDown.mouseout"/>
                  </use>
                  <path fill="none" stroke="white" stroke-width="1.5" d="M0,-3.0v7 M-2.5,-0.5L0,-3.0L2.5,-0.5"/>
                </g>
                <g id="arrowLeft" xlink:href="#dirArrow" transform="rotate(270) translate(-36 17)" onmousedown="handlePan(-1,0)">
                  <use xlink:href="#rim" fill="#404040">
                        <set attributeName="fill" to="#808080" begin="arrowLeft.mouseover" end="arrowLeft.mouseout"/>
                  </use>
                  <path fill="none" stroke="white" stroke-width="1.5" d="M0,-3.0v7 M-2.5,-0.5L0,-3.0L2.5,-0.5"/>
                </g>
        </g>
        <svg viewBox="0 0 15 15" width="100%" height="30px" preserveAspectRatio="xMaxYMin meet">
         <g id="arrow_out" transform="scale(0.3 0.3)">
          <a xlink:href="a00342_org.svg" target="_base">
           <rect id="button" ry="5" rx="5" y="6" x="6" height="38" width="38"
                fill="#f2f5e9" fill-opacity="0.5" stroke="#606060" stroke-width="1.0"/>
           <path id="arrow"
             d="M 11.500037,31.436501 C 11.940474,20.09759 22.043105,11.32322 32.158766,21.979434 L 37.068811,17.246167 C 37.068811,17.246167 37.088388,32 37.088388,32 L 22.160133,31.978069 C 22.160133,31.978069 26.997745,27.140456 26.997745,27.140456 C 18.528582,18.264221 13.291696,25.230495 11.500037,31.436501 z"
             style="fill:#404040;"/>
          </a>
         </g>
        </svg>
</svg>
