<?xml version="1.0" encoding="UTF-8" standalone="no"?>
<!DOCTYPE svg PUBLIC "-//W3C//DTD SVG 1.1//EN"
 "http://www.w3.org/Graphics/SVG/1.1/DTD/svg11.dtd">
<!-- Generated by graphviz version 2.38.0 (20140413.2041)
 -->
<!-- Title: hydra::detail::is_homogeneous&lt; A, Tuple &gt; Pages: 1 -->
<!--zoomable 559 -->
<svg id="main" version="1.1" xmlns="http://www.w3.org/2000/svg" xmlns:xlink="http://www.w3.org/1999/xlink" xml:space="preserve" onload="init(evt)">
<style type="text/css"><![CDATA[
.edge:hover path { stroke: red; }
.edge:hover polygon { stroke: red; fill: red; }
]]></style>
<script type="text/javascript"><![CDATA[
var edges = document.getElementsByTagName('g');
if (edges && edges.length) {
  for (var i=0;i<edges.length;i++) {
    if (edges[i].id.substr(0,4)=='edge') {
      edges[i].setAttribute('class','edge');
    }
  }
}
]]></script>
        <defs>
                <circle id="rim" cx="0" cy="0" r="7"/>
                <circle id="rim2" cx="0" cy="0" r="3.5"/>
                <g id="zoomPlus">
                        <use xlink:href="#rim" fill="#404040">
                                <set attributeName="fill" to="#808080" begin="zoomplus.mouseover" end="zoomplus.mouseout"/>
                        </use>
                        <path d="M-4,0h8M0,-4v8" fill="none" stroke="white" stroke-width="1.5" pointer-events="none"/>
                </g>
                <g id="zoomMin">
                        <use xlink:href="#rim" fill="#404040">
                                <set attributeName="fill" to="#808080" begin="zoomminus.mouseover" end="zoomminus.mouseout"/>
                        </use>
                        <path d="M-4,0h8" fill="none" stroke="white" stroke-width="1.5" pointer-events="none"/>
                </g>
                <g id="dirArrow">
                        <path fill="none" stroke="white" stroke-width="1.5" d="M0,-3.0v7 M-2.5,-0.5L0,-3.0L2.5,-0.5"/>
                </g>
               <g id="resetDef">
                       <use xlink:href="#rim2" fill="#404040">
                               <set attributeName="fill" to="#808080" begin="reset.mouseover" end="reset.mouseout"/>
                       </use>
               </g>
        </defs>

<script type="text/javascript">
var viewWidth = 397;
var viewHeight = 559;
var sectionId = 'dynsection-0';
</script>
<script xlink:href="svgpan.js"/>
<svg id="graph" class="graph">
<g id="viewport">
<title>hydra::detail::is_homogeneous&lt; A, Tuple &gt;</title>
<!-- Node1 -->
<g id="node1" class="node"><title>Node1</title>
<polygon fill="#bfbfbf" stroke="black" points="72,-0.5 72,-68.5 221,-68.5 221,-0.5 72,-0.5"/>
<text text-anchor="start" x="80" y="-56.5" font-family="Helvetica,sans-Serif" font-size="10.00">hydra::detail::is_homogeneous</text>
<text text-anchor="middle" x="146.5" y="-45.5" font-family="Helvetica,sans-Serif" font-size="10.00">&lt; A, Tuple &gt;</text>
<polyline fill="none" stroke="black" points="72,-38.5 221,-38.5 "/>
<text text-anchor="middle" x="146.5" y="-26.5" font-family="Helvetica,sans-Serif" font-size="10.00"> </text>
<polyline fill="none" stroke="black" points="72,-19.5 221,-19.5 "/>
<text text-anchor="middle" x="146.5" y="-7.5" font-family="Helvetica,sans-Serif" font-size="10.00"> </text>
</g>
<!-- Node2 -->
<g id="node2" class="node"><title>Node2</title>
<g id="a_node2"><a xlink:href="a00037.html" target="_top" xlink:title="{hydra::detail::is_homogeneous\l_base\&lt; A, Tuple, thrust::\ltuple_size\&lt; Tuple \&gt;::value \&gt;\n||}">
<polygon fill="none" stroke="black" points="72,-106.5 72,-185.5 221,-185.5 221,-106.5 72,-106.5"/>
<text text-anchor="start" x="80" y="-173.5" font-family="Helvetica,sans-Serif" font-size="10.00">hydra::detail::is_homogeneous</text>
<text text-anchor="start" x="80" y="-162.5" font-family="Helvetica,sans-Serif" font-size="10.00">_base&lt; A, Tuple, thrust::</text>
<text text-anchor="middle" x="146.5" y="-151.5" font-family="Helvetica,sans-Serif" font-size="10.00">tuple_size&lt; Tuple &gt;::value &gt;</text>
<polyline fill="none" stroke="black" points="72,-144.5 221,-144.5 "/>
<text text-anchor="middle" x="146.5" y="-132.5" font-family="Helvetica,sans-Serif" font-size="10.00"> </text>
<polyline fill="none" stroke="black" points="72,-125.5 221,-125.5 "/>
<text text-anchor="middle" x="146.5" y="-113.5" font-family="Helvetica,sans-Serif" font-size="10.00"> </text>
</a>
</g>
</g>
<!-- Node2&#45;&gt;Node1 -->
<g id="edge1" class="edge"><title>Node2&#45;&gt;Node1</title>
<path fill="none" stroke="midnightblue" d="M146.5,-96.3805C146.5,-87.0158 146.5,-77.4088 146.5,-68.674"/>
<polygon fill="none" stroke="midnightblue" points="143,-96.3944 146.5,-106.394 150,-96.3944 143,-96.3944"/>
</g>
<!-- Node3 -->
<g id="node3" class="node"><title>Node3</title>
<polygon fill="none" stroke="#bfbfbf" points="0,-255.5 0,-389.5 185,-389.5 185,-255.5 0,-255.5"/>
<text text-anchor="start" x="8" y="-377.5" font-family="Helvetica,sans-Serif" font-size="10.00">std::conditional&lt; thrust</text>
<text text-anchor="start" x="8" y="-366.5" font-family="Helvetica,sans-Serif" font-size="10.00">::detail::is_same&lt; std</text>
<text text-anchor="start" x="8" y="-355.5" font-family="Helvetica,sans-Serif" font-size="10.00">::remove_reference&lt; A &gt;</text>
<text text-anchor="start" x="8" y="-344.5" font-family="Helvetica,sans-Serif" font-size="10.00">::type, std::remove_reference</text>
<text text-anchor="start" x="8" y="-333.5" font-family="Helvetica,sans-Serif" font-size="10.00">&lt; thrust::tuple_element&lt; I&#45;1,</text>
<text text-anchor="start" x="8" y="-322.5" font-family="Helvetica,sans-Serif" font-size="10.00"> Tuple &gt;::type &gt;::type &gt;::value,</text>
<text text-anchor="start" x="8" y="-311.5" font-family="Helvetica,sans-Serif" font-size="10.00"> is_homogeneous_base&lt; A, Tuple ,</text>
<text text-anchor="middle" x="92.5" y="-300.5" font-family="Helvetica,sans-Serif" font-size="10.00"> I&#45;1 &gt;, thrust::detail::false_type &gt;::type</text>
<polyline fill="none" stroke="#bfbfbf" points="0,-293.5 185,-293.5 "/>
<text text-anchor="middle" x="92.5" y="-281.5" font-family="Helvetica,sans-Serif" font-size="10.00"> </text>
<polyline fill="none" stroke="#bfbfbf" points="0,-274.5 185,-274.5 "/>
<text text-anchor="middle" x="92.5" y="-262.5" font-family="Helvetica,sans-Serif" font-size="10.00"> </text>
</g>
<!-- Node3&#45;&gt;Node2 -->
<g id="edge2" class="edge"><title>Node3&#45;&gt;Node2</title>
<path fill="none" stroke="midnightblue" d="M116.071,-245.331C122.442,-224.744 129.071,-203.32 134.51,-185.745"/>
<polygon fill="none" stroke="midnightblue" points="112.682,-244.443 113.069,-255.031 119.369,-246.513 112.682,-244.443"/>
</g>
<!-- Node4 -->
<g id="node4" class="node"><title>Node4</title>
<g id="a_node4"><a xlink:href="a00037.html" target="_top" xlink:title="{hydra::detail::is_homogeneous\l_base\&lt; A, Tp, I \&gt;\n||}">
<polygon fill="none" stroke="black" points="203,-288.5 203,-356.5 352,-356.5 352,-288.5 203,-288.5"/>
<text text-anchor="start" x="211" y="-344.5" font-family="Helvetica,sans-Serif" font-size="10.00">hydra::detail::is_homogeneous</text>
<text text-anchor="middle" x="277.5" y="-333.5" font-family="Helvetica,sans-Serif" font-size="10.00">_base&lt; A, Tp, I &gt;</text>
<polyline fill="none" stroke="black" points="203,-326.5 352,-326.5 "/>
<text text-anchor="middle" x="277.5" y="-314.5" font-family="Helvetica,sans-Serif" font-size="10.00"> </text>
<polyline fill="none" stroke="black" points="203,-307.5 352,-307.5 "/>
<text text-anchor="middle" x="277.5" y="-295.5" font-family="Helvetica,sans-Serif" font-size="10.00"> </text>
</a>
</g>
</g>
<!-- Node4&#45;&gt;Node2 -->
<g id="edge3" class="edge"><title>Node4&#45;&gt;Node2</title>
<path fill="none" stroke="orange" d="M246.4,-280.072C224.898,-251.431 196.491,-213.59 175.466,-185.585"/>
<polygon fill="orange" stroke="orange" points="243.749,-282.371 252.552,-288.267 249.347,-278.169 243.749,-282.371"/>
<text text-anchor="start" x="211.5" y="-229" font-family="Helvetica,sans-Serif" font-size="10.00"> &lt; A, Tuple, thrust</text>
<text text-anchor="start" x="211.5" y="-218" font-family="Helvetica,sans-Serif" font-size="10.00">::tuple_size&lt; Tuple</text>
<text text-anchor="middle" x="253.5" y="-207" font-family="Helvetica,sans-Serif" font-size="10.00"> &gt;::value &gt;</text>
</g>
<!-- Node5 -->
<g id="node5" class="node"><title>Node5</title>
<polygon fill="none" stroke="#bfbfbf" points="166.5,-427.5 166.5,-550.5 388.5,-550.5 388.5,-427.5 166.5,-427.5"/>
<text text-anchor="start" x="174.5" y="-538.5" font-family="Helvetica,sans-Serif" font-size="10.00">std::conditional::type</text>
<text text-anchor="start" x="174.5" y="-527.5" font-family="Helvetica,sans-Serif" font-size="10.00">&lt; thrust::detail::is_same</text>
<text text-anchor="start" x="174.5" y="-516.5" font-family="Helvetica,sans-Serif" font-size="10.00">&lt; std::remove_reference&lt;</text>
<text text-anchor="start" x="174.5" y="-505.5" font-family="Helvetica,sans-Serif" font-size="10.00"> A &gt;::type, std::remove_reference</text>
<text text-anchor="start" x="174.5" y="-494.5" font-family="Helvetica,sans-Serif" font-size="10.00">&lt; thrust::tuple_element&lt; I&#45;1, Tp</text>
<text text-anchor="start" x="174.5" y="-483.5" font-family="Helvetica,sans-Serif" font-size="10.00"> &gt;::type &gt;::type &gt;::value, is_homogeneous</text>
<text text-anchor="middle" x="277.5" y="-472.5" font-family="Helvetica,sans-Serif" font-size="10.00">_base&lt; A, Tp, I&#45;1 &gt;, thrust::detail::false_type &gt;</text>
<polyline fill="none" stroke="#bfbfbf" points="166.5,-465.5 388.5,-465.5 "/>
<text text-anchor="middle" x="277.5" y="-453.5" font-family="Helvetica,sans-Serif" font-size="10.00"> </text>
<polyline fill="none" stroke="#bfbfbf" points="166.5,-446.5 388.5,-446.5 "/>
<text text-anchor="middle" x="277.5" y="-434.5" font-family="Helvetica,sans-Serif" font-size="10.00"> </text>
</g>
<!-- Node5&#45;&gt;Node4 -->
<g id="edge4" class="edge"><title>Node5&#45;&gt;Node4</title>
<path fill="none" stroke="midnightblue" d="M277.5,-417.046C277.5,-396.122 277.5,-374.204 277.5,-356.848"/>
<polygon fill="none" stroke="midnightblue" points="274,-417.214 277.5,-427.214 281,-417.214 274,-417.214"/>
</g>
</g>
</svg>
        <g id="navigator" transform="translate(0 0)" fill="#404254">
                <rect fill="#f2f5e9" fill-opacity="0.5" stroke="#606060" stroke-width=".5" x="0" y="0" width="60" height="60"/>
                <use id="zoomplus" xlink:href="#zoomPlus" x="17" y="9" onmousedown="handleZoom(evt,'in')"/>
                <use id="zoomminus" xlink:href="#zoomMin" x="42" y="9" onmousedown="handleZoom(evt,'out')"/>
                <use id="reset" xlink:href="#resetDef" x="30" y="36" onmousedown="handleReset()"/>
                <g id="arrowUp" xlink:href="#dirArrow" transform="translate(30 24)" onmousedown="handlePan(0,-1)">
                  <use xlink:href="#rim" fill="#404040">
                        <set attributeName="fill" to="#808080" begin="arrowUp.mouseover" end="arrowUp.mouseout"/>
                  </use>
                  <path fill="none" stroke="white" stroke-width="1.5" d="M0,-3.0v7 M-2.5,-0.5L0,-3.0L2.5,-0.5"/>
                </g>
                <g id="arrowRight" xlink:href="#dirArrow" transform="rotate(90) translate(36 -43)" onmousedown="handlePan(1,0)">
                  <use xlink:href="#rim" fill="#404040">
                        <set attributeName="fill" to="#808080" begin="arrowRight.mouseover" end="arrowRight.mouseout"/>
                  </use>
                  <path fill="none" stroke="white" stroke-width="1.5" d="M0,-3.0v7 M-2.5,-0.5L0,-3.0L2.5,-0.5"/>
                </g>
                <g id="arrowDown" xlink:href="#dirArrow" transform="rotate(180) translate(-30 -48)" onmousedown="handlePan(0,1)">
                  <use xlink:href="#rim" fill="#404040">
                        <set attributeName="fill" to="#808080" begin="arrowDown.mouseover" end="arrowDown.mouseout"/>
                  </use>
                  <path fill="none" stroke="white" stroke-width="1.5" d="M0,-3.0v7 M-2.5,-0.5L0,-3.0L2.5,-0.5"/>
                </g>
                <g id="arrowLeft" xlink:href="#dirArrow" transform="rotate(270) translate(-36 17)" onmousedown="handlePan(-1,0)">
                  <use xlink:href="#rim" fill="#404040">
                        <set attributeName="fill" to="#808080" begin="arrowLeft.mouseover" end="arrowLeft.mouseout"/>
                  </use>
                  <path fill="none" stroke="white" stroke-width="1.5" d="M0,-3.0v7 M-2.5,-0.5L0,-3.0L2.5,-0.5"/>
                </g>
        </g>
        <svg viewBox="0 0 15 15" width="100%" height="30px" preserveAspectRatio="xMaxYMin meet">
         <g id="arrow_out" transform="scale(0.3 0.3)">
          <a xlink:href="a00461_org.svg" target="_base">
           <rect id="button" ry="5" rx="5" y="6" x="6" height="38" width="38"
                fill="#f2f5e9" fill-opacity="0.5" stroke="#606060" stroke-width="1.0"/>
           <path id="arrow"
             d="M 11.500037,31.436501 C 11.940474,20.09759 22.043105,11.32322 32.158766,21.979434 L 37.068811,17.246167 C 37.068811,17.246167 37.088388,32 37.088388,32 L 22.160133,31.978069 C 22.160133,31.978069 26.997745,27.140456 26.997745,27.140456 C 18.528582,18.264221 13.291696,25.230495 11.500037,31.436501 z"
             style="fill:#404040;"/>
          </a>
         </g>
        </svg>
</svg>
