<?xml version="1.0" encoding="UTF-8" standalone="no"?>
<!DOCTYPE svg PUBLIC "-//W3C//DTD SVG 1.1//EN"
 "http://www.w3.org/Graphics/SVG/1.1/DTD/svg11.dtd">
<!-- Generated by graphviz version 2.38.0 (20140413.2041)
 -->
<!-- Title: hydra::FCN&lt; Estimator&lt; PDF, Iterator, Visitors... &gt; &gt; Pages: 1 -->
<!--zoomable 1127 -->
<svg id="main" version="1.1" xmlns="http://www.w3.org/2000/svg" xmlns:xlink="http://www.w3.org/1999/xlink" xml:space="preserve" onload="init(evt)">
<style type="text/css"><![CDATA[
.edge:hover path { stroke: red; }
.edge:hover polygon { stroke: red; fill: red; }
]]></style>
<script type="text/javascript"><![CDATA[
var edges = document.getElementsByTagName('g');
if (edges && edges.length) {
  for (var i=0;i<edges.length;i++) {
    if (edges[i].id.substr(0,4)=='edge') {
      edges[i].setAttribute('class','edge');
    }
  }
}
]]></script>
        <defs>
                <circle id="rim" cx="0" cy="0" r="7"/>
                <circle id="rim2" cx="0" cy="0" r="3.5"/>
                <g id="zoomPlus">
                        <use xlink:href="#rim" fill="#404040">
                                <set attributeName="fill" to="#808080" begin="zoomplus.mouseover" end="zoomplus.mouseout"/>
                        </use>
                        <path d="M-4,0h8M0,-4v8" fill="none" stroke="white" stroke-width="1.5" pointer-events="none"/>
                </g>
                <g id="zoomMin">
                        <use xlink:href="#rim" fill="#404040">
                                <set attributeName="fill" to="#808080" begin="zoomminus.mouseover" end="zoomminus.mouseout"/>
                        </use>
                        <path d="M-4,0h8" fill="none" stroke="white" stroke-width="1.5" pointer-events="none"/>
                </g>
                <g id="dirArrow">
                        <path fill="none" stroke="white" stroke-width="1.5" d="M0,-3.0v7 M-2.5,-0.5L0,-3.0L2.5,-0.5"/>
                </g>
               <g id="resetDef">
                       <use xlink:href="#rim2" fill="#404040">
                               <set attributeName="fill" to="#808080" begin="reset.mouseover" end="reset.mouseout"/>
                       </use>
               </g>
        </defs>

<script type="text/javascript">
var viewWidth = 732;
var viewHeight = 1127;
var sectionId = 'dynsection-1';
</script>
<script xlink:href="svgpan.js"/>
<svg id="graph" class="graph">
<g id="viewport">
<title>hydra::FCN&lt; Estimator&lt; PDF, Iterator, Visitors... &gt; &gt;</title>
<!-- Node3 -->
<g id="node1" class="node"><title>Node3</title>
<polygon fill="#bfbfbf" stroke="black" points="130.5,-0.5 130.5,-277.5 279.5,-277.5 279.5,-0.5 130.5,-0.5"/>
<text text-anchor="start" x="138.5" y="-265.5" font-family="Helvetica,sans-Serif" font-size="10.00">hydra::FCN&lt; Estimator</text>
<text text-anchor="middle" x="205" y="-254.5" font-family="Helvetica,sans-Serif" font-size="10.00">&lt; PDF, Iterator, Visitors... &gt; &gt;</text>
<polyline fill="none" stroke="black" points="130.5,-247.5 279.5,-247.5 "/>
<text text-anchor="start" x="138.5" y="-235.5" font-family="Helvetica,sans-Serif" font-size="10.00">&#45; fBegin</text>
<text text-anchor="start" x="138.5" y="-224.5" font-family="Helvetica,sans-Serif" font-size="10.00">&#45; fDataSize</text>
<text text-anchor="start" x="138.5" y="-213.5" font-family="Helvetica,sans-Serif" font-size="10.00">&#45; fEnd</text>
<text text-anchor="start" x="138.5" y="-202.5" font-family="Helvetica,sans-Serif" font-size="10.00">&#45; fErrorDef</text>
<text text-anchor="start" x="138.5" y="-191.5" font-family="Helvetica,sans-Serif" font-size="10.00">&#45; fPDF</text>
<polyline fill="none" stroke="black" points="130.5,-184.5 279.5,-184.5 "/>
<text text-anchor="start" x="138.5" y="-172.5" font-family="Helvetica,sans-Serif" font-size="10.00">+ FCN()</text>
<text text-anchor="start" x="138.5" y="-161.5" font-family="Helvetica,sans-Serif" font-size="10.00">+ FCN()</text>
<text text-anchor="start" x="138.5" y="-150.5" font-family="Helvetica,sans-Serif" font-size="10.00">+ begin()</text>
<text text-anchor="start" x="138.5" y="-139.5" font-family="Helvetica,sans-Serif" font-size="10.00">+ end()</text>
<text text-anchor="start" x="138.5" y="-128.5" font-family="Helvetica,sans-Serif" font-size="10.00">+ ErrorDef()</text>
<text text-anchor="start" x="138.5" y="-117.5" font-family="Helvetica,sans-Serif" font-size="10.00">+ GetBegin()</text>
<text text-anchor="start" x="138.5" y="-106.5" font-family="Helvetica,sans-Serif" font-size="10.00">+ GetDataSize()</text>
<text text-anchor="start" x="138.5" y="-95.5" font-family="Helvetica,sans-Serif" font-size="10.00">+ GetEnd()</text>
<text text-anchor="start" x="138.5" y="-84.5" font-family="Helvetica,sans-Serif" font-size="10.00">+ GetErrorDef()</text>
<text text-anchor="start" x="138.5" y="-73.5" font-family="Helvetica,sans-Serif" font-size="10.00">+ GetParameters()</text>
<text text-anchor="start" x="138.5" y="-62.5" font-family="Helvetica,sans-Serif" font-size="10.00">and 10 more...</text>
<text text-anchor="start" x="138.5" y="-51.5" font-family="Helvetica,sans-Serif" font-size="10.00">&#45; EvalFCN()</text>
<text text-anchor="start" x="138.5" y="-40.5" font-family="Helvetica,sans-Serif" font-size="10.00">&#45; GetFcnCache()</text>
<text text-anchor="start" x="138.5" y="-29.5" font-family="Helvetica,sans-Serif" font-size="10.00">&#45; GetFCNValue()</text>
<text text-anchor="start" x="138.5" y="-18.5" font-family="Helvetica,sans-Serif" font-size="10.00">&#45; LoadFCNParameters()</text>
<text text-anchor="start" x="138.5" y="-7.5" font-family="Helvetica,sans-Serif" font-size="10.00">&#45; SetFcnCache()</text>
</g>
<!-- Node4 -->
<g id="node2" class="node"><title>Node4</title>
<polygon fill="none" stroke="#bfbfbf" points="0,-397 0,-454 132,-454 132,-397 0,-397"/>
<text text-anchor="middle" x="66" y="-442" font-family="Helvetica,sans-Serif" font-size="10.00">ROOT::Minuit2::FCNBase</text>
<polyline fill="none" stroke="#bfbfbf" points="0,-435 132,-435 "/>
<text text-anchor="middle" x="66" y="-423" font-family="Helvetica,sans-Serif" font-size="10.00"> </text>
<polyline fill="none" stroke="#bfbfbf" points="0,-416 132,-416 "/>
<text text-anchor="middle" x="66" y="-404" font-family="Helvetica,sans-Serif" font-size="10.00"> </text>
</g>
<!-- Node4&#45;&gt;Node3 -->
<g id="edge1" class="edge"><title>Node4&#45;&gt;Node3</title>
<path fill="none" stroke="midnightblue" d="M83.9068,-387.849C97.7728,-359.469 117.91,-318.253 137.796,-277.551"/>
<polygon fill="none" stroke="midnightblue" points="80.6994,-386.441 79.4542,-396.962 86.9888,-389.514 80.6994,-386.441"/>
</g>
<!-- Node5 -->
<g id="node3" class="node"><title>Node5</title>
<polygon fill="none" stroke="#bfbfbf" points="150,-397 150,-454 200,-454 200,-397 150,-397"/>
<text text-anchor="middle" x="175" y="-442" font-family="Helvetica,sans-Serif" font-size="10.00">Visitors</text>
<polyline fill="none" stroke="#bfbfbf" points="150,-435 200,-435 "/>
<text text-anchor="middle" x="175" y="-423" font-family="Helvetica,sans-Serif" font-size="10.00"> </text>
<polyline fill="none" stroke="#bfbfbf" points="150,-416 200,-416 "/>
<text text-anchor="middle" x="175" y="-404" font-family="Helvetica,sans-Serif" font-size="10.00"> </text>
</g>
<!-- Node5&#45;&gt;Node3 -->
<g id="edge2" class="edge"><title>Node5&#45;&gt;Node3</title>
<path fill="none" stroke="midnightblue" d="M178.983,-386.732C181.971,-358.393 186.26,-317.722 190.496,-277.551"/>
<polygon fill="none" stroke="midnightblue" points="175.472,-386.651 177.904,-396.962 182.433,-387.385 175.472,-386.651"/>
</g>
<!-- Node6 -->
<g id="node4" class="node"><title>Node6</title>
<polygon fill="none" stroke="#bfbfbf" points="184.5,-544.5 184.5,-623.5 287.5,-623.5 287.5,-544.5 184.5,-544.5"/>
<text text-anchor="start" x="192.5" y="-611.5" font-family="Helvetica,sans-Serif" font-size="10.00">std::unordered_map</text>
<text text-anchor="middle" x="236" y="-600.5" font-family="Helvetica,sans-Serif" font-size="10.00">&lt; size_t, GReal_t &gt;</text>
<polyline fill="none" stroke="#bfbfbf" points="184.5,-593.5 287.5,-593.5 "/>
<text text-anchor="start" x="192.5" y="-581.5" font-family="Helvetica,sans-Serif" font-size="10.00">+ elements</text>
<text text-anchor="start" x="192.5" y="-570.5" font-family="Helvetica,sans-Serif" font-size="10.00">+ keys</text>
<polyline fill="none" stroke="#bfbfbf" points="184.5,-563.5 287.5,-563.5 "/>
<text text-anchor="middle" x="236" y="-551.5" font-family="Helvetica,sans-Serif" font-size="10.00"> </text>
</g>
<!-- Node6&#45;&gt;Node3 -->
<g id="edge3" class="edge"><title>Node6&#45;&gt;Node3</title>
<path fill="none" stroke="#404040" d="M233.303,-544.462C229.356,-488.053 221.787,-379.899 215.47,-289.615"/>
<polygon fill="none" stroke="#404040" points="215.465,-289.54 211.055,-283.834 214.627,-277.569 219.036,-283.275 215.465,-289.54"/>
<text text-anchor="middle" x="261.5" y="-423" font-family="Helvetica,sans-Serif" font-size="10.00"> &#45;fFCNCache</text>
</g>
<!-- Node7 -->
<g id="node5" class="node"><title>Node7</title>
<g id="a_node5"><a xlink:title="STL class. ">
<polygon fill="none" stroke="#bfbfbf" points="184.5,-852 184.5,-920 287.5,-920 287.5,-852 184.5,-852"/>
<text text-anchor="start" x="192.5" y="-908" font-family="Helvetica,sans-Serif" font-size="10.00">std::unordered_map</text>
<text text-anchor="middle" x="236" y="-897" font-family="Helvetica,sans-Serif" font-size="10.00">&lt; K, T &gt;</text>
<polyline fill="none" stroke="#bfbfbf" points="184.5,-890 287.5,-890 "/>
<text text-anchor="middle" x="236" y="-878" font-family="Helvetica,sans-Serif" font-size="10.00"> </text>
<polyline fill="none" stroke="#bfbfbf" points="184.5,-871 287.5,-871 "/>
<text text-anchor="middle" x="236" y="-859" font-family="Helvetica,sans-Serif" font-size="10.00"> </text>
</a>
</g>
</g>
<!-- Node7&#45;&gt;Node6 -->
<g id="edge4" class="edge"><title>Node7&#45;&gt;Node6</title>
<path fill="none" stroke="orange" d="M236,-841.708C236,-783.156 236,-679.618 236,-623.594"/>
<polygon fill="orange" stroke="orange" points="232.5,-841.748 236,-851.749 239.5,-841.749 232.5,-841.748"/>
<text text-anchor="middle" x="281" y="-732" font-family="Helvetica,sans-Serif" font-size="10.00"> &lt; size_t, GReal_t &gt;</text>
</g>
<!-- Node8 -->
<g id="node6" class="node"><title>Node8</title>
<polygon fill="none" stroke="#bfbfbf" points="220.5,-1061.5 220.5,-1118.5 249.5,-1118.5 249.5,-1061.5 220.5,-1061.5"/>
<text text-anchor="middle" x="235" y="-1106.5" font-family="Helvetica,sans-Serif" font-size="10.00">K</text>
<polyline fill="none" stroke="#bfbfbf" points="220.5,-1099.5 249.5,-1099.5 "/>
<text text-anchor="middle" x="235" y="-1087.5" font-family="Helvetica,sans-Serif" font-size="10.00"> </text>
<polyline fill="none" stroke="#bfbfbf" points="220.5,-1080.5 249.5,-1080.5 "/>
<text text-anchor="middle" x="235" y="-1068.5" font-family="Helvetica,sans-Serif" font-size="10.00"> </text>
</g>
<!-- Node8&#45;&gt;Node7 -->
<g id="edge5" class="edge"><title>Node8&#45;&gt;Node7</title>
<path fill="none" stroke="#404040" d="M235.137,-1061.34C235.302,-1028.09 235.58,-971.838 235.776,-932.241"/>
<polygon fill="none" stroke="#404040" points="235.777,-932.02 231.807,-926 235.837,-920.02 239.807,-926.04 235.777,-932.02"/>
<text text-anchor="middle" x="251.5" y="-1035" font-family="Helvetica,sans-Serif" font-size="10.00"> +keys</text>
</g>
<!-- Node9 -->
<g id="node7" class="node"><title>Node9</title>
<polygon fill="none" stroke="#bfbfbf" points="346.5,-1061.5 346.5,-1118.5 375.5,-1118.5 375.5,-1061.5 346.5,-1061.5"/>
<text text-anchor="middle" x="361" y="-1106.5" font-family="Helvetica,sans-Serif" font-size="10.00">T</text>
<polyline fill="none" stroke="#bfbfbf" points="346.5,-1099.5 375.5,-1099.5 "/>
<text text-anchor="middle" x="361" y="-1087.5" font-family="Helvetica,sans-Serif" font-size="10.00"> </text>
<polyline fill="none" stroke="#bfbfbf" points="346.5,-1080.5 375.5,-1080.5 "/>
<text text-anchor="middle" x="361" y="-1068.5" font-family="Helvetica,sans-Serif" font-size="10.00"> </text>
</g>
<!-- Node9&#45;&gt;Node7 -->
<g id="edge6" class="edge"><title>Node9&#45;&gt;Node7</title>
<path fill="none" stroke="#404040" d="M346.442,-1079.05C334.851,-1070.54 318.829,-1057.42 308,-1043 282.473,-1009.01 263.055,-964.527 250.855,-931.761"/>
<polygon fill="none" stroke="#404040" points="250.777,-931.543 244.972,-927.264 246.689,-920.26 252.494,-924.539 250.777,-931.543"/>
<text text-anchor="middle" x="332.5" y="-1035" font-family="Helvetica,sans-Serif" font-size="10.00"> +elements</text>
</g>
<!-- Node13 -->
<g id="node11" class="node"><title>Node13</title>
<g id="a_node11"><a xlink:title="STL class. ">
<polygon fill="none" stroke="#bfbfbf" points="469.5,-857.5 469.5,-914.5 556.5,-914.5 556.5,-857.5 469.5,-857.5"/>
<text text-anchor="middle" x="513" y="-902.5" font-family="Helvetica,sans-Serif" font-size="10.00">std::vector&lt; T &gt;</text>
<polyline fill="none" stroke="#bfbfbf" points="469.5,-895.5 556.5,-895.5 "/>
<text text-anchor="middle" x="513" y="-883.5" font-family="Helvetica,sans-Serif" font-size="10.00"> </text>
<polyline fill="none" stroke="#bfbfbf" points="469.5,-876.5 556.5,-876.5 "/>
<text text-anchor="middle" x="513" y="-864.5" font-family="Helvetica,sans-Serif" font-size="10.00"> </text>
</a>
</g>
</g>
<!-- Node9&#45;&gt;Node13 -->
<g id="edge11" class="edge"><title>Node9&#45;&gt;Node13</title>
<path fill="none" stroke="#404040" d="M375.548,-1071.31C387.852,-1056.23 405.846,-1033.9 421,-1014 443.616,-984.301 468.397,-949.985 486.536,-924.516"/>
<polygon fill="none" stroke="#404040" points="486.682,-924.311 486.896,-917.103 493.632,-914.528 493.418,-921.736 486.682,-924.311"/>
<text text-anchor="middle" x="431.5" y="-1035" font-family="Helvetica,sans-Serif" font-size="10.00"> +elements</text>
</g>
<!-- Node15 -->
<g id="node13" class="node"><title>Node15</title>
<g id="a_node13"><a xlink:title="STL class. ">
<polygon fill="none" stroke="#bfbfbf" points="307.5,-857.5 307.5,-914.5 412.5,-914.5 412.5,-857.5 307.5,-857.5"/>
<text text-anchor="middle" x="360" y="-902.5" font-family="Helvetica,sans-Serif" font-size="10.00">std::unique_ptr&lt; T &gt;</text>
<polyline fill="none" stroke="#bfbfbf" points="307.5,-895.5 412.5,-895.5 "/>
<text text-anchor="middle" x="360" y="-883.5" font-family="Helvetica,sans-Serif" font-size="10.00"> </text>
<polyline fill="none" stroke="#bfbfbf" points="307.5,-876.5 412.5,-876.5 "/>
<text text-anchor="start" x="315.5" y="-864.5" font-family="Helvetica,sans-Serif" font-size="10.00">+ operator&#45;&gt;()</text>
</a>
</g>
</g>
<!-- Node9&#45;&gt;Node15 -->
<g id="edge14" class="edge"><title>Node9&#45;&gt;Node15</title>
<path fill="none" stroke="#404040" d="M360.863,-1061.34C360.691,-1026.53 360.394,-966.509 360.197,-926.781"/>
<polygon fill="none" stroke="#404040" points="360.196,-926.653 356.167,-920.673 360.137,-914.653 364.167,-920.633 360.196,-926.653"/>
<text text-anchor="middle" x="371.5" y="-1035" font-family="Helvetica,sans-Serif" font-size="10.00"> +ptr</text>
</g>
<!-- Node10 -->
<g id="node8" class="node"><title>Node10</title>
<g id="a_node8"><a xlink:href="a01867.html" target="_top" xlink:title="{hydra::UserParameters\n||+ UserParameters()\l+ UserParameters()\l+ AddParameter()\l+ GetMnState()\l+ GetMnState()\l+ GetMnStatePtr()\l+ GetVariables()\l+ operator=()\l+ PrintMinuitParameters()\l+ PrintParameters()\l+ SetMnState()\l+ SetVariables()\l+ UpdateParameterLimits()\l+ UpdateParameters()\l}">
<polygon fill="none" stroke="black" points="313,-325.5 313,-525.5 447,-525.5 447,-325.5 313,-325.5"/>
<text text-anchor="middle" x="380" y="-513.5" font-family="Helvetica,sans-Serif" font-size="10.00">hydra::UserParameters</text>
<polyline fill="none" stroke="black" points="313,-506.5 447,-506.5 "/>
<text text-anchor="middle" x="380" y="-494.5" font-family="Helvetica,sans-Serif" font-size="10.00"> </text>
<polyline fill="none" stroke="black" points="313,-487.5 447,-487.5 "/>
<text text-anchor="start" x="321" y="-475.5" font-family="Helvetica,sans-Serif" font-size="10.00">+ UserParameters()</text>
<text text-anchor="start" x="321" y="-464.5" font-family="Helvetica,sans-Serif" font-size="10.00">+ UserParameters()</text>
<text text-anchor="start" x="321" y="-453.5" font-family="Helvetica,sans-Serif" font-size="10.00">+ AddParameter()</text>
<text text-anchor="start" x="321" y="-442.5" font-family="Helvetica,sans-Serif" font-size="10.00">+ GetMnState()</text>
<text text-anchor="start" x="321" y="-431.5" font-family="Helvetica,sans-Serif" font-size="10.00">+ GetMnState()</text>
<text text-anchor="start" x="321" y="-420.5" font-family="Helvetica,sans-Serif" font-size="10.00">+ GetMnStatePtr()</text>
<text text-anchor="start" x="321" y="-409.5" font-family="Helvetica,sans-Serif" font-size="10.00">+ GetVariables()</text>
<text text-anchor="start" x="321" y="-398.5" font-family="Helvetica,sans-Serif" font-size="10.00">+ operator=()</text>
<text text-anchor="start" x="321" y="-387.5" font-family="Helvetica,sans-Serif" font-size="10.00">+ PrintMinuitParameters()</text>
<text text-anchor="start" x="321" y="-376.5" font-family="Helvetica,sans-Serif" font-size="10.00">+ PrintParameters()</text>
<text text-anchor="start" x="321" y="-365.5" font-family="Helvetica,sans-Serif" font-size="10.00">+ SetMnState()</text>
<text text-anchor="start" x="321" y="-354.5" font-family="Helvetica,sans-Serif" font-size="10.00">+ SetVariables()</text>
<text text-anchor="start" x="321" y="-343.5" font-family="Helvetica,sans-Serif" font-size="10.00">+ UpdateParameterLimits()</text>
<text text-anchor="start" x="321" y="-332.5" font-family="Helvetica,sans-Serif" font-size="10.00">+ UpdateParameters()</text>
</a>
</g>
</g>
<!-- Node10&#45;&gt;Node3 -->
<g id="edge7" class="edge"><title>Node10&#45;&gt;Node3</title>
<path fill="none" stroke="#404040" d="M319.039,-325.395C308.352,-308.021 297.082,-289.699 285.954,-271.608"/>
<polygon fill="none" stroke="#404040" points="285.895,-271.512 279.344,-268.497 279.608,-261.291 286.158,-264.306 285.895,-271.512"/>
<text text-anchor="middle" x="343.5" y="-299" font-family="Helvetica,sans-Serif" font-size="10.00"> &#45;fUserParameters</text>
</g>
<!-- Node11 -->
<g id="node9" class="node"><title>Node11</title>
<polygon fill="none" stroke="#bfbfbf" points="507,-642.5 507,-710.5 603,-710.5 603,-642.5 507,-642.5"/>
<text text-anchor="start" x="515" y="-698.5" font-family="Helvetica,sans-Serif" font-size="10.00">std::vector&lt; hydra</text>
<text text-anchor="middle" x="555" y="-687.5" font-family="Helvetica,sans-Serif" font-size="10.00">::Parameter *&gt;</text>
<polyline fill="none" stroke="#bfbfbf" points="507,-680.5 603,-680.5 "/>
<text text-anchor="middle" x="555" y="-668.5" font-family="Helvetica,sans-Serif" font-size="10.00"> </text>
<polyline fill="none" stroke="#bfbfbf" points="507,-661.5 603,-661.5 "/>
<text text-anchor="middle" x="555" y="-649.5" font-family="Helvetica,sans-Serif" font-size="10.00"> </text>
</g>
<!-- Node11&#45;&gt;Node10 -->
<g id="edge8" class="edge"><title>Node11&#45;&gt;Node10</title>
<path fill="none" stroke="#404040" d="M531.761,-642.435C511.876,-614.141 482.123,-571.806 454.215,-532.098"/>
<polygon fill="none" stroke="#404040" points="454.067,-531.887 447.344,-529.278 447.167,-522.069 453.89,-524.678 454.067,-531.887"/>
<text text-anchor="middle" x="543" y="-581.5" font-family="Helvetica,sans-Serif" font-size="10.00"> &#45;fVariables</text>
</g>
<!-- Node12 -->
<g id="node10" class="node"><title>Node12</title>
<g id="a_node10"><a xlink:href="a00487.html#a01775" target="_top" xlink:title=", ">
<polygon fill="none" stroke="black" points="632,-758.5 632,-1013.5 724,-1013.5 724,-758.5 632,-758.5"/>
<text text-anchor="middle" x="678" y="-1001.5" font-family="Helvetica,sans-Serif" font-size="10.00">hydra::Parameter</text>
<polyline fill="none" stroke="black" points="632,-994.5 724,-994.5 "/>
<text text-anchor="start" x="640" y="-982.5" font-family="Helvetica,sans-Serif" font-size="10.00">&#45; fError</text>
<text text-anchor="start" x="640" y="-971.5" font-family="Helvetica,sans-Serif" font-size="10.00">&#45; fHasError</text>
<text text-anchor="start" x="640" y="-960.5" font-family="Helvetica,sans-Serif" font-size="10.00">&#45; fIndex</text>
<text text-anchor="start" x="640" y="-949.5" font-family="Helvetica,sans-Serif" font-size="10.00">&#45; fLimited</text>
<text text-anchor="start" x="640" y="-938.5" font-family="Helvetica,sans-Serif" font-size="10.00">&#45; fLowerLim</text>
<text text-anchor="start" x="640" y="-927.5" font-family="Helvetica,sans-Serif" font-size="10.00">&#45; fName</text>
<text text-anchor="start" x="640" y="-916.5" font-family="Helvetica,sans-Serif" font-size="10.00">&#45; fUpperLim</text>
<text text-anchor="start" x="640" y="-905.5" font-family="Helvetica,sans-Serif" font-size="10.00">&#45; fValue</text>
<polyline fill="none" stroke="black" points="632,-898.5 724,-898.5 "/>
<text text-anchor="start" x="640" y="-886.5" font-family="Helvetica,sans-Serif" font-size="10.00">+ Parameter()</text>
<text text-anchor="start" x="640" y="-875.5" font-family="Helvetica,sans-Serif" font-size="10.00">+ Parameter()</text>
<text text-anchor="start" x="640" y="-864.5" font-family="Helvetica,sans-Serif" font-size="10.00">+ Parameter()</text>
<text text-anchor="start" x="640" y="-853.5" font-family="Helvetica,sans-Serif" font-size="10.00">+ Parameter()</text>
<text text-anchor="start" x="640" y="-842.5" font-family="Helvetica,sans-Serif" font-size="10.00">+ Parameter()</text>
<text text-anchor="start" x="640" y="-831.5" font-family="Helvetica,sans-Serif" font-size="10.00">+ Parameter()</text>
<text text-anchor="start" x="640" y="-820.5" font-family="Helvetica,sans-Serif" font-size="10.00">+ Parameter()</text>
<text text-anchor="start" x="640" y="-809.5" font-family="Helvetica,sans-Serif" font-size="10.00">+ Error()</text>
<text text-anchor="start" x="640" y="-798.5" font-family="Helvetica,sans-Serif" font-size="10.00">+ GetError()</text>
<text text-anchor="start" x="640" y="-787.5" font-family="Helvetica,sans-Serif" font-size="10.00">+ GetIndex()</text>
<text text-anchor="start" x="640" y="-776.5" font-family="Helvetica,sans-Serif" font-size="10.00">and 33 more...</text>
<text text-anchor="start" x="640" y="-765.5" font-family="Helvetica,sans-Serif" font-size="10.00">+ Create()</text>
</a>
</g>
</g>
<!-- Node12&#45;&gt;Node11 -->
<g id="edge9" class="edge"><title>Node12&#45;&gt;Node11</title>
<path fill="none" stroke="#404040" d="M663.802,-758.308C659.663,-747.878 654.477,-737.93 648,-729 639.365,-717.095 627.094,-707.611 614.288,-700.195"/>
<polygon fill="none" stroke="#404040" points="614.069,-700.078 606.893,-700.793 603.473,-694.444 610.649,-693.73 614.069,-700.078"/>
<text text-anchor="middle" x="679.5" y="-732" font-family="Helvetica,sans-Serif" font-size="10.00"> +elements</text>
</g>
<!-- Node13&#45;&gt;Node11 -->
<g id="edge10" class="edge"><title>Node13&#45;&gt;Node11</title>
<path fill="none" stroke="orange" d="M520.584,-847.534C528.48,-808.519 540.732,-747.992 548.288,-710.659"/>
<polygon fill="orange" stroke="orange" points="517.131,-846.95 518.577,-857.446 523.992,-848.339 517.131,-846.95"/>
<text text-anchor="middle" x="594" y="-732" font-family="Helvetica,sans-Serif" font-size="10.00"> &lt; hydra::Parameter *&gt;</text>
</g>
<!-- Node14 -->
<g id="node12" class="node"><title>Node14</title>
<polygon fill="none" stroke="#bfbfbf" points="290,-642.5 290,-710.5 444,-710.5 444,-642.5 290,-642.5"/>
<text text-anchor="start" x="298" y="-698.5" font-family="Helvetica,sans-Serif" font-size="10.00">std::unique_ptr&lt; ROOT</text>
<text text-anchor="middle" x="367" y="-687.5" font-family="Helvetica,sans-Serif" font-size="10.00">::Minuit2::MnUserParameters &gt;</text>
<polyline fill="none" stroke="#bfbfbf" points="290,-680.5 444,-680.5 "/>
<text text-anchor="start" x="298" y="-668.5" font-family="Helvetica,sans-Serif" font-size="10.00">+ ptr</text>
<polyline fill="none" stroke="#bfbfbf" points="290,-661.5 444,-661.5 "/>
<text text-anchor="start" x="298" y="-649.5" font-family="Helvetica,sans-Serif" font-size="10.00">+ operator&#45;&gt;()</text>
</g>
<!-- Node14&#45;&gt;Node10 -->
<g id="edge12" class="edge"><title>Node14&#45;&gt;Node10</title>
<path fill="none" stroke="#404040" d="M368.726,-642.435C370.132,-615.516 372.201,-575.889 374.184,-537.905"/>
<polygon fill="none" stroke="#404040" points="374.198,-537.632 370.516,-531.432 374.824,-525.649 378.505,-531.849 374.198,-537.632"/>
<text text-anchor="middle" x="397" y="-581.5" font-family="Helvetica,sans-Serif" font-size="10.00"> &#45;fMnState</text>
</g>
<!-- Node15&#45;&gt;Node14 -->
<g id="edge13" class="edge"><title>Node15&#45;&gt;Node14</title>
<path fill="none" stroke="orange" d="M355.701,-847.134C352.844,-815.464 350.384,-769.149 355,-729 355.692,-722.981 356.825,-716.642 358.125,-710.548"/>
<polygon fill="orange" stroke="orange" points="352.236,-847.664 356.676,-857.283 359.204,-846.995 352.236,-847.664"/>
<text text-anchor="middle" x="444" y="-732" font-family="Helvetica,sans-Serif" font-size="10.00"> &lt; ROOT::Minuit2::MnUserParameters &gt;</text>
</g>
</g>
</svg>
        <g id="navigator" transform="translate(0 0)" fill="#404254">
                <rect fill="#f2f5e9" fill-opacity="0.5" stroke="#606060" stroke-width=".5" x="0" y="0" width="60" height="60"/>
                <use id="zoomplus" xlink:href="#zoomPlus" x="17" y="9" onmousedown="handleZoom(evt,'in')"/>
                <use id="zoomminus" xlink:href="#zoomMin" x="42" y="9" onmousedown="handleZoom(evt,'out')"/>
                <use id="reset" xlink:href="#resetDef" x="30" y="36" onmousedown="handleReset()"/>
                <g id="arrowUp" xlink:href="#dirArrow" transform="translate(30 24)" onmousedown="handlePan(0,-1)">
                  <use xlink:href="#rim" fill="#404040">
                        <set attributeName="fill" to="#808080" begin="arrowUp.mouseover" end="arrowUp.mouseout"/>
                  </use>
                  <path fill="none" stroke="white" stroke-width="1.5" d="M0,-3.0v7 M-2.5,-0.5L0,-3.0L2.5,-0.5"/>
                </g>
                <g id="arrowRight" xlink:href="#dirArrow" transform="rotate(90) translate(36 -43)" onmousedown="handlePan(1,0)">
                  <use xlink:href="#rim" fill="#404040">
                        <set attributeName="fill" to="#808080" begin="arrowRight.mouseover" end="arrowRight.mouseout"/>
                  </use>
                  <path fill="none" stroke="white" stroke-width="1.5" d="M0,-3.0v7 M-2.5,-0.5L0,-3.0L2.5,-0.5"/>
                </g>
                <g id="arrowDown" xlink:href="#dirArrow" transform="rotate(180) translate(-30 -48)" onmousedown="handlePan(0,1)">
                  <use xlink:href="#rim" fill="#404040">
                        <set attributeName="fill" to="#808080" begin="arrowDown.mouseover" end="arrowDown.mouseout"/>
                  </use>
                  <path fill="none" stroke="white" stroke-width="1.5" d="M0,-3.0v7 M-2.5,-0.5L0,-3.0L2.5,-0.5"/>
                </g>
                <g id="arrowLeft" xlink:href="#dirArrow" transform="rotate(270) translate(-36 17)" onmousedown="handlePan(-1,0)">
                  <use xlink:href="#rim" fill="#404040">
                        <set attributeName="fill" to="#808080" begin="arrowLeft.mouseover" end="arrowLeft.mouseout"/>
                  </use>
                  <path fill="none" stroke="white" stroke-width="1.5" d="M0,-3.0v7 M-2.5,-0.5L0,-3.0L2.5,-0.5"/>
                </g>
        </g>
        <svg viewBox="0 0 15 15" width="100%" height="30px" preserveAspectRatio="xMaxYMin meet">
         <g id="arrow_out" transform="scale(0.3 0.3)">
          <a xlink:href="a01665_org.svg" target="_base">
           <rect id="button" ry="5" rx="5" y="6" x="6" height="38" width="38"
                fill="#f2f5e9" fill-opacity="0.5" stroke="#606060" stroke-width="1.0"/>
           <path id="arrow"
             d="M 11.500037,31.436501 C 11.940474,20.09759 22.043105,11.32322 32.158766,21.979434 L 37.068811,17.246167 C 37.068811,17.246167 37.088388,32 37.088388,32 L 22.160133,31.978069 C 22.160133,31.978069 26.997745,27.140456 26.997745,27.140456 C 18.528582,18.264221 13.291696,25.230495 11.500037,31.436501 z"
             style="fill:#404040;"/>
          </a>
         </g>
        </svg>
</svg>
