<?xml version="1.0" encoding="UTF-8" standalone="no"?>
<!DOCTYPE svg PUBLIC "-//W3C//DTD SVG 1.1//EN"
 "http://www.w3.org/Graphics/SVG/1.1/DTD/svg11.dtd">
<!-- Generated by graphviz version 2.38.0 (20140413.2041)
 -->
<!-- Title: hydra::Events&lt; N, BACKEND &gt; Pages: 1 -->
<svg width="249pt" height="568pt"
 viewBox="0.00 0.00 249.00 568.00" xmlns="http://www.w3.org/2000/svg" xmlns:xlink="http://www.w3.org/1999/xlink">
<g id="graph0" class="graph" transform="scale(1 1) rotate(0) translate(4 564)">
<title>hydra::Events&lt; N, BACKEND &gt;</title>
<!-- Node1 -->
<g id="node1" class="node"><title>Node1</title>
<polygon fill="#bfbfbf" stroke="black" points="35,-0.5 35,-222.5 193,-222.5 193,-0.5 35,-0.5"/>
<text text-anchor="middle" x="114" y="-210.5" font-family="Helvetica,sans-Serif" font-size="10.00">hydra::Events&lt; N, BACKEND &gt;</text>
<polyline fill="none" stroke="black" points="35,-203.5 193,-203.5 "/>
<text text-anchor="start" x="43" y="-191.5" font-family="Helvetica,sans-Serif" font-size="10.00">&#45; fBegin</text>
<text text-anchor="start" x="43" y="-180.5" font-family="Helvetica,sans-Serif" font-size="10.00">&#45; fEnd</text>
<text text-anchor="start" x="43" y="-169.5" font-family="Helvetica,sans-Serif" font-size="10.00">&#45; fFlags</text>
<text text-anchor="start" x="43" y="-158.5" font-family="Helvetica,sans-Serif" font-size="10.00">&#45; fMaxWeight</text>
<text text-anchor="start" x="43" y="-147.5" font-family="Helvetica,sans-Serif" font-size="10.00">&#45; fNEvents</text>
<text text-anchor="start" x="43" y="-136.5" font-family="Helvetica,sans-Serif" font-size="10.00">&#45; fWeights</text>
<polyline fill="none" stroke="black" points="35,-129.5 193,-129.5 "/>
<text text-anchor="start" x="43" y="-117.5" font-family="Helvetica,sans-Serif" font-size="10.00">+ Events()</text>
<text text-anchor="start" x="43" y="-106.5" font-family="Helvetica,sans-Serif" font-size="10.00">+ Events()</text>
<text text-anchor="start" x="43" y="-95.5" font-family="Helvetica,sans-Serif" font-size="10.00">+ Events()</text>
<text text-anchor="start" x="43" y="-84.5" font-family="Helvetica,sans-Serif" font-size="10.00">+ ~Events()</text>
<text text-anchor="start" x="43" y="-73.5" font-family="Helvetica,sans-Serif" font-size="10.00">+ begin()</text>
<text text-anchor="start" x="43" y="-62.5" font-family="Helvetica,sans-Serif" font-size="10.00">+ DaughtersBegin()</text>
<text text-anchor="start" x="43" y="-51.5" font-family="Helvetica,sans-Serif" font-size="10.00">+ DaughtersBegin()</text>
<text text-anchor="start" x="43" y="-40.5" font-family="Helvetica,sans-Serif" font-size="10.00">+ DaughtersEnd()</text>
<text text-anchor="start" x="43" y="-29.5" font-family="Helvetica,sans-Serif" font-size="10.00">+ DaughtersEnd()</text>
<text text-anchor="start" x="43" y="-18.5" font-family="Helvetica,sans-Serif" font-size="10.00">+ end()</text>
<text text-anchor="start" x="43" y="-7.5" font-family="Helvetica,sans-Serif" font-size="10.00">and 15 more...</text>
</g>
<!-- Node2 -->
<g id="node2" class="node"><title>Node2</title>
<polygon fill="none" stroke="#bfbfbf" points="0,-270.5 0,-338.5 94,-338.5 94,-270.5 0,-270.5"/>
<text text-anchor="start" x="8" y="-326.5" font-family="Helvetica,sans-Serif" font-size="10.00">std::array&lt; vector</text>
<text text-anchor="middle" x="47" y="-315.5" font-family="Helvetica,sans-Serif" font-size="10.00">_particles, N &gt;</text>
<polyline fill="none" stroke="#bfbfbf" points="0,-308.5 94,-308.5 "/>
<text text-anchor="start" x="8" y="-296.5" font-family="Helvetica,sans-Serif" font-size="10.00">+ elements</text>
<polyline fill="none" stroke="#bfbfbf" points="0,-289.5 94,-289.5 "/>
<text text-anchor="middle" x="47" y="-277.5" font-family="Helvetica,sans-Serif" font-size="10.00"> </text>
</g>
<!-- Node2&#45;&gt;Node1 -->
<g id="edge1" class="edge"><title>Node2&#45;&gt;Node1</title>
<path fill="none" stroke="#404040" d="M58.6705,-270.23C62.3532,-259.732 66.6594,-247.456 71.2141,-234.472"/>
<polygon fill="none" stroke="#404040" points="71.2992,-234.229 69.5108,-227.243 75.2714,-222.905 77.0598,-229.891 71.2992,-234.229"/>
<text text-anchor="middle" x="96.5" y="-244" font-family="Helvetica,sans-Serif" font-size="10.00"> &#45;fDaughters</text>
</g>
<!-- Node3 -->
<g id="node3" class="node"><title>Node3</title>
<g id="a_node3"><a xlink:title="STL class. ">
<polygon fill="none" stroke="#bfbfbf" points="67,-397.5 67,-454.5 149,-454.5 149,-397.5 67,-397.5"/>
<text text-anchor="middle" x="108" y="-442.5" font-family="Helvetica,sans-Serif" font-size="10.00">std::array&lt; T &gt;</text>
<polyline fill="none" stroke="#bfbfbf" points="67,-435.5 149,-435.5 "/>
<text text-anchor="middle" x="108" y="-423.5" font-family="Helvetica,sans-Serif" font-size="10.00"> </text>
<polyline fill="none" stroke="#bfbfbf" points="67,-416.5 149,-416.5 "/>
<text text-anchor="middle" x="108" y="-404.5" font-family="Helvetica,sans-Serif" font-size="10.00"> </text>
</a>
</g>
</g>
<!-- Node3&#45;&gt;Node2 -->
<g id="edge2" class="edge"><title>Node3&#45;&gt;Node2</title>
<path fill="none" stroke="orange" d="M59.2813,-396.441C53.9469,-391.316 49.2723,-385.503 46,-379 39.8617,-366.803 39.0294,-351.961 40.1398,-338.817"/>
<polygon fill="orange" stroke="orange" points="57.0348,-399.126 66.8949,-403.002 61.6045,-393.823 57.0348,-399.126"/>
<text text-anchor="middle" x="98" y="-365.5" font-family="Helvetica,sans-Serif" font-size="10.00"> &lt; vector_particles, N &gt;</text>
</g>
<!-- Node5 -->
<g id="node5" class="node"><title>Node5</title>
<polygon fill="none" stroke="#bfbfbf" points="113,-270.5 113,-338.5 229,-338.5 229,-270.5 113,-270.5"/>
<text text-anchor="start" x="121" y="-326.5" font-family="Helvetica,sans-Serif" font-size="10.00">std::array&lt; vector</text>
<text text-anchor="middle" x="171" y="-315.5" font-family="Helvetica,sans-Serif" font-size="10.00">_particles_iterator, N &gt;</text>
<polyline fill="none" stroke="#bfbfbf" points="113,-308.5 229,-308.5 "/>
<text text-anchor="start" x="121" y="-296.5" font-family="Helvetica,sans-Serif" font-size="10.00">+ elements</text>
<polyline fill="none" stroke="#bfbfbf" points="113,-289.5 229,-289.5 "/>
<text text-anchor="middle" x="171" y="-277.5" font-family="Helvetica,sans-Serif" font-size="10.00"> </text>
</g>
<!-- Node3&#45;&gt;Node5 -->
<g id="edge5" class="edge"><title>Node3&#45;&gt;Node5</title>
<path fill="none" stroke="orange" d="M143.303,-389.326C145.763,-385.973 148.04,-382.511 150,-379 156.921,-366.601 161.726,-351.727 164.973,-338.612"/>
<polygon fill="orange" stroke="orange" points="140.367,-387.395 136.885,-397.401 145.847,-391.75 140.367,-387.395"/>
<text text-anchor="start" x="159" y="-371" font-family="Helvetica,sans-Serif" font-size="10.00"> &lt; vector_particles</text>
<text text-anchor="middle" x="200" y="-360" font-family="Helvetica,sans-Serif" font-size="10.00">_iterator, N &gt;</text>
</g>
<!-- Node4 -->
<g id="node4" class="node"><title>Node4</title>
<polygon fill="none" stroke="#bfbfbf" points="93.5,-502.5 93.5,-559.5 122.5,-559.5 122.5,-502.5 93.5,-502.5"/>
<text text-anchor="middle" x="108" y="-547.5" font-family="Helvetica,sans-Serif" font-size="10.00">T</text>
<polyline fill="none" stroke="#bfbfbf" points="93.5,-540.5 122.5,-540.5 "/>
<text text-anchor="middle" x="108" y="-528.5" font-family="Helvetica,sans-Serif" font-size="10.00"> </text>
<polyline fill="none" stroke="#bfbfbf" points="93.5,-521.5 122.5,-521.5 "/>
<text text-anchor="middle" x="108" y="-509.5" font-family="Helvetica,sans-Serif" font-size="10.00"> </text>
</g>
<!-- Node4&#45;&gt;Node3 -->
<g id="edge3" class="edge"><title>Node4&#45;&gt;Node3</title>
<path fill="none" stroke="#404040" d="M108,-502.398C108,-491.545 108,-478.873 108,-467.049"/>
<polygon fill="none" stroke="#404040" points="108,-466.678 104,-460.678 108,-454.678 112,-460.678 108,-466.678"/>
<text text-anchor="middle" x="132.5" y="-476" font-family="Helvetica,sans-Serif" font-size="10.00"> +elements</text>
</g>
<!-- Node5&#45;&gt;Node1 -->
<g id="edge4" class="edge"><title>Node5&#45;&gt;Node1</title>
<path fill="none" stroke="#404040" d="M161.071,-270.23C157.938,-259.732 154.275,-247.456 150.4,-234.472"/>
<polygon fill="none" stroke="#404040" points="150.38,-234.404 144.831,-229.799 146.948,-222.905 152.497,-227.511 150.38,-234.404"/>
<text text-anchor="middle" x="174" y="-244" font-family="Helvetica,sans-Serif" font-size="10.00"> +iterator</text>
</g>
</g>
</svg>
