<?xml version="1.0" encoding="UTF-8" standalone="no"?>
<!DOCTYPE svg PUBLIC "-//W3C//DTD SVG 1.1//EN"
 "http://www.w3.org/Graphics/SVG/1.1/DTD/svg11.dtd">
<!-- Generated by graphviz version 2.38.0 (20140413.2041)
 -->
<!-- Title: hydra::LambdaWrapper&lt; ReturnType(ArgType...), L, N &gt; Pages: 1 -->
<svg width="298pt" height="1005pt"
 viewBox="0.00 0.00 298.00 1005.00" xmlns="http://www.w3.org/2000/svg" xmlns:xlink="http://www.w3.org/1999/xlink">
<g id="graph0" class="graph" transform="scale(1 1) rotate(0) translate(4 1001)">
<title>hydra::LambdaWrapper&lt; ReturnType(ArgType...), L, N &gt;</title>
<!-- Node8 -->
<g id="node1" class="node"><title>Node8</title>
<polygon fill="#bfbfbf" stroke="black" points="30,-0.5 30,-178.5 158,-178.5 158,-0.5 30,-0.5"/>
<text text-anchor="start" x="38" y="-166.5" font-family="Helvetica,sans-Serif" font-size="10.00">hydra::LambdaWrapper</text>
<text text-anchor="start" x="38" y="-155.5" font-family="Helvetica,sans-Serif" font-size="10.00">&lt; ReturnType(ArgType...)</text>
<text text-anchor="middle" x="94" y="-144.5" font-family="Helvetica,sans-Serif" font-size="10.00">, L, N &gt;</text>
<polyline fill="none" stroke="black" points="30,-137.5 158,-137.5 "/>
<text text-anchor="start" x="38" y="-125.5" font-family="Helvetica,sans-Serif" font-size="10.00">&#45; fLambda</text>
<polyline fill="none" stroke="black" points="30,-118.5 158,-118.5 "/>
<text text-anchor="start" x="38" y="-106.5" font-family="Helvetica,sans-Serif" font-size="10.00">+ LambdaWrapper()</text>
<text text-anchor="start" x="38" y="-95.5" font-family="Helvetica,sans-Serif" font-size="10.00">+ LambdaWrapper()</text>
<text text-anchor="start" x="38" y="-84.5" font-family="Helvetica,sans-Serif" font-size="10.00">+ LambdaWrapper()</text>
<text text-anchor="start" x="38" y="-73.5" font-family="Helvetica,sans-Serif" font-size="10.00">+ LambdaWrapper()</text>
<text text-anchor="start" x="38" y="-62.5" font-family="Helvetica,sans-Serif" font-size="10.00">+ Evaluate()</text>
<text text-anchor="start" x="38" y="-51.5" font-family="Helvetica,sans-Serif" font-size="10.00">+ Evaluate()</text>
<text text-anchor="start" x="38" y="-40.5" font-family="Helvetica,sans-Serif" font-size="10.00">+ Evaluate()</text>
<text text-anchor="start" x="38" y="-29.5" font-family="Helvetica,sans-Serif" font-size="10.00">+ Evaluate()</text>
<text text-anchor="start" x="38" y="-18.5" font-family="Helvetica,sans-Serif" font-size="10.00">+ GetLambda()</text>
<text text-anchor="start" x="38" y="-7.5" font-family="Helvetica,sans-Serif" font-size="10.00">+ operator=()</text>
</g>
<!-- Node9 -->
<g id="node2" class="node"><title>Node9</title>
<g id="a_node2"><a xlink:href="a00490.html" target="_top" xlink:title="{hydra::BaseFunctor\l\&lt; LambdaWrapper\&lt; ReturnType\l(ArgType...), L, N \&gt;, ReturnType, N \&gt;\n|# _par\l&#45; fCached\l&#45; fCacheIndex\l&#45; fNArgs\l&#45; fNorm\l&#45; fNormalized\l&#45; fParamResgistered\l|+ BaseFunctor()\l+ BaseFunctor()\l+ BaseFunctor()\l+ BaseFunctor()\l+ GetCacheIndex()\l+ GetFunctor()\l+ GetNArgs()\l+ GetNorm()\l+ GetNormalized()\l+ interface()\land 12 more...\l}">
<polygon fill="none" stroke="black" points="3,-216.5 3,-471.5 185,-471.5 185,-216.5 3,-216.5"/>
<text text-anchor="start" x="11" y="-459.5" font-family="Helvetica,sans-Serif" font-size="10.00">hydra::BaseFunctor</text>
<text text-anchor="start" x="11" y="-448.5" font-family="Helvetica,sans-Serif" font-size="10.00">&lt; LambdaWrapper&lt; ReturnType</text>
<text text-anchor="middle" x="94" y="-437.5" font-family="Helvetica,sans-Serif" font-size="10.00">(ArgType...), L, N &gt;, ReturnType, N &gt;</text>
<polyline fill="none" stroke="black" points="3,-430.5 185,-430.5 "/>
<text text-anchor="start" x="11" y="-418.5" font-family="Helvetica,sans-Serif" font-size="10.00"># _par</text>
<text text-anchor="start" x="11" y="-407.5" font-family="Helvetica,sans-Serif" font-size="10.00">&#45; fCached</text>
<text text-anchor="start" x="11" y="-396.5" font-family="Helvetica,sans-Serif" font-size="10.00">&#45; fCacheIndex</text>
<text text-anchor="start" x="11" y="-385.5" font-family="Helvetica,sans-Serif" font-size="10.00">&#45; fNArgs</text>
<text text-anchor="start" x="11" y="-374.5" font-family="Helvetica,sans-Serif" font-size="10.00">&#45; fNorm</text>
<text text-anchor="start" x="11" y="-363.5" font-family="Helvetica,sans-Serif" font-size="10.00">&#45; fNormalized</text>
<text text-anchor="start" x="11" y="-352.5" font-family="Helvetica,sans-Serif" font-size="10.00">&#45; fParamResgistered</text>
<polyline fill="none" stroke="black" points="3,-345.5 185,-345.5 "/>
<text text-anchor="start" x="11" y="-333.5" font-family="Helvetica,sans-Serif" font-size="10.00">+ BaseFunctor()</text>
<text text-anchor="start" x="11" y="-322.5" font-family="Helvetica,sans-Serif" font-size="10.00">+ BaseFunctor()</text>
<text text-anchor="start" x="11" y="-311.5" font-family="Helvetica,sans-Serif" font-size="10.00">+ BaseFunctor()</text>
<text text-anchor="start" x="11" y="-300.5" font-family="Helvetica,sans-Serif" font-size="10.00">+ BaseFunctor()</text>
<text text-anchor="start" x="11" y="-289.5" font-family="Helvetica,sans-Serif" font-size="10.00">+ GetCacheIndex()</text>
<text text-anchor="start" x="11" y="-278.5" font-family="Helvetica,sans-Serif" font-size="10.00">+ GetFunctor()</text>
<text text-anchor="start" x="11" y="-267.5" font-family="Helvetica,sans-Serif" font-size="10.00">+ GetNArgs()</text>
<text text-anchor="start" x="11" y="-256.5" font-family="Helvetica,sans-Serif" font-size="10.00">+ GetNorm()</text>
<text text-anchor="start" x="11" y="-245.5" font-family="Helvetica,sans-Serif" font-size="10.00">+ GetNormalized()</text>
<text text-anchor="start" x="11" y="-234.5" font-family="Helvetica,sans-Serif" font-size="10.00">+ interface()</text>
<text text-anchor="start" x="11" y="-223.5" font-family="Helvetica,sans-Serif" font-size="10.00">and 12 more...</text>
</a>
</g>
</g>
<!-- Node9&#45;&gt;Node8 -->
<g id="edge1" class="edge"><title>Node9&#45;&gt;Node8</title>
<path fill="none" stroke="midnightblue" d="M94,-206.193C94,-196.825 94,-187.534 94,-178.53"/>
<polygon fill="none" stroke="midnightblue" points="90.5001,-206.38 94,-216.38 97.5001,-206.38 90.5001,-206.38"/>
</g>
<!-- Node10 -->
<g id="node3" class="node"><title>Node10</title>
<polygon fill="none" stroke="#bfbfbf" points="13,-823.5 13,-891.5 139,-891.5 139,-823.5 13,-823.5"/>
<text text-anchor="start" x="21" y="-879.5" font-family="Helvetica,sans-Serif" font-size="10.00">hydra::detail::Parameters</text>
<text text-anchor="middle" x="76" y="-868.5" font-family="Helvetica,sans-Serif" font-size="10.00">&lt; NPARAM &gt;</text>
<polyline fill="none" stroke="#bfbfbf" points="13,-861.5 139,-861.5 "/>
<text text-anchor="middle" x="76" y="-849.5" font-family="Helvetica,sans-Serif" font-size="10.00"> </text>
<polyline fill="none" stroke="#bfbfbf" points="13,-842.5 139,-842.5 "/>
<text text-anchor="middle" x="76" y="-830.5" font-family="Helvetica,sans-Serif" font-size="10.00"> </text>
</g>
<!-- Node10&#45;&gt;Node9 -->
<g id="edge2" class="edge"><title>Node10&#45;&gt;Node9</title>
<path fill="none" stroke="midnightblue" d="M76.41,-812.824C77.1178,-750.182 78.9074,-631.215 83,-530 83.7605,-511.193 84.7478,-491.321 85.8186,-471.853"/>
<polygon fill="none" stroke="midnightblue" points="72.9071,-813.078 76.2978,-823.116 79.9067,-813.154 72.9071,-813.078"/>
</g>
<!-- Node12 -->
<g id="node5" class="node"><title>Node12</title>
<g id="a_node5"><a xlink:href="a00490.html#a01671" target="_top" xlink:title="Base class for all functors in hydra. ">
<polygon fill="none" stroke="black" points="92.5,-530.5 92.5,-785.5 211.5,-785.5 211.5,-530.5 92.5,-530.5"/>
<text text-anchor="start" x="100.5" y="-773.5" font-family="Helvetica,sans-Serif" font-size="10.00">hydra::BaseFunctor</text>
<text text-anchor="start" x="100.5" y="-762.5" font-family="Helvetica,sans-Serif" font-size="10.00">&lt; Functor, ReturnType,</text>
<text text-anchor="middle" x="152" y="-751.5" font-family="Helvetica,sans-Serif" font-size="10.00"> NPARAM &gt;</text>
<polyline fill="none" stroke="black" points="92.5,-744.5 211.5,-744.5 "/>
<text text-anchor="start" x="100.5" y="-732.5" font-family="Helvetica,sans-Serif" font-size="10.00"># _par</text>
<text text-anchor="start" x="100.5" y="-721.5" font-family="Helvetica,sans-Serif" font-size="10.00">&#45; fCached</text>
<text text-anchor="start" x="100.5" y="-710.5" font-family="Helvetica,sans-Serif" font-size="10.00">&#45; fCacheIndex</text>
<text text-anchor="start" x="100.5" y="-699.5" font-family="Helvetica,sans-Serif" font-size="10.00">&#45; fNArgs</text>
<text text-anchor="start" x="100.5" y="-688.5" font-family="Helvetica,sans-Serif" font-size="10.00">&#45; fNorm</text>
<text text-anchor="start" x="100.5" y="-677.5" font-family="Helvetica,sans-Serif" font-size="10.00">&#45; fNormalized</text>
<text text-anchor="start" x="100.5" y="-666.5" font-family="Helvetica,sans-Serif" font-size="10.00">&#45; fParamResgistered</text>
<polyline fill="none" stroke="black" points="92.5,-659.5 211.5,-659.5 "/>
<text text-anchor="start" x="100.5" y="-647.5" font-family="Helvetica,sans-Serif" font-size="10.00">+ BaseFunctor()</text>
<text text-anchor="start" x="100.5" y="-636.5" font-family="Helvetica,sans-Serif" font-size="10.00">+ BaseFunctor()</text>
<text text-anchor="start" x="100.5" y="-625.5" font-family="Helvetica,sans-Serif" font-size="10.00">+ BaseFunctor()</text>
<text text-anchor="start" x="100.5" y="-614.5" font-family="Helvetica,sans-Serif" font-size="10.00">+ BaseFunctor()</text>
<text text-anchor="start" x="100.5" y="-603.5" font-family="Helvetica,sans-Serif" font-size="10.00">+ GetCacheIndex()</text>
<text text-anchor="start" x="100.5" y="-592.5" font-family="Helvetica,sans-Serif" font-size="10.00">+ GetFunctor()</text>
<text text-anchor="start" x="100.5" y="-581.5" font-family="Helvetica,sans-Serif" font-size="10.00">+ GetNArgs()</text>
<text text-anchor="start" x="100.5" y="-570.5" font-family="Helvetica,sans-Serif" font-size="10.00">+ GetNorm()</text>
<text text-anchor="start" x="100.5" y="-559.5" font-family="Helvetica,sans-Serif" font-size="10.00">+ GetNormalized()</text>
<text text-anchor="start" x="100.5" y="-548.5" font-family="Helvetica,sans-Serif" font-size="10.00">+ interface()</text>
<text text-anchor="start" x="100.5" y="-537.5" font-family="Helvetica,sans-Serif" font-size="10.00">and 12 more...</text>
</a>
</g>
</g>
<!-- Node10&#45;&gt;Node12 -->
<g id="edge5" class="edge"><title>Node10&#45;&gt;Node12</title>
<path fill="none" stroke="midnightblue" d="M92.3489,-814.014C95.6974,-805.313 99.3825,-795.736 103.228,-785.743"/>
<polygon fill="none" stroke="midnightblue" points="89.0456,-812.853 88.7207,-823.443 95.5786,-815.367 89.0456,-812.853"/>
</g>
<!-- Node11 -->
<g id="node4" class="node"><title>Node11</title>
<polygon fill="none" stroke="#bfbfbf" points="0,-939.5 0,-996.5 152,-996.5 152,-939.5 0,-939.5"/>
<text text-anchor="middle" x="76" y="-984.5" font-family="Helvetica,sans-Serif" font-size="10.00">hydra::detail::Parameters&lt; N &gt;</text>
<polyline fill="none" stroke="#bfbfbf" points="0,-977.5 152,-977.5 "/>
<text text-anchor="middle" x="76" y="-965.5" font-family="Helvetica,sans-Serif" font-size="10.00"> </text>
<polyline fill="none" stroke="#bfbfbf" points="0,-958.5 152,-958.5 "/>
<text text-anchor="middle" x="76" y="-946.5" font-family="Helvetica,sans-Serif" font-size="10.00"> </text>
</g>
<!-- Node11&#45;&gt;Node10 -->
<g id="edge3" class="edge"><title>Node11&#45;&gt;Node10</title>
<path fill="none" stroke="orange" d="M76,-928.987C76,-916.771 76,-903.346 76,-891.519"/>
<polygon fill="orange" stroke="orange" points="72.5001,-929.34 76,-939.34 79.5001,-929.34 72.5001,-929.34"/>
<text text-anchor="middle" x="108.5" y="-913" font-family="Helvetica,sans-Serif" font-size="10.00"> &lt; NPARAM &gt;</text>
</g>
<!-- Node12&#45;&gt;Node9 -->
<g id="edge4" class="edge"><title>Node12&#45;&gt;Node9</title>
<path fill="none" stroke="orange" d="M126.549,-520.089C123.548,-503.947 120.495,-487.527 117.523,-471.537"/>
<polygon fill="orange" stroke="orange" points="123.14,-520.906 128.409,-530.098 130.022,-519.626 123.14,-520.906"/>
<text text-anchor="start" x="124" y="-504" font-family="Helvetica,sans-Serif" font-size="10.00"> &lt; LambdaWrapper&lt; ReturnType</text>
<text text-anchor="middle" x="207" y="-493" font-family="Helvetica,sans-Serif" font-size="10.00">(ArgType...), L, N &gt;, ReturnType, N &gt;</text>
</g>
</g>
</svg>
