<?xml version="1.0" encoding="UTF-8" standalone="no"?>
<!DOCTYPE svg PUBLIC "-//W3C//DTD SVG 1.1//EN"
 "http://www.w3.org/Graphics/SVG/1.1/DTD/svg11.dtd">
<!-- Generated by graphviz version 2.38.0 (20140413.2041)
 -->
<!-- Title: hydra::PDFSumNonExtendable&lt; PDF1, PDF2, PDFs &gt; Pages: 1 -->
<svg width="245pt" height="625pt"
 viewBox="0.00 0.00 245.00 625.00" xmlns="http://www.w3.org/2000/svg" xmlns:xlink="http://www.w3.org/1999/xlink">
<g id="graph0" class="graph" transform="scale(1 1) rotate(0) translate(4 621)">
<title>hydra::PDFSumNonExtendable&lt; PDF1, PDF2, PDFs &gt;</title>
<!-- Node0 -->
<g id="node1" class="node"><title>Node0</title>
<polygon fill="#bfbfbf" stroke="black" points="0,-0.5 0,-277.5 154,-277.5 154,-0.5 0,-0.5"/>
<text text-anchor="start" x="8" y="-265.5" font-family="Helvetica,sans-Serif" font-size="10.00">hydra::PDFSumNonExtendable</text>
<text text-anchor="middle" x="77" y="-254.5" font-family="Helvetica,sans-Serif" font-size="10.00">&lt; PDF1, PDF2, PDFs &gt;</text>
<polyline fill="none" stroke="black" points="0,-247.5 154,-247.5 "/>
<text text-anchor="start" x="8" y="-235.5" font-family="Helvetica,sans-Serif" font-size="10.00">+ npdfs</text>
<text text-anchor="start" x="8" y="-224.5" font-family="Helvetica,sans-Serif" font-size="10.00">&#45; fCoeficients</text>
<text text-anchor="start" x="8" y="-213.5" font-family="Helvetica,sans-Serif" font-size="10.00">&#45; fCoefPartialSum</text>
<text text-anchor="start" x="8" y="-202.5" font-family="Helvetica,sans-Serif" font-size="10.00">&#45; fCoefSum</text>
<text text-anchor="start" x="8" y="-191.5" font-family="Helvetica,sans-Serif" font-size="10.00">&#45; fFunctors</text>
<text text-anchor="start" x="8" y="-180.5" font-family="Helvetica,sans-Serif" font-size="10.00">&#45; fPDFs</text>
<polyline fill="none" stroke="black" points="0,-173.5 154,-173.5 "/>
<text text-anchor="start" x="8" y="-161.5" font-family="Helvetica,sans-Serif" font-size="10.00">+ PDFSumNonExtendable()</text>
<text text-anchor="start" x="8" y="-150.5" font-family="Helvetica,sans-Serif" font-size="10.00">+ PDFSumNonExtendable()</text>
<text text-anchor="start" x="8" y="-139.5" font-family="Helvetica,sans-Serif" font-size="10.00">+ AddUserParameters()</text>
<text text-anchor="start" x="8" y="-128.5" font-family="Helvetica,sans-Serif" font-size="10.00">+ GetCoeficient()</text>
<text text-anchor="start" x="8" y="-117.5" font-family="Helvetica,sans-Serif" font-size="10.00">+ GetCoefPartialSum()</text>
<text text-anchor="start" x="8" y="-106.5" font-family="Helvetica,sans-Serif" font-size="10.00">+ GetCoefSum()</text>
<text text-anchor="start" x="8" y="-95.5" font-family="Helvetica,sans-Serif" font-size="10.00">+ GetFunctor()</text>
<text text-anchor="start" x="8" y="-84.5" font-family="Helvetica,sans-Serif" font-size="10.00">+ GetFunctors()</text>
<text text-anchor="start" x="8" y="-73.5" font-family="Helvetica,sans-Serif" font-size="10.00">+ GetPDFs()</text>
<text text-anchor="start" x="8" y="-62.5" font-family="Helvetica,sans-Serif" font-size="10.00">+ operator()()</text>
<text text-anchor="start" x="8" y="-51.5" font-family="Helvetica,sans-Serif" font-size="10.00">+ operator()()</text>
<text text-anchor="start" x="8" y="-40.5" font-family="Helvetica,sans-Serif" font-size="10.00">+ operator()()</text>
<text text-anchor="start" x="8" y="-29.5" font-family="Helvetica,sans-Serif" font-size="10.00">+ operator=()</text>
<text text-anchor="start" x="8" y="-18.5" font-family="Helvetica,sans-Serif" font-size="10.00">+ PrintRegisteredParameters()</text>
<text text-anchor="start" x="8" y="-7.5" font-family="Helvetica,sans-Serif" font-size="10.00">+ SetParameters()</text>
</g>
<!-- Node1 -->
<g id="node2" class="node"><title>Node1</title>
<polygon fill="none" stroke="#bfbfbf" points="11,-315.5 11,-383.5 143,-383.5 143,-315.5 11,-315.5"/>
<text text-anchor="start" x="19" y="-371.5" font-family="Helvetica,sans-Serif" font-size="10.00">hydra::detail::AddPdfBase</text>
<text text-anchor="middle" x="77" y="-360.5" font-family="Helvetica,sans-Serif" font-size="10.00">&lt; PDF1, PDF2, PDFs... &gt;</text>
<polyline fill="none" stroke="#bfbfbf" points="11,-353.5 143,-353.5 "/>
<text text-anchor="middle" x="77" y="-341.5" font-family="Helvetica,sans-Serif" font-size="10.00"> </text>
<polyline fill="none" stroke="#bfbfbf" points="11,-334.5 143,-334.5 "/>
<text text-anchor="middle" x="77" y="-322.5" font-family="Helvetica,sans-Serif" font-size="10.00"> </text>
</g>
<!-- Node1&#45;&gt;Node0 -->
<g id="edge1" class="edge"><title>Node1&#45;&gt;Node0</title>
<path fill="none" stroke="midnightblue" d="M77,-305.249C77,-296.817 77,-287.562 77,-277.874"/>
<polygon fill="none" stroke="midnightblue" points="73.5001,-305.463 77,-315.463 80.5001,-305.463 73.5001,-305.463"/>
</g>
<!-- Node2 -->
<g id="node3" class="node"><title>Node2</title>
<polygon fill="none" stroke="#bfbfbf" points="13.5,-537.5 13.5,-616.5 166.5,-616.5 166.5,-537.5 13.5,-537.5"/>
<text text-anchor="start" x="21.5" y="-604.5" font-family="Helvetica,sans-Serif" font-size="10.00">std::enable_if&lt; AddPdfChecker</text>
<text text-anchor="start" x="21.5" y="-593.5" font-family="Helvetica,sans-Serif" font-size="10.00">&lt; PDF1, PDF2, PDFs... &gt;::</text>
<text text-anchor="middle" x="90" y="-582.5" font-family="Helvetica,sans-Serif" font-size="10.00">value &gt;</text>
<polyline fill="none" stroke="#bfbfbf" points="13.5,-575.5 166.5,-575.5 "/>
<text text-anchor="middle" x="90" y="-563.5" font-family="Helvetica,sans-Serif" font-size="10.00"> </text>
<polyline fill="none" stroke="#bfbfbf" points="13.5,-556.5 166.5,-556.5 "/>
<text text-anchor="middle" x="90" y="-544.5" font-family="Helvetica,sans-Serif" font-size="10.00"> </text>
</g>
<!-- Node2&#45;&gt;Node1 -->
<g id="edge2" class="edge"><title>Node2&#45;&gt;Node1</title>
<path fill="none" stroke="midnightblue" d="M82.7875,-527.367C81.6726,-518.29 80.6705,-508.87 80,-500 76.9769,-460.006 76.5101,-413.833 76.6151,-383.507"/>
<polygon fill="none" stroke="midnightblue" points="79.3338,-527.952 84.0825,-537.423 86.2764,-527.058 79.3338,-527.952"/>
</g>
<!-- Node3 -->
<g id="node4" class="node"><title>Node3</title>
<polygon fill="none" stroke="#bfbfbf" points="89.5,-431.5 89.5,-499.5 220.5,-499.5 220.5,-431.5 89.5,-431.5"/>
<text text-anchor="start" x="97.5" y="-487.5" font-family="Helvetica,sans-Serif" font-size="10.00">hydra::detail::AddPdfBase</text>
<text text-anchor="middle" x="155" y="-476.5" font-family="Helvetica,sans-Serif" font-size="10.00">&lt; PDF1, PDF2, PDFs &gt;</text>
<polyline fill="none" stroke="#bfbfbf" points="89.5,-469.5 220.5,-469.5 "/>
<text text-anchor="middle" x="155" y="-457.5" font-family="Helvetica,sans-Serif" font-size="10.00"> </text>
<polyline fill="none" stroke="#bfbfbf" points="89.5,-450.5 220.5,-450.5 "/>
<text text-anchor="middle" x="155" y="-438.5" font-family="Helvetica,sans-Serif" font-size="10.00"> </text>
</g>
<!-- Node2&#45;&gt;Node3 -->
<g id="edge4" class="edge"><title>Node2&#45;&gt;Node3</title>
<path fill="none" stroke="midnightblue" d="M118.152,-528.575C123.934,-518.835 129.902,-508.78 135.308,-499.674"/>
<polygon fill="none" stroke="midnightblue" points="115.011,-527.009 112.917,-537.394 121.031,-530.582 115.011,-527.009"/>
</g>
<!-- Node3&#45;&gt;Node1 -->
<g id="edge3" class="edge"><title>Node3&#45;&gt;Node1</title>
<path fill="none" stroke="orange" d="M126.548,-422.916C117.697,-409.981 108.064,-395.901 99.664,-383.624"/>
<polygon fill="orange" stroke="orange" points="123.694,-424.943 132.229,-431.22 129.471,-420.991 123.694,-424.943"/>
<text text-anchor="middle" x="177.5" y="-405" font-family="Helvetica,sans-Serif" font-size="10.00"> &lt; PDF1, PDF2, PDFs... &gt;</text>
</g>
</g>
</svg>
