<?xml version="1.0" encoding="UTF-8" standalone="no"?>
<!DOCTYPE svg PUBLIC "-//W3C//DTD SVG 1.1//EN"
 "http://www.w3.org/Graphics/SVG/1.1/DTD/svg11.dtd">
<!-- Generated by graphviz version 2.38.0 (20140413.2041)
 -->
<!-- Title: hydra::LambdaWrapper&lt; ReturnType(ArgType...), L, N &gt; Pages: 1 -->
<svg width="298pt" height="873pt"
 viewBox="0.00 0.00 298.00 873.00" xmlns="http://www.w3.org/2000/svg" xmlns:xlink="http://www.w3.org/1999/xlink">
<g id="graph0" class="graph" transform="scale(1 1) rotate(0) translate(4 869)">
<title>hydra::LambdaWrapper&lt; ReturnType(ArgType...), L, N &gt;</title>
<!-- Node13 -->
<g id="node1" class="node"><title>Node13</title>
<polygon fill="#bfbfbf" stroke="black" points="30,-0.5 30,-178.5 158,-178.5 158,-0.5 30,-0.5"/>
<text text-anchor="start" x="38" y="-166.5" font-family="Helvetica,sans-Serif" font-size="10.00">hydra::LambdaWrapper</text>
<text text-anchor="start" x="38" y="-155.5" font-family="Helvetica,sans-Serif" font-size="10.00">&lt; ReturnType(ArgType...)</text>
<text text-anchor="middle" x="94" y="-144.5" font-family="Helvetica,sans-Serif" font-size="10.00">, L, N &gt;</text>
<polyline fill="none" stroke="black" points="30,-137.5 158,-137.5 "/>
<text text-anchor="middle" x="94" y="-125.5" font-family="Helvetica,sans-Serif" font-size="10.00"> </text>
<polyline fill="none" stroke="black" points="30,-118.5 158,-118.5 "/>
<text text-anchor="start" x="38" y="-106.5" font-family="Helvetica,sans-Serif" font-size="10.00">+ LambdaWrapper()</text>
<text text-anchor="start" x="38" y="-95.5" font-family="Helvetica,sans-Serif" font-size="10.00">+ LambdaWrapper()</text>
<text text-anchor="start" x="38" y="-84.5" font-family="Helvetica,sans-Serif" font-size="10.00">+ LambdaWrapper()</text>
<text text-anchor="start" x="38" y="-73.5" font-family="Helvetica,sans-Serif" font-size="10.00">+ LambdaWrapper()</text>
<text text-anchor="start" x="38" y="-62.5" font-family="Helvetica,sans-Serif" font-size="10.00">+ Evaluate()</text>
<text text-anchor="start" x="38" y="-51.5" font-family="Helvetica,sans-Serif" font-size="10.00">+ Evaluate()</text>
<text text-anchor="start" x="38" y="-40.5" font-family="Helvetica,sans-Serif" font-size="10.00">+ Evaluate()</text>
<text text-anchor="start" x="38" y="-29.5" font-family="Helvetica,sans-Serif" font-size="10.00">+ Evaluate()</text>
<text text-anchor="start" x="38" y="-18.5" font-family="Helvetica,sans-Serif" font-size="10.00">+ GetLambda()</text>
<text text-anchor="start" x="38" y="-7.5" font-family="Helvetica,sans-Serif" font-size="10.00">+ operator=()</text>
</g>
<!-- Node14 -->
<g id="node2" class="node"><title>Node14</title>
<g id="a_node2"><a xlink:href="a00643.html" target="_top" xlink:title="{hydra::BaseFunctor\l\&lt; LambdaWrapper\&lt; ReturnType\l(ArgType...), L, N \&gt;, ReturnType, N \&gt;\n|# _par\l|+ BaseFunctor()\l+ BaseFunctor()\l+ BaseFunctor()\l+ BaseFunctor()\l+ GetCacheIndex()\l+ GetFunctor()\l+ GetNArgs()\l+ GetNorm()\l+ GetNormalized()\l+ interface()\land 12 more...\l}">
<polygon fill="none" stroke="black" points="3,-216.5 3,-405.5 185,-405.5 185,-216.5 3,-216.5"/>
<text text-anchor="start" x="11" y="-393.5" font-family="Helvetica,sans-Serif" font-size="10.00">hydra::BaseFunctor</text>
<text text-anchor="start" x="11" y="-382.5" font-family="Helvetica,sans-Serif" font-size="10.00">&lt; LambdaWrapper&lt; ReturnType</text>
<text text-anchor="middle" x="94" y="-371.5" font-family="Helvetica,sans-Serif" font-size="10.00">(ArgType...), L, N &gt;, ReturnType, N &gt;</text>
<polyline fill="none" stroke="black" points="3,-364.5 185,-364.5 "/>
<text text-anchor="start" x="11" y="-352.5" font-family="Helvetica,sans-Serif" font-size="10.00"># _par</text>
<polyline fill="none" stroke="black" points="3,-345.5 185,-345.5 "/>
<text text-anchor="start" x="11" y="-333.5" font-family="Helvetica,sans-Serif" font-size="10.00">+ BaseFunctor()</text>
<text text-anchor="start" x="11" y="-322.5" font-family="Helvetica,sans-Serif" font-size="10.00">+ BaseFunctor()</text>
<text text-anchor="start" x="11" y="-311.5" font-family="Helvetica,sans-Serif" font-size="10.00">+ BaseFunctor()</text>
<text text-anchor="start" x="11" y="-300.5" font-family="Helvetica,sans-Serif" font-size="10.00">+ BaseFunctor()</text>
<text text-anchor="start" x="11" y="-289.5" font-family="Helvetica,sans-Serif" font-size="10.00">+ GetCacheIndex()</text>
<text text-anchor="start" x="11" y="-278.5" font-family="Helvetica,sans-Serif" font-size="10.00">+ GetFunctor()</text>
<text text-anchor="start" x="11" y="-267.5" font-family="Helvetica,sans-Serif" font-size="10.00">+ GetNArgs()</text>
<text text-anchor="start" x="11" y="-256.5" font-family="Helvetica,sans-Serif" font-size="10.00">+ GetNorm()</text>
<text text-anchor="start" x="11" y="-245.5" font-family="Helvetica,sans-Serif" font-size="10.00">+ GetNormalized()</text>
<text text-anchor="start" x="11" y="-234.5" font-family="Helvetica,sans-Serif" font-size="10.00">+ interface()</text>
<text text-anchor="start" x="11" y="-223.5" font-family="Helvetica,sans-Serif" font-size="10.00">and 12 more...</text>
</a>
</g>
</g>
<!-- Node14&#45;&gt;Node13 -->
<g id="edge1" class="edge"><title>Node14&#45;&gt;Node13</title>
<path fill="none" stroke="midnightblue" d="M94,-205.998C94,-196.864 94,-187.675 94,-178.688"/>
<polygon fill="none" stroke="midnightblue" points="90.5001,-206.276 94,-216.276 97.5001,-206.276 90.5001,-206.276"/>
</g>
<!-- Node15 -->
<g id="node3" class="node"><title>Node15</title>
<polygon fill="none" stroke="#bfbfbf" points="13,-691.5 13,-759.5 139,-759.5 139,-691.5 13,-691.5"/>
<text text-anchor="start" x="21" y="-747.5" font-family="Helvetica,sans-Serif" font-size="10.00">hydra::detail::Parameters</text>
<text text-anchor="middle" x="76" y="-736.5" font-family="Helvetica,sans-Serif" font-size="10.00">&lt; NPARAM &gt;</text>
<polyline fill="none" stroke="#bfbfbf" points="13,-729.5 139,-729.5 "/>
<text text-anchor="middle" x="76" y="-717.5" font-family="Helvetica,sans-Serif" font-size="10.00"> </text>
<polyline fill="none" stroke="#bfbfbf" points="13,-710.5 139,-710.5 "/>
<text text-anchor="middle" x="76" y="-698.5" font-family="Helvetica,sans-Serif" font-size="10.00"> </text>
</g>
<!-- Node15&#45;&gt;Node14 -->
<g id="edge2" class="edge"><title>Node15&#45;&gt;Node14</title>
<path fill="none" stroke="midnightblue" d="M76.5656,-681.027C77.3781,-629.291 79.2157,-540.305 83,-464 83.937,-445.106 85.2087,-424.909 86.555,-405.611"/>
<polygon fill="none" stroke="midnightblue" points="73.0638,-681.121 76.4119,-691.173 80.063,-681.227 73.0638,-681.121"/>
</g>
<!-- Node17 -->
<g id="node5" class="node"><title>Node17</title>
<g id="a_node5"><a xlink:href="a00643.html#a01845" target="_top" xlink:title="Base class for all functors in hydra. ">
<polygon fill="none" stroke="black" points="92.5,-464.5 92.5,-653.5 211.5,-653.5 211.5,-464.5 92.5,-464.5"/>
<text text-anchor="start" x="100.5" y="-641.5" font-family="Helvetica,sans-Serif" font-size="10.00">hydra::BaseFunctor</text>
<text text-anchor="start" x="100.5" y="-630.5" font-family="Helvetica,sans-Serif" font-size="10.00">&lt; Functor, ReturnType,</text>
<text text-anchor="middle" x="152" y="-619.5" font-family="Helvetica,sans-Serif" font-size="10.00"> NPARAM &gt;</text>
<polyline fill="none" stroke="black" points="92.5,-612.5 211.5,-612.5 "/>
<text text-anchor="start" x="100.5" y="-600.5" font-family="Helvetica,sans-Serif" font-size="10.00"># _par</text>
<polyline fill="none" stroke="black" points="92.5,-593.5 211.5,-593.5 "/>
<text text-anchor="start" x="100.5" y="-581.5" font-family="Helvetica,sans-Serif" font-size="10.00">+ BaseFunctor()</text>
<text text-anchor="start" x="100.5" y="-570.5" font-family="Helvetica,sans-Serif" font-size="10.00">+ BaseFunctor()</text>
<text text-anchor="start" x="100.5" y="-559.5" font-family="Helvetica,sans-Serif" font-size="10.00">+ BaseFunctor()</text>
<text text-anchor="start" x="100.5" y="-548.5" font-family="Helvetica,sans-Serif" font-size="10.00">+ BaseFunctor()</text>
<text text-anchor="start" x="100.5" y="-537.5" font-family="Helvetica,sans-Serif" font-size="10.00">+ GetCacheIndex()</text>
<text text-anchor="start" x="100.5" y="-526.5" font-family="Helvetica,sans-Serif" font-size="10.00">+ GetFunctor()</text>
<text text-anchor="start" x="100.5" y="-515.5" font-family="Helvetica,sans-Serif" font-size="10.00">+ GetNArgs()</text>
<text text-anchor="start" x="100.5" y="-504.5" font-family="Helvetica,sans-Serif" font-size="10.00">+ GetNorm()</text>
<text text-anchor="start" x="100.5" y="-493.5" font-family="Helvetica,sans-Serif" font-size="10.00">+ GetNormalized()</text>
<text text-anchor="start" x="100.5" y="-482.5" font-family="Helvetica,sans-Serif" font-size="10.00">+ interface()</text>
<text text-anchor="start" x="100.5" y="-471.5" font-family="Helvetica,sans-Serif" font-size="10.00">and 12 more...</text>
</a>
</g>
</g>
<!-- Node15&#45;&gt;Node17 -->
<g id="edge5" class="edge"><title>Node15&#45;&gt;Node17</title>
<path fill="none" stroke="midnightblue" d="M95.6279,-682.016C99.6877,-673.229 104.116,-663.644 108.648,-653.835"/>
<polygon fill="none" stroke="midnightblue" points="92.3966,-680.665 91.3797,-691.211 98.7512,-683.601 92.3966,-680.665"/>
</g>
<!-- Node16 -->
<g id="node4" class="node"><title>Node16</title>
<polygon fill="none" stroke="#bfbfbf" points="0,-807.5 0,-864.5 152,-864.5 152,-807.5 0,-807.5"/>
<text text-anchor="middle" x="76" y="-852.5" font-family="Helvetica,sans-Serif" font-size="10.00">hydra::detail::Parameters&lt; N &gt;</text>
<polyline fill="none" stroke="#bfbfbf" points="0,-845.5 152,-845.5 "/>
<text text-anchor="middle" x="76" y="-833.5" font-family="Helvetica,sans-Serif" font-size="10.00"> </text>
<polyline fill="none" stroke="#bfbfbf" points="0,-826.5 152,-826.5 "/>
<text text-anchor="middle" x="76" y="-814.5" font-family="Helvetica,sans-Serif" font-size="10.00"> </text>
</g>
<!-- Node16&#45;&gt;Node15 -->
<g id="edge3" class="edge"><title>Node16&#45;&gt;Node15</title>
<path fill="none" stroke="orange" d="M76,-796.987C76,-784.771 76,-771.346 76,-759.519"/>
<polygon fill="orange" stroke="orange" points="72.5001,-797.34 76,-807.34 79.5001,-797.34 72.5001,-797.34"/>
<text text-anchor="middle" x="108.5" y="-781" font-family="Helvetica,sans-Serif" font-size="10.00"> &lt; NPARAM &gt;</text>
</g>
<!-- Node17&#45;&gt;Node14 -->
<g id="edge4" class="edge"><title>Node17&#45;&gt;Node14</title>
<path fill="none" stroke="orange" d="M127.561,-454.346C123.767,-438.254 119.866,-421.709 116.127,-405.851"/>
<polygon fill="orange" stroke="orange" points="124.206,-455.366 129.907,-464.296 131.019,-453.76 124.206,-455.366"/>
<text text-anchor="start" x="124" y="-438" font-family="Helvetica,sans-Serif" font-size="10.00"> &lt; LambdaWrapper&lt; ReturnType</text>
<text text-anchor="middle" x="207" y="-427" font-family="Helvetica,sans-Serif" font-size="10.00">(ArgType...), L, N &gt;, ReturnType, N &gt;</text>
</g>
</g>
</svg>
