<?xml version="1.0" encoding="UTF-8" standalone="no"?>
<!DOCTYPE svg PUBLIC "-//W3C//DTD SVG 1.1//EN"
 "http://www.w3.org/Graphics/SVG/1.1/DTD/svg11.dtd">
<!-- Generated by graphviz version 2.38.0 (20140413.2041)
 -->
<!-- Title: hydra::SPlot&lt; PDF1, PDF2, PDFs &gt; Pages: 1 -->
<!--zoomable 471 -->
<svg id="main" version="1.1" xmlns="http://www.w3.org/2000/svg" xmlns:xlink="http://www.w3.org/1999/xlink" xml:space="preserve" onload="init(evt)">
<style type="text/css"><![CDATA[
.edge:hover path { stroke: red; }
.edge:hover polygon { stroke: red; fill: red; }
]]></style>
<script type="text/javascript"><![CDATA[
var edges = document.getElementsByTagName('g');
if (edges && edges.length) {
  for (var i=0;i<edges.length;i++) {
    if (edges[i].id.substr(0,4)=='edge') {
      edges[i].setAttribute('class','edge');
    }
  }
}
]]></script>
        <defs>
                <circle id="rim" cx="0" cy="0" r="7"/>
                <circle id="rim2" cx="0" cy="0" r="3.5"/>
                <g id="zoomPlus">
                        <use xlink:href="#rim" fill="#404040">
                                <set attributeName="fill" to="#808080" begin="zoomplus.mouseover" end="zoomplus.mouseout"/>
                        </use>
                        <path d="M-4,0h8M0,-4v8" fill="none" stroke="white" stroke-width="1.5" pointer-events="none"/>
                </g>
                <g id="zoomMin">
                        <use xlink:href="#rim" fill="#404040">
                                <set attributeName="fill" to="#808080" begin="zoomminus.mouseover" end="zoomminus.mouseout"/>
                        </use>
                        <path d="M-4,0h8" fill="none" stroke="white" stroke-width="1.5" pointer-events="none"/>
                </g>
                <g id="dirArrow">
                        <path fill="none" stroke="white" stroke-width="1.5" d="M0,-3.0v7 M-2.5,-0.5L0,-3.0L2.5,-0.5"/>
                </g>
               <g id="resetDef">
                       <use xlink:href="#rim2" fill="#404040">
                               <set attributeName="fill" to="#808080" begin="reset.mouseover" end="reset.mouseout"/>
                       </use>
               </g>
        </defs>

<script type="text/javascript">
var viewWidth = 234;
var viewHeight = 471;
var sectionId = 'dynsection-1';
</script>
<script xlink:href="svgpan.js"/>
<svg id="graph" class="graph">
<g id="viewport">
<title>hydra::SPlot&lt; PDF1, PDF2, PDFs &gt;</title>
<!-- Node4 -->
<g id="node1" class="node"><title>Node4</title>
<polygon fill="#bfbfbf" stroke="black" points="12,-0.5 12,-123.5 120,-123.5 120,-0.5 12,-0.5"/>
<text text-anchor="start" x="20" y="-111.5" font-family="Helvetica,sans-Serif" font-size="10.00">hydra::SPlot&lt; PDF1,</text>
<text text-anchor="middle" x="66" y="-100.5" font-family="Helvetica,sans-Serif" font-size="10.00"> PDF2, PDFs &gt;</text>
<polyline fill="none" stroke="black" points="12,-93.5 120,-93.5 "/>
<text text-anchor="start" x="20" y="-81.5" font-family="Helvetica,sans-Serif" font-size="10.00">+ npdfs</text>
<polyline fill="none" stroke="black" points="12,-74.5 120,-74.5 "/>
<text text-anchor="start" x="20" y="-62.5" font-family="Helvetica,sans-Serif" font-size="10.00">+ SPlot()</text>
<text text-anchor="start" x="20" y="-51.5" font-family="Helvetica,sans-Serif" font-size="10.00">+ SPlot()</text>
<text text-anchor="start" x="20" y="-40.5" font-family="Helvetica,sans-Serif" font-size="10.00">+ Generate()</text>
<text text-anchor="start" x="20" y="-29.5" font-family="Helvetica,sans-Serif" font-size="10.00">+ GetCoeficient()</text>
<text text-anchor="start" x="20" y="-18.5" font-family="Helvetica,sans-Serif" font-size="10.00">+ GetFunctors()</text>
<text text-anchor="start" x="20" y="-7.5" font-family="Helvetica,sans-Serif" font-size="10.00">+ GetPDFs()</text>
</g>
<!-- Node5 -->
<g id="node2" class="node"><title>Node5</title>
<polygon fill="none" stroke="#bfbfbf" points="0,-161.5 0,-229.5 132,-229.5 132,-161.5 0,-161.5"/>
<text text-anchor="start" x="8" y="-217.5" font-family="Helvetica,sans-Serif" font-size="10.00">hydra::detail::AddPdfBase</text>
<text text-anchor="middle" x="66" y="-206.5" font-family="Helvetica,sans-Serif" font-size="10.00">&lt; PDF1, PDF2, PDFs... &gt;</text>
<polyline fill="none" stroke="#bfbfbf" points="0,-199.5 132,-199.5 "/>
<text text-anchor="middle" x="66" y="-187.5" font-family="Helvetica,sans-Serif" font-size="10.00"> </text>
<polyline fill="none" stroke="#bfbfbf" points="0,-180.5 132,-180.5 "/>
<text text-anchor="middle" x="66" y="-168.5" font-family="Helvetica,sans-Serif" font-size="10.00"> </text>
</g>
<!-- Node5&#45;&gt;Node4 -->
<g id="edge1" class="edge"><title>Node5&#45;&gt;Node4</title>
<path fill="none" stroke="midnightblue" d="M66,-151.248C66,-142.389 66,-132.91 66,-123.572"/>
<polygon fill="none" stroke="midnightblue" points="62.5001,-151.317 66,-161.317 69.5001,-151.317 62.5001,-151.317"/>
</g>
<!-- Node6 -->
<g id="node3" class="node"><title>Node6</title>
<polygon fill="none" stroke="#bfbfbf" points="2.5,-383.5 2.5,-462.5 155.5,-462.5 155.5,-383.5 2.5,-383.5"/>
<text text-anchor="start" x="10.5" y="-450.5" font-family="Helvetica,sans-Serif" font-size="10.00">std::enable_if&lt; AddPdfChecker</text>
<text text-anchor="start" x="10.5" y="-439.5" font-family="Helvetica,sans-Serif" font-size="10.00">&lt; PDF1, PDF2, PDFs... &gt;::</text>
<text text-anchor="middle" x="79" y="-428.5" font-family="Helvetica,sans-Serif" font-size="10.00">value &gt;</text>
<polyline fill="none" stroke="#bfbfbf" points="2.5,-421.5 155.5,-421.5 "/>
<text text-anchor="middle" x="79" y="-409.5" font-family="Helvetica,sans-Serif" font-size="10.00"> </text>
<polyline fill="none" stroke="#bfbfbf" points="2.5,-402.5 155.5,-402.5 "/>
<text text-anchor="middle" x="79" y="-390.5" font-family="Helvetica,sans-Serif" font-size="10.00"> </text>
</g>
<!-- Node6&#45;&gt;Node5 -->
<g id="edge2" class="edge"><title>Node6&#45;&gt;Node5</title>
<path fill="none" stroke="midnightblue" d="M71.7875,-373.367C70.6726,-364.29 69.6705,-354.87 69,-346 65.9769,-306.006 65.5101,-259.833 65.6151,-229.507"/>
<polygon fill="none" stroke="midnightblue" points="68.3338,-373.952 73.0825,-383.423 75.2764,-373.058 68.3338,-373.952"/>
</g>
<!-- Node7 -->
<g id="node4" class="node"><title>Node7</title>
<polygon fill="none" stroke="#bfbfbf" points="78.5,-277.5 78.5,-345.5 209.5,-345.5 209.5,-277.5 78.5,-277.5"/>
<text text-anchor="start" x="86.5" y="-333.5" font-family="Helvetica,sans-Serif" font-size="10.00">hydra::detail::AddPdfBase</text>
<text text-anchor="middle" x="144" y="-322.5" font-family="Helvetica,sans-Serif" font-size="10.00">&lt; PDF1, PDF2, PDFs &gt;</text>
<polyline fill="none" stroke="#bfbfbf" points="78.5,-315.5 209.5,-315.5 "/>
<text text-anchor="middle" x="144" y="-303.5" font-family="Helvetica,sans-Serif" font-size="10.00"> </text>
<polyline fill="none" stroke="#bfbfbf" points="78.5,-296.5 209.5,-296.5 "/>
<text text-anchor="middle" x="144" y="-284.5" font-family="Helvetica,sans-Serif" font-size="10.00"> </text>
</g>
<!-- Node6&#45;&gt;Node7 -->
<g id="edge4" class="edge"><title>Node6&#45;&gt;Node7</title>
<path fill="none" stroke="midnightblue" d="M107.152,-374.575C112.934,-364.835 118.902,-354.78 124.308,-345.674"/>
<polygon fill="none" stroke="midnightblue" points="104.011,-373.009 101.917,-383.394 110.031,-376.582 104.011,-373.009"/>
</g>
<!-- Node7&#45;&gt;Node5 -->
<g id="edge3" class="edge"><title>Node7&#45;&gt;Node5</title>
<path fill="none" stroke="orange" d="M115.548,-268.916C106.697,-255.981 97.0637,-241.901 88.664,-229.624"/>
<polygon fill="orange" stroke="orange" points="112.694,-270.943 121.229,-277.22 118.471,-266.991 112.694,-270.943"/>
<text text-anchor="middle" x="166.5" y="-251" font-family="Helvetica,sans-Serif" font-size="10.00"> &lt; PDF1, PDF2, PDFs... &gt;</text>
</g>
</g>
</svg>
        <g id="navigator" transform="translate(0 0)" fill="#404254">
                <rect fill="#f2f5e9" fill-opacity="0.5" stroke="#606060" stroke-width=".5" x="0" y="0" width="60" height="60"/>
                <use id="zoomplus" xlink:href="#zoomPlus" x="17" y="9" onmousedown="handleZoom(evt,'in')"/>
                <use id="zoomminus" xlink:href="#zoomMin" x="42" y="9" onmousedown="handleZoom(evt,'out')"/>
                <use id="reset" xlink:href="#resetDef" x="30" y="36" onmousedown="handleReset()"/>
                <g id="arrowUp" xlink:href="#dirArrow" transform="translate(30 24)" onmousedown="handlePan(0,-1)">
                  <use xlink:href="#rim" fill="#404040">
                        <set attributeName="fill" to="#808080" begin="arrowUp.mouseover" end="arrowUp.mouseout"/>
                  </use>
                  <path fill="none" stroke="white" stroke-width="1.5" d="M0,-3.0v7 M-2.5,-0.5L0,-3.0L2.5,-0.5"/>
                </g>
                <g id="arrowRight" xlink:href="#dirArrow" transform="rotate(90) translate(36 -43)" onmousedown="handlePan(1,0)">
                  <use xlink:href="#rim" fill="#404040">
                        <set attributeName="fill" to="#808080" begin="arrowRight.mouseover" end="arrowRight.mouseout"/>
                  </use>
                  <path fill="none" stroke="white" stroke-width="1.5" d="M0,-3.0v7 M-2.5,-0.5L0,-3.0L2.5,-0.5"/>
                </g>
                <g id="arrowDown" xlink:href="#dirArrow" transform="rotate(180) translate(-30 -48)" onmousedown="handlePan(0,1)">
                  <use xlink:href="#rim" fill="#404040">
                        <set attributeName="fill" to="#808080" begin="arrowDown.mouseover" end="arrowDown.mouseout"/>
                  </use>
                  <path fill="none" stroke="white" stroke-width="1.5" d="M0,-3.0v7 M-2.5,-0.5L0,-3.0L2.5,-0.5"/>
                </g>
                <g id="arrowLeft" xlink:href="#dirArrow" transform="rotate(270) translate(-36 17)" onmousedown="handlePan(-1,0)">
                  <use xlink:href="#rim" fill="#404040">
                        <set attributeName="fill" to="#808080" begin="arrowLeft.mouseover" end="arrowLeft.mouseout"/>
                  </use>
                  <path fill="none" stroke="white" stroke-width="1.5" d="M0,-3.0v7 M-2.5,-0.5L0,-3.0L2.5,-0.5"/>
                </g>
        </g>
        <svg viewBox="0 0 15 15" width="100%" height="30px" preserveAspectRatio="xMaxYMin meet">
         <g id="arrow_out" transform="scale(0.3 0.3)">
          <a xlink:href="a02019_org.svg" target="_base">
           <rect id="button" ry="5" rx="5" y="6" x="6" height="38" width="38"
                fill="#f2f5e9" fill-opacity="0.5" stroke="#606060" stroke-width="1.0"/>
           <path id="arrow"
             d="M 11.500037,31.436501 C 11.940474,20.09759 22.043105,11.32322 32.158766,21.979434 L 37.068811,17.246167 C 37.068811,17.246167 37.088388,32 37.088388,32 L 22.160133,31.978069 C 22.160133,31.978069 26.997745,27.140456 26.997745,27.140456 C 18.528582,18.264221 13.291696,25.230495 11.500037,31.436501 z"
             style="fill:#404040;"/>
          </a>
         </g>
        </svg>
</svg>
