<?xml version="1.0" encoding="UTF-8" standalone="no"?>
<!DOCTYPE svg PUBLIC "-//W3C//DTD SVG 1.1//EN"
 "http://www.w3.org/Graphics/SVG/1.1/DTD/svg11.dtd">
<!-- Generated by graphviz version 2.38.0 (20140413.2041)
 -->
<!-- Title: hydra::SPlot&lt; PDF1, PDF2, PDFs &gt; Pages: 1 -->
<svg width="234pt" height="471pt"
 viewBox="0.00 0.00 234.00 471.00" xmlns="http://www.w3.org/2000/svg" xmlns:xlink="http://www.w3.org/1999/xlink">
<g id="graph0" class="graph" transform="scale(1 1) rotate(0) translate(4 467)">
<title>hydra::SPlot&lt; PDF1, PDF2, PDFs &gt;</title>
<!-- Node4 -->
<g id="node1" class="node"><title>Node4</title>
<polygon fill="#bfbfbf" stroke="black" points="12,-0.5 12,-123.5 120,-123.5 120,-0.5 12,-0.5"/>
<text text-anchor="start" x="20" y="-111.5" font-family="Helvetica,sans-Serif" font-size="10.00">hydra::SPlot&lt; PDF1,</text>
<text text-anchor="middle" x="66" y="-100.5" font-family="Helvetica,sans-Serif" font-size="10.00"> PDF2, PDFs &gt;</text>
<polyline fill="none" stroke="black" points="12,-93.5 120,-93.5 "/>
<text text-anchor="start" x="20" y="-81.5" font-family="Helvetica,sans-Serif" font-size="10.00">+ npdfs</text>
<polyline fill="none" stroke="black" points="12,-74.5 120,-74.5 "/>
<text text-anchor="start" x="20" y="-62.5" font-family="Helvetica,sans-Serif" font-size="10.00">+ SPlot()</text>
<text text-anchor="start" x="20" y="-51.5" font-family="Helvetica,sans-Serif" font-size="10.00">+ SPlot()</text>
<text text-anchor="start" x="20" y="-40.5" font-family="Helvetica,sans-Serif" font-size="10.00">+ Generate()</text>
<text text-anchor="start" x="20" y="-29.5" font-family="Helvetica,sans-Serif" font-size="10.00">+ GetCoeficient()</text>
<text text-anchor="start" x="20" y="-18.5" font-family="Helvetica,sans-Serif" font-size="10.00">+ GetFunctors()</text>
<text text-anchor="start" x="20" y="-7.5" font-family="Helvetica,sans-Serif" font-size="10.00">+ GetPDFs()</text>
</g>
<!-- Node5 -->
<g id="node2" class="node"><title>Node5</title>
<polygon fill="none" stroke="#bfbfbf" points="0,-161.5 0,-229.5 132,-229.5 132,-161.5 0,-161.5"/>
<text text-anchor="start" x="8" y="-217.5" font-family="Helvetica,sans-Serif" font-size="10.00">hydra::detail::AddPdfBase</text>
<text text-anchor="middle" x="66" y="-206.5" font-family="Helvetica,sans-Serif" font-size="10.00">&lt; PDF1, PDF2, PDFs... &gt;</text>
<polyline fill="none" stroke="#bfbfbf" points="0,-199.5 132,-199.5 "/>
<text text-anchor="middle" x="66" y="-187.5" font-family="Helvetica,sans-Serif" font-size="10.00"> </text>
<polyline fill="none" stroke="#bfbfbf" points="0,-180.5 132,-180.5 "/>
<text text-anchor="middle" x="66" y="-168.5" font-family="Helvetica,sans-Serif" font-size="10.00"> </text>
</g>
<!-- Node5&#45;&gt;Node4 -->
<g id="edge1" class="edge"><title>Node5&#45;&gt;Node4</title>
<path fill="none" stroke="midnightblue" d="M66,-151.248C66,-142.389 66,-132.91 66,-123.572"/>
<polygon fill="none" stroke="midnightblue" points="62.5001,-151.317 66,-161.317 69.5001,-151.317 62.5001,-151.317"/>
</g>
<!-- Node6 -->
<g id="node3" class="node"><title>Node6</title>
<polygon fill="none" stroke="#bfbfbf" points="2.5,-383.5 2.5,-462.5 155.5,-462.5 155.5,-383.5 2.5,-383.5"/>
<text text-anchor="start" x="10.5" y="-450.5" font-family="Helvetica,sans-Serif" font-size="10.00">std::enable_if&lt; AddPdfChecker</text>
<text text-anchor="start" x="10.5" y="-439.5" font-family="Helvetica,sans-Serif" font-size="10.00">&lt; PDF1, PDF2, PDFs... &gt;::</text>
<text text-anchor="middle" x="79" y="-428.5" font-family="Helvetica,sans-Serif" font-size="10.00">value &gt;</text>
<polyline fill="none" stroke="#bfbfbf" points="2.5,-421.5 155.5,-421.5 "/>
<text text-anchor="middle" x="79" y="-409.5" font-family="Helvetica,sans-Serif" font-size="10.00"> </text>
<polyline fill="none" stroke="#bfbfbf" points="2.5,-402.5 155.5,-402.5 "/>
<text text-anchor="middle" x="79" y="-390.5" font-family="Helvetica,sans-Serif" font-size="10.00"> </text>
</g>
<!-- Node6&#45;&gt;Node5 -->
<g id="edge2" class="edge"><title>Node6&#45;&gt;Node5</title>
<path fill="none" stroke="midnightblue" d="M71.7875,-373.367C70.6726,-364.29 69.6705,-354.87 69,-346 65.9769,-306.006 65.5101,-259.833 65.6151,-229.507"/>
<polygon fill="none" stroke="midnightblue" points="68.3338,-373.952 73.0825,-383.423 75.2764,-373.058 68.3338,-373.952"/>
</g>
<!-- Node7 -->
<g id="node4" class="node"><title>Node7</title>
<polygon fill="none" stroke="#bfbfbf" points="78.5,-277.5 78.5,-345.5 209.5,-345.5 209.5,-277.5 78.5,-277.5"/>
<text text-anchor="start" x="86.5" y="-333.5" font-family="Helvetica,sans-Serif" font-size="10.00">hydra::detail::AddPdfBase</text>
<text text-anchor="middle" x="144" y="-322.5" font-family="Helvetica,sans-Serif" font-size="10.00">&lt; PDF1, PDF2, PDFs &gt;</text>
<polyline fill="none" stroke="#bfbfbf" points="78.5,-315.5 209.5,-315.5 "/>
<text text-anchor="middle" x="144" y="-303.5" font-family="Helvetica,sans-Serif" font-size="10.00"> </text>
<polyline fill="none" stroke="#bfbfbf" points="78.5,-296.5 209.5,-296.5 "/>
<text text-anchor="middle" x="144" y="-284.5" font-family="Helvetica,sans-Serif" font-size="10.00"> </text>
</g>
<!-- Node6&#45;&gt;Node7 -->
<g id="edge4" class="edge"><title>Node6&#45;&gt;Node7</title>
<path fill="none" stroke="midnightblue" d="M107.152,-374.575C112.934,-364.835 118.902,-354.78 124.308,-345.674"/>
<polygon fill="none" stroke="midnightblue" points="104.011,-373.009 101.917,-383.394 110.031,-376.582 104.011,-373.009"/>
</g>
<!-- Node7&#45;&gt;Node5 -->
<g id="edge3" class="edge"><title>Node7&#45;&gt;Node5</title>
<path fill="none" stroke="orange" d="M115.548,-268.916C106.697,-255.981 97.0637,-241.901 88.664,-229.624"/>
<polygon fill="orange" stroke="orange" points="112.694,-270.943 121.229,-277.22 118.471,-266.991 112.694,-270.943"/>
<text text-anchor="middle" x="166.5" y="-251" font-family="Helvetica,sans-Serif" font-size="10.00"> &lt; PDF1, PDF2, PDFs... &gt;</text>
</g>
</g>
</svg>
