<?xml version="1.0" encoding="UTF-8" standalone="no"?>
<!DOCTYPE svg PUBLIC "-//W3C//DTD SVG 1.1//EN"
 "http://www.w3.org/Graphics/SVG/1.1/DTD/svg11.dtd">
<!-- Generated by graphviz version 2.38.0 (20140413.2041)
 -->
<!-- Title: System.h Pages: 1 -->
<!--zoomable 430 -->
<svg id="main" version="1.1" xmlns="http://www.w3.org/2000/svg" xmlns:xlink="http://www.w3.org/1999/xlink" xml:space="preserve" onload="init(evt)">
<style type="text/css"><![CDATA[
.edge:hover path { stroke: red; }
.edge:hover polygon { stroke: red; fill: red; }
]]></style>
<script type="text/javascript"><![CDATA[
var edges = document.getElementsByTagName('g');
if (edges && edges.length) {
  for (var i=0;i<edges.length;i++) {
    if (edges[i].id.substr(0,4)=='edge') {
      edges[i].setAttribute('class','edge');
    }
  }
}
]]></script>
        <defs>
                <circle id="rim" cx="0" cy="0" r="7"/>
                <circle id="rim2" cx="0" cy="0" r="3.5"/>
                <g id="zoomPlus">
                        <use xlink:href="#rim" fill="#404040">
                                <set attributeName="fill" to="#808080" begin="zoomplus.mouseover" end="zoomplus.mouseout"/>
                        </use>
                        <path d="M-4,0h8M0,-4v8" fill="none" stroke="white" stroke-width="1.5" pointer-events="none"/>
                </g>
                <g id="zoomMin">
                        <use xlink:href="#rim" fill="#404040">
                                <set attributeName="fill" to="#808080" begin="zoomminus.mouseover" end="zoomminus.mouseout"/>
                        </use>
                        <path d="M-4,0h8" fill="none" stroke="white" stroke-width="1.5" pointer-events="none"/>
                </g>
                <g id="dirArrow">
                        <path fill="none" stroke="white" stroke-width="1.5" d="M0,-3.0v7 M-2.5,-0.5L0,-3.0L2.5,-0.5"/>
                </g>
               <g id="resetDef">
                       <use xlink:href="#rim2" fill="#404040">
                               <set attributeName="fill" to="#808080" begin="reset.mouseover" end="reset.mouseout"/>
                       </use>
               </g>
        </defs>

<script type="text/javascript">
var viewWidth = 1260;
var viewHeight = 430;
var sectionId = 'dynsection-0';
</script>
<script xlink:href="svgpan.js"/>
<svg id="graph" class="graph">
<g id="viewport">
<title>System.h</title>
<!-- Node0 -->
<g id="node1" class="node"><title>Node0</title>
<polygon fill="#bfbfbf" stroke="black" points="291.5,-402.5 291.5,-421.5 350.5,-421.5 350.5,-402.5 291.5,-402.5"/>
<text text-anchor="middle" x="321" y="-409.5" font-family="Helvetica,sans-Serif" font-size="10.00">System.h</text>
</g>
<!-- Node1 -->
<g id="node2" class="node"><title>Node1</title>
<g id="a_node2"><a xlink:href="a00224.html" target="_top" xlink:title="hydra/detail/policies\l/backends/HOST.h">
<polygon fill="none" stroke="black" points="269.5,-335.5 269.5,-365.5 372.5,-365.5 372.5,-335.5 269.5,-335.5"/>
<text text-anchor="start" x="277.5" y="-353.5" font-family="Helvetica,sans-Serif" font-size="10.00">hydra/detail/policies</text>
<text text-anchor="middle" x="321" y="-342.5" font-family="Helvetica,sans-Serif" font-size="10.00">/backends/HOST.h</text>
</a>
</g>
</g>
<!-- Node0&#45;&gt;Node1 -->
<g id="edge1" class="edge"><title>Node0&#45;&gt;Node1</title>
<path fill="none" stroke="midnightblue" d="M321,-402.475C321,-395.471 321,-385.192 321,-375.696"/>
<polygon fill="midnightblue" stroke="midnightblue" points="324.5,-375.523 321,-365.523 317.5,-375.523 324.5,-375.523"/>
</g>
<!-- Node2 -->
<g id="node3" class="node"><title>Node2</title>
<g id="a_node3"><a xlink:href="a00053.html" target="_top" xlink:title="hydra/detail/Config.h">
<polygon fill="none" stroke="black" points="589.5,-78.5 589.5,-97.5 696.5,-97.5 696.5,-78.5 589.5,-78.5"/>
<text text-anchor="middle" x="643" y="-85.5" font-family="Helvetica,sans-Serif" font-size="10.00">hydra/detail/Config.h</text>
</a>
</g>
</g>
<!-- Node1&#45;&gt;Node2 -->
<g id="edge2" class="edge"><title>Node1&#45;&gt;Node2</title>
<path fill="none" stroke="midnightblue" d="M372.65,-348.31C550.82,-342.988 1134.74,-315.038 1243,-176 1254.47,-161.272 1255.7,-147.684 1243,-134 1207.12,-95.324 854.2,-89.6663 706.981,-88.9999"/>
<polygon fill="midnightblue" stroke="midnightblue" points="706.757,-85.4991 696.744,-88.9601 706.73,-92.499 706.757,-85.4991"/>
</g>
<!-- Node5 -->
<g id="node6" class="node"><title>Node5</title>
<g id="a_node6"><a xlink:href="a00038.html" target="_top" xlink:title="hydra/detail/BackendPolicy.h">
<polygon fill="none" stroke="black" points="165.5,-279.5 165.5,-298.5 308.5,-298.5 308.5,-279.5 165.5,-279.5"/>
<text text-anchor="middle" x="237" y="-286.5" font-family="Helvetica,sans-Serif" font-size="10.00">hydra/detail/BackendPolicy.h</text>
</a>
</g>
</g>
<!-- Node1&#45;&gt;Node5 -->
<g id="edge5" class="edge"><title>Node1&#45;&gt;Node5</title>
<path fill="none" stroke="midnightblue" d="M301.093,-335.399C288.006,-326.129 270.918,-314.025 257.678,-304.647"/>
<polygon fill="midnightblue" stroke="midnightblue" points="259.406,-301.582 249.223,-298.658 255.36,-307.294 259.406,-301.582"/>
</g>
<!-- Node6 -->
<g id="node7" class="node"><title>Node6</title>
<polygon fill="none" stroke="#bfbfbf" points="0,-212.5 0,-242.5 128,-242.5 128,-212.5 0,-212.5"/>
<text text-anchor="start" x="8" y="-230.5" font-family="Helvetica,sans-Serif" font-size="10.00">hydra/detail/external</text>
<text text-anchor="middle" x="64" y="-219.5" font-family="Helvetica,sans-Serif" font-size="10.00">/thrust/execution_policy.h</text>
</g>
<!-- Node1&#45;&gt;Node6 -->
<g id="edge7" class="edge"><title>Node1&#45;&gt;Node6</title>
<path fill="none" stroke="midnightblue" d="M269.36,-338.726C235.876,-330.543 191.957,-317.511 156,-299 130.09,-285.661 104.053,-264.853 86.3243,-249.294"/>
<polygon fill="midnightblue" stroke="midnightblue" points="88.5812,-246.617 78.7936,-242.561 83.9155,-251.835 88.5812,-246.617"/>
</g>
<!-- Node7 -->
<g id="node8" class="node"><title>Node7</title>
<g id="a_node8"><a xlink:href="a00017.html" target="_top" xlink:title="Typedefs for useful container classes used in MCBooster. ">
<polygon fill="none" stroke="black" points="355.5,-279.5 355.5,-298.5 454.5,-298.5 454.5,-279.5 355.5,-279.5"/>
<text text-anchor="middle" x="405" y="-286.5" font-family="Helvetica,sans-Serif" font-size="10.00">hydra/Containers.h</text>
</a>
</g>
</g>
<!-- Node1&#45;&gt;Node7 -->
<g id="edge8" class="edge"><title>Node1&#45;&gt;Node7</title>
<path fill="none" stroke="midnightblue" d="M340.907,-335.399C353.994,-326.129 371.082,-314.025 384.322,-304.647"/>
<polygon fill="midnightblue" stroke="midnightblue" points="386.64,-307.294 392.777,-298.658 382.594,-301.582 386.64,-307.294"/>
</g>
<!-- Node3 -->
<g id="node4" class="node"><title>Node3</title>
<polygon fill="none" stroke="#bfbfbf" points="589,-6 589,-36 697,-36 697,-6 589,-6"/>
<text text-anchor="start" x="597" y="-24" font-family="Helvetica,sans-Serif" font-size="10.00">hydra/detail/external</text>
<text text-anchor="middle" x="643" y="-13" font-family="Helvetica,sans-Serif" font-size="10.00">/thrust/detail/config.h</text>
</g>
<!-- Node2&#45;&gt;Node3 -->
<g id="edge3" class="edge"><title>Node2&#45;&gt;Node3</title>
<path fill="none" stroke="midnightblue" d="M643,-78.2338C643,-70.0406 643,-57.4225 643,-46.2136"/>
<polygon fill="midnightblue" stroke="midnightblue" points="646.5,-46.089 643,-36.089 639.5,-46.0891 646.5,-46.089"/>
</g>
<!-- Node4 -->
<g id="node5" class="node"><title>Node4</title>
<polygon fill="none" stroke="#bfbfbf" points="715,-0.5 715,-41.5 819,-41.5 819,-0.5 715,-0.5"/>
<text text-anchor="start" x="723" y="-29.5" font-family="Helvetica,sans-Serif" font-size="10.00">hydra/detail/external</text>
<text text-anchor="start" x="723" y="-18.5" font-family="Helvetica,sans-Serif" font-size="10.00">/thrust/detail/config</text>
<text text-anchor="middle" x="767" y="-7.5" font-family="Helvetica,sans-Serif" font-size="10.00">/host_device.h</text>
</g>
<!-- Node2&#45;&gt;Node4 -->
<g id="edge4" class="edge"><title>Node2&#45;&gt;Node4</title>
<path fill="none" stroke="midnightblue" d="M659.466,-78.3685C675.03,-70.2099 699.126,-57.5789 720.567,-46.3398"/>
<polygon fill="midnightblue" stroke="midnightblue" points="722.329,-49.3682 729.561,-41.6254 719.079,-43.1683 722.329,-49.3682"/>
</g>
<!-- Node5&#45;&gt;Node6 -->
<g id="edge6" class="edge"><title>Node5&#45;&gt;Node6</title>
<path fill="none" stroke="midnightblue" d="M212.213,-279.475C186.812,-270.739 146.596,-256.907 114.461,-245.855"/>
<polygon fill="midnightblue" stroke="midnightblue" points="115.367,-242.466 104.773,-242.523 113.091,-249.085 115.367,-242.466"/>
</g>
<!-- Node7&#45;&gt;Node2 -->
<g id="edge11" class="edge"><title>Node7&#45;&gt;Node2</title>
<path fill="none" stroke="midnightblue" d="M435.941,-279.464C481.386,-265.372 565.981,-232.975 614,-176 630.562,-156.349 637.768,-126.891 640.831,-107.806"/>
<polygon fill="midnightblue" stroke="midnightblue" points="644.329,-108.065 642.224,-97.6813 637.394,-107.111 644.329,-108.065"/>
</g>
<!-- Node8 -->
<g id="node9" class="node"><title>Node8</title>
<polygon fill="none" stroke="#bfbfbf" points="925,-218 925,-237 969,-237 969,-218 925,-218"/>
<text text-anchor="middle" x="947" y="-225" font-family="Helvetica,sans-Serif" font-size="10.00">vector</text>
</g>
<!-- Node7&#45;&gt;Node8 -->
<g id="edge9" class="edge"><title>Node7&#45;&gt;Node8</title>
<path fill="none" stroke="midnightblue" d="M454.896,-285.821C565.825,-280.619 829.889,-266.154 916,-243 917.937,-242.479 919.901,-241.844 921.853,-241.133"/>
<polygon fill="midnightblue" stroke="midnightblue" points="923.467,-244.251 931.314,-237.132 920.741,-237.803 923.467,-244.251"/>
</g>
<!-- Node9 -->
<g id="node10" class="node"><title>Node9</title>
<polygon fill="none" stroke="#bfbfbf" points="264,-218 264,-237 302,-237 302,-218 264,-218"/>
<text text-anchor="middle" x="283" y="-225" font-family="Helvetica,sans-Serif" font-size="10.00">array</text>
</g>
<!-- Node7&#45;&gt;Node9 -->
<g id="edge10" class="edge"><title>Node7&#45;&gt;Node9</title>
<path fill="none" stroke="midnightblue" d="M387.52,-279.475C367.137,-269.534 333.225,-252.995 309.575,-241.461"/>
<polygon fill="midnightblue" stroke="midnightblue" points="310.969,-238.247 300.447,-237.009 307.901,-244.538 310.969,-238.247"/>
</g>
<!-- Node10 -->
<g id="node11" class="node"><title>Node10</title>
<g id="a_node11"><a xlink:href="a00383.html" target="_top" xlink:title="Common and useful typedefs. ">
<polygon fill="none" stroke="black" points="8.5,-78.5 8.5,-97.5 87.5,-97.5 87.5,-78.5 8.5,-78.5"/>
<text text-anchor="middle" x="48" y="-85.5" font-family="Helvetica,sans-Serif" font-size="10.00">hydra/Types.h</text>
</a>
</g>
</g>
<!-- Node7&#45;&gt;Node10 -->
<g id="edge12" class="edge"><title>Node7&#45;&gt;Node10</title>
<path fill="none" stroke="midnightblue" d="M362.779,-279.487C331.877,-272.281 289.499,-260.331 255,-243 177.145,-203.888 98.0938,-135.303 64.6129,-104.614"/>
<polygon fill="midnightblue" stroke="midnightblue" points="66.8271,-101.895 57.1111,-97.6696 62.0718,-107.031 66.8271,-101.895"/>
</g>
<!-- Node11 -->
<g id="node12" class="node"><title>Node11</title>
<g id="a_node12"><a xlink:href="a00392.html" target="_top" xlink:title="hydra/Vector3R.h">
<polygon fill="none" stroke="black" points="222.5,-145.5 222.5,-164.5 315.5,-164.5 315.5,-145.5 222.5,-145.5"/>
<text text-anchor="middle" x="269" y="-152.5" font-family="Helvetica,sans-Serif" font-size="10.00">hydra/Vector3R.h</text>
</a>
</g>
</g>
<!-- Node7&#45;&gt;Node11 -->
<g id="edge13" class="edge"><title>Node7&#45;&gt;Node11</title>
<path fill="none" stroke="midnightblue" d="M392.99,-279.184C381.349,-270.449 363.39,-256.463 349,-243 324.276,-219.87 298.189,-190.414 282.767,-172.396"/>
<polygon fill="midnightblue" stroke="midnightblue" points="285.245,-169.907 276.106,-164.547 279.908,-174.436 285.245,-169.907"/>
</g>
<!-- Node19 -->
<g id="node20" class="node"><title>Node19</title>
<g id="a_node20"><a xlink:href="a00395.html" target="_top" xlink:title="hydra/Vector4R.h">
<polygon fill="none" stroke="black" points="358.5,-218 358.5,-237 451.5,-237 451.5,-218 358.5,-218"/>
<text text-anchor="middle" x="405" y="-225" font-family="Helvetica,sans-Serif" font-size="10.00">hydra/Vector4R.h</text>
</a>
</g>
</g>
<!-- Node7&#45;&gt;Node19 -->
<g id="edge23" class="edge"><title>Node7&#45;&gt;Node19</title>
<path fill="none" stroke="midnightblue" d="M405,-279.475C405,-271.08 405,-257.981 405,-247.163"/>
<polygon fill="midnightblue" stroke="midnightblue" points="408.5,-247.009 405,-237.009 401.5,-247.009 408.5,-247.009"/>
</g>
<!-- Node21 -->
<g id="node22" class="node"><title>Node21</title>
<polygon fill="none" stroke="#bfbfbf" points="666,-140 666,-170 770,-170 770,-140 666,-140"/>
<text text-anchor="start" x="674" y="-158" font-family="Helvetica,sans-Serif" font-size="10.00">hydra/detail/external</text>
<text text-anchor="middle" x="718" y="-147" font-family="Helvetica,sans-Serif" font-size="10.00">/thrust/complex.h</text>
</g>
<!-- Node7&#45;&gt;Node21 -->
<g id="edge31" class="edge"><title>Node7&#45;&gt;Node21</title>
<path fill="none" stroke="midnightblue" d="M454.579,-283.247C516.9,-276.547 619.645,-262.882 652,-243 676.96,-227.662 695.835,-199.141 706.877,-178.941"/>
<polygon fill="midnightblue" stroke="midnightblue" points="709.991,-180.539 711.526,-170.056 703.789,-177.293 709.991,-180.539"/>
</g>
<!-- Node22 -->
<g id="node23" class="node"><title>Node22</title>
<g id="a_node23"><a xlink:href="a00059.html" target="_top" xlink:title="hydra/detail/Containers.inl">
<polygon fill="none" stroke="black" points="777,-218 777,-237 907,-237 907,-218 777,-218"/>
<text text-anchor="middle" x="842" y="-225" font-family="Helvetica,sans-Serif" font-size="10.00">hydra/detail/Containers.inl</text>
</a>
</g>
</g>
<!-- Node7&#45;&gt;Node22 -->
<g id="edge32" class="edge"><title>Node7&#45;&gt;Node22</title>
<path fill="none" stroke="midnightblue" d="M454.704,-281.233C531.711,-270.748 680.239,-250.525 769.306,-238.398"/>
<polygon fill="midnightblue" stroke="midnightblue" points="769.895,-241.85 779.332,-237.033 768.951,-234.914 769.895,-241.85"/>
</g>
<!-- Node11&#45;&gt;Node2 -->
<g id="edge14" class="edge"><title>Node11&#45;&gt;Node2</title>
<path fill="none" stroke="midnightblue" d="M315.611,-145.899C383.499,-134.1 509.56,-112.191 583.885,-99.274"/>
<polygon fill="midnightblue" stroke="midnightblue" points="584.765,-102.674 594.017,-97.513 583.566,-95.7771 584.765,-102.674"/>
</g>
<!-- Node11&#45;&gt;Node10 -->
<g id="edge15" class="edge"><title>Node11&#45;&gt;Node10</title>
<path fill="none" stroke="midnightblue" d="M243.85,-145.487C232.875,-141.841 219.835,-137.603 208,-134 168.146,-121.868 122.355,-109.107 90,-100.286"/>
<polygon fill="midnightblue" stroke="midnightblue" points="90.5596,-96.8113 79.9917,-97.5662 88.7238,-103.566 90.5596,-96.8113"/>
</g>
<!-- Node12 -->
<g id="node13" class="node"><title>Node12</title>
<polygon fill="none" stroke="#bfbfbf" points="105.5,-78.5 105.5,-97.5 150.5,-97.5 150.5,-78.5 105.5,-78.5"/>
<text text-anchor="middle" x="128" y="-85.5" font-family="Helvetica,sans-Serif" font-size="10.00">iosfwd</text>
</g>
<!-- Node11&#45;&gt;Node12 -->
<g id="edge16" class="edge"><title>Node11&#45;&gt;Node12</title>
<path fill="none" stroke="midnightblue" d="M250.276,-145.369C226.152,-134.248 184.002,-114.817 156.045,-101.929"/>
<polygon fill="midnightblue" stroke="midnightblue" points="157.348,-98.6752 146.801,-97.6672 154.417,-105.032 157.348,-98.6752"/>
</g>
<!-- Node13 -->
<g id="node14" class="node"><title>Node13</title>
<polygon fill="none" stroke="#bfbfbf" points="311,-78.5 311,-97.5 365,-97.5 365,-78.5 311,-78.5"/>
<text text-anchor="middle" x="338" y="-85.5" font-family="Helvetica,sans-Serif" font-size="10.00">iostream</text>
</g>
<!-- Node11&#45;&gt;Node13 -->
<g id="edge17" class="edge"><title>Node11&#45;&gt;Node13</title>
<path fill="none" stroke="midnightblue" d="M278.306,-145.234C289.272,-134.903 307.707,-117.537 321.194,-104.832"/>
<polygon fill="midnightblue" stroke="midnightblue" points="323.963,-107.032 328.842,-97.6273 319.163,-101.937 323.963,-107.032"/>
</g>
<!-- Node14 -->
<g id="node15" class="node"><title>Node14</title>
<polygon fill="none" stroke="#bfbfbf" points="383.5,-78.5 383.5,-97.5 430.5,-97.5 430.5,-78.5 383.5,-78.5"/>
<text text-anchor="middle" x="407" y="-85.5" font-family="Helvetica,sans-Serif" font-size="10.00">math.h</text>
</g>
<!-- Node11&#45;&gt;Node14 -->
<g id="edge18" class="edge"><title>Node11&#45;&gt;Node14</title>
<path fill="none" stroke="midnightblue" d="M287.325,-145.369C310.936,-134.248 352.189,-114.817 379.552,-101.929"/>
<polygon fill="midnightblue" stroke="midnightblue" points="381.044,-105.095 388.599,-97.6672 378.061,-98.762 381.044,-105.095"/>
</g>
<!-- Node15 -->
<g id="node16" class="node"><title>Node15</title>
<g id="a_node16"><a xlink:href="a00011.html" target="_top" xlink:title="hydra/Collection.h">
<polygon fill="none" stroke="black" points="448.5,-78.5 448.5,-97.5 543.5,-97.5 543.5,-78.5 448.5,-78.5"/>
<text text-anchor="middle" x="496" y="-85.5" font-family="Helvetica,sans-Serif" font-size="10.00">hydra/Collection.h</text>
</a>
</g>
</g>
<!-- Node11&#45;&gt;Node15 -->
<g id="edge19" class="edge"><title>Node11&#45;&gt;Node15</title>
<path fill="none" stroke="midnightblue" d="M299.144,-145.369C339.62,-133.778 411.618,-113.162 456.42,-100.334"/>
<polygon fill="midnightblue" stroke="midnightblue" points="457.443,-103.681 466.093,-97.5637 455.516,-96.9518 457.443,-103.681"/>
</g>
<!-- Node18 -->
<g id="node19" class="node"><title>Node18</title>
<g id="a_node19"><a xlink:href="a00269.html" target="_top" xlink:title="hydra/detail/Vector3R.inl">
<polygon fill="none" stroke="black" points="169,-78.5 169,-97.5 293,-97.5 293,-78.5 169,-78.5"/>
<text text-anchor="middle" x="231" y="-85.5" font-family="Helvetica,sans-Serif" font-size="10.00">hydra/detail/Vector3R.inl</text>
</a>
</g>
</g>
<!-- Node11&#45;&gt;Node18 -->
<g id="edge22" class="edge"><title>Node11&#45;&gt;Node18</title>
<path fill="none" stroke="midnightblue" d="M263.875,-145.234C258.063,-135.293 248.444,-118.838 241.108,-106.289"/>
<polygon fill="midnightblue" stroke="midnightblue" points="244.112,-104.494 236.044,-97.6273 238.069,-108.027 244.112,-104.494"/>
</g>
<!-- Node16 -->
<g id="node17" class="node"><title>Node16</title>
<polygon fill="none" stroke="#bfbfbf" points="299,-6 299,-36 403,-36 403,-6 299,-6"/>
<text text-anchor="start" x="307" y="-24" font-family="Helvetica,sans-Serif" font-size="10.00">hydra/detail/external</text>
<text text-anchor="middle" x="351" y="-13" font-family="Helvetica,sans-Serif" font-size="10.00">/thrust/tuple.h</text>
</g>
<!-- Node15&#45;&gt;Node16 -->
<g id="edge20" class="edge"><title>Node15&#45;&gt;Node16</title>
<path fill="none" stroke="midnightblue" d="M476.745,-78.3685C455.176,-68.6995 419.593,-52.7486 391.774,-40.278"/>
<polygon fill="midnightblue" stroke="midnightblue" points="392.85,-36.9249 382.293,-36.0281 389.987,-43.3125 392.85,-36.9249"/>
</g>
<!-- Node17 -->
<g id="node18" class="node"><title>Node17</title>
<polygon fill="none" stroke="#bfbfbf" points="421.5,-0.5 421.5,-41.5 570.5,-41.5 570.5,-0.5 421.5,-0.5"/>
<text text-anchor="start" x="429.5" y="-29.5" font-family="Helvetica,sans-Serif" font-size="10.00">hydra/detail/external</text>
<text text-anchor="start" x="429.5" y="-18.5" font-family="Helvetica,sans-Serif" font-size="10.00">/thrust/iterator/detail</text>
<text text-anchor="middle" x="496" y="-7.5" font-family="Helvetica,sans-Serif" font-size="10.00">/tuple_of_iterator_references.h</text>
</g>
<!-- Node15&#45;&gt;Node17 -->
<g id="edge21" class="edge"><title>Node15&#45;&gt;Node17</title>
<path fill="none" stroke="midnightblue" d="M496,-78.2338C496,-71.3628 496,-61.3799 496,-51.7259"/>
<polygon fill="midnightblue" stroke="midnightblue" points="499.5,-51.542 496,-41.5421 492.5,-51.5421 499.5,-51.542"/>
</g>
<!-- Node19&#45;&gt;Node2 -->
<g id="edge26" class="edge"><title>Node19&#45;&gt;Node2</title>
<path fill="none" stroke="midnightblue" d="M451.651,-221.683C489.408,-215.884 542.458,-203.256 581,-176 606.275,-158.126 624.947,-126.577 634.882,-106.783"/>
<polygon fill="midnightblue" stroke="midnightblue" points="638.1,-108.168 639.27,-97.638 631.789,-105.14 638.1,-108.168"/>
</g>
<!-- Node19&#45;&gt;Node10 -->
<g id="edge27" class="edge"><title>Node19&#45;&gt;Node10</title>
<path fill="none" stroke="midnightblue" d="M358.253,-221.054C317.724,-214.784 258.584,-201.823 213,-176 189.756,-162.832 192.584,-148.27 170,-134 146.097,-118.897 116.382,-107.801 92.2623,-100.406"/>
<polygon fill="midnightblue" stroke="midnightblue" points="93.2236,-97.0409 82.6414,-97.5599 91.2375,-103.753 93.2236,-97.0409"/>
</g>
<!-- Node19&#45;&gt;Node11 -->
<g id="edge28" class="edge"><title>Node19&#45;&gt;Node11</title>
<path fill="none" stroke="midnightblue" d="M388.595,-217.996C365.212,-205.875 322.084,-183.518 294.51,-169.224"/>
<polygon fill="midnightblue" stroke="midnightblue" points="295.952,-166.029 285.463,-164.534 292.73,-172.244 295.952,-166.029"/>
</g>
<!-- Node19&#45;&gt;Node13 -->
<g id="edge25" class="edge"><title>Node19&#45;&gt;Node13</title>
<path fill="none" stroke="midnightblue" d="M400.809,-217.899C390.046,-195.81 361.259,-136.732 346.695,-106.844"/>
<polygon fill="midnightblue" stroke="midnightblue" points="349.716,-105.054 342.19,-97.598 343.424,-108.121 349.716,-105.054"/>
</g>
<!-- Node19&#45;&gt;Node14 -->
<g id="edge24" class="edge"><title>Node19&#45;&gt;Node14</title>
<path fill="none" stroke="midnightblue" d="M405.061,-217.828C405.183,-201.447 405.491,-164.831 406,-134 406.142,-125.397 406.347,-115.869 406.534,-107.804"/>
<polygon fill="midnightblue" stroke="midnightblue" points="410.038,-107.708 406.779,-97.6262 403.04,-107.539 410.038,-107.708"/>
</g>
<!-- Node19&#45;&gt;Node15 -->
<g id="edge29" class="edge"><title>Node19&#45;&gt;Node15</title>
<path fill="none" stroke="midnightblue" d="M406.535,-217.848C409.939,-200.542 419.415,-161.01 439,-134 447.877,-121.758 460.947,-111.109 472.334,-103.248"/>
<polygon fill="midnightblue" stroke="midnightblue" points="474.553,-105.978 480.992,-97.5644 470.711,-100.127 474.553,-105.978"/>
</g>
<!-- Node20 -->
<g id="node21" class="node"><title>Node20</title>
<g id="a_node21"><a xlink:href="a00272.html" target="_top" xlink:title="hydra/detail/Vector4R.inl">
<polygon fill="none" stroke="black" points="448,-145.5 448,-164.5 572,-164.5 572,-145.5 448,-145.5"/>
<text text-anchor="middle" x="510" y="-152.5" font-family="Helvetica,sans-Serif" font-size="10.00">hydra/detail/Vector4R.inl</text>
</a>
</g>
</g>
<!-- Node19&#45;&gt;Node20 -->
<g id="edge30" class="edge"><title>Node19&#45;&gt;Node20</title>
<path fill="none" stroke="midnightblue" d="M417.875,-217.855C435.508,-206.016 467.4,-184.603 488.641,-170.341"/>
<polygon fill="midnightblue" stroke="midnightblue" points="490.668,-173.196 497.02,-164.715 486.766,-167.384 490.668,-173.196"/>
</g>
<!-- Node22&#45;&gt;Node2 -->
<g id="edge33" class="edge"><title>Node22&#45;&gt;Node2</title>
<path fill="none" stroke="midnightblue" d="M882.615,-217.971C893.435,-215.855 905.136,-213.707 916,-212 1053.37,-190.412 1313.42,-236.086 1219,-134 1184.82,-97.048 850.119,-90.3775 707.18,-89.2197"/>
<polygon fill="midnightblue" stroke="midnightblue" points="706.843,-85.7171 696.817,-89.1427 706.791,-92.717 706.843,-85.7171"/>
</g>
<!-- Node22&#45;&gt;Node21 -->
<g id="edge36" class="edge"><title>Node22&#45;&gt;Node21</title>
<path fill="none" stroke="midnightblue" d="M826.795,-217.855C808.215,-207.292 776.231,-189.107 751.736,-175.18"/>
<polygon fill="midnightblue" stroke="midnightblue" points="753.181,-171.976 742.758,-170.076 749.721,-178.061 753.181,-171.976"/>
</g>
<!-- Node23 -->
<g id="node24" class="node"><title>Node23</title>
<polygon fill="none" stroke="#bfbfbf" points="1094,-140 1094,-170 1210,-170 1210,-140 1094,-140"/>
<text text-anchor="start" x="1102" y="-158" font-family="Helvetica,sans-Serif" font-size="10.00">hydra/detail/external</text>
<text text-anchor="middle" x="1152" y="-147" font-family="Helvetica,sans-Serif" font-size="10.00">/thrust/device_vector.h</text>
</g>
<!-- Node22&#45;&gt;Node23 -->
<g id="edge34" class="edge"><title>Node22&#45;&gt;Node23</title>
<path fill="none" stroke="midnightblue" d="M885.575,-217.909C944.862,-206.14 1047.82,-185.395 1085,-176 1088.86,-175.024 1092.83,-173.97 1096.83,-172.874"/>
<polygon fill="midnightblue" stroke="midnightblue" points="1098.06,-176.163 1106.73,-170.081 1096.16,-169.425 1098.06,-176.163"/>
</g>
<!-- Node24 -->
<g id="node25" class="node"><title>Node24</title>
<polygon fill="none" stroke="#bfbfbf" points="788.5,-140 788.5,-170 895.5,-170 895.5,-140 788.5,-140"/>
<text text-anchor="start" x="796.5" y="-158" font-family="Helvetica,sans-Serif" font-size="10.00">hydra/detail/external</text>
<text text-anchor="middle" x="842" y="-147" font-family="Helvetica,sans-Serif" font-size="10.00">/thrust/host_vector.h</text>
</g>
<!-- Node22&#45;&gt;Node24 -->
<g id="edge35" class="edge"><title>Node22&#45;&gt;Node24</title>
<path fill="none" stroke="midnightblue" d="M842,-217.855C842,-208.548 842,-193.325 842,-180.311"/>
<polygon fill="midnightblue" stroke="midnightblue" points="845.5,-180.076 842,-170.076 838.5,-180.076 845.5,-180.076"/>
</g>
<!-- Node25 -->
<g id="node26" class="node"><title>Node25</title>
<polygon fill="none" stroke="#bfbfbf" points="914,-134.5 914,-175.5 1076,-175.5 1076,-134.5 914,-134.5"/>
<text text-anchor="start" x="922" y="-163.5" font-family="Helvetica,sans-Serif" font-size="10.00">hydra/detail/external</text>
<text text-anchor="start" x="922" y="-152.5" font-family="Helvetica,sans-Serif" font-size="10.00">/thrust/system/cuda/experimental</text>
<text text-anchor="middle" x="995" y="-141.5" font-family="Helvetica,sans-Serif" font-size="10.00">/pinned_allocator.h</text>
</g>
<!-- Node22&#45;&gt;Node25 -->
<g id="edge37" class="edge"><title>Node22&#45;&gt;Node25</title>
<path fill="none" stroke="midnightblue" d="M860.455,-217.996C880.895,-208.578 914.745,-192.98 943.378,-179.787"/>
<polygon fill="midnightblue" stroke="midnightblue" points="944.85,-182.962 952.468,-175.598 941.921,-176.605 944.85,-182.962"/>
</g>
</g>
</svg>
        <g id="navigator" transform="translate(0 0)" fill="#404254">
                <rect fill="#f2f5e9" fill-opacity="0.5" stroke="#606060" stroke-width=".5" x="0" y="0" width="60" height="60"/>
                <use id="zoomplus" xlink:href="#zoomPlus" x="17" y="9" onmousedown="handleZoom(evt,'in')"/>
                <use id="zoomminus" xlink:href="#zoomMin" x="42" y="9" onmousedown="handleZoom(evt,'out')"/>
                <use id="reset" xlink:href="#resetDef" x="30" y="36" onmousedown="handleReset()"/>
                <g id="arrowUp" xlink:href="#dirArrow" transform="translate(30 24)" onmousedown="handlePan(0,-1)">
                  <use xlink:href="#rim" fill="#404040">
                        <set attributeName="fill" to="#808080" begin="arrowUp.mouseover" end="arrowUp.mouseout"/>
                  </use>
                  <path fill="none" stroke="white" stroke-width="1.5" d="M0,-3.0v7 M-2.5,-0.5L0,-3.0L2.5,-0.5"/>
                </g>
                <g id="arrowRight" xlink:href="#dirArrow" transform="rotate(90) translate(36 -43)" onmousedown="handlePan(1,0)">
                  <use xlink:href="#rim" fill="#404040">
                        <set attributeName="fill" to="#808080" begin="arrowRight.mouseover" end="arrowRight.mouseout"/>
                  </use>
                  <path fill="none" stroke="white" stroke-width="1.5" d="M0,-3.0v7 M-2.5,-0.5L0,-3.0L2.5,-0.5"/>
                </g>
                <g id="arrowDown" xlink:href="#dirArrow" transform="rotate(180) translate(-30 -48)" onmousedown="handlePan(0,1)">
                  <use xlink:href="#rim" fill="#404040">
                        <set attributeName="fill" to="#808080" begin="arrowDown.mouseover" end="arrowDown.mouseout"/>
                  </use>
                  <path fill="none" stroke="white" stroke-width="1.5" d="M0,-3.0v7 M-2.5,-0.5L0,-3.0L2.5,-0.5"/>
                </g>
                <g id="arrowLeft" xlink:href="#dirArrow" transform="rotate(270) translate(-36 17)" onmousedown="handlePan(-1,0)">
                  <use xlink:href="#rim" fill="#404040">
                        <set attributeName="fill" to="#808080" begin="arrowLeft.mouseover" end="arrowLeft.mouseout"/>
                  </use>
                  <path fill="none" stroke="white" stroke-width="1.5" d="M0,-3.0v7 M-2.5,-0.5L0,-3.0L2.5,-0.5"/>
                </g>
        </g>
        <svg viewBox="0 0 15 15" width="100%" height="30px" preserveAspectRatio="xMaxYMin meet">
         <g id="arrow_out" transform="scale(0.3 0.3)">
          <a xlink:href="a02387_org.svg" target="_base">
           <rect id="button" ry="5" rx="5" y="6" x="6" height="38" width="38"
                fill="#f2f5e9" fill-opacity="0.5" stroke="#606060" stroke-width="1.0"/>
           <path id="arrow"
             d="M 11.500037,31.436501 C 11.940474,20.09759 22.043105,11.32322 32.158766,21.979434 L 37.068811,17.246167 C 37.068811,17.246167 37.088388,32 37.088388,32 L 22.160133,31.978069 C 22.160133,31.978069 26.997745,27.140456 26.997745,27.140456 C 18.528582,18.264221 13.291696,25.230495 11.500037,31.436501 z"
             style="fill:#404040;"/>
          </a>
         </g>
        </svg>
</svg>
