<?xml version="1.0" encoding="UTF-8" standalone="no"?>
<!DOCTYPE svg PUBLIC "-//W3C//DTD SVG 1.1//EN"
 "http://www.w3.org/Graphics/SVG/1.1/DTD/svg11.dtd">
<!-- Generated by graphviz version 2.40.1 (20161225.0304)
 -->
<!-- Title: adaptive_gauss_kronrod.inl Pages: 1 -->
<svg width="304pt" height="84pt"
 viewBox="0.00 0.00 303.50 84.00" xmlns="http://www.w3.org/2000/svg" xmlns:xlink="http://www.w3.org/1999/xlink">
<g id="graph0" class="graph" transform="scale(1 1) rotate(0) translate(4 80)">
<title>adaptive_gauss_kronrod.inl</title>
<!-- Node84 -->
<g id="node1" class="node">
<title>Node84</title>
<polygon fill="#bfbfbf" stroke="#000000" points="81,-56.5 81,-75.5 216,-75.5 216,-56.5 81,-56.5"/>
<text text-anchor="middle" x="148.5" y="-63.5" font-family="Helvetica,sans-Serif" font-size="10.00" fill="#000000">adaptive_gauss_kronrod.inl</text>
</g>
<!-- Node85 -->
<g id="node2" class="node">
<title>Node85</title>
<g id="a_node2"><a xlink:href="adaptive__gauss__kronrod_8cpp.html" target="_top" xlink:title="adaptive_gauss_kronrod.cpp">
<polygon fill="none" stroke="#000000" points="0,-.5 0,-19.5 141,-19.5 141,-.5 0,-.5"/>
<text text-anchor="middle" x="70.5" y="-7.5" font-family="Helvetica,sans-Serif" font-size="10.00" fill="#000000">adaptive_gauss_kronrod.cpp</text>
</a>
</g>
</g>
<!-- Node84&#45;&gt;Node85 -->
<g id="edge1" class="edge">
<title>Node84&#45;&gt;Node85</title>
<path fill="none" stroke="#191970" d="M126.5064,-50.2097C112.8071,-40.3743 95.6264,-28.0394 83.9309,-19.6427"/>
<polygon fill="#191970" stroke="#191970" points="124.7489,-53.2566 134.9134,-56.2455 128.8314,-47.5703 124.7489,-53.2566"/>
</g>
<!-- Node86 -->
<g id="node3" class="node">
<title>Node86</title>
<g id="a_node3"><a xlink:href="adaptive__gauss__kronrod_8cu.html" target="_top" xlink:title="adaptive_gauss_kronrod.cu">
<polygon fill="none" stroke="#000000" points="159.5,-.5 159.5,-19.5 295.5,-19.5 295.5,-.5 159.5,-.5"/>
<text text-anchor="middle" x="227.5" y="-7.5" font-family="Helvetica,sans-Serif" font-size="10.00" fill="#000000">adaptive_gauss_kronrod.cu</text>
</a>
</g>
</g>
<!-- Node84&#45;&gt;Node86 -->
<g id="edge2" class="edge">
<title>Node84&#45;&gt;Node86</title>
<path fill="none" stroke="#191970" d="M170.7756,-50.2097C184.6505,-40.3743 202.0515,-28.0394 213.8969,-19.6427"/>
<polygon fill="#191970" stroke="#191970" points="168.3949,-47.6071 162.2607,-56.2455 172.4431,-53.3178 168.3949,-47.6071"/>
</g>
</g>
</svg>
