<?xml version="1.0" encoding="UTF-8" standalone="no"?>
<!DOCTYPE svg PUBLIC "-//W3C//DTD SVG 1.1//EN"
 "http://www.w3.org/Graphics/SVG/1.1/DTD/svg11.dtd">
<!-- Generated by graphviz version 2.40.1 (20161225.0304)
 -->
<!-- Title: AddPdf.h Pages: 1 -->
<svg width="3499pt" height="162pt"
 viewBox="0.00 0.00 3499.00 162.00" xmlns="http://www.w3.org/2000/svg" xmlns:xlink="http://www.w3.org/1999/xlink">
<g id="graph0" class="graph" transform="scale(1 1) rotate(0) translate(4 158)">
<title>AddPdf.h</title>
<!-- Node53 -->
<g id="node1" class="node">
<title>Node53</title>
<polygon fill="#bfbfbf" stroke="#000000" points="2078,-134.5 2078,-153.5 2135,-153.5 2135,-134.5 2078,-134.5"/>
<text text-anchor="middle" x="2106.5" y="-141.5" font-family="Helvetica,sans-Serif" font-size="10.00" fill="#000000">AddPdf.h</text>
</g>
<!-- Node54 -->
<g id="node2" class="node">
<title>Node54</title>
<g id="a_node2"><a xlink:href="binned__extended__logLL__fit_8inl.html" target="_top" xlink:title="binned_extended_logLL\l_fit.inl">
<polygon fill="none" stroke="#000000" points="137,-67.5 137,-97.5 256,-97.5 256,-67.5 137,-67.5"/>
<text text-anchor="start" x="145" y="-85.5" font-family="Helvetica,sans-Serif" font-size="10.00" fill="#000000">binned_extended_logLL</text>
<text text-anchor="middle" x="196.5" y="-74.5" font-family="Helvetica,sans-Serif" font-size="10.00" fill="#000000">_fit.inl</text>
</a>
</g>
</g>
<!-- Node53&#45;&gt;Node54 -->
<g id="edge1" class="edge">
<title>Node53&#45;&gt;Node54</title>
<path fill="none" stroke="#191970" d="M2067.7282,-143.6554C1882.2957,-141.8602 1067.3774,-132.305 400.5,-98 351.9036,-95.5001 296.8965,-91.2368 256.2578,-87.8135"/>
<polygon fill="#191970" stroke="#191970" points="2067.7772,-147.1559 2077.8101,-143.7513 2067.8439,-140.1562 2067.7772,-147.1559"/>
</g>
<!-- Node57 -->
<g id="node5" class="node">
<title>Node57</title>
<g id="a_node5"><a xlink:href="extended__logLL__fit_8inl.html" target="_top" xlink:title="extended_logLL_fit.inl">
<polygon fill="none" stroke="#000000" points="410,-73 410,-92 521,-92 521,-73 410,-73"/>
<text text-anchor="middle" x="465.5" y="-80" font-family="Helvetica,sans-Serif" font-size="10.00" fill="#000000">extended_logLL_fit.inl</text>
</a>
</g>
</g>
<!-- Node53&#45;&gt;Node57 -->
<g id="edge4" class="edge">
<title>Node53&#45;&gt;Node57</title>
<path fill="none" stroke="#191970" d="M2067.4771,-143.3982C1899.5932,-140.673 1222.1556,-128.2842 666.5,-98 617.3987,-95.3239 561.65,-90.9164 521.3405,-87.4841"/>
<polygon fill="#191970" stroke="#191970" points="2067.5143,-146.8991 2077.5692,-143.5602 2067.6268,-139.9 2067.5143,-146.8991"/>
</g>
<!-- Node60 -->
<g id="node8" class="node">
<title>Node60</title>
<g id="a_node8"><a xlink:href="fractional__logLL__fit_8inl.html" target="_top" xlink:title="fractional_logLL_fit.inl">
<polygon fill="none" stroke="#000000" points="676,-73 676,-92 787,-92 787,-73 676,-73"/>
<text text-anchor="middle" x="731.5" y="-80" font-family="Helvetica,sans-Serif" font-size="10.00" fill="#000000">fractional_logLL_fit.inl</text>
</a>
</g>
</g>
<!-- Node53&#45;&gt;Node60 -->
<g id="edge7" class="edge">
<title>Node53&#45;&gt;Node60</title>
<path fill="none" stroke="#191970" d="M2067.6428,-142.9828C1920.1032,-139.0123 1380.4984,-123.5051 936.5,-98 885.901,-95.0934 828.3612,-90.6423 787.1488,-87.2544"/>
<polygon fill="#191970" stroke="#191970" points="2067.885,-146.4905 2077.9751,-143.2592 2068.0723,-139.493 2067.885,-146.4905"/>
</g>
<!-- Node63 -->
<g id="node11" class="node">
<title>Node63</title>
<g id="a_node11"><a xlink:href="multidimensional__fit_8inl.html" target="_top" xlink:title="multidimensional_fit.inl">
<polygon fill="none" stroke="#000000" points="945.5,-73 945.5,-92 1061.5,-92 1061.5,-73 945.5,-73"/>
<text text-anchor="middle" x="1003.5" y="-80" font-family="Helvetica,sans-Serif" font-size="10.00" fill="#000000">multidimensional_fit.inl</text>
</a>
</g>
</g>
<!-- Node53&#45;&gt;Node63 -->
<g id="edge10" class="edge">
<title>Node53&#45;&gt;Node63</title>
<path fill="none" stroke="#191970" d="M2067.4755,-142.9849C1936.8505,-139.405 1503.0412,-126.0447 1145.5,-98 1117.9336,-95.8378 1087.4425,-92.6187 1061.8039,-89.6735"/>
<polygon fill="#191970" stroke="#191970" points="2067.6736,-146.4915 2077.7648,-143.2637 2067.8633,-139.494 2067.6736,-146.4915"/>
</g>
<!-- Node66 -->
<g id="node14" class="node">
<title>Node66</title>
<g id="a_node14"><a xlink:href="splot_8inl.html" target="_top" xlink:title="splot.inl">
<polygon fill="none" stroke="#000000" points="1154.5,-73 1154.5,-92 1204.5,-92 1204.5,-73 1154.5,-73"/>
<text text-anchor="middle" x="1179.5" y="-80" font-family="Helvetica,sans-Serif" font-size="10.00" fill="#000000">splot.inl</text>
</a>
</g>
</g>
<!-- Node53&#45;&gt;Node66 -->
<g id="edge13" class="edge">
<title>Node53&#45;&gt;Node66</title>
<path fill="none" stroke="#191970" d="M2067.6947,-141.5856C1960.623,-134.9028 1651.9794,-115.499 1395.5,-98 1326.483,-93.2911 1245.092,-87.3439 1204.7689,-84.3711"/>
<polygon fill="#191970" stroke="#191970" points="2067.5126,-145.0809 2077.7111,-142.2103 2067.9484,-138.0945 2067.5126,-145.0809"/>
</g>
<!-- Node69 -->
<g id="node17" class="node">
<title>Node69</title>
<g id="a_node17"><a xlink:href="breit__wigner__plus__chebychev_8inl.html" target="_top" xlink:title="breit_wigner_plus_chebychev.inl">
<polygon fill="none" stroke="#000000" points="1405,-73 1405,-92 1562,-92 1562,-73 1405,-73"/>
<text text-anchor="middle" x="1483.5" y="-80" font-family="Helvetica,sans-Serif" font-size="10.00" fill="#000000">breit_wigner_plus_chebychev.inl</text>
</a>
</g>
</g>
<!-- Node53&#45;&gt;Node69 -->
<g id="edge16" class="edge">
<title>Node53&#45;&gt;Node69</title>
<path fill="none" stroke="#191970" d="M2067.6807,-140.1679C1967.1641,-130.2453 1696.8661,-103.5626 1562.1102,-90.2601"/>
<polygon fill="#191970" stroke="#191970" points="2067.4054,-143.6577 2077.7009,-141.1571 2068.0931,-136.6915 2067.4054,-143.6577"/>
</g>
<!-- Node72 -->
<g id="node20" class="node">
<title>Node72</title>
<g id="a_node20"><a xlink:href="breit__wigner__plus__polynomial_8inl.html" target="_top" xlink:title="breit_wigner_plus_polynomial.inl">
<polygon fill="none" stroke="#000000" points="1761.5,-73 1761.5,-92 1917.5,-92 1917.5,-73 1761.5,-73"/>
<text text-anchor="middle" x="1839.5" y="-80" font-family="Helvetica,sans-Serif" font-size="10.00" fill="#000000">breit_wigner_plus_polynomial.inl</text>
</a>
</g>
</g>
<!-- Node53&#45;&gt;Node72 -->
<g id="edge19" class="edge">
<title>Node53&#45;&gt;Node72</title>
<path fill="none" stroke="#191970" d="M2067.8887,-135.1064C2018.1409,-123.6476 1932.0032,-103.8069 1880.9258,-92.0419"/>
<polygon fill="#191970" stroke="#191970" points="2067.3959,-138.5844 2077.9263,-137.4184 2068.9671,-131.7631 2067.3959,-138.5844"/>
</g>
<!-- Node75 -->
<g id="node23" class="node">
<title>Node75</title>
<g id="a_node23"><a xlink:href="crystal__ball__plus__exponential_8inl.html" target="_top" xlink:title="crystal_ball_plus_exponential.inl">
<polygon fill="none" stroke="#000000" points="2028,-73 2028,-92 2185,-92 2185,-73 2028,-73"/>
<text text-anchor="middle" x="2106.5" y="-80" font-family="Helvetica,sans-Serif" font-size="10.00" fill="#000000">crystal_ball_plus_exponential.inl</text>
</a>
</g>
</g>
<!-- Node53&#45;&gt;Node75 -->
<g id="edge22" class="edge">
<title>Node53&#45;&gt;Node75</title>
<path fill="none" stroke="#191970" d="M2106.5,-124.2462C2106.5,-113.5519 2106.5,-100.814 2106.5,-92.2449"/>
<polygon fill="#191970" stroke="#191970" points="2103.0001,-124.3906 2106.5,-134.3906 2110.0001,-124.3907 2103.0001,-124.3906"/>
</g>
<!-- Node78 -->
<g id="node26" class="node">
<title>Node78</title>
<g id="a_node26"><a xlink:href="dalitz__plot_8inl.html" target="_top" xlink:title="dalitz_plot.inl">
<polygon fill="none" stroke="#000000" points="2296.5,-73 2296.5,-92 2370.5,-92 2370.5,-73 2296.5,-73"/>
<text text-anchor="middle" x="2333.5" y="-80" font-family="Helvetica,sans-Serif" font-size="10.00" fill="#000000">dalitz_plot.inl</text>
</a>
</g>
</g>
<!-- Node53&#45;&gt;Node78 -->
<g id="edge25" class="edge">
<title>Node53&#45;&gt;Node78</title>
<path fill="none" stroke="#191970" d="M2145.0472,-133.5566C2187.9717,-121.9273 2256.7623,-103.2902 2298.2881,-92.0398"/>
<polygon fill="#191970" stroke="#191970" points="2143.9865,-130.2177 2135.2497,-136.211 2145.817,-136.9741 2143.9865,-130.2177"/>
</g>
<!-- Node81 -->
<g id="node29" class="node">
<title>Node81</title>
<g id="a_node29"><a xlink:href="double__gaussian__plus__exponential_8inl.html" target="_top" xlink:title="double_gaussian_plus\l_exponential.inl">
<polygon fill="none" stroke="#000000" points="2484,-67.5 2484,-97.5 2597,-97.5 2597,-67.5 2484,-67.5"/>
<text text-anchor="start" x="2492" y="-85.5" font-family="Helvetica,sans-Serif" font-size="10.00" fill="#000000">double_gaussian_plus</text>
<text text-anchor="middle" x="2540.5" y="-74.5" font-family="Helvetica,sans-Serif" font-size="10.00" fill="#000000">_exponential.inl</text>
</a>
</g>
</g>
<!-- Node53&#45;&gt;Node81 -->
<g id="edge28" class="edge">
<title>Node53&#45;&gt;Node81</title>
<path fill="none" stroke="#191970" d="M2145.533,-138.4688C2222.5582,-127.554 2394.3828,-103.2055 2483.8678,-90.5251"/>
<polygon fill="#191970" stroke="#191970" points="2144.7221,-135.0487 2135.3121,-139.9172 2145.7042,-141.9794 2144.7221,-135.0487"/>
</g>
<!-- Node84 -->
<g id="node32" class="node">
<title>Node84</title>
<g id="a_node32"><a xlink:href="gaussian__plus__argus_8inl.html" target="_top" xlink:title="gaussian_plus_argus.inl">
<polygon fill="none" stroke="#000000" points="2749,-73 2749,-92 2870,-92 2870,-73 2749,-73"/>
<text text-anchor="middle" x="2809.5" y="-80" font-family="Helvetica,sans-Serif" font-size="10.00" fill="#000000">gaussian_plus_argus.inl</text>
</a>
</g>
</g>
<!-- Node53&#45;&gt;Node84 -->
<g id="edge31" class="edge">
<title>Node53&#45;&gt;Node84</title>
<path fill="none" stroke="#191970" d="M2145.6043,-140.5791C2262.1876,-130.3801 2607.9862,-100.1289 2748.8058,-87.8097"/>
<polygon fill="#191970" stroke="#191970" points="2145.0259,-137.1162 2135.369,-141.4745 2145.6361,-144.0896 2145.0259,-137.1162"/>
</g>
<!-- Node87 -->
<g id="node35" class="node">
<title>Node87</title>
<g id="a_node35"><a xlink:href="Ipatia__plus__argus_8inl.html" target="_top" xlink:title="Ipatia_plus_argus.inl">
<polygon fill="none" stroke="#000000" points="2961.5,-73 2961.5,-92 3067.5,-92 3067.5,-73 2961.5,-73"/>
<text text-anchor="middle" x="3014.5" y="-80" font-family="Helvetica,sans-Serif" font-size="10.00" fill="#000000">Ipatia_plus_argus.inl</text>
</a>
</g>
</g>
<!-- Node53&#45;&gt;Node87 -->
<g id="edge34" class="edge">
<title>Node53&#45;&gt;Node87</title>
<path fill="none" stroke="#191970" d="M2145.5409,-142.4195C2258.9207,-137.6689 2597.9519,-122.3276 2878.5,-98 2905.8448,-95.6288 2936.1988,-92.2421 2961.2805,-89.239"/>
<polygon fill="#191970" stroke="#191970" points="2145.1285,-138.9335 2135.2826,-142.8461 2145.4194,-145.9275 2145.1285,-138.9335"/>
</g>
<!-- Node90 -->
<g id="node38" class="node">
<title>Node90</title>
<g id="a_node38"><a xlink:href="particle__mass_8inl.html" target="_top" xlink:title="particle_mass.inl">
<polygon fill="none" stroke="#000000" points="3085.5,-73 3085.5,-92 3175.5,-92 3175.5,-73 3085.5,-73"/>
<text text-anchor="middle" x="3130.5" y="-80" font-family="Helvetica,sans-Serif" font-size="10.00" fill="#000000">particle_mass.inl</text>
</a>
</g>
</g>
<!-- Node53&#45;&gt;Node90 -->
<g id="edge37" class="edge">
<title>Node53&#45;&gt;Node90</title>
<path fill="none" stroke="#191970" d="M2145.2692,-143.3619C2302.4449,-140.5897 2892.549,-128.3383 3076.5,-98 3084.8725,-96.6192 3093.791,-94.3867 3101.9174,-92.0409"/>
<polygon fill="#191970" stroke="#191970" points="2145.0684,-139.8648 2135.1308,-143.5381 2145.1901,-146.8637 2145.0684,-139.8648"/>
</g>
<!-- Node93 -->
<g id="node41" class="node">
<title>Node93</title>
<g id="a_node41"><a xlink:href="dalitz__plot_8C.html" target="_top" xlink:title="dalitz_plot.C">
<polygon fill="none" stroke="#000000" points="3194,-73 3194,-92 3265,-92 3265,-73 3194,-73"/>
<text text-anchor="middle" x="3229.5" y="-80" font-family="Helvetica,sans-Serif" font-size="10.00" fill="#000000">dalitz_plot.C</text>
</a>
</g>
</g>
<!-- Node53&#45;&gt;Node93 -->
<g id="edge40" class="edge">
<title>Node53&#45;&gt;Node93</title>
<path fill="none" stroke="#191970" d="M2145.4626,-143.8411C2313.7917,-142.9239 2979.3124,-136.8622 3184.5,-98 3191.6444,-96.6469 3199.1944,-94.3925 3206.0269,-92.0163"/>
<polygon fill="#191970" stroke="#191970" points="2145.3097,-140.3418 2135.3279,-143.8933 2145.3459,-147.3417 2145.3097,-140.3418"/>
</g>
<!-- Node94 -->
<g id="node42" class="node">
<title>Node94</title>
<g id="a_node42"><a xlink:href="fit__3d__gaussian_8C.html" target="_top" xlink:title="fit_3d_gaussian.C">
<polygon fill="none" stroke="#000000" points="3283,-73 3283,-92 3378,-92 3378,-73 3283,-73"/>
<text text-anchor="middle" x="3330.5" y="-80" font-family="Helvetica,sans-Serif" font-size="10.00" fill="#000000">fit_3d_gaussian.C</text>
</a>
</g>
</g>
<!-- Node53&#45;&gt;Node94 -->
<g id="edge41" class="edge">
<title>Node53&#45;&gt;Node94</title>
<path fill="none" stroke="#191970" d="M2145.176,-143.6743C2321.4122,-142.0069 3049.5103,-133.085 3274.5,-98 3283.1716,-96.6478 3292.4168,-94.4245 3300.8443,-92.0783"/>
<polygon fill="#191970" stroke="#191970" points="2145.0424,-140.1753 2135.0752,-143.7676 2145.1071,-147.175 2145.0424,-140.1753"/>
</g>
<!-- Node55 -->
<g id="node3" class="node">
<title>Node55</title>
<g id="a_node3"><a xlink:href="binned__extended__logLL__fit_8cpp.html" target="_top" xlink:title="binned_extended_logLL\l_fit.cpp">
<polygon fill="none" stroke="#000000" points="0,-.5 0,-30.5 119,-30.5 119,-.5 0,-.5"/>
<text text-anchor="start" x="8" y="-18.5" font-family="Helvetica,sans-Serif" font-size="10.00" fill="#000000">binned_extended_logLL</text>
<text text-anchor="middle" x="59.5" y="-7.5" font-family="Helvetica,sans-Serif" font-size="10.00" fill="#000000">_fit.cpp</text>
</a>
</g>
</g>
<!-- Node54&#45;&gt;Node55 -->
<g id="edge2" class="edge">
<title>Node54&#45;&gt;Node55</title>
<path fill="none" stroke="#191970" d="M156.7328,-63.0518C135.6816,-52.7567 110.2086,-40.2991 90.6169,-30.7177"/>
<polygon fill="#191970" stroke="#191970" points="155.2336,-66.2147 165.7545,-67.4639 158.3089,-59.9264 155.2336,-66.2147"/>
</g>
<!-- Node56 -->
<g id="node4" class="node">
<title>Node56</title>
<g id="a_node4"><a xlink:href="binned__extended__logLL__fit_8cu.html" target="_top" xlink:title="binned_extended_logLL\l_fit.cu">
<polygon fill="none" stroke="#000000" points="137,-.5 137,-30.5 256,-30.5 256,-.5 137,-.5"/>
<text text-anchor="start" x="145" y="-18.5" font-family="Helvetica,sans-Serif" font-size="10.00" fill="#000000">binned_extended_logLL</text>
<text text-anchor="middle" x="196.5" y="-7.5" font-family="Helvetica,sans-Serif" font-size="10.00" fill="#000000">_fit.cu</text>
</a>
</g>
</g>
<!-- Node54&#45;&gt;Node56 -->
<g id="edge3" class="edge">
<title>Node54&#45;&gt;Node56</title>
<path fill="none" stroke="#191970" d="M196.5,-57.0249C196.5,-48.128 196.5,-38.4287 196.5,-30.6432"/>
<polygon fill="#191970" stroke="#191970" points="193.0001,-57.2966 196.5,-67.2967 200.0001,-57.2967 193.0001,-57.2966"/>
</g>
<!-- Node58 -->
<g id="node6" class="node">
<title>Node58</title>
<g id="a_node6"><a xlink:href="extended__logLL__fit_8cpp.html" target="_top" xlink:title="extended_logLL_fit.cpp">
<polygon fill="none" stroke="#000000" points="274,-6 274,-25 391,-25 391,-6 274,-6"/>
<text text-anchor="middle" x="332.5" y="-13" font-family="Helvetica,sans-Serif" font-size="10.00" fill="#000000">extended_logLL_fit.cpp</text>
</a>
</g>
</g>
<!-- Node57&#45;&gt;Node58 -->
<g id="edge5" class="edge">
<title>Node57&#45;&gt;Node58</title>
<path fill="none" stroke="#191970" d="M437.5131,-68.4013C411.6826,-55.389 374.0224,-36.4173 351.5203,-25.0817"/>
<polygon fill="#191970" stroke="#191970" points="435.9389,-71.5273 446.4443,-72.9005 439.0882,-65.2757 435.9389,-71.5273"/>
</g>
<!-- Node59 -->
<g id="node7" class="node">
<title>Node59</title>
<g id="a_node7"><a xlink:href="extended__logLL__fit_8cu.html" target="_top" xlink:title="extended_logLL_fit.cu">
<polygon fill="none" stroke="#000000" points="409.5,-6 409.5,-25 521.5,-25 521.5,-6 409.5,-6"/>
<text text-anchor="middle" x="465.5" y="-13" font-family="Helvetica,sans-Serif" font-size="10.00" fill="#000000">extended_logLL_fit.cu</text>
</a>
</g>
</g>
<!-- Node57&#45;&gt;Node59 -->
<g id="edge6" class="edge">
<title>Node57&#45;&gt;Node59</title>
<path fill="none" stroke="#191970" d="M465.5,-62.6079C465.5,-50.214 465.5,-34.8263 465.5,-25.0817"/>
<polygon fill="#191970" stroke="#191970" points="462.0001,-62.9005 465.5,-72.9005 469.0001,-62.9006 462.0001,-62.9005"/>
</g>
<!-- Node61 -->
<g id="node9" class="node">
<title>Node61</title>
<g id="a_node9"><a xlink:href="fractional__logLL__fit_8cpp.html" target="_top" xlink:title="fractional_logLL_fit.cpp">
<polygon fill="none" stroke="#000000" points="540,-6 540,-25 657,-25 657,-6 540,-6"/>
<text text-anchor="middle" x="598.5" y="-13" font-family="Helvetica,sans-Serif" font-size="10.00" fill="#000000">fractional_logLL_fit.cpp</text>
</a>
</g>
</g>
<!-- Node60&#45;&gt;Node61 -->
<g id="edge8" class="edge">
<title>Node60&#45;&gt;Node61</title>
<path fill="none" stroke="#191970" d="M703.5131,-68.4013C677.6826,-55.389 640.0224,-36.4173 617.5203,-25.0817"/>
<polygon fill="#191970" stroke="#191970" points="701.9389,-71.5273 712.4443,-72.9005 705.0882,-65.2757 701.9389,-71.5273"/>
</g>
<!-- Node62 -->
<g id="node10" class="node">
<title>Node62</title>
<g id="a_node10"><a xlink:href="fractional__logLL__fit_8cu.html" target="_top" xlink:title="fractional_logLL_fit.cu">
<polygon fill="none" stroke="#000000" points="675.5,-6 675.5,-25 787.5,-25 787.5,-6 675.5,-6"/>
<text text-anchor="middle" x="731.5" y="-13" font-family="Helvetica,sans-Serif" font-size="10.00" fill="#000000">fractional_logLL_fit.cu</text>
</a>
</g>
</g>
<!-- Node60&#45;&gt;Node62 -->
<g id="edge9" class="edge">
<title>Node60&#45;&gt;Node62</title>
<path fill="none" stroke="#191970" d="M731.5,-62.6079C731.5,-50.214 731.5,-34.8263 731.5,-25.0817"/>
<polygon fill="#191970" stroke="#191970" points="728.0001,-62.9005 731.5,-72.9005 735.0001,-62.9006 728.0001,-62.9005"/>
</g>
<!-- Node64 -->
<g id="node12" class="node">
<title>Node64</title>
<g id="a_node12"><a xlink:href="multidimensional__fit_8cpp.html" target="_top" xlink:title="multidimensional_fit.cpp">
<polygon fill="none" stroke="#000000" points="805.5,-6 805.5,-25 927.5,-25 927.5,-6 805.5,-6"/>
<text text-anchor="middle" x="866.5" y="-13" font-family="Helvetica,sans-Serif" font-size="10.00" fill="#000000">multidimensional_fit.cpp</text>
</a>
</g>
</g>
<!-- Node63&#45;&gt;Node64 -->
<g id="edge11" class="edge">
<title>Node63&#45;&gt;Node64</title>
<path fill="none" stroke="#191970" d="M974.6714,-68.4013C948.064,-55.389 909.2712,-36.4173 886.0923,-25.0817"/>
<polygon fill="#191970" stroke="#191970" points="973.3503,-71.6513 983.8712,-72.9005 976.4256,-65.3631 973.3503,-71.6513"/>
</g>
<!-- Node65 -->
<g id="node13" class="node">
<title>Node65</title>
<g id="a_node13"><a xlink:href="multidimensional__fit_8cu.html" target="_top" xlink:title="multidimensional_fit.cu">
<polygon fill="none" stroke="#000000" points="945.5,-6 945.5,-25 1061.5,-25 1061.5,-6 945.5,-6"/>
<text text-anchor="middle" x="1003.5" y="-13" font-family="Helvetica,sans-Serif" font-size="10.00" fill="#000000">multidimensional_fit.cu</text>
</a>
</g>
</g>
<!-- Node63&#45;&gt;Node65 -->
<g id="edge12" class="edge">
<title>Node63&#45;&gt;Node65</title>
<path fill="none" stroke="#191970" d="M1003.5,-62.6079C1003.5,-50.214 1003.5,-34.8263 1003.5,-25.0817"/>
<polygon fill="#191970" stroke="#191970" points="1000.0001,-62.9005 1003.5,-72.9005 1007.0001,-62.9006 1000.0001,-62.9005"/>
</g>
<!-- Node67 -->
<g id="node15" class="node">
<title>Node67</title>
<g id="a_node15"><a xlink:href="splot_8cpp.html" target="_top" xlink:title="splot.cpp">
<polygon fill="none" stroke="#000000" points="1079.5,-6 1079.5,-25 1135.5,-25 1135.5,-6 1079.5,-6"/>
<text text-anchor="middle" x="1107.5" y="-13" font-family="Helvetica,sans-Serif" font-size="10.00" fill="#000000">splot.cpp</text>
</a>
</g>
</g>
<!-- Node66&#45;&gt;Node67 -->
<g id="edge14" class="edge">
<title>Node66&#45;&gt;Node67</title>
<path fill="none" stroke="#191970" d="M1161.7042,-65.94C1147.893,-53.0879 1129.2303,-35.7212 1117.7967,-25.0817"/>
<polygon fill="#191970" stroke="#191970" points="1159.4791,-68.6504 1169.1842,-72.9005 1164.2478,-63.5259 1159.4791,-68.6504"/>
</g>
<!-- Node68 -->
<g id="node16" class="node">
<title>Node68</title>
<g id="a_node16"><a xlink:href="splot_8cu.html" target="_top" xlink:title="splot.cu">
<polygon fill="none" stroke="#000000" points="1154,-6 1154,-25 1205,-25 1205,-6 1154,-6"/>
<text text-anchor="middle" x="1179.5" y="-13" font-family="Helvetica,sans-Serif" font-size="10.00" fill="#000000">splot.cu</text>
</a>
</g>
</g>
<!-- Node66&#45;&gt;Node68 -->
<g id="edge15" class="edge">
<title>Node66&#45;&gt;Node68</title>
<path fill="none" stroke="#191970" d="M1179.5,-62.6079C1179.5,-50.214 1179.5,-34.8263 1179.5,-25.0817"/>
<polygon fill="#191970" stroke="#191970" points="1176.0001,-62.9005 1179.5,-72.9005 1183.0001,-62.9006 1176.0001,-62.9005"/>
</g>
<!-- Node70 -->
<g id="node18" class="node">
<title>Node70</title>
<g id="a_node18"><a xlink:href="breit__wigner__plus__chebychev_8cpp.html" target="_top" xlink:title="breit_wigner_plus_chebychev.cpp">
<polygon fill="none" stroke="#000000" points="1223,-6 1223,-25 1386,-25 1386,-6 1223,-6"/>
<text text-anchor="middle" x="1304.5" y="-13" font-family="Helvetica,sans-Serif" font-size="10.00" fill="#000000">breit_wigner_plus_chebychev.cpp</text>
</a>
</g>
</g>
<!-- Node69&#45;&gt;Node70 -->
<g id="edge17" class="edge">
<title>Node69&#45;&gt;Node70</title>
<path fill="none" stroke="#191970" d="M1448.0971,-69.2487C1413.3019,-56.2247 1361.0476,-36.6659 1330.0988,-25.0817"/>
<polygon fill="#191970" stroke="#191970" points="1447.2613,-72.6729 1457.8537,-72.9005 1449.7152,-66.1171 1447.2613,-72.6729"/>
</g>
<!-- Node71 -->
<g id="node19" class="node">
<title>Node71</title>
<g id="a_node19"><a xlink:href="breit__wigner__plus__chebychev_8cu.html" target="_top" xlink:title="breit_wigner_plus_chebychev.cu">
<polygon fill="none" stroke="#000000" points="1404.5,-6 1404.5,-25 1562.5,-25 1562.5,-6 1404.5,-6"/>
<text text-anchor="middle" x="1483.5" y="-13" font-family="Helvetica,sans-Serif" font-size="10.00" fill="#000000">breit_wigner_plus_chebychev.cu</text>
</a>
</g>
</g>
<!-- Node69&#45;&gt;Node71 -->
<g id="edge18" class="edge">
<title>Node69&#45;&gt;Node71</title>
<path fill="none" stroke="#191970" d="M1483.5,-62.6079C1483.5,-50.214 1483.5,-34.8263 1483.5,-25.0817"/>
<polygon fill="#191970" stroke="#191970" points="1480.0001,-62.9005 1483.5,-72.9005 1487.0001,-62.9006 1480.0001,-62.9005"/>
</g>
<!-- Node73 -->
<g id="node21" class="node">
<title>Node73</title>
<g id="a_node21"><a xlink:href="breit__wigner__plus__polynomial_8cpp.html" target="_top" xlink:title="breit_wigner_plus_polynomial.cpp">
<polygon fill="none" stroke="#000000" points="1580.5,-6 1580.5,-25 1742.5,-25 1742.5,-6 1580.5,-6"/>
<text text-anchor="middle" x="1661.5" y="-13" font-family="Helvetica,sans-Serif" font-size="10.00" fill="#000000">breit_wigner_plus_polynomial.cpp</text>
</a>
</g>
</g>
<!-- Node72&#45;&gt;Node73 -->
<g id="edge20" class="edge">
<title>Node72&#45;&gt;Node73</title>
<path fill="none" stroke="#191970" d="M1804.2949,-69.2487C1769.6941,-56.2247 1717.7317,-36.6659 1686.9558,-25.0817"/>
<polygon fill="#191970" stroke="#191970" points="1803.405,-72.6534 1813.9969,-72.9005 1805.871,-66.1021 1803.405,-72.6534"/>
</g>
<!-- Node74 -->
<g id="node22" class="node">
<title>Node74</title>
<g id="a_node22"><a xlink:href="breit__wigner__plus__polynomial_8cu.html" target="_top" xlink:title="breit_wigner_plus_polynomial.cu">
<polygon fill="none" stroke="#000000" points="1761,-6 1761,-25 1918,-25 1918,-6 1761,-6"/>
<text text-anchor="middle" x="1839.5" y="-13" font-family="Helvetica,sans-Serif" font-size="10.00" fill="#000000">breit_wigner_plus_polynomial.cu</text>
</a>
</g>
</g>
<!-- Node72&#45;&gt;Node74 -->
<g id="edge21" class="edge">
<title>Node72&#45;&gt;Node74</title>
<path fill="none" stroke="#191970" d="M1839.5,-62.6079C1839.5,-50.214 1839.5,-34.8263 1839.5,-25.0817"/>
<polygon fill="#191970" stroke="#191970" points="1836.0001,-62.9005 1839.5,-72.9005 1843.0001,-62.9006 1836.0001,-62.9005"/>
</g>
<!-- Node76 -->
<g id="node24" class="node">
<title>Node76</title>
<g id="a_node24"><a xlink:href="crystal__ball__plus__exponential_8cpp.html" target="_top" xlink:title="crystal_ball_plus_exponential.cpp">
<polygon fill="none" stroke="#000000" points="1936,-6 1936,-25 2099,-25 2099,-6 1936,-6"/>
<text text-anchor="middle" x="2017.5" y="-13" font-family="Helvetica,sans-Serif" font-size="10.00" fill="#000000">crystal_ball_plus_exponential.cpp</text>
</a>
</g>
</g>
<!-- Node75&#45;&gt;Node76 -->
<g id="edge23" class="edge">
<title>Node75&#45;&gt;Node76</title>
<path fill="none" stroke="#191970" d="M2085.4534,-66.6559C2068.2957,-53.7395 2044.6252,-35.9201 2030.2279,-25.0817"/>
<polygon fill="#191970" stroke="#191970" points="2083.6542,-69.6824 2093.7485,-72.9005 2087.8643,-64.0899 2083.6542,-69.6824"/>
</g>
<!-- Node77 -->
<g id="node25" class="node">
<title>Node77</title>
<g id="a_node25"><a xlink:href="crystal__ball__plus__exponential_8cu.html" target="_top" xlink:title="crystal_ball_plus_exponential.cu">
<polygon fill="none" stroke="#000000" points="2117.5,-6 2117.5,-25 2275.5,-25 2275.5,-6 2117.5,-6"/>
<text text-anchor="middle" x="2196.5" y="-13" font-family="Helvetica,sans-Serif" font-size="10.00" fill="#000000">crystal_ball_plus_exponential.cu</text>
</a>
</g>
</g>
<!-- Node75&#45;&gt;Node77 -->
<g id="edge24" class="edge">
<title>Node75&#45;&gt;Node77</title>
<path fill="none" stroke="#191970" d="M2127.7831,-66.6559C2145.1335,-53.7395 2169.07,-35.9201 2183.6291,-25.0817"/>
<polygon fill="#191970" stroke="#191970" points="2125.3261,-64.1216 2119.3948,-72.9005 2129.5062,-69.7365 2125.3261,-64.1216"/>
</g>
<!-- Node79 -->
<g id="node27" class="node">
<title>Node79</title>
<g id="a_node27"><a xlink:href="dalitz__plot_8cpp.html" target="_top" xlink:title="dalitz_plot.cpp">
<polygon fill="none" stroke="#000000" points="2293.5,-6 2293.5,-25 2373.5,-25 2373.5,-6 2293.5,-6"/>
<text text-anchor="middle" x="2333.5" y="-13" font-family="Helvetica,sans-Serif" font-size="10.00" fill="#000000">dalitz_plot.cpp</text>
</a>
</g>
</g>
<!-- Node78&#45;&gt;Node79 -->
<g id="edge26" class="edge">
<title>Node78&#45;&gt;Node79</title>
<path fill="none" stroke="#191970" d="M2333.5,-62.6079C2333.5,-50.214 2333.5,-34.8263 2333.5,-25.0817"/>
<polygon fill="#191970" stroke="#191970" points="2330.0001,-62.9005 2333.5,-72.9005 2337.0001,-62.9006 2330.0001,-62.9005"/>
</g>
<!-- Node80 -->
<g id="node28" class="node">
<title>Node80</title>
<g id="a_node28"><a xlink:href="dalitz__plot_8cu.html" target="_top" xlink:title="dalitz_plot.cu">
<polygon fill="none" stroke="#000000" points="2391.5,-6 2391.5,-25 2465.5,-25 2465.5,-6 2391.5,-6"/>
<text text-anchor="middle" x="2428.5" y="-13" font-family="Helvetica,sans-Serif" font-size="10.00" fill="#000000">dalitz_plot.cu</text>
</a>
</g>
</g>
<!-- Node78&#45;&gt;Node80 -->
<g id="edge27" class="edge">
<title>Node78&#45;&gt;Node80</title>
<path fill="none" stroke="#191970" d="M2355.4632,-67.0102C2373.8154,-54.067 2399.4051,-36.0195 2414.9141,-25.0817"/>
<polygon fill="#191970" stroke="#191970" points="2353.266,-64.2768 2347.1112,-72.9005 2357.3005,-69.9973 2353.266,-64.2768"/>
</g>
<!-- Node82 -->
<g id="node30" class="node">
<title>Node82</title>
<g id="a_node30"><a xlink:href="double__gaussian__plus__exponential_8cpp.html" target="_top" xlink:title="double_gaussian_plus\l_exponential.cpp">
<polygon fill="none" stroke="#000000" points="2484,-.5 2484,-30.5 2597,-30.5 2597,-.5 2484,-.5"/>
<text text-anchor="start" x="2492" y="-18.5" font-family="Helvetica,sans-Serif" font-size="10.00" fill="#000000">double_gaussian_plus</text>
<text text-anchor="middle" x="2540.5" y="-7.5" font-family="Helvetica,sans-Serif" font-size="10.00" fill="#000000">_exponential.cpp</text>
</a>
</g>
</g>
<!-- Node81&#45;&gt;Node82 -->
<g id="edge29" class="edge">
<title>Node81&#45;&gt;Node82</title>
<path fill="none" stroke="#191970" d="M2540.5,-57.0249C2540.5,-48.128 2540.5,-38.4287 2540.5,-30.6432"/>
<polygon fill="#191970" stroke="#191970" points="2537.0001,-57.2966 2540.5,-67.2967 2544.0001,-57.2967 2537.0001,-57.2966"/>
</g>
<!-- Node83 -->
<g id="node31" class="node">
<title>Node83</title>
<g id="a_node31"><a xlink:href="double__gaussian__plus__exponential_8cu.html" target="_top" xlink:title="double_gaussian_plus\l_exponential.cu">
<polygon fill="none" stroke="#000000" points="2615,-.5 2615,-30.5 2728,-30.5 2728,-.5 2615,-.5"/>
<text text-anchor="start" x="2623" y="-18.5" font-family="Helvetica,sans-Serif" font-size="10.00" fill="#000000">double_gaussian_plus</text>
<text text-anchor="middle" x="2671.5" y="-7.5" font-family="Helvetica,sans-Serif" font-size="10.00" fill="#000000">_exponential.cu</text>
</a>
</g>
</g>
<!-- Node81&#45;&gt;Node83 -->
<g id="edge30" class="edge">
<title>Node81&#45;&gt;Node83</title>
<path fill="none" stroke="#191970" d="M2579.0682,-62.7743C2599.0913,-52.5335 2623.1802,-40.2132 2641.7459,-30.7177"/>
<polygon fill="#191970" stroke="#191970" points="2577.2083,-59.7942 2569.899,-67.4639 2580.3958,-66.0264 2577.2083,-59.7942"/>
</g>
<!-- Node85 -->
<g id="node33" class="node">
<title>Node85</title>
<g id="a_node33"><a xlink:href="gaussian__plus__argus_8cpp.html" target="_top" xlink:title="gaussian_plus_argus.cpp">
<polygon fill="none" stroke="#000000" points="2746,-6 2746,-25 2873,-25 2873,-6 2746,-6"/>
<text text-anchor="middle" x="2809.5" y="-13" font-family="Helvetica,sans-Serif" font-size="10.00" fill="#000000">gaussian_plus_argus.cpp</text>
</a>
</g>
</g>
<!-- Node84&#45;&gt;Node85 -->
<g id="edge32" class="edge">
<title>Node84&#45;&gt;Node85</title>
<path fill="none" stroke="#191970" d="M2809.5,-62.6079C2809.5,-50.214 2809.5,-34.8263 2809.5,-25.0817"/>
<polygon fill="#191970" stroke="#191970" points="2806.0001,-62.9005 2809.5,-72.9005 2813.0001,-62.9006 2806.0001,-62.9005"/>
</g>
<!-- Node86 -->
<g id="node34" class="node">
<title>Node86</title>
<g id="a_node34"><a xlink:href="gaussian__plus__argus_8cu.html" target="_top" xlink:title="gaussian_plus_argus.cu">
<polygon fill="none" stroke="#000000" points="2891.5,-6 2891.5,-25 3013.5,-25 3013.5,-6 2891.5,-6"/>
<text text-anchor="middle" x="2952.5" y="-13" font-family="Helvetica,sans-Serif" font-size="10.00" fill="#000000">gaussian_plus_argus.cu</text>
</a>
</g>
</g>
<!-- Node84&#45;&gt;Node86 -->
<g id="edge33" class="edge">
<title>Node84&#45;&gt;Node86</title>
<path fill="none" stroke="#191970" d="M2839.2265,-68.5722C2867.0083,-55.5555 2907.7495,-36.467 2932.0496,-25.0817"/>
<polygon fill="#191970" stroke="#191970" points="2837.5588,-65.4884 2829.9884,-72.9005 2840.5287,-71.8271 2837.5588,-65.4884"/>
</g>
<!-- Node88 -->
<g id="node36" class="node">
<title>Node88</title>
<g id="a_node36"><a xlink:href="ipatia__plus__argus_8cpp.html" target="_top" xlink:title="ipatia_plus_argus.cpp">
<polygon fill="none" stroke="#000000" points="3032,-6 3032,-25 3143,-25 3143,-6 3032,-6"/>
<text text-anchor="middle" x="3087.5" y="-13" font-family="Helvetica,sans-Serif" font-size="10.00" fill="#000000">ipatia_plus_argus.cpp</text>
</a>
</g>
</g>
<!-- Node87&#45;&gt;Node88 -->
<g id="edge35" class="edge">
<title>Node87&#45;&gt;Node88</title>
<path fill="none" stroke="#191970" d="M3032.5429,-65.94C3046.546,-53.0879 3065.4679,-35.7212 3077.0603,-25.0817"/>
<polygon fill="#191970" stroke="#191970" points="3029.9599,-63.5601 3024.9591,-72.9005 3034.6931,-68.7173 3029.9599,-63.5601"/>
</g>
<!-- Node89 -->
<g id="node37" class="node">
<title>Node89</title>
<g id="a_node37"><a xlink:href="ipatia__plus__argus_8cu.html" target="_top" xlink:title="ipatia_plus_argus.cu">
<polygon fill="none" stroke="#000000" points="3161.5,-6 3161.5,-25 3267.5,-25 3267.5,-6 3161.5,-6"/>
<text text-anchor="middle" x="3214.5" y="-13" font-family="Helvetica,sans-Serif" font-size="10.00" fill="#000000">ipatia_plus_argus.cu</text>
</a>
</g>
</g>
<!-- Node87&#45;&gt;Node89 -->
<g id="edge36" class="edge">
<title>Node87&#45;&gt;Node89</title>
<path fill="none" stroke="#191970" d="M3053.0595,-69.5826C3091.9296,-56.5611 3151.0215,-36.7653 3185.898,-25.0817"/>
<polygon fill="#191970" stroke="#191970" points="3051.5254,-66.4052 3043.1551,-72.9005 3053.749,-73.0427 3051.5254,-66.4052"/>
</g>
<!-- Node91 -->
<g id="node39" class="node">
<title>Node91</title>
<g id="a_node39"><a xlink:href="particle__mass_8cpp.html" target="_top" xlink:title="particle_mass.cpp">
<polygon fill="none" stroke="#000000" points="3285.5,-6 3285.5,-25 3381.5,-25 3381.5,-6 3285.5,-6"/>
<text text-anchor="middle" x="3333.5" y="-13" font-family="Helvetica,sans-Serif" font-size="10.00" fill="#000000">particle_mass.cpp</text>
</a>
</g>
</g>
<!-- Node90&#45;&gt;Node91 -->
<g id="edge38" class="edge">
<title>Node90&#45;&gt;Node91</title>
<path fill="none" stroke="#191970" d="M3169.1353,-69.7484C3208.5801,-56.7297 3268.9187,-36.815 3304.469,-25.0817"/>
<polygon fill="#191970" stroke="#191970" points="3167.9841,-66.4426 3159.585,-72.9005 3170.1781,-73.0899 3167.9841,-66.4426"/>
</g>
<!-- Node92 -->
<g id="node40" class="node">
<title>Node92</title>
<g id="a_node40"><a xlink:href="particle__mass_8cu.html" target="_top" xlink:title="particle_mass.cu">
<polygon fill="none" stroke="#000000" points="3400,-6 3400,-25 3491,-25 3491,-6 3400,-6"/>
<text text-anchor="middle" x="3445.5" y="-13" font-family="Helvetica,sans-Serif" font-size="10.00" fill="#000000">particle_mass.cu</text>
</a>
</g>
</g>
<!-- Node90&#45;&gt;Node92 -->
<g id="edge39" class="edge">
<title>Node90&#45;&gt;Node92</title>
<path fill="none" stroke="#191970" d="M3172.1007,-70.2991C3176.607,-69.1202 3181.1385,-67.9949 3185.5,-67 3275.6888,-46.4277 3300.3112,-51.5723 3390.5,-31 3398.0443,-29.2791 3406.0971,-27.168 3413.6483,-25.0641"/>
<polygon fill="#191970" stroke="#191970" points="3171.0911,-66.9464 3162.3517,-72.9359 3172.9187,-73.7036 3171.0911,-66.9464"/>
</g>
</g>
</svg>
