<?xml version="1.0" encoding="UTF-8" standalone="no"?>
<!DOCTYPE svg PUBLIC "-//W3C//DTD SVG 1.1//EN"
 "http://www.w3.org/Graphics/SVG/1.1/DTD/svg11.dtd">
<!-- Generated by graphviz version 2.38.0 (20140413.2041)
 -->
<!-- Title: AddPdfFunctor.h Pages: 1 -->
<!--zoomable 330 -->
<svg id="main" version="1.1" xmlns="http://www.w3.org/2000/svg" xmlns:xlink="http://www.w3.org/1999/xlink" xml:space="preserve" onload="init(evt)">
<style type="text/css"><![CDATA[
.edge:hover path { stroke: red; }
.edge:hover polygon { stroke: red; fill: red; }
]]></style>
<script type="text/javascript"><![CDATA[
var edges = document.getElementsByTagName('g');
if (edges && edges.length) {
  for (var i=0;i<edges.length;i++) {
    if (edges[i].id.substr(0,4)=='edge') {
      edges[i].setAttribute('class','edge');
    }
  }
}
]]></script>
        <defs>
                <circle id="rim" cx="0" cy="0" r="7"/>
                <circle id="rim2" cx="0" cy="0" r="3.5"/>
                <g id="zoomPlus">
                        <use xlink:href="#rim" fill="#404040">
                                <set attributeName="fill" to="#808080" begin="zoomplus.mouseover" end="zoomplus.mouseout"/>
                        </use>
                        <path d="M-4,0h8M0,-4v8" fill="none" stroke="white" stroke-width="1.5" pointer-events="none"/>
                </g>
                <g id="zoomMin">
                        <use xlink:href="#rim" fill="#404040">
                                <set attributeName="fill" to="#808080" begin="zoomminus.mouseover" end="zoomminus.mouseout"/>
                        </use>
                        <path d="M-4,0h8" fill="none" stroke="white" stroke-width="1.5" pointer-events="none"/>
                </g>
                <g id="dirArrow">
                        <path fill="none" stroke="white" stroke-width="1.5" d="M0,-3.0v7 M-2.5,-0.5L0,-3.0L2.5,-0.5"/>
                </g>
               <g id="resetDef">
                       <use xlink:href="#rim2" fill="#404040">
                               <set attributeName="fill" to="#808080" begin="reset.mouseover" end="reset.mouseout"/>
                       </use>
               </g>
        </defs>

<script type="text/javascript">
var viewWidth = 3139;
var viewHeight = 330;
var sectionId = 'dynsection-1';
</script>
<script xlink:href="svgpan.js"/>
<svg id="graph" class="graph">
<g id="viewport">
<title>AddPdfFunctor.h</title>
<!-- Node47 -->
<g id="node1" class="node"><title>Node47</title>
<polygon fill="#bfbfbf" stroke="black" points="1207,-302.5 1207,-321.5 1297,-321.5 1297,-302.5 1207,-302.5"/>
<text text-anchor="middle" x="1252" y="-309.5" font-family="Helvetica,sans-Serif" font-size="10.00">AddPdfFunctor.h</text>
</g>
<!-- Node48 -->
<g id="node2" class="node"><title>Node48</title>
<g id="a_node2"><a xlink:href="PDFSumExtendable_8h.html" target="_top" xlink:title="PDFSumExtendable.h">
<polygon fill="none" stroke="black" points="1100,-246.5 1100,-265.5 1214,-265.5 1214,-246.5 1100,-246.5"/>
<text text-anchor="middle" x="1157" y="-253.5" font-family="Helvetica,sans-Serif" font-size="10.00">PDFSumExtendable.h</text>
</a>
</g>
</g>
<!-- Node47&#45;&gt;Node48 -->
<g id="edge1" class="edge"><title>Node47&#45;&gt;Node48</title>
<path fill="none" stroke="midnightblue" d="M1227.68,-297.177C1210.2,-287.241 1187.17,-274.149 1172.23,-265.655"/>
<polygon fill="midnightblue" stroke="midnightblue" points="1226.31,-300.425 1236.74,-302.324 1229.77,-294.339 1226.31,-300.425"/>
</g>
<!-- Node91 -->
<g id="node45" class="node"><title>Node91</title>
<g id="a_node45"><a xlink:href="PDFSumNonExtendable_8h.html" target="_top" xlink:title="PDFSumNonExtendable.h">
<polygon fill="none" stroke="black" points="1282,-246.5 1282,-265.5 1414,-265.5 1414,-246.5 1282,-246.5"/>
<text text-anchor="middle" x="1348" y="-253.5" font-family="Helvetica,sans-Serif" font-size="10.00">PDFSumNonExtendable.h</text>
</a>
</g>
</g>
<!-- Node47&#45;&gt;Node91 -->
<g id="edge57" class="edge"><title>Node47&#45;&gt;Node91</title>
<path fill="none" stroke="midnightblue" d="M1276.57,-297.177C1294.24,-287.241 1317.51,-274.149 1332.61,-265.655"/>
<polygon fill="midnightblue" stroke="midnightblue" points="1274.42,-294.371 1267.42,-302.324 1277.86,-300.472 1274.42,-294.371"/>
</g>
<!-- Node49 -->
<g id="node3" class="node"><title>Node49</title>
<g id="a_node3"><a xlink:href="AddPdf_8h.html" target="_top" xlink:title="Include this file to get the classes and functions necessary to build&#45;up composed PDF models...">
<polygon fill="none" stroke="black" points="1200.5,-134.5 1200.5,-153.5 1257.5,-153.5 1257.5,-134.5 1200.5,-134.5"/>
<text text-anchor="middle" x="1229" y="-141.5" font-family="Helvetica,sans-Serif" font-size="10.00">AddPdf.h</text>
</a>
</g>
</g>
<!-- Node48&#45;&gt;Node49 -->
<g id="edge2" class="edge"><title>Node48&#45;&gt;Node49</title>
<path fill="none" stroke="midnightblue" d="M1146.69,-237.424C1140.09,-223.65 1134.24,-204.462 1143,-190 1155.39,-169.53 1180.5,-157.924 1200.4,-151.646"/>
<polygon fill="midnightblue" stroke="midnightblue" points="1143.66,-239.164 1151.44,-246.351 1149.84,-235.879 1143.66,-239.164"/>
</g>
<!-- Node81 -->
<g id="node35" class="node"><title>Node81</title>
<g id="a_node35"><a xlink:href="LogLikelihoodFCN2_8inl.html" target="_top" xlink:title="LogLikelihoodFCN2.inl">
<polygon fill="none" stroke="black" points="1185.5,-190.5 1185.5,-209.5 1300.5,-209.5 1300.5,-190.5 1185.5,-190.5"/>
<text text-anchor="middle" x="1243" y="-197.5" font-family="Helvetica,sans-Serif" font-size="10.00">LogLikelihoodFCN2.inl</text>
</a>
</g>
</g>
<!-- Node48&#45;&gt;Node81 -->
<g id="edge34" class="edge"><title>Node48&#45;&gt;Node81</title>
<path fill="none" stroke="midnightblue" d="M1179.45,-240.901C1195.22,-230.999 1215.81,-218.071 1229.22,-209.655"/>
<polygon fill="midnightblue" stroke="midnightblue" points="1177.43,-238.042 1170.82,-246.324 1181.15,-243.97 1177.43,-238.042"/>
</g>
<!-- Node82 -->
<g id="node36" class="node"><title>Node82</title>
<g id="a_node36"><a xlink:href="LogLikelihoodFCN_8h.html" target="_top" xlink:title="LogLikelihoodFCN.h">
<polygon fill="none" stroke="black" points="1314.5,-134.5 1314.5,-153.5 1419.5,-153.5 1419.5,-134.5 1314.5,-134.5"/>
<text text-anchor="middle" x="1367" y="-141.5" font-family="Helvetica,sans-Serif" font-size="10.00">LogLikelihoodFCN.h</text>
</a>
</g>
</g>
<!-- Node48&#45;&gt;Node82 -->
<g id="edge54" class="edge"><title>Node48&#45;&gt;Node82</title>
<path fill="none" stroke="midnightblue" d="M1157.59,-236.081C1159.07,-221.497 1163.48,-201.874 1176,-190 1195.71,-171.304 1265.01,-158.437 1314.44,-151.392"/>
<polygon fill="midnightblue" stroke="midnightblue" points="1154.07,-236.251 1156.93,-246.453 1161.06,-236.696 1154.07,-236.251"/>
</g>
<!-- Node90 -->
<g id="node44" class="node"><title>Node90</title>
<g id="a_node44"><a xlink:href="SPlot_8h.html" target="_top" xlink:title="SPlot.h">
<polygon fill="none" stroke="black" points="705.5,-134.5 705.5,-153.5 754.5,-153.5 754.5,-134.5 705.5,-134.5"/>
<text text-anchor="middle" x="730" y="-141.5" font-family="Helvetica,sans-Serif" font-size="10.00">SPlot.h</text>
</a>
</g>
</g>
<!-- Node48&#45;&gt;Node90 -->
<g id="edge55" class="edge"><title>Node48&#45;&gt;Node90</title>
<path fill="none" stroke="midnightblue" d="M1114.12,-243.952C1025.48,-221.118 824.526,-169.351 754.565,-151.328"/>
<polygon fill="midnightblue" stroke="midnightblue" points="1113.29,-247.355 1123.85,-246.46 1115.04,-240.576 1113.29,-247.355"/>
</g>
<!-- Node50 -->
<g id="node4" class="node"><title>Node50</title>
<g id="a_node4"><a xlink:href="binned__extended__logLL__fit_8inl.html" target="_top" xlink:title="binned_extended_logLL\l_fit.inl">
<polygon fill="none" stroke="black" points="1307.5,-67.5 1307.5,-97.5 1426.5,-97.5 1426.5,-67.5 1307.5,-67.5"/>
<text text-anchor="start" x="1315.5" y="-85.5" font-family="Helvetica,sans-Serif" font-size="10.00">binned_extended_logLL</text>
<text text-anchor="middle" x="1367" y="-74.5" font-family="Helvetica,sans-Serif" font-size="10.00">_fit.inl</text>
</a>
</g>
</g>
<!-- Node49&#45;&gt;Node50 -->
<g id="edge3" class="edge"><title>Node49&#45;&gt;Node50</title>
<path fill="none" stroke="midnightblue" d="M1258.08,-130.461C1280.44,-120.823 1311.31,-107.513 1334.48,-97.523"/>
<polygon fill="midnightblue" stroke="midnightblue" points="1256.57,-127.302 1248.77,-134.475 1259.34,-133.73 1256.57,-127.302"/>
</g>
<!-- Node53 -->
<g id="node7" class="node"><title>Node53</title>
<g id="a_node7"><a xlink:href="extended__logLL__fit_8inl.html" target="_top" xlink:title="extended_logLL_fit.inl">
<polygon fill="none" stroke="black" points="1444.5,-73 1444.5,-92 1555.5,-92 1555.5,-73 1444.5,-73"/>
<text text-anchor="middle" x="1500" y="-80" font-family="Helvetica,sans-Serif" font-size="10.00">extended_logLL_fit.inl</text>
</a>
</g>
</g>
<!-- Node49&#45;&gt;Node53 -->
<g id="edge6" class="edge"><title>Node49&#45;&gt;Node53</title>
<path fill="none" stroke="midnightblue" d="M1267.61,-134.62C1309.01,-125.62 1376.67,-110.877 1435,-98 1443.69,-96.0808 1453.04,-94.0043 1461.85,-92.0388"/>
<polygon fill="midnightblue" stroke="midnightblue" points="1266.7,-131.236 1257.67,-136.779 1268.18,-138.076 1266.7,-131.236"/>
</g>
<!-- Node56 -->
<g id="node10" class="node"><title>Node56</title>
<g id="a_node10"><a xlink:href="fractional__logLL__fit_8inl.html" target="_top" xlink:title="fractional_logLL_fit.inl">
<polygon fill="none" stroke="black" points="1573.5,-73 1573.5,-92 1684.5,-92 1684.5,-73 1573.5,-73"/>
<text text-anchor="middle" x="1629" y="-80" font-family="Helvetica,sans-Serif" font-size="10.00">fractional_logLL_fit.inl</text>
</a>
</g>
</g>
<!-- Node49&#45;&gt;Node56 -->
<g id="edge9" class="edge"><title>Node49&#45;&gt;Node56</title>
<path fill="none" stroke="midnightblue" d="M1267.59,-138.24C1343.06,-128.862 1507.72,-108.038 1564,-98 1573.56,-96.2946 1583.85,-94.1473 1593.35,-92.0315"/>
<polygon fill="midnightblue" stroke="midnightblue" points="1267.05,-134.781 1257.56,-139.485 1267.91,-141.727 1267.05,-134.781"/>
</g>
<!-- Node59 -->
<g id="node13" class="node"><title>Node59</title>
<g id="a_node13"><a xlink:href="multidimensional__fit_8inl.html" target="_top" xlink:title="multidimensional_fit.inl">
<polygon fill="none" stroke="black" points="1703,-73 1703,-92 1819,-92 1819,-73 1703,-73"/>
<text text-anchor="middle" x="1761" y="-80" font-family="Helvetica,sans-Serif" font-size="10.00">multidimensional_fit.inl</text>
</a>
</g>
</g>
<!-- Node49&#45;&gt;Node59 -->
<g id="edge12" class="edge"><title>Node49&#45;&gt;Node59</title>
<path fill="none" stroke="midnightblue" d="M1267.93,-138.198C1279.82,-136.783 1292.94,-135.273 1305,-134 1477.23,-115.815 1521.79,-124.104 1693,-98 1703.38,-96.4171 1714.56,-94.2354 1724.8,-92.0448"/>
<polygon fill="midnightblue" stroke="midnightblue" points="1267.36,-134.74 1257.85,-139.409 1268.2,-141.69 1267.36,-134.74"/>
</g>
<!-- Node62 -->
<g id="node16" class="node"><title>Node62</title>
<g id="a_node16"><a xlink:href="splot_8inl.html" target="_top" xlink:title="splot.inl">
<polygon fill="none" stroke="black" points="588,-73 588,-92 638,-92 638,-73 588,-73"/>
<text text-anchor="middle" x="613" y="-80" font-family="Helvetica,sans-Serif" font-size="10.00">splot.inl</text>
</a>
</g>
</g>
<!-- Node49&#45;&gt;Node62 -->
<g id="edge15" class="edge"><title>Node49&#45;&gt;Node62</title>
<path fill="none" stroke="midnightblue" d="M1190.14,-141.643C1077.21,-137.438 750.584,-123.364 647,-98 641.39,-96.6264 635.523,-94.4264 630.272,-92.151"/>
<polygon fill="midnightblue" stroke="midnightblue" points="1190.26,-145.149 1200.38,-142.019 1190.52,-138.154 1190.26,-145.149"/>
</g>
<!-- Node65 -->
<g id="node19" class="node"><title>Node65</title>
<g id="a_node19"><a xlink:href="breit__wigner__plus__polynomial_8inl.html" target="_top" xlink:title="breit_wigner_plus_polynomial.inl">
<polygon fill="none" stroke="black" points="1837.5,-73 1837.5,-92 1994.5,-92 1994.5,-73 1837.5,-73"/>
<text text-anchor="middle" x="1916" y="-80" font-family="Helvetica,sans-Serif" font-size="10.00">breit_wigner_plus_polynomial.inl</text>
</a>
</g>
</g>
<!-- Node49&#45;&gt;Node65 -->
<g id="edge18" class="edge"><title>Node49&#45;&gt;Node65</title>
<path fill="none" stroke="midnightblue" d="M1267.91,-138.019C1279.8,-136.598 1292.93,-135.13 1305,-134 1536.98,-112.293 1596.57,-124.97 1828,-98 1841.53,-96.4228 1856.16,-94.2165 1869.53,-92"/>
<polygon fill="midnightblue" stroke="midnightblue" points="1267.34,-134.563 1257.84,-139.247 1268.19,-141.512 1267.34,-134.563"/>
</g>
<!-- Node68 -->
<g id="node22" class="node"><title>Node68</title>
<g id="a_node22"><a xlink:href="crystal__ball__plus__exponential_8inl.html" target="_top" xlink:title="crystal_ball_plus_exponential.inl">
<polygon fill="none" stroke="black" points="656.5,-73 656.5,-92 813.5,-92 813.5,-73 656.5,-73"/>
<text text-anchor="middle" x="735" y="-80" font-family="Helvetica,sans-Serif" font-size="10.00">crystal_ball_plus_exponential.inl</text>
</a>
</g>
</g>
<!-- Node49&#45;&gt;Node68 -->
<g id="edge21" class="edge"><title>Node49&#45;&gt;Node68</title>
<path fill="none" stroke="midnightblue" d="M1190.38,-139.406C1118.11,-132.53 957.593,-116.534 823,-98 810.269,-96.2468 796.542,-94.1062 783.805,-92.0138"/>
<polygon fill="midnightblue" stroke="midnightblue" points="1190.1,-142.896 1200.39,-140.354 1190.76,-135.927 1190.1,-142.896"/>
</g>
<!-- Node71 -->
<g id="node25" class="node"><title>Node71</title>
<g id="a_node25"><a xlink:href="dalitz__plot_8inl.html" target="_top" xlink:title="dalitz_plot.inl">
<polygon fill="none" stroke="black" points="832,-73 832,-92 906,-92 906,-73 832,-73"/>
<text text-anchor="middle" x="869" y="-80" font-family="Helvetica,sans-Serif" font-size="10.00">dalitz_plot.inl</text>
</a>
</g>
</g>
<!-- Node49&#45;&gt;Node71 -->
<g id="edge24" class="edge"><title>Node49&#45;&gt;Node71</title>
<path fill="none" stroke="midnightblue" d="M1190.02,-139.477C1130.29,-133.617 1012.76,-120.258 915,-98 907.978,-96.4014 900.483,-94.2405 893.625,-92.0755"/>
<polygon fill="midnightblue" stroke="midnightblue" points="1189.85,-142.977 1200.14,-140.452 1190.52,-136.009 1189.85,-142.977"/>
</g>
<!-- Node74 -->
<g id="node28" class="node"><title>Node74</title>
<g id="a_node28"><a xlink:href="double__gaussian__plus__exponential_8inl.html" target="_top" xlink:title="double_gaussian_plus\l_exponential.inl">
<polygon fill="none" stroke="black" points="1037.5,-67.5 1037.5,-97.5 1150.5,-97.5 1150.5,-67.5 1037.5,-67.5"/>
<text text-anchor="start" x="1045.5" y="-85.5" font-family="Helvetica,sans-Serif" font-size="10.00">double_gaussian_plus</text>
<text text-anchor="middle" x="1094" y="-74.5" font-family="Helvetica,sans-Serif" font-size="10.00">_exponential.inl</text>
</a>
</g>
</g>
<!-- Node49&#45;&gt;Node74 -->
<g id="edge27" class="edge"><title>Node49&#45;&gt;Node74</title>
<path fill="none" stroke="midnightblue" d="M1200.25,-130.331C1178.41,-120.704 1148.38,-107.468 1125.82,-97.523"/>
<polygon fill="midnightblue" stroke="midnightblue" points="1199.1,-133.645 1209.66,-134.475 1201.92,-127.239 1199.1,-133.645"/>
</g>
<!-- Node77 -->
<g id="node31" class="node"><title>Node77</title>
<g id="a_node31"><a xlink:href="gaussian__plus__argus_8inl.html" target="_top" xlink:title="gaussian_plus_argus.inl">
<polygon fill="none" stroke="black" points="1168.5,-73 1168.5,-92 1289.5,-92 1289.5,-73 1168.5,-73"/>
<text text-anchor="middle" x="1229" y="-80" font-family="Helvetica,sans-Serif" font-size="10.00">gaussian_plus_argus.inl</text>
</a>
</g>
</g>
<!-- Node49&#45;&gt;Node77 -->
<g id="edge30" class="edge"><title>Node49&#45;&gt;Node77</title>
<path fill="none" stroke="midnightblue" d="M1229,-124.317C1229,-113.496 1229,-100.398 1229,-92.0091"/>
<polygon fill="midnightblue" stroke="midnightblue" points="1225.5,-124.475 1229,-134.475 1232.5,-124.475 1225.5,-124.475"/>
</g>
<!-- Node80 -->
<g id="node34" class="node"><title>Node80</title>
<g id="a_node34"><a xlink:href="fit__3d__gaussian_8C.html" target="_top" xlink:title="fit_3d_gaussian.C">
<polygon fill="none" stroke="black" points="924.5,-73 924.5,-92 1019.5,-92 1019.5,-73 924.5,-73"/>
<text text-anchor="middle" x="972" y="-80" font-family="Helvetica,sans-Serif" font-size="10.00">fit_3d_gaussian.C</text>
</a>
</g>
</g>
<!-- Node49&#45;&gt;Node80 -->
<g id="edge33" class="edge"><title>Node49&#45;&gt;Node80</title>
<path fill="none" stroke="midnightblue" d="M1190.31,-134.736C1149.77,-125.984 1084.28,-111.583 1028,-98 1020.29,-96.1387 1012,-94.0454 1004.23,-92.0404"/>
<polygon fill="midnightblue" stroke="midnightblue" points="1189.79,-138.205 1200.31,-136.889 1191.27,-131.362 1189.79,-138.205"/>
</g>
<!-- Node51 -->
<g id="node5" class="node"><title>Node51</title>
<g id="a_node5"><a xlink:href="binned__extended__logLL__fit_8cpp.html" target="_top" xlink:title="binned_extended_logLL\l_fit.cpp">
<polygon fill="none" stroke="black" points="1239.5,-0.5 1239.5,-30.5 1358.5,-30.5 1358.5,-0.5 1239.5,-0.5"/>
<text text-anchor="start" x="1247.5" y="-18.5" font-family="Helvetica,sans-Serif" font-size="10.00">binned_extended_logLL</text>
<text text-anchor="middle" x="1299" y="-7.5" font-family="Helvetica,sans-Serif" font-size="10.00">_fit.cpp</text>
</a>
</g>
</g>
<!-- Node50&#45;&gt;Node51 -->
<g id="edge4" class="edge"><title>Node50&#45;&gt;Node51</title>
<path fill="none" stroke="midnightblue" d="M1344.83,-60.3115C1334.63,-50.5612 1322.81,-39.259 1313.73,-30.5765"/>
<polygon fill="midnightblue" stroke="midnightblue" points="1342.6,-63.0162 1352.25,-67.396 1347.43,-57.9561 1342.6,-63.0162"/>
</g>
<!-- Node52 -->
<g id="node6" class="node"><title>Node52</title>
<g id="a_node6"><a xlink:href="binned__extended__logLL__fit_8cu.html" target="_top" xlink:title="binned_extended_logLL\l_fit.cu">
<polygon fill="none" stroke="black" points="1376.5,-0.5 1376.5,-30.5 1495.5,-30.5 1495.5,-0.5 1376.5,-0.5"/>
<text text-anchor="start" x="1384.5" y="-18.5" font-family="Helvetica,sans-Serif" font-size="10.00">binned_extended_logLL</text>
<text text-anchor="middle" x="1436" y="-7.5" font-family="Helvetica,sans-Serif" font-size="10.00">_fit.cu</text>
</a>
</g>
</g>
<!-- Node50&#45;&gt;Node52 -->
<g id="edge5" class="edge"><title>Node50&#45;&gt;Node52</title>
<path fill="none" stroke="midnightblue" d="M1389.49,-60.3115C1399.84,-50.5612 1411.84,-39.259 1421.06,-30.5765"/>
<polygon fill="midnightblue" stroke="midnightblue" points="1386.85,-57.9914 1381.97,-67.396 1391.65,-63.0866 1386.85,-57.9914"/>
</g>
<!-- Node54 -->
<g id="node8" class="node"><title>Node54</title>
<g id="a_node8"><a xlink:href="extended__logLL__fit_8cpp.html" target="_top" xlink:title="extended_logLL_fit.cpp">
<polygon fill="none" stroke="black" points="1513.5,-6 1513.5,-25 1630.5,-25 1630.5,-6 1513.5,-6"/>
<text text-anchor="middle" x="1572" y="-13" font-family="Helvetica,sans-Serif" font-size="10.00">extended_logLL_fit.cpp</text>
</a>
</g>
</g>
<!-- Node53&#45;&gt;Node54 -->
<g id="edge7" class="edge"><title>Node53&#45;&gt;Node54</title>
<path fill="none" stroke="midnightblue" d="M1517.33,-65.8564C1531.48,-53.0777 1550.96,-35.4915 1562.44,-25.1273"/>
<polygon fill="midnightblue" stroke="midnightblue" points="1514.79,-63.4348 1509.71,-72.7338 1519.48,-68.6307 1514.79,-63.4348"/>
</g>
<!-- Node55 -->
<g id="node9" class="node"><title>Node55</title>
<g id="a_node9"><a xlink:href="extended__logLL__fit_8cu.html" target="_top" xlink:title="extended_logLL_fit.cu">
<polygon fill="none" stroke="black" points="1649,-6 1649,-25 1761,-25 1761,-6 1649,-6"/>
<text text-anchor="middle" x="1705" y="-13" font-family="Helvetica,sans-Serif" font-size="10.00">extended_logLL_fit.cu</text>
</a>
</g>
</g>
<!-- Node53&#45;&gt;Node55 -->
<g id="edge8" class="edge"><title>Node53&#45;&gt;Node55</title>
<path fill="none" stroke="midnightblue" d="M1537.01,-69.7654C1577.63,-56.8862 1641.86,-36.5214 1677.99,-25.0637"/>
<polygon fill="midnightblue" stroke="midnightblue" points="1535.7,-66.5097 1527.22,-72.8685 1537.81,-73.1823 1535.7,-66.5097"/>
</g>
<!-- Node57 -->
<g id="node11" class="node"><title>Node57</title>
<g id="a_node11"><a xlink:href="fractional__logLL__fit_8cpp.html" target="_top" xlink:title="fractional_logLL_fit.cpp">
<polygon fill="none" stroke="black" points="1779.5,-6 1779.5,-25 1896.5,-25 1896.5,-6 1779.5,-6"/>
<text text-anchor="middle" x="1838" y="-13" font-family="Helvetica,sans-Serif" font-size="10.00">fractional_logLL_fit.cpp</text>
</a>
</g>
</g>
<!-- Node56&#45;&gt;Node57 -->
<g id="edge10" class="edge"><title>Node56&#45;&gt;Node57</title>
<path fill="none" stroke="midnightblue" d="M1666.47,-69.8471C1707.87,-56.9725 1773.55,-36.5456 1810.46,-25.0637"/>
<polygon fill="midnightblue" stroke="midnightblue" points="1665.26,-66.5566 1656.75,-72.8685 1667.34,-73.2408 1665.26,-66.5566"/>
</g>
<!-- Node58 -->
<g id="node12" class="node"><title>Node58</title>
<g id="a_node12"><a xlink:href="fractional__logLL__fit_8cu.html" target="_top" xlink:title="fractional_logLL_fit.cu">
<polygon fill="none" stroke="black" points="1915,-6 1915,-25 2027,-25 2027,-6 1915,-6"/>
<text text-anchor="middle" x="1971" y="-13" font-family="Helvetica,sans-Serif" font-size="10.00">fractional_logLL_fit.cu</text>
</a>
</g>
</g>
<!-- Node56&#45;&gt;Node58 -->
<g id="edge11" class="edge"><title>Node56&#45;&gt;Node58</title>
<path fill="none" stroke="midnightblue" d="M1675.84,-70.7542C1681.94,-69.4424 1688.11,-68.158 1694,-67 1787.34,-48.6377 1811.63,-49.2119 1905,-31 1914.33,-29.1809 1924.36,-27.0613 1933.72,-25.0134"/>
<polygon fill="midnightblue" stroke="midnightblue" points="1674.73,-67.4141 1665.71,-72.9705 1676.23,-74.2524 1674.73,-67.4141"/>
</g>
<!-- Node60 -->
<g id="node14" class="node"><title>Node60</title>
<g id="a_node14"><a xlink:href="multidimensional__fit_8cpp.html" target="_top" xlink:title="multidimensional_fit.cpp">
<polygon fill="none" stroke="black" points="2045,-6 2045,-25 2167,-25 2167,-6 2045,-6"/>
<text text-anchor="middle" x="2106" y="-13" font-family="Helvetica,sans-Serif" font-size="10.00">multidimensional_fit.cpp</text>
</a>
</g>
</g>
<!-- Node59&#45;&gt;Node60 -->
<g id="edge13" class="edge"><title>Node59&#45;&gt;Node60</title>
<path fill="none" stroke="midnightblue" d="M1809.08,-70.8425C1815.43,-69.5079 1821.87,-68.1939 1828,-67 1920.09,-49.0738 1943.83,-48.5173 2036,-31 2045.75,-29.1462 2056.25,-27.035 2066.07,-25.0083"/>
<polygon fill="midnightblue" stroke="midnightblue" points="1808.26,-67.4375 1799.21,-72.9426 1809.72,-74.2841 1808.26,-67.4375"/>
</g>
<!-- Node61 -->
<g id="node15" class="node"><title>Node61</title>
<g id="a_node15"><a xlink:href="multidimensional__fit_8cu.html" target="_top" xlink:title="multidimensional_fit.cu">
<polygon fill="none" stroke="black" points="2185,-6 2185,-25 2301,-25 2301,-6 2185,-6"/>
<text text-anchor="middle" x="2243" y="-13" font-family="Helvetica,sans-Serif" font-size="10.00">multidimensional_fit.cu</text>
</a>
</g>
</g>
<!-- Node59&#45;&gt;Node61 -->
<g id="edge14" class="edge"><title>Node59&#45;&gt;Node61</title>
<path fill="none" stroke="midnightblue" d="M1807.09,-70.83C1814.07,-69.4154 1821.21,-68.0827 1828,-67 1981.55,-42.518 2022.45,-55.482 2176,-31 2186.11,-29.3885 2196.99,-27.2234 2206.97,-25.0584"/>
<polygon fill="midnightblue" stroke="midnightblue" points="1806.09,-67.4623 1797.03,-72.9416 1807.53,-74.313 1806.09,-67.4623"/>
</g>
<!-- Node63 -->
<g id="node17" class="node"><title>Node63</title>
<g id="a_node17"><a xlink:href="splot_8cpp.html" target="_top" xlink:title="splot.cpp">
<polygon fill="none" stroke="black" points="0,-6 0,-25 56,-25 56,-6 0,-6"/>
<text text-anchor="middle" x="28" y="-13" font-family="Helvetica,sans-Serif" font-size="10.00">splot.cpp</text>
</a>
</g>
</g>
<!-- Node62&#45;&gt;Node63 -->
<g id="edge16" class="edge"><title>Node62&#45;&gt;Node63</title>
<path fill="none" stroke="midnightblue" d="M577.508,-81.6577C489.459,-81.3139 254.422,-75.8908 65,-31 58.958,-29.5681 52.5912,-27.3509 46.8748,-25.0775"/>
<polygon fill="midnightblue" stroke="midnightblue" points="577.738,-85.158 587.745,-81.6767 577.751,-78.158 577.738,-85.158"/>
</g>
<!-- Node64 -->
<g id="node18" class="node"><title>Node64</title>
<g id="a_node18"><a xlink:href="splot_8cu.html" target="_top" xlink:title="splot.cu">
<polygon fill="none" stroke="black" points="74.5,-6 74.5,-25 125.5,-25 125.5,-6 74.5,-6"/>
<text text-anchor="middle" x="100" y="-13" font-family="Helvetica,sans-Serif" font-size="10.00">splot.cu</text>
</a>
</g>
</g>
<!-- Node62&#45;&gt;Node64 -->
<g id="edge17" class="edge"><title>Node62&#45;&gt;Node64</title>
<path fill="none" stroke="midnightblue" d="M577.814,-81.3466C497.698,-80.2323 296.081,-73.091 134,-31 128.41,-29.5483 122.548,-27.3252 117.297,-25.0525"/>
<polygon fill="midnightblue" stroke="midnightblue" points="577.816,-84.8468 587.856,-81.4629 577.897,-77.8472 577.816,-84.8468"/>
</g>
<!-- Node66 -->
<g id="node20" class="node"><title>Node66</title>
<g id="a_node20"><a xlink:href="breit__wigner__plus__polynomial_8cpp.html" target="_top" xlink:title="breit_wigner_plus_polynomial.cpp">
<polygon fill="none" stroke="black" points="2319.5,-6 2319.5,-25 2482.5,-25 2482.5,-6 2319.5,-6"/>
<text text-anchor="middle" x="2401" y="-13" font-family="Helvetica,sans-Serif" font-size="10.00">breit_wigner_plus_polynomial.cpp</text>
</a>
</g>
</g>
<!-- Node65&#45;&gt;Node66 -->
<g id="edge19" class="edge"><title>Node65&#45;&gt;Node66</title>
<path fill="none" stroke="midnightblue" d="M1975.18,-71.3644C1984.8,-69.8271 1994.67,-68.3169 2004,-67 2139.59,-47.8632 2174.36,-49.7779 2310,-31 2322.84,-29.2231 2336.66,-27.119 2349.56,-25.0726"/>
<polygon fill="midnightblue" stroke="midnightblue" points="1974.59,-67.9149 1965.27,-72.9691 1975.7,-74.8248 1974.59,-67.9149"/>
</g>
<!-- Node67 -->
<g id="node21" class="node"><title>Node67</title>
<g id="a_node21"><a xlink:href="breit__wigner__plus__polynomial_8cu.html" target="_top" xlink:title="breit_wigner_plus_polynomial.cu">
<polygon fill="none" stroke="black" points="2501,-6 2501,-25 2659,-25 2659,-6 2501,-6"/>
<text text-anchor="middle" x="2580" y="-13" font-family="Helvetica,sans-Serif" font-size="10.00">breit_wigner_plus_polynomial.cu</text>
</a>
</g>
</g>
<!-- Node65&#45;&gt;Node67 -->
<g id="edge20" class="edge"><title>Node65&#45;&gt;Node67</title>
<path fill="none" stroke="midnightblue" d="M1973.05,-71.336C1983.33,-69.7227 1993.97,-68.1949 2004,-67 2219.51,-41.3315 2275.47,-56.4742 2491,-31 2504.53,-29.4014 2519.14,-27.2147 2532.53,-25.0242"/>
<polygon fill="midnightblue" stroke="midnightblue" points="1972.24,-67.9212 1962.93,-72.9687 1973.36,-74.8319 1972.24,-67.9212"/>
</g>
<!-- Node69 -->
<g id="node23" class="node"><title>Node69</title>
<g id="a_node23"><a xlink:href="crystal__ball__plus__exponential_8cpp.html" target="_top" xlink:title="crystal_ball_plus_exponential.cpp">
<polygon fill="none" stroke="black" points="143.5,-6 143.5,-25 306.5,-25 306.5,-6 143.5,-6"/>
<text text-anchor="middle" x="225" y="-13" font-family="Helvetica,sans-Serif" font-size="10.00">crystal_ball_plus_exponential.cpp</text>
</a>
</g>
</g>
<!-- Node68&#45;&gt;Node69 -->
<g id="edge22" class="edge"><title>Node68&#45;&gt;Node69</title>
<path fill="none" stroke="midnightblue" d="M676.183,-71.3489C666.448,-69.8011 656.45,-68.2915 647,-67 500.384,-46.9632 462.668,-50.6487 316,-31 302.839,-29.2369 288.647,-27.0929 275.475,-25.0002"/>
<polygon fill="midnightblue" stroke="midnightblue" points="675.767,-74.8272 686.198,-72.9683 676.885,-67.9169 675.767,-74.8272"/>
</g>
<!-- Node70 -->
<g id="node24" class="node"><title>Node70</title>
<g id="a_node24"><a xlink:href="crystal__ball__plus__exponential_8cu.html" target="_top" xlink:title="crystal_ball_plus_exponential.cu">
<polygon fill="none" stroke="black" points="325,-6 325,-25 483,-25 483,-6 325,-6"/>
<text text-anchor="middle" x="404" y="-13" font-family="Helvetica,sans-Serif" font-size="10.00">crystal_ball_plus_exponential.cu</text>
</a>
</g>
</g>
<!-- Node68&#45;&gt;Node70 -->
<g id="edge23" class="edge"><title>Node68&#45;&gt;Node70</title>
<path fill="none" stroke="midnightblue" d="M681.318,-70.9583C616.171,-58.1649 507.595,-36.8434 447.446,-25.0317"/>
<polygon fill="midnightblue" stroke="midnightblue" points="680.9,-74.4429 691.387,-72.9355 682.249,-67.5741 680.9,-74.4429"/>
</g>
<!-- Node72 -->
<g id="node26" class="node"><title>Node72</title>
<g id="a_node26"><a xlink:href="dalitz__plot_8cpp.html" target="_top" xlink:title="dalitz_plot.cpp">
<polygon fill="none" stroke="black" points="501,-6 501,-25 581,-25 581,-6 501,-6"/>
<text text-anchor="middle" x="541" y="-13" font-family="Helvetica,sans-Serif" font-size="10.00">dalitz_plot.cpp</text>
</a>
</g>
</g>
<!-- Node71&#45;&gt;Node72 -->
<g id="edge25" class="edge"><title>Node71&#45;&gt;Node72</title>
<path fill="none" stroke="midnightblue" d="M833.999,-70.092C829.975,-68.9624 825.913,-67.9023 822,-67 720.322,-43.5577 691.811,-53.8553 590,-31 582.642,-29.3483 574.769,-27.1949 567.533,-25.055"/>
<polygon fill="midnightblue" stroke="midnightblue" points="833.234,-73.5154 843.816,-72.9924 835.217,-66.8023 833.234,-73.5154"/>
</g>
<!-- Node73 -->
<g id="node27" class="node"><title>Node73</title>
<g id="a_node27"><a xlink:href="dalitz__plot_8cu.html" target="_top" xlink:title="dalitz_plot.cu">
<polygon fill="none" stroke="black" points="599,-6 599,-25 673,-25 673,-6 599,-6"/>
<text text-anchor="middle" x="636" y="-13" font-family="Helvetica,sans-Serif" font-size="10.00">dalitz_plot.cu</text>
</a>
</g>
</g>
<!-- Node71&#45;&gt;Node73 -->
<g id="edge26" class="edge"><title>Node71&#45;&gt;Node73</title>
<path fill="none" stroke="midnightblue" d="M832.423,-70.0307C828.907,-68.9839 825.39,-67.9581 822,-67 760.176,-49.5251 743.771,-48.6637 682,-31 675.559,-29.1583 668.652,-27.0516 662.198,-25.0254"/>
<polygon fill="midnightblue" stroke="midnightblue" points="831.637,-73.4495 842.222,-72.9978 833.666,-66.7499 831.637,-73.4495"/>
</g>
<!-- Node75 -->
<g id="node29" class="node"><title>Node75</title>
<g id="a_node29"><a xlink:href="double__gaussian__plus__exponential_8cpp.html" target="_top" xlink:title="double_gaussian_plus\l_exponential.cpp">
<polygon fill="none" stroke="black" points="691.5,-0.5 691.5,-30.5 804.5,-30.5 804.5,-0.5 691.5,-0.5"/>
<text text-anchor="start" x="699.5" y="-18.5" font-family="Helvetica,sans-Serif" font-size="10.00">double_gaussian_plus</text>
<text text-anchor="middle" x="748" y="-7.5" font-family="Helvetica,sans-Serif" font-size="10.00">_exponential.cpp</text>
</a>
</g>
</g>
<!-- Node74&#45;&gt;Node75 -->
<g id="edge28" class="edge"><title>Node74&#45;&gt;Node75</title>
<path fill="none" stroke="midnightblue" d="M1027.32,-66.9307C931.207,-48.6406 905.028,-48.956 813,-31 810.276,-30.4686 807.492,-29.9094 804.683,-29.3323"/>
<polygon fill="midnightblue" stroke="midnightblue" points="1026.68,-70.3713 1037.16,-68.8211 1028,-63.4971 1026.68,-70.3713"/>
</g>
<!-- Node76 -->
<g id="node30" class="node"><title>Node76</title>
<g id="a_node30"><a xlink:href="double__gaussian__plus__exponential_8cu.html" target="_top" xlink:title="double_gaussian_plus\l_exponential.cu">
<polygon fill="none" stroke="black" points="822.5,-0.5 822.5,-30.5 935.5,-30.5 935.5,-0.5 822.5,-0.5"/>
<text text-anchor="start" x="830.5" y="-18.5" font-family="Helvetica,sans-Serif" font-size="10.00">double_gaussian_plus</text>
<text text-anchor="middle" x="879" y="-7.5" font-family="Helvetica,sans-Serif" font-size="10.00">_exponential.cu</text>
</a>
</g>
</g>
<!-- Node74&#45;&gt;Node76 -->
<g id="edge29" class="edge"><title>Node74&#45;&gt;Node76</title>
<path fill="none" stroke="midnightblue" d="M1038.03,-64.5797C1003.11,-54.0225 958.689,-40.5921 925.675,-30.6109"/>
<polygon fill="midnightblue" stroke="midnightblue" points="1037.03,-67.9323 1047.61,-67.476 1039.05,-61.2318 1037.03,-67.9323"/>
</g>
<!-- Node78 -->
<g id="node32" class="node"><title>Node78</title>
<g id="a_node32"><a xlink:href="gaussian__plus__argus_8cpp.html" target="_top" xlink:title="gaussian_plus_argus.cpp">
<polygon fill="none" stroke="black" points="953.5,-6 953.5,-25 1080.5,-25 1080.5,-6 953.5,-6"/>
<text text-anchor="middle" x="1017" y="-13" font-family="Helvetica,sans-Serif" font-size="10.00">gaussian_plus_argus.cpp</text>
</a>
</g>
</g>
<!-- Node77&#45;&gt;Node78 -->
<g id="edge31" class="edge"><title>Node77&#45;&gt;Node78</title>
<path fill="none" stroke="midnightblue" d="M1191.26,-69.9287C1149.28,-57.0589 1082.46,-36.5699 1044.93,-25.0637"/>
<polygon fill="midnightblue" stroke="midnightblue" points="1190.26,-73.2833 1200.85,-72.8685 1192.31,-66.5908 1190.26,-73.2833"/>
</g>
<!-- Node79 -->
<g id="node33" class="node"><title>Node79</title>
<g id="a_node33"><a xlink:href="gaussian__plus__argus_8cu.html" target="_top" xlink:title="gaussian_plus_argus.cu">
<polygon fill="none" stroke="black" points="1099,-6 1099,-25 1221,-25 1221,-6 1099,-6"/>
<text text-anchor="middle" x="1160" y="-13" font-family="Helvetica,sans-Serif" font-size="10.00">gaussian_plus_argus.cu</text>
</a>
</g>
</g>
<!-- Node77&#45;&gt;Node79 -->
<g id="edge32" class="edge"><title>Node77&#45;&gt;Node79</title>
<path fill="none" stroke="midnightblue" d="M1212.39,-65.8564C1198.83,-53.0777 1180.16,-35.4915 1169.16,-25.1273"/>
<polygon fill="midnightblue" stroke="midnightblue" points="1210.02,-68.4245 1219.69,-72.7338 1214.82,-63.3292 1210.02,-68.4245"/>
</g>
<!-- Node81&#45;&gt;Node82 -->
<g id="edge35" class="edge"><title>Node81&#45;&gt;Node82</title>
<path fill="none" stroke="midnightblue" d="M1272.01,-186.368C1295.23,-176.255 1327.16,-162.349 1347.44,-153.516"/>
<polygon fill="midnightblue" stroke="midnightblue" points="1270.42,-183.242 1262.65,-190.444 1273.21,-189.66 1270.42,-183.242"/>
</g>
<!-- Node82&#45;&gt;Node50 -->
<g id="edge39" class="edge"><title>Node82&#45;&gt;Node50</title>
<path fill="none" stroke="midnightblue" d="M1367,-124.235C1367,-115.586 1367,-105.497 1367,-97.523"/>
<polygon fill="midnightblue" stroke="midnightblue" points="1363.5,-124.475 1367,-134.475 1370.5,-124.475 1363.5,-124.475"/>
</g>
<!-- Node82&#45;&gt;Node53 -->
<g id="edge40" class="edge"><title>Node82&#45;&gt;Node53</title>
<path fill="none" stroke="midnightblue" d="M1395.33,-130.327C1421.15,-118.776 1458.58,-102.032 1480.98,-92.0091"/>
<polygon fill="midnightblue" stroke="midnightblue" points="1393.75,-127.197 1386.06,-134.475 1396.61,-133.586 1393.75,-127.197"/>
</g>
<!-- Node82&#45;&gt;Node56 -->
<g id="edge41" class="edge"><title>Node82&#45;&gt;Node56</title>
<path fill="none" stroke="midnightblue" d="M1414.3,-132.258C1465.12,-120.716 1544.87,-102.606 1591.53,-92.0091"/>
<polygon fill="midnightblue" stroke="midnightblue" points="1413.51,-128.847 1404.54,-134.475 1415.07,-135.674 1413.51,-128.847"/>
</g>
<!-- Node82&#45;&gt;Node59 -->
<g id="edge42" class="edge"><title>Node82&#45;&gt;Node59</title>
<path fill="none" stroke="midnightblue" d="M1429.9,-135.698C1495.71,-127.736 1601.92,-113.974 1693,-98 1702.87,-96.2692 1713.49,-94.1364 1723.33,-92.0444"/>
<polygon fill="midnightblue" stroke="midnightblue" points="1429.2,-132.257 1419.69,-136.926 1430.04,-139.207 1429.2,-132.257"/>
</g>
<!-- Node82&#45;&gt;Node62 -->
<g id="edge46" class="edge"><title>Node82&#45;&gt;Node62</title>
<path fill="none" stroke="midnightblue" d="M1304.32,-137.113C1291.64,-136.007 1278.4,-134.913 1266,-134 991.168,-113.768 915.281,-160.987 647,-98 641.252,-96.6506 635.245,-94.3984 629.906,-92.0666"/>
<polygon fill="midnightblue" stroke="midnightblue" points="1304.07,-140.604 1314.34,-137.999 1304.69,-133.631 1304.07,-140.604"/>
</g>
<!-- Node82&#45;&gt;Node65 -->
<g id="edge47" class="edge"><title>Node82&#45;&gt;Node65</title>
<path fill="none" stroke="midnightblue" d="M1429.85,-138.187C1518.73,-131.082 1686.11,-116.594 1828,-98 1840.9,-96.31 1854.8,-94.1679 1867.67,-92.0523"/>
<polygon fill="midnightblue" stroke="midnightblue" points="1429.36,-134.715 1419.67,-138.997 1429.92,-141.693 1429.36,-134.715"/>
</g>
<!-- Node82&#45;&gt;Node68 -->
<g id="edge48" class="edge"><title>Node82&#45;&gt;Node68</title>
<path fill="none" stroke="midnightblue" d="M1304.3,-137.337C1291.63,-136.213 1278.39,-135.055 1266,-134 1069.17,-117.233 1019.06,-122.078 823,-98 809.783,-96.3769 795.515,-94.2079 782.394,-92.043"/>
<polygon fill="midnightblue" stroke="midnightblue" points="1304.05,-140.828 1314.33,-138.228 1304.67,-133.856 1304.05,-140.828"/>
</g>
<!-- Node82&#45;&gt;Node71 -->
<g id="edge49" class="edge"><title>Node82&#45;&gt;Node71</title>
<path fill="none" stroke="midnightblue" d="M1304.22,-137.095C1184.51,-125.786 933.766,-101.849 915,-98 907.782,-96.5195 900.09,-94.3435 893.104,-92.125"/>
<polygon fill="midnightblue" stroke="midnightblue" points="1304.06,-140.595 1314.35,-138.051 1304.72,-133.626 1304.06,-140.595"/>
</g>
<!-- Node82&#45;&gt;Node74 -->
<g id="edge50" class="edge"><title>Node82&#45;&gt;Node74</title>
<path fill="none" stroke="midnightblue" d="M1317.1,-132.299C1274.96,-123.237 1213.01,-109.866 1159,-98 1156.29,-97.4045 1153.52,-96.7933 1150.72,-96.1744"/>
<polygon fill="midnightblue" stroke="midnightblue" points="1316.6,-135.77 1327.11,-134.449 1318.07,-128.926 1316.6,-135.77"/>
</g>
<!-- Node82&#45;&gt;Node77 -->
<g id="edge51" class="edge"><title>Node82&#45;&gt;Node77</title>
<path fill="none" stroke="midnightblue" d="M1337.96,-130.48C1311.16,-118.924 1272.08,-102.076 1248.74,-92.0091"/>
<polygon fill="midnightblue" stroke="midnightblue" points="1336.66,-133.73 1347.23,-134.475 1339.43,-127.302 1336.66,-133.73"/>
</g>
<!-- Node82&#45;&gt;Node80 -->
<g id="edge52" class="edge"><title>Node82&#45;&gt;Node80</title>
<path fill="none" stroke="midnightblue" d="M1304.25,-136.975C1235.92,-129.881 1123.61,-116.653 1028,-98 1019.52,-96.3462 1010.42,-94.1672 1002.07,-92.0025"/>
<polygon fill="midnightblue" stroke="midnightblue" points="1304.11,-140.48 1314.41,-138.02 1304.82,-133.516 1304.11,-140.48"/>
</g>
<!-- Node83 -->
<g id="node37" class="node"><title>Node83</title>
<g id="a_node37"><a xlink:href="basic__fit_8inl.html" target="_top" xlink:title="basic_fit.inl">
<polygon fill="none" stroke="black" points="2680,-73 2680,-92 2746,-92 2746,-73 2680,-73"/>
<text text-anchor="middle" x="2713" y="-80" font-family="Helvetica,sans-Serif" font-size="10.00">basic_fit.inl</text>
</a>
</g>
</g>
<!-- Node82&#45;&gt;Node83 -->
<g id="edge36" class="edge"><title>Node82&#45;&gt;Node83</title>
<path fill="none" stroke="midnightblue" d="M1429.94,-140.218C1667.11,-129.734 2502.31,-92.8134 2679.72,-84.9712"/>
<polygon fill="midnightblue" stroke="midnightblue" points="1429.6,-136.729 1419.76,-140.668 1429.91,-143.722 1429.6,-136.729"/>
</g>
<!-- Node86 -->
<g id="node40" class="node"><title>Node86</title>
<g id="a_node40"><a xlink:href="phsp__unweighting__functor__and__fit_8inl.html" target="_top" xlink:title="phsp_unweighting_functor\l_and_fit.inl">
<polygon fill="none" stroke="black" points="2853,-67.5 2853,-97.5 2983,-97.5 2983,-67.5 2853,-67.5"/>
<text text-anchor="start" x="2861" y="-85.5" font-family="Helvetica,sans-Serif" font-size="10.00">phsp_unweighting_functor</text>
<text text-anchor="middle" x="2918" y="-74.5" font-family="Helvetica,sans-Serif" font-size="10.00">_and_fit.inl</text>
</a>
</g>
</g>
<!-- Node82&#45;&gt;Node86 -->
<g id="edge43" class="edge"><title>Node82&#45;&gt;Node86</title>
<path fill="none" stroke="midnightblue" d="M1429.79,-142.223C1625.85,-139.528 2244.02,-128.986 2755,-98 2787.19,-96.0482 2822.87,-92.9768 2852.63,-90.1624"/>
<polygon fill="midnightblue" stroke="midnightblue" points="1429.63,-138.725 1419.68,-142.36 1429.72,-145.724 1429.63,-138.725"/>
</g>
<!-- Node89 -->
<g id="node43" class="node"><title>Node89</title>
<g id="a_node43"><a xlink:href="fit__gaussian_8C.html" target="_top" xlink:title="fit_gaussian.C">
<polygon fill="none" stroke="black" points="2013,-73 2013,-92 2093,-92 2093,-73 2013,-73"/>
<text text-anchor="middle" x="2053" y="-80" font-family="Helvetica,sans-Serif" font-size="10.00">fit_gaussian.C</text>
</a>
</g>
</g>
<!-- Node82&#45;&gt;Node89 -->
<g id="edge53" class="edge"><title>Node82&#45;&gt;Node89</title>
<path fill="none" stroke="midnightblue" d="M1429.83,-142.939C1544.59,-141.86 1795.4,-135.015 2003,-98 2011.1,-96.5563 2019.76,-94.3068 2027.55,-92.0067"/>
<polygon fill="midnightblue" stroke="midnightblue" points="1429.79,-139.439 1419.82,-143.022 1429.84,-146.439 1429.79,-139.439"/>
</g>
<!-- Node84 -->
<g id="node38" class="node"><title>Node84</title>
<g id="a_node38"><a xlink:href="basic__fit_8cpp.html" target="_top" xlink:title="basic_fit.cpp">
<polygon fill="none" stroke="black" points="2677,-6 2677,-25 2749,-25 2749,-6 2677,-6"/>
<text text-anchor="middle" x="2713" y="-13" font-family="Helvetica,sans-Serif" font-size="10.00">basic_fit.cpp</text>
</a>
</g>
</g>
<!-- Node83&#45;&gt;Node84 -->
<g id="edge37" class="edge"><title>Node83&#45;&gt;Node84</title>
<path fill="none" stroke="midnightblue" d="M2713,-62.537C2713,-50.1703 2713,-34.6198 2713,-25.1273"/>
<polygon fill="midnightblue" stroke="midnightblue" points="2709.5,-62.7338 2713,-72.7338 2716.5,-62.7338 2709.5,-62.7338"/>
</g>
<!-- Node85 -->
<g id="node39" class="node"><title>Node85</title>
<g id="a_node39"><a xlink:href="basic__fit_8cu.html" target="_top" xlink:title="basic_fit.cu">
<polygon fill="none" stroke="black" points="2767.5,-6 2767.5,-25 2834.5,-25 2834.5,-6 2767.5,-6"/>
<text text-anchor="middle" x="2801" y="-13" font-family="Helvetica,sans-Serif" font-size="10.00">basic_fit.cu</text>
</a>
</g>
</g>
<!-- Node83&#45;&gt;Node85 -->
<g id="edge38" class="edge"><title>Node83&#45;&gt;Node85</title>
<path fill="none" stroke="midnightblue" d="M2733.22,-66.5678C2750.59,-53.7376 2775.03,-35.6853 2789.32,-25.1273"/>
<polygon fill="midnightblue" stroke="midnightblue" points="2730.83,-63.9771 2724.87,-72.7338 2734.99,-69.6077 2730.83,-63.9771"/>
</g>
<!-- Node87 -->
<g id="node41" class="node"><title>Node87</title>
<g id="a_node41"><a xlink:href="phsp__unweighting__functor__and__fit_8cpp.html" target="_top" xlink:title="phsp_unweighting_functor\l_and_fit.cpp">
<polygon fill="none" stroke="black" points="2853,-0.5 2853,-30.5 2983,-30.5 2983,-0.5 2853,-0.5"/>
<text text-anchor="start" x="2861" y="-18.5" font-family="Helvetica,sans-Serif" font-size="10.00">phsp_unweighting_functor</text>
<text text-anchor="middle" x="2918" y="-7.5" font-family="Helvetica,sans-Serif" font-size="10.00">_and_fit.cpp</text>
</a>
</g>
</g>
<!-- Node86&#45;&gt;Node87 -->
<g id="edge44" class="edge"><title>Node86&#45;&gt;Node87</title>
<path fill="none" stroke="midnightblue" d="M2918,-57.1081C2918,-48.1539 2918,-38.3227 2918,-30.5765"/>
<polygon fill="midnightblue" stroke="midnightblue" points="2914.5,-57.3959 2918,-67.396 2921.5,-57.396 2914.5,-57.3959"/>
</g>
<!-- Node88 -->
<g id="node42" class="node"><title>Node88</title>
<g id="a_node42"><a xlink:href="phsp__unweighting__functor__and__fit_8cu.html" target="_top" xlink:title="phsp_unweighting_functor\l_and_fit.cu">
<polygon fill="none" stroke="black" points="3001,-0.5 3001,-30.5 3131,-30.5 3131,-0.5 3001,-0.5"/>
<text text-anchor="start" x="3009" y="-18.5" font-family="Helvetica,sans-Serif" font-size="10.00">phsp_unweighting_functor</text>
<text text-anchor="middle" x="3066" y="-7.5" font-family="Helvetica,sans-Serif" font-size="10.00">_and_fit.cu</text>
</a>
</g>
</g>
<!-- Node86&#45;&gt;Node88 -->
<g id="edge45" class="edge"><title>Node86&#45;&gt;Node88</title>
<path fill="none" stroke="midnightblue" d="M2959.51,-63.2687C2983.08,-52.9159 3012.14,-40.1528 3033.95,-30.5765"/>
<polygon fill="midnightblue" stroke="midnightblue" points="2957.86,-60.1702 2950.11,-67.396 2960.68,-66.5793 2957.86,-60.1702"/>
</g>
<!-- Node90&#45;&gt;Node62 -->
<g id="edge56" class="edge"><title>Node90&#45;&gt;Node62</title>
<path fill="none" stroke="midnightblue" d="M704.174,-129.867C681.499,-118.335 649.18,-101.899 629.732,-92.0091"/>
<polygon fill="midnightblue" stroke="midnightblue" points="702.737,-133.062 713.237,-134.475 705.91,-126.822 702.737,-133.062"/>
</g>
<!-- Node91&#45;&gt;Node49 -->
<g id="edge58" class="edge"><title>Node91&#45;&gt;Node49</title>
<path fill="none" stroke="midnightblue" d="M1340.5,-237.323C1333.83,-223.198 1322.97,-203.584 1309,-190 1292.21,-173.67 1268.32,-161.256 1251.03,-153.646"/>
<polygon fill="midnightblue" stroke="midnightblue" points="1337.32,-238.78 1344.6,-246.473 1343.7,-235.916 1337.32,-238.78"/>
</g>
<!-- Node91&#45;&gt;Node82 -->
<g id="edge61" class="edge"><title>Node91&#45;&gt;Node82</title>
<path fill="none" stroke="midnightblue" d="M1351.22,-236.348C1355.38,-212.254 1362.46,-171.308 1365.52,-153.591"/>
<polygon fill="midnightblue" stroke="midnightblue" points="1347.74,-235.919 1349.49,-246.368 1354.64,-237.11 1347.74,-235.919"/>
</g>
<!-- Node92 -->
<g id="node46" class="node"><title>Node92</title>
<g id="a_node46"><a xlink:href="LogLikelihoodFCN3_8inl.html" target="_top" xlink:title="LogLikelihoodFCN3.inl">
<polygon fill="none" stroke="black" points="1395.5,-190.5 1395.5,-209.5 1510.5,-209.5 1510.5,-190.5 1395.5,-190.5"/>
<text text-anchor="middle" x="1453" y="-197.5" font-family="Helvetica,sans-Serif" font-size="10.00">LogLikelihoodFCN3.inl</text>
</a>
</g>
</g>
<!-- Node91&#45;&gt;Node92 -->
<g id="edge59" class="edge"><title>Node91&#45;&gt;Node92</title>
<path fill="none" stroke="midnightblue" d="M1373.81,-241.726C1393.25,-231.727 1419.35,-218.307 1436.17,-209.655"/>
<polygon fill="midnightblue" stroke="midnightblue" points="1372.16,-238.638 1364.87,-246.324 1375.36,-244.863 1372.16,-238.638"/>
</g>
<!-- Node92&#45;&gt;Node82 -->
<g id="edge60" class="edge"><title>Node92&#45;&gt;Node82</title>
<path fill="none" stroke="midnightblue" d="M1430.55,-184.901C1414.78,-174.999 1394.19,-162.071 1380.78,-153.655"/>
<polygon fill="midnightblue" stroke="midnightblue" points="1428.85,-187.97 1439.18,-190.324 1432.57,-182.042 1428.85,-187.97"/>
</g>
</g>
</svg>
        <g id="navigator" transform="translate(0 0)" fill="#404254">
                <rect fill="#f2f5e9" fill-opacity="0.5" stroke="#606060" stroke-width=".5" x="0" y="0" width="60" height="60"/>
                <use id="zoomplus" xlink:href="#zoomPlus" x="17" y="9" onmousedown="handleZoom(evt,'in')"/>
                <use id="zoomminus" xlink:href="#zoomMin" x="42" y="9" onmousedown="handleZoom(evt,'out')"/>
                <use id="reset" xlink:href="#resetDef" x="30" y="36" onmousedown="handleReset()"/>
                <g id="arrowUp" xlink:href="#dirArrow" transform="translate(30 24)" onmousedown="handlePan(0,-1)">
                  <use xlink:href="#rim" fill="#404040">
                        <set attributeName="fill" to="#808080" begin="arrowUp.mouseover" end="arrowUp.mouseout"/>
                  </use>
                  <path fill="none" stroke="white" stroke-width="1.5" d="M0,-3.0v7 M-2.5,-0.5L0,-3.0L2.5,-0.5"/>
                </g>
                <g id="arrowRight" xlink:href="#dirArrow" transform="rotate(90) translate(36 -43)" onmousedown="handlePan(1,0)">
                  <use xlink:href="#rim" fill="#404040">
                        <set attributeName="fill" to="#808080" begin="arrowRight.mouseover" end="arrowRight.mouseout"/>
                  </use>
                  <path fill="none" stroke="white" stroke-width="1.5" d="M0,-3.0v7 M-2.5,-0.5L0,-3.0L2.5,-0.5"/>
                </g>
                <g id="arrowDown" xlink:href="#dirArrow" transform="rotate(180) translate(-30 -48)" onmousedown="handlePan(0,1)">
                  <use xlink:href="#rim" fill="#404040">
                        <set attributeName="fill" to="#808080" begin="arrowDown.mouseover" end="arrowDown.mouseout"/>
                  </use>
                  <path fill="none" stroke="white" stroke-width="1.5" d="M0,-3.0v7 M-2.5,-0.5L0,-3.0L2.5,-0.5"/>
                </g>
                <g id="arrowLeft" xlink:href="#dirArrow" transform="rotate(270) translate(-36 17)" onmousedown="handlePan(-1,0)">
                  <use xlink:href="#rim" fill="#404040">
                        <set attributeName="fill" to="#808080" begin="arrowLeft.mouseover" end="arrowLeft.mouseout"/>
                  </use>
                  <path fill="none" stroke="white" stroke-width="1.5" d="M0,-3.0v7 M-2.5,-0.5L0,-3.0L2.5,-0.5"/>
                </g>
        </g>
        <svg viewBox="0 0 15 15" width="100%" height="30px" preserveAspectRatio="xMaxYMin meet">
         <g id="arrow_out" transform="scale(0.3 0.3)">
          <a xlink:href="AddPdfFunctor_8h__dep__incl_org.svg" target="_base">
           <rect id="button" ry="5" rx="5" y="6" x="6" height="38" width="38"
                fill="#f2f5e9" fill-opacity="0.5" stroke="#606060" stroke-width="1.0"/>
           <path id="arrow"
             d="M 11.500037,31.436501 C 11.940474,20.09759 22.043105,11.32322 32.158766,21.979434 L 37.068811,17.246167 C 37.068811,17.246167 37.088388,32 37.088388,32 L 22.160133,31.978069 C 22.160133,31.978069 26.997745,27.140456 26.997745,27.140456 C 18.528582,18.264221 13.291696,25.230495 11.500037,31.436501 z"
             style="fill:#404040;"/>
          </a>
         </g>
        </svg>
</svg>
