<?xml version="1.0" encoding="UTF-8" standalone="no"?>
<!DOCTYPE svg PUBLIC "-//W3C//DTD SVG 1.1//EN"
 "http://www.w3.org/Graphics/SVG/1.1/DTD/svg11.dtd">
<!-- Generated by graphviz version 2.38.0 (20140413.2041)
 -->
<!-- Title: AddPdfBase.h Pages: 1 -->
<svg width="3140pt" height="330pt"
 viewBox="0.00 0.00 3139.50 330.00" xmlns="http://www.w3.org/2000/svg" xmlns:xlink="http://www.w3.org/1999/xlink">
<g id="graph0" class="graph" transform="scale(1 1) rotate(0) translate(4 326)">
<title>AddPdfBase.h</title>
<!-- Node37 -->
<g id="node1" class="node"><title>Node37</title>
<polygon fill="#bfbfbf" stroke="black" points="1709,-302.5 1709,-321.5 1789,-321.5 1789,-302.5 1709,-302.5"/>
<text text-anchor="middle" x="1749" y="-309.5" font-family="Helvetica,sans-Serif" font-size="10.00">AddPdfBase.h</text>
</g>
<!-- Node38 -->
<g id="node2" class="node"><title>Node38</title>
<g id="a_node2"><a xlink:href="PDFSumExtendable_8h.html" target="_top" xlink:title="PDFSumExtendable.h">
<polygon fill="none" stroke="black" points="1650,-246.5 1650,-265.5 1764,-265.5 1764,-246.5 1650,-246.5"/>
<text text-anchor="middle" x="1707" y="-253.5" font-family="Helvetica,sans-Serif" font-size="10.00">PDFSumExtendable.h</text>
</a>
</g>
</g>
<!-- Node37&#45;&gt;Node38 -->
<g id="edge1" class="edge"><title>Node37&#45;&gt;Node38</title>
<path fill="none" stroke="midnightblue" d="M1735.89,-294.144C1728.57,-284.736 1719.76,-273.405 1713.81,-265.751"/>
<polygon fill="midnightblue" stroke="midnightblue" points="1733.16,-296.338 1742.06,-302.083 1738.69,-292.041 1733.16,-296.338"/>
</g>
<!-- Node80 -->
<g id="node44" class="node"><title>Node80</title>
<g id="a_node44"><a xlink:href="SPlot_8h.html" target="_top" xlink:title="SPlot.h">
<polygon fill="none" stroke="black" points="1767.5,-190.5 1767.5,-209.5 1816.5,-209.5 1816.5,-190.5 1767.5,-190.5"/>
<text text-anchor="middle" x="1792" y="-197.5" font-family="Helvetica,sans-Serif" font-size="10.00">SPlot.h</text>
</a>
</g>
</g>
<!-- Node37&#45;&gt;Node80 -->
<g id="edge57" class="edge"><title>Node37&#45;&gt;Node80</title>
<path fill="none" stroke="midnightblue" d="M1759.47,-293.397C1764.04,-285.249 1769.2,-275.326 1773,-266 1780.99,-246.404 1787.14,-222.23 1790.08,-209.604"/>
<polygon fill="midnightblue" stroke="midnightblue" points="1756.3,-291.885 1754.34,-302.296 1762.37,-295.384 1756.3,-291.885"/>
</g>
<!-- Node39 -->
<g id="node3" class="node"><title>Node39</title>
<g id="a_node3"><a xlink:href="AddPdf_8h.html" target="_top" xlink:title="Include this file to get the classes and functions necessary to build&#45;up composed PDF models...">
<polygon fill="none" stroke="black" points="1708.5,-134.5 1708.5,-153.5 1765.5,-153.5 1765.5,-134.5 1708.5,-134.5"/>
<text text-anchor="middle" x="1737" y="-141.5" font-family="Helvetica,sans-Serif" font-size="10.00">AddPdf.h</text>
</a>
</g>
</g>
<!-- Node38&#45;&gt;Node39 -->
<g id="edge2" class="edge"><title>Node38&#45;&gt;Node39</title>
<path fill="none" stroke="midnightblue" d="M1712,-236.674C1718.56,-212.625 1729.8,-171.388 1734.66,-153.591"/>
<polygon fill="midnightblue" stroke="midnightblue" points="1708.61,-235.8 1709.35,-246.368 1715.36,-237.642 1708.61,-235.8"/>
</g>
<!-- Node71 -->
<g id="node35" class="node"><title>Node71</title>
<g id="a_node35"><a xlink:href="LogLikelihoodFCN2_8inl.html" target="_top" xlink:title="LogLikelihoodFCN2.inl">
<polygon fill="none" stroke="black" points="1555.5,-190.5 1555.5,-209.5 1670.5,-209.5 1670.5,-190.5 1555.5,-190.5"/>
<text text-anchor="middle" x="1613" y="-197.5" font-family="Helvetica,sans-Serif" font-size="10.00">LogLikelihoodFCN2.inl</text>
</a>
</g>
</g>
<!-- Node38&#45;&gt;Node71 -->
<g id="edge34" class="edge"><title>Node38&#45;&gt;Node71</title>
<path fill="none" stroke="midnightblue" d="M1682.94,-241.177C1665.64,-231.241 1642.85,-218.149 1628.07,-209.655"/>
<polygon fill="midnightblue" stroke="midnightblue" points="1681.48,-244.378 1691.9,-246.324 1684.97,-238.308 1681.48,-244.378"/>
</g>
<!-- Node72 -->
<g id="node36" class="node"><title>Node72</title>
<g id="a_node36"><a xlink:href="LogLikelihoodFCN_8h.html" target="_top" xlink:title="LogLikelihoodFCN.h">
<polygon fill="none" stroke="black" points="1560.5,-134.5 1560.5,-153.5 1665.5,-153.5 1665.5,-134.5 1560.5,-134.5"/>
<text text-anchor="middle" x="1613" y="-141.5" font-family="Helvetica,sans-Serif" font-size="10.00">LogLikelihoodFCN.h</text>
</a>
</g>
</g>
<!-- Node38&#45;&gt;Node72 -->
<g id="edge54" class="edge"><title>Node38&#45;&gt;Node72</title>
<path fill="none" stroke="midnightblue" d="M1702.04,-236.288C1697.67,-222.409 1690.23,-203.614 1679,-190 1665.77,-173.95 1645.38,-161.259 1630.77,-153.501"/>
<polygon fill="midnightblue" stroke="midnightblue" points="1698.76,-237.539 1704.9,-246.171 1705.48,-235.592 1698.76,-237.539"/>
</g>
<!-- Node38&#45;&gt;Node80 -->
<g id="edge55" class="edge"><title>Node38&#45;&gt;Node80</title>
<path fill="none" stroke="midnightblue" d="M1729.19,-240.901C1744.78,-230.999 1765.13,-218.071 1778.38,-209.655"/>
<polygon fill="midnightblue" stroke="midnightblue" points="1727.22,-238.007 1720.66,-246.324 1730.97,-243.916 1727.22,-238.007"/>
</g>
<!-- Node40 -->
<g id="node4" class="node"><title>Node40</title>
<g id="a_node4"><a xlink:href="binned__extended__logLL__fit_8inl.html" target="_top" xlink:title="binned_extended_logLL\l_fit.inl">
<polygon fill="none" stroke="black" points="1802.5,-67.5 1802.5,-97.5 1921.5,-97.5 1921.5,-67.5 1802.5,-67.5"/>
<text text-anchor="start" x="1810.5" y="-85.5" font-family="Helvetica,sans-Serif" font-size="10.00">binned_extended_logLL</text>
<text text-anchor="middle" x="1862" y="-74.5" font-family="Helvetica,sans-Serif" font-size="10.00">_fit.inl</text>
</a>
</g>
</g>
<!-- Node39&#45;&gt;Node40 -->
<g id="edge3" class="edge"><title>Node39&#45;&gt;Node40</title>
<path fill="none" stroke="midnightblue" d="M1764.16,-130.07C1784.34,-120.465 1811.84,-107.378 1832.54,-97.523"/>
<polygon fill="midnightblue" stroke="midnightblue" points="1762.43,-127.017 1754.91,-134.475 1765.44,-133.337 1762.43,-127.017"/>
</g>
<!-- Node43 -->
<g id="node7" class="node"><title>Node43</title>
<g id="a_node7"><a xlink:href="extended__logLL__fit_8inl.html" target="_top" xlink:title="extended_logLL_fit.inl">
<polygon fill="none" stroke="black" points="1225.5,-73 1225.5,-92 1336.5,-92 1336.5,-73 1225.5,-73"/>
<text text-anchor="middle" x="1281" y="-80" font-family="Helvetica,sans-Serif" font-size="10.00">extended_logLL_fit.inl</text>
</a>
</g>
</g>
<!-- Node39&#45;&gt;Node43 -->
<g id="edge6" class="edge"><title>Node39&#45;&gt;Node43</title>
<path fill="none" stroke="midnightblue" d="M1698.51,-137.413C1690.41,-136.263 1681.93,-135.076 1674,-134 1553.86,-117.7 1412.86,-99.9075 1336.68,-90.4036"/>
<polygon fill="midnightblue" stroke="midnightblue" points="1698.08,-140.887 1708.47,-138.838 1699.07,-133.958 1698.08,-140.887"/>
</g>
<!-- Node46 -->
<g id="node10" class="node"><title>Node46</title>
<g id="a_node10"><a xlink:href="fractional__logLL__fit_8inl.html" target="_top" xlink:title="fractional_logLL_fit.inl">
<polygon fill="none" stroke="black" points="1423.5,-73 1423.5,-92 1534.5,-92 1534.5,-73 1423.5,-73"/>
<text text-anchor="middle" x="1479" y="-80" font-family="Helvetica,sans-Serif" font-size="10.00">fractional_logLL_fit.inl</text>
</a>
</g>
</g>
<!-- Node39&#45;&gt;Node46 -->
<g id="edge9" class="edge"><title>Node39&#45;&gt;Node46</title>
<path fill="none" stroke="midnightblue" d="M1698.46,-134.111C1649.21,-122.753 1564.54,-103.228 1516.03,-92.0397"/>
<polygon fill="midnightblue" stroke="midnightblue" points="1697.87,-137.568 1708.4,-136.405 1699.45,-130.747 1697.87,-137.568"/>
</g>
<!-- Node49 -->
<g id="node13" class="node"><title>Node49</title>
<g id="a_node13"><a xlink:href="multidimensional__fit_8inl.html" target="_top" xlink:title="multidimensional_fit.inl">
<polygon fill="none" stroke="black" points="1555,-73 1555,-92 1671,-92 1671,-73 1555,-73"/>
<text text-anchor="middle" x="1613" y="-80" font-family="Helvetica,sans-Serif" font-size="10.00">multidimensional_fit.inl</text>
</a>
</g>
</g>
<!-- Node39&#45;&gt;Node49 -->
<g id="edge12" class="edge"><title>Node39&#45;&gt;Node49</title>
<path fill="none" stroke="midnightblue" d="M1709.95,-130.021C1685.9,-118.482 1651.44,-101.943 1630.73,-92.0091"/>
<polygon fill="midnightblue" stroke="midnightblue" points="1708.7,-133.304 1719.23,-134.475 1711.73,-126.993 1708.7,-133.304"/>
</g>
<!-- Node52 -->
<g id="node16" class="node"><title>Node52</title>
<g id="a_node16"><a xlink:href="splot_8inl.html" target="_top" xlink:title="splot.inl">
<polygon fill="none" stroke="black" points="2382,-73 2382,-92 2432,-92 2432,-73 2382,-73"/>
<text text-anchor="middle" x="2407" y="-80" font-family="Helvetica,sans-Serif" font-size="10.00">splot.inl</text>
</a>
</g>
</g>
<!-- Node39&#45;&gt;Node52 -->
<g id="edge15" class="edge"><title>Node39&#45;&gt;Node52</title>
<path fill="none" stroke="midnightblue" d="M1775.8,-141.939C1895.64,-138.396 2258.63,-125.61 2373,-98 2378.74,-96.6146 2384.74,-94.3522 2390.08,-92.0222"/>
<polygon fill="midnightblue" stroke="midnightblue" points="1775.53,-138.445 1765.63,-142.234 1775.73,-145.442 1775.53,-138.445"/>
</g>
<!-- Node55 -->
<g id="node19" class="node"><title>Node55</title>
<g id="a_node19"><a xlink:href="breit__wigner__plus__polynomial_8inl.html" target="_top" xlink:title="breit_wigner_plus_polynomial.inl">
<polygon fill="none" stroke="black" points="1939.5,-73 1939.5,-92 2096.5,-92 2096.5,-73 1939.5,-73"/>
<text text-anchor="middle" x="2018" y="-80" font-family="Helvetica,sans-Serif" font-size="10.00">breit_wigner_plus_polynomial.inl</text>
</a>
</g>
</g>
<!-- Node39&#45;&gt;Node55 -->
<g id="edge18" class="edge"><title>Node39&#45;&gt;Node55</title>
<path fill="none" stroke="midnightblue" d="M1775.8,-134.784C1828.96,-123.529 1923.95,-103.415 1977.82,-92.0081"/>
<polygon fill="midnightblue" stroke="midnightblue" points="1774.81,-131.416 1765.75,-136.912 1776.26,-138.265 1774.81,-131.416"/>
</g>
<!-- Node58 -->
<g id="node22" class="node"><title>Node58</title>
<g id="a_node22"><a xlink:href="crystal__ball__plus__exponential_8inl.html" target="_top" xlink:title="crystal_ball_plus_exponential.inl">
<polygon fill="none" stroke="black" points="2114.5,-73 2114.5,-92 2271.5,-92 2271.5,-73 2114.5,-73"/>
<text text-anchor="middle" x="2193" y="-80" font-family="Helvetica,sans-Serif" font-size="10.00">crystal_ball_plus_exponential.inl</text>
</a>
</g>
</g>
<!-- Node39&#45;&gt;Node58 -->
<g id="edge21" class="edge"><title>Node39&#45;&gt;Node58</title>
<path fill="none" stroke="midnightblue" d="M1775.81,-138.792C1842.99,-131.388 1985.26,-115.179 2105,-98 2117.41,-96.2189 2130.78,-94.1133 2143.26,-92.0668"/>
<polygon fill="midnightblue" stroke="midnightblue" points="1775.24,-135.333 1765.68,-139.904 1776.01,-142.291 1775.24,-135.333"/>
</g>
<!-- Node61 -->
<g id="node25" class="node"><title>Node61</title>
<g id="a_node25"><a xlink:href="dalitz__plot_8inl.html" target="_top" xlink:title="dalitz_plot.inl">
<polygon fill="none" stroke="black" points="2290,-73 2290,-92 2364,-92 2364,-73 2290,-73"/>
<text text-anchor="middle" x="2327" y="-80" font-family="Helvetica,sans-Serif" font-size="10.00">dalitz_plot.inl</text>
</a>
</g>
</g>
<!-- Node39&#45;&gt;Node61 -->
<g id="edge24" class="edge"><title>Node39&#45;&gt;Node61</title>
<path fill="none" stroke="midnightblue" d="M1775.79,-142.655C1865.42,-141.236 2093.47,-134.059 2280,-98 2287.55,-96.5413 2295.59,-94.3161 2302.86,-92.0436"/>
<polygon fill="midnightblue" stroke="midnightblue" points="1775.51,-139.159 1765.56,-142.801 1775.61,-146.158 1775.51,-139.159"/>
</g>
<!-- Node64 -->
<g id="node28" class="node"><title>Node64</title>
<g id="a_node28"><a xlink:href="double__gaussian__plus__exponential_8inl.html" target="_top" xlink:title="double_gaussian_plus\l_exponential.inl">
<polygon fill="none" stroke="black" points="727.5,-67.5 727.5,-97.5 840.5,-97.5 840.5,-67.5 727.5,-67.5"/>
<text text-anchor="start" x="735.5" y="-85.5" font-family="Helvetica,sans-Serif" font-size="10.00">double_gaussian_plus</text>
<text text-anchor="middle" x="784" y="-74.5" font-family="Helvetica,sans-Serif" font-size="10.00">_exponential.inl</text>
</a>
</g>
</g>
<!-- Node39&#45;&gt;Node64 -->
<g id="edge27" class="edge"><title>Node39&#45;&gt;Node64</title>
<path fill="none" stroke="midnightblue" d="M1698.06,-136.875C1690.11,-135.784 1681.8,-134.756 1674,-134 1363.93,-103.941 1284.89,-117.854 974,-98 929.1,-95.1326 878.283,-91.2195 840.508,-88.181"/>
<polygon fill="midnightblue" stroke="midnightblue" points="1697.82,-140.376 1708.21,-138.328 1698.81,-133.447 1697.82,-140.376"/>
</g>
<!-- Node67 -->
<g id="node31" class="node"><title>Node67</title>
<g id="a_node31"><a xlink:href="gaussian__plus__argus_8inl.html" target="_top" xlink:title="gaussian_plus_argus.inl">
<polygon fill="none" stroke="black" points="983.5,-73 983.5,-92 1104.5,-92 1104.5,-73 983.5,-73"/>
<text text-anchor="middle" x="1044" y="-80" font-family="Helvetica,sans-Serif" font-size="10.00">gaussian_plus_argus.inl</text>
</a>
</g>
</g>
<!-- Node39&#45;&gt;Node67 -->
<g id="edge30" class="edge"><title>Node39&#45;&gt;Node67</title>
<path fill="none" stroke="midnightblue" d="M1698.04,-137.04C1690.1,-135.936 1681.79,-134.862 1674,-134 1471.05,-111.551 1419.51,-114.576 1216,-98 1179.11,-94.9955 1137.79,-91.5153 1104.89,-88.7175"/>
<polygon fill="midnightblue" stroke="midnightblue" points="1697.8,-140.542 1708.19,-138.493 1698.79,-133.612 1697.8,-140.542"/>
</g>
<!-- Node70 -->
<g id="node34" class="node"><title>Node70</title>
<g id="a_node34"><a xlink:href="fit__3d__gaussian_8C.html" target="_top" xlink:title="fit_3d_gaussian.C">
<polygon fill="none" stroke="black" points="1689.5,-73 1689.5,-92 1784.5,-92 1784.5,-73 1689.5,-73"/>
<text text-anchor="middle" x="1737" y="-80" font-family="Helvetica,sans-Serif" font-size="10.00">fit_3d_gaussian.C</text>
</a>
</g>
</g>
<!-- Node39&#45;&gt;Node70 -->
<g id="edge33" class="edge"><title>Node39&#45;&gt;Node70</title>
<path fill="none" stroke="midnightblue" d="M1737,-124.317C1737,-113.496 1737,-100.398 1737,-92.0091"/>
<polygon fill="midnightblue" stroke="midnightblue" points="1733.5,-124.475 1737,-134.475 1740.5,-124.475 1733.5,-124.475"/>
</g>
<!-- Node41 -->
<g id="node5" class="node"><title>Node41</title>
<g id="a_node5"><a xlink:href="binned__extended__logLL__fit_8cpp.html" target="_top" xlink:title="binned_extended_logLL\l_fit.cpp">
<polygon fill="none" stroke="black" points="1826.5,-0.5 1826.5,-30.5 1945.5,-30.5 1945.5,-0.5 1826.5,-0.5"/>
<text text-anchor="start" x="1834.5" y="-18.5" font-family="Helvetica,sans-Serif" font-size="10.00">binned_extended_logLL</text>
<text text-anchor="middle" x="1886" y="-7.5" font-family="Helvetica,sans-Serif" font-size="10.00">_fit.cpp</text>
</a>
</g>
</g>
<!-- Node40&#45;&gt;Node41 -->
<g id="edge4" class="edge"><title>Node40&#45;&gt;Node41</title>
<path fill="none" stroke="midnightblue" d="M1870.68,-57.9907C1874.07,-48.8044 1877.85,-38.5781 1880.8,-30.5765"/>
<polygon fill="midnightblue" stroke="midnightblue" points="1867.39,-56.8027 1867.21,-67.396 1873.95,-59.2273 1867.39,-56.8027"/>
</g>
<!-- Node42 -->
<g id="node6" class="node"><title>Node42</title>
<g id="a_node6"><a xlink:href="binned__extended__logLL__fit_8cu.html" target="_top" xlink:title="binned_extended_logLL\l_fit.cu">
<polygon fill="none" stroke="black" points="1963.5,-0.5 1963.5,-30.5 2082.5,-30.5 2082.5,-0.5 1963.5,-0.5"/>
<text text-anchor="start" x="1971.5" y="-18.5" font-family="Helvetica,sans-Serif" font-size="10.00">binned_extended_logLL</text>
<text text-anchor="middle" x="2023" y="-7.5" font-family="Helvetica,sans-Serif" font-size="10.00">_fit.cu</text>
</a>
</g>
</g>
<!-- Node40&#45;&gt;Node42 -->
<g id="edge5" class="edge"><title>Node40&#45;&gt;Node42</title>
<path fill="none" stroke="midnightblue" d="M1906.48,-63.5442C1932.24,-53.143 1964.2,-40.238 1988.13,-30.5765"/>
<polygon fill="midnightblue" stroke="midnightblue" points="1904.9,-60.4067 1896.93,-67.396 1907.52,-66.8977 1904.9,-60.4067"/>
</g>
<!-- Node44 -->
<g id="node8" class="node"><title>Node44</title>
<g id="a_node8"><a xlink:href="extended__logLL__fit_8cpp.html" target="_top" xlink:title="extended_logLL_fit.cpp">
<polygon fill="none" stroke="black" points="1020.5,-6 1020.5,-25 1137.5,-25 1137.5,-6 1020.5,-6"/>
<text text-anchor="middle" x="1079" y="-13" font-family="Helvetica,sans-Serif" font-size="10.00">extended_logLL_fit.cpp</text>
</a>
</g>
</g>
<!-- Node43&#45;&gt;Node44 -->
<g id="edge7" class="edge"><title>Node43&#45;&gt;Node44</title>
<path fill="none" stroke="midnightblue" d="M1244.53,-69.7654C1204.51,-56.8862 1141.22,-36.5214 1105.61,-25.0637"/>
<polygon fill="midnightblue" stroke="midnightblue" points="1243.58,-73.137 1254.18,-72.8685 1245.73,-66.4735 1243.58,-73.137"/>
</g>
<!-- Node45 -->
<g id="node9" class="node"><title>Node45</title>
<g id="a_node9"><a xlink:href="extended__logLL__fit_8cu.html" target="_top" xlink:title="extended_logLL_fit.cu">
<polygon fill="none" stroke="black" points="1156,-6 1156,-25 1268,-25 1268,-6 1156,-6"/>
<text text-anchor="middle" x="1212" y="-13" font-family="Helvetica,sans-Serif" font-size="10.00">extended_logLL_fit.cu</text>
</a>
</g>
</g>
<!-- Node43&#45;&gt;Node45 -->
<g id="edge8" class="edge"><title>Node43&#45;&gt;Node45</title>
<path fill="none" stroke="midnightblue" d="M1264.39,-65.8564C1250.83,-53.0777 1232.16,-35.4915 1221.16,-25.1273"/>
<polygon fill="midnightblue" stroke="midnightblue" points="1262.02,-68.4245 1271.69,-72.7338 1266.82,-63.3292 1262.02,-68.4245"/>
</g>
<!-- Node47 -->
<g id="node11" class="node"><title>Node47</title>
<g id="a_node11"><a xlink:href="fractional__logLL__fit_8cpp.html" target="_top" xlink:title="fractional_logLL_fit.cpp">
<polygon fill="none" stroke="black" points="1286.5,-6 1286.5,-25 1403.5,-25 1403.5,-6 1286.5,-6"/>
<text text-anchor="middle" x="1345" y="-13" font-family="Helvetica,sans-Serif" font-size="10.00">fractional_logLL_fit.cpp</text>
</a>
</g>
</g>
<!-- Node46&#45;&gt;Node47 -->
<g id="edge10" class="edge"><title>Node46&#45;&gt;Node47</title>
<path fill="none" stroke="midnightblue" d="M1452.08,-68.4436C1425.54,-55.5691 1385.73,-36.2573 1362.87,-25.1672"/>
<polygon fill="midnightblue" stroke="midnightblue" points="1450.68,-71.6531 1461.21,-72.8685 1453.74,-65.355 1450.68,-71.6531"/>
</g>
<!-- Node48 -->
<g id="node12" class="node"><title>Node48</title>
<g id="a_node12"><a xlink:href="fractional__logLL__fit_8cu.html" target="_top" xlink:title="fractional_logLL_fit.cu">
<polygon fill="none" stroke="black" points="1422,-6 1422,-25 1534,-25 1534,-6 1422,-6"/>
<text text-anchor="middle" x="1478" y="-13" font-family="Helvetica,sans-Serif" font-size="10.00">fractional_logLL_fit.cu</text>
</a>
</g>
</g>
<!-- Node46&#45;&gt;Node48 -->
<g id="edge11" class="edge"><title>Node46&#45;&gt;Node48</title>
<path fill="none" stroke="midnightblue" d="M1478.71,-62.537C1478.52,-50.1703 1478.28,-34.6198 1478.13,-25.1273"/>
<polygon fill="midnightblue" stroke="midnightblue" points="1475.21,-62.7889 1478.87,-72.7338 1482.21,-62.6811 1475.21,-62.7889"/>
</g>
<!-- Node50 -->
<g id="node14" class="node"><title>Node50</title>
<g id="a_node14"><a xlink:href="multidimensional__fit_8cpp.html" target="_top" xlink:title="multidimensional_fit.cpp">
<polygon fill="none" stroke="black" points="1552,-6 1552,-25 1674,-25 1674,-6 1552,-6"/>
<text text-anchor="middle" x="1613" y="-13" font-family="Helvetica,sans-Serif" font-size="10.00">multidimensional_fit.cpp</text>
</a>
</g>
</g>
<!-- Node49&#45;&gt;Node50 -->
<g id="edge13" class="edge"><title>Node49&#45;&gt;Node50</title>
<path fill="none" stroke="midnightblue" d="M1613,-62.537C1613,-50.1703 1613,-34.6198 1613,-25.1273"/>
<polygon fill="midnightblue" stroke="midnightblue" points="1609.5,-62.7338 1613,-72.7338 1616.5,-62.7338 1609.5,-62.7338"/>
</g>
<!-- Node51 -->
<g id="node15" class="node"><title>Node51</title>
<g id="a_node15"><a xlink:href="multidimensional__fit_8cu.html" target="_top" xlink:title="multidimensional_fit.cu">
<polygon fill="none" stroke="black" points="1692,-6 1692,-25 1808,-25 1808,-6 1692,-6"/>
<text text-anchor="middle" x="1750" y="-13" font-family="Helvetica,sans-Serif" font-size="10.00">multidimensional_fit.cu</text>
</a>
</g>
</g>
<!-- Node49&#45;&gt;Node51 -->
<g id="edge14" class="edge"><title>Node49&#45;&gt;Node51</title>
<path fill="none" stroke="midnightblue" d="M1640.52,-68.4436C1667.65,-55.5691 1708.36,-36.2573 1731.73,-25.1672"/>
<polygon fill="midnightblue" stroke="midnightblue" points="1638.73,-65.4198 1631.19,-72.8685 1641.73,-71.7441 1638.73,-65.4198"/>
</g>
<!-- Node53 -->
<g id="node17" class="node"><title>Node53</title>
<g id="a_node17"><a xlink:href="splot_8cpp.html" target="_top" xlink:title="splot.cpp">
<polygon fill="none" stroke="black" points="3006,-6 3006,-25 3062,-25 3062,-6 3006,-6"/>
<text text-anchor="middle" x="3034" y="-13" font-family="Helvetica,sans-Serif" font-size="10.00">splot.cpp</text>
</a>
</g>
</g>
<!-- Node52&#45;&gt;Node53 -->
<g id="edge16" class="edge"><title>Node52&#45;&gt;Node53</title>
<path fill="none" stroke="midnightblue" d="M2442.33,-81.9865C2534.78,-82.5096 2790.92,-79.1303 2997,-31 3003.05,-29.5878 3009.41,-27.3764 3015.13,-25.1023"/>
<polygon fill="midnightblue" stroke="midnightblue" points="2442.16,-78.4852 2432.13,-81.9085 2442.1,-85.485 2442.16,-78.4852"/>
</g>
<!-- Node54 -->
<g id="node18" class="node"><title>Node54</title>
<g id="a_node18"><a xlink:href="splot_8cu.html" target="_top" xlink:title="splot.cu">
<polygon fill="none" stroke="black" points="3080.5,-6 3080.5,-25 3131.5,-25 3131.5,-6 3080.5,-6"/>
<text text-anchor="middle" x="3106" y="-13" font-family="Helvetica,sans-Serif" font-size="10.00">splot.cu</text>
</a>
</g>
</g>
<!-- Node52&#45;&gt;Node54 -->
<g id="edge17" class="edge"><title>Node52&#45;&gt;Node54</title>
<path fill="none" stroke="midnightblue" d="M2442.1,-80.2943C2561.28,-75.9728 2949.7,-59.9568 3071,-31 3076.76,-29.6255 3082.79,-27.4253 3088.2,-25.1499"/>
<polygon fill="midnightblue" stroke="midnightblue" points="2441.93,-76.7981 2432.06,-80.6537 2442.18,-83.7937 2441.93,-76.7981"/>
</g>
<!-- Node56 -->
<g id="node20" class="node"><title>Node56</title>
<g id="a_node20"><a xlink:href="breit__wigner__plus__polynomial_8cpp.html" target="_top" xlink:title="breit_wigner_plus_polynomial.cpp">
<polygon fill="none" stroke="black" points="2100.5,-6 2100.5,-25 2263.5,-25 2263.5,-6 2100.5,-6"/>
<text text-anchor="middle" x="2182" y="-13" font-family="Helvetica,sans-Serif" font-size="10.00">breit_wigner_plus_polynomial.cpp</text>
</a>
</g>
</g>
<!-- Node55&#45;&gt;Node56 -->
<g id="edge19" class="edge"><title>Node55&#45;&gt;Node56</title>
<path fill="none" stroke="midnightblue" d="M2049.28,-69.1041C2081.84,-56.1984 2131.97,-36.3272 2160.39,-25.0637"/>
<polygon fill="midnightblue" stroke="midnightblue" points="2047.78,-65.9301 2039.78,-72.8685 2050.36,-72.4376 2047.78,-65.9301"/>
</g>
<!-- Node57 -->
<g id="node21" class="node"><title>Node57</title>
<g id="a_node21"><a xlink:href="breit__wigner__plus__polynomial_8cu.html" target="_top" xlink:title="breit_wigner_plus_polynomial.cu">
<polygon fill="none" stroke="black" points="2282,-6 2282,-25 2440,-25 2440,-6 2282,-6"/>
<text text-anchor="middle" x="2361" y="-13" font-family="Helvetica,sans-Serif" font-size="10.00">breit_wigner_plus_polynomial.cu</text>
</a>
</g>
</g>
<!-- Node55&#45;&gt;Node57 -->
<g id="edge20" class="edge"><title>Node55&#45;&gt;Node57</title>
<path fill="none" stroke="midnightblue" d="M2073.21,-71.0371C2140.67,-58.2527 2253.52,-36.8677 2315.98,-25.0317"/>
<polygon fill="midnightblue" stroke="midnightblue" points="2072.37,-67.6348 2063.19,-72.9355 2073.67,-74.5124 2072.37,-67.6348"/>
</g>
<!-- Node59 -->
<g id="node23" class="node"><title>Node59</title>
<g id="a_node23"><a xlink:href="crystal__ball__plus__exponential_8cpp.html" target="_top" xlink:title="crystal_ball_plus_exponential.cpp">
<polygon fill="none" stroke="black" points="2458.5,-6 2458.5,-25 2621.5,-25 2621.5,-6 2458.5,-6"/>
<text text-anchor="middle" x="2540" y="-13" font-family="Helvetica,sans-Serif" font-size="10.00">crystal_ball_plus_exponential.cpp</text>
</a>
</g>
</g>
<!-- Node58&#45;&gt;Node59 -->
<g id="edge22" class="edge"><title>Node58&#45;&gt;Node59</title>
<path fill="none" stroke="midnightblue" d="M2248.86,-71.0371C2317.1,-58.2527 2431.27,-36.8677 2494.45,-25.0317"/>
<polygon fill="midnightblue" stroke="midnightblue" points="2247.91,-67.6541 2238.72,-72.9355 2249.19,-74.5345 2247.91,-67.6541"/>
</g>
<!-- Node60 -->
<g id="node24" class="node"><title>Node60</title>
<g id="a_node24"><a xlink:href="crystal__ball__plus__exponential_8cu.html" target="_top" xlink:title="crystal_ball_plus_exponential.cu">
<polygon fill="none" stroke="black" points="2640,-6 2640,-25 2798,-25 2798,-6 2640,-6"/>
<text text-anchor="middle" x="2719" y="-13" font-family="Helvetica,sans-Serif" font-size="10.00">crystal_ball_plus_exponential.cu</text>
</a>
</g>
</g>
<!-- Node58&#45;&gt;Node60 -->
<g id="edge23" class="edge"><title>Node58&#45;&gt;Node60</title>
<path fill="none" stroke="midnightblue" d="M2251.46,-71.3594C2261.31,-69.7973 2271.43,-68.2805 2281,-67 2435.56,-46.3146 2475.43,-51.5461 2630,-31 2642.88,-29.2879 2656.76,-27.1618 2669.65,-25.0701"/>
<polygon fill="midnightblue" stroke="midnightblue" points="2250.65,-67.9448 2241.34,-72.9955 2251.77,-74.8551 2250.65,-67.9448"/>
</g>
<!-- Node62 -->
<g id="node26" class="node"><title>Node62</title>
<g id="a_node26"><a xlink:href="dalitz__plot_8cpp.html" target="_top" xlink:title="dalitz_plot.cpp">
<polygon fill="none" stroke="black" points="2816,-6 2816,-25 2896,-25 2896,-6 2816,-6"/>
<text text-anchor="middle" x="2856" y="-13" font-family="Helvetica,sans-Serif" font-size="10.00">dalitz_plot.cpp</text>
</a>
</g>
</g>
<!-- Node61&#45;&gt;Node62 -->
<g id="edge25" class="edge"><title>Node61&#45;&gt;Node62</title>
<path fill="none" stroke="midnightblue" d="M2360.28,-70.0552C2364.53,-68.8787 2368.84,-67.8175 2373,-67 2562.92,-29.6749 2616.76,-66.6476 2807,-31 2814.85,-29.5295 2823.23,-27.3007 2830.81,-25.0287"/>
<polygon fill="midnightblue" stroke="midnightblue" points="2359.19,-66.7291 2350.61,-72.9495 2361.2,-73.4351 2359.19,-66.7291"/>
</g>
<!-- Node63 -->
<g id="node27" class="node"><title>Node63</title>
<g id="a_node27"><a xlink:href="dalitz__plot_8cu.html" target="_top" xlink:title="dalitz_plot.cu">
<polygon fill="none" stroke="black" points="2914,-6 2914,-25 2988,-25 2988,-6 2914,-6"/>
<text text-anchor="middle" x="2951" y="-13" font-family="Helvetica,sans-Serif" font-size="10.00">dalitz_plot.cu</text>
</a>
</g>
</g>
<!-- Node61&#45;&gt;Node63 -->
<g id="edge26" class="edge"><title>Node61&#45;&gt;Node63</title>
<path fill="none" stroke="midnightblue" d="M2360.27,-69.9942C2364.52,-68.8279 2368.83,-67.7859 2373,-67 2605.88,-23.0668 2672.12,-74.9332 2905,-31 2912.41,-29.6029 2920.29,-27.396 2927.4,-25.1214"/>
<polygon fill="midnightblue" stroke="midnightblue" points="2359.18,-66.6666 2350.6,-72.8786 2361.18,-73.3747 2359.18,-66.6666"/>
</g>
<!-- Node65 -->
<g id="node29" class="node"><title>Node65</title>
<g id="a_node29"><a xlink:href="double__gaussian__plus__exponential_8cpp.html" target="_top" xlink:title="double_gaussian_plus\l_exponential.cpp">
<polygon fill="none" stroke="black" points="472.5,-0.5 472.5,-30.5 585.5,-30.5 585.5,-0.5 472.5,-0.5"/>
<text text-anchor="start" x="480.5" y="-18.5" font-family="Helvetica,sans-Serif" font-size="10.00">double_gaussian_plus</text>
<text text-anchor="middle" x="529" y="-7.5" font-family="Helvetica,sans-Serif" font-size="10.00">_exponential.cpp</text>
</a>
</g>
</g>
<!-- Node64&#45;&gt;Node65 -->
<g id="edge28" class="edge"><title>Node64&#45;&gt;Node65</title>
<path fill="none" stroke="midnightblue" d="M719.208,-64.9844C677.557,-54.3674 624.017,-40.7201 584.358,-30.6109"/>
<polygon fill="midnightblue" stroke="midnightblue" points="718.428,-68.3974 728.983,-67.476 720.157,-61.6143 718.428,-68.3974"/>
</g>
<!-- Node66 -->
<g id="node30" class="node"><title>Node66</title>
<g id="a_node30"><a xlink:href="double__gaussian__plus__exponential_8cu.html" target="_top" xlink:title="double_gaussian_plus\l_exponential.cu">
<polygon fill="none" stroke="black" points="603.5,-0.5 603.5,-30.5 716.5,-30.5 716.5,-0.5 603.5,-0.5"/>
<text text-anchor="start" x="611.5" y="-18.5" font-family="Helvetica,sans-Serif" font-size="10.00">double_gaussian_plus</text>
<text text-anchor="middle" x="660" y="-7.5" font-family="Helvetica,sans-Serif" font-size="10.00">_exponential.cu</text>
</a>
</g>
</g>
<!-- Node64&#45;&gt;Node66 -->
<g id="edge29" class="edge"><title>Node64&#45;&gt;Node66</title>
<path fill="none" stroke="midnightblue" d="M748.163,-62.7143C728.606,-52.4631 704.798,-39.9826 686.854,-30.5765"/>
<polygon fill="midnightblue" stroke="midnightblue" points="746.612,-65.8531 757.094,-67.396 749.862,-59.6533 746.612,-65.8531"/>
</g>
<!-- Node68 -->
<g id="node32" class="node"><title>Node68</title>
<g id="a_node32"><a xlink:href="gaussian__plus__argus_8cpp.html" target="_top" xlink:title="gaussian_plus_argus.cpp">
<polygon fill="none" stroke="black" points="734.5,-6 734.5,-25 861.5,-25 861.5,-6 734.5,-6"/>
<text text-anchor="middle" x="798" y="-13" font-family="Helvetica,sans-Serif" font-size="10.00">gaussian_plus_argus.cpp</text>
</a>
</g>
</g>
<!-- Node67&#45;&gt;Node68 -->
<g id="edge31" class="edge"><title>Node67&#45;&gt;Node68</title>
<path fill="none" stroke="midnightblue" d="M1001.7,-70.3234C953.126,-57.4887 874.494,-36.7118 830.485,-25.0834"/>
<polygon fill="midnightblue" stroke="midnightblue" points="1001.02,-73.7647 1011.59,-72.9355 1002.81,-66.997 1001.02,-73.7647"/>
</g>
<!-- Node69 -->
<g id="node33" class="node"><title>Node69</title>
<g id="a_node33"><a xlink:href="gaussian__plus__argus_8cu.html" target="_top" xlink:title="gaussian_plus_argus.cu">
<polygon fill="none" stroke="black" points="880,-6 880,-25 1002,-25 1002,-6 880,-6"/>
<text text-anchor="middle" x="941" y="-13" font-family="Helvetica,sans-Serif" font-size="10.00">gaussian_plus_argus.cu</text>
</a>
</g>
</g>
<!-- Node67&#45;&gt;Node69 -->
<g id="edge32" class="edge"><title>Node67&#45;&gt;Node69</title>
<path fill="none" stroke="midnightblue" d="M1021.45,-67.2687C1001.06,-54.4026 971.708,-35.879 954.671,-25.1273"/>
<polygon fill="midnightblue" stroke="midnightblue" points="1019.78,-70.3568 1030.11,-72.7338 1023.52,-64.437 1019.78,-70.3568"/>
</g>
<!-- Node71&#45;&gt;Node72 -->
<g id="edge35" class="edge"><title>Node71&#45;&gt;Node72</title>
<path fill="none" stroke="midnightblue" d="M1613,-179.805C1613,-170.91 1613,-160.78 1613,-153.751"/>
<polygon fill="midnightblue" stroke="midnightblue" points="1609.5,-180.083 1613,-190.083 1616.5,-180.083 1609.5,-180.083"/>
</g>
<!-- Node72&#45;&gt;Node40 -->
<g id="edge39" class="edge"><title>Node72&#45;&gt;Node40</title>
<path fill="none" stroke="midnightblue" d="M1658.59,-132.107C1699.27,-122.386 1759.07,-108.095 1803.32,-97.523"/>
<polygon fill="midnightblue" stroke="midnightblue" points="1657.59,-128.747 1648.68,-134.475 1659.22,-135.555 1657.59,-128.747"/>
</g>
<!-- Node72&#45;&gt;Node43 -->
<g id="edge40" class="edge"><title>Node72&#45;&gt;Node43</title>
<path fill="none" stroke="midnightblue" d="M1555.46,-132.688C1491.19,-121.17 1388.35,-102.738 1328.48,-92.0091"/>
<polygon fill="midnightblue" stroke="midnightblue" points="1554.97,-136.156 1565.43,-134.475 1556.21,-129.266 1554.97,-136.156"/>
</g>
<!-- Node72&#45;&gt;Node46 -->
<g id="edge41" class="edge"><title>Node72&#45;&gt;Node46</title>
<path fill="none" stroke="midnightblue" d="M1584.46,-130.327C1558.45,-118.776 1520.74,-102.032 1498.16,-92.0091"/>
<polygon fill="midnightblue" stroke="midnightblue" points="1583.24,-133.616 1593.8,-134.475 1586.08,-127.218 1583.24,-133.616"/>
</g>
<!-- Node72&#45;&gt;Node49 -->
<g id="edge42" class="edge"><title>Node72&#45;&gt;Node49</title>
<path fill="none" stroke="midnightblue" d="M1613,-124.317C1613,-113.496 1613,-100.398 1613,-92.0091"/>
<polygon fill="midnightblue" stroke="midnightblue" points="1609.5,-124.475 1613,-134.475 1616.5,-124.475 1609.5,-124.475"/>
</g>
<!-- Node72&#45;&gt;Node52 -->
<g id="edge46" class="edge"><title>Node72&#45;&gt;Node52</title>
<path fill="none" stroke="midnightblue" d="M1675.87,-136.047C1683.66,-135.296 1691.51,-134.592 1699,-134 1998.05,-110.381 2080.8,-165.875 2373,-98 2378.75,-96.6642 2384.76,-94.4158 2390.1,-92.0833"/>
<polygon fill="midnightblue" stroke="midnightblue" points="1675.32,-132.584 1665.72,-137.054 1676.02,-139.55 1675.32,-132.584"/>
</g>
<!-- Node72&#45;&gt;Node55 -->
<g id="edge47" class="edge"><title>Node72&#45;&gt;Node55</title>
<path fill="none" stroke="midnightblue" d="M1675.71,-134.517C1739.71,-125.763 1841.86,-111.516 1930,-98 1942.09,-96.1459 1955.1,-94.0553 1967.31,-92.0508"/>
<polygon fill="midnightblue" stroke="midnightblue" points="1675.21,-131.053 1665.78,-135.874 1676.16,-137.989 1675.21,-131.053"/>
</g>
<!-- Node72&#45;&gt;Node58 -->
<g id="edge48" class="edge"><title>Node72&#45;&gt;Node58</title>
<path fill="none" stroke="midnightblue" d="M1675.9,-136.302C1683.68,-135.507 1691.52,-134.723 1699,-134 1879.31,-116.572 1925.28,-120.742 2105,-98 2118.06,-96.3477 2132.14,-94.1941 2145.14,-92.0543"/>
<polygon fill="midnightblue" stroke="midnightblue" points="1675.33,-132.841 1665.74,-137.347 1676.05,-139.804 1675.33,-132.841"/>
</g>
<!-- Node72&#45;&gt;Node61 -->
<g id="edge49" class="edge"><title>Node72&#45;&gt;Node61</title>
<path fill="none" stroke="midnightblue" d="M1675.88,-136.109C1683.66,-135.348 1691.51,-134.624 1699,-134 1956.83,-112.531 2025.49,-144.462 2280,-98 2287.56,-96.6198 2295.61,-94.418 2302.88,-92.1427"/>
<polygon fill="midnightblue" stroke="midnightblue" points="1675.33,-132.646 1665.72,-137.125 1676.02,-139.612 1675.33,-132.646"/>
</g>
<!-- Node72&#45;&gt;Node64 -->
<g id="edge50" class="edge"><title>Node72&#45;&gt;Node64</title>
<path fill="none" stroke="midnightblue" d="M1550.41,-138.714C1435.97,-130.851 1185.29,-113.502 974,-98 929.129,-94.7079 878.31,-90.8214 840.527,-87.9011"/>
<polygon fill="midnightblue" stroke="midnightblue" points="1550.18,-142.207 1560.39,-139.4 1550.66,-135.223 1550.18,-142.207"/>
</g>
<!-- Node72&#45;&gt;Node67 -->
<g id="edge51" class="edge"><title>Node72&#45;&gt;Node67</title>
<path fill="none" stroke="midnightblue" d="M1550.54,-136.468C1440.57,-124.969 1213.74,-101.25 1104.89,-89.8675"/>
<polygon fill="midnightblue" stroke="midnightblue" points="1550.18,-139.95 1560.49,-137.509 1550.91,-132.988 1550.18,-139.95"/>
</g>
<!-- Node72&#45;&gt;Node70 -->
<g id="edge52" class="edge"><title>Node72&#45;&gt;Node70</title>
<path fill="none" stroke="midnightblue" d="M1640.05,-130.021C1664.1,-118.482 1698.56,-101.943 1719.27,-92.0091"/>
<polygon fill="midnightblue" stroke="midnightblue" points="1638.27,-126.993 1630.77,-134.475 1641.3,-133.304 1638.27,-126.993"/>
</g>
<!-- Node73 -->
<g id="node37" class="node"><title>Node73</title>
<g id="a_node37"><a xlink:href="basic__fit_8inl.html" target="_top" xlink:title="basic_fit.inl">
<polygon fill="none" stroke="black" points="165,-73 165,-92 231,-92 231,-73 165,-73"/>
<text text-anchor="middle" x="198" y="-80" font-family="Helvetica,sans-Serif" font-size="10.00">basic_fit.inl</text>
</a>
</g>
</g>
<!-- Node72&#45;&gt;Node73 -->
<g id="edge36" class="edge"><title>Node72&#45;&gt;Node73</title>
<path fill="none" stroke="midnightblue" d="M1550.12,-142.794C1362.24,-141.753 788.758,-135.495 315,-98 286.638,-95.7554 254.582,-91.6734 231.205,-88.4112"/>
<polygon fill="midnightblue" stroke="midnightblue" points="1550.34,-146.295 1560.36,-142.847 1550.38,-139.295 1550.34,-146.295"/>
</g>
<!-- Node76 -->
<g id="node40" class="node"><title>Node76</title>
<g id="a_node40"><a xlink:href="phsp__unweighting__functor__and__fit_8inl.html" target="_top" xlink:title="phsp_unweighting_functor\l_and_fit.inl">
<polygon fill="none" stroke="black" points="324,-67.5 324,-97.5 454,-97.5 454,-67.5 324,-67.5"/>
<text text-anchor="start" x="332" y="-85.5" font-family="Helvetica,sans-Serif" font-size="10.00">phsp_unweighting_functor</text>
<text text-anchor="middle" x="389" y="-74.5" font-family="Helvetica,sans-Serif" font-size="10.00">_and_fit.inl</text>
</a>
</g>
</g>
<!-- Node72&#45;&gt;Node76 -->
<g id="edge43" class="edge"><title>Node72&#45;&gt;Node76</title>
<path fill="none" stroke="midnightblue" d="M1550.2,-139.947C1340.78,-129.767 667.546,-97.0404 454.375,-86.6779"/>
<polygon fill="midnightblue" stroke="midnightblue" points="1550.25,-143.454 1560.41,-140.443 1550.59,-136.462 1550.25,-143.454"/>
</g>
<!-- Node79 -->
<g id="node43" class="node"><title>Node79</title>
<g id="a_node43"><a xlink:href="fit__gaussian_8C.html" target="_top" xlink:title="fit_gaussian.C">
<polygon fill="none" stroke="black" points="67,-73 67,-92 147,-92 147,-73 67,-73"/>
<text text-anchor="middle" x="107" y="-80" font-family="Helvetica,sans-Serif" font-size="10.00">fit_gaussian.C</text>
</a>
</g>
</g>
<!-- Node72&#45;&gt;Node79 -->
<g id="edge53" class="edge"><title>Node72&#45;&gt;Node79</title>
<path fill="none" stroke="midnightblue" d="M1550.45,-143.201C1308.08,-143.65 430.658,-142.125 156,-98 147.854,-96.6913 139.16,-94.4198 131.391,-92.0578"/>
<polygon fill="midnightblue" stroke="midnightblue" points="1550.51,-146.701 1560.5,-143.181 1550.49,-139.701 1550.51,-146.701"/>
</g>
<!-- Node74 -->
<g id="node38" class="node"><title>Node74</title>
<g id="a_node38"><a xlink:href="basic__fit_8cpp.html" target="_top" xlink:title="basic_fit.cpp">
<polygon fill="none" stroke="black" points="0,-6 0,-25 72,-25 72,-6 0,-6"/>
<text text-anchor="middle" x="36" y="-13" font-family="Helvetica,sans-Serif" font-size="10.00">basic_fit.cpp</text>
</a>
</g>
</g>
<!-- Node73&#45;&gt;Node74 -->
<g id="edge37" class="edge"><title>Node73&#45;&gt;Node74</title>
<path fill="none" stroke="midnightblue" d="M167.106,-69.1041C134.941,-56.1984 85.4154,-36.3272 57.3433,-25.0637"/>
<polygon fill="midnightblue" stroke="midnightblue" points="165.903,-72.3929 176.488,-72.8685 168.51,-65.8964 165.903,-72.3929"/>
</g>
<!-- Node75 -->
<g id="node39" class="node"><title>Node75</title>
<g id="a_node39"><a xlink:href="basic__fit_8cu.html" target="_top" xlink:title="basic_fit.cu">
<polygon fill="none" stroke="black" points="90.5,-6 90.5,-25 157.5,-25 157.5,-6 90.5,-6"/>
<text text-anchor="middle" x="124" y="-13" font-family="Helvetica,sans-Serif" font-size="10.00">basic_fit.cu</text>
</a>
</g>
</g>
<!-- Node73&#45;&gt;Node75 -->
<g id="edge38" class="edge"><title>Node73&#45;&gt;Node75</title>
<path fill="none" stroke="midnightblue" d="M180.19,-65.8564C165.642,-53.0777 145.621,-35.4915 133.822,-25.1273"/>
<polygon fill="midnightblue" stroke="midnightblue" points="178.197,-68.764 188.02,-72.7338 182.817,-63.5047 178.197,-68.764"/>
</g>
<!-- Node77 -->
<g id="node41" class="node"><title>Node77</title>
<g id="a_node41"><a xlink:href="phsp__unweighting__functor__and__fit_8cpp.html" target="_top" xlink:title="phsp_unweighting_functor\l_and_fit.cpp">
<polygon fill="none" stroke="black" points="176,-0.5 176,-30.5 306,-30.5 306,-0.5 176,-0.5"/>
<text text-anchor="start" x="184" y="-18.5" font-family="Helvetica,sans-Serif" font-size="10.00">phsp_unweighting_functor</text>
<text text-anchor="middle" x="241" y="-7.5" font-family="Helvetica,sans-Serif" font-size="10.00">_and_fit.cpp</text>
</a>
</g>
</g>
<!-- Node76&#45;&gt;Node77 -->
<g id="edge44" class="edge"><title>Node76&#45;&gt;Node77</title>
<path fill="none" stroke="midnightblue" d="M347.489,-63.2687C323.916,-52.9159 294.856,-40.1528 273.051,-30.5765"/>
<polygon fill="midnightblue" stroke="midnightblue" points="346.323,-66.5793 356.886,-67.396 349.138,-60.1702 346.323,-66.5793"/>
</g>
<!-- Node78 -->
<g id="node42" class="node"><title>Node78</title>
<g id="a_node42"><a xlink:href="phsp__unweighting__functor__and__fit_8cu.html" target="_top" xlink:title="phsp_unweighting_functor\l_and_fit.cu">
<polygon fill="none" stroke="black" points="324,-0.5 324,-30.5 454,-30.5 454,-0.5 324,-0.5"/>
<text text-anchor="start" x="332" y="-18.5" font-family="Helvetica,sans-Serif" font-size="10.00">phsp_unweighting_functor</text>
<text text-anchor="middle" x="389" y="-7.5" font-family="Helvetica,sans-Serif" font-size="10.00">_and_fit.cu</text>
</a>
</g>
</g>
<!-- Node76&#45;&gt;Node78 -->
<g id="edge45" class="edge"><title>Node76&#45;&gt;Node78</title>
<path fill="none" stroke="midnightblue" d="M389,-57.1081C389,-48.1539 389,-38.3227 389,-30.5765"/>
<polygon fill="midnightblue" stroke="midnightblue" points="385.5,-57.3959 389,-67.396 392.5,-57.396 385.5,-57.3959"/>
</g>
<!-- Node80&#45;&gt;Node52 -->
<g id="edge56" class="edge"><title>Node80&#45;&gt;Node52</title>
<path fill="none" stroke="midnightblue" d="M1826.57,-195.805C1917.57,-186.795 2170.67,-157.853 2373,-98 2378.29,-96.4345 2383.87,-94.2844 2388.93,-92.1192"/>
<polygon fill="midnightblue" stroke="midnightblue" points="1826.15,-192.329 1816.54,-196.782 1826.83,-199.296 1826.15,-192.329"/>
</g>
</g>
</svg>
