<?xml version="1.0" encoding="UTF-8" standalone="no"?>
<!DOCTYPE svg PUBLIC "-//W3C//DTD SVG 1.1//EN"
 "http://www.w3.org/Graphics/SVG/1.1/DTD/svg11.dtd">
<!-- Generated by graphviz version 5.0.0 (0)
 -->
<!-- Title: ArgumentTraits.h Pages: 1 -->
<!--zoomable 273 -->
<svg id="main" version="1.1" xmlns="http://www.w3.org/2000/svg" xmlns:xlink="http://www.w3.org/1999/xlink" xml:space="preserve" onload="init(evt)">
<style type="text/css"><![CDATA[
.edge:hover path { stroke: red; }
.edge:hover polygon { stroke: red; fill: red; }
]]></style>
<script type="text/javascript"><![CDATA[
var edges = document.getElementsByTagName('g');
if (edges && edges.length) {
  for (var i=0;i<edges.length;i++) {
    if (edges[i].id.substr(0,4)=='edge') {
      edges[i].setAttribute('class','edge');
    }
  }
}
]]></script>
        <defs>
                <circle id="rim" cx="0" cy="0" r="7"/>
                <circle id="rim2" cx="0" cy="0" r="3.5"/>
                <g id="zoomPlus">
                        <use xlink:href="#rim" fill="#404040">
                                <set attributeName="fill" to="#808080" begin="zoomplus.mouseover" end="zoomplus.mouseout"/>
                        </use>
                        <path d="M-4,0h8M0,-4v8" fill="none" stroke="white" stroke-width="1.5" pointer-events="none"/>
                </g>
                <g id="zoomMin">
                        <use xlink:href="#rim" fill="#404040">
                                <set attributeName="fill" to="#808080" begin="zoomminus.mouseover" end="zoomminus.mouseout"/>
                        </use>
                        <path d="M-4,0h8" fill="none" stroke="white" stroke-width="1.5" pointer-events="none"/>
                </g>
                <g id="dirArrow">
                        <path fill="none" stroke="white" stroke-width="1.5" d="M0,-3.0v7 M-2.5,-0.5L0,-3.0L2.5,-0.5"/>
                </g>
               <g id="resetDef">
                       <use xlink:href="#rim2" fill="#404040">
                               <set attributeName="fill" to="#808080" begin="reset.mouseover" end="reset.mouseout"/>
                       </use>
               </g>
        </defs>

<script type="text/javascript">
var viewWidth = 1513;
var viewHeight = 273;
var sectionId = 'dynsection-0';
</script>
<script xlink:href="svgpan.js"/>
<svg id="graph" class="graph">
<g id="viewport">
<title>ArgumentTraits.h</title>
<!-- Node0 -->
<g id="node1" class="node">
<title>Node0</title>
<polygon fill="#bfbfbf" stroke="black" points="535,-245.5 535,-264.5 627,-264.5 627,-245.5 535,-245.5"/>
<text text-anchor="middle" x="581" y="-252.5" font-family="Helvetica,sans-Serif" font-size="10.00">ArgumentTraits.h</text>
</g>
<!-- Node1 -->
<g id="node2" class="node">
<title>Node1</title>
<g id="a_node2"><a xlink:href="Config_8h.html" target="_top" xlink:title="hydra/detail/Config.h">
<polygon fill="none" stroke="black" points="136.5,-89.5 136.5,-108.5 243.5,-108.5 243.5,-89.5 136.5,-89.5"/>
<text text-anchor="middle" x="190" y="-96.5" font-family="Helvetica,sans-Serif" font-size="10.00">hydra/detail/Config.h</text>
</a>
</g>
</g>
<!-- Node0&#45;&gt;Node1 -->
<g id="edge1" class="edge">
<title>Node0&#45;&gt;Node1</title>
<path fill="none" stroke="midnightblue" d="M534.98,-247.63C493.69,-241 431.94,-228.75 381,-209 315.27,-183.51 245,-138.09 210.93,-114.74"/>
<polygon fill="midnightblue" stroke="midnightblue" points="212.53,-111.59 202.31,-108.78 208.54,-117.35 212.53,-111.59"/>
</g>
<!-- Node4 -->
<g id="node5" class="node">
<title>Node4</title>
<g id="a_node5"><a xlink:href="StaticAssert_8h.html" target="_top" xlink:title="hydra/detail/utility\l/StaticAssert.h">
<polygon fill="none" stroke="black" points="654.5,-167.5 654.5,-197.5 747.5,-197.5 747.5,-167.5 654.5,-167.5"/>
<text text-anchor="start" x="662.5" y="-185.5" font-family="Helvetica,sans-Serif" font-size="10.00">hydra/detail/utility</text>
<text text-anchor="middle" x="701" y="-174.5" font-family="Helvetica,sans-Serif" font-size="10.00">/StaticAssert.h</text>
</a>
</g>
</g>
<!-- Node0&#45;&gt;Node4 -->
<g id="edge4" class="edge">
<title>Node0&#45;&gt;Node4</title>
<path fill="none" stroke="midnightblue" d="M595.71,-245.36C613.69,-234.79 644.65,-216.61 668.35,-202.68"/>
<polygon fill="midnightblue" stroke="midnightblue" points="670.19,-205.66 677.04,-197.58 666.65,-199.62 670.19,-205.66"/>
</g>
<!-- Node5 -->
<g id="node6" class="node">
<title>Node5</title>
<g id="a_node6"><a xlink:href="Generic_8h.html" target="_top" xlink:title="hydra/detail/utility\l/Generic.h">
<polygon fill="none" stroke="black" points="40.5,-167.5 40.5,-197.5 133.5,-197.5 133.5,-167.5 40.5,-167.5"/>
<text text-anchor="start" x="48.5" y="-185.5" font-family="Helvetica,sans-Serif" font-size="10.00">hydra/detail/utility</text>
<text text-anchor="middle" x="87" y="-174.5" font-family="Helvetica,sans-Serif" font-size="10.00">/Generic.h</text>
</a>
</g>
</g>
<!-- Node0&#45;&gt;Node5 -->
<g id="edge5" class="edge">
<title>Node0&#45;&gt;Node5</title>
<path fill="none" stroke="midnightblue" d="M534.82,-251.53C458.92,-246.89 303.31,-234.89 174,-209 162.66,-206.73 150.66,-203.66 139.32,-200.44"/>
<polygon fill="midnightblue" stroke="midnightblue" points="140.13,-197.03 129.55,-197.59 138.17,-203.75 140.13,-197.03"/>
</g>
<!-- Node6 -->
<g id="node7" class="node">
<title>Node6</title>
<polygon fill="none" stroke="#bfbfbf" points="56,-89.5 56,-108.5 118,-108.5 118,-89.5 56,-89.5"/>
<text text-anchor="middle" x="87" y="-96.5" font-family="Helvetica,sans-Serif" font-size="10.00">type_traits</text>
</g>
<!-- Node0&#45;&gt;Node6 -->
<g id="edge25" class="edge">
<title>Node0&#45;&gt;Node6</title>
<path fill="none" stroke="midnightblue" d="M534.77,-252.55C473.88,-249.45 364.21,-239.69 276,-209 209.29,-185.79 139.49,-138.56 106.49,-114.62"/>
<polygon fill="midnightblue" stroke="midnightblue" points="108.32,-111.62 98.19,-108.52 104.18,-117.26 108.32,-111.62"/>
</g>
<!-- Node8 -->
<g id="node9" class="node">
<title>Node8</title>
<g id="a_node9"><a xlink:href="TypeTraits_8h.html" target="_top" xlink:title="hydra/detail/TypeTraits.h">
<polygon fill="none" stroke="black" points="474,-173 474,-192 598,-192 598,-173 474,-173"/>
<text text-anchor="middle" x="536" y="-180" font-family="Helvetica,sans-Serif" font-size="10.00">hydra/detail/TypeTraits.h</text>
</a>
</g>
</g>
<!-- Node0&#45;&gt;Node8 -->
<g id="edge8" class="edge">
<title>Node0&#45;&gt;Node8</title>
<path fill="none" stroke="midnightblue" d="M575.48,-245.36C568.46,-234.36 556.18,-215.11 547.17,-201"/>
<polygon fill="midnightblue" stroke="midnightblue" points="549.89,-198.76 541.56,-192.22 543.99,-202.53 549.89,-198.76"/>
</g>
<!-- Node11 -->
<g id="node12" class="node">
<title>Node11</title>
<polygon fill="none" stroke="#bfbfbf" points="262,-78.5 262,-119.5 366,-119.5 366,-78.5 262,-78.5"/>
<text text-anchor="start" x="270" y="-107.5" font-family="Helvetica,sans-Serif" font-size="10.00">hydra/detail/external</text>
<text text-anchor="start" x="270" y="-96.5" font-family="Helvetica,sans-Serif" font-size="10.00">/hydra_thrust/detail</text>
<text text-anchor="middle" x="314" y="-85.5" font-family="Helvetica,sans-Serif" font-size="10.00">/type_traits.h</text>
</g>
<!-- Node0&#45;&gt;Node11 -->
<g id="edge23" class="edge">
<title>Node0&#45;&gt;Node11</title>
<path fill="none" stroke="midnightblue" d="M552.93,-245.36C528.87,-237.43 493.66,-224.57 465,-209 420.72,-184.95 374.39,-149.78 344.92,-125.95"/>
<polygon fill="midnightblue" stroke="midnightblue" points="347.03,-123.16 337.07,-119.55 342.61,-128.58 347.03,-123.16"/>
</g>
<!-- Node18 -->
<g id="node19" class="node">
<title>Node18</title>
<polygon fill="none" stroke="#bfbfbf" points="1383,-78.5 1383,-119.5 1505,-119.5 1505,-78.5 1383,-78.5"/>
<text text-anchor="start" x="1391" y="-107.5" font-family="Helvetica,sans-Serif" font-size="10.00">hydra/detail/external</text>
<text text-anchor="start" x="1391" y="-96.5" font-family="Helvetica,sans-Serif" font-size="10.00">/hydra_thrust/type_traits</text>
<text text-anchor="middle" x="1444" y="-85.5" font-family="Helvetica,sans-Serif" font-size="10.00">/void_t.h</text>
</g>
<!-- Node0&#45;&gt;Node18 -->
<g id="edge24" class="edge">
<title>Node0&#45;&gt;Node18</title>
<path fill="none" stroke="midnightblue" d="M586.22,-245.18C599.99,-222.07 636.82,-161.22 646,-156 714.12,-117.24 1257.39,-132.16 1372.66,-119.7"/>
<polygon fill="midnightblue" stroke="midnightblue" points="1373.27,-123.15 1382.72,-118.37 1372.35,-116.22 1373.27,-123.15"/>
</g>
<!-- Node19 -->
<g id="node20" class="node">
<title>Node19</title>
<polygon fill="none" stroke="#bfbfbf" points="766,-167.5 766,-197.5 872,-197.5 872,-167.5 766,-167.5"/>
<text text-anchor="start" x="774" y="-185.5" font-family="Helvetica,sans-Serif" font-size="10.00">hydra/detail/external</text>
<text text-anchor="middle" x="819" y="-174.5" font-family="Helvetica,sans-Serif" font-size="10.00">/hydra_thrust/tuple.h</text>
</g>
<!-- Node0&#45;&gt;Node19 -->
<g id="edge21" class="edge">
<title>Node0&#45;&gt;Node19</title>
<path fill="none" stroke="midnightblue" d="M620.95,-245.46C656.93,-237.38 711.05,-224.24 757,-209 763.68,-206.78 770.66,-204.19 777.43,-201.53"/>
<polygon fill="midnightblue" stroke="midnightblue" points="779.18,-204.59 787.14,-197.6 776.56,-198.1 779.18,-204.59"/>
</g>
<!-- Node20 -->
<g id="node21" class="node">
<title>Node20</title>
<polygon fill="none" stroke="#bfbfbf" points="890,-156.5 890,-208.5 1006,-208.5 1006,-156.5 890,-156.5"/>
<text text-anchor="start" x="898" y="-196.5" font-family="Helvetica,sans-Serif" font-size="10.00">hydra/detail/external</text>
<text text-anchor="start" x="898" y="-185.5" font-family="Helvetica,sans-Serif" font-size="10.00">/hydra_thrust/iterator</text>
<text text-anchor="start" x="898" y="-174.5" font-family="Helvetica,sans-Serif" font-size="10.00">/detail/tuple_of_iterator</text>
<text text-anchor="middle" x="948" y="-163.5" font-family="Helvetica,sans-Serif" font-size="10.00">_references.h</text>
</g>
<!-- Node0&#45;&gt;Node20 -->
<g id="edge22" class="edge">
<title>Node0&#45;&gt;Node20</title>
<path fill="none" stroke="midnightblue" d="M627.11,-250.18C684.57,-244.75 785.74,-232.95 880.08,-209.01"/>
<polygon fill="midnightblue" stroke="midnightblue" points="880.97,-212.4 889.78,-206.5 879.22,-205.62 880.97,-212.4"/>
</g>
<!-- Node21 -->
<g id="node22" class="node">
<title>Node21</title>
<polygon fill="none" stroke="#bfbfbf" points="1024,-173 1024,-192 1062,-192 1062,-173 1024,-173"/>
<text text-anchor="middle" x="1043" y="-180" font-family="Helvetica,sans-Serif" font-size="10.00">tuple</text>
</g>
<!-- Node0&#45;&gt;Node21 -->
<g id="edge26" class="edge">
<title>Node0&#45;&gt;Node21</title>
<path fill="none" stroke="midnightblue" d="M627.2,-252.84C724.36,-249.81 946.56,-239.65 1015,-209 1020.12,-206.71 1024.94,-203.11 1029.08,-199.33"/>
<polygon fill="midnightblue" stroke="midnightblue" points="1031.63,-201.73 1036.14,-192.15 1026.64,-196.83 1031.63,-201.73"/>
</g>
<!-- Node2 -->
<g id="node3" class="node">
<title>Node2</title>
<polygon fill="none" stroke="#bfbfbf" points="75,-0.5 75,-41.5 179,-41.5 179,-0.5 75,-0.5"/>
<text text-anchor="start" x="83" y="-29.5" font-family="Helvetica,sans-Serif" font-size="10.00">hydra/detail/external</text>
<text text-anchor="start" x="83" y="-18.5" font-family="Helvetica,sans-Serif" font-size="10.00">/hydra_thrust/detail</text>
<text text-anchor="middle" x="127" y="-7.5" font-family="Helvetica,sans-Serif" font-size="10.00">/config.h</text>
</g>
<!-- Node1&#45;&gt;Node2 -->
<g id="edge2" class="edge">
<title>Node1&#45;&gt;Node2</title>
<path fill="none" stroke="midnightblue" d="M182.77,-89.28C174.78,-79.63 161.48,-63.6 149.88,-49.6"/>
<polygon fill="midnightblue" stroke="midnightblue" points="152.37,-47.12 143.3,-41.66 146.98,-51.59 152.37,-47.12"/>
</g>
<!-- Node3 -->
<g id="node4" class="node">
<title>Node3</title>
<polygon fill="none" stroke="#bfbfbf" points="197,-0.5 197,-41.5 307,-41.5 307,-0.5 197,-0.5"/>
<text text-anchor="start" x="205" y="-29.5" font-family="Helvetica,sans-Serif" font-size="10.00">hydra/detail/external</text>
<text text-anchor="start" x="205" y="-18.5" font-family="Helvetica,sans-Serif" font-size="10.00">/hydra_thrust/detail</text>
<text text-anchor="middle" x="252" y="-7.5" font-family="Helvetica,sans-Serif" font-size="10.00">/config/host_device.h</text>
</g>
<!-- Node1&#45;&gt;Node3 -->
<g id="edge3" class="edge">
<title>Node1&#45;&gt;Node3</title>
<path fill="none" stroke="midnightblue" d="M197.11,-89.28C204.98,-79.63 218.07,-63.6 229.48,-49.6"/>
<polygon fill="midnightblue" stroke="midnightblue" points="232.35,-51.62 235.96,-41.66 226.93,-47.19 232.35,-51.62"/>
</g>
<!-- Node5&#45;&gt;Node6 -->
<g id="edge6" class="edge">
<title>Node5&#45;&gt;Node6</title>
<path fill="none" stroke="midnightblue" d="M87,-167.3C87,-153.78 87,-133.36 87,-118.56"/>
<polygon fill="midnightblue" stroke="midnightblue" points="90.5,-118.54 87,-108.54 83.5,-118.54 90.5,-118.54"/>
</g>
<!-- Node7 -->
<g id="node8" class="node">
<title>Node7</title>
<polygon fill="none" stroke="#bfbfbf" points="0,-89.5 0,-108.5 38,-108.5 38,-89.5 0,-89.5"/>
<text text-anchor="middle" x="19" y="-96.5" font-family="Helvetica,sans-Serif" font-size="10.00">array</text>
</g>
<!-- Node5&#45;&gt;Node7 -->
<g id="edge7" class="edge">
<title>Node5&#45;&gt;Node7</title>
<path fill="none" stroke="midnightblue" d="M75.16,-167.3C63.32,-153.12 45.15,-131.34 32.7,-116.42"/>
<polygon fill="midnightblue" stroke="midnightblue" points="35.22,-113.98 26.12,-108.54 29.84,-118.46 35.22,-113.98"/>
</g>
<!-- Node8&#45;&gt;Node1 -->
<g id="edge9" class="edge">
<title>Node8&#45;&gt;Node1</title>
<path fill="none" stroke="midnightblue" d="M490.6,-172.99C434.43,-162.16 336.07,-142.16 253,-120 243.72,-117.52 233.77,-114.53 224.58,-111.62"/>
<polygon fill="midnightblue" stroke="midnightblue" points="225.57,-108.26 214.98,-108.52 223.42,-114.92 225.57,-108.26"/>
</g>
<!-- Node8&#45;&gt;Node6 -->
<g id="edge10" class="edge">
<title>Node8&#45;&gt;Node6</title>
<path fill="none" stroke="midnightblue" d="M473.66,-178.21C392.26,-172.56 246.12,-157.69 127,-120 121.45,-118.24 115.72,-115.8 110.39,-113.22"/>
<polygon fill="midnightblue" stroke="midnightblue" points="111.84,-110.03 101.35,-108.56 108.63,-116.25 111.84,-110.03"/>
</g>
<!-- Node9 -->
<g id="node10" class="node">
<title>Node9</title>
<polygon fill="none" stroke="#bfbfbf" points="516,-89.5 516,-108.5 556,-108.5 556,-89.5 516,-89.5"/>
<text text-anchor="middle" x="536" y="-96.5" font-family="Helvetica,sans-Serif" font-size="10.00">limits</text>
</g>
<!-- Node8&#45;&gt;Node9 -->
<g id="edge11" class="edge">
<title>Node8&#45;&gt;Node9</title>
<path fill="none" stroke="midnightblue" d="M536,-172.78C536,-160.03 536,-136 536,-119.04"/>
<polygon fill="midnightblue" stroke="midnightblue" points="539.5,-118.66 536,-108.66 532.5,-118.66 539.5,-118.66"/>
</g>
<!-- Node10 -->
<g id="node11" class="node">
<title>Node10</title>
<polygon fill="none" stroke="#bfbfbf" points="574,-84 574,-114 696,-114 696,-84 574,-84"/>
<text text-anchor="start" x="582" y="-102" font-family="Helvetica,sans-Serif" font-size="10.00">hydra/detail/external</text>
<text text-anchor="middle" x="635" y="-91" font-family="Helvetica,sans-Serif" font-size="10.00">/hydra_thrust/complex.h</text>
</g>
<!-- Node8&#45;&gt;Node10 -->
<g id="edge12" class="edge">
<title>Node8&#45;&gt;Node10</title>
<path fill="none" stroke="midnightblue" d="M546.59,-172.78C561.59,-160.43 589.45,-137.5 609.9,-120.67"/>
<polygon fill="midnightblue" stroke="midnightblue" points="612.38,-123.16 617.88,-114.1 607.93,-117.75 612.38,-123.16"/>
</g>
<!-- Node8&#45;&gt;Node11 -->
<g id="edge13" class="edge">
<title>Node8&#45;&gt;Node11</title>
<path fill="none" stroke="midnightblue" d="M512.66,-172.93C480.44,-161.1 421.17,-139.34 375.73,-122.66"/>
<polygon fill="midnightblue" stroke="midnightblue" points="376.85,-119.34 366.25,-119.18 374.43,-125.91 376.85,-119.34"/>
</g>
<!-- Node12 -->
<g id="node13" class="node">
<title>Node12</title>
<polygon fill="none" stroke="#bfbfbf" points="714.5,-78.5 714.5,-119.5 833.5,-119.5 833.5,-78.5 714.5,-78.5"/>
<text text-anchor="start" x="722.5" y="-107.5" font-family="Helvetica,sans-Serif" font-size="10.00">hydra/detail/external</text>
<text text-anchor="start" x="722.5" y="-96.5" font-family="Helvetica,sans-Serif" font-size="10.00">/hydra_thrust/execution</text>
<text text-anchor="middle" x="774" y="-85.5" font-family="Helvetica,sans-Serif" font-size="10.00">_policy.h</text>
</g>
<!-- Node8&#45;&gt;Node12 -->
<g id="edge14" class="edge">
<title>Node8&#45;&gt;Node12</title>
<path fill="none" stroke="midnightblue" d="M561.02,-172.93C595.48,-161.13 658.81,-139.44 707.49,-122.78"/>
<polygon fill="midnightblue" stroke="midnightblue" points="708.69,-126.06 717.02,-119.51 706.42,-119.44 708.69,-126.06"/>
</g>
<!-- Node13 -->
<g id="node14" class="node">
<title>Node13</title>
<polygon fill="none" stroke="#bfbfbf" points="852,-78.5 852,-119.5 960,-119.5 960,-78.5 852,-78.5"/>
<text text-anchor="start" x="860" y="-107.5" font-family="Helvetica,sans-Serif" font-size="10.00">hydra/detail/external</text>
<text text-anchor="start" x="860" y="-96.5" font-family="Helvetica,sans-Serif" font-size="10.00">/hydra_thrust/iterator</text>
<text text-anchor="middle" x="906" y="-85.5" font-family="Helvetica,sans-Serif" font-size="10.00">/iterator_categories.h</text>
</g>
<!-- Node8&#45;&gt;Node13 -->
<g id="edge15" class="edge">
<title>Node8&#45;&gt;Node13</title>
<path fill="none" stroke="midnightblue" d="M558.32,-172.9C573.31,-167.4 593.61,-160.48 612,-156 709.89,-132.13 740.04,-143.07 842.08,-120.03"/>
<polygon fill="midnightblue" stroke="midnightblue" points="842.9,-123.43 851.85,-117.77 841.32,-116.61 842.9,-123.43"/>
</g>
<!-- Node14 -->
<g id="node15" class="node">
<title>Node14</title>
<polygon fill="none" stroke="#bfbfbf" points="978,-78.5 978,-119.5 1116,-119.5 1116,-78.5 978,-78.5"/>
<text text-anchor="start" x="986" y="-107.5" font-family="Helvetica,sans-Serif" font-size="10.00">hydra/detail/external</text>
<text text-anchor="start" x="986" y="-96.5" font-family="Helvetica,sans-Serif" font-size="10.00">/hydra_thrust/iterator</text>
<text text-anchor="middle" x="1047" y="-85.5" font-family="Helvetica,sans-Serif" font-size="10.00">/detail/is_iterator_category.h</text>
</g>
<!-- Node8&#45;&gt;Node14 -->
<g id="edge16" class="edge">
<title>Node8&#45;&gt;Node14</title>
<path fill="none" stroke="midnightblue" d="M557.26,-172.94C572.31,-167.24 593.09,-160.07 612,-156 764.7,-123.12 810.13,-146.86 967.75,-120.07"/>
<polygon fill="midnightblue" stroke="midnightblue" points="968.54,-123.48 977.8,-118.32 967.34,-116.59 968.54,-123.48"/>
</g>
<!-- Node15 -->
<g id="node16" class="node">
<title>Node15</title>
<polygon fill="none" stroke="#bfbfbf" points="1134.5,-78.5 1134.5,-119.5 1241.5,-119.5 1241.5,-78.5 1134.5,-78.5"/>
<text text-anchor="start" x="1142.5" y="-107.5" font-family="Helvetica,sans-Serif" font-size="10.00">hydra/detail/external</text>
<text text-anchor="start" x="1142.5" y="-96.5" font-family="Helvetica,sans-Serif" font-size="10.00">/hydra_thrust/iterator</text>
<text text-anchor="middle" x="1188" y="-85.5" font-family="Helvetica,sans-Serif" font-size="10.00">/iterator_traits.h</text>
</g>
<!-- Node8&#45;&gt;Node15 -->
<g id="edge17" class="edge">
<title>Node8&#45;&gt;Node15</title>
<path fill="none" stroke="midnightblue" d="M556.9,-172.89C571.95,-167.08 592.89,-159.81 612,-156 832.97,-111.92 898.64,-161.44 1124.43,-119.83"/>
<polygon fill="midnightblue" stroke="midnightblue" points="1125.08,-123.27 1134.26,-117.98 1123.79,-116.39 1125.08,-123.27"/>
</g>
<!-- Node16 -->
<g id="node17" class="node">
<title>Node16</title>
<polygon fill="none" stroke="#bfbfbf" points="1259.5,-78.5 1259.5,-119.5 1364.5,-119.5 1364.5,-78.5 1259.5,-78.5"/>
<text text-anchor="start" x="1267.5" y="-107.5" font-family="Helvetica,sans-Serif" font-size="10.00">hydra/detail/external</text>
<text text-anchor="start" x="1267.5" y="-96.5" font-family="Helvetica,sans-Serif" font-size="10.00">/hydra_thrust/device</text>
<text text-anchor="middle" x="1312" y="-85.5" font-family="Helvetica,sans-Serif" font-size="10.00">_reference.h</text>
</g>
<!-- Node8&#45;&gt;Node16 -->
<g id="edge18" class="edge">
<title>Node8&#45;&gt;Node16</title>
<path fill="none" stroke="midnightblue" d="M556.56,-172.93C571.63,-167.07 592.73,-159.71 612,-156 888.06,-102.91 969.58,-171.12 1249.29,-120.07"/>
<polygon fill="midnightblue" stroke="midnightblue" points="1250.13,-123.47 1259.32,-118.2 1248.85,-116.59 1250.13,-123.47"/>
</g>
<!-- Node17 -->
<g id="node18" class="node">
<title>Node17</title>
<polygon fill="none" stroke="#bfbfbf" points="384.5,-78.5 384.5,-119.5 497.5,-119.5 497.5,-78.5 384.5,-78.5"/>
<text text-anchor="start" x="392.5" y="-107.5" font-family="Helvetica,sans-Serif" font-size="10.00">hydra/detail/external</text>
<text text-anchor="start" x="392.5" y="-96.5" font-family="Helvetica,sans-Serif" font-size="10.00">/hydra_thrust/detail</text>
<text text-anchor="middle" x="441" y="-85.5" font-family="Helvetica,sans-Serif" font-size="10.00">/raw_reference_cast.h</text>
</g>
<!-- Node8&#45;&gt;Node17 -->
<g id="edge19" class="edge">
<title>Node8&#45;&gt;Node17</title>
<path fill="none" stroke="midnightblue" d="M525.83,-172.78C513.02,-161.78 490.41,-142.38 471.75,-126.38"/>
<polygon fill="midnightblue" stroke="midnightblue" points="473.9,-123.62 464.03,-119.76 469.35,-128.93 473.9,-123.62"/>
</g>
<!-- Node8&#45;&gt;Node18 -->
<g id="edge20" class="edge">
<title>Node8&#45;&gt;Node18</title>
<path fill="none" stroke="midnightblue" d="M556.55,-172.88C571.62,-166.99 592.71,-159.62 612,-156 941.98,-94.09 1037.57,-173.36 1372.74,-119.99"/>
<polygon fill="midnightblue" stroke="midnightblue" points="1373.41,-123.43 1382.72,-118.37 1372.29,-116.52 1373.41,-123.43"/>
</g>
</g>
</svg>
        <g id="navigator" transform="translate(0 0)" fill="#404254">
                <rect fill="#f2f5e9" fill-opacity="0.5" stroke="#606060" stroke-width=".5" x="0" y="0" width="60" height="60"/>
                <use id="zoomplus" xlink:href="#zoomPlus" x="17" y="9" onmousedown="handleZoom(evt,'in')"/>
                <use id="zoomminus" xlink:href="#zoomMin" x="42" y="9" onmousedown="handleZoom(evt,'out')"/>
                <use id="reset" xlink:href="#resetDef" x="30" y="36" onmousedown="handleReset()"/>
                <g id="arrowUp" xlink:href="#dirArrow" transform="translate(30 24)" onmousedown="handlePan(0,-1)">
                  <use xlink:href="#rim" fill="#404040">
                        <set attributeName="fill" to="#808080" begin="arrowUp.mouseover" end="arrowUp.mouseout"/>
                  </use>
                  <path fill="none" stroke="white" stroke-width="1.5" d="M0,-3.0v7 M-2.5,-0.5L0,-3.0L2.5,-0.5"/>
                </g>
                <g id="arrowRight" xlink:href="#dirArrow" transform="rotate(90) translate(36 -43)" onmousedown="handlePan(1,0)">
                  <use xlink:href="#rim" fill="#404040">
                        <set attributeName="fill" to="#808080" begin="arrowRight.mouseover" end="arrowRight.mouseout"/>
                  </use>
                  <path fill="none" stroke="white" stroke-width="1.5" d="M0,-3.0v7 M-2.5,-0.5L0,-3.0L2.5,-0.5"/>
                </g>
                <g id="arrowDown" xlink:href="#dirArrow" transform="rotate(180) translate(-30 -48)" onmousedown="handlePan(0,1)">
                  <use xlink:href="#rim" fill="#404040">
                        <set attributeName="fill" to="#808080" begin="arrowDown.mouseover" end="arrowDown.mouseout"/>
                  </use>
                  <path fill="none" stroke="white" stroke-width="1.5" d="M0,-3.0v7 M-2.5,-0.5L0,-3.0L2.5,-0.5"/>
                </g>
                <g id="arrowLeft" xlink:href="#dirArrow" transform="rotate(270) translate(-36 17)" onmousedown="handlePan(-1,0)">
                  <use xlink:href="#rim" fill="#404040">
                        <set attributeName="fill" to="#808080" begin="arrowLeft.mouseover" end="arrowLeft.mouseout"/>
                  </use>
                  <path fill="none" stroke="white" stroke-width="1.5" d="M0,-3.0v7 M-2.5,-0.5L0,-3.0L2.5,-0.5"/>
                </g>
        </g>
        <svg viewBox="0 0 15 15" width="100%" height="30px" preserveAspectRatio="xMaxYMin meet">
         <g id="arrow_out" transform="scale(0.3 0.3)">
          <a xlink:href="ArgumentTraits_8h__incl_org.svg" target="_base">
           <rect id="button" ry="5" rx="5" y="6" x="6" height="38" width="38"
                fill="#f2f5e9" fill-opacity="0.5" stroke="#606060" stroke-width="1.0"/>
           <path id="arrow"
             d="M 11.500037,31.436501 C 11.940474,20.09759 22.043105,11.32322 32.158766,21.979434 L 37.068811,17.246167 C 37.068811,17.246167 37.088388,32 37.088388,32 L 22.160133,31.978069 C 22.160133,31.978069 26.997745,27.140456 26.997745,27.140456 C 18.528582,18.264221 13.291696,25.230495 11.500037,31.436501 z"
             style="fill:#404040;"/>
          </a>
         </g>
        </svg>
</svg>
