<?xml version="1.0" encoding="UTF-8" standalone="no"?>
<!DOCTYPE svg PUBLIC "-//W3C//DTD SVG 1.1//EN"
 "http://www.w3.org/Graphics/SVG/1.1/DTD/svg11.dtd">
<!-- Generated by graphviz version 2.42.4 (0)
 -->
<!-- Title: Argument.h Pages: 1 -->
<!--zoomable 463 -->
<svg id="main" version="1.1" xmlns="http://www.w3.org/2000/svg" xmlns:xlink="http://www.w3.org/1999/xlink" xml:space="preserve" onload="init(evt)">
<style type="text/css"><![CDATA[
.edge:hover path { stroke: red; }
.edge:hover polygon { stroke: red; fill: red; }
]]></style>
<script type="text/javascript"><![CDATA[
var edges = document.getElementsByTagName('g');
if (edges && edges.length) {
  for (var i=0;i<edges.length;i++) {
    if (edges[i].id.substr(0,4)=='edge') {
      edges[i].setAttribute('class','edge');
    }
  }
}
]]></script>
        <defs>
                <circle id="rim" cx="0" cy="0" r="7"/>
                <circle id="rim2" cx="0" cy="0" r="3.5"/>
                <g id="zoomPlus">
                        <use xlink:href="#rim" fill="#404040">
                                <set attributeName="fill" to="#808080" begin="zoomplus.mouseover" end="zoomplus.mouseout"/>
                        </use>
                        <path d="M-4,0h8M0,-4v8" fill="none" stroke="white" stroke-width="1.5" pointer-events="none"/>
                </g>
                <g id="zoomMin">
                        <use xlink:href="#rim" fill="#404040">
                                <set attributeName="fill" to="#808080" begin="zoomminus.mouseover" end="zoomminus.mouseout"/>
                        </use>
                        <path d="M-4,0h8" fill="none" stroke="white" stroke-width="1.5" pointer-events="none"/>
                </g>
                <g id="dirArrow">
                        <path fill="none" stroke="white" stroke-width="1.5" d="M0,-3.0v7 M-2.5,-0.5L0,-3.0L2.5,-0.5"/>
                </g>
               <g id="resetDef">
                       <use xlink:href="#rim2" fill="#404040">
                               <set attributeName="fill" to="#808080" begin="reset.mouseover" end="reset.mouseout"/>
                       </use>
               </g>
        </defs>

<script type="text/javascript">
var viewWidth = 2027;
var viewHeight = 463;
var sectionId = 'dynsection-0';
</script>
<script xlink:href="svgpan.js"/>
<svg id="graph" class="graph">
<g id="viewport">
<title>Argument.h</title>
<!-- Node0 -->
<g id="node1" class="node">
<title>Node0</title>
<polygon fill="#bfbfbf" stroke="black" points="1138.5,-435.5 1138.5,-454.5 1205.5,-454.5 1205.5,-435.5 1138.5,-435.5"/>
<text text-anchor="middle" x="1172" y="-442.5" font-family="Helvetica,sans-Serif" font-size="10.00">Argument.h</text>
</g>
<!-- Node1 -->
<g id="node2" class="node">
<title>Node1</title>
<polygon fill="none" stroke="#bfbfbf" points="1120,-89.5 1120,-108.5 1182,-108.5 1182,-89.5 1120,-89.5"/>
<text text-anchor="middle" x="1151" y="-96.5" font-family="Helvetica,sans-Serif" font-size="10.00">type_traits</text>
</g>
<!-- Node0&#45;&gt;Node1 -->
<g id="edge1" class="edge">
<title>Node0&#45;&gt;Node1</title>
<path fill="none" stroke="midnightblue" d="M1138.33,-441.22C1044.18,-432.53 785,-401.95 785,-328.5 785,-328.5 785,-328.5 785,-248.5 785,-92.76 963.39,-169.65 1111,-120 1116.43,-118.17 1122.05,-115.74 1127.3,-113.2"/>
<polygon fill="midnightblue" stroke="midnightblue" points="1128.93,-116.3 1136.23,-108.62 1125.74,-110.07 1128.93,-116.3"/>
</g>
<!-- Node2 -->
<g id="node3" class="node">
<title>Node2</title>
<g id="a_node3"><a xlink:href="Config_8h.html" target="_top" xlink:title="hydra/detail/Config.h">
<polygon fill="none" stroke="black" points="1848.5,-89.5 1848.5,-108.5 1955.5,-108.5 1955.5,-89.5 1848.5,-89.5"/>
<text text-anchor="middle" x="1902" y="-96.5" font-family="Helvetica,sans-Serif" font-size="10.00">hydra/detail/Config.h</text>
</a>
</g>
</g>
<!-- Node0&#45;&gt;Node2 -->
<g id="edge2" class="edge">
<title>Node0&#45;&gt;Node2</title>
<path fill="none" stroke="midnightblue" d="M1205.62,-442.9C1360.42,-437.39 1997,-409.81 1997,-328.5 1997,-328.5 1997,-328.5 1997,-248.5 1997,-192.47 1948.42,-140.64 1920.74,-115.65"/>
<polygon fill="midnightblue" stroke="midnightblue" points="1922.73,-112.74 1912.9,-108.78 1918.12,-118 1922.73,-112.74"/>
</g>
<!-- Node5 -->
<g id="node6" class="node">
<title>Node5</title>
<g id="a_node6"><a xlink:href="Types_8h.html" target="_top" xlink:title="Common and useful typedefs. ">
<polygon fill="none" stroke="black" points="936,-162 936,-181 1014,-181 1014,-162 936,-162"/>
<text text-anchor="middle" x="975" y="-169" font-family="Helvetica,sans-Serif" font-size="10.00">hydra/Types.h</text>
</a>
</g>
</g>
<!-- Node0&#45;&gt;Node5 -->
<g id="edge5" class="edge">
<title>Node0&#45;&gt;Node5</title>
<path fill="none" stroke="midnightblue" d="M1149.46,-435.4C1113.65,-420.83 1043.1,-388.42 997,-343 956.96,-303.54 947.42,-278.4 957,-223 958.91,-211.94 963.02,-200.09 966.83,-190.65"/>
<polygon fill="midnightblue" stroke="midnightblue" points="970.16,-191.76 970.87,-181.19 963.72,-189.01 970.16,-191.76"/>
</g>
<!-- Node6 -->
<g id="node7" class="node">
<title>Node6</title>
<g id="a_node7"><a xlink:href="Utility__Tuple_8h.html" target="_top" xlink:title="hydra/detail/utility\l/Utility_Tuple.h">
<polygon fill="none" stroke="black" points="1220.5,-312.5 1220.5,-342.5 1313.5,-342.5 1313.5,-312.5 1220.5,-312.5"/>
<text text-anchor="start" x="1228.5" y="-330.5" font-family="Helvetica,sans-Serif" font-size="10.00">hydra/detail/utility</text>
<text text-anchor="middle" x="1267" y="-319.5" font-family="Helvetica,sans-Serif" font-size="10.00">/Utility_Tuple.h</text>
</a>
</g>
</g>
<!-- Node0&#45;&gt;Node6 -->
<g id="edge6" class="edge">
<title>Node0&#45;&gt;Node6</title>
<path fill="none" stroke="midnightblue" d="M1195.95,-435.49C1212.88,-428.29 1234.83,-416.34 1248,-399 1258.08,-385.73 1262.82,-367.49 1265.04,-352.89"/>
<polygon fill="midnightblue" stroke="midnightblue" points="1268.57,-352.93 1266.3,-342.58 1261.62,-352.08 1268.57,-352.93"/>
</g>
<!-- Node30 -->
<g id="node31" class="node">
<title>Node30</title>
<g id="a_node31"><a xlink:href="base__functor_8h.html" target="_top" xlink:title="hydra/detail/base_functor.h">
<polygon fill="none" stroke="black" points="1105,-379.5 1105,-398.5 1239,-398.5 1239,-379.5 1105,-379.5"/>
<text text-anchor="middle" x="1172" y="-386.5" font-family="Helvetica,sans-Serif" font-size="10.00">hydra/detail/base_functor.h</text>
</a>
</g>
</g>
<!-- Node0&#45;&gt;Node30 -->
<g id="edge46" class="edge">
<title>Node0&#45;&gt;Node30</title>
<path fill="none" stroke="midnightblue" d="M1172,-435.08C1172,-428.01 1172,-417.86 1172,-408.99"/>
<polygon fill="midnightblue" stroke="midnightblue" points="1175.5,-408.75 1172,-398.75 1168.5,-408.75 1175.5,-408.75"/>
</g>
<!-- Node3 -->
<g id="node4" class="node">
<title>Node3</title>
<polygon fill="none" stroke="#bfbfbf" points="1787,-0.5 1787,-41.5 1891,-41.5 1891,-0.5 1787,-0.5"/>
<text text-anchor="start" x="1795" y="-29.5" font-family="Helvetica,sans-Serif" font-size="10.00">hydra/detail/external</text>
<text text-anchor="start" x="1795" y="-18.5" font-family="Helvetica,sans-Serif" font-size="10.00">/hydra_thrust/detail</text>
<text text-anchor="middle" x="1839" y="-7.5" font-family="Helvetica,sans-Serif" font-size="10.00">/config.h</text>
</g>
<!-- Node2&#45;&gt;Node3 -->
<g id="edge3" class="edge">
<title>Node2&#45;&gt;Node3</title>
<path fill="none" stroke="midnightblue" d="M1894.77,-89.28C1886.78,-79.63 1873.48,-63.6 1861.88,-49.6"/>
<polygon fill="midnightblue" stroke="midnightblue" points="1864.37,-47.12 1855.3,-41.66 1858.98,-51.59 1864.37,-47.12"/>
</g>
<!-- Node4 -->
<g id="node5" class="node">
<title>Node4</title>
<polygon fill="none" stroke="#bfbfbf" points="1909,-0.5 1909,-41.5 2019,-41.5 2019,-0.5 1909,-0.5"/>
<text text-anchor="start" x="1917" y="-29.5" font-family="Helvetica,sans-Serif" font-size="10.00">hydra/detail/external</text>
<text text-anchor="start" x="1917" y="-18.5" font-family="Helvetica,sans-Serif" font-size="10.00">/hydra_thrust/detail</text>
<text text-anchor="middle" x="1964" y="-7.5" font-family="Helvetica,sans-Serif" font-size="10.00">/config/host_device.h</text>
</g>
<!-- Node2&#45;&gt;Node4 -->
<g id="edge4" class="edge">
<title>Node2&#45;&gt;Node4</title>
<path fill="none" stroke="midnightblue" d="M1909.11,-89.28C1916.98,-79.63 1930.07,-63.6 1941.48,-49.6"/>
<polygon fill="midnightblue" stroke="midnightblue" points="1944.35,-51.62 1947.96,-41.66 1938.93,-47.19 1944.35,-51.62"/>
</g>
<!-- Node6&#45;&gt;Node1 -->
<g id="edge44" class="edge">
<title>Node6&#45;&gt;Node1</title>
<path fill="none" stroke="midnightblue" d="M1313.57,-324.41C1381.39,-320.28 1502.2,-308.46 1529,-276 1544,-257.84 1541.44,-243 1529,-223 1509.9,-192.28 1486.56,-206.37 1456,-187 1437.3,-175.15 1437.04,-165.42 1417,-156 1342.73,-121.08 1246.61,-107.76 1192.61,-102.81"/>
<polygon fill="midnightblue" stroke="midnightblue" points="1192.65,-99.3 1182.38,-101.93 1192.05,-106.27 1192.65,-99.3"/>
</g>
<!-- Node6&#45;&gt;Node2 -->
<g id="edge7" class="edge">
<title>Node6&#45;&gt;Node2</title>
<path fill="none" stroke="midnightblue" d="M1313.55,-326C1426.41,-324.18 1711.59,-315.65 1797,-276 1848.31,-252.18 1861.98,-237.23 1888,-187 1899.19,-165.4 1901.88,-137.07 1902.31,-118.7"/>
<polygon fill="midnightblue" stroke="midnightblue" points="1905.81,-118.72 1902.35,-108.7 1898.81,-118.69 1905.81,-118.72"/>
</g>
<!-- Node6&#45;&gt;Node5 -->
<g id="edge8" class="edge">
<title>Node6&#45;&gt;Node5</title>
<path fill="none" stroke="midnightblue" d="M1220.38,-324.12C1150.93,-319.57 1025.12,-307.16 994,-276 971.7,-253.67 970.84,-214.35 972.65,-191.14"/>
<polygon fill="midnightblue" stroke="midnightblue" points="976.13,-191.48 973.66,-181.18 969.16,-190.77 976.13,-191.48"/>
</g>
<!-- Node7 -->
<g id="node8" class="node">
<title>Node7</title>
<g id="a_node8"><a xlink:href="Generic_8h.html" target="_top" xlink:title="hydra/detail/utility\l/Generic.h">
<polygon fill="none" stroke="black" points="1140.5,-234.5 1140.5,-264.5 1233.5,-264.5 1233.5,-234.5 1140.5,-234.5"/>
<text text-anchor="start" x="1148.5" y="-252.5" font-family="Helvetica,sans-Serif" font-size="10.00">hydra/detail/utility</text>
<text text-anchor="middle" x="1187" y="-241.5" font-family="Helvetica,sans-Serif" font-size="10.00">/Generic.h</text>
</a>
</g>
</g>
<!-- Node6&#45;&gt;Node7 -->
<g id="edge9" class="edge">
<title>Node6&#45;&gt;Node7</title>
<path fill="none" stroke="midnightblue" d="M1251.95,-312.2C1240,-300.85 1223.09,-284.78 1209.52,-271.89"/>
<polygon fill="midnightblue" stroke="midnightblue" points="1211.64,-269.08 1201.98,-264.73 1206.82,-274.16 1211.64,-269.08"/>
</g>
<!-- Node8 -->
<g id="node9" class="node">
<title>Node8</title>
<polygon fill="none" stroke="#bfbfbf" points="1179,-162 1179,-181 1217,-181 1217,-162 1179,-162"/>
<text text-anchor="middle" x="1198" y="-169" font-family="Helvetica,sans-Serif" font-size="10.00">array</text>
</g>
<!-- Node6&#45;&gt;Node8 -->
<g id="edge45" class="edge">
<title>Node6&#45;&gt;Node8</title>
<path fill="none" stroke="midnightblue" d="M1265.74,-312.37C1263.43,-291.72 1257.27,-252.56 1242,-223 1235.24,-209.92 1224.41,-197.43 1215.19,-188.15"/>
<polygon fill="midnightblue" stroke="midnightblue" points="1217.57,-185.58 1207.94,-181.16 1212.71,-190.62 1217.57,-185.58"/>
</g>
<!-- Node9 -->
<g id="node10" class="node">
<title>Node9</title>
<g id="a_node10"><a xlink:href="TagTraits_8h.html" target="_top" xlink:title="hydra/detail/TagTraits.h">
<polygon fill="none" stroke="black" points="1003.5,-240 1003.5,-259 1122.5,-259 1122.5,-240 1003.5,-240"/>
<text text-anchor="middle" x="1063" y="-247" font-family="Helvetica,sans-Serif" font-size="10.00">hydra/detail/TagTraits.h</text>
</a>
</g>
</g>
<!-- Node6&#45;&gt;Node9 -->
<g id="edge12" class="edge">
<title>Node6&#45;&gt;Node9</title>
<path fill="none" stroke="midnightblue" d="M1229.18,-312.49C1201.88,-302.37 1164.15,-288.37 1131,-276 1119.31,-271.64 1106.49,-266.83 1095.16,-262.58"/>
<polygon fill="midnightblue" stroke="midnightblue" points="1096.25,-259.26 1085.66,-259.02 1093.79,-265.81 1096.25,-259.26"/>
</g>
<!-- Node10 -->
<g id="node11" class="node">
<title>Node10</title>
<g id="a_node11"><a xlink:href="FunctorTraits_8h.html" target="_top" xlink:title="hydra/detail/FunctorTraits.h">
<polygon fill="none" stroke="black" points="1652,-240 1652,-259 1788,-259 1788,-240 1652,-240"/>
<text text-anchor="middle" x="1720" y="-247" font-family="Helvetica,sans-Serif" font-size="10.00">hydra/detail/FunctorTraits.h</text>
</a>
</g>
</g>
<!-- Node6&#45;&gt;Node10 -->
<g id="edge15" class="edge">
<title>Node6&#45;&gt;Node10</title>
<path fill="none" stroke="midnightblue" d="M1313.75,-320.3C1378.31,-311.53 1498.32,-294.5 1600,-276 1624.08,-271.62 1650.72,-266.03 1672.77,-261.21"/>
<polygon fill="midnightblue" stroke="midnightblue" points="1673.54,-264.62 1682.55,-259.05 1672.03,-257.79 1673.54,-264.62"/>
</g>
<!-- Node12 -->
<g id="node13" class="node">
<title>Node12</title>
<polygon fill="none" stroke="#bfbfbf" points="1465,-156.5 1465,-186.5 1571,-186.5 1571,-156.5 1465,-156.5"/>
<text text-anchor="start" x="1473" y="-174.5" font-family="Helvetica,sans-Serif" font-size="10.00">hydra/detail/external</text>
<text text-anchor="middle" x="1518" y="-163.5" font-family="Helvetica,sans-Serif" font-size="10.00">/hydra_thrust/tuple.h</text>
</g>
<!-- Node6&#45;&gt;Node12 -->
<g id="edge41" class="edge">
<title>Node6&#45;&gt;Node12</title>
<path fill="none" stroke="midnightblue" d="M1313.52,-325.54C1388.47,-322.91 1530.76,-313.04 1562,-276 1577.19,-257.99 1570.26,-245.06 1562,-223 1557.98,-212.27 1550.54,-202.32 1542.91,-194.14"/>
<polygon fill="midnightblue" stroke="midnightblue" points="1545.18,-191.46 1535.63,-186.87 1540.23,-196.41 1545.18,-191.46"/>
</g>
<!-- Node15 -->
<g id="node16" class="node">
<title>Node15</title>
<g id="a_node16"><a xlink:href="Parameter_8h.html" target="_top" xlink:title="hydra/Parameter.h">
<polygon fill="none" stroke="black" points="1290,-240 1290,-259 1386,-259 1386,-240 1290,-240"/>
<text text-anchor="middle" x="1338" y="-247" font-family="Helvetica,sans-Serif" font-size="10.00">hydra/Parameter.h</text>
</a>
</g>
</g>
<!-- Node6&#45;&gt;Node15 -->
<g id="edge22" class="edge">
<title>Node6&#45;&gt;Node15</title>
<path fill="none" stroke="midnightblue" d="M1280.35,-312.2C1292.46,-299.24 1310.3,-280.16 1322.91,-266.65"/>
<polygon fill="midnightblue" stroke="midnightblue" points="1325.73,-268.76 1330,-259.06 1320.62,-263.98 1325.73,-268.76"/>
</g>
<!-- Node19 -->
<g id="node20" class="node">
<title>Node19</title>
<polygon fill="none" stroke="#bfbfbf" points="998,-78.5 998,-119.5 1102,-119.5 1102,-78.5 998,-78.5"/>
<text text-anchor="start" x="1006" y="-107.5" font-family="Helvetica,sans-Serif" font-size="10.00">hydra/detail/external</text>
<text text-anchor="start" x="1006" y="-96.5" font-family="Helvetica,sans-Serif" font-size="10.00">/hydra_thrust/detail</text>
<text text-anchor="middle" x="1050" y="-85.5" font-family="Helvetica,sans-Serif" font-size="10.00">/type_traits.h</text>
</g>
<!-- Node6&#45;&gt;Node19 -->
<g id="edge42" class="edge">
<title>Node6&#45;&gt;Node19</title>
<path fill="none" stroke="midnightblue" d="M1220.36,-323.73C1146.93,-318.53 1008.73,-305.11 970,-276 924.71,-241.96 896.34,-203.64 927,-156 934.55,-144.26 961.65,-131.34 988.5,-120.87"/>
<polygon fill="midnightblue" stroke="midnightblue" points="989.85,-124.1 997.95,-117.27 987.36,-117.56 989.85,-124.1"/>
</g>
<!-- Node29 -->
<g id="node30" class="node">
<title>Node29</title>
<polygon fill="none" stroke="#bfbfbf" points="1404,-223.5 1404,-275.5 1520,-275.5 1520,-223.5 1404,-223.5"/>
<text text-anchor="start" x="1412" y="-263.5" font-family="Helvetica,sans-Serif" font-size="10.00">hydra/detail/external</text>
<text text-anchor="start" x="1412" y="-252.5" font-family="Helvetica,sans-Serif" font-size="10.00">/hydra_thrust/iterator</text>
<text text-anchor="start" x="1412" y="-241.5" font-family="Helvetica,sans-Serif" font-size="10.00">/detail/tuple_of_iterator</text>
<text text-anchor="middle" x="1462" y="-230.5" font-family="Helvetica,sans-Serif" font-size="10.00">_references.h</text>
</g>
<!-- Node6&#45;&gt;Node29 -->
<g id="edge43" class="edge">
<title>Node6&#45;&gt;Node29</title>
<path fill="none" stroke="midnightblue" d="M1303.22,-312.38C1328.77,-302.42 1363.77,-288.78 1394.41,-276.84"/>
<polygon fill="midnightblue" stroke="midnightblue" points="1395.71,-280.09 1403.76,-273.2 1393.17,-273.57 1395.71,-280.09"/>
</g>
<!-- Node7&#45;&gt;Node1 -->
<g id="edge10" class="edge">
<title>Node7&#45;&gt;Node1</title>
<path fill="none" stroke="midnightblue" d="M1182.86,-234.39C1179.28,-221.96 1174.04,-203.35 1170,-187 1164.19,-163.5 1158.38,-136.19 1154.74,-118.53"/>
<polygon fill="midnightblue" stroke="midnightblue" points="1158.16,-117.78 1152.73,-108.68 1151.3,-119.18 1158.16,-117.78"/>
</g>
<!-- Node7&#45;&gt;Node8 -->
<g id="edge11" class="edge">
<title>Node7&#45;&gt;Node8</title>
<path fill="none" stroke="midnightblue" d="M1189.07,-234.2C1190.84,-221.98 1193.4,-204.3 1195.32,-190.99"/>
<polygon fill="midnightblue" stroke="midnightblue" points="1198.79,-191.46 1196.76,-181.06 1191.86,-190.46 1198.79,-191.46"/>
</g>
<!-- Node9&#45;&gt;Node1 -->
<g id="edge13" class="edge">
<title>Node9&#45;&gt;Node1</title>
<path fill="none" stroke="midnightblue" d="M1068.24,-239.66C1082.46,-215.66 1121.95,-149.02 1140.77,-117.26"/>
<polygon fill="midnightblue" stroke="midnightblue" points="1143.81,-119 1145.9,-108.61 1137.79,-115.43 1143.81,-119"/>
</g>
<!-- Node9&#45;&gt;Node5 -->
<g id="edge14" class="edge">
<title>Node9&#45;&gt;Node5</title>
<path fill="none" stroke="midnightblue" d="M1052.91,-239.78C1038.32,-227.18 1011.11,-203.69 993.03,-188.07"/>
<polygon fill="midnightblue" stroke="midnightblue" points="994.83,-185 984.98,-181.12 990.26,-190.3 994.83,-185"/>
</g>
<!-- Node10&#45;&gt;Node1 -->
<g id="edge21" class="edge">
<title>Node10&#45;&gt;Node1</title>
<path fill="none" stroke="midnightblue" d="M1702.18,-239.88C1680.29,-228.93 1642.43,-208.82 1613,-187 1596.83,-175.02 1598.19,-164.61 1580,-156 1545.33,-139.59 1292.84,-113.71 1192.22,-103.93"/>
<polygon fill="midnightblue" stroke="midnightblue" points="1192.42,-100.43 1182.13,-102.95 1191.74,-107.4 1192.42,-100.43"/>
</g>
<!-- Node10&#45;&gt;Node2 -->
<g id="edge16" class="edge">
<title>Node10&#45;&gt;Node2</title>
<path fill="none" stroke="midnightblue" d="M1760.33,-239.94C1792.06,-231.35 1835.53,-215.24 1864,-187 1883.08,-168.08 1893.27,-137.98 1898.15,-118.61"/>
<polygon fill="midnightblue" stroke="midnightblue" points="1901.62,-119.14 1900.44,-108.61 1894.8,-117.58 1901.62,-119.14"/>
</g>
<!-- Node11 -->
<g id="node12" class="node">
<title>Node11</title>
<g id="a_node12"><a xlink:href="StaticAssert_8h.html" target="_top" xlink:title="hydra/detail/utility\l/StaticAssert.h">
<polygon fill="none" stroke="black" points="1703.5,-156.5 1703.5,-186.5 1796.5,-186.5 1796.5,-156.5 1703.5,-156.5"/>
<text text-anchor="start" x="1711.5" y="-174.5" font-family="Helvetica,sans-Serif" font-size="10.00">hydra/detail/utility</text>
<text text-anchor="middle" x="1750" y="-163.5" font-family="Helvetica,sans-Serif" font-size="10.00">/StaticAssert.h</text>
</a>
</g>
</g>
<!-- Node10&#45;&gt;Node11 -->
<g id="edge17" class="edge">
<title>Node10&#45;&gt;Node11</title>
<path fill="none" stroke="midnightblue" d="M1723.44,-239.78C1727.62,-229.2 1734.83,-210.93 1740.68,-196.1"/>
<polygon fill="midnightblue" stroke="midnightblue" points="1744.05,-197.11 1744.47,-186.52 1737.54,-194.54 1744.05,-197.11"/>
</g>
<!-- Node10&#45;&gt;Node12 -->
<g id="edge18" class="edge">
<title>Node10&#45;&gt;Node12</title>
<path fill="none" stroke="midnightblue" d="M1697.22,-239.93C1665.25,-227.9 1606.33,-205.73 1564.8,-190.11"/>
<polygon fill="midnightblue" stroke="midnightblue" points="1566.02,-186.83 1555.43,-186.58 1563.55,-193.38 1566.02,-186.83"/>
</g>
<!-- Node13 -->
<g id="node14" class="node">
<title>Node13</title>
<polygon fill="none" stroke="#bfbfbf" points="1407,-78.5 1407,-119.5 1529,-119.5 1529,-78.5 1407,-78.5"/>
<text text-anchor="start" x="1415" y="-107.5" font-family="Helvetica,sans-Serif" font-size="10.00">hydra/detail/external</text>
<text text-anchor="start" x="1415" y="-96.5" font-family="Helvetica,sans-Serif" font-size="10.00">/hydra_thrust/type_traits</text>
<text text-anchor="middle" x="1468" y="-85.5" font-family="Helvetica,sans-Serif" font-size="10.00">/void_t.h</text>
</g>
<!-- Node10&#45;&gt;Node13 -->
<g id="edge19" class="edge">
<title>Node10&#45;&gt;Node13</title>
<path fill="none" stroke="midnightblue" d="M1712.18,-239.99C1695.48,-222.25 1654.47,-180.9 1613,-156 1590.02,-142.2 1563.05,-130.68 1538.64,-121.75"/>
<polygon fill="midnightblue" stroke="midnightblue" points="1539.66,-118.4 1529.07,-118.33 1537.31,-124.99 1539.66,-118.4"/>
</g>
<!-- Node14 -->
<g id="node15" class="node">
<title>Node14</title>
<polygon fill="none" stroke="#bfbfbf" points="1815,-162 1815,-181 1855,-181 1855,-162 1815,-162"/>
<text text-anchor="middle" x="1835" y="-169" font-family="Helvetica,sans-Serif" font-size="10.00">utility</text>
</g>
<!-- Node10&#45;&gt;Node14 -->
<g id="edge20" class="edge">
<title>Node10&#45;&gt;Node14</title>
<path fill="none" stroke="midnightblue" d="M1733.19,-239.78C1752.78,-226.84 1789.76,-202.4 1813.35,-186.81"/>
<polygon fill="midnightblue" stroke="midnightblue" points="1815.55,-189.55 1821.96,-181.12 1811.69,-183.71 1815.55,-189.55"/>
</g>
<!-- Node15&#45;&gt;Node2 -->
<g id="edge23" class="edge">
<title>Node15&#45;&gt;Node2</title>
<path fill="none" stroke="midnightblue" d="M1354.57,-239.88C1365.73,-234.37 1380.94,-227.45 1395,-223 1474.86,-197.73 1498.4,-205.94 1580,-187 1583.49,-186.19 1774.5,-134.51 1860.64,-111.19"/>
<polygon fill="midnightblue" stroke="midnightblue" points="1861.63,-114.55 1870.36,-108.56 1859.8,-107.8 1861.63,-114.55"/>
</g>
<!-- Node15&#45;&gt;Node5 -->
<g id="edge24" class="edge">
<title>Node15&#45;&gt;Node5</title>
<path fill="none" stroke="midnightblue" d="M1307.87,-239.9C1289.03,-234.66 1264.2,-228.04 1242,-223 1166.37,-205.83 1077.76,-189.88 1024.04,-180.67"/>
<polygon fill="midnightblue" stroke="midnightblue" points="1024.54,-177.21 1014.1,-178.98 1023.36,-184.11 1024.54,-177.21"/>
</g>
<!-- Node16 -->
<g id="node17" class="node">
<title>Node16</title>
<g id="a_node17"><a xlink:href="TypeTraits_8h.html" target="_top" xlink:title="hydra/detail/TypeTraits.h">
<polygon fill="none" stroke="black" points="633,-162 633,-181 757,-181 757,-162 633,-162"/>
<text text-anchor="middle" x="695" y="-169" font-family="Helvetica,sans-Serif" font-size="10.00">hydra/detail/TypeTraits.h</text>
</a>
</g>
</g>
<!-- Node15&#45;&gt;Node16 -->
<g id="edge25" class="edge">
<title>Node15&#45;&gt;Node16</title>
<path fill="none" stroke="midnightblue" d="M1310.55,-239.89C1291.5,-234.25 1265.43,-227.16 1242,-223 1152.75,-207.14 894.42,-186.99 767.33,-177.66"/>
<polygon fill="midnightblue" stroke="midnightblue" points="767.53,-174.17 757.3,-176.93 767.02,-181.15 767.53,-174.17"/>
</g>
<!-- Node26 -->
<g id="node27" class="node">
<title>Node26</title>
<polygon fill="none" stroke="#bfbfbf" points="1367.5,-162 1367.5,-181 1408.5,-181 1408.5,-162 1367.5,-162"/>
<text text-anchor="middle" x="1388" y="-169" font-family="Helvetica,sans-Serif" font-size="10.00">string</text>
</g>
<!-- Node15&#45;&gt;Node26 -->
<g id="edge38" class="edge">
<title>Node15&#45;&gt;Node26</title>
<path fill="none" stroke="midnightblue" d="M1343.74,-239.78C1351.72,-227.64 1366.37,-205.38 1376.62,-189.8"/>
<polygon fill="midnightblue" stroke="midnightblue" points="1379.76,-191.39 1382.33,-181.12 1373.91,-187.55 1379.76,-191.39"/>
</g>
<!-- Node27 -->
<g id="node28" class="node">
<title>Node27</title>
<polygon fill="none" stroke="#bfbfbf" points="1235,-162 1235,-181 1287,-181 1287,-162 1235,-162"/>
<text text-anchor="middle" x="1261" y="-169" font-family="Helvetica,sans-Serif" font-size="10.00">ostream</text>
</g>
<!-- Node15&#45;&gt;Node27 -->
<g id="edge39" class="edge">
<title>Node15&#45;&gt;Node27</title>
<path fill="none" stroke="midnightblue" d="M1329.17,-239.78C1316.52,-227.3 1293.03,-204.12 1277.21,-188.5"/>
<polygon fill="midnightblue" stroke="midnightblue" points="1279.31,-185.65 1269.73,-181.12 1274.39,-190.63 1279.31,-185.65"/>
</g>
<!-- Node28 -->
<g id="node29" class="node">
<title>Node28</title>
<polygon fill="none" stroke="#bfbfbf" points="1305,-162 1305,-181 1349,-181 1349,-162 1305,-162"/>
<text text-anchor="middle" x="1327" y="-169" font-family="Helvetica,sans-Serif" font-size="10.00">vector</text>
</g>
<!-- Node15&#45;&gt;Node28 -->
<g id="edge40" class="edge">
<title>Node15&#45;&gt;Node28</title>
<path fill="none" stroke="midnightblue" d="M1336.74,-239.78C1335.03,-227.99 1331.94,-206.63 1329.7,-191.14"/>
<polygon fill="midnightblue" stroke="midnightblue" points="1333.14,-190.51 1328.25,-181.12 1326.22,-191.51 1333.14,-190.51"/>
</g>
<!-- Node16&#45;&gt;Node1 -->
<g id="edge27" class="edge">
<title>Node16&#45;&gt;Node1</title>
<path fill="none" stroke="midnightblue" d="M736.31,-161.97C747.53,-159.83 759.71,-157.67 771,-156 921.32,-133.74 965.16,-162.66 1111,-120 1116.68,-118.34 1122.53,-115.89 1127.94,-113.28"/>
<polygon fill="midnightblue" stroke="midnightblue" points="1129.82,-116.24 1137.07,-108.52 1126.58,-110.03 1129.82,-116.24"/>
</g>
<!-- Node16&#45;&gt;Node2 -->
<g id="edge26" class="edge">
<title>Node16&#45;&gt;Node2</title>
<path fill="none" stroke="midnightblue" d="M757.03,-166.54C803.75,-163.57 869.39,-159.45 927,-156 1270.5,-135.4 1682.18,-112.27 1838.02,-103.56"/>
<polygon fill="midnightblue" stroke="midnightblue" points="1838.57,-107.04 1848.36,-102.99 1838.18,-100.05 1838.57,-107.04"/>
</g>
<!-- Node16&#45;&gt;Node13 -->
<g id="edge37" class="edge">
<title>Node16&#45;&gt;Node13</title>
<path fill="none" stroke="midnightblue" d="M757.28,-164.82C899.34,-151.86 1246.66,-120.19 1396.86,-106.49"/>
<polygon fill="midnightblue" stroke="midnightblue" points="1397.25,-109.97 1406.89,-105.57 1396.62,-103 1397.25,-109.97"/>
</g>
<!-- Node17 -->
<g id="node18" class="node">
<title>Node17</title>
<polygon fill="none" stroke="#bfbfbf" points="536,-89.5 536,-108.5 576,-108.5 576,-89.5 536,-89.5"/>
<text text-anchor="middle" x="556" y="-96.5" font-family="Helvetica,sans-Serif" font-size="10.00">limits</text>
</g>
<!-- Node16&#45;&gt;Node17 -->
<g id="edge28" class="edge">
<title>Node16&#45;&gt;Node17</title>
<path fill="none" stroke="midnightblue" d="M673.37,-161.88C650.78,-152.58 614.59,-136.83 585,-120 582.02,-118.31 578.96,-116.4 575.99,-114.45"/>
<polygon fill="midnightblue" stroke="midnightblue" points="577.78,-111.43 567.55,-108.65 573.81,-117.2 577.78,-111.43"/>
</g>
<!-- Node18 -->
<g id="node19" class="node">
<title>Node18</title>
<polygon fill="none" stroke="#bfbfbf" points="594,-84 594,-114 716,-114 716,-84 594,-84"/>
<text text-anchor="start" x="602" y="-102" font-family="Helvetica,sans-Serif" font-size="10.00">hydra/detail/external</text>
<text text-anchor="middle" x="655" y="-91" font-family="Helvetica,sans-Serif" font-size="10.00">/hydra_thrust/complex.h</text>
</g>
<!-- Node16&#45;&gt;Node18 -->
<g id="edge29" class="edge">
<title>Node16&#45;&gt;Node18</title>
<path fill="none" stroke="midnightblue" d="M690.1,-161.86C684.66,-152.27 675.66,-136.41 668.13,-123.15"/>
<polygon fill="midnightblue" stroke="midnightblue" points="670.97,-121.05 662.99,-114.08 664.88,-124.5 670.97,-121.05"/>
</g>
<!-- Node16&#45;&gt;Node19 -->
<g id="edge30" class="edge">
<title>Node16&#45;&gt;Node19</title>
<path fill="none" stroke="midnightblue" d="M738.77,-161.96C749.32,-159.95 760.55,-157.86 771,-156 864.57,-139.35 891.87,-143.09 988.07,-120.05"/>
<polygon fill="midnightblue" stroke="midnightblue" points="989.02,-123.42 997.91,-117.66 987.36,-116.62 989.02,-123.42"/>
</g>
<!-- Node20 -->
<g id="node21" class="node">
<title>Node20</title>
<polygon fill="none" stroke="#bfbfbf" points="734.5,-78.5 734.5,-119.5 853.5,-119.5 853.5,-78.5 734.5,-78.5"/>
<text text-anchor="start" x="742.5" y="-107.5" font-family="Helvetica,sans-Serif" font-size="10.00">hydra/detail/external</text>
<text text-anchor="start" x="742.5" y="-96.5" font-family="Helvetica,sans-Serif" font-size="10.00">/hydra_thrust/execution</text>
<text text-anchor="middle" x="794" y="-85.5" font-family="Helvetica,sans-Serif" font-size="10.00">_policy.h</text>
</g>
<!-- Node16&#45;&gt;Node20 -->
<g id="edge31" class="edge">
<title>Node16&#45;&gt;Node20</title>
<path fill="none" stroke="midnightblue" d="M707.14,-161.86C719.74,-152.88 740.07,-138.41 757.89,-125.72"/>
<polygon fill="midnightblue" stroke="midnightblue" points="760.27,-128.31 766.39,-119.66 756.21,-122.61 760.27,-128.31"/>
</g>
<!-- Node21 -->
<g id="node22" class="node">
<title>Node21</title>
<polygon fill="none" stroke="#bfbfbf" points="872,-78.5 872,-119.5 980,-119.5 980,-78.5 872,-78.5"/>
<text text-anchor="start" x="880" y="-107.5" font-family="Helvetica,sans-Serif" font-size="10.00">hydra/detail/external</text>
<text text-anchor="start" x="880" y="-96.5" font-family="Helvetica,sans-Serif" font-size="10.00">/hydra_thrust/iterator</text>
<text text-anchor="middle" x="926" y="-85.5" font-family="Helvetica,sans-Serif" font-size="10.00">/iterator_categories.h</text>
</g>
<!-- Node16&#45;&gt;Node21 -->
<g id="edge32" class="edge">
<title>Node16&#45;&gt;Node21</title>
<path fill="none" stroke="midnightblue" d="M723.69,-161.91C756.98,-151.93 813.5,-134.91 862,-120 862.1,-119.97 862.2,-119.94 862.3,-119.91"/>
<polygon fill="midnightblue" stroke="midnightblue" points="863.37,-123.24 871.89,-116.95 861.3,-116.55 863.37,-123.24"/>
</g>
<!-- Node22 -->
<g id="node23" class="node">
<title>Node22</title>
<polygon fill="none" stroke="#bfbfbf" points="0,-78.5 0,-119.5 138,-119.5 138,-78.5 0,-78.5"/>
<text text-anchor="start" x="8" y="-107.5" font-family="Helvetica,sans-Serif" font-size="10.00">hydra/detail/external</text>
<text text-anchor="start" x="8" y="-96.5" font-family="Helvetica,sans-Serif" font-size="10.00">/hydra_thrust/iterator</text>
<text text-anchor="middle" x="69" y="-85.5" font-family="Helvetica,sans-Serif" font-size="10.00">/detail/is_iterator_category.h</text>
</g>
<!-- Node16&#45;&gt;Node22 -->
<g id="edge33" class="edge">
<title>Node16&#45;&gt;Node22</title>
<path fill="none" stroke="midnightblue" d="M632.94,-168C532.76,-163.26 329.16,-150.7 148.17,-120.06"/>
<polygon fill="midnightblue" stroke="midnightblue" points="148.65,-116.59 138.2,-118.35 147.46,-123.49 148.65,-116.59"/>
</g>
<!-- Node23 -->
<g id="node24" class="node">
<title>Node23</title>
<polygon fill="none" stroke="#bfbfbf" points="156.5,-78.5 156.5,-119.5 263.5,-119.5 263.5,-78.5 156.5,-78.5"/>
<text text-anchor="start" x="164.5" y="-107.5" font-family="Helvetica,sans-Serif" font-size="10.00">hydra/detail/external</text>
<text text-anchor="start" x="164.5" y="-96.5" font-family="Helvetica,sans-Serif" font-size="10.00">/hydra_thrust/iterator</text>
<text text-anchor="middle" x="210" y="-85.5" font-family="Helvetica,sans-Serif" font-size="10.00">/iterator_traits.h</text>
</g>
<!-- Node16&#45;&gt;Node23 -->
<g id="edge34" class="edge">
<title>Node16&#45;&gt;Node23</title>
<path fill="none" stroke="midnightblue" d="M632.73,-166.84C551.71,-161.25 405.78,-148.32 273.5,-120.13"/>
<polygon fill="midnightblue" stroke="midnightblue" points="274.11,-116.68 263.59,-117.99 272.63,-123.53 274.11,-116.68"/>
</g>
<!-- Node24 -->
<g id="node25" class="node">
<title>Node24</title>
<polygon fill="none" stroke="#bfbfbf" points="281.5,-78.5 281.5,-119.5 386.5,-119.5 386.5,-78.5 281.5,-78.5"/>
<text text-anchor="start" x="289.5" y="-107.5" font-family="Helvetica,sans-Serif" font-size="10.00">hydra/detail/external</text>
<text text-anchor="start" x="289.5" y="-96.5" font-family="Helvetica,sans-Serif" font-size="10.00">/hydra_thrust/device</text>
<text text-anchor="middle" x="334" y="-85.5" font-family="Helvetica,sans-Serif" font-size="10.00">_reference.h</text>
</g>
<!-- Node16&#45;&gt;Node24 -->
<g id="edge35" class="edge">
<title>Node16&#45;&gt;Node24</title>
<path fill="none" stroke="midnightblue" d="M632.97,-162.83C574.12,-154.92 483.14,-141.09 396.49,-120.21"/>
<polygon fill="midnightblue" stroke="midnightblue" points="397.31,-116.81 386.76,-117.84 395.64,-123.61 397.31,-116.81"/>
</g>
<!-- Node25 -->
<g id="node26" class="node">
<title>Node25</title>
<polygon fill="none" stroke="#bfbfbf" points="404.5,-78.5 404.5,-119.5 517.5,-119.5 517.5,-78.5 404.5,-78.5"/>
<text text-anchor="start" x="412.5" y="-107.5" font-family="Helvetica,sans-Serif" font-size="10.00">hydra/detail/external</text>
<text text-anchor="start" x="412.5" y="-96.5" font-family="Helvetica,sans-Serif" font-size="10.00">/hydra_thrust/detail</text>
<text text-anchor="middle" x="461" y="-85.5" font-family="Helvetica,sans-Serif" font-size="10.00">/raw_reference_cast.h</text>
</g>
<!-- Node16&#45;&gt;Node25 -->
<g id="edge36" class="edge">
<title>Node16&#45;&gt;Node25</title>
<path fill="none" stroke="midnightblue" d="M666.46,-161.94C634.86,-152.46 582.15,-136.64 527.1,-120.03"/>
<polygon fill="midnightblue" stroke="midnightblue" points="528.11,-116.68 517.52,-117.14 526.09,-123.38 528.11,-116.68"/>
</g>
<!-- Node30&#45;&gt;Node1 -->
<g id="edge47" class="edge">
<title>Node30&#45;&gt;Node1</title>
<path fill="none" stroke="midnightblue" d="M1104.82,-382.96C1069.84,-377.49 1028.03,-366.2 997,-343 936.14,-297.49 939.3,-261.99 927,-187 924.77,-173.4 918.24,-166.64 927,-156 979.96,-91.67 1032.13,-146.88 1111,-120 1116.42,-118.15 1122.04,-115.71 1127.29,-113.17"/>
<polygon fill="midnightblue" stroke="midnightblue" points="1128.92,-116.27 1136.22,-108.59 1125.72,-110.04 1128.92,-116.27"/>
</g>
<!-- Node30&#45;&gt;Node2 -->
<g id="edge48" class="edge">
<title>Node30&#45;&gt;Node2</title>
<path fill="none" stroke="midnightblue" d="M1239.13,-383.6C1388.97,-372.7 1745.35,-340.57 1845,-276 1885.46,-249.79 1892.56,-232.99 1907,-187 1914.17,-164.17 1910.57,-136.34 1906.77,-118.4"/>
<polygon fill="midnightblue" stroke="midnightblue" points="1910.17,-117.58 1904.48,-108.65 1903.36,-119.18 1910.17,-117.58"/>
</g>
<!-- Node30&#45;&gt;Node5 -->
<g id="edge49" class="edge">
<title>Node30&#45;&gt;Node5</title>
<path fill="none" stroke="midnightblue" d="M1134,-379.39C1086,-366.26 1005.41,-336.12 970,-276 954.46,-249.61 961.8,-212.55 968.46,-190.68"/>
<polygon fill="midnightblue" stroke="midnightblue" points="971.84,-191.61 971.66,-181.02 965.19,-189.41 971.84,-191.61"/>
</g>
<!-- Node30&#45;&gt;Node6 -->
<g id="edge50" class="edge">
<title>Node30&#45;&gt;Node6</title>
<path fill="none" stroke="midnightblue" d="M1185.61,-379.48C1198.72,-371.27 1219.01,-358.56 1236.05,-347.88"/>
<polygon fill="midnightblue" stroke="midnightblue" points="1237.99,-350.8 1244.61,-342.52 1234.28,-344.86 1237.99,-350.8"/>
</g>
<!-- Node30&#45;&gt;Node7 -->
<g id="edge51" class="edge">
<title>Node30&#45;&gt;Node7</title>
<path fill="none" stroke="midnightblue" d="M1172.94,-379.4C1175.19,-358.78 1180.95,-305.94 1184.36,-274.69"/>
<polygon fill="midnightblue" stroke="midnightblue" points="1187.85,-274.95 1185.46,-264.62 1180.9,-274.19 1187.85,-274.95"/>
</g>
<!-- Node30&#45;&gt;Node12 -->
<g id="edge53" class="edge">
<title>Node30&#45;&gt;Node12</title>
<path fill="none" stroke="midnightblue" d="M1238.81,-379.46C1343.55,-364.55 1538.75,-330.1 1580,-276 1594.28,-257.27 1590.11,-244.28 1580,-223 1574.17,-210.73 1563.74,-200.46 1553.08,-192.46"/>
<polygon fill="midnightblue" stroke="midnightblue" points="1554.77,-189.37 1544.56,-186.53 1550.77,-195.12 1554.77,-189.37"/>
</g>
<!-- Node30&#45;&gt;Node16 -->
<g id="edge52" class="edge">
<title>Node30&#45;&gt;Node16</title>
<path fill="none" stroke="midnightblue" d="M1104.81,-387.97C1044.59,-385.56 955.19,-375.96 885,-343 805.82,-305.82 735.8,-224.63 707.88,-189.39"/>
<polygon fill="midnightblue" stroke="midnightblue" points="710.33,-186.84 701.42,-181.1 704.81,-191.14 710.33,-186.84"/>
</g>
</g>
</svg>
        <g id="navigator" transform="translate(0 0)" fill="#404254">
                <rect fill="#f2f5e9" fill-opacity="0.5" stroke="#606060" stroke-width=".5" x="0" y="0" width="60" height="60"/>
                <use id="zoomplus" xlink:href="#zoomPlus" x="17" y="9" onmousedown="handleZoom(evt,'in')"/>
                <use id="zoomminus" xlink:href="#zoomMin" x="42" y="9" onmousedown="handleZoom(evt,'out')"/>
                <use id="reset" xlink:href="#resetDef" x="30" y="36" onmousedown="handleReset()"/>
                <g id="arrowUp" xlink:href="#dirArrow" transform="translate(30 24)" onmousedown="handlePan(0,-1)">
                  <use xlink:href="#rim" fill="#404040">
                        <set attributeName="fill" to="#808080" begin="arrowUp.mouseover" end="arrowUp.mouseout"/>
                  </use>
                  <path fill="none" stroke="white" stroke-width="1.5" d="M0,-3.0v7 M-2.5,-0.5L0,-3.0L2.5,-0.5"/>
                </g>
                <g id="arrowRight" xlink:href="#dirArrow" transform="rotate(90) translate(36 -43)" onmousedown="handlePan(1,0)">
                  <use xlink:href="#rim" fill="#404040">
                        <set attributeName="fill" to="#808080" begin="arrowRight.mouseover" end="arrowRight.mouseout"/>
                  </use>
                  <path fill="none" stroke="white" stroke-width="1.5" d="M0,-3.0v7 M-2.5,-0.5L0,-3.0L2.5,-0.5"/>
                </g>
                <g id="arrowDown" xlink:href="#dirArrow" transform="rotate(180) translate(-30 -48)" onmousedown="handlePan(0,1)">
                  <use xlink:href="#rim" fill="#404040">
                        <set attributeName="fill" to="#808080" begin="arrowDown.mouseover" end="arrowDown.mouseout"/>
                  </use>
                  <path fill="none" stroke="white" stroke-width="1.5" d="M0,-3.0v7 M-2.5,-0.5L0,-3.0L2.5,-0.5"/>
                </g>
                <g id="arrowLeft" xlink:href="#dirArrow" transform="rotate(270) translate(-36 17)" onmousedown="handlePan(-1,0)">
                  <use xlink:href="#rim" fill="#404040">
                        <set attributeName="fill" to="#808080" begin="arrowLeft.mouseover" end="arrowLeft.mouseout"/>
                  </use>
                  <path fill="none" stroke="white" stroke-width="1.5" d="M0,-3.0v7 M-2.5,-0.5L0,-3.0L2.5,-0.5"/>
                </g>
        </g>
        <svg viewBox="0 0 15 15" width="100%" height="30px" preserveAspectRatio="xMaxYMin meet">
         <g id="arrow_out" transform="scale(0.3 0.3)">
          <a xlink:href="Argument_8h__incl_org.svg" target="_base">
           <rect id="button" ry="5" rx="5" y="6" x="6" height="38" width="38"
                fill="#f2f5e9" fill-opacity="0.5" stroke="#606060" stroke-width="1.0"/>
           <path id="arrow"
             d="M 11.500037,31.436501 C 11.940474,20.09759 22.043105,11.32322 32.158766,21.979434 L 37.068811,17.246167 C 37.068811,17.246167 37.088388,32 37.088388,32 L 22.160133,31.978069 C 22.160133,31.978069 26.997745,27.140456 26.997745,27.140456 C 18.528582,18.264221 13.291696,25.230495 11.500037,31.436501 z"
             style="fill:#404040;"/>
          </a>
         </g>
        </svg>
</svg>
