<?xml version="1.0" encoding="UTF-8" standalone="no"?>
<!DOCTYPE svg PUBLIC "-//W3C//DTD SVG 1.1//EN"
 "http://www.w3.org/Graphics/SVG/1.1/DTD/svg11.dtd">
<!-- Generated by graphviz version 5.0.0 (0)
 -->
<!-- Title: ArgusShape.h Pages: 1 -->
<svg width="530pt" height="140pt"
 viewBox="0.00 0.00 529.50 140.00" xmlns="http://www.w3.org/2000/svg" xmlns:xlink="http://www.w3.org/1999/xlink">
<g id="graph0" class="graph" transform="scale(1 1) rotate(0) translate(4 136)">
<title>ArgusShape.h</title>
<!-- Node65 -->
<g id="node1" class="node">
<title>Node65</title>
<polygon fill="#bfbfbf" stroke="black" points="234.5,-112.5 234.5,-131.5 312.5,-131.5 312.5,-112.5 234.5,-112.5"/>
<text text-anchor="middle" x="273.5" y="-119.5" font-family="Helvetica,sans-Serif" font-size="10.00">ArgusShape.h</text>
</g>
<!-- Node66 -->
<g id="node2" class="node">
<title>Node66</title>
<g id="a_node2"><a xlink:href="gaussian__plus__argus_8inl.html" target="_top" xlink:title="gaussian_plus_argus.inl">
<polygon fill="none" stroke="black" points="146,-56.5 146,-75.5 267,-75.5 267,-56.5 146,-56.5"/>
<text text-anchor="middle" x="206.5" y="-63.5" font-family="Helvetica,sans-Serif" font-size="10.00">gaussian_plus_argus.inl</text>
</a>
</g>
</g>
<!-- Node65&#45;&gt;Node66 -->
<g id="edge1" class="edge">
<title>Node65&#45;&gt;Node66</title>
<path fill="none" stroke="midnightblue" d="M254.67,-105.82C242.66,-96.15 227.53,-83.95 217.46,-75.83"/>
<polygon fill="midnightblue" stroke="midnightblue" points="252.75,-108.77 262.74,-112.32 257.15,-103.32 252.75,-108.77"/>
</g>
<!-- Node69 -->
<g id="node5" class="node">
<title>Node69</title>
<g id="a_node5"><a xlink:href="Ipatia__plus__argus_8inl.html" target="_top" xlink:title="Ipatia_plus_argus.inl">
<polygon fill="none" stroke="black" points="288.5,-56.5 288.5,-75.5 394.5,-75.5 394.5,-56.5 288.5,-56.5"/>
<text text-anchor="middle" x="341.5" y="-63.5" font-family="Helvetica,sans-Serif" font-size="10.00">Ipatia_plus_argus.inl</text>
</a>
</g>
</g>
<!-- Node65&#45;&gt;Node69 -->
<g id="edge4" class="edge">
<title>Node65&#45;&gt;Node69</title>
<path fill="none" stroke="midnightblue" d="M292.26,-106.1C304.5,-96.38 320.06,-84.03 330.38,-75.83"/>
<polygon fill="midnightblue" stroke="midnightblue" points="290.08,-103.36 284.43,-112.32 294.43,-108.85 290.08,-103.36"/>
</g>
<!-- Node67 -->
<g id="node3" class="node">
<title>Node67</title>
<g id="a_node3"><a xlink:href="gaussian__plus__argus_8cpp.html" target="_top" xlink:title="gaussian_plus_argus.cpp">
<polygon fill="none" stroke="black" points="0,-0.5 0,-19.5 127,-19.5 127,-0.5 0,-0.5"/>
<text text-anchor="middle" x="63.5" y="-7.5" font-family="Helvetica,sans-Serif" font-size="10.00">gaussian_plus_argus.cpp</text>
</a>
</g>
</g>
<!-- Node66&#45;&gt;Node67 -->
<g id="edge2" class="edge">
<title>Node66&#45;&gt;Node67</title>
<path fill="none" stroke="midnightblue" d="M174.47,-52.91C147.59,-42.75 109.86,-28.51 86.05,-19.52"/>
<polygon fill="midnightblue" stroke="midnightblue" points="173.25,-56.19 183.84,-56.44 175.72,-49.64 173.25,-56.19"/>
</g>
<!-- Node68 -->
<g id="node4" class="node">
<title>Node68</title>
<g id="a_node4"><a xlink:href="gaussian__plus__argus_8cu.html" target="_top" xlink:title="gaussian_plus_argus.cu">
<polygon fill="none" stroke="black" points="145.5,-0.5 145.5,-19.5 267.5,-19.5 267.5,-0.5 145.5,-0.5"/>
<text text-anchor="middle" x="206.5" y="-7.5" font-family="Helvetica,sans-Serif" font-size="10.00">gaussian_plus_argus.cu</text>
</a>
</g>
</g>
<!-- Node66&#45;&gt;Node68 -->
<g id="edge3" class="edge">
<title>Node66&#45;&gt;Node68</title>
<path fill="none" stroke="midnightblue" d="M206.5,-45.8C206.5,-36.91 206.5,-26.78 206.5,-19.75"/>
<polygon fill="midnightblue" stroke="midnightblue" points="203,-46.08 206.5,-56.08 210,-46.08 203,-46.08"/>
</g>
<!-- Node70 -->
<g id="node6" class="node">
<title>Node70</title>
<g id="a_node6"><a xlink:href="ipatia__plus__argus_8cpp.html" target="_top" xlink:title="ipatia_plus_argus.cpp">
<polygon fill="none" stroke="black" points="286,-0.5 286,-19.5 397,-19.5 397,-0.5 286,-0.5"/>
<text text-anchor="middle" x="341.5" y="-7.5" font-family="Helvetica,sans-Serif" font-size="10.00">ipatia_plus_argus.cpp</text>
</a>
</g>
</g>
<!-- Node69&#45;&gt;Node70 -->
<g id="edge5" class="edge">
<title>Node69&#45;&gt;Node70</title>
<path fill="none" stroke="midnightblue" d="M341.5,-45.8C341.5,-36.91 341.5,-26.78 341.5,-19.75"/>
<polygon fill="midnightblue" stroke="midnightblue" points="338,-46.08 341.5,-56.08 345,-46.08 338,-46.08"/>
</g>
<!-- Node71 -->
<g id="node7" class="node">
<title>Node71</title>
<g id="a_node7"><a xlink:href="ipatia__plus__argus_8cu.html" target="_top" xlink:title="ipatia_plus_argus.cu">
<polygon fill="none" stroke="black" points="415.5,-0.5 415.5,-19.5 521.5,-19.5 521.5,-0.5 415.5,-0.5"/>
<text text-anchor="middle" x="468.5" y="-7.5" font-family="Helvetica,sans-Serif" font-size="10.00">ipatia_plus_argus.cu</text>
</a>
</g>
</g>
<!-- Node69&#45;&gt;Node71 -->
<g id="edge6" class="edge">
<title>Node69&#45;&gt;Node71</title>
<path fill="none" stroke="midnightblue" d="M370.89,-52.5C394.7,-42.38 427.61,-28.39 448.47,-19.52"/>
<polygon fill="midnightblue" stroke="midnightblue" points="369.46,-49.31 361.62,-56.44 372.2,-55.75 369.46,-49.31"/>
</g>
</g>
</svg>
