<?xml version="1.0" encoding="UTF-8" standalone="no"?>
<!DOCTYPE svg PUBLIC "-//W3C//DTD SVG 1.1//EN"
 "http://www.w3.org/Graphics/SVG/1.1/DTD/svg11.dtd">
<!-- Generated by graphviz version 5.0.0 (0)
 -->
<!-- Title: Arithmetic_Tuple.h Pages: 1 -->
<svg width="799pt" height="195pt"
 viewBox="0.00 0.00 799.00 195.00" xmlns="http://www.w3.org/2000/svg" xmlns:xlink="http://www.w3.org/1999/xlink">
<g id="graph0" class="graph" transform="scale(1 1) rotate(0) translate(4 191)">
<title>Arithmetic_Tuple.h</title>
<!-- Node0 -->
<g id="node1" class="node">
<title>Node0</title>
<polygon fill="#bfbfbf" stroke="black" points="374,-167.5 374,-186.5 472,-186.5 472,-167.5 374,-167.5"/>
<text text-anchor="middle" x="423" y="-174.5" font-family="Helvetica,sans-Serif" font-size="10.00">Arithmetic_Tuple.h</text>
</g>
<!-- Node1 -->
<g id="node2" class="node">
<title>Node1</title>
<g id="a_node2"><a xlink:href="Config_8h.html" target="_top" xlink:title="hydra/detail/Config.h">
<polygon fill="none" stroke="black" points="95.5,-95 95.5,-114 202.5,-114 202.5,-95 95.5,-95"/>
<text text-anchor="middle" x="149" y="-102" font-family="Helvetica,sans-Serif" font-size="10.00">hydra/detail/Config.h</text>
</a>
</g>
</g>
<!-- Node0&#45;&gt;Node1 -->
<g id="edge1" class="edge">
<title>Node0&#45;&gt;Node1</title>
<path fill="none" stroke="midnightblue" d="M373.78,-168.01C330.61,-160.42 266.43,-147.68 212,-131 200.34,-127.43 187.82,-122.58 177.05,-118.07"/>
<polygon fill="midnightblue" stroke="midnightblue" points="178.28,-114.8 167.71,-114.08 175.53,-121.23 178.28,-114.8"/>
</g>
<!-- Node4 -->
<g id="node5" class="node">
<title>Node4</title>
<g id="a_node5"><a xlink:href="Types_8h.html" target="_top" xlink:title="Common and useful typedefs. ">
<polygon fill="none" stroke="black" points="221,-95 221,-114 299,-114 299,-95 221,-95"/>
<text text-anchor="middle" x="260" y="-102" font-family="Helvetica,sans-Serif" font-size="10.00">hydra/Types.h</text>
</a>
</g>
</g>
<!-- Node0&#45;&gt;Node4 -->
<g id="edge4" class="edge">
<title>Node0&#45;&gt;Node4</title>
<path fill="none" stroke="midnightblue" d="M398.88,-167.48C375.37,-158.97 338.78,-145.14 308,-131 300.16,-127.4 291.8,-123.12 284.29,-119.1"/>
<polygon fill="midnightblue" stroke="midnightblue" points="285.79,-115.94 275.34,-114.23 282.45,-122.08 285.79,-115.94"/>
</g>
<!-- Node5 -->
<g id="node6" class="node">
<title>Node5</title>
<g id="a_node6"><a xlink:href="Generic_8h.html" target="_top" xlink:title="hydra/detail/utility\l/Generic.h">
<polygon fill="none" stroke="black" points="317.5,-89.5 317.5,-119.5 410.5,-119.5 410.5,-89.5 317.5,-89.5"/>
<text text-anchor="start" x="325.5" y="-107.5" font-family="Helvetica,sans-Serif" font-size="10.00">hydra/detail/utility</text>
<text text-anchor="middle" x="364" y="-96.5" font-family="Helvetica,sans-Serif" font-size="10.00">/Generic.h</text>
</a>
</g>
</g>
<!-- Node0&#45;&gt;Node5 -->
<g id="edge5" class="edge">
<title>Node0&#45;&gt;Node5</title>
<path fill="none" stroke="midnightblue" d="M415.77,-167.36C407.51,-157.49 393.69,-140.98 382.41,-127.49"/>
<polygon fill="midnightblue" stroke="midnightblue" points="384.88,-125 375.78,-119.58 379.51,-129.49 384.88,-125"/>
</g>
<!-- Node8 -->
<g id="node9" class="node">
<title>Node8</title>
<polygon fill="none" stroke="#bfbfbf" points="429,-89.5 429,-119.5 535,-119.5 535,-89.5 429,-89.5"/>
<text text-anchor="start" x="437" y="-107.5" font-family="Helvetica,sans-Serif" font-size="10.00">hydra/detail/external</text>
<text text-anchor="middle" x="482" y="-96.5" font-family="Helvetica,sans-Serif" font-size="10.00">/hydra_thrust/tuple.h</text>
</g>
<!-- Node0&#45;&gt;Node8 -->
<g id="edge8" class="edge">
<title>Node0&#45;&gt;Node8</title>
<path fill="none" stroke="midnightblue" d="M430.23,-167.36C438.49,-157.49 452.31,-140.98 463.59,-127.49"/>
<polygon fill="midnightblue" stroke="midnightblue" points="466.49,-129.49 470.22,-119.58 461.12,-125 466.49,-129.49"/>
</g>
<!-- Node9 -->
<g id="node10" class="node">
<title>Node9</title>
<polygon fill="none" stroke="#bfbfbf" points="553,-84 553,-125 657,-125 657,-84 553,-84"/>
<text text-anchor="start" x="561" y="-113" font-family="Helvetica,sans-Serif" font-size="10.00">hydra/detail/external</text>
<text text-anchor="start" x="561" y="-102" font-family="Helvetica,sans-Serif" font-size="10.00">/hydra_thrust/detail</text>
<text text-anchor="middle" x="605" y="-91" font-family="Helvetica,sans-Serif" font-size="10.00">/type_traits.h</text>
</g>
<!-- Node0&#45;&gt;Node9 -->
<g id="edge9" class="edge">
<title>Node0&#45;&gt;Node9</title>
<path fill="none" stroke="midnightblue" d="M446.76,-167.48C471.23,-158.63 510.44,-144.25 544,-131 545.8,-130.29 547.63,-129.56 549.48,-128.82"/>
<polygon fill="midnightblue" stroke="midnightblue" points="550.83,-132.05 558.78,-125.05 548.2,-125.56 550.83,-132.05"/>
</g>
<!-- Node10 -->
<g id="node11" class="node">
<title>Node10</title>
<polygon fill="none" stroke="#bfbfbf" points="675,-78.5 675,-130.5 791,-130.5 791,-78.5 675,-78.5"/>
<text text-anchor="start" x="683" y="-118.5" font-family="Helvetica,sans-Serif" font-size="10.00">hydra/detail/external</text>
<text text-anchor="start" x="683" y="-107.5" font-family="Helvetica,sans-Serif" font-size="10.00">/hydra_thrust/iterator</text>
<text text-anchor="start" x="683" y="-96.5" font-family="Helvetica,sans-Serif" font-size="10.00">/detail/tuple_of_iterator</text>
<text text-anchor="middle" x="733" y="-85.5" font-family="Helvetica,sans-Serif" font-size="10.00">_references.h</text>
</g>
<!-- Node0&#45;&gt;Node10 -->
<g id="edge10" class="edge">
<title>Node0&#45;&gt;Node10</title>
<path fill="none" stroke="midnightblue" d="M472,-169.58C519.38,-162.78 593.22,-150.64 665.08,-131.06"/>
<polygon fill="midnightblue" stroke="midnightblue" points="666.04,-134.43 674.74,-128.38 664.17,-127.68 666.04,-134.43"/>
</g>
<!-- Node2 -->
<g id="node3" class="node">
<title>Node2</title>
<polygon fill="none" stroke="#bfbfbf" points="0,-0.5 0,-41.5 104,-41.5 104,-0.5 0,-0.5"/>
<text text-anchor="start" x="8" y="-29.5" font-family="Helvetica,sans-Serif" font-size="10.00">hydra/detail/external</text>
<text text-anchor="start" x="8" y="-18.5" font-family="Helvetica,sans-Serif" font-size="10.00">/hydra_thrust/detail</text>
<text text-anchor="middle" x="52" y="-7.5" font-family="Helvetica,sans-Serif" font-size="10.00">/config.h</text>
</g>
<!-- Node1&#45;&gt;Node2 -->
<g id="edge2" class="edge">
<title>Node1&#45;&gt;Node2</title>
<path fill="none" stroke="midnightblue" d="M138.62,-94.78C125.53,-83.78 102.45,-64.38 83.4,-48.38"/>
<polygon fill="midnightblue" stroke="midnightblue" points="85.43,-45.51 75.52,-41.76 80.92,-50.87 85.43,-45.51"/>
</g>
<!-- Node3 -->
<g id="node4" class="node">
<title>Node3</title>
<polygon fill="none" stroke="#bfbfbf" points="122,-0.5 122,-41.5 232,-41.5 232,-0.5 122,-0.5"/>
<text text-anchor="start" x="130" y="-29.5" font-family="Helvetica,sans-Serif" font-size="10.00">hydra/detail/external</text>
<text text-anchor="start" x="130" y="-18.5" font-family="Helvetica,sans-Serif" font-size="10.00">/hydra_thrust/detail</text>
<text text-anchor="middle" x="177" y="-7.5" font-family="Helvetica,sans-Serif" font-size="10.00">/config/host_device.h</text>
</g>
<!-- Node1&#45;&gt;Node3 -->
<g id="edge3" class="edge">
<title>Node1&#45;&gt;Node3</title>
<path fill="none" stroke="midnightblue" d="M152,-94.78C155.54,-84.47 161.62,-66.78 166.89,-51.42"/>
<polygon fill="midnightblue" stroke="midnightblue" points="170.27,-52.36 170.21,-41.76 163.65,-50.08 170.27,-52.36"/>
</g>
<!-- Node6 -->
<g id="node7" class="node">
<title>Node6</title>
<polygon fill="none" stroke="#bfbfbf" points="305,-11.5 305,-30.5 367,-30.5 367,-11.5 305,-11.5"/>
<text text-anchor="middle" x="336" y="-18.5" font-family="Helvetica,sans-Serif" font-size="10.00">type_traits</text>
</g>
<!-- Node5&#45;&gt;Node6 -->
<g id="edge6" class="edge">
<title>Node5&#45;&gt;Node6</title>
<path fill="none" stroke="midnightblue" d="M359.12,-89.3C354.43,-75.65 347.32,-54.96 342.23,-40.12"/>
<polygon fill="midnightblue" stroke="midnightblue" points="345.49,-38.86 338.93,-30.54 338.87,-41.13 345.49,-38.86"/>
</g>
<!-- Node7 -->
<g id="node8" class="node">
<title>Node7</title>
<polygon fill="none" stroke="#bfbfbf" points="385,-11.5 385,-30.5 423,-30.5 423,-11.5 385,-11.5"/>
<text text-anchor="middle" x="404" y="-18.5" font-family="Helvetica,sans-Serif" font-size="10.00">array</text>
</g>
<!-- Node5&#45;&gt;Node7 -->
<g id="edge7" class="edge">
<title>Node5&#45;&gt;Node7</title>
<path fill="none" stroke="midnightblue" d="M370.97,-89.3C377.73,-75.52 388.02,-54.55 395.32,-39.69"/>
<polygon fill="midnightblue" stroke="midnightblue" points="398.55,-41.06 399.81,-30.54 392.26,-37.97 398.55,-41.06"/>
</g>
</g>
</svg>
