<?xml version="1.0" encoding="UTF-8" standalone="no"?>
<!DOCTYPE svg PUBLIC "-//W3C//DTD SVG 1.1//EN"
 "http://www.w3.org/Graphics/SVG/1.1/DTD/svg11.dtd">
<!-- Generated by graphviz version 2.42.4 (0)
 -->
<!-- Title: BaseCompositeFunctor.h Pages: 1 -->
<svg width="538pt" height="196pt"
 viewBox="0.00 0.00 537.50 196.00" xmlns="http://www.w3.org/2000/svg" xmlns:xlink="http://www.w3.org/1999/xlink">
<g id="graph0" class="graph" transform="scale(1 1) rotate(0) translate(4 192)">
<title>BaseCompositeFunctor.h</title>
<!-- Node50 -->
<g id="node1" class="node">
<title>Node50</title>
<polygon fill="#bfbfbf" stroke="black" points="270.5,-168.5 270.5,-187.5 397.5,-187.5 397.5,-168.5 270.5,-168.5"/>
<text text-anchor="middle" x="334" y="-175.5" font-family="Helvetica,sans-Serif" font-size="10.00">BaseCompositeFunctor.h</text>
</g>
<!-- Node51 -->
<g id="node2" class="node">
<title>Node51</title>
<g id="a_node2"><a xlink:href="ConvolutionFunctor_8h.html" target="_top" xlink:title="ConvolutionFunctor.h">
<polygon fill="none" stroke="black" points="212.5,-112.5 212.5,-131.5 321.5,-131.5 321.5,-112.5 212.5,-112.5"/>
<text text-anchor="middle" x="267" y="-119.5" font-family="Helvetica,sans-Serif" font-size="10.00">ConvolutionFunctor.h</text>
</a>
</g>
</g>
<!-- Node50&#45;&gt;Node51 -->
<g id="edge1" class="edge">
<title>Node50&#45;&gt;Node51</title>
<path fill="none" stroke="midnightblue" d="M315.17,-161.82C303.16,-152.15 288.03,-139.95 277.96,-131.83"/>
<polygon fill="midnightblue" stroke="midnightblue" points="313.25,-164.77 323.24,-168.32 317.65,-159.32 313.25,-164.77"/>
</g>
<!-- Node58 -->
<g id="node9" class="node">
<title>Node58</title>
<g id="a_node9"><a xlink:href="OldConvolutionFunctor_8h.html" target="_top" xlink:title="OldConvolutionFunctor.h">
<polygon fill="none" stroke="black" points="340,-112.5 340,-131.5 464,-131.5 464,-112.5 340,-112.5"/>
<text text-anchor="middle" x="402" y="-119.5" font-family="Helvetica,sans-Serif" font-size="10.00">OldConvolutionFunctor.h</text>
</a>
</g>
</g>
<!-- Node50&#45;&gt;Node58 -->
<g id="edge8" class="edge">
<title>Node50&#45;&gt;Node58</title>
<path fill="none" stroke="midnightblue" d="M352.76,-162.1C365,-152.38 380.56,-140.03 390.88,-131.83"/>
<polygon fill="midnightblue" stroke="midnightblue" points="350.58,-159.36 344.93,-168.32 354.93,-164.85 350.58,-159.36"/>
</g>
<!-- Node52 -->
<g id="node3" class="node">
<title>Node52</title>
<g id="a_node3"><a xlink:href="convolute__functions_8inl.html" target="_top" xlink:title="convolute_functions.inl">
<polygon fill="none" stroke="black" points="141,-56.5 141,-75.5 257,-75.5 257,-56.5 141,-56.5"/>
<text text-anchor="middle" x="199" y="-63.5" font-family="Helvetica,sans-Serif" font-size="10.00">convolute_functions.inl</text>
</a>
</g>
</g>
<!-- Node51&#45;&gt;Node52 -->
<g id="edge2" class="edge">
<title>Node51&#45;&gt;Node52</title>
<path fill="none" stroke="midnightblue" d="M248.24,-106.1C236,-96.38 220.44,-84.03 210.12,-75.83"/>
<polygon fill="midnightblue" stroke="midnightblue" points="246.07,-108.85 256.07,-112.32 250.42,-103.36 246.07,-108.85"/>
</g>
<!-- Node55 -->
<g id="node6" class="node">
<title>Node55</title>
<g id="a_node6"><a xlink:href="fit__convoluted__pdfs_8inl.html" target="_top" xlink:title="fit_convoluted_pdfs.inl">
<polygon fill="none" stroke="black" points="279,-56.5 279,-75.5 393,-75.5 393,-56.5 279,-56.5"/>
<text text-anchor="middle" x="336" y="-63.5" font-family="Helvetica,sans-Serif" font-size="10.00">fit_convoluted_pdfs.inl</text>
</a>
</g>
</g>
<!-- Node51&#45;&gt;Node55 -->
<g id="edge5" class="edge">
<title>Node51&#45;&gt;Node55</title>
<path fill="none" stroke="midnightblue" d="M286.04,-106.1C298.46,-96.38 314.24,-84.03 324.71,-75.83"/>
<polygon fill="midnightblue" stroke="midnightblue" points="283.8,-103.4 278.09,-112.32 288.12,-108.92 283.8,-103.4"/>
</g>
<!-- Node53 -->
<g id="node4" class="node">
<title>Node53</title>
<g id="a_node4"><a xlink:href="convolute__functions_8cpp.html" target="_top" xlink:title="convolute_functions.cpp">
<polygon fill="none" stroke="black" points="0,-0.5 0,-19.5 122,-19.5 122,-0.5 0,-0.5"/>
<text text-anchor="middle" x="61" y="-7.5" font-family="Helvetica,sans-Serif" font-size="10.00">convolute_functions.cpp</text>
</a>
</g>
</g>
<!-- Node52&#45;&gt;Node53 -->
<g id="edge3" class="edge">
<title>Node52&#45;&gt;Node53</title>
<path fill="none" stroke="midnightblue" d="M167.75,-52.77C141.83,-42.63 105.64,-28.47 82.76,-19.52"/>
<polygon fill="midnightblue" stroke="midnightblue" points="166.55,-56.06 177.13,-56.44 169.1,-49.54 166.55,-56.06"/>
</g>
<!-- Node54 -->
<g id="node5" class="node">
<title>Node54</title>
<g id="a_node5"><a xlink:href="convolute__functions_8cu.html" target="_top" xlink:title="convolute_functions.cu">
<polygon fill="none" stroke="black" points="140.5,-0.5 140.5,-19.5 257.5,-19.5 257.5,-0.5 140.5,-0.5"/>
<text text-anchor="middle" x="199" y="-7.5" font-family="Helvetica,sans-Serif" font-size="10.00">convolute_functions.cu</text>
</a>
</g>
</g>
<!-- Node52&#45;&gt;Node54 -->
<g id="edge4" class="edge">
<title>Node52&#45;&gt;Node54</title>
<path fill="none" stroke="midnightblue" d="M199,-45.8C199,-36.91 199,-26.78 199,-19.75"/>
<polygon fill="midnightblue" stroke="midnightblue" points="195.5,-46.08 199,-56.08 202.5,-46.08 195.5,-46.08"/>
</g>
<!-- Node56 -->
<g id="node7" class="node">
<title>Node56</title>
<g id="a_node7"><a xlink:href="fit__convoluted__pdfs_8cpp.html" target="_top" xlink:title="fit_convoluted_pdfs.cpp">
<polygon fill="none" stroke="black" points="276,-0.5 276,-19.5 396,-19.5 396,-0.5 276,-0.5"/>
<text text-anchor="middle" x="336" y="-7.5" font-family="Helvetica,sans-Serif" font-size="10.00">fit_convoluted_pdfs.cpp</text>
</a>
</g>
</g>
<!-- Node55&#45;&gt;Node56 -->
<g id="edge6" class="edge">
<title>Node55&#45;&gt;Node56</title>
<path fill="none" stroke="midnightblue" d="M336,-45.8C336,-36.91 336,-26.78 336,-19.75"/>
<polygon fill="midnightblue" stroke="midnightblue" points="332.5,-46.08 336,-56.08 339.5,-46.08 332.5,-46.08"/>
</g>
<!-- Node57 -->
<g id="node8" class="node">
<title>Node57</title>
<g id="a_node8"><a xlink:href="fit__convoluted__pdfs_8cu.html" target="_top" xlink:title="fit_convoluted_pdfs.cu">
<polygon fill="none" stroke="black" points="414.5,-0.5 414.5,-19.5 529.5,-19.5 529.5,-0.5 414.5,-0.5"/>
<text text-anchor="middle" x="472" y="-7.5" font-family="Helvetica,sans-Serif" font-size="10.00">fit_convoluted_pdfs.cu</text>
</a>
</g>
</g>
<!-- Node55&#45;&gt;Node57 -->
<g id="edge7" class="edge">
<title>Node55&#45;&gt;Node57</title>
<path fill="none" stroke="midnightblue" d="M367.13,-52.64C392.66,-42.5 428.11,-28.43 450.55,-19.52"/>
<polygon fill="midnightblue" stroke="midnightblue" points="365.55,-49.5 357.55,-56.44 368.14,-56.01 365.55,-49.5"/>
</g>
</g>
</svg>
