<?xml version="1.0" encoding="UTF-8" standalone="no"?>
<!DOCTYPE svg PUBLIC "-//W3C//DTD SVG 1.1//EN"
 "http://www.w3.org/Graphics/SVG/1.1/DTD/svg11.dtd">
<!-- Generated by graphviz version 2.40.1 (20161225.0304)
 -->
<!-- Title: basic_distributions.inl Pages: 1 -->
<svg width="254pt" height="84pt"
 viewBox="0.00 0.00 253.50 84.00" xmlns="http://www.w3.org/2000/svg" xmlns:xlink="http://www.w3.org/1999/xlink">
<g id="graph0" class="graph" transform="scale(1 1) rotate(0) translate(4 80)">
<title>basic_distributions.inl</title>
<!-- Node108 -->
<g id="node1" class="node">
<title>Node108</title>
<polygon fill="#bfbfbf" stroke="#000000" points="69,-56.5 69,-75.5 179,-75.5 179,-56.5 69,-56.5"/>
<text text-anchor="middle" x="124" y="-63.5" font-family="Helvetica,sans-Serif" font-size="10.00" fill="#000000">basic_distributions.inl</text>
</g>
<!-- Node109 -->
<g id="node2" class="node">
<title>Node109</title>
<g id="a_node2"><a xlink:href="basic__distributions_8cpp.html" target="_top" xlink:title="basic_distributions.cpp">
<polygon fill="none" stroke="#000000" points="0,-.5 0,-19.5 116,-19.5 116,-.5 0,-.5"/>
<text text-anchor="middle" x="58" y="-7.5" font-family="Helvetica,sans-Serif" font-size="10.00" fill="#000000">basic_distributions.cpp</text>
</a>
</g>
</g>
<!-- Node108&#45;&gt;Node109 -->
<g id="edge1" class="edge">
<title>Node108&#45;&gt;Node109</title>
<path fill="none" stroke="#191970" d="M104.7245,-49.645C93.2462,-39.9058 79.0723,-27.8795 69.3646,-19.6427"/>
<polygon fill="#191970" stroke="#191970" points="102.6141,-52.4445 112.5037,-56.2455 107.143,-47.1069 102.6141,-52.4445"/>
</g>
<!-- Node110 -->
<g id="node3" class="node">
<title>Node110</title>
<g id="a_node3"><a xlink:href="basic__distributions_8cu.html" target="_top" xlink:title="basic_distributions.cu">
<polygon fill="none" stroke="#000000" points="134.5,-.5 134.5,-19.5 245.5,-19.5 245.5,-.5 134.5,-.5"/>
<text text-anchor="middle" x="190" y="-7.5" font-family="Helvetica,sans-Serif" font-size="10.00" fill="#000000">basic_distributions.cu</text>
</a>
</g>
</g>
<!-- Node108&#45;&gt;Node110 -->
<g id="edge2" class="edge">
<title>Node108&#45;&gt;Node110</title>
<path fill="none" stroke="#191970" d="M143.2755,-49.645C154.7538,-39.9058 168.9277,-27.8795 178.6354,-19.6427"/>
<polygon fill="#191970" stroke="#191970" points="140.857,-47.1069 135.4963,-56.2455 145.3859,-52.4445 140.857,-47.1069"/>
</g>
</g>
</svg>
