<?xml version="1.0" encoding="UTF-8" standalone="no"?>
<!DOCTYPE svg PUBLIC "-//W3C//DTD SVG 1.1//EN"
 "http://www.w3.org/Graphics/SVG/1.1/DTD/svg11.dtd">
<!-- Generated by graphviz version 5.0.0 (0)
 -->
<!-- Title: basic_fit.inl Pages: 1 -->
<svg width="166pt" height="84pt"
 viewBox="0.00 0.00 165.50 84.00" xmlns="http://www.w3.org/2000/svg" xmlns:xlink="http://www.w3.org/1999/xlink">
<g id="graph0" class="graph" transform="scale(1 1) rotate(0) translate(4 80)">
<title>basic_fit.inl</title>
<!-- Node189 -->
<g id="node1" class="node">
<title>Node189</title>
<polygon fill="#bfbfbf" stroke="black" points="47,-56.5 47,-75.5 113,-75.5 113,-56.5 47,-56.5"/>
<text text-anchor="middle" x="80" y="-63.5" font-family="Helvetica,sans-Serif" font-size="10.00">basic_fit.inl</text>
</g>
<!-- Node190 -->
<g id="node2" class="node">
<title>Node190</title>
<g id="a_node2"><a xlink:href="basic__fit_8cpp.html" target="_top" xlink:title="basic_fit.cpp">
<polygon fill="none" stroke="black" points="0,-0.5 0,-19.5 72,-19.5 72,-0.5 0,-0.5"/>
<text text-anchor="middle" x="36" y="-7.5" font-family="Helvetica,sans-Serif" font-size="10.00">basic_fit.cpp</text>
</a>
</g>
</g>
<!-- Node189&#45;&gt;Node190 -->
<g id="edge1" class="edge">
<title>Node189&#45;&gt;Node190</title>
<path fill="none" stroke="midnightblue" d="M66.27,-48.14C58.6,-38.74 49.37,-27.4 43.13,-19.75"/>
<polygon fill="midnightblue" stroke="midnightblue" points="63.7,-50.54 72.73,-56.08 69.13,-46.12 63.7,-50.54"/>
</g>
<!-- Node191 -->
<g id="node3" class="node">
<title>Node191</title>
<g id="a_node3"><a xlink:href="basic__fit_8cu.html" target="_top" xlink:title="basic_fit.cu">
<polygon fill="none" stroke="black" points="90.5,-0.5 90.5,-19.5 157.5,-19.5 157.5,-0.5 90.5,-0.5"/>
<text text-anchor="middle" x="124" y="-7.5" font-family="Helvetica,sans-Serif" font-size="10.00">basic_fit.cu</text>
</a>
</g>
</g>
<!-- Node189&#45;&gt;Node191 -->
<g id="edge2" class="edge">
<title>Node189&#45;&gt;Node191</title>
<path fill="none" stroke="midnightblue" d="M93.73,-48.14C101.4,-38.74 110.63,-27.4 116.87,-19.75"/>
<polygon fill="midnightblue" stroke="midnightblue" points="90.87,-46.12 87.27,-56.08 96.3,-50.54 90.87,-46.12"/>
</g>
</g>
</svg>
