<?xml version="1.0" encoding="UTF-8" standalone="no"?>
<!DOCTYPE svg PUBLIC "-//W3C//DTD SVG 1.1//EN"
 "http://www.w3.org/Graphics/SVG/1.1/DTD/svg11.dtd">
<!-- Generated by graphviz version 5.0.0 (0)
 -->
<!-- Title: BooststrappedRange.inl Pages: 1 -->
<!--zoomable 485 -->
<svg id="main" version="1.1" xmlns="http://www.w3.org/2000/svg" xmlns:xlink="http://www.w3.org/1999/xlink" xml:space="preserve" onload="init(evt)">
<style type="text/css"><![CDATA[
.edge:hover path { stroke: red; }
.edge:hover polygon { stroke: red; fill: red; }
]]></style>
<script type="text/javascript"><![CDATA[
var edges = document.getElementsByTagName('g');
if (edges && edges.length) {
  for (var i=0;i<edges.length;i++) {
    if (edges[i].id.substr(0,4)=='edge') {
      edges[i].setAttribute('class','edge');
    }
  }
}
]]></script>
        <defs>
                <circle id="rim" cx="0" cy="0" r="7"/>
                <circle id="rim2" cx="0" cy="0" r="3.5"/>
                <g id="zoomPlus">
                        <use xlink:href="#rim" fill="#404040">
                                <set attributeName="fill" to="#808080" begin="zoomplus.mouseover" end="zoomplus.mouseout"/>
                        </use>
                        <path d="M-4,0h8M0,-4v8" fill="none" stroke="white" stroke-width="1.5" pointer-events="none"/>
                </g>
                <g id="zoomMin">
                        <use xlink:href="#rim" fill="#404040">
                                <set attributeName="fill" to="#808080" begin="zoomminus.mouseover" end="zoomminus.mouseout"/>
                        </use>
                        <path d="M-4,0h8" fill="none" stroke="white" stroke-width="1.5" pointer-events="none"/>
                </g>
                <g id="dirArrow">
                        <path fill="none" stroke="white" stroke-width="1.5" d="M0,-3.0v7 M-2.5,-0.5L0,-3.0L2.5,-0.5"/>
                </g>
               <g id="resetDef">
                       <use xlink:href="#rim2" fill="#404040">
                               <set attributeName="fill" to="#808080" begin="reset.mouseover" end="reset.mouseout"/>
                       </use>
               </g>
        </defs>

<script type="text/javascript">
var viewWidth = 1535;
var viewHeight = 485;
var sectionId = 'dynsection-0';
</script>
<script xlink:href="svgpan.js"/>
<svg id="graph" class="graph">
<g id="viewport">
<title>BooststrappedRange.inl</title>
<!-- Node0 -->
<g id="node1" class="node">
<title>Node0</title>
<polygon fill="#bfbfbf" stroke="black" points="1006,-457.5 1006,-476.5 1127,-476.5 1127,-457.5 1006,-457.5"/>
<text text-anchor="middle" x="1066.5" y="-464.5" font-family="Helvetica,sans-Serif" font-size="10.00">BooststrappedRange.inl</text>
</g>
<!-- Node1 -->
<g id="node2" class="node">
<title>Node1</title>
<g id="a_node2"><a xlink:href="Config_8h.html" target="_top" xlink:title="hydra/detail/Config.h">
<polygon fill="none" stroke="black" points="1356,-89.5 1356,-108.5 1463,-108.5 1463,-89.5 1356,-89.5"/>
<text text-anchor="middle" x="1409.5" y="-96.5" font-family="Helvetica,sans-Serif" font-size="10.00">hydra/detail/Config.h</text>
</a>
</g>
</g>
<!-- Node0&#45;&gt;Node1 -->
<g id="edge1" class="edge">
<title>Node0&#45;&gt;Node1</title>
<path fill="none" stroke="midnightblue" d="M1092.05,-457.39C1136.99,-440.44 1225.5,-398.2 1225.5,-328.5 1225.5,-328.5 1225.5,-328.5 1225.5,-248.5 1225.5,-174.49 1316.75,-131.08 1370.73,-111.87"/>
<polygon fill="midnightblue" stroke="midnightblue" points="1372.03,-115.12 1380.34,-108.56 1369.75,-108.5 1372.03,-115.12"/>
</g>
<!-- Node4 -->
<g id="node5" class="node">
<title>Node4</title>
<g id="a_node5"><a xlink:href="RandomUtils_8h.html" target="_top" xlink:title="hydra/detail/functors\l/RandomUtils.h">
<polygon fill="none" stroke="black" points="601,-385 601,-415 706,-415 706,-385 601,-385"/>
<text text-anchor="start" x="609" y="-403" font-family="Helvetica,sans-Serif" font-size="10.00">hydra/detail/functors</text>
<text text-anchor="middle" x="653.5" y="-392" font-family="Helvetica,sans-Serif" font-size="10.00">/RandomUtils.h</text>
</a>
</g>
</g>
<!-- Node0&#45;&gt;Node4 -->
<g id="edge4" class="edge">
<title>Node0&#45;&gt;Node4</title>
<path fill="none" stroke="midnightblue" d="M1012.08,-457.44C935.62,-445.4 796.74,-423.54 716.1,-410.85"/>
<polygon fill="midnightblue" stroke="midnightblue" points="716.5,-407.37 706.08,-409.28 715.41,-414.29 716.5,-407.37"/>
</g>
<!-- Node19 -->
<g id="node20" class="node">
<title>Node19</title>
<polygon fill="none" stroke="#bfbfbf" points="499.5,-162 499.5,-181 539.5,-181 539.5,-162 499.5,-162"/>
<text text-anchor="middle" x="519.5" y="-169" font-family="Helvetica,sans-Serif" font-size="10.00">utility</text>
</g>
<!-- Node0&#45;&gt;Node19 -->
<g id="edge51" class="edge">
<title>Node0&#45;&gt;Node19</title>
<path fill="none" stroke="midnightblue" d="M1056.26,-457.35C1026.17,-432.25 934.78,-358.25 849.5,-312 811.27,-291.26 792.79,-302.76 758.5,-276 735.65,-258.17 744.82,-238.77 720.5,-223 653.51,-179.56 619.12,-215.4 544.5,-187 543.47,-186.61 542.43,-186.18 541.39,-185.71"/>
<polygon fill="midnightblue" stroke="midnightblue" points="542.82,-182.51 532.34,-181.01 539.6,-188.72 542.82,-182.51"/>
</g>
<!-- Node35 -->
<g id="node36" class="node">
<title>Node35</title>
<polygon fill="none" stroke="#bfbfbf" points="1254,-379.5 1254,-420.5 1367,-420.5 1367,-379.5 1254,-379.5"/>
<text text-anchor="start" x="1262" y="-408.5" font-family="Helvetica,sans-Serif" font-size="10.00">hydra/detail/external</text>
<text text-anchor="start" x="1262" y="-397.5" font-family="Helvetica,sans-Serif" font-size="10.00">/hydra_thrust/iterator</text>
<text text-anchor="middle" x="1310.5" y="-386.5" font-family="Helvetica,sans-Serif" font-size="10.00">/permutation_iterator.h</text>
</g>
<!-- Node0&#45;&gt;Node35 -->
<g id="edge50" class="edge">
<title>Node0&#45;&gt;Node35</title>
<path fill="none" stroke="midnightblue" d="M1100.04,-457.49C1134.93,-448.58 1191.12,-434.1 1239.5,-421 1240.97,-420.6 1242.45,-420.2 1243.95,-419.79"/>
<polygon fill="midnightblue" stroke="midnightblue" points="1245.23,-423.07 1253.95,-417.04 1243.38,-416.32 1245.23,-423.07"/>
</g>
<!-- Node2 -->
<g id="node3" class="node">
<title>Node2</title>
<polygon fill="none" stroke="#bfbfbf" points="1294.5,-0.5 1294.5,-41.5 1398.5,-41.5 1398.5,-0.5 1294.5,-0.5"/>
<text text-anchor="start" x="1302.5" y="-29.5" font-family="Helvetica,sans-Serif" font-size="10.00">hydra/detail/external</text>
<text text-anchor="start" x="1302.5" y="-18.5" font-family="Helvetica,sans-Serif" font-size="10.00">/hydra_thrust/detail</text>
<text text-anchor="middle" x="1346.5" y="-7.5" font-family="Helvetica,sans-Serif" font-size="10.00">/config.h</text>
</g>
<!-- Node1&#45;&gt;Node2 -->
<g id="edge2" class="edge">
<title>Node1&#45;&gt;Node2</title>
<path fill="none" stroke="midnightblue" d="M1402.27,-89.28C1394.28,-79.63 1380.98,-63.6 1369.38,-49.6"/>
<polygon fill="midnightblue" stroke="midnightblue" points="1371.87,-47.12 1362.8,-41.66 1366.48,-51.59 1371.87,-47.12"/>
</g>
<!-- Node3 -->
<g id="node4" class="node">
<title>Node3</title>
<polygon fill="none" stroke="#bfbfbf" points="1416.5,-0.5 1416.5,-41.5 1526.5,-41.5 1526.5,-0.5 1416.5,-0.5"/>
<text text-anchor="start" x="1424.5" y="-29.5" font-family="Helvetica,sans-Serif" font-size="10.00">hydra/detail/external</text>
<text text-anchor="start" x="1424.5" y="-18.5" font-family="Helvetica,sans-Serif" font-size="10.00">/hydra_thrust/detail</text>
<text text-anchor="middle" x="1471.5" y="-7.5" font-family="Helvetica,sans-Serif" font-size="10.00">/config/host_device.h</text>
</g>
<!-- Node1&#45;&gt;Node3 -->
<g id="edge3" class="edge">
<title>Node1&#45;&gt;Node3</title>
<path fill="none" stroke="midnightblue" d="M1416.61,-89.28C1424.48,-79.63 1437.57,-63.6 1448.98,-49.6"/>
<polygon fill="midnightblue" stroke="midnightblue" points="1451.85,-51.62 1455.46,-41.66 1446.43,-47.19 1451.85,-51.62"/>
</g>
<!-- Node4&#45;&gt;Node1 -->
<g id="edge5" class="edge">
<title>Node4&#45;&gt;Node1</title>
<path fill="none" stroke="midnightblue" d="M706.24,-393.08C792.28,-381.56 965.92,-350.4 1092.5,-276 1157.25,-237.94 1146.47,-193.59 1211.5,-156 1265.63,-124.71 1287.5,-137.6 1347.5,-120 1356.25,-117.43 1365.64,-114.5 1374.4,-111.68"/>
<polygon fill="midnightblue" stroke="midnightblue" points="1375.52,-115 1383.95,-108.58 1373.36,-108.34 1375.52,-115"/>
</g>
<!-- Node5 -->
<g id="node6" class="node">
<title>Node5</title>
<polygon fill="none" stroke="#bfbfbf" points="462,-312.5 462,-342.5 589,-342.5 589,-312.5 462,-312.5"/>
<text text-anchor="start" x="470" y="-330.5" font-family="Helvetica,sans-Serif" font-size="10.00">hydra/detail/external</text>
<text text-anchor="middle" x="525.5" y="-319.5" font-family="Helvetica,sans-Serif" font-size="10.00">/hydra_thrust/functional.h</text>
</g>
<!-- Node4&#45;&gt;Node5 -->
<g id="edge6" class="edge">
<title>Node4&#45;&gt;Node5</title>
<path fill="none" stroke="midnightblue" d="M627.9,-384.9C608.37,-374.14 581.26,-359.21 559.84,-347.42"/>
<polygon fill="midnightblue" stroke="midnightblue" points="561.5,-344.33 551.05,-342.57 558.12,-350.46 561.5,-344.33"/>
</g>
<!-- Node6 -->
<g id="node7" class="node">
<title>Node6</title>
<polygon fill="none" stroke="#bfbfbf" points="718.5,-312.5 718.5,-342.5 840.5,-342.5 840.5,-312.5 718.5,-312.5"/>
<text text-anchor="start" x="726.5" y="-330.5" font-family="Helvetica,sans-Serif" font-size="10.00">hydra/detail/external</text>
<text text-anchor="middle" x="779.5" y="-319.5" font-family="Helvetica,sans-Serif" font-size="10.00">/hydra_thrust/distance.h</text>
</g>
<!-- Node4&#45;&gt;Node6 -->
<g id="edge7" class="edge">
<title>Node4&#45;&gt;Node6</title>
<path fill="none" stroke="midnightblue" d="M678.7,-384.9C697.84,-374.19 724.37,-359.35 745.41,-347.57"/>
<polygon fill="midnightblue" stroke="midnightblue" points="747.33,-350.51 754.35,-342.57 743.91,-344.4 747.33,-350.51"/>
</g>
<!-- Node7 -->
<g id="node8" class="node">
<title>Node7</title>
<polygon fill="none" stroke="#bfbfbf" points="188.5,-312.5 188.5,-342.5 308.5,-342.5 308.5,-312.5 188.5,-312.5"/>
<text text-anchor="start" x="196.5" y="-330.5" font-family="Helvetica,sans-Serif" font-size="10.00">hydra/detail/external</text>
<text text-anchor="middle" x="248.5" y="-319.5" font-family="Helvetica,sans-Serif" font-size="10.00">/hydra_thrust/extrema.h</text>
</g>
<!-- Node4&#45;&gt;Node7 -->
<g id="edge8" class="edge">
<title>Node4&#45;&gt;Node7</title>
<path fill="none" stroke="midnightblue" d="M601,-390.95C536.78,-380.95 424.52,-362.96 318.58,-343.16"/>
<polygon fill="midnightblue" stroke="midnightblue" points="319.16,-339.71 308.68,-341.3 317.86,-346.59 319.16,-339.71"/>
</g>
<!-- Node8 -->
<g id="node9" class="node">
<title>Node8</title>
<polygon fill="none" stroke="#bfbfbf" points="327,-312.5 327,-342.5 444,-342.5 444,-312.5 327,-312.5"/>
<text text-anchor="start" x="335" y="-330.5" font-family="Helvetica,sans-Serif" font-size="10.00">hydra/detail/external</text>
<text text-anchor="middle" x="385.5" y="-319.5" font-family="Helvetica,sans-Serif" font-size="10.00">/hydra_thrust/random.h</text>
</g>
<!-- Node4&#45;&gt;Node8 -->
<g id="edge9" class="edge">
<title>Node4&#45;&gt;Node8</title>
<path fill="none" stroke="midnightblue" d="M600.87,-385.16C557.27,-373.69 495.18,-357.35 448.85,-345.17"/>
<polygon fill="midnightblue" stroke="midnightblue" points="449.49,-341.71 438.92,-342.55 447.71,-348.48 449.49,-341.71"/>
</g>
<!-- Node9 -->
<g id="node10" class="node">
<title>Node9</title>
<g id="a_node10"><a xlink:href="Utility__Tuple_8h.html" target="_top" xlink:title="hydra/detail/utility\l/Utility_Tuple.h">
<polygon fill="none" stroke="black" points="607,-312.5 607,-342.5 700,-342.5 700,-312.5 607,-312.5"/>
<text text-anchor="start" x="615" y="-330.5" font-family="Helvetica,sans-Serif" font-size="10.00">hydra/detail/utility</text>
<text text-anchor="middle" x="653.5" y="-319.5" font-family="Helvetica,sans-Serif" font-size="10.00">/Utility_Tuple.h</text>
</a>
</g>
</g>
<!-- Node4&#45;&gt;Node9 -->
<g id="edge10" class="edge">
<title>Node4&#45;&gt;Node9</title>
<path fill="none" stroke="midnightblue" d="M653.5,-384.73C653.5,-375.66 653.5,-363.66 653.5,-353.08"/>
<polygon fill="midnightblue" stroke="midnightblue" points="657,-352.75 653.5,-342.75 650,-352.75 657,-352.75"/>
</g>
<!-- Node9&#45;&gt;Node1 -->
<g id="edge11" class="edge">
<title>Node9&#45;&gt;Node1</title>
<path fill="none" stroke="midnightblue" d="M700.14,-313.88C703.29,-313.19 706.44,-312.56 709.5,-312 858.58,-284.94 911.12,-339.9 1048.5,-276 1118.33,-243.52 1105.35,-191.87 1173.5,-156 1243.38,-119.22 1271.14,-140.15 1347.5,-120 1356.56,-117.61 1366.24,-114.67 1375.21,-111.79"/>
<polygon fill="midnightblue" stroke="midnightblue" points="1376.53,-115.04 1384.94,-108.6 1374.35,-108.39 1376.53,-115.04"/>
</g>
<!-- Node10 -->
<g id="node11" class="node">
<title>Node10</title>
<g id="a_node11"><a xlink:href="Types_8h.html" target="_top" xlink:title="Common and useful typedefs. ">
<polygon fill="none" stroke="black" points="813.5,-162 813.5,-181 891.5,-181 891.5,-162 813.5,-162"/>
<text text-anchor="middle" x="852.5" y="-169" font-family="Helvetica,sans-Serif" font-size="10.00">hydra/Types.h</text>
</a>
</g>
</g>
<!-- Node9&#45;&gt;Node10 -->
<g id="edge12" class="edge">
<title>Node9&#45;&gt;Node10</title>
<path fill="none" stroke="midnightblue" d="M700.2,-314.18C703.34,-313.42 706.46,-312.69 709.5,-312 791.63,-293.44 841.92,-340.95 895.5,-276 910.49,-257.83 903.64,-245.11 895.5,-223 890.53,-209.49 880.16,-197.14 870.85,-188.03"/>
<polygon fill="midnightblue" stroke="midnightblue" points="873.15,-185.38 863.42,-181.18 868.41,-190.53 873.15,-185.38"/>
</g>
<!-- Node11 -->
<g id="node12" class="node">
<title>Node11</title>
<g id="a_node12"><a xlink:href="Generic_8h.html" target="_top" xlink:title="hydra/detail/utility\l/Generic.h">
<polygon fill="none" stroke="black" points="0,-234.5 0,-264.5 93,-264.5 93,-234.5 0,-234.5"/>
<text text-anchor="start" x="8" y="-252.5" font-family="Helvetica,sans-Serif" font-size="10.00">hydra/detail/utility</text>
<text text-anchor="middle" x="46.5" y="-241.5" font-family="Helvetica,sans-Serif" font-size="10.00">/Generic.h</text>
</a>
</g>
</g>
<!-- Node9&#45;&gt;Node11 -->
<g id="edge13" class="edge">
<title>Node9&#45;&gt;Node11</title>
<path fill="none" stroke="midnightblue" d="M606.88,-313.76C603.72,-313.1 600.57,-312.51 597.5,-312 382.04,-276.49 319.88,-326.77 107.5,-276 99.73,-274.14 91.67,-271.41 84.06,-268.41"/>
<polygon fill="midnightblue" stroke="midnightblue" points="85.29,-265.14 74.72,-264.53 82.61,-271.6 85.29,-265.14"/>
</g>
<!-- Node12 -->
<g id="node13" class="node">
<title>Node12</title>
<polygon fill="none" stroke="#bfbfbf" points="15.5,-89.5 15.5,-108.5 77.5,-108.5 77.5,-89.5 15.5,-89.5"/>
<text text-anchor="middle" x="46.5" y="-96.5" font-family="Helvetica,sans-Serif" font-size="10.00">type_traits</text>
</g>
<!-- Node9&#45;&gt;Node12 -->
<g id="edge48" class="edge">
<title>Node9&#45;&gt;Node12</title>
<path fill="none" stroke="midnightblue" d="M606.84,-314.02C603.69,-313.3 600.55,-312.62 597.5,-312 489.19,-290.12 456.72,-309.73 351.5,-276 269.16,-249.6 253.14,-230.65 178.5,-187 156.9,-174.37 152.39,-169.77 131.5,-156 109.96,-141.8 85.35,-125.59 68.17,-114.27"/>
<polygon fill="midnightblue" stroke="midnightblue" points="69.74,-111.11 59.46,-108.54 65.89,-116.96 69.74,-111.11"/>
</g>
<!-- Node13 -->
<g id="node14" class="node">
<title>Node13</title>
<polygon fill="none" stroke="#bfbfbf" points="84.5,-162 84.5,-181 122.5,-181 122.5,-162 84.5,-162"/>
<text text-anchor="middle" x="103.5" y="-169" font-family="Helvetica,sans-Serif" font-size="10.00">array</text>
</g>
<!-- Node9&#45;&gt;Node13 -->
<g id="edge49" class="edge">
<title>Node9&#45;&gt;Node13</title>
<path fill="none" stroke="midnightblue" d="M606.88,-313.78C603.72,-313.12 600.57,-312.52 597.5,-312 498.13,-295.31 226.78,-335.56 145.5,-276 118.22,-256.01 108.62,-215.23 105.27,-191.26"/>
<polygon fill="midnightblue" stroke="midnightblue" points="108.74,-190.81 104.1,-181.28 101.79,-191.62 108.74,-190.81"/>
</g>
<!-- Node14 -->
<g id="node15" class="node">
<title>Node14</title>
<g id="a_node15"><a xlink:href="TagTraits_8h.html" target="_top" xlink:title="hydra/detail/TagTraits.h">
<polygon fill="none" stroke="black" points="768,-240 768,-259 887,-259 887,-240 768,-240"/>
<text text-anchor="middle" x="827.5" y="-247" font-family="Helvetica,sans-Serif" font-size="10.00">hydra/detail/TagTraits.h</text>
</a>
</g>
</g>
<!-- Node9&#45;&gt;Node14 -->
<g id="edge16" class="edge">
<title>Node9&#45;&gt;Node14</title>
<path fill="none" stroke="midnightblue" d="M685.82,-312.38C718.1,-298.28 767.27,-276.81 798.38,-263.22"/>
<polygon fill="midnightblue" stroke="midnightblue" points="800.03,-266.32 807.8,-259.11 797.23,-259.9 800.03,-266.32"/>
</g>
<!-- Node15 -->
<g id="node16" class="node">
<title>Node15</title>
<g id="a_node16"><a xlink:href="FunctorTraits_8h.html" target="_top" xlink:title="hydra/detail/FunctorTraits.h">
<polygon fill="none" stroke="black" points="360.5,-240 360.5,-259 496.5,-259 496.5,-240 360.5,-240"/>
<text text-anchor="middle" x="428.5" y="-247" font-family="Helvetica,sans-Serif" font-size="10.00">hydra/detail/FunctorTraits.h</text>
</a>
</g>
</g>
<!-- Node9&#45;&gt;Node15 -->
<g id="edge19" class="edge">
<title>Node9&#45;&gt;Node15</title>
<path fill="none" stroke="midnightblue" d="M611.97,-312.47C569.24,-298.04 503.43,-275.81 463.34,-262.27"/>
<polygon fill="midnightblue" stroke="midnightblue" points="464.32,-258.9 453.73,-259.02 462.08,-265.54 464.32,-258.9"/>
</g>
<!-- Node17 -->
<g id="node18" class="node">
<title>Node17</title>
<polygon fill="none" stroke="#bfbfbf" points="375.5,-156.5 375.5,-186.5 481.5,-186.5 481.5,-156.5 375.5,-156.5"/>
<text text-anchor="start" x="383.5" y="-174.5" font-family="Helvetica,sans-Serif" font-size="10.00">hydra/detail/external</text>
<text text-anchor="middle" x="428.5" y="-163.5" font-family="Helvetica,sans-Serif" font-size="10.00">/hydra_thrust/tuple.h</text>
</g>
<!-- Node9&#45;&gt;Node17 -->
<g id="edge45" class="edge">
<title>Node9&#45;&gt;Node17</title>
<path fill="none" stroke="midnightblue" d="M617.88,-312.36C597.91,-303.52 573.15,-290.97 553.5,-276 528.22,-256.74 529.65,-243.66 505.5,-223 492.25,-211.66 476.3,-200.82 462.37,-192.1"/>
<polygon fill="midnightblue" stroke="midnightblue" points="463.91,-188.94 453.56,-186.7 460.25,-194.91 463.91,-188.94"/>
</g>
<!-- Node20 -->
<g id="node21" class="node">
<title>Node20</title>
<g id="a_node21"><a xlink:href="Parameter_8h.html" target="_top" xlink:title="hydra/Parameter.h">
<polygon fill="none" stroke="black" points="943.5,-240 943.5,-259 1039.5,-259 1039.5,-240 943.5,-240"/>
<text text-anchor="middle" x="991.5" y="-247" font-family="Helvetica,sans-Serif" font-size="10.00">hydra/Parameter.h</text>
</a>
</g>
</g>
<!-- Node9&#45;&gt;Node20 -->
<g id="edge26" class="edge">
<title>Node9&#45;&gt;Node20</title>
<path fill="none" stroke="midnightblue" d="M700.18,-314.07C703.32,-313.34 706.45,-312.64 709.5,-312 806.45,-291.56 834.18,-303.02 929.5,-276 941.25,-272.67 953.77,-267.79 964.47,-263.19"/>
<polygon fill="midnightblue" stroke="midnightblue" points="965.99,-266.34 973.71,-259.09 963.15,-259.94 965.99,-266.34"/>
</g>
<!-- Node24 -->
<g id="node25" class="node">
<title>Node24</title>
<polygon fill="none" stroke="#bfbfbf" points="235.5,-78.5 235.5,-119.5 339.5,-119.5 339.5,-78.5 235.5,-78.5"/>
<text text-anchor="start" x="243.5" y="-107.5" font-family="Helvetica,sans-Serif" font-size="10.00">hydra/detail/external</text>
<text text-anchor="start" x="243.5" y="-96.5" font-family="Helvetica,sans-Serif" font-size="10.00">/hydra_thrust/detail</text>
<text text-anchor="middle" x="287.5" y="-85.5" font-family="Helvetica,sans-Serif" font-size="10.00">/type_traits.h</text>
</g>
<!-- Node9&#45;&gt;Node24 -->
<g id="edge46" class="edge">
<title>Node9&#45;&gt;Node24</title>
<path fill="none" stroke="midnightblue" d="M627.75,-312.46C613.76,-303.65 597.19,-291.1 586.5,-276 554.19,-230.33 590.52,-192.93 548.5,-156 483.05,-98.47 439.23,-139.04 349.59,-119.94"/>
<polygon fill="midnightblue" stroke="midnightblue" points="350.14,-116.48 339.6,-117.61 348.55,-123.29 350.14,-116.48"/>
</g>
<!-- Node34 -->
<g id="node35" class="node">
<title>Node34</title>
<polygon fill="none" stroke="#bfbfbf" points="595.5,-223.5 595.5,-275.5 711.5,-275.5 711.5,-223.5 595.5,-223.5"/>
<text text-anchor="start" x="603.5" y="-263.5" font-family="Helvetica,sans-Serif" font-size="10.00">hydra/detail/external</text>
<text text-anchor="start" x="603.5" y="-252.5" font-family="Helvetica,sans-Serif" font-size="10.00">/hydra_thrust/iterator</text>
<text text-anchor="start" x="603.5" y="-241.5" font-family="Helvetica,sans-Serif" font-size="10.00">/detail/tuple_of_iterator</text>
<text text-anchor="middle" x="653.5" y="-230.5" font-family="Helvetica,sans-Serif" font-size="10.00">_references.h</text>
</g>
<!-- Node9&#45;&gt;Node34 -->
<g id="edge47" class="edge">
<title>Node9&#45;&gt;Node34</title>
<path fill="none" stroke="midnightblue" d="M653.5,-312.2C653.5,-304.63 653.5,-294.95 653.5,-285.53"/>
<polygon fill="midnightblue" stroke="midnightblue" points="657,-285.5 653.5,-275.5 650,-285.5 657,-285.5"/>
</g>
<!-- Node11&#45;&gt;Node12 -->
<g id="edge14" class="edge">
<title>Node11&#45;&gt;Node12</title>
<path fill="none" stroke="midnightblue" d="M46.5,-234.26C46.5,-207.35 46.5,-149.04 46.5,-118.9"/>
<polygon fill="midnightblue" stroke="midnightblue" points="50,-118.85 46.5,-108.85 43,-118.85 50,-118.85"/>
</g>
<!-- Node11&#45;&gt;Node13 -->
<g id="edge15" class="edge">
<title>Node11&#45;&gt;Node13</title>
<path fill="none" stroke="midnightblue" d="M57.22,-234.2C66.76,-221.49 80.72,-202.87 90.81,-189.42"/>
<polygon fill="midnightblue" stroke="midnightblue" points="93.88,-191.16 97.08,-181.06 88.28,-186.96 93.88,-191.16"/>
</g>
<!-- Node14&#45;&gt;Node10 -->
<g id="edge18" class="edge">
<title>Node14&#45;&gt;Node10</title>
<path fill="none" stroke="midnightblue" d="M830.37,-239.78C834.29,-227.87 841.41,-206.22 846.52,-190.69"/>
<polygon fill="midnightblue" stroke="midnightblue" points="849.87,-191.71 849.67,-181.12 843.22,-189.52 849.87,-191.71"/>
</g>
<!-- Node14&#45;&gt;Node12 -->
<g id="edge17" class="edge">
<title>Node14&#45;&gt;Node12</title>
<path fill="none" stroke="midnightblue" d="M803.96,-239.99C789.47,-234.85 770.5,-228.29 753.5,-223 696.67,-205.3 680.82,-206.27 624.5,-187 589.99,-175.19 584,-164.41 548.5,-156 348.09,-108.54 284.96,-175.08 86.5,-120 80.8,-118.42 74.94,-116 69.53,-113.39"/>
<polygon fill="midnightblue" stroke="midnightblue" points="70.89,-110.15 60.4,-108.62 67.64,-116.36 70.89,-110.15"/>
</g>
<!-- Node15&#45;&gt;Node1 -->
<g id="edge20" class="edge">
<title>Node15&#45;&gt;Node1</title>
<path fill="none" stroke="midnightblue" d="M479.23,-239.95C570.35,-224.51 753.52,-192.99 766.5,-187 786.29,-177.87 784.22,-163.99 804.5,-156 917.02,-111.68 1228.72,-142.73 1347.5,-120 1357.56,-118.07 1368.26,-115.01 1377.89,-111.85"/>
<polygon fill="midnightblue" stroke="midnightblue" points="1379.14,-115.12 1387.46,-108.57 1376.87,-108.5 1379.14,-115.12"/>
</g>
<!-- Node15&#45;&gt;Node12 -->
<g id="edge25" class="edge">
<title>Node15&#45;&gt;Node12</title>
<path fill="none" stroke="midnightblue" d="M411.46,-239.94C390.1,-228.9 352.76,-208.54 323.5,-187 307.03,-174.88 307.85,-165.03 289.5,-156 207.29,-115.53 173.49,-148.79 86.5,-120 81.06,-118.2 75.44,-115.78 70.19,-113.24"/>
<polygon fill="midnightblue" stroke="midnightblue" points="71.75,-110.11 61.26,-108.66 68.56,-116.34 71.75,-110.11"/>
</g>
<!-- Node16 -->
<g id="node17" class="node">
<title>Node16</title>
<g id="a_node17"><a xlink:href="StaticAssert_8h.html" target="_top" xlink:title="hydra/detail/utility\l/StaticAssert.h">
<polygon fill="none" stroke="black" points="188,-156.5 188,-186.5 281,-186.5 281,-156.5 188,-156.5"/>
<text text-anchor="start" x="196" y="-174.5" font-family="Helvetica,sans-Serif" font-size="10.00">hydra/detail/utility</text>
<text text-anchor="middle" x="234.5" y="-163.5" font-family="Helvetica,sans-Serif" font-size="10.00">/StaticAssert.h</text>
</a>
</g>
</g>
<!-- Node15&#45;&gt;Node16 -->
<g id="edge21" class="edge">
<title>Node15&#45;&gt;Node16</title>
<path fill="none" stroke="midnightblue" d="M406.62,-239.93C376.05,-227.95 319.81,-205.92 279.95,-190.3"/>
<polygon fill="midnightblue" stroke="midnightblue" points="281.03,-186.97 270.44,-186.58 278.48,-193.49 281.03,-186.97"/>
</g>
<!-- Node15&#45;&gt;Node17 -->
<g id="edge22" class="edge">
<title>Node15&#45;&gt;Node17</title>
<path fill="none" stroke="midnightblue" d="M428.5,-239.78C428.5,-229.3 428.5,-211.29 428.5,-196.53"/>
<polygon fill="midnightblue" stroke="midnightblue" points="432,-196.52 428.5,-186.52 425,-196.52 432,-196.52"/>
</g>
<!-- Node18 -->
<g id="node19" class="node">
<title>Node18</title>
<polygon fill="none" stroke="#bfbfbf" points="95.5,-78.5 95.5,-119.5 217.5,-119.5 217.5,-78.5 95.5,-78.5"/>
<text text-anchor="start" x="103.5" y="-107.5" font-family="Helvetica,sans-Serif" font-size="10.00">hydra/detail/external</text>
<text text-anchor="start" x="103.5" y="-96.5" font-family="Helvetica,sans-Serif" font-size="10.00">/hydra_thrust/type_traits</text>
<text text-anchor="middle" x="156.5" y="-85.5" font-family="Helvetica,sans-Serif" font-size="10.00">/void_t.h</text>
</g>
<!-- Node15&#45;&gt;Node18 -->
<g id="edge23" class="edge">
<title>Node15&#45;&gt;Node18</title>
<path fill="none" stroke="midnightblue" d="M419.61,-239.83C398.37,-219.26 344.86,-168.31 323.5,-156 306.6,-146.26 265.06,-132.31 227.64,-120.78"/>
<polygon fill="midnightblue" stroke="midnightblue" points="228.31,-117.33 217.72,-117.75 226.26,-124.02 228.31,-117.33"/>
</g>
<!-- Node15&#45;&gt;Node19 -->
<g id="edge24" class="edge">
<title>Node15&#45;&gt;Node19</title>
<path fill="none" stroke="midnightblue" d="M438.94,-239.78C454.16,-227.07 482.67,-203.26 501.37,-187.65"/>
<polygon fill="midnightblue" stroke="midnightblue" points="503.75,-190.21 509.18,-181.12 499.26,-184.84 503.75,-190.21"/>
</g>
<!-- Node20&#45;&gt;Node1 -->
<g id="edge27" class="edge">
<title>Node20&#45;&gt;Node1</title>
<path fill="none" stroke="midnightblue" d="M1006.44,-239.89C1026.36,-228.31 1062.56,-206.86 1092.5,-187 1112.13,-173.97 1113.77,-165.1 1135.5,-156 1223.66,-119.1 1254.67,-142.73 1347.5,-120 1356.94,-117.69 1367.03,-114.68 1376.26,-111.69"/>
<polygon fill="midnightblue" stroke="midnightblue" points="1377.49,-114.97 1385.88,-108.5 1375.29,-108.33 1377.49,-114.97"/>
</g>
<!-- Node20&#45;&gt;Node10 -->
<g id="edge28" class="edge">
<title>Node20&#45;&gt;Node10</title>
<path fill="none" stroke="midnightblue" d="M975.83,-239.93C951.84,-226.82 905.82,-201.65 877.28,-186.05"/>
<polygon fill="midnightblue" stroke="midnightblue" points="878.78,-182.88 868.33,-181.16 875.43,-189.02 878.78,-182.88"/>
</g>
<!-- Node21 -->
<g id="node22" class="node">
<title>Node21</title>
<g id="a_node22"><a xlink:href="TypeTraits_8h.html" target="_top" xlink:title="hydra/detail/TypeTraits.h">
<polygon fill="none" stroke="black" points="633.5,-162 633.5,-181 757.5,-181 757.5,-162 633.5,-162"/>
<text text-anchor="middle" x="695.5" y="-169" font-family="Helvetica,sans-Serif" font-size="10.00">hydra/detail/TypeTraits.h</text>
</a>
</g>
</g>
<!-- Node20&#45;&gt;Node21 -->
<g id="edge29" class="edge">
<title>Node20&#45;&gt;Node21</title>
<path fill="none" stroke="midnightblue" d="M959.53,-239.9C940.87,-234.91 916.87,-228.54 895.5,-223 841.97,-209.13 780.25,-193.62 739.7,-183.49"/>
<polygon fill="midnightblue" stroke="midnightblue" points="740.41,-180.06 729.86,-181.04 738.72,-186.86 740.41,-180.06"/>
</g>
<!-- Node31 -->
<g id="node32" class="node">
<title>Node31</title>
<polygon fill="none" stroke="#bfbfbf" points="910,-162 910,-181 951,-181 951,-162 910,-162"/>
<text text-anchor="middle" x="930.5" y="-169" font-family="Helvetica,sans-Serif" font-size="10.00">string</text>
</g>
<!-- Node20&#45;&gt;Node31 -->
<g id="edge42" class="edge">
<title>Node20&#45;&gt;Node31</title>
<path fill="none" stroke="midnightblue" d="M984.5,-239.78C974.57,-227.41 956.22,-204.54 943.69,-188.93"/>
<polygon fill="midnightblue" stroke="midnightblue" points="946.4,-186.72 937.42,-181.12 940.95,-191.11 946.4,-186.72"/>
</g>
<!-- Node32 -->
<g id="node33" class="node">
<title>Node32</title>
<polygon fill="none" stroke="#bfbfbf" points="969.5,-162 969.5,-181 1021.5,-181 1021.5,-162 969.5,-162"/>
<text text-anchor="middle" x="995.5" y="-169" font-family="Helvetica,sans-Serif" font-size="10.00">ostream</text>
</g>
<!-- Node20&#45;&gt;Node32 -->
<g id="edge43" class="edge">
<title>Node20&#45;&gt;Node32</title>
<path fill="none" stroke="midnightblue" d="M991.96,-239.78C992.58,-227.99 993.7,-206.63 994.52,-191.14"/>
<polygon fill="midnightblue" stroke="midnightblue" points="998.02,-191.29 995.05,-181.12 991.03,-190.92 998.02,-191.29"/>
</g>
<!-- Node33 -->
<g id="node34" class="node">
<title>Node33</title>
<polygon fill="none" stroke="#bfbfbf" points="1039.5,-162 1039.5,-181 1083.5,-181 1083.5,-162 1039.5,-162"/>
<text text-anchor="middle" x="1061.5" y="-169" font-family="Helvetica,sans-Serif" font-size="10.00">vector</text>
</g>
<!-- Node20&#45;&gt;Node33 -->
<g id="edge44" class="edge">
<title>Node20&#45;&gt;Node33</title>
<path fill="none" stroke="midnightblue" d="M999.53,-239.78C1011.03,-227.3 1032.38,-204.12 1046.77,-188.5"/>
<polygon fill="midnightblue" stroke="midnightblue" points="1049.36,-190.84 1053.56,-181.12 1044.21,-186.1 1049.36,-190.84"/>
</g>
<!-- Node21&#45;&gt;Node1 -->
<g id="edge30" class="edge">
<title>Node21&#45;&gt;Node1</title>
<path fill="none" stroke="midnightblue" d="M735.19,-161.95C746.84,-159.7 759.64,-157.5 771.5,-156 1025.98,-123.9 1095.48,-167.74 1347.5,-120 1357.56,-118.09 1368.26,-115.03 1377.89,-111.88"/>
<polygon fill="midnightblue" stroke="midnightblue" points="1379.14,-115.15 1387.47,-108.59 1376.87,-108.52 1379.14,-115.15"/>
</g>
<!-- Node21&#45;&gt;Node12 -->
<g id="edge31" class="edge">
<title>Node21&#45;&gt;Node12</title>
<path fill="none" stroke="midnightblue" d="M655.81,-161.99C644.16,-159.74 631.36,-157.53 619.5,-156 384.01,-125.7 315.61,-182.31 86.5,-120 80.79,-118.45 74.93,-116.04 69.52,-113.44"/>
<polygon fill="midnightblue" stroke="midnightblue" points="70.88,-110.2 60.39,-108.66 67.63,-116.4 70.88,-110.2"/>
</g>
<!-- Node21&#45;&gt;Node18 -->
<g id="edge41" class="edge">
<title>Node21&#45;&gt;Node18</title>
<path fill="none" stroke="midnightblue" d="M654.6,-161.94C643.27,-159.78 630.94,-157.61 619.5,-156 449.04,-131.99 400.69,-151.48 227.75,-120.05"/>
<polygon fill="midnightblue" stroke="midnightblue" points="228.27,-116.59 217.81,-118.22 227,-123.48 228.27,-116.59"/>
</g>
<!-- Node22 -->
<g id="node23" class="node">
<title>Node22</title>
<polygon fill="none" stroke="#bfbfbf" points="489.5,-89.5 489.5,-108.5 529.5,-108.5 529.5,-89.5 489.5,-89.5"/>
<text text-anchor="middle" x="509.5" y="-96.5" font-family="Helvetica,sans-Serif" font-size="10.00">limits</text>
</g>
<!-- Node21&#45;&gt;Node22 -->
<g id="edge32" class="edge">
<title>Node21&#45;&gt;Node22</title>
<path fill="none" stroke="midnightblue" d="M658.79,-161.95C626.21,-153.61 577.8,-139.35 538.5,-120 535.22,-118.38 531.89,-116.43 528.71,-114.39"/>
<polygon fill="midnightblue" stroke="midnightblue" points="530.54,-111.4 520.32,-108.59 526.56,-117.16 530.54,-111.4"/>
</g>
<!-- Node23 -->
<g id="node24" class="node">
<title>Node23</title>
<polygon fill="none" stroke="#bfbfbf" points="547.5,-84 547.5,-114 669.5,-114 669.5,-84 547.5,-84"/>
<text text-anchor="start" x="555.5" y="-102" font-family="Helvetica,sans-Serif" font-size="10.00">hydra/detail/external</text>
<text text-anchor="middle" x="608.5" y="-91" font-family="Helvetica,sans-Serif" font-size="10.00">/hydra_thrust/complex.h</text>
</g>
<!-- Node21&#45;&gt;Node23 -->
<g id="edge33" class="edge">
<title>Node21&#45;&gt;Node23</title>
<path fill="none" stroke="midnightblue" d="M684.83,-161.86C672.2,-151.62 650.73,-134.22 633.77,-120.48"/>
<polygon fill="midnightblue" stroke="midnightblue" points="635.84,-117.65 625.87,-114.08 631.44,-123.09 635.84,-117.65"/>
</g>
<!-- Node21&#45;&gt;Node24 -->
<g id="edge34" class="edge">
<title>Node21&#45;&gt;Node24</title>
<path fill="none" stroke="midnightblue" d="M652.97,-161.95C642.08,-159.88 630.37,-157.76 619.5,-156 502.72,-137.12 468.73,-146.51 349.45,-120.01"/>
<polygon fill="midnightblue" stroke="midnightblue" points="350.09,-116.56 339.57,-117.77 348.55,-123.39 350.09,-116.56"/>
</g>
<!-- Node25 -->
<g id="node26" class="node">
<title>Node25</title>
<polygon fill="none" stroke="#bfbfbf" points="688,-78.5 688,-119.5 807,-119.5 807,-78.5 688,-78.5"/>
<text text-anchor="start" x="696" y="-107.5" font-family="Helvetica,sans-Serif" font-size="10.00">hydra/detail/external</text>
<text text-anchor="start" x="696" y="-96.5" font-family="Helvetica,sans-Serif" font-size="10.00">/hydra_thrust/execution</text>
<text text-anchor="middle" x="747.5" y="-85.5" font-family="Helvetica,sans-Serif" font-size="10.00">_policy.h</text>
</g>
<!-- Node21&#45;&gt;Node25 -->
<g id="edge35" class="edge">
<title>Node21&#45;&gt;Node25</title>
<path fill="none" stroke="midnightblue" d="M701.88,-161.86C708.13,-153.37 718.02,-139.97 726.99,-127.81"/>
<polygon fill="midnightblue" stroke="midnightblue" points="729.88,-129.79 733,-119.66 724.25,-125.63 729.88,-129.79"/>
</g>
<!-- Node26 -->
<g id="node27" class="node">
<title>Node26</title>
<polygon fill="none" stroke="#bfbfbf" points="825.5,-78.5 825.5,-119.5 933.5,-119.5 933.5,-78.5 825.5,-78.5"/>
<text text-anchor="start" x="833.5" y="-107.5" font-family="Helvetica,sans-Serif" font-size="10.00">hydra/detail/external</text>
<text text-anchor="start" x="833.5" y="-96.5" font-family="Helvetica,sans-Serif" font-size="10.00">/hydra_thrust/iterator</text>
<text text-anchor="middle" x="879.5" y="-85.5" font-family="Helvetica,sans-Serif" font-size="10.00">/iterator_categories.h</text>
</g>
<!-- Node21&#45;&gt;Node26 -->
<g id="edge36" class="edge">
<title>Node21&#45;&gt;Node26</title>
<path fill="none" stroke="midnightblue" d="M717.69,-162C742.59,-152.46 784.04,-136.57 818.76,-123.27"/>
<polygon fill="midnightblue" stroke="midnightblue" points="820.26,-126.44 828.35,-119.6 817.76,-119.91 820.26,-126.44"/>
</g>
<!-- Node27 -->
<g id="node28" class="node">
<title>Node27</title>
<polygon fill="none" stroke="#bfbfbf" points="951.5,-78.5 951.5,-119.5 1089.5,-119.5 1089.5,-78.5 951.5,-78.5"/>
<text text-anchor="start" x="959.5" y="-107.5" font-family="Helvetica,sans-Serif" font-size="10.00">hydra/detail/external</text>
<text text-anchor="start" x="959.5" y="-96.5" font-family="Helvetica,sans-Serif" font-size="10.00">/hydra_thrust/iterator</text>
<text text-anchor="middle" x="1020.5" y="-85.5" font-family="Helvetica,sans-Serif" font-size="10.00">/detail/is_iterator_category.h</text>
</g>
<!-- Node21&#45;&gt;Node27 -->
<g id="edge37" class="edge">
<title>Node21&#45;&gt;Node27</title>
<path fill="none" stroke="midnightblue" d="M740.72,-161.95C788.22,-152.81 865.35,-137.54 941.04,-120.29"/>
<polygon fill="midnightblue" stroke="midnightblue" points="942.26,-123.6 951.22,-117.95 940.69,-116.78 942.26,-123.6"/>
</g>
<!-- Node28 -->
<g id="node29" class="node">
<title>Node28</title>
<polygon fill="none" stroke="#bfbfbf" points="1108,-78.5 1108,-119.5 1215,-119.5 1215,-78.5 1108,-78.5"/>
<text text-anchor="start" x="1116" y="-107.5" font-family="Helvetica,sans-Serif" font-size="10.00">hydra/detail/external</text>
<text text-anchor="start" x="1116" y="-96.5" font-family="Helvetica,sans-Serif" font-size="10.00">/hydra_thrust/iterator</text>
<text text-anchor="middle" x="1161.5" y="-85.5" font-family="Helvetica,sans-Serif" font-size="10.00">/iterator_traits.h</text>
</g>
<!-- Node21&#45;&gt;Node28 -->
<g id="edge38" class="edge">
<title>Node21&#45;&gt;Node28</title>
<path fill="none" stroke="midnightblue" d="M737.21,-161.93C748.32,-159.81 760.34,-157.68 771.5,-156 912.84,-134.77 953.63,-149.57 1097.64,-119.95"/>
<polygon fill="midnightblue" stroke="midnightblue" points="1098.66,-123.31 1107.73,-117.84 1097.23,-116.46 1098.66,-123.31"/>
</g>
<!-- Node29 -->
<g id="node30" class="node">
<title>Node29</title>
<polygon fill="none" stroke="#bfbfbf" points="1233,-78.5 1233,-119.5 1338,-119.5 1338,-78.5 1233,-78.5"/>
<text text-anchor="start" x="1241" y="-107.5" font-family="Helvetica,sans-Serif" font-size="10.00">hydra/detail/external</text>
<text text-anchor="start" x="1241" y="-96.5" font-family="Helvetica,sans-Serif" font-size="10.00">/hydra_thrust/device</text>
<text text-anchor="middle" x="1285.5" y="-85.5" font-family="Helvetica,sans-Serif" font-size="10.00">_reference.h</text>
</g>
<!-- Node21&#45;&gt;Node29 -->
<g id="edge39" class="edge">
<title>Node21&#45;&gt;Node29</title>
<path fill="none" stroke="midnightblue" d="M735.99,-161.93C747.43,-159.74 759.92,-157.56 771.5,-156 968,-129.51 1024.03,-158.24 1223.06,-119.81"/>
<polygon fill="midnightblue" stroke="midnightblue" points="1223.82,-123.23 1232.95,-117.87 1222.47,-116.36 1223.82,-123.23"/>
</g>
<!-- Node30 -->
<g id="node31" class="node">
<title>Node30</title>
<polygon fill="none" stroke="#bfbfbf" points="358,-78.5 358,-119.5 471,-119.5 471,-78.5 358,-78.5"/>
<text text-anchor="start" x="366" y="-107.5" font-family="Helvetica,sans-Serif" font-size="10.00">hydra/detail/external</text>
<text text-anchor="start" x="366" y="-96.5" font-family="Helvetica,sans-Serif" font-size="10.00">/hydra_thrust/detail</text>
<text text-anchor="middle" x="414.5" y="-85.5" font-family="Helvetica,sans-Serif" font-size="10.00">/raw_reference_cast.h</text>
</g>
<!-- Node21&#45;&gt;Node30 -->
<g id="edge40" class="edge">
<title>Node21&#45;&gt;Node30</title>
<path fill="none" stroke="midnightblue" d="M655.68,-161.94C614.41,-152.9 547.84,-137.81 481.15,-120.1"/>
<polygon fill="midnightblue" stroke="midnightblue" points="481.88,-116.67 471.32,-117.47 480.07,-123.43 481.88,-116.67"/>
</g>
</g>
</svg>
        <g id="navigator" transform="translate(0 0)" fill="#404254">
                <rect fill="#f2f5e9" fill-opacity="0.5" stroke="#606060" stroke-width=".5" x="0" y="0" width="60" height="60"/>
                <use id="zoomplus" xlink:href="#zoomPlus" x="17" y="9" onmousedown="handleZoom(evt,'in')"/>
                <use id="zoomminus" xlink:href="#zoomMin" x="42" y="9" onmousedown="handleZoom(evt,'out')"/>
                <use id="reset" xlink:href="#resetDef" x="30" y="36" onmousedown="handleReset()"/>
                <g id="arrowUp" xlink:href="#dirArrow" transform="translate(30 24)" onmousedown="handlePan(0,-1)">
                  <use xlink:href="#rim" fill="#404040">
                        <set attributeName="fill" to="#808080" begin="arrowUp.mouseover" end="arrowUp.mouseout"/>
                  </use>
                  <path fill="none" stroke="white" stroke-width="1.5" d="M0,-3.0v7 M-2.5,-0.5L0,-3.0L2.5,-0.5"/>
                </g>
                <g id="arrowRight" xlink:href="#dirArrow" transform="rotate(90) translate(36 -43)" onmousedown="handlePan(1,0)">
                  <use xlink:href="#rim" fill="#404040">
                        <set attributeName="fill" to="#808080" begin="arrowRight.mouseover" end="arrowRight.mouseout"/>
                  </use>
                  <path fill="none" stroke="white" stroke-width="1.5" d="M0,-3.0v7 M-2.5,-0.5L0,-3.0L2.5,-0.5"/>
                </g>
                <g id="arrowDown" xlink:href="#dirArrow" transform="rotate(180) translate(-30 -48)" onmousedown="handlePan(0,1)">
                  <use xlink:href="#rim" fill="#404040">
                        <set attributeName="fill" to="#808080" begin="arrowDown.mouseover" end="arrowDown.mouseout"/>
                  </use>
                  <path fill="none" stroke="white" stroke-width="1.5" d="M0,-3.0v7 M-2.5,-0.5L0,-3.0L2.5,-0.5"/>
                </g>
                <g id="arrowLeft" xlink:href="#dirArrow" transform="rotate(270) translate(-36 17)" onmousedown="handlePan(-1,0)">
                  <use xlink:href="#rim" fill="#404040">
                        <set attributeName="fill" to="#808080" begin="arrowLeft.mouseover" end="arrowLeft.mouseout"/>
                  </use>
                  <path fill="none" stroke="white" stroke-width="1.5" d="M0,-3.0v7 M-2.5,-0.5L0,-3.0L2.5,-0.5"/>
                </g>
        </g>
        <svg viewBox="0 0 15 15" width="100%" height="30px" preserveAspectRatio="xMaxYMin meet">
         <g id="arrow_out" transform="scale(0.3 0.3)">
          <a xlink:href="BooststrappedRange_8inl__incl_org.svg" target="_base">
           <rect id="button" ry="5" rx="5" y="6" x="6" height="38" width="38"
                fill="#f2f5e9" fill-opacity="0.5" stroke="#606060" stroke-width="1.0"/>
           <path id="arrow"
             d="M 11.500037,31.436501 C 11.940474,20.09759 22.043105,11.32322 32.158766,21.979434 L 37.068811,17.246167 C 37.068811,17.246167 37.088388,32 37.088388,32 L 22.160133,31.978069 C 22.160133,31.978069 26.997745,27.140456 26.997745,27.140456 C 18.528582,18.264221 13.291696,25.230495 11.500037,31.436501 z"
             style="fill:#404040;"/>
          </a>
         </g>
        </svg>
</svg>
