<?xml version="1.0" encoding="UTF-8" standalone="no"?>
<!DOCTYPE svg PUBLIC "-//W3C//DTD SVG 1.1//EN"
 "http://www.w3.org/Graphics/SVG/1.1/DTD/svg11.dtd">
<!-- Generated by graphviz version 2.42.4 (0)
 -->
<!-- Title: breit_wigner_plus_polynomial.inl Pages: 1 -->
<svg width="348pt" height="84pt"
 viewBox="0.00 0.00 347.50 84.00" xmlns="http://www.w3.org/2000/svg" xmlns:xlink="http://www.w3.org/1999/xlink">
<g id="graph0" class="graph" transform="scale(1 1) rotate(0) translate(4 80)">
<title>breit_wigner_plus_polynomial.inl</title>
<!-- Node177 -->
<g id="node1" class="node">
<title>Node177</title>
<polygon fill="#bfbfbf" stroke="black" points="92,-56.5 92,-75.5 249,-75.5 249,-56.5 92,-56.5"/>
<text text-anchor="middle" x="170.5" y="-63.5" font-family="Helvetica,sans-Serif" font-size="10.00">breit_wigner_plus_polynomial.inl</text>
</g>
<!-- Node178 -->
<g id="node2" class="node">
<title>Node178</title>
<g id="a_node2"><a xlink:href="breit__wigner__plus__polynomial_8cpp.html" target="_top" xlink:title="breit_wigner_plus_polynomial.cpp">
<polygon fill="none" stroke="black" points="0,-0.5 0,-19.5 163,-19.5 163,-0.5 0,-0.5"/>
<text text-anchor="middle" x="81.5" y="-7.5" font-family="Helvetica,sans-Serif" font-size="10.00">breit_wigner_plus_polynomial.cpp</text>
</a>
</g>
</g>
<!-- Node177&#45;&gt;Node178 -->
<g id="edge1" class="edge">
<title>Node177&#45;&gt;Node178</title>
<path fill="none" stroke="midnightblue" d="M147.26,-50.9C130.94,-41 109.63,-28.07 95.76,-19.65"/>
<polygon fill="midnightblue" stroke="midnightblue" points="145.84,-54.13 156.2,-56.32 149.47,-48.14 145.84,-54.13"/>
</g>
<!-- Node179 -->
<g id="node3" class="node">
<title>Node179</title>
<g id="a_node3"><a xlink:href="breit__wigner__plus__polynomial_8cu.html" target="_top" xlink:title="breit_wigner_plus_polynomial.cu">
<polygon fill="none" stroke="black" points="181.5,-0.5 181.5,-19.5 339.5,-19.5 339.5,-0.5 181.5,-0.5"/>
<text text-anchor="middle" x="260.5" y="-7.5" font-family="Helvetica,sans-Serif" font-size="10.00">breit_wigner_plus_polynomial.cu</text>
</a>
</g>
</g>
<!-- Node177&#45;&gt;Node179 -->
<g id="edge2" class="edge">
<title>Node177&#45;&gt;Node179</title>
<path fill="none" stroke="midnightblue" d="M193.54,-51.18C210.1,-41.24 231.92,-28.15 246.08,-19.65"/>
<polygon fill="midnightblue" stroke="midnightblue" points="191.73,-48.18 184.96,-56.32 195.34,-54.18 191.73,-48.18"/>
</g>
</g>
</svg>
