<?xml version="1.0" encoding="UTF-8" standalone="no"?>
<!DOCTYPE svg PUBLIC "-//W3C//DTD SVG 1.1//EN"
 "http://www.w3.org/Graphics/SVG/1.1/DTD/svg11.dtd">
<!-- Generated by graphviz version 2.42.4 (0)
 -->
<!-- Title: Chebychev.h Pages: 1 -->
<svg width="1095pt" height="140pt"
 viewBox="0.00 0.00 1095.00 140.00" xmlns="http://www.w3.org/2000/svg" xmlns:xlink="http://www.w3.org/1999/xlink">
<g id="graph0" class="graph" transform="scale(1 1) rotate(0) translate(4 136)">
<title>Chebychev.h</title>
<!-- Node75 -->
<g id="node1" class="node">
<title>Node75</title>
<polygon fill="#bfbfbf" stroke="black" points="491.5,-112.5 491.5,-131.5 564.5,-131.5 564.5,-112.5 491.5,-112.5"/>
<text text-anchor="middle" x="528" y="-119.5" font-family="Helvetica,sans-Serif" font-size="10.00">Chebychev.h</text>
</g>
<!-- Node76 -->
<g id="node2" class="node">
<title>Node76</title>
<g id="a_node2"><a xlink:href="quick__test_8inl.html" target="_top" xlink:title="quick_test.inl">
<polygon fill="none" stroke="black" points="99,-56.5 99,-75.5 173,-75.5 173,-56.5 99,-56.5"/>
<text text-anchor="middle" x="136" y="-63.5" font-family="Helvetica,sans-Serif" font-size="10.00">quick_test.inl</text>
</a>
</g>
</g>
<!-- Node75&#45;&gt;Node76 -->
<g id="edge1" class="edge">
<title>Node75&#45;&gt;Node76</title>
<path fill="none" stroke="midnightblue" d="M481.36,-114.58C402.64,-103.73 244.95,-82.01 173.15,-72.12"/>
<polygon fill="midnightblue" stroke="midnightblue" points="481.09,-118.07 491.47,-115.97 482.04,-111.14 481.09,-118.07"/>
</g>
<!-- Node79 -->
<g id="node5" class="node">
<title>Node79</title>
<g id="a_node5"><a xlink:href="breit__wigner__plus__chebychev_8inl.html" target="_top" xlink:title="breit_wigner_plus_chebychev.inl">
<polygon fill="none" stroke="black" points="373,-56.5 373,-75.5 529,-75.5 529,-56.5 373,-56.5"/>
<text text-anchor="middle" x="451" y="-63.5" font-family="Helvetica,sans-Serif" font-size="10.00">breit_wigner_plus_chebychev.inl</text>
</a>
</g>
</g>
<!-- Node75&#45;&gt;Node79 -->
<g id="edge4" class="edge">
<title>Node75&#45;&gt;Node79</title>
<path fill="none" stroke="midnightblue" d="M507.1,-106.34C493.09,-96.52 475.12,-83.91 463.34,-75.65"/>
<polygon fill="midnightblue" stroke="midnightblue" points="505.43,-109.45 515.63,-112.32 509.45,-103.72 505.43,-109.45"/>
</g>
<!-- Node82 -->
<g id="node8" class="node">
<title>Node82</title>
<g id="a_node8"><a xlink:href="basic__distributions_8inl.html" target="_top" xlink:title="basic_distributions.inl">
<polygon fill="none" stroke="black" points="551,-56.5 551,-75.5 661,-75.5 661,-56.5 551,-56.5"/>
<text text-anchor="middle" x="606" y="-63.5" font-family="Helvetica,sans-Serif" font-size="10.00">basic_distributions.inl</text>
</a>
</g>
</g>
<!-- Node75&#45;&gt;Node82 -->
<g id="edge7" class="edge">
<title>Node75&#45;&gt;Node82</title>
<path fill="none" stroke="midnightblue" d="M548.77,-106.62C563.02,-96.76 581.46,-83.99 593.5,-75.65"/>
<polygon fill="midnightblue" stroke="midnightblue" points="546.76,-103.75 540.53,-112.32 550.75,-109.51 546.76,-103.75"/>
</g>
<!-- Node85 -->
<g id="node11" class="node">
<title>Node85</title>
<g id="a_node11"><a xlink:href="fill__basic__distributions_8inl.html" target="_top" xlink:title="fill_basic_distributions.inl">
<polygon fill="none" stroke="black" points="814.5,-56.5 814.5,-75.5 939.5,-75.5 939.5,-56.5 814.5,-56.5"/>
<text text-anchor="middle" x="877" y="-63.5" font-family="Helvetica,sans-Serif" font-size="10.00">fill_basic_distributions.inl</text>
</a>
</g>
</g>
<!-- Node75&#45;&gt;Node85 -->
<g id="edge10" class="edge">
<title>Node75&#45;&gt;Node85</title>
<path fill="none" stroke="midnightblue" d="M574.91,-113.74C639.05,-103.82 753.89,-86.05 822,-75.51"/>
<polygon fill="midnightblue" stroke="midnightblue" points="574.04,-110.34 564.69,-115.32 575.11,-117.25 574.04,-110.34"/>
</g>
<!-- Node77 -->
<g id="node3" class="node">
<title>Node77</title>
<g id="a_node3"><a xlink:href="quick__test_8cpp.html" target="_top" xlink:title="quick_test.cpp">
<polygon fill="none" stroke="black" points="0,-0.5 0,-19.5 80,-19.5 80,-0.5 0,-0.5"/>
<text text-anchor="middle" x="40" y="-7.5" font-family="Helvetica,sans-Serif" font-size="10.00">quick_test.cpp</text>
</a>
</g>
</g>
<!-- Node76&#45;&gt;Node77 -->
<g id="edge2" class="edge">
<title>Node76&#45;&gt;Node77</title>
<path fill="none" stroke="midnightblue" d="M111.43,-51.18C93.76,-41.24 70.49,-28.15 55.39,-19.65"/>
<polygon fill="midnightblue" stroke="midnightblue" points="110.14,-54.47 120.58,-56.32 113.58,-48.37 110.14,-54.47"/>
</g>
<!-- Node78 -->
<g id="node4" class="node">
<title>Node78</title>
<g id="a_node4"><a xlink:href="quick__test_8cu.html" target="_top" xlink:title="quick_test.cu">
<polygon fill="none" stroke="black" points="98.5,-0.5 98.5,-19.5 173.5,-19.5 173.5,-0.5 98.5,-0.5"/>
<text text-anchor="middle" x="136" y="-7.5" font-family="Helvetica,sans-Serif" font-size="10.00">quick_test.cu</text>
</a>
</g>
</g>
<!-- Node76&#45;&gt;Node78 -->
<g id="edge3" class="edge">
<title>Node76&#45;&gt;Node78</title>
<path fill="none" stroke="midnightblue" d="M136,-45.8C136,-36.91 136,-26.78 136,-19.75"/>
<polygon fill="midnightblue" stroke="midnightblue" points="132.5,-46.08 136,-56.08 139.5,-46.08 132.5,-46.08"/>
</g>
<!-- Node80 -->
<g id="node6" class="node">
<title>Node80</title>
<g id="a_node6"><a xlink:href="breit__wigner__plus__chebychev_8cpp.html" target="_top" xlink:title="breit_wigner_plus_chebychev.cpp">
<polygon fill="none" stroke="black" points="192,-0.5 192,-19.5 354,-19.5 354,-0.5 192,-0.5"/>
<text text-anchor="middle" x="273" y="-7.5" font-family="Helvetica,sans-Serif" font-size="10.00">breit_wigner_plus_chebychev.cpp</text>
</a>
</g>
</g>
<!-- Node79&#45;&gt;Node80 -->
<g id="edge5" class="edge">
<title>Node79&#45;&gt;Node80</title>
<path fill="none" stroke="midnightblue" d="M412.88,-53.44C379.32,-43.26 331.23,-28.66 301.07,-19.52"/>
<polygon fill="midnightblue" stroke="midnightblue" points="412.21,-56.89 422.8,-56.44 414.24,-50.19 412.21,-56.89"/>
</g>
<!-- Node81 -->
<g id="node7" class="node">
<title>Node81</title>
<g id="a_node7"><a xlink:href="breit__wigner__plus__chebychev_8cu.html" target="_top" xlink:title="breit_wigner_plus_chebychev.cu">
<polygon fill="none" stroke="black" points="372.5,-0.5 372.5,-19.5 529.5,-19.5 529.5,-0.5 372.5,-0.5"/>
<text text-anchor="middle" x="451" y="-7.5" font-family="Helvetica,sans-Serif" font-size="10.00">breit_wigner_plus_chebychev.cu</text>
</a>
</g>
</g>
<!-- Node79&#45;&gt;Node81 -->
<g id="edge6" class="edge">
<title>Node79&#45;&gt;Node81</title>
<path fill="none" stroke="midnightblue" d="M451,-45.8C451,-36.91 451,-26.78 451,-19.75"/>
<polygon fill="midnightblue" stroke="midnightblue" points="447.5,-46.08 451,-56.08 454.5,-46.08 447.5,-46.08"/>
</g>
<!-- Node83 -->
<g id="node9" class="node">
<title>Node83</title>
<g id="a_node9"><a xlink:href="basic__distributions_8cpp.html" target="_top" xlink:title="basic_distributions.cpp">
<polygon fill="none" stroke="black" points="548,-0.5 548,-19.5 664,-19.5 664,-0.5 548,-0.5"/>
<text text-anchor="middle" x="606" y="-7.5" font-family="Helvetica,sans-Serif" font-size="10.00">basic_distributions.cpp</text>
</a>
</g>
</g>
<!-- Node82&#45;&gt;Node83 -->
<g id="edge8" class="edge">
<title>Node82&#45;&gt;Node83</title>
<path fill="none" stroke="midnightblue" d="M606,-45.8C606,-36.91 606,-26.78 606,-19.75"/>
<polygon fill="midnightblue" stroke="midnightblue" points="602.5,-46.08 606,-56.08 609.5,-46.08 602.5,-46.08"/>
</g>
<!-- Node84 -->
<g id="node10" class="node">
<title>Node84</title>
<g id="a_node10"><a xlink:href="basic__distributions_8cu.html" target="_top" xlink:title="basic_distributions.cu">
<polygon fill="none" stroke="black" points="682.5,-0.5 682.5,-19.5 793.5,-19.5 793.5,-0.5 682.5,-0.5"/>
<text text-anchor="middle" x="738" y="-7.5" font-family="Helvetica,sans-Serif" font-size="10.00">basic_distributions.cu</text>
</a>
</g>
</g>
<!-- Node82&#45;&gt;Node84 -->
<g id="edge9" class="edge">
<title>Node82&#45;&gt;Node84</title>
<path fill="none" stroke="midnightblue" d="M636.22,-52.64C660.99,-42.5 695.4,-28.43 717.18,-19.52"/>
<polygon fill="midnightblue" stroke="midnightblue" points="634.85,-49.42 626.92,-56.44 637.5,-55.9 634.85,-49.42"/>
</g>
<!-- Node86 -->
<g id="node12" class="node">
<title>Node86</title>
<g id="a_node12"><a xlink:href="fill__basic__distributions_8cpp.html" target="_top" xlink:title="fill_basic_distributions.cpp">
<polygon fill="none" stroke="black" points="811.5,-0.5 811.5,-19.5 942.5,-19.5 942.5,-0.5 811.5,-0.5"/>
<text text-anchor="middle" x="877" y="-7.5" font-family="Helvetica,sans-Serif" font-size="10.00">fill_basic_distributions.cpp</text>
</a>
</g>
</g>
<!-- Node85&#45;&gt;Node86 -->
<g id="edge11" class="edge">
<title>Node85&#45;&gt;Node86</title>
<path fill="none" stroke="midnightblue" d="M877,-45.8C877,-36.91 877,-26.78 877,-19.75"/>
<polygon fill="midnightblue" stroke="midnightblue" points="873.5,-46.08 877,-56.08 880.5,-46.08 873.5,-46.08"/>
</g>
<!-- Node87 -->
<g id="node13" class="node">
<title>Node87</title>
<g id="a_node13"><a xlink:href="fill__basic__distributions_8cu.html" target="_top" xlink:title="fill_basic_distributions.cu">
<polygon fill="none" stroke="black" points="961,-0.5 961,-19.5 1087,-19.5 1087,-0.5 961,-0.5"/>
<text text-anchor="middle" x="1024" y="-7.5" font-family="Helvetica,sans-Serif" font-size="10.00">fill_basic_distributions.cu</text>
</a>
</g>
</g>
<!-- Node85&#45;&gt;Node87 -->
<g id="edge12" class="edge">
<title>Node85&#45;&gt;Node87</title>
<path fill="none" stroke="midnightblue" d="M909.92,-52.91C937.56,-42.75 976.34,-28.51 1000.82,-19.52"/>
<polygon fill="midnightblue" stroke="midnightblue" points="908.47,-49.71 900.29,-56.44 910.89,-56.28 908.47,-49.71"/>
</g>
</g>
</svg>
