<?xml version="1.0" encoding="UTF-8" standalone="no"?>
<!DOCTYPE svg PUBLIC "-//W3C//DTD SVG 1.1//EN"
 "http://www.w3.org/Graphics/SVG/1.1/DTD/svg11.dtd">
<!-- Generated by graphviz version 2.38.0 (20140413.2041)
 -->
<!-- Title: CheckValue.h Pages: 1 -->
<!--zoomable 274 -->
<svg id="main" version="1.1" xmlns="http://www.w3.org/2000/svg" xmlns:xlink="http://www.w3.org/1999/xlink" xml:space="preserve" onload="init(evt)">
<style type="text/css"><![CDATA[
.edge:hover path { stroke: red; }
.edge:hover polygon { stroke: red; fill: red; }
]]></style>
<script type="text/javascript"><![CDATA[
var edges = document.getElementsByTagName('g');
if (edges && edges.length) {
  for (var i=0;i<edges.length;i++) {
    if (edges[i].id.substr(0,4)=='edge') {
      edges[i].setAttribute('class','edge');
    }
  }
}
]]></script>
        <defs>
                <circle id="rim" cx="0" cy="0" r="7"/>
                <circle id="rim2" cx="0" cy="0" r="3.5"/>
                <g id="zoomPlus">
                        <use xlink:href="#rim" fill="#404040">
                                <set attributeName="fill" to="#808080" begin="zoomplus.mouseover" end="zoomplus.mouseout"/>
                        </use>
                        <path d="M-4,0h8M0,-4v8" fill="none" stroke="white" stroke-width="1.5" pointer-events="none"/>
                </g>
                <g id="zoomMin">
                        <use xlink:href="#rim" fill="#404040">
                                <set attributeName="fill" to="#808080" begin="zoomminus.mouseover" end="zoomminus.mouseout"/>
                        </use>
                        <path d="M-4,0h8" fill="none" stroke="white" stroke-width="1.5" pointer-events="none"/>
                </g>
                <g id="dirArrow">
                        <path fill="none" stroke="white" stroke-width="1.5" d="M0,-3.0v7 M-2.5,-0.5L0,-3.0L2.5,-0.5"/>
                </g>
               <g id="resetDef">
                       <use xlink:href="#rim2" fill="#404040">
                               <set attributeName="fill" to="#808080" begin="reset.mouseover" end="reset.mouseout"/>
                       </use>
               </g>
        </defs>

<script type="text/javascript">
var viewWidth = 3017;
var viewHeight = 274;
var sectionId = 'dynsection-1';
</script>
<script xlink:href="svgpan.js"/>
<svg id="graph" class="graph">
<g id="viewport">
<title>CheckValue.h</title>
<!-- Node4 -->
<g id="node1" class="node"><title>Node4</title>
<polygon fill="#bfbfbf" stroke="black" points="1989,-246.5 1989,-265.5 2067,-265.5 2067,-246.5 1989,-246.5"/>
<text text-anchor="middle" x="2028" y="-253.5" font-family="Helvetica,sans-Serif" font-size="10.00">CheckValue.h</text>
</g>
<!-- Node5 -->
<g id="node2" class="node"><title>Node5</title>
<g id="a_node2"><a xlink:href="ArgusShape_8h.html" target="_top" xlink:title="ArgusShape.h">
<polygon fill="none" stroke="black" points="945,-190.5 945,-209.5 1023,-209.5 1023,-190.5 945,-190.5"/>
<text text-anchor="middle" x="984" y="-197.5" font-family="Helvetica,sans-Serif" font-size="10.00">ArgusShape.h</text>
</a>
</g>
</g>
<!-- Node4&#45;&gt;Node5 -->
<g id="edge1" class="edge"><title>Node4&#45;&gt;Node5</title>
<path fill="none" stroke="midnightblue" d="M1978.81,-252.455C1799.76,-243.195 1184.91,-211.392 1023.22,-203.028"/>
<polygon fill="midnightblue" stroke="midnightblue" points="1978.81,-255.96 1988.98,-252.982 1979.17,-248.97 1978.81,-255.96"/>
</g>
<!-- Node9 -->
<g id="node6" class="node"><title>Node9</title>
<g id="a_node6"><a xlink:href="BlattWeisskopfFunctions_8h.html" target="_top" xlink:title="BlattWeisskopfFunctions.h">
<polygon fill="none" stroke="black" points="1893,-190.5 1893,-209.5 2027,-209.5 2027,-190.5 1893,-190.5"/>
<text text-anchor="middle" x="1960" y="-197.5" font-family="Helvetica,sans-Serif" font-size="10.00">BlattWeisskopfFunctions.h</text>
</a>
</g>
</g>
<!-- Node4&#45;&gt;Node9 -->
<g id="edge5" class="edge"><title>Node4&#45;&gt;Node9</title>
<path fill="none" stroke="midnightblue" d="M2009.24,-240.101C1997,-230.382 1981.44,-218.027 1971.12,-209.834"/>
<polygon fill="midnightblue" stroke="midnightblue" points="2007.07,-242.846 2017.07,-246.324 2011.42,-237.364 2007.07,-242.846"/>
</g>
<!-- Node10 -->
<g id="node7" class="node"><title>Node10</title>
<g id="a_node7"><a xlink:href="BreitWignerLineShape_8h.html" target="_top" xlink:title="BreitWignerLineShape.h">
<polygon fill="none" stroke="black" points="1995,-129 1995,-148 2117,-148 2117,-129 1995,-129"/>
<text text-anchor="middle" x="2056" y="-136" font-family="Helvetica,sans-Serif" font-size="10.00">BreitWignerLineShape.h</text>
</a>
</g>
</g>
<!-- Node4&#45;&gt;Node10 -->
<g id="edge10" class="edge"><title>Node4&#45;&gt;Node10</title>
<path fill="none" stroke="midnightblue" d="M1978.69,-250.292C1926.87,-243.318 1856.42,-226.848 1884,-190 1892.21,-179.038 1970.43,-159.28 2018.51,-148.001"/>
<polygon fill="midnightblue" stroke="midnightblue" points="1978.41,-253.784 1988.77,-251.564 1979.29,-246.839 1978.41,-253.784"/>
</g>
<!-- Node14 -->
<g id="node11" class="node"><title>Node14</title>
<g id="a_node11"><a xlink:href="BreitWignerNR_8h.html" target="_top" xlink:title="BreitWignerNR.h">
<polygon fill="none" stroke="black" points="2410.5,-190.5 2410.5,-209.5 2501.5,-209.5 2501.5,-190.5 2410.5,-190.5"/>
<text text-anchor="middle" x="2456" y="-197.5" font-family="Helvetica,sans-Serif" font-size="10.00">BreitWignerNR.h</text>
</a>
</g>
</g>
<!-- Node4&#45;&gt;Node14 -->
<g id="edge11" class="edge"><title>Node4&#45;&gt;Node14</title>
<path fill="none" stroke="midnightblue" d="M2077.05,-249.749C2148.45,-241.954 2285.13,-226.462 2401,-210 2404.07,-209.564 2407.22,-209.097 2410.4,-208.613"/>
<polygon fill="midnightblue" stroke="midnightblue" points="2076.57,-246.281 2067,-250.842 2077.32,-253.24 2076.57,-246.281"/>
</g>
<!-- Node21 -->
<g id="node18" class="node"><title>Node21</title>
<g id="a_node18"><a xlink:href="CosHelicityAngle_8h.html" target="_top" xlink:title="CosHelicityAngle.h">
<polygon fill="none" stroke="black" points="2045.5,-190.5 2045.5,-209.5 2146.5,-209.5 2146.5,-190.5 2045.5,-190.5"/>
<text text-anchor="middle" x="2096" y="-197.5" font-family="Helvetica,sans-Serif" font-size="10.00">CosHelicityAngle.h</text>
</a>
</g>
</g>
<!-- Node4&#45;&gt;Node21 -->
<g id="edge18" class="edge"><title>Node4&#45;&gt;Node21</title>
<path fill="none" stroke="midnightblue" d="M2046.76,-240.101C2059,-230.382 2074.56,-218.027 2084.88,-209.834"/>
<polygon fill="midnightblue" stroke="midnightblue" points="2044.58,-237.364 2038.93,-246.324 2048.93,-242.846 2044.58,-237.364"/>
</g>
<!-- Node22 -->
<g id="node19" class="node"><title>Node22</title>
<g id="a_node19"><a xlink:href="CrystalBallShape_8h.html" target="_top" xlink:title="CrystalBallShape.h">
<polygon fill="none" stroke="black" points="492.5,-190.5 492.5,-209.5 593.5,-209.5 593.5,-190.5 492.5,-190.5"/>
<text text-anchor="middle" x="543" y="-197.5" font-family="Helvetica,sans-Serif" font-size="10.00">CrystalBallShape.h</text>
</a>
</g>
</g>
<!-- Node4&#45;&gt;Node22 -->
<g id="edge20" class="edge"><title>Node4&#45;&gt;Node22</title>
<path fill="none" stroke="midnightblue" d="M1978.44,-253.198C1752.53,-244.983 821.432,-211.125 593.521,-202.837"/>
<polygon fill="midnightblue" stroke="midnightblue" points="1978.54,-256.704 1988.66,-253.57 1978.8,-249.708 1978.54,-256.704"/>
</g>
<!-- Node26 -->
<g id="node23" class="node"><title>Node26</title>
<g id="a_node23"><a xlink:href="Exponential_8h.html" target="_top" xlink:title="Exponential.h">
<polygon fill="none" stroke="black" points="1208,-190.5 1208,-209.5 1284,-209.5 1284,-190.5 1208,-190.5"/>
<text text-anchor="middle" x="1246" y="-197.5" font-family="Helvetica,sans-Serif" font-size="10.00">Exponential.h</text>
</a>
</g>
</g>
<!-- Node4&#45;&gt;Node26 -->
<g id="edge24" class="edge"><title>Node4&#45;&gt;Node26</title>
<path fill="none" stroke="midnightblue" d="M1978.62,-251.59C1833.93,-241.599 1413.07,-212.537 1284.05,-203.628"/>
<polygon fill="midnightblue" stroke="midnightblue" points="1978.74,-255.106 1988.95,-252.304 1979.22,-248.123 1978.74,-255.106"/>
</g>
<!-- Node42 -->
<g id="node39" class="node"><title>Node42</title>
<g id="a_node39"><a xlink:href="Gaussian_8h.html" target="_top" xlink:title="Gaussian.h">
<polygon fill="none" stroke="black" points="1509,-190.5 1509,-209.5 1575,-209.5 1575,-190.5 1509,-190.5"/>
<text text-anchor="middle" x="1542" y="-197.5" font-family="Helvetica,sans-Serif" font-size="10.00">Gaussian.h</text>
</a>
</g>
</g>
<!-- Node4&#45;&gt;Node42 -->
<g id="edge41" class="edge"><title>Node4&#45;&gt;Node42</title>
<path fill="none" stroke="midnightblue" d="M1978.59,-249.51C1879.53,-238.503 1658.97,-213.996 1575.17,-204.686"/>
<polygon fill="midnightblue" stroke="midnightblue" points="1978.31,-253.001 1988.64,-250.627 1979.09,-246.044 1978.31,-253.001"/>
</g>
<!-- Node50 -->
<g id="node47" class="node"><title>Node50</title>
<g id="a_node47"><a xlink:href="M12PhaseSpaceLineShape_8h.html" target="_top" xlink:title="M12PhaseSpaceLineShape.h">
<polygon fill="none" stroke="black" points="2519.5,-190.5 2519.5,-209.5 2664.5,-209.5 2664.5,-190.5 2519.5,-190.5"/>
<text text-anchor="middle" x="2592" y="-197.5" font-family="Helvetica,sans-Serif" font-size="10.00">M12PhaseSpaceLineShape.h</text>
</a>
</g>
</g>
<!-- Node4&#45;&gt;Node50 -->
<g id="edge55" class="edge"><title>Node4&#45;&gt;Node50</title>
<path fill="none" stroke="midnightblue" d="M2077.2,-250.672C2164.43,-242.939 2351.91,-226.054 2510,-210 2512.99,-209.696 2516.05,-209.382 2519.13,-209.06"/>
<polygon fill="midnightblue" stroke="midnightblue" points="2076.72,-247.201 2067.07,-251.569 2077.34,-254.174 2076.72,-247.201"/>
</g>
<!-- Node51 -->
<g id="node48" class="node"><title>Node51</title>
<g id="a_node48"><a xlink:href="M12SqPhaseSpaceLineShape_8h.html" target="_top" xlink:title="M12SqPhaseSpaceLineShape.h">
<polygon fill="none" stroke="black" points="2682.5,-190.5 2682.5,-209.5 2839.5,-209.5 2839.5,-190.5 2682.5,-190.5"/>
<text text-anchor="middle" x="2761" y="-197.5" font-family="Helvetica,sans-Serif" font-size="10.00">M12SqPhaseSpaceLineShape.h</text>
</a>
</g>
</g>
<!-- Node4&#45;&gt;Node51 -->
<g id="edge56" class="edge"><title>Node4&#45;&gt;Node51</title>
<path fill="none" stroke="midnightblue" d="M2077.58,-252.088C2185.76,-245.614 2451.12,-229.081 2673,-210 2676.06,-209.737 2679.18,-209.46 2682.33,-209.173"/>
<polygon fill="midnightblue" stroke="midnightblue" points="2077.07,-248.612 2067.3,-252.701 2077.49,-255.6 2077.07,-248.612"/>
</g>
<!-- Node52 -->
<g id="node49" class="node"><title>Node52</title>
<g id="a_node49"><a xlink:href="WignerDFunctions_8h.html" target="_top" xlink:title="WignerDFunctions.h">
<polygon fill="none" stroke="black" points="2165,-190.5 2165,-209.5 2271,-209.5 2271,-190.5 2165,-190.5"/>
<text text-anchor="middle" x="2218" y="-197.5" font-family="Helvetica,sans-Serif" font-size="10.00">WignerDFunctions.h</text>
</a>
</g>
</g>
<!-- Node4&#45;&gt;Node52 -->
<g id="edge57" class="edge"><title>Node4&#45;&gt;Node52</title>
<path fill="none" stroke="midnightblue" d="M2067.76,-243.699C2103.62,-233.507 2155.57,-218.743 2188.03,-209.516"/>
<polygon fill="midnightblue" stroke="midnightblue" points="2066.77,-240.343 2058.11,-246.444 2068.68,-247.076 2066.77,-240.343"/>
</g>
<!-- Node53 -->
<g id="node50" class="node"><title>Node53</title>
<g id="a_node50"><a xlink:href="ZemachFunctions_8h.html" target="_top" xlink:title="ZemachFunctions.h">
<polygon fill="none" stroke="black" points="2289.5,-190.5 2289.5,-209.5 2392.5,-209.5 2392.5,-190.5 2289.5,-190.5"/>
<text text-anchor="middle" x="2341" y="-197.5" font-family="Helvetica,sans-Serif" font-size="10.00">ZemachFunctions.h</text>
</a>
</g>
</g>
<!-- Node4&#45;&gt;Node53 -->
<g id="edge59" class="edge"><title>Node4&#45;&gt;Node53</title>
<path fill="none" stroke="midnightblue" d="M2077.12,-246.525C2135.7,-236.419 2233.03,-219.627 2291.69,-209.507"/>
<polygon fill="midnightblue" stroke="midnightblue" points="2076.27,-243.121 2067.01,-248.27 2077.46,-250.019 2076.27,-243.121"/>
</g>
<!-- Node6 -->
<g id="node3" class="node"><title>Node6</title>
<g id="a_node3"><a xlink:href="gaussian__plus__argus_8inl.html" target="_top" xlink:title="gaussian_plus_argus.inl">
<polygon fill="none" stroke="black" points="590.5,-129 590.5,-148 711.5,-148 711.5,-129 590.5,-129"/>
<text text-anchor="middle" x="651" y="-136" font-family="Helvetica,sans-Serif" font-size="10.00">gaussian_plus_argus.inl</text>
</a>
</g>
</g>
<!-- Node5&#45;&gt;Node6 -->
<g id="edge2" class="edge"><title>Node5&#45;&gt;Node6</title>
<path fill="none" stroke="midnightblue" d="M934.65,-190.182C871.078,-178.823 761.318,-159.212 698.605,-148.006"/>
<polygon fill="midnightblue" stroke="midnightblue" points="934.362,-193.686 944.821,-192 935.593,-186.795 934.362,-193.686"/>
</g>
<!-- Node7 -->
<g id="node4" class="node"><title>Node7</title>
<g id="a_node4"><a xlink:href="gaussian__plus__argus_8cpp.html" target="_top" xlink:title="gaussian_plus_argus.cpp">
<polygon fill="none" stroke="black" points="498.5,-62 498.5,-81 625.5,-81 625.5,-62 498.5,-62"/>
<text text-anchor="middle" x="562" y="-69" font-family="Helvetica,sans-Serif" font-size="10.00">gaussian_plus_argus.cpp</text>
</a>
</g>
</g>
<!-- Node6&#45;&gt;Node7 -->
<g id="edge3" class="edge"><title>Node6&#45;&gt;Node7</title>
<path fill="none" stroke="midnightblue" d="M630.554,-122.568C612.987,-109.738 588.269,-91.6853 573.813,-81.1273"/>
<polygon fill="midnightblue" stroke="midnightblue" points="628.857,-125.662 638.997,-128.734 632.986,-120.009 628.857,-125.662"/>
</g>
<!-- Node8 -->
<g id="node5" class="node"><title>Node8</title>
<g id="a_node5"><a xlink:href="gaussian__plus__argus_8cu.html" target="_top" xlink:title="gaussian_plus_argus.cu">
<polygon fill="none" stroke="black" points="358,-62 358,-81 480,-81 480,-62 358,-62"/>
<text text-anchor="middle" x="419" y="-69" font-family="Helvetica,sans-Serif" font-size="10.00">gaussian_plus_argus.cu</text>
</a>
</g>
</g>
<!-- Node6&#45;&gt;Node8 -->
<g id="edge4" class="edge"><title>Node6&#45;&gt;Node8</title>
<path fill="none" stroke="midnightblue" d="M610.279,-126.091C564.382,-113.232 490.807,-92.6185 449.566,-81.0637"/>
<polygon fill="midnightblue" stroke="midnightblue" points="609.619,-129.541 620.192,-128.869 611.507,-122.8 609.619,-129.541"/>
</g>
<!-- Node9&#45;&gt;Node10 -->
<g id="edge6" class="edge"><title>Node9&#45;&gt;Node10</title>
<path fill="none" stroke="midnightblue" d="M1982.45,-185.087C2000.97,-173.604 2026.67,-157.678 2042.27,-148.009"/>
<polygon fill="midnightblue" stroke="midnightblue" points="1980.41,-182.232 1973.75,-190.475 1984.1,-188.182 1980.41,-182.232"/>
</g>
<!-- Node11 -->
<g id="node8" class="node"><title>Node11</title>
<g id="a_node8"><a xlink:href="dalitz__plot_8inl.html" target="_top" xlink:title="dalitz_plot.inl">
<polygon fill="none" stroke="black" points="2281,-62 2281,-81 2355,-81 2355,-62 2281,-62"/>
<text text-anchor="middle" x="2318" y="-69" font-family="Helvetica,sans-Serif" font-size="10.00">dalitz_plot.inl</text>
</a>
</g>
</g>
<!-- Node10&#45;&gt;Node11 -->
<g id="edge7" class="edge"><title>Node10&#45;&gt;Node11</title>
<path fill="none" stroke="midnightblue" d="M2106.71,-126.782C2150.65,-117.223 2215.83,-102.394 2272,-87 2278.46,-85.2293 2285.38,-83.1492 2291.83,-81.1261"/>
<polygon fill="midnightblue" stroke="midnightblue" points="2105.87,-123.382 2096.84,-128.918 2107.35,-130.223 2105.87,-123.382"/>
</g>
<!-- Node12 -->
<g id="node9" class="node"><title>Node12</title>
<g id="a_node9"><a xlink:href="dalitz__plot_8cpp.html" target="_top" xlink:title="dalitz_plot.cpp">
<polygon fill="none" stroke="black" points="2230,-0.5 2230,-19.5 2310,-19.5 2310,-0.5 2230,-0.5"/>
<text text-anchor="middle" x="2270" y="-7.5" font-family="Helvetica,sans-Serif" font-size="10.00">dalitz_plot.cpp</text>
</a>
</g>
</g>
<!-- Node11&#45;&gt;Node12 -->
<g id="edge8" class="edge"><title>Node11&#45;&gt;Node12</title>
<path fill="none" stroke="midnightblue" d="M2304.83,-54.1685C2295.78,-42.952 2284.13,-28.5161 2276.86,-19.5091"/>
<polygon fill="midnightblue" stroke="midnightblue" points="2302.12,-56.3896 2311.12,-61.9751 2307.57,-51.9944 2302.12,-56.3896"/>
</g>
<!-- Node13 -->
<g id="node10" class="node"><title>Node13</title>
<g id="a_node10"><a xlink:href="dalitz__plot_8cu.html" target="_top" xlink:title="dalitz_plot.cu">
<polygon fill="none" stroke="black" points="2328,-0.5 2328,-19.5 2402,-19.5 2402,-0.5 2328,-0.5"/>
<text text-anchor="middle" x="2365" y="-7.5" font-family="Helvetica,sans-Serif" font-size="10.00">dalitz_plot.cu</text>
</a>
</g>
</g>
<!-- Node11&#45;&gt;Node13 -->
<g id="edge9" class="edge"><title>Node11&#45;&gt;Node13</title>
<path fill="none" stroke="midnightblue" d="M2331.16,-53.8377C2339.98,-42.6694 2351.23,-28.4278 2358.28,-19.5091"/>
<polygon fill="midnightblue" stroke="midnightblue" points="2328.19,-51.9584 2324.73,-61.9751 2333.68,-56.2975 2328.19,-51.9584"/>
</g>
<!-- Node15 -->
<g id="node12" class="node"><title>Node15</title>
<g id="a_node12"><a xlink:href="phsp__unweighting__functor__and__fit_8inl.html" target="_top" xlink:title="phsp_unweighting_functor\l_and_fit.inl">
<polygon fill="none" stroke="black" points="2391,-123.5 2391,-153.5 2521,-153.5 2521,-123.5 2391,-123.5"/>
<text text-anchor="start" x="2399" y="-141.5" font-family="Helvetica,sans-Serif" font-size="10.00">phsp_unweighting_functor</text>
<text text-anchor="middle" x="2456" y="-130.5" font-family="Helvetica,sans-Serif" font-size="10.00">_and_fit.inl</text>
</a>
</g>
</g>
<!-- Node14&#45;&gt;Node15 -->
<g id="edge12" class="edge"><title>Node14&#45;&gt;Node15</title>
<path fill="none" stroke="midnightblue" d="M2456,-180.235C2456,-171.586 2456,-161.497 2456,-153.523"/>
<polygon fill="midnightblue" stroke="midnightblue" points="2452.5,-180.475 2456,-190.475 2459.5,-180.475 2452.5,-180.475"/>
</g>
<!-- Node18 -->
<g id="node15" class="node"><title>Node18</title>
<g id="a_node15"><a xlink:href="breit__wigner__plus__polynomial_8inl.html" target="_top" xlink:title="breit_wigner_plus_polynomial.inl">
<polygon fill="none" stroke="black" points="2669.5,-129 2669.5,-148 2826.5,-148 2826.5,-129 2669.5,-129"/>
<text text-anchor="middle" x="2748" y="-136" font-family="Helvetica,sans-Serif" font-size="10.00">breit_wigner_plus_polynomial.inl</text>
</a>
</g>
</g>
<!-- Node14&#45;&gt;Node18 -->
<g id="edge15" class="edge"><title>Node14&#45;&gt;Node18</title>
<path fill="none" stroke="midnightblue" d="M2507.66,-188.474C2564.25,-176.943 2653.91,-158.672 2706.24,-148.009"/>
<polygon fill="midnightblue" stroke="midnightblue" points="2506.94,-185.049 2497.84,-190.475 2508.33,-191.908 2506.94,-185.049"/>
</g>
<!-- Node16 -->
<g id="node13" class="node"><title>Node16</title>
<g id="a_node13"><a xlink:href="phsp__unweighting__functor__and__fit_8cpp.html" target="_top" xlink:title="phsp_unweighting_functor\l_and_fit.cpp">
<polygon fill="none" stroke="black" points="2521,-56.5 2521,-86.5 2651,-86.5 2651,-56.5 2521,-56.5"/>
<text text-anchor="start" x="2529" y="-74.5" font-family="Helvetica,sans-Serif" font-size="10.00">phsp_unweighting_functor</text>
<text text-anchor="middle" x="2586" y="-63.5" font-family="Helvetica,sans-Serif" font-size="10.00">_and_fit.cpp</text>
</a>
</g>
</g>
<!-- Node15&#45;&gt;Node16 -->
<g id="edge13" class="edge"><title>Node15&#45;&gt;Node16</title>
<path fill="none" stroke="midnightblue" d="M2493.29,-118.853C2513.85,-108.576 2538.95,-96.0252 2557.85,-86.5765"/>
<polygon fill="midnightblue" stroke="midnightblue" points="2491.59,-115.793 2484.21,-123.396 2494.72,-122.054 2491.59,-115.793"/>
</g>
<!-- Node17 -->
<g id="node14" class="node"><title>Node17</title>
<g id="a_node14"><a xlink:href="phsp__unweighting__functor__and__fit_8cu.html" target="_top" xlink:title="phsp_unweighting_functor\l_and_fit.cu">
<polygon fill="none" stroke="black" points="2373,-56.5 2373,-86.5 2503,-86.5 2503,-56.5 2373,-56.5"/>
<text text-anchor="start" x="2381" y="-74.5" font-family="Helvetica,sans-Serif" font-size="10.00">phsp_unweighting_functor</text>
<text text-anchor="middle" x="2438" y="-63.5" font-family="Helvetica,sans-Serif" font-size="10.00">_and_fit.cu</text>
</a>
</g>
</g>
<!-- Node15&#45;&gt;Node17 -->
<g id="edge14" class="edge"><title>Node15&#45;&gt;Node17</title>
<path fill="none" stroke="midnightblue" d="M2449.41,-113.697C2446.89,-104.587 2444.09,-94.4929 2441.9,-86.5765"/>
<polygon fill="midnightblue" stroke="midnightblue" points="2446.05,-114.693 2452.09,-123.396 2452.8,-112.825 2446.05,-114.693"/>
</g>
<!-- Node19 -->
<g id="node16" class="node"><title>Node19</title>
<g id="a_node16"><a xlink:href="breit__wigner__plus__polynomial_8cpp.html" target="_top" xlink:title="breit_wigner_plus_polynomial.cpp">
<polygon fill="none" stroke="black" points="2845.5,-62 2845.5,-81 3008.5,-81 3008.5,-62 2845.5,-62"/>
<text text-anchor="middle" x="2927" y="-69" font-family="Helvetica,sans-Serif" font-size="10.00">breit_wigner_plus_polynomial.cpp</text>
</a>
</g>
</g>
<!-- Node18&#45;&gt;Node19 -->
<g id="edge16" class="edge"><title>Node18&#45;&gt;Node19</title>
<path fill="none" stroke="midnightblue" d="M2781.22,-125.436C2816.73,-112.542 2872.13,-92.4243 2903.42,-81.0637"/>
<polygon fill="midnightblue" stroke="midnightblue" points="2779.97,-122.165 2771.77,-128.869 2782.36,-128.745 2779.97,-122.165"/>
</g>
<!-- Node20 -->
<g id="node17" class="node"><title>Node20</title>
<g id="a_node17"><a xlink:href="breit__wigner__plus__polynomial_8cu.html" target="_top" xlink:title="breit_wigner_plus_polynomial.cu">
<polygon fill="none" stroke="black" points="2669,-62 2669,-81 2827,-81 2827,-62 2669,-62"/>
<text text-anchor="middle" x="2748" y="-69" font-family="Helvetica,sans-Serif" font-size="10.00">breit_wigner_plus_polynomial.cu</text>
</a>
</g>
</g>
<!-- Node18&#45;&gt;Node20 -->
<g id="edge17" class="edge"><title>Node18&#45;&gt;Node20</title>
<path fill="none" stroke="midnightblue" d="M2748,-118.537C2748,-106.17 2748,-90.6198 2748,-81.1273"/>
<polygon fill="midnightblue" stroke="midnightblue" points="2744.5,-118.734 2748,-128.734 2751.5,-118.734 2744.5,-118.734"/>
</g>
<!-- Node21&#45;&gt;Node11 -->
<g id="edge19" class="edge"><title>Node21&#45;&gt;Node11</title>
<path fill="none" stroke="midnightblue" d="M2119.95,-185.351C2165.88,-159.184 2265.1,-102.646 2302.93,-81.0884"/>
<polygon fill="midnightblue" stroke="midnightblue" points="2118.21,-182.313 2111.26,-190.305 2121.68,-188.395 2118.21,-182.313"/>
</g>
<!-- Node23 -->
<g id="node20" class="node"><title>Node23</title>
<g id="a_node20"><a xlink:href="crystal__ball__plus__exponential_8inl.html" target="_top" xlink:title="crystal_ball_plus_exponential.inl">
<polygon fill="none" stroke="black" points="297.5,-129 297.5,-148 454.5,-148 454.5,-129 297.5,-129"/>
<text text-anchor="middle" x="376" y="-136" font-family="Helvetica,sans-Serif" font-size="10.00">crystal_ball_plus_exponential.inl</text>
</a>
</g>
</g>
<!-- Node22&#45;&gt;Node23 -->
<g id="edge21" class="edge"><title>Node22&#45;&gt;Node23</title>
<path fill="none" stroke="midnightblue" d="M509.552,-187.083C477.09,-175.517 428.633,-158.252 399.883,-148.009"/>
<polygon fill="midnightblue" stroke="midnightblue" points="508.478,-190.416 519.073,-190.475 510.828,-183.822 508.478,-190.416"/>
</g>
<!-- Node24 -->
<g id="node21" class="node"><title>Node24</title>
<g id="a_node21"><a xlink:href="crystal__ball__plus__exponential_8cpp.html" target="_top" xlink:title="crystal_ball_plus_exponential.cpp">
<polygon fill="none" stroke="black" points="176.5,-62 176.5,-81 339.5,-81 339.5,-62 176.5,-62"/>
<text text-anchor="middle" x="258" y="-69" font-family="Helvetica,sans-Serif" font-size="10.00">crystal_ball_plus_exponential.cpp</text>
</a>
</g>
</g>
<!-- Node23&#45;&gt;Node24 -->
<g id="edge22" class="edge"><title>Node23&#45;&gt;Node24</title>
<path fill="none" stroke="midnightblue" d="M351.106,-123.787C327.719,-110.905 293.444,-92.0243 273.662,-81.1273"/>
<polygon fill="midnightblue" stroke="midnightblue" points="349.638,-126.975 360.086,-128.734 353.016,-120.843 349.638,-126.975"/>
</g>
<!-- Node25 -->
<g id="node22" class="node"><title>Node25</title>
<g id="a_node22"><a xlink:href="crystal__ball__plus__exponential_8cu.html" target="_top" xlink:title="crystal_ball_plus_exponential.cu">
<polygon fill="none" stroke="black" points="0,-62 0,-81 158,-81 158,-62 0,-62"/>
<text text-anchor="middle" x="79" y="-69" font-family="Helvetica,sans-Serif" font-size="10.00">crystal_ball_plus_exponential.cu</text>
</a>
</g>
</g>
<!-- Node23&#45;&gt;Node25 -->
<g id="edge23" class="edge"><title>Node23&#45;&gt;Node25</title>
<path fill="none" stroke="midnightblue" d="M326.76,-126.724C268.277,-113.924 171.908,-92.8334 118.22,-81.0834"/>
<polygon fill="midnightblue" stroke="midnightblue" points="326.35,-130.217 336.867,-128.936 327.847,-123.378 326.35,-130.217"/>
</g>
<!-- Node26&#45;&gt;Node23 -->
<g id="edge37" class="edge"><title>Node26&#45;&gt;Node23</title>
<path fill="none" stroke="midnightblue" d="M1197.68,-195.781C1088.02,-188.464 811.933,-169.981 581,-154 539.355,-151.118 492.956,-147.842 454.848,-145.133"/>
<polygon fill="midnightblue" stroke="midnightblue" points="1197.55,-199.28 1207.76,-196.454 1198.02,-192.296 1197.55,-199.28"/>
</g>
<!-- Node27 -->
<g id="node24" class="node"><title>Node27</title>
<g id="a_node24"><a xlink:href="binned__extended__logLL__fit_8inl.html" target="_top" xlink:title="binned_extended_logLL\l_fit.inl">
<polygon fill="none" stroke="black" points="1186.5,-123.5 1186.5,-153.5 1305.5,-153.5 1305.5,-123.5 1186.5,-123.5"/>
<text text-anchor="start" x="1194.5" y="-141.5" font-family="Helvetica,sans-Serif" font-size="10.00">binned_extended_logLL</text>
<text text-anchor="middle" x="1246" y="-130.5" font-family="Helvetica,sans-Serif" font-size="10.00">_fit.inl</text>
</a>
</g>
</g>
<!-- Node26&#45;&gt;Node27 -->
<g id="edge25" class="edge"><title>Node26&#45;&gt;Node27</title>
<path fill="none" stroke="midnightblue" d="M1246,-180.235C1246,-171.586 1246,-161.497 1246,-153.523"/>
<polygon fill="midnightblue" stroke="midnightblue" points="1242.5,-180.475 1246,-190.475 1249.5,-180.475 1242.5,-180.475"/>
</g>
<!-- Node30 -->
<g id="node27" class="node"><title>Node30</title>
<g id="a_node27"><a xlink:href="extended__logLL__fit_8inl.html" target="_top" xlink:title="extended_logLL_fit.inl">
<polygon fill="none" stroke="black" points="1421.5,-129 1421.5,-148 1532.5,-148 1532.5,-129 1421.5,-129"/>
<text text-anchor="middle" x="1477" y="-136" font-family="Helvetica,sans-Serif" font-size="10.00">extended_logLL_fit.inl</text>
</a>
</g>
</g>
<!-- Node26&#45;&gt;Node30 -->
<g id="edge28" class="edge"><title>Node26&#45;&gt;Node30</title>
<path fill="none" stroke="midnightblue" d="M1288.83,-187.968C1333.68,-176.415 1403.17,-158.517 1443.96,-148.009"/>
<polygon fill="midnightblue" stroke="midnightblue" points="1287.91,-184.591 1279.1,-190.475 1289.65,-191.37 1287.91,-184.591"/>
</g>
<!-- Node33 -->
<g id="node30" class="node"><title>Node33</title>
<g id="a_node30"><a xlink:href="fractional__logLL__fit_8inl.html" target="_top" xlink:title="fractional_logLL_fit.inl">
<polygon fill="none" stroke="black" points="1552.5,-129 1552.5,-148 1663.5,-148 1663.5,-129 1552.5,-129"/>
<text text-anchor="middle" x="1608" y="-136" font-family="Helvetica,sans-Serif" font-size="10.00">fractional_logLL_fit.inl</text>
</a>
</g>
</g>
<!-- Node26&#45;&gt;Node33 -->
<g id="edge31" class="edge"><title>Node26&#45;&gt;Node33</title>
<path fill="none" stroke="midnightblue" d="M1294.39,-192.554C1352.95,-184.536 1454.49,-169.945 1541,-154 1550.6,-152.231 1560.92,-150.108 1570.52,-148.039"/>
<polygon fill="midnightblue" stroke="midnightblue" points="1293.75,-189.108 1284.31,-193.926 1294.69,-196.044 1293.75,-189.108"/>
</g>
<!-- Node36 -->
<g id="node33" class="node"><title>Node36</title>
<g id="a_node33"><a xlink:href="splot_8inl.html" target="_top" xlink:title="splot.inl">
<polygon fill="none" stroke="black" points="818,-129 818,-148 868,-148 868,-129 818,-129"/>
<text text-anchor="middle" x="843" y="-136" font-family="Helvetica,sans-Serif" font-size="10.00">splot.inl</text>
</a>
</g>
</g>
<!-- Node26&#45;&gt;Node36 -->
<g id="edge34" class="edge"><title>Node26&#45;&gt;Node36</title>
<path fill="none" stroke="midnightblue" d="M1197.66,-191.864C1111.36,-179.121 933.632,-152.881 868.038,-143.197"/>
<polygon fill="midnightblue" stroke="midnightblue" points="1197.32,-195.351 1207.72,-193.349 1198.34,-188.426 1197.32,-195.351"/>
</g>
<!-- Node39 -->
<g id="node36" class="node"><title>Node39</title>
<g id="a_node36"><a xlink:href="double__gaussian__plus__exponential_8inl.html" target="_top" xlink:title="double_gaussian_plus\l_exponential.inl">
<polygon fill="none" stroke="black" points="987.5,-123.5 987.5,-153.5 1100.5,-153.5 1100.5,-123.5 987.5,-123.5"/>
<text text-anchor="start" x="995.5" y="-141.5" font-family="Helvetica,sans-Serif" font-size="10.00">double_gaussian_plus</text>
<text text-anchor="middle" x="1044" y="-130.5" font-family="Helvetica,sans-Serif" font-size="10.00">_exponential.inl</text>
</a>
</g>
</g>
<!-- Node26&#45;&gt;Node39 -->
<g id="edge38" class="edge"><title>Node26&#45;&gt;Node39</title>
<path fill="none" stroke="midnightblue" d="M1207.33,-187.609C1174.38,-177.903 1126.89,-163.916 1091.61,-153.523"/>
<polygon fill="midnightblue" stroke="midnightblue" points="1206.48,-191.007 1217.06,-190.475 1208.45,-184.292 1206.48,-191.007"/>
</g>
<!-- Node28 -->
<g id="node25" class="node"><title>Node28</title>
<g id="a_node25"><a xlink:href="binned__extended__logLL__fit_8cpp.html" target="_top" xlink:title="binned_extended_logLL\l_fit.cpp">
<polygon fill="none" stroke="black" points="1186.5,-56.5 1186.5,-86.5 1305.5,-86.5 1305.5,-56.5 1186.5,-56.5"/>
<text text-anchor="start" x="1194.5" y="-74.5" font-family="Helvetica,sans-Serif" font-size="10.00">binned_extended_logLL</text>
<text text-anchor="middle" x="1246" y="-63.5" font-family="Helvetica,sans-Serif" font-size="10.00">_fit.cpp</text>
</a>
</g>
</g>
<!-- Node27&#45;&gt;Node28 -->
<g id="edge26" class="edge"><title>Node27&#45;&gt;Node28</title>
<path fill="none" stroke="midnightblue" d="M1246,-113.108C1246,-104.154 1246,-94.3227 1246,-86.5765"/>
<polygon fill="midnightblue" stroke="midnightblue" points="1242.5,-113.396 1246,-123.396 1249.5,-113.396 1242.5,-113.396"/>
</g>
<!-- Node29 -->
<g id="node26" class="node"><title>Node29</title>
<g id="a_node26"><a xlink:href="binned__extended__logLL__fit_8cu.html" target="_top" xlink:title="binned_extended_logLL\l_fit.cu">
<polygon fill="none" stroke="black" points="1049.5,-56.5 1049.5,-86.5 1168.5,-86.5 1168.5,-56.5 1049.5,-56.5"/>
<text text-anchor="start" x="1057.5" y="-74.5" font-family="Helvetica,sans-Serif" font-size="10.00">binned_extended_logLL</text>
<text text-anchor="middle" x="1109" y="-63.5" font-family="Helvetica,sans-Serif" font-size="10.00">_fit.cu</text>
</a>
</g>
</g>
<!-- Node27&#45;&gt;Node29 -->
<g id="edge27" class="edge"><title>Node27&#45;&gt;Node29</title>
<path fill="none" stroke="midnightblue" d="M1206.99,-118.992C1185.28,-108.689 1158.67,-96.0677 1138.67,-86.5765"/>
<polygon fill="midnightblue" stroke="midnightblue" points="1205.74,-122.272 1216.27,-123.396 1208.74,-115.947 1205.74,-122.272"/>
</g>
<!-- Node31 -->
<g id="node28" class="node"><title>Node31</title>
<g id="a_node28"><a xlink:href="extended__logLL__fit_8cpp.html" target="_top" xlink:title="extended_logLL_fit.cpp">
<polygon fill="none" stroke="black" points="1454.5,-62 1454.5,-81 1571.5,-81 1571.5,-62 1454.5,-62"/>
<text text-anchor="middle" x="1513" y="-69" font-family="Helvetica,sans-Serif" font-size="10.00">extended_logLL_fit.cpp</text>
</a>
</g>
</g>
<!-- Node30&#45;&gt;Node31 -->
<g id="edge29" class="edge"><title>Node30&#45;&gt;Node31</title>
<path fill="none" stroke="midnightblue" d="M1486.88,-119.663C1493.82,-107.128 1502.8,-90.9104 1508.22,-81.1273"/>
<polygon fill="midnightblue" stroke="midnightblue" points="1483.64,-118.29 1481.86,-128.734 1489.76,-121.682 1483.64,-118.29"/>
</g>
<!-- Node32 -->
<g id="node29" class="node"><title>Node32</title>
<g id="a_node29"><a xlink:href="extended__logLL__fit_8cu.html" target="_top" xlink:title="extended_logLL_fit.cu">
<polygon fill="none" stroke="black" points="1324,-62 1324,-81 1436,-81 1436,-62 1324,-62"/>
<text text-anchor="middle" x="1380" y="-69" font-family="Helvetica,sans-Serif" font-size="10.00">extended_logLL_fit.cu</text>
</a>
</g>
</g>
<!-- Node30&#45;&gt;Node32 -->
<g id="edge30" class="edge"><title>Node30&#45;&gt;Node32</title>
<path fill="none" stroke="midnightblue" d="M1455.5,-123.095C1436.31,-110.236 1408.85,-91.8306 1392.87,-81.1273"/>
<polygon fill="midnightblue" stroke="midnightblue" points="1453.66,-126.075 1463.92,-128.734 1457.56,-120.259 1453.66,-126.075"/>
</g>
<!-- Node34 -->
<g id="node31" class="node"><title>Node34</title>
<g id="a_node31"><a xlink:href="fractional__logLL__fit_8cpp.html" target="_top" xlink:title="fractional_logLL_fit.cpp">
<polygon fill="none" stroke="black" points="1720.5,-62 1720.5,-81 1837.5,-81 1837.5,-62 1720.5,-62"/>
<text text-anchor="middle" x="1779" y="-69" font-family="Helvetica,sans-Serif" font-size="10.00">fractional_logLL_fit.cpp</text>
</a>
</g>
</g>
<!-- Node33&#45;&gt;Node34 -->
<g id="edge32" class="edge"><title>Node33&#45;&gt;Node34</title>
<path fill="none" stroke="midnightblue" d="M1640.17,-125.271C1674.11,-112.37 1726.71,-92.3757 1756.47,-81.0637"/>
<polygon fill="midnightblue" stroke="midnightblue" points="1638.81,-122.044 1630.71,-128.869 1641.3,-128.587 1638.81,-122.044"/>
</g>
<!-- Node35 -->
<g id="node32" class="node"><title>Node35</title>
<g id="a_node32"><a xlink:href="fractional__logLL__fit_8cu.html" target="_top" xlink:title="fractional_logLL_fit.cu">
<polygon fill="none" stroke="black" points="1590,-62 1590,-81 1702,-81 1702,-62 1590,-62"/>
<text text-anchor="middle" x="1646" y="-69" font-family="Helvetica,sans-Serif" font-size="10.00">fractional_logLL_fit.cu</text>
</a>
</g>
</g>
<!-- Node33&#45;&gt;Node35 -->
<g id="edge33" class="edge"><title>Node33&#45;&gt;Node35</title>
<path fill="none" stroke="midnightblue" d="M1618.21,-120.035C1625.57,-107.45 1635.18,-91.0072 1640.96,-81.1273"/>
<polygon fill="midnightblue" stroke="midnightblue" points="1615.15,-118.334 1613.12,-128.734 1621.19,-121.867 1615.15,-118.334"/>
</g>
<!-- Node37 -->
<g id="node34" class="node"><title>Node37</title>
<g id="a_node34"><a xlink:href="splot_8cpp.html" target="_top" xlink:title="splot.cpp">
<polygon fill="none" stroke="black" points="713,-62 713,-81 769,-81 769,-62 713,-62"/>
<text text-anchor="middle" x="741" y="-69" font-family="Helvetica,sans-Serif" font-size="10.00">splot.cpp</text>
</a>
</g>
</g>
<!-- Node36&#45;&gt;Node37 -->
<g id="edge35" class="edge"><title>Node36&#45;&gt;Node37</title>
<path fill="none" stroke="midnightblue" d="M820.668,-123.269C800.478,-110.403 771.41,-91.879 754.538,-81.1273"/>
<polygon fill="midnightblue" stroke="midnightblue" points="818.93,-126.311 829.244,-128.734 822.692,-120.408 818.93,-126.311"/>
</g>
<!-- Node38 -->
<g id="node35" class="node"><title>Node38</title>
<g id="a_node35"><a xlink:href="splot_8cu.html" target="_top" xlink:title="splot.cu">
<polygon fill="none" stroke="black" points="643.5,-62 643.5,-81 694.5,-81 694.5,-62 643.5,-62"/>
<text text-anchor="middle" x="669" y="-69" font-family="Helvetica,sans-Serif" font-size="10.00">splot.cu</text>
</a>
</g>
</g>
<!-- Node36&#45;&gt;Node38 -->
<g id="edge36" class="edge"><title>Node36&#45;&gt;Node38</title>
<path fill="none" stroke="midnightblue" d="M808.733,-125.527C780.503,-115.549 739.488,-100.79 704,-87 699.218,-85.1419 694.101,-83.0699 689.297,-81.087"/>
<polygon fill="midnightblue" stroke="midnightblue" points="807.927,-128.954 818.522,-128.976 810.253,-122.351 807.927,-128.954"/>
</g>
<!-- Node40 -->
<g id="node37" class="node"><title>Node40</title>
<g id="a_node37"><a xlink:href="double__gaussian__plus__exponential_8cpp.html" target="_top" xlink:title="double_gaussian_plus\l_exponential.cpp">
<polygon fill="none" stroke="black" points="918.5,-56.5 918.5,-86.5 1031.5,-86.5 1031.5,-56.5 918.5,-56.5"/>
<text text-anchor="start" x="926.5" y="-74.5" font-family="Helvetica,sans-Serif" font-size="10.00">double_gaussian_plus</text>
<text text-anchor="middle" x="975" y="-63.5" font-family="Helvetica,sans-Serif" font-size="10.00">_exponential.cpp</text>
</a>
</g>
</g>
<!-- Node39&#45;&gt;Node40 -->
<g id="edge39" class="edge"><title>Node39&#45;&gt;Node40</title>
<path fill="none" stroke="midnightblue" d="M1021.51,-116.311C1011.16,-106.561 999.16,-95.259 989.943,-86.5765"/>
<polygon fill="midnightblue" stroke="midnightblue" points="1019.35,-119.087 1029.03,-123.396 1024.15,-113.991 1019.35,-119.087"/>
</g>
<!-- Node41 -->
<g id="node38" class="node"><title>Node41</title>
<g id="a_node38"><a xlink:href="double__gaussian__plus__exponential_8cu.html" target="_top" xlink:title="double_gaussian_plus\l_exponential.cu">
<polygon fill="none" stroke="black" points="787.5,-56.5 787.5,-86.5 900.5,-86.5 900.5,-56.5 787.5,-56.5"/>
<text text-anchor="start" x="795.5" y="-74.5" font-family="Helvetica,sans-Serif" font-size="10.00">double_gaussian_plus</text>
<text text-anchor="middle" x="844" y="-63.5" font-family="Helvetica,sans-Serif" font-size="10.00">_exponential.cu</text>
</a>
</g>
</g>
<!-- Node39&#45;&gt;Node41 -->
<g id="edge40" class="edge"><title>Node39&#45;&gt;Node41</title>
<path fill="none" stroke="midnightblue" d="M990.855,-120.228C958.502,-109.713 917.695,-96.4508 887.312,-86.5765"/>
<polygon fill="midnightblue" stroke="midnightblue" points="990.011,-123.634 1000.6,-123.396 992.174,-116.976 990.011,-123.634"/>
</g>
<!-- Node42&#45;&gt;Node6 -->
<g id="edge53" class="edge"><title>Node42&#45;&gt;Node6</title>
<path fill="none" stroke="midnightblue" d="M1498.72,-196.8C1385.39,-190.942 1070.65,-174.033 809,-154 776.865,-151.54 741.101,-148.299 711.737,-145.506"/>
<polygon fill="midnightblue" stroke="midnightblue" points="1498.57,-200.297 1508.73,-197.316 1498.93,-193.306 1498.57,-200.297"/>
</g>
<!-- Node42&#45;&gt;Node27 -->
<g id="edge45" class="edge"><title>Node42&#45;&gt;Node27</title>
<path fill="none" stroke="midnightblue" d="M1498.89,-190.333C1447.95,-180.096 1362.93,-163.005 1305.69,-151.499"/>
<polygon fill="midnightblue" stroke="midnightblue" points="1498.41,-193.808 1508.91,-192.348 1499.79,-186.946 1498.41,-193.808"/>
</g>
<!-- Node42&#45;&gt;Node30 -->
<g id="edge46" class="edge"><title>Node42&#45;&gt;Node30</title>
<path fill="none" stroke="midnightblue" d="M1525.23,-183.65C1512.84,-172.306 1496.42,-157.281 1486.3,-148.009"/>
<polygon fill="midnightblue" stroke="midnightblue" points="1522.95,-186.305 1532.69,-190.475 1527.67,-181.141 1522.95,-186.305"/>
</g>
<!-- Node42&#45;&gt;Node33 -->
<g id="edge47" class="edge"><title>Node42&#45;&gt;Node33</title>
<path fill="none" stroke="midnightblue" d="M1559.03,-183.65C1571.61,-172.306 1588.28,-157.281 1598.56,-148.009"/>
<polygon fill="midnightblue" stroke="midnightblue" points="1556.54,-181.18 1551.46,-190.475 1561.23,-186.379 1556.54,-181.18"/>
</g>
<!-- Node42&#45;&gt;Node36 -->
<g id="edge48" class="edge"><title>Node42&#45;&gt;Node36</title>
<path fill="none" stroke="midnightblue" d="M1498.88,-195.964C1404.44,-189.226 1172.19,-172.172 978,-154 939.627,-150.409 895.203,-145.49 868.109,-142.405"/>
<polygon fill="midnightblue" stroke="midnightblue" points="1498.69,-199.46 1508.92,-196.678 1499.19,-192.477 1498.69,-199.46"/>
</g>
<!-- Node42&#45;&gt;Node39 -->
<g id="edge52" class="edge"><title>Node42&#45;&gt;Node39</title>
<path fill="none" stroke="midnightblue" d="M1498.81,-193.84C1408.8,-183.085 1201.15,-158.276 1100.6,-146.262"/>
<polygon fill="midnightblue" stroke="midnightblue" points="1498.59,-197.339 1508.94,-195.05 1499.43,-190.388 1498.59,-197.339"/>
</g>
<!-- Node43 -->
<g id="node40" class="node"><title>Node43</title>
<g id="a_node40"><a xlink:href="basic__fit_8inl.html" target="_top" xlink:title="basic_fit.inl">
<polygon fill="none" stroke="black" points="1691,-129 1691,-148 1757,-148 1757,-129 1691,-129"/>
<text text-anchor="middle" x="1724" y="-136" font-family="Helvetica,sans-Serif" font-size="10.00">basic_fit.inl</text>
</a>
</g>
</g>
<!-- Node42&#45;&gt;Node43 -->
<g id="edge42" class="edge"><title>Node42&#45;&gt;Node43</title>
<path fill="none" stroke="midnightblue" d="M1578,-187.232C1613.37,-175.666 1666.5,-158.297 1697.97,-148.009"/>
<polygon fill="midnightblue" stroke="midnightblue" points="1576.49,-184.041 1568.08,-190.475 1578.67,-190.694 1576.49,-184.041"/>
</g>
<!-- Node46 -->
<g id="node43" class="node"><title>Node46</title>
<g id="a_node43"><a xlink:href="dense__histogram_8inl.html" target="_top" xlink:title="dense_histogram.inl">
<polygon fill="none" stroke="black" points="1775,-129 1775,-148 1879,-148 1879,-129 1775,-129"/>
<text text-anchor="middle" x="1827" y="-136" font-family="Helvetica,sans-Serif" font-size="10.00">dense_histogram.inl</text>
</a>
</g>
</g>
<!-- Node42&#45;&gt;Node46 -->
<g id="edge49" class="edge"><title>Node42&#45;&gt;Node46</title>
<path fill="none" stroke="midnightblue" d="M1585.13,-190.802C1630.3,-182.106 1703.27,-167.751 1766,-154 1774.4,-152.158 1783.42,-150.073 1791.89,-148.069"/>
<polygon fill="midnightblue" stroke="midnightblue" points="1584.26,-187.405 1575.1,-192.728 1585.58,-194.28 1584.26,-187.405"/>
</g>
<!-- Node49 -->
<g id="node46" class="node"><title>Node49</title>
<g id="a_node46"><a xlink:href="fit__gaussian_8C.html" target="_top" xlink:title="fit_gaussian.C">
<polygon fill="none" stroke="black" points="1897,-129 1897,-148 1977,-148 1977,-129 1897,-129"/>
<text text-anchor="middle" x="1937" y="-136" font-family="Helvetica,sans-Serif" font-size="10.00">fit_gaussian.C</text>
</a>
</g>
</g>
<!-- Node42&#45;&gt;Node49 -->
<g id="edge54" class="edge"><title>Node42&#45;&gt;Node49</title>
<path fill="none" stroke="midnightblue" d="M1585.22,-195.593C1651.08,-189.906 1780.27,-176.794 1888,-154 1895.55,-152.402 1903.63,-150.216 1911,-148.025"/>
<polygon fill="midnightblue" stroke="midnightblue" points="1584.88,-192.11 1575.21,-196.443 1585.47,-199.085 1584.88,-192.11"/>
</g>
<!-- Node44 -->
<g id="node41" class="node"><title>Node44</title>
<g id="a_node41"><a xlink:href="basic__fit_8cpp.html" target="_top" xlink:title="basic_fit.cpp">
<polygon fill="none" stroke="black" points="1941,-62 1941,-81 2013,-81 2013,-62 1941,-62"/>
<text text-anchor="middle" x="1977" y="-69" font-family="Helvetica,sans-Serif" font-size="10.00">basic_fit.cpp</text>
</a>
</g>
</g>
<!-- Node43&#45;&gt;Node44 -->
<g id="edge43" class="edge"><title>Node43&#45;&gt;Node44</title>
<path fill="none" stroke="midnightblue" d="M1756.96,-125.712C1760,-124.748 1763.05,-123.828 1766,-123 1838.27,-102.718 1858.47,-106.302 1931,-87 1937.64,-85.2342 1944.74,-83.112 1951.33,-81.0427"/>
<polygon fill="midnightblue" stroke="midnightblue" points="1755.79,-122.415 1747.39,-128.879 1757.99,-129.06 1755.79,-122.415"/>
</g>
<!-- Node45 -->
<g id="node42" class="node"><title>Node45</title>
<g id="a_node42"><a xlink:href="basic__fit_8cu.html" target="_top" xlink:title="basic_fit.cu">
<polygon fill="none" stroke="black" points="1855.5,-62 1855.5,-81 1922.5,-81 1922.5,-62 1855.5,-62"/>
<text text-anchor="middle" x="1889" y="-69" font-family="Helvetica,sans-Serif" font-size="10.00">basic_fit.cu</text>
</a>
</g>
</g>
<!-- Node43&#45;&gt;Node45 -->
<g id="edge44" class="edge"><title>Node43&#45;&gt;Node45</title>
<path fill="none" stroke="midnightblue" d="M1755.47,-125.104C1788.23,-112.198 1838.67,-92.3272 1867.26,-81.0637"/>
<polygon fill="midnightblue" stroke="midnightblue" points="1753.93,-121.947 1745.91,-128.869 1756.5,-128.46 1753.93,-121.947"/>
</g>
<!-- Node47 -->
<g id="node44" class="node"><title>Node47</title>
<g id="a_node44"><a xlink:href="dense__histogram_8cpp.html" target="_top" xlink:title="dense_histogram.cpp">
<polygon fill="none" stroke="black" points="2153,-62 2153,-81 2263,-81 2263,-62 2153,-62"/>
<text text-anchor="middle" x="2208" y="-69" font-family="Helvetica,sans-Serif" font-size="10.00">dense_histogram.cpp</text>
</a>
</g>
</g>
<!-- Node46&#45;&gt;Node47 -->
<g id="edge50" class="edge"><title>Node46&#45;&gt;Node47</title>
<path fill="none" stroke="midnightblue" d="M1870.28,-126.686C1876.21,-125.357 1882.24,-124.086 1888,-123 2000.9,-101.691 2030.98,-107.712 2144,-87 2153.41,-85.2749 2163.54,-83.1207 2172.9,-81.0048"/>
<polygon fill="midnightblue" stroke="midnightblue" points="1869.4,-123.297 1860.44,-128.956 1870.97,-130.117 1869.4,-123.297"/>
</g>
<!-- Node48 -->
<g id="node45" class="node"><title>Node48</title>
<g id="a_node45"><a xlink:href="dense__histogram_8cu.html" target="_top" xlink:title="dense_histogram.cu">
<polygon fill="none" stroke="black" points="2031,-62 2031,-81 2135,-81 2135,-62 2031,-62"/>
<text text-anchor="middle" x="2083" y="-69" font-family="Helvetica,sans-Serif" font-size="10.00">dense_histogram.cu</text>
</a>
</g>
</g>
<!-- Node46&#45;&gt;Node48 -->
<g id="edge51" class="edge"><title>Node46&#45;&gt;Node48</title>
<path fill="none" stroke="midnightblue" d="M1870.7,-126.404C1921.23,-113.576 2003.3,-92.7361 2049.19,-81.0834"/>
<polygon fill="midnightblue" stroke="midnightblue" points="1869.56,-123.082 1860.73,-128.936 1871.28,-129.867 1869.56,-123.082"/>
</g>
<!-- Node52&#45;&gt;Node11 -->
<g id="edge58" class="edge"><title>Node52&#45;&gt;Node11</title>
<path fill="none" stroke="midnightblue" d="M2231.34,-182.12C2252.9,-154.856 2294.62,-102.081 2311.08,-81.2557"/>
<polygon fill="midnightblue" stroke="midnightblue" points="2228.33,-180.29 2224.87,-190.305 2233.82,-184.631 2228.33,-180.29"/>
</g>
<!-- Node53&#45;&gt;Node11 -->
<g id="edge60" class="edge"><title>Node53&#45;&gt;Node11</title>
<path fill="none" stroke="midnightblue" d="M2337.6,-180.306C2332.56,-152.576 2323.3,-101.628 2319.59,-81.2557"/>
<polygon fill="midnightblue" stroke="midnightblue" points="2334.19,-181.093 2339.42,-190.305 2341.07,-179.84 2334.19,-181.093"/>
</g>
</g>
</svg>
        <g id="navigator" transform="translate(0 0)" fill="#404254">
                <rect fill="#f2f5e9" fill-opacity="0.5" stroke="#606060" stroke-width=".5" x="0" y="0" width="60" height="60"/>
                <use id="zoomplus" xlink:href="#zoomPlus" x="17" y="9" onmousedown="handleZoom(evt,'in')"/>
                <use id="zoomminus" xlink:href="#zoomMin" x="42" y="9" onmousedown="handleZoom(evt,'out')"/>
                <use id="reset" xlink:href="#resetDef" x="30" y="36" onmousedown="handleReset()"/>
                <g id="arrowUp" xlink:href="#dirArrow" transform="translate(30 24)" onmousedown="handlePan(0,-1)">
                  <use xlink:href="#rim" fill="#404040">
                        <set attributeName="fill" to="#808080" begin="arrowUp.mouseover" end="arrowUp.mouseout"/>
                  </use>
                  <path fill="none" stroke="white" stroke-width="1.5" d="M0,-3.0v7 M-2.5,-0.5L0,-3.0L2.5,-0.5"/>
                </g>
                <g id="arrowRight" xlink:href="#dirArrow" transform="rotate(90) translate(36 -43)" onmousedown="handlePan(1,0)">
                  <use xlink:href="#rim" fill="#404040">
                        <set attributeName="fill" to="#808080" begin="arrowRight.mouseover" end="arrowRight.mouseout"/>
                  </use>
                  <path fill="none" stroke="white" stroke-width="1.5" d="M0,-3.0v7 M-2.5,-0.5L0,-3.0L2.5,-0.5"/>
                </g>
                <g id="arrowDown" xlink:href="#dirArrow" transform="rotate(180) translate(-30 -48)" onmousedown="handlePan(0,1)">
                  <use xlink:href="#rim" fill="#404040">
                        <set attributeName="fill" to="#808080" begin="arrowDown.mouseover" end="arrowDown.mouseout"/>
                  </use>
                  <path fill="none" stroke="white" stroke-width="1.5" d="M0,-3.0v7 M-2.5,-0.5L0,-3.0L2.5,-0.5"/>
                </g>
                <g id="arrowLeft" xlink:href="#dirArrow" transform="rotate(270) translate(-36 17)" onmousedown="handlePan(-1,0)">
                  <use xlink:href="#rim" fill="#404040">
                        <set attributeName="fill" to="#808080" begin="arrowLeft.mouseover" end="arrowLeft.mouseout"/>
                  </use>
                  <path fill="none" stroke="white" stroke-width="1.5" d="M0,-3.0v7 M-2.5,-0.5L0,-3.0L2.5,-0.5"/>
                </g>
        </g>
        <svg viewBox="0 0 15 15" width="100%" height="30px" preserveAspectRatio="xMaxYMin meet">
         <g id="arrow_out" transform="scale(0.3 0.3)">
          <a xlink:href="CheckValue_8h__dep__incl_org.svg" target="_base">
           <rect id="button" ry="5" rx="5" y="6" x="6" height="38" width="38"
                fill="#f2f5e9" fill-opacity="0.5" stroke="#606060" stroke-width="1.0"/>
           <path id="arrow"
             d="M 11.500037,31.436501 C 11.940474,20.09759 22.043105,11.32322 32.158766,21.979434 L 37.068811,17.246167 C 37.068811,17.246167 37.088388,32 37.088388,32 L 22.160133,31.978069 C 22.160133,31.978069 26.997745,27.140456 26.997745,27.140456 C 18.528582,18.264221 13.291696,25.230495 11.500037,31.436501 z"
             style="fill:#404040;"/>
          </a>
         </g>
        </svg>
</svg>
