<?xml version="1.0" encoding="UTF-8" standalone="no"?>
<!DOCTYPE svg PUBLIC "-//W3C//DTD SVG 1.1//EN"
 "http://www.w3.org/Graphics/SVG/1.1/DTD/svg11.dtd">
<!-- Generated by graphviz version 2.38.0 (20140413.2041)
 -->
<!-- Title: hydra::PDFSumNonExtendable::GetCoeficient Pages: 1 -->
<svg width="352pt" height="88pt"
 viewBox="0.00 0.00 352.00 88.00" xmlns="http://www.w3.org/2000/svg" xmlns:xlink="http://www.w3.org/1999/xlink">
<g id="graph0" class="graph" transform="scale(1 1) rotate(0) translate(4 84)">
<title>hydra::PDFSumNonExtendable::GetCoeficient</title>
<!-- Node13 -->
<g id="node1" class="node"><title>Node13</title>
<polygon fill="#bfbfbf" stroke="black" points="0,-24.5 0,-54.5 154,-54.5 154,-24.5 0,-24.5"/>
<text text-anchor="start" x="8" y="-42.5" font-family="Helvetica,sans-Serif" font-size="10.00">hydra::PDFSumNonExtendable</text>
<text text-anchor="middle" x="77" y="-31.5" font-family="Helvetica,sans-Serif" font-size="10.00">::GetCoeficient</text>
</g>
<!-- Node14 -->
<g id="node2" class="node"><title>Node14</title>
<g id="a_node2"><a xlink:href="classhydra_1_1PDFSumNonExtendable.html#addfe623055b4f8e75d8db7107580d588" target="_top" xlink:title="Assignment operator. ">
<polygon fill="none" stroke="black" points="190,-49.5 190,-79.5 344,-79.5 344,-49.5 190,-49.5"/>
<text text-anchor="start" x="198" y="-67.5" font-family="Helvetica,sans-Serif" font-size="10.00">hydra::PDFSumNonExtendable</text>
<text text-anchor="middle" x="267" y="-56.5" font-family="Helvetica,sans-Serif" font-size="10.00">::operator=</text>
</a>
</g>
</g>
<!-- Node13&#45;&gt;Node14 -->
<g id="edge1" class="edge"><title>Node13&#45;&gt;Node14</title>
<path fill="none" stroke="midnightblue" d="M164.146,-50.9555C172.67,-52.0891 181.281,-53.2342 189.696,-54.3532"/>
<polygon fill="midnightblue" stroke="midnightblue" points="164.57,-47.4812 154.196,-49.6324 163.647,-54.4201 164.57,-47.4812"/>
</g>
<!-- Node15 -->
<g id="node3" class="node"><title>Node15</title>
<g id="a_node3"><a xlink:href="classhydra_1_1PDFSumNonExtendable.html#a4eb82a2a0146ff901834d1eb8cb6bfb1" target="_top" xlink:title="Copy constructor. ">
<polygon fill="none" stroke="black" points="190,-0.5 190,-30.5 344,-30.5 344,-0.5 190,-0.5"/>
<text text-anchor="start" x="198" y="-18.5" font-family="Helvetica,sans-Serif" font-size="10.00">hydra::PDFSumNonExtendable</text>
<text text-anchor="middle" x="267" y="-7.5" font-family="Helvetica,sans-Serif" font-size="10.00">::PDFSumNonExtendable</text>
</a>
</g>
</g>
<!-- Node13&#45;&gt;Node15 -->
<g id="edge2" class="edge"><title>Node13&#45;&gt;Node15</title>
<path fill="none" stroke="midnightblue" d="M164.146,-28.5027C172.67,-27.4145 181.281,-26.3152 189.696,-25.241"/>
<polygon fill="midnightblue" stroke="midnightblue" points="163.672,-25.0346 154.196,-29.7729 164.559,-31.9783 163.672,-25.0346"/>
</g>
</g>
</svg>
