<?xml version="1.0" encoding="UTF-8" standalone="no"?>
<!DOCTYPE svg PUBLIC "-//W3C//DTD SVG 1.1//EN"
 "http://www.w3.org/Graphics/SVG/1.1/DTD/svg11.dtd">
<!-- Generated by graphviz version 2.38.0 (20140413.2041)
 -->
<!-- Title: hydra::Pdf&lt; FUNCTOR, INTEGRATOR &gt; Pages: 1 -->
<svg width="499pt" height="612pt"
 viewBox="0.00 0.00 498.50 612.00" xmlns="http://www.w3.org/2000/svg" xmlns:xlink="http://www.w3.org/1999/xlink">
<g id="graph0" class="graph" transform="scale(1 1) rotate(0) translate(4 608)">
<title>hydra::Pdf&lt; FUNCTOR, INTEGRATOR &gt;</title>
<!-- Node5 -->
<g id="node1" class="node"><title>Node5</title>
<polygon fill="#bfbfbf" stroke="black" points="188,-0.5 188,-211.5 311,-211.5 311,-0.5 188,-0.5"/>
<text text-anchor="start" x="196" y="-199.5" font-family="Helvetica,sans-Serif" font-size="10.00">hydra::Pdf&lt; FUNCTOR,</text>
<text text-anchor="middle" x="249.5" y="-188.5" font-family="Helvetica,sans-Serif" font-size="10.00"> INTEGRATOR &gt;</text>
<polyline fill="none" stroke="black" points="188,-181.5 311,-181.5 "/>
<text text-anchor="start" x="196" y="-169.5" font-family="Helvetica,sans-Serif" font-size="10.00">&#45; fFunctor</text>
<text text-anchor="start" x="196" y="-158.5" font-family="Helvetica,sans-Serif" font-size="10.00">&#45; fIntegrator</text>
<text text-anchor="start" x="196" y="-147.5" font-family="Helvetica,sans-Serif" font-size="10.00">&#45; fNorm</text>
<text text-anchor="start" x="196" y="-136.5" font-family="Helvetica,sans-Serif" font-size="10.00">&#45; fNormError</text>
<polyline fill="none" stroke="black" points="188,-129.5 311,-129.5 "/>
<text text-anchor="start" x="196" y="-117.5" font-family="Helvetica,sans-Serif" font-size="10.00">+ Pdf()</text>
<text text-anchor="start" x="196" y="-106.5" font-family="Helvetica,sans-Serif" font-size="10.00">+ Pdf()</text>
<text text-anchor="start" x="196" y="-95.5" font-family="Helvetica,sans-Serif" font-size="10.00">+ ~Pdf()</text>
<text text-anchor="start" x="196" y="-84.5" font-family="Helvetica,sans-Serif" font-size="10.00">+ AddUserParameters()</text>
<text text-anchor="start" x="196" y="-73.5" font-family="Helvetica,sans-Serif" font-size="10.00">+ GetFunctor()</text>
<text text-anchor="start" x="196" y="-62.5" font-family="Helvetica,sans-Serif" font-size="10.00">+ GetFunctor()</text>
<text text-anchor="start" x="196" y="-51.5" font-family="Helvetica,sans-Serif" font-size="10.00">+ GetIntegrator()</text>
<text text-anchor="start" x="196" y="-40.5" font-family="Helvetica,sans-Serif" font-size="10.00">+ GetIntegrator()</text>
<text text-anchor="start" x="196" y="-29.5" font-family="Helvetica,sans-Serif" font-size="10.00">+ GetNorm()</text>
<text text-anchor="start" x="196" y="-18.5" font-family="Helvetica,sans-Serif" font-size="10.00">+ GetNormCache()</text>
<text text-anchor="start" x="196" y="-7.5" font-family="Helvetica,sans-Serif" font-size="10.00">and 8 more...</text>
</g>
<!-- Node6 -->
<g id="node2" class="node"><title>Node6</title>
<polygon fill="none" stroke="#bfbfbf" points="14.5,-270.5 14.5,-338.5 170.5,-338.5 170.5,-270.5 14.5,-270.5"/>
<text text-anchor="start" x="22.5" y="-326.5" font-family="Helvetica,sans-Serif" font-size="10.00">hydra::detail::PdfBase</text>
<text text-anchor="middle" x="92.5" y="-315.5" font-family="Helvetica,sans-Serif" font-size="10.00">&lt; FUNCTOR, INTEGRATOR &gt;</text>
<polyline fill="none" stroke="#bfbfbf" points="14.5,-308.5 170.5,-308.5 "/>
<text text-anchor="middle" x="92.5" y="-296.5" font-family="Helvetica,sans-Serif" font-size="10.00"> </text>
<polyline fill="none" stroke="#bfbfbf" points="14.5,-289.5 170.5,-289.5 "/>
<text text-anchor="middle" x="92.5" y="-277.5" font-family="Helvetica,sans-Serif" font-size="10.00"> </text>
</g>
<!-- Node6&#45;&gt;Node5 -->
<g id="edge1" class="edge"><title>Node6&#45;&gt;Node5</title>
<path fill="none" stroke="midnightblue" d="M125.551,-262.134C143.604,-239.538 166.55,-210.82 187.779,-184.25"/>
<polygon fill="none" stroke="midnightblue" points="122.641,-260.169 119.133,-270.166 128.109,-264.539 122.641,-260.169"/>
</g>
<!-- Node7 -->
<g id="node3" class="node"><title>Node7</title>
<polygon fill="none" stroke="#bfbfbf" points="0,-408.5 0,-498.5 185,-498.5 185,-408.5 0,-408.5"/>
<text text-anchor="start" x="8" y="-486.5" font-family="Helvetica,sans-Serif" font-size="10.00">std::enable_if&lt; detail</text>
<text text-anchor="start" x="8" y="-475.5" font-family="Helvetica,sans-Serif" font-size="10.00">::is_hydra_functor&lt; FUNCTOR</text>
<text text-anchor="start" x="8" y="-464.5" font-family="Helvetica,sans-Serif" font-size="10.00"> &gt;::value &amp;&amp;detail::is_hydra</text>
<text text-anchor="middle" x="92.5" y="-453.5" font-family="Helvetica,sans-Serif" font-size="10.00">_integrator&lt; INTEGRATOR &gt;::value &gt;</text>
<polyline fill="none" stroke="#bfbfbf" points="0,-446.5 185,-446.5 "/>
<text text-anchor="middle" x="92.5" y="-434.5" font-family="Helvetica,sans-Serif" font-size="10.00"> </text>
<polyline fill="none" stroke="#bfbfbf" points="0,-427.5 185,-427.5 "/>
<text text-anchor="middle" x="92.5" y="-415.5" font-family="Helvetica,sans-Serif" font-size="10.00"> </text>
</g>
<!-- Node7&#45;&gt;Node6 -->
<g id="edge2" class="edge"><title>Node7&#45;&gt;Node6</title>
<path fill="none" stroke="midnightblue" d="M92.5,-398.201C92.5,-378.288 92.5,-356.354 92.5,-338.822"/>
<polygon fill="none" stroke="midnightblue" points="89.0001,-398.395 92.5,-408.395 96.0001,-398.395 89.0001,-398.395"/>
</g>
<!-- Node8 -->
<g id="node4" class="node"><title>Node8</title>
<polygon fill="none" stroke="#bfbfbf" points="188.5,-259.5 188.5,-349.5 310.5,-349.5 310.5,-259.5 188.5,-259.5"/>
<text text-anchor="start" x="196.5" y="-337.5" font-family="Helvetica,sans-Serif" font-size="10.00">std::unordered_map</text>
<text text-anchor="start" x="196.5" y="-326.5" font-family="Helvetica,sans-Serif" font-size="10.00">&lt; size_t, std::pair</text>
<text text-anchor="middle" x="249.5" y="-315.5" font-family="Helvetica,sans-Serif" font-size="10.00">&lt; GReal_t, GReal_t &gt; &gt;</text>
<polyline fill="none" stroke="#bfbfbf" points="188.5,-308.5 310.5,-308.5 "/>
<text text-anchor="start" x="196.5" y="-296.5" font-family="Helvetica,sans-Serif" font-size="10.00">+ elements</text>
<text text-anchor="start" x="196.5" y="-285.5" font-family="Helvetica,sans-Serif" font-size="10.00">+ keys</text>
<polyline fill="none" stroke="#bfbfbf" points="188.5,-278.5 310.5,-278.5 "/>
<text text-anchor="middle" x="249.5" y="-266.5" font-family="Helvetica,sans-Serif" font-size="10.00"> </text>
</g>
<!-- Node8&#45;&gt;Node5 -->
<g id="edge3" class="edge"><title>Node8&#45;&gt;Node5</title>
<path fill="none" stroke="#404040" d="M249.5,-259.402C249.5,-248.511 249.5,-236.33 249.5,-223.729"/>
<polygon fill="none" stroke="#404040" points="249.5,-223.546 245.5,-217.546 249.5,-211.546 253.5,-217.546 249.5,-223.546"/>
<text text-anchor="middle" x="280.5" y="-233" font-family="Helvetica,sans-Serif" font-size="10.00"> &#45;fNormCache</text>
</g>
<!-- Node9 -->
<g id="node5" class="node"><title>Node9</title>
<g id="a_node5"><a xlink:title="STL class. ">
<polygon fill="none" stroke="#bfbfbf" points="205,-419.5 205,-487.5 308,-487.5 308,-419.5 205,-419.5"/>
<text text-anchor="start" x="213" y="-475.5" font-family="Helvetica,sans-Serif" font-size="10.00">std::unordered_map</text>
<text text-anchor="middle" x="256.5" y="-464.5" font-family="Helvetica,sans-Serif" font-size="10.00">&lt; K, T &gt;</text>
<polyline fill="none" stroke="#bfbfbf" points="205,-457.5 308,-457.5 "/>
<text text-anchor="middle" x="256.5" y="-445.5" font-family="Helvetica,sans-Serif" font-size="10.00"> </text>
<polyline fill="none" stroke="#bfbfbf" points="205,-438.5 308,-438.5 "/>
<text text-anchor="middle" x="256.5" y="-426.5" font-family="Helvetica,sans-Serif" font-size="10.00"> </text>
</a>
</g>
</g>
<!-- Node9&#45;&gt;Node8 -->
<g id="edge4" class="edge"><title>Node9&#45;&gt;Node8</title>
<path fill="none" stroke="orange" d="M254.433,-409.09C253.54,-390.339 252.497,-368.428 251.6,-349.6"/>
<polygon fill="orange" stroke="orange" points="250.94,-409.321 254.912,-419.143 257.932,-408.988 250.94,-409.321"/>
<text text-anchor="start" x="253.5" y="-382" font-family="Helvetica,sans-Serif" font-size="10.00"> &lt; size_t, std::pair</text>
<text text-anchor="middle" x="306.5" y="-371" font-family="Helvetica,sans-Serif" font-size="10.00">&lt; GReal_t, GReal_t &gt; &gt;</text>
</g>
<!-- Node10 -->
<g id="node6" class="node"><title>Node10</title>
<polygon fill="none" stroke="#bfbfbf" points="242,-546.5 242,-603.5 271,-603.5 271,-546.5 242,-546.5"/>
<text text-anchor="middle" x="256.5" y="-591.5" font-family="Helvetica,sans-Serif" font-size="10.00">K</text>
<polyline fill="none" stroke="#bfbfbf" points="242,-584.5 271,-584.5 "/>
<text text-anchor="middle" x="256.5" y="-572.5" font-family="Helvetica,sans-Serif" font-size="10.00"> </text>
<polyline fill="none" stroke="#bfbfbf" points="242,-565.5 271,-565.5 "/>
<text text-anchor="middle" x="256.5" y="-553.5" font-family="Helvetica,sans-Serif" font-size="10.00"> </text>
</g>
<!-- Node10&#45;&gt;Node9 -->
<g id="edge5" class="edge"><title>Node10&#45;&gt;Node9</title>
<path fill="none" stroke="#404040" d="M256.5,-546.284C256.5,-532.465 256.5,-515.401 256.5,-499.749"/>
<polygon fill="none" stroke="#404040" points="256.5,-499.589 252.5,-493.589 256.5,-487.589 260.5,-493.589 256.5,-499.589"/>
<text text-anchor="middle" x="272" y="-520" font-family="Helvetica,sans-Serif" font-size="10.00"> +keys</text>
</g>
<!-- Node11 -->
<g id="node7" class="node"><title>Node11</title>
<polygon fill="none" stroke="#bfbfbf" points="332,-546.5 332,-603.5 361,-603.5 361,-546.5 332,-546.5"/>
<text text-anchor="middle" x="346.5" y="-591.5" font-family="Helvetica,sans-Serif" font-size="10.00">T</text>
<polyline fill="none" stroke="#bfbfbf" points="332,-584.5 361,-584.5 "/>
<text text-anchor="middle" x="346.5" y="-572.5" font-family="Helvetica,sans-Serif" font-size="10.00"> </text>
<polyline fill="none" stroke="#bfbfbf" points="332,-565.5 361,-565.5 "/>
<text text-anchor="middle" x="346.5" y="-553.5" font-family="Helvetica,sans-Serif" font-size="10.00"> </text>
</g>
<!-- Node11&#45;&gt;Node9 -->
<g id="edge6" class="edge"><title>Node11&#45;&gt;Node9</title>
<path fill="none" stroke="#404040" d="M331.87,-556.26C324.977,-547.788 316.705,-537.457 309.5,-528 302.063,-518.239 294.238,-507.603 286.952,-497.531"/>
<polygon fill="none" stroke="#404040" points="286.887,-497.442 280.136,-494.907 279.879,-487.701 286.63,-490.235 286.887,-497.442"/>
<text text-anchor="middle" x="334" y="-520" font-family="Helvetica,sans-Serif" font-size="10.00"> +elements</text>
</g>
<!-- Node13 -->
<g id="node9" class="node"><title>Node13</title>
<g id="a_node9"><a xlink:title="STL class. ">
<polygon fill="none" stroke="#bfbfbf" points="342.5,-425 342.5,-482 424.5,-482 424.5,-425 342.5,-425"/>
<text text-anchor="middle" x="383.5" y="-470" font-family="Helvetica,sans-Serif" font-size="10.00">std::array&lt; T &gt;</text>
<polyline fill="none" stroke="#bfbfbf" points="342.5,-463 424.5,-463 "/>
<text text-anchor="middle" x="383.5" y="-451" font-family="Helvetica,sans-Serif" font-size="10.00"> </text>
<polyline fill="none" stroke="#bfbfbf" points="342.5,-444 424.5,-444 "/>
<text text-anchor="middle" x="383.5" y="-432" font-family="Helvetica,sans-Serif" font-size="10.00"> </text>
</a>
</g>
</g>
<!-- Node11&#45;&gt;Node13 -->
<g id="edge9" class="edge"><title>Node11&#45;&gt;Node13</title>
<path fill="none" stroke="#404040" d="M355.082,-546.284C359.892,-530.749 365.972,-511.112 371.272,-493.992"/>
<polygon fill="none" stroke="#404040" points="371.416,-493.529 369.369,-486.614 374.965,-482.066 377.011,-488.98 371.416,-493.529"/>
<text text-anchor="middle" x="389" y="-520" font-family="Helvetica,sans-Serif" font-size="10.00"> +elements</text>
</g>
<!-- Node12 -->
<g id="node8" class="node"><title>Node12</title>
<polygon fill="none" stroke="#bfbfbf" points="329,-265 329,-344 448,-344 448,-265 329,-265"/>
<text text-anchor="start" x="337" y="-332" font-family="Helvetica,sans-Serif" font-size="10.00">std::array&lt; GReal_t,</text>
<text text-anchor="start" x="337" y="-321" font-family="Helvetica,sans-Serif" font-size="10.00"> FUNCTOR::parameter</text>
<text text-anchor="middle" x="388.5" y="-310" font-family="Helvetica,sans-Serif" font-size="10.00">_count &gt;</text>
<polyline fill="none" stroke="#bfbfbf" points="329,-303 448,-303 "/>
<text text-anchor="start" x="337" y="-291" font-family="Helvetica,sans-Serif" font-size="10.00">+ elements</text>
<polyline fill="none" stroke="#bfbfbf" points="329,-284 448,-284 "/>
<text text-anchor="middle" x="388.5" y="-272" font-family="Helvetica,sans-Serif" font-size="10.00"> </text>
</g>
<!-- Node12&#45;&gt;Node5 -->
<g id="edge7" class="edge"><title>Node12&#45;&gt;Node5</title>
<path fill="none" stroke="#404040" d="M361.038,-264.678C348.62,-247.122 333.333,-225.512 318.103,-203.982"/>
<polygon fill="none" stroke="#404040" points="318.05,-203.907 311.32,-201.319 311.12,-194.111 317.851,-196.699 318.05,-203.907"/>
<text text-anchor="middle" x="374.5" y="-233" font-family="Helvetica,sans-Serif" font-size="10.00"> &#45;fParameters</text>
</g>
<!-- Node13&#45;&gt;Node12 -->
<g id="edge8" class="edge"><title>Node13&#45;&gt;Node12</title>
<path fill="none" stroke="orange" d="M384.786,-414.703C385.522,-393.042 386.445,-365.917 387.186,-344.12"/>
<polygon fill="orange" stroke="orange" points="381.283,-414.737 384.44,-424.85 388.278,-414.975 381.283,-414.737"/>
<text text-anchor="start" x="386.5" y="-382" font-family="Helvetica,sans-Serif" font-size="10.00"> &lt; GReal_t, FUNCTOR</text>
<text text-anchor="middle" x="438.5" y="-371" font-family="Helvetica,sans-Serif" font-size="10.00">::parameter_count &gt;</text>
</g>
</g>
</svg>
