<?xml version="1.0" encoding="UTF-8" standalone="no"?>
<!DOCTYPE svg PUBLIC "-//W3C//DTD SVG 1.1//EN"
 "http://www.w3.org/Graphics/SVG/1.1/DTD/svg11.dtd">
<!-- Generated by graphviz version 5.0.0 (0)
 -->
<!-- Title: hydra::Spline4DFunctor&lt; IteratorX, IteratorY, IteratorW, IteratorZ, IteratorM, ArgType1, ArgType2, ArgType3, ArgType4, Signature &gt; Pages: 1 -->
<svg width="434pt" height="1340pt"
 viewBox="0.00 0.00 433.50 1340.00" xmlns="http://www.w3.org/2000/svg" xmlns:xlink="http://www.w3.org/1999/xlink">
<g id="graph0" class="graph" transform="scale(1 1) rotate(0) translate(4 1336)">
<title>hydra::Spline4DFunctor&lt; IteratorX, IteratorY, IteratorW, IteratorZ, IteratorM, ArgType1, ArgType2, ArgType3, ArgType4, Signature &gt;</title>
<!-- Node5 -->
<g id="node1" class="node">
<title>Node5</title>
<polygon fill="#bfbfbf" stroke="black" points="150.5,-0.5 150.5,-244.5 313.5,-244.5 313.5,-0.5 150.5,-0.5"/>
<text text-anchor="start" x="158.5" y="-232.5" font-family="Helvetica,sans-Serif" font-size="10.00">hydra::Spline4DFunctor</text>
<text text-anchor="start" x="158.5" y="-221.5" font-family="Helvetica,sans-Serif" font-size="10.00">&lt; IteratorX, IteratorY,</text>
<text text-anchor="start" x="158.5" y="-210.5" font-family="Helvetica,sans-Serif" font-size="10.00"> IteratorW, IteratorZ,</text>
<text text-anchor="start" x="158.5" y="-199.5" font-family="Helvetica,sans-Serif" font-size="10.00"> IteratorM, ArgType1, ArgType2,</text>
<text text-anchor="middle" x="232" y="-188.5" font-family="Helvetica,sans-Serif" font-size="10.00"> ArgType3, ArgType4, Signature &gt;</text>
<polyline fill="none" stroke="black" points="150.5,-181.5 313.5,-181.5 "/>
<text text-anchor="middle" x="232" y="-169.5" font-family="Helvetica,sans-Serif" font-size="10.00"> </text>
<polyline fill="none" stroke="black" points="150.5,-162.5 313.5,-162.5 "/>
<text text-anchor="start" x="158.5" y="-150.5" font-family="Helvetica,sans-Serif" font-size="10.00">+ Spline4DFunctor()</text>
<text text-anchor="start" x="158.5" y="-139.5" font-family="Helvetica,sans-Serif" font-size="10.00">+ Spline4DFunctor()</text>
<text text-anchor="start" x="158.5" y="-128.5" font-family="Helvetica,sans-Serif" font-size="10.00">+ Spline4DFunctor()</text>
<text text-anchor="start" x="158.5" y="-117.5" font-family="Helvetica,sans-Serif" font-size="10.00">+ Evaluate()</text>
<text text-anchor="start" x="158.5" y="-106.5" font-family="Helvetica,sans-Serif" font-size="10.00">+ GetM()</text>
<text text-anchor="start" x="158.5" y="-95.5" font-family="Helvetica,sans-Serif" font-size="10.00">+ GetSizeW()</text>
<text text-anchor="start" x="158.5" y="-84.5" font-family="Helvetica,sans-Serif" font-size="10.00">+ GetSizeX()</text>
<text text-anchor="start" x="158.5" y="-73.5" font-family="Helvetica,sans-Serif" font-size="10.00">+ GetSizeY()</text>
<text text-anchor="start" x="158.5" y="-62.5" font-family="Helvetica,sans-Serif" font-size="10.00">+ GetSizeZ()</text>
<text text-anchor="start" x="158.5" y="-51.5" font-family="Helvetica,sans-Serif" font-size="10.00">+ GetW()</text>
<text text-anchor="start" x="158.5" y="-40.5" font-family="Helvetica,sans-Serif" font-size="10.00">+ GetX()</text>
<text text-anchor="start" x="158.5" y="-29.5" font-family="Helvetica,sans-Serif" font-size="10.00">+ GetY()</text>
<text text-anchor="start" x="158.5" y="-18.5" font-family="Helvetica,sans-Serif" font-size="10.00">+ GetZ()</text>
<text text-anchor="start" x="158.5" y="-7.5" font-family="Helvetica,sans-Serif" font-size="10.00">+ operator=()</text>
</g>
<!-- Node6 -->
<g id="node2" class="node">
<title>Node6</title>
<g id="a_node2"><a xlink:href="group__functor.html" target="_top" xlink:title="{hydra::BaseFunctor\l\&lt; Spline4DFunctor\&lt; Iterator\lX, IteratorY, IteratorW,\l IteratorZ, IteratorM, ArgType1,\l ArgType2, ArgType3, ArgType4\l \&gt;, Signature, 0 \&gt;\n||+ BaseFunctor()\l+ BaseFunctor()\l+ BaseFunctor()\l+ BaseFunctor()\l+ GetFunctor()\l+ GetNorm()\l+ operator()()\l+ operator()()\l+ operator()()\l+ operator()()\land 6 more...\l}">
<polygon fill="none" stroke="black" points="155.5,-282.5 155.5,-504.5 308.5,-504.5 308.5,-282.5 155.5,-282.5"/>
<text text-anchor="start" x="163.5" y="-492.5" font-family="Helvetica,sans-Serif" font-size="10.00">hydra::BaseFunctor</text>
<text text-anchor="start" x="163.5" y="-481.5" font-family="Helvetica,sans-Serif" font-size="10.00">&lt; Spline4DFunctor&lt; Iterator</text>
<text text-anchor="start" x="163.5" y="-470.5" font-family="Helvetica,sans-Serif" font-size="10.00">X, IteratorY, IteratorW,</text>
<text text-anchor="start" x="163.5" y="-459.5" font-family="Helvetica,sans-Serif" font-size="10.00"> IteratorZ, IteratorM, ArgType1,</text>
<text text-anchor="start" x="163.5" y="-448.5" font-family="Helvetica,sans-Serif" font-size="10.00"> ArgType2, ArgType3, ArgType4</text>
<text text-anchor="middle" x="232" y="-437.5" font-family="Helvetica,sans-Serif" font-size="10.00"> &gt;, Signature, 0 &gt;</text>
<polyline fill="none" stroke="black" points="155.5,-430.5 308.5,-430.5 "/>
<text text-anchor="middle" x="232" y="-418.5" font-family="Helvetica,sans-Serif" font-size="10.00"> </text>
<polyline fill="none" stroke="black" points="155.5,-411.5 308.5,-411.5 "/>
<text text-anchor="start" x="163.5" y="-399.5" font-family="Helvetica,sans-Serif" font-size="10.00">+ BaseFunctor()</text>
<text text-anchor="start" x="163.5" y="-388.5" font-family="Helvetica,sans-Serif" font-size="10.00">+ BaseFunctor()</text>
<text text-anchor="start" x="163.5" y="-377.5" font-family="Helvetica,sans-Serif" font-size="10.00">+ BaseFunctor()</text>
<text text-anchor="start" x="163.5" y="-366.5" font-family="Helvetica,sans-Serif" font-size="10.00">+ BaseFunctor()</text>
<text text-anchor="start" x="163.5" y="-355.5" font-family="Helvetica,sans-Serif" font-size="10.00">+ GetFunctor()</text>
<text text-anchor="start" x="163.5" y="-344.5" font-family="Helvetica,sans-Serif" font-size="10.00">+ GetNorm()</text>
<text text-anchor="start" x="163.5" y="-333.5" font-family="Helvetica,sans-Serif" font-size="10.00">+ operator()()</text>
<text text-anchor="start" x="163.5" y="-322.5" font-family="Helvetica,sans-Serif" font-size="10.00">+ operator()()</text>
<text text-anchor="start" x="163.5" y="-311.5" font-family="Helvetica,sans-Serif" font-size="10.00">+ operator()()</text>
<text text-anchor="start" x="163.5" y="-300.5" font-family="Helvetica,sans-Serif" font-size="10.00">+ operator()()</text>
<text text-anchor="start" x="163.5" y="-289.5" font-family="Helvetica,sans-Serif" font-size="10.00">and 6 more...</text>
</a>
</g>
</g>
<!-- Node6&#45;&gt;Node5 -->
<g id="edge1" class="edge">
<title>Node6&#45;&gt;Node5</title>
<path fill="none" stroke="midnightblue" d="M232,-272.14C232,-263.09 232,-253.96 232,-244.9"/>
<polygon fill="none" stroke="midnightblue" points="228.5,-272.31 232,-282.31 235.5,-272.31 228.5,-272.31"/>
</g>
<!-- Node7 -->
<g id="node3" class="node">
<title>Node7</title>
<g id="a_node3"><a xlink:href="classhydra_1_1detail_1_1Parameters.html" target="_top" xlink:title="{hydra::detail::Parameters\l\&lt; NPARAM \&gt;\n||+ Parameters()\l+ Parameters()\l+ Parameters()\l+ Parameters()\l+ Parameters()\l+ AddUserParameters()\l+ GetNumberOfParameters()\l+ GetParameter()\l+ GetParameter()\l+ GetParameters()\land 12 more...\l}">
<polygon fill="none" stroke="black" points="153.5,-833.5 153.5,-1011.5 296.5,-1011.5 296.5,-833.5 153.5,-833.5"/>
<text text-anchor="start" x="161.5" y="-999.5" font-family="Helvetica,sans-Serif" font-size="10.00">hydra::detail::Parameters</text>
<text text-anchor="middle" x="225" y="-988.5" font-family="Helvetica,sans-Serif" font-size="10.00">&lt; NPARAM &gt;</text>
<polyline fill="none" stroke="black" points="153.5,-981.5 296.5,-981.5 "/>
<text text-anchor="middle" x="225" y="-969.5" font-family="Helvetica,sans-Serif" font-size="10.00"> </text>
<polyline fill="none" stroke="black" points="153.5,-962.5 296.5,-962.5 "/>
<text text-anchor="start" x="161.5" y="-950.5" font-family="Helvetica,sans-Serif" font-size="10.00">+ Parameters()</text>
<text text-anchor="start" x="161.5" y="-939.5" font-family="Helvetica,sans-Serif" font-size="10.00">+ Parameters()</text>
<text text-anchor="start" x="161.5" y="-928.5" font-family="Helvetica,sans-Serif" font-size="10.00">+ Parameters()</text>
<text text-anchor="start" x="161.5" y="-917.5" font-family="Helvetica,sans-Serif" font-size="10.00">+ Parameters()</text>
<text text-anchor="start" x="161.5" y="-906.5" font-family="Helvetica,sans-Serif" font-size="10.00">+ Parameters()</text>
<text text-anchor="start" x="161.5" y="-895.5" font-family="Helvetica,sans-Serif" font-size="10.00">+ AddUserParameters()</text>
<text text-anchor="start" x="161.5" y="-884.5" font-family="Helvetica,sans-Serif" font-size="10.00">+ GetNumberOfParameters()</text>
<text text-anchor="start" x="161.5" y="-873.5" font-family="Helvetica,sans-Serif" font-size="10.00">+ GetParameter()</text>
<text text-anchor="start" x="161.5" y="-862.5" font-family="Helvetica,sans-Serif" font-size="10.00">+ GetParameter()</text>
<text text-anchor="start" x="161.5" y="-851.5" font-family="Helvetica,sans-Serif" font-size="10.00">+ GetParameters()</text>
<text text-anchor="start" x="161.5" y="-840.5" font-family="Helvetica,sans-Serif" font-size="10.00">and 12 more...</text>
</a>
</g>
</g>
<!-- Node7&#45;&gt;Node6 -->
<g id="edge2" class="edge">
<title>Node7&#45;&gt;Node6</title>
<path fill="none" stroke="midnightblue" d="M226.31,-823.03C227.51,-732.51 229.29,-598.51 230.54,-504.51"/>
<polygon fill="none" stroke="midnightblue" points="222.8,-823.25 226.17,-833.29 229.8,-823.34 222.8,-823.25"/>
</g>
<!-- Node12 -->
<g id="node8" class="node">
<title>Node12</title>
<g id="a_node8"><a xlink:href="group__functor.html#classhydra_1_1BaseFunctor" target="_top" xlink:title="Base class for all functors in hydra. ">
<polygon fill="none" stroke="black" points="10,-596.5 10,-785.5 118,-785.5 118,-596.5 10,-596.5"/>
<text text-anchor="start" x="18" y="-773.5" font-family="Helvetica,sans-Serif" font-size="10.00">hydra::BaseFunctor</text>
<text text-anchor="start" x="18" y="-762.5" font-family="Helvetica,sans-Serif" font-size="10.00">&lt; Functor, Signature,</text>
<text text-anchor="middle" x="64" y="-751.5" font-family="Helvetica,sans-Serif" font-size="10.00"> NPARAM &gt;</text>
<polyline fill="none" stroke="black" points="10,-744.5 118,-744.5 "/>
<text text-anchor="middle" x="64" y="-732.5" font-family="Helvetica,sans-Serif" font-size="10.00"> </text>
<polyline fill="none" stroke="black" points="10,-725.5 118,-725.5 "/>
<text text-anchor="start" x="18" y="-713.5" font-family="Helvetica,sans-Serif" font-size="10.00">+ BaseFunctor()</text>
<text text-anchor="start" x="18" y="-702.5" font-family="Helvetica,sans-Serif" font-size="10.00">+ BaseFunctor()</text>
<text text-anchor="start" x="18" y="-691.5" font-family="Helvetica,sans-Serif" font-size="10.00">+ BaseFunctor()</text>
<text text-anchor="start" x="18" y="-680.5" font-family="Helvetica,sans-Serif" font-size="10.00">+ BaseFunctor()</text>
<text text-anchor="start" x="18" y="-669.5" font-family="Helvetica,sans-Serif" font-size="10.00">+ GetFunctor()</text>
<text text-anchor="start" x="18" y="-658.5" font-family="Helvetica,sans-Serif" font-size="10.00">+ GetNorm()</text>
<text text-anchor="start" x="18" y="-647.5" font-family="Helvetica,sans-Serif" font-size="10.00">+ operator()()</text>
<text text-anchor="start" x="18" y="-636.5" font-family="Helvetica,sans-Serif" font-size="10.00">+ operator()()</text>
<text text-anchor="start" x="18" y="-625.5" font-family="Helvetica,sans-Serif" font-size="10.00">+ operator()()</text>
<text text-anchor="start" x="18" y="-614.5" font-family="Helvetica,sans-Serif" font-size="10.00">+ operator()()</text>
<text text-anchor="start" x="18" y="-603.5" font-family="Helvetica,sans-Serif" font-size="10.00">and 6 more...</text>
</a>
</g>
</g>
<!-- Node7&#45;&gt;Node12 -->
<g id="edge8" class="edge">
<title>Node7&#45;&gt;Node12</title>
<path fill="none" stroke="midnightblue" d="M157.41,-825.16C144.26,-806.41 130.64,-787 118,-768.98"/>
<polygon fill="none" stroke="midnightblue" points="154.61,-827.25 163.21,-833.43 160.34,-823.23 154.61,-827.25"/>
</g>
<!-- Node8 -->
<g id="node4" class="node">
<title>Node8</title>
<g id="a_node4"><a xlink:href="namespace_3globalScope_4.html#classstatic_01const_01size__t" target="_top" xlink:title="{static const size_t\n||}">
<polygon fill="none" stroke="black" points="114.5,-1114.5 114.5,-1171.5 211.5,-1171.5 211.5,-1114.5 114.5,-1114.5"/>
<text text-anchor="middle" x="163" y="-1159.5" font-family="Helvetica,sans-Serif" font-size="10.00">static const size_t</text>
<polyline fill="none" stroke="black" points="114.5,-1152.5 211.5,-1152.5 "/>
<text text-anchor="middle" x="163" y="-1140.5" font-family="Helvetica,sans-Serif" font-size="10.00"> </text>
<polyline fill="none" stroke="black" points="114.5,-1133.5 211.5,-1133.5 "/>
<text text-anchor="middle" x="163" y="-1121.5" font-family="Helvetica,sans-Serif" font-size="10.00"> </text>
</a>
</g>
</g>
<!-- Node8&#45;&gt;Node7 -->
<g id="edge3" class="edge">
<title>Node8&#45;&gt;Node7</title>
<path fill="none" stroke="#404040" d="M166.36,-1114.5C169.52,-1091.61 174.97,-1058.32 183,-1030 183.64,-1027.74 184.31,-1025.46 185.01,-1023.18"/>
<polygon fill="none" stroke="#404040" points="185.03,-1023.09 183.05,-1016.16 188.69,-1011.66 190.67,-1018.6 185.03,-1023.09"/>
<text text-anchor="middle" x="224" y="-1033" font-family="Helvetica,sans-Serif" font-size="10.00"> +parameter_count</text>
</g>
<!-- Node9 -->
<g id="node5" class="node">
<title>Node9</title>
<g id="a_node5"><a xlink:href="classhydra_1_1detail_1_1Parameters.html" target="_top" xlink:title="{hydra::detail::Parameters\&lt; N \&gt;\n||+ Parameters()\l+ Parameters()\l+ Parameters()\l+ Parameters()\l+ Parameters()\l+ AddUserParameters()\l+ GetNumberOfParameters()\l+ GetParameter()\l+ GetParameter()\l+ GetParameters()\land 12 more...\l}">
<polygon fill="none" stroke="black" points="230,-1059.5 230,-1226.5 382,-1226.5 382,-1059.5 230,-1059.5"/>
<text text-anchor="middle" x="306" y="-1214.5" font-family="Helvetica,sans-Serif" font-size="10.00">hydra::detail::Parameters&lt; N &gt;</text>
<polyline fill="none" stroke="black" points="230,-1207.5 382,-1207.5 "/>
<text text-anchor="middle" x="306" y="-1195.5" font-family="Helvetica,sans-Serif" font-size="10.00"> </text>
<polyline fill="none" stroke="black" points="230,-1188.5 382,-1188.5 "/>
<text text-anchor="start" x="238" y="-1176.5" font-family="Helvetica,sans-Serif" font-size="10.00">+ Parameters()</text>
<text text-anchor="start" x="238" y="-1165.5" font-family="Helvetica,sans-Serif" font-size="10.00">+ Parameters()</text>
<text text-anchor="start" x="238" y="-1154.5" font-family="Helvetica,sans-Serif" font-size="10.00">+ Parameters()</text>
<text text-anchor="start" x="238" y="-1143.5" font-family="Helvetica,sans-Serif" font-size="10.00">+ Parameters()</text>
<text text-anchor="start" x="238" y="-1132.5" font-family="Helvetica,sans-Serif" font-size="10.00">+ Parameters()</text>
<text text-anchor="start" x="238" y="-1121.5" font-family="Helvetica,sans-Serif" font-size="10.00">+ AddUserParameters()</text>
<text text-anchor="start" x="238" y="-1110.5" font-family="Helvetica,sans-Serif" font-size="10.00">+ GetNumberOfParameters()</text>
<text text-anchor="start" x="238" y="-1099.5" font-family="Helvetica,sans-Serif" font-size="10.00">+ GetParameter()</text>
<text text-anchor="start" x="238" y="-1088.5" font-family="Helvetica,sans-Serif" font-size="10.00">+ GetParameter()</text>
<text text-anchor="start" x="238" y="-1077.5" font-family="Helvetica,sans-Serif" font-size="10.00">+ GetParameters()</text>
<text text-anchor="start" x="238" y="-1066.5" font-family="Helvetica,sans-Serif" font-size="10.00">and 12 more...</text>
</a>
</g>
</g>
<!-- Node9&#45;&gt;Node7 -->
<g id="edge4" class="edge">
<title>Node9&#45;&gt;Node7</title>
<path fill="none" stroke="orange" d="M272.26,-1049.64C269.81,-1042.99 267.37,-1036.39 265,-1030 262.77,-1023.98 260.46,-1017.77 258.13,-1011.52"/>
<polygon fill="orange" stroke="orange" points="269.11,-1051.22 275.85,-1059.4 275.68,-1048.81 269.11,-1051.22"/>
<text text-anchor="middle" x="300" y="-1033" font-family="Helvetica,sans-Serif" font-size="10.00"> &lt; NPARAM &gt;</text>
</g>
<!-- Node10 -->
<g id="node6" class="node">
<title>Node10</title>
<polygon fill="none" stroke="#bfbfbf" points="284.5,-1274.5 284.5,-1331.5 327.5,-1331.5 327.5,-1274.5 284.5,-1274.5"/>
<text text-anchor="middle" x="306" y="-1319.5" font-family="Helvetica,sans-Serif" font-size="10.00">size_t</text>
<polyline fill="none" stroke="#bfbfbf" points="284.5,-1312.5 327.5,-1312.5 "/>
<text text-anchor="middle" x="306" y="-1300.5" font-family="Helvetica,sans-Serif" font-size="10.00"> </text>
<polyline fill="none" stroke="#bfbfbf" points="284.5,-1293.5 327.5,-1293.5 "/>
<text text-anchor="middle" x="306" y="-1281.5" font-family="Helvetica,sans-Serif" font-size="10.00"> </text>
</g>
<!-- Node10&#45;&gt;Node9 -->
<g id="edge5" class="edge">
<title>Node10&#45;&gt;Node9</title>
<path fill="none" stroke="#404040" d="M306,-1274.48C306,-1264.12 306,-1251.67 306,-1238.63"/>
<polygon fill="none" stroke="#404040" points="306,-1238.54 302,-1232.54 306,-1226.54 310,-1232.54 306,-1238.54"/>
<text text-anchor="middle" x="347" y="-1248" font-family="Helvetica,sans-Serif" font-size="10.00"> +parameter_count</text>
</g>
<!-- Node11 -->
<g id="node7" class="node">
<title>Node11</title>
<g id="a_node7"><a xlink:href="namespace_3globalScope_4.html#classBaseFunctor_3_01Spline4DFunctor_3_01IteratorX_00_01IteratorY_00_01IteratorW_00_01IteratorZ_b20ac4fe6dd54bbe9bd31e5ad43b7fd4" target="_top" xlink:title="{BaseFunctor\&lt; Spline4DFunctor\l\&lt; IteratorX, IteratorY, Iterator\lW, IteratorZ, IteratorM, ArgType1,\l ArgType2, ArgType3, ArgType4 \&gt;,\l Signature, NPARAM \&gt; &amp;\n||}">
<polygon fill="none" stroke="black" points="260.5,-640.5 260.5,-741.5 425.5,-741.5 425.5,-640.5 260.5,-640.5"/>
<text text-anchor="start" x="268.5" y="-729.5" font-family="Helvetica,sans-Serif" font-size="10.00">BaseFunctor&lt; Spline4DFunctor</text>
<text text-anchor="start" x="268.5" y="-718.5" font-family="Helvetica,sans-Serif" font-size="10.00">&lt; IteratorX, IteratorY, Iterator</text>
<text text-anchor="start" x="268.5" y="-707.5" font-family="Helvetica,sans-Serif" font-size="10.00">W, IteratorZ, IteratorM, ArgType1,</text>
<text text-anchor="start" x="268.5" y="-696.5" font-family="Helvetica,sans-Serif" font-size="10.00"> ArgType2, ArgType3, ArgType4 &gt;,</text>
<text text-anchor="middle" x="343" y="-685.5" font-family="Helvetica,sans-Serif" font-size="10.00"> Signature, NPARAM &gt; &amp;</text>
<polyline fill="none" stroke="black" points="260.5,-678.5 425.5,-678.5 "/>
<text text-anchor="middle" x="343" y="-666.5" font-family="Helvetica,sans-Serif" font-size="10.00"> </text>
<polyline fill="none" stroke="black" points="260.5,-659.5 425.5,-659.5 "/>
<text text-anchor="middle" x="343" y="-647.5" font-family="Helvetica,sans-Serif" font-size="10.00"> </text>
</a>
</g>
</g>
<!-- Node11&#45;&gt;Node6 -->
<g id="edge6" class="edge">
<title>Node11&#45;&gt;Node6</title>
<path fill="none" stroke="#404040" d="M324.3,-640.21C311.51,-606.16 293.97,-559.49 277.62,-515.96"/>
<polygon fill="none" stroke="#404040" points="277.6,-515.91 271.75,-511.7 273.39,-504.67 279.24,-508.88 277.6,-515.91"/>
<text text-anchor="middle" x="314" y="-548" font-family="Helvetica,sans-Serif" font-size="10.00"> #_par</text>
</g>
<!-- Node12&#45;&gt;Node6 -->
<g id="edge7" class="edge">
<title>Node12&#45;&gt;Node6</title>
<path fill="none" stroke="orange" d="M38.66,-586C38.03,-564.29 41.09,-542.18 51,-523 73.02,-480.37 116.43,-448.81 155.22,-427.64"/>
<polygon fill="orange" stroke="orange" points="35.19,-586.48 39.23,-596.27 42.17,-586.1 35.19,-586.48"/>
<text text-anchor="start" x="51" y="-570" font-family="Helvetica,sans-Serif" font-size="10.00"> &lt; Spline4DFunctor&lt;</text>
<text text-anchor="start" x="51" y="-559" font-family="Helvetica,sans-Serif" font-size="10.00"> IteratorX, IteratorY,</text>
<text text-anchor="start" x="51" y="-548" font-family="Helvetica,sans-Serif" font-size="10.00"> IteratorW, IteratorZ,</text>
<text text-anchor="start" x="51" y="-537" font-family="Helvetica,sans-Serif" font-size="10.00"> IteratorM, ArgType1, ArgType2,</text>
<text text-anchor="middle" x="134.5" y="-526" font-family="Helvetica,sans-Serif" font-size="10.00"> ArgType3, ArgType4 &gt;, Signature, 0 &gt;</text>
</g>
<!-- Node13 -->
<g id="node9" class="node">
<title>Node13</title>
<polygon fill="none" stroke="#bfbfbf" points="0,-888.5 0,-956.5 128,-956.5 128,-888.5 0,-888.5"/>
<text text-anchor="start" x="8" y="-944.5" font-family="Helvetica,sans-Serif" font-size="10.00">BaseFunctor&lt; Functor,</text>
<text text-anchor="middle" x="64" y="-933.5" font-family="Helvetica,sans-Serif" font-size="10.00"> Signature, NPARAM &gt; &amp;</text>
<polyline fill="none" stroke="#bfbfbf" points="0,-926.5 128,-926.5 "/>
<text text-anchor="middle" x="64" y="-914.5" font-family="Helvetica,sans-Serif" font-size="10.00"> </text>
<polyline fill="none" stroke="#bfbfbf" points="0,-907.5 128,-907.5 "/>
<text text-anchor="middle" x="64" y="-895.5" font-family="Helvetica,sans-Serif" font-size="10.00"> </text>
</g>
<!-- Node13&#45;&gt;Node12 -->
<g id="edge9" class="edge">
<title>Node13&#45;&gt;Node12</title>
<path fill="none" stroke="#404040" d="M64,-888.13C64,-864.26 64,-830.72 64,-798.11"/>
<polygon fill="none" stroke="#404040" points="64,-797.68 60,-791.68 64,-785.68 68,-791.68 64,-797.68"/>
<text text-anchor="middle" x="78" y="-807" font-family="Helvetica,sans-Serif" font-size="10.00"> #_par</text>
</g>
</g>
</svg>
