<?xml version="1.0" encoding="UTF-8" standalone="no"?>
<!DOCTYPE svg PUBLIC "-//W3C//DTD SVG 1.1//EN"
 "http://www.w3.org/Graphics/SVG/1.1/DTD/svg11.dtd">
<!-- Generated by graphviz version 2.38.0 (20140413.2041)
 -->
<!-- Title: hydra::LogLikelihoodFCN&lt; PDFSumExtendable&lt; Pdfs... &gt;, Iterator &gt;::Eval Pages: 1 -->
<svg width="293pt" height="142pt"
 viewBox="0.00 0.00 293.00 142.00" xmlns="http://www.w3.org/2000/svg" xmlns:xlink="http://www.w3.org/1999/xlink">
<g id="graph0" class="graph" transform="scale(1 1) rotate(0) translate(4 138)">
<title>hydra::LogLikelihoodFCN&lt; PDFSumExtendable&lt; Pdfs... &gt;, Iterator &gt;::Eval</title>
<!-- Node4 -->
<g id="node1" class="node"><title>Node4</title>
<polygon fill="#bfbfbf" stroke="black" points="0,-46.5 0,-87.5 153,-87.5 153,-46.5 0,-46.5"/>
<text text-anchor="start" x="8" y="-75.5" font-family="Helvetica,sans-Serif" font-size="10.00">hydra::LogLikelihoodFCN</text>
<text text-anchor="start" x="8" y="-64.5" font-family="Helvetica,sans-Serif" font-size="10.00">&lt; PDFSumExtendable&lt; Pdfs...</text>
<text text-anchor="middle" x="76.5" y="-53.5" font-family="Helvetica,sans-Serif" font-size="10.00"> &gt;, Iterator &gt;::Eval</text>
</g>
<!-- Node5 -->
<g id="node2" class="node"><title>Node5</title>
<g id="a_node2"><a xlink:href="namespacehydra.html#a6874d900b0238ec21d1490998de81f99" target="_top" xlink:title="hydra::begin">
<polygon fill="none" stroke="black" points="202,-114.5 202,-133.5 272,-133.5 272,-114.5 202,-114.5"/>
<text text-anchor="middle" x="237" y="-121.5" font-family="Helvetica,sans-Serif" font-size="10.00">hydra::begin</text>
</a>
</g>
</g>
<!-- Node4&#45;&gt;Node5 -->
<g id="edge1" class="edge"><title>Node4&#45;&gt;Node5</title>
<path fill="none" stroke="midnightblue" d="M134.722,-87.5783C156.469,-95.399 180.62,-104.084 199.882,-111.011"/>
<polygon fill="midnightblue" stroke="midnightblue" points="198.876,-114.369 209.471,-114.459 201.245,-107.782 198.876,-114.369"/>
</g>
<!-- Node6 -->
<g id="node3" class="node"><title>Node6</title>
<g id="a_node3"><a xlink:href="namespacehydra.html#ae7f8d7b0cfc77696dd1ba9aaf31d23a7" target="_top" xlink:title="hydra::end">
<polygon fill="none" stroke="black" points="206,-76.5 206,-95.5 268,-95.5 268,-76.5 206,-76.5"/>
<text text-anchor="middle" x="237" y="-83.5" font-family="Helvetica,sans-Serif" font-size="10.00">hydra::end</text>
</a>
</g>
</g>
<!-- Node4&#45;&gt;Node6 -->
<g id="edge2" class="edge"><title>Node4&#45;&gt;Node6</title>
<path fill="none" stroke="midnightblue" d="M153.036,-76.0548C167.758,-77.8196 182.652,-79.6049 195.678,-81.1664"/>
<polygon fill="midnightblue" stroke="midnightblue" points="195.34,-84.6509 205.686,-82.3661 196.173,-77.7007 195.34,-84.6509"/>
</g>
<!-- Node7 -->
<g id="node4" class="node"><title>Node7</title>
<g id="a_node4"><a xlink:href="classhydra_1_1Print.html#a8420ebe5433589b26123013d567a887a" target="_top" xlink:title="hydra::Print::Level">
<polygon fill="none" stroke="black" points="189,-38.5 189,-57.5 285,-57.5 285,-38.5 189,-38.5"/>
<text text-anchor="middle" x="237" y="-45.5" font-family="Helvetica,sans-Serif" font-size="10.00">hydra::Print::Level</text>
</a>
</g>
</g>
<!-- Node4&#45;&gt;Node7 -->
<g id="edge3" class="edge"><title>Node4&#45;&gt;Node7</title>
<path fill="none" stroke="midnightblue" d="M153.036,-57.9452C161.653,-56.9123 170.327,-55.8724 178.652,-54.8745"/>
<polygon fill="midnightblue" stroke="midnightblue" points="179.094,-58.3467 188.606,-53.6813 178.26,-51.3965 179.094,-58.3467"/>
</g>
<!-- Node8 -->
<g id="node5" class="node"><title>Node8</title>
<g id="a_node5"><a xlink:href="namespacehydra.html#aa215df4feed1826c6bc64bade76c39a0" target="_top" xlink:title="hydra::log">
<polygon fill="none" stroke="black" points="207.5,-0.5 207.5,-19.5 266.5,-19.5 266.5,-0.5 207.5,-0.5"/>
<text text-anchor="middle" x="237" y="-7.5" font-family="Helvetica,sans-Serif" font-size="10.00">hydra::log</text>
</a>
</g>
</g>
<!-- Node4&#45;&gt;Node8 -->
<g id="edge4" class="edge"><title>Node4&#45;&gt;Node8</title>
<path fill="none" stroke="midnightblue" d="M134.722,-46.4217C156.469,-38.601 180.62,-29.9158 199.882,-22.9888"/>
<polygon fill="midnightblue" stroke="midnightblue" points="201.245,-26.2181 209.471,-19.5405 198.876,-19.6311 201.245,-26.2181"/>
</g>
</g>
</svg>
