<?xml version="1.0" encoding="UTF-8" standalone="no"?>
<!DOCTYPE svg PUBLIC "-//W3C//DTD SVG 1.1//EN"
 "http://www.w3.org/Graphics/SVG/1.1/DTD/svg11.dtd">
<!-- Generated by graphviz version 2.42.4 (0)
 -->
<!-- Title: hydra::Chebychev&lt; Order, ArgType, Signature &gt; Pages: 1 -->
<svg width="404pt" height="1208pt"
 viewBox="0.00 0.00 403.50 1208.00" xmlns="http://www.w3.org/2000/svg" xmlns:xlink="http://www.w3.org/1999/xlink">
<g id="graph0" class="graph" transform="scale(1 1) rotate(0) translate(4 1204)">
<title>hydra::Chebychev&lt; Order, ArgType, Signature &gt;</title>
<!-- Node53 -->
<g id="node1" class="node">
<title>Node53</title>
<polygon fill="#bfbfbf" stroke="black" points="152.5,-0.5 152.5,-156.5 283.5,-156.5 283.5,-0.5 152.5,-0.5"/>
<text text-anchor="start" x="160.5" y="-144.5" font-family="Helvetica,sans-Serif" font-size="10.00">hydra::Chebychev&lt; Order,</text>
<text text-anchor="middle" x="218" y="-133.5" font-family="Helvetica,sans-Serif" font-size="10.00"> ArgType, Signature &gt;</text>
<polyline fill="none" stroke="black" points="152.5,-126.5 283.5,-126.5 "/>
<text text-anchor="middle" x="218" y="-114.5" font-family="Helvetica,sans-Serif" font-size="10.00"> </text>
<polyline fill="none" stroke="black" points="152.5,-107.5 283.5,-107.5 "/>
<text text-anchor="start" x="160.5" y="-95.5" font-family="Helvetica,sans-Serif" font-size="10.00">+ Chebychev()</text>
<text text-anchor="start" x="160.5" y="-84.5" font-family="Helvetica,sans-Serif" font-size="10.00">+ Chebychev()</text>
<text text-anchor="start" x="160.5" y="-73.5" font-family="Helvetica,sans-Serif" font-size="10.00">+ Chebychev()</text>
<text text-anchor="start" x="160.5" y="-62.5" font-family="Helvetica,sans-Serif" font-size="10.00">+ Evaluate()</text>
<text text-anchor="start" x="160.5" y="-51.5" font-family="Helvetica,sans-Serif" font-size="10.00">+ GetMaximum()</text>
<text text-anchor="start" x="160.5" y="-40.5" font-family="Helvetica,sans-Serif" font-size="10.00">+ GetMinimum()</text>
<text text-anchor="start" x="160.5" y="-29.5" font-family="Helvetica,sans-Serif" font-size="10.00">+ operator=()</text>
<text text-anchor="start" x="160.5" y="-18.5" font-family="Helvetica,sans-Serif" font-size="10.00">+ SetMaximum()</text>
<text text-anchor="start" x="160.5" y="-7.5" font-family="Helvetica,sans-Serif" font-size="10.00">+ SetMinimum()</text>
</g>
<!-- Node54 -->
<g id="node2" class="node">
<title>Node54</title>
<g id="a_node2"><a xlink:href="group__functor.html" target="_top" xlink:title="{hydra::BaseFunctor\l\&lt; Chebychev\&lt; Order,\l ArgType \&gt;, Signature,\l Order+1 \&gt;\n||+ BaseFunctor()\l+ BaseFunctor()\l+ BaseFunctor()\l+ BaseFunctor()\l+ GetFunctor()\l+ GetNorm()\l+ operator()()\l+ operator()()\l+ operator()()\l+ operator()()\land 6 more...\l}">
<polygon fill="none" stroke="black" points="161,-194.5 161,-394.5 275,-394.5 275,-194.5 161,-194.5"/>
<text text-anchor="start" x="169" y="-382.5" font-family="Helvetica,sans-Serif" font-size="10.00">hydra::BaseFunctor</text>
<text text-anchor="start" x="169" y="-371.5" font-family="Helvetica,sans-Serif" font-size="10.00">&lt; Chebychev&lt; Order,</text>
<text text-anchor="start" x="169" y="-360.5" font-family="Helvetica,sans-Serif" font-size="10.00"> ArgType &gt;, Signature,</text>
<text text-anchor="middle" x="218" y="-349.5" font-family="Helvetica,sans-Serif" font-size="10.00"> Order+1 &gt;</text>
<polyline fill="none" stroke="black" points="161,-342.5 275,-342.5 "/>
<text text-anchor="middle" x="218" y="-330.5" font-family="Helvetica,sans-Serif" font-size="10.00"> </text>
<polyline fill="none" stroke="black" points="161,-323.5 275,-323.5 "/>
<text text-anchor="start" x="169" y="-311.5" font-family="Helvetica,sans-Serif" font-size="10.00">+ BaseFunctor()</text>
<text text-anchor="start" x="169" y="-300.5" font-family="Helvetica,sans-Serif" font-size="10.00">+ BaseFunctor()</text>
<text text-anchor="start" x="169" y="-289.5" font-family="Helvetica,sans-Serif" font-size="10.00">+ BaseFunctor()</text>
<text text-anchor="start" x="169" y="-278.5" font-family="Helvetica,sans-Serif" font-size="10.00">+ BaseFunctor()</text>
<text text-anchor="start" x="169" y="-267.5" font-family="Helvetica,sans-Serif" font-size="10.00">+ GetFunctor()</text>
<text text-anchor="start" x="169" y="-256.5" font-family="Helvetica,sans-Serif" font-size="10.00">+ GetNorm()</text>
<text text-anchor="start" x="169" y="-245.5" font-family="Helvetica,sans-Serif" font-size="10.00">+ operator()()</text>
<text text-anchor="start" x="169" y="-234.5" font-family="Helvetica,sans-Serif" font-size="10.00">+ operator()()</text>
<text text-anchor="start" x="169" y="-223.5" font-family="Helvetica,sans-Serif" font-size="10.00">+ operator()()</text>
<text text-anchor="start" x="169" y="-212.5" font-family="Helvetica,sans-Serif" font-size="10.00">+ operator()()</text>
<text text-anchor="start" x="169" y="-201.5" font-family="Helvetica,sans-Serif" font-size="10.00">and 6 more...</text>
</a>
</g>
</g>
<!-- Node54&#45;&gt;Node53 -->
<g id="edge1" class="edge">
<title>Node54&#45;&gt;Node53</title>
<path fill="none" stroke="midnightblue" d="M218,-184.21C218,-174.87 218,-165.56 218,-156.56"/>
<polygon fill="none" stroke="midnightblue" points="214.5,-184.33 218,-194.33 221.5,-184.33 214.5,-184.33"/>
</g>
<!-- Node55 -->
<g id="node3" class="node">
<title>Node55</title>
<g id="a_node3"><a xlink:href="classhydra_1_1detail_1_1Parameters.html" target="_top" xlink:title="{hydra::detail::Parameters\l\&lt; NPARAM \&gt;\n||+ Parameters()\l+ Parameters()\l+ Parameters()\l+ Parameters()\l+ Parameters()\l+ AddUserParameters()\l+ GetNumberOfParameters()\l+ GetParameter()\l+ GetParameter()\l+ GetParameters()\land 11 more...\l}">
<polygon fill="none" stroke="black" points="146.5,-701.5 146.5,-879.5 289.5,-879.5 289.5,-701.5 146.5,-701.5"/>
<text text-anchor="start" x="154.5" y="-867.5" font-family="Helvetica,sans-Serif" font-size="10.00">hydra::detail::Parameters</text>
<text text-anchor="middle" x="218" y="-856.5" font-family="Helvetica,sans-Serif" font-size="10.00">&lt; NPARAM &gt;</text>
<polyline fill="none" stroke="black" points="146.5,-849.5 289.5,-849.5 "/>
<text text-anchor="middle" x="218" y="-837.5" font-family="Helvetica,sans-Serif" font-size="10.00"> </text>
<polyline fill="none" stroke="black" points="146.5,-830.5 289.5,-830.5 "/>
<text text-anchor="start" x="154.5" y="-818.5" font-family="Helvetica,sans-Serif" font-size="10.00">+ Parameters()</text>
<text text-anchor="start" x="154.5" y="-807.5" font-family="Helvetica,sans-Serif" font-size="10.00">+ Parameters()</text>
<text text-anchor="start" x="154.5" y="-796.5" font-family="Helvetica,sans-Serif" font-size="10.00">+ Parameters()</text>
<text text-anchor="start" x="154.5" y="-785.5" font-family="Helvetica,sans-Serif" font-size="10.00">+ Parameters()</text>
<text text-anchor="start" x="154.5" y="-774.5" font-family="Helvetica,sans-Serif" font-size="10.00">+ Parameters()</text>
<text text-anchor="start" x="154.5" y="-763.5" font-family="Helvetica,sans-Serif" font-size="10.00">+ AddUserParameters()</text>
<text text-anchor="start" x="154.5" y="-752.5" font-family="Helvetica,sans-Serif" font-size="10.00">+ GetNumberOfParameters()</text>
<text text-anchor="start" x="154.5" y="-741.5" font-family="Helvetica,sans-Serif" font-size="10.00">+ GetParameter()</text>
<text text-anchor="start" x="154.5" y="-730.5" font-family="Helvetica,sans-Serif" font-size="10.00">+ GetParameter()</text>
<text text-anchor="start" x="154.5" y="-719.5" font-family="Helvetica,sans-Serif" font-size="10.00">+ GetParameters()</text>
<text text-anchor="start" x="154.5" y="-708.5" font-family="Helvetica,sans-Serif" font-size="10.00">and 11 more...</text>
</a>
</g>
</g>
<!-- Node55&#45;&gt;Node54 -->
<g id="edge2" class="edge">
<title>Node55&#45;&gt;Node54</title>
<path fill="none" stroke="midnightblue" d="M218,-691.44C218,-605.42 218,-480.95 218,-394.62"/>
<polygon fill="none" stroke="midnightblue" points="214.5,-691.47 218,-701.47 221.5,-691.47 214.5,-691.47"/>
</g>
<!-- Node60 -->
<g id="node8" class="node">
<title>Node60</title>
<g id="a_node8"><a xlink:href="group__functor.html#classhydra_1_1BaseFunctor" target="_top" xlink:title="Base class for all functors in hydra. ">
<polygon fill="none" stroke="black" points="51,-464.5 51,-653.5 159,-653.5 159,-464.5 51,-464.5"/>
<text text-anchor="start" x="59" y="-641.5" font-family="Helvetica,sans-Serif" font-size="10.00">hydra::BaseFunctor</text>
<text text-anchor="start" x="59" y="-630.5" font-family="Helvetica,sans-Serif" font-size="10.00">&lt; Functor, Signature,</text>
<text text-anchor="middle" x="105" y="-619.5" font-family="Helvetica,sans-Serif" font-size="10.00"> NPARAM &gt;</text>
<polyline fill="none" stroke="black" points="51,-612.5 159,-612.5 "/>
<text text-anchor="middle" x="105" y="-600.5" font-family="Helvetica,sans-Serif" font-size="10.00"> </text>
<polyline fill="none" stroke="black" points="51,-593.5 159,-593.5 "/>
<text text-anchor="start" x="59" y="-581.5" font-family="Helvetica,sans-Serif" font-size="10.00">+ BaseFunctor()</text>
<text text-anchor="start" x="59" y="-570.5" font-family="Helvetica,sans-Serif" font-size="10.00">+ BaseFunctor()</text>
<text text-anchor="start" x="59" y="-559.5" font-family="Helvetica,sans-Serif" font-size="10.00">+ BaseFunctor()</text>
<text text-anchor="start" x="59" y="-548.5" font-family="Helvetica,sans-Serif" font-size="10.00">+ BaseFunctor()</text>
<text text-anchor="start" x="59" y="-537.5" font-family="Helvetica,sans-Serif" font-size="10.00">+ GetFunctor()</text>
<text text-anchor="start" x="59" y="-526.5" font-family="Helvetica,sans-Serif" font-size="10.00">+ GetNorm()</text>
<text text-anchor="start" x="59" y="-515.5" font-family="Helvetica,sans-Serif" font-size="10.00">+ operator()()</text>
<text text-anchor="start" x="59" y="-504.5" font-family="Helvetica,sans-Serif" font-size="10.00">+ operator()()</text>
<text text-anchor="start" x="59" y="-493.5" font-family="Helvetica,sans-Serif" font-size="10.00">+ operator()()</text>
<text text-anchor="start" x="59" y="-482.5" font-family="Helvetica,sans-Serif" font-size="10.00">+ operator()()</text>
<text text-anchor="start" x="59" y="-471.5" font-family="Helvetica,sans-Serif" font-size="10.00">and 6 more...</text>
</a>
</g>
</g>
<!-- Node55&#45;&gt;Node60 -->
<g id="edge8" class="edge">
<title>Node55&#45;&gt;Node60</title>
<path fill="none" stroke="midnightblue" d="M170.08,-692.17C163.78,-679.38 157.33,-666.28 151.06,-653.55"/>
<polygon fill="none" stroke="midnightblue" points="167.08,-694 174.63,-701.43 173.36,-690.91 167.08,-694"/>
</g>
<!-- Node56 -->
<g id="node4" class="node">
<title>Node56</title>
<g id="a_node4"><a xlink:href="namespace_3globalScope_4.html#classstatic_01const_01size__t" target="_top" xlink:title="{static const size_t\n||}">
<polygon fill="none" stroke="black" points="107.5,-982.5 107.5,-1039.5 204.5,-1039.5 204.5,-982.5 107.5,-982.5"/>
<text text-anchor="middle" x="156" y="-1027.5" font-family="Helvetica,sans-Serif" font-size="10.00">static const size_t</text>
<polyline fill="none" stroke="black" points="107.5,-1020.5 204.5,-1020.5 "/>
<text text-anchor="middle" x="156" y="-1008.5" font-family="Helvetica,sans-Serif" font-size="10.00"> </text>
<polyline fill="none" stroke="black" points="107.5,-1001.5 204.5,-1001.5 "/>
<text text-anchor="middle" x="156" y="-989.5" font-family="Helvetica,sans-Serif" font-size="10.00"> </text>
</a>
</g>
</g>
<!-- Node56&#45;&gt;Node55 -->
<g id="edge3" class="edge">
<title>Node56&#45;&gt;Node55</title>
<path fill="none" stroke="#404040" d="M159.36,-982.5C162.52,-959.61 167.97,-926.32 176,-898 176.64,-895.74 177.31,-893.46 178.01,-891.18"/>
<polygon fill="none" stroke="#404040" points="178.03,-891.09 176.05,-884.16 181.69,-879.66 183.67,-886.6 178.03,-891.09"/>
<text text-anchor="middle" x="217" y="-901" font-family="Helvetica,sans-Serif" font-size="10.00"> +parameter_count</text>
</g>
<!-- Node57 -->
<g id="node5" class="node">
<title>Node57</title>
<g id="a_node5"><a xlink:href="classhydra_1_1detail_1_1Parameters.html" target="_top" xlink:title="{hydra::detail::Parameters\&lt; N \&gt;\n||+ Parameters()\l+ Parameters()\l+ Parameters()\l+ Parameters()\l+ Parameters()\l+ AddUserParameters()\l+ GetNumberOfParameters()\l+ GetParameter()\l+ GetParameter()\l+ GetParameters()\land 11 more...\l}">
<polygon fill="none" stroke="black" points="223,-927.5 223,-1094.5 375,-1094.5 375,-927.5 223,-927.5"/>
<text text-anchor="middle" x="299" y="-1082.5" font-family="Helvetica,sans-Serif" font-size="10.00">hydra::detail::Parameters&lt; N &gt;</text>
<polyline fill="none" stroke="black" points="223,-1075.5 375,-1075.5 "/>
<text text-anchor="middle" x="299" y="-1063.5" font-family="Helvetica,sans-Serif" font-size="10.00"> </text>
<polyline fill="none" stroke="black" points="223,-1056.5 375,-1056.5 "/>
<text text-anchor="start" x="231" y="-1044.5" font-family="Helvetica,sans-Serif" font-size="10.00">+ Parameters()</text>
<text text-anchor="start" x="231" y="-1033.5" font-family="Helvetica,sans-Serif" font-size="10.00">+ Parameters()</text>
<text text-anchor="start" x="231" y="-1022.5" font-family="Helvetica,sans-Serif" font-size="10.00">+ Parameters()</text>
<text text-anchor="start" x="231" y="-1011.5" font-family="Helvetica,sans-Serif" font-size="10.00">+ Parameters()</text>
<text text-anchor="start" x="231" y="-1000.5" font-family="Helvetica,sans-Serif" font-size="10.00">+ Parameters()</text>
<text text-anchor="start" x="231" y="-989.5" font-family="Helvetica,sans-Serif" font-size="10.00">+ AddUserParameters()</text>
<text text-anchor="start" x="231" y="-978.5" font-family="Helvetica,sans-Serif" font-size="10.00">+ GetNumberOfParameters()</text>
<text text-anchor="start" x="231" y="-967.5" font-family="Helvetica,sans-Serif" font-size="10.00">+ GetParameter()</text>
<text text-anchor="start" x="231" y="-956.5" font-family="Helvetica,sans-Serif" font-size="10.00">+ GetParameter()</text>
<text text-anchor="start" x="231" y="-945.5" font-family="Helvetica,sans-Serif" font-size="10.00">+ GetParameters()</text>
<text text-anchor="start" x="231" y="-934.5" font-family="Helvetica,sans-Serif" font-size="10.00">and 11 more...</text>
</a>
</g>
</g>
<!-- Node57&#45;&gt;Node55 -->
<g id="edge4" class="edge">
<title>Node57&#45;&gt;Node55</title>
<path fill="none" stroke="orange" d="M265.26,-917.64C262.81,-910.99 260.37,-904.39 258,-898 255.77,-891.98 253.46,-885.77 251.13,-879.52"/>
<polygon fill="orange" stroke="orange" points="262.11,-919.22 268.85,-927.4 268.68,-916.81 262.11,-919.22"/>
<text text-anchor="middle" x="293" y="-901" font-family="Helvetica,sans-Serif" font-size="10.00"> &lt; NPARAM &gt;</text>
</g>
<!-- Node58 -->
<g id="node6" class="node">
<title>Node58</title>
<polygon fill="none" stroke="#bfbfbf" points="277.5,-1142.5 277.5,-1199.5 320.5,-1199.5 320.5,-1142.5 277.5,-1142.5"/>
<text text-anchor="middle" x="299" y="-1187.5" font-family="Helvetica,sans-Serif" font-size="10.00">size_t</text>
<polyline fill="none" stroke="#bfbfbf" points="277.5,-1180.5 320.5,-1180.5 "/>
<text text-anchor="middle" x="299" y="-1168.5" font-family="Helvetica,sans-Serif" font-size="10.00"> </text>
<polyline fill="none" stroke="#bfbfbf" points="277.5,-1161.5 320.5,-1161.5 "/>
<text text-anchor="middle" x="299" y="-1149.5" font-family="Helvetica,sans-Serif" font-size="10.00"> </text>
</g>
<!-- Node58&#45;&gt;Node57 -->
<g id="edge5" class="edge">
<title>Node58&#45;&gt;Node57</title>
<path fill="none" stroke="#404040" d="M299,-1142.48C299,-1132.12 299,-1119.67 299,-1106.63"/>
<polygon fill="none" stroke="#404040" points="299,-1106.54 295,-1100.54 299,-1094.54 303,-1100.54 299,-1106.54"/>
<text text-anchor="middle" x="340" y="-1116" font-family="Helvetica,sans-Serif" font-size="10.00"> +parameter_count</text>
</g>
<!-- Node59 -->
<g id="node7" class="node">
<title>Node59</title>
<g id="a_node7"><a xlink:href="namespace_3globalScope_4.html#classBaseFunctor_3_01Chebychev_3_01Order_00_01ArgType_01_4_00_01Signature_00_01NPARAM_01_4_01_6" target="_top" xlink:title="{BaseFunctor\&lt; Chebychev\l\&lt; Order, ArgType \&gt;, Signature,\l NPARAM \&gt; &amp;\n||}">
<polygon fill="none" stroke="black" points="246.5,-519.5 246.5,-598.5 395.5,-598.5 395.5,-519.5 246.5,-519.5"/>
<text text-anchor="start" x="254.5" y="-586.5" font-family="Helvetica,sans-Serif" font-size="10.00">BaseFunctor&lt; Chebychev</text>
<text text-anchor="start" x="254.5" y="-575.5" font-family="Helvetica,sans-Serif" font-size="10.00">&lt; Order, ArgType &gt;, Signature,</text>
<text text-anchor="middle" x="321" y="-564.5" font-family="Helvetica,sans-Serif" font-size="10.00"> NPARAM &gt; &amp;</text>
<polyline fill="none" stroke="black" points="246.5,-557.5 395.5,-557.5 "/>
<text text-anchor="middle" x="321" y="-545.5" font-family="Helvetica,sans-Serif" font-size="10.00"> </text>
<polyline fill="none" stroke="black" points="246.5,-538.5 395.5,-538.5 "/>
<text text-anchor="middle" x="321" y="-526.5" font-family="Helvetica,sans-Serif" font-size="10.00"> </text>
</a>
</g>
</g>
<!-- Node59&#45;&gt;Node54 -->
<g id="edge6" class="edge">
<title>Node59&#45;&gt;Node54</title>
<path fill="none" stroke="#404040" d="M305.8,-519.27C294.04,-489.28 277.13,-446.2 261.29,-405.82"/>
<polygon fill="none" stroke="#404040" points="261.24,-405.69 255.32,-401.56 256.85,-394.52 262.77,-398.64 261.24,-405.69"/>
<text text-anchor="middle" x="289" y="-427" font-family="Helvetica,sans-Serif" font-size="10.00"> #_par</text>
</g>
<!-- Node60&#45;&gt;Node54 -->
<g id="edge7" class="edge">
<title>Node60&#45;&gt;Node54</title>
<path fill="none" stroke="orange" d="M96.27,-454.04C97.79,-439.91 100.8,-425.86 106,-413 117.46,-384.65 139.32,-359.23 160.72,-339.34"/>
<polygon fill="orange" stroke="orange" points="92.76,-454.06 95.42,-464.32 99.74,-454.64 92.76,-454.06"/>
<text text-anchor="start" x="106" y="-438" font-family="Helvetica,sans-Serif" font-size="10.00"> &lt; Chebychev&lt; Order,</text>
<text text-anchor="start" x="106" y="-427" font-family="Helvetica,sans-Serif" font-size="10.00"> ArgType &gt;, Signature,</text>
<text text-anchor="middle" x="155" y="-416" font-family="Helvetica,sans-Serif" font-size="10.00"> Order+1 &gt;</text>
</g>
<!-- Node61 -->
<g id="node9" class="node">
<title>Node61</title>
<polygon fill="none" stroke="#bfbfbf" points="0,-756.5 0,-824.5 128,-824.5 128,-756.5 0,-756.5"/>
<text text-anchor="start" x="8" y="-812.5" font-family="Helvetica,sans-Serif" font-size="10.00">BaseFunctor&lt; Functor,</text>
<text text-anchor="middle" x="64" y="-801.5" font-family="Helvetica,sans-Serif" font-size="10.00"> Signature, NPARAM &gt; &amp;</text>
<polyline fill="none" stroke="#bfbfbf" points="0,-794.5 128,-794.5 "/>
<text text-anchor="middle" x="64" y="-782.5" font-family="Helvetica,sans-Serif" font-size="10.00"> </text>
<polyline fill="none" stroke="#bfbfbf" points="0,-775.5 128,-775.5 "/>
<text text-anchor="middle" x="64" y="-763.5" font-family="Helvetica,sans-Serif" font-size="10.00"> </text>
</g>
<!-- Node61&#45;&gt;Node60 -->
<g id="edge9" class="edge">
<title>Node61&#45;&gt;Node60</title>
<path fill="none" stroke="#404040" d="M69.96,-756.13C74.24,-732.16 80.27,-698.42 86.12,-665.68"/>
<polygon fill="none" stroke="#404040" points="86.15,-665.5 83.27,-658.89 88.26,-653.68 91.15,-660.29 86.15,-665.5"/>
<text text-anchor="middle" x="99" y="-675" font-family="Helvetica,sans-Serif" font-size="10.00"> #_par</text>
</g>
</g>
</svg>
