<?xml version="1.0" encoding="UTF-8" standalone="no"?>
<!DOCTYPE svg PUBLIC "-//W3C//DTD SVG 1.1//EN"
 "http://www.w3.org/Graphics/SVG/1.1/DTD/svg11.dtd">
<!-- Generated by graphviz version 2.38.0 (20140413.2041)
 -->
<!-- Title: hydra::PDFSumNonExtendable&lt; PDF1, PDF2, PDFs &gt; Pages: 1 -->
<svg width="245pt" height="526pt"
 viewBox="0.00 0.00 245.00 526.00" xmlns="http://www.w3.org/2000/svg" xmlns:xlink="http://www.w3.org/1999/xlink">
<g id="graph0" class="graph" transform="scale(1 1) rotate(0) translate(4 522)">
<title>hydra::PDFSumNonExtendable&lt; PDF1, PDF2, PDFs &gt;</title>
<!-- Node47 -->
<g id="node1" class="node"><title>Node47</title>
<polygon fill="#bfbfbf" stroke="black" points="0,-0.5 0,-178.5 154,-178.5 154,-0.5 0,-0.5"/>
<text text-anchor="start" x="8" y="-166.5" font-family="Helvetica,sans-Serif" font-size="10.00">hydra::PDFSumNonExtendable</text>
<text text-anchor="middle" x="77" y="-155.5" font-family="Helvetica,sans-Serif" font-size="10.00">&lt; PDF1, PDF2, PDFs &gt;</text>
<polyline fill="none" stroke="black" points="0,-148.5 154,-148.5 "/>
<text text-anchor="start" x="8" y="-136.5" font-family="Helvetica,sans-Serif" font-size="10.00">+ npdfs</text>
<polyline fill="none" stroke="black" points="0,-129.5 154,-129.5 "/>
<text text-anchor="start" x="8" y="-117.5" font-family="Helvetica,sans-Serif" font-size="10.00">+ PDFSumNonExtendable()</text>
<text text-anchor="start" x="8" y="-106.5" font-family="Helvetica,sans-Serif" font-size="10.00">+ PDFSumNonExtendable()</text>
<text text-anchor="start" x="8" y="-95.5" font-family="Helvetica,sans-Serif" font-size="10.00">+ AddUserParameters()</text>
<text text-anchor="start" x="8" y="-84.5" font-family="Helvetica,sans-Serif" font-size="10.00">+ Coeficient()</text>
<text text-anchor="start" x="8" y="-73.5" font-family="Helvetica,sans-Serif" font-size="10.00">+ GetCoeficient()</text>
<text text-anchor="start" x="8" y="-62.5" font-family="Helvetica,sans-Serif" font-size="10.00">+ GetCoefPartialSum()</text>
<text text-anchor="start" x="8" y="-51.5" font-family="Helvetica,sans-Serif" font-size="10.00">+ GetCoefSum()</text>
<text text-anchor="start" x="8" y="-40.5" font-family="Helvetica,sans-Serif" font-size="10.00">+ GetFunctor()</text>
<text text-anchor="start" x="8" y="-29.5" font-family="Helvetica,sans-Serif" font-size="10.00">+ GetFunctors()</text>
<text text-anchor="start" x="8" y="-18.5" font-family="Helvetica,sans-Serif" font-size="10.00">+ GetPDFs()</text>
<text text-anchor="start" x="8" y="-7.5" font-family="Helvetica,sans-Serif" font-size="10.00">and 7 more...</text>
</g>
<!-- Node48 -->
<g id="node2" class="node"><title>Node48</title>
<g id="a_node2"><a xlink:href="classhydra_1_1detail_1_1AddPdfBase.html" target="_top" xlink:title="{hydra::detail::AddPdfBase\l\&lt; PDF1, PDF2, PDFs... \&gt;\n||}">
<polygon fill="none" stroke="black" points="11,-216.5 11,-284.5 143,-284.5 143,-216.5 11,-216.5"/>
<text text-anchor="start" x="19" y="-272.5" font-family="Helvetica,sans-Serif" font-size="10.00">hydra::detail::AddPdfBase</text>
<text text-anchor="middle" x="77" y="-261.5" font-family="Helvetica,sans-Serif" font-size="10.00">&lt; PDF1, PDF2, PDFs... &gt;</text>
<polyline fill="none" stroke="black" points="11,-254.5 143,-254.5 "/>
<text text-anchor="middle" x="77" y="-242.5" font-family="Helvetica,sans-Serif" font-size="10.00"> </text>
<polyline fill="none" stroke="black" points="11,-235.5 143,-235.5 "/>
<text text-anchor="middle" x="77" y="-223.5" font-family="Helvetica,sans-Serif" font-size="10.00"> </text>
</a>
</g>
</g>
<!-- Node48&#45;&gt;Node47 -->
<g id="edge1" class="edge"><title>Node48&#45;&gt;Node47</title>
<path fill="none" stroke="midnightblue" d="M77,-206.109C77,-197.544 77,-188.269 77,-178.825"/>
<polygon fill="none" stroke="midnightblue" points="73.5001,-206.168 77,-216.168 80.5001,-206.168 73.5001,-206.168"/>
</g>
<!-- Node49 -->
<g id="node3" class="node"><title>Node49</title>
<polygon fill="none" stroke="#bfbfbf" points="13.5,-438.5 13.5,-517.5 166.5,-517.5 166.5,-438.5 13.5,-438.5"/>
<text text-anchor="start" x="21.5" y="-505.5" font-family="Helvetica,sans-Serif" font-size="10.00">std::enable_if&lt; AddPdfChecker</text>
<text text-anchor="start" x="21.5" y="-494.5" font-family="Helvetica,sans-Serif" font-size="10.00">&lt; PDF1, PDF2, PDFs... &gt;::</text>
<text text-anchor="middle" x="90" y="-483.5" font-family="Helvetica,sans-Serif" font-size="10.00">value &gt;</text>
<polyline fill="none" stroke="#bfbfbf" points="13.5,-476.5 166.5,-476.5 "/>
<text text-anchor="middle" x="90" y="-464.5" font-family="Helvetica,sans-Serif" font-size="10.00"> </text>
<polyline fill="none" stroke="#bfbfbf" points="13.5,-457.5 166.5,-457.5 "/>
<text text-anchor="middle" x="90" y="-445.5" font-family="Helvetica,sans-Serif" font-size="10.00"> </text>
</g>
<!-- Node49&#45;&gt;Node48 -->
<g id="edge2" class="edge"><title>Node49&#45;&gt;Node48</title>
<path fill="none" stroke="midnightblue" d="M82.7875,-428.367C81.6726,-419.29 80.6705,-409.87 80,-401 76.9769,-361.006 76.5101,-314.833 76.6151,-284.507"/>
<polygon fill="none" stroke="midnightblue" points="79.3338,-428.952 84.0825,-438.423 86.2764,-428.058 79.3338,-428.952"/>
</g>
<!-- Node50 -->
<g id="node4" class="node"><title>Node50</title>
<g id="a_node4"><a xlink:href="classhydra_1_1detail_1_1AddPdfBase.html" target="_top" xlink:title="{hydra::detail::AddPdfBase\l\&lt; PDF1, PDF2, PDFs \&gt;\n||}">
<polygon fill="none" stroke="black" points="89.5,-332.5 89.5,-400.5 220.5,-400.5 220.5,-332.5 89.5,-332.5"/>
<text text-anchor="start" x="97.5" y="-388.5" font-family="Helvetica,sans-Serif" font-size="10.00">hydra::detail::AddPdfBase</text>
<text text-anchor="middle" x="155" y="-377.5" font-family="Helvetica,sans-Serif" font-size="10.00">&lt; PDF1, PDF2, PDFs &gt;</text>
<polyline fill="none" stroke="black" points="89.5,-370.5 220.5,-370.5 "/>
<text text-anchor="middle" x="155" y="-358.5" font-family="Helvetica,sans-Serif" font-size="10.00"> </text>
<polyline fill="none" stroke="black" points="89.5,-351.5 220.5,-351.5 "/>
<text text-anchor="middle" x="155" y="-339.5" font-family="Helvetica,sans-Serif" font-size="10.00"> </text>
</a>
</g>
</g>
<!-- Node49&#45;&gt;Node50 -->
<g id="edge4" class="edge"><title>Node49&#45;&gt;Node50</title>
<path fill="none" stroke="midnightblue" d="M118.152,-429.575C123.934,-419.835 129.902,-409.78 135.308,-400.674"/>
<polygon fill="none" stroke="midnightblue" points="115.011,-428.009 112.917,-438.394 121.031,-431.582 115.011,-428.009"/>
</g>
<!-- Node50&#45;&gt;Node48 -->
<g id="edge3" class="edge"><title>Node50&#45;&gt;Node48</title>
<path fill="none" stroke="orange" d="M126.548,-323.916C117.697,-310.981 108.064,-296.901 99.664,-284.624"/>
<polygon fill="orange" stroke="orange" points="123.694,-325.943 132.229,-332.22 129.471,-321.991 123.694,-325.943"/>
<text text-anchor="middle" x="177.5" y="-306" font-family="Helvetica,sans-Serif" font-size="10.00"> &lt; PDF1, PDF2, PDFs... &gt;</text>
</g>
</g>
</svg>
