<?xml version="1.0" encoding="UTF-8" standalone="no"?>
<!DOCTYPE svg PUBLIC "-//W3C//DTD SVG 1.1//EN"
 "http://www.w3.org/Graphics/SVG/1.1/DTD/svg11.dtd">
<!-- Generated by graphviz version 5.0.0 (0)
 -->
<!-- Title: hydra::ThreeBodyMassThresholdBackground&lt; ArgType, Signature &gt; Pages: 1 -->
<svg width="410pt" height="1153pt"
 viewBox="0.00 0.00 409.50 1153.00" xmlns="http://www.w3.org/2000/svg" xmlns:xlink="http://www.w3.org/1999/xlink">
<g id="graph0" class="graph" transform="scale(1 1) rotate(0) translate(4 1149)">
<title>hydra::ThreeBodyMassThresholdBackground&lt; ArgType, Signature &gt;</title>
<!-- Node238 -->
<g id="node1" class="node">
<title>Node238</title>
<polygon fill="#bfbfbf" stroke="black" points="119.5,-0.5 119.5,-112.5 316.5,-112.5 316.5,-0.5 119.5,-0.5"/>
<text text-anchor="start" x="127.5" y="-100.5" font-family="Helvetica,sans-Serif" font-size="10.00">hydra::ThreeBodyMassThreshold</text>
<text text-anchor="middle" x="218" y="-89.5" font-family="Helvetica,sans-Serif" font-size="10.00">Background&lt; ArgType, Signature &gt;</text>
<polyline fill="none" stroke="black" points="119.5,-82.5 316.5,-82.5 "/>
<text text-anchor="middle" x="218" y="-70.5" font-family="Helvetica,sans-Serif" font-size="10.00"> </text>
<polyline fill="none" stroke="black" points="119.5,-63.5 316.5,-63.5 "/>
<text text-anchor="start" x="127.5" y="-51.5" font-family="Helvetica,sans-Serif" font-size="10.00">+ ThreeBodyMassThresholdBackground()</text>
<text text-anchor="start" x="127.5" y="-40.5" font-family="Helvetica,sans-Serif" font-size="10.00">+ ThreeBodyMassThresholdBackground()</text>
<text text-anchor="start" x="127.5" y="-29.5" font-family="Helvetica,sans-Serif" font-size="10.00">+ ThreeBodyMassThresholdBackground()</text>
<text text-anchor="start" x="127.5" y="-18.5" font-family="Helvetica,sans-Serif" font-size="10.00">+ Evaluate()</text>
<text text-anchor="start" x="127.5" y="-7.5" font-family="Helvetica,sans-Serif" font-size="10.00">+ operator=()</text>
</g>
<!-- Node239 -->
<g id="node2" class="node">
<title>Node239</title>
<g id="a_node2"><a xlink:href="group__functor.html" target="_top" xlink:title="{hydra::BaseFunctor\l\&lt; ThreeBodyMassThresholdBackground\l\&lt; ArgType \&gt;, Signature, 4 \&gt;\n||+ BaseFunctor()\l+ BaseFunctor()\l+ BaseFunctor()\l+ BaseFunctor()\l+ GetFunctor()\l+ GetNorm()\l+ operator()()\l+ operator()()\l+ operator()()\l+ operator()()\land 6 more...\l}">
<polygon fill="none" stroke="black" points="122.5,-150.5 122.5,-339.5 313.5,-339.5 313.5,-150.5 122.5,-150.5"/>
<text text-anchor="start" x="130.5" y="-327.5" font-family="Helvetica,sans-Serif" font-size="10.00">hydra::BaseFunctor</text>
<text text-anchor="start" x="130.5" y="-316.5" font-family="Helvetica,sans-Serif" font-size="10.00">&lt; ThreeBodyMassThresholdBackground</text>
<text text-anchor="middle" x="218" y="-305.5" font-family="Helvetica,sans-Serif" font-size="10.00">&lt; ArgType &gt;, Signature, 4 &gt;</text>
<polyline fill="none" stroke="black" points="122.5,-298.5 313.5,-298.5 "/>
<text text-anchor="middle" x="218" y="-286.5" font-family="Helvetica,sans-Serif" font-size="10.00"> </text>
<polyline fill="none" stroke="black" points="122.5,-279.5 313.5,-279.5 "/>
<text text-anchor="start" x="130.5" y="-267.5" font-family="Helvetica,sans-Serif" font-size="10.00">+ BaseFunctor()</text>
<text text-anchor="start" x="130.5" y="-256.5" font-family="Helvetica,sans-Serif" font-size="10.00">+ BaseFunctor()</text>
<text text-anchor="start" x="130.5" y="-245.5" font-family="Helvetica,sans-Serif" font-size="10.00">+ BaseFunctor()</text>
<text text-anchor="start" x="130.5" y="-234.5" font-family="Helvetica,sans-Serif" font-size="10.00">+ BaseFunctor()</text>
<text text-anchor="start" x="130.5" y="-223.5" font-family="Helvetica,sans-Serif" font-size="10.00">+ GetFunctor()</text>
<text text-anchor="start" x="130.5" y="-212.5" font-family="Helvetica,sans-Serif" font-size="10.00">+ GetNorm()</text>
<text text-anchor="start" x="130.5" y="-201.5" font-family="Helvetica,sans-Serif" font-size="10.00">+ operator()()</text>
<text text-anchor="start" x="130.5" y="-190.5" font-family="Helvetica,sans-Serif" font-size="10.00">+ operator()()</text>
<text text-anchor="start" x="130.5" y="-179.5" font-family="Helvetica,sans-Serif" font-size="10.00">+ operator()()</text>
<text text-anchor="start" x="130.5" y="-168.5" font-family="Helvetica,sans-Serif" font-size="10.00">+ operator()()</text>
<text text-anchor="start" x="130.5" y="-157.5" font-family="Helvetica,sans-Serif" font-size="10.00">and 6 more...</text>
</a>
</g>
</g>
<!-- Node239&#45;&gt;Node238 -->
<g id="edge1" class="edge">
<title>Node239&#45;&gt;Node238</title>
<path fill="none" stroke="midnightblue" d="M218,-140.44C218,-130.85 218,-121.4 218,-112.52"/>
<polygon fill="none" stroke="midnightblue" points="214.5,-140.48 218,-150.48 221.5,-140.48 214.5,-140.48"/>
</g>
<!-- Node240 -->
<g id="node3" class="node">
<title>Node240</title>
<g id="a_node3"><a xlink:href="classhydra_1_1detail_1_1Parameters.html" target="_top" xlink:title="{hydra::detail::Parameters\l\&lt; NPARAM \&gt;\n||+ Parameters()\l+ Parameters()\l+ Parameters()\l+ Parameters()\l+ Parameters()\l+ AddUserParameters()\l+ GetNumberOfParameters()\l+ GetParameter()\l+ GetParameter()\l+ GetParameters()\land 12 more...\l}">
<polygon fill="none" stroke="black" points="146.5,-646.5 146.5,-824.5 289.5,-824.5 289.5,-646.5 146.5,-646.5"/>
<text text-anchor="start" x="154.5" y="-812.5" font-family="Helvetica,sans-Serif" font-size="10.00">hydra::detail::Parameters</text>
<text text-anchor="middle" x="218" y="-801.5" font-family="Helvetica,sans-Serif" font-size="10.00">&lt; NPARAM &gt;</text>
<polyline fill="none" stroke="black" points="146.5,-794.5 289.5,-794.5 "/>
<text text-anchor="middle" x="218" y="-782.5" font-family="Helvetica,sans-Serif" font-size="10.00"> </text>
<polyline fill="none" stroke="black" points="146.5,-775.5 289.5,-775.5 "/>
<text text-anchor="start" x="154.5" y="-763.5" font-family="Helvetica,sans-Serif" font-size="10.00">+ Parameters()</text>
<text text-anchor="start" x="154.5" y="-752.5" font-family="Helvetica,sans-Serif" font-size="10.00">+ Parameters()</text>
<text text-anchor="start" x="154.5" y="-741.5" font-family="Helvetica,sans-Serif" font-size="10.00">+ Parameters()</text>
<text text-anchor="start" x="154.5" y="-730.5" font-family="Helvetica,sans-Serif" font-size="10.00">+ Parameters()</text>
<text text-anchor="start" x="154.5" y="-719.5" font-family="Helvetica,sans-Serif" font-size="10.00">+ Parameters()</text>
<text text-anchor="start" x="154.5" y="-708.5" font-family="Helvetica,sans-Serif" font-size="10.00">+ AddUserParameters()</text>
<text text-anchor="start" x="154.5" y="-697.5" font-family="Helvetica,sans-Serif" font-size="10.00">+ GetNumberOfParameters()</text>
<text text-anchor="start" x="154.5" y="-686.5" font-family="Helvetica,sans-Serif" font-size="10.00">+ GetParameter()</text>
<text text-anchor="start" x="154.5" y="-675.5" font-family="Helvetica,sans-Serif" font-size="10.00">+ GetParameter()</text>
<text text-anchor="start" x="154.5" y="-664.5" font-family="Helvetica,sans-Serif" font-size="10.00">+ GetParameters()</text>
<text text-anchor="start" x="154.5" y="-653.5" font-family="Helvetica,sans-Serif" font-size="10.00">and 12 more...</text>
</a>
</g>
</g>
<!-- Node240&#45;&gt;Node239 -->
<g id="edge2" class="edge">
<title>Node240&#45;&gt;Node239</title>
<path fill="none" stroke="midnightblue" d="M218,-636.24C218,-549.79 218,-424.81 218,-339.74"/>
<polygon fill="none" stroke="midnightblue" points="214.5,-636.32 218,-646.32 221.5,-636.32 214.5,-636.32"/>
</g>
<!-- Node245 -->
<g id="node8" class="node">
<title>Node245</title>
<g id="a_node8"><a xlink:href="group__functor.html#classhydra_1_1BaseFunctor" target="_top" xlink:title="Base class for all functors in hydra. ">
<polygon fill="none" stroke="black" points="22,-409.5 22,-598.5 130,-598.5 130,-409.5 22,-409.5"/>
<text text-anchor="start" x="30" y="-586.5" font-family="Helvetica,sans-Serif" font-size="10.00">hydra::BaseFunctor</text>
<text text-anchor="start" x="30" y="-575.5" font-family="Helvetica,sans-Serif" font-size="10.00">&lt; Functor, Signature,</text>
<text text-anchor="middle" x="76" y="-564.5" font-family="Helvetica,sans-Serif" font-size="10.00"> NPARAM &gt;</text>
<polyline fill="none" stroke="black" points="22,-557.5 130,-557.5 "/>
<text text-anchor="middle" x="76" y="-545.5" font-family="Helvetica,sans-Serif" font-size="10.00"> </text>
<polyline fill="none" stroke="black" points="22,-538.5 130,-538.5 "/>
<text text-anchor="start" x="30" y="-526.5" font-family="Helvetica,sans-Serif" font-size="10.00">+ BaseFunctor()</text>
<text text-anchor="start" x="30" y="-515.5" font-family="Helvetica,sans-Serif" font-size="10.00">+ BaseFunctor()</text>
<text text-anchor="start" x="30" y="-504.5" font-family="Helvetica,sans-Serif" font-size="10.00">+ BaseFunctor()</text>
<text text-anchor="start" x="30" y="-493.5" font-family="Helvetica,sans-Serif" font-size="10.00">+ BaseFunctor()</text>
<text text-anchor="start" x="30" y="-482.5" font-family="Helvetica,sans-Serif" font-size="10.00">+ GetFunctor()</text>
<text text-anchor="start" x="30" y="-471.5" font-family="Helvetica,sans-Serif" font-size="10.00">+ GetNorm()</text>
<text text-anchor="start" x="30" y="-460.5" font-family="Helvetica,sans-Serif" font-size="10.00">+ operator()()</text>
<text text-anchor="start" x="30" y="-449.5" font-family="Helvetica,sans-Serif" font-size="10.00">+ operator()()</text>
<text text-anchor="start" x="30" y="-438.5" font-family="Helvetica,sans-Serif" font-size="10.00">+ operator()()</text>
<text text-anchor="start" x="30" y="-427.5" font-family="Helvetica,sans-Serif" font-size="10.00">+ operator()()</text>
<text text-anchor="start" x="30" y="-416.5" font-family="Helvetica,sans-Serif" font-size="10.00">and 6 more...</text>
</a>
</g>
</g>
<!-- Node240&#45;&gt;Node245 -->
<g id="edge8" class="edge">
<title>Node240&#45;&gt;Node245</title>
<path fill="none" stroke="midnightblue" d="M158.08,-637.65C148.8,-622.65 139.26,-607.24 130.11,-592.46"/>
<polygon fill="none" stroke="midnightblue" points="155.27,-639.76 163.51,-646.43 161.22,-636.08 155.27,-639.76"/>
</g>
<!-- Node241 -->
<g id="node4" class="node">
<title>Node241</title>
<g id="a_node4"><a xlink:href="namespace_3globalScope_4.html#classstatic_01const_01size__t" target="_top" xlink:title="{static const size_t\n||}">
<polygon fill="none" stroke="black" points="107.5,-927.5 107.5,-984.5 204.5,-984.5 204.5,-927.5 107.5,-927.5"/>
<text text-anchor="middle" x="156" y="-972.5" font-family="Helvetica,sans-Serif" font-size="10.00">static const size_t</text>
<polyline fill="none" stroke="black" points="107.5,-965.5 204.5,-965.5 "/>
<text text-anchor="middle" x="156" y="-953.5" font-family="Helvetica,sans-Serif" font-size="10.00"> </text>
<polyline fill="none" stroke="black" points="107.5,-946.5 204.5,-946.5 "/>
<text text-anchor="middle" x="156" y="-934.5" font-family="Helvetica,sans-Serif" font-size="10.00"> </text>
</a>
</g>
</g>
<!-- Node241&#45;&gt;Node240 -->
<g id="edge3" class="edge">
<title>Node241&#45;&gt;Node240</title>
<path fill="none" stroke="#404040" d="M159.36,-927.5C162.52,-904.61 167.97,-871.32 176,-843 176.64,-840.74 177.31,-838.46 178.01,-836.18"/>
<polygon fill="none" stroke="#404040" points="178.03,-836.09 176.05,-829.16 181.69,-824.66 183.67,-831.6 178.03,-836.09"/>
<text text-anchor="middle" x="217" y="-846" font-family="Helvetica,sans-Serif" font-size="10.00"> +parameter_count</text>
</g>
<!-- Node242 -->
<g id="node5" class="node">
<title>Node242</title>
<g id="a_node5"><a xlink:href="classhydra_1_1detail_1_1Parameters.html" target="_top" xlink:title="{hydra::detail::Parameters\&lt; N \&gt;\n||+ Parameters()\l+ Parameters()\l+ Parameters()\l+ Parameters()\l+ Parameters()\l+ AddUserParameters()\l+ GetNumberOfParameters()\l+ GetParameter()\l+ GetParameter()\l+ GetParameters()\land 12 more...\l}">
<polygon fill="none" stroke="black" points="223,-872.5 223,-1039.5 375,-1039.5 375,-872.5 223,-872.5"/>
<text text-anchor="middle" x="299" y="-1027.5" font-family="Helvetica,sans-Serif" font-size="10.00">hydra::detail::Parameters&lt; N &gt;</text>
<polyline fill="none" stroke="black" points="223,-1020.5 375,-1020.5 "/>
<text text-anchor="middle" x="299" y="-1008.5" font-family="Helvetica,sans-Serif" font-size="10.00"> </text>
<polyline fill="none" stroke="black" points="223,-1001.5 375,-1001.5 "/>
<text text-anchor="start" x="231" y="-989.5" font-family="Helvetica,sans-Serif" font-size="10.00">+ Parameters()</text>
<text text-anchor="start" x="231" y="-978.5" font-family="Helvetica,sans-Serif" font-size="10.00">+ Parameters()</text>
<text text-anchor="start" x="231" y="-967.5" font-family="Helvetica,sans-Serif" font-size="10.00">+ Parameters()</text>
<text text-anchor="start" x="231" y="-956.5" font-family="Helvetica,sans-Serif" font-size="10.00">+ Parameters()</text>
<text text-anchor="start" x="231" y="-945.5" font-family="Helvetica,sans-Serif" font-size="10.00">+ Parameters()</text>
<text text-anchor="start" x="231" y="-934.5" font-family="Helvetica,sans-Serif" font-size="10.00">+ AddUserParameters()</text>
<text text-anchor="start" x="231" y="-923.5" font-family="Helvetica,sans-Serif" font-size="10.00">+ GetNumberOfParameters()</text>
<text text-anchor="start" x="231" y="-912.5" font-family="Helvetica,sans-Serif" font-size="10.00">+ GetParameter()</text>
<text text-anchor="start" x="231" y="-901.5" font-family="Helvetica,sans-Serif" font-size="10.00">+ GetParameter()</text>
<text text-anchor="start" x="231" y="-890.5" font-family="Helvetica,sans-Serif" font-size="10.00">+ GetParameters()</text>
<text text-anchor="start" x="231" y="-879.5" font-family="Helvetica,sans-Serif" font-size="10.00">and 12 more...</text>
</a>
</g>
</g>
<!-- Node242&#45;&gt;Node240 -->
<g id="edge4" class="edge">
<title>Node242&#45;&gt;Node240</title>
<path fill="none" stroke="orange" d="M265.26,-862.64C262.81,-855.99 260.37,-849.39 258,-843 255.77,-836.98 253.46,-830.77 251.13,-824.52"/>
<polygon fill="orange" stroke="orange" points="262.11,-864.22 268.85,-872.4 268.68,-861.81 262.11,-864.22"/>
<text text-anchor="middle" x="293" y="-846" font-family="Helvetica,sans-Serif" font-size="10.00"> &lt; NPARAM &gt;</text>
</g>
<!-- Node243 -->
<g id="node6" class="node">
<title>Node243</title>
<polygon fill="none" stroke="#bfbfbf" points="277.5,-1087.5 277.5,-1144.5 320.5,-1144.5 320.5,-1087.5 277.5,-1087.5"/>
<text text-anchor="middle" x="299" y="-1132.5" font-family="Helvetica,sans-Serif" font-size="10.00">size_t</text>
<polyline fill="none" stroke="#bfbfbf" points="277.5,-1125.5 320.5,-1125.5 "/>
<text text-anchor="middle" x="299" y="-1113.5" font-family="Helvetica,sans-Serif" font-size="10.00"> </text>
<polyline fill="none" stroke="#bfbfbf" points="277.5,-1106.5 320.5,-1106.5 "/>
<text text-anchor="middle" x="299" y="-1094.5" font-family="Helvetica,sans-Serif" font-size="10.00"> </text>
</g>
<!-- Node243&#45;&gt;Node242 -->
<g id="edge5" class="edge">
<title>Node243&#45;&gt;Node242</title>
<path fill="none" stroke="#404040" d="M299,-1087.48C299,-1077.12 299,-1064.67 299,-1051.63"/>
<polygon fill="none" stroke="#404040" points="299,-1051.54 295,-1045.54 299,-1039.54 303,-1045.54 299,-1051.54"/>
<text text-anchor="middle" x="340" y="-1061" font-family="Helvetica,sans-Serif" font-size="10.00"> +parameter_count</text>
</g>
<!-- Node244 -->
<g id="node7" class="node">
<title>Node244</title>
<g id="a_node7"><a xlink:href="namespace_3globalScope_4.html#classBaseFunctor_3_01ThreeBodyMassThresholdBackground_3_01ArgType_01_4_00_01Signature_00_01NPARAM_01_4_01_6" target="_top" xlink:title="{BaseFunctor\&lt; ThreeBodyMass\lThresholdBackground\&lt; ArgType\l \&gt;, Signature, NPARAM \&gt; &amp;\n||}">
<polygon fill="none" stroke="black" points="246.5,-464.5 246.5,-543.5 401.5,-543.5 401.5,-464.5 246.5,-464.5"/>
<text text-anchor="start" x="254.5" y="-531.5" font-family="Helvetica,sans-Serif" font-size="10.00">BaseFunctor&lt; ThreeBodyMass</text>
<text text-anchor="start" x="254.5" y="-520.5" font-family="Helvetica,sans-Serif" font-size="10.00">ThresholdBackground&lt; ArgType</text>
<text text-anchor="middle" x="324" y="-509.5" font-family="Helvetica,sans-Serif" font-size="10.00"> &gt;, Signature, NPARAM &gt; &amp;</text>
<polyline fill="none" stroke="black" points="246.5,-502.5 401.5,-502.5 "/>
<text text-anchor="middle" x="324" y="-490.5" font-family="Helvetica,sans-Serif" font-size="10.00"> </text>
<polyline fill="none" stroke="black" points="246.5,-483.5 401.5,-483.5 "/>
<text text-anchor="middle" x="324" y="-471.5" font-family="Helvetica,sans-Serif" font-size="10.00"> </text>
</a>
</g>
</g>
<!-- Node244&#45;&gt;Node239 -->
<g id="edge6" class="edge">
<title>Node244&#45;&gt;Node239</title>
<path fill="none" stroke="#404040" d="M308.02,-464.25C295.59,-434.13 277.75,-390.86 261.22,-350.79"/>
<polygon fill="none" stroke="#404040" points="261.17,-350.68 255.19,-346.66 256.6,-339.58 262.58,-343.61 261.17,-350.68"/>
<text text-anchor="middle" x="291" y="-372" font-family="Helvetica,sans-Serif" font-size="10.00"> #_par</text>
</g>
<!-- Node245&#45;&gt;Node239 -->
<g id="edge7" class="edge">
<title>Node245&#45;&gt;Node239</title>
<path fill="none" stroke="orange" d="M65.58,-398.93C67.32,-384.7 70.84,-370.66 77,-358 87.4,-336.64 104.06,-318.09 122.33,-302.57"/>
<polygon fill="orange" stroke="orange" points="62.06,-399.02 64.62,-409.3 69.03,-399.67 62.06,-399.02"/>
<text text-anchor="start" x="77" y="-383" font-family="Helvetica,sans-Serif" font-size="10.00"> &lt; ThreeBodyMassThreshold</text>
<text text-anchor="start" x="77" y="-372" font-family="Helvetica,sans-Serif" font-size="10.00">Background&lt; ArgType &gt;,</text>
<text text-anchor="middle" x="140.5" y="-361" font-family="Helvetica,sans-Serif" font-size="10.00"> Signature, 4 &gt;</text>
</g>
<!-- Node246 -->
<g id="node9" class="node">
<title>Node246</title>
<polygon fill="none" stroke="#bfbfbf" points="0,-701.5 0,-769.5 128,-769.5 128,-701.5 0,-701.5"/>
<text text-anchor="start" x="8" y="-757.5" font-family="Helvetica,sans-Serif" font-size="10.00">BaseFunctor&lt; Functor,</text>
<text text-anchor="middle" x="64" y="-746.5" font-family="Helvetica,sans-Serif" font-size="10.00"> Signature, NPARAM &gt; &amp;</text>
<polyline fill="none" stroke="#bfbfbf" points="0,-739.5 128,-739.5 "/>
<text text-anchor="middle" x="64" y="-727.5" font-family="Helvetica,sans-Serif" font-size="10.00"> </text>
<polyline fill="none" stroke="#bfbfbf" points="0,-720.5 128,-720.5 "/>
<text text-anchor="middle" x="64" y="-708.5" font-family="Helvetica,sans-Serif" font-size="10.00"> </text>
</g>
<!-- Node246&#45;&gt;Node245 -->
<g id="edge9" class="edge">
<title>Node246&#45;&gt;Node245</title>
<path fill="none" stroke="#404040" d="M65.74,-701.13C67,-677.16 68.76,-643.42 70.47,-610.68"/>
<polygon fill="none" stroke="#404040" points="70.47,-610.67 66.79,-604.47 71.1,-598.68 74.78,-604.89 70.47,-610.67"/>
<text text-anchor="middle" x="84" y="-620" font-family="Helvetica,sans-Serif" font-size="10.00"> #_par</text>
</g>
</g>
</svg>
