<?xml version="1.0" encoding="UTF-8" standalone="no"?>
<!DOCTYPE svg PUBLIC "-//W3C//DTD SVG 1.1//EN"
 "http://www.w3.org/Graphics/SVG/1.1/DTD/svg11.dtd">
<!-- Generated by graphviz version 2.42.4 (0)
 -->
<!-- Title: hydra::Polynomial&lt; Order, ArgType, Signature &gt; Pages: 1 -->
<!--zoomable 1164 -->
<svg id="main" version="1.1" xmlns="http://www.w3.org/2000/svg" xmlns:xlink="http://www.w3.org/1999/xlink" xml:space="preserve" onload="init(evt)">
<style type="text/css"><![CDATA[
.edge:hover path { stroke: red; }
.edge:hover polygon { stroke: red; fill: red; }
]]></style>
<script type="text/javascript"><![CDATA[
var edges = document.getElementsByTagName('g');
if (edges && edges.length) {
  for (var i=0;i<edges.length;i++) {
    if (edges[i].id.substr(0,4)=='edge') {
      edges[i].setAttribute('class','edge');
    }
  }
}
]]></script>
        <defs>
                <circle id="rim" cx="0" cy="0" r="7"/>
                <circle id="rim2" cx="0" cy="0" r="3.5"/>
                <g id="zoomPlus">
                        <use xlink:href="#rim" fill="#404040">
                                <set attributeName="fill" to="#808080" begin="zoomplus.mouseover" end="zoomplus.mouseout"/>
                        </use>
                        <path d="M-4,0h8M0,-4v8" fill="none" stroke="white" stroke-width="1.5" pointer-events="none"/>
                </g>
                <g id="zoomMin">
                        <use xlink:href="#rim" fill="#404040">
                                <set attributeName="fill" to="#808080" begin="zoomminus.mouseover" end="zoomminus.mouseout"/>
                        </use>
                        <path d="M-4,0h8" fill="none" stroke="white" stroke-width="1.5" pointer-events="none"/>
                </g>
                <g id="dirArrow">
                        <path fill="none" stroke="white" stroke-width="1.5" d="M0,-3.0v7 M-2.5,-0.5L0,-3.0L2.5,-0.5"/>
                </g>
               <g id="resetDef">
                       <use xlink:href="#rim2" fill="#404040">
                               <set attributeName="fill" to="#808080" begin="reset.mouseover" end="reset.mouseout"/>
                       </use>
               </g>
        </defs>

<script type="text/javascript">
var viewWidth = 404;
var viewHeight = 1164;
var sectionId = 'dynsection-35';
</script>
<script xlink:href="svgpan.js"/>
<svg id="graph" class="graph">
<g id="viewport">
<title>hydra::Polynomial&lt; Order, ArgType, Signature &gt;</title>
<!-- Node223 -->
<g id="node1" class="node">
<title>Node223</title>
<polygon fill="#bfbfbf" stroke="black" points="148,-0.5 148,-112.5 288,-112.5 288,-0.5 148,-0.5"/>
<text text-anchor="start" x="156" y="-100.5" font-family="Helvetica,sans-Serif" font-size="10.00">hydra::Polynomial&lt;</text>
<text text-anchor="middle" x="218" y="-89.5" font-family="Helvetica,sans-Serif" font-size="10.00"> Order, ArgType, Signature &gt;</text>
<polyline fill="none" stroke="black" points="148,-82.5 288,-82.5 "/>
<text text-anchor="middle" x="218" y="-70.5" font-family="Helvetica,sans-Serif" font-size="10.00"> </text>
<polyline fill="none" stroke="black" points="148,-63.5 288,-63.5 "/>
<text text-anchor="start" x="156" y="-51.5" font-family="Helvetica,sans-Serif" font-size="10.00">+ Polynomial()</text>
<text text-anchor="start" x="156" y="-40.5" font-family="Helvetica,sans-Serif" font-size="10.00">+ Polynomial()</text>
<text text-anchor="start" x="156" y="-29.5" font-family="Helvetica,sans-Serif" font-size="10.00">+ Polynomial()</text>
<text text-anchor="start" x="156" y="-18.5" font-family="Helvetica,sans-Serif" font-size="10.00">+ Evaluate()</text>
<text text-anchor="start" x="156" y="-7.5" font-family="Helvetica,sans-Serif" font-size="10.00">+ operator=()</text>
</g>
<!-- Node224 -->
<g id="node2" class="node">
<title>Node224</title>
<g id="a_node2"><a xlink:href="group__functor.html" target="_top" xlink:title="{hydra::BaseFunctor\l\&lt; Polynomial\&lt; Order,\l ArgType \&gt;, Signature,\l Order+1 \&gt;\n||+ BaseFunctor()\l+ BaseFunctor()\l+ BaseFunctor()\l+ BaseFunctor()\l+ GetFunctor()\l+ GetNorm()\l+ operator()()\l+ operator()()\l+ operator()()\l+ operator()()\land 6 more...\l}">
<polygon fill="none" stroke="black" points="161,-150.5 161,-350.5 275,-350.5 275,-150.5 161,-150.5"/>
<text text-anchor="start" x="169" y="-338.5" font-family="Helvetica,sans-Serif" font-size="10.00">hydra::BaseFunctor</text>
<text text-anchor="start" x="169" y="-327.5" font-family="Helvetica,sans-Serif" font-size="10.00">&lt; Polynomial&lt; Order,</text>
<text text-anchor="start" x="169" y="-316.5" font-family="Helvetica,sans-Serif" font-size="10.00"> ArgType &gt;, Signature,</text>
<text text-anchor="middle" x="218" y="-305.5" font-family="Helvetica,sans-Serif" font-size="10.00"> Order+1 &gt;</text>
<polyline fill="none" stroke="black" points="161,-298.5 275,-298.5 "/>
<text text-anchor="middle" x="218" y="-286.5" font-family="Helvetica,sans-Serif" font-size="10.00"> </text>
<polyline fill="none" stroke="black" points="161,-279.5 275,-279.5 "/>
<text text-anchor="start" x="169" y="-267.5" font-family="Helvetica,sans-Serif" font-size="10.00">+ BaseFunctor()</text>
<text text-anchor="start" x="169" y="-256.5" font-family="Helvetica,sans-Serif" font-size="10.00">+ BaseFunctor()</text>
<text text-anchor="start" x="169" y="-245.5" font-family="Helvetica,sans-Serif" font-size="10.00">+ BaseFunctor()</text>
<text text-anchor="start" x="169" y="-234.5" font-family="Helvetica,sans-Serif" font-size="10.00">+ BaseFunctor()</text>
<text text-anchor="start" x="169" y="-223.5" font-family="Helvetica,sans-Serif" font-size="10.00">+ GetFunctor()</text>
<text text-anchor="start" x="169" y="-212.5" font-family="Helvetica,sans-Serif" font-size="10.00">+ GetNorm()</text>
<text text-anchor="start" x="169" y="-201.5" font-family="Helvetica,sans-Serif" font-size="10.00">+ operator()()</text>
<text text-anchor="start" x="169" y="-190.5" font-family="Helvetica,sans-Serif" font-size="10.00">+ operator()()</text>
<text text-anchor="start" x="169" y="-179.5" font-family="Helvetica,sans-Serif" font-size="10.00">+ operator()()</text>
<text text-anchor="start" x="169" y="-168.5" font-family="Helvetica,sans-Serif" font-size="10.00">+ operator()()</text>
<text text-anchor="start" x="169" y="-157.5" font-family="Helvetica,sans-Serif" font-size="10.00">and 6 more...</text>
</a>
</g>
</g>
<!-- Node224&#45;&gt;Node223 -->
<g id="edge1" class="edge">
<title>Node224&#45;&gt;Node223</title>
<path fill="none" stroke="midnightblue" d="M218,-140.37C218,-130.78 218,-121.37 218,-112.53"/>
<polygon fill="none" stroke="midnightblue" points="214.5,-140.41 218,-150.41 221.5,-140.41 214.5,-140.41"/>
</g>
<!-- Node225 -->
<g id="node3" class="node">
<title>Node225</title>
<g id="a_node3"><a xlink:href="classhydra_1_1detail_1_1Parameters.html" target="_top" xlink:title="{hydra::detail::Parameters\l\&lt; NPARAM \&gt;\n||+ Parameters()\l+ Parameters()\l+ Parameters()\l+ Parameters()\l+ Parameters()\l+ AddUserParameters()\l+ GetNumberOfParameters()\l+ GetParameter()\l+ GetParameter()\l+ GetParameters()\land 11 more...\l}">
<polygon fill="none" stroke="black" points="146.5,-657.5 146.5,-835.5 289.5,-835.5 289.5,-657.5 146.5,-657.5"/>
<text text-anchor="start" x="154.5" y="-823.5" font-family="Helvetica,sans-Serif" font-size="10.00">hydra::detail::Parameters</text>
<text text-anchor="middle" x="218" y="-812.5" font-family="Helvetica,sans-Serif" font-size="10.00">&lt; NPARAM &gt;</text>
<polyline fill="none" stroke="black" points="146.5,-805.5 289.5,-805.5 "/>
<text text-anchor="middle" x="218" y="-793.5" font-family="Helvetica,sans-Serif" font-size="10.00"> </text>
<polyline fill="none" stroke="black" points="146.5,-786.5 289.5,-786.5 "/>
<text text-anchor="start" x="154.5" y="-774.5" font-family="Helvetica,sans-Serif" font-size="10.00">+ Parameters()</text>
<text text-anchor="start" x="154.5" y="-763.5" font-family="Helvetica,sans-Serif" font-size="10.00">+ Parameters()</text>
<text text-anchor="start" x="154.5" y="-752.5" font-family="Helvetica,sans-Serif" font-size="10.00">+ Parameters()</text>
<text text-anchor="start" x="154.5" y="-741.5" font-family="Helvetica,sans-Serif" font-size="10.00">+ Parameters()</text>
<text text-anchor="start" x="154.5" y="-730.5" font-family="Helvetica,sans-Serif" font-size="10.00">+ Parameters()</text>
<text text-anchor="start" x="154.5" y="-719.5" font-family="Helvetica,sans-Serif" font-size="10.00">+ AddUserParameters()</text>
<text text-anchor="start" x="154.5" y="-708.5" font-family="Helvetica,sans-Serif" font-size="10.00">+ GetNumberOfParameters()</text>
<text text-anchor="start" x="154.5" y="-697.5" font-family="Helvetica,sans-Serif" font-size="10.00">+ GetParameter()</text>
<text text-anchor="start" x="154.5" y="-686.5" font-family="Helvetica,sans-Serif" font-size="10.00">+ GetParameter()</text>
<text text-anchor="start" x="154.5" y="-675.5" font-family="Helvetica,sans-Serif" font-size="10.00">+ GetParameters()</text>
<text text-anchor="start" x="154.5" y="-664.5" font-family="Helvetica,sans-Serif" font-size="10.00">and 11 more...</text>
</a>
</g>
</g>
<!-- Node225&#45;&gt;Node224 -->
<g id="edge2" class="edge">
<title>Node225&#45;&gt;Node224</title>
<path fill="none" stroke="midnightblue" d="M218,-647.44C218,-561.42 218,-436.95 218,-350.62"/>
<polygon fill="none" stroke="midnightblue" points="214.5,-647.47 218,-657.47 221.5,-647.47 214.5,-647.47"/>
</g>
<!-- Node230 -->
<g id="node8" class="node">
<title>Node230</title>
<g id="a_node8"><a xlink:href="group__functor.html#classhydra_1_1BaseFunctor" target="_top" xlink:title="Base class for all functors in hydra. ">
<polygon fill="none" stroke="black" points="51,-420.5 51,-609.5 159,-609.5 159,-420.5 51,-420.5"/>
<text text-anchor="start" x="59" y="-597.5" font-family="Helvetica,sans-Serif" font-size="10.00">hydra::BaseFunctor</text>
<text text-anchor="start" x="59" y="-586.5" font-family="Helvetica,sans-Serif" font-size="10.00">&lt; Functor, Signature,</text>
<text text-anchor="middle" x="105" y="-575.5" font-family="Helvetica,sans-Serif" font-size="10.00"> NPARAM &gt;</text>
<polyline fill="none" stroke="black" points="51,-568.5 159,-568.5 "/>
<text text-anchor="middle" x="105" y="-556.5" font-family="Helvetica,sans-Serif" font-size="10.00"> </text>
<polyline fill="none" stroke="black" points="51,-549.5 159,-549.5 "/>
<text text-anchor="start" x="59" y="-537.5" font-family="Helvetica,sans-Serif" font-size="10.00">+ BaseFunctor()</text>
<text text-anchor="start" x="59" y="-526.5" font-family="Helvetica,sans-Serif" font-size="10.00">+ BaseFunctor()</text>
<text text-anchor="start" x="59" y="-515.5" font-family="Helvetica,sans-Serif" font-size="10.00">+ BaseFunctor()</text>
<text text-anchor="start" x="59" y="-504.5" font-family="Helvetica,sans-Serif" font-size="10.00">+ BaseFunctor()</text>
<text text-anchor="start" x="59" y="-493.5" font-family="Helvetica,sans-Serif" font-size="10.00">+ GetFunctor()</text>
<text text-anchor="start" x="59" y="-482.5" font-family="Helvetica,sans-Serif" font-size="10.00">+ GetNorm()</text>
<text text-anchor="start" x="59" y="-471.5" font-family="Helvetica,sans-Serif" font-size="10.00">+ operator()()</text>
<text text-anchor="start" x="59" y="-460.5" font-family="Helvetica,sans-Serif" font-size="10.00">+ operator()()</text>
<text text-anchor="start" x="59" y="-449.5" font-family="Helvetica,sans-Serif" font-size="10.00">+ operator()()</text>
<text text-anchor="start" x="59" y="-438.5" font-family="Helvetica,sans-Serif" font-size="10.00">+ operator()()</text>
<text text-anchor="start" x="59" y="-427.5" font-family="Helvetica,sans-Serif" font-size="10.00">and 6 more...</text>
</a>
</g>
</g>
<!-- Node225&#45;&gt;Node230 -->
<g id="edge8" class="edge">
<title>Node225&#45;&gt;Node230</title>
<path fill="none" stroke="midnightblue" d="M170.08,-648.17C163.78,-635.38 157.33,-622.28 151.06,-609.55"/>
<polygon fill="none" stroke="midnightblue" points="167.08,-650 174.63,-657.43 173.36,-646.91 167.08,-650"/>
</g>
<!-- Node226 -->
<g id="node4" class="node">
<title>Node226</title>
<g id="a_node4"><a xlink:href="namespace_3globalScope_4.html#classstatic_01const_01size__t" target="_top" xlink:title="{static const size_t\n||}">
<polygon fill="none" stroke="black" points="107.5,-938.5 107.5,-995.5 204.5,-995.5 204.5,-938.5 107.5,-938.5"/>
<text text-anchor="middle" x="156" y="-983.5" font-family="Helvetica,sans-Serif" font-size="10.00">static const size_t</text>
<polyline fill="none" stroke="black" points="107.5,-976.5 204.5,-976.5 "/>
<text text-anchor="middle" x="156" y="-964.5" font-family="Helvetica,sans-Serif" font-size="10.00"> </text>
<polyline fill="none" stroke="black" points="107.5,-957.5 204.5,-957.5 "/>
<text text-anchor="middle" x="156" y="-945.5" font-family="Helvetica,sans-Serif" font-size="10.00"> </text>
</a>
</g>
</g>
<!-- Node226&#45;&gt;Node225 -->
<g id="edge3" class="edge">
<title>Node226&#45;&gt;Node225</title>
<path fill="none" stroke="#404040" d="M159.36,-938.5C162.52,-915.61 167.97,-882.32 176,-854 176.64,-851.74 177.31,-849.46 178.01,-847.18"/>
<polygon fill="none" stroke="#404040" points="178.03,-847.09 176.05,-840.16 181.69,-835.66 183.67,-842.6 178.03,-847.09"/>
<text text-anchor="middle" x="217" y="-857" font-family="Helvetica,sans-Serif" font-size="10.00"> +parameter_count</text>
</g>
<!-- Node227 -->
<g id="node5" class="node">
<title>Node227</title>
<g id="a_node5"><a xlink:href="classhydra_1_1detail_1_1Parameters.html" target="_top" xlink:title="{hydra::detail::Parameters\&lt; N \&gt;\n||+ Parameters()\l+ Parameters()\l+ Parameters()\l+ Parameters()\l+ Parameters()\l+ AddUserParameters()\l+ GetNumberOfParameters()\l+ GetParameter()\l+ GetParameter()\l+ GetParameters()\land 11 more...\l}">
<polygon fill="none" stroke="black" points="223,-883.5 223,-1050.5 375,-1050.5 375,-883.5 223,-883.5"/>
<text text-anchor="middle" x="299" y="-1038.5" font-family="Helvetica,sans-Serif" font-size="10.00">hydra::detail::Parameters&lt; N &gt;</text>
<polyline fill="none" stroke="black" points="223,-1031.5 375,-1031.5 "/>
<text text-anchor="middle" x="299" y="-1019.5" font-family="Helvetica,sans-Serif" font-size="10.00"> </text>
<polyline fill="none" stroke="black" points="223,-1012.5 375,-1012.5 "/>
<text text-anchor="start" x="231" y="-1000.5" font-family="Helvetica,sans-Serif" font-size="10.00">+ Parameters()</text>
<text text-anchor="start" x="231" y="-989.5" font-family="Helvetica,sans-Serif" font-size="10.00">+ Parameters()</text>
<text text-anchor="start" x="231" y="-978.5" font-family="Helvetica,sans-Serif" font-size="10.00">+ Parameters()</text>
<text text-anchor="start" x="231" y="-967.5" font-family="Helvetica,sans-Serif" font-size="10.00">+ Parameters()</text>
<text text-anchor="start" x="231" y="-956.5" font-family="Helvetica,sans-Serif" font-size="10.00">+ Parameters()</text>
<text text-anchor="start" x="231" y="-945.5" font-family="Helvetica,sans-Serif" font-size="10.00">+ AddUserParameters()</text>
<text text-anchor="start" x="231" y="-934.5" font-family="Helvetica,sans-Serif" font-size="10.00">+ GetNumberOfParameters()</text>
<text text-anchor="start" x="231" y="-923.5" font-family="Helvetica,sans-Serif" font-size="10.00">+ GetParameter()</text>
<text text-anchor="start" x="231" y="-912.5" font-family="Helvetica,sans-Serif" font-size="10.00">+ GetParameter()</text>
<text text-anchor="start" x="231" y="-901.5" font-family="Helvetica,sans-Serif" font-size="10.00">+ GetParameters()</text>
<text text-anchor="start" x="231" y="-890.5" font-family="Helvetica,sans-Serif" font-size="10.00">and 11 more...</text>
</a>
</g>
</g>
<!-- Node227&#45;&gt;Node225 -->
<g id="edge4" class="edge">
<title>Node227&#45;&gt;Node225</title>
<path fill="none" stroke="orange" d="M265.26,-873.64C262.81,-866.99 260.37,-860.39 258,-854 255.77,-847.98 253.46,-841.77 251.13,-835.52"/>
<polygon fill="orange" stroke="orange" points="262.11,-875.22 268.85,-883.4 268.68,-872.81 262.11,-875.22"/>
<text text-anchor="middle" x="293" y="-857" font-family="Helvetica,sans-Serif" font-size="10.00"> &lt; NPARAM &gt;</text>
</g>
<!-- Node228 -->
<g id="node6" class="node">
<title>Node228</title>
<polygon fill="none" stroke="#bfbfbf" points="277.5,-1098.5 277.5,-1155.5 320.5,-1155.5 320.5,-1098.5 277.5,-1098.5"/>
<text text-anchor="middle" x="299" y="-1143.5" font-family="Helvetica,sans-Serif" font-size="10.00">size_t</text>
<polyline fill="none" stroke="#bfbfbf" points="277.5,-1136.5 320.5,-1136.5 "/>
<text text-anchor="middle" x="299" y="-1124.5" font-family="Helvetica,sans-Serif" font-size="10.00"> </text>
<polyline fill="none" stroke="#bfbfbf" points="277.5,-1117.5 320.5,-1117.5 "/>
<text text-anchor="middle" x="299" y="-1105.5" font-family="Helvetica,sans-Serif" font-size="10.00"> </text>
</g>
<!-- Node228&#45;&gt;Node227 -->
<g id="edge5" class="edge">
<title>Node228&#45;&gt;Node227</title>
<path fill="none" stroke="#404040" d="M299,-1098.48C299,-1088.12 299,-1075.67 299,-1062.63"/>
<polygon fill="none" stroke="#404040" points="299,-1062.54 295,-1056.54 299,-1050.54 303,-1056.54 299,-1062.54"/>
<text text-anchor="middle" x="340" y="-1072" font-family="Helvetica,sans-Serif" font-size="10.00"> +parameter_count</text>
</g>
<!-- Node229 -->
<g id="node7" class="node">
<title>Node229</title>
<g id="a_node7"><a xlink:href="namespace_3globalScope_4.html#classBaseFunctor_3_01Polynomial_3_01Order_00_01ArgType_01_4_00_01Signature_00_01NPARAM_01_4_01_6" target="_top" xlink:title="{BaseFunctor\&lt; Polynomial\l\&lt; Order, ArgType \&gt;, Signature,\l NPARAM \&gt; &amp;\n||}">
<polygon fill="none" stroke="black" points="246.5,-475.5 246.5,-554.5 395.5,-554.5 395.5,-475.5 246.5,-475.5"/>
<text text-anchor="start" x="254.5" y="-542.5" font-family="Helvetica,sans-Serif" font-size="10.00">BaseFunctor&lt; Polynomial</text>
<text text-anchor="start" x="254.5" y="-531.5" font-family="Helvetica,sans-Serif" font-size="10.00">&lt; Order, ArgType &gt;, Signature,</text>
<text text-anchor="middle" x="321" y="-520.5" font-family="Helvetica,sans-Serif" font-size="10.00"> NPARAM &gt; &amp;</text>
<polyline fill="none" stroke="black" points="246.5,-513.5 395.5,-513.5 "/>
<text text-anchor="middle" x="321" y="-501.5" font-family="Helvetica,sans-Serif" font-size="10.00"> </text>
<polyline fill="none" stroke="black" points="246.5,-494.5 395.5,-494.5 "/>
<text text-anchor="middle" x="321" y="-482.5" font-family="Helvetica,sans-Serif" font-size="10.00"> </text>
</a>
</g>
</g>
<!-- Node229&#45;&gt;Node224 -->
<g id="edge6" class="edge">
<title>Node229&#45;&gt;Node224</title>
<path fill="none" stroke="#404040" d="M305.8,-475.27C294.04,-445.28 277.13,-402.2 261.29,-361.82"/>
<polygon fill="none" stroke="#404040" points="261.24,-361.69 255.32,-357.56 256.85,-350.52 262.77,-354.64 261.24,-361.69"/>
<text text-anchor="middle" x="289" y="-383" font-family="Helvetica,sans-Serif" font-size="10.00"> #_par</text>
</g>
<!-- Node230&#45;&gt;Node224 -->
<g id="edge7" class="edge">
<title>Node230&#45;&gt;Node224</title>
<path fill="none" stroke="orange" d="M96.27,-410.04C97.79,-395.91 100.8,-381.86 106,-369 117.46,-340.65 139.32,-315.23 160.72,-295.34"/>
<polygon fill="orange" stroke="orange" points="92.76,-410.06 95.42,-420.32 99.74,-410.64 92.76,-410.06"/>
<text text-anchor="start" x="106" y="-394" font-family="Helvetica,sans-Serif" font-size="10.00"> &lt; Polynomial&lt; Order,</text>
<text text-anchor="start" x="106" y="-383" font-family="Helvetica,sans-Serif" font-size="10.00"> ArgType &gt;, Signature,</text>
<text text-anchor="middle" x="155" y="-372" font-family="Helvetica,sans-Serif" font-size="10.00"> Order+1 &gt;</text>
</g>
<!-- Node231 -->
<g id="node9" class="node">
<title>Node231</title>
<polygon fill="none" stroke="#bfbfbf" points="0,-712.5 0,-780.5 128,-780.5 128,-712.5 0,-712.5"/>
<text text-anchor="start" x="8" y="-768.5" font-family="Helvetica,sans-Serif" font-size="10.00">BaseFunctor&lt; Functor,</text>
<text text-anchor="middle" x="64" y="-757.5" font-family="Helvetica,sans-Serif" font-size="10.00"> Signature, NPARAM &gt; &amp;</text>
<polyline fill="none" stroke="#bfbfbf" points="0,-750.5 128,-750.5 "/>
<text text-anchor="middle" x="64" y="-738.5" font-family="Helvetica,sans-Serif" font-size="10.00"> </text>
<polyline fill="none" stroke="#bfbfbf" points="0,-731.5 128,-731.5 "/>
<text text-anchor="middle" x="64" y="-719.5" font-family="Helvetica,sans-Serif" font-size="10.00"> </text>
</g>
<!-- Node231&#45;&gt;Node230 -->
<g id="edge9" class="edge">
<title>Node231&#45;&gt;Node230</title>
<path fill="none" stroke="#404040" d="M69.96,-712.13C74.24,-688.16 80.27,-654.42 86.12,-621.68"/>
<polygon fill="none" stroke="#404040" points="86.15,-621.5 83.27,-614.89 88.26,-609.68 91.15,-616.29 86.15,-621.5"/>
<text text-anchor="middle" x="99" y="-631" font-family="Helvetica,sans-Serif" font-size="10.00"> #_par</text>
</g>
</g>
</svg>
        <g id="navigator" transform="translate(0 0)" fill="#404254">
                <rect fill="#f2f5e9" fill-opacity="0.5" stroke="#606060" stroke-width=".5" x="0" y="0" width="60" height="60"/>
                <use id="zoomplus" xlink:href="#zoomPlus" x="17" y="9" onmousedown="handleZoom(evt,'in')"/>
                <use id="zoomminus" xlink:href="#zoomMin" x="42" y="9" onmousedown="handleZoom(evt,'out')"/>
                <use id="reset" xlink:href="#resetDef" x="30" y="36" onmousedown="handleReset()"/>
                <g id="arrowUp" xlink:href="#dirArrow" transform="translate(30 24)" onmousedown="handlePan(0,-1)">
                  <use xlink:href="#rim" fill="#404040">
                        <set attributeName="fill" to="#808080" begin="arrowUp.mouseover" end="arrowUp.mouseout"/>
                  </use>
                  <path fill="none" stroke="white" stroke-width="1.5" d="M0,-3.0v7 M-2.5,-0.5L0,-3.0L2.5,-0.5"/>
                </g>
                <g id="arrowRight" xlink:href="#dirArrow" transform="rotate(90) translate(36 -43)" onmousedown="handlePan(1,0)">
                  <use xlink:href="#rim" fill="#404040">
                        <set attributeName="fill" to="#808080" begin="arrowRight.mouseover" end="arrowRight.mouseout"/>
                  </use>
                  <path fill="none" stroke="white" stroke-width="1.5" d="M0,-3.0v7 M-2.5,-0.5L0,-3.0L2.5,-0.5"/>
                </g>
                <g id="arrowDown" xlink:href="#dirArrow" transform="rotate(180) translate(-30 -48)" onmousedown="handlePan(0,1)">
                  <use xlink:href="#rim" fill="#404040">
                        <set attributeName="fill" to="#808080" begin="arrowDown.mouseover" end="arrowDown.mouseout"/>
                  </use>
                  <path fill="none" stroke="white" stroke-width="1.5" d="M0,-3.0v7 M-2.5,-0.5L0,-3.0L2.5,-0.5"/>
                </g>
                <g id="arrowLeft" xlink:href="#dirArrow" transform="rotate(270) translate(-36 17)" onmousedown="handlePan(-1,0)">
                  <use xlink:href="#rim" fill="#404040">
                        <set attributeName="fill" to="#808080" begin="arrowLeft.mouseover" end="arrowLeft.mouseout"/>
                  </use>
                  <path fill="none" stroke="white" stroke-width="1.5" d="M0,-3.0v7 M-2.5,-0.5L0,-3.0L2.5,-0.5"/>
                </g>
        </g>
        <svg viewBox="0 0 15 15" width="100%" height="30px" preserveAspectRatio="xMaxYMin meet">
         <g id="arrow_out" transform="scale(0.3 0.3)">
          <a xlink:href="classhydra_1_1Polynomial__coll__graph_org.svg" target="_base">
           <rect id="button" ry="5" rx="5" y="6" x="6" height="38" width="38"
                fill="#f2f5e9" fill-opacity="0.5" stroke="#606060" stroke-width="1.0"/>
           <path id="arrow"
             d="M 11.500037,31.436501 C 11.940474,20.09759 22.043105,11.32322 32.158766,21.979434 L 37.068811,17.246167 C 37.068811,17.246167 37.088388,32 37.088388,32 L 22.160133,31.978069 C 22.160133,31.978069 26.997745,27.140456 26.997745,27.140456 C 18.528582,18.264221 13.291696,25.230495 11.500037,31.436501 z"
             style="fill:#404040;"/>
          </a>
         </g>
        </svg>
</svg>
