<?xml version="1.0" encoding="UTF-8" standalone="no"?>
<!DOCTYPE svg PUBLIC "-//W3C//DTD SVG 1.1//EN"
 "http://www.w3.org/Graphics/SVG/1.1/DTD/svg11.dtd">
<!-- Generated by graphviz version 5.0.0 (0)
 -->
<!-- Title: hydra::PhaseSpaceWeight&lt; ParticleTypes &gt; Pages: 1 -->
<svg width="422pt" height="1197pt"
 viewBox="0.00 0.00 421.50 1197.00" xmlns="http://www.w3.org/2000/svg" xmlns:xlink="http://www.w3.org/1999/xlink">
<g id="graph0" class="graph" transform="scale(1 1) rotate(0) translate(4 1193)">
<title>hydra::PhaseSpaceWeight&lt; ParticleTypes &gt;</title>
<!-- Node5 -->
<g id="node1" class="node">
<title>Node5</title>
<polygon fill="#bfbfbf" stroke="black" points="152,-0.5 152,-145.5 284,-145.5 284,-0.5 152,-0.5"/>
<text text-anchor="start" x="160" y="-133.5" font-family="Helvetica,sans-Serif" font-size="10.00">hydra::PhaseSpaceWeight</text>
<text text-anchor="middle" x="218" y="-122.5" font-family="Helvetica,sans-Serif" font-size="10.00">&lt; ParticleTypes &gt;</text>
<polyline fill="none" stroke="black" points="152,-115.5 284,-115.5 "/>
<text text-anchor="middle" x="218" y="-103.5" font-family="Helvetica,sans-Serif" font-size="10.00"> </text>
<polyline fill="none" stroke="black" points="152,-96.5 284,-96.5 "/>
<text text-anchor="start" x="160" y="-84.5" font-family="Helvetica,sans-Serif" font-size="10.00">+ PhaseSpaceWeight()</text>
<text text-anchor="start" x="160" y="-73.5" font-family="Helvetica,sans-Serif" font-size="10.00">+ PhaseSpaceWeight()</text>
<text text-anchor="start" x="160" y="-62.5" font-family="Helvetica,sans-Serif" font-size="10.00">+ PhaseSpaceWeight()</text>
<text text-anchor="start" x="160" y="-51.5" font-family="Helvetica,sans-Serif" font-size="10.00">+ PhaseSpaceWeight()</text>
<text text-anchor="start" x="160" y="-40.5" font-family="Helvetica,sans-Serif" font-size="10.00">+ Evaluate()</text>
<text text-anchor="start" x="160" y="-29.5" font-family="Helvetica,sans-Serif" font-size="10.00">+ GetMasses()</text>
<text text-anchor="start" x="160" y="-18.5" font-family="Helvetica,sans-Serif" font-size="10.00">+ GetMaxWeight()</text>
<text text-anchor="start" x="160" y="-7.5" font-family="Helvetica,sans-Serif" font-size="10.00">+ operator=()</text>
</g>
<!-- Node6 -->
<g id="node2" class="node">
<title>Node6</title>
<g id="a_node2"><a xlink:href="group__functor.html" target="_top" xlink:title="{hydra::BaseFunctor\l\&lt; PhaseSpaceWeight\&lt;\l ParticleTypes... \&gt;,\l double(ParticleTypes...), 0 \&gt;\n||+ BaseFunctor()\l+ BaseFunctor()\l+ BaseFunctor()\l+ BaseFunctor()\l+ GetFunctor()\l+ GetNorm()\l+ operator()()\l+ operator()()\l+ operator()()\l+ operator()()\land 6 more...\l}">
<polygon fill="none" stroke="black" points="146.5,-183.5 146.5,-383.5 289.5,-383.5 289.5,-183.5 146.5,-183.5"/>
<text text-anchor="start" x="154.5" y="-371.5" font-family="Helvetica,sans-Serif" font-size="10.00">hydra::BaseFunctor</text>
<text text-anchor="start" x="154.5" y="-360.5" font-family="Helvetica,sans-Serif" font-size="10.00">&lt; PhaseSpaceWeight&lt;</text>
<text text-anchor="start" x="154.5" y="-349.5" font-family="Helvetica,sans-Serif" font-size="10.00"> ParticleTypes... &gt;,</text>
<text text-anchor="middle" x="218" y="-338.5" font-family="Helvetica,sans-Serif" font-size="10.00"> double(ParticleTypes...), 0 &gt;</text>
<polyline fill="none" stroke="black" points="146.5,-331.5 289.5,-331.5 "/>
<text text-anchor="middle" x="218" y="-319.5" font-family="Helvetica,sans-Serif" font-size="10.00"> </text>
<polyline fill="none" stroke="black" points="146.5,-312.5 289.5,-312.5 "/>
<text text-anchor="start" x="154.5" y="-300.5" font-family="Helvetica,sans-Serif" font-size="10.00">+ BaseFunctor()</text>
<text text-anchor="start" x="154.5" y="-289.5" font-family="Helvetica,sans-Serif" font-size="10.00">+ BaseFunctor()</text>
<text text-anchor="start" x="154.5" y="-278.5" font-family="Helvetica,sans-Serif" font-size="10.00">+ BaseFunctor()</text>
<text text-anchor="start" x="154.5" y="-267.5" font-family="Helvetica,sans-Serif" font-size="10.00">+ BaseFunctor()</text>
<text text-anchor="start" x="154.5" y="-256.5" font-family="Helvetica,sans-Serif" font-size="10.00">+ GetFunctor()</text>
<text text-anchor="start" x="154.5" y="-245.5" font-family="Helvetica,sans-Serif" font-size="10.00">+ GetNorm()</text>
<text text-anchor="start" x="154.5" y="-234.5" font-family="Helvetica,sans-Serif" font-size="10.00">+ operator()()</text>
<text text-anchor="start" x="154.5" y="-223.5" font-family="Helvetica,sans-Serif" font-size="10.00">+ operator()()</text>
<text text-anchor="start" x="154.5" y="-212.5" font-family="Helvetica,sans-Serif" font-size="10.00">+ operator()()</text>
<text text-anchor="start" x="154.5" y="-201.5" font-family="Helvetica,sans-Serif" font-size="10.00">+ operator()()</text>
<text text-anchor="start" x="154.5" y="-190.5" font-family="Helvetica,sans-Serif" font-size="10.00">and 6 more...</text>
</a>
</g>
</g>
<!-- Node6&#45;&gt;Node5 -->
<g id="edge1" class="edge">
<title>Node6&#45;&gt;Node5</title>
<path fill="none" stroke="midnightblue" d="M218,-173.3C218,-163.96 218,-154.68 218,-145.75"/>
<polygon fill="none" stroke="midnightblue" points="214.5,-173.44 218,-183.44 221.5,-173.44 214.5,-173.44"/>
</g>
<!-- Node7 -->
<g id="node3" class="node">
<title>Node7</title>
<g id="a_node3"><a xlink:href="classhydra_1_1detail_1_1Parameters.html" target="_top" xlink:title="{hydra::detail::Parameters\l\&lt; NPARAM \&gt;\n||+ Parameters()\l+ Parameters()\l+ Parameters()\l+ Parameters()\l+ Parameters()\l+ AddUserParameters()\l+ GetNumberOfParameters()\l+ GetParameter()\l+ GetParameter()\l+ GetParameters()\land 12 more...\l}">
<polygon fill="none" stroke="black" points="146.5,-690.5 146.5,-868.5 289.5,-868.5 289.5,-690.5 146.5,-690.5"/>
<text text-anchor="start" x="154.5" y="-856.5" font-family="Helvetica,sans-Serif" font-size="10.00">hydra::detail::Parameters</text>
<text text-anchor="middle" x="218" y="-845.5" font-family="Helvetica,sans-Serif" font-size="10.00">&lt; NPARAM &gt;</text>
<polyline fill="none" stroke="black" points="146.5,-838.5 289.5,-838.5 "/>
<text text-anchor="middle" x="218" y="-826.5" font-family="Helvetica,sans-Serif" font-size="10.00"> </text>
<polyline fill="none" stroke="black" points="146.5,-819.5 289.5,-819.5 "/>
<text text-anchor="start" x="154.5" y="-807.5" font-family="Helvetica,sans-Serif" font-size="10.00">+ Parameters()</text>
<text text-anchor="start" x="154.5" y="-796.5" font-family="Helvetica,sans-Serif" font-size="10.00">+ Parameters()</text>
<text text-anchor="start" x="154.5" y="-785.5" font-family="Helvetica,sans-Serif" font-size="10.00">+ Parameters()</text>
<text text-anchor="start" x="154.5" y="-774.5" font-family="Helvetica,sans-Serif" font-size="10.00">+ Parameters()</text>
<text text-anchor="start" x="154.5" y="-763.5" font-family="Helvetica,sans-Serif" font-size="10.00">+ Parameters()</text>
<text text-anchor="start" x="154.5" y="-752.5" font-family="Helvetica,sans-Serif" font-size="10.00">+ AddUserParameters()</text>
<text text-anchor="start" x="154.5" y="-741.5" font-family="Helvetica,sans-Serif" font-size="10.00">+ GetNumberOfParameters()</text>
<text text-anchor="start" x="154.5" y="-730.5" font-family="Helvetica,sans-Serif" font-size="10.00">+ GetParameter()</text>
<text text-anchor="start" x="154.5" y="-719.5" font-family="Helvetica,sans-Serif" font-size="10.00">+ GetParameter()</text>
<text text-anchor="start" x="154.5" y="-708.5" font-family="Helvetica,sans-Serif" font-size="10.00">+ GetParameters()</text>
<text text-anchor="start" x="154.5" y="-697.5" font-family="Helvetica,sans-Serif" font-size="10.00">and 12 more...</text>
</a>
</g>
</g>
<!-- Node7&#45;&gt;Node6 -->
<g id="edge2" class="edge">
<title>Node7&#45;&gt;Node6</title>
<path fill="none" stroke="midnightblue" d="M218,-680.44C218,-594.42 218,-469.95 218,-383.62"/>
<polygon fill="none" stroke="midnightblue" points="214.5,-680.47 218,-690.47 221.5,-680.47 214.5,-680.47"/>
</g>
<!-- Node12 -->
<g id="node8" class="node">
<title>Node12</title>
<g id="a_node8"><a xlink:href="group__functor.html#classhydra_1_1BaseFunctor" target="_top" xlink:title="Base class for all functors in hydra. ">
<polygon fill="none" stroke="black" points="19,-453.5 19,-642.5 127,-642.5 127,-453.5 19,-453.5"/>
<text text-anchor="start" x="27" y="-630.5" font-family="Helvetica,sans-Serif" font-size="10.00">hydra::BaseFunctor</text>
<text text-anchor="start" x="27" y="-619.5" font-family="Helvetica,sans-Serif" font-size="10.00">&lt; Functor, Signature,</text>
<text text-anchor="middle" x="73" y="-608.5" font-family="Helvetica,sans-Serif" font-size="10.00"> NPARAM &gt;</text>
<polyline fill="none" stroke="black" points="19,-601.5 127,-601.5 "/>
<text text-anchor="middle" x="73" y="-589.5" font-family="Helvetica,sans-Serif" font-size="10.00"> </text>
<polyline fill="none" stroke="black" points="19,-582.5 127,-582.5 "/>
<text text-anchor="start" x="27" y="-570.5" font-family="Helvetica,sans-Serif" font-size="10.00">+ BaseFunctor()</text>
<text text-anchor="start" x="27" y="-559.5" font-family="Helvetica,sans-Serif" font-size="10.00">+ BaseFunctor()</text>
<text text-anchor="start" x="27" y="-548.5" font-family="Helvetica,sans-Serif" font-size="10.00">+ BaseFunctor()</text>
<text text-anchor="start" x="27" y="-537.5" font-family="Helvetica,sans-Serif" font-size="10.00">+ BaseFunctor()</text>
<text text-anchor="start" x="27" y="-526.5" font-family="Helvetica,sans-Serif" font-size="10.00">+ GetFunctor()</text>
<text text-anchor="start" x="27" y="-515.5" font-family="Helvetica,sans-Serif" font-size="10.00">+ GetNorm()</text>
<text text-anchor="start" x="27" y="-504.5" font-family="Helvetica,sans-Serif" font-size="10.00">+ operator()()</text>
<text text-anchor="start" x="27" y="-493.5" font-family="Helvetica,sans-Serif" font-size="10.00">+ operator()()</text>
<text text-anchor="start" x="27" y="-482.5" font-family="Helvetica,sans-Serif" font-size="10.00">+ operator()()</text>
<text text-anchor="start" x="27" y="-471.5" font-family="Helvetica,sans-Serif" font-size="10.00">+ operator()()</text>
<text text-anchor="start" x="27" y="-460.5" font-family="Helvetica,sans-Serif" font-size="10.00">and 6 more...</text>
</a>
</g>
</g>
<!-- Node7&#45;&gt;Node12 -->
<g id="edge8" class="edge">
<title>Node7&#45;&gt;Node12</title>
<path fill="none" stroke="midnightblue" d="M156.89,-681.77C146.98,-666.09 136.79,-649.96 127.06,-634.57"/>
<polygon fill="none" stroke="midnightblue" points="154.05,-683.84 162.35,-690.43 159.97,-680.1 154.05,-683.84"/>
</g>
<!-- Node8 -->
<g id="node4" class="node">
<title>Node8</title>
<g id="a_node4"><a xlink:href="namespace_3globalScope_4.html#classstatic_01const_01size__t" target="_top" xlink:title="{static const size_t\n||}">
<polygon fill="none" stroke="black" points="107.5,-971.5 107.5,-1028.5 204.5,-1028.5 204.5,-971.5 107.5,-971.5"/>
<text text-anchor="middle" x="156" y="-1016.5" font-family="Helvetica,sans-Serif" font-size="10.00">static const size_t</text>
<polyline fill="none" stroke="black" points="107.5,-1009.5 204.5,-1009.5 "/>
<text text-anchor="middle" x="156" y="-997.5" font-family="Helvetica,sans-Serif" font-size="10.00"> </text>
<polyline fill="none" stroke="black" points="107.5,-990.5 204.5,-990.5 "/>
<text text-anchor="middle" x="156" y="-978.5" font-family="Helvetica,sans-Serif" font-size="10.00"> </text>
</a>
</g>
</g>
<!-- Node8&#45;&gt;Node7 -->
<g id="edge3" class="edge">
<title>Node8&#45;&gt;Node7</title>
<path fill="none" stroke="#404040" d="M159.36,-971.5C162.52,-948.61 167.97,-915.32 176,-887 176.64,-884.74 177.31,-882.46 178.01,-880.18"/>
<polygon fill="none" stroke="#404040" points="178.03,-880.09 176.05,-873.16 181.69,-868.66 183.67,-875.6 178.03,-880.09"/>
<text text-anchor="middle" x="217" y="-890" font-family="Helvetica,sans-Serif" font-size="10.00"> +parameter_count</text>
</g>
<!-- Node9 -->
<g id="node5" class="node">
<title>Node9</title>
<g id="a_node5"><a xlink:href="classhydra_1_1detail_1_1Parameters.html" target="_top" xlink:title="{hydra::detail::Parameters\&lt; N \&gt;\n||+ Parameters()\l+ Parameters()\l+ Parameters()\l+ Parameters()\l+ Parameters()\l+ AddUserParameters()\l+ GetNumberOfParameters()\l+ GetParameter()\l+ GetParameter()\l+ GetParameters()\land 12 more...\l}">
<polygon fill="none" stroke="black" points="223,-916.5 223,-1083.5 375,-1083.5 375,-916.5 223,-916.5"/>
<text text-anchor="middle" x="299" y="-1071.5" font-family="Helvetica,sans-Serif" font-size="10.00">hydra::detail::Parameters&lt; N &gt;</text>
<polyline fill="none" stroke="black" points="223,-1064.5 375,-1064.5 "/>
<text text-anchor="middle" x="299" y="-1052.5" font-family="Helvetica,sans-Serif" font-size="10.00"> </text>
<polyline fill="none" stroke="black" points="223,-1045.5 375,-1045.5 "/>
<text text-anchor="start" x="231" y="-1033.5" font-family="Helvetica,sans-Serif" font-size="10.00">+ Parameters()</text>
<text text-anchor="start" x="231" y="-1022.5" font-family="Helvetica,sans-Serif" font-size="10.00">+ Parameters()</text>
<text text-anchor="start" x="231" y="-1011.5" font-family="Helvetica,sans-Serif" font-size="10.00">+ Parameters()</text>
<text text-anchor="start" x="231" y="-1000.5" font-family="Helvetica,sans-Serif" font-size="10.00">+ Parameters()</text>
<text text-anchor="start" x="231" y="-989.5" font-family="Helvetica,sans-Serif" font-size="10.00">+ Parameters()</text>
<text text-anchor="start" x="231" y="-978.5" font-family="Helvetica,sans-Serif" font-size="10.00">+ AddUserParameters()</text>
<text text-anchor="start" x="231" y="-967.5" font-family="Helvetica,sans-Serif" font-size="10.00">+ GetNumberOfParameters()</text>
<text text-anchor="start" x="231" y="-956.5" font-family="Helvetica,sans-Serif" font-size="10.00">+ GetParameter()</text>
<text text-anchor="start" x="231" y="-945.5" font-family="Helvetica,sans-Serif" font-size="10.00">+ GetParameter()</text>
<text text-anchor="start" x="231" y="-934.5" font-family="Helvetica,sans-Serif" font-size="10.00">+ GetParameters()</text>
<text text-anchor="start" x="231" y="-923.5" font-family="Helvetica,sans-Serif" font-size="10.00">and 12 more...</text>
</a>
</g>
</g>
<!-- Node9&#45;&gt;Node7 -->
<g id="edge4" class="edge">
<title>Node9&#45;&gt;Node7</title>
<path fill="none" stroke="orange" d="M265.26,-906.64C262.81,-899.99 260.37,-893.39 258,-887 255.77,-880.98 253.46,-874.77 251.13,-868.52"/>
<polygon fill="orange" stroke="orange" points="262.11,-908.22 268.85,-916.4 268.68,-905.81 262.11,-908.22"/>
<text text-anchor="middle" x="293" y="-890" font-family="Helvetica,sans-Serif" font-size="10.00"> &lt; NPARAM &gt;</text>
</g>
<!-- Node10 -->
<g id="node6" class="node">
<title>Node10</title>
<polygon fill="none" stroke="#bfbfbf" points="277.5,-1131.5 277.5,-1188.5 320.5,-1188.5 320.5,-1131.5 277.5,-1131.5"/>
<text text-anchor="middle" x="299" y="-1176.5" font-family="Helvetica,sans-Serif" font-size="10.00">size_t</text>
<polyline fill="none" stroke="#bfbfbf" points="277.5,-1169.5 320.5,-1169.5 "/>
<text text-anchor="middle" x="299" y="-1157.5" font-family="Helvetica,sans-Serif" font-size="10.00"> </text>
<polyline fill="none" stroke="#bfbfbf" points="277.5,-1150.5 320.5,-1150.5 "/>
<text text-anchor="middle" x="299" y="-1138.5" font-family="Helvetica,sans-Serif" font-size="10.00"> </text>
</g>
<!-- Node10&#45;&gt;Node9 -->
<g id="edge5" class="edge">
<title>Node10&#45;&gt;Node9</title>
<path fill="none" stroke="#404040" d="M299,-1131.48C299,-1121.12 299,-1108.67 299,-1095.63"/>
<polygon fill="none" stroke="#404040" points="299,-1095.54 295,-1089.54 299,-1083.54 303,-1089.54 299,-1095.54"/>
<text text-anchor="middle" x="340" y="-1105" font-family="Helvetica,sans-Serif" font-size="10.00"> +parameter_count</text>
</g>
<!-- Node11 -->
<g id="node7" class="node">
<title>Node11</title>
<g id="a_node7"><a xlink:href="namespace_3globalScope_4.html#classBaseFunctor_3_01PhaseSpaceWeight_3_01ParticleTypes_8_8_8_01_4_00_01double_07ParticleTypes_8_8_8_08_00_01NPARAM_01_4_01_6" target="_top" xlink:title="{BaseFunctor\&lt; PhaseSpaceWeight\l\&lt; ParticleTypes... \&gt;, double\l(ParticleTypes...), NPARAM \&gt; &amp;\n||}">
<polygon fill="none" stroke="black" points="246.5,-508.5 246.5,-587.5 413.5,-587.5 413.5,-508.5 246.5,-508.5"/>
<text text-anchor="start" x="254.5" y="-575.5" font-family="Helvetica,sans-Serif" font-size="10.00">BaseFunctor&lt; PhaseSpaceWeight</text>
<text text-anchor="start" x="254.5" y="-564.5" font-family="Helvetica,sans-Serif" font-size="10.00">&lt; ParticleTypes... &gt;, double</text>
<text text-anchor="middle" x="330" y="-553.5" font-family="Helvetica,sans-Serif" font-size="10.00">(ParticleTypes...), NPARAM &gt; &amp;</text>
<polyline fill="none" stroke="black" points="246.5,-546.5 413.5,-546.5 "/>
<text text-anchor="middle" x="330" y="-534.5" font-family="Helvetica,sans-Serif" font-size="10.00"> </text>
<polyline fill="none" stroke="black" points="246.5,-527.5 413.5,-527.5 "/>
<text text-anchor="middle" x="330" y="-515.5" font-family="Helvetica,sans-Serif" font-size="10.00"> </text>
</a>
</g>
</g>
<!-- Node11&#45;&gt;Node6 -->
<g id="edge6" class="edge">
<title>Node11&#45;&gt;Node6</title>
<path fill="none" stroke="#404040" d="M313.47,-508.27C300.65,-478.22 282.22,-435.01 264.96,-394.56"/>
<polygon fill="none" stroke="#404040" points="264.96,-394.56 258.92,-390.61 260.25,-383.52 266.28,-387.47 264.96,-394.56"/>
<text text-anchor="middle" x="294" y="-416" font-family="Helvetica,sans-Serif" font-size="10.00"> #_par</text>
</g>
<!-- Node12&#45;&gt;Node6 -->
<g id="edge7" class="edge">
<title>Node12&#45;&gt;Node6</title>
<path fill="none" stroke="orange" d="M62.68,-443.42C64.38,-429.04 67.86,-414.82 74,-402 89.4,-369.84 118.34,-343.55 146.25,-324.06"/>
<polygon fill="orange" stroke="orange" points="59.2,-443.11 61.79,-453.38 66.17,-443.74 59.2,-443.11"/>
<text text-anchor="start" x="74" y="-427" font-family="Helvetica,sans-Serif" font-size="10.00"> &lt; PhaseSpaceWeight</text>
<text text-anchor="start" x="74" y="-416" font-family="Helvetica,sans-Serif" font-size="10.00">&lt; ParticleTypes... &gt;</text>
<text text-anchor="middle" x="139" y="-405" font-family="Helvetica,sans-Serif" font-size="10.00">, double(ParticleTypes...), 0 &gt;</text>
</g>
<!-- Node13 -->
<g id="node9" class="node">
<title>Node13</title>
<polygon fill="none" stroke="#bfbfbf" points="0,-745.5 0,-813.5 128,-813.5 128,-745.5 0,-745.5"/>
<text text-anchor="start" x="8" y="-801.5" font-family="Helvetica,sans-Serif" font-size="10.00">BaseFunctor&lt; Functor,</text>
<text text-anchor="middle" x="64" y="-790.5" font-family="Helvetica,sans-Serif" font-size="10.00"> Signature, NPARAM &gt; &amp;</text>
<polyline fill="none" stroke="#bfbfbf" points="0,-783.5 128,-783.5 "/>
<text text-anchor="middle" x="64" y="-771.5" font-family="Helvetica,sans-Serif" font-size="10.00"> </text>
<polyline fill="none" stroke="#bfbfbf" points="0,-764.5 128,-764.5 "/>
<text text-anchor="middle" x="64" y="-752.5" font-family="Helvetica,sans-Serif" font-size="10.00"> </text>
</g>
<!-- Node13&#45;&gt;Node12 -->
<g id="edge9" class="edge">
<title>Node13&#45;&gt;Node12</title>
<path fill="none" stroke="#404040" d="M65.31,-745.13C66.25,-721.16 67.57,-687.42 68.86,-654.68"/>
<polygon fill="none" stroke="#404040" points="68.86,-654.68 65.09,-648.52 69.33,-642.68 73.09,-648.84 68.86,-654.68"/>
<text text-anchor="middle" x="83" y="-664" font-family="Helvetica,sans-Serif" font-size="10.00"> #_par</text>
</g>
</g>
</svg>
