<?xml version="1.0" encoding="UTF-8" standalone="no"?>
<!DOCTYPE svg PUBLIC "-//W3C//DTD SVG 1.1//EN"
 "http://www.w3.org/Graphics/SVG/1.1/DTD/svg11.dtd">
<!-- Generated by graphviz version 2.42.4 (0)
 -->
<!-- Title: hydra::M12PhaseSpaceLineShape&lt; ArgType &gt; Pages: 1 -->
<svg width="410pt" height="1208pt"
 viewBox="0.00 0.00 409.50 1208.00" xmlns="http://www.w3.org/2000/svg" xmlns:xlink="http://www.w3.org/1999/xlink">
<g id="graph0" class="graph" transform="scale(1 1) rotate(0) translate(4 1204)">
<title>hydra::M12PhaseSpaceLineShape&lt; ArgType &gt;</title>
<!-- Node181 -->
<g id="node1" class="node">
<title>Node181</title>
<polygon fill="#bfbfbf" stroke="black" points="142,-0.5 142,-178.5 294,-178.5 294,-0.5 142,-0.5"/>
<text text-anchor="start" x="150" y="-166.5" font-family="Helvetica,sans-Serif" font-size="10.00">hydra::M12PhaseSpaceLine</text>
<text text-anchor="middle" x="218" y="-155.5" font-family="Helvetica,sans-Serif" font-size="10.00">Shape&lt; ArgType &gt;</text>
<polyline fill="none" stroke="black" points="142,-148.5 294,-148.5 "/>
<text text-anchor="middle" x="218" y="-136.5" font-family="Helvetica,sans-Serif" font-size="10.00"> </text>
<polyline fill="none" stroke="black" points="142,-129.5 294,-129.5 "/>
<text text-anchor="start" x="150" y="-117.5" font-family="Helvetica,sans-Serif" font-size="10.00">+ M12PhaseSpaceLineShape()</text>
<text text-anchor="start" x="150" y="-106.5" font-family="Helvetica,sans-Serif" font-size="10.00">+ M12PhaseSpaceLineShape()</text>
<text text-anchor="start" x="150" y="-95.5" font-family="Helvetica,sans-Serif" font-size="10.00">+ M12PhaseSpaceLineShape()</text>
<text text-anchor="start" x="150" y="-84.5" font-family="Helvetica,sans-Serif" font-size="10.00">+ Evaluate()</text>
<text text-anchor="start" x="150" y="-73.5" font-family="Helvetica,sans-Serif" font-size="10.00">+ fDaughter1Mass()</text>
<text text-anchor="start" x="150" y="-62.5" font-family="Helvetica,sans-Serif" font-size="10.00">+ fDaughter2Mass()</text>
<text text-anchor="start" x="150" y="-51.5" font-family="Helvetica,sans-Serif" font-size="10.00">+ fDaughter3Mass()</text>
<text text-anchor="start" x="150" y="-40.5" font-family="Helvetica,sans-Serif" font-size="10.00">+ fMotherMass()</text>
<text text-anchor="start" x="150" y="-29.5" font-family="Helvetica,sans-Serif" font-size="10.00">+ GetDaughter1Mass()</text>
<text text-anchor="start" x="150" y="-18.5" font-family="Helvetica,sans-Serif" font-size="10.00">+ GetDaughter2Mass()</text>
<text text-anchor="start" x="150" y="-7.5" font-family="Helvetica,sans-Serif" font-size="10.00">and 7 more...</text>
</g>
<!-- Node182 -->
<g id="node2" class="node">
<title>Node182</title>
<g id="a_node2"><a xlink:href="group__functor.html" target="_top" xlink:title="{hydra::BaseFunctor\l\&lt; M12PhaseSpaceLineShape\l\&lt; ArgType \&gt;, 0 \&gt;\n||+ BaseFunctor()\l+ BaseFunctor()\l+ BaseFunctor()\l+ BaseFunctor()\l+ GetFunctor()\l+ GetNorm()\l+ operator()()\l+ operator()()\l+ operator()()\l+ operator()()\land 6 more...\l}">
<polygon fill="none" stroke="black" points="145,-216.5 145,-405.5 291,-405.5 291,-216.5 145,-216.5"/>
<text text-anchor="start" x="153" y="-393.5" font-family="Helvetica,sans-Serif" font-size="10.00">hydra::BaseFunctor</text>
<text text-anchor="start" x="153" y="-382.5" font-family="Helvetica,sans-Serif" font-size="10.00">&lt; M12PhaseSpaceLineShape</text>
<text text-anchor="middle" x="218" y="-371.5" font-family="Helvetica,sans-Serif" font-size="10.00">&lt; ArgType &gt;, 0 &gt;</text>
<polyline fill="none" stroke="black" points="145,-364.5 291,-364.5 "/>
<text text-anchor="middle" x="218" y="-352.5" font-family="Helvetica,sans-Serif" font-size="10.00"> </text>
<polyline fill="none" stroke="black" points="145,-345.5 291,-345.5 "/>
<text text-anchor="start" x="153" y="-333.5" font-family="Helvetica,sans-Serif" font-size="10.00">+ BaseFunctor()</text>
<text text-anchor="start" x="153" y="-322.5" font-family="Helvetica,sans-Serif" font-size="10.00">+ BaseFunctor()</text>
<text text-anchor="start" x="153" y="-311.5" font-family="Helvetica,sans-Serif" font-size="10.00">+ BaseFunctor()</text>
<text text-anchor="start" x="153" y="-300.5" font-family="Helvetica,sans-Serif" font-size="10.00">+ BaseFunctor()</text>
<text text-anchor="start" x="153" y="-289.5" font-family="Helvetica,sans-Serif" font-size="10.00">+ GetFunctor()</text>
<text text-anchor="start" x="153" y="-278.5" font-family="Helvetica,sans-Serif" font-size="10.00">+ GetNorm()</text>
<text text-anchor="start" x="153" y="-267.5" font-family="Helvetica,sans-Serif" font-size="10.00">+ operator()()</text>
<text text-anchor="start" x="153" y="-256.5" font-family="Helvetica,sans-Serif" font-size="10.00">+ operator()()</text>
<text text-anchor="start" x="153" y="-245.5" font-family="Helvetica,sans-Serif" font-size="10.00">+ operator()()</text>
<text text-anchor="start" x="153" y="-234.5" font-family="Helvetica,sans-Serif" font-size="10.00">+ operator()()</text>
<text text-anchor="start" x="153" y="-223.5" font-family="Helvetica,sans-Serif" font-size="10.00">and 6 more...</text>
</a>
</g>
</g>
<!-- Node182&#45;&gt;Node181 -->
<g id="edge1" class="edge">
<title>Node182&#45;&gt;Node181</title>
<path fill="none" stroke="midnightblue" d="M218,-206C218,-196.86 218,-187.68 218,-178.69"/>
<polygon fill="none" stroke="midnightblue" points="214.5,-206.28 218,-216.28 221.5,-206.28 214.5,-206.28"/>
</g>
<!-- Node183 -->
<g id="node3" class="node">
<title>Node183</title>
<g id="a_node3"><a xlink:href="classhydra_1_1detail_1_1Parameters.html" target="_top" xlink:title="{hydra::detail::Parameters\l\&lt; NPARAM \&gt;\n||+ Parameters()\l+ Parameters()\l+ Parameters()\l+ Parameters()\l+ Parameters()\l+ AddUserParameters()\l+ GetNumberOfParameters()\l+ GetParameter()\l+ GetParameter()\l+ GetParameters()\land 11 more...\l}">
<polygon fill="none" stroke="black" points="146.5,-701.5 146.5,-879.5 289.5,-879.5 289.5,-701.5 146.5,-701.5"/>
<text text-anchor="start" x="154.5" y="-867.5" font-family="Helvetica,sans-Serif" font-size="10.00">hydra::detail::Parameters</text>
<text text-anchor="middle" x="218" y="-856.5" font-family="Helvetica,sans-Serif" font-size="10.00">&lt; NPARAM &gt;</text>
<polyline fill="none" stroke="black" points="146.5,-849.5 289.5,-849.5 "/>
<text text-anchor="middle" x="218" y="-837.5" font-family="Helvetica,sans-Serif" font-size="10.00"> </text>
<polyline fill="none" stroke="black" points="146.5,-830.5 289.5,-830.5 "/>
<text text-anchor="start" x="154.5" y="-818.5" font-family="Helvetica,sans-Serif" font-size="10.00">+ Parameters()</text>
<text text-anchor="start" x="154.5" y="-807.5" font-family="Helvetica,sans-Serif" font-size="10.00">+ Parameters()</text>
<text text-anchor="start" x="154.5" y="-796.5" font-family="Helvetica,sans-Serif" font-size="10.00">+ Parameters()</text>
<text text-anchor="start" x="154.5" y="-785.5" font-family="Helvetica,sans-Serif" font-size="10.00">+ Parameters()</text>
<text text-anchor="start" x="154.5" y="-774.5" font-family="Helvetica,sans-Serif" font-size="10.00">+ Parameters()</text>
<text text-anchor="start" x="154.5" y="-763.5" font-family="Helvetica,sans-Serif" font-size="10.00">+ AddUserParameters()</text>
<text text-anchor="start" x="154.5" y="-752.5" font-family="Helvetica,sans-Serif" font-size="10.00">+ GetNumberOfParameters()</text>
<text text-anchor="start" x="154.5" y="-741.5" font-family="Helvetica,sans-Serif" font-size="10.00">+ GetParameter()</text>
<text text-anchor="start" x="154.5" y="-730.5" font-family="Helvetica,sans-Serif" font-size="10.00">+ GetParameter()</text>
<text text-anchor="start" x="154.5" y="-719.5" font-family="Helvetica,sans-Serif" font-size="10.00">+ GetParameters()</text>
<text text-anchor="start" x="154.5" y="-708.5" font-family="Helvetica,sans-Serif" font-size="10.00">and 11 more...</text>
</a>
</g>
</g>
<!-- Node183&#45;&gt;Node182 -->
<g id="edge2" class="edge">
<title>Node183&#45;&gt;Node182</title>
<path fill="none" stroke="midnightblue" d="M218,-691.34C218,-607.64 218,-488.15 218,-405.75"/>
<polygon fill="none" stroke="midnightblue" points="214.5,-691.36 218,-701.36 221.5,-691.36 214.5,-691.36"/>
</g>
<!-- Node188 -->
<g id="node8" class="node">
<title>Node188</title>
<g id="a_node8"><a xlink:href="group__functor.html#classhydra_1_1BaseFunctor" target="_top" xlink:title="Base class for all functors in hydra. ">
<polygon fill="none" stroke="black" points="16,-464.5 16,-653.5 124,-653.5 124,-464.5 16,-464.5"/>
<text text-anchor="start" x="24" y="-641.5" font-family="Helvetica,sans-Serif" font-size="10.00">hydra::BaseFunctor</text>
<text text-anchor="start" x="24" y="-630.5" font-family="Helvetica,sans-Serif" font-size="10.00">&lt; Functor, Signature,</text>
<text text-anchor="middle" x="70" y="-619.5" font-family="Helvetica,sans-Serif" font-size="10.00"> NPARAM &gt;</text>
<polyline fill="none" stroke="black" points="16,-612.5 124,-612.5 "/>
<text text-anchor="middle" x="70" y="-600.5" font-family="Helvetica,sans-Serif" font-size="10.00"> </text>
<polyline fill="none" stroke="black" points="16,-593.5 124,-593.5 "/>
<text text-anchor="start" x="24" y="-581.5" font-family="Helvetica,sans-Serif" font-size="10.00">+ BaseFunctor()</text>
<text text-anchor="start" x="24" y="-570.5" font-family="Helvetica,sans-Serif" font-size="10.00">+ BaseFunctor()</text>
<text text-anchor="start" x="24" y="-559.5" font-family="Helvetica,sans-Serif" font-size="10.00">+ BaseFunctor()</text>
<text text-anchor="start" x="24" y="-548.5" font-family="Helvetica,sans-Serif" font-size="10.00">+ BaseFunctor()</text>
<text text-anchor="start" x="24" y="-537.5" font-family="Helvetica,sans-Serif" font-size="10.00">+ GetFunctor()</text>
<text text-anchor="start" x="24" y="-526.5" font-family="Helvetica,sans-Serif" font-size="10.00">+ GetNorm()</text>
<text text-anchor="start" x="24" y="-515.5" font-family="Helvetica,sans-Serif" font-size="10.00">+ operator()()</text>
<text text-anchor="start" x="24" y="-504.5" font-family="Helvetica,sans-Serif" font-size="10.00">+ operator()()</text>
<text text-anchor="start" x="24" y="-493.5" font-family="Helvetica,sans-Serif" font-size="10.00">+ operator()()</text>
<text text-anchor="start" x="24" y="-482.5" font-family="Helvetica,sans-Serif" font-size="10.00">+ operator()()</text>
<text text-anchor="start" x="24" y="-471.5" font-family="Helvetica,sans-Serif" font-size="10.00">and 6 more...</text>
</a>
</g>
</g>
<!-- Node183&#45;&gt;Node188 -->
<g id="edge8" class="edge">
<title>Node183&#45;&gt;Node188</title>
<path fill="none" stroke="midnightblue" d="M155.76,-692.98C145.27,-676.72 134.47,-659.97 124.21,-644.06"/>
<polygon fill="none" stroke="midnightblue" points="152.84,-694.92 161.2,-701.43 158.72,-691.12 152.84,-694.92"/>
</g>
<!-- Node184 -->
<g id="node4" class="node">
<title>Node184</title>
<g id="a_node4"><a xlink:href="namespace_3globalScope_4.html#classstatic_01const_01size__t" target="_top" xlink:title="{static const size_t\n||}">
<polygon fill="none" stroke="black" points="107.5,-982.5 107.5,-1039.5 204.5,-1039.5 204.5,-982.5 107.5,-982.5"/>
<text text-anchor="middle" x="156" y="-1027.5" font-family="Helvetica,sans-Serif" font-size="10.00">static const size_t</text>
<polyline fill="none" stroke="black" points="107.5,-1020.5 204.5,-1020.5 "/>
<text text-anchor="middle" x="156" y="-1008.5" font-family="Helvetica,sans-Serif" font-size="10.00"> </text>
<polyline fill="none" stroke="black" points="107.5,-1001.5 204.5,-1001.5 "/>
<text text-anchor="middle" x="156" y="-989.5" font-family="Helvetica,sans-Serif" font-size="10.00"> </text>
</a>
</g>
</g>
<!-- Node184&#45;&gt;Node183 -->
<g id="edge3" class="edge">
<title>Node184&#45;&gt;Node183</title>
<path fill="none" stroke="#404040" d="M159.36,-982.5C162.52,-959.61 167.97,-926.32 176,-898 176.64,-895.74 177.31,-893.46 178.01,-891.18"/>
<polygon fill="none" stroke="#404040" points="178.03,-891.09 176.05,-884.16 181.69,-879.66 183.67,-886.6 178.03,-891.09"/>
<text text-anchor="middle" x="217" y="-901" font-family="Helvetica,sans-Serif" font-size="10.00"> +parameter_count</text>
</g>
<!-- Node185 -->
<g id="node5" class="node">
<title>Node185</title>
<g id="a_node5"><a xlink:href="classhydra_1_1detail_1_1Parameters.html" target="_top" xlink:title="{hydra::detail::Parameters\&lt; N \&gt;\n||+ Parameters()\l+ Parameters()\l+ Parameters()\l+ Parameters()\l+ Parameters()\l+ AddUserParameters()\l+ GetNumberOfParameters()\l+ GetParameter()\l+ GetParameter()\l+ GetParameters()\land 11 more...\l}">
<polygon fill="none" stroke="black" points="223,-927.5 223,-1094.5 375,-1094.5 375,-927.5 223,-927.5"/>
<text text-anchor="middle" x="299" y="-1082.5" font-family="Helvetica,sans-Serif" font-size="10.00">hydra::detail::Parameters&lt; N &gt;</text>
<polyline fill="none" stroke="black" points="223,-1075.5 375,-1075.5 "/>
<text text-anchor="middle" x="299" y="-1063.5" font-family="Helvetica,sans-Serif" font-size="10.00"> </text>
<polyline fill="none" stroke="black" points="223,-1056.5 375,-1056.5 "/>
<text text-anchor="start" x="231" y="-1044.5" font-family="Helvetica,sans-Serif" font-size="10.00">+ Parameters()</text>
<text text-anchor="start" x="231" y="-1033.5" font-family="Helvetica,sans-Serif" font-size="10.00">+ Parameters()</text>
<text text-anchor="start" x="231" y="-1022.5" font-family="Helvetica,sans-Serif" font-size="10.00">+ Parameters()</text>
<text text-anchor="start" x="231" y="-1011.5" font-family="Helvetica,sans-Serif" font-size="10.00">+ Parameters()</text>
<text text-anchor="start" x="231" y="-1000.5" font-family="Helvetica,sans-Serif" font-size="10.00">+ Parameters()</text>
<text text-anchor="start" x="231" y="-989.5" font-family="Helvetica,sans-Serif" font-size="10.00">+ AddUserParameters()</text>
<text text-anchor="start" x="231" y="-978.5" font-family="Helvetica,sans-Serif" font-size="10.00">+ GetNumberOfParameters()</text>
<text text-anchor="start" x="231" y="-967.5" font-family="Helvetica,sans-Serif" font-size="10.00">+ GetParameter()</text>
<text text-anchor="start" x="231" y="-956.5" font-family="Helvetica,sans-Serif" font-size="10.00">+ GetParameter()</text>
<text text-anchor="start" x="231" y="-945.5" font-family="Helvetica,sans-Serif" font-size="10.00">+ GetParameters()</text>
<text text-anchor="start" x="231" y="-934.5" font-family="Helvetica,sans-Serif" font-size="10.00">and 11 more...</text>
</a>
</g>
</g>
<!-- Node185&#45;&gt;Node183 -->
<g id="edge4" class="edge">
<title>Node185&#45;&gt;Node183</title>
<path fill="none" stroke="orange" d="M265.26,-917.64C262.81,-910.99 260.37,-904.39 258,-898 255.77,-891.98 253.46,-885.77 251.13,-879.52"/>
<polygon fill="orange" stroke="orange" points="262.11,-919.22 268.85,-927.4 268.68,-916.81 262.11,-919.22"/>
<text text-anchor="middle" x="293" y="-901" font-family="Helvetica,sans-Serif" font-size="10.00"> &lt; NPARAM &gt;</text>
</g>
<!-- Node186 -->
<g id="node6" class="node">
<title>Node186</title>
<polygon fill="none" stroke="#bfbfbf" points="277.5,-1142.5 277.5,-1199.5 320.5,-1199.5 320.5,-1142.5 277.5,-1142.5"/>
<text text-anchor="middle" x="299" y="-1187.5" font-family="Helvetica,sans-Serif" font-size="10.00">size_t</text>
<polyline fill="none" stroke="#bfbfbf" points="277.5,-1180.5 320.5,-1180.5 "/>
<text text-anchor="middle" x="299" y="-1168.5" font-family="Helvetica,sans-Serif" font-size="10.00"> </text>
<polyline fill="none" stroke="#bfbfbf" points="277.5,-1161.5 320.5,-1161.5 "/>
<text text-anchor="middle" x="299" y="-1149.5" font-family="Helvetica,sans-Serif" font-size="10.00"> </text>
</g>
<!-- Node186&#45;&gt;Node185 -->
<g id="edge5" class="edge">
<title>Node186&#45;&gt;Node185</title>
<path fill="none" stroke="#404040" d="M299,-1142.48C299,-1132.12 299,-1119.67 299,-1106.63"/>
<polygon fill="none" stroke="#404040" points="299,-1106.54 295,-1100.54 299,-1094.54 303,-1100.54 299,-1106.54"/>
<text text-anchor="middle" x="340" y="-1116" font-family="Helvetica,sans-Serif" font-size="10.00"> +parameter_count</text>
</g>
<!-- Node187 -->
<g id="node7" class="node">
<title>Node187</title>
<g id="a_node7"><a xlink:href="namespace_3globalScope_4.html#classBaseFunctor_3_01M12PhaseSpaceLineShape_3_01ArgType_01_4_00_010_00_01NPARAM_01_4_01_6" target="_top" xlink:title="{BaseFunctor\&lt; M12PhaseSpace\lLineShape\&lt; ArgType \&gt;, 0,\l NPARAM \&gt; &amp;\n||}">
<polygon fill="none" stroke="black" points="246.5,-519.5 246.5,-598.5 401.5,-598.5 401.5,-519.5 246.5,-519.5"/>
<text text-anchor="start" x="254.5" y="-586.5" font-family="Helvetica,sans-Serif" font-size="10.00">BaseFunctor&lt; M12PhaseSpace</text>
<text text-anchor="start" x="254.5" y="-575.5" font-family="Helvetica,sans-Serif" font-size="10.00">LineShape&lt; ArgType &gt;, 0,</text>
<text text-anchor="middle" x="324" y="-564.5" font-family="Helvetica,sans-Serif" font-size="10.00"> NPARAM &gt; &amp;</text>
<polyline fill="none" stroke="black" points="246.5,-557.5 401.5,-557.5 "/>
<text text-anchor="middle" x="324" y="-545.5" font-family="Helvetica,sans-Serif" font-size="10.00"> </text>
<polyline fill="none" stroke="black" points="246.5,-538.5 401.5,-538.5 "/>
<text text-anchor="middle" x="324" y="-526.5" font-family="Helvetica,sans-Serif" font-size="10.00"> </text>
</a>
</g>
</g>
<!-- Node187&#45;&gt;Node182 -->
<g id="edge6" class="edge">
<title>Node187&#45;&gt;Node182</title>
<path fill="none" stroke="#404040" d="M307.32,-519.29C295.43,-491.7 278.85,-453.21 263.19,-416.88"/>
<polygon fill="none" stroke="#404040" points="263.12,-416.7 257.07,-412.78 258.37,-405.68 264.42,-409.61 263.12,-416.7"/>
<text text-anchor="middle" x="288" y="-432.5" font-family="Helvetica,sans-Serif" font-size="10.00"> #_par</text>
</g>
<!-- Node188&#45;&gt;Node182 -->
<g id="edge7" class="edge">
<title>Node188&#45;&gt;Node182</title>
<path fill="none" stroke="orange" d="M61.37,-454.11C63.24,-443.62 66.31,-433.38 71,-424 86.85,-392.29 116.41,-367.09 144.88,-348.68"/>
<polygon fill="orange" stroke="orange" points="57.87,-453.84 59.92,-464.24 64.8,-454.83 57.87,-453.84"/>
<text text-anchor="start" x="71" y="-438" font-family="Helvetica,sans-Serif" font-size="10.00"> &lt; M12PhaseSpaceLineShape</text>
<text text-anchor="middle" x="137.5" y="-427" font-family="Helvetica,sans-Serif" font-size="10.00">&lt; ArgType &gt;, 0 &gt;</text>
</g>
<!-- Node189 -->
<g id="node9" class="node">
<title>Node189</title>
<polygon fill="none" stroke="#bfbfbf" points="0,-756.5 0,-824.5 128,-824.5 128,-756.5 0,-756.5"/>
<text text-anchor="start" x="8" y="-812.5" font-family="Helvetica,sans-Serif" font-size="10.00">BaseFunctor&lt; Functor,</text>
<text text-anchor="middle" x="64" y="-801.5" font-family="Helvetica,sans-Serif" font-size="10.00"> Signature, NPARAM &gt; &amp;</text>
<polyline fill="none" stroke="#bfbfbf" points="0,-794.5 128,-794.5 "/>
<text text-anchor="middle" x="64" y="-782.5" font-family="Helvetica,sans-Serif" font-size="10.00"> </text>
<polyline fill="none" stroke="#bfbfbf" points="0,-775.5 128,-775.5 "/>
<text text-anchor="middle" x="64" y="-763.5" font-family="Helvetica,sans-Serif" font-size="10.00"> </text>
</g>
<!-- Node189&#45;&gt;Node188 -->
<g id="edge9" class="edge">
<title>Node189&#45;&gt;Node188</title>
<path fill="none" stroke="#404040" d="M64.87,-756.13C65.5,-732.16 66.38,-698.42 67.24,-665.68"/>
<polygon fill="none" stroke="#404040" points="67.24,-665.68 63.4,-659.58 67.55,-653.68 71.39,-659.79 67.24,-665.68"/>
<text text-anchor="middle" x="81" y="-675" font-family="Helvetica,sans-Serif" font-size="10.00"> #_par</text>
</g>
</g>
</svg>
