<?xml version="1.0" encoding="UTF-8" standalone="no"?>
<!DOCTYPE svg PUBLIC "-//W3C//DTD SVG 1.1//EN"
 "http://www.w3.org/Graphics/SVG/1.1/DTD/svg11.dtd">
<!-- Generated by graphviz version 2.38.0 (20140413.2041)
 -->
<!-- Title: hydra::GenzMalikRuleBase&lt; T &gt; Pages: 1 -->
<svg width="282pt" height="314pt"
 viewBox="0.00 0.00 282.00 314.00" xmlns="http://www.w3.org/2000/svg" xmlns:xlink="http://www.w3.org/1999/xlink">
<g id="graph0" class="graph" transform="scale(1 1) rotate(0) translate(4 310)">
<title>hydra::GenzMalikRuleBase&lt; T &gt;</title>
<!-- Node0 -->
<g id="node1" class="node"><title>Node0</title>
<polygon fill="#bfbfbf" stroke="black" points="70,-248.5 70,-305.5 230,-305.5 230,-248.5 70,-248.5"/>
<text text-anchor="middle" x="150" y="-293.5" font-family="Helvetica,sans-Serif" font-size="10.00">hydra::GenzMalikRuleBase&lt; T &gt;</text>
<polyline fill="none" stroke="black" points="70,-286.5 230,-286.5 "/>
<text text-anchor="middle" x="150" y="-274.5" font-family="Helvetica,sans-Serif" font-size="10.00"> </text>
<polyline fill="none" stroke="black" points="70,-267.5 230,-267.5 "/>
<text text-anchor="middle" x="150" y="-255.5" font-family="Helvetica,sans-Serif" font-size="10.00"> </text>
</g>
<!-- Node1 -->
<g id="node2" class="node"><title>Node1</title>
<g id="a_node2"><a xlink:href="group__numerical__integration.html#classhydra_1_1GenzMalikRule_3_01DIM_00_01hydra_1_1detail_1_1BackendPolicy_3_01BACKEND_01_4_01_4" target="_top" xlink:title="Class representing Genz&#45;Malik rule. ">
<polygon fill="none" stroke="black" points="0,-0.5 0,-189.5 164,-189.5 164,-0.5 0,-0.5"/>
<text text-anchor="start" x="8" y="-177.5" font-family="Helvetica,sans-Serif" font-size="10.00">hydra::GenzMalikRule</text>
<text text-anchor="start" x="8" y="-166.5" font-family="Helvetica,sans-Serif" font-size="10.00">&lt; DIM, hydra::detail</text>
<text text-anchor="middle" x="82" y="-155.5" font-family="Helvetica,sans-Serif" font-size="10.00">::BackendPolicy&lt; BACKEND &gt; &gt;</text>
<polyline fill="none" stroke="black" points="0,-148.5 164,-148.5 "/>
<text text-anchor="middle" x="82" y="-136.5" font-family="Helvetica,sans-Serif" font-size="10.00"> </text>
<polyline fill="none" stroke="black" points="0,-129.5 164,-129.5 "/>
<text text-anchor="start" x="8" y="-117.5" font-family="Helvetica,sans-Serif" font-size="10.00">+ GenzMalikRule()</text>
<text text-anchor="start" x="8" y="-106.5" font-family="Helvetica,sans-Serif" font-size="10.00">+ GenzMalikRule()</text>
<text text-anchor="start" x="8" y="-95.5" font-family="Helvetica,sans-Serif" font-size="10.00">+ GenzMalikRule()</text>
<text text-anchor="start" x="8" y="-84.5" font-family="Helvetica,sans-Serif" font-size="10.00">+ GetAbscissas()</text>
<text text-anchor="start" x="8" y="-73.5" font-family="Helvetica,sans-Serif" font-size="10.00">+ GetLambda2()</text>
<text text-anchor="start" x="8" y="-62.5" font-family="Helvetica,sans-Serif" font-size="10.00">+ GetLambda3()</text>
<text text-anchor="start" x="8" y="-51.5" font-family="Helvetica,sans-Serif" font-size="10.00">+ GetLambda4()</text>
<text text-anchor="start" x="8" y="-40.5" font-family="Helvetica,sans-Serif" font-size="10.00">+ GetLambda5()</text>
<text text-anchor="start" x="8" y="-29.5" font-family="Helvetica,sans-Serif" font-size="10.00">+ GetRule5Weight1()</text>
<text text-anchor="start" x="8" y="-18.5" font-family="Helvetica,sans-Serif" font-size="10.00">+ GetRule5Weight2()</text>
<text text-anchor="start" x="8" y="-7.5" font-family="Helvetica,sans-Serif" font-size="10.00">and 24 more...</text>
</a>
</g>
</g>
<!-- Node0&#45;&gt;Node1 -->
<g id="edge1" class="edge"><title>Node0&#45;&gt;Node1</title>
<path fill="none" stroke="midnightblue" d="M135.937,-238.774C130.494,-224.367 123.998,-207.172 117.431,-189.787"/>
<polygon fill="none" stroke="midnightblue" points="132.716,-240.152 139.524,-248.269 139.264,-237.678 132.716,-240.152"/>
</g>
<!-- Node2 -->
<g id="node3" class="node"><title>Node2</title>
<g id="a_node3"><a xlink:href="namespacehydra.html#classhydra_1_1GenzMalikRuleBase" target="_top" xlink:title="{hydra::type \&gt;\n||}">
<polygon fill="none" stroke="black" points="182,-66.5 182,-123.5 256,-123.5 256,-66.5 182,-66.5"/>
<text text-anchor="middle" x="219" y="-111.5" font-family="Helvetica,sans-Serif" font-size="10.00">hydra::type &gt;</text>
<polyline fill="none" stroke="black" points="182,-104.5 256,-104.5 "/>
<text text-anchor="middle" x="219" y="-92.5" font-family="Helvetica,sans-Serif" font-size="10.00"> </text>
<polyline fill="none" stroke="black" points="182,-85.5 256,-85.5 "/>
<text text-anchor="middle" x="219" y="-73.5" font-family="Helvetica,sans-Serif" font-size="10.00"> </text>
</a>
</g>
</g>
<!-- Node0&#45;&gt;Node2 -->
<g id="edge2" class="edge"><title>Node0&#45;&gt;Node2</title>
<path fill="none" stroke="orange" d="M164.326,-238.628C177.441,-204.416 196.551,-154.561 208.358,-123.762"/>
<polygon fill="orange" stroke="orange" points="160.941,-237.679 160.63,-248.269 167.478,-240.185 160.941,-237.679"/>
<text text-anchor="start" x="175" y="-222" font-family="Helvetica,sans-Serif" font-size="10.00"> &lt; std::enable_if&lt;(DIM</text>
<text text-anchor="middle" x="224.5" y="-211" font-family="Helvetica,sans-Serif" font-size="10.00"> &gt;1), void &gt;::type &gt;</text>
</g>
</g>
</svg>
