<?xml version="1.0" encoding="UTF-8" standalone="no"?>
<!DOCTYPE svg PUBLIC "-//W3C//DTD SVG 1.1//EN"
 "http://www.w3.org/Graphics/SVG/1.1/DTD/svg11.dtd">
<!-- Generated by graphviz version 2.42.4 (0)
 -->
<!-- Title: hydra::Compose&lt; F0, F1, Fs &gt; Pages: 1 -->
<svg width="278pt" height="668pt"
 viewBox="0.00 0.00 278.00 668.00" xmlns="http://www.w3.org/2000/svg" xmlns:xlink="http://www.w3.org/1999/xlink">
<g id="graph0" class="graph" transform="scale(1 1) rotate(0) translate(4 664)">
<title>hydra::Compose&lt; F0, F1, Fs &gt;</title>
<!-- Node3 -->
<g id="node1" class="node">
<title>Node3</title>
<polygon fill="#bfbfbf" stroke="black" points="15.5,-0.5 15.5,-112.5 127.5,-112.5 127.5,-0.5 15.5,-0.5"/>
<text text-anchor="start" x="23.5" y="-100.5" font-family="Helvetica,sans-Serif" font-size="10.00">hydra::Compose&lt; F0,</text>
<text text-anchor="middle" x="71.5" y="-89.5" font-family="Helvetica,sans-Serif" font-size="10.00"> F1, Fs &gt;</text>
<polyline fill="none" stroke="black" points="15.5,-82.5 127.5,-82.5 "/>
<text text-anchor="middle" x="71.5" y="-70.5" font-family="Helvetica,sans-Serif" font-size="10.00"> </text>
<polyline fill="none" stroke="black" points="15.5,-63.5 127.5,-63.5 "/>
<text text-anchor="start" x="23.5" y="-51.5" font-family="Helvetica,sans-Serif" font-size="10.00">+ Compose()</text>
<text text-anchor="start" x="23.5" y="-40.5" font-family="Helvetica,sans-Serif" font-size="10.00">+ Compose()</text>
<text text-anchor="start" x="23.5" y="-29.5" font-family="Helvetica,sans-Serif" font-size="10.00">+ Compose()</text>
<text text-anchor="start" x="23.5" y="-18.5" font-family="Helvetica,sans-Serif" font-size="10.00">+ operator()()</text>
<text text-anchor="start" x="23.5" y="-7.5" font-family="Helvetica,sans-Serif" font-size="10.00">+ operator=()</text>
</g>
<!-- Node4 -->
<g id="node2" class="node">
<title>Node4</title>
<g id="a_node2"><a xlink:href="classhydra_1_1detail_1_1CompositeBase.html" target="_top" xlink:title="{hydra::detail::Composite\lBase\&lt; F0, F1, Fs... \&gt;\n||+ CompositeBase()\l+ CompositeBase()\l+ CompositeBase()\l+ AddUserParameters()\l+ GetFunctor()\l+ GetFunctors()\l+ GetNorm()\l+ GetNumberOfParameters()\l+ GetParameter()\l+ GetParameter()\land 11 more...\l}">
<polygon fill="none" stroke="black" points="0,-150.5 0,-328.5 143,-328.5 143,-150.5 0,-150.5"/>
<text text-anchor="start" x="8" y="-316.5" font-family="Helvetica,sans-Serif" font-size="10.00">hydra::detail::Composite</text>
<text text-anchor="middle" x="71.5" y="-305.5" font-family="Helvetica,sans-Serif" font-size="10.00">Base&lt; F0, F1, Fs... &gt;</text>
<polyline fill="none" stroke="black" points="0,-298.5 143,-298.5 "/>
<text text-anchor="middle" x="71.5" y="-286.5" font-family="Helvetica,sans-Serif" font-size="10.00"> </text>
<polyline fill="none" stroke="black" points="0,-279.5 143,-279.5 "/>
<text text-anchor="start" x="8" y="-267.5" font-family="Helvetica,sans-Serif" font-size="10.00">+ CompositeBase()</text>
<text text-anchor="start" x="8" y="-256.5" font-family="Helvetica,sans-Serif" font-size="10.00">+ CompositeBase()</text>
<text text-anchor="start" x="8" y="-245.5" font-family="Helvetica,sans-Serif" font-size="10.00">+ CompositeBase()</text>
<text text-anchor="start" x="8" y="-234.5" font-family="Helvetica,sans-Serif" font-size="10.00">+ AddUserParameters()</text>
<text text-anchor="start" x="8" y="-223.5" font-family="Helvetica,sans-Serif" font-size="10.00">+ GetFunctor()</text>
<text text-anchor="start" x="8" y="-212.5" font-family="Helvetica,sans-Serif" font-size="10.00">+ GetFunctors()</text>
<text text-anchor="start" x="8" y="-201.5" font-family="Helvetica,sans-Serif" font-size="10.00">+ GetNorm()</text>
<text text-anchor="start" x="8" y="-190.5" font-family="Helvetica,sans-Serif" font-size="10.00">+ GetNumberOfParameters()</text>
<text text-anchor="start" x="8" y="-179.5" font-family="Helvetica,sans-Serif" font-size="10.00">+ GetParameter()</text>
<text text-anchor="start" x="8" y="-168.5" font-family="Helvetica,sans-Serif" font-size="10.00">+ GetParameter()</text>
<text text-anchor="start" x="8" y="-157.5" font-family="Helvetica,sans-Serif" font-size="10.00">and 11 more...</text>
</a>
</g>
</g>
<!-- Node4&#45;&gt;Node3 -->
<g id="edge1" class="edge">
<title>Node4&#45;&gt;Node3</title>
<path fill="none" stroke="midnightblue" d="M71.5,-140.15C71.5,-130.73 71.5,-121.44 71.5,-112.66"/>
<polygon fill="none" stroke="midnightblue" points="68,-140.39 71.5,-150.39 75,-140.39 68,-140.39"/>
</g>
<!-- Node5 -->
<g id="node3" class="node">
<title>Node5</title>
<polygon fill="none" stroke="#bfbfbf" points="16.5,-602.5 16.5,-659.5 126.5,-659.5 126.5,-602.5 16.5,-602.5"/>
<text text-anchor="middle" x="71.5" y="-647.5" font-family="Helvetica,sans-Serif" font-size="10.00">tuple&lt; F0, F1, Fs... &gt;</text>
<polyline fill="none" stroke="#bfbfbf" points="16.5,-640.5 126.5,-640.5 "/>
<text text-anchor="middle" x="71.5" y="-628.5" font-family="Helvetica,sans-Serif" font-size="10.00"> </text>
<polyline fill="none" stroke="#bfbfbf" points="16.5,-621.5 126.5,-621.5 "/>
<text text-anchor="middle" x="71.5" y="-609.5" font-family="Helvetica,sans-Serif" font-size="10.00"> </text>
</g>
<!-- Node5&#45;&gt;Node4 -->
<g id="edge2" class="edge">
<title>Node5&#45;&gt;Node4</title>
<path fill="none" stroke="#404040" d="M68.75,-602.25C67.48,-588.12 66.13,-570.66 65.5,-555 62.64,-483.38 64.29,-402.53 66.58,-340.74"/>
<polygon fill="none" stroke="#404040" points="66.58,-340.64 62.81,-334.49 67.04,-328.65 70.81,-334.79 66.58,-340.64"/>
<text text-anchor="middle" x="92" y="-463" font-family="Helvetica,sans-Serif" font-size="10.00"> #fFtorTuple</text>
</g>
<!-- Node6 -->
<g id="node4" class="node">
<title>Node6</title>
<g id="a_node4"><a xlink:href="classhydra_1_1detail_1_1CompositeBase.html" target="_top" xlink:title="{hydra::detail::Composite\lBase\&lt; F0, F1, Fs \&gt;\n||+ CompositeBase()\l+ CompositeBase()\l+ CompositeBase()\l+ AddUserParameters()\l+ GetFunctor()\l+ GetFunctors()\l+ GetNorm()\l+ GetNumberOfParameters()\l+ GetParameter()\l+ GetParameter()\land 11 more...\l}">
<polygon fill="none" stroke="black" points="127,-376.5 127,-554.5 270,-554.5 270,-376.5 127,-376.5"/>
<text text-anchor="start" x="135" y="-542.5" font-family="Helvetica,sans-Serif" font-size="10.00">hydra::detail::Composite</text>
<text text-anchor="middle" x="198.5" y="-531.5" font-family="Helvetica,sans-Serif" font-size="10.00">Base&lt; F0, F1, Fs &gt;</text>
<polyline fill="none" stroke="black" points="127,-524.5 270,-524.5 "/>
<text text-anchor="middle" x="198.5" y="-512.5" font-family="Helvetica,sans-Serif" font-size="10.00"> </text>
<polyline fill="none" stroke="black" points="127,-505.5 270,-505.5 "/>
<text text-anchor="start" x="135" y="-493.5" font-family="Helvetica,sans-Serif" font-size="10.00">+ CompositeBase()</text>
<text text-anchor="start" x="135" y="-482.5" font-family="Helvetica,sans-Serif" font-size="10.00">+ CompositeBase()</text>
<text text-anchor="start" x="135" y="-471.5" font-family="Helvetica,sans-Serif" font-size="10.00">+ CompositeBase()</text>
<text text-anchor="start" x="135" y="-460.5" font-family="Helvetica,sans-Serif" font-size="10.00">+ AddUserParameters()</text>
<text text-anchor="start" x="135" y="-449.5" font-family="Helvetica,sans-Serif" font-size="10.00">+ GetFunctor()</text>
<text text-anchor="start" x="135" y="-438.5" font-family="Helvetica,sans-Serif" font-size="10.00">+ GetFunctors()</text>
<text text-anchor="start" x="135" y="-427.5" font-family="Helvetica,sans-Serif" font-size="10.00">+ GetNorm()</text>
<text text-anchor="start" x="135" y="-416.5" font-family="Helvetica,sans-Serif" font-size="10.00">+ GetNumberOfParameters()</text>
<text text-anchor="start" x="135" y="-405.5" font-family="Helvetica,sans-Serif" font-size="10.00">+ GetParameter()</text>
<text text-anchor="start" x="135" y="-394.5" font-family="Helvetica,sans-Serif" font-size="10.00">+ GetParameter()</text>
<text text-anchor="start" x="135" y="-383.5" font-family="Helvetica,sans-Serif" font-size="10.00">and 11 more...</text>
</a>
</g>
</g>
<!-- Node5&#45;&gt;Node6 -->
<g id="edge4" class="edge">
<title>Node5&#45;&gt;Node6</title>
<path fill="none" stroke="#404040" d="M93.04,-602.26C101.5,-591.38 111.74,-578.19 122.49,-564.36"/>
<polygon fill="none" stroke="#404040" points="122.63,-564.17 123.15,-556.98 129.99,-554.7 129.47,-561.89 122.63,-564.17"/>
<text text-anchor="middle" x="139" y="-576" font-family="Helvetica,sans-Serif" font-size="10.00"> #fFtorTuple</text>
</g>
<!-- Node6&#45;&gt;Node4 -->
<g id="edge3" class="edge">
<title>Node6&#45;&gt;Node4</title>
<path fill="none" stroke="orange" d="M143.46,-367.42C136.15,-354.52 128.68,-341.36 121.47,-328.63"/>
<polygon fill="orange" stroke="orange" points="140.51,-369.32 148.49,-376.29 146.6,-365.87 140.51,-369.32"/>
<text text-anchor="middle" x="172.5" y="-350" font-family="Helvetica,sans-Serif" font-size="10.00"> &lt; F0, F1, Fs... &gt;</text>
</g>
</g>
</svg>
