<?xml version="1.0" encoding="UTF-8" standalone="no"?>
<!DOCTYPE svg PUBLIC "-//W3C//DTD SVG 1.1//EN"
 "http://www.w3.org/Graphics/SVG/1.1/DTD/svg11.dtd">
<!-- Generated by graphviz version 2.38.0 (20140413.2041)
 -->
<!-- Title: hydra::LogLikelihoodFCN&lt; PDFSumExtendable&lt; Pdfs... &gt;, Iterator &gt; Pages: 1 -->
<svg width="190pt" height="365pt"
 viewBox="0.00 0.00 189.50 365.00" xmlns="http://www.w3.org/2000/svg" xmlns:xlink="http://www.w3.org/1999/xlink">
<g id="graph0" class="graph" transform="scale(1 1) rotate(0) translate(4 361)">
<title>hydra::LogLikelihoodFCN&lt; PDFSumExtendable&lt; Pdfs... &gt;, Iterator &gt;</title>
<!-- Node0 -->
<g id="node1" class="node"><title>Node0</title>
<polygon fill="#bfbfbf" stroke="black" points="0,-0.5 0,-112.5 153,-112.5 153,-0.5 0,-0.5"/>
<text text-anchor="start" x="8" y="-100.5" font-family="Helvetica,sans-Serif" font-size="10.00">hydra::LogLikelihoodFCN</text>
<text text-anchor="start" x="8" y="-89.5" font-family="Helvetica,sans-Serif" font-size="10.00">&lt; PDFSumExtendable&lt; Pdfs...</text>
<text text-anchor="middle" x="76.5" y="-78.5" font-family="Helvetica,sans-Serif" font-size="10.00"> &gt;, Iterator &gt;</text>
<polyline fill="none" stroke="black" points="0,-71.5 153,-71.5 "/>
<text text-anchor="middle" x="76.5" y="-59.5" font-family="Helvetica,sans-Serif" font-size="10.00"> </text>
<polyline fill="none" stroke="black" points="0,-52.5 153,-52.5 "/>
<text text-anchor="start" x="8" y="-40.5" font-family="Helvetica,sans-Serif" font-size="10.00">+ LogLikelihoodFCN()</text>
<text text-anchor="start" x="8" y="-29.5" font-family="Helvetica,sans-Serif" font-size="10.00">+ LogLikelihoodFCN()</text>
<text text-anchor="start" x="8" y="-18.5" font-family="Helvetica,sans-Serif" font-size="10.00">+ Eval()</text>
<text text-anchor="start" x="8" y="-7.5" font-family="Helvetica,sans-Serif" font-size="10.00">+ operator=()</text>
</g>
<!-- Node1 -->
<g id="node2" class="node"><title>Node1</title>
<g id="a_node2"><a xlink:href="namespacehydra.html" target="_top" xlink:title="{hydra::FCN\&lt; LogLikelihood\lFCN\&lt; PDFSumExtendable\&lt;\l Pdfs... \&gt;, Iterator \&gt; \&gt;\n||}">
<polygon fill="none" stroke="black" points="5.5,-150.5 5.5,-229.5 147.5,-229.5 147.5,-150.5 5.5,-150.5"/>
<text text-anchor="start" x="13.5" y="-217.5" font-family="Helvetica,sans-Serif" font-size="10.00">hydra::FCN&lt; LogLikelihood</text>
<text text-anchor="start" x="13.5" y="-206.5" font-family="Helvetica,sans-Serif" font-size="10.00">FCN&lt; PDFSumExtendable&lt;</text>
<text text-anchor="middle" x="76.5" y="-195.5" font-family="Helvetica,sans-Serif" font-size="10.00"> Pdfs... &gt;, Iterator &gt; &gt;</text>
<polyline fill="none" stroke="black" points="5.5,-188.5 147.5,-188.5 "/>
<text text-anchor="middle" x="76.5" y="-176.5" font-family="Helvetica,sans-Serif" font-size="10.00"> </text>
<polyline fill="none" stroke="black" points="5.5,-169.5 147.5,-169.5 "/>
<text text-anchor="middle" x="76.5" y="-157.5" font-family="Helvetica,sans-Serif" font-size="10.00"> </text>
</a>
</g>
</g>
<!-- Node1&#45;&gt;Node0 -->
<g id="edge1" class="edge"><title>Node1&#45;&gt;Node0</title>
<path fill="none" stroke="midnightblue" d="M76.5,-139.994C76.5,-131.041 76.5,-121.644 76.5,-112.53"/>
<polygon fill="none" stroke="midnightblue" points="73.0001,-140.257 76.5,-150.257 80.0001,-140.257 73.0001,-140.257"/>
</g>
<!-- Node2 -->
<g id="node3" class="node"><title>Node2</title>
<g id="a_node3"><a xlink:href="namespacehydra.html#classhydra_1_1FCN" target="_top" xlink:title="{hydra::FCN\&lt; T \&gt;\n||}">
<polygon fill="none" stroke="black" points="30.5,-299.5 30.5,-356.5 122.5,-356.5 122.5,-299.5 30.5,-299.5"/>
<text text-anchor="middle" x="76.5" y="-344.5" font-family="Helvetica,sans-Serif" font-size="10.00">hydra::FCN&lt; T &gt;</text>
<polyline fill="none" stroke="black" points="30.5,-337.5 122.5,-337.5 "/>
<text text-anchor="middle" x="76.5" y="-325.5" font-family="Helvetica,sans-Serif" font-size="10.00"> </text>
<polyline fill="none" stroke="black" points="30.5,-318.5 122.5,-318.5 "/>
<text text-anchor="middle" x="76.5" y="-306.5" font-family="Helvetica,sans-Serif" font-size="10.00"> </text>
</a>
</g>
</g>
<!-- Node2&#45;&gt;Node1 -->
<g id="edge2" class="edge"><title>Node2&#45;&gt;Node1</title>
<path fill="none" stroke="orange" d="M76.5,-289.301C76.5,-270.694 76.5,-248.282 76.5,-229.56"/>
<polygon fill="orange" stroke="orange" points="73.0001,-289.478 76.5,-299.478 80.0001,-289.478 73.0001,-289.478"/>
<text text-anchor="start" x="76.5" y="-273" font-family="Helvetica,sans-Serif" font-size="10.00"> &lt; LogLikelihoodFCN</text>
<text text-anchor="start" x="76.5" y="-262" font-family="Helvetica,sans-Serif" font-size="10.00">&lt; PDFSumExtendable&lt;</text>
<text text-anchor="middle" x="129" y="-251" font-family="Helvetica,sans-Serif" font-size="10.00"> Pdfs... &gt;, Iterator &gt; &gt;</text>
</g>
</g>
</svg>
