<?xml version="1.0" encoding="UTF-8" standalone="no"?>
<!DOCTYPE svg PUBLIC "-//W3C//DTD SVG 1.1//EN"
 "http://www.w3.org/Graphics/SVG/1.1/DTD/svg11.dtd">
<!-- Generated by graphviz version 5.0.0 (0)
 -->
<!-- Title: hydra::SPlot&lt; Iterator, PDF1, PDF2, PDFs &gt; Pages: 1 -->
<!--zoomable 526 -->
<svg id="main" version="1.1" xmlns="http://www.w3.org/2000/svg" xmlns:xlink="http://www.w3.org/1999/xlink" xml:space="preserve" onload="init(evt)">
<style type="text/css"><![CDATA[
.edge:hover path { stroke: red; }
.edge:hover polygon { stroke: red; fill: red; }
]]></style>
<script type="text/javascript"><![CDATA[
var edges = document.getElementsByTagName('g');
if (edges && edges.length) {
  for (var i=0;i<edges.length;i++) {
    if (edges[i].id.substr(0,4)=='edge') {
      edges[i].setAttribute('class','edge');
    }
  }
}
]]></script>
        <defs>
                <circle id="rim" cx="0" cy="0" r="7"/>
                <circle id="rim2" cx="0" cy="0" r="3.5"/>
                <g id="zoomPlus">
                        <use xlink:href="#rim" fill="#404040">
                                <set attributeName="fill" to="#808080" begin="zoomplus.mouseover" end="zoomplus.mouseout"/>
                        </use>
                        <path d="M-4,0h8M0,-4v8" fill="none" stroke="white" stroke-width="1.5" pointer-events="none"/>
                </g>
                <g id="zoomMin">
                        <use xlink:href="#rim" fill="#404040">
                                <set attributeName="fill" to="#808080" begin="zoomminus.mouseover" end="zoomminus.mouseout"/>
                        </use>
                        <path d="M-4,0h8" fill="none" stroke="white" stroke-width="1.5" pointer-events="none"/>
                </g>
                <g id="dirArrow">
                        <path fill="none" stroke="white" stroke-width="1.5" d="M0,-3.0v7 M-2.5,-0.5L0,-3.0L2.5,-0.5"/>
                </g>
               <g id="resetDef">
                       <use xlink:href="#rim2" fill="#404040">
                               <set attributeName="fill" to="#808080" begin="reset.mouseover" end="reset.mouseout"/>
                       </use>
               </g>
        </defs>

<script type="text/javascript">
var viewWidth = 248;
var viewHeight = 526;
var sectionId = 'dynsection-15';
</script>
<script xlink:href="svgpan.js"/>
<svg id="graph" class="graph">
<g id="viewport">
<title>hydra::SPlot&lt; Iterator, PDF1, PDF2, PDFs &gt;</title>
<!-- Node42 -->
<g id="node1" class="node">
<title>Node42</title>
<polygon fill="#bfbfbf" stroke="black" points="21.5,-0.5 21.5,-178.5 138.5,-178.5 138.5,-0.5 21.5,-0.5"/>
<text text-anchor="start" x="29.5" y="-166.5" font-family="Helvetica,sans-Serif" font-size="10.00">hydra::SPlot&lt; Iterator,</text>
<text text-anchor="middle" x="80" y="-155.5" font-family="Helvetica,sans-Serif" font-size="10.00"> PDF1, PDF2, PDFs &gt;</text>
<polyline fill="none" stroke="black" points="21.5,-148.5 138.5,-148.5 "/>
<text text-anchor="start" x="29.5" y="-136.5" font-family="Helvetica,sans-Serif" font-size="10.00">+ npdfs</text>
<polyline fill="none" stroke="black" points="21.5,-129.5 138.5,-129.5 "/>
<text text-anchor="start" x="29.5" y="-117.5" font-family="Helvetica,sans-Serif" font-size="10.00">+ SPlot()</text>
<text text-anchor="start" x="29.5" y="-106.5" font-family="Helvetica,sans-Serif" font-size="10.00">+ SPlot()</text>
<text text-anchor="start" x="29.5" y="-95.5" font-family="Helvetica,sans-Serif" font-size="10.00">+ SPlot()</text>
<text text-anchor="start" x="29.5" y="-84.5" font-family="Helvetica,sans-Serif" font-size="10.00">+ begin()</text>
<text text-anchor="start" x="29.5" y="-73.5" font-family="Helvetica,sans-Serif" font-size="10.00">+ begin()</text>
<text text-anchor="start" x="29.5" y="-62.5" font-family="Helvetica,sans-Serif" font-size="10.00">+ data_begin()</text>
<text text-anchor="start" x="29.5" y="-51.5" font-family="Helvetica,sans-Serif" font-size="10.00">+ data_begin()</text>
<text text-anchor="start" x="29.5" y="-40.5" font-family="Helvetica,sans-Serif" font-size="10.00">+ data_end()</text>
<text text-anchor="start" x="29.5" y="-29.5" font-family="Helvetica,sans-Serif" font-size="10.00">+ data_end()</text>
<text text-anchor="start" x="29.5" y="-18.5" font-family="Helvetica,sans-Serif" font-size="10.00">+ end()</text>
<text text-anchor="start" x="29.5" y="-7.5" font-family="Helvetica,sans-Serif" font-size="10.00">and 11 more...</text>
</g>
<!-- Node43 -->
<g id="node2" class="node">
<title>Node43</title>
<g id="a_node2"><a xlink:href="classhydra_1_1detail_1_1AddPdfBase.html" target="_top" xlink:title="{hydra::detail::AddPdfBase\l\&lt; PDF1, PDF2, PDFs... \&gt;\n||}">
<polygon fill="none" stroke="black" points="14,-216.5 14,-284.5 146,-284.5 146,-216.5 14,-216.5"/>
<text text-anchor="start" x="22" y="-272.5" font-family="Helvetica,sans-Serif" font-size="10.00">hydra::detail::AddPdfBase</text>
<text text-anchor="middle" x="80" y="-261.5" font-family="Helvetica,sans-Serif" font-size="10.00">&lt; PDF1, PDF2, PDFs... &gt;</text>
<polyline fill="none" stroke="black" points="14,-254.5 146,-254.5 "/>
<text text-anchor="middle" x="80" y="-242.5" font-family="Helvetica,sans-Serif" font-size="10.00"> </text>
<polyline fill="none" stroke="black" points="14,-235.5 146,-235.5 "/>
<text text-anchor="middle" x="80" y="-223.5" font-family="Helvetica,sans-Serif" font-size="10.00"> </text>
</a>
</g>
</g>
<!-- Node43&#45;&gt;Node42 -->
<g id="edge1" class="edge">
<title>Node43&#45;&gt;Node42</title>
<path fill="none" stroke="midnightblue" d="M80,-206.11C80,-197.54 80,-188.27 80,-178.83"/>
<polygon fill="none" stroke="midnightblue" points="76.5,-206.17 80,-216.17 83.5,-206.17 76.5,-206.17"/>
</g>
<!-- Node44 -->
<g id="node3" class="node">
<title>Node44</title>
<polygon fill="none" stroke="#bfbfbf" points="0,-438.5 0,-517.5 152,-517.5 152,-438.5 0,-438.5"/>
<text text-anchor="start" x="8" y="-505.5" font-family="Helvetica,sans-Serif" font-size="10.00">std::enable_if&lt; AddPdfChecker</text>
<text text-anchor="start" x="8" y="-494.5" font-family="Helvetica,sans-Serif" font-size="10.00">&lt; PDF1, PDF2, PDFs... &gt;::</text>
<text text-anchor="middle" x="76" y="-483.5" font-family="Helvetica,sans-Serif" font-size="10.00">value &gt;</text>
<polyline fill="none" stroke="#bfbfbf" points="0,-476.5 152,-476.5 "/>
<text text-anchor="middle" x="76" y="-464.5" font-family="Helvetica,sans-Serif" font-size="10.00"> </text>
<polyline fill="none" stroke="#bfbfbf" points="0,-457.5 152,-457.5 "/>
<text text-anchor="middle" x="76" y="-445.5" font-family="Helvetica,sans-Serif" font-size="10.00"> </text>
</g>
<!-- Node44&#45;&gt;Node43 -->
<g id="edge2" class="edge">
<title>Node44&#45;&gt;Node43</title>
<path fill="none" stroke="midnightblue" d="M76.86,-428.44C77.63,-385.05 78.74,-322.64 79.41,-284.71"/>
<polygon fill="none" stroke="midnightblue" points="73.36,-428.43 76.68,-438.49 80.36,-428.56 73.36,-428.43"/>
</g>
<!-- Node45 -->
<g id="node4" class="node">
<title>Node45</title>
<g id="a_node4"><a xlink:href="classhydra_1_1detail_1_1AddPdfBase.html" target="_top" xlink:title="{hydra::detail::AddPdfBase\l\&lt; PDF1, PDF2, PDFs \&gt;\n||}">
<polygon fill="none" stroke="black" points="92.5,-332.5 92.5,-400.5 223.5,-400.5 223.5,-332.5 92.5,-332.5"/>
<text text-anchor="start" x="100.5" y="-388.5" font-family="Helvetica,sans-Serif" font-size="10.00">hydra::detail::AddPdfBase</text>
<text text-anchor="middle" x="158" y="-377.5" font-family="Helvetica,sans-Serif" font-size="10.00">&lt; PDF1, PDF2, PDFs &gt;</text>
<polyline fill="none" stroke="black" points="92.5,-370.5 223.5,-370.5 "/>
<text text-anchor="middle" x="158" y="-358.5" font-family="Helvetica,sans-Serif" font-size="10.00"> </text>
<polyline fill="none" stroke="black" points="92.5,-351.5 223.5,-351.5 "/>
<text text-anchor="middle" x="158" y="-339.5" font-family="Helvetica,sans-Serif" font-size="10.00"> </text>
</a>
</g>
</g>
<!-- Node44&#45;&gt;Node45 -->
<g id="edge4" class="edge">
<title>Node44&#45;&gt;Node45</title>
<path fill="none" stroke="midnightblue" d="M111.07,-430.17C118.5,-420.25 126.2,-409.97 133.16,-400.67"/>
<polygon fill="none" stroke="midnightblue" points="108.1,-428.29 104.91,-438.39 113.71,-432.49 108.1,-428.29"/>
</g>
<!-- Node45&#45;&gt;Node43 -->
<g id="edge3" class="edge">
<title>Node45&#45;&gt;Node43</title>
<path fill="none" stroke="orange" d="M129.55,-323.92C120.7,-310.98 111.06,-296.9 102.66,-284.62"/>
<polygon fill="orange" stroke="orange" points="126.69,-325.94 135.23,-332.22 132.47,-321.99 126.69,-325.94"/>
<text text-anchor="middle" x="180.5" y="-306" font-family="Helvetica,sans-Serif" font-size="10.00"> &lt; PDF1, PDF2, PDFs... &gt;</text>
</g>
</g>
</svg>
        <g id="navigator" transform="translate(0 0)" fill="#404254">
                <rect fill="#f2f5e9" fill-opacity="0.5" stroke="#606060" stroke-width=".5" x="0" y="0" width="60" height="60"/>
                <use id="zoomplus" xlink:href="#zoomPlus" x="17" y="9" onmousedown="handleZoom(evt,'in')"/>
                <use id="zoomminus" xlink:href="#zoomMin" x="42" y="9" onmousedown="handleZoom(evt,'out')"/>
                <use id="reset" xlink:href="#resetDef" x="30" y="36" onmousedown="handleReset()"/>
                <g id="arrowUp" xlink:href="#dirArrow" transform="translate(30 24)" onmousedown="handlePan(0,-1)">
                  <use xlink:href="#rim" fill="#404040">
                        <set attributeName="fill" to="#808080" begin="arrowUp.mouseover" end="arrowUp.mouseout"/>
                  </use>
                  <path fill="none" stroke="white" stroke-width="1.5" d="M0,-3.0v7 M-2.5,-0.5L0,-3.0L2.5,-0.5"/>
                </g>
                <g id="arrowRight" xlink:href="#dirArrow" transform="rotate(90) translate(36 -43)" onmousedown="handlePan(1,0)">
                  <use xlink:href="#rim" fill="#404040">
                        <set attributeName="fill" to="#808080" begin="arrowRight.mouseover" end="arrowRight.mouseout"/>
                  </use>
                  <path fill="none" stroke="white" stroke-width="1.5" d="M0,-3.0v7 M-2.5,-0.5L0,-3.0L2.5,-0.5"/>
                </g>
                <g id="arrowDown" xlink:href="#dirArrow" transform="rotate(180) translate(-30 -48)" onmousedown="handlePan(0,1)">
                  <use xlink:href="#rim" fill="#404040">
                        <set attributeName="fill" to="#808080" begin="arrowDown.mouseover" end="arrowDown.mouseout"/>
                  </use>
                  <path fill="none" stroke="white" stroke-width="1.5" d="M0,-3.0v7 M-2.5,-0.5L0,-3.0L2.5,-0.5"/>
                </g>
                <g id="arrowLeft" xlink:href="#dirArrow" transform="rotate(270) translate(-36 17)" onmousedown="handlePan(-1,0)">
                  <use xlink:href="#rim" fill="#404040">
                        <set attributeName="fill" to="#808080" begin="arrowLeft.mouseover" end="arrowLeft.mouseout"/>
                  </use>
                  <path fill="none" stroke="white" stroke-width="1.5" d="M0,-3.0v7 M-2.5,-0.5L0,-3.0L2.5,-0.5"/>
                </g>
        </g>
        <svg viewBox="0 0 15 15" width="100%" height="30px" preserveAspectRatio="xMaxYMin meet">
         <g id="arrow_out" transform="scale(0.3 0.3)">
          <a xlink:href="classhydra_1_1SPlot__inherit__graph_org.svg" target="_base">
           <rect id="button" ry="5" rx="5" y="6" x="6" height="38" width="38"
                fill="#f2f5e9" fill-opacity="0.5" stroke="#606060" stroke-width="1.0"/>
           <path id="arrow"
             d="M 11.500037,31.436501 C 11.940474,20.09759 22.043105,11.32322 32.158766,21.979434 L 37.068811,17.246167 C 37.068811,17.246167 37.088388,32 37.088388,32 L 22.160133,31.978069 C 22.160133,31.978069 26.997745,27.140456 26.997745,27.140456 C 18.528582,18.264221 13.291696,25.230495 11.500037,31.436501 z"
             style="fill:#404040;"/>
          </a>
         </g>
        </svg>
</svg>
