<?xml version="1.0" encoding="UTF-8" standalone="no"?>
<!DOCTYPE svg PUBLIC "-//W3C//DTD SVG 1.1//EN"
 "http://www.w3.org/Graphics/SVG/1.1/DTD/svg11.dtd">
<!-- Generated by graphviz version 2.42.4 (0)
 -->
<!-- Title: hydra::PDFSumNonExtendable&lt; PDF1, PDF2, PDFs &gt; Pages: 1 -->
<!--zoomable 536 -->
<svg id="main" version="1.1" xmlns="http://www.w3.org/2000/svg" xmlns:xlink="http://www.w3.org/1999/xlink" xml:space="preserve" onload="init(evt)">
<style type="text/css"><![CDATA[
.edge:hover path { stroke: red; }
.edge:hover polygon { stroke: red; fill: red; }
]]></style>
<script type="text/javascript"><![CDATA[
var edges = document.getElementsByTagName('g');
if (edges && edges.length) {
  for (var i=0;i<edges.length;i++) {
    if (edges[i].id.substr(0,4)=='edge') {
      edges[i].setAttribute('class','edge');
    }
  }
}
]]></script>
        <defs>
                <circle id="rim" cx="0" cy="0" r="7"/>
                <circle id="rim2" cx="0" cy="0" r="3.5"/>
                <g id="zoomPlus">
                        <use xlink:href="#rim" fill="#404040">
                                <set attributeName="fill" to="#808080" begin="zoomplus.mouseover" end="zoomplus.mouseout"/>
                        </use>
                        <path d="M-4,0h8M0,-4v8" fill="none" stroke="white" stroke-width="1.5" pointer-events="none"/>
                </g>
                <g id="zoomMin">
                        <use xlink:href="#rim" fill="#404040">
                                <set attributeName="fill" to="#808080" begin="zoomminus.mouseover" end="zoomminus.mouseout"/>
                        </use>
                        <path d="M-4,0h8" fill="none" stroke="white" stroke-width="1.5" pointer-events="none"/>
                </g>
                <g id="dirArrow">
                        <path fill="none" stroke="white" stroke-width="1.5" d="M0,-3.0v7 M-2.5,-0.5L0,-3.0L2.5,-0.5"/>
                </g>
               <g id="resetDef">
                       <use xlink:href="#rim2" fill="#404040">
                               <set attributeName="fill" to="#808080" begin="reset.mouseover" end="reset.mouseout"/>
                       </use>
               </g>
        </defs>

<script type="text/javascript">
var viewWidth = 288;
var viewHeight = 536;
var sectionId = 'dynsection-14';
</script>
<script xlink:href="svgpan.js"/>
<svg id="graph" class="graph">
<g id="viewport">
<title>hydra::PDFSumNonExtendable&lt; PDF1, PDF2, PDFs &gt;</title>
<!-- Node37 -->
<g id="node1" class="node">
<title>Node37</title>
<polygon fill="#bfbfbf" stroke="black" points="74,-0.5 74,-178.5 228,-178.5 228,-0.5 74,-0.5"/>
<text text-anchor="start" x="82" y="-166.5" font-family="Helvetica,sans-Serif" font-size="10.00">hydra::PDFSumNonExtendable</text>
<text text-anchor="middle" x="151" y="-155.5" font-family="Helvetica,sans-Serif" font-size="10.00">&lt; PDF1, PDF2, PDFs &gt;</text>
<polyline fill="none" stroke="black" points="74,-148.5 228,-148.5 "/>
<text text-anchor="middle" x="151" y="-136.5" font-family="Helvetica,sans-Serif" font-size="10.00"> </text>
<polyline fill="none" stroke="black" points="74,-129.5 228,-129.5 "/>
<text text-anchor="start" x="82" y="-117.5" font-family="Helvetica,sans-Serif" font-size="10.00">+ PDFSumNonExtendable()</text>
<text text-anchor="start" x="82" y="-106.5" font-family="Helvetica,sans-Serif" font-size="10.00">+ PDFSumNonExtendable()</text>
<text text-anchor="start" x="82" y="-95.5" font-family="Helvetica,sans-Serif" font-size="10.00">+ AddUserParameters()</text>
<text text-anchor="start" x="82" y="-84.5" font-family="Helvetica,sans-Serif" font-size="10.00">+ Coeficient()</text>
<text text-anchor="start" x="82" y="-73.5" font-family="Helvetica,sans-Serif" font-size="10.00">+ GetCoeficient()</text>
<text text-anchor="start" x="82" y="-62.5" font-family="Helvetica,sans-Serif" font-size="10.00">+ GetCoefPartialSum()</text>
<text text-anchor="start" x="82" y="-51.5" font-family="Helvetica,sans-Serif" font-size="10.00">+ GetCoefSum()</text>
<text text-anchor="start" x="82" y="-40.5" font-family="Helvetica,sans-Serif" font-size="10.00">+ GetFunctor()</text>
<text text-anchor="start" x="82" y="-29.5" font-family="Helvetica,sans-Serif" font-size="10.00">+ GetFunctors()</text>
<text text-anchor="start" x="82" y="-18.5" font-family="Helvetica,sans-Serif" font-size="10.00">+ GetPDFs()</text>
<text text-anchor="start" x="82" y="-7.5" font-family="Helvetica,sans-Serif" font-size="10.00">and 7 more...</text>
</g>
<!-- Node38 -->
<g id="node2" class="node">
<title>Node38</title>
<g id="a_node2"><a xlink:href="classhydra_1_1detail_1_1AddPdfBase.html" target="_top" xlink:title="{hydra::detail::AddPdfBase\l\&lt; PDF1, PDF2, PDFs... \&gt;\n||}">
<polygon fill="none" stroke="black" points="14,-226.5 14,-294.5 146,-294.5 146,-226.5 14,-226.5"/>
<text text-anchor="start" x="22" y="-282.5" font-family="Helvetica,sans-Serif" font-size="10.00">hydra::detail::AddPdfBase</text>
<text text-anchor="middle" x="80" y="-271.5" font-family="Helvetica,sans-Serif" font-size="10.00">&lt; PDF1, PDF2, PDFs... &gt;</text>
<polyline fill="none" stroke="black" points="14,-264.5 146,-264.5 "/>
<text text-anchor="middle" x="80" y="-252.5" font-family="Helvetica,sans-Serif" font-size="10.00"> </text>
<polyline fill="none" stroke="black" points="14,-245.5 146,-245.5 "/>
<text text-anchor="middle" x="80" y="-233.5" font-family="Helvetica,sans-Serif" font-size="10.00"> </text>
</a>
</g>
</g>
<!-- Node38&#45;&gt;Node37 -->
<g id="edge1" class="edge">
<title>Node38&#45;&gt;Node37</title>
<path fill="none" stroke="midnightblue" d="M97.98,-216.7C102.87,-205.06 108.35,-192.02 113.88,-178.85"/>
<polygon fill="none" stroke="midnightblue" points="94.67,-215.54 94.03,-226.11 101.13,-218.25 94.67,-215.54"/>
</g>
<!-- Node39 -->
<g id="node3" class="node">
<title>Node39</title>
<polygon fill="none" stroke="#bfbfbf" points="0,-448.5 0,-527.5 152,-527.5 152,-448.5 0,-448.5"/>
<text text-anchor="start" x="8" y="-515.5" font-family="Helvetica,sans-Serif" font-size="10.00">std::enable_if&lt; AddPdfChecker</text>
<text text-anchor="start" x="8" y="-504.5" font-family="Helvetica,sans-Serif" font-size="10.00">&lt; PDF1, PDF2, PDFs... &gt;::</text>
<text text-anchor="middle" x="76" y="-493.5" font-family="Helvetica,sans-Serif" font-size="10.00">value &gt;</text>
<polyline fill="none" stroke="#bfbfbf" points="0,-486.5 152,-486.5 "/>
<text text-anchor="middle" x="76" y="-474.5" font-family="Helvetica,sans-Serif" font-size="10.00"> </text>
<polyline fill="none" stroke="#bfbfbf" points="0,-467.5 152,-467.5 "/>
<text text-anchor="middle" x="76" y="-455.5" font-family="Helvetica,sans-Serif" font-size="10.00"> </text>
</g>
<!-- Node39&#45;&gt;Node38 -->
<g id="edge2" class="edge">
<title>Node39&#45;&gt;Node38</title>
<path fill="none" stroke="midnightblue" d="M76.86,-438.44C77.63,-395.05 78.74,-332.64 79.41,-294.71"/>
<polygon fill="none" stroke="midnightblue" points="73.36,-438.43 76.68,-448.49 80.36,-438.56 73.36,-438.43"/>
</g>
<!-- Node40 -->
<g id="node4" class="node">
<title>Node40</title>
<g id="a_node4"><a xlink:href="classhydra_1_1detail_1_1AddPdfBase.html" target="_top" xlink:title="{hydra::detail::AddPdfBase\l\&lt; PDF1, PDF2, PDFs \&gt;\n||}">
<polygon fill="none" stroke="black" points="92.5,-342.5 92.5,-410.5 223.5,-410.5 223.5,-342.5 92.5,-342.5"/>
<text text-anchor="start" x="100.5" y="-398.5" font-family="Helvetica,sans-Serif" font-size="10.00">hydra::detail::AddPdfBase</text>
<text text-anchor="middle" x="158" y="-387.5" font-family="Helvetica,sans-Serif" font-size="10.00">&lt; PDF1, PDF2, PDFs &gt;</text>
<polyline fill="none" stroke="black" points="92.5,-380.5 223.5,-380.5 "/>
<text text-anchor="middle" x="158" y="-368.5" font-family="Helvetica,sans-Serif" font-size="10.00"> </text>
<polyline fill="none" stroke="black" points="92.5,-361.5 223.5,-361.5 "/>
<text text-anchor="middle" x="158" y="-349.5" font-family="Helvetica,sans-Serif" font-size="10.00"> </text>
</a>
</g>
</g>
<!-- Node39&#45;&gt;Node40 -->
<g id="edge4" class="edge">
<title>Node39&#45;&gt;Node40</title>
<path fill="none" stroke="midnightblue" d="M111.07,-440.17C118.5,-430.25 126.2,-419.97 133.16,-410.67"/>
<polygon fill="none" stroke="midnightblue" points="108.1,-438.29 104.91,-448.39 113.71,-442.49 108.1,-438.29"/>
</g>
<!-- Node40&#45;&gt;Node38 -->
<g id="edge3" class="edge">
<title>Node40&#45;&gt;Node38</title>
<path fill="none" stroke="orange" d="M129.55,-333.92C120.7,-320.98 111.06,-306.9 102.66,-294.62"/>
<polygon fill="orange" stroke="orange" points="126.69,-335.94 135.23,-342.22 132.47,-331.99 126.69,-335.94"/>
<text text-anchor="middle" x="181.5" y="-316" font-family="Helvetica,sans-Serif" font-size="10.00"> &lt; PDF1, PDF2, PDFs... &gt;</text>
</g>
<!-- Node41 -->
<g id="node5" class="node">
<title>Node41</title>
<polygon fill="none" stroke="#bfbfbf" points="164,-232 164,-289 280,-289 280,-232 164,-232"/>
<text text-anchor="middle" x="222" y="-277" font-family="Helvetica,sans-Serif" font-size="10.00">static constexpr size_t</text>
<polyline fill="none" stroke="#bfbfbf" points="164,-270 280,-270 "/>
<text text-anchor="middle" x="222" y="-258" font-family="Helvetica,sans-Serif" font-size="10.00"> </text>
<polyline fill="none" stroke="#bfbfbf" points="164,-251 280,-251 "/>
<text text-anchor="middle" x="222" y="-239" font-family="Helvetica,sans-Serif" font-size="10.00"> </text>
</g>
<!-- Node41&#45;&gt;Node37 -->
<g id="edge5" class="edge">
<title>Node41&#45;&gt;Node37</title>
<path fill="none" stroke="#404040" d="M210.43,-231.97C205.44,-220.08 199.26,-205.37 192.79,-189.98"/>
<polygon fill="none" stroke="#404040" points="192.69,-189.74 186.68,-185.76 188.04,-178.68 194.06,-182.66 192.69,-189.74"/>
<text text-anchor="middle" x="216" y="-200" font-family="Helvetica,sans-Serif" font-size="10.00"> +npdfs</text>
</g>
</g>
</svg>
        <g id="navigator" transform="translate(0 0)" fill="#404254">
                <rect fill="#f2f5e9" fill-opacity="0.5" stroke="#606060" stroke-width=".5" x="0" y="0" width="60" height="60"/>
                <use id="zoomplus" xlink:href="#zoomPlus" x="17" y="9" onmousedown="handleZoom(evt,'in')"/>
                <use id="zoomminus" xlink:href="#zoomMin" x="42" y="9" onmousedown="handleZoom(evt,'out')"/>
                <use id="reset" xlink:href="#resetDef" x="30" y="36" onmousedown="handleReset()"/>
                <g id="arrowUp" xlink:href="#dirArrow" transform="translate(30 24)" onmousedown="handlePan(0,-1)">
                  <use xlink:href="#rim" fill="#404040">
                        <set attributeName="fill" to="#808080" begin="arrowUp.mouseover" end="arrowUp.mouseout"/>
                  </use>
                  <path fill="none" stroke="white" stroke-width="1.5" d="M0,-3.0v7 M-2.5,-0.5L0,-3.0L2.5,-0.5"/>
                </g>
                <g id="arrowRight" xlink:href="#dirArrow" transform="rotate(90) translate(36 -43)" onmousedown="handlePan(1,0)">
                  <use xlink:href="#rim" fill="#404040">
                        <set attributeName="fill" to="#808080" begin="arrowRight.mouseover" end="arrowRight.mouseout"/>
                  </use>
                  <path fill="none" stroke="white" stroke-width="1.5" d="M0,-3.0v7 M-2.5,-0.5L0,-3.0L2.5,-0.5"/>
                </g>
                <g id="arrowDown" xlink:href="#dirArrow" transform="rotate(180) translate(-30 -48)" onmousedown="handlePan(0,1)">
                  <use xlink:href="#rim" fill="#404040">
                        <set attributeName="fill" to="#808080" begin="arrowDown.mouseover" end="arrowDown.mouseout"/>
                  </use>
                  <path fill="none" stroke="white" stroke-width="1.5" d="M0,-3.0v7 M-2.5,-0.5L0,-3.0L2.5,-0.5"/>
                </g>
                <g id="arrowLeft" xlink:href="#dirArrow" transform="rotate(270) translate(-36 17)" onmousedown="handlePan(-1,0)">
                  <use xlink:href="#rim" fill="#404040">
                        <set attributeName="fill" to="#808080" begin="arrowLeft.mouseover" end="arrowLeft.mouseout"/>
                  </use>
                  <path fill="none" stroke="white" stroke-width="1.5" d="M0,-3.0v7 M-2.5,-0.5L0,-3.0L2.5,-0.5"/>
                </g>
        </g>
        <svg viewBox="0 0 15 15" width="100%" height="30px" preserveAspectRatio="xMaxYMin meet">
         <g id="arrow_out" transform="scale(0.3 0.3)">
          <a xlink:href="classhydra_1_1PDFSumNonExtendable__coll__graph_org.svg" target="_base">
           <rect id="button" ry="5" rx="5" y="6" x="6" height="38" width="38"
                fill="#f2f5e9" fill-opacity="0.5" stroke="#606060" stroke-width="1.0"/>
           <path id="arrow"
             d="M 11.500037,31.436501 C 11.940474,20.09759 22.043105,11.32322 32.158766,21.979434 L 37.068811,17.246167 C 37.068811,17.246167 37.088388,32 37.088388,32 L 22.160133,31.978069 C 22.160133,31.978069 26.997745,27.140456 26.997745,27.140456 C 18.528582,18.264221 13.291696,25.230495 11.500037,31.436501 z"
             style="fill:#404040;"/>
          </a>
         </g>
        </svg>
</svg>
