<?xml version="1.0" encoding="UTF-8" standalone="no"?>
<!DOCTYPE svg PUBLIC "-//W3C//DTD SVG 1.1//EN"
 "http://www.w3.org/Graphics/SVG/1.1/DTD/svg11.dtd">
<!-- Generated by graphviz version 5.0.0 (0)
 -->
<!-- Title: hydra::random::EngineR123&lt; Engine &gt; Pages: 1 -->
<svg width="222pt" height="336pt"
 viewBox="0.00 0.00 221.50 336.00" xmlns="http://www.w3.org/2000/svg" xmlns:xlink="http://www.w3.org/1999/xlink">
<g id="graph0" class="graph" transform="scale(1 1) rotate(0) translate(4 332)">
<title>hydra::random::EngineR123&lt; Engine &gt;</title>
<!-- Node1 -->
<g id="node1" class="node">
<title>Node1</title>
<polygon fill="#bfbfbf" stroke="black" points="58.5,-0.5 58.5,-189.5 196.5,-189.5 196.5,-0.5 58.5,-0.5"/>
<text text-anchor="start" x="66.5" y="-177.5" font-family="Helvetica,sans-Serif" font-size="10.00">hydra::random::EngineR123</text>
<text text-anchor="middle" x="127.5" y="-166.5" font-family="Helvetica,sans-Serif" font-size="10.00">&lt; Engine &gt;</text>
<polyline fill="none" stroke="black" points="58.5,-159.5 196.5,-159.5 "/>
<text text-anchor="middle" x="127.5" y="-147.5" font-family="Helvetica,sans-Serif" font-size="10.00"> </text>
<polyline fill="none" stroke="black" points="58.5,-140.5 196.5,-140.5 "/>
<text text-anchor="start" x="66.5" y="-128.5" font-family="Helvetica,sans-Serif" font-size="10.00">+ EngineR123()</text>
<text text-anchor="start" x="66.5" y="-117.5" font-family="Helvetica,sans-Serif" font-size="10.00">+ EngineR123()</text>
<text text-anchor="start" x="66.5" y="-106.5" font-family="Helvetica,sans-Serif" font-size="10.00">+ EngineR123()</text>
<text text-anchor="start" x="66.5" y="-95.5" font-family="Helvetica,sans-Serif" font-size="10.00">+ EngineR123()</text>
<text text-anchor="start" x="66.5" y="-84.5" font-family="Helvetica,sans-Serif" font-size="10.00">+ discard()</text>
<text text-anchor="start" x="66.5" y="-73.5" font-family="Helvetica,sans-Serif" font-size="10.00">+ GetSeed()</text>
<text text-anchor="start" x="66.5" y="-62.5" font-family="Helvetica,sans-Serif" font-size="10.00">+ GetState()</text>
<text text-anchor="start" x="66.5" y="-51.5" font-family="Helvetica,sans-Serif" font-size="10.00">+ operator()()</text>
<text text-anchor="start" x="66.5" y="-40.5" font-family="Helvetica,sans-Serif" font-size="10.00">+ operator=()</text>
<text text-anchor="start" x="66.5" y="-29.5" font-family="Helvetica,sans-Serif" font-size="10.00">+ SetSeed()</text>
<text text-anchor="start" x="66.5" y="-18.5" font-family="Helvetica,sans-Serif" font-size="10.00">+ SetSeed()</text>
<text text-anchor="start" x="66.5" y="-7.5" font-family="Helvetica,sans-Serif" font-size="10.00">+ SetState()</text>
</g>
<!-- Node2 -->
<g id="node2" class="node">
<title>Node2</title>
<polygon fill="none" stroke="#bfbfbf" points="0,-248.5 0,-327.5 139,-327.5 139,-248.5 0,-248.5"/>
<text text-anchor="start" x="8" y="-315.5" font-family="Helvetica,sans-Serif" font-size="10.00">static const result</text>
<text text-anchor="start" x="8" y="-304.5" font-family="Helvetica,sans-Serif" font-size="10.00">_type HYDRA_PREVENT</text>
<text text-anchor="middle" x="69.5" y="-293.5" font-family="Helvetica,sans-Serif" font-size="10.00">_MACRO_SUBSTITUTION</text>
<polyline fill="none" stroke="#bfbfbf" points="0,-286.5 139,-286.5 "/>
<text text-anchor="middle" x="69.5" y="-274.5" font-family="Helvetica,sans-Serif" font-size="10.00"> </text>
<polyline fill="none" stroke="#bfbfbf" points="0,-267.5 139,-267.5 "/>
<text text-anchor="middle" x="69.5" y="-255.5" font-family="Helvetica,sans-Serif" font-size="10.00"> </text>
</g>
<!-- Node2&#45;&gt;Node1 -->
<g id="edge1" class="edge">
<title>Node2&#45;&gt;Node1</title>
<path fill="none" stroke="#404040" d="M81.24,-248.35C85.43,-234.53 90.39,-218.22 95.47,-201.49"/>
<polygon fill="none" stroke="#404040" points="95.51,-201.36 93.42,-194.45 98.99,-189.87 101.08,-196.78 95.51,-201.36"/>
<text text-anchor="middle" x="106" y="-222" font-family="Helvetica,sans-Serif" font-size="10.00"> +min</text>
<text text-anchor="middle" x="106" y="-211" font-family="Helvetica,sans-Serif" font-size="10.00">+max</text>
</g>
<!-- Node3 -->
<g id="node3" class="node">
<title>Node3</title>
<g id="a_node3"><a xlink:href="namespace_3globalScope_4.html#classunsigned" target="_top" xlink:title="{unsigned\n||}">
<polygon fill="none" stroke="black" points="157.5,-259.5 157.5,-316.5 213.5,-316.5 213.5,-259.5 157.5,-259.5"/>
<text text-anchor="middle" x="185.5" y="-304.5" font-family="Helvetica,sans-Serif" font-size="10.00">unsigned</text>
<polyline fill="none" stroke="black" points="157.5,-297.5 213.5,-297.5 "/>
<text text-anchor="middle" x="185.5" y="-285.5" font-family="Helvetica,sans-Serif" font-size="10.00"> </text>
<polyline fill="none" stroke="black" points="157.5,-278.5 213.5,-278.5 "/>
<text text-anchor="middle" x="185.5" y="-266.5" font-family="Helvetica,sans-Serif" font-size="10.00"> </text>
</a>
</g>
</g>
<!-- Node3&#45;&gt;Node1 -->
<g id="edge2" class="edge">
<title>Node3&#45;&gt;Node1</title>
<path fill="none" stroke="#404040" d="M177.07,-259.23C172.3,-243.53 166,-222.8 159.51,-201.4"/>
<polygon fill="none" stroke="#404040" points="159.48,-201.3 153.91,-196.73 155.99,-189.82 161.56,-194.4 159.48,-201.3"/>
<text text-anchor="middle" x="180.5" y="-216.5" font-family="Helvetica,sans-Serif" font-size="10.00"> +arity</text>
</g>
</g>
</svg>
