<?xml version="1.0" encoding="UTF-8" standalone="no"?>
<!DOCTYPE svg PUBLIC "-//W3C//DTD SVG 1.1//EN"
 "http://www.w3.org/Graphics/SVG/1.1/DTD/svg11.dtd">
<!-- Generated by graphviz version 2.38.0 (20140413.2041)
 -->
<!-- Title: hydra::LambdaWrapper&lt; ReturnType(ArgType...), L, N &gt; Pages: 1 -->
<svg width="457pt" height="1208pt"
 viewBox="0.00 0.00 456.50 1208.00" xmlns="http://www.w3.org/2000/svg" xmlns:xlink="http://www.w3.org/1999/xlink">
<g id="graph0" class="graph" transform="scale(1 1) rotate(0) translate(4 1204)">
<title>hydra::LambdaWrapper&lt; ReturnType(ArgType...), L, N &gt;</title>
<!-- Node50 -->
<g id="node1" class="node"><title>Node50</title>
<polygon fill="#bfbfbf" stroke="black" points="180.5,-0.5 180.5,-178.5 308.5,-178.5 308.5,-0.5 180.5,-0.5"/>
<text text-anchor="start" x="188.5" y="-166.5" font-family="Helvetica,sans-Serif" font-size="10.00">hydra::LambdaWrapper</text>
<text text-anchor="start" x="188.5" y="-155.5" font-family="Helvetica,sans-Serif" font-size="10.00">&lt; ReturnType(ArgType...)</text>
<text text-anchor="middle" x="244.5" y="-144.5" font-family="Helvetica,sans-Serif" font-size="10.00">, L, N &gt;</text>
<polyline fill="none" stroke="black" points="180.5,-137.5 308.5,-137.5 "/>
<text text-anchor="middle" x="244.5" y="-125.5" font-family="Helvetica,sans-Serif" font-size="10.00"> </text>
<polyline fill="none" stroke="black" points="180.5,-118.5 308.5,-118.5 "/>
<text text-anchor="start" x="188.5" y="-106.5" font-family="Helvetica,sans-Serif" font-size="10.00">+ LambdaWrapper()</text>
<text text-anchor="start" x="188.5" y="-95.5" font-family="Helvetica,sans-Serif" font-size="10.00">+ LambdaWrapper()</text>
<text text-anchor="start" x="188.5" y="-84.5" font-family="Helvetica,sans-Serif" font-size="10.00">+ LambdaWrapper()</text>
<text text-anchor="start" x="188.5" y="-73.5" font-family="Helvetica,sans-Serif" font-size="10.00">+ LambdaWrapper()</text>
<text text-anchor="start" x="188.5" y="-62.5" font-family="Helvetica,sans-Serif" font-size="10.00">+ Evaluate()</text>
<text text-anchor="start" x="188.5" y="-51.5" font-family="Helvetica,sans-Serif" font-size="10.00">+ Evaluate()</text>
<text text-anchor="start" x="188.5" y="-40.5" font-family="Helvetica,sans-Serif" font-size="10.00">+ Evaluate()</text>
<text text-anchor="start" x="188.5" y="-29.5" font-family="Helvetica,sans-Serif" font-size="10.00">+ Evaluate()</text>
<text text-anchor="start" x="188.5" y="-18.5" font-family="Helvetica,sans-Serif" font-size="10.00">+ GetLambda()</text>
<text text-anchor="start" x="188.5" y="-7.5" font-family="Helvetica,sans-Serif" font-size="10.00">+ operator=()</text>
</g>
<!-- Node51 -->
<g id="node2" class="node"><title>Node51</title>
<g id="a_node2"><a xlink:href="group__functor.html" target="_top" xlink:title="{hydra::BaseFunctor\l\&lt; LambdaWrapper\&lt; ReturnType\l(ArgType...), L, N \&gt;, ReturnType, N \&gt;\n||+ BaseFunctor()\l+ BaseFunctor()\l+ BaseFunctor()\l+ BaseFunctor()\l+ GetCacheIndex()\l+ GetFunctor()\l+ GetNorm()\l+ interface()\l+ interface()\l+ interface()\land 9 more...\l}">
<polygon fill="none" stroke="black" points="153.5,-216.5 153.5,-405.5 335.5,-405.5 335.5,-216.5 153.5,-216.5"/>
<text text-anchor="start" x="161.5" y="-393.5" font-family="Helvetica,sans-Serif" font-size="10.00">hydra::BaseFunctor</text>
<text text-anchor="start" x="161.5" y="-382.5" font-family="Helvetica,sans-Serif" font-size="10.00">&lt; LambdaWrapper&lt; ReturnType</text>
<text text-anchor="middle" x="244.5" y="-371.5" font-family="Helvetica,sans-Serif" font-size="10.00">(ArgType...), L, N &gt;, ReturnType, N &gt;</text>
<polyline fill="none" stroke="black" points="153.5,-364.5 335.5,-364.5 "/>
<text text-anchor="middle" x="244.5" y="-352.5" font-family="Helvetica,sans-Serif" font-size="10.00"> </text>
<polyline fill="none" stroke="black" points="153.5,-345.5 335.5,-345.5 "/>
<text text-anchor="start" x="161.5" y="-333.5" font-family="Helvetica,sans-Serif" font-size="10.00">+ BaseFunctor()</text>
<text text-anchor="start" x="161.5" y="-322.5" font-family="Helvetica,sans-Serif" font-size="10.00">+ BaseFunctor()</text>
<text text-anchor="start" x="161.5" y="-311.5" font-family="Helvetica,sans-Serif" font-size="10.00">+ BaseFunctor()</text>
<text text-anchor="start" x="161.5" y="-300.5" font-family="Helvetica,sans-Serif" font-size="10.00">+ BaseFunctor()</text>
<text text-anchor="start" x="161.5" y="-289.5" font-family="Helvetica,sans-Serif" font-size="10.00">+ GetCacheIndex()</text>
<text text-anchor="start" x="161.5" y="-278.5" font-family="Helvetica,sans-Serif" font-size="10.00">+ GetFunctor()</text>
<text text-anchor="start" x="161.5" y="-267.5" font-family="Helvetica,sans-Serif" font-size="10.00">+ GetNorm()</text>
<text text-anchor="start" x="161.5" y="-256.5" font-family="Helvetica,sans-Serif" font-size="10.00">+ interface()</text>
<text text-anchor="start" x="161.5" y="-245.5" font-family="Helvetica,sans-Serif" font-size="10.00">+ interface()</text>
<text text-anchor="start" x="161.5" y="-234.5" font-family="Helvetica,sans-Serif" font-size="10.00">+ interface()</text>
<text text-anchor="start" x="161.5" y="-223.5" font-family="Helvetica,sans-Serif" font-size="10.00">and 9 more...</text>
</a>
</g>
</g>
<!-- Node51&#45;&gt;Node50 -->
<g id="edge1" class="edge"><title>Node51&#45;&gt;Node50</title>
<path fill="none" stroke="midnightblue" d="M244.5,-205.998C244.5,-196.864 244.5,-187.675 244.5,-178.688"/>
<polygon fill="none" stroke="midnightblue" points="241,-206.276 244.5,-216.276 248,-206.276 241,-206.276"/>
</g>
<!-- Node52 -->
<g id="node3" class="node"><title>Node52</title>
<g id="a_node3"><a xlink:href="classhydra_1_1detail_1_1Parameters.html" target="_top" xlink:title="{hydra::detail::Parameters\l\&lt; NPARAM \&gt;\n||+ Parameters()\l+ Parameters()\l+ Parameters()\l+ Parameters()\l+ Parameters()\l+ AddUserParameters()\l+ GetNumberOfParameters()\l+ GetParameter()\l+ GetParameter()\l+ GetParameters()\land 11 more...\l}">
<polygon fill="none" stroke="black" points="162,-701.5 162,-879.5 305,-879.5 305,-701.5 162,-701.5"/>
<text text-anchor="start" x="170" y="-867.5" font-family="Helvetica,sans-Serif" font-size="10.00">hydra::detail::Parameters</text>
<text text-anchor="middle" x="233.5" y="-856.5" font-family="Helvetica,sans-Serif" font-size="10.00">&lt; NPARAM &gt;</text>
<polyline fill="none" stroke="black" points="162,-849.5 305,-849.5 "/>
<text text-anchor="middle" x="233.5" y="-837.5" font-family="Helvetica,sans-Serif" font-size="10.00"> </text>
<polyline fill="none" stroke="black" points="162,-830.5 305,-830.5 "/>
<text text-anchor="start" x="170" y="-818.5" font-family="Helvetica,sans-Serif" font-size="10.00">+ Parameters()</text>
<text text-anchor="start" x="170" y="-807.5" font-family="Helvetica,sans-Serif" font-size="10.00">+ Parameters()</text>
<text text-anchor="start" x="170" y="-796.5" font-family="Helvetica,sans-Serif" font-size="10.00">+ Parameters()</text>
<text text-anchor="start" x="170" y="-785.5" font-family="Helvetica,sans-Serif" font-size="10.00">+ Parameters()</text>
<text text-anchor="start" x="170" y="-774.5" font-family="Helvetica,sans-Serif" font-size="10.00">+ Parameters()</text>
<text text-anchor="start" x="170" y="-763.5" font-family="Helvetica,sans-Serif" font-size="10.00">+ AddUserParameters()</text>
<text text-anchor="start" x="170" y="-752.5" font-family="Helvetica,sans-Serif" font-size="10.00">+ GetNumberOfParameters()</text>
<text text-anchor="start" x="170" y="-741.5" font-family="Helvetica,sans-Serif" font-size="10.00">+ GetParameter()</text>
<text text-anchor="start" x="170" y="-730.5" font-family="Helvetica,sans-Serif" font-size="10.00">+ GetParameter()</text>
<text text-anchor="start" x="170" y="-719.5" font-family="Helvetica,sans-Serif" font-size="10.00">+ GetParameters()</text>
<text text-anchor="start" x="170" y="-708.5" font-family="Helvetica,sans-Serif" font-size="10.00">and 11 more...</text>
</a>
</g>
</g>
<!-- Node52&#45;&gt;Node51 -->
<g id="edge2" class="edge"><title>Node52&#45;&gt;Node51</title>
<path fill="none" stroke="midnightblue" d="M235.761,-691.339C237.689,-607.645 240.442,-488.148 242.34,-405.746"/>
<polygon fill="none" stroke="midnightblue" points="232.262,-691.285 235.53,-701.363 239.26,-691.446 232.262,-691.285"/>
</g>
<!-- Node57 -->
<g id="node8" class="node"><title>Node57</title>
<g id="a_node8"><a xlink:href="group__functor.html#classhydra_1_1BaseFunctor" target="_top" xlink:title="Base class for all functors in hydra. ">
<polygon fill="none" stroke="black" points="10,-464.5 10,-653.5 129,-653.5 129,-464.5 10,-464.5"/>
<text text-anchor="start" x="18" y="-641.5" font-family="Helvetica,sans-Serif" font-size="10.00">hydra::BaseFunctor</text>
<text text-anchor="start" x="18" y="-630.5" font-family="Helvetica,sans-Serif" font-size="10.00">&lt; Functor, ReturnType,</text>
<text text-anchor="middle" x="69.5" y="-619.5" font-family="Helvetica,sans-Serif" font-size="10.00"> NPARAM &gt;</text>
<polyline fill="none" stroke="black" points="10,-612.5 129,-612.5 "/>
<text text-anchor="middle" x="69.5" y="-600.5" font-family="Helvetica,sans-Serif" font-size="10.00"> </text>
<polyline fill="none" stroke="black" points="10,-593.5 129,-593.5 "/>
<text text-anchor="start" x="18" y="-581.5" font-family="Helvetica,sans-Serif" font-size="10.00">+ BaseFunctor()</text>
<text text-anchor="start" x="18" y="-570.5" font-family="Helvetica,sans-Serif" font-size="10.00">+ BaseFunctor()</text>
<text text-anchor="start" x="18" y="-559.5" font-family="Helvetica,sans-Serif" font-size="10.00">+ BaseFunctor()</text>
<text text-anchor="start" x="18" y="-548.5" font-family="Helvetica,sans-Serif" font-size="10.00">+ BaseFunctor()</text>
<text text-anchor="start" x="18" y="-537.5" font-family="Helvetica,sans-Serif" font-size="10.00">+ GetCacheIndex()</text>
<text text-anchor="start" x="18" y="-526.5" font-family="Helvetica,sans-Serif" font-size="10.00">+ GetFunctor()</text>
<text text-anchor="start" x="18" y="-515.5" font-family="Helvetica,sans-Serif" font-size="10.00">+ GetNorm()</text>
<text text-anchor="start" x="18" y="-504.5" font-family="Helvetica,sans-Serif" font-size="10.00">+ interface()</text>
<text text-anchor="start" x="18" y="-493.5" font-family="Helvetica,sans-Serif" font-size="10.00">+ interface()</text>
<text text-anchor="start" x="18" y="-482.5" font-family="Helvetica,sans-Serif" font-size="10.00">+ interface()</text>
<text text-anchor="start" x="18" y="-471.5" font-family="Helvetica,sans-Serif" font-size="10.00">and 9 more...</text>
</a>
</g>
</g>
<!-- Node52&#45;&gt;Node57 -->
<g id="edge8" class="edge"><title>Node52&#45;&gt;Node57</title>
<path fill="none" stroke="midnightblue" d="M164.444,-692.864C152.671,-676.389 140.533,-659.403 129.034,-643.311"/>
<polygon fill="none" stroke="midnightblue" points="161.901,-695.324 170.562,-701.426 167.596,-691.255 161.901,-695.324"/>
</g>
<!-- Node53 -->
<g id="node4" class="node"><title>Node53</title>
<g id="a_node4"><a xlink:href="namespace_3globalScope_4.html#classstatic_01const_01size__t" target="_top" xlink:title="{static const size_t\n||}">
<polygon fill="none" stroke="black" points="133,-982.5 133,-1039.5 230,-1039.5 230,-982.5 133,-982.5"/>
<text text-anchor="middle" x="181.5" y="-1027.5" font-family="Helvetica,sans-Serif" font-size="10.00">static const size_t</text>
<polyline fill="none" stroke="black" points="133,-1020.5 230,-1020.5 "/>
<text text-anchor="middle" x="181.5" y="-1008.5" font-family="Helvetica,sans-Serif" font-size="10.00"> </text>
<polyline fill="none" stroke="black" points="133,-1001.5 230,-1001.5 "/>
<text text-anchor="middle" x="181.5" y="-989.5" font-family="Helvetica,sans-Serif" font-size="10.00"> </text>
</a>
</g>
</g>
<!-- Node53&#45;&gt;Node52 -->
<g id="edge3" class="edge"><title>Node53&#45;&gt;Node52</title>
<path fill="none" stroke="#404040" d="M185.552,-982.2C189.089,-959.425 194.713,-926.434 201.5,-898 202.015,-895.84 202.549,-893.66 203.098,-891.465"/>
<polygon fill="none" stroke="#404040" points="203.157,-891.237 200.791,-884.425 206.169,-879.621 208.535,-886.433 203.157,-891.237"/>
<text text-anchor="middle" x="242.5" y="-901" font-family="Helvetica,sans-Serif" font-size="10.00"> +parameter_count</text>
</g>
<!-- Node54 -->
<g id="node5" class="node"><title>Node54</title>
<g id="a_node5"><a xlink:href="classhydra_1_1detail_1_1Parameters.html" target="_top" xlink:title="{hydra::detail::Parameters\&lt; N \&gt;\n||+ Parameters()\l+ Parameters()\l+ Parameters()\l+ Parameters()\l+ Parameters()\l+ AddUserParameters()\l+ GetNumberOfParameters()\l+ GetParameter()\l+ GetParameter()\l+ GetParameters()\land 11 more...\l}">
<polygon fill="none" stroke="black" points="248.5,-927.5 248.5,-1094.5 400.5,-1094.5 400.5,-927.5 248.5,-927.5"/>
<text text-anchor="middle" x="324.5" y="-1082.5" font-family="Helvetica,sans-Serif" font-size="10.00">hydra::detail::Parameters&lt; N &gt;</text>
<polyline fill="none" stroke="black" points="248.5,-1075.5 400.5,-1075.5 "/>
<text text-anchor="middle" x="324.5" y="-1063.5" font-family="Helvetica,sans-Serif" font-size="10.00"> </text>
<polyline fill="none" stroke="black" points="248.5,-1056.5 400.5,-1056.5 "/>
<text text-anchor="start" x="256.5" y="-1044.5" font-family="Helvetica,sans-Serif" font-size="10.00">+ Parameters()</text>
<text text-anchor="start" x="256.5" y="-1033.5" font-family="Helvetica,sans-Serif" font-size="10.00">+ Parameters()</text>
<text text-anchor="start" x="256.5" y="-1022.5" font-family="Helvetica,sans-Serif" font-size="10.00">+ Parameters()</text>
<text text-anchor="start" x="256.5" y="-1011.5" font-family="Helvetica,sans-Serif" font-size="10.00">+ Parameters()</text>
<text text-anchor="start" x="256.5" y="-1000.5" font-family="Helvetica,sans-Serif" font-size="10.00">+ Parameters()</text>
<text text-anchor="start" x="256.5" y="-989.5" font-family="Helvetica,sans-Serif" font-size="10.00">+ AddUserParameters()</text>
<text text-anchor="start" x="256.5" y="-978.5" font-family="Helvetica,sans-Serif" font-size="10.00">+ GetNumberOfParameters()</text>
<text text-anchor="start" x="256.5" y="-967.5" font-family="Helvetica,sans-Serif" font-size="10.00">+ GetParameter()</text>
<text text-anchor="start" x="256.5" y="-956.5" font-family="Helvetica,sans-Serif" font-size="10.00">+ GetParameter()</text>
<text text-anchor="start" x="256.5" y="-945.5" font-family="Helvetica,sans-Serif" font-size="10.00">+ GetParameters()</text>
<text text-anchor="start" x="256.5" y="-934.5" font-family="Helvetica,sans-Serif" font-size="10.00">and 11 more...</text>
</a>
</g>
</g>
<!-- Node54&#45;&gt;Node52 -->
<g id="edge4" class="edge"><title>Node54&#45;&gt;Node52</title>
<path fill="none" stroke="orange" d="M291.596,-918.081C288.926,-911.258 286.211,-904.504 283.5,-898 280.985,-891.967 278.318,-885.778 275.575,-879.566"/>
<polygon fill="orange" stroke="orange" points="288.332,-919.346 295.204,-927.41 294.861,-916.821 288.332,-919.346"/>
<text text-anchor="middle" x="320" y="-901" font-family="Helvetica,sans-Serif" font-size="10.00"> &lt; NPARAM &gt;</text>
</g>
<!-- Node55 -->
<g id="node6" class="node"><title>Node55</title>
<polygon fill="none" stroke="#bfbfbf" points="303,-1142.5 303,-1199.5 346,-1199.5 346,-1142.5 303,-1142.5"/>
<text text-anchor="middle" x="324.5" y="-1187.5" font-family="Helvetica,sans-Serif" font-size="10.00">size_t</text>
<polyline fill="none" stroke="#bfbfbf" points="303,-1180.5 346,-1180.5 "/>
<text text-anchor="middle" x="324.5" y="-1168.5" font-family="Helvetica,sans-Serif" font-size="10.00"> </text>
<polyline fill="none" stroke="#bfbfbf" points="303,-1161.5 346,-1161.5 "/>
<text text-anchor="middle" x="324.5" y="-1149.5" font-family="Helvetica,sans-Serif" font-size="10.00"> </text>
</g>
<!-- Node55&#45;&gt;Node54 -->
<g id="edge5" class="edge"><title>Node55&#45;&gt;Node54</title>
<path fill="none" stroke="#404040" d="M324.5,-1142.48C324.5,-1132.12 324.5,-1119.67 324.5,-1106.63"/>
<polygon fill="none" stroke="#404040" points="324.5,-1106.54 320.5,-1100.54 324.5,-1094.54 328.5,-1100.54 324.5,-1106.54"/>
<text text-anchor="middle" x="365.5" y="-1116" font-family="Helvetica,sans-Serif" font-size="10.00"> +parameter_count</text>
</g>
<!-- Node56 -->
<g id="node7" class="node"><title>Node56</title>
<g id="a_node7"><a xlink:href="namespace_3globalScope_4.html#classBaseFunctor_3_01LambdaWrapper_3_01ReturnType_07ArgType_8_8_8_08_00_01L_00_01N_01_4_00_01ReturnType_00_01NPARAM_01_4_01_6" target="_top" xlink:title="{BaseFunctor\&lt; LambdaWrapper\l\&lt; ReturnType(ArgType...)\l, L, N \&gt;, ReturnType, NPARAM \&gt; &amp;\n||}">
<polygon fill="none" stroke="black" points="272.5,-519.5 272.5,-598.5 448.5,-598.5 448.5,-519.5 272.5,-519.5"/>
<text text-anchor="start" x="280.5" y="-586.5" font-family="Helvetica,sans-Serif" font-size="10.00">BaseFunctor&lt; LambdaWrapper</text>
<text text-anchor="start" x="280.5" y="-575.5" font-family="Helvetica,sans-Serif" font-size="10.00">&lt; ReturnType(ArgType...)</text>
<text text-anchor="middle" x="360.5" y="-564.5" font-family="Helvetica,sans-Serif" font-size="10.00">, L, N &gt;, ReturnType, NPARAM &gt; &amp;</text>
<polyline fill="none" stroke="black" points="272.5,-557.5 448.5,-557.5 "/>
<text text-anchor="middle" x="360.5" y="-545.5" font-family="Helvetica,sans-Serif" font-size="10.00"> </text>
<polyline fill="none" stroke="black" points="272.5,-538.5 448.5,-538.5 "/>
<text text-anchor="middle" x="360.5" y="-526.5" font-family="Helvetica,sans-Serif" font-size="10.00"> </text>
</a>
</g>
</g>
<!-- Node56&#45;&gt;Node51 -->
<g id="edge6" class="edge"><title>Node56&#45;&gt;Node51</title>
<path fill="none" stroke="#404040" d="M342.247,-519.292C329.238,-491.702 311.087,-453.21 293.953,-416.875"/>
<polygon fill="none" stroke="#404040" points="293.794,-416.536 287.617,-412.816 288.676,-405.683 294.853,-409.403 293.794,-416.536"/>
<text text-anchor="middle" x="320.5" y="-432.5" font-family="Helvetica,sans-Serif" font-size="10.00"> #_par</text>
</g>
<!-- Node57&#45;&gt;Node51 -->
<g id="edge7" class="edge"><title>Node57&#45;&gt;Node51</title>
<path fill="none" stroke="orange" d="M54.4445,-454.217C56.1501,-443.616 59.3166,-433.33 64.5,-424 83.8937,-389.091 119.182,-363.655 153.407,-345.932"/>
<polygon fill="orange" stroke="orange" points="50.9324,-454.115 53.2386,-464.456 57.8843,-454.934 50.9324,-454.115"/>
<text text-anchor="start" x="64.5" y="-438" font-family="Helvetica,sans-Serif" font-size="10.00"> &lt; LambdaWrapper&lt; ReturnType</text>
<text text-anchor="middle" x="147.5" y="-427" font-family="Helvetica,sans-Serif" font-size="10.00">(ArgType...), L, N &gt;, ReturnType, N &gt;</text>
</g>
<!-- Node58 -->
<g id="node9" class="node"><title>Node58</title>
<polygon fill="none" stroke="#bfbfbf" points="0,-756.5 0,-824.5 139,-824.5 139,-756.5 0,-756.5"/>
<text text-anchor="start" x="8" y="-812.5" font-family="Helvetica,sans-Serif" font-size="10.00">BaseFunctor&lt; Functor,</text>
<text text-anchor="middle" x="69.5" y="-801.5" font-family="Helvetica,sans-Serif" font-size="10.00"> ReturnType, NPARAM &gt; &amp;</text>
<polyline fill="none" stroke="#bfbfbf" points="0,-794.5 139,-794.5 "/>
<text text-anchor="middle" x="69.5" y="-782.5" font-family="Helvetica,sans-Serif" font-size="10.00"> </text>
<polyline fill="none" stroke="#bfbfbf" points="0,-775.5 139,-775.5 "/>
<text text-anchor="middle" x="69.5" y="-763.5" font-family="Helvetica,sans-Serif" font-size="10.00"> </text>
</g>
<!-- Node58&#45;&gt;Node57 -->
<g id="edge9" class="edge"><title>Node58&#45;&gt;Node57</title>
<path fill="none" stroke="#404040" d="M69.5,-756.129C69.5,-732.263 69.5,-698.72 69.5,-666.114"/>
<polygon fill="none" stroke="#404040" points="69.5001,-665.685 65.5,-659.685 69.5,-653.685 73.5,-659.685 69.5001,-665.685"/>
<text text-anchor="middle" x="83.5" y="-675" font-family="Helvetica,sans-Serif" font-size="10.00"> #_par</text>
</g>
</g>
</svg>
