<?xml version="1.0" encoding="UTF-8" standalone="no"?>
<!DOCTYPE svg PUBLIC "-//W3C//DTD SVG 1.1//EN"
 "http://www.w3.org/Graphics/SVG/1.1/DTD/svg11.dtd">
<!-- Generated by graphviz version 2.42.4 (0)
 -->
<!-- Title: hydra::GenzMalikRule&lt; DIM, BACKEND &gt; Pages: 1 -->
<svg width="225pt" height="215pt"
 viewBox="0.00 0.00 224.50 215.00" xmlns="http://www.w3.org/2000/svg" xmlns:xlink="http://www.w3.org/1999/xlink">
<g id="graph0" class="graph" transform="scale(1 1) rotate(0) translate(4 211)">
<title>hydra::GenzMalikRule&lt; DIM, BACKEND &gt;</title>
<!-- Node20 -->
<g id="node1" class="node">
<title>Node20</title>
<polygon fill="#bfbfbf" stroke="black" points="12,-138.5 12,-206.5 125,-206.5 125,-138.5 12,-138.5"/>
<text text-anchor="start" x="20" y="-194.5" font-family="Helvetica,sans-Serif" font-size="10.00">hydra::GenzMalikRule</text>
<text text-anchor="middle" x="68.5" y="-183.5" font-family="Helvetica,sans-Serif" font-size="10.00">&lt; DIM, BACKEND &gt;</text>
<polyline fill="none" stroke="black" points="12,-176.5 125,-176.5 "/>
<text text-anchor="middle" x="68.5" y="-164.5" font-family="Helvetica,sans-Serif" font-size="10.00"> </text>
<polyline fill="none" stroke="black" points="12,-157.5 125,-157.5 "/>
<text text-anchor="middle" x="68.5" y="-145.5" font-family="Helvetica,sans-Serif" font-size="10.00"> </text>
</g>
<!-- Node21 -->
<g id="node2" class="node">
<title>Node21</title>
<g id="a_node2"><a xlink:href="namespacehydra.html#namespacehydra" target="_top" xlink:title="{hydra::GenzMalikRule\l\&lt; N, hydra::detail::Backend\lPolicy\&lt; BACKEND \&gt; \&gt;\n||}">
<polygon fill="none" stroke="black" points="0,-0.5 0,-79.5 137,-79.5 137,-0.5 0,-0.5"/>
<text text-anchor="start" x="8" y="-67.5" font-family="Helvetica,sans-Serif" font-size="10.00">hydra::GenzMalikRule</text>
<text text-anchor="start" x="8" y="-56.5" font-family="Helvetica,sans-Serif" font-size="10.00">&lt; N, hydra::detail::Backend</text>
<text text-anchor="middle" x="68.5" y="-45.5" font-family="Helvetica,sans-Serif" font-size="10.00">Policy&lt; BACKEND &gt; &gt;</text>
<polyline fill="none" stroke="black" points="0,-38.5 137,-38.5 "/>
<text text-anchor="middle" x="68.5" y="-26.5" font-family="Helvetica,sans-Serif" font-size="10.00"> </text>
<polyline fill="none" stroke="black" points="0,-19.5 137,-19.5 "/>
<text text-anchor="middle" x="68.5" y="-7.5" font-family="Helvetica,sans-Serif" font-size="10.00"> </text>
</a>
</g>
</g>
<!-- Node20&#45;&gt;Node21 -->
<g id="edge1" class="edge">
<title>Node20&#45;&gt;Node21</title>
<path fill="none" stroke="orange" d="M68.5,-127.81C68.5,-112.26 68.5,-94.87 68.5,-79.77"/>
<polygon fill="orange" stroke="orange" points="65,-128.23 68.5,-138.23 72,-128.23 65,-128.23"/>
<text text-anchor="start" x="68.5" y="-112" font-family="Helvetica,sans-Serif" font-size="10.00"> &lt; N, hydra::detail</text>
<text text-anchor="middle" x="142.5" y="-101" font-family="Helvetica,sans-Serif" font-size="10.00">::BackendPolicy&lt; BACKEND &gt; &gt;</text>
</g>
</g>
</svg>
