<?xml version="1.0" encoding="UTF-8" standalone="no"?>
<!DOCTYPE svg PUBLIC "-//W3C//DTD SVG 1.1//EN"
 "http://www.w3.org/Graphics/SVG/1.1/DTD/svg11.dtd">
<!-- Generated by graphviz version 2.42.4 (0)
 -->
<!-- Title: hydra::PhaseSpaceReweight&lt; Functor, ParticleTypes &gt; Pages: 1 -->
<svg width="432pt" height="1208pt"
 viewBox="0.00 0.00 432.00 1208.00" xmlns="http://www.w3.org/2000/svg" xmlns:xlink="http://www.w3.org/1999/xlink">
<g id="graph0" class="graph" transform="scale(1 1) rotate(0) translate(4 1204)">
<title>hydra::PhaseSpaceReweight&lt; Functor, ParticleTypes &gt;</title>
<!-- Node5 -->
<g id="node1" class="node">
<title>Node5</title>
<polygon fill="#bfbfbf" stroke="black" points="146.5,-0.5 146.5,-156.5 289.5,-156.5 289.5,-0.5 146.5,-0.5"/>
<text text-anchor="start" x="154.5" y="-144.5" font-family="Helvetica,sans-Serif" font-size="10.00">hydra::PhaseSpaceReweight</text>
<text text-anchor="middle" x="218" y="-133.5" font-family="Helvetica,sans-Serif" font-size="10.00">&lt; Functor, ParticleTypes &gt;</text>
<polyline fill="none" stroke="black" points="146.5,-126.5 289.5,-126.5 "/>
<text text-anchor="middle" x="218" y="-114.5" font-family="Helvetica,sans-Serif" font-size="10.00"> </text>
<polyline fill="none" stroke="black" points="146.5,-107.5 289.5,-107.5 "/>
<text text-anchor="start" x="154.5" y="-95.5" font-family="Helvetica,sans-Serif" font-size="10.00">+ PhaseSpaceReweight()</text>
<text text-anchor="start" x="154.5" y="-84.5" font-family="Helvetica,sans-Serif" font-size="10.00">+ PhaseSpaceReweight()</text>
<text text-anchor="start" x="154.5" y="-73.5" font-family="Helvetica,sans-Serif" font-size="10.00">+ PhaseSpaceReweight()</text>
<text text-anchor="start" x="154.5" y="-62.5" font-family="Helvetica,sans-Serif" font-size="10.00">+ PhaseSpaceReweight()</text>
<text text-anchor="start" x="154.5" y="-51.5" font-family="Helvetica,sans-Serif" font-size="10.00">+ Evaluate()</text>
<text text-anchor="start" x="154.5" y="-40.5" font-family="Helvetica,sans-Serif" font-size="10.00">+ GetFunctor()</text>
<text text-anchor="start" x="154.5" y="-29.5" font-family="Helvetica,sans-Serif" font-size="10.00">+ GetMasses()</text>
<text text-anchor="start" x="154.5" y="-18.5" font-family="Helvetica,sans-Serif" font-size="10.00">+ GetMaxWeight()</text>
<text text-anchor="start" x="154.5" y="-7.5" font-family="Helvetica,sans-Serif" font-size="10.00">+ operator=()</text>
</g>
<!-- Node6 -->
<g id="node2" class="node">
<title>Node6</title>
<g id="a_node2"><a xlink:href="group__functor.html" target="_top" xlink:title="{hydra::BaseFunctor\l\&lt; PhaseSpaceReweight\l\&lt; Functor, ParticleTypes...\l \&gt;, double(ParticleTypes...), 0 \&gt;\n||+ BaseFunctor()\l+ BaseFunctor()\l+ BaseFunctor()\l+ BaseFunctor()\l+ GetFunctor()\l+ GetNorm()\l+ operator()()\l+ operator()()\l+ operator()()\l+ operator()()\land 6 more...\l}">
<polygon fill="none" stroke="black" points="140.5,-194.5 140.5,-394.5 295.5,-394.5 295.5,-194.5 140.5,-194.5"/>
<text text-anchor="start" x="148.5" y="-382.5" font-family="Helvetica,sans-Serif" font-size="10.00">hydra::BaseFunctor</text>
<text text-anchor="start" x="148.5" y="-371.5" font-family="Helvetica,sans-Serif" font-size="10.00">&lt; PhaseSpaceReweight</text>
<text text-anchor="start" x="148.5" y="-360.5" font-family="Helvetica,sans-Serif" font-size="10.00">&lt; Functor, ParticleTypes...</text>
<text text-anchor="middle" x="218" y="-349.5" font-family="Helvetica,sans-Serif" font-size="10.00"> &gt;, double(ParticleTypes...), 0 &gt;</text>
<polyline fill="none" stroke="black" points="140.5,-342.5 295.5,-342.5 "/>
<text text-anchor="middle" x="218" y="-330.5" font-family="Helvetica,sans-Serif" font-size="10.00"> </text>
<polyline fill="none" stroke="black" points="140.5,-323.5 295.5,-323.5 "/>
<text text-anchor="start" x="148.5" y="-311.5" font-family="Helvetica,sans-Serif" font-size="10.00">+ BaseFunctor()</text>
<text text-anchor="start" x="148.5" y="-300.5" font-family="Helvetica,sans-Serif" font-size="10.00">+ BaseFunctor()</text>
<text text-anchor="start" x="148.5" y="-289.5" font-family="Helvetica,sans-Serif" font-size="10.00">+ BaseFunctor()</text>
<text text-anchor="start" x="148.5" y="-278.5" font-family="Helvetica,sans-Serif" font-size="10.00">+ BaseFunctor()</text>
<text text-anchor="start" x="148.5" y="-267.5" font-family="Helvetica,sans-Serif" font-size="10.00">+ GetFunctor()</text>
<text text-anchor="start" x="148.5" y="-256.5" font-family="Helvetica,sans-Serif" font-size="10.00">+ GetNorm()</text>
<text text-anchor="start" x="148.5" y="-245.5" font-family="Helvetica,sans-Serif" font-size="10.00">+ operator()()</text>
<text text-anchor="start" x="148.5" y="-234.5" font-family="Helvetica,sans-Serif" font-size="10.00">+ operator()()</text>
<text text-anchor="start" x="148.5" y="-223.5" font-family="Helvetica,sans-Serif" font-size="10.00">+ operator()()</text>
<text text-anchor="start" x="148.5" y="-212.5" font-family="Helvetica,sans-Serif" font-size="10.00">+ operator()()</text>
<text text-anchor="start" x="148.5" y="-201.5" font-family="Helvetica,sans-Serif" font-size="10.00">and 6 more...</text>
</a>
</g>
</g>
<!-- Node6&#45;&gt;Node5 -->
<g id="edge1" class="edge">
<title>Node6&#45;&gt;Node5</title>
<path fill="none" stroke="midnightblue" d="M218,-184.21C218,-174.87 218,-165.56 218,-156.56"/>
<polygon fill="none" stroke="midnightblue" points="214.5,-184.33 218,-194.33 221.5,-184.33 214.5,-184.33"/>
</g>
<!-- Node7 -->
<g id="node3" class="node">
<title>Node7</title>
<g id="a_node3"><a xlink:href="classhydra_1_1detail_1_1Parameters.html" target="_top" xlink:title="{hydra::detail::Parameters\l\&lt; NPARAM \&gt;\n||+ Parameters()\l+ Parameters()\l+ Parameters()\l+ Parameters()\l+ Parameters()\l+ AddUserParameters()\l+ GetNumberOfParameters()\l+ GetParameter()\l+ GetParameter()\l+ GetParameters()\land 11 more...\l}">
<polygon fill="none" stroke="black" points="146.5,-701.5 146.5,-879.5 289.5,-879.5 289.5,-701.5 146.5,-701.5"/>
<text text-anchor="start" x="154.5" y="-867.5" font-family="Helvetica,sans-Serif" font-size="10.00">hydra::detail::Parameters</text>
<text text-anchor="middle" x="218" y="-856.5" font-family="Helvetica,sans-Serif" font-size="10.00">&lt; NPARAM &gt;</text>
<polyline fill="none" stroke="black" points="146.5,-849.5 289.5,-849.5 "/>
<text text-anchor="middle" x="218" y="-837.5" font-family="Helvetica,sans-Serif" font-size="10.00"> </text>
<polyline fill="none" stroke="black" points="146.5,-830.5 289.5,-830.5 "/>
<text text-anchor="start" x="154.5" y="-818.5" font-family="Helvetica,sans-Serif" font-size="10.00">+ Parameters()</text>
<text text-anchor="start" x="154.5" y="-807.5" font-family="Helvetica,sans-Serif" font-size="10.00">+ Parameters()</text>
<text text-anchor="start" x="154.5" y="-796.5" font-family="Helvetica,sans-Serif" font-size="10.00">+ Parameters()</text>
<text text-anchor="start" x="154.5" y="-785.5" font-family="Helvetica,sans-Serif" font-size="10.00">+ Parameters()</text>
<text text-anchor="start" x="154.5" y="-774.5" font-family="Helvetica,sans-Serif" font-size="10.00">+ Parameters()</text>
<text text-anchor="start" x="154.5" y="-763.5" font-family="Helvetica,sans-Serif" font-size="10.00">+ AddUserParameters()</text>
<text text-anchor="start" x="154.5" y="-752.5" font-family="Helvetica,sans-Serif" font-size="10.00">+ GetNumberOfParameters()</text>
<text text-anchor="start" x="154.5" y="-741.5" font-family="Helvetica,sans-Serif" font-size="10.00">+ GetParameter()</text>
<text text-anchor="start" x="154.5" y="-730.5" font-family="Helvetica,sans-Serif" font-size="10.00">+ GetParameter()</text>
<text text-anchor="start" x="154.5" y="-719.5" font-family="Helvetica,sans-Serif" font-size="10.00">+ GetParameters()</text>
<text text-anchor="start" x="154.5" y="-708.5" font-family="Helvetica,sans-Serif" font-size="10.00">and 11 more...</text>
</a>
</g>
</g>
<!-- Node7&#45;&gt;Node6 -->
<g id="edge2" class="edge">
<title>Node7&#45;&gt;Node6</title>
<path fill="none" stroke="midnightblue" d="M218,-691.44C218,-605.42 218,-480.95 218,-394.62"/>
<polygon fill="none" stroke="midnightblue" points="214.5,-691.47 218,-701.47 221.5,-691.47 214.5,-691.47"/>
</g>
<!-- Node12 -->
<g id="node8" class="node">
<title>Node12</title>
<g id="a_node8"><a xlink:href="group__functor.html#classhydra_1_1BaseFunctor" target="_top" xlink:title="Base class for all functors in hydra. ">
<polygon fill="none" stroke="black" points="10,-464.5 10,-653.5 118,-653.5 118,-464.5 10,-464.5"/>
<text text-anchor="start" x="18" y="-641.5" font-family="Helvetica,sans-Serif" font-size="10.00">hydra::BaseFunctor</text>
<text text-anchor="start" x="18" y="-630.5" font-family="Helvetica,sans-Serif" font-size="10.00">&lt; Functor, Signature,</text>
<text text-anchor="middle" x="64" y="-619.5" font-family="Helvetica,sans-Serif" font-size="10.00"> NPARAM &gt;</text>
<polyline fill="none" stroke="black" points="10,-612.5 118,-612.5 "/>
<text text-anchor="middle" x="64" y="-600.5" font-family="Helvetica,sans-Serif" font-size="10.00"> </text>
<polyline fill="none" stroke="black" points="10,-593.5 118,-593.5 "/>
<text text-anchor="start" x="18" y="-581.5" font-family="Helvetica,sans-Serif" font-size="10.00">+ BaseFunctor()</text>
<text text-anchor="start" x="18" y="-570.5" font-family="Helvetica,sans-Serif" font-size="10.00">+ BaseFunctor()</text>
<text text-anchor="start" x="18" y="-559.5" font-family="Helvetica,sans-Serif" font-size="10.00">+ BaseFunctor()</text>
<text text-anchor="start" x="18" y="-548.5" font-family="Helvetica,sans-Serif" font-size="10.00">+ BaseFunctor()</text>
<text text-anchor="start" x="18" y="-537.5" font-family="Helvetica,sans-Serif" font-size="10.00">+ GetFunctor()</text>
<text text-anchor="start" x="18" y="-526.5" font-family="Helvetica,sans-Serif" font-size="10.00">+ GetNorm()</text>
<text text-anchor="start" x="18" y="-515.5" font-family="Helvetica,sans-Serif" font-size="10.00">+ operator()()</text>
<text text-anchor="start" x="18" y="-504.5" font-family="Helvetica,sans-Serif" font-size="10.00">+ operator()()</text>
<text text-anchor="start" x="18" y="-493.5" font-family="Helvetica,sans-Serif" font-size="10.00">+ operator()()</text>
<text text-anchor="start" x="18" y="-482.5" font-family="Helvetica,sans-Serif" font-size="10.00">+ operator()()</text>
<text text-anchor="start" x="18" y="-471.5" font-family="Helvetica,sans-Serif" font-size="10.00">and 6 more...</text>
</a>
</g>
</g>
<!-- Node7&#45;&gt;Node12 -->
<g id="edge8" class="edge">
<title>Node7&#45;&gt;Node12</title>
<path fill="none" stroke="midnightblue" d="M153.21,-692.94C141.53,-675.54 129.48,-657.58 118.15,-640.69"/>
<polygon fill="none" stroke="midnightblue" points="150.42,-695.07 158.9,-701.43 156.23,-691.17 150.42,-695.07"/>
</g>
<!-- Node8 -->
<g id="node4" class="node">
<title>Node8</title>
<g id="a_node4"><a xlink:href="namespace_3globalScope_4.html#classstatic_01const_01size__t" target="_top" xlink:title="{static const size_t\n||}">
<polygon fill="none" stroke="black" points="107.5,-982.5 107.5,-1039.5 204.5,-1039.5 204.5,-982.5 107.5,-982.5"/>
<text text-anchor="middle" x="156" y="-1027.5" font-family="Helvetica,sans-Serif" font-size="10.00">static const size_t</text>
<polyline fill="none" stroke="black" points="107.5,-1020.5 204.5,-1020.5 "/>
<text text-anchor="middle" x="156" y="-1008.5" font-family="Helvetica,sans-Serif" font-size="10.00"> </text>
<polyline fill="none" stroke="black" points="107.5,-1001.5 204.5,-1001.5 "/>
<text text-anchor="middle" x="156" y="-989.5" font-family="Helvetica,sans-Serif" font-size="10.00"> </text>
</a>
</g>
</g>
<!-- Node8&#45;&gt;Node7 -->
<g id="edge3" class="edge">
<title>Node8&#45;&gt;Node7</title>
<path fill="none" stroke="#404040" d="M159.36,-982.5C162.52,-959.61 167.97,-926.32 176,-898 176.64,-895.74 177.31,-893.46 178.01,-891.18"/>
<polygon fill="none" stroke="#404040" points="178.03,-891.09 176.05,-884.16 181.69,-879.66 183.67,-886.6 178.03,-891.09"/>
<text text-anchor="middle" x="217" y="-901" font-family="Helvetica,sans-Serif" font-size="10.00"> +parameter_count</text>
</g>
<!-- Node9 -->
<g id="node5" class="node">
<title>Node9</title>
<g id="a_node5"><a xlink:href="classhydra_1_1detail_1_1Parameters.html" target="_top" xlink:title="{hydra::detail::Parameters\&lt; N \&gt;\n||+ Parameters()\l+ Parameters()\l+ Parameters()\l+ Parameters()\l+ Parameters()\l+ AddUserParameters()\l+ GetNumberOfParameters()\l+ GetParameter()\l+ GetParameter()\l+ GetParameters()\land 11 more...\l}">
<polygon fill="none" stroke="black" points="223,-927.5 223,-1094.5 375,-1094.5 375,-927.5 223,-927.5"/>
<text text-anchor="middle" x="299" y="-1082.5" font-family="Helvetica,sans-Serif" font-size="10.00">hydra::detail::Parameters&lt; N &gt;</text>
<polyline fill="none" stroke="black" points="223,-1075.5 375,-1075.5 "/>
<text text-anchor="middle" x="299" y="-1063.5" font-family="Helvetica,sans-Serif" font-size="10.00"> </text>
<polyline fill="none" stroke="black" points="223,-1056.5 375,-1056.5 "/>
<text text-anchor="start" x="231" y="-1044.5" font-family="Helvetica,sans-Serif" font-size="10.00">+ Parameters()</text>
<text text-anchor="start" x="231" y="-1033.5" font-family="Helvetica,sans-Serif" font-size="10.00">+ Parameters()</text>
<text text-anchor="start" x="231" y="-1022.5" font-family="Helvetica,sans-Serif" font-size="10.00">+ Parameters()</text>
<text text-anchor="start" x="231" y="-1011.5" font-family="Helvetica,sans-Serif" font-size="10.00">+ Parameters()</text>
<text text-anchor="start" x="231" y="-1000.5" font-family="Helvetica,sans-Serif" font-size="10.00">+ Parameters()</text>
<text text-anchor="start" x="231" y="-989.5" font-family="Helvetica,sans-Serif" font-size="10.00">+ AddUserParameters()</text>
<text text-anchor="start" x="231" y="-978.5" font-family="Helvetica,sans-Serif" font-size="10.00">+ GetNumberOfParameters()</text>
<text text-anchor="start" x="231" y="-967.5" font-family="Helvetica,sans-Serif" font-size="10.00">+ GetParameter()</text>
<text text-anchor="start" x="231" y="-956.5" font-family="Helvetica,sans-Serif" font-size="10.00">+ GetParameter()</text>
<text text-anchor="start" x="231" y="-945.5" font-family="Helvetica,sans-Serif" font-size="10.00">+ GetParameters()</text>
<text text-anchor="start" x="231" y="-934.5" font-family="Helvetica,sans-Serif" font-size="10.00">and 11 more...</text>
</a>
</g>
</g>
<!-- Node9&#45;&gt;Node7 -->
<g id="edge4" class="edge">
<title>Node9&#45;&gt;Node7</title>
<path fill="none" stroke="orange" d="M265.26,-917.64C262.81,-910.99 260.37,-904.39 258,-898 255.77,-891.98 253.46,-885.77 251.13,-879.52"/>
<polygon fill="orange" stroke="orange" points="262.11,-919.22 268.85,-927.4 268.68,-916.81 262.11,-919.22"/>
<text text-anchor="middle" x="293" y="-901" font-family="Helvetica,sans-Serif" font-size="10.00"> &lt; NPARAM &gt;</text>
</g>
<!-- Node10 -->
<g id="node6" class="node">
<title>Node10</title>
<polygon fill="none" stroke="#bfbfbf" points="277.5,-1142.5 277.5,-1199.5 320.5,-1199.5 320.5,-1142.5 277.5,-1142.5"/>
<text text-anchor="middle" x="299" y="-1187.5" font-family="Helvetica,sans-Serif" font-size="10.00">size_t</text>
<polyline fill="none" stroke="#bfbfbf" points="277.5,-1180.5 320.5,-1180.5 "/>
<text text-anchor="middle" x="299" y="-1168.5" font-family="Helvetica,sans-Serif" font-size="10.00"> </text>
<polyline fill="none" stroke="#bfbfbf" points="277.5,-1161.5 320.5,-1161.5 "/>
<text text-anchor="middle" x="299" y="-1149.5" font-family="Helvetica,sans-Serif" font-size="10.00"> </text>
</g>
<!-- Node10&#45;&gt;Node9 -->
<g id="edge5" class="edge">
<title>Node10&#45;&gt;Node9</title>
<path fill="none" stroke="#404040" d="M299,-1142.48C299,-1132.12 299,-1119.67 299,-1106.63"/>
<polygon fill="none" stroke="#404040" points="299,-1106.54 295,-1100.54 299,-1094.54 303,-1100.54 299,-1106.54"/>
<text text-anchor="middle" x="340" y="-1116" font-family="Helvetica,sans-Serif" font-size="10.00"> +parameter_count</text>
</g>
<!-- Node11 -->
<g id="node7" class="node">
<title>Node11</title>
<g id="a_node7"><a xlink:href="namespace_3globalScope_4.html#classBaseFunctor_3_01PhaseSpaceReweight_3_01Functor_00_01ParticleTypes_8_8_8_01_4_00_01double_07ba844e46e4c245d90ba07319276dc274" target="_top" xlink:title="{BaseFunctor\&lt; PhaseSpaceReweight\l\&lt; Functor, ParticleTypes...\l \&gt;, double(ParticleTypes...)\l, NPARAM \&gt; &amp;\n||}">
<polygon fill="none" stroke="black" points="246,-514 246,-604 424,-604 424,-514 246,-514"/>
<text text-anchor="start" x="254" y="-592" font-family="Helvetica,sans-Serif" font-size="10.00">BaseFunctor&lt; PhaseSpaceReweight</text>
<text text-anchor="start" x="254" y="-581" font-family="Helvetica,sans-Serif" font-size="10.00">&lt; Functor, ParticleTypes...</text>
<text text-anchor="start" x="254" y="-570" font-family="Helvetica,sans-Serif" font-size="10.00"> &gt;, double(ParticleTypes...)</text>
<text text-anchor="middle" x="335" y="-559" font-family="Helvetica,sans-Serif" font-size="10.00">, NPARAM &gt; &amp;</text>
<polyline fill="none" stroke="black" points="246,-552 424,-552 "/>
<text text-anchor="middle" x="335" y="-540" font-family="Helvetica,sans-Serif" font-size="10.00"> </text>
<polyline fill="none" stroke="black" points="246,-533 424,-533 "/>
<text text-anchor="middle" x="335" y="-521" font-family="Helvetica,sans-Serif" font-size="10.00"> </text>
</a>
</g>
</g>
<!-- Node11&#45;&gt;Node6 -->
<g id="edge6" class="edge">
<title>Node11&#45;&gt;Node6</title>
<path fill="none" stroke="#404040" d="M315.28,-513.77C302.1,-484.18 284.12,-443.85 267.21,-405.91"/>
<polygon fill="none" stroke="#404040" points="267.12,-405.71 261.03,-401.86 262.24,-394.75 268.33,-398.6 267.12,-405.71"/>
<text text-anchor="middle" x="297" y="-427" font-family="Helvetica,sans-Serif" font-size="10.00"> #_par</text>
</g>
<!-- Node12&#45;&gt;Node6 -->
<g id="edge7" class="edge">
<title>Node12&#45;&gt;Node6</title>
<path fill="none" stroke="orange" d="M53.39,-453.84C55.16,-439.63 58.73,-425.61 65,-413 81.18,-380.46 111.13,-354.4 140.27,-335.17"/>
<polygon fill="orange" stroke="orange" points="49.87,-453.92 52.42,-464.2 56.84,-454.57 49.87,-453.92"/>
<text text-anchor="start" x="65" y="-438" font-family="Helvetica,sans-Serif" font-size="10.00"> &lt; PhaseSpaceReweight</text>
<text text-anchor="start" x="65" y="-427" font-family="Helvetica,sans-Serif" font-size="10.00">&lt; Functor, ParticleTypes...</text>
<text text-anchor="middle" x="134.5" y="-416" font-family="Helvetica,sans-Serif" font-size="10.00"> &gt;, double(ParticleTypes...), 0 &gt;</text>
</g>
<!-- Node13 -->
<g id="node9" class="node">
<title>Node13</title>
<polygon fill="none" stroke="#bfbfbf" points="0,-756.5 0,-824.5 128,-824.5 128,-756.5 0,-756.5"/>
<text text-anchor="start" x="8" y="-812.5" font-family="Helvetica,sans-Serif" font-size="10.00">BaseFunctor&lt; Functor,</text>
<text text-anchor="middle" x="64" y="-801.5" font-family="Helvetica,sans-Serif" font-size="10.00"> Signature, NPARAM &gt; &amp;</text>
<polyline fill="none" stroke="#bfbfbf" points="0,-794.5 128,-794.5 "/>
<text text-anchor="middle" x="64" y="-782.5" font-family="Helvetica,sans-Serif" font-size="10.00"> </text>
<polyline fill="none" stroke="#bfbfbf" points="0,-775.5 128,-775.5 "/>
<text text-anchor="middle" x="64" y="-763.5" font-family="Helvetica,sans-Serif" font-size="10.00"> </text>
</g>
<!-- Node13&#45;&gt;Node12 -->
<g id="edge9" class="edge">
<title>Node13&#45;&gt;Node12</title>
<path fill="none" stroke="#404040" d="M64,-756.13C64,-732.26 64,-698.72 64,-666.11"/>
<polygon fill="none" stroke="#404040" points="64,-665.68 60,-659.68 64,-653.68 68,-659.68 64,-665.68"/>
<text text-anchor="middle" x="78" y="-675" font-family="Helvetica,sans-Serif" font-size="10.00"> #_par</text>
</g>
</g>
</svg>
