<?xml version="1.0" encoding="UTF-8" standalone="no"?>
<!DOCTYPE svg PUBLIC "-//W3C//DTD SVG 1.1//EN"
 "http://www.w3.org/Graphics/SVG/1.1/DTD/svg11.dtd">
<!-- Generated by graphviz version 5.0.0 (0)
 -->
<!-- Title: execution_policy Pages: 1 -->
<svg width="626pt" height="171pt"
 viewBox="0.00 0.00 626.00 171.00" xmlns="http://www.w3.org/2000/svg" xmlns:xlink="http://www.w3.org/1999/xlink">
<g id="graph0" class="graph" transform="scale(1 1) rotate(0) translate(4 167)">
<title>execution_policy</title>
<!-- Node0 -->
<g id="node1" class="node">
<title>Node0</title>
<polygon fill="#bfbfbf" stroke="black" points="264,-105.5 264,-162.5 353,-162.5 353,-105.5 264,-105.5"/>
<text text-anchor="middle" x="308.5" y="-150.5" font-family="Helvetica,sans-Serif" font-size="10.00">execution_policy</text>
<polyline fill="none" stroke="black" points="264,-143.5 353,-143.5 "/>
<text text-anchor="middle" x="308.5" y="-131.5" font-family="Helvetica,sans-Serif" font-size="10.00"> </text>
<polyline fill="none" stroke="black" points="264,-124.5 353,-124.5 "/>
<text text-anchor="middle" x="308.5" y="-112.5" font-family="Helvetica,sans-Serif" font-size="10.00"> </text>
</g>
<!-- Node1 -->
<g id="node2" class="node">
<title>Node1</title>
<g id="a_node2"><a xlink:href="structhydra_1_1detail_1_1BackendPolicy_3_01Backend_1_1Cpp_01_4.html" target="_top" xlink:title="{hydra::detail::BackendPolicy\l\&lt; Backend::Cpp \&gt;\n|+ backend\l|}">
<polygon fill="none" stroke="black" points="0,-0.5 0,-68.5 141,-68.5 141,-0.5 0,-0.5"/>
<text text-anchor="start" x="8" y="-56.5" font-family="Helvetica,sans-Serif" font-size="10.00">hydra::detail::BackendPolicy</text>
<text text-anchor="middle" x="70.5" y="-45.5" font-family="Helvetica,sans-Serif" font-size="10.00">&lt; Backend::Cpp &gt;</text>
<polyline fill="none" stroke="black" points="0,-38.5 141,-38.5 "/>
<text text-anchor="start" x="8" y="-26.5" font-family="Helvetica,sans-Serif" font-size="10.00">+ backend</text>
<polyline fill="none" stroke="black" points="0,-19.5 141,-19.5 "/>
<text text-anchor="middle" x="70.5" y="-7.5" font-family="Helvetica,sans-Serif" font-size="10.00"> </text>
</a>
</g>
</g>
<!-- Node0&#45;&gt;Node1 -->
<g id="edge1" class="edge">
<title>Node0&#45;&gt;Node1</title>
<path fill="none" stroke="midnightblue" d="M254.18,-111.42C223.41,-99.13 184.24,-83.36 149.5,-69 146.75,-67.86 143.94,-66.7 141.11,-65.52"/>
<polygon fill="none" stroke="midnightblue" points="253.28,-114.83 263.86,-115.29 255.87,-108.33 253.28,-114.83"/>
</g>
<!-- Node2 -->
<g id="node3" class="node">
<title>Node2</title>
<g id="a_node3"><a xlink:href="structhydra_1_1detail_1_1BackendPolicy_3_01Backend_1_1Cuda_01_4.html" target="_top" xlink:title="{hydra::detail::BackendPolicy\l\&lt; Backend::Cuda \&gt;\n|+ backend\l|}">
<polygon fill="none" stroke="black" points="159,-0.5 159,-68.5 300,-68.5 300,-0.5 159,-0.5"/>
<text text-anchor="start" x="167" y="-56.5" font-family="Helvetica,sans-Serif" font-size="10.00">hydra::detail::BackendPolicy</text>
<text text-anchor="middle" x="229.5" y="-45.5" font-family="Helvetica,sans-Serif" font-size="10.00">&lt; Backend::Cuda &gt;</text>
<polyline fill="none" stroke="black" points="159,-38.5 300,-38.5 "/>
<text text-anchor="start" x="167" y="-26.5" font-family="Helvetica,sans-Serif" font-size="10.00">+ backend</text>
<polyline fill="none" stroke="black" points="159,-19.5 300,-19.5 "/>
<text text-anchor="middle" x="229.5" y="-7.5" font-family="Helvetica,sans-Serif" font-size="10.00"> </text>
</a>
</g>
</g>
<!-- Node0&#45;&gt;Node2 -->
<g id="edge2" class="edge">
<title>Node0&#45;&gt;Node2</title>
<path fill="none" stroke="midnightblue" d="M279.6,-97.34C272.04,-88.01 263.93,-77.99 256.47,-68.79"/>
<polygon fill="none" stroke="midnightblue" points="277.06,-99.75 286.07,-105.32 282.5,-95.35 277.06,-99.75"/>
</g>
<!-- Node3 -->
<g id="node4" class="node">
<title>Node3</title>
<g id="a_node4"><a xlink:href="structhydra_1_1detail_1_1BackendPolicy_3_01Backend_1_1Omp_01_4.html" target="_top" xlink:title="{hydra::detail::BackendPolicy\l\&lt; Backend::Omp \&gt;\n|+ backend\l|}">
<polygon fill="none" stroke="black" points="318,-0.5 318,-68.5 459,-68.5 459,-0.5 318,-0.5"/>
<text text-anchor="start" x="326" y="-56.5" font-family="Helvetica,sans-Serif" font-size="10.00">hydra::detail::BackendPolicy</text>
<text text-anchor="middle" x="388.5" y="-45.5" font-family="Helvetica,sans-Serif" font-size="10.00">&lt; Backend::Omp &gt;</text>
<polyline fill="none" stroke="black" points="318,-38.5 459,-38.5 "/>
<text text-anchor="start" x="326" y="-26.5" font-family="Helvetica,sans-Serif" font-size="10.00">+ backend</text>
<polyline fill="none" stroke="black" points="318,-19.5 459,-19.5 "/>
<text text-anchor="middle" x="388.5" y="-7.5" font-family="Helvetica,sans-Serif" font-size="10.00"> </text>
</a>
</g>
</g>
<!-- Node0&#45;&gt;Node3 -->
<g id="edge3" class="edge">
<title>Node0&#45;&gt;Node3</title>
<path fill="none" stroke="midnightblue" d="M337.76,-97.34C345.42,-88.01 353.64,-77.99 361.19,-68.79"/>
<polygon fill="none" stroke="midnightblue" points="334.85,-95.37 331.21,-105.32 340.26,-99.81 334.85,-95.37"/>
</g>
<!-- Node4 -->
<g id="node5" class="node">
<title>Node4</title>
<g id="a_node5"><a xlink:href="structhydra_1_1detail_1_1BackendPolicy_3_01Backend_1_1Tbb_01_4.html" target="_top" xlink:title="{hydra::detail::BackendPolicy\l\&lt; Backend::Tbb \&gt;\n|+ backend\l|}">
<polygon fill="none" stroke="black" points="477,-0.5 477,-68.5 618,-68.5 618,-0.5 477,-0.5"/>
<text text-anchor="start" x="485" y="-56.5" font-family="Helvetica,sans-Serif" font-size="10.00">hydra::detail::BackendPolicy</text>
<text text-anchor="middle" x="547.5" y="-45.5" font-family="Helvetica,sans-Serif" font-size="10.00">&lt; Backend::Tbb &gt;</text>
<polyline fill="none" stroke="black" points="477,-38.5 618,-38.5 "/>
<text text-anchor="start" x="485" y="-26.5" font-family="Helvetica,sans-Serif" font-size="10.00">+ backend</text>
<polyline fill="none" stroke="black" points="477,-19.5 618,-19.5 "/>
<text text-anchor="middle" x="547.5" y="-7.5" font-family="Helvetica,sans-Serif" font-size="10.00"> </text>
</a>
</g>
</g>
<!-- Node0&#45;&gt;Node4 -->
<g id="edge4" class="edge">
<title>Node0&#45;&gt;Node4</title>
<path fill="none" stroke="midnightblue" d="M362.44,-111.75C393.51,-99.42 433.28,-83.51 468.5,-69 471.25,-67.87 474.06,-66.7 476.89,-65.52"/>
<polygon fill="none" stroke="midnightblue" points="361.09,-108.51 353.08,-115.45 363.67,-115.02 361.09,-108.51"/>
</g>
</g>
</svg>
