<?xml version="1.0" encoding="UTF-8" standalone="no"?>
<!DOCTYPE svg PUBLIC "-//W3C//DTD SVG 1.1//EN"
 "http://www.w3.org/Graphics/SVG/1.1/DTD/svg11.dtd">
<!-- Generated by graphviz version 2.42.4 (0)
 -->
<!-- Title: NonResonant Pages: 1 -->
<svg width="320pt" height="1060pt"
 viewBox="0.00 0.00 320.20 1060.00" xmlns="http://www.w3.org/2000/svg" xmlns:xlink="http://www.w3.org/1999/xlink">
<g id="graph0" class="graph" transform="scale(1 1) rotate(0) translate(4 1056)">
<title>NonResonant</title>
<!-- Node0 -->
<g id="node1" class="node">
<title>Node0</title>
<polygon fill="#bfbfbf" stroke="black" points="90,-0.5 90,-123.5 182,-123.5 182,-0.5 90,-0.5"/>
<text text-anchor="middle" x="136" y="-111.5" font-family="Helvetica,sans-Serif" font-size="10.00">NonResonant</text>
<polyline fill="none" stroke="black" points="90,-104.5 182,-104.5 "/>
<text text-anchor="middle" x="136" y="-92.5" font-family="Helvetica,sans-Serif" font-size="10.00"> </text>
<polyline fill="none" stroke="black" points="90,-85.5 182,-85.5 "/>
<text text-anchor="start" x="98" y="-73.5" font-family="Helvetica,sans-Serif" font-size="10.00">+ NonResonant()</text>
<text text-anchor="start" x="98" y="-62.5" font-family="Helvetica,sans-Serif" font-size="10.00">+ NonResonant()</text>
<text text-anchor="start" x="98" y="-51.5" font-family="Helvetica,sans-Serif" font-size="10.00">+ NonResonant()</text>
<text text-anchor="start" x="98" y="-40.5" font-family="Helvetica,sans-Serif" font-size="10.00">+ NonResonant()</text>
<text text-anchor="start" x="98" y="-29.5" font-family="Helvetica,sans-Serif" font-size="10.00">+ NonResonant()</text>
<text text-anchor="start" x="98" y="-18.5" font-family="Helvetica,sans-Serif" font-size="10.00">+ Evaluate()</text>
<text text-anchor="start" x="98" y="-7.5" font-family="Helvetica,sans-Serif" font-size="10.00">+ operator=()</text>
</g>
<!-- Node1 -->
<g id="node2" class="node">
<title>Node1</title>
<g id="a_node2"><a xlink:href="group__functor.html" target="_top" xlink:title="{hydra::BaseFunctor\l\&lt; NonResonant, hydra\l::complex\&lt; double \&gt;, 2 \&gt;\n|# _par\l|+ BaseFunctor()\l+ BaseFunctor()\l+ BaseFunctor()\l+ BaseFunctor()\l+ GetFunctor()\l+ GetNorm()\l+ operator()()\l+ operator()()\l+ operator()()\l+ operator()()\land 6 more...\l}">
<polygon fill="none" stroke="black" points="0,-167 0,-356 126,-356 126,-167 0,-167"/>
<text text-anchor="start" x="8" y="-344" font-family="Helvetica,sans-Serif" font-size="10.00">hydra::BaseFunctor</text>
<text text-anchor="start" x="8" y="-333" font-family="Helvetica,sans-Serif" font-size="10.00">&lt; NonResonant, hydra</text>
<text text-anchor="middle" x="63" y="-322" font-family="Helvetica,sans-Serif" font-size="10.00">::complex&lt; double &gt;, 2 &gt;</text>
<polyline fill="none" stroke="black" points="0,-315 126,-315 "/>
<text text-anchor="start" x="8" y="-303" font-family="Helvetica,sans-Serif" font-size="10.00"># _par</text>
<polyline fill="none" stroke="black" points="0,-296 126,-296 "/>
<text text-anchor="start" x="8" y="-284" font-family="Helvetica,sans-Serif" font-size="10.00">+ BaseFunctor()</text>
<text text-anchor="start" x="8" y="-273" font-family="Helvetica,sans-Serif" font-size="10.00">+ BaseFunctor()</text>
<text text-anchor="start" x="8" y="-262" font-family="Helvetica,sans-Serif" font-size="10.00">+ BaseFunctor()</text>
<text text-anchor="start" x="8" y="-251" font-family="Helvetica,sans-Serif" font-size="10.00">+ BaseFunctor()</text>
<text text-anchor="start" x="8" y="-240" font-family="Helvetica,sans-Serif" font-size="10.00">+ GetFunctor()</text>
<text text-anchor="start" x="8" y="-229" font-family="Helvetica,sans-Serif" font-size="10.00">+ GetNorm()</text>
<text text-anchor="start" x="8" y="-218" font-family="Helvetica,sans-Serif" font-size="10.00">+ operator()()</text>
<text text-anchor="start" x="8" y="-207" font-family="Helvetica,sans-Serif" font-size="10.00">+ operator()()</text>
<text text-anchor="start" x="8" y="-196" font-family="Helvetica,sans-Serif" font-size="10.00">+ operator()()</text>
<text text-anchor="start" x="8" y="-185" font-family="Helvetica,sans-Serif" font-size="10.00">+ operator()()</text>
<text text-anchor="start" x="8" y="-174" font-family="Helvetica,sans-Serif" font-size="10.00">and 6 more...</text>
</a>
</g>
</g>
<!-- Node1&#45;&gt;Node0 -->
<g id="edge1" class="edge">
<title>Node1&#45;&gt;Node0</title>
<path fill="none" stroke="midnightblue" d="M101.16,-157.26C105.42,-145.73 109.65,-134.28 113.62,-123.54"/>
<polygon fill="none" stroke="midnightblue" points="97.76,-156.36 97.58,-166.96 104.33,-158.79 97.76,-156.36"/>
</g>
<!-- Node2 -->
<g id="node3" class="node">
<title>Node2</title>
<g id="a_node3"><a xlink:href="classhydra_1_1detail_1_1Parameters.html" target="_top" xlink:title="{hydra::detail::Parameters\l\&lt; NPARAM \&gt;\n|+ parameter_count\l|+ Parameters()\l+ Parameters()\l+ Parameters()\l+ Parameters()\l+ Parameters()\l+ AddUserParameters()\l+ GetNumberOfParameters()\l+ GetParameter()\l+ GetParameter()\l+ GetParameters()\land 11 more...\l}">
<polygon fill="none" stroke="black" points="90.5,-658.5 90.5,-836.5 233.5,-836.5 233.5,-658.5 90.5,-658.5"/>
<text text-anchor="start" x="98.5" y="-824.5" font-family="Helvetica,sans-Serif" font-size="10.00">hydra::detail::Parameters</text>
<text text-anchor="middle" x="162" y="-813.5" font-family="Helvetica,sans-Serif" font-size="10.00">&lt; NPARAM &gt;</text>
<polyline fill="none" stroke="black" points="90.5,-806.5 233.5,-806.5 "/>
<text text-anchor="start" x="98.5" y="-794.5" font-family="Helvetica,sans-Serif" font-size="10.00">+ parameter_count</text>
<polyline fill="none" stroke="black" points="90.5,-787.5 233.5,-787.5 "/>
<text text-anchor="start" x="98.5" y="-775.5" font-family="Helvetica,sans-Serif" font-size="10.00">+ Parameters()</text>
<text text-anchor="start" x="98.5" y="-764.5" font-family="Helvetica,sans-Serif" font-size="10.00">+ Parameters()</text>
<text text-anchor="start" x="98.5" y="-753.5" font-family="Helvetica,sans-Serif" font-size="10.00">+ Parameters()</text>
<text text-anchor="start" x="98.5" y="-742.5" font-family="Helvetica,sans-Serif" font-size="10.00">+ Parameters()</text>
<text text-anchor="start" x="98.5" y="-731.5" font-family="Helvetica,sans-Serif" font-size="10.00">+ Parameters()</text>
<text text-anchor="start" x="98.5" y="-720.5" font-family="Helvetica,sans-Serif" font-size="10.00">+ AddUserParameters()</text>
<text text-anchor="start" x="98.5" y="-709.5" font-family="Helvetica,sans-Serif" font-size="10.00">+ GetNumberOfParameters()</text>
<text text-anchor="start" x="98.5" y="-698.5" font-family="Helvetica,sans-Serif" font-size="10.00">+ GetParameter()</text>
<text text-anchor="start" x="98.5" y="-687.5" font-family="Helvetica,sans-Serif" font-size="10.00">+ GetParameter()</text>
<text text-anchor="start" x="98.5" y="-676.5" font-family="Helvetica,sans-Serif" font-size="10.00">+ GetParameters()</text>
<text text-anchor="start" x="98.5" y="-665.5" font-family="Helvetica,sans-Serif" font-size="10.00">and 11 more...</text>
</a>
</g>
</g>
<!-- Node2&#45;&gt;Node1 -->
<g id="edge2" class="edge">
<title>Node2&#45;&gt;Node1</title>
<path fill="none" stroke="midnightblue" d="M109.96,-649.01C105.93,-639.68 102.19,-630.25 99,-621 63.54,-518.22 54.23,-488.69 57,-380 57.2,-372.24 57.47,-364.2 57.79,-356.12"/>
<polygon fill="none" stroke="midnightblue" points="106.83,-650.58 114.09,-658.3 113.23,-647.74 106.83,-650.58"/>
</g>
<!-- Node4 -->
<g id="node5" class="node">
<title>Node4</title>
<g id="a_node5"><a xlink:href="group__functor.html#classhydra_1_1BaseFunctor" target="_top" xlink:title="Base class for all functors in hydra. ">
<polygon fill="none" stroke="black" points="108,-431.5 108,-620.5 216,-620.5 216,-431.5 108,-431.5"/>
<text text-anchor="start" x="116" y="-608.5" font-family="Helvetica,sans-Serif" font-size="10.00">hydra::BaseFunctor</text>
<text text-anchor="start" x="116" y="-597.5" font-family="Helvetica,sans-Serif" font-size="10.00">&lt; Functor, Signature,</text>
<text text-anchor="middle" x="162" y="-586.5" font-family="Helvetica,sans-Serif" font-size="10.00"> NPARAM &gt;</text>
<polyline fill="none" stroke="black" points="108,-579.5 216,-579.5 "/>
<text text-anchor="start" x="116" y="-567.5" font-family="Helvetica,sans-Serif" font-size="10.00"># _par</text>
<polyline fill="none" stroke="black" points="108,-560.5 216,-560.5 "/>
<text text-anchor="start" x="116" y="-548.5" font-family="Helvetica,sans-Serif" font-size="10.00">+ BaseFunctor()</text>
<text text-anchor="start" x="116" y="-537.5" font-family="Helvetica,sans-Serif" font-size="10.00">+ BaseFunctor()</text>
<text text-anchor="start" x="116" y="-526.5" font-family="Helvetica,sans-Serif" font-size="10.00">+ BaseFunctor()</text>
<text text-anchor="start" x="116" y="-515.5" font-family="Helvetica,sans-Serif" font-size="10.00">+ BaseFunctor()</text>
<text text-anchor="start" x="116" y="-504.5" font-family="Helvetica,sans-Serif" font-size="10.00">+ GetFunctor()</text>
<text text-anchor="start" x="116" y="-493.5" font-family="Helvetica,sans-Serif" font-size="10.00">+ GetNorm()</text>
<text text-anchor="start" x="116" y="-482.5" font-family="Helvetica,sans-Serif" font-size="10.00">+ operator()()</text>
<text text-anchor="start" x="116" y="-471.5" font-family="Helvetica,sans-Serif" font-size="10.00">+ operator()()</text>
<text text-anchor="start" x="116" y="-460.5" font-family="Helvetica,sans-Serif" font-size="10.00">+ operator()()</text>
<text text-anchor="start" x="116" y="-449.5" font-family="Helvetica,sans-Serif" font-size="10.00">+ operator()()</text>
<text text-anchor="start" x="116" y="-438.5" font-family="Helvetica,sans-Serif" font-size="10.00">and 6 more...</text>
</a>
</g>
</g>
<!-- Node2&#45;&gt;Node4 -->
<g id="edge5" class="edge">
<title>Node2&#45;&gt;Node4</title>
<path fill="none" stroke="midnightblue" d="M162,-648.24C162,-639.11 162,-629.87 162,-620.78"/>
<polygon fill="none" stroke="midnightblue" points="158.5,-648.49 162,-658.49 165.5,-648.49 158.5,-648.49"/>
</g>
<!-- Node5 -->
<g id="node6" class="node">
<title>Node5</title>
<g id="a_node6"><a xlink:href="group__functor.html" target="_top" xlink:title="{hydra::BaseFunctor\l\&lt; NonResonant, hydra\l::complex\&lt; double \&gt;(Kaon,\l PionA, PionB), 2 \&gt;\n|# _par\l|+ BaseFunctor()\l+ BaseFunctor()\l+ BaseFunctor()\l+ BaseFunctor()\l+ GetFunctor()\l+ GetNorm()\l+ operator()()\l+ operator()()\l+ operator()()\l+ operator()()\land 6 more...\l}">
<polygon fill="none" stroke="black" points="144,-161.5 144,-361.5 278,-361.5 278,-161.5 144,-161.5"/>
<text text-anchor="start" x="152" y="-349.5" font-family="Helvetica,sans-Serif" font-size="10.00">hydra::BaseFunctor</text>
<text text-anchor="start" x="152" y="-338.5" font-family="Helvetica,sans-Serif" font-size="10.00">&lt; NonResonant, hydra</text>
<text text-anchor="start" x="152" y="-327.5" font-family="Helvetica,sans-Serif" font-size="10.00">::complex&lt; double &gt;(Kaon,</text>
<text text-anchor="middle" x="211" y="-316.5" font-family="Helvetica,sans-Serif" font-size="10.00"> PionA, PionB), 2 &gt;</text>
<polyline fill="none" stroke="black" points="144,-309.5 278,-309.5 "/>
<text text-anchor="start" x="152" y="-297.5" font-family="Helvetica,sans-Serif" font-size="10.00"># _par</text>
<polyline fill="none" stroke="black" points="144,-290.5 278,-290.5 "/>
<text text-anchor="start" x="152" y="-278.5" font-family="Helvetica,sans-Serif" font-size="10.00">+ BaseFunctor()</text>
<text text-anchor="start" x="152" y="-267.5" font-family="Helvetica,sans-Serif" font-size="10.00">+ BaseFunctor()</text>
<text text-anchor="start" x="152" y="-256.5" font-family="Helvetica,sans-Serif" font-size="10.00">+ BaseFunctor()</text>
<text text-anchor="start" x="152" y="-245.5" font-family="Helvetica,sans-Serif" font-size="10.00">+ BaseFunctor()</text>
<text text-anchor="start" x="152" y="-234.5" font-family="Helvetica,sans-Serif" font-size="10.00">+ GetFunctor()</text>
<text text-anchor="start" x="152" y="-223.5" font-family="Helvetica,sans-Serif" font-size="10.00">+ GetNorm()</text>
<text text-anchor="start" x="152" y="-212.5" font-family="Helvetica,sans-Serif" font-size="10.00">+ operator()()</text>
<text text-anchor="start" x="152" y="-201.5" font-family="Helvetica,sans-Serif" font-size="10.00">+ operator()()</text>
<text text-anchor="start" x="152" y="-190.5" font-family="Helvetica,sans-Serif" font-size="10.00">+ operator()()</text>
<text text-anchor="start" x="152" y="-179.5" font-family="Helvetica,sans-Serif" font-size="10.00">+ operator()()</text>
<text text-anchor="start" x="152" y="-168.5" font-family="Helvetica,sans-Serif" font-size="10.00">and 6 more...</text>
</a>
</g>
</g>
<!-- Node2&#45;&gt;Node5 -->
<g id="edge7" class="edge">
<title>Node2&#45;&gt;Node5</title>
<path fill="none" stroke="midnightblue" d="M218.63,-649.48C252.78,-584.89 292.72,-496.79 309,-413 311.8,-398.6 314,-393.79 309,-380 302.12,-361.02 290.69,-342.95 278.02,-326.93"/>
<polygon fill="none" stroke="midnightblue" points="215.47,-647.96 213.85,-658.43 221.65,-651.26 215.47,-647.96"/>
</g>
<!-- Node3 -->
<g id="node4" class="node">
<title>Node3</title>
<g id="a_node4"><a xlink:href="classhydra_1_1detail_1_1Parameters.html" target="_top" xlink:title="{hydra::detail::Parameters\&lt; N \&gt;\n|+ parameter_count\l|+ Parameters()\l+ Parameters()\l+ Parameters()\l+ Parameters()\l+ Parameters()\l+ AddUserParameters()\l+ GetNumberOfParameters()\l+ GetParameter()\l+ GetParameter()\l+ GetParameters()\land 11 more...\l}">
<polygon fill="none" stroke="black" points="86,-884.5 86,-1051.5 238,-1051.5 238,-884.5 86,-884.5"/>
<text text-anchor="middle" x="162" y="-1039.5" font-family="Helvetica,sans-Serif" font-size="10.00">hydra::detail::Parameters&lt; N &gt;</text>
<polyline fill="none" stroke="black" points="86,-1032.5 238,-1032.5 "/>
<text text-anchor="start" x="94" y="-1020.5" font-family="Helvetica,sans-Serif" font-size="10.00">+ parameter_count</text>
<polyline fill="none" stroke="black" points="86,-1013.5 238,-1013.5 "/>
<text text-anchor="start" x="94" y="-1001.5" font-family="Helvetica,sans-Serif" font-size="10.00">+ Parameters()</text>
<text text-anchor="start" x="94" y="-990.5" font-family="Helvetica,sans-Serif" font-size="10.00">+ Parameters()</text>
<text text-anchor="start" x="94" y="-979.5" font-family="Helvetica,sans-Serif" font-size="10.00">+ Parameters()</text>
<text text-anchor="start" x="94" y="-968.5" font-family="Helvetica,sans-Serif" font-size="10.00">+ Parameters()</text>
<text text-anchor="start" x="94" y="-957.5" font-family="Helvetica,sans-Serif" font-size="10.00">+ Parameters()</text>
<text text-anchor="start" x="94" y="-946.5" font-family="Helvetica,sans-Serif" font-size="10.00">+ AddUserParameters()</text>
<text text-anchor="start" x="94" y="-935.5" font-family="Helvetica,sans-Serif" font-size="10.00">+ GetNumberOfParameters()</text>
<text text-anchor="start" x="94" y="-924.5" font-family="Helvetica,sans-Serif" font-size="10.00">+ GetParameter()</text>
<text text-anchor="start" x="94" y="-913.5" font-family="Helvetica,sans-Serif" font-size="10.00">+ GetParameter()</text>
<text text-anchor="start" x="94" y="-902.5" font-family="Helvetica,sans-Serif" font-size="10.00">+ GetParameters()</text>
<text text-anchor="start" x="94" y="-891.5" font-family="Helvetica,sans-Serif" font-size="10.00">and 11 more...</text>
</a>
</g>
</g>
<!-- Node3&#45;&gt;Node2 -->
<g id="edge3" class="edge">
<title>Node3&#45;&gt;Node2</title>
<path fill="none" stroke="orange" d="M162,-874.07C162,-861.68 162,-849 162,-836.69"/>
<polygon fill="orange" stroke="orange" points="158.5,-874.39 162,-884.39 165.5,-874.39 158.5,-874.39"/>
<text text-anchor="middle" x="194" y="-858" font-family="Helvetica,sans-Serif" font-size="10.00"> &lt; NPARAM &gt;</text>
</g>
<!-- Node4&#45;&gt;Node1 -->
<g id="edge4" class="edge">
<title>Node4&#45;&gt;Node1</title>
<path fill="none" stroke="orange" d="M101.42,-466.46C88.4,-450.44 76.35,-432.16 69,-413 62.21,-395.3 58.78,-375.56 57.36,-356.34"/>
<polygon fill="orange" stroke="orange" points="98.76,-468.74 107.88,-474.14 104.12,-464.23 98.76,-468.74"/>
<text text-anchor="start" x="69" y="-399.5" font-family="Helvetica,sans-Serif" font-size="10.00"> &lt; NonResonant, hydra</text>
<text text-anchor="middle" x="124" y="-388.5" font-family="Helvetica,sans-Serif" font-size="10.00">::complex&lt; double &gt;, 2 &gt;</text>
</g>
<!-- Node4&#45;&gt;Node5 -->
<g id="edge8" class="edge">
<title>Node4&#45;&gt;Node5</title>
<path fill="none" stroke="orange" d="M181.32,-421.48C184.99,-401.87 188.81,-381.38 192.45,-361.9"/>
<polygon fill="orange" stroke="orange" points="177.88,-420.87 179.48,-431.34 184.76,-422.16 177.88,-420.87"/>
<text text-anchor="start" x="187" y="-405" font-family="Helvetica,sans-Serif" font-size="10.00"> &lt; NonResonant, hydra</text>
<text text-anchor="start" x="187" y="-394" font-family="Helvetica,sans-Serif" font-size="10.00">::complex&lt; double &gt;(Kaon,</text>
<text text-anchor="middle" x="246" y="-383" font-family="Helvetica,sans-Serif" font-size="10.00"> PionA, PionB), 2 &gt;</text>
</g>
<!-- Node5&#45;&gt;Node0 -->
<g id="edge6" class="edge">
<title>Node5&#45;&gt;Node0</title>
<path fill="none" stroke="midnightblue" d="M169.84,-152.1C166.14,-142.37 162.49,-132.77 159.04,-123.67"/>
<polygon fill="none" stroke="midnightblue" points="166.57,-153.35 173.39,-161.46 173.11,-150.87 166.57,-153.35"/>
</g>
</g>
</svg>
