<?xml version="1.0" encoding="UTF-8" standalone="no"?>
<!DOCTYPE svg PUBLIC "-//W3C//DTD SVG 1.1//EN"
 "http://www.w3.org/Graphics/SVG/1.1/DTD/svg11.dtd">
<!-- Generated by graphviz version 5.0.0 (0)
 -->
<!-- Title: Resonance&lt; L, Signature &gt; Pages: 1 -->
<svg width="641pt" height="1241pt"
 viewBox="0.00 0.00 640.74 1241.00" xmlns="http://www.w3.org/2000/svg" xmlns:xlink="http://www.w3.org/1999/xlink">
<g id="graph0" class="graph" transform="scale(1 1) rotate(0) translate(4 1237)">
<title>Resonance&lt; L, Signature &gt;</title>
<!-- Node6 -->
<g id="node1" class="node">
<title>Node6</title>
<polygon fill="#bfbfbf" stroke="black" points="137.74,-0.5 137.74,-189.5 274.74,-189.5 274.74,-0.5 137.74,-0.5"/>
<text text-anchor="middle" x="206.24" y="-177.5" font-family="Helvetica,sans-Serif" font-size="10.00">Resonance&lt; L, Signature &gt;</text>
<polyline fill="none" stroke="black" points="137.74,-170.5 274.74,-170.5 "/>
<text text-anchor="middle" x="206.24" y="-158.5" font-family="Helvetica,sans-Serif" font-size="10.00"> </text>
<polyline fill="none" stroke="black" points="137.74,-151.5 274.74,-151.5 "/>
<text text-anchor="start" x="145.74" y="-139.5" font-family="Helvetica,sans-Serif" font-size="10.00">+ Resonance()</text>
<text text-anchor="start" x="145.74" y="-128.5" font-family="Helvetica,sans-Serif" font-size="10.00">+ Resonance()</text>
<text text-anchor="start" x="145.74" y="-117.5" font-family="Helvetica,sans-Serif" font-size="10.00">+ Resonance()</text>
<text text-anchor="start" x="145.74" y="-106.5" font-family="Helvetica,sans-Serif" font-size="10.00">+ Resonance()</text>
<text text-anchor="start" x="145.74" y="-95.5" font-family="Helvetica,sans-Serif" font-size="10.00">+ Resonance()</text>
<text text-anchor="start" x="145.74" y="-84.5" font-family="Helvetica,sans-Serif" font-size="10.00">+ Resonance()</text>
<text text-anchor="start" x="145.74" y="-73.5" font-family="Helvetica,sans-Serif" font-size="10.00">+ Evaluate()</text>
<text text-anchor="start" x="145.74" y="-62.5" font-family="Helvetica,sans-Serif" font-size="10.00">+ Evaluate()</text>
<text text-anchor="start" x="145.74" y="-51.5" font-family="Helvetica,sans-Serif" font-size="10.00">+ GetLineShape()</text>
<text text-anchor="start" x="145.74" y="-40.5" font-family="Helvetica,sans-Serif" font-size="10.00">+ GetLineShape()</text>
<text text-anchor="start" x="145.74" y="-29.5" font-family="Helvetica,sans-Serif" font-size="10.00">+ operator=()</text>
<text text-anchor="start" x="145.74" y="-18.5" font-family="Helvetica,sans-Serif" font-size="10.00">+ operator=()</text>
<text text-anchor="start" x="145.74" y="-7.5" font-family="Helvetica,sans-Serif" font-size="10.00">+ Update()</text>
</g>
<!-- Node7 -->
<g id="node2" class="node">
<title>Node7</title>
<g id="a_node2"><a xlink:href="group__functor.html" target="_top" xlink:title="{hydra::BaseFunctor\l\&lt; Resonance\&lt; L \&gt;, hydra\l::complex\&lt; double \&gt;(Kaon,\l PionA, PionB), 4 \&gt;\n||+ BaseFunctor()\l+ BaseFunctor()\l+ BaseFunctor()\l+ BaseFunctor()\l+ GetFunctor()\l+ GetNorm()\l+ operator()()\l+ operator()()\l+ operator()()\l+ operator()()\land 6 more...\l}">
<polygon fill="none" stroke="black" points="56.24,-227.5 56.24,-427.5 190.24,-427.5 190.24,-227.5 56.24,-227.5"/>
<text text-anchor="start" x="64.24" y="-415.5" font-family="Helvetica,sans-Serif" font-size="10.00">hydra::BaseFunctor</text>
<text text-anchor="start" x="64.24" y="-404.5" font-family="Helvetica,sans-Serif" font-size="10.00">&lt; Resonance&lt; L &gt;, hydra</text>
<text text-anchor="start" x="64.24" y="-393.5" font-family="Helvetica,sans-Serif" font-size="10.00">::complex&lt; double &gt;(Kaon,</text>
<text text-anchor="middle" x="123.24" y="-382.5" font-family="Helvetica,sans-Serif" font-size="10.00"> PionA, PionB), 4 &gt;</text>
<polyline fill="none" stroke="black" points="56.24,-375.5 190.24,-375.5 "/>
<text text-anchor="middle" x="123.24" y="-363.5" font-family="Helvetica,sans-Serif" font-size="10.00"> </text>
<polyline fill="none" stroke="black" points="56.24,-356.5 190.24,-356.5 "/>
<text text-anchor="start" x="64.24" y="-344.5" font-family="Helvetica,sans-Serif" font-size="10.00">+ BaseFunctor()</text>
<text text-anchor="start" x="64.24" y="-333.5" font-family="Helvetica,sans-Serif" font-size="10.00">+ BaseFunctor()</text>
<text text-anchor="start" x="64.24" y="-322.5" font-family="Helvetica,sans-Serif" font-size="10.00">+ BaseFunctor()</text>
<text text-anchor="start" x="64.24" y="-311.5" font-family="Helvetica,sans-Serif" font-size="10.00">+ BaseFunctor()</text>
<text text-anchor="start" x="64.24" y="-300.5" font-family="Helvetica,sans-Serif" font-size="10.00">+ GetFunctor()</text>
<text text-anchor="start" x="64.24" y="-289.5" font-family="Helvetica,sans-Serif" font-size="10.00">+ GetNorm()</text>
<text text-anchor="start" x="64.24" y="-278.5" font-family="Helvetica,sans-Serif" font-size="10.00">+ operator()()</text>
<text text-anchor="start" x="64.24" y="-267.5" font-family="Helvetica,sans-Serif" font-size="10.00">+ operator()()</text>
<text text-anchor="start" x="64.24" y="-256.5" font-family="Helvetica,sans-Serif" font-size="10.00">+ operator()()</text>
<text text-anchor="start" x="64.24" y="-245.5" font-family="Helvetica,sans-Serif" font-size="10.00">+ operator()()</text>
<text text-anchor="start" x="64.24" y="-234.5" font-family="Helvetica,sans-Serif" font-size="10.00">and 6 more...</text>
</a>
</g>
</g>
<!-- Node7&#45;&gt;Node6 -->
<g id="edge1" class="edge">
<title>Node7&#45;&gt;Node6</title>
<path fill="none" stroke="midnightblue" d="M162.33,-217.94C165.75,-208.45 169.19,-198.89 172.56,-189.54"/>
<polygon fill="none" stroke="midnightblue" points="159.02,-216.82 158.92,-227.41 165.61,-219.19 159.02,-216.82"/>
</g>
<!-- Node8 -->
<g id="node3" class="node">
<title>Node8</title>
<g id="a_node3"><a xlink:href="classhydra_1_1detail_1_1Parameters.html" target="_top" xlink:title="{hydra::detail::Parameters\l\&lt; NPARAM \&gt;\n||+ Parameters()\l+ Parameters()\l+ Parameters()\l+ Parameters()\l+ Parameters()\l+ AddUserParameters()\l+ GetNumberOfParameters()\l+ GetParameter()\l+ GetParameter()\l+ GetParameters()\land 12 more...\l}">
<polygon fill="none" stroke="black" points="304.74,-734.5 304.74,-912.5 447.74,-912.5 447.74,-734.5 304.74,-734.5"/>
<text text-anchor="start" x="312.74" y="-900.5" font-family="Helvetica,sans-Serif" font-size="10.00">hydra::detail::Parameters</text>
<text text-anchor="middle" x="376.24" y="-889.5" font-family="Helvetica,sans-Serif" font-size="10.00">&lt; NPARAM &gt;</text>
<polyline fill="none" stroke="black" points="304.74,-882.5 447.74,-882.5 "/>
<text text-anchor="middle" x="376.24" y="-870.5" font-family="Helvetica,sans-Serif" font-size="10.00"> </text>
<polyline fill="none" stroke="black" points="304.74,-863.5 447.74,-863.5 "/>
<text text-anchor="start" x="312.74" y="-851.5" font-family="Helvetica,sans-Serif" font-size="10.00">+ Parameters()</text>
<text text-anchor="start" x="312.74" y="-840.5" font-family="Helvetica,sans-Serif" font-size="10.00">+ Parameters()</text>
<text text-anchor="start" x="312.74" y="-829.5" font-family="Helvetica,sans-Serif" font-size="10.00">+ Parameters()</text>
<text text-anchor="start" x="312.74" y="-818.5" font-family="Helvetica,sans-Serif" font-size="10.00">+ Parameters()</text>
<text text-anchor="start" x="312.74" y="-807.5" font-family="Helvetica,sans-Serif" font-size="10.00">+ Parameters()</text>
<text text-anchor="start" x="312.74" y="-796.5" font-family="Helvetica,sans-Serif" font-size="10.00">+ AddUserParameters()</text>
<text text-anchor="start" x="312.74" y="-785.5" font-family="Helvetica,sans-Serif" font-size="10.00">+ GetNumberOfParameters()</text>
<text text-anchor="start" x="312.74" y="-774.5" font-family="Helvetica,sans-Serif" font-size="10.00">+ GetParameter()</text>
<text text-anchor="start" x="312.74" y="-763.5" font-family="Helvetica,sans-Serif" font-size="10.00">+ GetParameter()</text>
<text text-anchor="start" x="312.74" y="-752.5" font-family="Helvetica,sans-Serif" font-size="10.00">+ GetParameters()</text>
<text text-anchor="start" x="312.74" y="-741.5" font-family="Helvetica,sans-Serif" font-size="10.00">and 12 more...</text>
</a>
</g>
</g>
<!-- Node8&#45;&gt;Node7 -->
<g id="edge2" class="edge">
<title>Node8&#45;&gt;Node7</title>
<path fill="none" stroke="midnightblue" d="M295.84,-734.33C295.64,-734.22 295.44,-734.11 295.24,-734 190.82,-676.56 107.77,-778.36 31.24,-687 -30.24,-613.61 11.02,-504.2 56.24,-425.57"/>
<polygon fill="none" stroke="midnightblue" points="294.29,-737.49 304.64,-739.76 297.97,-731.53 294.29,-737.49"/>
</g>
<!-- Node13 -->
<g id="node8" class="node">
<title>Node13</title>
<g id="a_node8"><a xlink:href="group__functor.html#classhydra_1_1BaseFunctor" target="_top" xlink:title="Base class for all functors in hydra. ">
<polygon fill="none" stroke="black" points="217.24,-497.5 217.24,-686.5 325.24,-686.5 325.24,-497.5 217.24,-497.5"/>
<text text-anchor="start" x="225.24" y="-674.5" font-family="Helvetica,sans-Serif" font-size="10.00">hydra::BaseFunctor</text>
<text text-anchor="start" x="225.24" y="-663.5" font-family="Helvetica,sans-Serif" font-size="10.00">&lt; Functor, Signature,</text>
<text text-anchor="middle" x="271.24" y="-652.5" font-family="Helvetica,sans-Serif" font-size="10.00"> NPARAM &gt;</text>
<polyline fill="none" stroke="black" points="217.24,-645.5 325.24,-645.5 "/>
<text text-anchor="middle" x="271.24" y="-633.5" font-family="Helvetica,sans-Serif" font-size="10.00"> </text>
<polyline fill="none" stroke="black" points="217.24,-626.5 325.24,-626.5 "/>
<text text-anchor="start" x="225.24" y="-614.5" font-family="Helvetica,sans-Serif" font-size="10.00">+ BaseFunctor()</text>
<text text-anchor="start" x="225.24" y="-603.5" font-family="Helvetica,sans-Serif" font-size="10.00">+ BaseFunctor()</text>
<text text-anchor="start" x="225.24" y="-592.5" font-family="Helvetica,sans-Serif" font-size="10.00">+ BaseFunctor()</text>
<text text-anchor="start" x="225.24" y="-581.5" font-family="Helvetica,sans-Serif" font-size="10.00">+ BaseFunctor()</text>
<text text-anchor="start" x="225.24" y="-570.5" font-family="Helvetica,sans-Serif" font-size="10.00">+ GetFunctor()</text>
<text text-anchor="start" x="225.24" y="-559.5" font-family="Helvetica,sans-Serif" font-size="10.00">+ GetNorm()</text>
<text text-anchor="start" x="225.24" y="-548.5" font-family="Helvetica,sans-Serif" font-size="10.00">+ operator()()</text>
<text text-anchor="start" x="225.24" y="-537.5" font-family="Helvetica,sans-Serif" font-size="10.00">+ operator()()</text>
<text text-anchor="start" x="225.24" y="-526.5" font-family="Helvetica,sans-Serif" font-size="10.00">+ operator()()</text>
<text text-anchor="start" x="225.24" y="-515.5" font-family="Helvetica,sans-Serif" font-size="10.00">+ operator()()</text>
<text text-anchor="start" x="225.24" y="-504.5" font-family="Helvetica,sans-Serif" font-size="10.00">and 6 more...</text>
</a>
</g>
</g>
<!-- Node8&#45;&gt;Node13 -->
<g id="edge8" class="edge">
<title>Node8&#45;&gt;Node13</title>
<path fill="none" stroke="midnightblue" d="M331.71,-725.17C325.86,-712.38 319.87,-699.28 314.05,-686.55"/>
<polygon fill="none" stroke="midnightblue" points="328.61,-726.79 335.95,-734.43 334.97,-723.88 328.61,-726.79"/>
</g>
<!-- Node15 -->
<g id="node10" class="node">
<title>Node15</title>
<g id="a_node10"><a xlink:href="group__functor.html" target="_top" xlink:title="{hydra::BaseFunctor\l\&lt; Resonance\&lt; L \&gt;, Signature, 4 \&gt;\n||+ BaseFunctor()\l+ BaseFunctor()\l+ BaseFunctor()\l+ BaseFunctor()\l+ GetFunctor()\l+ GetNorm()\l+ operator()()\l+ operator()()\l+ operator()()\l+ operator()()\land 6 more...\l}">
<polygon fill="none" stroke="black" points="220.74,-238.5 220.74,-416.5 385.74,-416.5 385.74,-238.5 220.74,-238.5"/>
<text text-anchor="start" x="228.74" y="-404.5" font-family="Helvetica,sans-Serif" font-size="10.00">hydra::BaseFunctor</text>
<text text-anchor="middle" x="303.24" y="-393.5" font-family="Helvetica,sans-Serif" font-size="10.00">&lt; Resonance&lt; L &gt;, Signature, 4 &gt;</text>
<polyline fill="none" stroke="black" points="220.74,-386.5 385.74,-386.5 "/>
<text text-anchor="middle" x="303.24" y="-374.5" font-family="Helvetica,sans-Serif" font-size="10.00"> </text>
<polyline fill="none" stroke="black" points="220.74,-367.5 385.74,-367.5 "/>
<text text-anchor="start" x="228.74" y="-355.5" font-family="Helvetica,sans-Serif" font-size="10.00">+ BaseFunctor()</text>
<text text-anchor="start" x="228.74" y="-344.5" font-family="Helvetica,sans-Serif" font-size="10.00">+ BaseFunctor()</text>
<text text-anchor="start" x="228.74" y="-333.5" font-family="Helvetica,sans-Serif" font-size="10.00">+ BaseFunctor()</text>
<text text-anchor="start" x="228.74" y="-322.5" font-family="Helvetica,sans-Serif" font-size="10.00">+ BaseFunctor()</text>
<text text-anchor="start" x="228.74" y="-311.5" font-family="Helvetica,sans-Serif" font-size="10.00">+ GetFunctor()</text>
<text text-anchor="start" x="228.74" y="-300.5" font-family="Helvetica,sans-Serif" font-size="10.00">+ GetNorm()</text>
<text text-anchor="start" x="228.74" y="-289.5" font-family="Helvetica,sans-Serif" font-size="10.00">+ operator()()</text>
<text text-anchor="start" x="228.74" y="-278.5" font-family="Helvetica,sans-Serif" font-size="10.00">+ operator()()</text>
<text text-anchor="start" x="228.74" y="-267.5" font-family="Helvetica,sans-Serif" font-size="10.00">+ operator()()</text>
<text text-anchor="start" x="228.74" y="-256.5" font-family="Helvetica,sans-Serif" font-size="10.00">+ operator()()</text>
<text text-anchor="start" x="228.74" y="-245.5" font-family="Helvetica,sans-Serif" font-size="10.00">and 6 more...</text>
</a>
</g>
</g>
<!-- Node8&#45;&gt;Node15 -->
<g id="edge11" class="edge">
<title>Node8&#45;&gt;Node15</title>
<path fill="none" stroke="midnightblue" d="M421.55,-724.88C451.16,-646.4 477.56,-534.97 437.24,-446 425.94,-421.06 406.44,-399.32 385.76,-381.55"/>
<polygon fill="none" stroke="midnightblue" points="418.26,-723.7 417.93,-734.29 424.79,-726.21 418.26,-723.7"/>
</g>
<!-- Node9 -->
<g id="node4" class="node">
<title>Node9</title>
<g id="a_node4"><a xlink:href="namespace_3globalScope_4.html#classstatic_01const_01size__t" target="_top" xlink:title="{static const size_t\n||}">
<polygon fill="none" stroke="black" points="265.74,-1015.5 265.74,-1072.5 362.74,-1072.5 362.74,-1015.5 265.74,-1015.5"/>
<text text-anchor="middle" x="314.24" y="-1060.5" font-family="Helvetica,sans-Serif" font-size="10.00">static const size_t</text>
<polyline fill="none" stroke="black" points="265.74,-1053.5 362.74,-1053.5 "/>
<text text-anchor="middle" x="314.24" y="-1041.5" font-family="Helvetica,sans-Serif" font-size="10.00"> </text>
<polyline fill="none" stroke="black" points="265.74,-1034.5 362.74,-1034.5 "/>
<text text-anchor="middle" x="314.24" y="-1022.5" font-family="Helvetica,sans-Serif" font-size="10.00"> </text>
</a>
</g>
</g>
<!-- Node9&#45;&gt;Node8 -->
<g id="edge3" class="edge">
<title>Node9&#45;&gt;Node8</title>
<path fill="none" stroke="#404040" d="M317.6,-1015.5C320.76,-992.61 326.22,-959.32 334.24,-931 334.88,-928.74 335.55,-926.46 336.25,-924.18"/>
<polygon fill="none" stroke="#404040" points="336.28,-924.09 334.3,-917.16 339.93,-912.66 341.92,-919.6 336.28,-924.09"/>
<text text-anchor="middle" x="375.24" y="-934" font-family="Helvetica,sans-Serif" font-size="10.00"> +parameter_count</text>
</g>
<!-- Node10 -->
<g id="node5" class="node">
<title>Node10</title>
<g id="a_node5"><a xlink:href="classhydra_1_1detail_1_1Parameters.html" target="_top" xlink:title="{hydra::detail::Parameters\&lt; N \&gt;\n||+ Parameters()\l+ Parameters()\l+ Parameters()\l+ Parameters()\l+ Parameters()\l+ AddUserParameters()\l+ GetNumberOfParameters()\l+ GetParameter()\l+ GetParameter()\l+ GetParameters()\land 12 more...\l}">
<polygon fill="none" stroke="black" points="381.24,-960.5 381.24,-1127.5 533.24,-1127.5 533.24,-960.5 381.24,-960.5"/>
<text text-anchor="middle" x="457.24" y="-1115.5" font-family="Helvetica,sans-Serif" font-size="10.00">hydra::detail::Parameters&lt; N &gt;</text>
<polyline fill="none" stroke="black" points="381.24,-1108.5 533.24,-1108.5 "/>
<text text-anchor="middle" x="457.24" y="-1096.5" font-family="Helvetica,sans-Serif" font-size="10.00"> </text>
<polyline fill="none" stroke="black" points="381.24,-1089.5 533.24,-1089.5 "/>
<text text-anchor="start" x="389.24" y="-1077.5" font-family="Helvetica,sans-Serif" font-size="10.00">+ Parameters()</text>
<text text-anchor="start" x="389.24" y="-1066.5" font-family="Helvetica,sans-Serif" font-size="10.00">+ Parameters()</text>
<text text-anchor="start" x="389.24" y="-1055.5" font-family="Helvetica,sans-Serif" font-size="10.00">+ Parameters()</text>
<text text-anchor="start" x="389.24" y="-1044.5" font-family="Helvetica,sans-Serif" font-size="10.00">+ Parameters()</text>
<text text-anchor="start" x="389.24" y="-1033.5" font-family="Helvetica,sans-Serif" font-size="10.00">+ Parameters()</text>
<text text-anchor="start" x="389.24" y="-1022.5" font-family="Helvetica,sans-Serif" font-size="10.00">+ AddUserParameters()</text>
<text text-anchor="start" x="389.24" y="-1011.5" font-family="Helvetica,sans-Serif" font-size="10.00">+ GetNumberOfParameters()</text>
<text text-anchor="start" x="389.24" y="-1000.5" font-family="Helvetica,sans-Serif" font-size="10.00">+ GetParameter()</text>
<text text-anchor="start" x="389.24" y="-989.5" font-family="Helvetica,sans-Serif" font-size="10.00">+ GetParameter()</text>
<text text-anchor="start" x="389.24" y="-978.5" font-family="Helvetica,sans-Serif" font-size="10.00">+ GetParameters()</text>
<text text-anchor="start" x="389.24" y="-967.5" font-family="Helvetica,sans-Serif" font-size="10.00">and 12 more...</text>
</a>
</g>
</g>
<!-- Node10&#45;&gt;Node8 -->
<g id="edge4" class="edge">
<title>Node10&#45;&gt;Node8</title>
<path fill="none" stroke="orange" d="M423.5,-950.64C421.05,-943.99 418.61,-937.39 416.24,-931 414.01,-924.98 411.7,-918.77 409.37,-912.52"/>
<polygon fill="orange" stroke="orange" points="420.36,-952.22 427.09,-960.4 426.92,-949.81 420.36,-952.22"/>
<text text-anchor="middle" x="451.24" y="-934" font-family="Helvetica,sans-Serif" font-size="10.00"> &lt; NPARAM &gt;</text>
</g>
<!-- Node11 -->
<g id="node6" class="node">
<title>Node11</title>
<polygon fill="none" stroke="#bfbfbf" points="435.74,-1175.5 435.74,-1232.5 478.74,-1232.5 478.74,-1175.5 435.74,-1175.5"/>
<text text-anchor="middle" x="457.24" y="-1220.5" font-family="Helvetica,sans-Serif" font-size="10.00">size_t</text>
<polyline fill="none" stroke="#bfbfbf" points="435.74,-1213.5 478.74,-1213.5 "/>
<text text-anchor="middle" x="457.24" y="-1201.5" font-family="Helvetica,sans-Serif" font-size="10.00"> </text>
<polyline fill="none" stroke="#bfbfbf" points="435.74,-1194.5 478.74,-1194.5 "/>
<text text-anchor="middle" x="457.24" y="-1182.5" font-family="Helvetica,sans-Serif" font-size="10.00"> </text>
</g>
<!-- Node11&#45;&gt;Node10 -->
<g id="edge5" class="edge">
<title>Node11&#45;&gt;Node10</title>
<path fill="none" stroke="#404040" d="M457.24,-1175.48C457.24,-1165.12 457.24,-1152.67 457.24,-1139.63"/>
<polygon fill="none" stroke="#404040" points="457.24,-1139.54 453.24,-1133.54 457.24,-1127.54 461.24,-1133.54 457.24,-1139.54"/>
<text text-anchor="middle" x="498.24" y="-1149" font-family="Helvetica,sans-Serif" font-size="10.00"> +parameter_count</text>
</g>
<!-- Node12 -->
<g id="node7" class="node">
<title>Node12</title>
<g id="a_node7"><a xlink:href="namespace_3globalScope_4.html#classBaseFunctor_3_01Resonance_3_01L_01_4_00_01hydra_1_1complex_3_01double_01_4_00_01NPARAM_01_4_01_6" target="_top" xlink:title="{BaseFunctor\&lt; Resonance\l\&lt; L \&gt;, hydra::complex\l\&lt; double \&gt;, NPARAM \&gt; &amp;\n||}">
<polygon fill="none" stroke="black" points="40.74,-552.5 40.74,-631.5 171.74,-631.5 171.74,-552.5 40.74,-552.5"/>
<text text-anchor="start" x="48.74" y="-619.5" font-family="Helvetica,sans-Serif" font-size="10.00">BaseFunctor&lt; Resonance</text>
<text text-anchor="start" x="48.74" y="-608.5" font-family="Helvetica,sans-Serif" font-size="10.00">&lt; L &gt;, hydra::complex</text>
<text text-anchor="middle" x="106.24" y="-597.5" font-family="Helvetica,sans-Serif" font-size="10.00">&lt; double &gt;, NPARAM &gt; &amp;</text>
<polyline fill="none" stroke="black" points="40.74,-590.5 171.74,-590.5 "/>
<text text-anchor="middle" x="106.24" y="-578.5" font-family="Helvetica,sans-Serif" font-size="10.00"> </text>
<polyline fill="none" stroke="black" points="40.74,-571.5 171.74,-571.5 "/>
<text text-anchor="middle" x="106.24" y="-559.5" font-family="Helvetica,sans-Serif" font-size="10.00"> </text>
</a>
</g>
</g>
<!-- Node12&#45;&gt;Node7 -->
<g id="edge6" class="edge">
<title>Node12&#45;&gt;Node7</title>
<path fill="none" stroke="#404040" d="M98.3,-552.45C93.35,-523.19 88.72,-481.99 93.24,-446 93.52,-443.82 93.82,-441.63 94.14,-439.42"/>
<polygon fill="none" stroke="#404040" points="94.15,-439.37 91.18,-432.8 96.11,-427.53 99.08,-434.1 94.15,-439.37"/>
<text text-anchor="middle" x="107.24" y="-460" font-family="Helvetica,sans-Serif" font-size="10.00"> #_par</text>
</g>
<!-- Node13&#45;&gt;Node7 -->
<g id="edge7" class="edge">
<title>Node13&#45;&gt;Node7</title>
<path fill="none" stroke="orange" d="M209.97,-524.94C200.53,-515.38 190.76,-505.8 181.24,-497 171.97,-488.42 165.95,-489.7 159.24,-479 149.54,-463.52 142.45,-445.65 137.27,-427.74"/>
<polygon fill="orange" stroke="orange" points="207.61,-527.54 217.1,-532.24 212.61,-522.65 207.61,-527.54"/>
<text text-anchor="start" x="159.24" y="-471" font-family="Helvetica,sans-Serif" font-size="10.00"> &lt; Resonance&lt; L &gt;, hydra</text>
<text text-anchor="start" x="159.24" y="-460" font-family="Helvetica,sans-Serif" font-size="10.00">::complex&lt; double &gt;(Kaon,</text>
<text text-anchor="middle" x="218.24" y="-449" font-family="Helvetica,sans-Serif" font-size="10.00"> PionA, PionB), 4 &gt;</text>
</g>
<!-- Node13&#45;&gt;Node15 -->
<g id="edge13" class="edge">
<title>Node13&#45;&gt;Node15</title>
<path fill="none" stroke="orange" d="M280.55,-487.25C282.01,-473.37 283.58,-459.33 285.24,-446 286.43,-436.48 287.78,-426.54 289.2,-416.65"/>
<polygon fill="orange" stroke="orange" points="277.06,-487.01 279.52,-497.32 284.02,-487.73 277.06,-487.01"/>
<text text-anchor="middle" x="361.24" y="-460" font-family="Helvetica,sans-Serif" font-size="10.00"> &lt; Resonance&lt; L &gt;, Signature, 4 &gt;</text>
</g>
<!-- Node14 -->
<g id="node9" class="node">
<title>Node14</title>
<polygon fill="none" stroke="#bfbfbf" points="158.24,-789.5 158.24,-857.5 286.24,-857.5 286.24,-789.5 158.24,-789.5"/>
<text text-anchor="start" x="166.24" y="-845.5" font-family="Helvetica,sans-Serif" font-size="10.00">BaseFunctor&lt; Functor,</text>
<text text-anchor="middle" x="222.24" y="-834.5" font-family="Helvetica,sans-Serif" font-size="10.00"> Signature, NPARAM &gt; &amp;</text>
<polyline fill="none" stroke="#bfbfbf" points="158.24,-827.5 286.24,-827.5 "/>
<text text-anchor="middle" x="222.24" y="-815.5" font-family="Helvetica,sans-Serif" font-size="10.00"> </text>
<polyline fill="none" stroke="#bfbfbf" points="158.24,-808.5 286.24,-808.5 "/>
<text text-anchor="middle" x="222.24" y="-796.5" font-family="Helvetica,sans-Serif" font-size="10.00"> </text>
</g>
<!-- Node14&#45;&gt;Node13 -->
<g id="edge9" class="edge">
<title>Node14&#45;&gt;Node13</title>
<path fill="none" stroke="#404040" d="M229.37,-789.13C234.49,-765.16 241.69,-731.42 248.68,-698.68"/>
<polygon fill="none" stroke="#404040" points="248.74,-698.42 246.08,-691.72 251.24,-686.68 253.9,-693.39 248.74,-698.42"/>
<text text-anchor="middle" x="260.24" y="-708" font-family="Helvetica,sans-Serif" font-size="10.00"> #_par</text>
</g>
<!-- Node15&#45;&gt;Node6 -->
<g id="edge10" class="edge">
<title>Node15&#45;&gt;Node6</title>
<path fill="none" stroke="midnightblue" d="M262.21,-228.99C256.75,-216.02 251.16,-202.74 245.73,-189.83"/>
<polygon fill="none" stroke="midnightblue" points="259.05,-230.51 266.16,-238.37 265.5,-227.8 259.05,-230.51"/>
</g>
<!-- Node16 -->
<g id="node11" class="node">
<title>Node16</title>
<g id="a_node11"><a xlink:href="namespace_3globalScope_4.html#classBaseFunctor_3_01Resonance_3_01L_01_4_00_01Signature_00_01NPARAM_01_4_01_6" target="_top" xlink:title="{BaseFunctor\&lt; Resonance\l\&lt; L \&gt;, Signature, NPARAM \&gt; &amp;\n||}">
<polygon fill="none" stroke="black" points="479.74,-558 479.74,-626 632.74,-626 632.74,-558 479.74,-558"/>
<text text-anchor="start" x="487.74" y="-614" font-family="Helvetica,sans-Serif" font-size="10.00">BaseFunctor&lt; Resonance</text>
<text text-anchor="middle" x="556.24" y="-603" font-family="Helvetica,sans-Serif" font-size="10.00">&lt; L &gt;, Signature, NPARAM &gt; &amp;</text>
<polyline fill="none" stroke="black" points="479.74,-596 632.74,-596 "/>
<text text-anchor="middle" x="556.24" y="-584" font-family="Helvetica,sans-Serif" font-size="10.00"> </text>
<polyline fill="none" stroke="black" points="479.74,-577 632.74,-577 "/>
<text text-anchor="middle" x="556.24" y="-565" font-family="Helvetica,sans-Serif" font-size="10.00"> </text>
</a>
</g>
</g>
<!-- Node16&#45;&gt;Node15 -->
<g id="edge12" class="edge">
<title>Node16&#45;&gt;Node15</title>
<path fill="none" stroke="#404040" d="M540.09,-557.71C523.95,-526.6 497.01,-479.97 465.24,-446 444.91,-424.25 420.03,-403.9 395.94,-386.44"/>
<polygon fill="none" stroke="#404040" points="395.82,-386.35 388.61,-386.13 386.04,-379.4 393.25,-379.62 395.82,-386.35"/>
<text text-anchor="middle" x="505.24" y="-460" font-family="Helvetica,sans-Serif" font-size="10.00"> #_par</text>
</g>
</g>
</svg>
