<?xml version="1.0" encoding="UTF-8" standalone="no"?>
<!DOCTYPE svg PUBLIC "-//W3C//DTD SVG 1.1//EN"
 "http://www.w3.org/Graphics/SVG/1.1/DTD/svg11.dtd">
<!-- Generated by graphviz version 2.42.4 (0)
 -->
<!-- Title: hydra::detail::AddPdfChecker&lt; PDF1, PDF2, PDFs &gt; Pages: 1 -->
<!--zoomable 515 -->
<svg id="main" version="1.1" xmlns="http://www.w3.org/2000/svg" xmlns:xlink="http://www.w3.org/1999/xlink" xml:space="preserve" onload="init(evt)">
<style type="text/css"><![CDATA[
.edge:hover path { stroke: red; }
.edge:hover polygon { stroke: red; fill: red; }
]]></style>
<script type="text/javascript"><![CDATA[
var edges = document.getElementsByTagName('g');
if (edges && edges.length) {
  for (var i=0;i<edges.length;i++) {
    if (edges[i].id.substr(0,4)=='edge') {
      edges[i].setAttribute('class','edge');
    }
  }
}
]]></script>
        <defs>
                <circle id="rim" cx="0" cy="0" r="7"/>
                <circle id="rim2" cx="0" cy="0" r="3.5"/>
                <g id="zoomPlus">
                        <use xlink:href="#rim" fill="#404040">
                                <set attributeName="fill" to="#808080" begin="zoomplus.mouseover" end="zoomplus.mouseout"/>
                        </use>
                        <path d="M-4,0h8M0,-4v8" fill="none" stroke="white" stroke-width="1.5" pointer-events="none"/>
                </g>
                <g id="zoomMin">
                        <use xlink:href="#rim" fill="#404040">
                                <set attributeName="fill" to="#808080" begin="zoomminus.mouseover" end="zoomminus.mouseout"/>
                        </use>
                        <path d="M-4,0h8" fill="none" stroke="white" stroke-width="1.5" pointer-events="none"/>
                </g>
                <g id="dirArrow">
                        <path fill="none" stroke="white" stroke-width="1.5" d="M0,-3.0v7 M-2.5,-0.5L0,-3.0L2.5,-0.5"/>
                </g>
               <g id="resetDef">
                       <use xlink:href="#rim2" fill="#404040">
                               <set attributeName="fill" to="#808080" begin="reset.mouseover" end="reset.mouseout"/>
                       </use>
               </g>
        </defs>

<script type="text/javascript">
var viewWidth = 235;
var viewHeight = 515;
var sectionId = 'dynsection-0';
</script>
<script xlink:href="svgpan.js"/>
<svg id="graph" class="graph">
<g id="viewport">
<title>hydra::detail::AddPdfChecker&lt; PDF1, PDF2, PDFs &gt;</title>
<!-- Node0 -->
<g id="node1" class="node">
<title>Node0</title>
<polygon fill="#bfbfbf" stroke="black" points="4.5,-0.5 4.5,-68.5 149.5,-68.5 149.5,-0.5 4.5,-0.5"/>
<text text-anchor="start" x="12.5" y="-56.5" font-family="Helvetica,sans-Serif" font-size="10.00">hydra::detail::AddPdfChecker</text>
<text text-anchor="middle" x="77" y="-45.5" font-family="Helvetica,sans-Serif" font-size="10.00">&lt; PDF1, PDF2, PDFs &gt;</text>
<polyline fill="none" stroke="black" points="4.5,-38.5 149.5,-38.5 "/>
<text text-anchor="middle" x="77" y="-26.5" font-family="Helvetica,sans-Serif" font-size="10.00"> </text>
<polyline fill="none" stroke="black" points="4.5,-19.5 149.5,-19.5 "/>
<text text-anchor="middle" x="77" y="-7.5" font-family="Helvetica,sans-Serif" font-size="10.00"> </text>
</g>
<!-- Node1 -->
<g id="node2" class="node">
<title>Node1</title>
<g id="a_node2"><a xlink:href="structhydra_1_1detail_1_1all__true.html" target="_top" xlink:title="{hydra::detail::all\l_true\&lt; detail::is_hydra\l_pdf\&lt; PDF1 \&gt;::value, detail\l::is_hydra_pdf\&lt; PDF2 \&gt;::value,\l detail::is_hydra_pdf\&lt; PDFs \&gt;\l::value... \&gt;\n||}">
<polygon fill="none" stroke="black" points="0,-106.5 0,-218.5 154,-218.5 154,-106.5 0,-106.5"/>
<text text-anchor="start" x="8" y="-206.5" font-family="Helvetica,sans-Serif" font-size="10.00">hydra::detail::all</text>
<text text-anchor="start" x="8" y="-195.5" font-family="Helvetica,sans-Serif" font-size="10.00">_true&lt; detail::is_hydra</text>
<text text-anchor="start" x="8" y="-184.5" font-family="Helvetica,sans-Serif" font-size="10.00">_pdf&lt; PDF1 &gt;::value, detail</text>
<text text-anchor="start" x="8" y="-173.5" font-family="Helvetica,sans-Serif" font-size="10.00">::is_hydra_pdf&lt; PDF2 &gt;::value,</text>
<text text-anchor="start" x="8" y="-162.5" font-family="Helvetica,sans-Serif" font-size="10.00"> detail::is_hydra_pdf&lt; PDFs &gt;</text>
<text text-anchor="middle" x="77" y="-151.5" font-family="Helvetica,sans-Serif" font-size="10.00">::value... &gt;</text>
<polyline fill="none" stroke="black" points="0,-144.5 154,-144.5 "/>
<text text-anchor="middle" x="77" y="-132.5" font-family="Helvetica,sans-Serif" font-size="10.00"> </text>
<polyline fill="none" stroke="black" points="0,-125.5 154,-125.5 "/>
<text text-anchor="middle" x="77" y="-113.5" font-family="Helvetica,sans-Serif" font-size="10.00"> </text>
</a>
</g>
</g>
<!-- Node1&#45;&gt;Node0 -->
<g id="edge1" class="edge">
<title>Node1&#45;&gt;Node0</title>
<path fill="none" stroke="midnightblue" d="M77,-95.96C77,-86.48 77,-77.08 77,-68.62"/>
<polygon fill="none" stroke="midnightblue" points="73.5,-96.23 77,-106.23 80.5,-96.23 73.5,-96.23"/>
</g>
<!-- Node2 -->
<g id="node3" class="node">
<title>Node2</title>
<polygon fill="none" stroke="#bfbfbf" points="5,-427.5 5,-506.5 141,-506.5 141,-427.5 5,-427.5"/>
<text text-anchor="start" x="13" y="-494.5" font-family="Helvetica,sans-Serif" font-size="10.00">std::is_same&lt; bool</text>
<text text-anchor="start" x="13" y="-483.5" font-family="Helvetica,sans-Serif" font-size="10.00">_pack&lt; bs..., true &gt;</text>
<text text-anchor="middle" x="73" y="-472.5" font-family="Helvetica,sans-Serif" font-size="10.00">, bool_pack&lt; true, bs... &gt; &gt;</text>
<polyline fill="none" stroke="#bfbfbf" points="5,-465.5 141,-465.5 "/>
<text text-anchor="middle" x="73" y="-453.5" font-family="Helvetica,sans-Serif" font-size="10.00"> </text>
<polyline fill="none" stroke="#bfbfbf" points="5,-446.5 141,-446.5 "/>
<text text-anchor="middle" x="73" y="-434.5" font-family="Helvetica,sans-Serif" font-size="10.00"> </text>
</g>
<!-- Node2&#45;&gt;Node1 -->
<g id="edge2" class="edge">
<title>Node2&#45;&gt;Node1</title>
<path fill="none" stroke="midnightblue" d="M73.64,-417.31C74.36,-362.99 75.52,-275.3 76.27,-218.53"/>
<polygon fill="none" stroke="midnightblue" points="70.14,-417.34 73.51,-427.38 77.14,-417.43 70.14,-417.34"/>
</g>
<!-- Node3 -->
<g id="node4" class="node">
<title>Node3</title>
<g id="a_node4"><a xlink:href="structhydra_1_1detail_1_1all__true.html" target="_top" xlink:title="{hydra::detail::all\l_true\&lt; bs \&gt;\n||}">
<polygon fill="none" stroke="black" points="89,-321.5 89,-389.5 175,-389.5 175,-321.5 89,-321.5"/>
<text text-anchor="start" x="97" y="-377.5" font-family="Helvetica,sans-Serif" font-size="10.00">hydra::detail::all</text>
<text text-anchor="middle" x="132" y="-366.5" font-family="Helvetica,sans-Serif" font-size="10.00">_true&lt; bs &gt;</text>
<polyline fill="none" stroke="black" points="89,-359.5 175,-359.5 "/>
<text text-anchor="middle" x="132" y="-347.5" font-family="Helvetica,sans-Serif" font-size="10.00"> </text>
<polyline fill="none" stroke="black" points="89,-340.5 175,-340.5 "/>
<text text-anchor="middle" x="132" y="-328.5" font-family="Helvetica,sans-Serif" font-size="10.00"> </text>
</a>
</g>
</g>
<!-- Node2&#45;&gt;Node3 -->
<g id="edge4" class="edge">
<title>Node2&#45;&gt;Node3</title>
<path fill="none" stroke="midnightblue" d="M98.55,-418.57C103.8,-408.84 109.22,-398.78 114.13,-389.67"/>
<polygon fill="none" stroke="midnightblue" points="95.46,-416.93 93.8,-427.39 101.63,-420.25 95.46,-416.93"/>
</g>
<!-- Node3&#45;&gt;Node1 -->
<g id="edge3" class="edge">
<title>Node3&#45;&gt;Node1</title>
<path fill="none" stroke="orange" d="M119.63,-311.54C111.74,-284.13 101.43,-248.33 92.93,-218.81"/>
<polygon fill="orange" stroke="orange" points="116.29,-312.59 122.42,-321.23 123.02,-310.65 116.29,-312.59"/>
<text text-anchor="start" x="115" y="-295" font-family="Helvetica,sans-Serif" font-size="10.00"> &lt; detail::is_hydra</text>
<text text-anchor="start" x="115" y="-284" font-family="Helvetica,sans-Serif" font-size="10.00">_pdf&lt; PDF1 &gt;::value,</text>
<text text-anchor="start" x="115" y="-273" font-family="Helvetica,sans-Serif" font-size="10.00"> detail::is_hydra_pdf</text>
<text text-anchor="start" x="115" y="-262" font-family="Helvetica,sans-Serif" font-size="10.00">&lt; PDF2 &gt;::value, detail</text>
<text text-anchor="start" x="115" y="-251" font-family="Helvetica,sans-Serif" font-size="10.00">::is_hydra_pdf&lt; PDFs &gt;::</text>
<text text-anchor="middle" x="171" y="-240" font-family="Helvetica,sans-Serif" font-size="10.00">value... &gt;</text>
</g>
</g>
</svg>
        <g id="navigator" transform="translate(0 0)" fill="#404254">
                <rect fill="#f2f5e9" fill-opacity="0.5" stroke="#606060" stroke-width=".5" x="0" y="0" width="60" height="60"/>
                <use id="zoomplus" xlink:href="#zoomPlus" x="17" y="9" onmousedown="handleZoom(evt,'in')"/>
                <use id="zoomminus" xlink:href="#zoomMin" x="42" y="9" onmousedown="handleZoom(evt,'out')"/>
                <use id="reset" xlink:href="#resetDef" x="30" y="36" onmousedown="handleReset()"/>
                <g id="arrowUp" xlink:href="#dirArrow" transform="translate(30 24)" onmousedown="handlePan(0,-1)">
                  <use xlink:href="#rim" fill="#404040">
                        <set attributeName="fill" to="#808080" begin="arrowUp.mouseover" end="arrowUp.mouseout"/>
                  </use>
                  <path fill="none" stroke="white" stroke-width="1.5" d="M0,-3.0v7 M-2.5,-0.5L0,-3.0L2.5,-0.5"/>
                </g>
                <g id="arrowRight" xlink:href="#dirArrow" transform="rotate(90) translate(36 -43)" onmousedown="handlePan(1,0)">
                  <use xlink:href="#rim" fill="#404040">
                        <set attributeName="fill" to="#808080" begin="arrowRight.mouseover" end="arrowRight.mouseout"/>
                  </use>
                  <path fill="none" stroke="white" stroke-width="1.5" d="M0,-3.0v7 M-2.5,-0.5L0,-3.0L2.5,-0.5"/>
                </g>
                <g id="arrowDown" xlink:href="#dirArrow" transform="rotate(180) translate(-30 -48)" onmousedown="handlePan(0,1)">
                  <use xlink:href="#rim" fill="#404040">
                        <set attributeName="fill" to="#808080" begin="arrowDown.mouseover" end="arrowDown.mouseout"/>
                  </use>
                  <path fill="none" stroke="white" stroke-width="1.5" d="M0,-3.0v7 M-2.5,-0.5L0,-3.0L2.5,-0.5"/>
                </g>
                <g id="arrowLeft" xlink:href="#dirArrow" transform="rotate(270) translate(-36 17)" onmousedown="handlePan(-1,0)">
                  <use xlink:href="#rim" fill="#404040">
                        <set attributeName="fill" to="#808080" begin="arrowLeft.mouseover" end="arrowLeft.mouseout"/>
                  </use>
                  <path fill="none" stroke="white" stroke-width="1.5" d="M0,-3.0v7 M-2.5,-0.5L0,-3.0L2.5,-0.5"/>
                </g>
        </g>
        <svg viewBox="0 0 15 15" width="100%" height="30px" preserveAspectRatio="xMaxYMin meet">
         <g id="arrow_out" transform="scale(0.3 0.3)">
          <a xlink:href="classhydra_1_1detail_1_1AddPdfChecker__inherit__graph_org.svg" target="_base">
           <rect id="button" ry="5" rx="5" y="6" x="6" height="38" width="38"
                fill="#f2f5e9" fill-opacity="0.5" stroke="#606060" stroke-width="1.0"/>
           <path id="arrow"
             d="M 11.500037,31.436501 C 11.940474,20.09759 22.043105,11.32322 32.158766,21.979434 L 37.068811,17.246167 C 37.068811,17.246167 37.088388,32 37.088388,32 L 22.160133,31.978069 C 22.160133,31.978069 26.997745,27.140456 26.997745,27.140456 C 18.528582,18.264221 13.291696,25.230495 11.500037,31.436501 z"
             style="fill:#404040;"/>
          </a>
         </g>
        </svg>
</svg>
