<?xml version="1.0" encoding="UTF-8" standalone="no"?>
<!DOCTYPE svg PUBLIC "-//W3C//DTD SVG 1.1//EN"
 "http://www.w3.org/Graphics/SVG/1.1/DTD/svg11.dtd">
<!-- Generated by graphviz version 5.0.0 (0)
 -->
<!-- Title: Config.h Pages: 1 -->
<svg width="240pt" height="106pt"
 viewBox="0.00 0.00 240.00 106.00" xmlns="http://www.w3.org/2000/svg" xmlns:xlink="http://www.w3.org/1999/xlink">
<g id="graph0" class="graph" transform="scale(1 1) rotate(0) translate(4 102)">
<title>Config.h</title>
<!-- Node0 -->
<g id="node1" class="node">
<title>Node0</title>
<polygon fill="#bfbfbf" stroke="black" points="87.5,-78.5 87.5,-97.5 140.5,-97.5 140.5,-78.5 87.5,-78.5"/>
<text text-anchor="middle" x="114" y="-85.5" font-family="Helvetica,sans-Serif" font-size="10.00">Config.h</text>
</g>
<!-- Node1 -->
<g id="node2" class="node">
<title>Node1</title>
<polygon fill="none" stroke="#bfbfbf" points="0,-0.5 0,-41.5 104,-41.5 104,-0.5 0,-0.5"/>
<text text-anchor="start" x="8" y="-29.5" font-family="Helvetica,sans-Serif" font-size="10.00">hydra/detail/external</text>
<text text-anchor="start" x="8" y="-18.5" font-family="Helvetica,sans-Serif" font-size="10.00">/hydra_thrust/detail</text>
<text text-anchor="middle" x="52" y="-7.5" font-family="Helvetica,sans-Serif" font-size="10.00">/config.h</text>
</g>
<!-- Node0&#45;&gt;Node1 -->
<g id="edge1" class="edge">
<title>Node0&#45;&gt;Node1</title>
<path fill="none" stroke="midnightblue" d="M105.64,-78.23C98.46,-70.7 87.71,-59.44 77.72,-48.96"/>
<polygon fill="midnightblue" stroke="midnightblue" points="80.07,-46.36 70.64,-41.54 75.01,-51.19 80.07,-46.36"/>
</g>
<!-- Node2 -->
<g id="node3" class="node">
<title>Node2</title>
<polygon fill="none" stroke="#bfbfbf" points="122,-0.5 122,-41.5 232,-41.5 232,-0.5 122,-0.5"/>
<text text-anchor="start" x="130" y="-29.5" font-family="Helvetica,sans-Serif" font-size="10.00">hydra/detail/external</text>
<text text-anchor="start" x="130" y="-18.5" font-family="Helvetica,sans-Serif" font-size="10.00">/hydra_thrust/detail</text>
<text text-anchor="middle" x="177" y="-7.5" font-family="Helvetica,sans-Serif" font-size="10.00">/config/host_device.h</text>
</g>
<!-- Node0&#45;&gt;Node2 -->
<g id="edge2" class="edge">
<title>Node0&#45;&gt;Node2</title>
<path fill="none" stroke="midnightblue" d="M122.5,-78.23C129.79,-70.7 140.71,-59.44 150.86,-48.96"/>
<polygon fill="midnightblue" stroke="midnightblue" points="153.61,-51.16 158.06,-41.54 148.59,-46.29 153.61,-51.16"/>
</g>
</g>
</svg>
