<?xml version="1.0" encoding="UTF-8" standalone="no"?>
<!DOCTYPE svg PUBLIC "-//W3C//DTD SVG 1.1//EN"
 "http://www.w3.org/Graphics/SVG/1.1/DTD/svg11.dtd">
<!-- Generated by graphviz version 2.38.0 (20140413.2041)
 -->
<!-- Title: Containers.inl Pages: 1 -->
<svg width="740pt" height="184pt"
 viewBox="0.00 0.00 740.00 184.00" xmlns="http://www.w3.org/2000/svg" xmlns:xlink="http://www.w3.org/1999/xlink">
<g id="graph0" class="graph" transform="scale(1 1) rotate(0) translate(4 180)">
<title>Containers.inl</title>
<!-- Node0 -->
<g id="node1" class="node"><title>Node0</title>
<polygon fill="#bfbfbf" stroke="black" points="337.5,-156.5 337.5,-175.5 414.5,-175.5 414.5,-156.5 337.5,-156.5"/>
<text text-anchor="middle" x="376" y="-163.5" font-family="Helvetica,sans-Serif" font-size="10.00">Containers.inl</text>
</g>
<!-- Node1 -->
<g id="node2" class="node"><title>Node1</title>
<g id="a_node2"><a xlink:href="Config_8h.html" target="_top" xlink:title="hydra/detail/Config.h">
<polygon fill="none" stroke="black" points="62.5,-89.5 62.5,-108.5 169.5,-108.5 169.5,-89.5 62.5,-89.5"/>
<text text-anchor="middle" x="116" y="-96.5" font-family="Helvetica,sans-Serif" font-size="10.00">hydra/detail/Config.h</text>
</a>
</g>
</g>
<!-- Node0&#45;&gt;Node1 -->
<g id="edge1" class="edge"><title>Node0&#45;&gt;Node1</title>
<path fill="none" stroke="midnightblue" d="M337.262,-157.142C297.365,-148.818 233.496,-134.847 179,-120 169.812,-117.497 159.961,-114.515 150.842,-111.628"/>
<polygon fill="midnightblue" stroke="midnightblue" points="151.892,-108.289 141.3,-108.559 149.748,-114.953 151.892,-108.289"/>
</g>
<!-- Node4 -->
<g id="node5" class="node"><title>Node4</title>
<polygon fill="none" stroke="#bfbfbf" points="188,-84 188,-114 304,-114 304,-84 188,-84"/>
<text text-anchor="start" x="196" y="-102" font-family="Helvetica,sans-Serif" font-size="10.00">hydra/detail/external</text>
<text text-anchor="middle" x="246" y="-91" font-family="Helvetica,sans-Serif" font-size="10.00">/thrust/device_vector.h</text>
</g>
<!-- Node0&#45;&gt;Node4 -->
<g id="edge4" class="edge"><title>Node0&#45;&gt;Node4</title>
<path fill="none" stroke="midnightblue" d="M358.737,-156.369C339.629,-146.815 308.255,-131.127 283.449,-118.725"/>
<polygon fill="midnightblue" stroke="midnightblue" points="284.813,-115.493 274.303,-114.152 281.682,-121.754 284.813,-115.493"/>
</g>
<!-- Node5 -->
<g id="node6" class="node"><title>Node5</title>
<polygon fill="none" stroke="#bfbfbf" points="322.5,-84 322.5,-114 429.5,-114 429.5,-84 322.5,-84"/>
<text text-anchor="start" x="330.5" y="-102" font-family="Helvetica,sans-Serif" font-size="10.00">hydra/detail/external</text>
<text text-anchor="middle" x="376" y="-91" font-family="Helvetica,sans-Serif" font-size="10.00">/thrust/host_vector.h</text>
</g>
<!-- Node0&#45;&gt;Node5 -->
<g id="edge5" class="edge"><title>Node0&#45;&gt;Node5</title>
<path fill="none" stroke="midnightblue" d="M376,-156.234C376,-148.041 376,-135.423 376,-124.214"/>
<polygon fill="midnightblue" stroke="midnightblue" points="379.5,-124.089 376,-114.089 372.5,-124.089 379.5,-124.089"/>
</g>
<!-- Node6 -->
<g id="node7" class="node"><title>Node6</title>
<polygon fill="none" stroke="#bfbfbf" points="448,-84 448,-114 552,-114 552,-84 448,-84"/>
<text text-anchor="start" x="456" y="-102" font-family="Helvetica,sans-Serif" font-size="10.00">hydra/detail/external</text>
<text text-anchor="middle" x="500" y="-91" font-family="Helvetica,sans-Serif" font-size="10.00">/thrust/complex.h</text>
</g>
<!-- Node0&#45;&gt;Node6 -->
<g id="edge6" class="edge"><title>Node0&#45;&gt;Node6</title>
<path fill="none" stroke="midnightblue" d="M392.466,-156.369C410.612,-146.857 440.355,-131.265 463.966,-118.889"/>
<polygon fill="midnightblue" stroke="midnightblue" points="465.771,-121.894 473.003,-114.152 462.521,-115.694 465.771,-121.894"/>
</g>
<!-- Node7 -->
<g id="node8" class="node"><title>Node7</title>
<polygon fill="none" stroke="#bfbfbf" points="570,-78.5 570,-119.5 732,-119.5 732,-78.5 570,-78.5"/>
<text text-anchor="start" x="578" y="-107.5" font-family="Helvetica,sans-Serif" font-size="10.00">hydra/detail/external</text>
<text text-anchor="start" x="578" y="-96.5" font-family="Helvetica,sans-Serif" font-size="10.00">/thrust/system/cuda/experimental</text>
<text text-anchor="middle" x="651" y="-85.5" font-family="Helvetica,sans-Serif" font-size="10.00">/pinned_allocator.h</text>
</g>
<!-- Node0&#45;&gt;Node7 -->
<g id="edge7" class="edge"><title>Node0&#45;&gt;Node7</title>
<path fill="none" stroke="midnightblue" d="M412.234,-156.436C449.631,-147.596 509.452,-133.457 559.86,-121.542"/>
<polygon fill="midnightblue" stroke="midnightblue" points="560.879,-124.898 569.806,-119.191 559.269,-118.085 560.879,-124.898"/>
</g>
<!-- Node2 -->
<g id="node3" class="node"><title>Node2</title>
<polygon fill="none" stroke="#bfbfbf" points="0,-6 0,-36 108,-36 108,-6 0,-6"/>
<text text-anchor="start" x="8" y="-24" font-family="Helvetica,sans-Serif" font-size="10.00">hydra/detail/external</text>
<text text-anchor="middle" x="54" y="-13" font-family="Helvetica,sans-Serif" font-size="10.00">/thrust/detail/config.h</text>
</g>
<!-- Node1&#45;&gt;Node2 -->
<g id="edge2" class="edge"><title>Node1&#45;&gt;Node2</title>
<path fill="none" stroke="midnightblue" d="M108.888,-89.2818C99.9241,-78.294 84.1993,-59.0185 71.8718,-43.9074"/>
<polygon fill="midnightblue" stroke="midnightblue" points="74.4706,-41.556 65.4372,-36.0198 69.0465,-45.981 74.4706,-41.556"/>
</g>
<!-- Node3 -->
<g id="node4" class="node"><title>Node3</title>
<polygon fill="none" stroke="#bfbfbf" points="126,-0.5 126,-41.5 230,-41.5 230,-0.5 126,-0.5"/>
<text text-anchor="start" x="134" y="-29.5" font-family="Helvetica,sans-Serif" font-size="10.00">hydra/detail/external</text>
<text text-anchor="start" x="134" y="-18.5" font-family="Helvetica,sans-Serif" font-size="10.00">/thrust/detail/config</text>
<text text-anchor="middle" x="178" y="-7.5" font-family="Helvetica,sans-Serif" font-size="10.00">/host_device.h</text>
</g>
<!-- Node1&#45;&gt;Node3 -->
<g id="edge3" class="edge"><title>Node1&#45;&gt;Node3</title>
<path fill="none" stroke="midnightblue" d="M123.112,-89.2818C130.983,-79.6343 144.065,-63.5975 155.484,-49.6003"/>
<polygon fill="midnightblue" stroke="midnightblue" points="158.354,-51.6195 161.963,-41.6584 152.93,-47.1946 158.354,-51.6195"/>
</g>
</g>
</svg>
