<?xml version="1.0" encoding="UTF-8" standalone="no"?>
<!DOCTYPE svg PUBLIC "-//W3C//DTD SVG 1.1//EN"
 "http://www.w3.org/Graphics/SVG/1.1/DTD/svg11.dtd">
<!-- Generated by graphviz version 2.38.0 (20140413.2041)
 -->
<!-- Title: crystal_ball_plus_exponential.inl Pages: 1 -->
<svg width="348pt" height="84pt"
 viewBox="0.00 0.00 347.50 84.00" xmlns="http://www.w3.org/2000/svg" xmlns:xlink="http://www.w3.org/1999/xlink">
<g id="graph0" class="graph" transform="scale(1 1) rotate(0) translate(4 80)">
<title>crystal_ball_plus_exponential.inl</title>
<!-- Node129 -->
<g id="node1" class="node"><title>Node129</title>
<polygon fill="#bfbfbf" stroke="black" points="92,-56.5 92,-75.5 249,-75.5 249,-56.5 92,-56.5"/>
<text text-anchor="middle" x="170.5" y="-63.5" font-family="Helvetica,sans-Serif" font-size="10.00">crystal_ball_plus_exponential.inl</text>
</g>
<!-- Node130 -->
<g id="node2" class="node"><title>Node130</title>
<g id="a_node2"><a xlink:href="crystal__ball__plus__exponential_8cpp.html" target="_top" xlink:title="crystal_ball_plus_exponential.cpp">
<polygon fill="none" stroke="black" points="0,-0.5 0,-19.5 163,-19.5 163,-0.5 0,-0.5"/>
<text text-anchor="middle" x="81.5" y="-7.5" font-family="Helvetica,sans-Serif" font-size="10.00">crystal_ball_plus_exponential.cpp</text>
</a>
</g>
</g>
<!-- Node129&#45;&gt;Node130 -->
<g id="edge1" class="edge"><title>Node129&#45;&gt;Node130</title>
<path fill="none" stroke="midnightblue" d="M147.262,-50.9005C130.942,-40.9986 109.635,-28.0705 95.7639,-19.6545"/>
<polygon fill="midnightblue" stroke="midnightblue" points="145.836,-54.1289 156.201,-56.324 149.467,-48.1444 145.836,-54.1289"/>
</g>
<!-- Node131 -->
<g id="node3" class="node"><title>Node131</title>
<g id="a_node3"><a xlink:href="crystal__ball__plus__exponential_8cu.html" target="_top" xlink:title="crystal_ball_plus_exponential.cu">
<polygon fill="none" stroke="black" points="181.5,-0.5 181.5,-19.5 339.5,-19.5 339.5,-0.5 181.5,-0.5"/>
<text text-anchor="middle" x="260.5" y="-7.5" font-family="Helvetica,sans-Serif" font-size="10.00">crystal_ball_plus_exponential.cu</text>
</a>
</g>
</g>
<!-- Node129&#45;&gt;Node131 -->
<g id="edge2" class="edge"><title>Node129&#45;&gt;Node131</title>
<path fill="none" stroke="midnightblue" d="M193.538,-51.1774C210.099,-41.2407 231.918,-28.1492 246.076,-19.6545"/>
<polygon fill="midnightblue" stroke="midnightblue" points="191.734,-48.1777 184.96,-56.324 195.336,-54.1802 191.734,-48.1777"/>
</g>
</g>
</svg>
