<?xml version="1.0" encoding="UTF-8" standalone="no"?>
<!DOCTYPE svg PUBLIC "-//W3C//DTD SVG 1.1//EN"
 "http://www.w3.org/Graphics/SVG/1.1/DTD/svg11.dtd">
<!-- Generated by graphviz version 2.38.0 (20140413.2041)
 -->
<!-- Title: CudaCachedAllocator.h Pages: 1 -->
<svg width="697pt" height="106pt"
 viewBox="0.00 0.00 696.50 106.00" xmlns="http://www.w3.org/2000/svg" xmlns:xlink="http://www.w3.org/1999/xlink">
<g id="graph0" class="graph" transform="scale(1 1) rotate(0) translate(4 102)">
<title>CudaCachedAllocator.h</title>
<!-- Node0 -->
<g id="node1" class="node"><title>Node0</title>
<polygon fill="#bfbfbf" stroke="black" points="413,-78.5 413,-97.5 533,-97.5 533,-78.5 413,-78.5"/>
<text text-anchor="middle" x="473" y="-85.5" font-family="Helvetica,sans-Serif" font-size="10.00">CudaCachedAllocator.h</text>
</g>
<!-- Node1 -->
<g id="node2" class="node"><title>Node1</title>
<polygon fill="none" stroke="#bfbfbf" points="0,-6 0,-36 142,-36 142,-6 0,-6"/>
<text text-anchor="start" x="8" y="-24" font-family="Helvetica,sans-Serif" font-size="10.00">hydra/detail/external</text>
<text text-anchor="middle" x="71" y="-13" font-family="Helvetica,sans-Serif" font-size="10.00">/thrust/system/cuda/vector.h</text>
</g>
<!-- Node0&#45;&gt;Node1 -->
<g id="edge1" class="edge"><title>Node0&#45;&gt;Node1</title>
<path fill="none" stroke="midnightblue" d="M412.745,-80.5151C347.813,-73.0767 241.595,-59.6032 151,-42 145.328,-40.8979 139.456,-39.6462 133.588,-38.3195"/>
<polygon fill="midnightblue" stroke="midnightblue" points="134.286,-34.8885 123.753,-36.029 132.699,-41.706 134.286,-34.8885"/>
</g>
<!-- Node2 -->
<g id="node3" class="node"><title>Node2</title>
<polygon fill="none" stroke="#bfbfbf" points="160.5,-0.5 160.5,-41.5 309.5,-41.5 309.5,-0.5 160.5,-0.5"/>
<text text-anchor="start" x="168.5" y="-29.5" font-family="Helvetica,sans-Serif" font-size="10.00">hydra/detail/external</text>
<text text-anchor="start" x="168.5" y="-18.5" font-family="Helvetica,sans-Serif" font-size="10.00">/thrust/system/cuda/execution</text>
<text text-anchor="middle" x="235" y="-7.5" font-family="Helvetica,sans-Serif" font-size="10.00">_policy.h</text>
</g>
<!-- Node0&#45;&gt;Node2 -->
<g id="edge2" class="edge"><title>Node0&#45;&gt;Node2</title>
<path fill="none" stroke="midnightblue" d="M441.395,-78.3685C409.722,-69.7182 359.639,-56.0401 316.741,-44.3242"/>
<polygon fill="midnightblue" stroke="midnightblue" points="317.428,-40.8838 306.859,-41.6254 315.584,-47.6365 317.428,-40.8838"/>
</g>
<!-- Node3 -->
<g id="node4" class="node"><title>Node3</title>
<polygon fill="none" stroke="#bfbfbf" points="328,-6 328,-36 432,-36 432,-6 328,-6"/>
<text text-anchor="start" x="336" y="-24" font-family="Helvetica,sans-Serif" font-size="10.00">hydra/detail/external</text>
<text text-anchor="middle" x="380" y="-13" font-family="Helvetica,sans-Serif" font-size="10.00">/thrust/pair.h</text>
</g>
<!-- Node0&#45;&gt;Node3 -->
<g id="edge3" class="edge"><title>Node0&#45;&gt;Node3</title>
<path fill="none" stroke="midnightblue" d="M460.458,-78.2338C447.285,-69.027 426.118,-54.2328 408.8,-42.1293"/>
<polygon fill="midnightblue" stroke="midnightblue" points="410.36,-38.949 400.158,-36.089 406.35,-44.6865 410.36,-38.949"/>
</g>
<!-- Node4 -->
<g id="node5" class="node"><title>Node4</title>
<polygon fill="none" stroke="#bfbfbf" points="450.5,-11.5 450.5,-30.5 495.5,-30.5 495.5,-11.5 450.5,-11.5"/>
<text text-anchor="middle" x="473" y="-18.5" font-family="Helvetica,sans-Serif" font-size="10.00">cstdlib</text>
</g>
<!-- Node0&#45;&gt;Node4 -->
<g id="edge4" class="edge"><title>Node0&#45;&gt;Node4</title>
<path fill="none" stroke="midnightblue" d="M473,-78.2338C473,-68.6826 473,-53.1183 473,-40.7829"/>
<polygon fill="midnightblue" stroke="midnightblue" points="476.5,-40.6273 473,-30.6273 469.5,-40.6273 476.5,-40.6273"/>
</g>
<!-- Node5 -->
<g id="node6" class="node"><title>Node5</title>
<polygon fill="none" stroke="#bfbfbf" points="514,-11.5 514,-30.5 568,-30.5 568,-11.5 514,-11.5"/>
<text text-anchor="middle" x="541" y="-18.5" font-family="Helvetica,sans-Serif" font-size="10.00">iostream</text>
</g>
<!-- Node0&#45;&gt;Node5 -->
<g id="edge5" class="edge"><title>Node0&#45;&gt;Node5</title>
<path fill="none" stroke="midnightblue" d="M482.171,-78.2338C492.978,-67.903 511.146,-50.5371 524.438,-37.8315"/>
<polygon fill="midnightblue" stroke="midnightblue" points="527.164,-40.0672 531.975,-30.6273 522.327,-35.0071 527.164,-40.0672"/>
</g>
<!-- Node6 -->
<g id="node7" class="node"><title>Node6</title>
<polygon fill="none" stroke="#bfbfbf" points="586.5,-11.5 586.5,-30.5 621.5,-30.5 621.5,-11.5 586.5,-11.5"/>
<text text-anchor="middle" x="604" y="-18.5" font-family="Helvetica,sans-Serif" font-size="10.00">map</text>
</g>
<!-- Node0&#45;&gt;Node6 -->
<g id="edge6" class="edge"><title>Node0&#45;&gt;Node6</title>
<path fill="none" stroke="midnightblue" d="M496.874,-78.4677C518.449,-70.3425 550.752,-57.1316 577,-42 579.791,-40.3912 582.634,-38.5459 585.376,-36.641"/>
<polygon fill="midnightblue" stroke="midnightblue" points="587.641,-39.3202 593.612,-30.5683 583.486,-33.6863 587.641,-39.3202"/>
</g>
<!-- Node7 -->
<g id="node8" class="node"><title>Node7</title>
<polygon fill="none" stroke="#bfbfbf" points="639.5,-11.5 639.5,-30.5 688.5,-30.5 688.5,-11.5 639.5,-11.5"/>
<text text-anchor="middle" x="664" y="-18.5" font-family="Helvetica,sans-Serif" font-size="10.00">cassert</text>
</g>
<!-- Node0&#45;&gt;Node7 -->
<g id="edge7" class="edge"><title>Node0&#45;&gt;Node7</title>
<path fill="none" stroke="midnightblue" d="M514.303,-78.4333C546.807,-70.9391 592.829,-58.643 631,-42 635.007,-40.2529 639.115,-38.0971 643.013,-35.8545"/>
<polygon fill="midnightblue" stroke="midnightblue" points="644.873,-38.8192 651.578,-30.6154 641.221,-32.8477 644.873,-38.8192"/>
</g>
</g>
</svg>
