<?xml version="1.0" encoding="UTF-8" standalone="no"?>
<!DOCTYPE svg PUBLIC "-//W3C//DTD SVG 1.1//EN"
 "http://www.w3.org/Graphics/SVG/1.1/DTD/svg11.dtd">
<!-- Generated by graphviz version 2.38.0 (20140413.2041)
 -->
<!-- Title: Decays.inl Pages: 1 -->
<svg width="2345pt" height="274pt"
 viewBox="0.00 0.00 2344.50 274.00" xmlns="http://www.w3.org/2000/svg" xmlns:xlink="http://www.w3.org/1999/xlink">
<g id="graph0" class="graph" transform="scale(1 1) rotate(0) translate(4 270)">
<title>Decays.inl</title>
<!-- Node1 -->
<g id="node1" class="node"><title>Node1</title>
<polygon fill="#bfbfbf" stroke="black" points="1092,-246.5 1092,-265.5 1155,-265.5 1155,-246.5 1092,-246.5"/>
<text text-anchor="middle" x="1123.5" y="-253.5" font-family="Helvetica,sans-Serif" font-size="10.00">Decays.inl</text>
</g>
<!-- Node2 -->
<g id="node2" class="node"><title>Node2</title>
<g id="a_node2"><a xlink:href="Decays_8h.html" target="_top" xlink:title="Decays.h">
<polygon fill="none" stroke="black" points="1094,-190.5 1094,-209.5 1153,-209.5 1153,-190.5 1094,-190.5"/>
<text text-anchor="middle" x="1123.5" y="-197.5" font-family="Helvetica,sans-Serif" font-size="10.00">Decays.h</text>
</a>
</g>
</g>
<!-- Node1&#45;&gt;Node2 -->
<g id="edge1" class="edge"><title>Node1&#45;&gt;Node2</title>
<path fill="none" stroke="midnightblue" d="M1123.5,-235.805C1123.5,-226.91 1123.5,-216.78 1123.5,-209.751"/>
<polygon fill="midnightblue" stroke="midnightblue" points="1120,-236.083 1123.5,-246.083 1127,-236.083 1120,-236.083"/>
</g>
<!-- Node3 -->
<g id="node3" class="node"><title>Node3</title>
<g id="a_node3"><a xlink:href="Chains_8h.html" target="_top" xlink:title="Chains.h">
<polygon fill="none" stroke="black" points="679.5,-134.5 679.5,-153.5 735.5,-153.5 735.5,-134.5 679.5,-134.5"/>
<text text-anchor="middle" x="707.5" y="-141.5" font-family="Helvetica,sans-Serif" font-size="10.00">Chains.h</text>
</a>
</g>
</g>
<!-- Node2&#45;&gt;Node3 -->
<g id="edge2" class="edge"><title>Node2&#45;&gt;Node3</title>
<path fill="none" stroke="midnightblue" d="M1083.8,-193.847C1000.2,-182.995 807.769,-158.016 735.558,-148.642"/>
<polygon fill="midnightblue" stroke="midnightblue" points="1083.55,-197.343 1093.92,-195.16 1084.45,-190.402 1083.55,-197.343"/>
</g>
<!-- Node7 -->
<g id="node7" class="node"><title>Node7</title>
<g id="a_node7"><a xlink:href="PhaseSpace_8h.html" target="_top" xlink:title="PhaseSpace.h">
<polygon fill="none" stroke="black" points="1083.5,-134.5 1083.5,-153.5 1163.5,-153.5 1163.5,-134.5 1083.5,-134.5"/>
<text text-anchor="middle" x="1123.5" y="-141.5" font-family="Helvetica,sans-Serif" font-size="10.00">PhaseSpace.h</text>
</a>
</g>
</g>
<!-- Node2&#45;&gt;Node7 -->
<g id="edge6" class="edge"><title>Node2&#45;&gt;Node7</title>
<path fill="none" stroke="midnightblue" d="M1123.5,-179.805C1123.5,-170.91 1123.5,-160.78 1123.5,-153.751"/>
<polygon fill="midnightblue" stroke="midnightblue" points="1120,-180.083 1123.5,-190.083 1127,-180.083 1120,-180.083"/>
</g>
<!-- Node8 -->
<g id="node8" class="node"><title>Node8</title>
<g id="a_node8"><a xlink:href="phsp__unweighting__functor__and__fit_8inl.html" target="_top" xlink:title="phsp_unweighting_functor\l_and_fit.inl">
<polygon fill="none" stroke="black" points="492.5,-67.5 492.5,-97.5 622.5,-97.5 622.5,-67.5 492.5,-67.5"/>
<text text-anchor="start" x="500.5" y="-85.5" font-family="Helvetica,sans-Serif" font-size="10.00">phsp_unweighting_functor</text>
<text text-anchor="middle" x="557.5" y="-74.5" font-family="Helvetica,sans-Serif" font-size="10.00">_and_fit.inl</text>
</a>
</g>
</g>
<!-- Node2&#45;&gt;Node8 -->
<g id="edge32" class="edge"><title>Node2&#45;&gt;Node8</title>
<path fill="none" stroke="midnightblue" d="M1083.97,-190.933C987.785,-171.305 740.811,-120.907 622.534,-96.7711"/>
<polygon fill="midnightblue" stroke="midnightblue" points="1083.37,-194.383 1093.87,-192.953 1084.77,-187.524 1083.37,-194.383"/>
</g>
<!-- Node14 -->
<g id="node14" class="node"><title>Node14</title>
<g id="a_node14"><a xlink:href="phsp__basic_8inl.html" target="_top" xlink:title="phsp_basic.inl">
<polygon fill="none" stroke="black" points="723,-73 723,-92 802,-92 802,-73 723,-73"/>
<text text-anchor="middle" x="762.5" y="-80" font-family="Helvetica,sans-Serif" font-size="10.00">phsp_basic.inl</text>
</a>
</g>
</g>
<!-- Node2&#45;&gt;Node14 -->
<g id="edge33" class="edge"><title>Node2&#45;&gt;Node14</title>
<path fill="none" stroke="midnightblue" d="M1087.03,-187.331C1014.47,-164.118 853.524,-112.623 789.515,-92.1434"/>
<polygon fill="midnightblue" stroke="midnightblue" points="1086.07,-190.699 1096.66,-190.413 1088.2,-184.032 1086.07,-190.699"/>
</g>
<!-- Node17 -->
<g id="node17" class="node"><title>Node17</title>
<g id="a_node17"><a xlink:href="phsp__evaluating__functor_8inl.html" target="_top" xlink:title="phsp_evaluating_functor.inl">
<polygon fill="none" stroke="black" points="902,-73 902,-92 1037,-92 1037,-73 902,-73"/>
<text text-anchor="middle" x="969.5" y="-80" font-family="Helvetica,sans-Serif" font-size="10.00">phsp_evaluating_functor.inl</text>
</a>
</g>
</g>
<!-- Node2&#45;&gt;Node17 -->
<g id="edge34" class="edge"><title>Node2&#45;&gt;Node17</title>
<path fill="none" stroke="midnightblue" d="M1103.63,-184.096C1071.08,-159.688 1007.42,-111.944 981.209,-92.282"/>
<polygon fill="midnightblue" stroke="midnightblue" points="1101.82,-187.119 1111.92,-190.319 1106.02,-181.519 1101.82,-187.119"/>
</g>
<!-- Node20 -->
<g id="node20" class="node"><title>Node20</title>
<g id="a_node20"><a xlink:href="phsp__reweighting_8inl.html" target="_top" xlink:title="phsp_reweighting.inl">
<polygon fill="none" stroke="black" points="1287,-73 1287,-92 1392,-92 1392,-73 1287,-73"/>
<text text-anchor="middle" x="1339.5" y="-80" font-family="Helvetica,sans-Serif" font-size="10.00">phsp_reweighting.inl</text>
</a>
</g>
</g>
<!-- Node2&#45;&gt;Node20 -->
<g id="edge35" class="edge"><title>Node2&#45;&gt;Node20</title>
<path fill="none" stroke="midnightblue" d="M1148.81,-185.465C1193.72,-161.454 1286.09,-112.059 1323.37,-92.1245"/>
<polygon fill="midnightblue" stroke="midnightblue" points="1146.9,-182.517 1139.74,-190.319 1150.2,-188.69 1146.9,-182.517"/>
</g>
<!-- Node23 -->
<g id="node23" class="node"><title>Node23</title>
<g id="a_node23"><a xlink:href="phsp__unweighting_8inl.html" target="_top" xlink:title="phsp_unweighting.inl">
<polygon fill="none" stroke="black" points="1515,-73 1515,-92 1622,-92 1622,-73 1515,-73"/>
<text text-anchor="middle" x="1568.5" y="-80" font-family="Helvetica,sans-Serif" font-size="10.00">phsp_unweighting.inl</text>
</a>
</g>
</g>
<!-- Node2&#45;&gt;Node23 -->
<g id="edge36" class="edge"><title>Node2&#45;&gt;Node23</title>
<path fill="none" stroke="midnightblue" d="M1162.75,-188.813C1249.34,-166.338 1455.41,-112.852 1535.69,-92.0155"/>
<polygon fill="midnightblue" stroke="midnightblue" points="1161.84,-185.432 1153.04,-191.332 1163.6,-192.208 1161.84,-185.432"/>
</g>
<!-- Node26 -->
<g id="node26" class="node"><title>Node26</title>
<g id="a_node26"><a xlink:href="phsp__unweighting__functor_8inl.html" target="_top" xlink:title="phsp_unweighting_functor.inl">
<polygon fill="none" stroke="black" points="1759,-73 1759,-92 1902,-92 1902,-73 1759,-73"/>
<text text-anchor="middle" x="1830.5" y="-80" font-family="Helvetica,sans-Serif" font-size="10.00">phsp_unweighting_functor.inl</text>
</a>
</g>
</g>
<!-- Node2&#45;&gt;Node26 -->
<g id="edge37" class="edge"><title>Node2&#45;&gt;Node26</title>
<path fill="none" stroke="midnightblue" d="M1163.32,-192.495C1283.58,-172.848 1643.07,-114.12 1778.3,-92.0284"/>
<polygon fill="midnightblue" stroke="midnightblue" points="1162.73,-189.044 1153.43,-194.111 1163.86,-195.953 1162.73,-189.044"/>
</g>
<!-- Node29 -->
<g id="node29" class="node"><title>Node29</title>
<g id="a_node29"><a xlink:href="dalitz__plot_8inl.html" target="_top" xlink:title="dalitz_plot.inl">
<polygon fill="none" stroke="black" points="2063.5,-73 2063.5,-92 2137.5,-92 2137.5,-73 2063.5,-73"/>
<text text-anchor="middle" x="2100.5" y="-80" font-family="Helvetica,sans-Serif" font-size="10.00">dalitz_plot.inl</text>
</a>
</g>
</g>
<!-- Node2&#45;&gt;Node29 -->
<g id="edge38" class="edge"><title>Node2&#45;&gt;Node29</title>
<path fill="none" stroke="midnightblue" d="M1163.26,-194.3C1322.03,-175.53 1909.4,-106.092 2063.36,-87.8911"/>
<polygon fill="midnightblue" stroke="midnightblue" points="1162.53,-190.862 1153.01,-195.512 1163.35,-197.814 1162.53,-190.862"/>
</g>
<!-- Node4 -->
<g id="node4" class="node"><title>Node4</title>
<g id="a_node4"><a xlink:href="phsp__chain_8inl.html" target="_top" xlink:title="phsp_chain.inl">
<polygon fill="none" stroke="black" points="187,-73 187,-92 266,-92 266,-73 187,-73"/>
<text text-anchor="middle" x="226.5" y="-80" font-family="Helvetica,sans-Serif" font-size="10.00">phsp_chain.inl</text>
</a>
</g>
</g>
<!-- Node3&#45;&gt;Node4 -->
<g id="edge3" class="edge"><title>Node3&#45;&gt;Node4</title>
<path fill="none" stroke="midnightblue" d="M669.207,-138.263C579.62,-127.181 357.092,-99.6543 266.164,-88.4065"/>
<polygon fill="midnightblue" stroke="midnightblue" points="668.853,-141.746 679.207,-139.5 669.712,-134.799 668.853,-141.746"/>
</g>
<!-- Node5 -->
<g id="node5" class="node"><title>Node5</title>
<g id="a_node5"><a xlink:href="phsp__chain_8cpp.html" target="_top" xlink:title="phsp_chain.cpp">
<polygon fill="none" stroke="black" points="0,-6 0,-25 85,-25 85,-6 0,-6"/>
<text text-anchor="middle" x="42.5" y="-13" font-family="Helvetica,sans-Serif" font-size="10.00">phsp_chain.cpp</text>
</a>
</g>
</g>
<!-- Node4&#45;&gt;Node5 -->
<g id="edge4" class="edge"><title>Node4&#45;&gt;Node5</title>
<path fill="none" stroke="midnightblue" d="M192.351,-69.4363C155.849,-56.5417 98.901,-36.4243 66.7418,-25.0637"/>
<polygon fill="midnightblue" stroke="midnightblue" points="191.471,-72.8377 202.066,-72.8685 193.803,-66.2374 191.471,-72.8377"/>
</g>
<!-- Node6 -->
<g id="node6" class="node"><title>Node6</title>
<g id="a_node6"><a xlink:href="phsp__chain_8cu.html" target="_top" xlink:title="phsp_chain.cu">
<polygon fill="none" stroke="black" points="103.5,-6 103.5,-25 183.5,-25 183.5,-6 103.5,-6"/>
<text text-anchor="middle" x="143.5" y="-13" font-family="Helvetica,sans-Serif" font-size="10.00">phsp_chain.cu</text>
</a>
</g>
</g>
<!-- Node4&#45;&gt;Node6 -->
<g id="edge5" class="edge"><title>Node4&#45;&gt;Node6</title>
<path fill="none" stroke="midnightblue" d="M207.433,-66.5678C191.05,-53.7376 167.998,-35.6853 154.516,-25.1273"/>
<polygon fill="midnightblue" stroke="midnightblue" points="205.275,-69.3237 215.306,-72.7338 209.591,-63.8126 205.275,-69.3237"/>
</g>
<!-- Node7&#45;&gt;Node4 -->
<g id="edge16" class="edge"><title>Node7&#45;&gt;Node4</title>
<path fill="none" stroke="midnightblue" d="M1073.1,-139.657C911.908,-128.965 411.093,-95.7445 266.165,-86.131"/>
<polygon fill="midnightblue" stroke="midnightblue" points="1073.01,-143.158 1083.22,-140.328 1073.47,-136.174 1073.01,-143.158"/>
</g>
<!-- Node7&#45;&gt;Node8 -->
<g id="edge7" class="edge"><title>Node7&#45;&gt;Node8</title>
<path fill="none" stroke="midnightblue" d="M1073.14,-137.706C970.472,-126.913 737.032,-102.373 622.848,-90.3696"/>
<polygon fill="midnightblue" stroke="midnightblue" points="1072.94,-141.204 1083.25,-138.769 1073.67,-134.242 1072.94,-141.204"/>
</g>
<!-- Node11 -->
<g id="node11" class="node"><title>Node11</title>
<g id="a_node11"><a xlink:href="phsp__averaging__functor_8inl.html" target="_top" xlink:title="phsp_averaging_functor.inl">
<polygon fill="none" stroke="black" points="1057,-73 1057,-92 1190,-92 1190,-73 1057,-73"/>
<text text-anchor="middle" x="1123.5" y="-80" font-family="Helvetica,sans-Serif" font-size="10.00">phsp_averaging_functor.inl</text>
</a>
</g>
</g>
<!-- Node7&#45;&gt;Node11 -->
<g id="edge10" class="edge"><title>Node7&#45;&gt;Node11</title>
<path fill="none" stroke="midnightblue" d="M1123.5,-124.317C1123.5,-113.496 1123.5,-100.398 1123.5,-92.0091"/>
<polygon fill="midnightblue" stroke="midnightblue" points="1120,-124.475 1123.5,-134.475 1127,-124.475 1120,-124.475"/>
</g>
<!-- Node7&#45;&gt;Node14 -->
<g id="edge13" class="edge"><title>Node7&#45;&gt;Node14</title>
<path fill="none" stroke="midnightblue" d="M1073.24,-134.716C1000.72,-122.763 868.208,-100.923 802.142,-90.0337"/>
<polygon fill="midnightblue" stroke="midnightblue" points="1073.05,-138.232 1083.49,-136.405 1074.19,-131.325 1073.05,-138.232"/>
</g>
<!-- Node7&#45;&gt;Node17 -->
<g id="edge17" class="edge"><title>Node7&#45;&gt;Node17</title>
<path fill="none" stroke="midnightblue" d="M1091.88,-130.782C1061.95,-119.22 1017.81,-102.164 991.524,-92.0091"/>
<polygon fill="midnightblue" stroke="midnightblue" points="1090.85,-134.136 1101.44,-134.475 1093.37,-127.606 1090.85,-134.136"/>
</g>
<!-- Node7&#45;&gt;Node20 -->
<g id="edge20" class="edge"><title>Node7&#45;&gt;Node20</title>
<path fill="none" stroke="midnightblue" d="M1164.34,-131.749C1206.31,-120.189 1270.7,-102.451 1308.61,-92.0091"/>
<polygon fill="midnightblue" stroke="midnightblue" points="1163.16,-128.445 1154.45,-134.475 1165.02,-135.194 1163.16,-128.445"/>
</g>
<!-- Node7&#45;&gt;Node23 -->
<g id="edge23" class="edge"><title>Node7&#45;&gt;Node23</title>
<path fill="none" stroke="midnightblue" d="M1173.89,-136.262C1258.4,-124.963 1427.92,-102.297 1514.67,-90.6976"/>
<polygon fill="midnightblue" stroke="midnightblue" points="1173.22,-132.82 1163.78,-137.615 1174.15,-139.759 1173.22,-132.82"/>
</g>
<!-- Node7&#45;&gt;Node26 -->
<g id="edge26" class="edge"><title>Node7&#45;&gt;Node26</title>
<path fill="none" stroke="midnightblue" d="M1173.83,-138.764C1297.34,-128.37 1615.72,-101.575 1758.89,-89.5266"/>
<polygon fill="midnightblue" stroke="midnightblue" points="1173.21,-135.304 1163.54,-139.631 1173.8,-142.28 1173.21,-135.304"/>
</g>
<!-- Node7&#45;&gt;Node29 -->
<g id="edge29" class="edge"><title>Node7&#45;&gt;Node29</title>
<path fill="none" stroke="midnightblue" d="M1173.66,-140.464C1298.33,-134.089 1632.25,-116.571 1910.5,-98 1963.64,-94.4531 2025.09,-89.6325 2063.38,-86.5431"/>
<polygon fill="midnightblue" stroke="midnightblue" points="1173.46,-136.97 1163.65,-140.975 1173.81,-143.961 1173.46,-136.97"/>
</g>
<!-- Node9 -->
<g id="node9" class="node"><title>Node9</title>
<g id="a_node9"><a xlink:href="phsp__unweighting__functor__and__fit_8cpp.html" target="_top" xlink:title="phsp_unweighting_functor\l_and_fit.cpp">
<polygon fill="none" stroke="black" points="201.5,-0.5 201.5,-30.5 331.5,-30.5 331.5,-0.5 201.5,-0.5"/>
<text text-anchor="start" x="209.5" y="-18.5" font-family="Helvetica,sans-Serif" font-size="10.00">phsp_unweighting_functor</text>
<text text-anchor="middle" x="266.5" y="-7.5" font-family="Helvetica,sans-Serif" font-size="10.00">_and_fit.cpp</text>
</a>
</g>
</g>
<!-- Node8&#45;&gt;Node9 -->
<g id="edge8" class="edge"><title>Node8&#45;&gt;Node9</title>
<path fill="none" stroke="midnightblue" d="M484.744,-65.2486C436.959,-54.5751 375.081,-40.7536 329.423,-30.5549"/>
<polygon fill="midnightblue" stroke="midnightblue" points="484.193,-68.7118 494.716,-67.476 485.719,-61.8801 484.193,-68.7118"/>
</g>
<!-- Node10 -->
<g id="node10" class="node"><title>Node10</title>
<g id="a_node10"><a xlink:href="phsp__unweighting__functor__and__fit_8cu.html" target="_top" xlink:title="phsp_unweighting_functor\l_and_fit.cu">
<polygon fill="none" stroke="black" points="349.5,-0.5 349.5,-30.5 479.5,-30.5 479.5,-0.5 349.5,-0.5"/>
<text text-anchor="start" x="357.5" y="-18.5" font-family="Helvetica,sans-Serif" font-size="10.00">phsp_unweighting_functor</text>
<text text-anchor="middle" x="414.5" y="-7.5" font-family="Helvetica,sans-Serif" font-size="10.00">_and_fit.cu</text>
</a>
</g>
</g>
<!-- Node8&#45;&gt;Node10 -->
<g id="edge9" class="edge"><title>Node8&#45;&gt;Node10</title>
<path fill="none" stroke="midnightblue" d="M517.087,-63.1305C494.365,-52.8025 466.443,-40.1103 445.468,-30.5765"/>
<polygon fill="midnightblue" stroke="midnightblue" points="515.919,-66.4442 526.471,-67.396 518.816,-60.0716 515.919,-66.4442"/>
</g>
<!-- Node12 -->
<g id="node12" class="node"><title>Node12</title>
<g id="a_node12"><a xlink:href="phsp__averaging__functor_8cpp.html" target="_top" xlink:title="phsp_averaging_functor.cpp">
<polygon fill="none" stroke="black" points="1014,-6 1014,-25 1153,-25 1153,-6 1014,-6"/>
<text text-anchor="middle" x="1083.5" y="-13" font-family="Helvetica,sans-Serif" font-size="10.00">phsp_averaging_functor.cpp</text>
</a>
</g>
</g>
<!-- Node11&#45;&gt;Node12 -->
<g id="edge11" class="edge"><title>Node11&#45;&gt;Node12</title>
<path fill="none" stroke="midnightblue" d="M1112.75,-64.0347C1105.01,-51.4499 1094.89,-35.0072 1088.81,-25.1273"/>
<polygon fill="midnightblue" stroke="midnightblue" points="1109.88,-66.0516 1118.11,-72.7338 1115.85,-62.3829 1109.88,-66.0516"/>
</g>
<!-- Node13 -->
<g id="node13" class="node"><title>Node13</title>
<g id="a_node13"><a xlink:href="phsp__averaging__functor_8cu.html" target="_top" xlink:title="phsp_averaging_functor.cu">
<polygon fill="none" stroke="black" points="1171.5,-6 1171.5,-25 1305.5,-25 1305.5,-6 1171.5,-6"/>
<text text-anchor="middle" x="1238.5" y="-13" font-family="Helvetica,sans-Serif" font-size="10.00">phsp_averaging_functor.cu</text>
</a>
</g>
</g>
<!-- Node11&#45;&gt;Node13 -->
<g id="edge12" class="edge"><title>Node11&#45;&gt;Node13</title>
<path fill="none" stroke="midnightblue" d="M1147.76,-67.7872C1170.55,-54.9047 1203.96,-36.0243 1223.24,-25.1273"/>
<polygon fill="midnightblue" stroke="midnightblue" points="1145.99,-64.7662 1139.01,-72.7338 1149.44,-70.8602 1145.99,-64.7662"/>
</g>
<!-- Node15 -->
<g id="node15" class="node"><title>Node15</title>
<g id="a_node15"><a xlink:href="phsp__basic_8cpp.html" target="_top" xlink:title="phsp_basic.cpp">
<polygon fill="none" stroke="black" points="498,-6 498,-25 583,-25 583,-6 498,-6"/>
<text text-anchor="middle" x="540.5" y="-13" font-family="Helvetica,sans-Serif" font-size="10.00">phsp_basic.cpp</text>
</a>
</g>
</g>
<!-- Node14&#45;&gt;Node15 -->
<g id="edge14" class="edge"><title>Node14&#45;&gt;Node15</title>
<path fill="none" stroke="midnightblue" d="M723.257,-70.0101C679.32,-57.1454 609.129,-36.5942 569.748,-25.0637"/>
<polygon fill="midnightblue" stroke="midnightblue" points="722.44,-73.4175 733.02,-72.8685 724.407,-66.6995 722.44,-73.4175"/>
</g>
<!-- Node16 -->
<g id="node16" class="node"><title>Node16</title>
<g id="a_node16"><a xlink:href="phsp__basic_8cu.html" target="_top" xlink:title="phsp_basic.cu">
<polygon fill="none" stroke="black" points="601.5,-6 601.5,-25 681.5,-25 681.5,-6 601.5,-6"/>
<text text-anchor="middle" x="641.5" y="-13" font-family="Helvetica,sans-Serif" font-size="10.00">phsp_basic.cu</text>
</a>
</g>
</g>
<!-- Node14&#45;&gt;Node16 -->
<g id="edge15" class="edge"><title>Node14&#45;&gt;Node16</title>
<path fill="none" stroke="midnightblue" d="M737.292,-67.9586C713.304,-55.0727 677.935,-36.0727 657.56,-25.1273"/>
<polygon fill="midnightblue" stroke="midnightblue" points="735.716,-71.0847 746.181,-72.7338 739.028,-64.9182 735.716,-71.0847"/>
</g>
<!-- Node18 -->
<g id="node18" class="node"><title>Node18</title>
<g id="a_node18"><a xlink:href="phsp__evaluating__functor_8cpp.html" target="_top" xlink:title="phsp_evaluating_functor.cpp">
<polygon fill="none" stroke="black" points="700,-6 700,-25 841,-25 841,-6 700,-6"/>
<text text-anchor="middle" x="770.5" y="-13" font-family="Helvetica,sans-Serif" font-size="10.00">phsp_evaluating_functor.cpp</text>
</a>
</g>
</g>
<!-- Node17&#45;&gt;Node18 -->
<g id="edge18" class="edge"><title>Node17&#45;&gt;Node18</title>
<path fill="none" stroke="midnightblue" d="M933.323,-69.6834C893.88,-56.7999 831.722,-36.4971 796.718,-25.0637"/>
<polygon fill="midnightblue" stroke="midnightblue" points="932.482,-73.0906 943.074,-72.8685 934.655,-66.4365 932.482,-73.0906"/>
</g>
<!-- Node19 -->
<g id="node19" class="node"><title>Node19</title>
<g id="a_node19"><a xlink:href="phsp__evaluating__functor_8cu.html" target="_top" xlink:title="phsp_evaluating_functor.cu">
<polygon fill="none" stroke="black" points="859.5,-6 859.5,-25 995.5,-25 995.5,-6 859.5,-6"/>
<text text-anchor="middle" x="927.5" y="-13" font-family="Helvetica,sans-Serif" font-size="10.00">phsp_evaluating_functor.cu</text>
</a>
</g>
</g>
<!-- Node17&#45;&gt;Node19 -->
<g id="edge19" class="edge"><title>Node17&#45;&gt;Node19</title>
<path fill="none" stroke="midnightblue" d="M958.215,-64.0347C950.083,-51.4499 939.459,-35.0072 933.075,-25.1273"/>
<polygon fill="midnightblue" stroke="midnightblue" points="955.469,-66.2341 963.836,-72.7338 961.348,-62.4351 955.469,-66.2341"/>
</g>
<!-- Node21 -->
<g id="node21" class="node"><title>Node21</title>
<g id="a_node21"><a xlink:href="phsp__reweighting_8cpp.html" target="_top" xlink:title="phsp_reweighting.cpp">
<polygon fill="none" stroke="black" points="1324,-6 1324,-25 1435,-25 1435,-6 1324,-6"/>
<text text-anchor="middle" x="1379.5" y="-13" font-family="Helvetica,sans-Serif" font-size="10.00">phsp_reweighting.cpp</text>
</a>
</g>
</g>
<!-- Node20&#45;&gt;Node21 -->
<g id="edge21" class="edge"><title>Node20&#45;&gt;Node21</title>
<path fill="none" stroke="midnightblue" d="M1350.25,-64.0347C1357.99,-51.4499 1368.11,-35.0072 1374.19,-25.1273"/>
<polygon fill="midnightblue" stroke="midnightblue" points="1347.15,-62.3829 1344.89,-72.7338 1353.12,-66.0516 1347.15,-62.3829"/>
</g>
<!-- Node22 -->
<g id="node22" class="node"><title>Node22</title>
<g id="a_node22"><a xlink:href="phsp__reweighting_8cu.html" target="_top" xlink:title="phsp_reweighting.cu">
<polygon fill="none" stroke="black" points="1453.5,-6 1453.5,-25 1559.5,-25 1559.5,-6 1453.5,-6"/>
<text text-anchor="middle" x="1506.5" y="-13" font-family="Helvetica,sans-Serif" font-size="10.00">phsp_reweighting.cu</text>
</a>
</g>
</g>
<!-- Node20&#45;&gt;Node22 -->
<g id="edge22" class="edge"><title>Node20&#45;&gt;Node22</title>
<path fill="none" stroke="midnightblue" d="M1371.35,-69.1041C1404.51,-56.1984 1455.56,-36.3272 1484.5,-25.0637"/>
<polygon fill="midnightblue" stroke="midnightblue" points="1369.73,-65.9796 1361.68,-72.8685 1372.26,-72.5029 1369.73,-65.9796"/>
</g>
<!-- Node24 -->
<g id="node24" class="node"><title>Node24</title>
<g id="a_node24"><a xlink:href="phsp__unweighting_8cpp.html" target="_top" xlink:title="phsp_unweighting.cpp">
<polygon fill="none" stroke="black" points="1578,-6 1578,-25 1691,-25 1691,-6 1578,-6"/>
<text text-anchor="middle" x="1634.5" y="-13" font-family="Helvetica,sans-Serif" font-size="10.00">phsp_unweighting.cpp</text>
</a>
</g>
</g>
<!-- Node23&#45;&gt;Node24 -->
<g id="edge24" class="edge"><title>Node23&#45;&gt;Node24</title>
<path fill="none" stroke="midnightblue" d="M1584.75,-65.4968C1597.69,-52.7496 1615.31,-35.3947 1625.74,-25.1273"/>
<polygon fill="midnightblue" stroke="midnightblue" points="1582.07,-63.2232 1577.4,-72.7338 1586.98,-68.2106 1582.07,-63.2232"/>
</g>
<!-- Node25 -->
<g id="node25" class="node"><title>Node25</title>
<g id="a_node25"><a xlink:href="phsp__unweighting_8cu.html" target="_top" xlink:title="phsp_unweighting.cu">
<polygon fill="none" stroke="black" points="1709.5,-6 1709.5,-25 1817.5,-25 1817.5,-6 1709.5,-6"/>
<text text-anchor="middle" x="1763.5" y="-13" font-family="Helvetica,sans-Serif" font-size="10.00">phsp_unweighting.cu</text>
</a>
</g>
</g>
<!-- Node23&#45;&gt;Node25 -->
<g id="edge25" class="edge"><title>Node23&#45;&gt;Node25</title>
<path fill="none" stroke="midnightblue" d="M1604.2,-69.6013C1642.86,-56.7138 1703.58,-36.4728 1737.81,-25.0637"/>
<polygon fill="midnightblue" stroke="midnightblue" points="1602.77,-66.3858 1594.39,-72.8685 1604.99,-73.0266 1602.77,-66.3858"/>
</g>
<!-- Node27 -->
<g id="node27" class="node"><title>Node27</title>
<g id="a_node27"><a xlink:href="phsp__unweighting__functor_8cpp.html" target="_top" xlink:title="phsp_unweighting_functor.cpp">
<polygon fill="none" stroke="black" points="1836,-6 1836,-25 1985,-25 1985,-6 1836,-6"/>
<text text-anchor="middle" x="1910.5" y="-13" font-family="Helvetica,sans-Serif" font-size="10.00">phsp_unweighting_functor.cpp</text>
</a>
</g>
</g>
<!-- Node26&#45;&gt;Node27 -->
<g id="edge27" class="edge"><title>Node26&#45;&gt;Node27</title>
<path fill="none" stroke="midnightblue" d="M1849.31,-66.2134C1865.08,-53.407 1887.01,-35.5884 1899.88,-25.1273"/>
<polygon fill="midnightblue" stroke="midnightblue" points="1846.84,-63.7114 1841.29,-72.7338 1851.26,-69.1443 1846.84,-63.7114"/>
</g>
<!-- Node28 -->
<g id="node28" class="node"><title>Node28</title>
<g id="a_node28"><a xlink:href="phsp__unweighting__functor_8cu.html" target="_top" xlink:title="phsp_unweighting_functor.cu">
<polygon fill="none" stroke="black" points="2003,-6 2003,-25 2146,-25 2146,-6 2003,-6"/>
<text text-anchor="middle" x="2074.5" y="-13" font-family="Helvetica,sans-Serif" font-size="10.00">phsp_unweighting_functor.cu</text>
</a>
</g>
</g>
<!-- Node26&#45;&gt;Node28 -->
<g id="edge28" class="edge"><title>Node26&#45;&gt;Node28</title>
<path fill="none" stroke="midnightblue" d="M1872.46,-70.3234C1920.63,-57.4887 1998.63,-36.7118 2042.28,-25.0834"/>
<polygon fill="midnightblue" stroke="midnightblue" points="1871.41,-66.9793 1862.65,-72.9355 1873.21,-73.7434 1871.41,-66.9793"/>
</g>
<!-- Node30 -->
<g id="node30" class="node"><title>Node30</title>
<g id="a_node30"><a xlink:href="dalitz__plot_8cpp.html" target="_top" xlink:title="dalitz_plot.cpp">
<polygon fill="none" stroke="black" points="2164.5,-6 2164.5,-25 2244.5,-25 2244.5,-6 2164.5,-6"/>
<text text-anchor="middle" x="2204.5" y="-13" font-family="Helvetica,sans-Serif" font-size="10.00">dalitz_plot.cpp</text>
</a>
</g>
</g>
<!-- Node29&#45;&gt;Node30 -->
<g id="edge30" class="edge"><title>Node29&#45;&gt;Node30</title>
<path fill="none" stroke="midnightblue" d="M2123.27,-67.2687C2143.86,-54.4026 2173.49,-35.879 2190.7,-25.1273"/>
<polygon fill="midnightblue" stroke="midnightblue" points="2121.15,-64.4658 2114.53,-72.7338 2124.86,-70.4018 2121.15,-64.4658"/>
</g>
<!-- Node31 -->
<g id="node31" class="node"><title>Node31</title>
<g id="a_node31"><a xlink:href="dalitz__plot_8cu.html" target="_top" xlink:title="dalitz_plot.cu">
<polygon fill="none" stroke="black" points="2262.5,-6 2262.5,-25 2336.5,-25 2336.5,-6 2262.5,-6"/>
<text text-anchor="middle" x="2299.5" y="-13" font-family="Helvetica,sans-Serif" font-size="10.00">dalitz_plot.cu</text>
</a>
</g>
</g>
<!-- Node29&#45;&gt;Node31 -->
<g id="edge31" class="edge"><title>Node29&#45;&gt;Node31</title>
<path fill="none" stroke="midnightblue" d="M2136.68,-69.6834C2176.12,-56.7999 2238.28,-36.4971 2273.28,-25.0637"/>
<polygon fill="midnightblue" stroke="midnightblue" points="2135.34,-66.4365 2126.93,-72.8685 2137.52,-73.0906 2135.34,-66.4365"/>
</g>
</g>
</svg>
