<?xml version="1.0" encoding="UTF-8" standalone="no"?>
<!DOCTYPE svg PUBLIC "-//W3C//DTD SVG 1.1//EN"
 "http://www.w3.org/Graphics/SVG/1.1/DTD/svg11.dtd">
<!-- Generated by graphviz version 2.42.4 (0)
 -->
<!-- Title: DecayMothers.h Pages: 1 -->
<!--zoomable 418 -->
<svg id="main" version="1.1" xmlns="http://www.w3.org/2000/svg" xmlns:xlink="http://www.w3.org/1999/xlink" xml:space="preserve" onload="init(evt)">
<style type="text/css"><![CDATA[
.edge:hover path { stroke: red; }
.edge:hover polygon { stroke: red; fill: red; }
]]></style>
<script type="text/javascript"><![CDATA[
var edges = document.getElementsByTagName('g');
if (edges && edges.length) {
  for (var i=0;i<edges.length;i++) {
    if (edges[i].id.substr(0,4)=='edge') {
      edges[i].setAttribute('class','edge');
    }
  }
}
]]></script>
        <defs>
                <circle id="rim" cx="0" cy="0" r="7"/>
                <circle id="rim2" cx="0" cy="0" r="3.5"/>
                <g id="zoomPlus">
                        <use xlink:href="#rim" fill="#404040">
                                <set attributeName="fill" to="#808080" begin="zoomplus.mouseover" end="zoomplus.mouseout"/>
                        </use>
                        <path d="M-4,0h8M0,-4v8" fill="none" stroke="white" stroke-width="1.5" pointer-events="none"/>
                </g>
                <g id="zoomMin">
                        <use xlink:href="#rim" fill="#404040">
                                <set attributeName="fill" to="#808080" begin="zoomminus.mouseover" end="zoomminus.mouseout"/>
                        </use>
                        <path d="M-4,0h8" fill="none" stroke="white" stroke-width="1.5" pointer-events="none"/>
                </g>
                <g id="dirArrow">
                        <path fill="none" stroke="white" stroke-width="1.5" d="M0,-3.0v7 M-2.5,-0.5L0,-3.0L2.5,-0.5"/>
                </g>
               <g id="resetDef">
                       <use xlink:href="#rim2" fill="#404040">
                               <set attributeName="fill" to="#808080" begin="reset.mouseover" end="reset.mouseout"/>
                       </use>
               </g>
        </defs>

<script type="text/javascript">
var viewWidth = 1768;
var viewHeight = 418;
var sectionId = 'dynsection-0';
</script>
<script xlink:href="svgpan.js"/>
<svg id="graph" class="graph">
<g id="viewport">
<title>DecayMothers.h</title>
<!-- Node0 -->
<g id="node1" class="node">
<title>Node0</title>
<polygon fill="#bfbfbf" stroke="black" points="550,-390.5 550,-409.5 639,-409.5 639,-390.5 550,-390.5"/>
<text text-anchor="middle" x="594.5" y="-397.5" font-family="Helvetica,sans-Serif" font-size="10.00">DecayMothers.h</text>
</g>
<!-- Node1 -->
<g id="node2" class="node">
<title>Node1</title>
<g id="a_node2"><a xlink:href="Config_8h.html" target="_top" xlink:title="hydra/detail/Config.h">
<polygon fill="none" stroke="black" points="236,-89.5 236,-108.5 343,-108.5 343,-89.5 236,-89.5"/>
<text text-anchor="middle" x="289.5" y="-96.5" font-family="Helvetica,sans-Serif" font-size="10.00">hydra/detail/Config.h</text>
</a>
</g>
</g>
<!-- Node0&#45;&gt;Node1 -->
<g id="edge1" class="edge">
<title>Node0&#45;&gt;Node1</title>
<path fill="none" stroke="midnightblue" d="M592.6,-390.39C584.43,-355.52 549.05,-223.39 468.5,-156 427.1,-121.36 404,-136.17 352.5,-120 343.83,-117.28 334.49,-114.33 325.74,-111.55"/>
<polygon fill="midnightblue" stroke="midnightblue" points="326.75,-108.2 316.16,-108.5 324.63,-114.87 326.75,-108.2"/>
</g>
<!-- Node4 -->
<g id="node5" class="node">
<title>Node4</title>
<g id="a_node5"><a xlink:href="Types_8h.html" target="_top" xlink:title="Common and useful typedefs. ">
<polygon fill="none" stroke="black" points="564.5,-162 564.5,-181 642.5,-181 642.5,-162 564.5,-162"/>
<text text-anchor="middle" x="603.5" y="-169" font-family="Helvetica,sans-Serif" font-size="10.00">hydra/Types.h</text>
</a>
</g>
</g>
<!-- Node0&#45;&gt;Node4 -->
<g id="edge4" class="edge">
<title>Node0&#45;&gt;Node4</title>
<path fill="none" stroke="midnightblue" d="M594.84,-390.4C596.16,-357.32 600.9,-237.87 602.75,-191.29"/>
<polygon fill="midnightblue" stroke="midnightblue" points="606.26,-191.24 603.16,-181.11 599.26,-190.96 606.26,-191.24"/>
</g>
<!-- Node5 -->
<g id="node6" class="node">
<title>Node5</title>
<g id="a_node6"><a xlink:href="Vector3R_8h.html" target="_top" xlink:title="hydra/Vector3R.h">
<polygon fill="none" stroke="black" points="141,-240 141,-259 234,-259 234,-240 141,-240"/>
<text text-anchor="middle" x="187.5" y="-247" font-family="Helvetica,sans-Serif" font-size="10.00">hydra/Vector3R.h</text>
</a>
</g>
</g>
<!-- Node0&#45;&gt;Node5 -->
<g id="edge5" class="edge">
<title>Node0&#45;&gt;Node5</title>
<path fill="none" stroke="midnightblue" d="M549.72,-392.85C506.93,-386.15 441.06,-373.69 386.5,-354 318.91,-329.61 245.38,-286.61 209.58,-264.5"/>
<polygon fill="midnightblue" stroke="midnightblue" points="211.25,-261.42 200.91,-259.1 207.55,-267.36 211.25,-261.42"/>
</g>
<!-- Node11 -->
<g id="node12" class="node">
<title>Node11</title>
<g id="a_node12"><a xlink:href="Vector4R_8h.html" target="_top" xlink:title="hydra/Vector4R.h">
<polygon fill="none" stroke="black" points="396,-323.5 396,-342.5 489,-342.5 489,-323.5 396,-323.5"/>
<text text-anchor="middle" x="442.5" y="-330.5" font-family="Helvetica,sans-Serif" font-size="10.00">hydra/Vector4R.h</text>
</a>
</g>
</g>
<!-- Node0&#45;&gt;Node11 -->
<g id="edge13" class="edge">
<title>Node0&#45;&gt;Node11</title>
<path fill="none" stroke="midnightblue" d="M574.32,-390.37C548.2,-379.2 502.47,-359.65 472.34,-346.76"/>
<polygon fill="midnightblue" stroke="midnightblue" points="473.34,-343.38 462.77,-342.67 470.59,-349.82 473.34,-343.38"/>
</g>
<!-- Node13 -->
<g id="node14" class="node">
<title>Node13</title>
<g id="a_node14"><a xlink:href="Utility__Tuple_8h.html" target="_top" xlink:title="hydra/detail/utility\l/Utility_Tuple.h">
<polygon fill="none" stroke="black" points="1066,-318 1066,-348 1159,-348 1159,-318 1066,-318"/>
<text text-anchor="start" x="1074" y="-336" font-family="Helvetica,sans-Serif" font-size="10.00">hydra/detail/utility</text>
<text text-anchor="middle" x="1112.5" y="-325" font-family="Helvetica,sans-Serif" font-size="10.00">/Utility_Tuple.h</text>
</a>
</g>
</g>
<!-- Node0&#45;&gt;Node13 -->
<g id="edge20" class="edge">
<title>Node0&#45;&gt;Node13</title>
<path fill="none" stroke="midnightblue" d="M639.11,-393.4C733.28,-381.59 952.19,-354.12 1055.98,-341.09"/>
<polygon fill="midnightblue" stroke="midnightblue" points="1056.47,-344.56 1065.95,-339.84 1055.6,-337.61 1056.47,-344.56"/>
</g>
<!-- Node20 -->
<g id="node21" class="node">
<title>Node20</title>
<polygon fill="none" stroke="#bfbfbf" points="1576.5,-156.5 1576.5,-186.5 1682.5,-186.5 1682.5,-156.5 1576.5,-156.5"/>
<text text-anchor="start" x="1584.5" y="-174.5" font-family="Helvetica,sans-Serif" font-size="10.00">hydra/detail/external</text>
<text text-anchor="middle" x="1629.5" y="-163.5" font-family="Helvetica,sans-Serif" font-size="10.00">/hydra_thrust/tuple.h</text>
</g>
<!-- Node0&#45;&gt;Node20 -->
<g id="edge60" class="edge">
<title>Node0&#45;&gt;Node20</title>
<path fill="none" stroke="midnightblue" d="M639.08,-396.51C824.18,-385.75 1525.85,-340.97 1598.5,-276 1620.83,-256.03 1627.36,-220.7 1629.12,-196.94"/>
<polygon fill="midnightblue" stroke="midnightblue" points="1632.63,-196.79 1629.64,-186.63 1625.64,-196.44 1632.63,-196.79"/>
</g>
<!-- Node38 -->
<g id="node39" class="node">
<title>Node38</title>
<polygon fill="none" stroke="#bfbfbf" points="1653,-312.5 1653,-353.5 1760,-353.5 1760,-312.5 1653,-312.5"/>
<text text-anchor="start" x="1661" y="-341.5" font-family="Helvetica,sans-Serif" font-size="10.00">hydra/detail/external</text>
<text text-anchor="start" x="1661" y="-330.5" font-family="Helvetica,sans-Serif" font-size="10.00">/hydra_thrust/iterator</text>
<text text-anchor="middle" x="1706.5" y="-319.5" font-family="Helvetica,sans-Serif" font-size="10.00">/zip_iterator.h</text>
</g>
<!-- Node0&#45;&gt;Node38 -->
<g id="edge61" class="edge">
<title>Node0&#45;&gt;Node38</title>
<path fill="none" stroke="midnightblue" d="M639.25,-398.52C812.83,-396.42 1441.75,-386.67 1638.5,-354 1639.98,-353.75 1641.47,-353.49 1642.97,-353.2"/>
<polygon fill="midnightblue" stroke="midnightblue" points="1643.92,-356.58 1652.96,-351.05 1642.45,-349.73 1643.92,-356.58"/>
</g>
<!-- Node2 -->
<g id="node3" class="node">
<title>Node2</title>
<polygon fill="none" stroke="#bfbfbf" points="175.5,-0.5 175.5,-41.5 279.5,-41.5 279.5,-0.5 175.5,-0.5"/>
<text text-anchor="start" x="183.5" y="-29.5" font-family="Helvetica,sans-Serif" font-size="10.00">hydra/detail/external</text>
<text text-anchor="start" x="183.5" y="-18.5" font-family="Helvetica,sans-Serif" font-size="10.00">/hydra_thrust/detail</text>
<text text-anchor="middle" x="227.5" y="-7.5" font-family="Helvetica,sans-Serif" font-size="10.00">/config.h</text>
</g>
<!-- Node1&#45;&gt;Node2 -->
<g id="edge2" class="edge">
<title>Node1&#45;&gt;Node2</title>
<path fill="none" stroke="midnightblue" d="M282.39,-89.28C274.52,-79.63 261.43,-63.6 250.02,-49.6"/>
<polygon fill="midnightblue" stroke="midnightblue" points="252.57,-47.19 243.54,-41.66 247.15,-51.62 252.57,-47.19"/>
</g>
<!-- Node3 -->
<g id="node4" class="node">
<title>Node3</title>
<polygon fill="none" stroke="#bfbfbf" points="297.5,-0.5 297.5,-41.5 407.5,-41.5 407.5,-0.5 297.5,-0.5"/>
<text text-anchor="start" x="305.5" y="-29.5" font-family="Helvetica,sans-Serif" font-size="10.00">hydra/detail/external</text>
<text text-anchor="start" x="305.5" y="-18.5" font-family="Helvetica,sans-Serif" font-size="10.00">/hydra_thrust/detail</text>
<text text-anchor="middle" x="352.5" y="-7.5" font-family="Helvetica,sans-Serif" font-size="10.00">/config/host_device.h</text>
</g>
<!-- Node1&#45;&gt;Node3 -->
<g id="edge3" class="edge">
<title>Node1&#45;&gt;Node3</title>
<path fill="none" stroke="midnightblue" d="M296.73,-89.28C304.72,-79.63 318.02,-63.6 329.62,-49.6"/>
<polygon fill="midnightblue" stroke="midnightblue" points="332.52,-51.59 336.2,-41.66 327.13,-47.12 332.52,-51.59"/>
</g>
<!-- Node5&#45;&gt;Node1 -->
<g id="edge6" class="edge">
<title>Node5&#45;&gt;Node1</title>
<path fill="none" stroke="midnightblue" d="M201.14,-239.9C216.99,-229.27 242.95,-209.75 258.5,-187 272.96,-165.85 281.44,-137.22 285.78,-118.68"/>
<polygon fill="midnightblue" stroke="midnightblue" points="289.22,-119.34 287.91,-108.83 282.38,-117.86 289.22,-119.34"/>
</g>
<!-- Node5&#45;&gt;Node4 -->
<g id="edge7" class="edge">
<title>Node5&#45;&gt;Node4</title>
<path fill="none" stroke="midnightblue" d="M215.69,-239.99C234.26,-234.59 259.18,-227.76 281.5,-223 377.17,-202.59 490.47,-186.71 553.96,-178.56"/>
<polygon fill="midnightblue" stroke="midnightblue" points="554.61,-182 564.09,-177.27 553.73,-175.06 554.61,-182"/>
</g>
<!-- Node6 -->
<g id="node7" class="node">
<title>Node6</title>
<polygon fill="none" stroke="#bfbfbf" points="0,-162 0,-181 45,-181 45,-162 0,-162"/>
<text text-anchor="middle" x="22.5" y="-169" font-family="Helvetica,sans-Serif" font-size="10.00">iosfwd</text>
</g>
<!-- Node5&#45;&gt;Node6 -->
<g id="edge8" class="edge">
<title>Node5&#45;&gt;Node6</title>
<path fill="none" stroke="midnightblue" d="M168.89,-239.93C140.05,-226.64 84.36,-200.99 50.6,-185.44"/>
<polygon fill="midnightblue" stroke="midnightblue" points="51.84,-182.16 41.29,-181.16 48.91,-188.52 51.84,-182.16"/>
</g>
<!-- Node7 -->
<g id="node8" class="node">
<title>Node7</title>
<polygon fill="none" stroke="#bfbfbf" points="305.5,-162 305.5,-181 359.5,-181 359.5,-162 305.5,-162"/>
<text text-anchor="middle" x="332.5" y="-169" font-family="Helvetica,sans-Serif" font-size="10.00">iostream</text>
</g>
<!-- Node5&#45;&gt;Node7 -->
<g id="edge9" class="edge">
<title>Node5&#45;&gt;Node7</title>
<path fill="none" stroke="midnightblue" d="M203.85,-239.93C228.98,-226.76 277.3,-201.43 307.04,-185.85"/>
<polygon fill="midnightblue" stroke="midnightblue" points="308.75,-188.9 315.99,-181.16 305.5,-182.7 308.75,-188.9"/>
</g>
<!-- Node8 -->
<g id="node9" class="node">
<title>Node8</title>
<polygon fill="none" stroke="#bfbfbf" points="392,-162 392,-181 439,-181 439,-162 392,-162"/>
<text text-anchor="middle" x="415.5" y="-169" font-family="Helvetica,sans-Serif" font-size="10.00">math.h</text>
</g>
<!-- Node5&#45;&gt;Node8 -->
<g id="edge10" class="edge">
<title>Node5&#45;&gt;Node8</title>
<path fill="none" stroke="midnightblue" d="M213.21,-239.93C254.68,-226.11 336.31,-198.9 382.18,-183.61"/>
<polygon fill="midnightblue" stroke="midnightblue" points="383.56,-186.84 391.94,-180.35 381.35,-180.19 383.56,-186.84"/>
</g>
<!-- Node9 -->
<g id="node10" class="node">
<title>Node9</title>
<polygon fill="none" stroke="#bfbfbf" points="63.5,-162 63.5,-181 107.5,-181 107.5,-162 63.5,-162"/>
<text text-anchor="middle" x="85.5" y="-169" font-family="Helvetica,sans-Serif" font-size="10.00">cmath</text>
</g>
<!-- Node5&#45;&gt;Node9 -->
<g id="edge11" class="edge">
<title>Node5&#45;&gt;Node9</title>
<path fill="none" stroke="midnightblue" d="M175.8,-239.78C158.58,-226.95 126.21,-202.83 105.26,-187.23"/>
<polygon fill="midnightblue" stroke="midnightblue" points="107.17,-184.28 97.06,-181.12 102.99,-189.9 107.17,-184.28"/>
</g>
<!-- Node10 -->
<g id="node11" class="node">
<title>Node10</title>
<g id="a_node11"><a xlink:href="Vector3R_8inl.html" target="_top" xlink:title="hydra/detail/Vector3R.inl">
<polygon fill="none" stroke="black" points="125.5,-162 125.5,-181 249.5,-181 249.5,-162 125.5,-162"/>
<text text-anchor="middle" x="187.5" y="-169" font-family="Helvetica,sans-Serif" font-size="10.00">hydra/detail/Vector3R.inl</text>
</a>
</g>
</g>
<!-- Node5&#45;&gt;Node10 -->
<g id="edge12" class="edge">
<title>Node5&#45;&gt;Node10</title>
<path fill="none" stroke="midnightblue" d="M187.5,-239.78C187.5,-227.99 187.5,-206.63 187.5,-191.14"/>
<polygon fill="midnightblue" stroke="midnightblue" points="191,-191.12 187.5,-181.12 184,-191.12 191,-191.12"/>
</g>
<!-- Node11&#45;&gt;Node1 -->
<g id="edge16" class="edge">
<title>Node11&#45;&gt;Node1</title>
<path fill="none" stroke="midnightblue" d="M446.06,-323.27C456.66,-295.7 485.07,-209.18 447.5,-156 443.82,-150.8 371.22,-126.5 325.72,-111.67"/>
<polygon fill="midnightblue" stroke="midnightblue" points="326.78,-108.33 316.19,-108.57 324.61,-114.99 326.78,-108.33"/>
</g>
<!-- Node11&#45;&gt;Node4 -->
<g id="edge17" class="edge">
<title>Node11&#45;&gt;Node4</title>
<path fill="none" stroke="midnightblue" d="M451.16,-323.42C477.04,-297.79 554.1,-221.44 587.63,-188.23"/>
<polygon fill="midnightblue" stroke="midnightblue" points="590.16,-190.64 594.8,-181.12 585.23,-185.67 590.16,-190.64"/>
</g>
<!-- Node11&#45;&gt;Node5 -->
<g id="edge18" class="edge">
<title>Node11&#45;&gt;Node5</title>
<path fill="none" stroke="midnightblue" d="M408.48,-323.45C369.45,-313.35 303.72,-295.44 248.5,-276 237.67,-272.19 225.99,-267.46 215.78,-263.12"/>
<polygon fill="midnightblue" stroke="midnightblue" points="217.08,-259.87 206.51,-259.11 214.3,-266.29 217.08,-259.87"/>
</g>
<!-- Node11&#45;&gt;Node7 -->
<g id="edge15" class="edge">
<title>Node11&#45;&gt;Node7</title>
<path fill="none" stroke="midnightblue" d="M395.78,-329.76C358.08,-325.19 307.22,-312.18 281.5,-276 267.85,-256.8 272.43,-244.74 281.5,-223 287.54,-208.52 299.97,-196.07 311.05,-187.15"/>
<polygon fill="midnightblue" stroke="midnightblue" points="313.26,-189.87 319.13,-181.05 309.04,-184.28 313.26,-189.87"/>
</g>
<!-- Node11&#45;&gt;Node8 -->
<g id="edge14" class="edge">
<title>Node11&#45;&gt;Node8</title>
<path fill="none" stroke="midnightblue" d="M441.05,-323.42C436.84,-298.54 424.54,-225.91 418.68,-191.28"/>
<polygon fill="midnightblue" stroke="midnightblue" points="422.08,-190.39 416.96,-181.12 415.18,-191.56 422.08,-190.39"/>
</g>
<!-- Node12 -->
<g id="node13" class="node">
<title>Node12</title>
<g id="a_node13"><a xlink:href="Vector4R_8inl.html" target="_top" xlink:title="hydra/detail/Vector4R.inl">
<polygon fill="none" stroke="black" points="290.5,-240 290.5,-259 414.5,-259 414.5,-240 290.5,-240"/>
<text text-anchor="middle" x="352.5" y="-247" font-family="Helvetica,sans-Serif" font-size="10.00">hydra/detail/Vector4R.inl</text>
</a>
</g>
</g>
<!-- Node11&#45;&gt;Node12 -->
<g id="edge19" class="edge">
<title>Node11&#45;&gt;Node12</title>
<path fill="none" stroke="midnightblue" d="M432.87,-323.28C417.78,-309.61 388.36,-282.97 369.6,-265.99"/>
<polygon fill="midnightblue" stroke="midnightblue" points="371.82,-263.28 362.06,-259.16 367.13,-268.47 371.82,-263.28"/>
</g>
<!-- Node13&#45;&gt;Node1 -->
<g id="edge21" class="edge">
<title>Node13&#45;&gt;Node1</title>
<path fill="none" stroke="midnightblue" d="M1065.7,-328.85C980.6,-322.45 804.42,-305.95 751.5,-276 721.29,-258.9 682,-172.58 651.5,-156 533.9,-92.07 483.31,-148.37 352.5,-120 342.6,-117.85 332.03,-114.8 322.43,-111.74"/>
<polygon fill="midnightblue" stroke="midnightblue" points="323.44,-108.38 312.85,-108.57 321.24,-115.03 323.44,-108.38"/>
</g>
<!-- Node13&#45;&gt;Node4 -->
<g id="edge22" class="edge">
<title>Node13&#45;&gt;Node4</title>
<path fill="none" stroke="midnightblue" d="M1065.97,-331.69C963.43,-330.17 721.88,-321.68 656.5,-276 627.64,-255.84 613.51,-215.12 607.43,-191.2"/>
<polygon fill="midnightblue" stroke="midnightblue" points="610.79,-190.2 605.12,-181.26 603.97,-191.79 610.79,-190.2"/>
</g>
<!-- Node14 -->
<g id="node15" class="node">
<title>Node14</title>
<g id="a_node15"><a xlink:href="Generic_8h.html" target="_top" xlink:title="hydra/detail/utility\l/Generic.h">
<polygon fill="none" stroke="black" points="1223,-234.5 1223,-264.5 1316,-264.5 1316,-234.5 1223,-234.5"/>
<text text-anchor="start" x="1231" y="-252.5" font-family="Helvetica,sans-Serif" font-size="10.00">hydra/detail/utility</text>
<text text-anchor="middle" x="1269.5" y="-241.5" font-family="Helvetica,sans-Serif" font-size="10.00">/Generic.h</text>
</a>
</g>
</g>
<!-- Node13&#45;&gt;Node14 -->
<g id="edge23" class="edge">
<title>Node13&#45;&gt;Node14</title>
<path fill="none" stroke="midnightblue" d="M1139.49,-317.99C1165.44,-304.52 1204.83,-284.07 1233.45,-269.21"/>
<polygon fill="midnightblue" stroke="midnightblue" points="1235.07,-272.31 1242.34,-264.6 1231.85,-266.1 1235.07,-272.31"/>
</g>
<!-- Node15 -->
<g id="node16" class="node">
<title>Node15</title>
<polygon fill="none" stroke="#bfbfbf" points="1621.5,-89.5 1621.5,-108.5 1683.5,-108.5 1683.5,-89.5 1621.5,-89.5"/>
<text text-anchor="middle" x="1652.5" y="-96.5" font-family="Helvetica,sans-Serif" font-size="10.00">type_traits</text>
</g>
<!-- Node13&#45;&gt;Node15 -->
<g id="edge58" class="edge">
<title>Node13&#45;&gt;Node15</title>
<path fill="none" stroke="midnightblue" d="M1159.25,-329.31C1245.66,-323.61 1426.44,-308.15 1479.5,-276 1536.06,-241.73 1519.58,-201.58 1567.5,-156 1585.49,-138.89 1609.34,-123.69 1627.2,-113.46"/>
<polygon fill="midnightblue" stroke="midnightblue" points="1628.9,-116.52 1635.92,-108.58 1625.49,-110.41 1628.9,-116.52"/>
</g>
<!-- Node16 -->
<g id="node17" class="node">
<title>Node16</title>
<polygon fill="none" stroke="#bfbfbf" points="1193.5,-162 1193.5,-181 1231.5,-181 1231.5,-162 1193.5,-162"/>
<text text-anchor="middle" x="1212.5" y="-169" font-family="Helvetica,sans-Serif" font-size="10.00">array</text>
</g>
<!-- Node13&#45;&gt;Node16 -->
<g id="edge59" class="edge">
<title>Node13&#45;&gt;Node16</title>
<path fill="none" stroke="midnightblue" d="M1130.68,-317.93C1143.21,-307.46 1159.53,-292.24 1170.5,-276 1188.81,-248.91 1201.22,-212.61 1207.56,-190.98"/>
<polygon fill="midnightblue" stroke="midnightblue" points="1210.99,-191.71 1210.32,-181.13 1204.25,-189.81 1210.99,-191.71"/>
</g>
<!-- Node17 -->
<g id="node18" class="node">
<title>Node17</title>
<g id="a_node18"><a xlink:href="TagTraits_8h.html" target="_top" xlink:title="hydra/detail/TagTraits.h">
<polygon fill="none" stroke="black" points="1009,-240 1009,-259 1128,-259 1128,-240 1009,-240"/>
<text text-anchor="middle" x="1068.5" y="-247" font-family="Helvetica,sans-Serif" font-size="10.00">hydra/detail/TagTraits.h</text>
</a>
</g>
</g>
<!-- Node13&#45;&gt;Node17 -->
<g id="edge26" class="edge">
<title>Node13&#45;&gt;Node17</title>
<path fill="none" stroke="midnightblue" d="M1104.84,-317.8C1097.39,-304.02 1086.08,-283.05 1078.05,-268.19"/>
<polygon fill="midnightblue" stroke="midnightblue" points="1080.94,-266.18 1073.11,-259.04 1074.78,-269.5 1080.94,-266.18"/>
</g>
<!-- Node18 -->
<g id="node19" class="node">
<title>Node18</title>
<g id="a_node19"><a xlink:href="FunctorTraits_8h.html" target="_top" xlink:title="hydra/detail/FunctorTraits.h">
<polygon fill="none" stroke="black" points="1334.5,-240 1334.5,-259 1470.5,-259 1470.5,-240 1334.5,-240"/>
<text text-anchor="middle" x="1402.5" y="-247" font-family="Helvetica,sans-Serif" font-size="10.00">hydra/detail/FunctorTraits.h</text>
</a>
</g>
</g>
<!-- Node13&#45;&gt;Node18 -->
<g id="edge29" class="edge">
<title>Node13&#45;&gt;Node18</title>
<path fill="none" stroke="midnightblue" d="M1159.27,-320.6C1202.58,-309.83 1268.68,-292.86 1325.5,-276 1339.59,-271.82 1355,-266.81 1368.3,-262.34"/>
<polygon fill="midnightblue" stroke="midnightblue" points="1369.66,-265.57 1378,-259.05 1367.41,-258.94 1369.66,-265.57"/>
</g>
<!-- Node13&#45;&gt;Node20 -->
<g id="edge55" class="edge">
<title>Node13&#45;&gt;Node20</title>
<path fill="none" stroke="midnightblue" d="M1159.24,-331.11C1260.44,-328.4 1496.05,-317.67 1562.5,-276 1592.01,-257.49 1611.08,-220.69 1621.06,-196.33"/>
<polygon fill="midnightblue" stroke="midnightblue" points="1624.42,-197.33 1624.78,-186.74 1617.9,-194.8 1624.42,-197.33"/>
</g>
<!-- Node23 -->
<g id="node24" class="node">
<title>Node23</title>
<g id="a_node24"><a xlink:href="Parameter_8h.html" target="_top" xlink:title="hydra/Parameter.h">
<polygon fill="none" stroke="black" points="760.5,-240 760.5,-259 856.5,-259 856.5,-240 760.5,-240"/>
<text text-anchor="middle" x="808.5" y="-247" font-family="Helvetica,sans-Serif" font-size="10.00">hydra/Parameter.h</text>
</a>
</g>
</g>
<!-- Node13&#45;&gt;Node23 -->
<g id="edge36" class="edge">
<title>Node13&#45;&gt;Node23</title>
<path fill="none" stroke="midnightblue" d="M1065.77,-324.26C1015.54,-315.27 933.7,-298.74 865.5,-276 855.2,-272.56 844.23,-267.91 834.69,-263.52"/>
<polygon fill="midnightblue" stroke="midnightblue" points="835.9,-260.22 825.36,-259.1 832.9,-266.55 835.9,-260.22"/>
</g>
<!-- Node27 -->
<g id="node28" class="node">
<title>Node27</title>
<polygon fill="none" stroke="#bfbfbf" points="1359.5,-78.5 1359.5,-119.5 1463.5,-119.5 1463.5,-78.5 1359.5,-78.5"/>
<text text-anchor="start" x="1367.5" y="-107.5" font-family="Helvetica,sans-Serif" font-size="10.00">hydra/detail/external</text>
<text text-anchor="start" x="1367.5" y="-96.5" font-family="Helvetica,sans-Serif" font-size="10.00">/hydra_thrust/detail</text>
<text text-anchor="middle" x="1411.5" y="-85.5" font-family="Helvetica,sans-Serif" font-size="10.00">/type_traits.h</text>
</g>
<!-- Node13&#45;&gt;Node27 -->
<g id="edge56" class="edge">
<title>Node13&#45;&gt;Node27</title>
<path fill="none" stroke="midnightblue" d="M1119.05,-317.81C1124.21,-306.54 1131.5,-290.34 1137.5,-276 1159.63,-223.17 1140.9,-193.14 1184.5,-156 1239.61,-109.06 1274.68,-137.24 1349.54,-119.96"/>
<polygon fill="midnightblue" stroke="midnightblue" points="1350.52,-123.32 1359.36,-117.49 1348.81,-116.54 1350.52,-123.32"/>
</g>
<!-- Node37 -->
<g id="node38" class="node">
<title>Node37</title>
<polygon fill="none" stroke="#bfbfbf" points="874.5,-223.5 874.5,-275.5 990.5,-275.5 990.5,-223.5 874.5,-223.5"/>
<text text-anchor="start" x="882.5" y="-263.5" font-family="Helvetica,sans-Serif" font-size="10.00">hydra/detail/external</text>
<text text-anchor="start" x="882.5" y="-252.5" font-family="Helvetica,sans-Serif" font-size="10.00">/hydra_thrust/iterator</text>
<text text-anchor="start" x="882.5" y="-241.5" font-family="Helvetica,sans-Serif" font-size="10.00">/detail/tuple_of_iterator</text>
<text text-anchor="middle" x="932.5" y="-230.5" font-family="Helvetica,sans-Serif" font-size="10.00">_references.h</text>
</g>
<!-- Node13&#45;&gt;Node37 -->
<g id="edge57" class="edge">
<title>Node13&#45;&gt;Node37</title>
<path fill="none" stroke="midnightblue" d="M1081.56,-317.99C1058.34,-307.48 1025.73,-292.71 996.93,-279.67"/>
<polygon fill="midnightblue" stroke="midnightblue" points="998.28,-276.44 987.73,-275.51 995.4,-282.82 998.28,-276.44"/>
</g>
<!-- Node14&#45;&gt;Node15 -->
<g id="edge24" class="edge">
<title>Node14&#45;&gt;Node15</title>
<path fill="none" stroke="midnightblue" d="M1273.19,-234.46C1279.5,-213.54 1294.45,-174.66 1322.5,-156 1430.64,-84.07 1488.18,-157.58 1612.5,-120 1618.07,-118.31 1623.82,-115.9 1629.15,-113.33"/>
<polygon fill="midnightblue" stroke="midnightblue" points="1630.91,-116.36 1638.18,-108.65 1627.69,-110.14 1630.91,-116.36"/>
</g>
<!-- Node14&#45;&gt;Node16 -->
<g id="edge25" class="edge">
<title>Node14&#45;&gt;Node16</title>
<path fill="none" stroke="midnightblue" d="M1258.78,-234.2C1249.24,-221.49 1235.28,-202.87 1225.19,-189.42"/>
<polygon fill="midnightblue" stroke="midnightblue" points="1227.72,-186.96 1218.92,-181.06 1222.12,-191.16 1227.72,-186.96"/>
</g>
<!-- Node17&#45;&gt;Node4 -->
<g id="edge28" class="edge">
<title>Node17&#45;&gt;Node4</title>
<path fill="none" stroke="midnightblue" d="M1048.95,-239.92C1035.33,-234.28 1016.62,-227.2 999.5,-223 982.84,-218.92 755.17,-190.95 652.78,-178.48"/>
<polygon fill="midnightblue" stroke="midnightblue" points="653.04,-174.99 642.69,-177.25 652.19,-181.94 653.04,-174.99"/>
</g>
<!-- Node17&#45;&gt;Node15 -->
<g id="edge27" class="edge">
<title>Node17&#45;&gt;Node15</title>
<path fill="none" stroke="midnightblue" d="M1075.85,-239.89C1092.76,-220.79 1136.63,-175.04 1184.5,-156 1361.88,-85.45 1428.72,-171.61 1612.5,-120 1618.2,-118.4 1624.05,-115.98 1629.46,-113.37"/>
<polygon fill="midnightblue" stroke="midnightblue" points="1631.35,-116.33 1638.59,-108.6 1628.11,-110.13 1631.35,-116.33"/>
</g>
<!-- Node18&#45;&gt;Node1 -->
<g id="edge30" class="edge">
<title>Node18&#45;&gt;Node1</title>
<path fill="none" stroke="midnightblue" d="M1380.95,-239.93C1365.7,-234.22 1344.65,-227.05 1325.5,-223 1164.73,-188.96 1109.44,-249.62 957.5,-187 937.35,-178.7 939.79,-163.96 919.5,-156 801.97,-109.89 476.59,-143.27 352.5,-120 342.29,-118.08 331.42,-115.02 321.63,-111.86"/>
<polygon fill="midnightblue" stroke="midnightblue" points="322.5,-108.46 311.9,-108.58 320.26,-115.09 322.5,-108.46"/>
</g>
<!-- Node18&#45;&gt;Node15 -->
<g id="edge35" class="edge">
<title>Node18&#45;&gt;Node15</title>
<path fill="none" stroke="midnightblue" d="M1415.23,-239.82C1432.56,-227.98 1464.49,-206.06 1491.5,-187 1510.75,-173.41 1514.15,-167.88 1534.5,-156 1567.47,-136.75 1578.09,-136.54 1612.5,-120 1616.99,-117.84 1621.74,-115.51 1626.33,-113.23"/>
<polygon fill="midnightblue" stroke="midnightblue" points="1628.05,-116.29 1635.43,-108.68 1624.92,-110.02 1628.05,-116.29"/>
</g>
<!-- Node19 -->
<g id="node20" class="node">
<title>Node19</title>
<g id="a_node20"><a xlink:href="StaticAssert_8h.html" target="_top" xlink:title="hydra/detail/utility\l/StaticAssert.h">
<polygon fill="none" stroke="black" points="1331,-156.5 1331,-186.5 1424,-186.5 1424,-156.5 1331,-156.5"/>
<text text-anchor="start" x="1339" y="-174.5" font-family="Helvetica,sans-Serif" font-size="10.00">hydra/detail/utility</text>
<text text-anchor="middle" x="1377.5" y="-163.5" font-family="Helvetica,sans-Serif" font-size="10.00">/StaticAssert.h</text>
</a>
</g>
</g>
<!-- Node18&#45;&gt;Node19 -->
<g id="edge31" class="edge">
<title>Node18&#45;&gt;Node19</title>
<path fill="none" stroke="midnightblue" d="M1399.63,-239.78C1396.15,-229.2 1390.14,-210.93 1385.26,-196.1"/>
<polygon fill="midnightblue" stroke="midnightblue" points="1388.56,-194.93 1382.11,-186.52 1381.91,-197.11 1388.56,-194.93"/>
</g>
<!-- Node18&#45;&gt;Node20 -->
<g id="edge32" class="edge">
<title>Node18&#45;&gt;Node20</title>
<path fill="none" stroke="midnightblue" d="M1428.1,-239.93C1464.25,-227.82 1531.07,-205.45 1577.79,-189.81"/>
<polygon fill="midnightblue" stroke="midnightblue" points="1579.07,-193.08 1587.44,-186.58 1576.85,-186.44 1579.07,-193.08"/>
</g>
<!-- Node21 -->
<g id="node22" class="node">
<title>Node21</title>
<polygon fill="none" stroke="#bfbfbf" points="1481.5,-78.5 1481.5,-119.5 1603.5,-119.5 1603.5,-78.5 1481.5,-78.5"/>
<text text-anchor="start" x="1489.5" y="-107.5" font-family="Helvetica,sans-Serif" font-size="10.00">hydra/detail/external</text>
<text text-anchor="start" x="1489.5" y="-96.5" font-family="Helvetica,sans-Serif" font-size="10.00">/hydra_thrust/type_traits</text>
<text text-anchor="middle" x="1542.5" y="-85.5" font-family="Helvetica,sans-Serif" font-size="10.00">/void_t.h</text>
</g>
<!-- Node18&#45;&gt;Node21 -->
<g id="edge33" class="edge">
<title>Node18&#45;&gt;Node21</title>
<path fill="none" stroke="midnightblue" d="M1384.79,-239.8C1354.28,-223.66 1297.39,-187.85 1322.5,-156 1363.04,-104.58 1402.48,-134.43 1471.52,-119.96"/>
<polygon fill="midnightblue" stroke="midnightblue" points="1472.53,-123.31 1481.46,-117.61 1470.92,-116.5 1472.53,-123.31"/>
</g>
<!-- Node22 -->
<g id="node23" class="node">
<title>Node22</title>
<polygon fill="none" stroke="#bfbfbf" points="1442.5,-162 1442.5,-181 1482.5,-181 1482.5,-162 1442.5,-162"/>
<text text-anchor="middle" x="1462.5" y="-169" font-family="Helvetica,sans-Serif" font-size="10.00">utility</text>
</g>
<!-- Node18&#45;&gt;Node22 -->
<g id="edge34" class="edge">
<title>Node18&#45;&gt;Node22</title>
<path fill="none" stroke="midnightblue" d="M1409.38,-239.78C1419.06,-227.53 1436.87,-204.96 1449.19,-189.36"/>
<polygon fill="midnightblue" stroke="midnightblue" points="1452.25,-191.13 1455.7,-181.12 1446.75,-186.8 1452.25,-191.13"/>
</g>
<!-- Node23&#45;&gt;Node1 -->
<g id="edge37" class="edge">
<title>Node23&#45;&gt;Node1</title>
<path fill="none" stroke="midnightblue" d="M796.97,-239.77C766.81,-216.97 687.73,-157.27 684.5,-156 546.36,-101.71 497.73,-150.61 352.5,-120 342.5,-117.89 331.83,-114.83 322.17,-111.73"/>
<polygon fill="midnightblue" stroke="midnightblue" points="323.13,-108.37 312.54,-108.53 320.93,-115.01 323.13,-108.37"/>
</g>
<!-- Node23&#45;&gt;Node4 -->
<g id="edge38" class="edge">
<title>Node23&#45;&gt;Node4</title>
<path fill="none" stroke="midnightblue" d="M785.38,-239.93C748.84,-226.38 677.6,-199.97 635.95,-184.53"/>
<polygon fill="midnightblue" stroke="midnightblue" points="637.13,-181.23 626.53,-181.04 634.69,-187.8 637.13,-181.23"/>
</g>
<!-- Node24 -->
<g id="node25" class="node">
<title>Node24</title>
<g id="a_node25"><a xlink:href="TypeTraits_8h.html" target="_top" xlink:title="hydra/detail/TypeTraits.h">
<polygon fill="none" stroke="black" points="966.5,-162 966.5,-181 1090.5,-181 1090.5,-162 966.5,-162"/>
<text text-anchor="middle" x="1028.5" y="-169" font-family="Helvetica,sans-Serif" font-size="10.00">hydra/detail/TypeTraits.h</text>
</a>
</g>
</g>
<!-- Node23&#45;&gt;Node24 -->
<g id="edge39" class="edge">
<title>Node23&#45;&gt;Node24</title>
<path fill="none" stroke="midnightblue" d="M826.24,-239.9C837.37,-234.67 852.11,-228.05 865.5,-223 906.2,-207.66 953.82,-193.3 987.05,-183.85"/>
<polygon fill="midnightblue" stroke="midnightblue" points="988.2,-187.16 996.87,-181.08 986.3,-180.42 988.2,-187.16"/>
</g>
<!-- Node34 -->
<g id="node35" class="node">
<title>Node34</title>
<polygon fill="none" stroke="#bfbfbf" points="737,-162 737,-181 778,-181 778,-162 737,-162"/>
<text text-anchor="middle" x="757.5" y="-169" font-family="Helvetica,sans-Serif" font-size="10.00">string</text>
</g>
<!-- Node23&#45;&gt;Node34 -->
<g id="edge52" class="edge">
<title>Node23&#45;&gt;Node34</title>
<path fill="none" stroke="midnightblue" d="M802.65,-239.78C794.5,-227.64 779.57,-205.38 769.11,-189.8"/>
<polygon fill="midnightblue" stroke="midnightblue" points="771.76,-187.47 763.28,-181.12 765.95,-191.37 771.76,-187.47"/>
</g>
<!-- Node35 -->
<g id="node36" class="node">
<title>Node35</title>
<polygon fill="none" stroke="#bfbfbf" points="796.5,-162 796.5,-181 848.5,-181 848.5,-162 796.5,-162"/>
<text text-anchor="middle" x="822.5" y="-169" font-family="Helvetica,sans-Serif" font-size="10.00">ostream</text>
</g>
<!-- Node23&#45;&gt;Node35 -->
<g id="edge53" class="edge">
<title>Node23&#45;&gt;Node35</title>
<path fill="none" stroke="midnightblue" d="M810.11,-239.78C812.28,-227.99 816.21,-206.63 819.07,-191.14"/>
<polygon fill="midnightblue" stroke="midnightblue" points="822.54,-191.59 820.91,-181.12 815.66,-190.32 822.54,-191.59"/>
</g>
<!-- Node36 -->
<g id="node37" class="node">
<title>Node36</title>
<polygon fill="none" stroke="#bfbfbf" points="866.5,-162 866.5,-181 910.5,-181 910.5,-162 866.5,-162"/>
<text text-anchor="middle" x="888.5" y="-169" font-family="Helvetica,sans-Serif" font-size="10.00">vector</text>
</g>
<!-- Node23&#45;&gt;Node36 -->
<g id="edge54" class="edge">
<title>Node23&#45;&gt;Node36</title>
<path fill="none" stroke="midnightblue" d="M817.68,-239.78C830.94,-227.18 855.67,-203.69 872.11,-188.07"/>
<polygon fill="midnightblue" stroke="midnightblue" points="874.59,-190.54 879.43,-181.12 869.77,-185.47 874.59,-190.54"/>
</g>
<!-- Node24&#45;&gt;Node1 -->
<g id="edge40" class="edge">
<title>Node24&#45;&gt;Node1</title>
<path fill="none" stroke="midnightblue" d="M988.81,-161.93C977.16,-159.69 964.36,-157.48 952.5,-156 687.41,-122.9 615.15,-168.79 352.5,-120 342.28,-118.1 331.41,-115.05 321.63,-111.89"/>
<polygon fill="midnightblue" stroke="midnightblue" points="322.49,-108.48 311.9,-108.6 320.25,-115.12 322.49,-108.48"/>
</g>
<!-- Node24&#45;&gt;Node15 -->
<g id="edge41" class="edge">
<title>Node24&#45;&gt;Node15</title>
<path fill="none" stroke="midnightblue" d="M1068.59,-161.94C1080.14,-159.72 1092.78,-157.53 1104.5,-156 1328.94,-126.74 1394.19,-179.76 1612.5,-120 1618.21,-118.44 1624.07,-116.03 1629.48,-113.42"/>
<polygon fill="midnightblue" stroke="midnightblue" points="1631.37,-116.38 1638.6,-108.65 1628.12,-110.18 1631.37,-116.38"/>
</g>
<!-- Node24&#45;&gt;Node21 -->
<g id="edge51" class="edge">
<title>Node24&#45;&gt;Node21</title>
<path fill="none" stroke="midnightblue" d="M1069.41,-161.99C1080.74,-159.82 1093.07,-157.65 1104.5,-156 1263.82,-133.06 1309.21,-149.97 1470.88,-120.13"/>
<polygon fill="midnightblue" stroke="midnightblue" points="1472.01,-123.48 1481.19,-118.2 1470.72,-116.6 1472.01,-123.48"/>
</g>
<!-- Node25 -->
<g id="node26" class="node">
<title>Node25</title>
<polygon fill="none" stroke="#bfbfbf" points="897.5,-89.5 897.5,-108.5 937.5,-108.5 937.5,-89.5 897.5,-89.5"/>
<text text-anchor="middle" x="917.5" y="-96.5" font-family="Helvetica,sans-Serif" font-size="10.00">limits</text>
</g>
<!-- Node24&#45;&gt;Node25 -->
<g id="edge42" class="edge">
<title>Node24&#45;&gt;Node25</title>
<path fill="none" stroke="midnightblue" d="M1014.14,-161.96C997.66,-152.1 969.89,-135.25 946.5,-120 943.68,-118.16 940.74,-116.19 937.85,-114.23"/>
<polygon fill="midnightblue" stroke="midnightblue" points="939.76,-111.3 929.54,-108.51 935.79,-117.06 939.76,-111.3"/>
</g>
<!-- Node26 -->
<g id="node27" class="node">
<title>Node26</title>
<polygon fill="none" stroke="#bfbfbf" points="955.5,-84 955.5,-114 1077.5,-114 1077.5,-84 955.5,-84"/>
<text text-anchor="start" x="963.5" y="-102" font-family="Helvetica,sans-Serif" font-size="10.00">hydra/detail/external</text>
<text text-anchor="middle" x="1016.5" y="-91" font-family="Helvetica,sans-Serif" font-size="10.00">/hydra_thrust/complex.h</text>
</g>
<!-- Node24&#45;&gt;Node26 -->
<g id="edge43" class="edge">
<title>Node24&#45;&gt;Node26</title>
<path fill="none" stroke="midnightblue" d="M1027.03,-161.86C1025.44,-152.55 1022.85,-137.33 1020.64,-124.31"/>
<polygon fill="midnightblue" stroke="midnightblue" points="1024.02,-123.35 1018.9,-114.08 1017.12,-124.52 1024.02,-123.35"/>
</g>
<!-- Node24&#45;&gt;Node27 -->
<g id="edge44" class="edge">
<title>Node24&#45;&gt;Node27</title>
<path fill="none" stroke="midnightblue" d="M1071.45,-161.97C1082.22,-159.92 1093.77,-157.81 1104.5,-156 1210.27,-138.18 1241.14,-144.88 1349.41,-120.06"/>
<polygon fill="midnightblue" stroke="midnightblue" points="1350.48,-123.4 1359.42,-117.73 1348.89,-116.59 1350.48,-123.4"/>
</g>
<!-- Node28 -->
<g id="node29" class="node">
<title>Node28</title>
<polygon fill="none" stroke="#bfbfbf" points="1096,-78.5 1096,-119.5 1215,-119.5 1215,-78.5 1096,-78.5"/>
<text text-anchor="start" x="1104" y="-107.5" font-family="Helvetica,sans-Serif" font-size="10.00">hydra/detail/external</text>
<text text-anchor="start" x="1104" y="-96.5" font-family="Helvetica,sans-Serif" font-size="10.00">/hydra_thrust/execution</text>
<text text-anchor="middle" x="1155.5" y="-85.5" font-family="Helvetica,sans-Serif" font-size="10.00">_policy.h</text>
</g>
<!-- Node24&#45;&gt;Node28 -->
<g id="edge45" class="edge">
<title>Node24&#45;&gt;Node28</title>
<path fill="none" stroke="midnightblue" d="M1044.07,-161.86C1060.81,-152.56 1088.17,-137.37 1111.59,-124.37"/>
<polygon fill="midnightblue" stroke="midnightblue" points="1113.3,-127.43 1120.34,-119.52 1109.9,-121.31 1113.3,-127.43"/>
</g>
<!-- Node29 -->
<g id="node30" class="node">
<title>Node29</title>
<polygon fill="none" stroke="#bfbfbf" points="1233.5,-78.5 1233.5,-119.5 1341.5,-119.5 1341.5,-78.5 1233.5,-78.5"/>
<text text-anchor="start" x="1241.5" y="-107.5" font-family="Helvetica,sans-Serif" font-size="10.00">hydra/detail/external</text>
<text text-anchor="start" x="1241.5" y="-96.5" font-family="Helvetica,sans-Serif" font-size="10.00">/hydra_thrust/iterator</text>
<text text-anchor="middle" x="1287.5" y="-85.5" font-family="Helvetica,sans-Serif" font-size="10.00">/iterator_categories.h</text>
</g>
<!-- Node24&#45;&gt;Node29 -->
<g id="edge46" class="edge">
<title>Node24&#45;&gt;Node29</title>
<path fill="none" stroke="midnightblue" d="M1064.07,-161.96C1101.46,-152.85 1162.21,-137.65 1223.43,-120.24"/>
<polygon fill="midnightblue" stroke="midnightblue" points="1224.61,-123.54 1233.26,-117.43 1222.68,-116.82 1224.61,-123.54"/>
</g>
<!-- Node30 -->
<g id="node31" class="node">
<title>Node30</title>
<polygon fill="none" stroke="#bfbfbf" points="361.5,-78.5 361.5,-119.5 499.5,-119.5 499.5,-78.5 361.5,-78.5"/>
<text text-anchor="start" x="369.5" y="-107.5" font-family="Helvetica,sans-Serif" font-size="10.00">hydra/detail/external</text>
<text text-anchor="start" x="369.5" y="-96.5" font-family="Helvetica,sans-Serif" font-size="10.00">/hydra_thrust/iterator</text>
<text text-anchor="middle" x="430.5" y="-85.5" font-family="Helvetica,sans-Serif" font-size="10.00">/detail/is_iterator_category.h</text>
</g>
<!-- Node24&#45;&gt;Node30 -->
<g id="edge47" class="edge">
<title>Node24&#45;&gt;Node30</title>
<path fill="none" stroke="midnightblue" d="M988.01,-161.94C976.57,-159.75 964.08,-157.57 952.5,-156 759.57,-129.85 705.55,-151.95 509.73,-120.05"/>
<polygon fill="midnightblue" stroke="midnightblue" points="510.13,-116.57 499.69,-118.39 508.99,-123.48 510.13,-116.57"/>
</g>
<!-- Node31 -->
<g id="node32" class="node">
<title>Node31</title>
<polygon fill="none" stroke="#bfbfbf" points="518,-78.5 518,-119.5 625,-119.5 625,-78.5 518,-78.5"/>
<text text-anchor="start" x="526" y="-107.5" font-family="Helvetica,sans-Serif" font-size="10.00">hydra/detail/external</text>
<text text-anchor="start" x="526" y="-96.5" font-family="Helvetica,sans-Serif" font-size="10.00">/hydra_thrust/iterator</text>
<text text-anchor="middle" x="571.5" y="-85.5" font-family="Helvetica,sans-Serif" font-size="10.00">/iterator_traits.h</text>
</g>
<!-- Node24&#45;&gt;Node31 -->
<g id="edge48" class="edge">
<title>Node24&#45;&gt;Node31</title>
<path fill="none" stroke="midnightblue" d="M986.79,-161.95C975.67,-159.83 963.66,-157.69 952.5,-156 814.6,-135.1 774.76,-149.38 634.89,-120.1"/>
<polygon fill="midnightblue" stroke="midnightblue" points="635.6,-116.67 625.09,-118.01 634.14,-123.52 635.6,-116.67"/>
</g>
<!-- Node32 -->
<g id="node33" class="node">
<title>Node32</title>
<polygon fill="none" stroke="#bfbfbf" points="643,-78.5 643,-119.5 748,-119.5 748,-78.5 643,-78.5"/>
<text text-anchor="start" x="651" y="-107.5" font-family="Helvetica,sans-Serif" font-size="10.00">hydra/detail/external</text>
<text text-anchor="start" x="651" y="-96.5" font-family="Helvetica,sans-Serif" font-size="10.00">/hydra_thrust/device</text>
<text text-anchor="middle" x="695.5" y="-85.5" font-family="Helvetica,sans-Serif" font-size="10.00">_reference.h</text>
</g>
<!-- Node24&#45;&gt;Node32 -->
<g id="edge49" class="edge">
<title>Node24&#45;&gt;Node32</title>
<path fill="none" stroke="midnightblue" d="M983.9,-161.94C973.59,-159.97 962.67,-157.9 952.5,-156 868.59,-140.29 844.09,-141.72 758.2,-120.29"/>
<polygon fill="midnightblue" stroke="midnightblue" points="758.83,-116.84 748.27,-117.79 757.11,-123.63 758.83,-116.84"/>
</g>
<!-- Node33 -->
<g id="node34" class="node">
<title>Node33</title>
<polygon fill="none" stroke="#bfbfbf" points="766,-78.5 766,-119.5 879,-119.5 879,-78.5 766,-78.5"/>
<text text-anchor="start" x="774" y="-107.5" font-family="Helvetica,sans-Serif" font-size="10.00">hydra/detail/external</text>
<text text-anchor="start" x="774" y="-96.5" font-family="Helvetica,sans-Serif" font-size="10.00">/hydra_thrust/detail</text>
<text text-anchor="middle" x="822.5" y="-85.5" font-family="Helvetica,sans-Serif" font-size="10.00">/raw_reference_cast.h</text>
</g>
<!-- Node24&#45;&gt;Node33 -->
<g id="edge50" class="edge">
<title>Node24&#45;&gt;Node33</title>
<path fill="none" stroke="midnightblue" d="M1003.65,-162C975.44,-152.34 928.24,-136.19 889.1,-122.79"/>
<polygon fill="midnightblue" stroke="midnightblue" points="889.93,-119.38 879.34,-119.45 887.67,-126 889.93,-119.38"/>
</g>
</g>
</svg>
        <g id="navigator" transform="translate(0 0)" fill="#404254">
                <rect fill="#f2f5e9" fill-opacity="0.5" stroke="#606060" stroke-width=".5" x="0" y="0" width="60" height="60"/>
                <use id="zoomplus" xlink:href="#zoomPlus" x="17" y="9" onmousedown="handleZoom(evt,'in')"/>
                <use id="zoomminus" xlink:href="#zoomMin" x="42" y="9" onmousedown="handleZoom(evt,'out')"/>
                <use id="reset" xlink:href="#resetDef" x="30" y="36" onmousedown="handleReset()"/>
                <g id="arrowUp" xlink:href="#dirArrow" transform="translate(30 24)" onmousedown="handlePan(0,-1)">
                  <use xlink:href="#rim" fill="#404040">
                        <set attributeName="fill" to="#808080" begin="arrowUp.mouseover" end="arrowUp.mouseout"/>
                  </use>
                  <path fill="none" stroke="white" stroke-width="1.5" d="M0,-3.0v7 M-2.5,-0.5L0,-3.0L2.5,-0.5"/>
                </g>
                <g id="arrowRight" xlink:href="#dirArrow" transform="rotate(90) translate(36 -43)" onmousedown="handlePan(1,0)">
                  <use xlink:href="#rim" fill="#404040">
                        <set attributeName="fill" to="#808080" begin="arrowRight.mouseover" end="arrowRight.mouseout"/>
                  </use>
                  <path fill="none" stroke="white" stroke-width="1.5" d="M0,-3.0v7 M-2.5,-0.5L0,-3.0L2.5,-0.5"/>
                </g>
                <g id="arrowDown" xlink:href="#dirArrow" transform="rotate(180) translate(-30 -48)" onmousedown="handlePan(0,1)">
                  <use xlink:href="#rim" fill="#404040">
                        <set attributeName="fill" to="#808080" begin="arrowDown.mouseover" end="arrowDown.mouseout"/>
                  </use>
                  <path fill="none" stroke="white" stroke-width="1.5" d="M0,-3.0v7 M-2.5,-0.5L0,-3.0L2.5,-0.5"/>
                </g>
                <g id="arrowLeft" xlink:href="#dirArrow" transform="rotate(270) translate(-36 17)" onmousedown="handlePan(-1,0)">
                  <use xlink:href="#rim" fill="#404040">
                        <set attributeName="fill" to="#808080" begin="arrowLeft.mouseover" end="arrowLeft.mouseout"/>
                  </use>
                  <path fill="none" stroke="white" stroke-width="1.5" d="M0,-3.0v7 M-2.5,-0.5L0,-3.0L2.5,-0.5"/>
                </g>
        </g>
        <svg viewBox="0 0 15 15" width="100%" height="30px" preserveAspectRatio="xMaxYMin meet">
         <g id="arrow_out" transform="scale(0.3 0.3)">
          <a xlink:href="DecayMothers_8h__incl_org.svg" target="_base">
           <rect id="button" ry="5" rx="5" y="6" x="6" height="38" width="38"
                fill="#f2f5e9" fill-opacity="0.5" stroke="#606060" stroke-width="1.0"/>
           <path id="arrow"
             d="M 11.500037,31.436501 C 11.940474,20.09759 22.043105,11.32322 32.158766,21.979434 L 37.068811,17.246167 C 37.068811,17.246167 37.088388,32 37.088388,32 L 22.160133,31.978069 C 22.160133,31.978069 26.997745,27.140456 26.997745,27.140456 C 18.528582,18.264221 13.291696,25.230495 11.500037,31.436501 z"
             style="fill:#404040;"/>
          </a>
         </g>
        </svg>
</svg>
