<?xml version="1.0" encoding="UTF-8" standalone="no"?>
<!DOCTYPE svg PUBLIC "-//W3C//DTD SVG 1.1//EN"
 "http://www.w3.org/Graphics/SVG/1.1/DTD/svg11.dtd">
<!-- Generated by graphviz version 5.0.0 (0)
 -->
<!-- Title: DecayMothers.h Pages: 1 -->
<!--zoomable 330 -->
<svg id="main" version="1.1" xmlns="http://www.w3.org/2000/svg" xmlns:xlink="http://www.w3.org/1999/xlink" xml:space="preserve" onload="init(evt)">
<style type="text/css"><![CDATA[
.edge:hover path { stroke: red; }
.edge:hover polygon { stroke: red; fill: red; }
]]></style>
<script type="text/javascript"><![CDATA[
var edges = document.getElementsByTagName('g');
if (edges && edges.length) {
  for (var i=0;i<edges.length;i++) {
    if (edges[i].id.substr(0,4)=='edge') {
      edges[i].setAttribute('class','edge');
    }
  }
}
]]></script>
        <defs>
                <circle id="rim" cx="0" cy="0" r="7"/>
                <circle id="rim2" cx="0" cy="0" r="3.5"/>
                <g id="zoomPlus">
                        <use xlink:href="#rim" fill="#404040">
                                <set attributeName="fill" to="#808080" begin="zoomplus.mouseover" end="zoomplus.mouseout"/>
                        </use>
                        <path d="M-4,0h8M0,-4v8" fill="none" stroke="white" stroke-width="1.5" pointer-events="none"/>
                </g>
                <g id="zoomMin">
                        <use xlink:href="#rim" fill="#404040">
                                <set attributeName="fill" to="#808080" begin="zoomminus.mouseover" end="zoomminus.mouseout"/>
                        </use>
                        <path d="M-4,0h8" fill="none" stroke="white" stroke-width="1.5" pointer-events="none"/>
                </g>
                <g id="dirArrow">
                        <path fill="none" stroke="white" stroke-width="1.5" d="M0,-3.0v7 M-2.5,-0.5L0,-3.0L2.5,-0.5"/>
                </g>
               <g id="resetDef">
                       <use xlink:href="#rim2" fill="#404040">
                               <set attributeName="fill" to="#808080" begin="reset.mouseover" end="reset.mouseout"/>
                       </use>
               </g>
        </defs>

<script type="text/javascript">
var viewWidth = 2588;
var viewHeight = 330;
var sectionId = 'dynsection-1';
</script>
<script xlink:href="svgpan.js"/>
<svg id="graph" class="graph">
<g id="viewport">
<title>DecayMothers.h</title>
<!-- Node39 -->
<g id="node1" class="node">
<title>Node39</title>
<polygon fill="#bfbfbf" stroke="black" points="1153.5,-302.5 1153.5,-321.5 1242.5,-321.5 1242.5,-302.5 1153.5,-302.5"/>
<text text-anchor="middle" x="1198" y="-309.5" font-family="Helvetica,sans-Serif" font-size="10.00">DecayMothers.h</text>
</g>
<!-- Node40 -->
<g id="node2" class="node">
<title>Node40</title>
<g id="a_node2"><a xlink:href="launch__decayers_8inl.html" target="_top" xlink:title="launch_decayers.inl">
<polygon fill="none" stroke="black" points="1186.5,-246.5 1186.5,-265.5 1289.5,-265.5 1289.5,-246.5 1186.5,-246.5"/>
<text text-anchor="middle" x="1238" y="-253.5" font-family="Helvetica,sans-Serif" font-size="10.00">launch_decayers.inl</text>
</a>
</g>
</g>
<!-- Node39&#45;&gt;Node40 -->
<g id="edge1" class="edge">
<title>Node39&#45;&gt;Node40</title>
<path fill="none" stroke="midnightblue" d="M1210.7,-293.86C1217.63,-284.5 1225.91,-273.33 1231.52,-265.75"/>
<polygon fill="midnightblue" stroke="midnightblue" points="1207.75,-291.96 1204.61,-302.08 1213.37,-296.13 1207.75,-291.96"/>
</g>
<!-- Node41 -->
<g id="node3" class="node">
<title>Node41</title>
<g id="a_node3"><a xlink:href="PhaseSpace_8h.html" target="_top" xlink:title="PhaseSpace.h">
<polygon fill="none" stroke="black" points="1158,-190.5 1158,-209.5 1238,-209.5 1238,-190.5 1158,-190.5"/>
<text text-anchor="middle" x="1198" y="-197.5" font-family="Helvetica,sans-Serif" font-size="10.00">PhaseSpace.h</text>
</a>
</g>
</g>
<!-- Node39&#45;&gt;Node41 -->
<g id="edge53" class="edge">
<title>Node39&#45;&gt;Node41</title>
<path fill="none" stroke="midnightblue" d="M1187.02,-293.55C1180.2,-280.6 1173.36,-262.42 1177,-246 1179.99,-232.53 1187.44,-218.32 1192.62,-209.56"/>
<polygon fill="midnightblue" stroke="midnightblue" points="1184.05,-295.39 1192.07,-302.31 1190.11,-291.9 1184.05,-295.39"/>
</g>
<!-- Node40&#45;&gt;Node41 -->
<g id="edge2" class="edge">
<title>Node40&#45;&gt;Node41</title>
<path fill="none" stroke="midnightblue" d="M1225.3,-237.86C1218.37,-228.5 1210.09,-217.33 1204.48,-209.75"/>
<polygon fill="midnightblue" stroke="midnightblue" points="1222.63,-240.13 1231.39,-246.08 1228.25,-235.96 1222.63,-240.13"/>
</g>
<!-- Node42 -->
<g id="node4" class="node">
<title>Node42</title>
<g id="a_node4"><a xlink:href="Decays_8h.html" target="_top" xlink:title="Decays.h">
<polygon fill="none" stroke="black" points="1168.5,-134.5 1168.5,-153.5 1227.5,-153.5 1227.5,-134.5 1168.5,-134.5"/>
<text text-anchor="middle" x="1198" y="-141.5" font-family="Helvetica,sans-Serif" font-size="10.00">Decays.h</text>
</a>
</g>
</g>
<!-- Node41&#45;&gt;Node42 -->
<g id="edge3" class="edge">
<title>Node41&#45;&gt;Node42</title>
<path fill="none" stroke="midnightblue" d="M1191.53,-180.1C1190.9,-171.14 1191.34,-160.86 1192.87,-153.75"/>
<polygon fill="midnightblue" stroke="midnightblue" points="1188.07,-180.62 1192.83,-190.08 1195.01,-179.71 1188.07,-180.62"/>
</g>
<!-- Node43 -->
<g id="node5" class="node">
<title>Node43</title>
<g id="a_node5"><a xlink:href="phsp__unweighting__functor__and__fit_8inl.html" target="_top" xlink:title="phsp_unweighting_functor\l_and_fit.inl">
<polygon fill="none" stroke="black" points="523,-67.5 523,-97.5 653,-97.5 653,-67.5 523,-67.5"/>
<text text-anchor="start" x="531" y="-85.5" font-family="Helvetica,sans-Serif" font-size="10.00">phsp_unweighting_functor</text>
<text text-anchor="middle" x="588" y="-74.5" font-family="Helvetica,sans-Serif" font-size="10.00">_and_fit.inl</text>
</a>
</g>
</g>
<!-- Node41&#45;&gt;Node43 -->
<g id="edge41" class="edge">
<title>Node41&#45;&gt;Node43</title>
<path fill="none" stroke="midnightblue" d="M1147.34,-197.18C1018.94,-192.24 687.78,-177.37 644,-154 620.56,-141.49 603.55,-114.5 594.78,-97.79"/>
<polygon fill="midnightblue" stroke="midnightblue" points="1147.55,-200.69 1157.68,-197.57 1147.82,-193.69 1147.55,-200.69"/>
</g>
<!-- Node46 -->
<g id="node8" class="node">
<title>Node46</title>
<g id="a_node8"><a xlink:href="phsp__averaging__functor_8inl.html" target="_top" xlink:title="phsp_averaging_functor.inl">
<polygon fill="none" stroke="black" points="853,-73 853,-92 985,-92 985,-73 853,-73"/>
<text text-anchor="middle" x="919" y="-80" font-family="Helvetica,sans-Serif" font-size="10.00">phsp_averaging_functor.inl</text>
</a>
</g>
</g>
<!-- Node41&#45;&gt;Node46 -->
<g id="edge42" class="edge">
<title>Node41&#45;&gt;Node46</title>
<path fill="none" stroke="midnightblue" d="M1167.46,-186.36C1110.32,-162.7 988.59,-112.31 939.83,-92.12"/>
<polygon fill="midnightblue" stroke="midnightblue" points="1166.45,-189.73 1177.03,-190.32 1169.13,-183.26 1166.45,-189.73"/>
</g>
<!-- Node49 -->
<g id="node11" class="node">
<title>Node49</title>
<g id="a_node11"><a xlink:href="phsp__basic_8inl.html" target="_top" xlink:title="phsp_basic.inl">
<polygon fill="none" stroke="black" points="1003.5,-73 1003.5,-92 1082.5,-92 1082.5,-73 1003.5,-73"/>
<text text-anchor="middle" x="1043" y="-80" font-family="Helvetica,sans-Serif" font-size="10.00">phsp_basic.inl</text>
</a>
</g>
</g>
<!-- Node41&#45;&gt;Node49 -->
<g id="edge43" class="edge">
<title>Node41&#45;&gt;Node49</title>
<path fill="none" stroke="midnightblue" d="M1178,-184.1C1145.24,-159.69 1081.17,-111.94 1054.79,-92.28"/>
<polygon fill="midnightblue" stroke="midnightblue" points="1176.24,-187.15 1186.35,-190.32 1180.42,-181.54 1176.24,-187.15"/>
</g>
<!-- Node52 -->
<g id="node14" class="node">
<title>Node52</title>
<g id="a_node14"><a xlink:href="phsp__chain_8inl.html" target="_top" xlink:title="phsp_chain.inl">
<polygon fill="none" stroke="black" points="1100.5,-73 1100.5,-92 1179.5,-92 1179.5,-73 1100.5,-73"/>
<text text-anchor="middle" x="1140" y="-80" font-family="Helvetica,sans-Serif" font-size="10.00">phsp_chain.inl</text>
</a>
</g>
</g>
<!-- Node41&#45;&gt;Node52 -->
<g id="edge44" class="edge">
<title>Node41&#45;&gt;Node52</title>
<path fill="none" stroke="midnightblue" d="M1181.01,-183.05C1173.31,-175 1164.68,-164.68 1159,-154 1148.05,-133.41 1143.03,-106 1141.06,-92.21"/>
<polygon fill="midnightblue" stroke="midnightblue" points="1178.71,-185.7 1188.26,-190.28 1183.66,-180.74 1178.71,-185.7"/>
</g>
<!-- Node55 -->
<g id="node17" class="node">
<title>Node55</title>
<g id="a_node17"><a xlink:href="phsp__evaluating__functor_8inl.html" target="_top" xlink:title="phsp_evaluating_functor.inl">
<polygon fill="none" stroke="black" points="1198,-73 1198,-92 1332,-92 1332,-73 1198,-73"/>
<text text-anchor="middle" x="1265" y="-80" font-family="Helvetica,sans-Serif" font-size="10.00">phsp_evaluating_functor.inl</text>
</a>
</g>
</g>
<!-- Node41&#45;&gt;Node55 -->
<g id="edge45" class="edge">
<title>Node41&#45;&gt;Node55</title>
<path fill="none" stroke="midnightblue" d="M1213.67,-182.96C1221.1,-174.77 1229.71,-164.36 1236,-154 1248.64,-133.19 1258.09,-105.87 1262.41,-92.15"/>
<polygon fill="midnightblue" stroke="midnightblue" points="1211.04,-180.65 1206.76,-190.34 1216.15,-185.43 1211.04,-180.65"/>
</g>
<!-- Node58 -->
<g id="node20" class="node">
<title>Node58</title>
<g id="a_node20"><a xlink:href="phsp__reweighting_8inl.html" target="_top" xlink:title="phsp_reweighting.inl">
<polygon fill="none" stroke="black" points="1350.5,-73 1350.5,-92 1455.5,-92 1455.5,-73 1350.5,-73"/>
<text text-anchor="middle" x="1403" y="-80" font-family="Helvetica,sans-Serif" font-size="10.00">phsp_reweighting.inl</text>
</a>
</g>
</g>
<!-- Node41&#45;&gt;Node58 -->
<g id="edge46" class="edge">
<title>Node41&#45;&gt;Node58</title>
<path fill="none" stroke="midnightblue" d="M1222.29,-185.31C1265.01,-161.25 1352.39,-112.02 1387.69,-92.12"/>
<polygon fill="midnightblue" stroke="midnightblue" points="1220.4,-182.36 1213.41,-190.32 1223.84,-188.46 1220.4,-182.36"/>
</g>
<!-- Node61 -->
<g id="node23" class="node">
<title>Node61</title>
<g id="a_node23"><a xlink:href="phsp__unweighting_8inl.html" target="_top" xlink:title="phsp_unweighting.inl">
<polygon fill="none" stroke="black" points="1473.5,-73 1473.5,-92 1580.5,-92 1580.5,-73 1473.5,-73"/>
<text text-anchor="middle" x="1527" y="-80" font-family="Helvetica,sans-Serif" font-size="10.00">phsp_unweighting.inl</text>
</a>
</g>
</g>
<!-- Node41&#45;&gt;Node61 -->
<g id="edge47" class="edge">
<title>Node41&#45;&gt;Node61</title>
<path fill="none" stroke="midnightblue" d="M1232.05,-187.05C1298.56,-163.7 1444.28,-112.54 1502.38,-92.14"/>
<polygon fill="midnightblue" stroke="midnightblue" points="1230.74,-183.8 1222.46,-190.41 1233.05,-190.4 1230.74,-183.8"/>
</g>
<!-- Node64 -->
<g id="node26" class="node">
<title>Node64</title>
<g id="a_node26"><a xlink:href="phsp__unweighting__functor_8inl.html" target="_top" xlink:title="phsp_unweighting_functor.inl">
<polygon fill="none" stroke="black" points="1599,-73 1599,-92 1741,-92 1741,-73 1599,-73"/>
<text text-anchor="middle" x="1670" y="-80" font-family="Helvetica,sans-Serif" font-size="10.00">phsp_unweighting_functor.inl</text>
</a>
</g>
</g>
<!-- Node41&#45;&gt;Node64 -->
<g id="edge48" class="edge">
<title>Node41&#45;&gt;Node64</title>
<path fill="none" stroke="midnightblue" d="M1242.82,-188.03C1336.37,-165.14 1550.68,-112.7 1635,-92.06"/>
<polygon fill="midnightblue" stroke="midnightblue" points="1241.97,-184.64 1233.09,-190.41 1243.64,-191.44 1241.97,-184.64"/>
</g>
<!-- Node67 -->
<g id="node29" class="node">
<title>Node67</title>
<g id="a_node29"><a xlink:href="timedependent__phsp__basic_8inl.html" target="_top" xlink:title="timedependent_phsp\l_basic.inl">
<polygon fill="none" stroke="black" points="1759.5,-67.5 1759.5,-97.5 1866.5,-97.5 1866.5,-67.5 1759.5,-67.5"/>
<text text-anchor="start" x="1767.5" y="-85.5" font-family="Helvetica,sans-Serif" font-size="10.00">timedependent_phsp</text>
<text text-anchor="middle" x="1813" y="-74.5" font-family="Helvetica,sans-Serif" font-size="10.00">_basic.inl</text>
</a>
</g>
</g>
<!-- Node41&#45;&gt;Node67 -->
<g id="edge49" class="edge">
<title>Node41&#45;&gt;Node67</title>
<path fill="none" stroke="midnightblue" d="M1248.43,-190.56C1345.69,-174.11 1565.88,-136.01 1750,-98 1753.08,-97.36 1756.24,-96.69 1759.42,-96.01"/>
<polygon fill="midnightblue" stroke="midnightblue" points="1247.57,-187.15 1238.29,-192.27 1248.74,-194.06 1247.57,-187.15"/>
</g>
<!-- Node70 -->
<g id="node32" class="node">
<title>Node70</title>
<g id="a_node32"><a xlink:href="dalitz__plot_8inl.html" target="_top" xlink:title="dalitz_plot.inl">
<polygon fill="none" stroke="black" points="671,-73 671,-92 745,-92 745,-73 671,-73"/>
<text text-anchor="middle" x="708" y="-80" font-family="Helvetica,sans-Serif" font-size="10.00">dalitz_plot.inl</text>
</a>
</g>
</g>
<!-- Node41&#45;&gt;Node70 -->
<g id="edge50" class="edge">
<title>Node41&#45;&gt;Node70</title>
<path fill="none" stroke="midnightblue" d="M1147.86,-190.2C1100.94,-181.73 1028.97,-168.17 967,-154 871.58,-132.19 848.04,-125.17 754,-98 747.56,-96.14 740.66,-94.03 734.21,-92"/>
<polygon fill="midnightblue" stroke="midnightblue" points="1147.31,-193.66 1157.77,-191.98 1148.55,-186.77 1147.31,-193.66"/>
</g>
<!-- Node73 -->
<g id="node35" class="node">
<title>Node73</title>
<g id="a_node35"><a xlink:href="dalitz__plot_8C.html" target="_top" xlink:title="dalitz_plot.C">
<polygon fill="none" stroke="black" points="763.5,-73 763.5,-92 834.5,-92 834.5,-73 763.5,-73"/>
<text text-anchor="middle" x="799" y="-80" font-family="Helvetica,sans-Serif" font-size="10.00">dalitz_plot.C</text>
</a>
</g>
</g>
<!-- Node41&#45;&gt;Node73 -->
<g id="edge51" class="edge">
<title>Node41&#45;&gt;Node73</title>
<path fill="none" stroke="midnightblue" d="M1156.59,-187.72C1090.36,-169.56 956.56,-132.37 844,-98 837.88,-96.13 831.31,-94.05 825.13,-92.07"/>
<polygon fill="midnightblue" stroke="midnightblue" points="1156.06,-191.2 1166.63,-190.47 1157.91,-184.45 1156.06,-191.2"/>
</g>
<!-- Node74 -->
<g id="node36" class="node">
<title>Node74</title>
<g id="a_node36"><a xlink:href="generate__4body__decay__chain_8C.html" target="_top" xlink:title="generate_4body_decay\l_chain.C">
<polygon fill="none" stroke="black" points="1884.5,-67.5 1884.5,-97.5 2001.5,-97.5 2001.5,-67.5 1884.5,-67.5"/>
<text text-anchor="start" x="1892.5" y="-85.5" font-family="Helvetica,sans-Serif" font-size="10.00">generate_4body_decay</text>
<text text-anchor="middle" x="1943" y="-74.5" font-family="Helvetica,sans-Serif" font-size="10.00">_chain.C</text>
</a>
</g>
</g>
<!-- Node41&#45;&gt;Node74 -->
<g id="edge52" class="edge">
<title>Node41&#45;&gt;Node74</title>
<path fill="none" stroke="midnightblue" d="M1248.36,-192.81C1361.18,-178.65 1642.62,-141.73 1876,-98 1878.69,-97.5 1881.44,-96.97 1884.21,-96.42"/>
<polygon fill="midnightblue" stroke="midnightblue" points="1247.78,-189.35 1238.3,-194.07 1248.65,-196.3 1247.78,-189.35"/>
</g>
<!-- Node75 -->
<g id="node37" class="node">
<title>Node75</title>
<g id="a_node37"><a xlink:href="PhaseSpaceIntegrator_8h.html" target="_top" xlink:title="PhaseSpaceIntegrator.h">
<polygon fill="none" stroke="black" points="653.5,-134.5 653.5,-153.5 774.5,-153.5 774.5,-134.5 653.5,-134.5"/>
<text text-anchor="middle" x="714" y="-141.5" font-family="Helvetica,sans-Serif" font-size="10.00">PhaseSpaceIntegrator.h</text>
</a>
</g>
</g>
<!-- Node41&#45;&gt;Node75 -->
<g id="edge37" class="edge">
<title>Node41&#45;&gt;Node75</title>
<path fill="none" stroke="midnightblue" d="M1147.81,-193.4C1058.2,-183.4 871.07,-162.52 774.51,-151.75"/>
<polygon fill="midnightblue" stroke="midnightblue" points="1147.65,-196.9 1157.98,-194.54 1148.43,-189.95 1147.65,-196.9"/>
</g>
<!-- Node42&#45;&gt;Node41 -->
<g id="edge4" class="edge">
<title>Node42&#45;&gt;Node41</title>
<path fill="none" stroke="midnightblue" d="M1204.46,-163.69C1205.11,-172.64 1204.68,-182.93 1203.17,-190.08"/>
<polygon fill="midnightblue" stroke="midnightblue" points="1207.92,-163.2 1203.13,-153.75 1200.98,-164.13 1207.92,-163.2"/>
</g>
<!-- Node42&#45;&gt;Node43 -->
<g id="edge5" class="edge">
<title>Node42&#45;&gt;Node43</title>
<path fill="none" stroke="midnightblue" d="M1158.02,-141.15C1068.72,-136.68 846.41,-123.73 662,-98 659.15,-97.6 656.24,-97.17 653.3,-96.7"/>
<polygon fill="midnightblue" stroke="midnightblue" points="1158.08,-144.65 1168.24,-141.65 1158.42,-137.66 1158.08,-144.65"/>
</g>
<!-- Node42&#45;&gt;Node46 -->
<g id="edge8" class="edge">
<title>Node42&#45;&gt;Node46</title>
<path fill="none" stroke="midnightblue" d="M1158.38,-134.55C1105.44,-123.26 1012.15,-103.37 959.02,-92.03"/>
<polygon fill="midnightblue" stroke="midnightblue" points="1157.9,-138.03 1168.41,-136.69 1159.36,-131.18 1157.9,-138.03"/>
</g>
<!-- Node42&#45;&gt;Node49 -->
<g id="edge11" class="edge">
<title>Node42&#45;&gt;Node49</title>
<path fill="none" stroke="midnightblue" d="M1166.17,-130.78C1136.05,-119.22 1091.62,-102.16 1065.17,-92.01"/>
<polygon fill="midnightblue" stroke="midnightblue" points="1165.2,-134.16 1175.79,-134.48 1167.71,-127.62 1165.2,-134.16"/>
</g>
<!-- Node42&#45;&gt;Node52 -->
<g id="edge14" class="edge">
<title>Node42&#45;&gt;Node52</title>
<path fill="none" stroke="midnightblue" d="M1182.4,-127C1171.42,-115.74 1157.16,-101.1 1148.29,-92.01"/>
<polygon fill="midnightblue" stroke="midnightblue" points="1180.2,-129.76 1189.69,-134.48 1185.22,-124.87 1180.2,-129.76"/>
</g>
<!-- Node42&#45;&gt;Node55 -->
<g id="edge17" class="edge">
<title>Node42&#45;&gt;Node55</title>
<path fill="none" stroke="midnightblue" d="M1215.29,-127.65C1228.06,-116.31 1244.98,-101.28 1255.42,-92.01"/>
<polygon fill="midnightblue" stroke="midnightblue" points="1212.75,-125.22 1207.6,-134.48 1217.4,-130.45 1212.75,-125.22"/>
</g>
<!-- Node42&#45;&gt;Node58 -->
<g id="edge20" class="edge">
<title>Node42&#45;&gt;Node58</title>
<path fill="none" stroke="midnightblue" d="M1237.02,-131.68C1276.85,-120.11 1337.78,-102.43 1373.68,-92.01"/>
<polygon fill="midnightblue" stroke="midnightblue" points="1236,-128.33 1227.37,-134.48 1237.95,-135.05 1236,-128.33"/>
</g>
<!-- Node42&#45;&gt;Node61 -->
<g id="edge23" class="edge">
<title>Node42&#45;&gt;Node61</title>
<path fill="none" stroke="midnightblue" d="M1237.78,-137.02C1289.9,-129 1384.07,-113.94 1464,-98 1472.92,-96.22 1482.5,-94.12 1491.43,-92.07"/>
<polygon fill="midnightblue" stroke="midnightblue" points="1236.98,-133.6 1227.63,-138.57 1238.04,-140.52 1236.98,-133.6"/>
</g>
<!-- Node42&#45;&gt;Node64 -->
<g id="edge26" class="edge">
<title>Node42&#45;&gt;Node64</title>
<path fill="none" stroke="midnightblue" d="M1237.75,-139.25C1308.54,-132.4 1461.04,-116.8 1589,-98 1600.73,-96.28 1613.37,-94.15 1625.1,-92.05"/>
<polygon fill="midnightblue" stroke="midnightblue" points="1237.13,-135.8 1227.51,-140.24 1237.8,-142.77 1237.13,-135.8"/>
</g>
<!-- Node42&#45;&gt;Node67 -->
<g id="edge29" class="edge">
<title>Node42&#45;&gt;Node67</title>
<path fill="none" stroke="midnightblue" d="M1237.97,-141.73C1329.21,-138.39 1559.66,-127.5 1750,-98 1753.11,-97.52 1756.29,-96.97 1759.49,-96.37"/>
<polygon fill="midnightblue" stroke="midnightblue" points="1237.67,-138.24 1227.8,-142.09 1237.92,-145.23 1237.67,-138.24"/>
</g>
<!-- Node42&#45;&gt;Node70 -->
<g id="edge32" class="edge">
<title>Node42&#45;&gt;Node70</title>
<path fill="none" stroke="midnightblue" d="M1157.96,-141.68C1079.63,-138.5 900.94,-128.27 754,-98 746.78,-96.51 739.09,-94.34 732.11,-92.12"/>
<polygon fill="midnightblue" stroke="midnightblue" points="1158.2,-145.19 1168.33,-142.08 1158.47,-138.2 1158.2,-145.19"/>
</g>
<!-- Node42&#45;&gt;Node73 -->
<g id="edge35" class="edge">
<title>Node42&#45;&gt;Node73</title>
<path fill="none" stroke="midnightblue" d="M1157.94,-140.34C1091.89,-135.41 956.27,-123 844,-98 836.95,-96.43 829.43,-94.23 822.59,-92.01"/>
<polygon fill="midnightblue" stroke="midnightblue" points="1158.08,-143.86 1168.31,-141.09 1158.59,-136.87 1158.08,-143.86"/>
</g>
<!-- Node42&#45;&gt;Node74 -->
<g id="edge36" class="edge">
<title>Node42&#45;&gt;Node74</title>
<path fill="none" stroke="midnightblue" d="M1237.69,-142.4C1342.5,-140.37 1635.16,-131.87 1876,-98 1878.71,-97.62 1881.47,-97.19 1884.26,-96.72"/>
<polygon fill="midnightblue" stroke="midnightblue" points="1237.5,-138.9 1227.57,-142.59 1237.63,-145.9 1237.5,-138.9"/>
</g>
<!-- Node44 -->
<g id="node6" class="node">
<title>Node44</title>
<g id="a_node6"><a xlink:href="phsp__unweighting__functor__and__fit_8cpp.html" target="_top" xlink:title="phsp_unweighting_functor\l_and_fit.cpp">
<polygon fill="none" stroke="black" points="0,-0.5 0,-30.5 130,-30.5 130,-0.5 0,-0.5"/>
<text text-anchor="start" x="8" y="-18.5" font-family="Helvetica,sans-Serif" font-size="10.00">phsp_unweighting_functor</text>
<text text-anchor="middle" x="65" y="-7.5" font-family="Helvetica,sans-Serif" font-size="10.00">_and_fit.cpp</text>
</a>
</g>
</g>
<!-- Node43&#45;&gt;Node44 -->
<g id="edge6" class="edge">
<title>Node43&#45;&gt;Node44</title>
<path fill="none" stroke="midnightblue" d="M512.67,-74.92C423.27,-66.67 269.83,-51.14 139,-31 136.15,-30.56 133.25,-30.09 130.32,-29.6"/>
<polygon fill="midnightblue" stroke="midnightblue" points="512.44,-78.41 522.72,-75.84 513.08,-71.44 512.44,-78.41"/>
</g>
<!-- Node45 -->
<g id="node7" class="node">
<title>Node45</title>
<g id="a_node7"><a xlink:href="phsp__unweighting__functor__and__fit_8cu.html" target="_top" xlink:title="phsp_unweighting_functor\l_and_fit.cu">
<polygon fill="none" stroke="black" points="148,-0.5 148,-30.5 278,-30.5 278,-0.5 148,-0.5"/>
<text text-anchor="start" x="156" y="-18.5" font-family="Helvetica,sans-Serif" font-size="10.00">phsp_unweighting_functor</text>
<text text-anchor="middle" x="213" y="-7.5" font-family="Helvetica,sans-Serif" font-size="10.00">_and_fit.cu</text>
</a>
</g>
</g>
<!-- Node43&#45;&gt;Node45 -->
<g id="edge7" class="edge">
<title>Node43&#45;&gt;Node45</title>
<path fill="none" stroke="midnightblue" d="M512.82,-69.47C451.87,-59.58 363.79,-44.96 287,-31 284.17,-30.48 281.27,-29.95 278.35,-29.41"/>
<polygon fill="midnightblue" stroke="midnightblue" points="512.3,-72.93 522.74,-71.08 513.42,-66.02 512.3,-72.93"/>
</g>
<!-- Node47 -->
<g id="node9" class="node">
<title>Node47</title>
<g id="a_node9"><a xlink:href="phsp__averaging__functor_8cpp.html" target="_top" xlink:title="phsp_averaging_functor.cpp">
<polygon fill="none" stroke="black" points="486,-6 486,-25 624,-25 624,-6 486,-6"/>
<text text-anchor="middle" x="555" y="-13" font-family="Helvetica,sans-Serif" font-size="10.00">phsp_averaging_functor.cpp</text>
</a>
</g>
</g>
<!-- Node46&#45;&gt;Node47 -->
<g id="edge9" class="edge">
<title>Node46&#45;&gt;Node47</title>
<path fill="none" stroke="midnightblue" d="M864.9,-71.05C857.54,-69.67 850.09,-68.28 843,-67 749.82,-50.13 726.22,-47.65 633,-31 622.42,-29.11 611.05,-27.03 600.35,-25.04"/>
<polygon fill="midnightblue" stroke="midnightblue" points="864.34,-74.51 874.82,-72.93 865.64,-67.63 864.34,-74.51"/>
</g>
<!-- Node48 -->
<g id="node10" class="node">
<title>Node48</title>
<g id="a_node10"><a xlink:href="phsp__averaging__functor_8cu.html" target="_top" xlink:title="phsp_averaging_functor.cu">
<polygon fill="none" stroke="black" points="642.5,-6 642.5,-25 775.5,-25 775.5,-6 642.5,-6"/>
<text text-anchor="middle" x="709" y="-13" font-family="Helvetica,sans-Serif" font-size="10.00">phsp_averaging_functor.cu</text>
</a>
</g>
</g>
<!-- Node46&#45;&gt;Node48 -->
<g id="edge10" class="edge">
<title>Node46&#45;&gt;Node48</title>
<path fill="none" stroke="midnightblue" d="M881.35,-69.85C839.76,-56.97 773.76,-36.55 736.67,-25.06"/>
<polygon fill="midnightblue" stroke="midnightblue" points="880.53,-73.26 891.11,-72.87 882.6,-66.57 880.53,-73.26"/>
</g>
<!-- Node50 -->
<g id="node12" class="node">
<title>Node50</title>
<g id="a_node12"><a xlink:href="phsp__basic_8cpp.html" target="_top" xlink:title="phsp_basic.cpp">
<polygon fill="none" stroke="black" points="793.5,-6 793.5,-25 878.5,-25 878.5,-6 793.5,-6"/>
<text text-anchor="middle" x="836" y="-13" font-family="Helvetica,sans-Serif" font-size="10.00">phsp_basic.cpp</text>
</a>
</g>
</g>
<!-- Node49&#45;&gt;Node50 -->
<g id="edge12" class="edge">
<title>Node49&#45;&gt;Node50</title>
<path fill="none" stroke="midnightblue" d="M1005.89,-69.85C964.89,-56.97 899.84,-36.55 863.27,-25.06"/>
<polygon fill="midnightblue" stroke="midnightblue" points="1004.92,-73.21 1015.51,-72.87 1007.02,-66.53 1004.92,-73.21"/>
</g>
<!-- Node51 -->
<g id="node13" class="node">
<title>Node51</title>
<g id="a_node13"><a xlink:href="phsp__basic_8cu.html" target="_top" xlink:title="phsp_basic.cu">
<polygon fill="none" stroke="black" points="897,-6 897,-25 977,-25 977,-6 897,-6"/>
<text text-anchor="middle" x="937" y="-13" font-family="Helvetica,sans-Serif" font-size="10.00">phsp_basic.cu</text>
</a>
</g>
</g>
<!-- Node49&#45;&gt;Node51 -->
<g id="edge13" class="edge">
<title>Node49&#45;&gt;Node51</title>
<path fill="none" stroke="midnightblue" d="M1020.08,-67.44C999.08,-54.57 968.68,-35.93 951.07,-25.13"/>
<polygon fill="midnightblue" stroke="midnightblue" points="1018.35,-70.49 1028.7,-72.73 1022.01,-64.52 1018.35,-70.49"/>
</g>
<!-- Node53 -->
<g id="node15" class="node">
<title>Node53</title>
<g id="a_node15"><a xlink:href="phsp__chain_8cpp.html" target="_top" xlink:title="phsp_chain.cpp">
<polygon fill="none" stroke="black" points="995.5,-6 995.5,-25 1080.5,-25 1080.5,-6 995.5,-6"/>
<text text-anchor="middle" x="1038" y="-13" font-family="Helvetica,sans-Serif" font-size="10.00">phsp_chain.cpp</text>
</a>
</g>
</g>
<!-- Node52&#45;&gt;Node53 -->
<g id="edge15" class="edge">
<title>Node52&#45;&gt;Node53</title>
<path fill="none" stroke="midnightblue" d="M1117.67,-67.27C1097.48,-54.4 1068.41,-35.88 1051.54,-25.13"/>
<polygon fill="midnightblue" stroke="midnightblue" points="1115.93,-70.31 1126.24,-72.73 1119.69,-64.41 1115.93,-70.31"/>
</g>
<!-- Node54 -->
<g id="node16" class="node">
<title>Node54</title>
<g id="a_node16"><a xlink:href="phsp__chain_8cu.html" target="_top" xlink:title="phsp_chain.cu">
<polygon fill="none" stroke="black" points="1099,-6 1099,-25 1179,-25 1179,-6 1099,-6"/>
<text text-anchor="middle" x="1139" y="-13" font-family="Helvetica,sans-Serif" font-size="10.00">phsp_chain.cu</text>
</a>
</g>
</g>
<!-- Node52&#45;&gt;Node54 -->
<g id="edge16" class="edge">
<title>Node52&#45;&gt;Node54</title>
<path fill="none" stroke="midnightblue" d="M1139.71,-62.54C1139.52,-50.17 1139.28,-34.62 1139.13,-25.13"/>
<polygon fill="midnightblue" stroke="midnightblue" points="1136.21,-62.79 1139.87,-72.73 1143.21,-62.68 1136.21,-62.79"/>
</g>
<!-- Node56 -->
<g id="node18" class="node">
<title>Node56</title>
<g id="a_node18"><a xlink:href="phsp__evaluating__functor_8cpp.html" target="_top" xlink:title="phsp_evaluating_functor.cpp">
<polygon fill="none" stroke="black" points="1197,-6 1197,-25 1337,-25 1337,-6 1197,-6"/>
<text text-anchor="middle" x="1267" y="-13" font-family="Helvetica,sans-Serif" font-size="10.00">phsp_evaluating_functor.cpp</text>
</a>
</g>
</g>
<!-- Node55&#45;&gt;Node56 -->
<g id="edge18" class="edge">
<title>Node55&#45;&gt;Node56</title>
<path fill="none" stroke="midnightblue" d="M1265.58,-62.54C1265.96,-50.17 1266.44,-34.62 1266.73,-25.13"/>
<polygon fill="midnightblue" stroke="midnightblue" points="1262.08,-62.63 1265.27,-72.73 1269.08,-62.85 1262.08,-62.63"/>
</g>
<!-- Node57 -->
<g id="node19" class="node">
<title>Node57</title>
<g id="a_node19"><a xlink:href="phsp__evaluating__functor_8cu.html" target="_top" xlink:title="phsp_evaluating_functor.cu">
<polygon fill="none" stroke="black" points="1355.5,-6 1355.5,-25 1490.5,-25 1490.5,-6 1355.5,-6"/>
<text text-anchor="middle" x="1423" y="-13" font-family="Helvetica,sans-Serif" font-size="10.00">phsp_evaluating_functor.cu</text>
</a>
</g>
</g>
<!-- Node55&#45;&gt;Node57 -->
<g id="edge19" class="edge">
<title>Node55&#45;&gt;Node57</title>
<path fill="none" stroke="midnightblue" d="M1295.51,-68.95C1326.79,-56.08 1374.62,-36.4 1401.93,-25.17"/>
<polygon fill="midnightblue" stroke="midnightblue" points="1293.9,-65.83 1285.98,-72.87 1296.56,-72.3 1293.9,-65.83"/>
</g>
<!-- Node59 -->
<g id="node21" class="node">
<title>Node59</title>
<g id="a_node21"><a xlink:href="phsp__reweighting_8cpp.html" target="_top" xlink:title="phsp_reweighting.cpp">
<polygon fill="none" stroke="black" points="1508.5,-6 1508.5,-25 1619.5,-25 1619.5,-6 1508.5,-6"/>
<text text-anchor="middle" x="1564" y="-13" font-family="Helvetica,sans-Serif" font-size="10.00">phsp_reweighting.cpp</text>
</a>
</g>
</g>
<!-- Node58&#45;&gt;Node59 -->
<g id="edge21" class="edge">
<title>Node58&#45;&gt;Node59</title>
<path fill="none" stroke="midnightblue" d="M1433.7,-69.1C1465.67,-56.2 1514.89,-36.33 1542.79,-25.06"/>
<polygon fill="midnightblue" stroke="midnightblue" points="1432.34,-65.88 1424.38,-72.87 1434.96,-72.37 1432.34,-65.88"/>
</g>
<!-- Node60 -->
<g id="node22" class="node">
<title>Node60</title>
<g id="a_node22"><a xlink:href="phsp__reweighting_8cu.html" target="_top" xlink:title="phsp_reweighting.cu">
<polygon fill="none" stroke="black" points="1638,-6 1638,-25 1744,-25 1744,-6 1638,-6"/>
<text text-anchor="middle" x="1691" y="-13" font-family="Helvetica,sans-Serif" font-size="10.00">phsp_reweighting.cu</text>
</a>
</g>
</g>
<!-- Node58&#45;&gt;Node60 -->
<g id="edge22" class="edge">
<title>Node58&#45;&gt;Node60</title>
<path fill="none" stroke="midnightblue" d="M1448.44,-70.61C1453.68,-69.38 1458.96,-68.15 1464,-67 1536.75,-50.37 1555.19,-47.37 1628,-31 1636.43,-29.1 1645.49,-27.04 1654.04,-25.07"/>
<polygon fill="midnightblue" stroke="midnightblue" points="1447.39,-67.26 1438.46,-72.96 1448.99,-74.07 1447.39,-67.26"/>
</g>
<!-- Node62 -->
<g id="node24" class="node">
<title>Node62</title>
<g id="a_node24"><a xlink:href="phsp__unweighting_8cpp.html" target="_top" xlink:title="phsp_unweighting.cpp">
<polygon fill="none" stroke="black" points="1762.5,-6 1762.5,-25 1875.5,-25 1875.5,-6 1762.5,-6"/>
<text text-anchor="middle" x="1819" y="-13" font-family="Helvetica,sans-Serif" font-size="10.00">phsp_unweighting.cpp</text>
</a>
</g>
</g>
<!-- Node61&#45;&gt;Node62 -->
<g id="edge24" class="edge">
<title>Node61&#45;&gt;Node62</title>
<path fill="none" stroke="midnightblue" d="M1573.73,-70.69C1579.22,-69.44 1584.73,-68.19 1590,-67 1608.37,-62.86 1719.78,-38.33 1780.17,-25.04"/>
<polygon fill="midnightblue" stroke="midnightblue" points="1572.93,-67.29 1563.96,-72.93 1574.49,-74.11 1572.93,-67.29"/>
</g>
<!-- Node63 -->
<g id="node25" class="node">
<title>Node63</title>
<g id="a_node25"><a xlink:href="phsp__unweighting_8cu.html" target="_top" xlink:title="phsp_unweighting.cu">
<polygon fill="none" stroke="black" points="1894,-6 1894,-25 2002,-25 2002,-6 1894,-6"/>
<text text-anchor="middle" x="1948" y="-13" font-family="Helvetica,sans-Serif" font-size="10.00">phsp_unweighting.cu</text>
</a>
</g>
</g>
<!-- Node61&#45;&gt;Node63 -->
<g id="edge25" class="edge">
<title>Node61&#45;&gt;Node63</title>
<path fill="none" stroke="midnightblue" d="M1571.01,-70.75C1577.36,-69.38 1583.83,-68.08 1590,-67 1720.09,-44.16 1754.91,-53.84 1885,-31 1894.4,-29.35 1904.5,-27.2 1913.8,-25.06"/>
<polygon fill="midnightblue" stroke="midnightblue" points="1570.2,-67.35 1561.2,-72.94 1571.72,-74.18 1570.2,-67.35"/>
</g>
<!-- Node65 -->
<g id="node27" class="node">
<title>Node65</title>
<g id="a_node27"><a xlink:href="phsp__unweighting__functor_8cpp.html" target="_top" xlink:title="phsp_unweighting_functor.cpp">
<polygon fill="none" stroke="black" points="2020,-6 2020,-25 2168,-25 2168,-6 2020,-6"/>
<text text-anchor="middle" x="2094" y="-13" font-family="Helvetica,sans-Serif" font-size="10.00">phsp_unweighting_functor.cpp</text>
</a>
</g>
</g>
<!-- Node64&#45;&gt;Node65 -->
<g id="edge27" class="edge">
<title>Node64&#45;&gt;Node65</title>
<path fill="none" stroke="midnightblue" d="M1725.21,-71.18C1733.51,-69.72 1741.97,-68.28 1750,-67 1865.64,-48.55 1895.31,-49.08 2011,-31 2022.56,-29.19 2035,-27.1 2046.65,-25.08"/>
<polygon fill="midnightblue" stroke="midnightblue" points="1724.44,-67.76 1715.21,-72.96 1725.67,-74.65 1724.44,-67.76"/>
</g>
<!-- Node66 -->
<g id="node28" class="node">
<title>Node66</title>
<g id="a_node28"><a xlink:href="phsp__unweighting__functor_8cu.html" target="_top" xlink:title="phsp_unweighting_functor.cu">
<polygon fill="none" stroke="black" points="2186.5,-6 2186.5,-25 2329.5,-25 2329.5,-6 2186.5,-6"/>
<text text-anchor="middle" x="2258" y="-13" font-family="Helvetica,sans-Serif" font-size="10.00">phsp_unweighting_functor.cu</text>
</a>
</g>
</g>
<!-- Node64&#45;&gt;Node66 -->
<g id="edge28" class="edge">
<title>Node64&#45;&gt;Node66</title>
<path fill="none" stroke="midnightblue" d="M1722.73,-71.21C1731.8,-69.65 1741.15,-68.17 1750,-67 1938.8,-41.99 1988.17,-55.81 2177,-31 2189.18,-29.4 2202.32,-27.24 2214.4,-25.07"/>
<polygon fill="midnightblue" stroke="midnightblue" points="1721.88,-67.8 1712.65,-72.99 1723.1,-74.7 1721.88,-67.8"/>
</g>
<!-- Node68 -->
<g id="node30" class="node">
<title>Node68</title>
<g id="a_node30"><a xlink:href="timedependent__phsp__basic_8cpp.html" target="_top" xlink:title="timedependent_phsp\l_basic.cpp">
<polygon fill="none" stroke="black" points="2347.5,-0.5 2347.5,-30.5 2454.5,-30.5 2454.5,-0.5 2347.5,-0.5"/>
<text text-anchor="start" x="2355.5" y="-18.5" font-family="Helvetica,sans-Serif" font-size="10.00">timedependent_phsp</text>
<text text-anchor="middle" x="2401" y="-7.5" font-family="Helvetica,sans-Serif" font-size="10.00">_basic.cpp</text>
</a>
</g>
</g>
<!-- Node67&#45;&gt;Node68 -->
<g id="edge30" class="edge">
<title>Node67&#45;&gt;Node68</title>
<path fill="none" stroke="midnightblue" d="M1876.41,-67.12C2081.78,-36.59 2138.22,-62.1 2339,-31 2341.73,-30.58 2344.52,-30.1 2347.33,-29.58"/>
<polygon fill="midnightblue" stroke="midnightblue" points="1875.88,-63.66 1866.51,-68.61 1876.92,-70.58 1875.88,-63.66"/>
</g>
<!-- Node69 -->
<g id="node31" class="node">
<title>Node69</title>
<g id="a_node31"><a xlink:href="timedependent__phsp__basic_8cu.html" target="_top" xlink:title="timedependent_phsp\l_basic.cu">
<polygon fill="none" stroke="black" points="2472.5,-0.5 2472.5,-30.5 2579.5,-30.5 2579.5,-0.5 2472.5,-0.5"/>
<text text-anchor="start" x="2480.5" y="-18.5" font-family="Helvetica,sans-Serif" font-size="10.00">timedependent_phsp</text>
<text text-anchor="middle" x="2526" y="-7.5" font-family="Helvetica,sans-Serif" font-size="10.00">_basic.cu</text>
</a>
</g>
</g>
<!-- Node67&#45;&gt;Node69 -->
<g id="edge31" class="edge">
<title>Node67&#45;&gt;Node69</title>
<path fill="none" stroke="midnightblue" d="M1876.64,-67.1C2136.93,-30.5 2208.23,-68.46 2464,-31 2466.73,-30.6 2469.53,-30.14 2472.34,-29.63"/>
<polygon fill="midnightblue" stroke="midnightblue" points="1875.91,-63.67 1866.5,-68.55 1876.9,-70.6 1875.91,-63.67"/>
</g>
<!-- Node71 -->
<g id="node33" class="node">
<title>Node71</title>
<g id="a_node33"><a xlink:href="dalitz__plot_8cpp.html" target="_top" xlink:title="dalitz_plot.cpp">
<polygon fill="none" stroke="black" points="296,-6 296,-25 376,-25 376,-6 296,-6"/>
<text text-anchor="middle" x="336" y="-13" font-family="Helvetica,sans-Serif" font-size="10.00">dalitz_plot.cpp</text>
</a>
</g>
</g>
<!-- Node70&#45;&gt;Node71 -->
<g id="edge33" class="edge">
<title>Node70&#45;&gt;Node71</title>
<path fill="none" stroke="midnightblue" d="M673.77,-69.99C669.83,-68.88 665.85,-67.85 662,-67 540.77,-40.23 506.46,-56.69 385,-31 377.45,-29.4 369.37,-27.22 362,-25.03"/>
<polygon fill="midnightblue" stroke="midnightblue" points="672.8,-73.35 683.39,-72.86 674.81,-66.64 672.8,-73.35"/>
</g>
<!-- Node72 -->
<g id="node34" class="node">
<title>Node72</title>
<g id="a_node34"><a xlink:href="dalitz__plot_8cu.html" target="_top" xlink:title="dalitz_plot.cu">
<polygon fill="none" stroke="black" points="394,-6 394,-25 468,-25 468,-6 394,-6"/>
<text text-anchor="middle" x="431" y="-13" font-family="Helvetica,sans-Serif" font-size="10.00">dalitz_plot.cu</text>
</a>
</g>
</g>
<!-- Node70&#45;&gt;Node72 -->
<g id="edge34" class="edge">
<title>Node70&#45;&gt;Node72</title>
<path fill="none" stroke="midnightblue" d="M672.52,-69.88C668.98,-68.85 665.43,-67.87 662,-67 580.81,-46.38 558.19,-51.62 477,-31 470.35,-29.31 463.23,-27.21 456.64,-25.15"/>
<polygon fill="midnightblue" stroke="midnightblue" points="671.77,-73.31 682.36,-72.85 673.8,-66.61 671.77,-73.31"/>
</g>
<!-- Node75&#45;&gt;Node43 -->
<g id="edge38" class="edge">
<title>Node75&#45;&gt;Node43</title>
<path fill="none" stroke="midnightblue" d="M686.89,-130.2C666.53,-120.58 638.66,-107.42 617.7,-97.52"/>
<polygon fill="midnightblue" stroke="midnightblue" points="685.41,-133.37 695.95,-134.48 688.4,-127.04 685.41,-133.37"/>
</g>
<!-- Node75&#45;&gt;Node70 -->
<g id="edge39" class="edge">
<title>Node75&#45;&gt;Node70</title>
<path fill="none" stroke="midnightblue" d="M712.12,-124.32C711.02,-113.5 709.7,-100.4 708.86,-92.01"/>
<polygon fill="midnightblue" stroke="midnightblue" points="708.65,-124.88 713.14,-134.48 715.62,-124.17 708.65,-124.88"/>
</g>
<!-- Node75&#45;&gt;Node73 -->
<g id="edge40" class="edge">
<title>Node75&#45;&gt;Node73</title>
<path fill="none" stroke="midnightblue" d="M734.55,-128.61C750.9,-117.17 773.22,-101.55 786.84,-92.01"/>
<polygon fill="midnightblue" stroke="midnightblue" points="732.36,-125.87 726.18,-134.48 736.38,-131.61 732.36,-125.87"/>
</g>
</g>
</svg>
        <g id="navigator" transform="translate(0 0)" fill="#404254">
                <rect fill="#f2f5e9" fill-opacity="0.5" stroke="#606060" stroke-width=".5" x="0" y="0" width="60" height="60"/>
                <use id="zoomplus" xlink:href="#zoomPlus" x="17" y="9" onmousedown="handleZoom(evt,'in')"/>
                <use id="zoomminus" xlink:href="#zoomMin" x="42" y="9" onmousedown="handleZoom(evt,'out')"/>
                <use id="reset" xlink:href="#resetDef" x="30" y="36" onmousedown="handleReset()"/>
                <g id="arrowUp" xlink:href="#dirArrow" transform="translate(30 24)" onmousedown="handlePan(0,-1)">
                  <use xlink:href="#rim" fill="#404040">
                        <set attributeName="fill" to="#808080" begin="arrowUp.mouseover" end="arrowUp.mouseout"/>
                  </use>
                  <path fill="none" stroke="white" stroke-width="1.5" d="M0,-3.0v7 M-2.5,-0.5L0,-3.0L2.5,-0.5"/>
                </g>
                <g id="arrowRight" xlink:href="#dirArrow" transform="rotate(90) translate(36 -43)" onmousedown="handlePan(1,0)">
                  <use xlink:href="#rim" fill="#404040">
                        <set attributeName="fill" to="#808080" begin="arrowRight.mouseover" end="arrowRight.mouseout"/>
                  </use>
                  <path fill="none" stroke="white" stroke-width="1.5" d="M0,-3.0v7 M-2.5,-0.5L0,-3.0L2.5,-0.5"/>
                </g>
                <g id="arrowDown" xlink:href="#dirArrow" transform="rotate(180) translate(-30 -48)" onmousedown="handlePan(0,1)">
                  <use xlink:href="#rim" fill="#404040">
                        <set attributeName="fill" to="#808080" begin="arrowDown.mouseover" end="arrowDown.mouseout"/>
                  </use>
                  <path fill="none" stroke="white" stroke-width="1.5" d="M0,-3.0v7 M-2.5,-0.5L0,-3.0L2.5,-0.5"/>
                </g>
                <g id="arrowLeft" xlink:href="#dirArrow" transform="rotate(270) translate(-36 17)" onmousedown="handlePan(-1,0)">
                  <use xlink:href="#rim" fill="#404040">
                        <set attributeName="fill" to="#808080" begin="arrowLeft.mouseover" end="arrowLeft.mouseout"/>
                  </use>
                  <path fill="none" stroke="white" stroke-width="1.5" d="M0,-3.0v7 M-2.5,-0.5L0,-3.0L2.5,-0.5"/>
                </g>
        </g>
        <svg viewBox="0 0 15 15" width="100%" height="30px" preserveAspectRatio="xMaxYMin meet">
         <g id="arrow_out" transform="scale(0.3 0.3)">
          <a xlink:href="DecayMothers_8h__dep__incl_org.svg" target="_base">
           <rect id="button" ry="5" rx="5" y="6" x="6" height="38" width="38"
                fill="#f2f5e9" fill-opacity="0.5" stroke="#606060" stroke-width="1.0"/>
           <path id="arrow"
             d="M 11.500037,31.436501 C 11.940474,20.09759 22.043105,11.32322 32.158766,21.979434 L 37.068811,17.246167 C 37.068811,17.246167 37.088388,32 37.088388,32 L 22.160133,31.978069 C 22.160133,31.978069 26.997745,27.140456 26.997745,27.140456 C 18.528582,18.264221 13.291696,25.230495 11.500037,31.436501 z"
             style="fill:#404040;"/>
          </a>
         </g>
        </svg>
</svg>
