<?xml version="1.0" encoding="UTF-8" standalone="no"?>
<!DOCTYPE svg PUBLIC "-//W3C//DTD SVG 1.1//EN"
 "http://www.w3.org/Graphics/SVG/1.1/DTD/svg11.dtd">
<!-- Generated by graphviz version 2.40.1 (20161225.0304)
 -->
<!-- Title: Decays.inl Pages: 1 -->
<svg width="2447pt" height="341pt"
 viewBox="0.00 0.00 2447.00 341.00" xmlns="http://www.w3.org/2000/svg" xmlns:xlink="http://www.w3.org/1999/xlink">
<g id="graph0" class="graph" transform="scale(1 1) rotate(0) translate(4 337)">
<title>Decays.inl</title>
<!-- Node1 -->
<g id="node1" class="node">
<title>Node1</title>
<polygon fill="#bfbfbf" stroke="#000000" points="1117.5,-313.5 1117.5,-332.5 1179.5,-332.5 1179.5,-313.5 1117.5,-313.5"/>
<text text-anchor="middle" x="1148.5" y="-320.5" font-family="Helvetica,sans-Serif" font-size="10.00" fill="#000000">Decays.inl</text>
</g>
<!-- Node2 -->
<g id="node2" class="node">
<title>Node2</title>
<g id="a_node2"><a xlink:href="Decays_8h.html" target="_top" xlink:title="Decays.h">
<polygon fill="none" stroke="#000000" points="1119.5,-257.5 1119.5,-276.5 1177.5,-276.5 1177.5,-257.5 1119.5,-257.5"/>
<text text-anchor="middle" x="1148.5" y="-264.5" font-family="Helvetica,sans-Serif" font-size="10.00" fill="#000000">Decays.h</text>
</a>
</g>
</g>
<!-- Node1&#45;&gt;Node2 -->
<g id="edge1" class="edge">
<title>Node1&#45;&gt;Node2</title>
<path fill="none" stroke="#191970" d="M1148.5,-303.1575C1148.5,-294.155 1148.5,-283.9199 1148.5,-276.6427"/>
<polygon fill="#191970" stroke="#191970" points="1145.0001,-303.2455 1148.5,-313.2455 1152.0001,-303.2456 1145.0001,-303.2455"/>
</g>
<!-- Node3 -->
<g id="node3" class="node">
<title>Node3</title>
<g id="a_node3"><a xlink:href="Chains_8h.html" target="_top" xlink:title="Chains.h">
<polygon fill="none" stroke="#000000" points="369,-201.5 369,-220.5 424,-220.5 424,-201.5 369,-201.5"/>
<text text-anchor="middle" x="396.5" y="-208.5" font-family="Helvetica,sans-Serif" font-size="10.00" fill="#000000">Chains.h</text>
</a>
</g>
</g>
<!-- Node2&#45;&gt;Node3 -->
<g id="edge2" class="edge">
<title>Node2&#45;&gt;Node3</title>
<path fill="none" stroke="#191970" d="M1109.289,-264.08C975.4781,-254.1154 538.7982,-221.5967 424.2306,-213.065"/>
<polygon fill="#191970" stroke="#191970" points="1109.2491,-267.5867 1119.4815,-264.839 1109.7691,-260.606 1109.2491,-267.5867"/>
</g>
<!-- Node9 -->
<g id="node9" class="node">
<title>Node9</title>
<g id="a_node9"><a xlink:href="PhaseSpace_8h.html" target="_top" xlink:title="PhaseSpace.h">
<polygon fill="none" stroke="#000000" points="915.5,-201.5 915.5,-220.5 995.5,-220.5 995.5,-201.5 915.5,-201.5"/>
<text text-anchor="middle" x="955.5" y="-208.5" font-family="Helvetica,sans-Serif" font-size="10.00" fill="#000000">PhaseSpace.h</text>
</a>
</g>
</g>
<!-- Node2&#45;&gt;Node9 -->
<g id="edge8" class="edge">
<title>Node2&#45;&gt;Node9</title>
<path fill="none" stroke="#191970" d="M1109.1536,-255.5834C1073.5576,-245.2551 1021.7418,-230.2204 988.3252,-220.5244"/>
<polygon fill="#191970" stroke="#191970" points="1108.6082,-259.0695 1119.1875,-258.4948 1110.5589,-252.3468 1108.6082,-259.0695"/>
</g>
<!-- Node11 -->
<g id="node11" class="node">
<title>Node11</title>
<g id="a_node11"><a xlink:href="phsp__unweighting__functor__and__fit_8inl.html" target="_top" xlink:title="phsp_unweighting_functor\l_and_fit.inl">
<polygon fill="none" stroke="#000000" points="213,-67.5 213,-97.5 342,-97.5 342,-67.5 213,-67.5"/>
<text text-anchor="start" x="221" y="-85.5" font-family="Helvetica,sans-Serif" font-size="10.00" fill="#000000">phsp_unweighting_functor</text>
<text text-anchor="middle" x="277.5" y="-74.5" font-family="Helvetica,sans-Serif" font-size="10.00" fill="#000000">_and_fit.inl</text>
</a>
</g>
</g>
<!-- Node2&#45;&gt;Node11 -->
<g id="edge45" class="edge">
<title>Node2&#45;&gt;Node11</title>
<path fill="none" stroke="#191970" d="M1109.1074,-266.8626C950.1795,-266.0431 361.2045,-260.354 288.5,-221 250.9084,-200.6521 236.3568,-175.2673 247.5,-134 251.0606,-120.8138 258.9254,-107.5336 265.7091,-97.7621"/>
<polygon fill="#191970" stroke="#191970" points="1109.3532,-270.3638 1119.3699,-266.9118 1109.3868,-263.3638 1109.3532,-270.3638"/>
</g>
<!-- Node14 -->
<g id="node14" class="node">
<title>Node14</title>
<g id="a_node14"><a xlink:href="dalitz__plot_8inl.html" target="_top" xlink:title="dalitz_plot.inl">
<polygon fill="none" stroke="#000000" points="363.5,-73 363.5,-92 437.5,-92 437.5,-73 363.5,-73"/>
<text text-anchor="middle" x="400.5" y="-80" font-family="Helvetica,sans-Serif" font-size="10.00" fill="#000000">dalitz_plot.inl</text>
</a>
</g>
</g>
<!-- Node2&#45;&gt;Node14 -->
<g id="edge51" class="edge">
<title>Node2&#45;&gt;Node14</title>
<path fill="none" stroke="#191970" d="M1109.3357,-265.7208C960.1121,-260.7095 431.896,-241.6698 359.5,-221 309.3959,-206.6948 283.1289,-209.788 256.5,-165 249.4589,-153.1573 248.5658,-145.2639 256.5,-134 259.9497,-129.1025 330.1223,-105.5088 371.213,-92.0182"/>
<polygon fill="#191970" stroke="#191970" points="1109.3021,-269.2215 1119.4133,-266.0572 1109.5357,-262.2254 1109.3021,-269.2215"/>
</g>
<!-- Node17 -->
<g id="node17" class="node">
<title>Node17</title>
<g id="a_node17"><a xlink:href="dalitz__plot_8C.html" target="_top" xlink:title="dalitz_plot.C">
<polygon fill="none" stroke="#000000" points="456,-73 456,-92 527,-92 527,-73 456,-73"/>
<text text-anchor="middle" x="491.5" y="-80" font-family="Helvetica,sans-Serif" font-size="10.00" fill="#000000">dalitz_plot.C</text>
</a>
</g>
</g>
<!-- Node2&#45;&gt;Node17 -->
<g id="edge52" class="edge">
<title>Node2&#45;&gt;Node17</title>
<path fill="none" stroke="#191970" d="M1109.2141,-262.4053C1060.7586,-256.0871 976.2435,-242.9342 906.5,-221 861.4287,-206.8252 757.4715,-148.4882 712.5,-134 636.5046,-109.517 613.5182,-119.0453 536.5,-98 530.2828,-96.3011 523.6767,-94.1986 517.4958,-92.0961"/>
<polygon fill="#191970" stroke="#191970" points="1108.916,-265.8955 1119.2779,-263.6864 1109.8,-258.9515 1108.916,-265.8955"/>
</g>
<!-- Node24 -->
<g id="node24" class="node">
<title>Node24</title>
<g id="a_node24"><a xlink:href="phsp__basic_8inl.html" target="_top" xlink:title="phsp_basic.inl">
<polygon fill="none" stroke="#000000" points="1109,-140 1109,-159 1188,-159 1188,-140 1109,-140"/>
<text text-anchor="middle" x="1148.5" y="-147" font-family="Helvetica,sans-Serif" font-size="10.00" fill="#000000">phsp_basic.inl</text>
</a>
</g>
</g>
<!-- Node2&#45;&gt;Node24 -->
<g id="edge46" class="edge">
<title>Node2&#45;&gt;Node24</title>
<path fill="none" stroke="#191970" d="M1148.5,-247.0662C1148.5,-221.5834 1148.5,-178.4662 1148.5,-159.2484"/>
<polygon fill="#191970" stroke="#191970" points="1145.0001,-247.3844 1148.5,-257.3845 1152.0001,-247.3845 1145.0001,-247.3844"/>
</g>
<!-- Node27 -->
<g id="node27" class="node">
<title>Node27</title>
<g id="a_node27"><a xlink:href="phsp__evaluating__functor_8inl.html" target="_top" xlink:title="phsp_evaluating_functor.inl">
<polygon fill="none" stroke="#000000" points="1206,-140 1206,-159 1341,-159 1341,-140 1206,-140"/>
<text text-anchor="middle" x="1273.5" y="-147" font-family="Helvetica,sans-Serif" font-size="10.00" fill="#000000">phsp_evaluating_functor.inl</text>
</a>
</g>
</g>
<!-- Node2&#45;&gt;Node27 -->
<g id="edge47" class="edge">
<title>Node2&#45;&gt;Node27</title>
<path fill="none" stroke="#191970" d="M1166.1609,-250.3987C1192.6315,-225.5163 1241.764,-179.3318 1263.1294,-159.2484"/>
<polygon fill="#191970" stroke="#191970" points="1163.6184,-247.9851 1158.7293,-257.3845 1168.4128,-253.0856 1163.6184,-247.9851"/>
</g>
<!-- Node30 -->
<g id="node30" class="node">
<title>Node30</title>
<g id="a_node30"><a xlink:href="phsp__reweighting_8inl.html" target="_top" xlink:title="phsp_reweighting.inl">
<polygon fill="none" stroke="#000000" points="1359.5,-140 1359.5,-159 1463.5,-159 1463.5,-140 1359.5,-140"/>
<text text-anchor="middle" x="1411.5" y="-147" font-family="Helvetica,sans-Serif" font-size="10.00" fill="#000000">phsp_reweighting.inl</text>
</a>
</g>
</g>
<!-- Node2&#45;&gt;Node30 -->
<g id="edge48" class="edge">
<title>Node2&#45;&gt;Node30</title>
<path fill="none" stroke="#191970" d="M1179.4234,-253.1844C1233.4207,-229.0601 1343.5711,-179.8484 1390.0491,-159.0836"/>
<polygon fill="#191970" stroke="#191970" points="1177.7249,-250.1097 1170.0224,-257.3845 1180.5803,-256.5009 1177.7249,-250.1097"/>
</g>
<!-- Node33 -->
<g id="node33" class="node">
<title>Node33</title>
<g id="a_node33"><a xlink:href="phsp__unweighting_8inl.html" target="_top" xlink:title="phsp_unweighting.inl">
<polygon fill="none" stroke="#000000" points="1482,-140 1482,-159 1589,-159 1589,-140 1482,-140"/>
<text text-anchor="middle" x="1535.5" y="-147" font-family="Helvetica,sans-Serif" font-size="10.00" fill="#000000">phsp_unweighting.inl</text>
</a>
</g>
</g>
<!-- Node2&#45;&gt;Node33 -->
<g id="edge49" class="edge">
<title>Node2&#45;&gt;Node33</title>
<path fill="none" stroke="#191970" d="M1187.3513,-255.204C1264.145,-231.8882 1433.9932,-180.3192 1504.195,-159.0047"/>
<polygon fill="#191970" stroke="#191970" points="1186.1397,-251.9141 1177.5879,-258.1684 1188.1734,-258.6122 1186.1397,-251.9141"/>
</g>
<!-- Node36 -->
<g id="node36" class="node">
<title>Node36</title>
<g id="a_node36"><a xlink:href="phsp__unweighting__functor_8inl.html" target="_top" xlink:title="phsp_unweighting_functor.inl">
<polygon fill="none" stroke="#000000" points="1607.5,-140 1607.5,-159 1749.5,-159 1749.5,-140 1607.5,-140"/>
<text text-anchor="middle" x="1678.5" y="-147" font-family="Helvetica,sans-Serif" font-size="10.00" fill="#000000">phsp_unweighting_functor.inl</text>
</a>
</g>
</g>
<!-- Node2&#45;&gt;Node36 -->
<g id="edge50" class="edge">
<title>Node2&#45;&gt;Node36</title>
<path fill="none" stroke="#191970" d="M1187.7163,-258.3058C1284.6066,-236.8254 1534.7218,-181.3754 1635.4867,-159.036"/>
<polygon fill="#191970" stroke="#191970" points="1186.7554,-254.9338 1177.75,-260.5153 1188.2706,-261.7679 1186.7554,-254.9338"/>
</g>
<!-- Node39 -->
<g id="node39" class="node">
<title>Node39</title>
<g id="a_node39"><a xlink:href="three__body__phsp_8C.html" target="_top" xlink:title="three_body_phsp.C">
<polygon fill="none" stroke="#000000" points="1768,-140 1768,-159 1869,-159 1869,-140 1768,-140"/>
<text text-anchor="middle" x="1818.5" y="-147" font-family="Helvetica,sans-Serif" font-size="10.00" fill="#000000">three_body_phsp.C</text>
</a>
</g>
</g>
<!-- Node2&#45;&gt;Node39 -->
<g id="edge53" class="edge">
<title>Node2&#45;&gt;Node39</title>
<path fill="none" stroke="#191970" d="M1187.5114,-261.681C1284.5503,-248.1896 1544.4222,-210.4597 1758.5,-165 1766.7087,-163.2569 1775.4853,-161.137 1783.7217,-159.0318"/>
<polygon fill="#191970" stroke="#191970" points="1186.988,-258.22 1177.5626,-263.0585 1187.9481,-265.1539 1186.988,-258.22"/>
</g>
<!-- Node4 -->
<g id="node4" class="node">
<title>Node4</title>
<g id="a_node4"><a xlink:href="phsp__chain_8inl.html" target="_top" xlink:title="phsp_chain.inl">
<polygon fill="none" stroke="#000000" points="92,-140 92,-159 171,-159 171,-140 92,-140"/>
<text text-anchor="middle" x="131.5" y="-147" font-family="Helvetica,sans-Serif" font-size="10.00" fill="#000000">phsp_chain.inl</text>
</a>
</g>
</g>
<!-- Node3&#45;&gt;Node4 -->
<g id="edge3" class="edge">
<title>Node3&#45;&gt;Node4</title>
<path fill="none" stroke="#191970" d="M358.6268,-202.2105C308.9311,-190.6774 222.0995,-170.5259 171.4119,-158.7626"/>
<polygon fill="#191970" stroke="#191970" points="358.1088,-205.6833 368.6412,-204.5347 359.6914,-198.8645 358.1088,-205.6833"/>
</g>
<!-- Node7 -->
<g id="node7" class="node">
<title>Node7</title>
<g id="a_node7"><a xlink:href="generate__4body__decay__chain_8C.html" target="_top" xlink:title="generate_4body_decay\l_chain.C">
<polygon fill="none" stroke="#000000" points="408,-134.5 408,-164.5 525,-164.5 525,-134.5 408,-134.5"/>
<text text-anchor="start" x="416" y="-152.5" font-family="Helvetica,sans-Serif" font-size="10.00" fill="#000000">generate_4body_decay</text>
<text text-anchor="middle" x="466.5" y="-141.5" font-family="Helvetica,sans-Serif" font-size="10.00" fill="#000000">_chain.C</text>
</a>
</g>
</g>
<!-- Node3&#45;&gt;Node7 -->
<g id="edge6" class="edge">
<title>Node3&#45;&gt;Node7</title>
<path fill="none" stroke="#191970" d="M414.9804,-194.7637C425.6405,-185.398 438.9537,-173.7014 449.3761,-164.5446"/>
<polygon fill="#191970" stroke="#191970" points="412.6399,-192.161 407.4375,-201.3906 417.2601,-197.4197 412.6399,-192.161"/>
</g>
<!-- Node8 -->
<g id="node8" class="node">
<title>Node8</title>
<g id="a_node8"><a xlink:href="generate__decay__chain_8C.html" target="_top" xlink:title="generate_decay_chain.C">
<polygon fill="none" stroke="#000000" points="265.5,-140 265.5,-159 389.5,-159 389.5,-140 265.5,-140"/>
<text text-anchor="middle" x="327.5" y="-147" font-family="Helvetica,sans-Serif" font-size="10.00" fill="#000000">generate_decay_chain.C</text>
</a>
</g>
</g>
<!-- Node3&#45;&gt;Node8 -->
<g id="edge7" class="edge">
<title>Node3&#45;&gt;Node8</title>
<path fill="none" stroke="#191970" d="M378.0419,-194.5482C365.3992,-183.2798 349.0594,-168.716 338.4333,-159.2449"/>
<polygon fill="#191970" stroke="#191970" points="375.9248,-197.3497 385.7188,-201.3906 380.5824,-192.1241 375.9248,-197.3497"/>
</g>
<!-- Node5 -->
<g id="node5" class="node">
<title>Node5</title>
<g id="a_node5"><a xlink:href="phsp__chain_8cpp.html" target="_top" xlink:title="phsp_chain.cpp">
<polygon fill="none" stroke="#000000" points="0,-73 0,-92 85,-92 85,-73 0,-73"/>
<text text-anchor="middle" x="42.5" y="-80" font-family="Helvetica,sans-Serif" font-size="10.00" fill="#000000">phsp_chain.cpp</text>
</a>
</g>
</g>
<!-- Node4&#45;&gt;Node5 -->
<g id="edge4" class="edge">
<title>Node4&#45;&gt;Node5</title>
<path fill="none" stroke="#191970" d="M110.4534,-133.6559C93.2957,-120.7395 69.6252,-102.9201 55.2279,-92.0817"/>
<polygon fill="#191970" stroke="#191970" points="108.6542,-136.6824 118.7485,-139.9005 112.8643,-131.0899 108.6542,-136.6824"/>
</g>
<!-- Node6 -->
<g id="node6" class="node">
<title>Node6</title>
<g id="a_node6"><a xlink:href="phsp__chain_8cu.html" target="_top" xlink:title="phsp_chain.cu">
<polygon fill="none" stroke="#000000" points="103.5,-73 103.5,-92 183.5,-92 183.5,-73 103.5,-73"/>
<text text-anchor="middle" x="143.5" y="-80" font-family="Helvetica,sans-Serif" font-size="10.00" fill="#000000">phsp_chain.cu</text>
</a>
</g>
</g>
<!-- Node4&#45;&gt;Node6 -->
<g id="edge5" class="edge">
<title>Node4&#45;&gt;Node6</title>
<path fill="none" stroke="#191970" d="M134.995,-129.9863C137.2262,-117.5286 140.0208,-101.9258 141.7839,-92.0817"/>
<polygon fill="#191970" stroke="#191970" points="131.5372,-129.4401 133.2193,-139.9005 138.4276,-130.6742 131.5372,-129.4401"/>
</g>
<!-- Node9&#45;&gt;Node4 -->
<g id="edge27" class="edge">
<title>Node9&#45;&gt;Node4</title>
<path fill="none" stroke="#191970" d="M904.9799,-208.6763C789.797,-203.1595 498.948,-187.99 256.5,-165 227.8725,-162.2854 195.673,-158.2698 171.1247,-155.0061"/>
<polygon fill="#191970" stroke="#191970" points="905.092,-212.1855 915.247,-209.1647 905.4246,-205.1934 905.092,-212.1855"/>
</g>
<!-- Node9&#45;&gt;Node7 -->
<g id="edge42" class="edge">
<title>Node9&#45;&gt;Node7</title>
<path fill="none" stroke="#191970" d="M905.3781,-207.0728C827.0027,-200.5689 670.8038,-186.146 539.5,-165 534.8951,-164.2584 530.1418,-163.4189 525.3727,-162.5236"/>
<polygon fill="#191970" stroke="#191970" points="905.2018,-210.57 915.4549,-207.9009 905.7751,-203.5936 905.2018,-210.57"/>
</g>
<!-- Node9&#45;&gt;Node8 -->
<g id="edge43" class="edge">
<title>Node9&#45;&gt;Node8</title>
<path fill="none" stroke="#191970" d="M905.2401,-209.083C807.2801,-204.8541 584.1363,-192.8033 398.5,-165 388.1436,-163.4489 377.0394,-161.2743 366.7608,-159.0435"/>
<polygon fill="#191970" stroke="#191970" points="905.3027,-212.5887 915.4417,-209.5145 905.5986,-205.5949 905.3027,-212.5887"/>
</g>
<!-- Node10 -->
<g id="node10" class="node">
<title>Node10</title>
<g id="a_node10"><a xlink:href="PhaseSpaceIntegrator_8h.html" target="_top" xlink:title="PhaseSpaceIntegrator.h">
<polygon fill="none" stroke="#000000" points="581.5,-140 581.5,-159 703.5,-159 703.5,-140 581.5,-140"/>
<text text-anchor="middle" x="642.5" y="-147" font-family="Helvetica,sans-Serif" font-size="10.00" fill="#000000">PhaseSpaceIntegrator.h</text>
</a>
</g>
</g>
<!-- Node9&#45;&gt;Node10 -->
<g id="edge9" class="edge">
<title>Node9&#45;&gt;Node10</title>
<path fill="none" stroke="#191970" d="M905.6032,-201.5496C857.4218,-192.3784 782.4176,-177.9811 717.5,-165 707.9823,-163.0968 697.7942,-161.0187 688.0918,-159.0201"/>
<polygon fill="#191970" stroke="#191970" points="904.9863,-204.9949 915.4641,-203.4249 906.2941,-198.1182 904.9863,-204.9949"/>
</g>
<!-- Node9&#45;&gt;Node11 -->
<g id="edge17" class="edge">
<title>Node9&#45;&gt;Node11</title>
<path fill="none" stroke="#191970" d="M905.2942,-208.3708C815.5536,-203.1127 631.4997,-189.6371 572.5,-165 552.0678,-156.4679 553.5796,-143.3317 533.5,-134 459.9101,-99.8004 434.0542,-114.0069 354.5,-98 350.4895,-97.1931 346.3615,-96.3624 342.1987,-95.5246"/>
<polygon fill="#191970" stroke="#191970" points="905.3123,-211.8775 915.4966,-208.9569 905.7138,-204.889 905.3123,-211.8775"/>
</g>
<!-- Node9&#45;&gt;Node14 -->
<g id="edge40" class="edge">
<title>Node9&#45;&gt;Node14</title>
<path fill="none" stroke="#191970" d="M905.2511,-200.372C869.6494,-192.2385 821.0304,-179.9014 779.5,-165 748.6171,-153.919 743.997,-143.1915 712.5,-134 597.9768,-100.5796 562.6648,-125.1704 446.5,-98 439.7712,-96.4262 432.6335,-94.2703 426.0391,-92.0667"/>
<polygon fill="#191970" stroke="#191970" points="904.8695,-203.8737 915.3942,-202.6562 906.4074,-197.0447 904.8695,-203.8737"/>
</g>
<!-- Node9&#45;&gt;Node17 -->
<g id="edge41" class="edge">
<title>Node9&#45;&gt;Node17</title>
<path fill="none" stroke="#191970" d="M910.6845,-198.4493C885.2542,-190.4934 853.2607,-179.054 826.5,-165 805.6418,-154.0458 805.3379,-142.8411 783.5,-134 680.67,-92.369 644.3046,-124.1787 536.5,-98 529.9157,-96.4011 522.9325,-94.2362 516.4814,-92.0319"/>
<polygon fill="#191970" stroke="#191970" points="909.8507,-201.8542 920.4371,-201.4314 911.8976,-195.1602 909.8507,-201.8542"/>
</g>
<!-- Node18 -->
<g id="node18" class="node">
<title>Node18</title>
<g id="a_node18"><a xlink:href="caching__functors_8inl.html" target="_top" xlink:title="caching_functors.inl">
<polygon fill="none" stroke="#000000" points="835.5,-140 835.5,-159 939.5,-159 939.5,-140 835.5,-140"/>
<text text-anchor="middle" x="887.5" y="-147" font-family="Helvetica,sans-Serif" font-size="10.00" fill="#000000">caching_functors.inl</text>
</a>
</g>
</g>
<!-- Node9&#45;&gt;Node18 -->
<g id="edge18" class="edge">
<title>Node9&#45;&gt;Node18</title>
<path fill="none" stroke="#191970" d="M937.3094,-194.5482C924.85,-183.2798 908.747,-168.716 898.2748,-159.2449"/>
<polygon fill="#191970" stroke="#191970" points="935.1106,-197.2787 944.875,-201.3906 939.806,-192.0871 935.1106,-197.2787"/>
</g>
<!-- Node21 -->
<g id="node21" class="node">
<title>Node21</title>
<g id="a_node21"><a xlink:href="phsp__averaging__functor_8inl.html" target="_top" xlink:title="phsp_averaging_functor.inl">
<polygon fill="none" stroke="#000000" points="958,-140 958,-159 1091,-159 1091,-140 958,-140"/>
<text text-anchor="middle" x="1024.5" y="-147" font-family="Helvetica,sans-Serif" font-size="10.00" fill="#000000">phsp_averaging_functor.inl</text>
</a>
</g>
</g>
<!-- Node9&#45;&gt;Node21 -->
<g id="edge21" class="edge">
<title>Node9&#45;&gt;Node21</title>
<path fill="none" stroke="#191970" d="M973.9581,-194.5482C986.6008,-183.2798 1002.9406,-168.716 1013.5667,-159.2449"/>
<polygon fill="#191970" stroke="#191970" points="971.4176,-192.1241 966.2813,-201.3906 976.0752,-197.3497 971.4176,-192.1241"/>
</g>
<!-- Node9&#45;&gt;Node24 -->
<g id="edge24" class="edge">
<title>Node9&#45;&gt;Node24</title>
<path fill="none" stroke="#191970" d="M995.5099,-198.2507C1032.1294,-186.5818 1085.4997,-169.5752 1118.5555,-159.0419"/>
<polygon fill="#191970" stroke="#191970" points="994.1216,-195.0197 985.6563,-201.3906 996.2469,-201.6892 994.1216,-195.0197"/>
</g>
<!-- Node9&#45;&gt;Node27 -->
<g id="edge28" class="edge">
<title>Node9&#45;&gt;Node27</title>
<path fill="none" stroke="#191970" d="M1005.5836,-201.5922C1054.3488,-192.3962 1130.5496,-177.9315 1196.5,-165 1206.2684,-163.0846 1216.727,-161.0012 1226.6878,-159.0014"/>
<polygon fill="#191970" stroke="#191970" points="1004.7865,-198.1807 995.6076,-203.4721 1006.0829,-205.0596 1004.7865,-198.1807"/>
</g>
<!-- Node9&#45;&gt;Node30 -->
<g id="edge31" class="edge">
<title>Node9&#45;&gt;Node30</title>
<path fill="none" stroke="#191970" d="M1005.8762,-207.2084C1081.099,-201.076 1227.0477,-187.3587 1349.5,-165 1358.3409,-163.3857 1367.7942,-161.2412 1376.5872,-159.0637"/>
<polygon fill="#191970" stroke="#191970" points="1005.4284,-203.733 995.7412,-208.0235 1005.9896,-210.7105 1005.4284,-203.733"/>
</g>
<!-- Node9&#45;&gt;Node33 -->
<g id="edge34" class="edge">
<title>Node9&#45;&gt;Node33</title>
<path fill="none" stroke="#191970" d="M1005.8854,-209.0696C1098.7234,-204.9481 1302.8194,-193.2526 1472.5,-165 1481.7219,-163.4645 1491.5864,-161.2954 1500.7074,-159.0649"/>
<polygon fill="#191970" stroke="#191970" points="1005.4948,-205.5832 995.6557,-209.5129 1005.7979,-212.5766 1005.4948,-205.5832"/>
</g>
<!-- Node9&#45;&gt;Node36 -->
<g id="edge37" class="edge">
<title>Node9&#45;&gt;Node36</title>
<path fill="none" stroke="#191970" d="M1005.8663,-209.4054C1114.4008,-205.528 1378.2695,-193.7286 1597.5,-165 1609.2829,-163.4559 1621.9399,-161.2838 1633.6656,-159.0531"/>
<polygon fill="#191970" stroke="#191970" points="1005.7258,-205.9081 995.8546,-209.7563 1005.971,-212.9038 1005.7258,-205.9081"/>
</g>
<!-- Node9&#45;&gt;Node39 -->
<g id="edge44" class="edge">
<title>Node9&#45;&gt;Node39</title>
<path fill="none" stroke="#191970" d="M1005.8046,-209.4073C1158.0471,-204.3836 1612.3399,-187.8402 1758.5,-165 1767.6415,-163.5715 1777.4123,-161.3535 1786.3579,-159.0377"/>
<polygon fill="#191970" stroke="#191970" points="1005.6762,-205.9096 995.7962,-209.7353 1005.9055,-212.9058 1005.6762,-205.9096"/>
</g>
<!-- Node10&#45;&gt;Node11 -->
<g id="edge10" class="edge">
<title>Node10&#45;&gt;Node11</title>
<path fill="none" stroke="#191970" d="M587.8168,-137.9581C580.9833,-136.5867 574.0848,-135.2365 567.5,-134 473.1399,-116.2814 448.9055,-115.4754 354.5,-98 350.4775,-97.2554 346.3403,-96.4724 342.1706,-95.6704"/>
<polygon fill="#191970" stroke="#191970" points="587.2416,-141.4126 597.738,-139.9715 588.6339,-134.5525 587.2416,-141.4126"/>
</g>
<!-- Node10&#45;&gt;Node14 -->
<g id="edge13" class="edge">
<title>Node10&#45;&gt;Node14</title>
<path fill="none" stroke="#191970" d="M593.1376,-137.5188C553.3474,-127.6239 496.0579,-112.8415 446.5,-98 440.5259,-96.2109 434.162,-94.161 428.1328,-92.1505"/>
<polygon fill="#191970" stroke="#191970" points="592.3133,-140.9204 602.8614,-139.9263 593.9956,-134.1255 592.3133,-140.9204"/>
</g>
<!-- Node10&#45;&gt;Node17 -->
<g id="edge16" class="edge">
<title>Node10&#45;&gt;Node17</title>
<path fill="none" stroke="#191970" d="M611.494,-135.7424C582.1505,-122.7224 538.866,-103.5167 513.0945,-92.0817"/>
<polygon fill="#191970" stroke="#191970" points="610.3052,-139.0439 620.8654,-139.9005 613.1443,-132.6455 610.3052,-139.0439"/>
</g>
<!-- Node12 -->
<g id="node12" class="node">
<title>Node12</title>
<g id="a_node12"><a xlink:href="phsp__unweighting__functor__and__fit_8cpp.html" target="_top" xlink:title="phsp_unweighting_functor\l_and_fit.cpp">
<polygon fill="none" stroke="#000000" points="66,-.5 66,-30.5 195,-30.5 195,-.5 66,-.5"/>
<text text-anchor="start" x="74" y="-18.5" font-family="Helvetica,sans-Serif" font-size="10.00" fill="#000000">phsp_unweighting_functor</text>
<text text-anchor="middle" x="130.5" y="-7.5" font-family="Helvetica,sans-Serif" font-size="10.00" fill="#000000">_and_fit.cpp</text>
</a>
</g>
</g>
<!-- Node11&#45;&gt;Node12 -->
<g id="edge11" class="edge">
<title>Node11&#45;&gt;Node12</title>
<path fill="none" stroke="#191970" d="M235.4036,-63.3132C212.6153,-52.9267 184.8667,-40.2794 163.6336,-30.6017"/>
<polygon fill="#191970" stroke="#191970" points="233.9593,-66.5013 244.5103,-67.4639 236.8625,-60.1317 233.9593,-66.5013"/>
</g>
<!-- Node13 -->
<g id="node13" class="node">
<title>Node13</title>
<g id="a_node13"><a xlink:href="phsp__unweighting__functor__and__fit_8cu.html" target="_top" xlink:title="phsp_unweighting_functor\l_and_fit.cu">
<polygon fill="none" stroke="#000000" points="213,-.5 213,-30.5 342,-30.5 342,-.5 213,-.5"/>
<text text-anchor="start" x="221" y="-18.5" font-family="Helvetica,sans-Serif" font-size="10.00" fill="#000000">phsp_unweighting_functor</text>
<text text-anchor="middle" x="277.5" y="-7.5" font-family="Helvetica,sans-Serif" font-size="10.00" fill="#000000">_and_fit.cu</text>
</a>
</g>
</g>
<!-- Node11&#45;&gt;Node13 -->
<g id="edge12" class="edge">
<title>Node11&#45;&gt;Node13</title>
<path fill="none" stroke="#191970" d="M277.5,-57.0249C277.5,-48.128 277.5,-38.4287 277.5,-30.6432"/>
<polygon fill="#191970" stroke="#191970" points="274.0001,-57.2966 277.5,-67.2967 281.0001,-57.2967 274.0001,-57.2966"/>
</g>
<!-- Node15 -->
<g id="node15" class="node">
<title>Node15</title>
<g id="a_node15"><a xlink:href="dalitz__plot_8cpp.html" target="_top" xlink:title="dalitz_plot.cpp">
<polygon fill="none" stroke="#000000" points="360.5,-6 360.5,-25 440.5,-25 440.5,-6 360.5,-6"/>
<text text-anchor="middle" x="400.5" y="-13" font-family="Helvetica,sans-Serif" font-size="10.00" fill="#000000">dalitz_plot.cpp</text>
</a>
</g>
</g>
<!-- Node14&#45;&gt;Node15 -->
<g id="edge14" class="edge">
<title>Node14&#45;&gt;Node15</title>
<path fill="none" stroke="#191970" d="M400.5,-62.6079C400.5,-50.214 400.5,-34.8263 400.5,-25.0817"/>
<polygon fill="#191970" stroke="#191970" points="397.0001,-62.9005 400.5,-72.9005 404.0001,-62.9006 397.0001,-62.9005"/>
</g>
<!-- Node16 -->
<g id="node16" class="node">
<title>Node16</title>
<g id="a_node16"><a xlink:href="dalitz__plot_8cu.html" target="_top" xlink:title="dalitz_plot.cu">
<polygon fill="none" stroke="#000000" points="458.5,-6 458.5,-25 532.5,-25 532.5,-6 458.5,-6"/>
<text text-anchor="middle" x="495.5" y="-13" font-family="Helvetica,sans-Serif" font-size="10.00" fill="#000000">dalitz_plot.cu</text>
</a>
</g>
</g>
<!-- Node14&#45;&gt;Node16 -->
<g id="edge15" class="edge">
<title>Node14&#45;&gt;Node16</title>
<path fill="none" stroke="#191970" d="M422.4632,-67.0102C440.8154,-54.067 466.4051,-36.0195 481.9141,-25.0817"/>
<polygon fill="#191970" stroke="#191970" points="420.266,-64.2768 414.1112,-72.9005 424.3005,-69.9973 420.266,-64.2768"/>
</g>
<!-- Node19 -->
<g id="node19" class="node">
<title>Node19</title>
<g id="a_node19"><a xlink:href="caching__functors_8cpp.html" target="_top" xlink:title="caching_functors.cpp">
<polygon fill="none" stroke="#000000" points="545.5,-73 545.5,-92 655.5,-92 655.5,-73 545.5,-73"/>
<text text-anchor="middle" x="600.5" y="-80" font-family="Helvetica,sans-Serif" font-size="10.00" fill="#000000">caching_functors.cpp</text>
</a>
</g>
</g>
<!-- Node18&#45;&gt;Node19 -->
<g id="edge19" class="edge">
<title>Node18&#45;&gt;Node19</title>
<path fill="none" stroke="#191970" d="M837.0131,-137.6145C831.7752,-136.39 826.5304,-135.1674 821.5,-134 751.7646,-117.8163 734.1788,-114.4257 664.5,-98 656.377,-96.0851 647.6826,-94.002 639.4031,-92.0022"/>
<polygon fill="#191970" stroke="#191970" points="836.4846,-141.0853 847.0192,-139.9576 838.0807,-134.2697 836.4846,-141.0853"/>
</g>
<!-- Node20 -->
<g id="node20" class="node">
<title>Node20</title>
<g id="a_node20"><a xlink:href="caching__functors_8cu.html" target="_top" xlink:title="caching_functors.cu">
<polygon fill="none" stroke="#000000" points="673.5,-73 673.5,-92 777.5,-92 777.5,-73 673.5,-73"/>
<text text-anchor="middle" x="725.5" y="-80" font-family="Helvetica,sans-Serif" font-size="10.00" fill="#000000">caching_functors.cu</text>
</a>
</g>
</g>
<!-- Node18&#45;&gt;Node20 -->
<g id="edge20" class="edge">
<title>Node18&#45;&gt;Node20</title>
<path fill="none" stroke="#191970" d="M854.645,-135.9118C823.1583,-122.8895 776.4368,-103.5664 748.6676,-92.0817"/>
<polygon fill="#191970" stroke="#191970" points="853.7108,-139.3129 864.2893,-139.9005 856.3861,-132.8443 853.7108,-139.3129"/>
</g>
<!-- Node22 -->
<g id="node22" class="node">
<title>Node22</title>
<g id="a_node22"><a xlink:href="phsp__averaging__functor_8cpp.html" target="_top" xlink:title="phsp_averaging_functor.cpp">
<polygon fill="none" stroke="#000000" points="796,-73 796,-92 935,-92 935,-73 796,-73"/>
<text text-anchor="middle" x="865.5" y="-80" font-family="Helvetica,sans-Serif" font-size="10.00" fill="#000000">phsp_averaging_functor.cpp</text>
</a>
</g>
</g>
<!-- Node21&#45;&gt;Node22 -->
<g id="edge22" class="edge">
<title>Node21&#45;&gt;Node22</title>
<path fill="none" stroke="#191970" d="M992.2535,-135.9118C961.3498,-122.8895 915.4935,-103.5664 888.2386,-92.0817"/>
<polygon fill="#191970" stroke="#191970" points="991.1448,-139.2427 1001.7192,-139.9005 993.863,-132.792 991.1448,-139.2427"/>
</g>
<!-- Node23 -->
<g id="node23" class="node">
<title>Node23</title>
<g id="a_node23"><a xlink:href="phsp__averaging__functor_8cu.html" target="_top" xlink:title="phsp_averaging_functor.cu">
<polygon fill="none" stroke="#000000" points="953.5,-73 953.5,-92 1087.5,-92 1087.5,-73 953.5,-73"/>
<text text-anchor="middle" x="1020.5" y="-80" font-family="Helvetica,sans-Serif" font-size="10.00" fill="#000000">phsp_averaging_functor.cu</text>
</a>
</g>
</g>
<!-- Node21&#45;&gt;Node23 -->
<g id="edge23" class="edge">
<title>Node21&#45;&gt;Node23</title>
<path fill="none" stroke="#191970" d="M1023.3124,-129.6079C1022.5725,-117.214 1021.6538,-101.8263 1021.072,-92.0817"/>
<polygon fill="#191970" stroke="#191970" points="1019.8371,-130.1269 1023.9269,-139.9005 1026.8246,-129.7097 1019.8371,-130.1269"/>
</g>
<!-- Node25 -->
<g id="node25" class="node">
<title>Node25</title>
<g id="a_node25"><a xlink:href="phsp__basic_8cpp.html" target="_top" xlink:title="phsp_basic.cpp">
<polygon fill="none" stroke="#000000" points="1106,-73 1106,-92 1191,-92 1191,-73 1106,-73"/>
<text text-anchor="middle" x="1148.5" y="-80" font-family="Helvetica,sans-Serif" font-size="10.00" fill="#000000">phsp_basic.cpp</text>
</a>
</g>
</g>
<!-- Node24&#45;&gt;Node25 -->
<g id="edge25" class="edge">
<title>Node24&#45;&gt;Node25</title>
<path fill="none" stroke="#191970" d="M1148.5,-129.6079C1148.5,-117.214 1148.5,-101.8263 1148.5,-92.0817"/>
<polygon fill="#191970" stroke="#191970" points="1145.0001,-129.9005 1148.5,-139.9005 1152.0001,-129.9006 1145.0001,-129.9005"/>
</g>
<!-- Node26 -->
<g id="node26" class="node">
<title>Node26</title>
<g id="a_node26"><a xlink:href="phsp__basic_8cu.html" target="_top" xlink:title="phsp_basic.cu">
<polygon fill="none" stroke="#000000" points="1209.5,-73 1209.5,-92 1289.5,-92 1289.5,-73 1209.5,-73"/>
<text text-anchor="middle" x="1249.5" y="-80" font-family="Helvetica,sans-Serif" font-size="10.00" fill="#000000">phsp_basic.cu</text>
</a>
</g>
</g>
<!-- Node24&#45;&gt;Node26 -->
<g id="edge26" class="edge">
<title>Node24&#45;&gt;Node26</title>
<path fill="none" stroke="#191970" d="M1171.3201,-134.3619C1190.8661,-121.3957 1218.4177,-103.119 1235.056,-92.0817"/>
<polygon fill="#191970" stroke="#191970" points="1169.3692,-131.4559 1162.9708,-139.9005 1173.2388,-137.2892 1169.3692,-131.4559"/>
</g>
<!-- Node28 -->
<g id="node28" class="node">
<title>Node28</title>
<g id="a_node28"><a xlink:href="phsp__evaluating__functor_8cpp.html" target="_top" xlink:title="phsp_evaluating_functor.cpp">
<polygon fill="none" stroke="#000000" points="1308,-73 1308,-92 1449,-92 1449,-73 1308,-73"/>
<text text-anchor="middle" x="1378.5" y="-80" font-family="Helvetica,sans-Serif" font-size="10.00" fill="#000000">phsp_evaluating_functor.cpp</text>
</a>
</g>
</g>
<!-- Node27&#45;&gt;Node28 -->
<g id="edge29" class="edge">
<title>Node27&#45;&gt;Node28</title>
<path fill="none" stroke="#191970" d="M1297.2239,-134.3619C1317.544,-121.3957 1346.1867,-103.119 1363.484,-92.0817"/>
<polygon fill="#191970" stroke="#191970" points="1295.0912,-131.5708 1288.5439,-139.9005 1298.8567,-137.4719 1295.0912,-131.5708"/>
</g>
<!-- Node29 -->
<g id="node29" class="node">
<title>Node29</title>
<g id="a_node29"><a xlink:href="phsp__evaluating__functor_8cu.html" target="_top" xlink:title="phsp_evaluating_functor.cu">
<polygon fill="none" stroke="#000000" points="1467.5,-73 1467.5,-92 1603.5,-92 1603.5,-73 1467.5,-73"/>
<text text-anchor="middle" x="1535.5" y="-80" font-family="Helvetica,sans-Serif" font-size="10.00" fill="#000000">phsp_evaluating_functor.cu</text>
</a>
</g>
</g>
<!-- Node27&#45;&gt;Node29 -->
<g id="edge30" class="edge">
<title>Node27&#45;&gt;Node29</title>
<path fill="none" stroke="#191970" d="M1320.5093,-137.4785C1371.2891,-124.4929 1451.183,-104.062 1497.9444,-92.1039"/>
<polygon fill="#191970" stroke="#191970" points="1319.581,-134.1032 1310.76,-139.9717 1321.3154,-140.885 1319.581,-134.1032"/>
</g>
<!-- Node31 -->
<g id="node31" class="node">
<title>Node31</title>
<g id="a_node31"><a xlink:href="phsp__reweighting_8cpp.html" target="_top" xlink:title="phsp_reweighting.cpp">
<polygon fill="none" stroke="#000000" points="1621.5,-73 1621.5,-92 1731.5,-92 1731.5,-73 1621.5,-73"/>
<text text-anchor="middle" x="1676.5" y="-80" font-family="Helvetica,sans-Serif" font-size="10.00" fill="#000000">phsp_reweighting.cpp</text>
</a>
</g>
</g>
<!-- Node30&#45;&gt;Node31 -->
<g id="edge32" class="edge">
<title>Node30&#45;&gt;Node31</title>
<path fill="none" stroke="#191970" d="M1458.9108,-137.4453C1463.503,-136.2801 1468.0909,-135.1167 1472.5,-134 1530.3949,-119.3367 1597.5501,-102.3965 1638.5215,-92.069"/>
<polygon fill="#191970" stroke="#191970" points="1457.7502,-134.1289 1448.919,-139.9822 1459.4728,-140.9136 1457.7502,-134.1289"/>
</g>
<!-- Node32 -->
<g id="node32" class="node">
<title>Node32</title>
<g id="a_node32"><a xlink:href="phsp__reweighting_8cu.html" target="_top" xlink:title="phsp_reweighting.cu">
<polygon fill="none" stroke="#000000" points="1750,-73 1750,-92 1855,-92 1855,-73 1750,-73"/>
<text text-anchor="middle" x="1802.5" y="-80" font-family="Helvetica,sans-Serif" font-size="10.00" fill="#000000">phsp_reweighting.cu</text>
</a>
</g>
</g>
<!-- Node30&#45;&gt;Node32 -->
<g id="edge33" class="edge">
<title>Node30&#45;&gt;Node32</title>
<path fill="none" stroke="#191970" d="M1456.0084,-137.5595C1461.5406,-136.262 1467.1361,-135.0381 1472.5,-134 1590.4913,-111.1634 1622.4649,-120.6092 1740.5,-98 1749.2176,-96.3302 1758.5415,-94.1903 1767.2412,-92.0373"/>
<polygon fill="#191970" stroke="#191970" points="1455.0718,-134.1852 1446.1828,-139.9503 1456.7268,-140.9868 1455.0718,-134.1852"/>
</g>
<!-- Node34 -->
<g id="node34" class="node">
<title>Node34</title>
<g id="a_node34"><a xlink:href="phsp__unweighting_8cpp.html" target="_top" xlink:title="phsp_unweighting.cpp">
<polygon fill="none" stroke="#000000" points="1873,-73 1873,-92 1986,-92 1986,-73 1873,-73"/>
<text text-anchor="middle" x="1929.5" y="-80" font-family="Helvetica,sans-Serif" font-size="10.00" fill="#000000">phsp_unweighting.cpp</text>
</a>
</g>
</g>
<!-- Node33&#45;&gt;Node34 -->
<g id="edge35" class="edge">
<title>Node33&#45;&gt;Node34</title>
<path fill="none" stroke="#191970" d="M1581.4813,-137.5862C1587.1925,-136.2842 1592.9673,-135.0519 1598.5,-134 1715.7006,-111.7175 1747.2205,-119.8634 1864.5,-98 1873.5097,-96.3204 1883.1486,-94.2014 1892.1705,-92.0741"/>
<polygon fill="#191970" stroke="#191970" points="1580.264,-134.2773 1571.3358,-139.9815 1581.8725,-141.09 1580.264,-134.2773"/>
</g>
<!-- Node35 -->
<g id="node35" class="node">
<title>Node35</title>
<g id="a_node35"><a xlink:href="phsp__unweighting_8cu.html" target="_top" xlink:title="phsp_unweighting.cu">
<polygon fill="none" stroke="#000000" points="2004,-73 2004,-92 2111,-92 2111,-73 2004,-73"/>
<text text-anchor="middle" x="2057.5" y="-80" font-family="Helvetica,sans-Serif" font-size="10.00" fill="#000000">phsp_unweighting.cu</text>
</a>
</g>
</g>
<!-- Node33&#45;&gt;Node35 -->
<g id="edge36" class="edge">
<title>Node33&#45;&gt;Node35</title>
<path fill="none" stroke="#191970" d="M1580.3515,-137.5901C1586.4221,-136.2353 1592.5931,-134.9887 1598.5,-134 1773.2378,-104.7535 1820.8172,-127.5731 1995.5,-98 2004.5798,-96.4628 2014.2892,-94.2931 2023.2655,-92.0626"/>
<polygon fill="#191970" stroke="#191970" points="1579.2326,-134.2574 1570.2944,-139.9458 1580.8291,-141.0729 1579.2326,-134.2574"/>
</g>
<!-- Node37 -->
<g id="node37" class="node">
<title>Node37</title>
<g id="a_node37"><a xlink:href="phsp__unweighting__functor_8cpp.html" target="_top" xlink:title="phsp_unweighting_functor.cpp">
<polygon fill="none" stroke="#000000" points="2129.5,-73 2129.5,-92 2277.5,-92 2277.5,-73 2129.5,-73"/>
<text text-anchor="middle" x="2203.5" y="-80" font-family="Helvetica,sans-Serif" font-size="10.00" fill="#000000">phsp_unweighting_functor.cpp</text>
</a>
</g>
</g>
<!-- Node36&#45;&gt;Node37 -->
<g id="edge38" class="edge">
<title>Node36&#45;&gt;Node37</title>
<path fill="none" stroke="#191970" d="M1734.6554,-138.0797C1742.9655,-136.5859 1751.4414,-135.1704 1759.5,-134 1919.066,-110.8243 1960.8828,-120.8204 2120.5,-98 2132.109,-96.3403 2144.5679,-94.2042 2156.2117,-92.0516"/>
<polygon fill="#191970" stroke="#191970" points="1733.8384,-134.6713 1724.6404,-139.9294 1735.1098,-141.5549 1733.8384,-134.6713"/>
</g>
<!-- Node38 -->
<g id="node38" class="node">
<title>Node38</title>
<g id="a_node38"><a xlink:href="phsp__unweighting__functor_8cu.html" target="_top" xlink:title="phsp_unweighting_functor.cu">
<polygon fill="none" stroke="#000000" points="2296,-73 2296,-92 2439,-92 2439,-73 2296,-73"/>
<text text-anchor="middle" x="2367.5" y="-80" font-family="Helvetica,sans-Serif" font-size="10.00" fill="#000000">phsp_unweighting_functor.cu</text>
</a>
</g>
</g>
<!-- Node36&#45;&gt;Node38 -->
<g id="edge39" class="edge">
<title>Node36&#45;&gt;Node38</title>
<path fill="none" stroke="#191970" d="M1733.4056,-138.0665C1742.1077,-136.5225 1751.0292,-135.0957 1759.5,-134 1992.3283,-103.8829 2053.6717,-128.1171 2286.5,-98 2298.2855,-96.4755 2310.9433,-94.3102 2322.669,-92.0799"/>
<polygon fill="#191970" stroke="#191970" points="1732.5325,-134.6683 1723.331,-139.9201 1733.7992,-141.5527 1732.5325,-134.6683"/>
</g>
</g>
</svg>
