<?xml version="1.0" encoding="UTF-8" standalone="no"?>
<!DOCTYPE svg PUBLIC "-//W3C//DTD SVG 1.1//EN"
 "http://www.w3.org/Graphics/SVG/1.1/DTD/svg11.dtd">
<!-- Generated by graphviz version 2.42.4 (0)
 -->
<!-- Title: GenzMalikRule.h Pages: 1 -->
<svg width="433pt" height="196pt"
 viewBox="0.00 0.00 432.70 196.00" xmlns="http://www.w3.org/2000/svg" xmlns:xlink="http://www.w3.org/1999/xlink">
<g id="graph0" class="graph" transform="scale(1 1) rotate(0) translate(4 192)">
<title>GenzMalikRule.h</title>
<!-- Node82 -->
<g id="node1" class="node">
<title>Node82</title>
<polygon fill="#bfbfbf" stroke="black" points="245.5,-168.5 245.5,-187.5 337.5,-187.5 337.5,-168.5 245.5,-168.5"/>
<text text-anchor="middle" x="291.5" y="-175.5" font-family="Helvetica,sans-Serif" font-size="10.00">GenzMalikRule.h</text>
</g>
<!-- Node83 -->
<g id="node2" class="node">
<title>Node83</title>
<g id="a_node2"><a xlink:href="GenzMalikQuadrature_8h.html" target="_top" xlink:title="GenzMalikQuadrature.h">
<polygon fill="none" stroke="black" points="232,-112.5 232,-131.5 351,-131.5 351,-112.5 232,-112.5"/>
<text text-anchor="middle" x="291.5" y="-119.5" font-family="Helvetica,sans-Serif" font-size="10.00">GenzMalikQuadrature.h</text>
</a>
</g>
</g>
<!-- Node82&#45;&gt;Node83 -->
<g id="edge1" class="edge">
<title>Node82&#45;&gt;Node83</title>
<path fill="none" stroke="midnightblue" d="M291.5,-157.8C291.5,-148.91 291.5,-138.78 291.5,-131.75"/>
<polygon fill="midnightblue" stroke="midnightblue" points="288,-158.08 291.5,-168.08 295,-158.08 288,-158.08"/>
</g>
<!-- Node84 -->
<g id="node3" class="node">
<title>Node84</title>
<g id="a_node3"><a xlink:href="ProcessGenzMalikQuadrature_8h.html" target="_top" xlink:title="ProcessGenzMalikQuadrature.h">
<polygon fill="none" stroke="black" points="143,-56.5 143,-75.5 298,-75.5 298,-56.5 143,-56.5"/>
<text text-anchor="middle" x="220.5" y="-63.5" font-family="Helvetica,sans-Serif" font-size="10.00">ProcessGenzMalikQuadrature.h</text>
</a>
</g>
</g>
<!-- Node83&#45;&gt;Node84 -->
<g id="edge2" class="edge">
<title>Node83&#45;&gt;Node84</title>
<path fill="none" stroke="midnightblue" d="M271.91,-106.1C259.13,-96.38 242.89,-84.03 232.11,-75.83"/>
<polygon fill="midnightblue" stroke="midnightblue" points="270.01,-109.06 280.09,-112.32 274.25,-103.48 270.01,-109.06"/>
</g>
<!-- Node86 -->
<g id="node5" class="node">
<title>Node86</title>
<g id="a_node5"><a xlink:href="genz__malik_8inl.html" target="_top" xlink:title="genz_malik.inl">
<polygon fill="none" stroke="black" points="46,-56.5 46,-75.5 125,-75.5 125,-56.5 46,-56.5"/>
<text text-anchor="middle" x="85.5" y="-63.5" font-family="Helvetica,sans-Serif" font-size="10.00">genz_malik.inl</text>
</a>
</g>
</g>
<!-- Node83&#45;&gt;Node86 -->
<g id="edge5" class="edge">
<title>Node83&#45;&gt;Node86</title>
<path fill="none" stroke="midnightblue" d="M248.88,-109.83C209.99,-99.63 153.34,-84.78 117.99,-75.52"/>
<polygon fill="midnightblue" stroke="midnightblue" points="248.3,-113.29 258.86,-112.44 250.07,-106.52 248.3,-113.29"/>
</g>
<!-- Node89 -->
<g id="node8" class="node">
<title>Node89</title>
<g id="a_node8"><a xlink:href="fit__3d__gaussian_8C.html" target="_top" xlink:title="fit_3d_gaussian.C">
<polygon fill="none" stroke="black" points="316,-56.5 316,-75.5 411,-75.5 411,-56.5 316,-56.5"/>
<text text-anchor="middle" x="363.5" y="-63.5" font-family="Helvetica,sans-Serif" font-size="10.00">fit_3d_gaussian.C</text>
</a>
</g>
</g>
<!-- Node83&#45;&gt;Node89 -->
<g id="edge8" class="edge">
<title>Node83&#45;&gt;Node89</title>
<path fill="none" stroke="midnightblue" d="M311.37,-106.1C324.32,-96.38 340.8,-84.03 351.72,-75.83"/>
<polygon fill="midnightblue" stroke="midnightblue" points="308.97,-103.52 303.07,-112.32 313.17,-109.12 308.97,-103.52"/>
</g>
<!-- Node85 -->
<g id="node4" class="node">
<title>Node85</title>
<g id="a_node4"><a xlink:href="GenzMalikQuadrature_8inl.html" target="_top" xlink:title="GenzMalikQuadrature.inl">
<polygon fill="none" stroke="black" points="289.5,-0.5 289.5,-19.5 413.5,-19.5 413.5,-0.5 289.5,-0.5"/>
<text text-anchor="middle" x="351.5" y="-7.5" font-family="Helvetica,sans-Serif" font-size="10.00">GenzMalikQuadrature.inl</text>
</a>
</g>
</g>
<!-- Node84&#45;&gt;Node85 -->
<g id="edge3" class="edge">
<title>Node84&#45;&gt;Node85</title>
<path fill="none" stroke="midnightblue" d="M250.82,-52.5C275.38,-42.38 309.32,-28.39 330.84,-19.52"/>
<polygon fill="midnightblue" stroke="midnightblue" points="249.17,-49.4 241.26,-56.44 251.84,-55.87 249.17,-49.4"/>
</g>
<!-- Node85&#45;&gt;Node83 -->
<g id="edge4" class="edge">
<title>Node85&#45;&gt;Node83</title>
<path fill="none" stroke="midnightblue" d="M382.48,-23.82C407.12,-35.94 435.2,-55.3 420.5,-76 404.64,-98.34 376.83,-109.68 351.08,-115.4"/>
<polygon fill="midnightblue" stroke="midnightblue" points="383.85,-20.6 373.31,-19.55 380.89,-26.94 383.85,-20.6"/>
</g>
<!-- Node87 -->
<g id="node6" class="node">
<title>Node87</title>
<g id="a_node6"><a xlink:href="genz__malik_8cpp.html" target="_top" xlink:title="genz_malik.cpp">
<polygon fill="none" stroke="black" points="0,-0.5 0,-19.5 85,-19.5 85,-0.5 0,-0.5"/>
<text text-anchor="middle" x="42.5" y="-7.5" font-family="Helvetica,sans-Serif" font-size="10.00">genz_malik.cpp</text>
</a>
</g>
</g>
<!-- Node86&#45;&gt;Node87 -->
<g id="edge6" class="edge">
<title>Node86&#45;&gt;Node87</title>
<path fill="none" stroke="midnightblue" d="M72.08,-48.14C64.59,-38.74 55.56,-27.4 49.47,-19.75"/>
<polygon fill="midnightblue" stroke="midnightblue" points="69.43,-50.44 78.4,-56.08 74.91,-46.08 69.43,-50.44"/>
</g>
<!-- Node88 -->
<g id="node7" class="node">
<title>Node88</title>
<g id="a_node7"><a xlink:href="genz__malik_8cu.html" target="_top" xlink:title="genz_malik.cu">
<polygon fill="none" stroke="black" points="103.5,-0.5 103.5,-19.5 183.5,-19.5 183.5,-0.5 103.5,-0.5"/>
<text text-anchor="middle" x="143.5" y="-7.5" font-family="Helvetica,sans-Serif" font-size="10.00">genz_malik.cu</text>
</a>
</g>
</g>
<!-- Node86&#45;&gt;Node88 -->
<g id="edge7" class="edge">
<title>Node86&#45;&gt;Node88</title>
<path fill="none" stroke="midnightblue" d="M102.41,-49.25C112.7,-39.67 125.47,-27.79 134.01,-19.83"/>
<polygon fill="midnightblue" stroke="midnightblue" points="99.75,-46.95 94.82,-56.32 104.52,-52.07 99.75,-46.95"/>
</g>
</g>
</svg>
