<?xml version="1.0" encoding="UTF-8" standalone="no"?>
<!DOCTYPE svg PUBLIC "-//W3C//DTD SVG 1.1//EN"
 "http://www.w3.org/Graphics/SVG/1.1/DTD/svg11.dtd">
<!-- Generated by graphviz version 2.42.4 (0)
 -->
<!-- Title: examples Pages: 1 -->
<!--zoomable 159 -->
<svg id="main" version="1.1" xmlns="http://www.w3.org/2000/svg" xmlns:xlink="http://www.w3.org/1999/xlink" xml:space="preserve" onload="init(evt)">
<style type="text/css"><![CDATA[
.edge:hover path { stroke: red; }
.edge:hover polygon { stroke: red; fill: red; }
]]></style>
<script type="text/javascript"><![CDATA[
var edges = document.getElementsByTagName('g');
if (edges && edges.length) {
  for (var i=0;i<edges.length;i++) {
    if (edges[i].id.substr(0,4)=='edge') {
      edges[i].setAttribute('class','edge');
    }
  }
}
]]></script>
        <defs>
                <circle id="rim" cx="0" cy="0" r="7"/>
                <circle id="rim2" cx="0" cy="0" r="3.5"/>
                <g id="zoomPlus">
                        <use xlink:href="#rim" fill="#404040">
                                <set attributeName="fill" to="#808080" begin="zoomplus.mouseover" end="zoomplus.mouseout"/>
                        </use>
                        <path d="M-4,0h8M0,-4v8" fill="none" stroke="white" stroke-width="1.5" pointer-events="none"/>
                </g>
                <g id="zoomMin">
                        <use xlink:href="#rim" fill="#404040">
                                <set attributeName="fill" to="#808080" begin="zoomminus.mouseover" end="zoomminus.mouseout"/>
                        </use>
                        <path d="M-4,0h8" fill="none" stroke="white" stroke-width="1.5" pointer-events="none"/>
                </g>
                <g id="dirArrow">
                        <path fill="none" stroke="white" stroke-width="1.5" d="M0,-3.0v7 M-2.5,-0.5L0,-3.0L2.5,-0.5"/>
                </g>
               <g id="resetDef">
                       <use xlink:href="#rim2" fill="#404040">
                               <set attributeName="fill" to="#808080" begin="reset.mouseover" end="reset.mouseout"/>
                       </use>
               </g>
        </defs>

<script type="text/javascript">
var viewWidth = 960;
var viewHeight = 159;
var sectionId = 'dynsection-0';
</script>
<script xlink:href="svgpan.js"/>
<svg id="graph" class="graph">
<g id="viewport">
<title>examples</title>
<g id="clust1" class="cluster">
<title>clusterdir_92a1ff494355b06c14c0e1fe7b982d29</title>
<g id="a_clust1"><a xlink:href="dir_92a1ff494355b06c14c0e1fe7b982d29.html" target="_top" xlink:title="Hydra">
<polygon fill="#ddddee" stroke="black" points="8,-56 8,-143 944,-143 944,-56 8,-56"/>
<text text-anchor="middle" x="476" y="-131" font-family="Helvetica,sans-Serif" font-size="10.00">Hydra</text>
</a>
</g>
</g>
<g id="clust2" class="cluster">
<title>clusterdir_b3c69fde212a60de3f50954f66fa65c1</title>
<g id="a_clust2"><a xlink:href="dir_b3c69fde212a60de3f50954f66fa65c1.html" target="_top">
<polygon fill="#eeeeff" stroke="black" points="16,-64 16,-116 936,-116 936,-64 16,-64"/>
</a>
</g>
</g>
<!-- dir_b3c69fde212a60de3f50954f66fa65c1 -->
<g id="node1" class="node">
<title>dir_b3c69fde212a60de3f50954f66fa65c1</title>
<text text-anchor="middle" x="898" y="-87.5" font-family="Helvetica,sans-Serif" font-size="10.00">examples</text>
</g>
<!-- dir_fd6df23b97f838309a1d6f1c3666a7ff -->
<g id="node2" class="node">
<title>dir_fd6df23b97f838309a1d6f1c3666a7ff</title>
<g id="a_node2"><a xlink:href="dir_fd6df23b97f838309a1d6f1c3666a7ff.html" target="_top" xlink:title="async">
<polygon fill="white" stroke="black" points="850,-108 796,-108 796,-72 850,-72 850,-108"/>
<text text-anchor="middle" x="823" y="-87.5" font-family="Helvetica,sans-Serif" font-size="10.00">async</text>
</a>
</g>
</g>
<!-- dir_108162cc96056bf8ace3602d16680a1c -->
<g id="node12" class="node">
<title>dir_108162cc96056bf8ace3602d16680a1c</title>
<g id="a_node12"><a xlink:href="dir_108162cc96056bf8ace3602d16680a1c.html" target="_top" xlink:title="hydra">
<polygon fill="none" stroke="red" points="482,-36 428,-36 428,0 482,0 482,-36"/>
<text text-anchor="middle" x="455" y="-15.5" font-family="Helvetica,sans-Serif" font-size="10.00">hydra</text>
</a>
</g>
</g>
<!-- dir_fd6df23b97f838309a1d6f1c3666a7ff&#45;&gt;dir_108162cc96056bf8ace3602d16680a1c -->
<g id="edge2" class="edge">
<title>dir_fd6df23b97f838309a1d6f1c3666a7ff&#45;&gt;dir_108162cc96056bf8ace3602d16680a1c</title>
<path fill="none" stroke="black" d="M808.49,-71.77C802.47,-65.78 795.03,-59.65 787,-56 735.23,-32.48 567.95,-23.28 492.51,-20.27"/>
<polygon fill="black" stroke="black" points="492.2,-16.75 482.07,-19.86 491.93,-23.75 492.2,-16.75"/>
<g id="a_edge2&#45;headlabel"><a xlink:href="dir_000009_000003.html" target="_top" xlink:title="17">
<text text-anchor="middle" x="495.9" y="-11.55" font-family="Helvetica,sans-Serif" font-size="10.00">17</text>
</a>
</g>
</g>
<!-- dir_5087652bedc1d1ee0607af08eeacd10e -->
<g id="node3" class="node">
<title>dir_5087652bedc1d1ee0607af08eeacd10e</title>
<g id="a_node3"><a xlink:href="dir_5087652bedc1d1ee0607af08eeacd10e.html" target="_top" xlink:title="convolution">
<polygon fill="white" stroke="black" points="778,-108 712,-108 712,-72 778,-72 778,-108"/>
<text text-anchor="middle" x="745" y="-87.5" font-family="Helvetica,sans-Serif" font-size="10.00">convolution</text>
</a>
</g>
</g>
<!-- dir_5087652bedc1d1ee0607af08eeacd10e&#45;&gt;dir_108162cc96056bf8ace3602d16680a1c -->
<g id="edge5" class="edge">
<title>dir_5087652bedc1d1ee0607af08eeacd10e&#45;&gt;dir_108162cc96056bf8ace3602d16680a1c</title>
<path fill="none" stroke="black" d="M727.53,-71.95C720.45,-65.98 711.86,-59.82 703,-56 632.84,-25.75 542.31,-19.59 492.32,-18.7"/>
<polygon fill="black" stroke="black" points="492.33,-15.2 482.29,-18.59 492.25,-22.2 492.33,-15.2"/>
<g id="a_edge5&#45;headlabel"><a xlink:href="dir_000016_000003.html" target="_top" xlink:title="40">
<text text-anchor="middle" x="495.96" y="-9.9" font-family="Helvetica,sans-Serif" font-size="10.00">40</text>
</a>
</g>
</g>
<!-- dir_fa9bd4b554716f8530d93b48c470adbb -->
<g id="node4" class="node">
<title>dir_fa9bd4b554716f8530d93b48c470adbb</title>
<g id="a_node4"><a xlink:href="dir_fa9bd4b554716f8530d93b48c470adbb.html" target="_top" xlink:title="fit">
<polygon fill="white" stroke="black" points="694,-108 640,-108 640,-72 694,-72 694,-108"/>
<text text-anchor="middle" x="667" y="-87.5" font-family="Helvetica,sans-Serif" font-size="10.00">fit</text>
</a>
</g>
</g>
<!-- dir_fa9bd4b554716f8530d93b48c470adbb&#45;&gt;dir_108162cc96056bf8ace3602d16680a1c -->
<g id="edge10" class="edge">
<title>dir_fa9bd4b554716f8530d93b48c470adbb&#45;&gt;dir_108162cc96056bf8ace3602d16680a1c</title>
<path fill="none" stroke="black" d="M651.94,-71.83C645.97,-65.99 638.69,-59.95 631,-56 586.76,-33.27 529.44,-24.5 492.44,-21.12"/>
<polygon fill="black" stroke="black" points="492.37,-17.6 482.11,-20.27 491.79,-24.58 492.37,-17.6"/>
<g id="a_edge10&#45;headlabel"><a xlink:href="dir_000013_000003.html" target="_top" xlink:title="138">
<text text-anchor="middle" x="496.18" y="-12.57" font-family="Helvetica,sans-Serif" font-size="10.00">138</text>
</a>
</g>
</g>
<!-- dir_98b837983eb5d994ed713df8236c923b -->
<g id="node5" class="node">
<title>dir_98b837983eb5d994ed713df8236c923b</title>
<g id="a_node5"><a xlink:href="dir_98b837983eb5d994ed713df8236c923b.html" target="_top" xlink:title="histograming">
<polygon fill="white" stroke="black" points="622,-108 550,-108 550,-72 622,-72 622,-108"/>
<text text-anchor="middle" x="586" y="-87.5" font-family="Helvetica,sans-Serif" font-size="10.00">histograming</text>
</a>
</g>
</g>
<!-- dir_98b837983eb5d994ed713df8236c923b&#45;&gt;dir_108162cc96056bf8ace3602d16680a1c -->
<g id="edge6" class="edge">
<title>dir_98b837983eb5d994ed713df8236c923b&#45;&gt;dir_108162cc96056bf8ace3602d16680a1c</title>
<path fill="none" stroke="black" d="M564.7,-71.85C557.42,-66.41 549.07,-60.62 541,-56 525.34,-47.05 507.1,-38.9 491.46,-32.55"/>
<polygon fill="black" stroke="black" points="492.68,-29.27 482.1,-28.83 490.1,-35.78 492.68,-29.27"/>
<g id="a_edge6&#45;headlabel"><a xlink:href="dir_000019_000003.html" target="_top" xlink:title="24">
<text text-anchor="middle" x="497.07" y="-25.46" font-family="Helvetica,sans-Serif" font-size="10.00">24</text>
</a>
</g>
</g>
<!-- dir_b49168b1a301eed054934e1428a6cbc6 -->
<g id="node6" class="node">
<title>dir_b49168b1a301eed054934e1428a6cbc6</title>
<g id="a_node6"><a xlink:href="dir_b49168b1a301eed054934e1428a6cbc6.html" target="_top" xlink:title="misc">
<polygon fill="white" stroke="black" points="532,-108 478,-108 478,-72 532,-72 532,-108"/>
<text text-anchor="middle" x="505" y="-87.5" font-family="Helvetica,sans-Serif" font-size="10.00">misc</text>
</a>
</g>
</g>
<!-- dir_b49168b1a301eed054934e1428a6cbc6&#45;&gt;dir_108162cc96056bf8ace3602d16680a1c -->
<g id="edge3" class="edge">
<title>dir_b49168b1a301eed054934e1428a6cbc6&#45;&gt;dir_108162cc96056bf8ace3602d16680a1c</title>
<path fill="none" stroke="black" d="M492.64,-71.7C486.77,-63.47 479.63,-53.48 473.16,-44.42"/>
<polygon fill="black" stroke="black" points="475.88,-42.21 467.22,-36.1 470.18,-46.28 475.88,-42.21"/>
<g id="a_edge3&#45;headlabel"><a xlink:href="dir_000021_000003.html" target="_top" xlink:title="62">
<text text-anchor="middle" x="480.28" y="-40.98" font-family="Helvetica,sans-Serif" font-size="10.00">62</text>
</a>
</g>
</g>
<!-- dir_d86e95508364532ce1b0a817d7c3e2e5 -->
<g id="node7" class="node">
<title>dir_d86e95508364532ce1b0a817d7c3e2e5</title>
<g id="a_node7"><a xlink:href="dir_d86e95508364532ce1b0a817d7c3e2e5.html" target="_top" xlink:title="numerical_integration">
<polygon fill="white" stroke="black" points="459.5,-108 350.5,-108 350.5,-72 459.5,-72 459.5,-108"/>
<text text-anchor="middle" x="405" y="-87.5" font-family="Helvetica,sans-Serif" font-size="10.00">numerical_integration</text>
</a>
</g>
</g>
<!-- dir_d86e95508364532ce1b0a817d7c3e2e5&#45;&gt;dir_108162cc96056bf8ace3602d16680a1c -->
<g id="edge7" class="edge">
<title>dir_d86e95508364532ce1b0a817d7c3e2e5&#45;&gt;dir_108162cc96056bf8ace3602d16680a1c</title>
<path fill="none" stroke="black" d="M417.36,-71.7C423.23,-63.47 430.37,-53.48 436.84,-44.42"/>
<polygon fill="black" stroke="black" points="439.82,-46.28 442.78,-36.1 434.12,-42.21 439.82,-46.28"/>
<g id="a_edge7&#45;headlabel"><a xlink:href="dir_000002_000003.html" target="_top" xlink:title="34">
<text text-anchor="middle" x="440.04" y="-48.35" font-family="Helvetica,sans-Serif" font-size="10.00">34</text>
</a>
</g>
</g>
<!-- dir_4b3c3c870991bb8ad671d5780b5e0415 -->
<g id="node8" class="node">
<title>dir_4b3c3c870991bb8ad671d5780b5e0415</title>
<g id="a_node8"><a xlink:href="dir_4b3c3c870991bb8ad671d5780b5e0415.html" target="_top" xlink:title="phase_space">
<polygon fill="white" stroke="black" points="332,-108 258,-108 258,-72 332,-72 332,-108"/>
<text text-anchor="middle" x="295" y="-87.5" font-family="Helvetica,sans-Serif" font-size="10.00">phase_space</text>
</a>
</g>
</g>
<!-- dir_4b3c3c870991bb8ad671d5780b5e0415&#45;&gt;dir_108162cc96056bf8ace3602d16680a1c -->
<g id="edge1" class="edge">
<title>dir_4b3c3c870991bb8ad671d5780b5e0415&#45;&gt;dir_108162cc96056bf8ace3602d16680a1c</title>
<path fill="none" stroke="black" d="M316.63,-71.81C324.33,-66.24 333.26,-60.38 342,-56 366.17,-43.9 395.18,-34.49 417.75,-28.2"/>
<polygon fill="black" stroke="black" points="418.89,-31.51 427.63,-25.52 417.06,-24.76 418.89,-31.51"/>
<g id="a_edge1&#45;headlabel"><a xlink:href="dir_000022_000003.html" target="_top" xlink:title="103">
<text text-anchor="middle" x="416.16" y="-32.69" font-family="Helvetica,sans-Serif" font-size="10.00">103</text>
</a>
</g>
</g>
<!-- dir_6e157aa34d06ae01b63aa7ec9c965b66 -->
<g id="node9" class="node">
<title>dir_6e157aa34d06ae01b63aa7ec9c965b66</title>
<g id="a_node9"><a xlink:href="dir_6e157aa34d06ae01b63aa7ec9c965b66.html" target="_top" xlink:title="phys">
<polygon fill="white" stroke="black" points="240,-108 186,-108 186,-72 240,-72 240,-108"/>
<text text-anchor="middle" x="213" y="-87.5" font-family="Helvetica,sans-Serif" font-size="10.00">phys</text>
</a>
</g>
</g>
<!-- dir_6e157aa34d06ae01b63aa7ec9c965b66&#45;&gt;dir_108162cc96056bf8ace3602d16680a1c -->
<g id="edge9" class="edge">
<title>dir_6e157aa34d06ae01b63aa7ec9c965b66&#45;&gt;dir_108162cc96056bf8ace3602d16680a1c</title>
<path fill="none" stroke="black" d="M228,-71.71C233.96,-65.86 241.25,-59.84 249,-56 303.48,-29.02 374.75,-21.5 417.58,-19.53"/>
<polygon fill="black" stroke="black" points="417.97,-23.02 427.83,-19.14 417.71,-16.02 417.97,-23.02"/>
<g id="a_edge9&#45;headlabel"><a xlink:href="dir_000014_000003.html" target="_top" xlink:title="145">
<text text-anchor="middle" x="414.49" y="-23.49" font-family="Helvetica,sans-Serif" font-size="10.00">145</text>
</a>
</g>
</g>
<!-- dir_721064dfe6df3bf4fc33c0eaf66f08b4 -->
<g id="node10" class="node">
<title>dir_721064dfe6df3bf4fc33c0eaf66f08b4</title>
<g id="a_node10"><a xlink:href="dir_721064dfe6df3bf4fc33c0eaf66f08b4.html" target="_top" xlink:title="random">
<polygon fill="white" stroke="black" points="168,-108 114,-108 114,-72 168,-72 168,-108"/>
<text text-anchor="middle" x="141" y="-87.5" font-family="Helvetica,sans-Serif" font-size="10.00">random</text>
</a>
</g>
</g>
<!-- dir_721064dfe6df3bf4fc33c0eaf66f08b4&#45;&gt;dir_108162cc96056bf8ace3602d16680a1c -->
<g id="edge4" class="edge">
<title>dir_721064dfe6df3bf4fc33c0eaf66f08b4&#45;&gt;dir_108162cc96056bf8ace3602d16680a1c</title>
<path fill="none" stroke="black" d="M155.55,-71.86C161.57,-65.88 169.01,-59.73 177,-56 218.89,-36.43 351.64,-25.53 417.37,-21.21"/>
<polygon fill="black" stroke="black" points="417.95,-24.68 427.7,-20.55 417.5,-17.7 417.95,-24.68"/>
<g id="a_edge4&#45;headlabel"><a xlink:href="dir_000012_000003.html" target="_top" xlink:title="55">
<text text-anchor="middle" x="414.54" y="-25.24" font-family="Helvetica,sans-Serif" font-size="10.00">55</text>
</a>
</g>
</g>
<!-- dir_8382fbd7b2d8f6265e55b9108cec1023 -->
<g id="node11" class="node">
<title>dir_8382fbd7b2d8f6265e55b9108cec1023</title>
<g id="a_node11"><a xlink:href="dir_8382fbd7b2d8f6265e55b9108cec1023.html" target="_top" xlink:title="root_macros">
<polygon fill="white" stroke="black" points="95.5,-108 24.5,-108 24.5,-72 95.5,-72 95.5,-108"/>
<text text-anchor="middle" x="60" y="-87.5" font-family="Helvetica,sans-Serif" font-size="10.00">root_macros</text>
</a>
</g>
</g>
<!-- dir_8382fbd7b2d8f6265e55b9108cec1023&#45;&gt;dir_108162cc96056bf8ace3602d16680a1c -->
<g id="edge8" class="edge">
<title>dir_8382fbd7b2d8f6265e55b9108cec1023&#45;&gt;dir_108162cc96056bf8ace3602d16680a1c</title>
<path fill="none" stroke="black" d="M78.82,-71.76C86.41,-65.76 95.6,-59.63 105,-56 161.33,-34.21 339.4,-24.01 417.58,-20.49"/>
<polygon fill="black" stroke="black" points="418.09,-23.97 427.92,-20.04 417.78,-16.98 418.09,-23.97"/>
<g id="a_edge8&#45;headlabel"><a xlink:href="dir_000006_000003.html" target="_top" xlink:title="169">
<text text-anchor="middle" x="414.62" y="-24.47" font-family="Helvetica,sans-Serif" font-size="10.00">169</text>
</a>
</g>
</g>
</g>
</svg>
        <g id="navigator" transform="translate(0 0)" fill="#404254">
                <rect fill="#f2f5e9" fill-opacity="0.5" stroke="#606060" stroke-width=".5" x="0" y="0" width="60" height="60"/>
                <use id="zoomplus" xlink:href="#zoomPlus" x="17" y="9" onmousedown="handleZoom(evt,'in')"/>
                <use id="zoomminus" xlink:href="#zoomMin" x="42" y="9" onmousedown="handleZoom(evt,'out')"/>
                <use id="reset" xlink:href="#resetDef" x="30" y="36" onmousedown="handleReset()"/>
                <g id="arrowUp" xlink:href="#dirArrow" transform="translate(30 24)" onmousedown="handlePan(0,-1)">
                  <use xlink:href="#rim" fill="#404040">
                        <set attributeName="fill" to="#808080" begin="arrowUp.mouseover" end="arrowUp.mouseout"/>
                  </use>
                  <path fill="none" stroke="white" stroke-width="1.5" d="M0,-3.0v7 M-2.5,-0.5L0,-3.0L2.5,-0.5"/>
                </g>
                <g id="arrowRight" xlink:href="#dirArrow" transform="rotate(90) translate(36 -43)" onmousedown="handlePan(1,0)">
                  <use xlink:href="#rim" fill="#404040">
                        <set attributeName="fill" to="#808080" begin="arrowRight.mouseover" end="arrowRight.mouseout"/>
                  </use>
                  <path fill="none" stroke="white" stroke-width="1.5" d="M0,-3.0v7 M-2.5,-0.5L0,-3.0L2.5,-0.5"/>
                </g>
                <g id="arrowDown" xlink:href="#dirArrow" transform="rotate(180) translate(-30 -48)" onmousedown="handlePan(0,1)">
                  <use xlink:href="#rim" fill="#404040">
                        <set attributeName="fill" to="#808080" begin="arrowDown.mouseover" end="arrowDown.mouseout"/>
                  </use>
                  <path fill="none" stroke="white" stroke-width="1.5" d="M0,-3.0v7 M-2.5,-0.5L0,-3.0L2.5,-0.5"/>
                </g>
                <g id="arrowLeft" xlink:href="#dirArrow" transform="rotate(270) translate(-36 17)" onmousedown="handlePan(-1,0)">
                  <use xlink:href="#rim" fill="#404040">
                        <set attributeName="fill" to="#808080" begin="arrowLeft.mouseover" end="arrowLeft.mouseout"/>
                  </use>
                  <path fill="none" stroke="white" stroke-width="1.5" d="M0,-3.0v7 M-2.5,-0.5L0,-3.0L2.5,-0.5"/>
                </g>
        </g>
        <svg viewBox="0 0 15 15" width="100%" height="30px" preserveAspectRatio="xMaxYMin meet">
         <g id="arrow_out" transform="scale(0.3 0.3)">
          <a xlink:href="dir_b3c69fde212a60de3f50954f66fa65c1_dep_org.svg" target="_base">
           <rect id="button" ry="5" rx="5" y="6" x="6" height="38" width="38"
                fill="#f2f5e9" fill-opacity="0.5" stroke="#606060" stroke-width="1.0"/>
           <path id="arrow"
             d="M 11.500037,31.436501 C 11.940474,20.09759 22.043105,11.32322 32.158766,21.979434 L 37.068811,17.246167 C 37.068811,17.246167 37.088388,32 37.088388,32 L 22.160133,31.978069 C 22.160133,31.978069 26.997745,27.140456 26.997745,27.140456 C 18.528582,18.264221 13.291696,25.230495 11.500037,31.436501 z"
             style="fill:#404040;"/>
          </a>
         </g>
        </svg>
</svg>
