<?xml version="1.0" encoding="UTF-8" standalone="no"?>
<!DOCTYPE svg PUBLIC "-//W3C//DTD SVG 1.1//EN"
 "http://www.w3.org/Graphics/SVG/1.1/DTD/svg11.dtd">
<!-- Generated by graphviz version 2.42.4 (0)
 -->
<!-- Title: functions Pages: 1 -->
<svg width="166pt" height="231pt"
 viewBox="0.00 0.00 166.00 231.00" xmlns="http://www.w3.org/2000/svg" xmlns:xlink="http://www.w3.org/1999/xlink">
<g id="graph0" class="graph" transform="scale(1 1) rotate(0) translate(4 227)">
<title>functions</title>
<g id="clust1" class="cluster">
<title>clusterdir_108162cc96056bf8ace3602d16680a1c</title>
<g id="a_clust1"><a xlink:href="dir_108162cc96056bf8ace3602d16680a1c.html" target="_top" xlink:title="hydra">
<polygon fill="#ddddee" stroke="black" points="8,-56 8,-215 96,-215 96,-56 8,-56"/>
<text text-anchor="middle" x="52" y="-203" font-family="Helvetica,sans-Serif" font-size="10.00">hydra</text>
</a>
</g>
</g>
<g id="clust2" class="cluster">
<title>clusterdir_e43a426260a0a50393d21bf054cb693c</title>
<g id="a_clust2"><a xlink:href="dir_e43a426260a0a50393d21bf054cb693c.html" target="_top">
<polygon fill="#eeeeff" stroke="black" points="16,-64 16,-188 88,-188 88,-64 16,-64"/>
</a>
</g>
</g>
<!-- dir_e43a426260a0a50393d21bf054cb693c -->
<g id="node1" class="node">
<title>dir_e43a426260a0a50393d21bf054cb693c</title>
<text text-anchor="middle" x="52" y="-159.5" font-family="Helvetica,sans-Serif" font-size="10.00">functions</text>
</g>
<!-- dir_2d4a3611500b92b4d08556c00bc44583 -->
<g id="node2" class="node">
<title>dir_2d4a3611500b92b4d08556c00bc44583</title>
<g id="a_node2"><a xlink:href="dir_2d4a3611500b92b4d08556c00bc44583.html" target="_top" xlink:title="detail">
<polygon fill="white" stroke="black" points="79,-108 25,-108 25,-72 79,-72 79,-108"/>
<text text-anchor="middle" x="52" y="-87.5" font-family="Helvetica,sans-Serif" font-size="10.00">detail</text>
</a>
</g>
</g>
<!-- dir_e43a426260a0a50393d21bf054cb693c&#45;&gt;dir_2d4a3611500b92b4d08556c00bc44583 -->
<g id="edge2" class="edge">
<title>dir_e43a426260a0a50393d21bf054cb693c&#45;&gt;dir_2d4a3611500b92b4d08556c00bc44583</title>
<path fill="none" stroke="black" d="M52,-143.7C52,-135.98 52,-126.71 52,-118.11"/>
<polygon fill="black" stroke="black" points="55.5,-118.1 52,-108.1 48.5,-118.1 55.5,-118.1"/>
<g id="a_edge2&#45;headlabel"><a xlink:href="dir_000007_000015.html" target="_top" xlink:title="11">
<text text-anchor="middle" x="58.34" y="-119.2" font-family="Helvetica,sans-Serif" font-size="10.00">11</text>
</a>
</g>
</g>
<!-- dir_ce564ed94197e630bcb9baaecd683d36 -->
<g id="node3" class="node">
<title>dir_ce564ed94197e630bcb9baaecd683d36</title>
<g id="a_node3"><a xlink:href="dir_ce564ed94197e630bcb9baaecd683d36.html" target="_top" xlink:title="cpp">
<polygon fill="none" stroke="black" points="158,-108 104,-108 104,-72 158,-72 158,-108"/>
<text text-anchor="middle" x="131" y="-87.5" font-family="Helvetica,sans-Serif" font-size="10.00">cpp</text>
</a>
</g>
</g>
<!-- dir_e43a426260a0a50393d21bf054cb693c&#45;&gt;dir_ce564ed94197e630bcb9baaecd683d36 -->
<g id="edge1" class="edge">
<title>dir_e43a426260a0a50393d21bf054cb693c&#45;&gt;dir_ce564ed94197e630bcb9baaecd683d36</title>
<path fill="none" stroke="black" d="M71.53,-143.7C81.38,-134.97 93.49,-124.24 104.2,-114.75"/>
<polygon fill="black" stroke="black" points="106.53,-117.36 111.7,-108.1 101.89,-112.12 106.53,-117.36"/>
<g id="a_edge1&#45;headlabel"><a xlink:href="dir_000007_000024.html" target="_top" xlink:title="3">
<text text-anchor="middle" x="105.73" y="-119.36" font-family="Helvetica,sans-Serif" font-size="10.00">3</text>
</a>
</g>
</g>
<!-- dir_3834ae61da54c887219d23c23fa56bea -->
<g id="node4" class="node">
<title>dir_3834ae61da54c887219d23c23fa56bea</title>
<g id="a_node4"><a xlink:href="dir_3834ae61da54c887219d23c23fa56bea.html" target="_top" xlink:title="detail">
<polygon fill="none" stroke="red" points="118,-36 64,-36 64,0 118,0 118,-36"/>
<text text-anchor="middle" x="91" y="-15.5" font-family="Helvetica,sans-Serif" font-size="10.00">detail</text>
</a>
</g>
</g>
<!-- dir_2d4a3611500b92b4d08556c00bc44583&#45;&gt;dir_3834ae61da54c887219d23c23fa56bea -->
<g id="edge4" class="edge">
<title>dir_2d4a3611500b92b4d08556c00bc44583&#45;&gt;dir_3834ae61da54c887219d23c23fa56bea</title>
<path fill="none" stroke="black" d="M61.64,-71.7C66.13,-63.64 71.56,-53.89 76.52,-44.98"/>
<polygon fill="black" stroke="black" points="79.66,-46.54 81.47,-36.1 73.55,-43.14 79.66,-46.54"/>
<g id="a_edge4&#45;headlabel"><a xlink:href="dir_000015_000004.html" target="_top" xlink:title="17">
<text text-anchor="middle" x="80.39" y="-48.57" font-family="Helvetica,sans-Serif" font-size="10.00">17</text>
</a>
</g>
</g>
<!-- dir_ce564ed94197e630bcb9baaecd683d36&#45;&gt;dir_3834ae61da54c887219d23c23fa56bea -->
<g id="edge3" class="edge">
<title>dir_ce564ed94197e630bcb9baaecd683d36&#45;&gt;dir_3834ae61da54c887219d23c23fa56bea</title>
<path fill="none" stroke="black" d="M121.11,-71.7C116.51,-63.64 110.94,-53.89 105.85,-44.98"/>
<polygon fill="black" stroke="black" points="108.77,-43.05 100.77,-36.1 102.7,-46.52 108.77,-43.05"/>
<g id="a_edge3&#45;headlabel"><a xlink:href="dir_000024_000004.html" target="_top" xlink:title="1">
<text text-anchor="middle" x="113.02" y="-42.26" font-family="Helvetica,sans-Serif" font-size="10.00">1</text>
</a>
</g>
</g>
</g>
</svg>
