<?xml version="1.0" encoding="UTF-8" standalone="no"?>
<!DOCTYPE svg PUBLIC "-//W3C//DTD SVG 1.1//EN"
 "http://www.w3.org/Graphics/SVG/1.1/DTD/svg11.dtd">
<!-- Generated by graphviz version 2.38.0 (20140413.2041)
 -->
<!-- Title: double_gaussian_plus_exponential.inl Pages: 1 -->
<svg width="252pt" height="106pt"
 viewBox="0.00 0.00 252.00 106.00" xmlns="http://www.w3.org/2000/svg" xmlns:xlink="http://www.w3.org/1999/xlink">
<g id="graph0" class="graph" transform="scale(1 1) rotate(0) translate(4 102)">
<title>double_gaussian_plus_exponential.inl</title>
<!-- Node129 -->
<g id="node1" class="node"><title>Node129</title>
<polygon fill="#bfbfbf" stroke="black" points="65,-67.5 65,-97.5 178,-97.5 178,-67.5 65,-67.5"/>
<text text-anchor="start" x="73" y="-85.5" font-family="Helvetica,sans-Serif" font-size="10.00">double_gaussian_plus</text>
<text text-anchor="middle" x="121.5" y="-74.5" font-family="Helvetica,sans-Serif" font-size="10.00">_exponential.inl</text>
</g>
<!-- Node130 -->
<g id="node2" class="node"><title>Node130</title>
<g id="a_node2"><a xlink:href="double__gaussian__plus__exponential_8cpp.html" target="_top" xlink:title="double_gaussian_plus\l_exponential.cpp">
<polygon fill="none" stroke="black" points="0,-0.5 0,-30.5 113,-30.5 113,-0.5 0,-0.5"/>
<text text-anchor="start" x="8" y="-18.5" font-family="Helvetica,sans-Serif" font-size="10.00">double_gaussian_plus</text>
<text text-anchor="middle" x="56.5" y="-7.5" font-family="Helvetica,sans-Serif" font-size="10.00">_exponential.cpp</text>
</a>
</g>
</g>
<!-- Node129&#45;&gt;Node130 -->
<g id="edge1" class="edge"><title>Node129&#45;&gt;Node130</title>
<path fill="none" stroke="midnightblue" d="M100.311,-60.3115C90.5612,-50.5612 79.259,-39.259 70.5765,-30.5765"/>
<polygon fill="midnightblue" stroke="midnightblue" points="97.85,-62.7998 107.396,-67.396 102.8,-57.85 97.85,-62.7998"/>
</g>
<!-- Node131 -->
<g id="node3" class="node"><title>Node131</title>
<g id="a_node3"><a xlink:href="double__gaussian__plus__exponential_8cu.html" target="_top" xlink:title="double_gaussian_plus\l_exponential.cu">
<polygon fill="none" stroke="black" points="131,-0.5 131,-30.5 244,-30.5 244,-0.5 131,-0.5"/>
<text text-anchor="start" x="139" y="-18.5" font-family="Helvetica,sans-Serif" font-size="10.00">double_gaussian_plus</text>
<text text-anchor="middle" x="187.5" y="-7.5" font-family="Helvetica,sans-Serif" font-size="10.00">_exponential.cu</text>
</a>
</g>
</g>
<!-- Node129&#45;&gt;Node131 -->
<g id="edge2" class="edge"><title>Node129&#45;&gt;Node131</title>
<path fill="none" stroke="midnightblue" d="M143.015,-60.3115C152.915,-50.5612 164.391,-39.259 173.207,-30.5765"/>
<polygon fill="midnightblue" stroke="midnightblue" points="140.49,-57.8853 135.821,-67.396 145.402,-62.8728 140.49,-57.8853"/>
</g>
</g>
</svg>
