<?xml version="1.0" encoding="UTF-8" standalone="no"?>
<!DOCTYPE svg PUBLIC "-//W3C//DTD SVG 1.1//EN"
 "http://www.w3.org/Graphics/SVG/1.1/DTD/svg11.dtd">
<!-- Generated by graphviz version 2.42.4 (0)
 -->
<!-- Title: Evaluate.inc Pages: 1 -->
<svg width="476pt" height="151pt"
 viewBox="0.00 0.00 476.00 151.00" xmlns="http://www.w3.org/2000/svg" xmlns:xlink="http://www.w3.org/1999/xlink">
<g id="graph0" class="graph" transform="scale(1 1) rotate(0) translate(4 147)">
<title>Evaluate.inc</title>
<!-- Node1 -->
<g id="node1" class="node">
<title>Node1</title>
<polygon fill="#bfbfbf" stroke="black" points="175,-123.5 175,-142.5 246,-142.5 246,-123.5 175,-123.5"/>
<text text-anchor="middle" x="210.5" y="-130.5" font-family="Helvetica,sans-Serif" font-size="10.00">Evaluate.inc</text>
</g>
<!-- Node2 -->
<g id="node2" class="node">
<title>Node2</title>
<g id="a_node2"><a xlink:href="Evaluate_8h.html" target="_top" xlink:title="Evaluate.h">
<polygon fill="none" stroke="black" points="179,-67.5 179,-86.5 242,-86.5 242,-67.5 179,-67.5"/>
<text text-anchor="middle" x="210.5" y="-74.5" font-family="Helvetica,sans-Serif" font-size="10.00">Evaluate.h</text>
</a>
</g>
</g>
<!-- Node1&#45;&gt;Node2 -->
<g id="edge1" class="edge">
<title>Node1&#45;&gt;Node2</title>
<path fill="none" stroke="midnightblue" d="M210.5,-112.8C210.5,-103.91 210.5,-93.78 210.5,-86.75"/>
<polygon fill="midnightblue" stroke="midnightblue" points="207,-113.08 210.5,-123.08 214,-113.08 207,-113.08"/>
</g>
<!-- Node3 -->
<g id="node3" class="node">
<title>Node3</title>
<g id="a_node3"><a xlink:href="apply__filter__issue_8C.html" target="_top" xlink:title="apply_filter_issue.C">
<polygon fill="none" stroke="black" points="0,-6 0,-25 103,-25 103,-6 0,-6"/>
<text text-anchor="middle" x="51.5" y="-13" font-family="Helvetica,sans-Serif" font-size="10.00">apply_filter_issue.C</text>
</a>
</g>
</g>
<!-- Node2&#45;&gt;Node3 -->
<g id="edge2" class="edge">
<title>Node2&#45;&gt;Node3</title>
<path fill="none" stroke="midnightblue" d="M178.25,-63.93C147.35,-52.37 101.49,-35.21 74.24,-25.01"/>
<polygon fill="midnightblue" stroke="midnightblue" points="177.13,-67.25 187.72,-67.48 179.58,-60.69 177.13,-67.25"/>
</g>
<!-- Node4 -->
<g id="node4" class="node">
<title>Node4</title>
<g id="a_node4"><a xlink:href="filter__test_8C.html" target="_top" xlink:title="filter_test.C">
<polygon fill="none" stroke="black" points="121.5,-6 121.5,-25 189.5,-25 189.5,-6 121.5,-6"/>
<text text-anchor="middle" x="155.5" y="-13" font-family="Helvetica,sans-Serif" font-size="10.00">filter_test.C</text>
</a>
</g>
</g>
<!-- Node2&#45;&gt;Node4 -->
<g id="edge3" class="edge">
<title>Node2&#45;&gt;Node4</title>
<path fill="none" stroke="midnightblue" d="M195.71,-60C185.3,-48.74 171.77,-34.1 163.37,-25.01"/>
<polygon fill="midnightblue" stroke="midnightblue" points="193.26,-62.51 202.62,-67.48 198.4,-57.76 193.26,-62.51"/>
</g>
<!-- Node5 -->
<g id="node5" class="node">
<title>Node5</title>
<g id="a_node5"><a xlink:href="generate__4body__decay__chain_8C.html" target="_top" xlink:title="generate_4body_decay\l_chain.C">
<polygon fill="none" stroke="black" points="208,-0.5 208,-30.5 325,-30.5 325,-0.5 208,-0.5"/>
<text text-anchor="start" x="216" y="-18.5" font-family="Helvetica,sans-Serif" font-size="10.00">generate_4body_decay</text>
<text text-anchor="middle" x="266.5" y="-7.5" font-family="Helvetica,sans-Serif" font-size="10.00">_chain.C</text>
</a>
</g>
</g>
<!-- Node2&#45;&gt;Node5 -->
<g id="edge4" class="edge">
<title>Node2&#45;&gt;Node5</title>
<path fill="none" stroke="midnightblue" d="M225.47,-60.09C234.14,-50.88 244.95,-39.39 253.3,-30.52"/>
<polygon fill="midnightblue" stroke="midnightblue" points="222.83,-57.79 218.52,-67.48 227.93,-62.59 222.83,-57.79"/>
</g>
<!-- Node6 -->
<g id="node6" class="node">
<title>Node6</title>
<g id="a_node6"><a xlink:href="generate__decay__chain_8C.html" target="_top" xlink:title="generate_decay_chain.C">
<polygon fill="none" stroke="black" points="343,-6 343,-25 468,-25 468,-6 343,-6"/>
<text text-anchor="middle" x="405.5" y="-13" font-family="Helvetica,sans-Serif" font-size="10.00">generate_decay_chain.C</text>
</a>
</g>
</g>
<!-- Node2&#45;&gt;Node6 -->
<g id="edge5" class="edge">
<title>Node2&#45;&gt;Node6</title>
<path fill="none" stroke="midnightblue" d="M248.1,-64.53C285.99,-52.96 343.61,-35.38 377.61,-25.01"/>
<polygon fill="midnightblue" stroke="midnightblue" points="246.98,-61.21 238.44,-67.48 249.02,-67.9 246.98,-61.21"/>
</g>
</g>
</svg>
