<?xml version="1.0" encoding="UTF-8" standalone="no"?>
<!DOCTYPE svg PUBLIC "-//W3C//DTD SVG 1.1//EN"
 "http://www.w3.org/Graphics/SVG/1.1/DTD/svg11.dtd">
<!-- Generated by graphviz version 2.38.0 (20140413.2041)
 -->
<!-- Title: Evaluate.h Pages: 1 -->
<!--zoomable 140 -->
<svg id="main" version="1.1" xmlns="http://www.w3.org/2000/svg" xmlns:xlink="http://www.w3.org/1999/xlink" xml:space="preserve" onload="init(evt)">
<style type="text/css"><![CDATA[
.edge:hover path { stroke: red; }
.edge:hover polygon { stroke: red; fill: red; }
]]></style>
<script type="text/javascript"><![CDATA[
var edges = document.getElementsByTagName('g');
if (edges && edges.length) {
  for (var i=0;i<edges.length;i++) {
    if (edges[i].id.substr(0,4)=='edge') {
      edges[i].setAttribute('class','edge');
    }
  }
}
]]></script>
        <defs>
                <circle id="rim" cx="0" cy="0" r="7"/>
                <circle id="rim2" cx="0" cy="0" r="3.5"/>
                <g id="zoomPlus">
                        <use xlink:href="#rim" fill="#404040">
                                <set attributeName="fill" to="#808080" begin="zoomplus.mouseover" end="zoomplus.mouseout"/>
                        </use>
                        <path d="M-4,0h8M0,-4v8" fill="none" stroke="white" stroke-width="1.5" pointer-events="none"/>
                </g>
                <g id="zoomMin">
                        <use xlink:href="#rim" fill="#404040">
                                <set attributeName="fill" to="#808080" begin="zoomminus.mouseover" end="zoomminus.mouseout"/>
                        </use>
                        <path d="M-4,0h8" fill="none" stroke="white" stroke-width="1.5" pointer-events="none"/>
                </g>
                <g id="dirArrow">
                        <path fill="none" stroke="white" stroke-width="1.5" d="M0,-3.0v7 M-2.5,-0.5L0,-3.0L2.5,-0.5"/>
                </g>
               <g id="resetDef">
                       <use xlink:href="#rim2" fill="#404040">
                               <set attributeName="fill" to="#808080" begin="reset.mouseover" end="reset.mouseout"/>
                       </use>
               </g>
        </defs>

<script type="text/javascript">
var viewWidth = 1530;
var viewHeight = 140;
var sectionId = 'dynsection-1';
</script>
<script xlink:href="svgpan.js"/>
<svg id="graph" class="graph">
<g id="viewport">
<title>Evaluate.h</title>
<!-- Node64 -->
<g id="node1" class="node"><title>Node64</title>
<polygon fill="#bfbfbf" stroke="black" points="688,-112.5 688,-131.5 751,-131.5 751,-112.5 688,-112.5"/>
<text text-anchor="middle" x="719.5" y="-119.5" font-family="Helvetica,sans-Serif" font-size="10.00">Evaluate.h</text>
</g>
<!-- Node65 -->
<g id="node2" class="node"><title>Node65</title>
<g id="a_node2"><a xlink:href="phsp__averaging__functor_8inl.html" target="_top" xlink:title="phsp_averaging_functor.inl">
<polygon fill="none" stroke="black" points="158,-56.5 158,-75.5 291,-75.5 291,-56.5 158,-56.5"/>
<text text-anchor="middle" x="224.5" y="-63.5" font-family="Helvetica,sans-Serif" font-size="10.00">phsp_averaging_functor.inl</text>
</a>
</g>
</g>
<!-- Node64&#45;&gt;Node65 -->
<g id="edge1" class="edge"><title>Node64&#45;&gt;Node65</title>
<path fill="none" stroke="midnightblue" d="M677.627,-116.432C591.719,-107.06 394.923,-85.5916 291.233,-74.2799"/>
<polygon fill="midnightblue" stroke="midnightblue" points="677.462,-119.935 687.783,-117.54 678.221,-112.976 677.462,-119.935"/>
</g>
<!-- Node68 -->
<g id="node5" class="node"><title>Node68</title>
<g id="a_node5"><a xlink:href="phsp__basic_8inl.html" target="_top" xlink:title="phsp_basic.inl">
<polygon fill="none" stroke="black" points="414,-56.5 414,-75.5 493,-75.5 493,-56.5 414,-56.5"/>
<text text-anchor="middle" x="453.5" y="-63.5" font-family="Helvetica,sans-Serif" font-size="10.00">phsp_basic.inl</text>
</a>
</g>
</g>
<!-- Node64&#45;&gt;Node68 -->
<g id="edge4" class="edge"><title>Node64&#45;&gt;Node68</title>
<path fill="none" stroke="midnightblue" d="M678.017,-112.579C627.536,-102.331 542.906,-85.1501 493.231,-75.0657"/>
<polygon fill="midnightblue" stroke="midnightblue" points="677.445,-116.034 687.942,-114.593 678.838,-109.174 677.445,-116.034"/>
</g>
<!-- Node71 -->
<g id="node8" class="node"><title>Node71</title>
<g id="a_node8"><a xlink:href="phsp__chain_8inl.html" target="_top" xlink:title="phsp_chain.inl">
<polygon fill="none" stroke="black" points="616,-56.5 616,-75.5 695,-75.5 695,-56.5 616,-56.5"/>
<text text-anchor="middle" x="655.5" y="-63.5" font-family="Helvetica,sans-Serif" font-size="10.00">phsp_chain.inl</text>
</a>
</g>
</g>
<!-- Node64&#45;&gt;Node71 -->
<g id="edge7" class="edge"><title>Node64&#45;&gt;Node71</title>
<path fill="none" stroke="midnightblue" d="M701.509,-105.82C690.042,-96.1452 675.587,-83.9481 665.97,-75.8339"/>
<polygon fill="midnightblue" stroke="midnightblue" points="699.317,-108.55 709.217,-112.324 703.831,-103.2 699.317,-108.55"/>
</g>
<!-- Node74 -->
<g id="node11" class="node"><title>Node74</title>
<g id="a_node11"><a xlink:href="phsp__evaluating__functor_8inl.html" target="_top" xlink:title="phsp_evaluating_functor.inl">
<polygon fill="none" stroke="black" points="717,-56.5 717,-75.5 852,-75.5 852,-56.5 717,-56.5"/>
<text text-anchor="middle" x="784.5" y="-63.5" font-family="Helvetica,sans-Serif" font-size="10.00">phsp_evaluating_functor.inl</text>
</a>
</g>
</g>
<!-- Node64&#45;&gt;Node74 -->
<g id="edge10" class="edge"><title>Node64&#45;&gt;Node74</title>
<path fill="none" stroke="midnightblue" d="M737.773,-105.82C749.418,-96.1452 764.099,-83.9481 773.867,-75.8339"/>
<polygon fill="midnightblue" stroke="midnightblue" points="735.399,-103.242 729.943,-112.324 739.872,-108.626 735.399,-103.242"/>
</g>
<!-- Node77 -->
<g id="node14" class="node"><title>Node77</title>
<g id="a_node14"><a xlink:href="phsp__reweighting_8inl.html" target="_top" xlink:title="phsp_reweighting.inl">
<polygon fill="none" stroke="black" points="1031,-56.5 1031,-75.5 1136,-75.5 1136,-56.5 1031,-56.5"/>
<text text-anchor="middle" x="1083.5" y="-63.5" font-family="Helvetica,sans-Serif" font-size="10.00">phsp_reweighting.inl</text>
</a>
</g>
</g>
<!-- Node64&#45;&gt;Node77 -->
<g id="edge13" class="edge"><title>Node64&#45;&gt;Node77</title>
<path fill="none" stroke="midnightblue" d="M761.286,-114.801C827.856,-104.925 957.884,-85.6353 1030.76,-74.8237"/>
<polygon fill="midnightblue" stroke="midnightblue" points="760.544,-111.373 751.166,-116.302 761.571,-118.297 760.544,-111.373"/>
</g>
<!-- Node80 -->
<g id="node17" class="node"><title>Node80</title>
<g id="a_node17"><a xlink:href="phsp__unweighting_8inl.html" target="_top" xlink:title="phsp_unweighting.inl">
<polygon fill="none" stroke="black" points="1285,-56.5 1285,-75.5 1392,-75.5 1392,-56.5 1285,-56.5"/>
<text text-anchor="middle" x="1338.5" y="-63.5" font-family="Helvetica,sans-Serif" font-size="10.00">phsp_unweighting.inl</text>
</a>
</g>
</g>
<!-- Node64&#45;&gt;Node80 -->
<g id="edge16" class="edge"><title>Node64&#45;&gt;Node80</title>
<path fill="none" stroke="midnightblue" d="M761.321,-117.352C870.419,-107.834 1163.6,-82.258 1284.86,-71.6791"/>
<polygon fill="midnightblue" stroke="midnightblue" points="760.705,-113.892 751.047,-118.248 761.314,-120.865 760.705,-113.892"/>
</g>
<!-- Node66 -->
<g id="node3" class="node"><title>Node66</title>
<g id="a_node3"><a xlink:href="phsp__averaging__functor_8cpp.html" target="_top" xlink:title="phsp_averaging_functor.cpp">
<polygon fill="none" stroke="black" points="0,-0.5 0,-19.5 139,-19.5 139,-0.5 0,-0.5"/>
<text text-anchor="middle" x="69.5" y="-7.5" font-family="Helvetica,sans-Serif" font-size="10.00">phsp_averaging_functor.cpp</text>
</a>
</g>
</g>
<!-- Node65&#45;&gt;Node66 -->
<g id="edge2" class="edge"><title>Node65&#45;&gt;Node66</title>
<path fill="none" stroke="midnightblue" d="M190.168,-53.0392C161.003,-42.8786 119.863,-28.5457 93.9453,-19.5164"/>
<polygon fill="midnightblue" stroke="midnightblue" points="189.345,-56.4587 199.94,-56.4435 191.648,-49.8484 189.345,-56.4587"/>
</g>
<!-- Node67 -->
<g id="node4" class="node"><title>Node67</title>
<g id="a_node4"><a xlink:href="phsp__averaging__functor_8cu.html" target="_top" xlink:title="phsp_averaging_functor.cu">
<polygon fill="none" stroke="black" points="157.5,-0.5 157.5,-19.5 291.5,-19.5 291.5,-0.5 157.5,-0.5"/>
<text text-anchor="middle" x="224.5" y="-7.5" font-family="Helvetica,sans-Serif" font-size="10.00">phsp_averaging_functor.cu</text>
</a>
</g>
</g>
<!-- Node65&#45;&gt;Node67 -->
<g id="edge3" class="edge"><title>Node65&#45;&gt;Node67</title>
<path fill="none" stroke="midnightblue" d="M224.5,-45.8045C224.5,-36.9102 224.5,-26.7798 224.5,-19.7511"/>
<polygon fill="midnightblue" stroke="midnightblue" points="221,-46.083 224.5,-56.083 228,-46.083 221,-46.083"/>
</g>
<!-- Node69 -->
<g id="node6" class="node"><title>Node69</title>
<g id="a_node6"><a xlink:href="phsp__basic_8cpp.html" target="_top" xlink:title="phsp_basic.cpp">
<polygon fill="none" stroke="black" points="310,-0.5 310,-19.5 395,-19.5 395,-0.5 310,-0.5"/>
<text text-anchor="middle" x="352.5" y="-7.5" font-family="Helvetica,sans-Serif" font-size="10.00">phsp_basic.cpp</text>
</a>
</g>
</g>
<!-- Node68&#45;&gt;Node69 -->
<g id="edge5" class="edge"><title>Node68&#45;&gt;Node69</title>
<path fill="none" stroke="midnightblue" d="M428.417,-51.5895C409.743,-41.6052 384.796,-28.2672 368.687,-19.6545"/>
<polygon fill="midnightblue" stroke="midnightblue" points="426.804,-54.6955 437.273,-56.324 430.104,-48.5224 426.804,-54.6955"/>
</g>
<!-- Node70 -->
<g id="node7" class="node"><title>Node70</title>
<g id="a_node7"><a xlink:href="phsp__basic_8cu.html" target="_top" xlink:title="phsp_basic.cu">
<polygon fill="none" stroke="black" points="413.5,-0.5 413.5,-19.5 493.5,-19.5 493.5,-0.5 413.5,-0.5"/>
<text text-anchor="middle" x="453.5" y="-7.5" font-family="Helvetica,sans-Serif" font-size="10.00">phsp_basic.cu</text>
</a>
</g>
</g>
<!-- Node68&#45;&gt;Node70 -->
<g id="edge6" class="edge"><title>Node68&#45;&gt;Node70</title>
<path fill="none" stroke="midnightblue" d="M453.5,-45.8045C453.5,-36.9102 453.5,-26.7798 453.5,-19.7511"/>
<polygon fill="midnightblue" stroke="midnightblue" points="450,-46.083 453.5,-56.083 457,-46.083 450,-46.083"/>
</g>
<!-- Node72 -->
<g id="node9" class="node"><title>Node72</title>
<g id="a_node9"><a xlink:href="phsp__chain_8cpp.html" target="_top" xlink:title="phsp_chain.cpp">
<polygon fill="none" stroke="black" points="512,-0.5 512,-19.5 597,-19.5 597,-0.5 512,-0.5"/>
<text text-anchor="middle" x="554.5" y="-7.5" font-family="Helvetica,sans-Serif" font-size="10.00">phsp_chain.cpp</text>
</a>
</g>
</g>
<!-- Node71&#45;&gt;Node72 -->
<g id="edge8" class="edge"><title>Node71&#45;&gt;Node72</title>
<path fill="none" stroke="midnightblue" d="M630.417,-51.5895C611.743,-41.6052 586.796,-28.2672 570.687,-19.6545"/>
<polygon fill="midnightblue" stroke="midnightblue" points="628.804,-54.6955 639.273,-56.324 632.104,-48.5224 628.804,-54.6955"/>
</g>
<!-- Node73 -->
<g id="node10" class="node"><title>Node73</title>
<g id="a_node10"><a xlink:href="phsp__chain_8cu.html" target="_top" xlink:title="phsp_chain.cu">
<polygon fill="none" stroke="black" points="615.5,-0.5 615.5,-19.5 695.5,-19.5 695.5,-0.5 615.5,-0.5"/>
<text text-anchor="middle" x="655.5" y="-7.5" font-family="Helvetica,sans-Serif" font-size="10.00">phsp_chain.cu</text>
</a>
</g>
</g>
<!-- Node71&#45;&gt;Node73 -->
<g id="edge9" class="edge"><title>Node71&#45;&gt;Node73</title>
<path fill="none" stroke="midnightblue" d="M655.5,-45.8045C655.5,-36.9102 655.5,-26.7798 655.5,-19.7511"/>
<polygon fill="midnightblue" stroke="midnightblue" points="652,-46.083 655.5,-56.083 659,-46.083 652,-46.083"/>
</g>
<!-- Node75 -->
<g id="node12" class="node"><title>Node75</title>
<g id="a_node12"><a xlink:href="phsp__evaluating__functor_8cpp.html" target="_top" xlink:title="phsp_evaluating_functor.cpp">
<polygon fill="none" stroke="black" points="714,-0.5 714,-19.5 855,-19.5 855,-0.5 714,-0.5"/>
<text text-anchor="middle" x="784.5" y="-7.5" font-family="Helvetica,sans-Serif" font-size="10.00">phsp_evaluating_functor.cpp</text>
</a>
</g>
</g>
<!-- Node74&#45;&gt;Node75 -->
<g id="edge11" class="edge"><title>Node74&#45;&gt;Node75</title>
<path fill="none" stroke="midnightblue" d="M784.5,-45.8045C784.5,-36.9102 784.5,-26.7798 784.5,-19.7511"/>
<polygon fill="midnightblue" stroke="midnightblue" points="781,-46.083 784.5,-56.083 788,-46.083 781,-46.083"/>
</g>
<!-- Node76 -->
<g id="node13" class="node"><title>Node76</title>
<g id="a_node13"><a xlink:href="phsp__evaluating__functor_8cu.html" target="_top" xlink:title="phsp_evaluating_functor.cu">
<polygon fill="none" stroke="black" points="873.5,-0.5 873.5,-19.5 1009.5,-19.5 1009.5,-0.5 873.5,-0.5"/>
<text text-anchor="middle" x="941.5" y="-7.5" font-family="Helvetica,sans-Serif" font-size="10.00">phsp_evaluating_functor.cu</text>
</a>
</g>
</g>
<!-- Node74&#45;&gt;Node76 -->
<g id="edge12" class="edge"><title>Node74&#45;&gt;Node76</title>
<path fill="none" stroke="midnightblue" d="M818.889,-53.172C848.452,-43.0039 890.373,-28.5852 916.739,-19.5164"/>
<polygon fill="midnightblue" stroke="midnightblue" points="817.695,-49.8813 809.377,-56.4435 819.972,-56.5007 817.695,-49.8813"/>
</g>
<!-- Node78 -->
<g id="node15" class="node"><title>Node78</title>
<g id="a_node15"><a xlink:href="phsp__reweighting_8cpp.html" target="_top" xlink:title="phsp_reweighting.cpp">
<polygon fill="none" stroke="black" points="1028,-0.5 1028,-19.5 1139,-19.5 1139,-0.5 1028,-0.5"/>
<text text-anchor="middle" x="1083.5" y="-7.5" font-family="Helvetica,sans-Serif" font-size="10.00">phsp_reweighting.cpp</text>
</a>
</g>
</g>
<!-- Node77&#45;&gt;Node78 -->
<g id="edge14" class="edge"><title>Node77&#45;&gt;Node78</title>
<path fill="none" stroke="midnightblue" d="M1083.5,-45.8045C1083.5,-36.9102 1083.5,-26.7798 1083.5,-19.7511"/>
<polygon fill="midnightblue" stroke="midnightblue" points="1080,-46.083 1083.5,-56.083 1087,-46.083 1080,-46.083"/>
</g>
<!-- Node79 -->
<g id="node16" class="node"><title>Node79</title>
<g id="a_node16"><a xlink:href="phsp__reweighting_8cu.html" target="_top" xlink:title="phsp_reweighting.cu">
<polygon fill="none" stroke="black" points="1157.5,-0.5 1157.5,-19.5 1263.5,-19.5 1263.5,-0.5 1157.5,-0.5"/>
<text text-anchor="middle" x="1210.5" y="-7.5" font-family="Helvetica,sans-Serif" font-size="10.00">phsp_reweighting.cu</text>
</a>
</g>
</g>
<!-- Node77&#45;&gt;Node79 -->
<g id="edge15" class="edge"><title>Node77&#45;&gt;Node79</title>
<path fill="none" stroke="midnightblue" d="M1112.89,-52.503C1136.7,-42.3795 1169.61,-28.388 1190.47,-19.5164"/>
<polygon fill="midnightblue" stroke="midnightblue" points="1111.46,-49.3096 1103.62,-56.4435 1114.2,-55.7515 1111.46,-49.3096"/>
</g>
<!-- Node81 -->
<g id="node18" class="node"><title>Node81</title>
<g id="a_node18"><a xlink:href="phsp__unweighting_8cpp.html" target="_top" xlink:title="phsp_unweighting.cpp">
<polygon fill="none" stroke="black" points="1282,-0.5 1282,-19.5 1395,-19.5 1395,-0.5 1282,-0.5"/>
<text text-anchor="middle" x="1338.5" y="-7.5" font-family="Helvetica,sans-Serif" font-size="10.00">phsp_unweighting.cpp</text>
</a>
</g>
</g>
<!-- Node80&#45;&gt;Node81 -->
<g id="edge17" class="edge"><title>Node80&#45;&gt;Node81</title>
<path fill="none" stroke="midnightblue" d="M1338.5,-45.8045C1338.5,-36.9102 1338.5,-26.7798 1338.5,-19.7511"/>
<polygon fill="midnightblue" stroke="midnightblue" points="1335,-46.083 1338.5,-56.083 1342,-46.083 1335,-46.083"/>
</g>
<!-- Node82 -->
<g id="node19" class="node"><title>Node82</title>
<g id="a_node19"><a xlink:href="phsp__unweighting_8cu.html" target="_top" xlink:title="phsp_unweighting.cu">
<polygon fill="none" stroke="black" points="1413.5,-0.5 1413.5,-19.5 1521.5,-19.5 1521.5,-0.5 1413.5,-0.5"/>
<text text-anchor="middle" x="1467.5" y="-7.5" font-family="Helvetica,sans-Serif" font-size="10.00">phsp_unweighting.cu</text>
</a>
</g>
</g>
<!-- Node80&#45;&gt;Node82 -->
<g id="edge18" class="edge"><title>Node80&#45;&gt;Node82</title>
<path fill="none" stroke="midnightblue" d="M1368.35,-52.503C1392.54,-42.3795 1425.96,-28.388 1447.16,-19.5164"/>
<polygon fill="midnightblue" stroke="midnightblue" points="1366.81,-49.3536 1358.94,-56.4435 1369.52,-55.8106 1366.81,-49.3536"/>
</g>
</g>
</svg>
        <g id="navigator" transform="translate(0 0)" fill="#404254">
                <rect fill="#f2f5e9" fill-opacity="0.5" stroke="#606060" stroke-width=".5" x="0" y="0" width="60" height="60"/>
                <use id="zoomplus" xlink:href="#zoomPlus" x="17" y="9" onmousedown="handleZoom(evt,'in')"/>
                <use id="zoomminus" xlink:href="#zoomMin" x="42" y="9" onmousedown="handleZoom(evt,'out')"/>
                <use id="reset" xlink:href="#resetDef" x="30" y="36" onmousedown="handleReset()"/>
                <g id="arrowUp" xlink:href="#dirArrow" transform="translate(30 24)" onmousedown="handlePan(0,-1)">
                  <use xlink:href="#rim" fill="#404040">
                        <set attributeName="fill" to="#808080" begin="arrowUp.mouseover" end="arrowUp.mouseout"/>
                  </use>
                  <path fill="none" stroke="white" stroke-width="1.5" d="M0,-3.0v7 M-2.5,-0.5L0,-3.0L2.5,-0.5"/>
                </g>
                <g id="arrowRight" xlink:href="#dirArrow" transform="rotate(90) translate(36 -43)" onmousedown="handlePan(1,0)">
                  <use xlink:href="#rim" fill="#404040">
                        <set attributeName="fill" to="#808080" begin="arrowRight.mouseover" end="arrowRight.mouseout"/>
                  </use>
                  <path fill="none" stroke="white" stroke-width="1.5" d="M0,-3.0v7 M-2.5,-0.5L0,-3.0L2.5,-0.5"/>
                </g>
                <g id="arrowDown" xlink:href="#dirArrow" transform="rotate(180) translate(-30 -48)" onmousedown="handlePan(0,1)">
                  <use xlink:href="#rim" fill="#404040">
                        <set attributeName="fill" to="#808080" begin="arrowDown.mouseover" end="arrowDown.mouseout"/>
                  </use>
                  <path fill="none" stroke="white" stroke-width="1.5" d="M0,-3.0v7 M-2.5,-0.5L0,-3.0L2.5,-0.5"/>
                </g>
                <g id="arrowLeft" xlink:href="#dirArrow" transform="rotate(270) translate(-36 17)" onmousedown="handlePan(-1,0)">
                  <use xlink:href="#rim" fill="#404040">
                        <set attributeName="fill" to="#808080" begin="arrowLeft.mouseover" end="arrowLeft.mouseout"/>
                  </use>
                  <path fill="none" stroke="white" stroke-width="1.5" d="M0,-3.0v7 M-2.5,-0.5L0,-3.0L2.5,-0.5"/>
                </g>
        </g>
        <svg viewBox="0 0 15 15" width="100%" height="30px" preserveAspectRatio="xMaxYMin meet">
         <g id="arrow_out" transform="scale(0.3 0.3)">
          <a xlink:href="Evaluate_8h__dep__incl_org.svg" target="_base">
           <rect id="button" ry="5" rx="5" y="6" x="6" height="38" width="38"
                fill="#f2f5e9" fill-opacity="0.5" stroke="#606060" stroke-width="1.0"/>
           <path id="arrow"
             d="M 11.500037,31.436501 C 11.940474,20.09759 22.043105,11.32322 32.158766,21.979434 L 37.068811,17.246167 C 37.068811,17.246167 37.088388,32 37.088388,32 L 22.160133,31.978069 C 22.160133,31.978069 26.997745,27.140456 26.997745,27.140456 C 18.528582,18.264221 13.291696,25.230495 11.500037,31.436501 z"
             style="fill:#404040;"/>
          </a>
         </g>
        </svg>
</svg>
