<?xml version="1.0" encoding="UTF-8" standalone="no"?>
<!DOCTYPE svg PUBLIC "-//W3C//DTD SVG 1.1//EN"
 "http://www.w3.org/Graphics/SVG/1.1/DTD/svg11.dtd">
<!-- Generated by graphviz version 2.40.1 (20161225.0304)
 -->
<!-- Title: Exponential.h Pages: 1 -->
<!--zoomable 162 -->
<svg id="main" version="1.1" xmlns="http://www.w3.org/2000/svg" xmlns:xlink="http://www.w3.org/1999/xlink" xml:space="preserve" onload="init(evt)">
<style type="text/css"><![CDATA[
.edge:hover path { stroke: red; }
.edge:hover polygon { stroke: red; fill: red; }
]]></style>
<script type="text/javascript"><![CDATA[
var edges = document.getElementsByTagName('g');
if (edges && edges.length) {
  for (var i=0;i<edges.length;i++) {
    if (edges[i].id.substr(0,4)=='edge') {
      edges[i].setAttribute('class','edge');
    }
  }
}
]]></script>
        <defs>
                <circle id="rim" cx="0" cy="0" r="7"/>
                <circle id="rim2" cx="0" cy="0" r="3.5"/>
                <g id="zoomPlus">
                        <use xlink:href="#rim" fill="#404040">
                                <set attributeName="fill" to="#808080" begin="zoomplus.mouseover" end="zoomplus.mouseout"/>
                        </use>
                        <path d="M-4,0h8M0,-4v8" fill="none" stroke="white" stroke-width="1.5" pointer-events="none"/>
                </g>
                <g id="zoomMin">
                        <use xlink:href="#rim" fill="#404040">
                                <set attributeName="fill" to="#808080" begin="zoomminus.mouseover" end="zoomminus.mouseout"/>
                        </use>
                        <path d="M-4,0h8" fill="none" stroke="white" stroke-width="1.5" pointer-events="none"/>
                </g>
                <g id="dirArrow">
                        <path fill="none" stroke="white" stroke-width="1.5" d="M0,-3.0v7 M-2.5,-0.5L0,-3.0L2.5,-0.5"/>
                </g>
               <g id="resetDef">
                       <use xlink:href="#rim2" fill="#404040">
                               <set attributeName="fill" to="#808080" begin="reset.mouseover" end="reset.mouseout"/>
                       </use>
               </g>
        </defs>

<script type="text/javascript">
var viewWidth = 1559;
var viewHeight = 162;
var sectionId = 'dynsection-1';
</script>
<script xlink:href="svgpan.js"/>
<svg id="graph" class="graph">
<g id="viewport">
<title>Exponential.h</title>
<!-- Node63 -->
<g id="node1" class="node">
<title>Node63</title>
<polygon fill="#bfbfbf" stroke="#000000" points="744.5,-134.5 744.5,-153.5 820.5,-153.5 820.5,-134.5 744.5,-134.5"/>
<text text-anchor="middle" x="782.5" y="-141.5" font-family="Helvetica,sans-Serif" font-size="10.00" fill="#000000">Exponential.h</text>
</g>
<!-- Node64 -->
<g id="node2" class="node">
<title>Node64</title>
<g id="a_node2"><a xlink:href="binned__extended__logLL__fit_8inl.html" target="_top" xlink:title="binned_extended_logLL\l_fit.inl">
<polygon fill="none" stroke="#000000" points="137,-67.5 137,-97.5 256,-97.5 256,-67.5 137,-67.5"/>
<text text-anchor="start" x="145" y="-85.5" font-family="Helvetica,sans-Serif" font-size="10.00" fill="#000000">binned_extended_logLL</text>
<text text-anchor="middle" x="196.5" y="-74.5" font-family="Helvetica,sans-Serif" font-size="10.00" fill="#000000">_fit.inl</text>
</a>
</g>
</g>
<!-- Node63&#45;&gt;Node64 -->
<g id="edge1" class="edge">
<title>Node63&#45;&gt;Node64</title>
<path fill="none" stroke="#191970" d="M733.8877,-138.8982C627.121,-127.6932 372.428,-100.9634 256.1858,-88.764"/>
<polygon fill="#191970" stroke="#191970" points="733.7402,-142.4019 744.0509,-139.9648 734.4709,-135.4401 733.7402,-142.4019"/>
</g>
<!-- Node67 -->
<g id="node5" class="node">
<title>Node67</title>
<g id="a_node5"><a xlink:href="extended__logLL__fit_8inl.html" target="_top" xlink:title="extended_logLL_fit.inl">
<polygon fill="none" stroke="#000000" points="410,-73 410,-92 521,-92 521,-73 410,-73"/>
<text text-anchor="middle" x="465.5" y="-80" font-family="Helvetica,sans-Serif" font-size="10.00" fill="#000000">extended_logLL_fit.inl</text>
</a>
</g>
</g>
<!-- Node63&#45;&gt;Node67 -->
<g id="edge4" class="edge">
<title>Node63&#45;&gt;Node67</title>
<path fill="none" stroke="#191970" d="M734.3755,-134.6635C674.9376,-123.1322 574.3735,-103.6221 514.5241,-92.011"/>
<polygon fill="#191970" stroke="#191970" points="733.7788,-138.113 744.2624,-136.5817 735.1121,-131.2411 733.7788,-138.113"/>
</g>
<!-- Node70 -->
<g id="node8" class="node">
<title>Node70</title>
<g id="a_node8"><a xlink:href="fractional__logLL__fit_8inl.html" target="_top" xlink:title="fractional_logLL_fit.inl">
<polygon fill="none" stroke="#000000" points="676,-73 676,-92 787,-92 787,-73 676,-73"/>
<text text-anchor="middle" x="731.5" y="-80" font-family="Helvetica,sans-Serif" font-size="10.00" fill="#000000">fractional_logLL_fit.inl</text>
</a>
</g>
</g>
<!-- Node63&#45;&gt;Node70 -->
<g id="edge7" class="edge">
<title>Node63&#45;&gt;Node70</title>
<path fill="none" stroke="#191970" d="M768.0495,-126.5744C758.8258,-115.4517 747.2108,-101.4454 739.5811,-92.2449"/>
<polygon fill="#191970" stroke="#191970" points="765.4537,-128.9272 774.5313,-134.3906 770.842,-124.4588 765.4537,-128.9272"/>
</g>
<!-- Node73 -->
<g id="node11" class="node">
<title>Node73</title>
<g id="a_node11"><a xlink:href="splot_8inl.html" target="_top" xlink:title="splot.inl">
<polygon fill="none" stroke="#000000" points="808.5,-73 808.5,-92 858.5,-92 858.5,-73 808.5,-73"/>
<text text-anchor="middle" x="833.5" y="-80" font-family="Helvetica,sans-Serif" font-size="10.00" fill="#000000">splot.inl</text>
</a>
</g>
</g>
<!-- Node63&#45;&gt;Node73 -->
<g id="edge10" class="edge">
<title>Node63&#45;&gt;Node73</title>
<path fill="none" stroke="#191970" d="M796.9505,-126.5744C806.1742,-115.4517 817.7892,-101.4454 825.4189,-92.2449"/>
<polygon fill="#191970" stroke="#191970" points="794.158,-124.4588 790.4688,-134.3906 799.5463,-128.9272 794.158,-124.4588"/>
</g>
<!-- Node76 -->
<g id="node14" class="node">
<title>Node76</title>
<g id="a_node14"><a xlink:href="crystal__ball__plus__exponential_8inl.html" target="_top" xlink:title="crystal_ball_plus_exponential.inl">
<polygon fill="none" stroke="#000000" points="952,-73 952,-92 1109,-92 1109,-73 952,-73"/>
<text text-anchor="middle" x="1030.5" y="-80" font-family="Helvetica,sans-Serif" font-size="10.00" fill="#000000">crystal_ball_plus_exponential.inl</text>
</a>
</g>
</g>
<!-- Node63&#45;&gt;Node76 -->
<g id="edge13" class="edge">
<title>Node63&#45;&gt;Node76</title>
<path fill="none" stroke="#191970" d="M830.658,-132.0576C877.6915,-120.394 948.3606,-102.8692 991.8415,-92.0867"/>
<polygon fill="#191970" stroke="#191970" points="829.5701,-128.7213 820.7065,-134.5254 831.255,-135.5155 829.5701,-128.7213"/>
</g>
<!-- Node79 -->
<g id="node17" class="node">
<title>Node79</title>
<g id="a_node17"><a xlink:href="double__gaussian__plus__exponential_8inl.html" target="_top" xlink:title="double_gaussian_plus\l_exponential.inl">
<polygon fill="none" stroke="#000000" points="1307,-67.5 1307,-97.5 1420,-97.5 1420,-67.5 1307,-67.5"/>
<text text-anchor="start" x="1315" y="-85.5" font-family="Helvetica,sans-Serif" font-size="10.00" fill="#000000">double_gaussian_plus</text>
<text text-anchor="middle" x="1363.5" y="-74.5" font-family="Helvetica,sans-Serif" font-size="10.00" fill="#000000">_exponential.inl</text>
</a>
</g>
</g>
<!-- Node63&#45;&gt;Node79 -->
<g id="edge16" class="edge">
<title>Node63&#45;&gt;Node79</title>
<path fill="none" stroke="#191970" d="M830.765,-138.8911C937.3585,-127.6079 1192.4317,-100.6079 1306.584,-88.5247"/>
<polygon fill="#191970" stroke="#191970" points="830.197,-135.4315 820.621,-139.9648 830.9339,-142.3926 830.197,-135.4315"/>
</g>
<!-- Node65 -->
<g id="node3" class="node">
<title>Node65</title>
<g id="a_node3"><a xlink:href="binned__extended__logLL__fit_8cpp.html" target="_top" xlink:title="binned_extended_logLL\l_fit.cpp">
<polygon fill="none" stroke="#000000" points="0,-.5 0,-30.5 119,-30.5 119,-.5 0,-.5"/>
<text text-anchor="start" x="8" y="-18.5" font-family="Helvetica,sans-Serif" font-size="10.00" fill="#000000">binned_extended_logLL</text>
<text text-anchor="middle" x="59.5" y="-7.5" font-family="Helvetica,sans-Serif" font-size="10.00" fill="#000000">_fit.cpp</text>
</a>
</g>
</g>
<!-- Node64&#45;&gt;Node65 -->
<g id="edge2" class="edge">
<title>Node64&#45;&gt;Node65</title>
<path fill="none" stroke="#191970" d="M156.7328,-63.0518C135.6816,-52.7567 110.2086,-40.2991 90.6169,-30.7177"/>
<polygon fill="#191970" stroke="#191970" points="155.2336,-66.2147 165.7545,-67.4639 158.3089,-59.9264 155.2336,-66.2147"/>
</g>
<!-- Node66 -->
<g id="node4" class="node">
<title>Node66</title>
<g id="a_node4"><a xlink:href="binned__extended__logLL__fit_8cu.html" target="_top" xlink:title="binned_extended_logLL\l_fit.cu">
<polygon fill="none" stroke="#000000" points="137,-.5 137,-30.5 256,-30.5 256,-.5 137,-.5"/>
<text text-anchor="start" x="145" y="-18.5" font-family="Helvetica,sans-Serif" font-size="10.00" fill="#000000">binned_extended_logLL</text>
<text text-anchor="middle" x="196.5" y="-7.5" font-family="Helvetica,sans-Serif" font-size="10.00" fill="#000000">_fit.cu</text>
</a>
</g>
</g>
<!-- Node64&#45;&gt;Node66 -->
<g id="edge3" class="edge">
<title>Node64&#45;&gt;Node66</title>
<path fill="none" stroke="#191970" d="M196.5,-57.0249C196.5,-48.128 196.5,-38.4287 196.5,-30.6432"/>
<polygon fill="#191970" stroke="#191970" points="193.0001,-57.2966 196.5,-67.2967 200.0001,-57.2967 193.0001,-57.2966"/>
</g>
<!-- Node68 -->
<g id="node6" class="node">
<title>Node68</title>
<g id="a_node6"><a xlink:href="extended__logLL__fit_8cpp.html" target="_top" xlink:title="extended_logLL_fit.cpp">
<polygon fill="none" stroke="#000000" points="274,-6 274,-25 391,-25 391,-6 274,-6"/>
<text text-anchor="middle" x="332.5" y="-13" font-family="Helvetica,sans-Serif" font-size="10.00" fill="#000000">extended_logLL_fit.cpp</text>
</a>
</g>
</g>
<!-- Node67&#45;&gt;Node68 -->
<g id="edge5" class="edge">
<title>Node67&#45;&gt;Node68</title>
<path fill="none" stroke="#191970" d="M437.5131,-68.4013C411.6826,-55.389 374.0224,-36.4173 351.5203,-25.0817"/>
<polygon fill="#191970" stroke="#191970" points="435.9389,-71.5273 446.4443,-72.9005 439.0882,-65.2757 435.9389,-71.5273"/>
</g>
<!-- Node69 -->
<g id="node7" class="node">
<title>Node69</title>
<g id="a_node7"><a xlink:href="extended__logLL__fit_8cu.html" target="_top" xlink:title="extended_logLL_fit.cu">
<polygon fill="none" stroke="#000000" points="409.5,-6 409.5,-25 521.5,-25 521.5,-6 409.5,-6"/>
<text text-anchor="middle" x="465.5" y="-13" font-family="Helvetica,sans-Serif" font-size="10.00" fill="#000000">extended_logLL_fit.cu</text>
</a>
</g>
</g>
<!-- Node67&#45;&gt;Node69 -->
<g id="edge6" class="edge">
<title>Node67&#45;&gt;Node69</title>
<path fill="none" stroke="#191970" d="M465.5,-62.6079C465.5,-50.214 465.5,-34.8263 465.5,-25.0817"/>
<polygon fill="#191970" stroke="#191970" points="462.0001,-62.9005 465.5,-72.9005 469.0001,-62.9006 462.0001,-62.9005"/>
</g>
<!-- Node71 -->
<g id="node9" class="node">
<title>Node71</title>
<g id="a_node9"><a xlink:href="fractional__logLL__fit_8cpp.html" target="_top" xlink:title="fractional_logLL_fit.cpp">
<polygon fill="none" stroke="#000000" points="540,-6 540,-25 657,-25 657,-6 540,-6"/>
<text text-anchor="middle" x="598.5" y="-13" font-family="Helvetica,sans-Serif" font-size="10.00" fill="#000000">fractional_logLL_fit.cpp</text>
</a>
</g>
</g>
<!-- Node70&#45;&gt;Node71 -->
<g id="edge8" class="edge">
<title>Node70&#45;&gt;Node71</title>
<path fill="none" stroke="#191970" d="M703.5131,-68.4013C677.6826,-55.389 640.0224,-36.4173 617.5203,-25.0817"/>
<polygon fill="#191970" stroke="#191970" points="701.9389,-71.5273 712.4443,-72.9005 705.0882,-65.2757 701.9389,-71.5273"/>
</g>
<!-- Node72 -->
<g id="node10" class="node">
<title>Node72</title>
<g id="a_node10"><a xlink:href="fractional__logLL__fit_8cu.html" target="_top" xlink:title="fractional_logLL_fit.cu">
<polygon fill="none" stroke="#000000" points="675.5,-6 675.5,-25 787.5,-25 787.5,-6 675.5,-6"/>
<text text-anchor="middle" x="731.5" y="-13" font-family="Helvetica,sans-Serif" font-size="10.00" fill="#000000">fractional_logLL_fit.cu</text>
</a>
</g>
</g>
<!-- Node70&#45;&gt;Node72 -->
<g id="edge9" class="edge">
<title>Node70&#45;&gt;Node72</title>
<path fill="none" stroke="#191970" d="M731.5,-62.6079C731.5,-50.214 731.5,-34.8263 731.5,-25.0817"/>
<polygon fill="#191970" stroke="#191970" points="728.0001,-62.9005 731.5,-72.9005 735.0001,-62.9006 728.0001,-62.9005"/>
</g>
<!-- Node74 -->
<g id="node12" class="node">
<title>Node74</title>
<g id="a_node12"><a xlink:href="splot_8cpp.html" target="_top" xlink:title="splot.cpp">
<polygon fill="none" stroke="#000000" points="805.5,-6 805.5,-25 861.5,-25 861.5,-6 805.5,-6"/>
<text text-anchor="middle" x="833.5" y="-13" font-family="Helvetica,sans-Serif" font-size="10.00" fill="#000000">splot.cpp</text>
</a>
</g>
</g>
<!-- Node73&#45;&gt;Node74 -->
<g id="edge11" class="edge">
<title>Node73&#45;&gt;Node74</title>
<path fill="none" stroke="#191970" d="M833.5,-62.6079C833.5,-50.214 833.5,-34.8263 833.5,-25.0817"/>
<polygon fill="#191970" stroke="#191970" points="830.0001,-62.9005 833.5,-72.9005 837.0001,-62.9006 830.0001,-62.9005"/>
</g>
<!-- Node75 -->
<g id="node13" class="node">
<title>Node75</title>
<g id="a_node13"><a xlink:href="splot_8cu.html" target="_top" xlink:title="splot.cu">
<polygon fill="none" stroke="#000000" points="880,-6 880,-25 931,-25 931,-6 880,-6"/>
<text text-anchor="middle" x="905.5" y="-13" font-family="Helvetica,sans-Serif" font-size="10.00" fill="#000000">splot.cu</text>
</a>
</g>
</g>
<!-- Node73&#45;&gt;Node75 -->
<g id="edge12" class="edge">
<title>Node73&#45;&gt;Node75</title>
<path fill="none" stroke="#191970" d="M851.2958,-65.94C865.107,-53.0879 883.7697,-35.7212 895.2033,-25.0817"/>
<polygon fill="#191970" stroke="#191970" points="848.7522,-63.5259 843.8158,-72.9005 853.5209,-68.6504 848.7522,-63.5259"/>
</g>
<!-- Node77 -->
<g id="node15" class="node">
<title>Node77</title>
<g id="a_node15"><a xlink:href="crystal__ball__plus__exponential_8cpp.html" target="_top" xlink:title="crystal_ball_plus_exponential.cpp">
<polygon fill="none" stroke="#000000" points="949,-6 949,-25 1112,-25 1112,-6 949,-6"/>
<text text-anchor="middle" x="1030.5" y="-13" font-family="Helvetica,sans-Serif" font-size="10.00" fill="#000000">crystal_ball_plus_exponential.cpp</text>
</a>
</g>
</g>
<!-- Node76&#45;&gt;Node77 -->
<g id="edge14" class="edge">
<title>Node76&#45;&gt;Node77</title>
<path fill="none" stroke="#191970" d="M1030.5,-62.6079C1030.5,-50.214 1030.5,-34.8263 1030.5,-25.0817"/>
<polygon fill="#191970" stroke="#191970" points="1027.0001,-62.9005 1030.5,-72.9005 1034.0001,-62.9006 1027.0001,-62.9005"/>
</g>
<!-- Node78 -->
<g id="node16" class="node">
<title>Node78</title>
<g id="a_node16"><a xlink:href="crystal__ball__plus__exponential_8cu.html" target="_top" xlink:title="crystal_ball_plus_exponential.cu">
<polygon fill="none" stroke="#000000" points="1130.5,-6 1130.5,-25 1288.5,-25 1288.5,-6 1130.5,-6"/>
<text text-anchor="middle" x="1209.5" y="-13" font-family="Helvetica,sans-Serif" font-size="10.00" fill="#000000">crystal_ball_plus_exponential.cu</text>
</a>
</g>
</g>
<!-- Node76&#45;&gt;Node78 -->
<g id="edge15" class="edge">
<title>Node76&#45;&gt;Node78</title>
<path fill="none" stroke="#191970" d="M1065.9029,-69.2487C1100.6981,-56.2247 1152.9524,-36.6659 1183.9012,-25.0817"/>
<polygon fill="#191970" stroke="#191970" points="1064.2848,-66.1171 1056.1463,-72.9005 1066.7387,-72.6729 1064.2848,-66.1171"/>
</g>
<!-- Node80 -->
<g id="node18" class="node">
<title>Node80</title>
<g id="a_node18"><a xlink:href="double__gaussian__plus__exponential_8cpp.html" target="_top" xlink:title="double_gaussian_plus\l_exponential.cpp">
<polygon fill="none" stroke="#000000" points="1307,-.5 1307,-30.5 1420,-30.5 1420,-.5 1307,-.5"/>
<text text-anchor="start" x="1315" y="-18.5" font-family="Helvetica,sans-Serif" font-size="10.00" fill="#000000">double_gaussian_plus</text>
<text text-anchor="middle" x="1363.5" y="-7.5" font-family="Helvetica,sans-Serif" font-size="10.00" fill="#000000">_exponential.cpp</text>
</a>
</g>
</g>
<!-- Node79&#45;&gt;Node80 -->
<g id="edge17" class="edge">
<title>Node79&#45;&gt;Node80</title>
<path fill="none" stroke="#191970" d="M1363.5,-57.0249C1363.5,-48.128 1363.5,-38.4287 1363.5,-30.6432"/>
<polygon fill="#191970" stroke="#191970" points="1360.0001,-57.2966 1363.5,-67.2967 1367.0001,-57.2967 1360.0001,-57.2966"/>
</g>
<!-- Node81 -->
<g id="node19" class="node">
<title>Node81</title>
<g id="a_node19"><a xlink:href="double__gaussian__plus__exponential_8cu.html" target="_top" xlink:title="double_gaussian_plus\l_exponential.cu">
<polygon fill="none" stroke="#000000" points="1438,-.5 1438,-30.5 1551,-30.5 1551,-.5 1438,-.5"/>
<text text-anchor="start" x="1446" y="-18.5" font-family="Helvetica,sans-Serif" font-size="10.00" fill="#000000">double_gaussian_plus</text>
<text text-anchor="middle" x="1494.5" y="-7.5" font-family="Helvetica,sans-Serif" font-size="10.00" fill="#000000">_exponential.cu</text>
</a>
</g>
</g>
<!-- Node79&#45;&gt;Node81 -->
<g id="edge18" class="edge">
<title>Node79&#45;&gt;Node81</title>
<path fill="none" stroke="#191970" d="M1402.0682,-62.7743C1422.0913,-52.5335 1446.1802,-40.2132 1464.7459,-30.7177"/>
<polygon fill="#191970" stroke="#191970" points="1400.2083,-59.7942 1392.899,-67.4639 1403.3958,-66.0264 1400.2083,-59.7942"/>
</g>
</g>
</svg>
        <g id="navigator" transform="translate(0 0)" fill="#404254">
                <rect fill="#f2f5e9" fill-opacity="0.5" stroke="#606060" stroke-width=".5" x="0" y="0" width="60" height="60"/>
                <use id="zoomplus" xlink:href="#zoomPlus" x="17" y="9" onmousedown="handleZoom(evt,'in')"/>
                <use id="zoomminus" xlink:href="#zoomMin" x="42" y="9" onmousedown="handleZoom(evt,'out')"/>
                <use id="reset" xlink:href="#resetDef" x="30" y="36" onmousedown="handleReset()"/>
                <g id="arrowUp" xlink:href="#dirArrow" transform="translate(30 24)" onmousedown="handlePan(0,-1)">
                  <use xlink:href="#rim" fill="#404040">
                        <set attributeName="fill" to="#808080" begin="arrowUp.mouseover" end="arrowUp.mouseout"/>
                  </use>
                  <path fill="none" stroke="white" stroke-width="1.5" d="M0,-3.0v7 M-2.5,-0.5L0,-3.0L2.5,-0.5"/>
                </g>
                <g id="arrowRight" xlink:href="#dirArrow" transform="rotate(90) translate(36 -43)" onmousedown="handlePan(1,0)">
                  <use xlink:href="#rim" fill="#404040">
                        <set attributeName="fill" to="#808080" begin="arrowRight.mouseover" end="arrowRight.mouseout"/>
                  </use>
                  <path fill="none" stroke="white" stroke-width="1.5" d="M0,-3.0v7 M-2.5,-0.5L0,-3.0L2.5,-0.5"/>
                </g>
                <g id="arrowDown" xlink:href="#dirArrow" transform="rotate(180) translate(-30 -48)" onmousedown="handlePan(0,1)">
                  <use xlink:href="#rim" fill="#404040">
                        <set attributeName="fill" to="#808080" begin="arrowDown.mouseover" end="arrowDown.mouseout"/>
                  </use>
                  <path fill="none" stroke="white" stroke-width="1.5" d="M0,-3.0v7 M-2.5,-0.5L0,-3.0L2.5,-0.5"/>
                </g>
                <g id="arrowLeft" xlink:href="#dirArrow" transform="rotate(270) translate(-36 17)" onmousedown="handlePan(-1,0)">
                  <use xlink:href="#rim" fill="#404040">
                        <set attributeName="fill" to="#808080" begin="arrowLeft.mouseover" end="arrowLeft.mouseout"/>
                  </use>
                  <path fill="none" stroke="white" stroke-width="1.5" d="M0,-3.0v7 M-2.5,-0.5L0,-3.0L2.5,-0.5"/>
                </g>
        </g>
        <svg viewBox="0 0 15 15" width="100%" height="30px" preserveAspectRatio="xMaxYMin meet">
         <g id="arrow_out" transform="scale(0.3 0.3)">
          <a xlink:href="Exponential_8h__dep__incl_org.svg" target="_base">
           <rect id="button" ry="5" rx="5" y="6" x="6" height="38" width="38"
                fill="#f2f5e9" fill-opacity="0.5" stroke="#606060" stroke-width="1.0"/>
           <path id="arrow"
             d="M 11.500037,31.436501 C 11.940474,20.09759 22.043105,11.32322 32.158766,21.979434 L 37.068811,17.246167 C 37.068811,17.246167 37.088388,32 37.088388,32 L 22.160133,31.978069 C 22.160133,31.978069 26.997745,27.140456 26.997745,27.140456 C 18.528582,18.264221 13.291696,25.230495 11.500037,31.436501 z"
             style="fill:#404040;"/>
          </a>
         </g>
        </svg>
</svg>
