<?xml version="1.0" encoding="UTF-8" standalone="no"?>
<!DOCTYPE svg PUBLIC "-//W3C//DTD SVG 1.1//EN"
 "http://www.w3.org/Graphics/SVG/1.1/DTD/svg11.dtd">
<!-- Generated by graphviz version 5.0.0 (0)
 -->
<!-- Title: FCN3.inl Pages: 1 -->
<svg width="418pt" height="240pt"
 viewBox="0.00 0.00 418.00 240.00" xmlns="http://www.w3.org/2000/svg" xmlns:xlink="http://www.w3.org/1999/xlink">
<g id="graph0" class="graph" transform="scale(1 1) rotate(0) translate(4 236)">
<title>FCN3.inl</title>
<!-- Node0 -->
<g id="node1" class="node">
<title>Node0</title>
<polygon fill="#bfbfbf" stroke="black" points="97,-212.5 97,-231.5 153,-231.5 153,-212.5 97,-212.5"/>
<text text-anchor="middle" x="125" y="-219.5" font-family="Helvetica,sans-Serif" font-size="10.00">FCN3.inl</text>
</g>
<!-- Node1 -->
<g id="node2" class="node">
<title>Node1</title>
<polygon fill="none" stroke="#bfbfbf" points="0,-156.5 0,-175.5 56,-175.5 56,-156.5 0,-156.5"/>
<text text-anchor="middle" x="28" y="-163.5" font-family="Helvetica,sans-Serif" font-size="10.00">algorithm</text>
</g>
<!-- Node0&#45;&gt;Node1 -->
<g id="edge1" class="edge">
<title>Node0&#45;&gt;Node1</title>
<path fill="none" stroke="midnightblue" d="M109.42,-212.32C94,-203.74 70.19,-190.49 52.29,-180.52"/>
<polygon fill="midnightblue" stroke="midnightblue" points="53.99,-177.46 43.55,-175.65 50.58,-183.58 53.99,-177.46"/>
</g>
<!-- Node2 -->
<g id="node3" class="node">
<title>Node2</title>
<polygon fill="none" stroke="#bfbfbf" points="74.5,-156.5 74.5,-175.5 115.5,-175.5 115.5,-156.5 74.5,-156.5"/>
<text text-anchor="middle" x="95" y="-163.5" font-family="Helvetica,sans-Serif" font-size="10.00">future</text>
</g>
<!-- Node0&#45;&gt;Node2 -->
<g id="edge2" class="edge">
<title>Node0&#45;&gt;Node2</title>
<path fill="none" stroke="midnightblue" d="M120.05,-212.08C115.9,-204.61 109.85,-193.72 104.73,-184.52"/>
<polygon fill="midnightblue" stroke="midnightblue" points="107.78,-182.79 99.86,-175.75 101.66,-186.19 107.78,-182.79"/>
</g>
<!-- Node3 -->
<g id="node4" class="node">
<title>Node3</title>
<polygon fill="none" stroke="#bfbfbf" points="134,-156.5 134,-175.5 178,-175.5 178,-156.5 134,-156.5"/>
<text text-anchor="middle" x="156" y="-163.5" font-family="Helvetica,sans-Serif" font-size="10.00">vector</text>
</g>
<!-- Node0&#45;&gt;Node3 -->
<g id="edge3" class="edge">
<title>Node0&#45;&gt;Node3</title>
<path fill="none" stroke="midnightblue" d="M130.12,-212.08C134.41,-204.61 140.66,-193.72 145.94,-184.52"/>
<polygon fill="midnightblue" stroke="midnightblue" points="149.03,-186.17 150.98,-175.75 142.96,-182.68 149.03,-186.17"/>
</g>
<!-- Node4 -->
<g id="node5" class="node">
<title>Node4</title>
<g id="a_node5"><a xlink:href="EstimatorTraits_8h.html" target="_top" xlink:title="hydra/detail/EstimatorTraits.h">
<polygon fill="none" stroke="black" points="196.5,-156.5 196.5,-175.5 341.5,-175.5 341.5,-156.5 196.5,-156.5"/>
<text text-anchor="middle" x="269" y="-163.5" font-family="Helvetica,sans-Serif" font-size="10.00">hydra/detail/EstimatorTraits.h</text>
</a>
</g>
</g>
<!-- Node0&#45;&gt;Node4 -->
<g id="edge4" class="edge">
<title>Node0&#45;&gt;Node4</title>
<path fill="none" stroke="midnightblue" d="M147.82,-212.44C171.83,-203.44 209.83,-189.19 236.87,-179.05"/>
<polygon fill="midnightblue" stroke="midnightblue" points="238.16,-182.3 246.29,-175.52 235.7,-175.75 238.16,-182.3"/>
</g>
<!-- Node5 -->
<g id="node6" class="node">
<title>Node5</title>
<g id="a_node6"><a xlink:href="Config_8h.html" target="_top" xlink:title="hydra/detail/Config.h">
<polygon fill="none" stroke="black" points="82.5,-89.5 82.5,-108.5 189.5,-108.5 189.5,-89.5 82.5,-89.5"/>
<text text-anchor="middle" x="136" y="-96.5" font-family="Helvetica,sans-Serif" font-size="10.00">hydra/detail/Config.h</text>
</a>
</g>
</g>
<!-- Node4&#45;&gt;Node5 -->
<g id="edge5" class="edge">
<title>Node4&#45;&gt;Node5</title>
<path fill="none" stroke="midnightblue" d="M251.34,-156.37C228.68,-145.3 189.17,-125.99 162.8,-113.1"/>
<polygon fill="midnightblue" stroke="midnightblue" points="164.26,-109.91 153.73,-108.67 161.18,-116.2 164.26,-109.91"/>
</g>
<!-- Node8 -->
<g id="node9" class="node">
<title>Node8</title>
<polygon fill="none" stroke="#bfbfbf" points="208,-78.5 208,-119.5 330,-119.5 330,-78.5 208,-78.5"/>
<text text-anchor="start" x="216" y="-107.5" font-family="Helvetica,sans-Serif" font-size="10.00">hydra/detail/external</text>
<text text-anchor="start" x="216" y="-96.5" font-family="Helvetica,sans-Serif" font-size="10.00">/hydra_thrust/type_traits</text>
<text text-anchor="middle" x="269" y="-85.5" font-family="Helvetica,sans-Serif" font-size="10.00">/void_t.h</text>
</g>
<!-- Node4&#45;&gt;Node8 -->
<g id="edge8" class="edge">
<title>Node4&#45;&gt;Node8</title>
<path fill="none" stroke="midnightblue" d="M269,-156.23C269,-149.36 269,-139.38 269,-129.73"/>
<polygon fill="midnightblue" stroke="midnightblue" points="272.5,-129.54 269,-119.54 265.5,-129.54 272.5,-129.54"/>
</g>
<!-- Node9 -->
<g id="node10" class="node">
<title>Node9</title>
<polygon fill="none" stroke="#bfbfbf" points="348,-89.5 348,-108.5 410,-108.5 410,-89.5 348,-89.5"/>
<text text-anchor="middle" x="379" y="-96.5" font-family="Helvetica,sans-Serif" font-size="10.00">type_traits</text>
</g>
<!-- Node4&#45;&gt;Node9 -->
<g id="edge9" class="edge">
<title>Node4&#45;&gt;Node9</title>
<path fill="none" stroke="midnightblue" d="M283.84,-156.23C302.31,-145.32 334.07,-126.55 355.78,-113.72"/>
<polygon fill="midnightblue" stroke="midnightblue" points="357.57,-116.73 364.4,-108.63 354.01,-110.7 357.57,-116.73"/>
</g>
<!-- Node6 -->
<g id="node7" class="node">
<title>Node6</title>
<polygon fill="none" stroke="#bfbfbf" points="22,-0.5 22,-41.5 126,-41.5 126,-0.5 22,-0.5"/>
<text text-anchor="start" x="30" y="-29.5" font-family="Helvetica,sans-Serif" font-size="10.00">hydra/detail/external</text>
<text text-anchor="start" x="30" y="-18.5" font-family="Helvetica,sans-Serif" font-size="10.00">/hydra_thrust/detail</text>
<text text-anchor="middle" x="74" y="-7.5" font-family="Helvetica,sans-Serif" font-size="10.00">/config.h</text>
</g>
<!-- Node5&#45;&gt;Node6 -->
<g id="edge6" class="edge">
<title>Node5&#45;&gt;Node6</title>
<path fill="none" stroke="midnightblue" d="M128.89,-89.28C121.02,-79.63 107.93,-63.6 96.52,-49.6"/>
<polygon fill="midnightblue" stroke="midnightblue" points="99.07,-47.19 90.04,-41.66 93.65,-51.62 99.07,-47.19"/>
</g>
<!-- Node7 -->
<g id="node8" class="node">
<title>Node7</title>
<polygon fill="none" stroke="#bfbfbf" points="144,-0.5 144,-41.5 254,-41.5 254,-0.5 144,-0.5"/>
<text text-anchor="start" x="152" y="-29.5" font-family="Helvetica,sans-Serif" font-size="10.00">hydra/detail/external</text>
<text text-anchor="start" x="152" y="-18.5" font-family="Helvetica,sans-Serif" font-size="10.00">/hydra_thrust/detail</text>
<text text-anchor="middle" x="199" y="-7.5" font-family="Helvetica,sans-Serif" font-size="10.00">/config/host_device.h</text>
</g>
<!-- Node5&#45;&gt;Node7 -->
<g id="edge7" class="edge">
<title>Node5&#45;&gt;Node7</title>
<path fill="none" stroke="midnightblue" d="M143.23,-89.28C151.22,-79.63 164.52,-63.6 176.12,-49.6"/>
<polygon fill="midnightblue" stroke="midnightblue" points="179.02,-51.59 182.7,-41.66 173.63,-47.12 179.02,-51.59"/>
</g>
</g>
</svg>
