<?xml version="1.0" encoding="UTF-8" standalone="no"?>
<!DOCTYPE svg PUBLIC "-//W3C//DTD SVG 1.1//EN"
 "http://www.w3.org/Graphics/SVG/1.1/DTD/svg11.dtd">
<!-- Generated by graphviz version 2.42.4 (0)
 -->
<!-- Title: FFTPolicy.h Pages: 1 -->
<!--zoomable 252 -->
<svg id="main" version="1.1" xmlns="http://www.w3.org/2000/svg" xmlns:xlink="http://www.w3.org/1999/xlink" xml:space="preserve" onload="init(evt)">
<style type="text/css"><![CDATA[
.edge:hover path { stroke: red; }
.edge:hover polygon { stroke: red; fill: red; }
]]></style>
<script type="text/javascript"><![CDATA[
var edges = document.getElementsByTagName('g');
if (edges && edges.length) {
  for (var i=0;i<edges.length;i++) {
    if (edges[i].id.substr(0,4)=='edge') {
      edges[i].setAttribute('class','edge');
    }
  }
}
]]></script>
        <defs>
                <circle id="rim" cx="0" cy="0" r="7"/>
                <circle id="rim2" cx="0" cy="0" r="3.5"/>
                <g id="zoomPlus">
                        <use xlink:href="#rim" fill="#404040">
                                <set attributeName="fill" to="#808080" begin="zoomplus.mouseover" end="zoomplus.mouseout"/>
                        </use>
                        <path d="M-4,0h8M0,-4v8" fill="none" stroke="white" stroke-width="1.5" pointer-events="none"/>
                </g>
                <g id="zoomMin">
                        <use xlink:href="#rim" fill="#404040">
                                <set attributeName="fill" to="#808080" begin="zoomminus.mouseover" end="zoomminus.mouseout"/>
                        </use>
                        <path d="M-4,0h8" fill="none" stroke="white" stroke-width="1.5" pointer-events="none"/>
                </g>
                <g id="dirArrow">
                        <path fill="none" stroke="white" stroke-width="1.5" d="M0,-3.0v7 M-2.5,-0.5L0,-3.0L2.5,-0.5"/>
                </g>
               <g id="resetDef">
                       <use xlink:href="#rim2" fill="#404040">
                               <set attributeName="fill" to="#808080" begin="reset.mouseover" end="reset.mouseout"/>
                       </use>
               </g>
        </defs>

<script type="text/javascript">
var viewWidth = 703;
var viewHeight = 252;
var sectionId = 'dynsection-0';
</script>
<script xlink:href="svgpan.js"/>
<svg id="graph" class="graph">
<g id="viewport">
<title>FFTPolicy.h</title>
<!-- Node1 -->
<g id="node1" class="node">
<title>Node1</title>
<polygon fill="#bfbfbf" stroke="black" points="385,-224.5 385,-243.5 453,-243.5 453,-224.5 385,-224.5"/>
<text text-anchor="middle" x="419" y="-231.5" font-family="Helvetica,sans-Serif" font-size="10.00">FFTPolicy.h</text>
</g>
<!-- Node2 -->
<g id="node2" class="node">
<title>Node2</title>
<g id="a_node2"><a xlink:href="Convolution_8h.html" target="_top" xlink:title="Convolution.h">
<polygon fill="none" stroke="black" points="253.5,-168.5 253.5,-187.5 330.5,-187.5 330.5,-168.5 253.5,-168.5"/>
<text text-anchor="middle" x="292" y="-175.5" font-family="Helvetica,sans-Serif" font-size="10.00">Convolution.h</text>
</a>
</g>
</g>
<!-- Node1&#45;&gt;Node2 -->
<g id="edge1" class="edge">
<title>Node1&#45;&gt;Node2</title>
<path fill="none" stroke="midnightblue" d="M389.61,-220.5C365.8,-210.38 332.89,-196.39 312.03,-187.52"/>
<polygon fill="midnightblue" stroke="midnightblue" points="388.3,-223.75 398.88,-224.44 391.04,-217.31 388.3,-223.75"/>
</g>
<!-- Node3 -->
<g id="node3" class="node">
<title>Node3</title>
<g id="a_node3"><a xlink:href="ConvolutionFunctor_8h.html" target="_top" xlink:title="ConvolutionFunctor.h">
<polygon fill="none" stroke="black" points="229.5,-112.5 229.5,-131.5 338.5,-131.5 338.5,-112.5 229.5,-112.5"/>
<text text-anchor="middle" x="284" y="-119.5" font-family="Helvetica,sans-Serif" font-size="10.00">ConvolutionFunctor.h</text>
</a>
</g>
</g>
<!-- Node1&#45;&gt;Node3 -->
<g id="edge21" class="edge">
<title>Node1&#45;&gt;Node3</title>
<path fill="none" stroke="midnightblue" d="M400.36,-217.82C371.61,-194.39 317.37,-150.19 294.54,-131.59"/>
<polygon fill="midnightblue" stroke="midnightblue" points="398.44,-220.77 408.41,-224.37 402.87,-215.34 398.44,-220.77"/>
</g>
<!-- Node10 -->
<g id="node10" class="node">
<title>Node10</title>
<g id="a_node10"><a xlink:href="OldConvolutionFunctor_8h.html" target="_top" xlink:title="OldConvolutionFunctor.h">
<polygon fill="none" stroke="black" points="357,-112.5 357,-131.5 481,-131.5 481,-112.5 357,-112.5"/>
<text text-anchor="middle" x="419" y="-119.5" font-family="Helvetica,sans-Serif" font-size="10.00">OldConvolutionFunctor.h</text>
</a>
</g>
</g>
<!-- Node1&#45;&gt;Node10 -->
<g id="edge22" class="edge">
<title>Node1&#45;&gt;Node10</title>
<path fill="none" stroke="midnightblue" d="M419,-214.35C419,-190.25 419,-149.31 419,-131.59"/>
<polygon fill="midnightblue" stroke="midnightblue" points="415.5,-214.37 419,-224.37 422.5,-214.37 415.5,-214.37"/>
</g>
<!-- Node11 -->
<g id="node11" class="node">
<title>Node11</title>
<g id="a_node11"><a xlink:href="CuFFT_8h.html" target="_top" xlink:title="CuFFT.h">
<polygon fill="none" stroke="black" points="499,-112.5 499,-131.5 553,-131.5 553,-112.5 499,-112.5"/>
<text text-anchor="middle" x="526" y="-119.5" font-family="Helvetica,sans-Serif" font-size="10.00">CuFFT.h</text>
</a>
</g>
</g>
<!-- Node1&#45;&gt;Node11 -->
<g id="edge11" class="edge">
<title>Node1&#45;&gt;Node11</title>
<path fill="none" stroke="midnightblue" d="M434.66,-216.9C457.67,-193.25 499.79,-149.95 517.64,-131.59"/>
<polygon fill="midnightblue" stroke="midnightblue" points="431.86,-214.76 427.4,-224.37 436.88,-219.64 431.86,-214.76"/>
</g>
<!-- Node15 -->
<g id="node15" class="node">
<title>Node15</title>
<g id="a_node15"><a xlink:href="FFTW_8h.html" target="_top" xlink:title="FFTW.h">
<polygon fill="none" stroke="black" points="541.5,-168.5 541.5,-187.5 592.5,-187.5 592.5,-168.5 541.5,-168.5"/>
<text text-anchor="middle" x="567" y="-175.5" font-family="Helvetica,sans-Serif" font-size="10.00">FFTW.h</text>
</a>
</g>
</g>
<!-- Node1&#45;&gt;Node15 -->
<g id="edge17" class="edge">
<title>Node1&#45;&gt;Node15</title>
<path fill="none" stroke="midnightblue" d="M452.15,-220.91C479.97,-210.75 519.02,-196.51 543.66,-187.52"/>
<polygon fill="midnightblue" stroke="midnightblue" points="450.65,-217.73 442.45,-224.44 453.04,-224.3 450.65,-217.73"/>
</g>
<!-- Node2&#45;&gt;Node3 -->
<g id="edge2" class="edge">
<title>Node2&#45;&gt;Node3</title>
<path fill="none" stroke="midnightblue" d="M289.2,-158.1C287.87,-149.14 286.35,-138.86 285.3,-131.75"/>
<polygon fill="midnightblue" stroke="midnightblue" points="285.75,-158.7 290.68,-168.08 292.68,-157.68 285.75,-158.7"/>
</g>
<!-- Node4 -->
<g id="node4" class="node">
<title>Node4</title>
<g id="a_node4"><a xlink:href="convolute__functions_8inl.html" target="_top" xlink:title="convolute_functions.inl">
<polygon fill="none" stroke="black" points="143,-56.5 143,-75.5 259,-75.5 259,-56.5 143,-56.5"/>
<text text-anchor="middle" x="201" y="-63.5" font-family="Helvetica,sans-Serif" font-size="10.00">convolute_functions.inl</text>
</a>
</g>
</g>
<!-- Node2&#45;&gt;Node4 -->
<g id="edge10" class="edge">
<title>Node2&#45;&gt;Node4</title>
<path fill="none" stroke="midnightblue" d="M260.99,-163.98C246.65,-156.53 230.51,-145.88 220,-132 207.08,-114.94 202.93,-89.29 201.61,-75.88"/>
<polygon fill="midnightblue" stroke="midnightblue" points="259.55,-167.17 270.07,-168.41 262.62,-160.88 259.55,-167.17"/>
</g>
<!-- Node2&#45;&gt;Node10 -->
<g id="edge9" class="edge">
<title>Node2&#45;&gt;Node10</title>
<path fill="none" stroke="midnightblue" d="M321.39,-164.5C345.2,-154.38 378.11,-140.39 398.97,-131.52"/>
<polygon fill="midnightblue" stroke="midnightblue" points="319.96,-161.31 312.12,-168.44 322.7,-167.75 319.96,-161.31"/>
</g>
<!-- Node3&#45;&gt;Node4 -->
<g id="edge3" class="edge">
<title>Node3&#45;&gt;Node4</title>
<path fill="none" stroke="midnightblue" d="M261.9,-106.62C246.74,-96.76 227.12,-83.99 214.3,-75.65"/>
<polygon fill="midnightblue" stroke="midnightblue" points="260.37,-109.8 270.66,-112.32 264.19,-103.94 260.37,-109.8"/>
</g>
<!-- Node7 -->
<g id="node7" class="node">
<title>Node7</title>
<g id="a_node7"><a xlink:href="fit__convoluted__pdfs_8inl.html" target="_top" xlink:title="fit_convoluted_pdfs.inl">
<polygon fill="none" stroke="black" points="336,-56.5 336,-75.5 450,-75.5 450,-56.5 336,-56.5"/>
<text text-anchor="middle" x="393" y="-63.5" font-family="Helvetica,sans-Serif" font-size="10.00">fit_convoluted_pdfs.inl</text>
</a>
</g>
</g>
<!-- Node3&#45;&gt;Node7 -->
<g id="edge6" class="edge">
<title>Node3&#45;&gt;Node7</title>
<path fill="none" stroke="midnightblue" d="M310.52,-107.86C330.73,-97.85 357.99,-84.35 375.53,-75.65"/>
<polygon fill="midnightblue" stroke="midnightblue" points="308.92,-104.75 301.51,-112.32 312.03,-111.02 308.92,-104.75"/>
</g>
<!-- Node5 -->
<g id="node5" class="node">
<title>Node5</title>
<g id="a_node5"><a xlink:href="convolute__functions_8cpp.html" target="_top" xlink:title="convolute_functions.cpp">
<polygon fill="none" stroke="black" points="0,-0.5 0,-19.5 122,-19.5 122,-0.5 0,-0.5"/>
<text text-anchor="middle" x="61" y="-7.5" font-family="Helvetica,sans-Serif" font-size="10.00">convolute_functions.cpp</text>
</a>
</g>
</g>
<!-- Node4&#45;&gt;Node5 -->
<g id="edge4" class="edge">
<title>Node4&#45;&gt;Node5</title>
<path fill="none" stroke="midnightblue" d="M169.3,-52.77C143,-42.63 106.28,-28.47 83.08,-19.52"/>
<polygon fill="midnightblue" stroke="midnightblue" points="168.23,-56.11 178.82,-56.44 170.75,-49.58 168.23,-56.11"/>
</g>
<!-- Node6 -->
<g id="node6" class="node">
<title>Node6</title>
<g id="a_node6"><a xlink:href="convolute__functions_8cu.html" target="_top" xlink:title="convolute_functions.cu">
<polygon fill="none" stroke="black" points="140.5,-0.5 140.5,-19.5 257.5,-19.5 257.5,-0.5 140.5,-0.5"/>
<text text-anchor="middle" x="199" y="-7.5" font-family="Helvetica,sans-Serif" font-size="10.00">convolute_functions.cu</text>
</a>
</g>
</g>
<!-- Node4&#45;&gt;Node6 -->
<g id="edge5" class="edge">
<title>Node4&#45;&gt;Node6</title>
<path fill="none" stroke="midnightblue" d="M200.29,-45.8C199.96,-36.91 199.58,-26.78 199.32,-19.75"/>
<polygon fill="midnightblue" stroke="midnightblue" points="196.8,-46.22 200.67,-56.08 203.8,-45.96 196.8,-46.22"/>
</g>
<!-- Node8 -->
<g id="node8" class="node">
<title>Node8</title>
<g id="a_node8"><a xlink:href="fit__convoluted__pdfs_8cpp.html" target="_top" xlink:title="fit_convoluted_pdfs.cpp">
<polygon fill="none" stroke="black" points="276,-0.5 276,-19.5 396,-19.5 396,-0.5 276,-0.5"/>
<text text-anchor="middle" x="336" y="-7.5" font-family="Helvetica,sans-Serif" font-size="10.00">fit_convoluted_pdfs.cpp</text>
</a>
</g>
</g>
<!-- Node7&#45;&gt;Node8 -->
<g id="edge7" class="edge">
<title>Node7&#45;&gt;Node8</title>
<path fill="none" stroke="midnightblue" d="M376.38,-49.25C366.27,-39.67 353.72,-27.79 345.32,-19.83"/>
<polygon fill="midnightblue" stroke="midnightblue" points="374.18,-51.99 383.84,-56.32 378.99,-46.91 374.18,-51.99"/>
</g>
<!-- Node9 -->
<g id="node9" class="node">
<title>Node9</title>
<g id="a_node9"><a xlink:href="fit__convoluted__pdfs_8cu.html" target="_top" xlink:title="fit_convoluted_pdfs.cu">
<polygon fill="none" stroke="black" points="414.5,-0.5 414.5,-19.5 529.5,-19.5 529.5,-0.5 414.5,-0.5"/>
<text text-anchor="middle" x="472" y="-7.5" font-family="Helvetica,sans-Serif" font-size="10.00">fit_convoluted_pdfs.cu</text>
</a>
</g>
</g>
<!-- Node7&#45;&gt;Node9 -->
<g id="edge8" class="edge">
<title>Node7&#45;&gt;Node9</title>
<path fill="none" stroke="midnightblue" d="M414.03,-50.62C428.47,-40.76 447.14,-27.99 459.34,-19.65"/>
<polygon fill="midnightblue" stroke="midnightblue" points="411.97,-47.79 405.69,-56.32 415.92,-53.57 411.97,-47.79"/>
</g>
<!-- Node11&#45;&gt;Node4 -->
<g id="edge12" class="edge">
<title>Node11&#45;&gt;Node4</title>
<path fill="none" stroke="midnightblue" d="M489.07,-111.96C403.65,-94.91 315.5,-82.08 259.12,-74.48"/>
<polygon fill="midnightblue" stroke="midnightblue" points="488.44,-115.41 498.93,-113.95 489.82,-108.54 488.44,-115.41"/>
</g>
<!-- Node11&#45;&gt;Node7 -->
<g id="edge16" class="edge">
<title>Node11&#45;&gt;Node7</title>
<path fill="none" stroke="midnightblue" d="M495.55,-108.64C470.59,-98.5 435.92,-84.43 413.98,-75.52"/>
<polygon fill="midnightblue" stroke="midnightblue" points="494.34,-111.92 504.93,-112.44 496.98,-105.44 494.34,-111.92"/>
</g>
<!-- Node12 -->
<g id="node12" class="node">
<title>Node12</title>
<g id="a_node12"><a xlink:href="cufft_8inl.html" target="_top" xlink:title="cufft.inl">
<polygon fill="none" stroke="black" points="526.5,-56.5 526.5,-75.5 575.5,-75.5 575.5,-56.5 526.5,-56.5"/>
<text text-anchor="middle" x="551" y="-63.5" font-family="Helvetica,sans-Serif" font-size="10.00">cufft.inl</text>
</a>
</g>
</g>
<!-- Node11&#45;&gt;Node12 -->
<g id="edge13" class="edge">
<title>Node11&#45;&gt;Node12</title>
<path fill="none" stroke="midnightblue" d="M534.34,-102.98C538.58,-93.82 543.55,-83.09 546.95,-75.75"/>
<polygon fill="midnightblue" stroke="midnightblue" points="531.15,-101.54 530.13,-112.08 537.51,-104.48 531.15,-101.54"/>
</g>
<!-- Node13 -->
<g id="node13" class="node">
<title>Node13</title>
<g id="a_node13"><a xlink:href="cufft_8cpp.html" target="_top" xlink:title="cufft.cpp">
<polygon fill="none" stroke="black" points="547.5,-0.5 547.5,-19.5 602.5,-19.5 602.5,-0.5 547.5,-0.5"/>
<text text-anchor="middle" x="575" y="-7.5" font-family="Helvetica,sans-Serif" font-size="10.00">cufft.cpp</text>
</a>
</g>
</g>
<!-- Node12&#45;&gt;Node13 -->
<g id="edge14" class="edge">
<title>Node12&#45;&gt;Node13</title>
<path fill="none" stroke="midnightblue" d="M559.14,-46.69C563.18,-37.59 567.88,-27.01 571.11,-19.75"/>
<polygon fill="midnightblue" stroke="midnightblue" points="555.83,-45.52 554.96,-56.08 562.22,-48.37 555.83,-45.52"/>
</g>
<!-- Node14 -->
<g id="node14" class="node">
<title>Node14</title>
<g id="a_node14"><a xlink:href="cufft_8cu.html" target="_top" xlink:title="cufft.cu">
<polygon fill="none" stroke="black" points="621,-0.5 621,-19.5 671,-19.5 671,-0.5 621,-0.5"/>
<text text-anchor="middle" x="646" y="-7.5" font-family="Helvetica,sans-Serif" font-size="10.00">cufft.cu</text>
</a>
</g>
</g>
<!-- Node12&#45;&gt;Node14 -->
<g id="edge15" class="edge">
<title>Node12&#45;&gt;Node14</title>
<path fill="none" stroke="midnightblue" d="M575.32,-51.18C592.8,-41.24 615.83,-28.15 630.77,-19.65"/>
<polygon fill="midnightblue" stroke="midnightblue" points="573.23,-48.34 566.26,-56.32 576.69,-54.43 573.23,-48.34"/>
</g>
<!-- Node16 -->
<g id="node16" class="node">
<title>Node16</title>
<g id="a_node16"><a xlink:href="fft_8inl.html" target="_top" xlink:title="fft.inl">
<polygon fill="none" stroke="black" points="594,-112.5 594,-131.5 632,-131.5 632,-112.5 594,-112.5"/>
<text text-anchor="middle" x="613" y="-119.5" font-family="Helvetica,sans-Serif" font-size="10.00">fft.inl</text>
</a>
</g>
</g>
<!-- Node15&#45;&gt;Node16 -->
<g id="edge18" class="edge">
<title>Node15&#45;&gt;Node16</title>
<path fill="none" stroke="midnightblue" d="M581.11,-160.43C589.18,-150.97 598.96,-139.48 605.55,-131.75"/>
<polygon fill="midnightblue" stroke="midnightblue" points="578.42,-158.2 574.6,-168.08 583.75,-162.74 578.42,-158.2"/>
</g>
<!-- Node17 -->
<g id="node17" class="node">
<title>Node17</title>
<g id="a_node17"><a xlink:href="fft_8cpp.html" target="_top" xlink:title="fft.cpp">
<polygon fill="none" stroke="black" points="651,-56.5 651,-75.5 695,-75.5 695,-56.5 651,-56.5"/>
<text text-anchor="middle" x="673" y="-63.5" font-family="Helvetica,sans-Serif" font-size="10.00">fft.cpp</text>
</a>
</g>
</g>
<!-- Node16&#45;&gt;Node17 -->
<g id="edge19" class="edge">
<title>Node16&#45;&gt;Node17</title>
<path fill="none" stroke="midnightblue" d="M630.18,-105.54C640.88,-95.91 654.26,-83.87 663.18,-75.83"/>
<polygon fill="midnightblue" stroke="midnightblue" points="627.73,-103.03 622.64,-112.32 632.41,-108.24 627.73,-103.03"/>
</g>
<!-- Node18 -->
<g id="node18" class="node">
<title>Node18</title>
<g id="a_node18"><a xlink:href="fft_8cu.html" target="_top" xlink:title="fft.cu">
<polygon fill="none" stroke="black" points="593.5,-56.5 593.5,-75.5 632.5,-75.5 632.5,-56.5 593.5,-56.5"/>
<text text-anchor="middle" x="613" y="-63.5" font-family="Helvetica,sans-Serif" font-size="10.00">fft.cu</text>
</a>
</g>
</g>
<!-- Node16&#45;&gt;Node18 -->
<g id="edge20" class="edge">
<title>Node16&#45;&gt;Node18</title>
<path fill="none" stroke="midnightblue" d="M613,-101.8C613,-92.91 613,-82.78 613,-75.75"/>
<polygon fill="midnightblue" stroke="midnightblue" points="609.5,-102.08 613,-112.08 616.5,-102.08 609.5,-102.08"/>
</g>
</g>
</svg>
        <g id="navigator" transform="translate(0 0)" fill="#404254">
                <rect fill="#f2f5e9" fill-opacity="0.5" stroke="#606060" stroke-width=".5" x="0" y="0" width="60" height="60"/>
                <use id="zoomplus" xlink:href="#zoomPlus" x="17" y="9" onmousedown="handleZoom(evt,'in')"/>
                <use id="zoomminus" xlink:href="#zoomMin" x="42" y="9" onmousedown="handleZoom(evt,'out')"/>
                <use id="reset" xlink:href="#resetDef" x="30" y="36" onmousedown="handleReset()"/>
                <g id="arrowUp" xlink:href="#dirArrow" transform="translate(30 24)" onmousedown="handlePan(0,-1)">
                  <use xlink:href="#rim" fill="#404040">
                        <set attributeName="fill" to="#808080" begin="arrowUp.mouseover" end="arrowUp.mouseout"/>
                  </use>
                  <path fill="none" stroke="white" stroke-width="1.5" d="M0,-3.0v7 M-2.5,-0.5L0,-3.0L2.5,-0.5"/>
                </g>
                <g id="arrowRight" xlink:href="#dirArrow" transform="rotate(90) translate(36 -43)" onmousedown="handlePan(1,0)">
                  <use xlink:href="#rim" fill="#404040">
                        <set attributeName="fill" to="#808080" begin="arrowRight.mouseover" end="arrowRight.mouseout"/>
                  </use>
                  <path fill="none" stroke="white" stroke-width="1.5" d="M0,-3.0v7 M-2.5,-0.5L0,-3.0L2.5,-0.5"/>
                </g>
                <g id="arrowDown" xlink:href="#dirArrow" transform="rotate(180) translate(-30 -48)" onmousedown="handlePan(0,1)">
                  <use xlink:href="#rim" fill="#404040">
                        <set attributeName="fill" to="#808080" begin="arrowDown.mouseover" end="arrowDown.mouseout"/>
                  </use>
                  <path fill="none" stroke="white" stroke-width="1.5" d="M0,-3.0v7 M-2.5,-0.5L0,-3.0L2.5,-0.5"/>
                </g>
                <g id="arrowLeft" xlink:href="#dirArrow" transform="rotate(270) translate(-36 17)" onmousedown="handlePan(-1,0)">
                  <use xlink:href="#rim" fill="#404040">
                        <set attributeName="fill" to="#808080" begin="arrowLeft.mouseover" end="arrowLeft.mouseout"/>
                  </use>
                  <path fill="none" stroke="white" stroke-width="1.5" d="M0,-3.0v7 M-2.5,-0.5L0,-3.0L2.5,-0.5"/>
                </g>
        </g>
        <svg viewBox="0 0 15 15" width="100%" height="30px" preserveAspectRatio="xMaxYMin meet">
         <g id="arrow_out" transform="scale(0.3 0.3)">
          <a xlink:href="FFTPolicy_8h__dep__incl_org.svg" target="_base">
           <rect id="button" ry="5" rx="5" y="6" x="6" height="38" width="38"
                fill="#f2f5e9" fill-opacity="0.5" stroke="#606060" stroke-width="1.0"/>
           <path id="arrow"
             d="M 11.500037,31.436501 C 11.940474,20.09759 22.043105,11.32322 32.158766,21.979434 L 37.068811,17.246167 C 37.068811,17.246167 37.088388,32 37.088388,32 L 22.160133,31.978069 C 22.160133,31.978069 26.997745,27.140456 26.997745,27.140456 C 18.528582,18.264221 13.291696,25.230495 11.500037,31.436501 z"
             style="fill:#404040;"/>
          </a>
         </g>
        </svg>
</svg>
