<?xml version="1.0" encoding="UTF-8" standalone="no"?>
<!DOCTYPE svg PUBLIC "-//W3C//DTD SVG 1.1//EN"
 "http://www.w3.org/Graphics/SVG/1.1/DTD/svg11.dtd">
<!-- Generated by graphviz version 2.38.0 (20140413.2041)
 -->
<!-- Title: Filter.h Pages: 1 -->
<!--zoomable 396 -->
<svg id="main" version="1.1" xmlns="http://www.w3.org/2000/svg" xmlns:xlink="http://www.w3.org/1999/xlink" xml:space="preserve" onload="init(evt)">
<style type="text/css"><![CDATA[
.edge:hover path { stroke: red; }
.edge:hover polygon { stroke: red; fill: red; }
]]></style>
<script type="text/javascript"><![CDATA[
var edges = document.getElementsByTagName('g');
if (edges && edges.length) {
  for (var i=0;i<edges.length;i++) {
    if (edges[i].id.substr(0,4)=='edge') {
      edges[i].setAttribute('class','edge');
    }
  }
}
]]></script>
        <defs>
                <circle id="rim" cx="0" cy="0" r="7"/>
                <circle id="rim2" cx="0" cy="0" r="3.5"/>
                <g id="zoomPlus">
                        <use xlink:href="#rim" fill="#404040">
                                <set attributeName="fill" to="#808080" begin="zoomplus.mouseover" end="zoomplus.mouseout"/>
                        </use>
                        <path d="M-4,0h8M0,-4v8" fill="none" stroke="white" stroke-width="1.5" pointer-events="none"/>
                </g>
                <g id="zoomMin">
                        <use xlink:href="#rim" fill="#404040">
                                <set attributeName="fill" to="#808080" begin="zoomminus.mouseover" end="zoomminus.mouseout"/>
                        </use>
                        <path d="M-4,0h8" fill="none" stroke="white" stroke-width="1.5" pointer-events="none"/>
                </g>
                <g id="dirArrow">
                        <path fill="none" stroke="white" stroke-width="1.5" d="M0,-3.0v7 M-2.5,-0.5L0,-3.0L2.5,-0.5"/>
                </g>
               <g id="resetDef">
                       <use xlink:href="#rim2" fill="#404040">
                               <set attributeName="fill" to="#808080" begin="reset.mouseover" end="reset.mouseout"/>
                       </use>
               </g>
        </defs>

<script type="text/javascript">
var viewWidth = 1089;
var viewHeight = 396;
var sectionId = 'dynsection-0';
</script>
<script xlink:href="svgpan.js"/>
<svg id="graph" class="graph">
<g id="viewport">
<title>Filter.h</title>
<!-- Node0 -->
<g id="node1" class="node"><title>Node0</title>
<polygon fill="#bfbfbf" stroke="black" points="627.902,-368.5 627.902,-387.5 674.902,-387.5 674.902,-368.5 627.902,-368.5"/>
<text text-anchor="middle" x="651.402" y="-375.5" font-family="Helvetica,sans-Serif" font-size="10.00">Filter.h</text>
</g>
<!-- Node1 -->
<g id="node2" class="node"><title>Node1</title>
<g id="a_node2"><a xlink:href="Config_8h.html" target="_top" xlink:title="hydra/detail/Config.h">
<polygon fill="none" stroke="black" points="119.902,-84 119.902,-103 226.902,-103 226.902,-84 119.902,-84"/>
<text text-anchor="middle" x="173.402" y="-91" font-family="Helvetica,sans-Serif" font-size="10.00">hydra/detail/Config.h</text>
</a>
</g>
</g>
<!-- Node0&#45;&gt;Node1 -->
<g id="edge1" class="edge"><title>Node0&#45;&gt;Node1</title>
<path fill="none" stroke="midnightblue" d="M627.701,-375.762C527.213,-370.055 137.433,-343.137 48.402,-265 6.82905,-228.514 -17.2176,-189.671 15.402,-145 36.8718,-115.598 75.6686,-102.92 109.443,-97.6183"/>
<polygon fill="midnightblue" stroke="midnightblue" points="110.31,-101.032 119.739,-96.1995 109.354,-94.0975 110.31,-101.032"/>
</g>
<!-- Node4 -->
<g id="node5" class="node"><title>Node4</title>
<g id="a_node5"><a xlink:href="BackendPolicy_8h.html" target="_top" xlink:title="hydra/detail/BackendPolicy.h">
<polygon fill="none" stroke="black" points="380.902,-84 380.902,-103 523.902,-103 523.902,-84 380.902,-84"/>
<text text-anchor="middle" x="452.402" y="-91" font-family="Helvetica,sans-Serif" font-size="10.00">hydra/detail/BackendPolicy.h</text>
</a>
</g>
</g>
<!-- Node0&#45;&gt;Node4 -->
<g id="edge4" class="edge"><title>Node0&#45;&gt;Node4</title>
<path fill="none" stroke="midnightblue" d="M649.556,-368.411C641.295,-330.648 606.708,-179.72 574.402,-145 556.354,-125.604 529.736,-113.428 505.964,-105.906"/>
<polygon fill="midnightblue" stroke="midnightblue" points="506.913,-102.537 496.331,-103.056 504.927,-109.249 506.913,-102.537"/>
</g>
<!-- Node6 -->
<g id="node7" class="node"><title>Node6</title>
<g id="a_node7"><a xlink:href="Types_8h.html" target="_top" xlink:title="Common and useful typedefs. ">
<polygon fill="none" stroke="black" points="576.902,-84 576.902,-103 655.902,-103 655.902,-84 576.902,-84"/>
<text text-anchor="middle" x="616.402" y="-91" font-family="Helvetica,sans-Serif" font-size="10.00">hydra/Types.h</text>
</a>
</g>
</g>
<!-- Node0&#45;&gt;Node6 -->
<g id="edge6" class="edge"><title>Node0&#45;&gt;Node6</title>
<path fill="none" stroke="midnightblue" d="M650.84,-368.103C648.81,-337.153 641.231,-231.364 627.402,-145 625.689,-134.301 623.145,-122.46 620.934,-112.934"/>
<polygon fill="midnightblue" stroke="midnightblue" points="624.294,-111.934 618.563,-103.023 617.486,-113.563 624.294,-111.934"/>
</g>
<!-- Node7 -->
<g id="node8" class="node"><title>Node7</title>
<g id="a_node8"><a xlink:href="Tuple_8h.html" target="_top" xlink:title="hydra/Tuple.h">
<polygon fill="none" stroke="black" points="679.402,-307 679.402,-326 755.402,-326 755.402,-307 679.402,-307"/>
<text text-anchor="middle" x="717.402" y="-314" font-family="Helvetica,sans-Serif" font-size="10.00">hydra/Tuple.h</text>
</a>
</g>
</g>
<!-- Node0&#45;&gt;Node7 -->
<g id="edge7" class="edge"><title>Node0&#45;&gt;Node7</title>
<path fill="none" stroke="midnightblue" d="M660.858,-368.475C671.15,-359.197 687.818,-344.171 700.396,-332.831"/>
<polygon fill="midnightblue" stroke="midnightblue" points="702.88,-335.305 707.963,-326.009 698.192,-330.105 702.88,-335.305"/>
</g>
<!-- Node14 -->
<g id="node15" class="node"><title>Node14</title>
<g id="a_node15"><a xlink:href="GenericRange_8h.html" target="_top" xlink:title="hydra/GenericRange.h">
<polygon fill="none" stroke="black" points="299.402,-307 299.402,-326 413.402,-326 413.402,-307 299.402,-307"/>
<text text-anchor="middle" x="356.402" y="-314" font-family="Helvetica,sans-Serif" font-size="10.00">hydra/GenericRange.h</text>
</a>
</g>
</g>
<!-- Node0&#45;&gt;Node14 -->
<g id="edge14" class="edge"><title>Node0&#45;&gt;Node14</title>
<path fill="none" stroke="midnightblue" d="M627.76,-372.231C580.455,-362.69 473.167,-341.051 408.566,-328.021"/>
<polygon fill="midnightblue" stroke="midnightblue" points="409.075,-324.554 398.581,-326.007 407.691,-331.415 409.075,-324.554"/>
</g>
<!-- Node21 -->
<g id="node22" class="node"><title>Node21</title>
<polygon fill="none" stroke="#bfbfbf" points="773.402,-301.5 773.402,-331.5 877.402,-331.5 877.402,-301.5 773.402,-301.5"/>
<text text-anchor="start" x="781.402" y="-319.5" font-family="Helvetica,sans-Serif" font-size="10.00">hydra/detail/external</text>
<text text-anchor="middle" x="825.402" y="-308.5" font-family="Helvetica,sans-Serif" font-size="10.00">/thrust/partition.h</text>
</g>
<!-- Node0&#45;&gt;Node21 -->
<g id="edge32" class="edge"><title>Node0&#45;&gt;Node21</title>
<path fill="none" stroke="midnightblue" d="M675.231,-368.852C700.62,-360.17 741.582,-346.163 774.316,-334.969"/>
<polygon fill="midnightblue" stroke="midnightblue" points="775.855,-338.142 784.185,-331.594 773.59,-331.518 775.855,-338.142"/>
</g>
<!-- Node22 -->
<g id="node23" class="node"><title>Node22</title>
<g id="a_node23"><a xlink:href="Filter_8inl.html" target="_top" xlink:title="hydra/detail/Filter.inl">
<polygon fill="none" stroke="black" points="895.402,-307 895.402,-326 999.402,-326 999.402,-307 895.402,-307"/>
<text text-anchor="middle" x="947.402" y="-314" font-family="Helvetica,sans-Serif" font-size="10.00">hydra/detail/Filter.inl</text>
</a>
</g>
</g>
<!-- Node0&#45;&gt;Node22 -->
<g id="edge33" class="edge"><title>Node0&#45;&gt;Node22</title>
<path fill="none" stroke="midnightblue" d="M675.155,-372.81C717.647,-365.234 809.434,-348.509 886.402,-332 891.724,-330.859 897.294,-329.61 902.812,-328.339"/>
<polygon fill="midnightblue" stroke="midnightblue" points="903.682,-331.73 912.623,-326.047 902.089,-324.914 903.682,-331.73"/>
</g>
<!-- Node2 -->
<g id="node3" class="node"><title>Node2</title>
<polygon fill="none" stroke="#bfbfbf" points="181.402,-6 181.402,-36 289.402,-36 289.402,-6 181.402,-6"/>
<text text-anchor="start" x="189.402" y="-24" font-family="Helvetica,sans-Serif" font-size="10.00">hydra/detail/external</text>
<text text-anchor="middle" x="235.402" y="-13" font-family="Helvetica,sans-Serif" font-size="10.00">/thrust/detail/config.h</text>
</g>
<!-- Node1&#45;&gt;Node2 -->
<g id="edge2" class="edge"><title>Node1&#45;&gt;Node2</title>
<path fill="none" stroke="midnightblue" d="M181.004,-83.8553C189.762,-73.8968 204.477,-57.1651 216.395,-43.6129"/>
<polygon fill="midnightblue" stroke="midnightblue" points="219.047,-45.8968 223.023,-36.0762 213.791,-41.2741 219.047,-45.8968"/>
</g>
<!-- Node3 -->
<g id="node4" class="node"><title>Node3</title>
<polygon fill="none" stroke="#bfbfbf" points="59.402,-0.5 59.402,-41.5 163.402,-41.5 163.402,-0.5 59.402,-0.5"/>
<text text-anchor="start" x="67.402" y="-29.5" font-family="Helvetica,sans-Serif" font-size="10.00">hydra/detail/external</text>
<text text-anchor="start" x="67.402" y="-18.5" font-family="Helvetica,sans-Serif" font-size="10.00">/thrust/detail/config</text>
<text text-anchor="middle" x="111.402" y="-7.5" font-family="Helvetica,sans-Serif" font-size="10.00">/host_device.h</text>
</g>
<!-- Node1&#45;&gt;Node3 -->
<g id="edge3" class="edge"><title>Node1&#45;&gt;Node3</title>
<path fill="none" stroke="midnightblue" d="M165.8,-83.8553C158.266,-75.2894 146.326,-61.7122 135.549,-49.4576"/>
<polygon fill="midnightblue" stroke="midnightblue" points="137.925,-46.8595 128.693,-41.6616 132.669,-51.4822 137.925,-46.8595"/>
</g>
<!-- Node5 -->
<g id="node6" class="node"><title>Node5</title>
<polygon fill="none" stroke="#bfbfbf" points="388.402,-6 388.402,-36 516.402,-36 516.402,-6 388.402,-6"/>
<text text-anchor="start" x="396.402" y="-24" font-family="Helvetica,sans-Serif" font-size="10.00">hydra/detail/external</text>
<text text-anchor="middle" x="452.402" y="-13" font-family="Helvetica,sans-Serif" font-size="10.00">/thrust/execution_policy.h</text>
</g>
<!-- Node4&#45;&gt;Node5 -->
<g id="edge5" class="edge"><title>Node4&#45;&gt;Node5</title>
<path fill="none" stroke="midnightblue" d="M452.402,-83.8553C452.402,-74.5483 452.402,-59.3253 452.402,-46.3107"/>
<polygon fill="midnightblue" stroke="midnightblue" points="455.902,-46.0761 452.402,-36.0762 448.902,-46.0762 455.902,-46.0761"/>
</g>
<!-- Node8 -->
<g id="node9" class="node"><title>Node8</title>
<polygon fill="none" stroke="#bfbfbf" points="679.402,-234.5 679.402,-253.5 719.402,-253.5 719.402,-234.5 679.402,-234.5"/>
<text text-anchor="middle" x="699.402" y="-241.5" font-family="Helvetica,sans-Serif" font-size="10.00">utility</text>
</g>
<!-- Node7&#45;&gt;Node8 -->
<g id="edge8" class="edge"><title>Node7&#45;&gt;Node8</title>
<path fill="none" stroke="midnightblue" d="M715.195,-306.855C712.469,-296.179 707.755,-277.717 704.185,-263.734"/>
<polygon fill="midnightblue" stroke="midnightblue" points="707.492,-262.539 701.627,-253.715 700.71,-264.27 707.492,-262.539"/>
</g>
<!-- Node9 -->
<g id="node10" class="node"><title>Node9</title>
<polygon fill="none" stroke="#bfbfbf" points="737.402,-229 737.402,-259 841.402,-259 841.402,-229 737.402,-229"/>
<text text-anchor="start" x="745.402" y="-247" font-family="Helvetica,sans-Serif" font-size="10.00">hydra/detail/external</text>
<text text-anchor="middle" x="789.402" y="-236" font-family="Helvetica,sans-Serif" font-size="10.00">/thrust/tuple.h</text>
</g>
<!-- Node7&#45;&gt;Node9 -->
<g id="edge9" class="edge"><title>Node7&#45;&gt;Node9</title>
<path fill="none" stroke="midnightblue" d="M726.231,-306.855C736.496,-296.804 753.809,-279.852 767.717,-266.234"/>
<polygon fill="midnightblue" stroke="midnightblue" points="770.33,-268.573 775.026,-259.076 765.433,-263.572 770.33,-268.573"/>
</g>
<!-- Node10 -->
<g id="node11" class="node"><title>Node10</title>
<polygon fill="none" stroke="#bfbfbf" points="859.402,-223.5 859.402,-264.5 963.402,-264.5 963.402,-223.5 859.402,-223.5"/>
<text text-anchor="start" x="867.402" y="-252.5" font-family="Helvetica,sans-Serif" font-size="10.00">hydra/detail/external</text>
<text text-anchor="start" x="867.402" y="-241.5" font-family="Helvetica,sans-Serif" font-size="10.00">/thrust/detail/tuple</text>
<text text-anchor="middle" x="911.402" y="-230.5" font-family="Helvetica,sans-Serif" font-size="10.00">/tuple.h</text>
</g>
<!-- Node7&#45;&gt;Node10 -->
<g id="edge10" class="edge"><title>Node7&#45;&gt;Node10</title>
<path fill="none" stroke="midnightblue" d="M740.803,-306.996C767.539,-297.28 812.37,-280.988 849.367,-267.544"/>
<polygon fill="midnightblue" stroke="midnightblue" points="850.876,-270.719 859.08,-264.014 848.485,-264.14 850.876,-270.719"/>
</g>
<!-- Node11 -->
<g id="node12" class="node"><title>Node11</title>
<g id="a_node12"><a xlink:href="Generic_8h.html" target="_top" xlink:title="hydra/detail/utility\l/Generic.h">
<polygon fill="none" stroke="black" points="981.902,-229 981.902,-259 1074.9,-259 1074.9,-229 981.902,-229"/>
<text text-anchor="start" x="989.902" y="-247" font-family="Helvetica,sans-Serif" font-size="10.00">hydra/detail/utility</text>
<text text-anchor="middle" x="1028.4" y="-236" font-family="Helvetica,sans-Serif" font-size="10.00">/Generic.h</text>
</a>
</g>
</g>
<!-- Node7&#45;&gt;Node11 -->
<g id="edge11" class="edge"><title>Node7&#45;&gt;Node11</title>
<path fill="none" stroke="midnightblue" d="M743.096,-306.924C749.969,-304.808 757.427,-302.672 764.402,-301 855.635,-279.126 881.669,-288.865 972.402,-265 975.597,-264.16 978.868,-263.217 982.147,-262.21"/>
<polygon fill="midnightblue" stroke="midnightblue" points="983.501,-265.451 991.935,-259.039 981.343,-258.792 983.501,-265.451"/>
</g>
<!-- Node12 -->
<g id="node13" class="node"><title>Node12</title>
<polygon fill="none" stroke="#bfbfbf" points="963.402,-156.5 963.402,-175.5 1025.4,-175.5 1025.4,-156.5 963.402,-156.5"/>
<text text-anchor="middle" x="994.402" y="-163.5" font-family="Helvetica,sans-Serif" font-size="10.00">type_traits</text>
</g>
<!-- Node11&#45;&gt;Node12 -->
<g id="edge12" class="edge"><title>Node11&#45;&gt;Node12</title>
<path fill="none" stroke="midnightblue" d="M1022.01,-228.705C1016.43,-216.233 1008.31,-198.088 1002.32,-184.701"/>
<polygon fill="midnightblue" stroke="midnightblue" points="1005.51,-183.262 998.233,-175.564 999.122,-186.121 1005.51,-183.262"/>
</g>
<!-- Node13 -->
<g id="node14" class="node"><title>Node13</title>
<polygon fill="none" stroke="#bfbfbf" points="1043.4,-156.5 1043.4,-175.5 1081.4,-175.5 1081.4,-156.5 1043.4,-156.5"/>
<text text-anchor="middle" x="1062.4" y="-163.5" font-family="Helvetica,sans-Serif" font-size="10.00">array</text>
</g>
<!-- Node11&#45;&gt;Node13 -->
<g id="edge13" class="edge"><title>Node11&#45;&gt;Node13</title>
<path fill="none" stroke="midnightblue" d="M1034.8,-228.705C1040.38,-216.233 1048.49,-198.088 1054.48,-184.701"/>
<polygon fill="midnightblue" stroke="midnightblue" points="1057.68,-186.121 1058.57,-175.564 1051.29,-183.262 1057.68,-186.121"/>
</g>
<!-- Node14&#45;&gt;Node1 -->
<g id="edge15" class="edge"><title>Node14&#45;&gt;Node1</title>
<path fill="none" stroke="midnightblue" d="M299.323,-314.87C217.809,-310.351 72.7736,-287.822 26.402,-187 18.602,-170.041 15.5569,-160.193 26.402,-145 45.3472,-118.46 79.1605,-105.723 109.584,-99.672"/>
<polygon fill="midnightblue" stroke="midnightblue" points="110.512,-103.062 119.745,-97.866 109.287,-96.17 110.512,-103.062"/>
</g>
<!-- Node14&#45;&gt;Node4 -->
<g id="edge16" class="edge"><title>Node14&#45;&gt;Node4</title>
<path fill="none" stroke="midnightblue" d="M394.435,-306.932C422.971,-299.222 462.012,-285.849 491.402,-265 528.207,-238.89 541.04,-229.431 556.402,-187 562.757,-169.448 566.308,-160.822 556.402,-145 544.403,-125.834 522.823,-113.757 502.42,-106.241"/>
<polygon fill="midnightblue" stroke="midnightblue" points="503.451,-102.895 492.857,-103.004 501.207,-109.526 503.451,-102.895"/>
</g>
<!-- Node15 -->
<g id="node16" class="node"><title>Node15</title>
<g id="a_node16"><a xlink:href="Distance_8h.html" target="_top" xlink:title="hydra/Distance.h">
<polygon fill="none" stroke="black" points="277.902,-156.5 277.902,-175.5 368.902,-175.5 368.902,-156.5 277.902,-156.5"/>
<text text-anchor="middle" x="323.402" y="-163.5" font-family="Helvetica,sans-Serif" font-size="10.00">hydra/Distance.h</text>
</a>
</g>
</g>
<!-- Node14&#45;&gt;Node15 -->
<g id="edge17" class="edge"><title>Node14&#45;&gt;Node15</title>
<path fill="none" stroke="midnightblue" d="M348.579,-307C340.468,-297.557 328.304,-281.462 323.402,-265 315.45,-238.295 317.672,-205.652 320.306,-185.596"/>
<polygon fill="midnightblue" stroke="midnightblue" points="323.779,-186.031 321.789,-175.625 316.856,-185.001 323.779,-186.031"/>
</g>
<!-- Node17 -->
<g id="node18" class="node"><title>Node17</title>
<g id="a_node18"><a xlink:href="GenericRange1_8inl.html" target="_top" xlink:title="hydra/detail/GenericRange1.inl">
<polygon fill="none" stroke="black" points="126.402,-234.5 126.402,-253.5 276.402,-253.5 276.402,-234.5 126.402,-234.5"/>
<text text-anchor="middle" x="201.402" y="-241.5" font-family="Helvetica,sans-Serif" font-size="10.00">hydra/detail/GenericRange1.inl</text>
</a>
</g>
</g>
<!-- Node14&#45;&gt;Node17 -->
<g id="edge22" class="edge"><title>Node14&#45;&gt;Node17</title>
<path fill="none" stroke="midnightblue" d="M337.705,-306.996C310.823,-294.769 261.042,-272.126 229.656,-257.851"/>
<polygon fill="midnightblue" stroke="midnightblue" points="230.717,-254.488 220.165,-253.534 227.819,-260.86 230.717,-254.488"/>
</g>
<!-- Node19 -->
<g id="node20" class="node"><title>Node19</title>
<g id="a_node20"><a xlink:href="GenericRange2_8inl.html" target="_top" xlink:title="hydra/detail/GenericRange2.inl">
<polygon fill="none" stroke="black" points="332.402,-234.5 332.402,-253.5 482.402,-253.5 482.402,-234.5 332.402,-234.5"/>
<text text-anchor="middle" x="407.402" y="-241.5" font-family="Helvetica,sans-Serif" font-size="10.00">hydra/detail/GenericRange2.inl</text>
</a>
</g>
</g>
<!-- Node14&#45;&gt;Node19 -->
<g id="edge27" class="edge"><title>Node14&#45;&gt;Node19</title>
<path fill="none" stroke="midnightblue" d="M362.656,-306.855C370.685,-295.756 384.801,-276.242 395.035,-262.095"/>
<polygon fill="midnightblue" stroke="midnightblue" points="398.072,-263.869 401.097,-253.715 392.4,-259.766 398.072,-263.869"/>
</g>
<!-- Node15&#45;&gt;Node1 -->
<g id="edge18" class="edge"><title>Node15&#45;&gt;Node1</title>
<path fill="none" stroke="midnightblue" d="M305.309,-156.496C279.293,-144.269 231.118,-121.626 200.745,-107.351"/>
<polygon fill="midnightblue" stroke="midnightblue" points="202.099,-104.12 191.56,-103.034 199.121,-110.455 202.099,-104.12"/>
</g>
<!-- Node15&#45;&gt;Node4 -->
<g id="edge19" class="edge"><title>Node15&#45;&gt;Node4</title>
<path fill="none" stroke="midnightblue" d="M338.962,-156.496C361.045,-144.428 401.693,-122.213 427.862,-107.912"/>
<polygon fill="midnightblue" stroke="midnightblue" points="429.69,-110.901 436.786,-103.034 426.333,-104.759 429.69,-110.901"/>
</g>
<!-- Node15&#45;&gt;Node6 -->
<g id="edge20" class="edge"><title>Node15&#45;&gt;Node6</title>
<path fill="none" stroke="midnightblue" d="M358.745,-156.496C411.871,-143.713 512.308,-119.547 570.86,-105.458"/>
<polygon fill="midnightblue" stroke="midnightblue" points="572.03,-108.776 580.934,-103.034 570.393,-101.971 572.03,-108.776"/>
</g>
<!-- Node16 -->
<g id="node17" class="node"><title>Node16</title>
<polygon fill="none" stroke="#bfbfbf" points="258.402,-78.5 258.402,-108.5 362.402,-108.5 362.402,-78.5 258.402,-78.5"/>
<text text-anchor="start" x="266.402" y="-96.5" font-family="Helvetica,sans-Serif" font-size="10.00">hydra/detail/external</text>
<text text-anchor="middle" x="310.402" y="-85.5" font-family="Helvetica,sans-Serif" font-size="10.00">/thrust/distance.h</text>
</g>
<!-- Node15&#45;&gt;Node16 -->
<g id="edge21" class="edge"><title>Node15&#45;&gt;Node16</title>
<path fill="none" stroke="midnightblue" d="M321.808,-156.355C320.075,-146.955 317.228,-131.52 314.813,-118.421"/>
<polygon fill="midnightblue" stroke="midnightblue" points="318.253,-117.776 312.998,-108.576 311.369,-119.045 318.253,-117.776"/>
</g>
<!-- Node17&#45;&gt;Node1 -->
<g id="edge23" class="edge"><title>Node17&#45;&gt;Node1</title>
<path fill="none" stroke="midnightblue" d="M199.734,-234.155C195.269,-210.473 182.969,-145.24 176.893,-113.013"/>
<polygon fill="midnightblue" stroke="midnightblue" points="180.318,-112.291 175.026,-103.112 173.439,-113.588 180.318,-112.291"/>
</g>
<!-- Node17&#45;&gt;Node4 -->
<g id="edge24" class="edge"><title>Node17&#45;&gt;Node4</title>
<path fill="none" stroke="midnightblue" d="M204.8,-234.419C212.826,-215.285 234.842,-168.933 268.402,-145 289.194,-130.172 351.687,-114.887 398.107,-105.074"/>
<polygon fill="midnightblue" stroke="midnightblue" points="398.966,-108.47 408.042,-103.004 397.539,-101.617 398.966,-108.47"/>
</g>
<!-- Node17&#45;&gt;Node15 -->
<g id="edge25" class="edge"><title>Node17&#45;&gt;Node15</title>
<path fill="none" stroke="midnightblue" d="M215.397,-234.282C236.264,-221.282 275.753,-196.683 300.763,-181.103"/>
<polygon fill="midnightblue" stroke="midnightblue" points="302.933,-183.875 309.57,-175.616 299.232,-177.933 302.933,-183.875"/>
</g>
<!-- Node18 -->
<g id="node19" class="node"><title>Node18</title>
<polygon fill="none" stroke="#bfbfbf" points="35.402,-145.5 35.402,-186.5 145.402,-186.5 145.402,-145.5 35.402,-145.5"/>
<text text-anchor="start" x="43.402" y="-174.5" font-family="Helvetica,sans-Serif" font-size="10.00">hydra/detail/external</text>
<text text-anchor="start" x="43.402" y="-163.5" font-family="Helvetica,sans-Serif" font-size="10.00">/thrust/iterator/iterator</text>
<text text-anchor="middle" x="90.402" y="-152.5" font-family="Helvetica,sans-Serif" font-size="10.00">_traits.h</text>
</g>
<!-- Node17&#45;&gt;Node18 -->
<g id="edge26" class="edge"><title>Node17&#45;&gt;Node18</title>
<path fill="none" stroke="midnightblue" d="M188.669,-234.282C173.854,-224.138 148.724,-206.932 127.586,-192.459"/>
<polygon fill="midnightblue" stroke="midnightblue" points="129.342,-189.42 119.114,-186.658 125.388,-195.196 129.342,-189.42"/>
</g>
<!-- Node19&#45;&gt;Node1 -->
<g id="edge28" class="edge"><title>Node19&#45;&gt;Node1</title>
<path fill="none" stroke="midnightblue" d="M376.75,-234.444C347.434,-225.412 302.733,-209.371 268.402,-187 235.157,-165.336 203.611,-130.908 186.548,-110.728"/>
<polygon fill="midnightblue" stroke="midnightblue" points="189.239,-108.49 180.16,-103.03 183.853,-112.96 189.239,-108.49"/>
</g>
<!-- Node19&#45;&gt;Node4 -->
<g id="edge29" class="edge"><title>Node19&#45;&gt;Node4</title>
<path fill="none" stroke="midnightblue" d="M406.717,-234.279C405.655,-216.746 404.808,-176.234 416.402,-145 421.049,-132.48 429.644,-120.238 437.27,-110.943"/>
<polygon fill="midnightblue" stroke="midnightblue" points="439.973,-113.168 443.86,-103.312 434.675,-108.593 439.973,-113.168"/>
</g>
<!-- Node19&#45;&gt;Node15 -->
<g id="edge30" class="edge"><title>Node19&#45;&gt;Node15</title>
<path fill="none" stroke="midnightblue" d="M397.766,-234.282C383.841,-221.683 357.874,-198.189 340.61,-182.569"/>
<polygon fill="midnightblue" stroke="midnightblue" points="342.689,-179.73 332.926,-175.616 337.993,-184.921 342.689,-179.73"/>
</g>
<!-- Node20 -->
<g id="node21" class="node"><title>Node20</title>
<polygon fill="none" stroke="#bfbfbf" points="425.402,-145.5 425.402,-186.5 547.402,-186.5 547.402,-145.5 425.402,-145.5"/>
<text text-anchor="start" x="433.402" y="-174.5" font-family="Helvetica,sans-Serif" font-size="10.00">hydra/detail/external</text>
<text text-anchor="start" x="433.402" y="-163.5" font-family="Helvetica,sans-Serif" font-size="10.00">/thrust/iterator/transform</text>
<text text-anchor="middle" x="486.402" y="-152.5" font-family="Helvetica,sans-Serif" font-size="10.00">_iterator.h</text>
</g>
<!-- Node19&#45;&gt;Node20 -->
<g id="edge31" class="edge"><title>Node19&#45;&gt;Node20</title>
<path fill="none" stroke="midnightblue" d="M416.464,-234.282C426.68,-224.454 443.788,-207.996 458.526,-193.818"/>
<polygon fill="midnightblue" stroke="midnightblue" points="461.188,-196.114 465.968,-186.658 456.335,-191.069 461.188,-196.114"/>
</g>
</g>
</svg>
        <g id="navigator" transform="translate(0 0)" fill="#404254">
                <rect fill="#f2f5e9" fill-opacity="0.5" stroke="#606060" stroke-width=".5" x="0" y="0" width="60" height="60"/>
                <use id="zoomplus" xlink:href="#zoomPlus" x="17" y="9" onmousedown="handleZoom(evt,'in')"/>
                <use id="zoomminus" xlink:href="#zoomMin" x="42" y="9" onmousedown="handleZoom(evt,'out')"/>
                <use id="reset" xlink:href="#resetDef" x="30" y="36" onmousedown="handleReset()"/>
                <g id="arrowUp" xlink:href="#dirArrow" transform="translate(30 24)" onmousedown="handlePan(0,-1)">
                  <use xlink:href="#rim" fill="#404040">
                        <set attributeName="fill" to="#808080" begin="arrowUp.mouseover" end="arrowUp.mouseout"/>
                  </use>
                  <path fill="none" stroke="white" stroke-width="1.5" d="M0,-3.0v7 M-2.5,-0.5L0,-3.0L2.5,-0.5"/>
                </g>
                <g id="arrowRight" xlink:href="#dirArrow" transform="rotate(90) translate(36 -43)" onmousedown="handlePan(1,0)">
                  <use xlink:href="#rim" fill="#404040">
                        <set attributeName="fill" to="#808080" begin="arrowRight.mouseover" end="arrowRight.mouseout"/>
                  </use>
                  <path fill="none" stroke="white" stroke-width="1.5" d="M0,-3.0v7 M-2.5,-0.5L0,-3.0L2.5,-0.5"/>
                </g>
                <g id="arrowDown" xlink:href="#dirArrow" transform="rotate(180) translate(-30 -48)" onmousedown="handlePan(0,1)">
                  <use xlink:href="#rim" fill="#404040">
                        <set attributeName="fill" to="#808080" begin="arrowDown.mouseover" end="arrowDown.mouseout"/>
                  </use>
                  <path fill="none" stroke="white" stroke-width="1.5" d="M0,-3.0v7 M-2.5,-0.5L0,-3.0L2.5,-0.5"/>
                </g>
                <g id="arrowLeft" xlink:href="#dirArrow" transform="rotate(270) translate(-36 17)" onmousedown="handlePan(-1,0)">
                  <use xlink:href="#rim" fill="#404040">
                        <set attributeName="fill" to="#808080" begin="arrowLeft.mouseover" end="arrowLeft.mouseout"/>
                  </use>
                  <path fill="none" stroke="white" stroke-width="1.5" d="M0,-3.0v7 M-2.5,-0.5L0,-3.0L2.5,-0.5"/>
                </g>
        </g>
        <svg viewBox="0 0 15 15" width="100%" height="30px" preserveAspectRatio="xMaxYMin meet">
         <g id="arrow_out" transform="scale(0.3 0.3)">
          <a xlink:href="Filter_8h__incl_org.svg" target="_base">
           <rect id="button" ry="5" rx="5" y="6" x="6" height="38" width="38"
                fill="#f2f5e9" fill-opacity="0.5" stroke="#606060" stroke-width="1.0"/>
           <path id="arrow"
             d="M 11.500037,31.436501 C 11.940474,20.09759 22.043105,11.32322 32.158766,21.979434 L 37.068811,17.246167 C 37.068811,17.246167 37.088388,32 37.088388,32 L 22.160133,31.978069 C 22.160133,31.978069 26.997745,27.140456 26.997745,27.140456 C 18.528582,18.264221 13.291696,25.230495 11.500037,31.436501 z"
             style="fill:#404040;"/>
          </a>
         </g>
        </svg>
</svg>
