<?xml version="1.0" encoding="UTF-8" standalone="no"?>
<!DOCTYPE svg PUBLIC "-//W3C//DTD SVG 1.1//EN"
 "http://www.w3.org/Graphics/SVG/1.1/DTD/svg11.dtd">
<!-- Generated by graphviz version 2.42.4 (0)
 -->
<!-- Title: FindUniqueType.h Pages: 1 -->
<svg width="182pt" height="95pt"
 viewBox="0.00 0.00 181.50 95.00" xmlns="http://www.w3.org/2000/svg" xmlns:xlink="http://www.w3.org/1999/xlink">
<g id="graph0" class="graph" transform="scale(1 1) rotate(0) translate(4 91)">
<title>FindUniqueType.h</title>
<!-- Node0 -->
<g id="node1" class="node">
<title>Node0</title>
<polygon fill="#bfbfbf" stroke="black" points="31.5,-67.5 31.5,-86.5 126.5,-86.5 126.5,-67.5 31.5,-67.5"/>
<text text-anchor="middle" x="79" y="-74.5" font-family="Helvetica,sans-Serif" font-size="10.00">FindUniqueType.h</text>
</g>
<!-- Node1 -->
<g id="node2" class="node">
<title>Node1</title>
<polygon fill="none" stroke="#bfbfbf" points="0,-6 0,-25 62,-25 62,-6 0,-6"/>
<text text-anchor="middle" x="31" y="-13" font-family="Helvetica,sans-Serif" font-size="10.00">type_traits</text>
</g>
<!-- Node0&#45;&gt;Node1 -->
<g id="edge1" class="edge">
<title>Node0&#45;&gt;Node1</title>
<path fill="none" stroke="midnightblue" d="M72.12,-67.48C64.85,-58.46 53.2,-44.02 44.16,-32.81"/>
<polygon fill="midnightblue" stroke="midnightblue" points="46.87,-30.59 37.86,-25.01 41.42,-34.99 46.87,-30.59"/>
</g>
<!-- Node2 -->
<g id="node3" class="node">
<title>Node2</title>
<g id="a_node3"><a xlink:href="StaticAssert_8h.html" target="_top" xlink:title="hydra/detail/utility\l/StaticAssert.h">
<polygon fill="none" stroke="black" points="80.5,-0.5 80.5,-30.5 173.5,-30.5 173.5,-0.5 80.5,-0.5"/>
<text text-anchor="start" x="88.5" y="-18.5" font-family="Helvetica,sans-Serif" font-size="10.00">hydra/detail/utility</text>
<text text-anchor="middle" x="127" y="-7.5" font-family="Helvetica,sans-Serif" font-size="10.00">/StaticAssert.h</text>
</a>
</g>
</g>
<!-- Node0&#45;&gt;Node2 -->
<g id="edge2" class="edge">
<title>Node0&#45;&gt;Node2</title>
<path fill="none" stroke="midnightblue" d="M85.88,-67.48C91.95,-59.94 101.08,-48.63 109.2,-38.57"/>
<polygon fill="midnightblue" stroke="midnightblue" points="112.13,-40.5 115.69,-30.52 106.68,-36.11 112.13,-40.5"/>
</g>
</g>
</svg>
