<?xml version="1.0" encoding="UTF-8" standalone="no"?>
<!DOCTYPE svg PUBLIC "-//W3C//DTD SVG 1.1//EN"
 "http://www.w3.org/Graphics/SVG/1.1/DTD/svg11.dtd">
<!-- Generated by graphviz version 2.40.1 (20161225.0304)
 -->
<!-- Title: ForEach.inl Pages: 1 -->
<svg width="673pt" height="173pt"
 viewBox="0.00 0.00 673.00 173.00" xmlns="http://www.w3.org/2000/svg" xmlns:xlink="http://www.w3.org/1999/xlink">
<g id="graph0" class="graph" transform="scale(1 1) rotate(0) translate(4 169)">
<title>ForEach.inl</title>
<!-- Node0 -->
<g id="node1" class="node">
<title>Node0</title>
<polygon fill="#bfbfbf" stroke="#000000" points="412,-145.5 412,-164.5 478,-164.5 478,-145.5 412,-145.5"/>
<text text-anchor="middle" x="445" y="-152.5" font-family="Helvetica,sans-Serif" font-size="10.00" fill="#000000">ForEach.inl</text>
</g>
<!-- Node1 -->
<g id="node2" class="node">
<title>Node1</title>
<g id="a_node2"><a xlink:href="Config_8h.html" target="_top" xlink:title="hydra/detail/Config.h">
<polygon fill="none" stroke="#000000" points="120,-84 120,-103 226,-103 226,-84 120,-84"/>
<text text-anchor="middle" x="173" y="-91" font-family="Helvetica,sans-Serif" font-size="10.00" fill="#000000">hydra/detail/Config.h</text>
</a>
</g>
</g>
<!-- Node0&#45;&gt;Node1 -->
<g id="edge1" class="edge">
<title>Node0&#45;&gt;Node1</title>
<path fill="none" stroke="#191970" d="M411.6412,-147.9225C370.3404,-139.0991 297.8742,-123.4183 236,-109 231.2453,-107.892 226.2947,-106.7149 221.3507,-105.5238"/>
<polygon fill="#191970" stroke="#191970" points="221.8206,-102.0363 211.277,-103.077 220.1684,-108.8385 221.8206,-102.0363"/>
</g>
<!-- Node4 -->
<g id="node5" class="node">
<title>Node4</title>
<g id="a_node5"><a xlink:href="BackendPolicy_8h.html" target="_top" xlink:title="hydra/detail/BackendPolicy.h">
<polygon fill="none" stroke="#000000" points="244.5,-84 244.5,-103 387.5,-103 387.5,-84 244.5,-84"/>
<text text-anchor="middle" x="316" y="-91" font-family="Helvetica,sans-Serif" font-size="10.00" fill="#000000">hydra/detail/BackendPolicy.h</text>
</a>
</g>
</g>
<!-- Node0&#45;&gt;Node4 -->
<g id="edge4" class="edge">
<title>Node0&#45;&gt;Node4</title>
<path fill="none" stroke="#191970" d="M424.8438,-145.3906C403.449,-135.1908 369.438,-118.9763 345.1298,-107.3875"/>
<polygon fill="#191970" stroke="#191970" points="346.5476,-104.186 336.0147,-103.0419 343.5352,-110.5047 346.5476,-104.186"/>
</g>
<!-- Node6 -->
<g id="node7" class="node">
<title>Node6</title>
<g id="a_node7"><a xlink:href="Types_8h.html" target="_top" xlink:title="Common and useful typedefs. ">
<polygon fill="none" stroke="#000000" points="405.5,-84 405.5,-103 484.5,-103 484.5,-84 405.5,-84"/>
<text text-anchor="middle" x="445" y="-91" font-family="Helvetica,sans-Serif" font-size="10.00" fill="#000000">hydra/Types.h</text>
</a>
</g>
</g>
<!-- Node0&#45;&gt;Node6 -->
<g id="edge6" class="edge">
<title>Node0&#45;&gt;Node6</title>
<path fill="none" stroke="#191970" d="M445,-145.3906C445,-136.8657 445,-124.1392 445,-113.4235"/>
<polygon fill="#191970" stroke="#191970" points="448.5001,-113.2448 445,-103.2449 441.5001,-113.2449 448.5001,-113.2448"/>
</g>
<!-- Node7 -->
<g id="node8" class="node">
<title>Node7</title>
<polygon fill="none" stroke="#bfbfbf" points="503,-78.5 503,-108.5 607,-108.5 607,-78.5 503,-78.5"/>
<text text-anchor="start" x="511" y="-96.5" font-family="Helvetica,sans-Serif" font-size="10.00" fill="#000000">hydra/detail/external</text>
<text text-anchor="middle" x="555" y="-85.5" font-family="Helvetica,sans-Serif" font-size="10.00" fill="#000000">/thrust/for_each.h</text>
</g>
<!-- Node0&#45;&gt;Node7 -->
<g id="edge7" class="edge">
<title>Node0&#45;&gt;Node7</title>
<path fill="none" stroke="#191970" d="M462.1875,-145.3906C477.4193,-136.8747 500.1503,-124.166 519.304,-113.4573"/>
<polygon fill="#191970" stroke="#191970" points="521.0705,-116.4796 528.091,-108.5446 517.6545,-110.3697 521.0705,-116.4796"/>
</g>
<!-- Node8 -->
<g id="node9" class="node">
<title>Node8</title>
<polygon fill="none" stroke="#bfbfbf" points="625,-84 625,-103 665,-103 665,-84 625,-84"/>
<text text-anchor="middle" x="645" y="-91" font-family="Helvetica,sans-Serif" font-size="10.00" fill="#000000">utility</text>
</g>
<!-- Node0&#45;&gt;Node8 -->
<g id="edge8" class="edge">
<title>Node0&#45;&gt;Node8</title>
<path fill="none" stroke="#191970" d="M478.1801,-148.4301C513.1675,-140.9625 569.5478,-127.3825 616,-109 617.1943,-108.5274 618.4028,-108.0181 619.6136,-107.4822"/>
<polygon fill="#191970" stroke="#191970" points="621.2974,-110.5551 628.7476,-103.0221 618.2259,-104.2649 621.2974,-110.5551"/>
</g>
<!-- Node2 -->
<g id="node3" class="node">
<title>Node2</title>
<polygon fill="none" stroke="#bfbfbf" points="0,-6 0,-36 108,-36 108,-6 0,-6"/>
<text text-anchor="start" x="8" y="-24" font-family="Helvetica,sans-Serif" font-size="10.00" fill="#000000">hydra/detail/external</text>
<text text-anchor="middle" x="54" y="-13" font-family="Helvetica,sans-Serif" font-size="10.00" fill="#000000">/thrust/detail/config.h</text>
</g>
<!-- Node1&#45;&gt;Node2 -->
<g id="edge2" class="edge">
<title>Node1&#45;&gt;Node2</title>
<path fill="none" stroke="#191970" d="M156.9511,-83.7223C139.253,-72.9399 110.2775,-55.2867 87.5679,-41.451"/>
<polygon fill="#191970" stroke="#191970" points="89.2574,-38.382 78.8965,-36.168 85.6154,-44.3599 89.2574,-38.382"/>
</g>
<!-- Node3 -->
<g id="node4" class="node">
<title>Node3</title>
<polygon fill="none" stroke="#bfbfbf" points="126,-.5 126,-41.5 230,-41.5 230,-.5 126,-.5"/>
<text text-anchor="start" x="134" y="-29.5" font-family="Helvetica,sans-Serif" font-size="10.00" fill="#000000">hydra/detail/external</text>
<text text-anchor="start" x="134" y="-18.5" font-family="Helvetica,sans-Serif" font-size="10.00" fill="#000000">/thrust/detail/config</text>
<text text-anchor="middle" x="178" y="-7.5" font-family="Helvetica,sans-Serif" font-size="10.00" fill="#000000">/host_device.h</text>
</g>
<!-- Node1&#45;&gt;Node3 -->
<g id="edge3" class="edge">
<title>Node1&#45;&gt;Node3</title>
<path fill="none" stroke="#191970" d="M173.6743,-83.7223C174.2417,-75.4957 175.0849,-63.2695 175.8765,-51.7907"/>
<polygon fill="#191970" stroke="#191970" points="179.3832,-51.8124 176.5796,-41.5953 172.3998,-51.3307 179.3832,-51.8124"/>
</g>
<!-- Node5 -->
<g id="node6" class="node">
<title>Node5</title>
<polygon fill="none" stroke="#bfbfbf" points="252,-6 252,-36 380,-36 380,-6 252,-6"/>
<text text-anchor="start" x="260" y="-24" font-family="Helvetica,sans-Serif" font-size="10.00" fill="#000000">hydra/detail/external</text>
<text text-anchor="middle" x="316" y="-13" font-family="Helvetica,sans-Serif" font-size="10.00" fill="#000000">/thrust/execution_policy.h</text>
</g>
<!-- Node4&#45;&gt;Node5 -->
<g id="edge5" class="edge">
<title>Node4&#45;&gt;Node5</title>
<path fill="none" stroke="#191970" d="M316,-83.7223C316,-74.1803 316,-59.2575 316,-46.3615"/>
<polygon fill="#191970" stroke="#191970" points="319.5001,-46.168 316,-36.168 312.5001,-46.1681 319.5001,-46.168"/>
</g>
</g>
</svg>
