<?xml version="1.0" encoding="UTF-8" standalone="no"?>
<!DOCTYPE svg PUBLIC "-//W3C//DTD SVG 1.1//EN"
 "http://www.w3.org/Graphics/SVG/1.1/DTD/svg11.dtd">
<!-- Generated by graphviz version 5.0.0 (0)
 -->
<!-- Title: GaussKronrodAdaptiveQuadrature.inl Pages: 1 -->
<svg width="304pt" height="196pt"
 viewBox="0.00 0.00 303.50 196.00" xmlns="http://www.w3.org/2000/svg" xmlns:xlink="http://www.w3.org/1999/xlink">
<g id="graph0" class="graph" transform="scale(1 1) rotate(0) translate(4 192)">
<title>GaussKronrodAdaptiveQuadrature.inl</title>
<!-- Node11 -->
<g id="node1" class="node">
<title>Node11</title>
<polygon fill="#bfbfbf" stroke="black" points="59.5,-168.5 59.5,-187.5 237.5,-187.5 237.5,-168.5 59.5,-168.5"/>
<text text-anchor="middle" x="148.5" y="-175.5" font-family="Helvetica,sans-Serif" font-size="10.00">GaussKronrodAdaptiveQuadrature.inl</text>
</g>
<!-- Node12 -->
<g id="node2" class="node">
<title>Node12</title>
<g id="a_node2"><a xlink:href="GaussKronrodAdaptiveQuadrature_8h.html" target="_top" xlink:title="GaussKronrodAdaptiveQuadrature.h">
<polygon fill="none" stroke="black" points="62,-112.5 62,-131.5 235,-131.5 235,-112.5 62,-112.5"/>
<text text-anchor="middle" x="148.5" y="-119.5" font-family="Helvetica,sans-Serif" font-size="10.00">GaussKronrodAdaptiveQuadrature.h</text>
</a>
</g>
</g>
<!-- Node11&#45;&gt;Node12 -->
<g id="edge1" class="edge">
<title>Node11&#45;&gt;Node12</title>
<path fill="none" stroke="midnightblue" d="M148.5,-157.8C148.5,-148.91 148.5,-138.78 148.5,-131.75"/>
<polygon fill="midnightblue" stroke="midnightblue" points="145,-158.08 148.5,-168.08 152,-158.08 145,-158.08"/>
</g>
<!-- Node13 -->
<g id="node3" class="node">
<title>Node13</title>
<g id="a_node3"><a xlink:href="adaptive__gauss__kronrod_8inl.html" target="_top" xlink:title="adaptive_gauss_kronrod.inl">
<polygon fill="none" stroke="black" points="81,-56.5 81,-75.5 216,-75.5 216,-56.5 81,-56.5"/>
<text text-anchor="middle" x="148.5" y="-63.5" font-family="Helvetica,sans-Serif" font-size="10.00">adaptive_gauss_kronrod.inl</text>
</a>
</g>
</g>
<!-- Node12&#45;&gt;Node13 -->
<g id="edge2" class="edge">
<title>Node12&#45;&gt;Node13</title>
<path fill="none" stroke="midnightblue" d="M148.5,-101.8C148.5,-92.91 148.5,-82.78 148.5,-75.75"/>
<polygon fill="midnightblue" stroke="midnightblue" points="145,-102.08 148.5,-112.08 152,-102.08 145,-102.08"/>
</g>
<!-- Node14 -->
<g id="node4" class="node">
<title>Node14</title>
<g id="a_node4"><a xlink:href="adaptive__gauss__kronrod_8cpp.html" target="_top" xlink:title="adaptive_gauss_kronrod.cpp">
<polygon fill="none" stroke="black" points="0,-0.5 0,-19.5 141,-19.5 141,-0.5 0,-0.5"/>
<text text-anchor="middle" x="70.5" y="-7.5" font-family="Helvetica,sans-Serif" font-size="10.00">adaptive_gauss_kronrod.cpp</text>
</a>
</g>
</g>
<!-- Node13&#45;&gt;Node14 -->
<g id="edge3" class="edge">
<title>Node13&#45;&gt;Node14</title>
<path fill="none" stroke="midnightblue" d="M127.73,-50.62C113.48,-40.76 95.04,-27.99 83,-19.65"/>
<polygon fill="midnightblue" stroke="midnightblue" points="125.75,-53.51 135.97,-56.32 129.74,-47.75 125.75,-53.51"/>
</g>
<!-- Node15 -->
<g id="node5" class="node">
<title>Node15</title>
<g id="a_node5"><a xlink:href="adaptive__gauss__kronrod_8cu.html" target="_top" xlink:title="adaptive_gauss_kronrod.cu">
<polygon fill="none" stroke="black" points="159.5,-0.5 159.5,-19.5 295.5,-19.5 295.5,-0.5 159.5,-0.5"/>
<text text-anchor="middle" x="227.5" y="-7.5" font-family="Helvetica,sans-Serif" font-size="10.00">adaptive_gauss_kronrod.cu</text>
</a>
</g>
</g>
<!-- Node13&#45;&gt;Node15 -->
<g id="edge4" class="edge">
<title>Node13&#45;&gt;Node15</title>
<path fill="none" stroke="midnightblue" d="M169.53,-50.62C183.97,-40.76 202.64,-27.99 214.84,-19.65"/>
<polygon fill="midnightblue" stroke="midnightblue" points="167.47,-47.79 161.19,-56.32 171.42,-53.57 167.47,-47.79"/>
</g>
</g>
</svg>
