<?xml version="1.0" encoding="UTF-8" standalone="no"?>
<!DOCTYPE svg PUBLIC "-//W3C//DTD SVG 1.1//EN"
 "http://www.w3.org/Graphics/SVG/1.1/DTD/svg11.dtd">
<!-- Generated by graphviz version 5.0.0 (0)
 -->
<!-- Title: GaussKronrodQuadrature.h Pages: 1 -->
<svg width="1116pt" height="196pt"
 viewBox="0.00 0.00 1116.00 196.00" xmlns="http://www.w3.org/2000/svg" xmlns:xlink="http://www.w3.org/1999/xlink">
<g id="graph0" class="graph" transform="scale(1 1) rotate(0) translate(4 192)">
<title>GaussKronrodQuadrature.h</title>
<!-- Node121 -->
<g id="node1" class="node">
<title>Node121</title>
<polygon fill="#bfbfbf" stroke="black" points="290.5,-168.5 290.5,-187.5 425.5,-187.5 425.5,-168.5 290.5,-168.5"/>
<text text-anchor="middle" x="358" y="-175.5" font-family="Helvetica,sans-Serif" font-size="10.00">GaussKronrodQuadrature.h</text>
</g>
<!-- Node122 -->
<g id="node2" class="node">
<title>Node122</title>
<g id="a_node2"><a xlink:href="DeltaDMassBackground_8h.html" target="_top" xlink:title="DeltaDMassBackground.h">
<polygon fill="none" stroke="black" points="95.5,-112.5 95.5,-131.5 226.5,-131.5 226.5,-112.5 95.5,-112.5"/>
<text text-anchor="middle" x="161" y="-119.5" font-family="Helvetica,sans-Serif" font-size="10.00">DeltaDMassBackground.h</text>
</a>
</g>
</g>
<!-- Node121&#45;&gt;Node122 -->
<g id="edge1" class="edge">
<title>Node121&#45;&gt;Node122</title>
<path fill="none" stroke="midnightblue" d="M316.77,-165.7C279.59,-155.51 225.73,-140.74 192.07,-131.52"/>
<polygon fill="midnightblue" stroke="midnightblue" points="316.22,-169.18 326.78,-168.44 318.07,-162.42 316.22,-169.18"/>
</g>
<!-- Node123 -->
<g id="node3" class="node">
<title>Node123</title>
<g id="a_node3"><a xlink:href="particle__mass_8inl.html" target="_top" xlink:title="particle_mass.inl">
<polygon fill="none" stroke="black" points="116,-56.5 116,-75.5 206,-75.5 206,-56.5 116,-56.5"/>
<text text-anchor="middle" x="161" y="-63.5" font-family="Helvetica,sans-Serif" font-size="10.00">particle_mass.inl</text>
</a>
</g>
</g>
<!-- Node121&#45;&gt;Node123 -->
<g id="edge19" class="edge">
<title>Node121&#45;&gt;Node123</title>
<path fill="none" stroke="midnightblue" d="M332.37,-163.53C315.68,-154.69 293.47,-142.81 274,-132 238.38,-112.22 196.99,-88.12 175.55,-75.56"/>
<polygon fill="midnightblue" stroke="midnightblue" points="331.03,-166.78 341.5,-168.35 334.29,-160.59 331.03,-166.78"/>
</g>
<!-- Node126 -->
<g id="node6" class="node">
<title>Node126</title>
<g id="a_node6"><a xlink:href="Ipatia_8h.html" target="_top" xlink:title="Ipatia.h">
<polygon fill="none" stroke="black" points="283.5,-112.5 283.5,-131.5 332.5,-131.5 332.5,-112.5 283.5,-112.5"/>
<text text-anchor="middle" x="308" y="-119.5" font-family="Helvetica,sans-Serif" font-size="10.00">Ipatia.h</text>
</a>
</g>
</g>
<!-- Node121&#45;&gt;Node126 -->
<g id="edge5" class="edge">
<title>Node121&#45;&gt;Node126</title>
<path fill="none" stroke="midnightblue" d="M342.92,-160.72C334.11,-151.2 323.33,-139.56 316.1,-131.75"/>
<polygon fill="midnightblue" stroke="midnightblue" points="340.38,-163.12 349.74,-168.08 345.52,-158.37 340.38,-163.12"/>
</g>
<!-- Node130 -->
<g id="node10" class="node">
<title>Node130</title>
<g id="a_node10"><a xlink:href="convolute__functions_8inl.html" target="_top" xlink:title="convolute_functions.inl">
<polygon fill="none" stroke="black" points="352,-112.5 352,-131.5 468,-131.5 468,-112.5 352,-112.5"/>
<text text-anchor="middle" x="410" y="-119.5" font-family="Helvetica,sans-Serif" font-size="10.00">convolute_functions.inl</text>
</a>
</g>
</g>
<!-- Node121&#45;&gt;Node130 -->
<g id="edge10" class="edge">
<title>Node121&#45;&gt;Node130</title>
<path fill="none" stroke="midnightblue" d="M373.68,-160.72C382.84,-151.2 394.05,-139.56 401.57,-131.75"/>
<polygon fill="midnightblue" stroke="midnightblue" points="371,-158.45 366.59,-168.08 376.04,-163.31 371,-158.45"/>
</g>
<!-- Node133 -->
<g id="node13" class="node">
<title>Node133</title>
<g id="a_node13"><a xlink:href="fit__convoluted__pdfs_8inl.html" target="_top" xlink:title="fit_convoluted_pdfs.inl">
<polygon fill="none" stroke="black" points="628,-112.5 628,-131.5 742,-131.5 742,-112.5 628,-112.5"/>
<text text-anchor="middle" x="685" y="-119.5" font-family="Helvetica,sans-Serif" font-size="10.00">fit_convoluted_pdfs.inl</text>
</a>
</g>
</g>
<!-- Node121&#45;&gt;Node133 -->
<g id="edge13" class="edge">
<title>Node121&#45;&gt;Node133</title>
<path fill="none" stroke="midnightblue" d="M419.82,-166.79C481.61,-156.59 575.53,-141.08 633.43,-131.52"/>
<polygon fill="midnightblue" stroke="midnightblue" points="419.11,-163.36 409.81,-168.44 420.25,-170.27 419.11,-163.36"/>
</g>
<!-- Node136 -->
<g id="node16" class="node">
<title>Node136</title>
<g id="a_node16"><a xlink:href="gauss__kronrod_8inl.html" target="_top" xlink:title="gauss_kronrod.inl">
<polygon fill="none" stroke="black" points="899.5,-112.5 899.5,-131.5 992.5,-131.5 992.5,-112.5 899.5,-112.5"/>
<text text-anchor="middle" x="946" y="-119.5" font-family="Helvetica,sans-Serif" font-size="10.00">gauss_kronrod.inl</text>
</a>
</g>
</g>
<!-- Node121&#45;&gt;Node136 -->
<g id="edge16" class="edge">
<title>Node121&#45;&gt;Node136</title>
<path fill="none" stroke="midnightblue" d="M435.92,-169.84C559.89,-158.46 798.34,-136.56 899.16,-127.3"/>
<polygon fill="midnightblue" stroke="midnightblue" points="435.38,-166.38 425.74,-170.78 436.02,-173.35 435.38,-166.38"/>
</g>
<!-- Node122&#45;&gt;Node123 -->
<g id="edge2" class="edge">
<title>Node122&#45;&gt;Node123</title>
<path fill="none" stroke="midnightblue" d="M161,-101.8C161,-92.91 161,-82.78 161,-75.75"/>
<polygon fill="midnightblue" stroke="midnightblue" points="157.5,-102.08 161,-112.08 164.5,-102.08 157.5,-102.08"/>
</g>
<!-- Node124 -->
<g id="node4" class="node">
<title>Node124</title>
<g id="a_node4"><a xlink:href="particle__mass_8cpp.html" target="_top" xlink:title="particle_mass.cpp">
<polygon fill="none" stroke="black" points="0,-0.5 0,-19.5 96,-19.5 96,-0.5 0,-0.5"/>
<text text-anchor="middle" x="48" y="-7.5" font-family="Helvetica,sans-Serif" font-size="10.00">particle_mass.cpp</text>
</a>
</g>
</g>
<!-- Node123&#45;&gt;Node124 -->
<g id="edge3" class="edge">
<title>Node123&#45;&gt;Node124</title>
<path fill="none" stroke="midnightblue" d="M134,-52.1C112.89,-42.01 84.14,-28.27 65.82,-19.52"/>
<polygon fill="midnightblue" stroke="midnightblue" points="132.56,-55.29 143.09,-56.44 135.58,-48.97 132.56,-55.29"/>
</g>
<!-- Node125 -->
<g id="node5" class="node">
<title>Node125</title>
<g id="a_node5"><a xlink:href="particle__mass_8cu.html" target="_top" xlink:title="particle_mass.cu">
<polygon fill="none" stroke="black" points="114.5,-0.5 114.5,-19.5 205.5,-19.5 205.5,-0.5 114.5,-0.5"/>
<text text-anchor="middle" x="160" y="-7.5" font-family="Helvetica,sans-Serif" font-size="10.00">particle_mass.cu</text>
</a>
</g>
</g>
<!-- Node123&#45;&gt;Node125 -->
<g id="edge4" class="edge">
<title>Node123&#45;&gt;Node125</title>
<path fill="none" stroke="midnightblue" d="M160.64,-45.8C160.48,-36.91 160.29,-26.78 160.16,-19.75"/>
<polygon fill="midnightblue" stroke="midnightblue" points="157.15,-46.15 160.83,-56.08 164.15,-46.02 157.15,-46.15"/>
</g>
<!-- Node126&#45;&gt;Node123 -->
<g id="edge9" class="edge">
<title>Node126&#45;&gt;Node123</title>
<path fill="none" stroke="midnightblue" d="M275.08,-108.91C247.44,-98.75 208.66,-84.51 184.18,-75.52"/>
<polygon fill="midnightblue" stroke="midnightblue" points="274.11,-112.28 284.71,-112.44 276.53,-105.71 274.11,-112.28"/>
</g>
<!-- Node127 -->
<g id="node7" class="node">
<title>Node127</title>
<g id="a_node7"><a xlink:href="Ipatia__plus__argus_8inl.html" target="_top" xlink:title="Ipatia_plus_argus.inl">
<polygon fill="none" stroke="black" points="225,-56.5 225,-75.5 331,-75.5 331,-56.5 225,-56.5"/>
<text text-anchor="middle" x="278" y="-63.5" font-family="Helvetica,sans-Serif" font-size="10.00">Ipatia_plus_argus.inl</text>
</a>
</g>
</g>
<!-- Node126&#45;&gt;Node127 -->
<g id="edge6" class="edge">
<title>Node126&#45;&gt;Node127</title>
<path fill="none" stroke="midnightblue" d="M298.15,-103.27C293.03,-94.05 286.98,-83.17 282.86,-75.75"/>
<polygon fill="midnightblue" stroke="midnightblue" points="295.13,-105.04 303.05,-112.08 301.25,-101.64 295.13,-105.04"/>
</g>
<!-- Node128 -->
<g id="node8" class="node">
<title>Node128</title>
<g id="a_node8"><a xlink:href="ipatia__plus__argus_8cpp.html" target="_top" xlink:title="ipatia_plus_argus.cpp">
<polygon fill="none" stroke="black" points="223.5,-0.5 223.5,-19.5 334.5,-19.5 334.5,-0.5 223.5,-0.5"/>
<text text-anchor="middle" x="279" y="-7.5" font-family="Helvetica,sans-Serif" font-size="10.00">ipatia_plus_argus.cpp</text>
</a>
</g>
</g>
<!-- Node127&#45;&gt;Node128 -->
<g id="edge7" class="edge">
<title>Node127&#45;&gt;Node128</title>
<path fill="none" stroke="midnightblue" d="M278.36,-45.8C278.52,-36.91 278.71,-26.78 278.84,-19.75"/>
<polygon fill="midnightblue" stroke="midnightblue" points="274.85,-46.02 278.17,-56.08 281.85,-46.15 274.85,-46.02"/>
</g>
<!-- Node129 -->
<g id="node9" class="node">
<title>Node129</title>
<g id="a_node9"><a xlink:href="ipatia__plus__argus_8cu.html" target="_top" xlink:title="ipatia_plus_argus.cu">
<polygon fill="none" stroke="black" points="353,-0.5 353,-19.5 459,-19.5 459,-0.5 353,-0.5"/>
<text text-anchor="middle" x="406" y="-7.5" font-family="Helvetica,sans-Serif" font-size="10.00">ipatia_plus_argus.cu</text>
</a>
</g>
</g>
<!-- Node127&#45;&gt;Node129 -->
<g id="edge8" class="edge">
<title>Node127&#45;&gt;Node129</title>
<path fill="none" stroke="midnightblue" d="M307.62,-52.5C331.62,-42.38 364.78,-28.39 385.81,-19.52"/>
<polygon fill="midnightblue" stroke="midnightblue" points="306.14,-49.33 298.28,-56.44 308.86,-55.78 306.14,-49.33"/>
</g>
<!-- Node131 -->
<g id="node11" class="node">
<title>Node131</title>
<g id="a_node11"><a xlink:href="convolute__functions_8cpp.html" target="_top" xlink:title="convolute_functions.cpp">
<polygon fill="none" stroke="black" points="349,-56.5 349,-75.5 471,-75.5 471,-56.5 349,-56.5"/>
<text text-anchor="middle" x="410" y="-63.5" font-family="Helvetica,sans-Serif" font-size="10.00">convolute_functions.cpp</text>
</a>
</g>
</g>
<!-- Node130&#45;&gt;Node131 -->
<g id="edge11" class="edge">
<title>Node130&#45;&gt;Node131</title>
<path fill="none" stroke="midnightblue" d="M410,-101.8C410,-92.91 410,-82.78 410,-75.75"/>
<polygon fill="midnightblue" stroke="midnightblue" points="406.5,-102.08 410,-112.08 413.5,-102.08 406.5,-102.08"/>
</g>
<!-- Node132 -->
<g id="node12" class="node">
<title>Node132</title>
<g id="a_node12"><a xlink:href="convolute__functions_8cu.html" target="_top" xlink:title="convolute_functions.cu">
<polygon fill="none" stroke="black" points="489.5,-56.5 489.5,-75.5 606.5,-75.5 606.5,-56.5 489.5,-56.5"/>
<text text-anchor="middle" x="548" y="-63.5" font-family="Helvetica,sans-Serif" font-size="10.00">convolute_functions.cu</text>
</a>
</g>
</g>
<!-- Node130&#45;&gt;Node132 -->
<g id="edge12" class="edge">
<title>Node130&#45;&gt;Node132</title>
<path fill="none" stroke="midnightblue" d="M441.25,-108.77C467.17,-98.63 503.36,-84.47 526.24,-75.52"/>
<polygon fill="midnightblue" stroke="midnightblue" points="439.9,-105.54 431.87,-112.44 442.45,-112.06 439.9,-105.54"/>
</g>
<!-- Node134 -->
<g id="node14" class="node">
<title>Node134</title>
<g id="a_node14"><a xlink:href="fit__convoluted__pdfs_8cpp.html" target="_top" xlink:title="fit_convoluted_pdfs.cpp">
<polygon fill="none" stroke="black" points="625,-56.5 625,-75.5 745,-75.5 745,-56.5 625,-56.5"/>
<text text-anchor="middle" x="685" y="-63.5" font-family="Helvetica,sans-Serif" font-size="10.00">fit_convoluted_pdfs.cpp</text>
</a>
</g>
</g>
<!-- Node133&#45;&gt;Node134 -->
<g id="edge14" class="edge">
<title>Node133&#45;&gt;Node134</title>
<path fill="none" stroke="midnightblue" d="M685,-101.8C685,-92.91 685,-82.78 685,-75.75"/>
<polygon fill="midnightblue" stroke="midnightblue" points="681.5,-102.08 685,-112.08 688.5,-102.08 681.5,-102.08"/>
</g>
<!-- Node135 -->
<g id="node15" class="node">
<title>Node135</title>
<g id="a_node15"><a xlink:href="fit__convoluted__pdfs_8cu.html" target="_top" xlink:title="fit_convoluted_pdfs.cu">
<polygon fill="none" stroke="black" points="763.5,-56.5 763.5,-75.5 878.5,-75.5 878.5,-56.5 763.5,-56.5"/>
<text text-anchor="middle" x="821" y="-63.5" font-family="Helvetica,sans-Serif" font-size="10.00">fit_convoluted_pdfs.cu</text>
</a>
</g>
</g>
<!-- Node133&#45;&gt;Node135 -->
<g id="edge15" class="edge">
<title>Node133&#45;&gt;Node135</title>
<path fill="none" stroke="midnightblue" d="M716.13,-108.64C741.66,-98.5 777.11,-84.43 799.55,-75.52"/>
<polygon fill="midnightblue" stroke="midnightblue" points="714.55,-105.5 706.55,-112.44 717.14,-112.01 714.55,-105.5"/>
</g>
<!-- Node137 -->
<g id="node17" class="node">
<title>Node137</title>
<g id="a_node17"><a xlink:href="gauss__kronrod_8cpp.html" target="_top" xlink:title="gauss_kronrod.cpp">
<polygon fill="none" stroke="black" points="896.5,-56.5 896.5,-75.5 995.5,-75.5 995.5,-56.5 896.5,-56.5"/>
<text text-anchor="middle" x="946" y="-63.5" font-family="Helvetica,sans-Serif" font-size="10.00">gauss_kronrod.cpp</text>
</a>
</g>
</g>
<!-- Node136&#45;&gt;Node137 -->
<g id="edge17" class="edge">
<title>Node136&#45;&gt;Node137</title>
<path fill="none" stroke="midnightblue" d="M946,-101.8C946,-92.91 946,-82.78 946,-75.75"/>
<polygon fill="midnightblue" stroke="midnightblue" points="942.5,-102.08 946,-112.08 949.5,-102.08 942.5,-102.08"/>
</g>
<!-- Node138 -->
<g id="node18" class="node">
<title>Node138</title>
<g id="a_node18"><a xlink:href="gauss__kronrod_8cu.html" target="_top" xlink:title="gauss_kronrod.cu">
<polygon fill="none" stroke="black" points="1014,-56.5 1014,-75.5 1108,-75.5 1108,-56.5 1014,-56.5"/>
<text text-anchor="middle" x="1061" y="-63.5" font-family="Helvetica,sans-Serif" font-size="10.00">gauss_kronrod.cu</text>
</a>
</g>
</g>
<!-- Node136&#45;&gt;Node138 -->
<g id="edge18" class="edge">
<title>Node136&#45;&gt;Node138</title>
<path fill="none" stroke="midnightblue" d="M973.48,-108.1C994.97,-98.01 1024.22,-84.27 1042.86,-75.52"/>
<polygon fill="midnightblue" stroke="midnightblue" points="971.79,-105.02 964.22,-112.44 974.76,-111.36 971.79,-105.02"/>
</g>
</g>
</svg>
