<?xml version="1.0" encoding="UTF-8" standalone="no"?>
<!DOCTYPE svg PUBLIC "-//W3C//DTD SVG 1.1//EN"
 "http://www.w3.org/Graphics/SVG/1.1/DTD/svg11.dtd">
<!-- Generated by graphviz version 2.40.1 (20161225.0304)
 -->
<!-- Title: gauss_kronrod.inl Pages: 1 -->
<svg width="220pt" height="84pt"
 viewBox="0.00 0.00 219.50 84.00" xmlns="http://www.w3.org/2000/svg" xmlns:xlink="http://www.w3.org/1999/xlink">
<g id="graph0" class="graph" transform="scale(1 1) rotate(0) translate(4 80)">
<title>gauss_kronrod.inl</title>
<!-- Node88 -->
<g id="node1" class="node">
<title>Node88</title>
<polygon fill="#bfbfbf" stroke="#000000" points="60,-56.5 60,-75.5 153,-75.5 153,-56.5 60,-56.5"/>
<text text-anchor="middle" x="106.5" y="-63.5" font-family="Helvetica,sans-Serif" font-size="10.00" fill="#000000">gauss_kronrod.inl</text>
</g>
<!-- Node89 -->
<g id="node2" class="node">
<title>Node89</title>
<g id="a_node2"><a xlink:href="gauss__kronrod_8cpp.html" target="_top" xlink:title="gauss_kronrod.cpp">
<polygon fill="none" stroke="#000000" points="0,-.5 0,-19.5 99,-19.5 99,-.5 0,-.5"/>
<text text-anchor="middle" x="49.5" y="-7.5" font-family="Helvetica,sans-Serif" font-size="10.00" fill="#000000">gauss_kronrod.cpp</text>
</a>
</g>
</g>
<!-- Node88&#45;&gt;Node89 -->
<g id="edge1" class="edge">
<title>Node88&#45;&gt;Node89</title>
<path fill="none" stroke="#191970" d="M89.2729,-49.0751C79.4659,-39.4402 67.536,-27.7196 59.3149,-19.6427"/>
<polygon fill="#191970" stroke="#191970" points="86.9851,-51.734 96.5714,-56.2455 91.8909,-46.7406 86.9851,-51.734"/>
</g>
<!-- Node90 -->
<g id="node3" class="node">
<title>Node90</title>
<g id="a_node3"><a xlink:href="gauss__kronrod_8cu.html" target="_top" xlink:title="gauss_kronrod.cu">
<polygon fill="none" stroke="#000000" points="117.5,-.5 117.5,-19.5 211.5,-19.5 211.5,-.5 117.5,-.5"/>
<text text-anchor="middle" x="164.5" y="-7.5" font-family="Helvetica,sans-Serif" font-size="10.00" fill="#000000">gauss_kronrod.cu</text>
</a>
</g>
</g>
<!-- Node88&#45;&gt;Node90 -->
<g id="edge2" class="edge">
<title>Node88&#45;&gt;Node90</title>
<path fill="none" stroke="#191970" d="M124.0293,-49.0751C134.0083,-39.4402 146.1476,-27.7196 154.5129,-19.6427"/>
<polygon fill="#191970" stroke="#191970" points="121.3658,-46.7817 116.6028,-56.2455 126.228,-51.8175 121.3658,-46.7817"/>
</g>
</g>
</svg>
