<?xml version="1.0" encoding="UTF-8" standalone="no"?>
<!DOCTYPE svg PUBLIC "-//W3C//DTD SVG 1.1//EN"
 "http://www.w3.org/Graphics/SVG/1.1/DTD/svg11.dtd">
<!-- Generated by graphviz version 2.38.0 (20140413.2041)
 -->
<!-- Title: Gaussian.h Pages: 1 -->
<!--zoomable 162 -->
<svg id="main" version="1.1" xmlns="http://www.w3.org/2000/svg" xmlns:xlink="http://www.w3.org/1999/xlink" xml:space="preserve" onload="init(evt)">
<style type="text/css"><![CDATA[
.edge:hover path { stroke: red; }
.edge:hover polygon { stroke: red; fill: red; }
]]></style>
<script type="text/javascript"><![CDATA[
var edges = document.getElementsByTagName('g');
if (edges && edges.length) {
  for (var i=0;i<edges.length;i++) {
    if (edges[i].id.substr(0,4)=='edge') {
      edges[i].setAttribute('class','edge');
    }
  }
}
]]></script>
        <defs>
                <circle id="rim" cx="0" cy="0" r="7"/>
                <circle id="rim2" cx="0" cy="0" r="3.5"/>
                <g id="zoomPlus">
                        <use xlink:href="#rim" fill="#404040">
                                <set attributeName="fill" to="#808080" begin="zoomplus.mouseover" end="zoomplus.mouseout"/>
                        </use>
                        <path d="M-4,0h8M0,-4v8" fill="none" stroke="white" stroke-width="1.5" pointer-events="none"/>
                </g>
                <g id="zoomMin">
                        <use xlink:href="#rim" fill="#404040">
                                <set attributeName="fill" to="#808080" begin="zoomminus.mouseover" end="zoomminus.mouseout"/>
                        </use>
                        <path d="M-4,0h8" fill="none" stroke="white" stroke-width="1.5" pointer-events="none"/>
                </g>
                <g id="dirArrow">
                        <path fill="none" stroke="white" stroke-width="1.5" d="M0,-3.0v7 M-2.5,-0.5L0,-3.0L2.5,-0.5"/>
                </g>
               <g id="resetDef">
                       <use xlink:href="#rim2" fill="#404040">
                               <set attributeName="fill" to="#808080" begin="reset.mouseover" end="reset.mouseout"/>
                       </use>
               </g>
        </defs>

<script type="text/javascript">
var viewWidth = 1913;
var viewHeight = 162;
var sectionId = 'dynsection-1';
</script>
<script xlink:href="svgpan.js"/>
<svg id="graph" class="graph">
<g id="viewport">
<title>Gaussian.h</title>
<!-- Node59 -->
<g id="node1" class="node"><title>Node59</title>
<polygon fill="#bfbfbf" stroke="black" points="1012,-134.5 1012,-153.5 1078,-153.5 1078,-134.5 1012,-134.5"/>
<text text-anchor="middle" x="1045" y="-141.5" font-family="Helvetica,sans-Serif" font-size="10.00">Gaussian.h</text>
</g>
<!-- Node60 -->
<g id="node2" class="node"><title>Node60</title>
<g id="a_node2"><a xlink:href="basic__fit_8inl.html" target="_top" xlink:title="basic_fit.inl">
<polygon fill="none" stroke="black" points="91,-73 91,-92 157,-92 157,-73 91,-73"/>
<text text-anchor="middle" x="124" y="-80" font-family="Helvetica,sans-Serif" font-size="10.00">basic_fit.inl</text>
</a>
</g>
</g>
<!-- Node59&#45;&gt;Node60 -->
<g id="edge1" class="edge"><title>Node59&#45;&gt;Node60</title>
<path fill="none" stroke="midnightblue" d="M1001.6,-140.676C887.259,-134.486 568.278,-116.787 303,-98 252.151,-94.3989 193.239,-89.4831 157.305,-86.4008"/>
<polygon fill="midnightblue" stroke="midnightblue" points="1001.53,-144.177 1011.7,-141.222 1001.91,-137.187 1001.53,-144.177"/>
</g>
<!-- Node63 -->
<g id="node5" class="node"><title>Node63</title>
<g id="a_node5"><a xlink:href="binned__extended__logLL__fit_8inl.html" target="_top" xlink:title="binned_extended_logLL\l_fit.inl">
<polygon fill="none" stroke="black" points="312.5,-67.5 312.5,-97.5 431.5,-97.5 431.5,-67.5 312.5,-67.5"/>
<text text-anchor="start" x="320.5" y="-85.5" font-family="Helvetica,sans-Serif" font-size="10.00">binned_extended_logLL</text>
<text text-anchor="middle" x="372" y="-74.5" font-family="Helvetica,sans-Serif" font-size="10.00">_fit.inl</text>
</a>
</g>
</g>
<!-- Node59&#45;&gt;Node63 -->
<g id="edge4" class="edge"><title>Node59&#45;&gt;Node63</title>
<path fill="none" stroke="midnightblue" d="M1001.64,-139.167C885.112,-128.864 564.983,-100.562 431.58,-88.7675"/>
<polygon fill="midnightblue" stroke="midnightblue" points="1001.36,-142.655 1011.63,-140.049 1001.97,-135.682 1001.36,-142.655"/>
</g>
<!-- Node66 -->
<g id="node8" class="node"><title>Node66</title>
<g id="a_node8"><a xlink:href="extended__logLL__fit_8inl.html" target="_top" xlink:title="extended_logLL_fit.inl">
<polygon fill="none" stroke="black" points="585.5,-73 585.5,-92 696.5,-92 696.5,-73 585.5,-73"/>
<text text-anchor="middle" x="641" y="-80" font-family="Helvetica,sans-Serif" font-size="10.00">extended_logLL_fit.inl</text>
</a>
</g>
</g>
<!-- Node59&#45;&gt;Node66 -->
<g id="edge7" class="edge"><title>Node59&#45;&gt;Node66</title>
<path fill="none" stroke="midnightblue" d="M1001.63,-136.612C927.886,-125.752 778.174,-103.703 696.76,-91.7122"/>
<polygon fill="midnightblue" stroke="midnightblue" points="1001.54,-140.136 1011.94,-138.131 1002.56,-133.211 1001.54,-140.136"/>
</g>
<!-- Node69 -->
<g id="node11" class="node"><title>Node69</title>
<g id="a_node11"><a xlink:href="fractional__logLL__fit_8inl.html" target="_top" xlink:title="fractional_logLL_fit.inl">
<polygon fill="none" stroke="black" points="851.5,-73 851.5,-92 962.5,-92 962.5,-73 851.5,-73"/>
<text text-anchor="middle" x="907" y="-80" font-family="Helvetica,sans-Serif" font-size="10.00">fractional_logLL_fit.inl</text>
</a>
</g>
</g>
<!-- Node59&#45;&gt;Node69 -->
<g id="edge10" class="edge"><title>Node59&#45;&gt;Node69</title>
<path fill="none" stroke="midnightblue" d="M1015.96,-130.48C989.159,-118.924 950.083,-102.076 926.735,-92.0091"/>
<polygon fill="midnightblue" stroke="midnightblue" points="1014.66,-133.73 1025.23,-134.475 1017.43,-127.302 1014.66,-133.73"/>
</g>
<!-- Node72 -->
<g id="node14" class="node"><title>Node72</title>
<g id="a_node14"><a xlink:href="splot_8inl.html" target="_top" xlink:title="splot.inl">
<polygon fill="none" stroke="black" points="1020,-73 1020,-92 1070,-92 1070,-73 1020,-73"/>
<text text-anchor="middle" x="1045" y="-80" font-family="Helvetica,sans-Serif" font-size="10.00">splot.inl</text>
</a>
</g>
</g>
<!-- Node59&#45;&gt;Node72 -->
<g id="edge13" class="edge"><title>Node59&#45;&gt;Node72</title>
<path fill="none" stroke="midnightblue" d="M1045,-124.317C1045,-113.496 1045,-100.398 1045,-92.0091"/>
<polygon fill="midnightblue" stroke="midnightblue" points="1041.5,-124.475 1045,-134.475 1048.5,-124.475 1041.5,-124.475"/>
</g>
<!-- Node75 -->
<g id="node17" class="node"><title>Node75</title>
<g id="a_node17"><a xlink:href="dense__histogram_8inl.html" target="_top" xlink:title="dense_histogram.inl">
<polygon fill="none" stroke="black" points="1128,-73 1128,-92 1232,-92 1232,-73 1128,-73"/>
<text text-anchor="middle" x="1180" y="-80" font-family="Helvetica,sans-Serif" font-size="10.00">dense_histogram.inl</text>
</a>
</g>
</g>
<!-- Node59&#45;&gt;Node75 -->
<g id="edge16" class="edge"><title>Node59&#45;&gt;Node75</title>
<path fill="none" stroke="midnightblue" d="M1073.75,-130.327C1099.96,-118.776 1137.95,-102.032 1160.69,-92.0091"/>
<polygon fill="midnightblue" stroke="midnightblue" points="1072.08,-127.239 1064.34,-134.475 1074.9,-133.645 1072.08,-127.239"/>
</g>
<!-- Node78 -->
<g id="node20" class="node"><title>Node78</title>
<g id="a_node20"><a xlink:href="double__gaussian__plus__exponential_8inl.html" target="_top" xlink:title="double_gaussian_plus\l_exponential.inl">
<polygon fill="none" stroke="black" points="1375.5,-67.5 1375.5,-97.5 1488.5,-97.5 1488.5,-67.5 1375.5,-67.5"/>
<text text-anchor="start" x="1383.5" y="-85.5" font-family="Helvetica,sans-Serif" font-size="10.00">double_gaussian_plus</text>
<text text-anchor="middle" x="1432" y="-74.5" font-family="Helvetica,sans-Serif" font-size="10.00">_exponential.inl</text>
</a>
</g>
</g>
<!-- Node59&#45;&gt;Node78 -->
<g id="edge19" class="edge"><title>Node59&#45;&gt;Node78</title>
<path fill="none" stroke="midnightblue" d="M1088.61,-136.295C1159,-125.473 1297.6,-104.163 1375.47,-92.1913"/>
<polygon fill="midnightblue" stroke="midnightblue" points="1087.68,-132.897 1078.33,-137.876 1088.75,-139.815 1087.68,-132.897"/>
</g>
<!-- Node81 -->
<g id="node23" class="node"><title>Node81</title>
<g id="a_node23"><a xlink:href="gaussian__plus__argus_8inl.html" target="_top" xlink:title="gaussian_plus_argus.inl">
<polygon fill="none" stroke="black" points="1573.5,-73 1573.5,-92 1694.5,-92 1694.5,-73 1573.5,-73"/>
<text text-anchor="middle" x="1634" y="-80" font-family="Helvetica,sans-Serif" font-size="10.00">gaussian_plus_argus.inl</text>
</a>
</g>
</g>
<!-- Node59&#45;&gt;Node81 -->
<g id="edge22" class="edge"><title>Node59&#45;&gt;Node81</title>
<path fill="none" stroke="midnightblue" d="M1088.43,-138.767C1168.99,-130.894 1347.03,-113.401 1497,-98 1521.98,-95.4344 1549.52,-92.5341 1573.31,-90.0052"/>
<polygon fill="midnightblue" stroke="midnightblue" points="1087.79,-135.312 1078.18,-139.768 1088.47,-142.279 1087.79,-135.312"/>
</g>
<!-- Node84 -->
<g id="node26" class="node"><title>Node84</title>
<g id="a_node26"><a xlink:href="fit__gaussian_8C.html" target="_top" xlink:title="fit_gaussian.C">
<polygon fill="none" stroke="black" points="1713,-73 1713,-92 1793,-92 1793,-73 1713,-73"/>
<text text-anchor="middle" x="1753" y="-80" font-family="Helvetica,sans-Serif" font-size="10.00">fit_gaussian.C</text>
</a>
</g>
</g>
<!-- Node59&#45;&gt;Node84 -->
<g id="edge25" class="edge"><title>Node59&#45;&gt;Node84</title>
<path fill="none" stroke="midnightblue" d="M1088.54,-143.311C1194.68,-143.359 1474.85,-139.211 1704,-98 1711.95,-96.571 1720.43,-94.3257 1728.08,-92.0251"/>
<polygon fill="midnightblue" stroke="midnightblue" points="1088.23,-139.81 1078.23,-143.292 1088.22,-146.81 1088.23,-139.81"/>
</g>
<!-- Node61 -->
<g id="node3" class="node"><title>Node61</title>
<g id="a_node3"><a xlink:href="basic__fit_8cpp.html" target="_top" xlink:title="basic_fit.cpp">
<polygon fill="none" stroke="black" points="0,-6 0,-25 72,-25 72,-6 0,-6"/>
<text text-anchor="middle" x="36" y="-13" font-family="Helvetica,sans-Serif" font-size="10.00">basic_fit.cpp</text>
</a>
</g>
</g>
<!-- Node60&#45;&gt;Node61 -->
<g id="edge2" class="edge"><title>Node60&#45;&gt;Node61</title>
<path fill="none" stroke="midnightblue" d="M103.784,-66.5678C86.414,-53.7376 61.9739,-35.6853 47.68,-25.1273"/>
<polygon fill="midnightblue" stroke="midnightblue" points="102.009,-69.6077 112.132,-72.7338 106.168,-63.9771 102.009,-69.6077"/>
</g>
<!-- Node62 -->
<g id="node4" class="node"><title>Node62</title>
<g id="a_node4"><a xlink:href="basic__fit_8cu.html" target="_top" xlink:title="basic_fit.cu">
<polygon fill="none" stroke="black" points="90.5,-6 90.5,-25 157.5,-25 157.5,-6 90.5,-6"/>
<text text-anchor="middle" x="124" y="-13" font-family="Helvetica,sans-Serif" font-size="10.00">basic_fit.cu</text>
</a>
</g>
</g>
<!-- Node60&#45;&gt;Node62 -->
<g id="edge3" class="edge"><title>Node60&#45;&gt;Node62</title>
<path fill="none" stroke="midnightblue" d="M124,-62.537C124,-50.1703 124,-34.6198 124,-25.1273"/>
<polygon fill="midnightblue" stroke="midnightblue" points="120.5,-62.7338 124,-72.7338 127.5,-62.7338 120.5,-62.7338"/>
</g>
<!-- Node64 -->
<g id="node6" class="node"><title>Node64</title>
<g id="a_node6"><a xlink:href="binned__extended__logLL__fit_8cpp.html" target="_top" xlink:title="binned_extended_logLL\l_fit.cpp">
<polygon fill="none" stroke="black" points="175.5,-0.5 175.5,-30.5 294.5,-30.5 294.5,-0.5 175.5,-0.5"/>
<text text-anchor="start" x="183.5" y="-18.5" font-family="Helvetica,sans-Serif" font-size="10.00">binned_extended_logLL</text>
<text text-anchor="middle" x="235" y="-7.5" font-family="Helvetica,sans-Serif" font-size="10.00">_fit.cpp</text>
</a>
</g>
</g>
<!-- Node63&#45;&gt;Node64 -->
<g id="edge5" class="edge"><title>Node63&#45;&gt;Node64</title>
<path fill="none" stroke="midnightblue" d="M332.991,-62.9921C311.276,-52.6892 284.673,-40.0677 264.669,-30.5765"/>
<polygon fill="midnightblue" stroke="midnightblue" points="331.738,-66.2715 342.273,-67.396 334.739,-59.9472 331.738,-66.2715"/>
</g>
<!-- Node65 -->
<g id="node7" class="node"><title>Node65</title>
<g id="a_node7"><a xlink:href="binned__extended__logLL__fit_8cu.html" target="_top" xlink:title="binned_extended_logLL\l_fit.cu">
<polygon fill="none" stroke="black" points="312.5,-0.5 312.5,-30.5 431.5,-30.5 431.5,-0.5 312.5,-0.5"/>
<text text-anchor="start" x="320.5" y="-18.5" font-family="Helvetica,sans-Serif" font-size="10.00">binned_extended_logLL</text>
<text text-anchor="middle" x="372" y="-7.5" font-family="Helvetica,sans-Serif" font-size="10.00">_fit.cu</text>
</a>
</g>
</g>
<!-- Node63&#45;&gt;Node65 -->
<g id="edge6" class="edge"><title>Node63&#45;&gt;Node65</title>
<path fill="none" stroke="midnightblue" d="M372,-57.1081C372,-48.1539 372,-38.3227 372,-30.5765"/>
<polygon fill="midnightblue" stroke="midnightblue" points="368.5,-57.3959 372,-67.396 375.5,-57.396 368.5,-57.3959"/>
</g>
<!-- Node67 -->
<g id="node9" class="node"><title>Node67</title>
<g id="a_node9"><a xlink:href="extended__logLL__fit_8cpp.html" target="_top" xlink:title="extended_logLL_fit.cpp">
<polygon fill="none" stroke="black" points="449.5,-6 449.5,-25 566.5,-25 566.5,-6 449.5,-6"/>
<text text-anchor="middle" x="508" y="-13" font-family="Helvetica,sans-Serif" font-size="10.00">extended_logLL_fit.cpp</text>
</a>
</g>
</g>
<!-- Node66&#45;&gt;Node67 -->
<g id="edge8" class="edge"><title>Node66&#45;&gt;Node67</title>
<path fill="none" stroke="midnightblue" d="M614.285,-68.4436C587.941,-55.5691 548.426,-36.2573 525.734,-25.1672"/>
<polygon fill="midnightblue" stroke="midnightblue" points="612.817,-71.6221 623.339,-72.8685 615.891,-65.333 612.817,-71.6221"/>
</g>
<!-- Node68 -->
<g id="node10" class="node"><title>Node68</title>
<g id="a_node10"><a xlink:href="extended__logLL__fit_8cu.html" target="_top" xlink:title="extended_logLL_fit.cu">
<polygon fill="none" stroke="black" points="585,-6 585,-25 697,-25 697,-6 585,-6"/>
<text text-anchor="middle" x="641" y="-13" font-family="Helvetica,sans-Serif" font-size="10.00">extended_logLL_fit.cu</text>
</a>
</g>
</g>
<!-- Node66&#45;&gt;Node68 -->
<g id="edge9" class="edge"><title>Node66&#45;&gt;Node68</title>
<path fill="none" stroke="midnightblue" d="M641,-62.537C641,-50.1703 641,-34.6198 641,-25.1273"/>
<polygon fill="midnightblue" stroke="midnightblue" points="637.5,-62.7338 641,-72.7338 644.5,-62.7338 637.5,-62.7338"/>
</g>
<!-- Node70 -->
<g id="node12" class="node"><title>Node70</title>
<g id="a_node12"><a xlink:href="fractional__logLL__fit_8cpp.html" target="_top" xlink:title="fractional_logLL_fit.cpp">
<polygon fill="none" stroke="black" points="715.5,-6 715.5,-25 832.5,-25 832.5,-6 715.5,-6"/>
<text text-anchor="middle" x="774" y="-13" font-family="Helvetica,sans-Serif" font-size="10.00">fractional_logLL_fit.cpp</text>
</a>
</g>
</g>
<!-- Node69&#45;&gt;Node70 -->
<g id="edge11" class="edge"><title>Node69&#45;&gt;Node70</title>
<path fill="none" stroke="midnightblue" d="M880.285,-68.4436C853.941,-55.5691 814.426,-36.2573 791.734,-25.1672"/>
<polygon fill="midnightblue" stroke="midnightblue" points="878.817,-71.6221 889.339,-72.8685 881.891,-65.333 878.817,-71.6221"/>
</g>
<!-- Node71 -->
<g id="node13" class="node"><title>Node71</title>
<g id="a_node13"><a xlink:href="fractional__logLL__fit_8cu.html" target="_top" xlink:title="fractional_logLL_fit.cu">
<polygon fill="none" stroke="black" points="851,-6 851,-25 963,-25 963,-6 851,-6"/>
<text text-anchor="middle" x="907" y="-13" font-family="Helvetica,sans-Serif" font-size="10.00">fractional_logLL_fit.cu</text>
</a>
</g>
</g>
<!-- Node69&#45;&gt;Node71 -->
<g id="edge12" class="edge"><title>Node69&#45;&gt;Node71</title>
<path fill="none" stroke="midnightblue" d="M907,-62.537C907,-50.1703 907,-34.6198 907,-25.1273"/>
<polygon fill="midnightblue" stroke="midnightblue" points="903.5,-62.7338 907,-72.7338 910.5,-62.7338 903.5,-62.7338"/>
</g>
<!-- Node73 -->
<g id="node15" class="node"><title>Node73</title>
<g id="a_node15"><a xlink:href="splot_8cpp.html" target="_top" xlink:title="splot.cpp">
<polygon fill="none" stroke="black" points="981,-6 981,-25 1037,-25 1037,-6 981,-6"/>
<text text-anchor="middle" x="1009" y="-13" font-family="Helvetica,sans-Serif" font-size="10.00">splot.cpp</text>
</a>
</g>
</g>
<!-- Node72&#45;&gt;Node73 -->
<g id="edge14" class="edge"><title>Node72&#45;&gt;Node73</title>
<path fill="none" stroke="midnightblue" d="M1035.12,-63.6635C1028.18,-51.1281 1019.2,-34.9104 1013.78,-25.1273"/>
<polygon fill="midnightblue" stroke="midnightblue" points="1032.24,-65.6817 1040.14,-72.7338 1038.36,-62.2901 1032.24,-65.6817"/>
</g>
<!-- Node74 -->
<g id="node16" class="node"><title>Node74</title>
<g id="a_node16"><a xlink:href="splot_8cu.html" target="_top" xlink:title="splot.cu">
<polygon fill="none" stroke="black" points="1055.5,-6 1055.5,-25 1106.5,-25 1106.5,-6 1055.5,-6"/>
<text text-anchor="middle" x="1081" y="-13" font-family="Helvetica,sans-Serif" font-size="10.00">splot.cu</text>
</a>
</g>
</g>
<!-- Node72&#45;&gt;Node74 -->
<g id="edge15" class="edge"><title>Node72&#45;&gt;Node74</title>
<path fill="none" stroke="midnightblue" d="M1054.88,-63.6635C1061.82,-51.1281 1070.8,-34.9104 1076.22,-25.1273"/>
<polygon fill="midnightblue" stroke="midnightblue" points="1051.64,-62.2901 1049.86,-72.7338 1057.76,-65.6817 1051.64,-62.2901"/>
</g>
<!-- Node76 -->
<g id="node18" class="node"><title>Node76</title>
<g id="a_node18"><a xlink:href="dense__histogram_8cpp.html" target="_top" xlink:title="dense_histogram.cpp">
<polygon fill="none" stroke="black" points="1125,-6 1125,-25 1235,-25 1235,-6 1125,-6"/>
<text text-anchor="middle" x="1180" y="-13" font-family="Helvetica,sans-Serif" font-size="10.00">dense_histogram.cpp</text>
</a>
</g>
</g>
<!-- Node75&#45;&gt;Node76 -->
<g id="edge17" class="edge"><title>Node75&#45;&gt;Node76</title>
<path fill="none" stroke="midnightblue" d="M1180,-62.537C1180,-50.1703 1180,-34.6198 1180,-25.1273"/>
<polygon fill="midnightblue" stroke="midnightblue" points="1176.5,-62.7338 1180,-72.7338 1183.5,-62.7338 1176.5,-62.7338"/>
</g>
<!-- Node77 -->
<g id="node19" class="node"><title>Node77</title>
<g id="a_node19"><a xlink:href="dense__histogram_8cu.html" target="_top" xlink:title="dense_histogram.cu">
<polygon fill="none" stroke="black" points="1253,-6 1253,-25 1357,-25 1357,-6 1253,-6"/>
<text text-anchor="middle" x="1305" y="-13" font-family="Helvetica,sans-Serif" font-size="10.00">dense_histogram.cu</text>
</a>
</g>
</g>
<!-- Node75&#45;&gt;Node77 -->
<g id="edge18" class="edge"><title>Node75&#45;&gt;Node77</title>
<path fill="none" stroke="midnightblue" d="M1205.76,-68.1034C1230.52,-55.2309 1267.19,-36.16 1288.33,-25.1672"/>
<polygon fill="midnightblue" stroke="midnightblue" points="1203.86,-65.1497 1196.6,-72.8685 1207.09,-71.3602 1203.86,-65.1497"/>
</g>
<!-- Node79 -->
<g id="node21" class="node"><title>Node79</title>
<g id="a_node21"><a xlink:href="double__gaussian__plus__exponential_8cpp.html" target="_top" xlink:title="double_gaussian_plus\l_exponential.cpp">
<polygon fill="none" stroke="black" points="1375.5,-0.5 1375.5,-30.5 1488.5,-30.5 1488.5,-0.5 1375.5,-0.5"/>
<text text-anchor="start" x="1383.5" y="-18.5" font-family="Helvetica,sans-Serif" font-size="10.00">double_gaussian_plus</text>
<text text-anchor="middle" x="1432" y="-7.5" font-family="Helvetica,sans-Serif" font-size="10.00">_exponential.cpp</text>
</a>
</g>
</g>
<!-- Node78&#45;&gt;Node79 -->
<g id="edge20" class="edge"><title>Node78&#45;&gt;Node79</title>
<path fill="none" stroke="midnightblue" d="M1432,-57.1081C1432,-48.1539 1432,-38.3227 1432,-30.5765"/>
<polygon fill="midnightblue" stroke="midnightblue" points="1428.5,-57.3959 1432,-67.396 1435.5,-57.396 1428.5,-57.3959"/>
</g>
<!-- Node80 -->
<g id="node22" class="node"><title>Node80</title>
<g id="a_node22"><a xlink:href="double__gaussian__plus__exponential_8cu.html" target="_top" xlink:title="double_gaussian_plus\l_exponential.cu">
<polygon fill="none" stroke="black" points="1506.5,-0.5 1506.5,-30.5 1619.5,-30.5 1619.5,-0.5 1506.5,-0.5"/>
<text text-anchor="start" x="1514.5" y="-18.5" font-family="Helvetica,sans-Serif" font-size="10.00">double_gaussian_plus</text>
<text text-anchor="middle" x="1563" y="-7.5" font-family="Helvetica,sans-Serif" font-size="10.00">_exponential.cu</text>
</a>
</g>
</g>
<!-- Node78&#45;&gt;Node80 -->
<g id="edge21" class="edge"><title>Node78&#45;&gt;Node80</title>
<path fill="none" stroke="midnightblue" d="M1469.58,-62.8533C1490.29,-52.5761 1515.59,-40.0252 1534.63,-30.5765"/>
<polygon fill="midnightblue" stroke="midnightblue" points="1467.83,-59.8159 1460.43,-67.396 1470.94,-66.0864 1467.83,-59.8159"/>
</g>
<!-- Node82 -->
<g id="node24" class="node"><title>Node82</title>
<g id="a_node24"><a xlink:href="gaussian__plus__argus_8cpp.html" target="_top" xlink:title="gaussian_plus_argus.cpp">
<polygon fill="none" stroke="black" points="1637.5,-6 1637.5,-25 1764.5,-25 1764.5,-6 1637.5,-6"/>
<text text-anchor="middle" x="1701" y="-13" font-family="Helvetica,sans-Serif" font-size="10.00">gaussian_plus_argus.cpp</text>
</a>
</g>
</g>
<!-- Node81&#45;&gt;Node82 -->
<g id="edge23" class="edge"><title>Node81&#45;&gt;Node82</title>
<path fill="none" stroke="midnightblue" d="M1650.5,-65.4968C1663.64,-52.7496 1681.52,-35.3947 1692.11,-25.1273"/>
<polygon fill="midnightblue" stroke="midnightblue" points="1647.78,-63.2586 1643.04,-72.7338 1652.65,-68.2827 1647.78,-63.2586"/>
</g>
<!-- Node83 -->
<g id="node25" class="node"><title>Node83</title>
<g id="a_node25"><a xlink:href="gaussian__plus__argus_8cu.html" target="_top" xlink:title="gaussian_plus_argus.cu">
<polygon fill="none" stroke="black" points="1783,-6 1783,-25 1905,-25 1905,-6 1783,-6"/>
<text text-anchor="middle" x="1844" y="-13" font-family="Helvetica,sans-Serif" font-size="10.00">gaussian_plus_argus.cu</text>
</a>
</g>
</g>
<!-- Node81&#45;&gt;Node83 -->
<g id="edge24" class="edge"><title>Node81&#45;&gt;Node83</title>
<path fill="none" stroke="midnightblue" d="M1671.65,-69.8471C1713.24,-56.9725 1779.24,-36.5456 1816.33,-25.0637"/>
<polygon fill="midnightblue" stroke="midnightblue" points="1670.4,-66.5681 1661.89,-72.8685 1672.47,-73.2551 1670.4,-66.5681"/>
</g>
</g>
</svg>
        <g id="navigator" transform="translate(0 0)" fill="#404254">
                <rect fill="#f2f5e9" fill-opacity="0.5" stroke="#606060" stroke-width=".5" x="0" y="0" width="60" height="60"/>
                <use id="zoomplus" xlink:href="#zoomPlus" x="17" y="9" onmousedown="handleZoom(evt,'in')"/>
                <use id="zoomminus" xlink:href="#zoomMin" x="42" y="9" onmousedown="handleZoom(evt,'out')"/>
                <use id="reset" xlink:href="#resetDef" x="30" y="36" onmousedown="handleReset()"/>
                <g id="arrowUp" xlink:href="#dirArrow" transform="translate(30 24)" onmousedown="handlePan(0,-1)">
                  <use xlink:href="#rim" fill="#404040">
                        <set attributeName="fill" to="#808080" begin="arrowUp.mouseover" end="arrowUp.mouseout"/>
                  </use>
                  <path fill="none" stroke="white" stroke-width="1.5" d="M0,-3.0v7 M-2.5,-0.5L0,-3.0L2.5,-0.5"/>
                </g>
                <g id="arrowRight" xlink:href="#dirArrow" transform="rotate(90) translate(36 -43)" onmousedown="handlePan(1,0)">
                  <use xlink:href="#rim" fill="#404040">
                        <set attributeName="fill" to="#808080" begin="arrowRight.mouseover" end="arrowRight.mouseout"/>
                  </use>
                  <path fill="none" stroke="white" stroke-width="1.5" d="M0,-3.0v7 M-2.5,-0.5L0,-3.0L2.5,-0.5"/>
                </g>
                <g id="arrowDown" xlink:href="#dirArrow" transform="rotate(180) translate(-30 -48)" onmousedown="handlePan(0,1)">
                  <use xlink:href="#rim" fill="#404040">
                        <set attributeName="fill" to="#808080" begin="arrowDown.mouseover" end="arrowDown.mouseout"/>
                  </use>
                  <path fill="none" stroke="white" stroke-width="1.5" d="M0,-3.0v7 M-2.5,-0.5L0,-3.0L2.5,-0.5"/>
                </g>
                <g id="arrowLeft" xlink:href="#dirArrow" transform="rotate(270) translate(-36 17)" onmousedown="handlePan(-1,0)">
                  <use xlink:href="#rim" fill="#404040">
                        <set attributeName="fill" to="#808080" begin="arrowLeft.mouseover" end="arrowLeft.mouseout"/>
                  </use>
                  <path fill="none" stroke="white" stroke-width="1.5" d="M0,-3.0v7 M-2.5,-0.5L0,-3.0L2.5,-0.5"/>
                </g>
        </g>
        <svg viewBox="0 0 15 15" width="100%" height="30px" preserveAspectRatio="xMaxYMin meet">
         <g id="arrow_out" transform="scale(0.3 0.3)">
          <a xlink:href="Gaussian_8h__dep__incl_org.svg" target="_base">
           <rect id="button" ry="5" rx="5" y="6" x="6" height="38" width="38"
                fill="#f2f5e9" fill-opacity="0.5" stroke="#606060" stroke-width="1.0"/>
           <path id="arrow"
             d="M 11.500037,31.436501 C 11.940474,20.09759 22.043105,11.32322 32.158766,21.979434 L 37.068811,17.246167 C 37.068811,17.246167 37.088388,32 37.088388,32 L 22.160133,31.978069 C 22.160133,31.978069 26.997745,27.140456 26.997745,27.140456 C 18.528582,18.264221 13.291696,25.230495 11.500037,31.436501 z"
             style="fill:#404040;"/>
          </a>
         </g>
        </svg>
</svg>
