<?xml version="1.0" encoding="UTF-8" standalone="no"?>
<!DOCTYPE svg PUBLIC "-//W3C//DTD SVG 1.1//EN"
 "http://www.w3.org/Graphics/SVG/1.1/DTD/svg11.dtd">
<!-- Generated by graphviz version 2.42.4 (0)
 -->
<!-- Title: GaussKronrodRule.h Pages: 1 -->
<svg width="801pt" height="240pt"
 viewBox="0.00 0.00 801.00 240.00" xmlns="http://www.w3.org/2000/svg" xmlns:xlink="http://www.w3.org/1999/xlink">
<g id="graph0" class="graph" transform="scale(1 1) rotate(0) translate(4 236)">
<title>GaussKronrodRule.h</title>
<!-- Node0 -->
<g id="node1" class="node">
<title>Node0</title>
<polygon fill="#bfbfbf" stroke="black" points="324.5,-212.5 324.5,-231.5 431.5,-231.5 431.5,-212.5 324.5,-212.5"/>
<text text-anchor="middle" x="378" y="-219.5" font-family="Helvetica,sans-Serif" font-size="10.00">GaussKronrodRule.h</text>
</g>
<!-- Node1 -->
<g id="node2" class="node">
<title>Node1</title>
<g id="a_node2"><a xlink:href="Config_8h.html" target="_top" xlink:title="hydra/detail/Config.h">
<polygon fill="none" stroke="black" points="103.5,-84 103.5,-103 210.5,-103 210.5,-84 103.5,-84"/>
<text text-anchor="middle" x="157" y="-91" font-family="Helvetica,sans-Serif" font-size="10.00">hydra/detail/Config.h</text>
</a>
</g>
</g>
<!-- Node0&#45;&gt;Node1 -->
<g id="edge1" class="edge">
<title>Node0&#45;&gt;Node1</title>
<path fill="none" stroke="midnightblue" d="M342.48,-212.45C315.87,-205.13 279.18,-193.05 250,-176 219.14,-157.97 189.08,-128.92 171.84,-110.81"/>
<polygon fill="midnightblue" stroke="midnightblue" points="174.24,-108.25 164.86,-103.34 169.13,-113.03 174.24,-108.25"/>
</g>
<!-- Node4 -->
<g id="node5" class="node">
<title>Node4</title>
<g id="a_node5"><a xlink:href="Types_8h.html" target="_top" xlink:title="Common and useful typedefs. ">
<polygon fill="none" stroke="black" points="229,-84 229,-103 307,-103 307,-84 229,-84"/>
<text text-anchor="middle" x="268" y="-91" font-family="Helvetica,sans-Serif" font-size="10.00">hydra/Types.h</text>
</a>
</g>
</g>
<!-- Node0&#45;&gt;Node4 -->
<g id="edge4" class="edge">
<title>Node0&#45;&gt;Node4</title>
<path fill="none" stroke="midnightblue" d="M324.42,-214.09C300.87,-208.1 275.35,-196.9 261,-176 248.22,-157.39 254.01,-130.46 260.24,-112.72"/>
<polygon fill="midnightblue" stroke="midnightblue" points="263.65,-113.61 264.01,-103.02 257.13,-111.07 263.65,-113.61"/>
</g>
<!-- Node5 -->
<g id="node6" class="node">
<title>Node5</title>
<g id="a_node6"><a xlink:href="Print_8h.html" target="_top" xlink:title="hydra/detail/Print.h">
<polygon fill="none" stroke="black" points="270,-151 270,-170 368,-170 368,-151 270,-151"/>
<text text-anchor="middle" x="319" y="-158" font-family="Helvetica,sans-Serif" font-size="10.00">hydra/detail/Print.h</text>
</a>
</g>
</g>
<!-- Node0&#45;&gt;Node5 -->
<g id="edge5" class="edge">
<title>Node0&#45;&gt;Node5</title>
<path fill="none" stroke="midnightblue" d="M369.55,-212.48C360.43,-203.28 345.73,-188.46 334.52,-177.16"/>
<polygon fill="midnightblue" stroke="midnightblue" points="336.96,-174.65 327.44,-170.01 331.99,-179.57 336.96,-174.65"/>
</g>
<!-- Node15 -->
<g id="node16" class="node">
<title>Node15</title>
<polygon fill="none" stroke="#bfbfbf" points="386,-145.5 386,-175.5 490,-175.5 490,-145.5 386,-145.5"/>
<text text-anchor="start" x="394" y="-163.5" font-family="Helvetica,sans-Serif" font-size="10.00">hydra/detail/external</text>
<text text-anchor="middle" x="438" y="-152.5" font-family="Helvetica,sans-Serif" font-size="10.00">/hydra_thrust/pair.h</text>
</g>
<!-- Node0&#45;&gt;Node15 -->
<g id="edge18" class="edge">
<title>Node0&#45;&gt;Node15</title>
<path fill="none" stroke="midnightblue" d="M386.6,-212.48C394.42,-204.72 406.29,-192.94 416.66,-182.66"/>
<polygon fill="midnightblue" stroke="midnightblue" points="419.22,-185.05 423.86,-175.52 414.29,-180.08 419.22,-185.05"/>
</g>
<!-- Node16 -->
<g id="node17" class="node">
<title>Node16</title>
<polygon fill="none" stroke="#bfbfbf" points="508.5,-151 508.5,-170 581.5,-170 581.5,-151 508.5,-151"/>
<text text-anchor="middle" x="545" y="-158" font-family="Helvetica,sans-Serif" font-size="10.00">initializer_list</text>
</g>
<!-- Node0&#45;&gt;Node16 -->
<g id="edge19" class="edge">
<title>Node0&#45;&gt;Node16</title>
<path fill="none" stroke="midnightblue" d="M401.93,-212.48C430.7,-202.22 479.16,-184.96 511.6,-173.4"/>
<polygon fill="midnightblue" stroke="midnightblue" points="512.87,-176.66 521.12,-170.01 510.52,-170.07 512.87,-176.66"/>
</g>
<!-- Node17 -->
<g id="node18" class="node">
<title>Node17</title>
<polygon fill="none" stroke="#bfbfbf" points="600,-151 600,-170 650,-170 650,-151 600,-151"/>
<text text-anchor="middle" x="625" y="-158" font-family="Helvetica,sans-Serif" font-size="10.00">iomanip</text>
</g>
<!-- Node0&#45;&gt;Node17 -->
<g id="edge20" class="edge">
<title>Node0&#45;&gt;Node17</title>
<path fill="none" stroke="midnightblue" d="M431.7,-212.64C475.22,-205.16 537.84,-192.78 591,-176 592.93,-175.39 594.9,-174.71 596.87,-173.99"/>
<polygon fill="midnightblue" stroke="midnightblue" points="598.54,-177.09 606.54,-170.14 595.96,-170.59 598.54,-177.09"/>
</g>
<!-- Node2 -->
<g id="node3" class="node">
<title>Node2</title>
<polygon fill="none" stroke="#bfbfbf" points="0,-0.5 0,-41.5 104,-41.5 104,-0.5 0,-0.5"/>
<text text-anchor="start" x="8" y="-29.5" font-family="Helvetica,sans-Serif" font-size="10.00">hydra/detail/external</text>
<text text-anchor="start" x="8" y="-18.5" font-family="Helvetica,sans-Serif" font-size="10.00">/hydra_thrust/detail</text>
<text text-anchor="middle" x="52" y="-7.5" font-family="Helvetica,sans-Serif" font-size="10.00">/config.h</text>
</g>
<!-- Node1&#45;&gt;Node2 -->
<g id="edge2" class="edge">
<title>Node1&#45;&gt;Node2</title>
<path fill="none" stroke="midnightblue" d="M144.12,-83.86C130.64,-74.8 108.81,-60.14 89.79,-47.37"/>
<polygon fill="midnightblue" stroke="midnightblue" points="91.54,-44.33 81.28,-41.66 87.63,-50.14 91.54,-44.33"/>
</g>
<!-- Node3 -->
<g id="node4" class="node">
<title>Node3</title>
<polygon fill="none" stroke="#bfbfbf" points="122,-0.5 122,-41.5 232,-41.5 232,-0.5 122,-0.5"/>
<text text-anchor="start" x="130" y="-29.5" font-family="Helvetica,sans-Serif" font-size="10.00">hydra/detail/external</text>
<text text-anchor="start" x="130" y="-18.5" font-family="Helvetica,sans-Serif" font-size="10.00">/hydra_thrust/detail</text>
<text text-anchor="middle" x="177" y="-7.5" font-family="Helvetica,sans-Serif" font-size="10.00">/config/host_device.h</text>
</g>
<!-- Node1&#45;&gt;Node3 -->
<g id="edge3" class="edge">
<title>Node1&#45;&gt;Node3</title>
<path fill="none" stroke="midnightblue" d="M159.45,-83.86C161.74,-75.78 165.3,-63.25 168.61,-51.57"/>
<polygon fill="midnightblue" stroke="midnightblue" points="172.06,-52.24 171.42,-41.66 165.33,-50.33 172.06,-52.24"/>
</g>
<!-- Node5&#45;&gt;Node1 -->
<g id="edge15" class="edge">
<title>Node5&#45;&gt;Node1</title>
<path fill="none" stroke="midnightblue" d="M297.49,-150.87C269.33,-139.57 219.8,-119.7 187.7,-106.82"/>
<polygon fill="midnightblue" stroke="midnightblue" points="188.93,-103.54 178.34,-103.06 186.32,-110.04 188.93,-103.54"/>
</g>
<!-- Node5&#45;&gt;Node4 -->
<g id="edge16" class="edge">
<title>Node5&#45;&gt;Node4</title>
<path fill="none" stroke="midnightblue" d="M312.12,-150.73C304.17,-140.6 290.9,-123.69 280.99,-111.06"/>
<polygon fill="midnightblue" stroke="midnightblue" points="283.7,-108.83 274.77,-103.13 278.19,-113.16 283.7,-108.83"/>
</g>
<!-- Node6 -->
<g id="node7" class="node">
<title>Node6</title>
<g id="a_node7"><a xlink:href="StreamSTL_8h.html" target="_top" xlink:title="hydra/detail/utility\l/StreamSTL.h">
<polygon fill="none" stroke="black" points="476.5,-78.5 476.5,-108.5 569.5,-108.5 569.5,-78.5 476.5,-78.5"/>
<text text-anchor="start" x="484.5" y="-96.5" font-family="Helvetica,sans-Serif" font-size="10.00">hydra/detail/utility</text>
<text text-anchor="middle" x="523" y="-85.5" font-family="Helvetica,sans-Serif" font-size="10.00">/StreamSTL.h</text>
</a>
</g>
</g>
<!-- Node5&#45;&gt;Node6 -->
<g id="edge6" class="edge">
<title>Node5&#45;&gt;Node6</title>
<path fill="none" stroke="midnightblue" d="M346.09,-150.87C377.43,-140.88 429.8,-124.2 469.44,-111.56"/>
<polygon fill="midnightblue" stroke="midnightblue" points="470.51,-114.9 478.97,-108.53 468.38,-108.23 470.51,-114.9"/>
</g>
<!-- Node7 -->
<g id="node8" class="node">
<title>Node7</title>
<polygon fill="none" stroke="#bfbfbf" points="289,-11.5 289,-30.5 343,-30.5 343,-11.5 289,-11.5"/>
<text text-anchor="middle" x="316" y="-18.5" font-family="Helvetica,sans-Serif" font-size="10.00">iostream</text>
</g>
<!-- Node5&#45;&gt;Node7 -->
<g id="edge17" class="edge">
<title>Node5&#45;&gt;Node7</title>
<path fill="none" stroke="midnightblue" d="M318.81,-150.9C318.33,-129 317.06,-70.76 316.41,-40.63"/>
<polygon fill="midnightblue" stroke="midnightblue" points="319.9,-40.52 316.19,-30.6 312.91,-40.67 319.9,-40.52"/>
</g>
<!-- Node6&#45;&gt;Node7 -->
<g id="edge7" class="edge">
<title>Node6&#45;&gt;Node7</title>
<path fill="none" stroke="midnightblue" d="M476.32,-81.68C441.39,-72.87 392.82,-59.12 352,-42 347.58,-40.15 343,-37.89 338.66,-35.57"/>
<polygon fill="midnightblue" stroke="midnightblue" points="340.1,-32.36 329.66,-30.52 336.67,-38.47 340.1,-32.36"/>
</g>
<!-- Node8 -->
<g id="node9" class="node">
<title>Node8</title>
<polygon fill="none" stroke="#bfbfbf" points="699,-11.5 699,-30.5 737,-30.5 737,-11.5 699,-11.5"/>
<text text-anchor="middle" x="718" y="-18.5" font-family="Helvetica,sans-Serif" font-size="10.00">array</text>
</g>
<!-- Node6&#45;&gt;Node8 -->
<g id="edge8" class="edge">
<title>Node6&#45;&gt;Node8</title>
<path fill="none" stroke="midnightblue" d="M569.53,-82.75C603.91,-74.53 651.27,-61.04 690,-42 693.11,-40.47 696.25,-38.61 699.24,-36.64"/>
<polygon fill="midnightblue" stroke="midnightblue" points="701.51,-39.32 707.62,-30.66 697.44,-33.62 701.51,-39.32"/>
</g>
<!-- Node9 -->
<g id="node10" class="node">
<title>Node9</title>
<polygon fill="none" stroke="#bfbfbf" points="755,-11.5 755,-30.5 793,-30.5 793,-11.5 755,-11.5"/>
<text text-anchor="middle" x="774" y="-18.5" font-family="Helvetica,sans-Serif" font-size="10.00">tuple</text>
</g>
<!-- Node6&#45;&gt;Node9 -->
<g id="edge9" class="edge">
<title>Node6&#45;&gt;Node9</title>
<path fill="none" stroke="midnightblue" d="M569.54,-87.42C615.88,-81.13 688.23,-67.9 746,-42 749.32,-40.51 752.64,-38.6 755.78,-36.56"/>
<polygon fill="midnightblue" stroke="midnightblue" points="757.9,-39.34 763.97,-30.66 753.81,-33.66 757.9,-39.34"/>
</g>
<!-- Node10 -->
<g id="node11" class="node">
<title>Node10</title>
<polygon fill="none" stroke="#bfbfbf" points="361,-11.5 361,-30.5 423,-30.5 423,-11.5 361,-11.5"/>
<text text-anchor="middle" x="392" y="-18.5" font-family="Helvetica,sans-Serif" font-size="10.00">type_traits</text>
</g>
<!-- Node6&#45;&gt;Node10 -->
<g id="edge10" class="edge">
<title>Node6&#45;&gt;Node10</title>
<path fill="none" stroke="midnightblue" d="M496.81,-78.4C473.55,-65.89 439.8,-47.72 416.93,-35.42"/>
<polygon fill="midnightblue" stroke="midnightblue" points="418.32,-32.19 407.86,-30.53 415,-38.35 418.32,-32.19"/>
</g>
<!-- Node11 -->
<g id="node12" class="node">
<title>Node11</title>
<polygon fill="none" stroke="#bfbfbf" points="441.5,-11.5 441.5,-30.5 484.5,-30.5 484.5,-11.5 441.5,-11.5"/>
<text text-anchor="middle" x="463" y="-18.5" font-family="Helvetica,sans-Serif" font-size="10.00">cstdio</text>
</g>
<!-- Node6&#45;&gt;Node11 -->
<g id="edge11" class="edge">
<title>Node6&#45;&gt;Node11</title>
<path fill="none" stroke="midnightblue" d="M510.86,-78.23C501.16,-66.84 487.54,-50.84 477.31,-38.82"/>
<polygon fill="midnightblue" stroke="midnightblue" points="479.72,-36.24 470.57,-30.89 474.38,-40.78 479.72,-36.24"/>
</g>
<!-- Node12 -->
<g id="node13" class="node">
<title>Node12</title>
<polygon fill="none" stroke="#bfbfbf" points="502.5,-11.5 502.5,-30.5 543.5,-30.5 543.5,-11.5 502.5,-11.5"/>
<text text-anchor="middle" x="523" y="-18.5" font-family="Helvetica,sans-Serif" font-size="10.00">string</text>
</g>
<!-- Node6&#45;&gt;Node12 -->
<g id="edge12" class="edge">
<title>Node6&#45;&gt;Node12</title>
<path fill="none" stroke="midnightblue" d="M523,-78.23C523,-67.5 523,-52.69 523,-40.96"/>
<polygon fill="midnightblue" stroke="midnightblue" points="526.5,-40.89 523,-30.89 519.5,-40.89 526.5,-40.89"/>
</g>
<!-- Node13 -->
<g id="node14" class="node">
<title>Node13</title>
<polygon fill="none" stroke="#bfbfbf" points="561.5,-11.5 561.5,-30.5 610.5,-30.5 610.5,-11.5 561.5,-11.5"/>
<text text-anchor="middle" x="586" y="-18.5" font-family="Helvetica,sans-Serif" font-size="10.00">cassert</text>
</g>
<!-- Node6&#45;&gt;Node13 -->
<g id="edge13" class="edge">
<title>Node6&#45;&gt;Node13</title>
<path fill="none" stroke="midnightblue" d="M535.75,-78.23C546.03,-66.73 560.51,-50.53 571.28,-38.47"/>
<polygon fill="midnightblue" stroke="midnightblue" points="574,-40.68 578.05,-30.89 568.78,-36.02 574,-40.68"/>
</g>
<!-- Node14 -->
<g id="node15" class="node">
<title>Node14</title>
<polygon fill="none" stroke="#bfbfbf" points="629,-11.5 629,-30.5 681,-30.5 681,-11.5 629,-11.5"/>
<text text-anchor="middle" x="655" y="-18.5" font-family="Helvetica,sans-Serif" font-size="10.00">memory</text>
</g>
<!-- Node6&#45;&gt;Node14 -->
<g id="edge14" class="edge">
<title>Node6&#45;&gt;Node14</title>
<path fill="none" stroke="midnightblue" d="M550.75,-78.42C570.23,-68.44 596.83,-54.64 620,-42 623.63,-40.02 627.45,-37.89 631.17,-35.78"/>
<polygon fill="midnightblue" stroke="midnightblue" points="633.13,-38.69 640.08,-30.69 629.66,-32.61 633.13,-38.69"/>
</g>
</g>
</svg>
