<?xml version="1.0" encoding="UTF-8" standalone="no"?>
<!DOCTYPE svg PUBLIC "-//W3C//DTD SVG 1.1//EN"
 "http://www.w3.org/Graphics/SVG/1.1/DTD/svg11.dtd">
<!-- Generated by graphviz version 2.42.4 (0)
 -->
<!-- Title: GaussKronrodRules.h Pages: 1 -->
<svg width="1195pt" height="252pt"
 viewBox="0.00 0.00 1194.50 252.00" xmlns="http://www.w3.org/2000/svg" xmlns:xlink="http://www.w3.org/1999/xlink">
<g id="graph0" class="graph" transform="scale(1 1) rotate(0) translate(4 248)">
<title>GaussKronrodRules.h</title>
<!-- Node19 -->
<g id="node1" class="node">
<title>Node19</title>
<polygon fill="#bfbfbf" stroke="black" points="310,-224.5 310,-243.5 423,-243.5 423,-224.5 310,-224.5"/>
<text text-anchor="middle" x="366.5" y="-231.5" font-family="Helvetica,sans-Serif" font-size="10.00">GaussKronrodRules.h</text>
</g>
<!-- Node20 -->
<g id="node2" class="node">
<title>Node20</title>
<g id="a_node2"><a xlink:href="GaussKronrodAdaptiveQuadrature_8h.html" target="_top" xlink:title="GaussKronrodAdaptiveQuadrature.h">
<polygon fill="none" stroke="black" points="194,-168.5 194,-187.5 367,-187.5 367,-168.5 194,-168.5"/>
<text text-anchor="middle" x="280.5" y="-175.5" font-family="Helvetica,sans-Serif" font-size="10.00">GaussKronrodAdaptiveQuadrature.h</text>
</a>
</g>
</g>
<!-- Node19&#45;&gt;Node20 -->
<g id="edge1" class="edge">
<title>Node19&#45;&gt;Node20</title>
<path fill="none" stroke="midnightblue" d="M344.05,-218.9C328.28,-209 307.69,-196.07 294.28,-187.65"/>
<polygon fill="midnightblue" stroke="midnightblue" points="342.35,-221.97 352.68,-224.32 346.07,-216.04 342.35,-221.97"/>
</g>
<!-- Node24 -->
<g id="node6" class="node">
<title>Node24</title>
<g id="a_node6"><a xlink:href="GaussKronrodQuadrature_8h.html" target="_top" xlink:title="GaussKronrodQuadrature.h">
<polygon fill="none" stroke="black" points="421,-168.5 421,-187.5 556,-187.5 556,-168.5 421,-168.5"/>
<text text-anchor="middle" x="488.5" y="-175.5" font-family="Helvetica,sans-Serif" font-size="10.00">GaussKronrodQuadrature.h</text>
</a>
</g>
</g>
<!-- Node19&#45;&gt;Node24 -->
<g id="edge5" class="edge">
<title>Node19&#45;&gt;Node24</title>
<path fill="none" stroke="midnightblue" d="M395.04,-220.37C417.89,-210.26 449.31,-196.35 469.26,-187.52"/>
<polygon fill="midnightblue" stroke="midnightblue" points="393.56,-217.2 385.83,-224.44 396.39,-223.6 393.56,-217.2"/>
</g>
<!-- Node21 -->
<g id="node3" class="node">
<title>Node21</title>
<g id="a_node3"><a xlink:href="adaptive__gauss__kronrod_8inl.html" target="_top" xlink:title="adaptive_gauss_kronrod.inl">
<polygon fill="none" stroke="black" points="150,-112.5 150,-131.5 285,-131.5 285,-112.5 150,-112.5"/>
<text text-anchor="middle" x="217.5" y="-119.5" font-family="Helvetica,sans-Serif" font-size="10.00">adaptive_gauss_kronrod.inl</text>
</a>
</g>
</g>
<!-- Node20&#45;&gt;Node21 -->
<g id="edge2" class="edge">
<title>Node20&#45;&gt;Node21</title>
<path fill="none" stroke="midnightblue" d="M262.46,-161.54C251.23,-151.91 237.18,-139.87 227.81,-131.83"/>
<polygon fill="midnightblue" stroke="midnightblue" points="260.51,-164.47 270.38,-168.32 265.06,-159.16 260.51,-164.47"/>
</g>
<!-- Node22 -->
<g id="node4" class="node">
<title>Node22</title>
<g id="a_node4"><a xlink:href="adaptive__gauss__kronrod_8cpp.html" target="_top" xlink:title="adaptive_gauss_kronrod.cpp">
<polygon fill="none" stroke="black" points="0,-56.5 0,-75.5 141,-75.5 141,-56.5 0,-56.5"/>
<text text-anchor="middle" x="70.5" y="-63.5" font-family="Helvetica,sans-Serif" font-size="10.00">adaptive_gauss_kronrod.cpp</text>
</a>
</g>
</g>
<!-- Node21&#45;&gt;Node22 -->
<g id="edge3" class="edge">
<title>Node21&#45;&gt;Node22</title>
<path fill="none" stroke="midnightblue" d="M184.58,-108.91C156.94,-98.75 118.16,-84.51 93.68,-75.52"/>
<polygon fill="midnightblue" stroke="midnightblue" points="183.61,-112.28 194.21,-112.44 186.03,-105.71 183.61,-112.28"/>
</g>
<!-- Node23 -->
<g id="node5" class="node">
<title>Node23</title>
<g id="a_node5"><a xlink:href="adaptive__gauss__kronrod_8cu.html" target="_top" xlink:title="adaptive_gauss_kronrod.cu">
<polygon fill="none" stroke="black" points="159.5,-56.5 159.5,-75.5 295.5,-75.5 295.5,-56.5 159.5,-56.5"/>
<text text-anchor="middle" x="227.5" y="-63.5" font-family="Helvetica,sans-Serif" font-size="10.00">adaptive_gauss_kronrod.cu</text>
</a>
</g>
</g>
<!-- Node21&#45;&gt;Node23 -->
<g id="edge4" class="edge">
<title>Node21&#45;&gt;Node23</title>
<path fill="none" stroke="midnightblue" d="M221,-102.1C222.66,-93.14 224.56,-82.86 225.88,-75.75"/>
<polygon fill="midnightblue" stroke="midnightblue" points="217.53,-101.61 219.15,-112.08 224.41,-102.89 217.53,-101.61"/>
</g>
<!-- Node25 -->
<g id="node7" class="node">
<title>Node25</title>
<g id="a_node7"><a xlink:href="DeltaDMassBackground_8h.html" target="_top" xlink:title="DeltaDMassBackground.h">
<polygon fill="none" stroke="black" points="303,-112.5 303,-131.5 434,-131.5 434,-112.5 303,-112.5"/>
<text text-anchor="middle" x="368.5" y="-119.5" font-family="Helvetica,sans-Serif" font-size="10.00">DeltaDMassBackground.h</text>
</a>
</g>
</g>
<!-- Node24&#45;&gt;Node25 -->
<g id="edge6" class="edge">
<title>Node24&#45;&gt;Node25</title>
<path fill="none" stroke="midnightblue" d="M460.13,-164.23C437.68,-154.13 406.96,-140.31 387.43,-131.52"/>
<polygon fill="midnightblue" stroke="midnightblue" points="458.93,-167.53 469.49,-168.44 461.8,-161.15 458.93,-167.53"/>
</g>
<!-- Node26 -->
<g id="node8" class="node">
<title>Node26</title>
<g id="a_node8"><a xlink:href="particle__mass_8inl.html" target="_top" xlink:title="particle_mass.inl">
<polygon fill="none" stroke="black" points="323.5,-56.5 323.5,-75.5 413.5,-75.5 413.5,-56.5 323.5,-56.5"/>
<text text-anchor="middle" x="368.5" y="-63.5" font-family="Helvetica,sans-Serif" font-size="10.00">particle_mass.inl</text>
</a>
</g>
</g>
<!-- Node24&#45;&gt;Node26 -->
<g id="edge24" class="edge">
<title>Node24&#45;&gt;Node26</title>
<path fill="none" stroke="midnightblue" d="M478.81,-159.47C470.48,-145.47 457.45,-125.94 442.5,-112 425.79,-96.41 402.83,-83.47 386.94,-75.53"/>
<polygon fill="midnightblue" stroke="midnightblue" points="475.78,-161.22 483.8,-168.15 481.85,-157.73 475.78,-161.22"/>
</g>
<!-- Node29 -->
<g id="node11" class="node">
<title>Node29</title>
<g id="a_node11"><a xlink:href="Ipatia_8h.html" target="_top" xlink:title="Ipatia.h">
<polygon fill="none" stroke="black" points="491,-112.5 491,-131.5 540,-131.5 540,-112.5 491,-112.5"/>
<text text-anchor="middle" x="515.5" y="-119.5" font-family="Helvetica,sans-Serif" font-size="10.00">Ipatia.h</text>
</a>
</g>
</g>
<!-- Node24&#45;&gt;Node29 -->
<g id="edge10" class="edge">
<title>Node24&#45;&gt;Node29</title>
<path fill="none" stroke="midnightblue" d="M497.51,-158.98C502.09,-149.82 507.45,-139.09 511.12,-131.75"/>
<polygon fill="midnightblue" stroke="midnightblue" points="494.3,-157.57 492.96,-168.08 500.56,-160.7 494.3,-157.57"/>
</g>
<!-- Node36 -->
<g id="node18" class="node">
<title>Node36</title>
<g id="a_node18"><a xlink:href="fit__convoluted__pdfs_8inl.html" target="_top" xlink:title="fit_convoluted_pdfs.inl">
<polygon fill="none" stroke="black" points="706.5,-112.5 706.5,-131.5 820.5,-131.5 820.5,-112.5 706.5,-112.5"/>
<text text-anchor="middle" x="763.5" y="-119.5" font-family="Helvetica,sans-Serif" font-size="10.00">fit_convoluted_pdfs.inl</text>
</a>
</g>
</g>
<!-- Node24&#45;&gt;Node36 -->
<g id="edge18" class="edge">
<title>Node24&#45;&gt;Node36</title>
<path fill="none" stroke="midnightblue" d="M542.11,-166.47C594.08,-156.27 671.94,-140.98 720.13,-131.52"/>
<polygon fill="midnightblue" stroke="midnightblue" points="541.21,-163.08 532.07,-168.44 542.56,-169.95 541.21,-163.08"/>
</g>
<!-- Node39 -->
<g id="node21" class="node">
<title>Node39</title>
<g id="a_node21"><a xlink:href="gauss__kronrod_8inl.html" target="_top" xlink:title="gauss_kronrod.inl">
<polygon fill="none" stroke="black" points="978,-112.5 978,-131.5 1071,-131.5 1071,-112.5 978,-112.5"/>
<text text-anchor="middle" x="1024.5" y="-119.5" font-family="Helvetica,sans-Serif" font-size="10.00">gauss_kronrod.inl</text>
</a>
</g>
</g>
<!-- Node24&#45;&gt;Node39 -->
<g id="edge21" class="edge">
<title>Node24&#45;&gt;Node39</title>
<path fill="none" stroke="midnightblue" d="M566.09,-169.18C679.15,-157.79 885.72,-136.98 977.92,-127.69"/>
<polygon fill="midnightblue" stroke="midnightblue" points="565.71,-165.7 556.11,-170.19 566.41,-172.67 565.71,-165.7"/>
</g>
<!-- Node25&#45;&gt;Node26 -->
<g id="edge7" class="edge">
<title>Node25&#45;&gt;Node26</title>
<path fill="none" stroke="midnightblue" d="M368.5,-101.8C368.5,-92.91 368.5,-82.78 368.5,-75.75"/>
<polygon fill="midnightblue" stroke="midnightblue" points="365,-102.08 368.5,-112.08 372,-102.08 365,-102.08"/>
</g>
<!-- Node27 -->
<g id="node9" class="node">
<title>Node27</title>
<g id="a_node9"><a xlink:href="particle__mass_8cpp.html" target="_top" xlink:title="particle_mass.cpp">
<polygon fill="none" stroke="black" points="206.5,-0.5 206.5,-19.5 302.5,-19.5 302.5,-0.5 206.5,-0.5"/>
<text text-anchor="middle" x="254.5" y="-7.5" font-family="Helvetica,sans-Serif" font-size="10.00">particle_mass.cpp</text>
</a>
</g>
</g>
<!-- Node26&#45;&gt;Node27 -->
<g id="edge8" class="edge">
<title>Node26&#45;&gt;Node27</title>
<path fill="none" stroke="midnightblue" d="M341.26,-52.1C319.96,-42.01 290.96,-28.27 272.48,-19.52"/>
<polygon fill="midnightblue" stroke="midnightblue" points="339.9,-55.33 350.44,-56.44 342.9,-49 339.9,-55.33"/>
</g>
<!-- Node28 -->
<g id="node10" class="node">
<title>Node28</title>
<g id="a_node10"><a xlink:href="particle__mass_8cu.html" target="_top" xlink:title="particle_mass.cu">
<polygon fill="none" stroke="black" points="321,-0.5 321,-19.5 412,-19.5 412,-0.5 321,-0.5"/>
<text text-anchor="middle" x="366.5" y="-7.5" font-family="Helvetica,sans-Serif" font-size="10.00">particle_mass.cu</text>
</a>
</g>
</g>
<!-- Node26&#45;&gt;Node28 -->
<g id="edge9" class="edge">
<title>Node26&#45;&gt;Node28</title>
<path fill="none" stroke="midnightblue" d="M367.79,-45.8C367.46,-36.91 367.08,-26.78 366.82,-19.75"/>
<polygon fill="midnightblue" stroke="midnightblue" points="364.3,-46.22 368.17,-56.08 371.3,-45.96 364.3,-46.22"/>
</g>
<!-- Node29&#45;&gt;Node26 -->
<g id="edge17" class="edge">
<title>Node29&#45;&gt;Node26</title>
<path fill="none" stroke="midnightblue" d="M482.58,-108.91C454.94,-98.75 416.16,-84.51 391.68,-75.52"/>
<polygon fill="midnightblue" stroke="midnightblue" points="481.61,-112.28 492.21,-112.44 484.03,-105.71 481.61,-112.28"/>
</g>
<!-- Node30 -->
<g id="node12" class="node">
<title>Node30</title>
<g id="a_node12"><a xlink:href="convolute__functions_8inl.html" target="_top" xlink:title="convolute_functions.inl">
<polygon fill="none" stroke="black" points="445.5,-56.5 445.5,-75.5 561.5,-75.5 561.5,-56.5 445.5,-56.5"/>
<text text-anchor="middle" x="503.5" y="-63.5" font-family="Helvetica,sans-Serif" font-size="10.00">convolute_functions.inl</text>
</a>
</g>
</g>
<!-- Node29&#45;&gt;Node30 -->
<g id="edge11" class="edge">
<title>Node29&#45;&gt;Node30</title>
<path fill="none" stroke="midnightblue" d="M511.3,-102.1C509.31,-93.14 507.02,-82.86 505.44,-75.75"/>
<polygon fill="midnightblue" stroke="midnightblue" points="507.93,-103.08 513.52,-112.08 514.77,-101.56 507.93,-103.08"/>
</g>
<!-- Node33 -->
<g id="node15" class="node">
<title>Node33</title>
<g id="a_node15"><a xlink:href="Ipatia__plus__argus_8inl.html" target="_top" xlink:title="Ipatia_plus_argus.inl">
<polygon fill="none" stroke="black" points="579.5,-56.5 579.5,-75.5 685.5,-75.5 685.5,-56.5 579.5,-56.5"/>
<text text-anchor="middle" x="632.5" y="-63.5" font-family="Helvetica,sans-Serif" font-size="10.00">Ipatia_plus_argus.inl</text>
</a>
</g>
</g>
<!-- Node29&#45;&gt;Node33 -->
<g id="edge14" class="edge">
<title>Node29&#45;&gt;Node33</title>
<path fill="none" stroke="midnightblue" d="M543.16,-108.23C565.05,-98.13 595,-84.31 614.05,-75.52"/>
<polygon fill="midnightblue" stroke="midnightblue" points="541.65,-105.08 534.04,-112.44 544.59,-111.43 541.65,-105.08"/>
</g>
<!-- Node31 -->
<g id="node13" class="node">
<title>Node31</title>
<g id="a_node13"><a xlink:href="convolute__functions_8cpp.html" target="_top" xlink:title="convolute_functions.cpp">
<polygon fill="none" stroke="black" points="430.5,-0.5 430.5,-19.5 552.5,-19.5 552.5,-0.5 430.5,-0.5"/>
<text text-anchor="middle" x="491.5" y="-7.5" font-family="Helvetica,sans-Serif" font-size="10.00">convolute_functions.cpp</text>
</a>
</g>
</g>
<!-- Node30&#45;&gt;Node31 -->
<g id="edge12" class="edge">
<title>Node30&#45;&gt;Node31</title>
<path fill="none" stroke="midnightblue" d="M499.3,-46.1C497.31,-37.14 495.02,-26.86 493.44,-19.75"/>
<polygon fill="midnightblue" stroke="midnightblue" points="495.93,-47.08 501.52,-56.08 502.77,-45.56 495.93,-47.08"/>
</g>
<!-- Node32 -->
<g id="node14" class="node">
<title>Node32</title>
<g id="a_node14"><a xlink:href="convolute__functions_8cu.html" target="_top" xlink:title="convolute_functions.cu">
<polygon fill="none" stroke="black" points="571,-0.5 571,-19.5 688,-19.5 688,-0.5 571,-0.5"/>
<text text-anchor="middle" x="629.5" y="-7.5" font-family="Helvetica,sans-Serif" font-size="10.00">convolute_functions.cu</text>
</a>
</g>
</g>
<!-- Node30&#45;&gt;Node32 -->
<g id="edge13" class="edge">
<title>Node30&#45;&gt;Node32</title>
<path fill="none" stroke="midnightblue" d="M532.66,-52.5C556.28,-42.38 588.93,-28.39 609.63,-19.52"/>
<polygon fill="midnightblue" stroke="midnightblue" points="531.28,-49.29 523.47,-56.44 534.04,-55.72 531.28,-49.29"/>
</g>
<!-- Node34 -->
<g id="node16" class="node">
<title>Node34</title>
<g id="a_node16"><a xlink:href="ipatia__plus__argus_8cpp.html" target="_top" xlink:title="ipatia_plus_argus.cpp">
<polygon fill="none" stroke="black" points="706,-0.5 706,-19.5 817,-19.5 817,-0.5 706,-0.5"/>
<text text-anchor="middle" x="761.5" y="-7.5" font-family="Helvetica,sans-Serif" font-size="10.00">ipatia_plus_argus.cpp</text>
</a>
</g>
</g>
<!-- Node33&#45;&gt;Node34 -->
<g id="edge15" class="edge">
<title>Node33&#45;&gt;Node34</title>
<path fill="none" stroke="midnightblue" d="M662.35,-52.5C686.54,-42.38 719.96,-28.39 741.16,-19.52"/>
<polygon fill="midnightblue" stroke="midnightblue" points="660.81,-49.35 652.94,-56.44 663.52,-55.81 660.81,-49.35"/>
</g>
<!-- Node35 -->
<g id="node17" class="node">
<title>Node35</title>
<g id="a_node17"><a xlink:href="ipatia__plus__argus_8cu.html" target="_top" xlink:title="ipatia_plus_argus.cu">
<polygon fill="none" stroke="black" points="835.5,-0.5 835.5,-19.5 941.5,-19.5 941.5,-0.5 835.5,-0.5"/>
<text text-anchor="middle" x="888.5" y="-7.5" font-family="Helvetica,sans-Serif" font-size="10.00">ipatia_plus_argus.cu</text>
</a>
</g>
</g>
<!-- Node33&#45;&gt;Node35 -->
<g id="edge16" class="edge">
<title>Node33&#45;&gt;Node35</title>
<path fill="none" stroke="midnightblue" d="M683.01,-54.35C731.39,-44.14 803.45,-28.94 848.13,-19.52"/>
<polygon fill="midnightblue" stroke="midnightblue" points="682.13,-50.95 673.06,-56.44 683.57,-57.8 682.13,-50.95"/>
</g>
<!-- Node37 -->
<g id="node19" class="node">
<title>Node37</title>
<g id="a_node19"><a xlink:href="fit__convoluted__pdfs_8cpp.html" target="_top" xlink:title="fit_convoluted_pdfs.cpp">
<polygon fill="none" stroke="black" points="703.5,-56.5 703.5,-75.5 823.5,-75.5 823.5,-56.5 703.5,-56.5"/>
<text text-anchor="middle" x="763.5" y="-63.5" font-family="Helvetica,sans-Serif" font-size="10.00">fit_convoluted_pdfs.cpp</text>
</a>
</g>
</g>
<!-- Node36&#45;&gt;Node37 -->
<g id="edge19" class="edge">
<title>Node36&#45;&gt;Node37</title>
<path fill="none" stroke="midnightblue" d="M763.5,-101.8C763.5,-92.91 763.5,-82.78 763.5,-75.75"/>
<polygon fill="midnightblue" stroke="midnightblue" points="760,-102.08 763.5,-112.08 767,-102.08 760,-102.08"/>
</g>
<!-- Node38 -->
<g id="node20" class="node">
<title>Node38</title>
<g id="a_node20"><a xlink:href="fit__convoluted__pdfs_8cu.html" target="_top" xlink:title="fit_convoluted_pdfs.cu">
<polygon fill="none" stroke="black" points="842,-56.5 842,-75.5 957,-75.5 957,-56.5 842,-56.5"/>
<text text-anchor="middle" x="899.5" y="-63.5" font-family="Helvetica,sans-Serif" font-size="10.00">fit_convoluted_pdfs.cu</text>
</a>
</g>
</g>
<!-- Node36&#45;&gt;Node38 -->
<g id="edge20" class="edge">
<title>Node36&#45;&gt;Node38</title>
<path fill="none" stroke="midnightblue" d="M794.63,-108.64C820.16,-98.5 855.61,-84.43 878.05,-75.52"/>
<polygon fill="midnightblue" stroke="midnightblue" points="793.05,-105.5 785.05,-112.44 795.64,-112.01 793.05,-105.5"/>
</g>
<!-- Node40 -->
<g id="node22" class="node">
<title>Node40</title>
<g id="a_node22"><a xlink:href="gauss__kronrod_8cpp.html" target="_top" xlink:title="gauss_kronrod.cpp">
<polygon fill="none" stroke="black" points="975,-56.5 975,-75.5 1074,-75.5 1074,-56.5 975,-56.5"/>
<text text-anchor="middle" x="1024.5" y="-63.5" font-family="Helvetica,sans-Serif" font-size="10.00">gauss_kronrod.cpp</text>
</a>
</g>
</g>
<!-- Node39&#45;&gt;Node40 -->
<g id="edge22" class="edge">
<title>Node39&#45;&gt;Node40</title>
<path fill="none" stroke="midnightblue" d="M1024.5,-101.8C1024.5,-92.91 1024.5,-82.78 1024.5,-75.75"/>
<polygon fill="midnightblue" stroke="midnightblue" points="1021,-102.08 1024.5,-112.08 1028,-102.08 1021,-102.08"/>
</g>
<!-- Node41 -->
<g id="node23" class="node">
<title>Node41</title>
<g id="a_node23"><a xlink:href="gauss__kronrod_8cu.html" target="_top" xlink:title="gauss_kronrod.cu">
<polygon fill="none" stroke="black" points="1092.5,-56.5 1092.5,-75.5 1186.5,-75.5 1186.5,-56.5 1092.5,-56.5"/>
<text text-anchor="middle" x="1139.5" y="-63.5" font-family="Helvetica,sans-Serif" font-size="10.00">gauss_kronrod.cu</text>
</a>
</g>
</g>
<!-- Node39&#45;&gt;Node41 -->
<g id="edge23" class="edge">
<title>Node39&#45;&gt;Node41</title>
<path fill="none" stroke="midnightblue" d="M1051.98,-108.1C1073.47,-98.01 1102.72,-84.27 1121.36,-75.52"/>
<polygon fill="midnightblue" stroke="midnightblue" points="1050.29,-105.02 1042.72,-112.44 1053.26,-111.36 1050.29,-105.02"/>
</g>
</g>
</svg>
