<?xml version="1.0" encoding="UTF-8" standalone="no"?>
<!DOCTYPE svg PUBLIC "-//W3C//DTD SVG 1.1//EN"
 "http://www.w3.org/Graphics/SVG/1.1/DTD/svg11.dtd">
<!-- Generated by graphviz version 2.42.4 (0)
 -->
<!-- Title: GaussKronrodQuadrature.inl Pages: 1 -->
<svg width="1045pt" height="252pt"
 viewBox="0.00 0.00 1045.00 252.00" xmlns="http://www.w3.org/2000/svg" xmlns:xlink="http://www.w3.org/1999/xlink">
<g id="graph0" class="graph" transform="scale(1 1) rotate(0) translate(4 248)">
<title>GaussKronrodQuadrature.inl</title>
<!-- Node11 -->
<g id="node1" class="node">
<title>Node11</title>
<polygon fill="#bfbfbf" stroke="black" points="308,-224.5 308,-243.5 448,-243.5 448,-224.5 308,-224.5"/>
<text text-anchor="middle" x="378" y="-231.5" font-family="Helvetica,sans-Serif" font-size="10.00">GaussKronrodQuadrature.inl</text>
</g>
<!-- Node12 -->
<g id="node2" class="node">
<title>Node12</title>
<g id="a_node2"><a xlink:href="GaussKronrodQuadrature_8h.html" target="_top" xlink:title="GaussKronrodQuadrature.h">
<polygon fill="none" stroke="black" points="310.5,-168.5 310.5,-187.5 445.5,-187.5 445.5,-168.5 310.5,-168.5"/>
<text text-anchor="middle" x="378" y="-175.5" font-family="Helvetica,sans-Serif" font-size="10.00">GaussKronrodQuadrature.h</text>
</a>
</g>
</g>
<!-- Node11&#45;&gt;Node12 -->
<g id="edge1" class="edge">
<title>Node11&#45;&gt;Node12</title>
<path fill="none" stroke="midnightblue" d="M378,-213.8C378,-204.91 378,-194.78 378,-187.75"/>
<polygon fill="midnightblue" stroke="midnightblue" points="374.5,-214.08 378,-224.08 381.5,-214.08 374.5,-214.08"/>
</g>
<!-- Node13 -->
<g id="node3" class="node">
<title>Node13</title>
<g id="a_node3"><a xlink:href="DeltaDMassBackground_8h.html" target="_top" xlink:title="DeltaDMassBackground.h">
<polygon fill="none" stroke="black" points="165.5,-112.5 165.5,-131.5 296.5,-131.5 296.5,-112.5 165.5,-112.5"/>
<text text-anchor="middle" x="231" y="-119.5" font-family="Helvetica,sans-Serif" font-size="10.00">DeltaDMassBackground.h</text>
</a>
</g>
</g>
<!-- Node12&#45;&gt;Node13 -->
<g id="edge2" class="edge">
<title>Node12&#45;&gt;Node13</title>
<path fill="none" stroke="midnightblue" d="M345.08,-164.91C317.44,-154.75 278.66,-140.51 254.18,-131.52"/>
<polygon fill="midnightblue" stroke="midnightblue" points="344.11,-168.28 354.71,-168.44 346.53,-161.71 344.11,-168.28"/>
</g>
<!-- Node14 -->
<g id="node4" class="node">
<title>Node14</title>
<g id="a_node4"><a xlink:href="particle__mass_8inl.html" target="_top" xlink:title="particle_mass.inl">
<polygon fill="none" stroke="black" points="186,-56.5 186,-75.5 276,-75.5 276,-56.5 186,-56.5"/>
<text text-anchor="middle" x="231" y="-63.5" font-family="Helvetica,sans-Serif" font-size="10.00">particle_mass.inl</text>
</a>
</g>
</g>
<!-- Node12&#45;&gt;Node14 -->
<g id="edge20" class="edge">
<title>Node12&#45;&gt;Node14</title>
<path fill="none" stroke="midnightblue" d="M361.95,-161.17C347.62,-147.42 325.76,-127.35 305,-112 285.9,-97.87 262.19,-84.04 246.83,-75.52"/>
<polygon fill="midnightblue" stroke="midnightblue" points="359.84,-163.99 369.45,-168.45 364.72,-158.97 359.84,-163.99"/>
</g>
<!-- Node17 -->
<g id="node7" class="node">
<title>Node17</title>
<g id="a_node7"><a xlink:href="Ipatia_8h.html" target="_top" xlink:title="Ipatia.h">
<polygon fill="none" stroke="black" points="353.5,-112.5 353.5,-131.5 402.5,-131.5 402.5,-112.5 353.5,-112.5"/>
<text text-anchor="middle" x="378" y="-119.5" font-family="Helvetica,sans-Serif" font-size="10.00">Ipatia.h</text>
</a>
</g>
</g>
<!-- Node12&#45;&gt;Node17 -->
<g id="edge6" class="edge">
<title>Node12&#45;&gt;Node17</title>
<path fill="none" stroke="midnightblue" d="M378,-157.8C378,-148.91 378,-138.78 378,-131.75"/>
<polygon fill="midnightblue" stroke="midnightblue" points="374.5,-158.08 378,-168.08 381.5,-158.08 374.5,-158.08"/>
</g>
<!-- Node24 -->
<g id="node14" class="node">
<title>Node24</title>
<g id="a_node14"><a xlink:href="fit__convoluted__pdfs_8inl.html" target="_top" xlink:title="fit_convoluted_pdfs.inl">
<polygon fill="none" stroke="black" points="557,-112.5 557,-131.5 671,-131.5 671,-112.5 557,-112.5"/>
<text text-anchor="middle" x="614" y="-119.5" font-family="Helvetica,sans-Serif" font-size="10.00">fit_convoluted_pdfs.inl</text>
</a>
</g>
</g>
<!-- Node12&#45;&gt;Node24 -->
<g id="edge14" class="edge">
<title>Node12&#45;&gt;Node24</title>
<path fill="none" stroke="midnightblue" d="M425.41,-166.15C470,-155.95 535.85,-140.88 576.78,-131.52"/>
<polygon fill="midnightblue" stroke="midnightblue" points="424.36,-162.8 415.39,-168.44 425.92,-169.62 424.36,-162.8"/>
</g>
<!-- Node27 -->
<g id="node17" class="node">
<title>Node27</title>
<g id="a_node17"><a xlink:href="gauss__kronrod_8inl.html" target="_top" xlink:title="gauss_kronrod.inl">
<polygon fill="none" stroke="black" points="828.5,-112.5 828.5,-131.5 921.5,-131.5 921.5,-112.5 828.5,-112.5"/>
<text text-anchor="middle" x="875" y="-119.5" font-family="Helvetica,sans-Serif" font-size="10.00">gauss_kronrod.inl</text>
</a>
</g>
</g>
<!-- Node12&#45;&gt;Node27 -->
<g id="edge17" class="edge">
<title>Node12&#45;&gt;Node27</title>
<path fill="none" stroke="midnightblue" d="M455.72,-168.56C560.26,-157.2 742.91,-137.35 828.39,-128.06"/>
<polygon fill="midnightblue" stroke="midnightblue" points="455.11,-165.1 445.54,-169.66 455.86,-172.06 455.11,-165.1"/>
</g>
<!-- Node13&#45;&gt;Node14 -->
<g id="edge3" class="edge">
<title>Node13&#45;&gt;Node14</title>
<path fill="none" stroke="midnightblue" d="M231,-101.8C231,-92.91 231,-82.78 231,-75.75"/>
<polygon fill="midnightblue" stroke="midnightblue" points="227.5,-102.08 231,-112.08 234.5,-102.08 227.5,-102.08"/>
</g>
<!-- Node15 -->
<g id="node5" class="node">
<title>Node15</title>
<g id="a_node5"><a xlink:href="particle__mass_8cpp.html" target="_top" xlink:title="particle_mass.cpp">
<polygon fill="none" stroke="black" points="0,-0.5 0,-19.5 96,-19.5 96,-0.5 0,-0.5"/>
<text text-anchor="middle" x="48" y="-7.5" font-family="Helvetica,sans-Serif" font-size="10.00">particle_mass.cpp</text>
</a>
</g>
</g>
<!-- Node14&#45;&gt;Node15 -->
<g id="edge4" class="edge">
<title>Node14&#45;&gt;Node15</title>
<path fill="none" stroke="midnightblue" d="M192.26,-53.57C157.74,-43.38 107.99,-28.7 76.86,-19.52"/>
<polygon fill="midnightblue" stroke="midnightblue" points="191.42,-56.97 202,-56.44 193.4,-50.26 191.42,-56.97"/>
</g>
<!-- Node16 -->
<g id="node6" class="node">
<title>Node16</title>
<g id="a_node6"><a xlink:href="particle__mass_8cu.html" target="_top" xlink:title="particle_mass.cu">
<polygon fill="none" stroke="black" points="114.5,-0.5 114.5,-19.5 205.5,-19.5 205.5,-0.5 114.5,-0.5"/>
<text text-anchor="middle" x="160" y="-7.5" font-family="Helvetica,sans-Serif" font-size="10.00">particle_mass.cu</text>
</a>
</g>
</g>
<!-- Node14&#45;&gt;Node16 -->
<g id="edge5" class="edge">
<title>Node14&#45;&gt;Node16</title>
<path fill="none" stroke="midnightblue" d="M211.41,-50.1C198.63,-40.38 182.39,-28.03 171.61,-19.83"/>
<polygon fill="midnightblue" stroke="midnightblue" points="209.51,-53.06 219.59,-56.32 213.75,-47.48 209.51,-53.06"/>
</g>
<!-- Node17&#45;&gt;Node14 -->
<g id="edge13" class="edge">
<title>Node17&#45;&gt;Node14</title>
<path fill="none" stroke="midnightblue" d="M345.08,-108.91C317.44,-98.75 278.66,-84.51 254.18,-75.52"/>
<polygon fill="midnightblue" stroke="midnightblue" points="344.11,-112.28 354.71,-112.44 346.53,-105.71 344.11,-112.28"/>
</g>
<!-- Node18 -->
<g id="node8" class="node">
<title>Node18</title>
<g id="a_node8"><a xlink:href="convolute__functions_8inl.html" target="_top" xlink:title="convolute_functions.inl">
<polygon fill="none" stroke="black" points="296,-56.5 296,-75.5 412,-75.5 412,-56.5 296,-56.5"/>
<text text-anchor="middle" x="354" y="-63.5" font-family="Helvetica,sans-Serif" font-size="10.00">convolute_functions.inl</text>
</a>
</g>
</g>
<!-- Node17&#45;&gt;Node18 -->
<g id="edge7" class="edge">
<title>Node17&#45;&gt;Node18</title>
<path fill="none" stroke="midnightblue" d="M369.86,-102.69C365.82,-93.59 361.12,-83.01 357.89,-75.75"/>
<polygon fill="midnightblue" stroke="midnightblue" points="366.78,-104.37 374.04,-112.08 373.17,-101.52 366.78,-104.37"/>
</g>
<!-- Node21 -->
<g id="node11" class="node">
<title>Node21</title>
<g id="a_node11"><a xlink:href="Ipatia__plus__argus_8inl.html" target="_top" xlink:title="Ipatia_plus_argus.inl">
<polygon fill="none" stroke="black" points="430,-56.5 430,-75.5 536,-75.5 536,-56.5 430,-56.5"/>
<text text-anchor="middle" x="483" y="-63.5" font-family="Helvetica,sans-Serif" font-size="10.00">Ipatia_plus_argus.inl</text>
</a>
</g>
</g>
<!-- Node17&#45;&gt;Node21 -->
<g id="edge10" class="edge">
<title>Node17&#45;&gt;Node21</title>
<path fill="none" stroke="midnightblue" d="M403.81,-107.73C423.25,-97.73 449.35,-84.31 466.17,-75.65"/>
<polygon fill="midnightblue" stroke="midnightblue" points="402.16,-104.64 394.87,-112.32 405.36,-110.86 402.16,-104.64"/>
</g>
<!-- Node19 -->
<g id="node9" class="node">
<title>Node19</title>
<g id="a_node9"><a xlink:href="convolute__functions_8cpp.html" target="_top" xlink:title="convolute_functions.cpp">
<polygon fill="none" stroke="black" points="224,-0.5 224,-19.5 346,-19.5 346,-0.5 224,-0.5"/>
<text text-anchor="middle" x="285" y="-7.5" font-family="Helvetica,sans-Serif" font-size="10.00">convolute_functions.cpp</text>
</a>
</g>
</g>
<!-- Node18&#45;&gt;Node19 -->
<g id="edge8" class="edge">
<title>Node18&#45;&gt;Node19</title>
<path fill="none" stroke="midnightblue" d="M334.96,-50.1C322.54,-40.38 306.76,-28.03 296.29,-19.83"/>
<polygon fill="midnightblue" stroke="midnightblue" points="332.88,-52.92 342.91,-56.32 337.2,-47.4 332.88,-52.92"/>
</g>
<!-- Node20 -->
<g id="node10" class="node">
<title>Node20</title>
<g id="a_node10"><a xlink:href="convolute__functions_8cu.html" target="_top" xlink:title="convolute_functions.cu">
<polygon fill="none" stroke="black" points="364.5,-0.5 364.5,-19.5 481.5,-19.5 481.5,-0.5 364.5,-0.5"/>
<text text-anchor="middle" x="423" y="-7.5" font-family="Helvetica,sans-Serif" font-size="10.00">convolute_functions.cu</text>
</a>
</g>
</g>
<!-- Node18&#45;&gt;Node20 -->
<g id="edge9" class="edge">
<title>Node18&#45;&gt;Node20</title>
<path fill="none" stroke="midnightblue" d="M373.04,-50.1C385.46,-40.38 401.24,-28.03 411.71,-19.83"/>
<polygon fill="midnightblue" stroke="midnightblue" points="370.8,-47.4 365.09,-56.32 375.12,-52.92 370.8,-47.4"/>
</g>
<!-- Node22 -->
<g id="node12" class="node">
<title>Node22</title>
<g id="a_node12"><a xlink:href="ipatia__plus__argus_8cpp.html" target="_top" xlink:title="ipatia_plus_argus.cpp">
<polygon fill="none" stroke="black" points="499.5,-0.5 499.5,-19.5 610.5,-19.5 610.5,-0.5 499.5,-0.5"/>
<text text-anchor="middle" x="555" y="-7.5" font-family="Helvetica,sans-Serif" font-size="10.00">ipatia_plus_argus.cpp</text>
</a>
</g>
</g>
<!-- Node21&#45;&gt;Node22 -->
<g id="edge11" class="edge">
<title>Node21&#45;&gt;Node22</title>
<path fill="none" stroke="midnightblue" d="M502.87,-50.1C515.82,-40.38 532.3,-28.03 543.22,-19.83"/>
<polygon fill="midnightblue" stroke="midnightblue" points="500.47,-47.52 494.57,-56.32 504.67,-53.12 500.47,-47.52"/>
</g>
<!-- Node23 -->
<g id="node13" class="node">
<title>Node23</title>
<g id="a_node13"><a xlink:href="ipatia__plus__argus_8cu.html" target="_top" xlink:title="ipatia_plus_argus.cu">
<polygon fill="none" stroke="black" points="629,-0.5 629,-19.5 735,-19.5 735,-0.5 629,-0.5"/>
<text text-anchor="middle" x="682" y="-7.5" font-family="Helvetica,sans-Serif" font-size="10.00">ipatia_plus_argus.cu</text>
</a>
</g>
</g>
<!-- Node21&#45;&gt;Node23 -->
<g id="edge12" class="edge">
<title>Node21&#45;&gt;Node23</title>
<path fill="none" stroke="midnightblue" d="M524.65,-53.7C562.21,-43.51 616.61,-28.74 650.62,-19.52"/>
<polygon fill="midnightblue" stroke="midnightblue" points="523.27,-50.45 514.53,-56.44 525.1,-57.2 523.27,-50.45"/>
</g>
<!-- Node25 -->
<g id="node15" class="node">
<title>Node25</title>
<g id="a_node15"><a xlink:href="fit__convoluted__pdfs_8cpp.html" target="_top" xlink:title="fit_convoluted_pdfs.cpp">
<polygon fill="none" stroke="black" points="554,-56.5 554,-75.5 674,-75.5 674,-56.5 554,-56.5"/>
<text text-anchor="middle" x="614" y="-63.5" font-family="Helvetica,sans-Serif" font-size="10.00">fit_convoluted_pdfs.cpp</text>
</a>
</g>
</g>
<!-- Node24&#45;&gt;Node25 -->
<g id="edge15" class="edge">
<title>Node24&#45;&gt;Node25</title>
<path fill="none" stroke="midnightblue" d="M614,-101.8C614,-92.91 614,-82.78 614,-75.75"/>
<polygon fill="midnightblue" stroke="midnightblue" points="610.5,-102.08 614,-112.08 617.5,-102.08 610.5,-102.08"/>
</g>
<!-- Node26 -->
<g id="node16" class="node">
<title>Node26</title>
<g id="a_node16"><a xlink:href="fit__convoluted__pdfs_8cu.html" target="_top" xlink:title="fit_convoluted_pdfs.cu">
<polygon fill="none" stroke="black" points="692.5,-56.5 692.5,-75.5 807.5,-75.5 807.5,-56.5 692.5,-56.5"/>
<text text-anchor="middle" x="750" y="-63.5" font-family="Helvetica,sans-Serif" font-size="10.00">fit_convoluted_pdfs.cu</text>
</a>
</g>
</g>
<!-- Node24&#45;&gt;Node26 -->
<g id="edge16" class="edge">
<title>Node24&#45;&gt;Node26</title>
<path fill="none" stroke="midnightblue" d="M645.13,-108.64C670.66,-98.5 706.11,-84.43 728.55,-75.52"/>
<polygon fill="midnightblue" stroke="midnightblue" points="643.55,-105.5 635.55,-112.44 646.14,-112.01 643.55,-105.5"/>
</g>
<!-- Node28 -->
<g id="node18" class="node">
<title>Node28</title>
<g id="a_node18"><a xlink:href="gauss__kronrod_8cpp.html" target="_top" xlink:title="gauss_kronrod.cpp">
<polygon fill="none" stroke="black" points="825.5,-56.5 825.5,-75.5 924.5,-75.5 924.5,-56.5 825.5,-56.5"/>
<text text-anchor="middle" x="875" y="-63.5" font-family="Helvetica,sans-Serif" font-size="10.00">gauss_kronrod.cpp</text>
</a>
</g>
</g>
<!-- Node27&#45;&gt;Node28 -->
<g id="edge18" class="edge">
<title>Node27&#45;&gt;Node28</title>
<path fill="none" stroke="midnightblue" d="M875,-101.8C875,-92.91 875,-82.78 875,-75.75"/>
<polygon fill="midnightblue" stroke="midnightblue" points="871.5,-102.08 875,-112.08 878.5,-102.08 871.5,-102.08"/>
</g>
<!-- Node29 -->
<g id="node19" class="node">
<title>Node29</title>
<g id="a_node19"><a xlink:href="gauss__kronrod_8cu.html" target="_top" xlink:title="gauss_kronrod.cu">
<polygon fill="none" stroke="black" points="943,-56.5 943,-75.5 1037,-75.5 1037,-56.5 943,-56.5"/>
<text text-anchor="middle" x="990" y="-63.5" font-family="Helvetica,sans-Serif" font-size="10.00">gauss_kronrod.cu</text>
</a>
</g>
</g>
<!-- Node27&#45;&gt;Node29 -->
<g id="edge19" class="edge">
<title>Node27&#45;&gt;Node29</title>
<path fill="none" stroke="midnightblue" d="M902.48,-108.1C923.97,-98.01 953.22,-84.27 971.86,-75.52"/>
<polygon fill="midnightblue" stroke="midnightblue" points="900.79,-105.02 893.22,-112.44 903.76,-111.36 900.79,-105.02"/>
</g>
</g>
</svg>
