<?xml version="1.0" encoding="UTF-8" standalone="no"?>
<!DOCTYPE svg PUBLIC "-//W3C//DTD SVG 1.1//EN"
 "http://www.w3.org/Graphics/SVG/1.1/DTD/svg11.dtd">
<!-- Generated by graphviz version 2.38.0 (20140413.2041)
 -->
<!-- Title: GenericRange.h Pages: 1 -->
<!--zoomable 307 -->
<svg id="main" version="1.1" xmlns="http://www.w3.org/2000/svg" xmlns:xlink="http://www.w3.org/1999/xlink" xml:space="preserve" onload="init(evt)">
<style type="text/css"><![CDATA[
.edge:hover path { stroke: red; }
.edge:hover polygon { stroke: red; fill: red; }
]]></style>
<script type="text/javascript"><![CDATA[
var edges = document.getElementsByTagName('g');
if (edges && edges.length) {
  for (var i=0;i<edges.length;i++) {
    if (edges[i].id.substr(0,4)=='edge') {
      edges[i].setAttribute('class','edge');
    }
  }
}
]]></script>
        <defs>
                <circle id="rim" cx="0" cy="0" r="7"/>
                <circle id="rim2" cx="0" cy="0" r="3.5"/>
                <g id="zoomPlus">
                        <use xlink:href="#rim" fill="#404040">
                                <set attributeName="fill" to="#808080" begin="zoomplus.mouseover" end="zoomplus.mouseout"/>
                        </use>
                        <path d="M-4,0h8M0,-4v8" fill="none" stroke="white" stroke-width="1.5" pointer-events="none"/>
                </g>
                <g id="zoomMin">
                        <use xlink:href="#rim" fill="#404040">
                                <set attributeName="fill" to="#808080" begin="zoomminus.mouseover" end="zoomminus.mouseout"/>
                        </use>
                        <path d="M-4,0h8" fill="none" stroke="white" stroke-width="1.5" pointer-events="none"/>
                </g>
                <g id="dirArrow">
                        <path fill="none" stroke="white" stroke-width="1.5" d="M0,-3.0v7 M-2.5,-0.5L0,-3.0L2.5,-0.5"/>
                </g>
               <g id="resetDef">
                       <use xlink:href="#rim2" fill="#404040">
                               <set attributeName="fill" to="#808080" begin="reset.mouseover" end="reset.mouseout"/>
                       </use>
               </g>
        </defs>

<script type="text/javascript">
var viewWidth = 635;
var viewHeight = 307;
var sectionId = 'dynsection-0';
</script>
<script xlink:href="svgpan.js"/>
<svg id="graph" class="graph">
<g id="viewport">
<title>GenericRange.h</title>
<!-- Node0 -->
<g id="node1" class="node"><title>Node0</title>
<polygon fill="#bfbfbf" stroke="black" points="305.5,-279.5 305.5,-298.5 392.5,-298.5 392.5,-279.5 305.5,-279.5"/>
<text text-anchor="middle" x="349" y="-286.5" font-family="Helvetica,sans-Serif" font-size="10.00">GenericRange.h</text>
</g>
<!-- Node1 -->
<g id="node2" class="node"><title>Node1</title>
<g id="a_node2"><a xlink:href="Config_8h.html" target="_top" xlink:title="hydra/detail/Config.h">
<polygon fill="none" stroke="black" points="60.5,-84 60.5,-103 167.5,-103 167.5,-84 60.5,-84"/>
<text text-anchor="middle" x="114" y="-91" font-family="Helvetica,sans-Serif" font-size="10.00">hydra/detail/Config.h</text>
</a>
</g>
</g>
<!-- Node0&#45;&gt;Node1 -->
<g id="edge1" class="edge"><title>Node0&#45;&gt;Node1</title>
<path fill="none" stroke="midnightblue" d="M305.18,-284.572C265.521,-279.878 206.655,-268.837 162,-243 132.339,-225.838 121.677,-218.837 109,-187 99.3516,-162.769 103.934,-132.118 108.589,-112.904"/>
<polygon fill="midnightblue" stroke="midnightblue" points="112.022,-113.613 111.231,-103.048 105.261,-111.801 112.022,-113.613"/>
</g>
<!-- Node4 -->
<g id="node5" class="node"><title>Node4</title>
<g id="a_node5"><a xlink:href="BackendPolicy_8h.html" target="_top" xlink:title="hydra/detail/BackendPolicy.h">
<polygon fill="none" stroke="black" points="414.5,-84 414.5,-103 557.5,-103 557.5,-84 414.5,-84"/>
<text text-anchor="middle" x="486" y="-91" font-family="Helvetica,sans-Serif" font-size="10.00">hydra/detail/BackendPolicy.h</text>
</a>
</g>
</g>
<!-- Node0&#45;&gt;Node4 -->
<g id="edge4" class="edge"><title>Node0&#45;&gt;Node4</title>
<path fill="none" stroke="midnightblue" d="M392.764,-287.77C457.773,-284.674 576.821,-267.68 620,-187 628.808,-170.542 630.62,-160.351 620,-145 606.324,-125.232 583.864,-113.192 561.206,-105.863"/>
<polygon fill="midnightblue" stroke="midnightblue" points="562.09,-102.475 551.508,-103.002 560.109,-109.189 562.09,-102.475"/>
</g>
<!-- Node6 -->
<g id="node7" class="node"><title>Node6</title>
<g id="a_node7"><a xlink:href="Distance_8h.html" target="_top" xlink:title="hydra/Distance.h">
<polygon fill="none" stroke="black" points="303.5,-156.5 303.5,-175.5 394.5,-175.5 394.5,-156.5 303.5,-156.5"/>
<text text-anchor="middle" x="349" y="-163.5" font-family="Helvetica,sans-Serif" font-size="10.00">hydra/Distance.h</text>
</a>
</g>
</g>
<!-- Node0&#45;&gt;Node6 -->
<g id="edge6" class="edge"><title>Node0&#45;&gt;Node6</title>
<path fill="none" stroke="midnightblue" d="M349,-279.298C349,-259.85 349,-212.49 349,-185.904"/>
<polygon fill="midnightblue" stroke="midnightblue" points="352.5,-185.623 349,-175.623 345.5,-185.623 352.5,-185.623"/>
</g>
<!-- Node9 -->
<g id="node10" class="node"><title>Node9</title>
<g id="a_node10"><a xlink:href="GenericRange1_8inl.html" target="_top" xlink:title="hydra/detail/GenericRange1.inl">
<polygon fill="none" stroke="black" points="171,-223.5 171,-242.5 321,-242.5 321,-223.5 171,-223.5"/>
<text text-anchor="middle" x="246" y="-230.5" font-family="Helvetica,sans-Serif" font-size="10.00">hydra/detail/GenericRange1.inl</text>
</a>
</g>
</g>
<!-- Node0&#45;&gt;Node9 -->
<g id="edge11" class="edge"><title>Node0&#45;&gt;Node9</title>
<path fill="none" stroke="midnightblue" d="M332.451,-279.324C316.008,-270.703 290.565,-257.364 271.532,-247.386"/>
<polygon fill="midnightblue" stroke="midnightblue" points="272.989,-244.198 262.508,-242.655 269.739,-250.398 272.989,-244.198"/>
</g>
<!-- Node11 -->
<g id="node12" class="node"><title>Node11</title>
<g id="a_node12"><a xlink:href="GenericRange2_8inl.html" target="_top" xlink:title="hydra/detail/GenericRange2.inl">
<polygon fill="none" stroke="black" points="377,-223.5 377,-242.5 527,-242.5 527,-223.5 377,-223.5"/>
<text text-anchor="middle" x="452" y="-230.5" font-family="Helvetica,sans-Serif" font-size="10.00">hydra/detail/GenericRange2.inl</text>
</a>
</g>
</g>
<!-- Node0&#45;&gt;Node11 -->
<g id="edge16" class="edge"><title>Node0&#45;&gt;Node11</title>
<path fill="none" stroke="midnightblue" d="M365.549,-279.324C381.992,-270.703 407.435,-257.364 426.468,-247.386"/>
<polygon fill="midnightblue" stroke="midnightblue" points="428.261,-250.398 435.492,-242.655 425.011,-244.198 428.261,-250.398"/>
</g>
<!-- Node2 -->
<g id="node3" class="node"><title>Node2</title>
<polygon fill="none" stroke="#bfbfbf" points="122,-6 122,-36 230,-36 230,-6 122,-6"/>
<text text-anchor="start" x="130" y="-24" font-family="Helvetica,sans-Serif" font-size="10.00">hydra/detail/external</text>
<text text-anchor="middle" x="176" y="-13" font-family="Helvetica,sans-Serif" font-size="10.00">/thrust/detail/config.h</text>
</g>
<!-- Node1&#45;&gt;Node2 -->
<g id="edge2" class="edge"><title>Node1&#45;&gt;Node2</title>
<path fill="none" stroke="midnightblue" d="M121.602,-83.8553C130.36,-73.8968 145.075,-57.1651 156.993,-43.6129"/>
<polygon fill="midnightblue" stroke="midnightblue" points="159.645,-45.8968 163.621,-36.0762 154.389,-41.2741 159.645,-45.8968"/>
</g>
<!-- Node3 -->
<g id="node4" class="node"><title>Node3</title>
<polygon fill="none" stroke="#bfbfbf" points="0,-0.5 0,-41.5 104,-41.5 104,-0.5 0,-0.5"/>
<text text-anchor="start" x="8" y="-29.5" font-family="Helvetica,sans-Serif" font-size="10.00">hydra/detail/external</text>
<text text-anchor="start" x="8" y="-18.5" font-family="Helvetica,sans-Serif" font-size="10.00">/thrust/detail/config</text>
<text text-anchor="middle" x="52" y="-7.5" font-family="Helvetica,sans-Serif" font-size="10.00">/host_device.h</text>
</g>
<!-- Node1&#45;&gt;Node3 -->
<g id="edge3" class="edge"><title>Node1&#45;&gt;Node3</title>
<path fill="none" stroke="midnightblue" d="M106.398,-83.8553C98.8644,-75.2894 86.9242,-61.7122 76.1471,-49.4576"/>
<polygon fill="midnightblue" stroke="midnightblue" points="78.5232,-46.8595 69.2911,-41.6616 73.2667,-51.4822 78.5232,-46.8595"/>
</g>
<!-- Node5 -->
<g id="node6" class="node"><title>Node5</title>
<polygon fill="none" stroke="#bfbfbf" points="422,-6 422,-36 550,-36 550,-6 422,-6"/>
<text text-anchor="start" x="430" y="-24" font-family="Helvetica,sans-Serif" font-size="10.00">hydra/detail/external</text>
<text text-anchor="middle" x="486" y="-13" font-family="Helvetica,sans-Serif" font-size="10.00">/thrust/execution_policy.h</text>
</g>
<!-- Node4&#45;&gt;Node5 -->
<g id="edge5" class="edge"><title>Node4&#45;&gt;Node5</title>
<path fill="none" stroke="midnightblue" d="M486,-83.8553C486,-74.5483 486,-59.3253 486,-46.3107"/>
<polygon fill="midnightblue" stroke="midnightblue" points="489.5,-46.0761 486,-36.0762 482.5,-46.0762 489.5,-46.0761"/>
</g>
<!-- Node6&#45;&gt;Node1 -->
<g id="edge7" class="edge"><title>Node6&#45;&gt;Node1</title>
<path fill="none" stroke="midnightblue" d="M323.968,-156.403C313.234,-152.782 300.534,-148.585 289,-145 243.377,-130.82 190.651,-115.788 155.097,-105.848"/>
<polygon fill="midnightblue" stroke="midnightblue" points="155.666,-102.373 145.094,-103.059 153.786,-109.116 155.666,-102.373"/>
</g>
<!-- Node6&#45;&gt;Node4 -->
<g id="edge8" class="edge"><title>Node6&#45;&gt;Node4</title>
<path fill="none" stroke="midnightblue" d="M365.525,-156.496C389.08,-144.375 432.526,-122.018 460.303,-107.724"/>
<polygon fill="midnightblue" stroke="midnightblue" points="462.126,-110.722 469.416,-103.034 458.923,-104.498 462.126,-110.722"/>
</g>
<!-- Node7 -->
<g id="node8" class="node"><title>Node7</title>
<g id="a_node8"><a xlink:href="Types_8h.html" target="_top" xlink:title="Common and useful typedefs. ">
<polygon fill="none" stroke="black" points="194.5,-84 194.5,-103 273.5,-103 273.5,-84 194.5,-84"/>
<text text-anchor="middle" x="234" y="-91" font-family="Helvetica,sans-Serif" font-size="10.00">hydra/Types.h</text>
</a>
</g>
</g>
<!-- Node6&#45;&gt;Node7 -->
<g id="edge9" class="edge"><title>Node6&#45;&gt;Node7</title>
<path fill="none" stroke="midnightblue" d="M334.899,-156.355C315.414,-144.41 280.032,-122.72 256.773,-108.461"/>
<polygon fill="midnightblue" stroke="midnightblue" points="258.571,-105.458 248.217,-103.215 254.913,-111.426 258.571,-105.458"/>
</g>
<!-- Node8 -->
<g id="node9" class="node"><title>Node8</title>
<polygon fill="none" stroke="#bfbfbf" points="292,-78.5 292,-108.5 396,-108.5 396,-78.5 292,-78.5"/>
<text text-anchor="start" x="300" y="-96.5" font-family="Helvetica,sans-Serif" font-size="10.00">hydra/detail/external</text>
<text text-anchor="middle" x="344" y="-85.5" font-family="Helvetica,sans-Serif" font-size="10.00">/thrust/distance.h</text>
</g>
<!-- Node6&#45;&gt;Node8 -->
<g id="edge10" class="edge"><title>Node6&#45;&gt;Node8</title>
<path fill="none" stroke="midnightblue" d="M348.387,-156.355C347.727,-147.048 346.647,-131.825 345.724,-118.811"/>
<polygon fill="midnightblue" stroke="midnightblue" points="349.197,-118.303 344.998,-108.576 342.215,-118.799 349.197,-118.303"/>
</g>
<!-- Node9&#45;&gt;Node1 -->
<g id="edge12" class="edge"><title>Node9&#45;&gt;Node1</title>
<path fill="none" stroke="midnightblue" d="M190.622,-223.452C167.921,-217.123 143.409,-206.12 128,-187 111.138,-166.077 110.224,-133.563 111.687,-113.179"/>
<polygon fill="midnightblue" stroke="midnightblue" points="115.191,-113.3 112.689,-103.005 108.225,-112.614 115.191,-113.3"/>
</g>
<!-- Node9&#45;&gt;Node4 -->
<g id="edge13" class="edge"><title>Node9&#45;&gt;Node4</title>
<path fill="none" stroke="midnightblue" d="M303.659,-223.483C334.822,-216.976 372.958,-205.806 403,-187 434.402,-167.343 461.019,-132.442 475.143,-111.589"/>
<polygon fill="midnightblue" stroke="midnightblue" points="478.154,-113.38 480.725,-103.102 472.306,-109.533 478.154,-113.38"/>
</g>
<!-- Node9&#45;&gt;Node6 -->
<g id="edge14" class="edge"><title>Node9&#45;&gt;Node6</title>
<path fill="none" stroke="midnightblue" d="M259.891,-223.234C277.034,-212.416 306.4,-193.883 326.711,-181.066"/>
<polygon fill="midnightblue" stroke="midnightblue" points="328.74,-183.924 335.329,-175.627 325.004,-178.004 328.74,-183.924"/>
</g>
<!-- Node10 -->
<g id="node11" class="node"><title>Node10</title>
<polygon fill="none" stroke="#bfbfbf" points="137,-145.5 137,-186.5 247,-186.5 247,-145.5 137,-145.5"/>
<text text-anchor="start" x="145" y="-174.5" font-family="Helvetica,sans-Serif" font-size="10.00">hydra/detail/external</text>
<text text-anchor="start" x="145" y="-163.5" font-family="Helvetica,sans-Serif" font-size="10.00">/thrust/iterator/iterator</text>
<text text-anchor="middle" x="192" y="-152.5" font-family="Helvetica,sans-Serif" font-size="10.00">_traits.h</text>
</g>
<!-- Node9&#45;&gt;Node10 -->
<g id="edge15" class="edge"><title>Node9&#45;&gt;Node10</title>
<path fill="none" stroke="midnightblue" d="M238.717,-223.234C232.523,-215.778 223.285,-204.658 214.655,-194.27"/>
<polygon fill="midnightblue" stroke="midnightblue" points="217.317,-191.997 208.235,-186.542 211.933,-196.471 217.317,-191.997"/>
</g>
<!-- Node11&#45;&gt;Node1 -->
<g id="edge17" class="edge"><title>Node11&#45;&gt;Node1</title>
<path fill="none" stroke="midnightblue" d="M393.629,-223.422C362.347,-216.91 324.153,-205.754 294,-187 272.624,-173.705 276.938,-158.974 256,-145 227.966,-126.29 192.192,-113.623 163.565,-105.654"/>
<polygon fill="midnightblue" stroke="midnightblue" points="164.326,-102.235 153.761,-103.03 162.516,-108.997 164.326,-102.235"/>
</g>
<!-- Node11&#45;&gt;Node4 -->
<g id="edge18" class="edge"><title>Node11&#45;&gt;Node4</title>
<path fill="none" stroke="midnightblue" d="M454.127,-223.399C459.541,-201.503 473.943,-143.261 481.392,-113.134"/>
<polygon fill="midnightblue" stroke="midnightblue" points="484.871,-113.646 483.874,-103.098 478.076,-111.965 484.871,-113.646"/>
</g>
<!-- Node11&#45;&gt;Node6 -->
<g id="edge19" class="edge"><title>Node11&#45;&gt;Node6</title>
<path fill="none" stroke="midnightblue" d="M438.109,-223.234C420.966,-212.416 391.6,-193.883 371.289,-181.066"/>
<polygon fill="midnightblue" stroke="midnightblue" points="372.996,-178.004 362.671,-175.627 369.26,-183.924 372.996,-178.004"/>
</g>
<!-- Node12 -->
<g id="node13" class="node"><title>Node12</title>
<polygon fill="none" stroke="#bfbfbf" points="489,-145.5 489,-186.5 611,-186.5 611,-145.5 489,-145.5"/>
<text text-anchor="start" x="497" y="-174.5" font-family="Helvetica,sans-Serif" font-size="10.00">hydra/detail/external</text>
<text text-anchor="start" x="497" y="-163.5" font-family="Helvetica,sans-Serif" font-size="10.00">/thrust/iterator/transform</text>
<text text-anchor="middle" x="550" y="-152.5" font-family="Helvetica,sans-Serif" font-size="10.00">_iterator.h</text>
</g>
<!-- Node11&#45;&gt;Node12 -->
<g id="edge20" class="edge"><title>Node11&#45;&gt;Node12</title>
<path fill="none" stroke="midnightblue" d="M465.217,-223.234C477.229,-215.266 495.55,-203.115 512.092,-192.143"/>
<polygon fill="midnightblue" stroke="midnightblue" points="514.138,-194.986 520.537,-186.542 510.268,-189.153 514.138,-194.986"/>
</g>
</g>
</svg>
        <g id="navigator" transform="translate(0 0)" fill="#404254">
                <rect fill="#f2f5e9" fill-opacity="0.5" stroke="#606060" stroke-width=".5" x="0" y="0" width="60" height="60"/>
                <use id="zoomplus" xlink:href="#zoomPlus" x="17" y="9" onmousedown="handleZoom(evt,'in')"/>
                <use id="zoomminus" xlink:href="#zoomMin" x="42" y="9" onmousedown="handleZoom(evt,'out')"/>
                <use id="reset" xlink:href="#resetDef" x="30" y="36" onmousedown="handleReset()"/>
                <g id="arrowUp" xlink:href="#dirArrow" transform="translate(30 24)" onmousedown="handlePan(0,-1)">
                  <use xlink:href="#rim" fill="#404040">
                        <set attributeName="fill" to="#808080" begin="arrowUp.mouseover" end="arrowUp.mouseout"/>
                  </use>
                  <path fill="none" stroke="white" stroke-width="1.5" d="M0,-3.0v7 M-2.5,-0.5L0,-3.0L2.5,-0.5"/>
                </g>
                <g id="arrowRight" xlink:href="#dirArrow" transform="rotate(90) translate(36 -43)" onmousedown="handlePan(1,0)">
                  <use xlink:href="#rim" fill="#404040">
                        <set attributeName="fill" to="#808080" begin="arrowRight.mouseover" end="arrowRight.mouseout"/>
                  </use>
                  <path fill="none" stroke="white" stroke-width="1.5" d="M0,-3.0v7 M-2.5,-0.5L0,-3.0L2.5,-0.5"/>
                </g>
                <g id="arrowDown" xlink:href="#dirArrow" transform="rotate(180) translate(-30 -48)" onmousedown="handlePan(0,1)">
                  <use xlink:href="#rim" fill="#404040">
                        <set attributeName="fill" to="#808080" begin="arrowDown.mouseover" end="arrowDown.mouseout"/>
                  </use>
                  <path fill="none" stroke="white" stroke-width="1.5" d="M0,-3.0v7 M-2.5,-0.5L0,-3.0L2.5,-0.5"/>
                </g>
                <g id="arrowLeft" xlink:href="#dirArrow" transform="rotate(270) translate(-36 17)" onmousedown="handlePan(-1,0)">
                  <use xlink:href="#rim" fill="#404040">
                        <set attributeName="fill" to="#808080" begin="arrowLeft.mouseover" end="arrowLeft.mouseout"/>
                  </use>
                  <path fill="none" stroke="white" stroke-width="1.5" d="M0,-3.0v7 M-2.5,-0.5L0,-3.0L2.5,-0.5"/>
                </g>
        </g>
        <svg viewBox="0 0 15 15" width="100%" height="30px" preserveAspectRatio="xMaxYMin meet">
         <g id="arrow_out" transform="scale(0.3 0.3)">
          <a xlink:href="GenericRange_8h__incl_org.svg" target="_base">
           <rect id="button" ry="5" rx="5" y="6" x="6" height="38" width="38"
                fill="#f2f5e9" fill-opacity="0.5" stroke="#606060" stroke-width="1.0"/>
           <path id="arrow"
             d="M 11.500037,31.436501 C 11.940474,20.09759 22.043105,11.32322 32.158766,21.979434 L 37.068811,17.246167 C 37.068811,17.246167 37.088388,32 37.088388,32 L 22.160133,31.978069 C 22.160133,31.978069 26.997745,27.140456 26.997745,27.140456 C 18.528582,18.264221 13.291696,25.230495 11.500037,31.436501 z"
             style="fill:#404040;"/>
          </a>
         </g>
        </svg>
</svg>
