<?xml version="1.0" encoding="UTF-8" standalone="no"?>
<!DOCTYPE svg PUBLIC "-//W3C//DTD SVG 1.1//EN"
 "http://www.w3.org/Graphics/SVG/1.1/DTD/svg11.dtd">
<!-- Generated by graphviz version 2.40.1 (20161225.0304)
 -->
<!-- Title: GeneralizedGamma.h Pages: 1 -->
<svg width="214pt" height="140pt"
 viewBox="0.00 0.00 213.50 140.00" xmlns="http://www.w3.org/2000/svg" xmlns:xlink="http://www.w3.org/1999/xlink">
<g id="graph0" class="graph" transform="scale(1 1) rotate(0) translate(4 136)">
<title>GeneralizedGamma.h</title>
<!-- Node70 -->
<g id="node1" class="node">
<title>Node70</title>
<polygon fill="#bfbfbf" stroke="#000000" points="48.5,-112.5 48.5,-131.5 159.5,-131.5 159.5,-112.5 48.5,-112.5"/>
<text text-anchor="middle" x="104" y="-119.5" font-family="Helvetica,sans-Serif" font-size="10.00" fill="#000000">GeneralizedGamma.h</text>
</g>
<!-- Node71 -->
<g id="node2" class="node">
<title>Node71</title>
<g id="a_node2"><a xlink:href="particle__mass_8inl.html" target="_top" xlink:title="particle_mass.inl">
<polygon fill="none" stroke="#000000" points="59,-56.5 59,-75.5 149,-75.5 149,-56.5 59,-56.5"/>
<text text-anchor="middle" x="104" y="-63.5" font-family="Helvetica,sans-Serif" font-size="10.00" fill="#000000">particle_mass.inl</text>
</a>
</g>
</g>
<!-- Node70&#45;&gt;Node71 -->
<g id="edge1" class="edge">
<title>Node70&#45;&gt;Node71</title>
<path fill="none" stroke="#191970" d="M104,-102.1575C104,-93.155 104,-82.9199 104,-75.6427"/>
<polygon fill="#191970" stroke="#191970" points="100.5001,-102.2455 104,-112.2455 107.5001,-102.2456 100.5001,-102.2455"/>
</g>
<!-- Node72 -->
<g id="node3" class="node">
<title>Node72</title>
<g id="a_node3"><a xlink:href="particle__mass_8cpp.html" target="_top" xlink:title="particle_mass.cpp">
<polygon fill="none" stroke="#000000" points="0,-.5 0,-19.5 96,-19.5 96,-.5 0,-.5"/>
<text text-anchor="middle" x="48" y="-7.5" font-family="Helvetica,sans-Serif" font-size="10.00" fill="#000000">particle_mass.cpp</text>
</a>
</g>
</g>
<!-- Node71&#45;&gt;Node72 -->
<g id="edge2" class="edge">
<title>Node71&#45;&gt;Node72</title>
<path fill="none" stroke="#191970" d="M87.0751,-49.0751C77.4402,-39.4402 65.7196,-27.7196 57.6427,-19.6427"/>
<polygon fill="#191970" stroke="#191970" points="84.6996,-51.6493 94.2455,-56.2455 89.6493,-46.6996 84.6996,-51.6493"/>
</g>
<!-- Node73 -->
<g id="node4" class="node">
<title>Node73</title>
<g id="a_node4"><a xlink:href="particle__mass_8cu.html" target="_top" xlink:title="particle_mass.cu">
<polygon fill="none" stroke="#000000" points="114.5,-.5 114.5,-19.5 205.5,-19.5 205.5,-.5 114.5,-.5"/>
<text text-anchor="middle" x="160" y="-7.5" font-family="Helvetica,sans-Serif" font-size="10.00" fill="#000000">particle_mass.cu</text>
</a>
</g>
</g>
<!-- Node71&#45;&gt;Node73 -->
<g id="edge3" class="edge">
<title>Node71&#45;&gt;Node73</title>
<path fill="none" stroke="#191970" d="M120.9249,-49.0751C130.5598,-39.4402 142.2804,-27.7196 150.3573,-19.6427"/>
<polygon fill="#191970" stroke="#191970" points="118.3507,-46.6996 113.7545,-56.2455 123.3004,-51.6493 118.3507,-46.6996"/>
</g>
</g>
</svg>
