<?xml version="1.0" encoding="UTF-8" standalone="no"?>
<!DOCTYPE svg PUBLIC "-//W3C//DTD SVG 1.1//EN"
 "http://www.w3.org/Graphics/SVG/1.1/DTD/svg11.dtd">
<!-- Generated by graphviz version 5.0.0 (0)
 -->
<!-- Title: GetGlobalBin.h Pages: 1 -->
<!--zoomable 418 -->
<svg id="main" version="1.1" xmlns="http://www.w3.org/2000/svg" xmlns:xlink="http://www.w3.org/1999/xlink" xml:space="preserve" onload="init(evt)">
<style type="text/css"><![CDATA[
.edge:hover path { stroke: red; }
.edge:hover polygon { stroke: red; fill: red; }
]]></style>
<script type="text/javascript"><![CDATA[
var edges = document.getElementsByTagName('g');
if (edges && edges.length) {
  for (var i=0;i<edges.length;i++) {
    if (edges[i].id.substr(0,4)=='edge') {
      edges[i].setAttribute('class','edge');
    }
  }
}
]]></script>
        <defs>
                <circle id="rim" cx="0" cy="0" r="7"/>
                <circle id="rim2" cx="0" cy="0" r="3.5"/>
                <g id="zoomPlus">
                        <use xlink:href="#rim" fill="#404040">
                                <set attributeName="fill" to="#808080" begin="zoomplus.mouseover" end="zoomplus.mouseout"/>
                        </use>
                        <path d="M-4,0h8M0,-4v8" fill="none" stroke="white" stroke-width="1.5" pointer-events="none"/>
                </g>
                <g id="zoomMin">
                        <use xlink:href="#rim" fill="#404040">
                                <set attributeName="fill" to="#808080" begin="zoomminus.mouseover" end="zoomminus.mouseout"/>
                        </use>
                        <path d="M-4,0h8" fill="none" stroke="white" stroke-width="1.5" pointer-events="none"/>
                </g>
                <g id="dirArrow">
                        <path fill="none" stroke="white" stroke-width="1.5" d="M0,-3.0v7 M-2.5,-0.5L0,-3.0L2.5,-0.5"/>
                </g>
               <g id="resetDef">
                       <use xlink:href="#rim2" fill="#404040">
                               <set attributeName="fill" to="#808080" begin="reset.mouseover" end="reset.mouseout"/>
                       </use>
               </g>
        </defs>

<script type="text/javascript">
var viewWidth = 1841;
var viewHeight = 418;
var sectionId = 'dynsection-0';
</script>
<script xlink:href="svgpan.js"/>
<svg id="graph" class="graph">
<g id="viewport">
<title>GetGlobalBin.h</title>
<!-- Node0 -->
<g id="node1" class="node">
<title>Node0</title>
<polygon fill="#bfbfbf" stroke="black" points="368.41,-390.5 368.41,-409.5 451.41,-409.5 451.41,-390.5 368.41,-390.5"/>
<text text-anchor="middle" x="409.91" y="-397.5" font-family="Helvetica,sans-Serif" font-size="10.00">GetGlobalBin.h</text>
</g>
<!-- Node1 -->
<g id="node2" class="node">
<title>Node1</title>
<polygon fill="none" stroke="#bfbfbf" points="254.41,-323.5 254.41,-353.5 381.41,-353.5 381.41,-323.5 254.41,-323.5"/>
<text text-anchor="start" x="262.41" y="-341.5" font-family="Helvetica,sans-Serif" font-size="10.00">hydra/detail/external</text>
<text text-anchor="middle" x="317.91" y="-330.5" font-family="Helvetica,sans-Serif" font-size="10.00">/hydra_thrust/functional.h</text>
</g>
<!-- Node0&#45;&gt;Node1 -->
<g id="edge1" class="edge">
<title>Node0&#45;&gt;Node1</title>
<path fill="none" stroke="midnightblue" d="M396.73,-390.48C384.15,-382.34 364.75,-369.79 348.34,-359.18"/>
<polygon fill="midnightblue" stroke="midnightblue" points="349.89,-356.01 339.6,-353.52 346.09,-361.89 349.89,-356.01"/>
</g>
<!-- Node2 -->
<g id="node3" class="node">
<title>Node2</title>
<g id="a_node3"><a xlink:href="Tuple_8h.html" target="_top" xlink:title="hydra/Tuple.h">
<polygon fill="none" stroke="black" points="280.91,-251 280.91,-270 356.91,-270 356.91,-251 280.91,-251"/>
<text text-anchor="middle" x="318.91" y="-258" font-family="Helvetica,sans-Serif" font-size="10.00">hydra/Tuple.h</text>
</a>
</g>
</g>
<!-- Node0&#45;&gt;Node2 -->
<g id="edge2" class="edge">
<title>Node0&#45;&gt;Node2</title>
<path fill="none" stroke="midnightblue" d="M409.3,-390.37C407.9,-375.55 403.48,-344.77 389.91,-323 377.8,-303.56 357.61,-286.94 341.85,-275.9"/>
<polygon fill="midnightblue" stroke="midnightblue" points="343.43,-272.74 333.18,-270.06 339.52,-278.55 343.43,-272.74"/>
</g>
<!-- Node12 -->
<g id="node13" class="node">
<title>Node12</title>
<g id="a_node13"><a xlink:href="Utility__Tuple_8h.html" target="_top" xlink:title="hydra/detail/utility\l/Utility_Tuple.h">
<polygon fill="none" stroke="black" points="589.41,-323.5 589.41,-353.5 682.41,-353.5 682.41,-323.5 589.41,-323.5"/>
<text text-anchor="start" x="597.41" y="-341.5" font-family="Helvetica,sans-Serif" font-size="10.00">hydra/detail/utility</text>
<text text-anchor="middle" x="635.91" y="-330.5" font-family="Helvetica,sans-Serif" font-size="10.00">/Utility_Tuple.h</text>
</a>
</g>
</g>
<!-- Node0&#45;&gt;Node12 -->
<g id="edge12" class="edge">
<title>Node0&#45;&gt;Node12</title>
<path fill="none" stroke="midnightblue" d="M442.29,-390.48C477.96,-381.08 535.99,-365.81 579.23,-354.42"/>
<polygon fill="midnightblue" stroke="midnightblue" points="580.27,-357.77 589.05,-351.84 578.49,-351 580.27,-357.77"/>
</g>
<!-- Node3 -->
<g id="node4" class="node">
<title>Node3</title>
<g id="a_node4"><a xlink:href="Config_8h.html" target="_top" xlink:title="hydra/detail/Config.h">
<polygon fill="none" stroke="black" points="465.41,-89.5 465.41,-108.5 572.41,-108.5 572.41,-89.5 465.41,-89.5"/>
<text text-anchor="middle" x="518.91" y="-96.5" font-family="Helvetica,sans-Serif" font-size="10.00">hydra/detail/Config.h</text>
</a>
</g>
</g>
<!-- Node2&#45;&gt;Node3 -->
<g id="edge3" class="edge">
<title>Node2&#45;&gt;Node3</title>
<path fill="none" stroke="midnightblue" d="M315.13,-250.89C307.3,-231.59 291.82,-184.4 313.91,-156 353.9,-104.62 393.3,-137.86 455.91,-120 464.89,-117.44 474.53,-114.48 483.5,-111.65"/>
<polygon fill="midnightblue" stroke="midnightblue" points="484.81,-114.9 493.27,-108.52 482.68,-108.23 484.81,-114.9"/>
</g>
<!-- Node6 -->
<g id="node7" class="node">
<title>Node6</title>
<polygon fill="none" stroke="#bfbfbf" points="380.91,-162 380.91,-192 486.91,-192 486.91,-162 380.91,-162"/>
<text text-anchor="start" x="388.91" y="-180" font-family="Helvetica,sans-Serif" font-size="10.00">hydra/detail/external</text>
<text text-anchor="middle" x="433.91" y="-169" font-family="Helvetica,sans-Serif" font-size="10.00">/hydra_thrust/tuple.h</text>
</g>
<!-- Node2&#45;&gt;Node6 -->
<g id="edge6" class="edge">
<title>Node2&#45;&gt;Node6</title>
<path fill="none" stroke="midnightblue" d="M331.22,-250.78C348.87,-238.27 381.86,-214.89 405.7,-197.99"/>
<polygon fill="midnightblue" stroke="midnightblue" points="407.89,-200.74 414.02,-192.1 403.84,-195.02 407.89,-200.74"/>
</g>
<!-- Node7 -->
<g id="node8" class="node">
<title>Node7</title>
<polygon fill="none" stroke="#bfbfbf" points="162.91,-156.5 162.91,-197.5 266.91,-197.5 266.91,-156.5 162.91,-156.5"/>
<text text-anchor="start" x="170.91" y="-185.5" font-family="Helvetica,sans-Serif" font-size="10.00">hydra/detail/external</text>
<text text-anchor="start" x="170.91" y="-174.5" font-family="Helvetica,sans-Serif" font-size="10.00">/hydra_thrust/detail</text>
<text text-anchor="middle" x="214.91" y="-163.5" font-family="Helvetica,sans-Serif" font-size="10.00">/tuple/tuple.h</text>
</g>
<!-- Node2&#45;&gt;Node7 -->
<g id="edge7" class="edge">
<title>Node2&#45;&gt;Node7</title>
<path fill="none" stroke="midnightblue" d="M307.78,-250.78C293.63,-239.69 268.56,-220.04 248.03,-203.95"/>
<polygon fill="midnightblue" stroke="midnightblue" points="250.16,-201.17 240.13,-197.76 245.84,-206.68 250.16,-201.17"/>
</g>
<!-- Node8 -->
<g id="node9" class="node">
<title>Node8</title>
<g id="a_node9"><a xlink:href="Generic_8h.html" target="_top" xlink:title="hydra/detail/utility\l/Generic.h">
<polygon fill="none" stroke="black" points="13.41,-162 13.41,-192 106.41,-192 106.41,-162 13.41,-162"/>
<text text-anchor="start" x="21.41" y="-180" font-family="Helvetica,sans-Serif" font-size="10.00">hydra/detail/utility</text>
<text text-anchor="middle" x="59.91" y="-169" font-family="Helvetica,sans-Serif" font-size="10.00">/Generic.h</text>
</a>
</g>
</g>
<!-- Node2&#45;&gt;Node8 -->
<g id="edge8" class="edge">
<title>Node2&#45;&gt;Node8</title>
<path fill="none" stroke="midnightblue" d="M291.68,-250.93C249.75,-237.74 168.52,-212.18 114.24,-195.1"/>
<polygon fill="midnightblue" stroke="midnightblue" points="115.03,-191.67 104.44,-192.01 112.93,-198.35 115.03,-191.67"/>
</g>
<!-- Node11 -->
<g id="node12" class="node">
<title>Node11</title>
<polygon fill="none" stroke="#bfbfbf" points="322.91,-167.5 322.91,-186.5 362.91,-186.5 362.91,-167.5 322.91,-167.5"/>
<text text-anchor="middle" x="342.91" y="-174.5" font-family="Helvetica,sans-Serif" font-size="10.00">utility</text>
</g>
<!-- Node2&#45;&gt;Node11 -->
<g id="edge11" class="edge">
<title>Node2&#45;&gt;Node11</title>
<path fill="none" stroke="midnightblue" d="M321.48,-250.78C325.27,-237.91 332.45,-213.53 337.45,-196.55"/>
<polygon fill="midnightblue" stroke="midnightblue" points="340.9,-197.24 340.36,-186.66 334.18,-195.26 340.9,-197.24"/>
</g>
<!-- Node4 -->
<g id="node5" class="node">
<title>Node4</title>
<polygon fill="none" stroke="#bfbfbf" points="403.91,-0.5 403.91,-41.5 507.91,-41.5 507.91,-0.5 403.91,-0.5"/>
<text text-anchor="start" x="411.91" y="-29.5" font-family="Helvetica,sans-Serif" font-size="10.00">hydra/detail/external</text>
<text text-anchor="start" x="411.91" y="-18.5" font-family="Helvetica,sans-Serif" font-size="10.00">/hydra_thrust/detail</text>
<text text-anchor="middle" x="455.91" y="-7.5" font-family="Helvetica,sans-Serif" font-size="10.00">/config.h</text>
</g>
<!-- Node3&#45;&gt;Node4 -->
<g id="edge4" class="edge">
<title>Node3&#45;&gt;Node4</title>
<path fill="none" stroke="midnightblue" d="M511.69,-89.28C503.69,-79.63 490.39,-63.6 478.79,-49.6"/>
<polygon fill="midnightblue" stroke="midnightblue" points="481.28,-47.12 472.21,-41.66 475.9,-51.59 481.28,-47.12"/>
</g>
<!-- Node5 -->
<g id="node6" class="node">
<title>Node5</title>
<polygon fill="none" stroke="#bfbfbf" points="525.91,-0.5 525.91,-41.5 635.91,-41.5 635.91,-0.5 525.91,-0.5"/>
<text text-anchor="start" x="533.91" y="-29.5" font-family="Helvetica,sans-Serif" font-size="10.00">hydra/detail/external</text>
<text text-anchor="start" x="533.91" y="-18.5" font-family="Helvetica,sans-Serif" font-size="10.00">/hydra_thrust/detail</text>
<text text-anchor="middle" x="580.91" y="-7.5" font-family="Helvetica,sans-Serif" font-size="10.00">/config/host_device.h</text>
</g>
<!-- Node3&#45;&gt;Node5 -->
<g id="edge5" class="edge">
<title>Node3&#45;&gt;Node5</title>
<path fill="none" stroke="midnightblue" d="M526.02,-89.28C533.9,-79.63 546.98,-63.6 558.4,-49.6"/>
<polygon fill="midnightblue" stroke="midnightblue" points="561.27,-51.62 564.88,-41.66 555.84,-47.19 561.27,-51.62"/>
</g>
<!-- Node9 -->
<g id="node10" class="node">
<title>Node9</title>
<polygon fill="none" stroke="#bfbfbf" points="384.91,-89.5 384.91,-108.5 446.91,-108.5 446.91,-89.5 384.91,-89.5"/>
<text text-anchor="middle" x="415.91" y="-96.5" font-family="Helvetica,sans-Serif" font-size="10.00">type_traits</text>
</g>
<!-- Node8&#45;&gt;Node9 -->
<g id="edge9" class="edge">
<title>Node8&#45;&gt;Node9</title>
<path fill="none" stroke="midnightblue" d="M100.38,-161.92C107.19,-159.79 114.22,-157.72 120.91,-156 210.26,-132.98 317.06,-115.02 374.48,-106.13"/>
<polygon fill="midnightblue" stroke="midnightblue" points="375.26,-109.55 384.62,-104.58 374.2,-102.63 375.26,-109.55"/>
</g>
<!-- Node10 -->
<g id="node11" class="node">
<title>Node10</title>
<polygon fill="none" stroke="#bfbfbf" points="3.91,-89.5 3.91,-108.5 41.91,-108.5 41.91,-89.5 3.91,-89.5"/>
<text text-anchor="middle" x="22.91" y="-96.5" font-family="Helvetica,sans-Serif" font-size="10.00">array</text>
</g>
<!-- Node8&#45;&gt;Node10 -->
<g id="edge10" class="edge">
<title>Node8&#45;&gt;Node10</title>
<path fill="none" stroke="midnightblue" d="M52.95,-161.7C46.88,-149.23 38.05,-131.09 31.53,-117.7"/>
<polygon fill="midnightblue" stroke="midnightblue" points="34.61,-116.02 27.08,-108.56 28.31,-119.09 34.61,-116.02"/>
</g>
<!-- Node12&#45;&gt;Node3 -->
<g id="edge13" class="edge">
<title>Node12&#45;&gt;Node3</title>
<path fill="none" stroke="midnightblue" d="M682.57,-334.61C721.4,-329.97 776.11,-317.96 812.91,-287 859.81,-247.55 896.32,-202.07 855.91,-156 815.41,-109.83 641.86,-133.34 581.91,-120 572.02,-117.8 561.45,-114.73 551.86,-111.67"/>
<polygon fill="midnightblue" stroke="midnightblue" points="552.87,-108.32 542.28,-108.5 550.68,-114.96 552.87,-108.32"/>
</g>
<!-- Node12&#45;&gt;Node6 -->
<g id="edge45" class="edge">
<title>Node12&#45;&gt;Node6</title>
<path fill="none" stroke="midnightblue" d="M589.12,-333.56C553.93,-328.28 506.69,-315.92 475.91,-287 451.97,-264.5 441.51,-226.82 437.06,-202.18"/>
<polygon fill="midnightblue" stroke="midnightblue" points="440.49,-201.52 435.45,-192.2 433.58,-202.63 440.49,-201.52"/>
</g>
<!-- Node12&#45;&gt;Node8 -->
<g id="edge15" class="edge">
<title>Node12&#45;&gt;Node8</title>
<path fill="none" stroke="midnightblue" d="M589.12,-334.09C465.86,-324.95 140.39,-299.74 120.91,-287 90.92,-267.39 74.24,-227.68 66.17,-201.99"/>
<polygon fill="midnightblue" stroke="midnightblue" points="69.49,-200.87 63.32,-192.26 62.77,-202.84 69.49,-200.87"/>
</g>
<!-- Node12&#45;&gt;Node9 -->
<g id="edge48" class="edge">
<title>Node12&#45;&gt;Node9</title>
<path fill="none" stroke="midnightblue" d="M589.15,-338.4C517.93,-338.17 379.22,-331.36 271.91,-287 211.21,-261.9 183.21,-256.79 153.91,-198 111.12,-112.13 290.39,-100.43 374.48,-99.56"/>
<polygon fill="midnightblue" stroke="midnightblue" points="374.75,-103.06 384.73,-99.51 374.71,-96.06 374.75,-103.06"/>
</g>
<!-- Node12&#45;&gt;Node10 -->
<g id="edge49" class="edge">
<title>Node12&#45;&gt;Node10</title>
<path fill="none" stroke="midnightblue" d="M588.96,-334.27C458.28,-325.13 98.44,-299.02 75.91,-287 31.03,-263.04 20.88,-245.96 3.91,-198 -5.69,-170.87 5.16,-137.7 13.97,-117.74"/>
<polygon fill="midnightblue" stroke="midnightblue" points="17.17,-119.15 18.27,-108.61 10.84,-116.17 17.17,-119.15"/>
</g>
<!-- Node13 -->
<g id="node14" class="node">
<title>Node13</title>
<g id="a_node14"><a xlink:href="Types_8h.html" target="_top" xlink:title="Common and useful typedefs. ">
<polygon fill="none" stroke="black" points="768.91,-167.5 768.91,-186.5 846.91,-186.5 846.91,-167.5 768.91,-167.5"/>
<text text-anchor="middle" x="807.91" y="-174.5" font-family="Helvetica,sans-Serif" font-size="10.00">hydra/Types.h</text>
</a>
</g>
</g>
<!-- Node12&#45;&gt;Node13 -->
<g id="edge14" class="edge">
<title>Node12&#45;&gt;Node13</title>
<path fill="none" stroke="midnightblue" d="M682.65,-334.31C716.83,-329.42 761.64,-317.22 787.91,-287 809.83,-261.8 811.22,-220.65 809.84,-196.78"/>
<polygon fill="midnightblue" stroke="midnightblue" points="813.31,-196.28 809.02,-186.59 806.34,-196.84 813.31,-196.28"/>
</g>
<!-- Node14 -->
<g id="node15" class="node">
<title>Node14</title>
<g id="a_node15"><a xlink:href="TagTraits_8h.html" target="_top" xlink:title="hydra/detail/TagTraits.h">
<polygon fill="none" stroke="black" points="660.41,-251 660.41,-270 779.41,-270 779.41,-251 660.41,-251"/>
<text text-anchor="middle" x="719.91" y="-258" font-family="Helvetica,sans-Serif" font-size="10.00">hydra/detail/TagTraits.h</text>
</a>
</g>
</g>
<!-- Node12&#45;&gt;Node14 -->
<g id="edge16" class="edge">
<title>Node12&#45;&gt;Node14</title>
<path fill="none" stroke="midnightblue" d="M651.71,-323.2C666.31,-310 687.93,-290.43 702.9,-276.89"/>
<polygon fill="midnightblue" stroke="midnightblue" points="705.38,-279.37 710.45,-270.06 700.68,-274.18 705.38,-279.37"/>
</g>
<!-- Node15 -->
<g id="node16" class="node">
<title>Node15</title>
<g id="a_node16"><a xlink:href="FunctorTraits_8h.html" target="_top" xlink:title="hydra/detail/FunctorTraits.h">
<polygon fill="none" stroke="black" points="484.91,-251 484.91,-270 620.91,-270 620.91,-251 484.91,-251"/>
<text text-anchor="middle" x="552.91" y="-258" font-family="Helvetica,sans-Serif" font-size="10.00">hydra/detail/FunctorTraits.h</text>
</a>
</g>
</g>
<!-- Node12&#45;&gt;Node15 -->
<g id="edge19" class="edge">
<title>Node12&#45;&gt;Node15</title>
<path fill="none" stroke="midnightblue" d="M620.3,-323.2C605.88,-310 584.51,-290.43 569.72,-276.89"/>
<polygon fill="midnightblue" stroke="midnightblue" points="572,-274.24 562.26,-270.06 567.28,-279.4 572,-274.24"/>
</g>
<!-- Node18 -->
<g id="node19" class="node">
<title>Node18</title>
<g id="a_node19"><a xlink:href="Parameter_8h.html" target="_top" xlink:title="hydra/Parameter.h">
<polygon fill="none" stroke="black" points="928.91,-251 928.91,-270 1024.91,-270 1024.91,-251 928.91,-251"/>
<text text-anchor="middle" x="976.91" y="-258" font-family="Helvetica,sans-Serif" font-size="10.00">hydra/Parameter.h</text>
</a>
</g>
</g>
<!-- Node12&#45;&gt;Node18 -->
<g id="edge26" class="edge">
<title>Node12&#45;&gt;Node18</title>
<path fill="none" stroke="midnightblue" d="M682.8,-329.37C733.79,-320.25 817.55,-304.43 888.91,-287 905.77,-282.88 924.24,-277.64 939.89,-272.99"/>
<polygon fill="midnightblue" stroke="midnightblue" points="941.16,-276.26 949.72,-270.03 939.14,-269.56 941.16,-276.26"/>
</g>
<!-- Node22 -->
<g id="node23" class="node">
<title>Node22</title>
<polygon fill="none" stroke="#bfbfbf" points="1728.91,-78.5 1728.91,-119.5 1832.91,-119.5 1832.91,-78.5 1728.91,-78.5"/>
<text text-anchor="start" x="1736.91" y="-107.5" font-family="Helvetica,sans-Serif" font-size="10.00">hydra/detail/external</text>
<text text-anchor="start" x="1736.91" y="-96.5" font-family="Helvetica,sans-Serif" font-size="10.00">/hydra_thrust/detail</text>
<text text-anchor="middle" x="1780.91" y="-85.5" font-family="Helvetica,sans-Serif" font-size="10.00">/type_traits.h</text>
</g>
<!-- Node12&#45;&gt;Node22 -->
<g id="edge46" class="edge">
<title>Node12&#45;&gt;Node22</title>
<path fill="none" stroke="midnightblue" d="M682.61,-336.19C775.75,-332.88 990.86,-321.83 1167.91,-287 1374.83,-246.3 1611.36,-163.37 1720.24,-123.04"/>
<polygon fill="midnightblue" stroke="midnightblue" points="1721.59,-126.28 1729.75,-119.51 1719.15,-119.71 1721.59,-126.28"/>
</g>
<!-- Node32 -->
<g id="node33" class="node">
<title>Node32</title>
<polygon fill="none" stroke="#bfbfbf" points="1042.91,-234.5 1042.91,-286.5 1158.91,-286.5 1158.91,-234.5 1042.91,-234.5"/>
<text text-anchor="start" x="1050.91" y="-274.5" font-family="Helvetica,sans-Serif" font-size="10.00">hydra/detail/external</text>
<text text-anchor="start" x="1050.91" y="-263.5" font-family="Helvetica,sans-Serif" font-size="10.00">/hydra_thrust/iterator</text>
<text text-anchor="start" x="1050.91" y="-252.5" font-family="Helvetica,sans-Serif" font-size="10.00">/detail/tuple_of_iterator</text>
<text text-anchor="middle" x="1100.91" y="-241.5" font-family="Helvetica,sans-Serif" font-size="10.00">_references.h</text>
</g>
<!-- Node12&#45;&gt;Node32 -->
<g id="edge47" class="edge">
<title>Node12&#45;&gt;Node32</title>
<path fill="none" stroke="midnightblue" d="M682.53,-335.18C755.71,-330.75 901.88,-318.77 1032.9,-287.01"/>
<polygon fill="midnightblue" stroke="midnightblue" points="1033.84,-290.38 1042.71,-284.58 1032.16,-283.58 1033.84,-290.38"/>
</g>
<!-- Node14&#45;&gt;Node9 -->
<g id="edge17" class="edge">
<title>Node14&#45;&gt;Node9</title>
<path fill="none" stroke="midnightblue" d="M719.63,-250.91C718.47,-230.82 712.58,-180.61 682.91,-156 604.28,-90.79 553.18,-151.21 455.91,-120 450.37,-118.22 444.64,-115.77 439.31,-113.19"/>
<polygon fill="midnightblue" stroke="midnightblue" points="440.77,-110 430.27,-108.53 437.56,-116.22 440.77,-110"/>
</g>
<!-- Node14&#45;&gt;Node13 -->
<g id="edge18" class="edge">
<title>Node14&#45;&gt;Node13</title>
<path fill="none" stroke="midnightblue" d="M729.33,-250.78C744.02,-237.17 772.6,-210.71 790.94,-193.72"/>
<polygon fill="midnightblue" stroke="midnightblue" points="793.6,-196.02 798.56,-186.66 788.85,-190.89 793.6,-196.02"/>
</g>
<!-- Node15&#45;&gt;Node3 -->
<g id="edge20" class="edge">
<title>Node15&#45;&gt;Node3</title>
<path fill="none" stroke="midnightblue" d="M551.08,-250.92C545.78,-226.04 530.3,-153.41 522.92,-118.78"/>
<polygon fill="midnightblue" stroke="midnightblue" points="526.26,-117.67 520.75,-108.62 519.41,-119.13 526.26,-117.67"/>
</g>
<!-- Node15&#45;&gt;Node6 -->
<g id="edge22" class="edge">
<title>Node15&#45;&gt;Node6</title>
<path fill="none" stroke="midnightblue" d="M540.18,-250.78C521.83,-238.22 487.47,-214.68 462.78,-197.77"/>
<polygon fill="midnightblue" stroke="midnightblue" points="464.72,-194.86 454.5,-192.1 460.77,-200.64 464.72,-194.86"/>
</g>
<!-- Node15&#45;&gt;Node9 -->
<g id="edge25" class="edge">
<title>Node15&#45;&gt;Node9</title>
<path fill="none" stroke="midnightblue" d="M549.75,-250.91C542.5,-232.07 523.19,-186.37 495.91,-156 480.33,-138.65 458.4,-123.78 441.44,-113.73"/>
<polygon fill="midnightblue" stroke="midnightblue" points="443.02,-110.6 432.6,-108.66 439.54,-116.67 443.02,-110.6"/>
</g>
<!-- Node15&#45;&gt;Node11 -->
<g id="edge24" class="edge">
<title>Node15&#45;&gt;Node11</title>
<path fill="none" stroke="midnightblue" d="M518.77,-250.94C481.52,-240.92 420.69,-222.51 371.91,-198 368.64,-196.36 365.32,-194.39 362.14,-192.34"/>
<polygon fill="midnightblue" stroke="midnightblue" points="363.97,-189.35 353.76,-186.54 359.99,-195.11 363.97,-189.35"/>
</g>
<!-- Node16 -->
<g id="node17" class="node">
<title>Node16</title>
<g id="a_node17"><a xlink:href="StaticAssert_8h.html" target="_top" xlink:title="hydra/detail/utility\l/StaticAssert.h">
<polygon fill="none" stroke="black" points="581.41,-162 581.41,-192 674.41,-192 674.41,-162 581.41,-162"/>
<text text-anchor="start" x="589.41" y="-180" font-family="Helvetica,sans-Serif" font-size="10.00">hydra/detail/utility</text>
<text text-anchor="middle" x="627.91" y="-169" font-family="Helvetica,sans-Serif" font-size="10.00">/StaticAssert.h</text>
</a>
</g>
</g>
<!-- Node15&#45;&gt;Node16 -->
<g id="edge21" class="edge">
<title>Node15&#45;&gt;Node16</title>
<path fill="none" stroke="midnightblue" d="M560.94,-250.78C572.05,-238.71 592.47,-216.51 607.85,-199.8"/>
<polygon fill="midnightblue" stroke="midnightblue" points="610.74,-201.83 614.94,-192.1 605.59,-197.09 610.74,-201.83"/>
</g>
<!-- Node17 -->
<g id="node18" class="node">
<title>Node17</title>
<polygon fill="none" stroke="#bfbfbf" points="590.91,-78.5 590.91,-119.5 712.91,-119.5 712.91,-78.5 590.91,-78.5"/>
<text text-anchor="start" x="598.91" y="-107.5" font-family="Helvetica,sans-Serif" font-size="10.00">hydra/detail/external</text>
<text text-anchor="start" x="598.91" y="-96.5" font-family="Helvetica,sans-Serif" font-size="10.00">/hydra_thrust/type_traits</text>
<text text-anchor="middle" x="651.91" y="-85.5" font-family="Helvetica,sans-Serif" font-size="10.00">/void_t.h</text>
</g>
<!-- Node15&#45;&gt;Node17 -->
<g id="edge23" class="edge">
<title>Node15&#45;&gt;Node17</title>
<path fill="none" stroke="midnightblue" d="M598.24,-250.99C627.88,-242.82 664.41,-227.22 682.91,-198 696.47,-176.59 685.45,-148.78 672.95,-128.26"/>
<polygon fill="midnightblue" stroke="midnightblue" points="675.75,-126.16 667.37,-119.67 669.88,-129.97 675.75,-126.16"/>
</g>
<!-- Node18&#45;&gt;Node3 -->
<g id="edge27" class="edge">
<title>Node18&#45;&gt;Node3</title>
<path fill="none" stroke="midnightblue" d="M970.84,-250.84C954.69,-228.08 910.43,-167.52 888.91,-156 767.79,-91.17 716.21,-148.92 581.91,-120 572,-117.87 561.43,-114.82 551.84,-111.76"/>
<polygon fill="midnightblue" stroke="midnightblue" points="552.85,-108.4 542.26,-108.58 550.65,-115.05 552.85,-108.4"/>
</g>
<!-- Node18&#45;&gt;Node13 -->
<g id="edge28" class="edge">
<title>Node18&#45;&gt;Node13</title>
<path fill="none" stroke="midnightblue" d="M959.15,-250.93C929.48,-236.62 869.68,-207.78 834.82,-190.98"/>
<polygon fill="midnightblue" stroke="midnightblue" points="836.22,-187.77 825.69,-186.58 833.18,-194.07 836.22,-187.77"/>
</g>
<!-- Node19 -->
<g id="node20" class="node">
<title>Node19</title>
<g id="a_node20"><a xlink:href="TypeTraits_8h.html" target="_top" xlink:title="hydra/detail/TypeTraits.h">
<polygon fill="none" stroke="black" points="940.91,-167.5 940.91,-186.5 1064.91,-186.5 1064.91,-167.5 940.91,-167.5"/>
<text text-anchor="middle" x="1002.91" y="-174.5" font-family="Helvetica,sans-Serif" font-size="10.00">hydra/detail/TypeTraits.h</text>
</a>
</g>
</g>
<!-- Node18&#45;&gt;Node19 -->
<g id="edge29" class="edge">
<title>Node18&#45;&gt;Node19</title>
<path fill="none" stroke="midnightblue" d="M979.7,-250.78C983.8,-237.91 991.58,-213.53 996.99,-196.55"/>
<polygon fill="midnightblue" stroke="midnightblue" points="1000.45,-197.25 1000.15,-186.66 993.78,-195.12 1000.45,-197.25"/>
</g>
<!-- Node29 -->
<g id="node30" class="node">
<title>Node29</title>
<polygon fill="none" stroke="#bfbfbf" points="1083.41,-167.5 1083.41,-186.5 1124.41,-186.5 1124.41,-167.5 1083.41,-167.5"/>
<text text-anchor="middle" x="1103.91" y="-174.5" font-family="Helvetica,sans-Serif" font-size="10.00">string</text>
</g>
<!-- Node18&#45;&gt;Node29 -->
<g id="edge42" class="edge">
<title>Node18&#45;&gt;Node29</title>
<path fill="none" stroke="midnightblue" d="M990.79,-250.84C1009.68,-239.02 1044.49,-217.13 1073.91,-198 1076.75,-196.16 1079.72,-194.2 1082.65,-192.26"/>
<polygon fill="midnightblue" stroke="midnightblue" points="1084.72,-195.09 1091.11,-186.63 1080.85,-189.26 1084.72,-195.09"/>
</g>
<!-- Node30 -->
<g id="node31" class="node">
<title>Node30</title>
<polygon fill="none" stroke="#bfbfbf" points="1142.91,-167.5 1142.91,-186.5 1194.91,-186.5 1194.91,-167.5 1142.91,-167.5"/>
<text text-anchor="middle" x="1168.91" y="-174.5" font-family="Helvetica,sans-Serif" font-size="10.00">ostream</text>
</g>
<!-- Node18&#45;&gt;Node30 -->
<g id="edge43" class="edge">
<title>Node18&#45;&gt;Node30</title>
<path fill="none" stroke="midnightblue" d="M995.25,-250.89C1006.35,-245.78 1020.85,-239.29 1033.91,-234 1077.31,-216.43 1090.32,-217.43 1132.91,-198 1137.2,-196.04 1141.67,-193.77 1145.93,-191.47"/>
<polygon fill="midnightblue" stroke="midnightblue" points="1147.79,-194.44 1154.82,-186.51 1144.38,-188.33 1147.79,-194.44"/>
</g>
<!-- Node31 -->
<g id="node32" class="node">
<title>Node31</title>
<polygon fill="none" stroke="#bfbfbf" points="1212.91,-167.5 1212.91,-186.5 1256.91,-186.5 1256.91,-167.5 1212.91,-167.5"/>
<text text-anchor="middle" x="1234.91" y="-174.5" font-family="Helvetica,sans-Serif" font-size="10.00">vector</text>
</g>
<!-- Node18&#45;&gt;Node31 -->
<g id="edge44" class="edge">
<title>Node18&#45;&gt;Node31</title>
<path fill="none" stroke="midnightblue" d="M993.5,-250.95C1004.68,-245.47 1019.89,-238.56 1033.91,-234 1107.35,-210.1 1132.51,-227.42 1203.91,-198 1207.73,-196.43 1211.6,-194.37 1215.24,-192.19"/>
<polygon fill="midnightblue" stroke="midnightblue" points="1217.24,-195.06 1223.69,-186.66 1213.41,-189.2 1217.24,-195.06"/>
</g>
<!-- Node19&#45;&gt;Node3 -->
<g id="edge30" class="edge">
<title>Node19&#45;&gt;Node3</title>
<path fill="none" stroke="midnightblue" d="M974.63,-167.45C960.43,-163.44 942.88,-158.92 926.91,-156 775.26,-128.3 732.83,-151.49 581.91,-120 571.91,-117.91 561.24,-114.86 551.58,-111.76"/>
<polygon fill="midnightblue" stroke="midnightblue" points="552.54,-108.39 541.95,-108.56 550.33,-115.03 552.54,-108.39"/>
</g>
<!-- Node19&#45;&gt;Node9 -->
<g id="edge31" class="edge">
<title>Node19&#45;&gt;Node9</title>
<path fill="none" stroke="midnightblue" d="M944.69,-167.46C917.71,-163.66 885.22,-159.31 855.91,-156 678.54,-135.96 627.62,-168.76 455.91,-120 450.22,-118.38 444.37,-115.95 438.96,-113.34"/>
<polygon fill="midnightblue" stroke="midnightblue" points="440.31,-110.1 429.83,-108.58 437.07,-116.31 440.31,-110.1"/>
</g>
<!-- Node19&#45;&gt;Node17 -->
<g id="edge41" class="edge">
<title>Node19&#45;&gt;Node17</title>
<path fill="none" stroke="midnightblue" d="M972.73,-167.44C958.84,-163.66 942.11,-159.33 926.91,-156 839.64,-136.89 813.81,-140.45 723.15,-120.17"/>
<polygon fill="midnightblue" stroke="midnightblue" points="723.81,-116.73 713.28,-117.93 722.25,-123.56 723.81,-116.73"/>
</g>
<!-- Node20 -->
<g id="node21" class="node">
<title>Node20</title>
<polygon fill="none" stroke="#bfbfbf" points="1110.91,-89.5 1110.91,-108.5 1150.91,-108.5 1150.91,-89.5 1110.91,-89.5"/>
<text text-anchor="middle" x="1130.91" y="-96.5" font-family="Helvetica,sans-Serif" font-size="10.00">limits</text>
</g>
<!-- Node19&#45;&gt;Node20 -->
<g id="edge32" class="edge">
<title>Node19&#45;&gt;Node20</title>
<path fill="none" stroke="midnightblue" d="M1018.72,-167.41C1038.26,-156.68 1072.41,-137.62 1100.91,-120 1103.84,-118.19 1106.9,-116.23 1109.89,-114.28"/>
<polygon fill="midnightblue" stroke="midnightblue" points="1112.1,-117.01 1118.48,-108.56 1108.22,-111.19 1112.1,-117.01"/>
</g>
<!-- Node21 -->
<g id="node22" class="node">
<title>Node21</title>
<polygon fill="none" stroke="#bfbfbf" points="1168.91,-84 1168.91,-114 1290.91,-114 1290.91,-84 1168.91,-84"/>
<text text-anchor="start" x="1176.91" y="-102" font-family="Helvetica,sans-Serif" font-size="10.00">hydra/detail/external</text>
<text text-anchor="middle" x="1229.91" y="-91" font-family="Helvetica,sans-Serif" font-size="10.00">/hydra_thrust/complex.h</text>
</g>
<!-- Node19&#45;&gt;Node21 -->
<g id="edge33" class="edge">
<title>Node19&#45;&gt;Node21</title>
<path fill="none" stroke="midnightblue" d="M1028.51,-167.43C1064.67,-155.32 1131.48,-132.95 1178.21,-117.31"/>
<polygon fill="midnightblue" stroke="midnightblue" points="1179.48,-120.58 1187.85,-114.08 1177.26,-113.94 1179.48,-120.58"/>
</g>
<!-- Node19&#45;&gt;Node22 -->
<g id="edge34" class="edge">
<title>Node19&#45;&gt;Node22</title>
<path fill="none" stroke="midnightblue" d="M1028.24,-167.41C1041.65,-163.23 1058.5,-158.57 1073.91,-156 1354.23,-109.29 1435.43,-171.75 1718.74,-119.93"/>
<polygon fill="midnightblue" stroke="midnightblue" points="1719.71,-123.31 1728.9,-118.04 1718.43,-116.43 1719.71,-123.31"/>
</g>
<!-- Node23 -->
<g id="node24" class="node">
<title>Node23</title>
<polygon fill="none" stroke="#bfbfbf" points="1309.41,-78.5 1309.41,-119.5 1428.41,-119.5 1428.41,-78.5 1309.41,-78.5"/>
<text text-anchor="start" x="1317.41" y="-107.5" font-family="Helvetica,sans-Serif" font-size="10.00">hydra/detail/external</text>
<text text-anchor="start" x="1317.41" y="-96.5" font-family="Helvetica,sans-Serif" font-size="10.00">/hydra_thrust/execution</text>
<text text-anchor="middle" x="1368.91" y="-85.5" font-family="Helvetica,sans-Serif" font-size="10.00">_policy.h</text>
</g>
<!-- Node19&#45;&gt;Node23 -->
<g id="edge35" class="edge">
<title>Node19&#45;&gt;Node23</title>
<path fill="none" stroke="midnightblue" d="M1030.37,-167.46C1043.47,-163.59 1059.4,-159.19 1073.91,-156 1170.15,-134.86 1198.87,-141.73 1299.25,-120"/>
<polygon fill="midnightblue" stroke="midnightblue" points="1300.18,-123.38 1309.19,-117.8 1298.67,-116.54 1300.18,-123.38"/>
</g>
<!-- Node24 -->
<g id="node25" class="node">
<title>Node24</title>
<polygon fill="none" stroke="#bfbfbf" points="1446.91,-78.5 1446.91,-119.5 1554.91,-119.5 1554.91,-78.5 1446.91,-78.5"/>
<text text-anchor="start" x="1454.91" y="-107.5" font-family="Helvetica,sans-Serif" font-size="10.00">hydra/detail/external</text>
<text text-anchor="start" x="1454.91" y="-96.5" font-family="Helvetica,sans-Serif" font-size="10.00">/hydra_thrust/iterator</text>
<text text-anchor="middle" x="1500.91" y="-85.5" font-family="Helvetica,sans-Serif" font-size="10.00">/iterator_categories.h</text>
</g>
<!-- Node19&#45;&gt;Node24 -->
<g id="edge36" class="edge">
<title>Node19&#45;&gt;Node24</title>
<path fill="none" stroke="midnightblue" d="M1028.95,-167.48C1042.27,-163.43 1058.81,-158.85 1073.91,-156 1229.95,-126.52 1276.16,-151.29 1436.42,-119.84"/>
<polygon fill="midnightblue" stroke="midnightblue" points="1437.53,-123.19 1446.64,-117.79 1436.15,-116.32 1437.53,-123.19"/>
</g>
<!-- Node25 -->
<g id="node26" class="node">
<title>Node25</title>
<polygon fill="none" stroke="#bfbfbf" points="1572.91,-78.5 1572.91,-119.5 1710.91,-119.5 1710.91,-78.5 1572.91,-78.5"/>
<text text-anchor="start" x="1580.91" y="-107.5" font-family="Helvetica,sans-Serif" font-size="10.00">hydra/detail/external</text>
<text text-anchor="start" x="1580.91" y="-96.5" font-family="Helvetica,sans-Serif" font-size="10.00">/hydra_thrust/iterator</text>
<text text-anchor="middle" x="1641.91" y="-85.5" font-family="Helvetica,sans-Serif" font-size="10.00">/detail/is_iterator_category.h</text>
</g>
<!-- Node19&#45;&gt;Node25 -->
<g id="edge37" class="edge">
<title>Node19&#45;&gt;Node25</title>
<path fill="none" stroke="midnightblue" d="M1028.59,-167.42C1041.95,-163.3 1058.65,-158.68 1073.91,-156 1285.73,-118.78 1346.58,-154.15 1562.65,-120.04"/>
<polygon fill="midnightblue" stroke="midnightblue" points="1563.41,-123.47 1572.73,-118.42 1562.3,-116.55 1563.41,-123.47"/>
</g>
<!-- Node26 -->
<g id="node27" class="node">
<title>Node26</title>
<polygon fill="none" stroke="#bfbfbf" points="731.41,-78.5 731.41,-119.5 838.41,-119.5 838.41,-78.5 731.41,-78.5"/>
<text text-anchor="start" x="739.41" y="-107.5" font-family="Helvetica,sans-Serif" font-size="10.00">hydra/detail/external</text>
<text text-anchor="start" x="739.41" y="-96.5" font-family="Helvetica,sans-Serif" font-size="10.00">/hydra_thrust/iterator</text>
<text text-anchor="middle" x="784.91" y="-85.5" font-family="Helvetica,sans-Serif" font-size="10.00">/iterator_traits.h</text>
</g>
<!-- Node19&#45;&gt;Node26 -->
<g id="edge38" class="edge">
<title>Node19&#45;&gt;Node26</title>
<path fill="none" stroke="midnightblue" d="M978.33,-167.43C946.96,-156.49 891.56,-137.18 848.07,-122.02"/>
<polygon fill="midnightblue" stroke="midnightblue" points="849.02,-118.64 838.42,-118.65 846.71,-125.25 849.02,-118.64"/>
</g>
<!-- Node27 -->
<g id="node28" class="node">
<title>Node27</title>
<polygon fill="none" stroke="#bfbfbf" points="856.41,-78.5 856.41,-119.5 961.41,-119.5 961.41,-78.5 856.41,-78.5"/>
<text text-anchor="start" x="864.41" y="-107.5" font-family="Helvetica,sans-Serif" font-size="10.00">hydra/detail/external</text>
<text text-anchor="start" x="864.41" y="-96.5" font-family="Helvetica,sans-Serif" font-size="10.00">/hydra_thrust/device</text>
<text text-anchor="middle" x="908.91" y="-85.5" font-family="Helvetica,sans-Serif" font-size="10.00">_reference.h</text>
</g>
<!-- Node19&#45;&gt;Node27 -->
<g id="edge39" class="edge">
<title>Node19&#45;&gt;Node27</title>
<path fill="none" stroke="midnightblue" d="M992.13,-167.28C979.75,-157.27 958.87,-140.39 941.12,-126.04"/>
<polygon fill="midnightblue" stroke="midnightblue" points="943.2,-123.22 933.23,-119.66 938.8,-128.67 943.2,-123.22"/>
</g>
<!-- Node28 -->
<g id="node29" class="node">
<title>Node28</title>
<polygon fill="none" stroke="#bfbfbf" points="979.41,-78.5 979.41,-119.5 1092.41,-119.5 1092.41,-78.5 979.41,-78.5"/>
<text text-anchor="start" x="987.41" y="-107.5" font-family="Helvetica,sans-Serif" font-size="10.00">hydra/detail/external</text>
<text text-anchor="start" x="987.41" y="-96.5" font-family="Helvetica,sans-Serif" font-size="10.00">/hydra_thrust/detail</text>
<text text-anchor="middle" x="1035.91" y="-85.5" font-family="Helvetica,sans-Serif" font-size="10.00">/raw_reference_cast.h</text>
</g>
<!-- Node19&#45;&gt;Node28 -->
<g id="edge40" class="edge">
<title>Node19&#45;&gt;Node28</title>
<path fill="none" stroke="midnightblue" d="M1006.7,-167.28C1010.73,-157.99 1017.33,-142.79 1023.24,-129.18"/>
<polygon fill="midnightblue" stroke="midnightblue" points="1026.6,-130.23 1027.38,-119.66 1020.18,-127.44 1026.6,-130.23"/>
</g>
</g>
</svg>
        <g id="navigator" transform="translate(0 0)" fill="#404254">
                <rect fill="#f2f5e9" fill-opacity="0.5" stroke="#606060" stroke-width=".5" x="0" y="0" width="60" height="60"/>
                <use id="zoomplus" xlink:href="#zoomPlus" x="17" y="9" onmousedown="handleZoom(evt,'in')"/>
                <use id="zoomminus" xlink:href="#zoomMin" x="42" y="9" onmousedown="handleZoom(evt,'out')"/>
                <use id="reset" xlink:href="#resetDef" x="30" y="36" onmousedown="handleReset()"/>
                <g id="arrowUp" xlink:href="#dirArrow" transform="translate(30 24)" onmousedown="handlePan(0,-1)">
                  <use xlink:href="#rim" fill="#404040">
                        <set attributeName="fill" to="#808080" begin="arrowUp.mouseover" end="arrowUp.mouseout"/>
                  </use>
                  <path fill="none" stroke="white" stroke-width="1.5" d="M0,-3.0v7 M-2.5,-0.5L0,-3.0L2.5,-0.5"/>
                </g>
                <g id="arrowRight" xlink:href="#dirArrow" transform="rotate(90) translate(36 -43)" onmousedown="handlePan(1,0)">
                  <use xlink:href="#rim" fill="#404040">
                        <set attributeName="fill" to="#808080" begin="arrowRight.mouseover" end="arrowRight.mouseout"/>
                  </use>
                  <path fill="none" stroke="white" stroke-width="1.5" d="M0,-3.0v7 M-2.5,-0.5L0,-3.0L2.5,-0.5"/>
                </g>
                <g id="arrowDown" xlink:href="#dirArrow" transform="rotate(180) translate(-30 -48)" onmousedown="handlePan(0,1)">
                  <use xlink:href="#rim" fill="#404040">
                        <set attributeName="fill" to="#808080" begin="arrowDown.mouseover" end="arrowDown.mouseout"/>
                  </use>
                  <path fill="none" stroke="white" stroke-width="1.5" d="M0,-3.0v7 M-2.5,-0.5L0,-3.0L2.5,-0.5"/>
                </g>
                <g id="arrowLeft" xlink:href="#dirArrow" transform="rotate(270) translate(-36 17)" onmousedown="handlePan(-1,0)">
                  <use xlink:href="#rim" fill="#404040">
                        <set attributeName="fill" to="#808080" begin="arrowLeft.mouseover" end="arrowLeft.mouseout"/>
                  </use>
                  <path fill="none" stroke="white" stroke-width="1.5" d="M0,-3.0v7 M-2.5,-0.5L0,-3.0L2.5,-0.5"/>
                </g>
        </g>
        <svg viewBox="0 0 15 15" width="100%" height="30px" preserveAspectRatio="xMaxYMin meet">
         <g id="arrow_out" transform="scale(0.3 0.3)">
          <a xlink:href="GetGlobalBin_8h__incl_org.svg" target="_base">
           <rect id="button" ry="5" rx="5" y="6" x="6" height="38" width="38"
                fill="#f2f5e9" fill-opacity="0.5" stroke="#606060" stroke-width="1.0"/>
           <path id="arrow"
             d="M 11.500037,31.436501 C 11.940474,20.09759 22.043105,11.32322 32.158766,21.979434 L 37.068811,17.246167 C 37.068811,17.246167 37.088388,32 37.088388,32 L 22.160133,31.978069 C 22.160133,31.978069 26.997745,27.140456 26.997745,27.140456 C 18.528582,18.264221 13.291696,25.230495 11.500037,31.436501 z"
             style="fill:#404040;"/>
          </a>
         </g>
        </svg>
</svg>
