<?xml version="1.0" encoding="UTF-8" standalone="no"?>
<!DOCTYPE svg PUBLIC "-//W3C//DTD SVG 1.1//EN"
 "http://www.w3.org/Graphics/SVG/1.1/DTD/svg11.dtd">
<!-- Generated by graphviz version 2.38.0 (20140413.2041)
 -->
<!-- Title: hydra::Vector4R::get Pages: 1 -->
<svg width="490pt" height="123pt"
 viewBox="0.00 0.00 490.00 123.00" xmlns="http://www.w3.org/2000/svg" xmlns:xlink="http://www.w3.org/1999/xlink">
<g id="graph0" class="graph" transform="scale(1 1) rotate(0) translate(4 119)">
<title>hydra::Vector4R::get</title>
<!-- Node137 -->
<g id="node1" class="node"><title>Node137</title>
<polygon fill="#bfbfbf" stroke="black" points="0,-38.5 0,-57.5 107,-57.5 107,-38.5 0,-38.5"/>
<text text-anchor="middle" x="53.5" y="-45.5" font-family="Helvetica,sans-Serif" font-size="10.00">hydra::Vector4R::get</text>
</g>
<!-- Node138 -->
<g id="node2" class="node"><title>Node138</title>
<g id="a_node2"><a xlink:href="group__phsp.html#ac30a0beccf6db256aa597c079ee4e2f2" target="_top" xlink:title="hydra::Vector4R::applyBoostTo">
<polygon fill="none" stroke="black" points="143,-76.5 143,-95.5 297,-95.5 297,-76.5 143,-76.5"/>
<text text-anchor="middle" x="220" y="-83.5" font-family="Helvetica,sans-Serif" font-size="10.00">hydra::Vector4R::applyBoostTo</text>
</a>
</g>
</g>
<!-- Node137&#45;&gt;Node138 -->
<g id="edge1" class="edge"><title>Node137&#45;&gt;Node138</title>
<path fill="none" stroke="midnightblue" d="M105.997,-59.8961C129.12,-65.2374 156.03,-71.4537 177.788,-76.4799"/>
<polygon fill="midnightblue" stroke="midnightblue" points="106.542,-56.4296 96.0103,-57.589 104.966,-63.25 106.542,-56.4296"/>
</g>
<!-- Node141 -->
<g id="node5" class="node"><title>Node141</title>
<g id="a_node5"><a xlink:href="group__phsp.html#a3f93530cd20bc166ff76c186c3df803f" target="_top" xlink:title="hydra::Vector4R::operator=">
<polygon fill="none" stroke="black" points="152.5,-38.5 152.5,-57.5 287.5,-57.5 287.5,-38.5 152.5,-38.5"/>
<text text-anchor="middle" x="220" y="-45.5" font-family="Helvetica,sans-Serif" font-size="10.00">hydra::Vector4R::operator=</text>
</a>
</g>
</g>
<!-- Node137&#45;&gt;Node141 -->
<g id="edge4" class="edge"><title>Node137&#45;&gt;Node141</title>
<path fill="none" stroke="midnightblue" d="M117.32,-48C128.749,-48 140.709,-48 152.246,-48"/>
<polygon fill="midnightblue" stroke="midnightblue" points="117.001,-44.5001 107.001,-48 117.001,-51.5001 117.001,-44.5001"/>
</g>
<!-- Node142 -->
<g id="node6" class="node"><title>Node142</title>
<g id="a_node6"><a xlink:href="group__phsp.html#a3fddb244df8e2bd1cff7027bc5f2d891" target="_top" xlink:title="hydra::Vector4R::Vector4R">
<polygon fill="none" stroke="black" points="152.5,-0.5 152.5,-19.5 287.5,-19.5 287.5,-0.5 152.5,-0.5"/>
<text text-anchor="middle" x="220" y="-7.5" font-family="Helvetica,sans-Serif" font-size="10.00">hydra::Vector4R::Vector4R</text>
</a>
</g>
</g>
<!-- Node137&#45;&gt;Node142 -->
<g id="edge5" class="edge"><title>Node137&#45;&gt;Node142</title>
<path fill="none" stroke="midnightblue" d="M105.997,-36.1039C129.12,-30.7626 156.03,-24.5463 177.788,-19.5201"/>
<polygon fill="midnightblue" stroke="midnightblue" points="104.966,-32.75 96.0103,-38.411 106.542,-39.5704 104.966,-32.75"/>
</g>
<!-- Node139 -->
<g id="node3" class="node"><title>Node139</title>
<g id="a_node3"><a xlink:href="namespacehydra.html#a52d2bb64b855258800238a7263f26699" target="_top" xlink:title="hydra::boostTo">
<polygon fill="none" stroke="black" points="366.5,-95.5 366.5,-114.5 448.5,-114.5 448.5,-95.5 366.5,-95.5"/>
<text text-anchor="middle" x="407.5" y="-102.5" font-family="Helvetica,sans-Serif" font-size="10.00">hydra::boostTo</text>
</a>
</g>
</g>
<!-- Node138&#45;&gt;Node139 -->
<g id="edge2" class="edge"><title>Node138&#45;&gt;Node139</title>
<path fill="none" stroke="midnightblue" d="M307.314,-94.8408C327.916,-96.9509 348.943,-99.1046 366.303,-100.883"/>
<polygon fill="midnightblue" stroke="midnightblue" points="307.558,-91.3475 297.253,-93.8103 306.844,-98.3111 307.558,-91.3475"/>
</g>
<!-- Node140 -->
<g id="node4" class="node"><title>Node140</title>
<g id="a_node4"><a xlink:href="group__phsp.html#ae004f6353cf452e6b58fbab67bd99113" target="_top" xlink:title="hydra::Vector4R::scalartripler3">
<polygon fill="none" stroke="black" points="333,-57.5 333,-76.5 482,-76.5 482,-57.5 333,-57.5"/>
<text text-anchor="middle" x="407.5" y="-64.5" font-family="Helvetica,sans-Serif" font-size="10.00">hydra::Vector4R::scalartripler3</text>
</a>
</g>
</g>
<!-- Node138&#45;&gt;Node140 -->
<g id="edge3" class="edge"><title>Node138&#45;&gt;Node140</title>
<path fill="none" stroke="midnightblue" d="M307.272,-77.1636C315.85,-76.2849 324.503,-75.3986 332.935,-74.535"/>
<polygon fill="midnightblue" stroke="midnightblue" points="306.844,-73.6889 297.253,-78.1897 307.558,-80.6525 306.844,-73.6889"/>
</g>
</g>
</svg>
