<?xml version="1.0" encoding="UTF-8" standalone="no"?>
<!DOCTYPE svg PUBLIC "-//W3C//DTD SVG 1.1//EN"
 "http://www.w3.org/Graphics/SVG/1.1/DTD/svg11.dtd">
<!-- Generated by graphviz version 2.38.0 (20140413.2041)
 -->
<!-- Title: hydra::Parameter::Error Pages: 1 -->
<svg width="317pt" height="78pt"
 viewBox="0.00 0.00 317.00 77.50" xmlns="http://www.w3.org/2000/svg" xmlns:xlink="http://www.w3.org/1999/xlink">
<g id="graph0" class="graph" transform="scale(1 1) rotate(0) translate(4 73.5)">
<title>hydra::Parameter::Error</title>
<!-- Node22 -->
<g id="node1" class="node"><title>Node22</title>
<polygon fill="#bfbfbf" stroke="black" points="0,-28 0,-47 119,-47 119,-28 0,-28"/>
<text text-anchor="middle" x="59.5" y="-35" font-family="Helvetica,sans-Serif" font-size="10.00">hydra::Parameter::Error</text>
</g>
<!-- Node23 -->
<g id="node2" class="node"><title>Node23</title>
<g id="a_node2"><a xlink:href="basic__fit_8inl.html#a1c03069360f1f90a556eb537e0ff8a72" target="_top" xlink:title="main">
<polygon fill="none" stroke="black" points="213,-50 213,-69 251,-69 251,-50 213,-50"/>
<text text-anchor="middle" x="232" y="-57" font-family="Helvetica,sans-Serif" font-size="10.00">main</text>
</a>
</g>
</g>
<!-- Node22&#45;&gt;Node23 -->
<g id="edge1" class="edge"><title>Node22&#45;&gt;Node23</title>
<path fill="none" stroke="midnightblue" d="M129.312,-46.379C159.593,-50.2861 192.749,-54.5644 212.708,-57.1397"/>
<polygon fill="midnightblue" stroke="midnightblue" points="129.542,-42.8797 119.176,-45.0712 128.646,-49.8222 129.542,-42.8797"/>
</g>
<!-- Node24 -->
<g id="node3" class="node"><title>Node24</title>
<g id="a_node3"><a xlink:href="classhydra_1_1PDFSumNonExtendable.html#aaa0536a999c6b43b60c7b5b3cf17b4b1" target="_top" xlink:title="Ctor for used to build AddPdf usable in extended likelihood fits. ">
<polygon fill="none" stroke="black" points="155,-0.5 155,-30.5 309,-30.5 309,-0.5 155,-0.5"/>
<text text-anchor="start" x="163" y="-18.5" font-family="Helvetica,sans-Serif" font-size="10.00">hydra::PDFSumNonExtendable</text>
<text text-anchor="middle" x="232" y="-7.5" font-family="Helvetica,sans-Serif" font-size="10.00">::PDFSumNonExtendable</text>
</a>
</g>
</g>
<!-- Node22&#45;&gt;Node24 -->
<g id="edge2" class="edge"><title>Node22&#45;&gt;Node24</title>
<path fill="none" stroke="midnightblue" d="M129.273,-28.6261C137.658,-27.5441 146.265,-26.4335 154.752,-25.3385"/>
<polygon fill="midnightblue" stroke="midnightblue" points="128.646,-25.1778 119.176,-29.9288 129.542,-32.1203 128.646,-25.1778"/>
</g>
</g>
</svg>
