<?xml version="1.0" encoding="UTF-8" standalone="no"?>
<!DOCTYPE svg PUBLIC "-//W3C//DTD SVG 1.1//EN"
 "http://www.w3.org/Graphics/SVG/1.1/DTD/svg11.dtd">
<!-- Generated by graphviz version 2.38.0 (20140413.2041)
 -->
<!-- Title: hydra::Parameter::GetValue Pages: 1 -->
<svg width="490pt" height="404pt"
 viewBox="0.00 0.00 490.00 404.00" xmlns="http://www.w3.org/2000/svg" xmlns:xlink="http://www.w3.org/1999/xlink">
<g id="graph0" class="graph" transform="scale(1 1) rotate(0) translate(4 400)">
<title>hydra::Parameter::GetValue</title>
<!-- Node55 -->
<g id="node1" class="node"><title>Node55</title>
<polygon fill="#bfbfbf" stroke="black" points="0,-194 0,-213 138,-213 138,-194 0,-194"/>
<text text-anchor="middle" x="69" y="-201" font-family="Helvetica,sans-Serif" font-size="10.00">hydra::Parameter::GetValue</text>
</g>
<!-- Node56 -->
<g id="node2" class="node"><title>Node56</title>
<g id="a_node2"><a xlink:href="classhydra_1_1UserParameters.html#a18017e1aa021f2d16ba4cdcbe8b17f53" target="_top" xlink:title="hydra::UserParameters\l::AddParameter">
<polygon fill="none" stroke="black" points="192,-365.5 192,-395.5 310,-395.5 310,-365.5 192,-365.5"/>
<text text-anchor="start" x="200" y="-383.5" font-family="Helvetica,sans-Serif" font-size="10.00">hydra::UserParameters</text>
<text text-anchor="middle" x="251" y="-372.5" font-family="Helvetica,sans-Serif" font-size="10.00">::AddParameter</text>
</a>
</g>
</g>
<!-- Node55&#45;&gt;Node56 -->
<g id="edge1" class="edge"><title>Node55&#45;&gt;Node56</title>
<path fill="none" stroke="midnightblue" d="M78.0143,-222.494C92.4908,-254.561 126.018,-319.456 174,-355.5 179.442,-359.588 185.585,-363.027 191.961,-365.915"/>
<polygon fill="midnightblue" stroke="midnightblue" points="81.2104,-221.067 73.9894,-213.314 74.7996,-223.878 81.2104,-221.067"/>
</g>
<!-- Node58 -->
<g id="node4" class="node"><title>Node58</title>
<g id="a_node4"><a xlink:href="extended__logLL__fit_8inl.html#a1c03069360f1f90a556eb537e0ff8a72" target="_top" xlink:title="main">
<polygon fill="none" stroke="black" points="232,-327 232,-346 270,-346 270,-327 232,-327"/>
<text text-anchor="middle" x="251" y="-334" font-family="Helvetica,sans-Serif" font-size="10.00">main</text>
</a>
</g>
</g>
<!-- Node55&#45;&gt;Node58 -->
<g id="edge3" class="edge"><title>Node55&#45;&gt;Node58</title>
<path fill="none" stroke="midnightblue" d="M81.6107,-221.895C98.6791,-247.375 133,-293.028 174,-317.5 191.985,-328.234 215.834,-332.93 231.984,-334.967"/>
<polygon fill="midnightblue" stroke="midnightblue" points="84.3336,-219.663 75.9358,-213.203 78.4723,-223.49 84.3336,-219.663"/>
</g>
<!-- Node59 -->
<g id="node5" class="node"><title>Node59</title>
<g id="a_node5"><a xlink:href="group__fit.html#a6e3185c80e86f1dbe6a0c5383878cd81" target="_top" xlink:title="hydra::Parameter::operator*=">
<polygon fill="none" stroke="black" points="179.5,-289 179.5,-308 322.5,-308 322.5,-289 179.5,-289"/>
<text text-anchor="middle" x="251" y="-296" font-family="Helvetica,sans-Serif" font-size="10.00">hydra::Parameter::operator*=</text>
</a>
</g>
</g>
<!-- Node55&#45;&gt;Node59 -->
<g id="edge4" class="edge"><title>Node55&#45;&gt;Node59</title>
<path fill="none" stroke="midnightblue" d="M87.9079,-219.983C107.599,-237.251 140.863,-263.98 174,-279.5 182.129,-283.307 191.118,-286.414 199.983,-288.929"/>
<polygon fill="midnightblue" stroke="midnightblue" points="90.1289,-217.274 80.3396,-213.222 85.4652,-222.494 90.1289,-217.274"/>
</g>
<!-- Node60 -->
<g id="node6" class="node"><title>Node60</title>
<g id="a_node6"><a xlink:href="group__fit.html#a71466c22cb0cc5f9bb54fb9c3b43b373" target="_top" xlink:title="hydra::Parameter::operator+=">
<polygon fill="none" stroke="black" points="178.5,-251 178.5,-270 323.5,-270 323.5,-251 178.5,-251"/>
<text text-anchor="middle" x="251" y="-258" font-family="Helvetica,sans-Serif" font-size="10.00">hydra::Parameter::operator+=</text>
</a>
</g>
</g>
<!-- Node55&#45;&gt;Node60 -->
<g id="edge5" class="edge"><title>Node55&#45;&gt;Node60</title>
<path fill="none" stroke="midnightblue" d="M103.528,-216.771C123.759,-224.521 150.152,-234.184 174,-241.5 185.052,-244.89 197.144,-248.124 208.366,-250.931"/>
<polygon fill="midnightblue" stroke="midnightblue" points="104.719,-213.479 94.13,-213.138 102.196,-220.008 104.719,-213.479"/>
</g>
<!-- Node61 -->
<g id="node7" class="node"><title>Node61</title>
<g id="a_node7"><a xlink:href="group__fit.html#a05d2eefc9ab1e59ac64c8928f3257570" target="_top" xlink:title="hydra::Parameter::operator&#45;=">
<polygon fill="none" stroke="black" points="180,-213 180,-232 322,-232 322,-213 180,-213"/>
<text text-anchor="middle" x="251" y="-220" font-family="Helvetica,sans-Serif" font-size="10.00">hydra::Parameter::operator&#45;=</text>
</a>
</g>
</g>
<!-- Node55&#45;&gt;Node61 -->
<g id="edge6" class="edge"><title>Node55&#45;&gt;Node61</title>
<path fill="none" stroke="midnightblue" d="M148.067,-211.74C158.605,-212.853 169.366,-213.989 179.757,-215.085"/>
<polygon fill="midnightblue" stroke="midnightblue" points="148.362,-208.252 138.05,-210.683 147.628,-215.214 148.362,-208.252"/>
</g>
<!-- Node62 -->
<g id="node8" class="node"><title>Node62</title>
<g id="a_node8"><a xlink:href="group__fit.html#af75da17beabbf8cee9782113bf0cc00a" target="_top" xlink:title="hydra::Parameter::operator/=">
<polygon fill="none" stroke="black" points="180,-175 180,-194 322,-194 322,-175 180,-175"/>
<text text-anchor="middle" x="251" y="-182" font-family="Helvetica,sans-Serif" font-size="10.00">hydra::Parameter::operator/=</text>
</a>
</g>
</g>
<!-- Node55&#45;&gt;Node62 -->
<g id="edge7" class="edge"><title>Node55&#45;&gt;Node62</title>
<path fill="none" stroke="midnightblue" d="M148.067,-195.26C158.605,-194.147 169.366,-193.011 179.757,-191.915"/>
<polygon fill="midnightblue" stroke="midnightblue" points="147.628,-191.786 138.05,-196.317 148.362,-198.748 147.628,-191.786"/>
</g>
<!-- Node63 -->
<g id="node9" class="node"><title>Node63</title>
<g id="a_node9"><a xlink:href="namespacehydra.html#a8a067a6647c6343cc50dee7a51fabb68" target="_top" xlink:title="hydra::operator\&lt;\&lt;">
<polygon fill="none" stroke="black" points="204,-137 204,-156 298,-156 298,-137 204,-137"/>
<text text-anchor="middle" x="251" y="-144" font-family="Helvetica,sans-Serif" font-size="10.00">hydra::operator&lt;&lt;</text>
</a>
</g>
</g>
<!-- Node55&#45;&gt;Node63 -->
<g id="edge8" class="edge"><title>Node55&#45;&gt;Node63</title>
<path fill="none" stroke="midnightblue" d="M103.528,-190.229C123.759,-182.479 150.152,-172.816 174,-165.5 185.052,-162.11 197.144,-158.876 208.366,-156.069"/>
<polygon fill="midnightblue" stroke="midnightblue" points="102.196,-186.992 94.13,-193.862 104.719,-193.521 102.196,-186.992"/>
</g>
<!-- Node64 -->
<g id="node10" class="node"><title>Node64</title>
<g id="a_node10"><a xlink:href="group__fit.html#a9dd2160f37eee9b4bb5441415bf6dd09" target="_top" xlink:title="hydra::Parameter::operator=">
<polygon fill="none" stroke="black" points="181.5,-99 181.5,-118 320.5,-118 320.5,-99 181.5,-99"/>
<text text-anchor="middle" x="251" y="-106" font-family="Helvetica,sans-Serif" font-size="10.00">hydra::Parameter::operator=</text>
</a>
</g>
</g>
<!-- Node55&#45;&gt;Node64 -->
<g id="edge9" class="edge"><title>Node55&#45;&gt;Node64</title>
<path fill="none" stroke="midnightblue" d="M87.9079,-187.017C107.599,-169.749 140.863,-143.02 174,-127.5 182.129,-123.693 191.118,-120.586 199.983,-118.071"/>
<polygon fill="midnightblue" stroke="midnightblue" points="85.4652,-184.506 80.3396,-193.778 90.1289,-189.726 85.4652,-184.506"/>
</g>
<!-- Node65 -->
<g id="node11" class="node"><title>Node65</title>
<g id="a_node11"><a xlink:href="classhydra_1_1PDFSumNonExtendable.html#aaa0536a999c6b43b60c7b5b3cf17b4b1" target="_top" xlink:title="Ctor for used to build AddPdf usable in extended likelihood fits. ">
<polygon fill="none" stroke="black" points="174,-49.5 174,-79.5 328,-79.5 328,-49.5 174,-49.5"/>
<text text-anchor="start" x="182" y="-67.5" font-family="Helvetica,sans-Serif" font-size="10.00">hydra::PDFSumNonExtendable</text>
<text text-anchor="middle" x="251" y="-56.5" font-family="Helvetica,sans-Serif" font-size="10.00">::PDFSumNonExtendable</text>
</a>
</g>
</g>
<!-- Node55&#45;&gt;Node65 -->
<g id="edge10" class="edge"><title>Node55&#45;&gt;Node65</title>
<path fill="none" stroke="midnightblue" d="M82.1254,-185.139C99.5821,-160.074 134.117,-115.319 174,-89.5 179.947,-85.6504 186.54,-82.3424 193.287,-79.5131"/>
<polygon fill="midnightblue" stroke="midnightblue" points="79.0308,-183.466 76.2956,-193.701 84.8169,-187.405 79.0308,-183.466"/>
</g>
<!-- Node66 -->
<g id="node12" class="node"><title>Node66</title>
<g id="a_node12"><a xlink:href="classhydra_1_1PDFSumNonExtendable.html#aea0e146712d1b046b370261a1d38f8ea" target="_top" xlink:title="Set the coefficients and parameters of all pdfs. ">
<polygon fill="none" stroke="black" points="174,-0.5 174,-30.5 328,-30.5 328,-0.5 174,-0.5"/>
<text text-anchor="start" x="182" y="-18.5" font-family="Helvetica,sans-Serif" font-size="10.00">hydra::PDFSumNonExtendable</text>
<text text-anchor="middle" x="251" y="-7.5" font-family="Helvetica,sans-Serif" font-size="10.00">::SetParameters</text>
</a>
</g>
</g>
<!-- Node55&#45;&gt;Node66 -->
<g id="edge11" class="edge"><title>Node55&#45;&gt;Node66</title>
<path fill="none" stroke="midnightblue" d="M77.2388,-184.112C90.9153,-150.081 123.763,-79.5166 174,-40.5 178.937,-36.6661 184.486,-33.4075 190.28,-30.6405"/>
<polygon fill="midnightblue" stroke="midnightblue" points="73.8372,-183.202 73.4742,-193.791 80.3611,-185.74 73.8372,-183.202"/>
</g>
<!-- Node57 -->
<g id="node3" class="node"><title>Node57</title>
<g id="a_node3"><a xlink:href="classhydra_1_1UserParameters.html#a307dc52a955c28088972b3dda148932b" target="_top" xlink:title="hydra::UserParameters\l::SetVariables">
<polygon fill="none" stroke="black" points="364,-365.5 364,-395.5 482,-395.5 482,-365.5 364,-365.5"/>
<text text-anchor="start" x="372" y="-383.5" font-family="Helvetica,sans-Serif" font-size="10.00">hydra::UserParameters</text>
<text text-anchor="middle" x="423" y="-372.5" font-family="Helvetica,sans-Serif" font-size="10.00">::SetVariables</text>
</a>
</g>
</g>
<!-- Node56&#45;&gt;Node57 -->
<g id="edge2" class="edge"><title>Node56&#45;&gt;Node57</title>
<path fill="none" stroke="midnightblue" d="M320.398,-380.5C334.833,-380.5 349.933,-380.5 363.944,-380.5"/>
<polygon fill="midnightblue" stroke="midnightblue" points="320.029,-377 310.029,-380.5 320.029,-384 320.029,-377"/>
</g>
</g>
</svg>
