<?xml version="1.0" encoding="UTF-8" standalone="no"?>
<!DOCTYPE svg PUBLIC "-//W3C//DTD SVG 1.1//EN"
 "http://www.w3.org/Graphics/SVG/1.1/DTD/svg11.dtd">
<!-- Generated by graphviz version 2.38.0 (20140413.2041)
 -->
<!-- Title: hydra::Vector4R::applyBoostTo Pages: 1 -->
<svg width="305pt" height="66pt"
 viewBox="0.00 0.00 305.00 66.00" xmlns="http://www.w3.org/2000/svg" xmlns:xlink="http://www.w3.org/1999/xlink">
<g id="graph0" class="graph" transform="scale(1 1) rotate(0) translate(4 62)">
<title>hydra::Vector4R::applyBoostTo</title>
<!-- Node107 -->
<g id="node1" class="node"><title>Node107</title>
<polygon fill="#bfbfbf" stroke="black" points="0,-19.5 0,-38.5 154,-38.5 154,-19.5 0,-19.5"/>
<text text-anchor="middle" x="77" y="-26.5" font-family="Helvetica,sans-Serif" font-size="10.00">hydra::Vector4R::applyBoostTo</text>
</g>
<!-- Node108 -->
<g id="node2" class="node"><title>Node108</title>
<g id="a_node2"><a xlink:href="group__phsp.html#afea86404a19a69d0defd22c7e39c5a82" target="_top" xlink:title="hydra::Vector3R::get">
<polygon fill="none" stroke="black" points="190,-38.5 190,-57.5 297,-57.5 297,-38.5 190,-38.5"/>
<text text-anchor="middle" x="243.5" y="-45.5" font-family="Helvetica,sans-Serif" font-size="10.00">hydra::Vector3R::get</text>
</a>
</g>
</g>
<!-- Node107&#45;&gt;Node108 -->
<g id="edge1" class="edge"><title>Node107&#45;&gt;Node108</title>
<path fill="none" stroke="midnightblue" d="M154.471,-37.8325C162.848,-38.8001 171.306,-39.7769 179.494,-40.7227"/>
<polygon fill="midnightblue" stroke="midnightblue" points="179.359,-44.2303 189.694,-41.9009 180.162,-37.2765 179.359,-44.2303"/>
</g>
<!-- Node109 -->
<g id="node3" class="node"><title>Node109</title>
<g id="a_node3"><a xlink:href="namespacehydra.html#ac9c54fb833c00a61ad29f0203620ec27" target="_top" xlink:title="hydra::sqrt">
<polygon fill="none" stroke="black" points="212,-0.5 212,-19.5 275,-19.5 275,-0.5 212,-0.5"/>
<text text-anchor="middle" x="243.5" y="-7.5" font-family="Helvetica,sans-Serif" font-size="10.00">hydra::sqrt</text>
</a>
</g>
</g>
<!-- Node107&#45;&gt;Node109 -->
<g id="edge2" class="edge"><title>Node107&#45;&gt;Node109</title>
<path fill="none" stroke="midnightblue" d="M154.471,-20.1675C170.81,-18.2803 187.454,-16.3579 201.808,-14.7"/>
<polygon fill="midnightblue" stroke="midnightblue" points="202.286,-18.1682 211.818,-13.5438 201.482,-11.2144 202.286,-18.1682"/>
</g>
</g>
</svg>
