<?xml version="1.0" encoding="UTF-8" standalone="no"?>
<!DOCTYPE svg PUBLIC "-//W3C//DTD SVG 1.1//EN"
 "http://www.w3.org/Graphics/SVG/1.1/DTD/svg11.dtd">
<!-- Generated by graphviz version 2.38.0 (20140413.2041)
 -->
<!-- Title: hydra::Vector4R::magr3 Pages: 1 -->
<svg width="450pt" height="66pt"
 viewBox="0.00 0.00 450.00 66.00" xmlns="http://www.w3.org/2000/svg" xmlns:xlink="http://www.w3.org/1999/xlink">
<g id="graph0" class="graph" transform="scale(1 1) rotate(0) translate(4 62)">
<title>hydra::Vector4R::magr3</title>
<!-- Node147 -->
<g id="node1" class="node"><title>Node147</title>
<polygon fill="#bfbfbf" stroke="black" points="0,-19.5 0,-38.5 121,-38.5 121,-19.5 0,-19.5"/>
<text text-anchor="middle" x="60.5" y="-26.5" font-family="Helvetica,sans-Serif" font-size="10.00">hydra::Vector4R::magr3</text>
</g>
<!-- Node148 -->
<g id="node2" class="node"><title>Node148</title>
<g id="a_node2"><a xlink:href="group__phsp.html#a0a71cfbc5a18a9a7d6f69b9b387f7739" target="_top" xlink:title="hydra::Vector4R::mag2r3">
<polygon fill="none" stroke="black" points="157,-38.5 157,-57.5 283,-57.5 283,-38.5 157,-38.5"/>
<text text-anchor="middle" x="220" y="-45.5" font-family="Helvetica,sans-Serif" font-size="10.00">hydra::Vector4R::mag2r3</text>
</a>
</g>
</g>
<!-- Node147&#45;&gt;Node148 -->
<g id="edge1" class="edge"><title>Node147&#45;&gt;Node148</title>
<path fill="none" stroke="midnightblue" d="M121.044,-36.1831C129.434,-37.1952 138.134,-38.2447 146.73,-39.2817"/>
<polygon fill="midnightblue" stroke="midnightblue" points="146.401,-42.7673 156.748,-40.4903 147.239,-35.8177 146.401,-42.7673"/>
</g>
<!-- Node150 -->
<g id="node4" class="node"><title>Node150</title>
<g id="a_node4"><a xlink:href="namespacehydra.html#ac9c54fb833c00a61ad29f0203620ec27" target="_top" xlink:title="hydra::sqrt">
<polygon fill="none" stroke="black" points="188.5,-0.5 188.5,-19.5 251.5,-19.5 251.5,-0.5 188.5,-0.5"/>
<text text-anchor="middle" x="220" y="-7.5" font-family="Helvetica,sans-Serif" font-size="10.00">hydra::sqrt</text>
</a>
</g>
</g>
<!-- Node147&#45;&gt;Node150 -->
<g id="edge3" class="edge"><title>Node147&#45;&gt;Node150</title>
<path fill="none" stroke="midnightblue" d="M121.044,-21.8169C139.945,-19.5368 160.417,-17.0672 177.735,-14.978"/>
<polygon fill="midnightblue" stroke="midnightblue" points="178.559,-18.404 188.068,-13.7315 177.721,-11.4544 178.559,-18.404"/>
</g>
<!-- Node149 -->
<g id="node3" class="node"><title>Node149</title>
<g id="a_node3"><a xlink:href="group__phsp.html#a0a21c5ac94adbf7f76deaf3e1e0e86d9" target="_top" xlink:title="hydra::Vector4R::mass2">
<polygon fill="none" stroke="black" points="319,-38.5 319,-57.5 442,-57.5 442,-38.5 319,-38.5"/>
<text text-anchor="middle" x="380.5" y="-45.5" font-family="Helvetica,sans-Serif" font-size="10.00">hydra::Vector4R::mass2</text>
</a>
</g>
</g>
<!-- Node148&#45;&gt;Node149 -->
<g id="edge2" class="edge"><title>Node148&#45;&gt;Node149</title>
<path fill="none" stroke="midnightblue" d="M283.188,-48C291.512,-48 300.1,-48 308.56,-48"/>
<polygon fill="midnightblue" stroke="midnightblue" points="308.789,-51.5001 318.789,-48 308.789,-44.5001 308.789,-51.5001"/>
</g>
</g>
</svg>
