<?xml version="1.0" encoding="UTF-8" standalone="no"?>
<!DOCTYPE svg PUBLIC "-//W3C//DTD SVG 1.1//EN"
 "http://www.w3.org/Graphics/SVG/1.1/DTD/svg11.dtd">
<!-- Generated by graphviz version 2.38.0 (20140413.2041)
 -->
<!-- Title: hydra::PhaseSpace::operator= Pages: 1 -->
<svg width="260pt" height="88pt"
 viewBox="0.00 0.00 260.00 88.00" xmlns="http://www.w3.org/2000/svg" xmlns:xlink="http://www.w3.org/1999/xlink">
<g id="graph0" class="graph" transform="scale(1 1) rotate(0) translate(4 84)">
<title>hydra::PhaseSpace::operator=</title>
<!-- Node38 -->
<g id="node1" class="node"><title>Node38</title>
<polygon fill="#bfbfbf" stroke="black" points="0,-24.5 0,-54.5 108,-54.5 108,-24.5 0,-24.5"/>
<text text-anchor="start" x="8" y="-42.5" font-family="Helvetica,sans-Serif" font-size="10.00">hydra::PhaseSpace::</text>
<text text-anchor="middle" x="54" y="-31.5" font-family="Helvetica,sans-Serif" font-size="10.00">operator=</text>
</g>
<!-- Node39 -->
<g id="node2" class="node"><title>Node39</title>
<g id="a_node2"><a xlink:href="group__phsp.html#a4644f29ffd87149704b12fd463de6061" target="_top" xlink:title="hydra::PhaseSpace::\lGetMasses">
<polygon fill="none" stroke="black" points="144,-49.5 144,-79.5 252,-79.5 252,-49.5 144,-49.5"/>
<text text-anchor="start" x="152" y="-67.5" font-family="Helvetica,sans-Serif" font-size="10.00">hydra::PhaseSpace::</text>
<text text-anchor="middle" x="198" y="-56.5" font-family="Helvetica,sans-Serif" font-size="10.00">GetMasses</text>
</a>
</g>
</g>
<!-- Node38&#45;&gt;Node39 -->
<g id="edge1" class="edge"><title>Node38&#45;&gt;Node39</title>
<path fill="none" stroke="midnightblue" d="M108.28,-48.8802C116.651,-50.354 125.374,-51.8897 133.94,-53.3979"/>
<polygon fill="midnightblue" stroke="midnightblue" points="133.439,-56.8634 143.894,-55.1504 134.652,-49.9694 133.439,-56.8634"/>
</g>
<!-- Node40 -->
<g id="node3" class="node"><title>Node40</title>
<g id="a_node3"><a xlink:href="group__phsp.html#aa5c2203c4f29f7a5c0c5594a36f0c923" target="_top" xlink:title="Get seed of the underlying generator;. ">
<polygon fill="none" stroke="black" points="144,-0.5 144,-30.5 252,-30.5 252,-0.5 144,-0.5"/>
<text text-anchor="start" x="152" y="-18.5" font-family="Helvetica,sans-Serif" font-size="10.00">hydra::PhaseSpace::</text>
<text text-anchor="middle" x="198" y="-7.5" font-family="Helvetica,sans-Serif" font-size="10.00">GetSeed</text>
</a>
</g>
</g>
<!-- Node38&#45;&gt;Node40 -->
<g id="edge2" class="edge"><title>Node38&#45;&gt;Node40</title>
<path fill="none" stroke="midnightblue" d="M108.28,-30.495C116.651,-29.0801 125.374,-27.6059 133.94,-26.158"/>
<polygon fill="midnightblue" stroke="midnightblue" points="134.617,-29.5933 143.894,-24.4756 133.451,-22.6912 134.617,-29.5933"/>
</g>
</g>
</svg>
