<?xml version="1.0" encoding="UTF-8" standalone="no"?>
<!DOCTYPE svg PUBLIC "-//W3C//DTD SVG 1.1//EN"
 "http://www.w3.org/Graphics/SVG/1.1/DTD/svg11.dtd">
<!-- Generated by graphviz version 5.0.0 (0)
 -->
<!-- Title: Hash.h Pages: 1 -->
<svg width="621pt" height="240pt"
 viewBox="0.00 0.00 620.50 240.00" xmlns="http://www.w3.org/2000/svg" xmlns:xlink="http://www.w3.org/1999/xlink">
<g id="graph0" class="graph" transform="scale(1 1) rotate(0) translate(4 236)">
<title>Hash.h</title>
<!-- Node0 -->
<g id="node1" class="node">
<title>Node0</title>
<polygon fill="#bfbfbf" stroke="black" points="501,-212.5 501,-231.5 549,-231.5 549,-212.5 501,-212.5"/>
<text text-anchor="middle" x="525" y="-219.5" font-family="Helvetica,sans-Serif" font-size="10.00">Hash.h</text>
</g>
<!-- Node1 -->
<g id="node2" class="node">
<title>Node1</title>
<g id="a_node2"><a xlink:href="Tuple_8h.html" target="_top" xlink:title="hydra/Tuple.h">
<polygon fill="none" stroke="black" points="382,-156.5 382,-175.5 458,-175.5 458,-156.5 382,-156.5"/>
<text text-anchor="middle" x="420" y="-163.5" font-family="Helvetica,sans-Serif" font-size="10.00">hydra/Tuple.h</text>
</a>
</g>
</g>
<!-- Node0&#45;&gt;Node1 -->
<g id="edge1" class="edge">
<title>Node0&#45;&gt;Node1</title>
<path fill="none" stroke="midnightblue" d="M508.13,-212.32C491.29,-203.66 465.19,-190.24 445.76,-180.25"/>
<polygon fill="midnightblue" stroke="midnightblue" points="447.32,-177.12 436.83,-175.65 444.12,-183.34 447.32,-177.12"/>
</g>
<!-- Node10 -->
<g id="node11" class="node">
<title>Node10</title>
<polygon fill="none" stroke="#bfbfbf" points="544,-89.5 544,-108.5 584,-108.5 584,-89.5 544,-89.5"/>
<text text-anchor="middle" x="564" y="-96.5" font-family="Helvetica,sans-Serif" font-size="10.00">utility</text>
</g>
<!-- Node0&#45;&gt;Node10 -->
<g id="edge11" class="edge">
<title>Node0&#45;&gt;Node10</title>
<path fill="none" stroke="midnightblue" d="M527.42,-212.12C530.88,-199.56 537.54,-175.91 544,-156 548.11,-143.33 553.16,-129.21 557.15,-118.32"/>
<polygon fill="midnightblue" stroke="midnightblue" points="560.53,-119.27 560.72,-108.68 553.97,-116.84 560.53,-119.27"/>
</g>
<!-- Node11 -->
<g id="node12" class="node">
<title>Node11</title>
<polygon fill="none" stroke="#bfbfbf" points="553.5,-156.5 553.5,-175.5 612.5,-175.5 612.5,-156.5 553.5,-156.5"/>
<text text-anchor="middle" x="583" y="-163.5" font-family="Helvetica,sans-Serif" font-size="10.00">functional</text>
</g>
<!-- Node0&#45;&gt;Node11 -->
<g id="edge12" class="edge">
<title>Node0&#45;&gt;Node11</title>
<path fill="none" stroke="midnightblue" d="M534.32,-212.32C542.89,-204.34 555.81,-192.31 566.19,-182.65"/>
<polygon fill="midnightblue" stroke="midnightblue" points="568.58,-185.21 573.51,-175.83 563.81,-180.09 568.58,-185.21"/>
</g>
<!-- Node2 -->
<g id="node3" class="node">
<title>Node2</title>
<g id="a_node3"><a xlink:href="Config_8h.html" target="_top" xlink:title="hydra/detail/Config.h">
<polygon fill="none" stroke="black" points="60.5,-89.5 60.5,-108.5 167.5,-108.5 167.5,-89.5 60.5,-89.5"/>
<text text-anchor="middle" x="114" y="-96.5" font-family="Helvetica,sans-Serif" font-size="10.00">hydra/detail/Config.h</text>
</a>
</g>
</g>
<!-- Node1&#45;&gt;Node2 -->
<g id="edge2" class="edge">
<title>Node1&#45;&gt;Node2</title>
<path fill="none" stroke="midnightblue" d="M381.8,-159.43C333.67,-152.07 248.59,-137.92 177,-120 167.52,-117.63 157.37,-114.62 148.05,-111.66"/>
<polygon fill="midnightblue" stroke="midnightblue" points="148.92,-108.26 138.33,-108.5 146.76,-114.92 148.92,-108.26"/>
</g>
<!-- Node5 -->
<g id="node6" class="node">
<title>Node5</title>
<polygon fill="none" stroke="#bfbfbf" points="186,-84 186,-114 292,-114 292,-84 186,-84"/>
<text text-anchor="start" x="194" y="-102" font-family="Helvetica,sans-Serif" font-size="10.00">hydra/detail/external</text>
<text text-anchor="middle" x="239" y="-91" font-family="Helvetica,sans-Serif" font-size="10.00">/hydra_thrust/tuple.h</text>
</g>
<!-- Node1&#45;&gt;Node5 -->
<g id="edge5" class="edge">
<title>Node1&#45;&gt;Node5</title>
<path fill="none" stroke="midnightblue" d="M395.96,-156.37C368.45,-146.49 322.68,-130.05 287.64,-117.47"/>
<polygon fill="midnightblue" stroke="midnightblue" points="288.66,-114.11 278.06,-114.03 286.29,-120.7 288.66,-114.11"/>
</g>
<!-- Node6 -->
<g id="node7" class="node">
<title>Node6</title>
<polygon fill="none" stroke="#bfbfbf" points="310,-78.5 310,-119.5 414,-119.5 414,-78.5 310,-78.5"/>
<text text-anchor="start" x="318" y="-107.5" font-family="Helvetica,sans-Serif" font-size="10.00">hydra/detail/external</text>
<text text-anchor="start" x="318" y="-96.5" font-family="Helvetica,sans-Serif" font-size="10.00">/hydra_thrust/detail</text>
<text text-anchor="middle" x="362" y="-85.5" font-family="Helvetica,sans-Serif" font-size="10.00">/tuple/tuple.h</text>
</g>
<!-- Node1&#45;&gt;Node6 -->
<g id="edge6" class="edge">
<title>Node1&#45;&gt;Node6</title>
<path fill="none" stroke="midnightblue" d="M412.18,-156.23C405.53,-148.78 395.6,-137.66 386.33,-127.27"/>
<polygon fill="midnightblue" stroke="midnightblue" points="388.71,-124.67 379.44,-119.54 383.48,-129.33 388.71,-124.67"/>
</g>
<!-- Node7 -->
<g id="node8" class="node">
<title>Node7</title>
<g id="a_node8"><a xlink:href="Generic_8h.html" target="_top" xlink:title="hydra/detail/utility\l/Generic.h">
<polygon fill="none" stroke="black" points="432.5,-84 432.5,-114 525.5,-114 525.5,-84 432.5,-84"/>
<text text-anchor="start" x="440.5" y="-102" font-family="Helvetica,sans-Serif" font-size="10.00">hydra/detail/utility</text>
<text text-anchor="middle" x="479" y="-91" font-family="Helvetica,sans-Serif" font-size="10.00">/Generic.h</text>
</a>
</g>
</g>
<!-- Node1&#45;&gt;Node7 -->
<g id="edge7" class="edge">
<title>Node1&#45;&gt;Node7</title>
<path fill="none" stroke="midnightblue" d="M427.96,-156.23C435.93,-147.45 448.52,-133.58 459.2,-121.81"/>
<polygon fill="midnightblue" stroke="midnightblue" points="462.08,-123.85 466.21,-114.09 456.9,-119.14 462.08,-123.85"/>
</g>
<!-- Node1&#45;&gt;Node10 -->
<g id="edge10" class="edge">
<title>Node1&#45;&gt;Node10</title>
<path fill="none" stroke="midnightblue" d="M446.04,-156.5C469.61,-148.39 504.97,-135.19 534,-120 537.26,-118.29 540.61,-116.32 543.82,-114.28"/>
<polygon fill="midnightblue" stroke="midnightblue" points="546,-117.04 552.39,-108.58 542.12,-111.21 546,-117.04"/>
</g>
<!-- Node3 -->
<g id="node4" class="node">
<title>Node3</title>
<polygon fill="none" stroke="#bfbfbf" points="0,-0.5 0,-41.5 104,-41.5 104,-0.5 0,-0.5"/>
<text text-anchor="start" x="8" y="-29.5" font-family="Helvetica,sans-Serif" font-size="10.00">hydra/detail/external</text>
<text text-anchor="start" x="8" y="-18.5" font-family="Helvetica,sans-Serif" font-size="10.00">/hydra_thrust/detail</text>
<text text-anchor="middle" x="52" y="-7.5" font-family="Helvetica,sans-Serif" font-size="10.00">/config.h</text>
</g>
<!-- Node2&#45;&gt;Node3 -->
<g id="edge3" class="edge">
<title>Node2&#45;&gt;Node3</title>
<path fill="none" stroke="midnightblue" d="M106.89,-89.28C99.02,-79.63 85.93,-63.6 74.52,-49.6"/>
<polygon fill="midnightblue" stroke="midnightblue" points="77.07,-47.19 68.04,-41.66 71.65,-51.62 77.07,-47.19"/>
</g>
<!-- Node4 -->
<g id="node5" class="node">
<title>Node4</title>
<polygon fill="none" stroke="#bfbfbf" points="122,-0.5 122,-41.5 232,-41.5 232,-0.5 122,-0.5"/>
<text text-anchor="start" x="130" y="-29.5" font-family="Helvetica,sans-Serif" font-size="10.00">hydra/detail/external</text>
<text text-anchor="start" x="130" y="-18.5" font-family="Helvetica,sans-Serif" font-size="10.00">/hydra_thrust/detail</text>
<text text-anchor="middle" x="177" y="-7.5" font-family="Helvetica,sans-Serif" font-size="10.00">/config/host_device.h</text>
</g>
<!-- Node2&#45;&gt;Node4 -->
<g id="edge4" class="edge">
<title>Node2&#45;&gt;Node4</title>
<path fill="none" stroke="midnightblue" d="M121.23,-89.28C129.22,-79.63 142.52,-63.6 154.12,-49.6"/>
<polygon fill="midnightblue" stroke="midnightblue" points="157.02,-51.59 160.7,-41.66 151.63,-47.12 157.02,-51.59"/>
</g>
<!-- Node8 -->
<g id="node9" class="node">
<title>Node8</title>
<polygon fill="none" stroke="#bfbfbf" points="414,-11.5 414,-30.5 476,-30.5 476,-11.5 414,-11.5"/>
<text text-anchor="middle" x="445" y="-18.5" font-family="Helvetica,sans-Serif" font-size="10.00">type_traits</text>
</g>
<!-- Node7&#45;&gt;Node8 -->
<g id="edge8" class="edge">
<title>Node7&#45;&gt;Node8</title>
<path fill="none" stroke="midnightblue" d="M472.6,-83.7C467.03,-71.23 458.91,-53.09 452.92,-39.7"/>
<polygon fill="midnightblue" stroke="midnightblue" points="456.11,-38.26 448.83,-30.56 449.72,-41.12 456.11,-38.26"/>
</g>
<!-- Node9 -->
<g id="node10" class="node">
<title>Node9</title>
<polygon fill="none" stroke="#bfbfbf" points="494,-11.5 494,-30.5 532,-30.5 532,-11.5 494,-11.5"/>
<text text-anchor="middle" x="513" y="-18.5" font-family="Helvetica,sans-Serif" font-size="10.00">array</text>
</g>
<!-- Node7&#45;&gt;Node9 -->
<g id="edge9" class="edge">
<title>Node7&#45;&gt;Node9</title>
<path fill="none" stroke="midnightblue" d="M485.4,-83.7C490.97,-71.23 499.09,-53.09 505.08,-39.7"/>
<polygon fill="midnightblue" stroke="midnightblue" points="508.28,-41.12 509.17,-30.56 501.89,-38.26 508.28,-41.12"/>
</g>
</g>
</svg>
