<?xml version="1.0" encoding="UTF-8" standalone="no"?>
<!DOCTYPE svg PUBLIC "-//W3C//DTD SVG 1.1//EN"
 "http://www.w3.org/Graphics/SVG/1.1/DTD/svg11.dtd">
<!-- Generated by graphviz version 2.42.4 (0)
 -->
<!-- Title: System.h Pages: 1 -->
<svg width="712pt" height="262pt"
 viewBox="0.00 0.00 711.50 262.00" xmlns="http://www.w3.org/2000/svg" xmlns:xlink="http://www.w3.org/1999/xlink">
<g id="graph0" class="graph" transform="scale(1 1) rotate(0) translate(4 258)">
<title>System.h</title>
<!-- Node0 -->
<g id="node1" class="node">
<title>Node0</title>
<polygon fill="#bfbfbf" stroke="black" points="361.5,-234.5 361.5,-253.5 420.5,-253.5 420.5,-234.5 361.5,-234.5"/>
<text text-anchor="middle" x="391" y="-241.5" font-family="Helvetica,sans-Serif" font-size="10.00">System.h</text>
</g>
<!-- Node1 -->
<g id="node2" class="node">
<title>Node1</title>
<g id="a_node2"><a xlink:href="HOST_8h.html" target="_top" xlink:title="hydra/detail/policies\l/backends/HOST.h">
<polygon fill="none" stroke="black" points="339.5,-167.5 339.5,-197.5 442.5,-197.5 442.5,-167.5 339.5,-167.5"/>
<text text-anchor="start" x="347.5" y="-185.5" font-family="Helvetica,sans-Serif" font-size="10.00">hydra/detail/policies</text>
<text text-anchor="middle" x="391" y="-174.5" font-family="Helvetica,sans-Serif" font-size="10.00">/backends/HOST.h</text>
</a>
</g>
</g>
<!-- Node0&#45;&gt;Node1 -->
<g id="edge1" class="edge">
<title>Node0&#45;&gt;Node1</title>
<path fill="none" stroke="midnightblue" d="M391,-234.48C391,-227.47 391,-217.19 391,-207.7"/>
<polygon fill="midnightblue" stroke="midnightblue" points="394.5,-207.52 391,-197.52 387.5,-207.52 394.5,-207.52"/>
</g>
<!-- Node2 -->
<g id="node3" class="node">
<title>Node2</title>
<g id="a_node3"><a xlink:href="Config_8h.html" target="_top" xlink:title="hydra/detail/Config.h">
<polygon fill="none" stroke="black" points="95.5,-95 95.5,-114 202.5,-114 202.5,-95 95.5,-95"/>
<text text-anchor="middle" x="149" y="-102" font-family="Helvetica,sans-Serif" font-size="10.00">hydra/detail/Config.h</text>
</a>
</g>
</g>
<!-- Node1&#45;&gt;Node2 -->
<g id="edge2" class="edge">
<title>Node1&#45;&gt;Node2</title>
<path fill="none" stroke="midnightblue" d="M339.23,-168.5C303.23,-159.08 254.31,-145.48 212,-131 200.72,-127.14 188.53,-122.35 177.9,-117.97"/>
<polygon fill="midnightblue" stroke="midnightblue" points="179.23,-114.73 168.65,-114.1 176.53,-121.19 179.23,-114.73"/>
</g>
<!-- Node5 -->
<g id="node6" class="node">
<title>Node5</title>
<g id="a_node6"><a xlink:href="BackendPolicy_8h.html" target="_top" xlink:title="hydra/detail/BackendPolicy.h">
<polygon fill="none" stroke="black" points="221,-95 221,-114 363,-114 363,-95 221,-95"/>
<text text-anchor="middle" x="292" y="-102" font-family="Helvetica,sans-Serif" font-size="10.00">hydra/detail/BackendPolicy.h</text>
</a>
</g>
</g>
<!-- Node1&#45;&gt;Node5 -->
<g id="edge5" class="edge">
<title>Node1&#45;&gt;Node5</title>
<path fill="none" stroke="midnightblue" d="M372.38,-167.2C355.02,-153.88 329.22,-134.07 311.56,-120.51"/>
<polygon fill="midnightblue" stroke="midnightblue" points="313.22,-117.38 303.16,-114.06 308.96,-122.93 313.22,-117.38"/>
</g>
<!-- Node6 -->
<g id="node7" class="node">
<title>Node6</title>
<polygon fill="none" stroke="#bfbfbf" points="304.5,-0.5 304.5,-41.5 423.5,-41.5 423.5,-0.5 304.5,-0.5"/>
<text text-anchor="start" x="312.5" y="-29.5" font-family="Helvetica,sans-Serif" font-size="10.00">hydra/detail/external</text>
<text text-anchor="start" x="312.5" y="-18.5" font-family="Helvetica,sans-Serif" font-size="10.00">/hydra_thrust/execution</text>
<text text-anchor="middle" x="364" y="-7.5" font-family="Helvetica,sans-Serif" font-size="10.00">_policy.h</text>
</g>
<!-- Node1&#45;&gt;Node6 -->
<g id="edge7" class="edge">
<title>Node1&#45;&gt;Node6</title>
<path fill="none" stroke="midnightblue" d="M388.6,-167.35C384.22,-141.44 374.81,-85.89 368.99,-51.46"/>
<polygon fill="midnightblue" stroke="midnightblue" points="372.42,-50.78 367.3,-41.51 365.52,-51.95 372.42,-50.78"/>
</g>
<!-- Node7 -->
<g id="node8" class="node">
<title>Node7</title>
<polygon fill="none" stroke="#bfbfbf" points="419.5,-89.5 419.5,-119.5 554.5,-119.5 554.5,-89.5 419.5,-89.5"/>
<text text-anchor="start" x="427.5" y="-107.5" font-family="Helvetica,sans-Serif" font-size="10.00">hydra/detail/external</text>
<text text-anchor="middle" x="487" y="-96.5" font-family="Helvetica,sans-Serif" font-size="10.00">/hydra_thrust/host_vector.h</text>
</g>
<!-- Node1&#45;&gt;Node7 -->
<g id="edge8" class="edge">
<title>Node1&#45;&gt;Node7</title>
<path fill="none" stroke="midnightblue" d="M409.06,-167.2C423.67,-155.63 444.45,-139.18 460.88,-126.17"/>
<polygon fill="midnightblue" stroke="midnightblue" points="463.36,-128.68 469.02,-119.73 459.01,-123.19 463.36,-128.68"/>
</g>
<!-- Node8 -->
<g id="node9" class="node">
<title>Node8</title>
<polygon fill="none" stroke="#bfbfbf" points="572.5,-78.5 572.5,-130.5 703.5,-130.5 703.5,-78.5 572.5,-78.5"/>
<text text-anchor="start" x="580.5" y="-118.5" font-family="Helvetica,sans-Serif" font-size="10.00">hydra/detail/external</text>
<text text-anchor="start" x="580.5" y="-107.5" font-family="Helvetica,sans-Serif" font-size="10.00">/hydra_thrust/system</text>
<text text-anchor="start" x="580.5" y="-96.5" font-family="Helvetica,sans-Serif" font-size="10.00">/cuda/experimental/pinned</text>
<text text-anchor="middle" x="638" y="-85.5" font-family="Helvetica,sans-Serif" font-size="10.00">_allocator.h</text>
</g>
<!-- Node1&#45;&gt;Node8 -->
<g id="edge9" class="edge">
<title>Node1&#45;&gt;Node8</title>
<path fill="none" stroke="midnightblue" d="M441.53,-167.44C473.84,-158.29 516.83,-145.83 562.5,-131.43"/>
<polygon fill="midnightblue" stroke="midnightblue" points="563.81,-134.69 572.29,-128.33 561.7,-128.01 563.81,-134.69"/>
</g>
<!-- Node3 -->
<g id="node4" class="node">
<title>Node3</title>
<polygon fill="none" stroke="#bfbfbf" points="0,-0.5 0,-41.5 104,-41.5 104,-0.5 0,-0.5"/>
<text text-anchor="start" x="8" y="-29.5" font-family="Helvetica,sans-Serif" font-size="10.00">hydra/detail/external</text>
<text text-anchor="start" x="8" y="-18.5" font-family="Helvetica,sans-Serif" font-size="10.00">/hydra_thrust/detail</text>
<text text-anchor="middle" x="52" y="-7.5" font-family="Helvetica,sans-Serif" font-size="10.00">/config.h</text>
</g>
<!-- Node2&#45;&gt;Node3 -->
<g id="edge3" class="edge">
<title>Node2&#45;&gt;Node3</title>
<path fill="none" stroke="midnightblue" d="M138.62,-94.78C125.53,-83.78 102.45,-64.38 83.4,-48.38"/>
<polygon fill="midnightblue" stroke="midnightblue" points="85.43,-45.51 75.52,-41.76 80.92,-50.87 85.43,-45.51"/>
</g>
<!-- Node4 -->
<g id="node5" class="node">
<title>Node4</title>
<polygon fill="none" stroke="#bfbfbf" points="122,-0.5 122,-41.5 232,-41.5 232,-0.5 122,-0.5"/>
<text text-anchor="start" x="130" y="-29.5" font-family="Helvetica,sans-Serif" font-size="10.00">hydra/detail/external</text>
<text text-anchor="start" x="130" y="-18.5" font-family="Helvetica,sans-Serif" font-size="10.00">/hydra_thrust/detail</text>
<text text-anchor="middle" x="177" y="-7.5" font-family="Helvetica,sans-Serif" font-size="10.00">/config/host_device.h</text>
</g>
<!-- Node2&#45;&gt;Node4 -->
<g id="edge4" class="edge">
<title>Node2&#45;&gt;Node4</title>
<path fill="none" stroke="midnightblue" d="M152,-94.78C155.54,-84.47 161.62,-66.78 166.89,-51.42"/>
<polygon fill="midnightblue" stroke="midnightblue" points="170.27,-52.36 170.21,-41.76 163.65,-50.08 170.27,-52.36"/>
</g>
<!-- Node5&#45;&gt;Node6 -->
<g id="edge6" class="edge">
<title>Node5&#45;&gt;Node6</title>
<path fill="none" stroke="midnightblue" d="M299.71,-94.78C309.16,-84.08 325.64,-65.42 339.55,-49.67"/>
<polygon fill="midnightblue" stroke="midnightblue" points="342.54,-51.57 346.54,-41.76 337.3,-46.94 342.54,-51.57"/>
</g>
</g>
</svg>
