<?xml version="1.0" encoding="UTF-8" standalone="no"?>
<!DOCTYPE svg PUBLIC "-//W3C//DTD SVG 1.1//EN"
 "http://www.w3.org/Graphics/SVG/1.1/DTD/svg11.dtd">
<!-- Generated by graphviz version 2.42.4 (0)
 -->
<!-- Title: Graphical Class Hierarchy Pages: 1 -->
<svg width="279pt" height="1240pt"
 viewBox="0.00 0.00 279.00 1239.50" xmlns="http://www.w3.org/2000/svg" xmlns:xlink="http://www.w3.org/1999/xlink">
<g id="graph0" class="graph" transform="scale(1 1) rotate(0) translate(4 1235.5)">
<title>Graphical Class Hierarchy</title>
<!-- Node49 -->
<g id="node1" class="node">
<title>Node49</title>
<polygon fill="none" stroke="#bfbfbf" points="0,-595 0,-614 62,-614 62,-595 0,-595"/>
<text text-anchor="middle" x="31" y="-602" font-family="Helvetica,sans-Serif" font-size="10.00">false_type</text>
</g>
<!-- Node0 -->
<g id="node2" class="node">
<title>Node0</title>
<g id="a_node2"><a xlink:href="structhydra_1_1detail_1_1fa__impl_1_1__is__function__argument.html" target="_top" xlink:title="hydra::detail::fa_impl\l::_is_function_argument\l\&lt; T, U \&gt;">
<polygon fill="none" stroke="black" points="124,-1190 124,-1231 245,-1231 245,-1190 124,-1190"/>
<text text-anchor="start" x="132" y="-1219" font-family="Helvetica,sans-Serif" font-size="10.00">hydra::detail::fa_impl</text>
<text text-anchor="start" x="132" y="-1208" font-family="Helvetica,sans-Serif" font-size="10.00">::_is_function_argument</text>
<text text-anchor="middle" x="184.5" y="-1197" font-family="Helvetica,sans-Serif" font-size="10.00">&lt; T, U &gt;</text>
</a>
</g>
</g>
<!-- Node49&#45;&gt;Node0 -->
<g id="edge1" class="edge">
<title>Node49&#45;&gt;Node0</title>
<path fill="none" stroke="midnightblue" d="M31.55,-624.32C29.9,-715.29 27.46,-1092.14 98,-1180.5 104.67,-1188.86 113.83,-1194.9 123.69,-1199.25"/>
<polygon fill="midnightblue" stroke="midnightblue" points="35.06,-624.12 31.76,-614.05 28.06,-623.98 35.06,-624.12"/>
</g>
<!-- Node51 -->
<g id="node3" class="node">
<title>Node51</title>
<g id="a_node3"><a xlink:href="structhydra_1_1detail_1_1has__rng__formula.html" target="_top" xlink:title="hydra::detail::has\l_rng_formula\&lt; Functor, T \&gt;">
<polygon fill="none" stroke="black" points="117,-1140.5 117,-1170.5 252,-1170.5 252,-1140.5 117,-1140.5"/>
<text text-anchor="start" x="125" y="-1158.5" font-family="Helvetica,sans-Serif" font-size="10.00">hydra::detail::has</text>
<text text-anchor="middle" x="184.5" y="-1147.5" font-family="Helvetica,sans-Serif" font-size="10.00">_rng_formula&lt; Functor, T &gt;</text>
</a>
</g>
</g>
<!-- Node49&#45;&gt;Node51 -->
<g id="edge2" class="edge">
<title>Node49&#45;&gt;Node51</title>
<path fill="none" stroke="midnightblue" d="M31.67,-624.35C30.62,-710.79 30.84,-1053.51 98,-1131.5 103.13,-1137.46 109.61,-1142 116.7,-1145.44"/>
<polygon fill="midnightblue" stroke="midnightblue" points="35.17,-624.16 31.81,-614.11 28.17,-624.06 35.17,-624.16"/>
</g>
<!-- Node52 -->
<g id="node4" class="node">
<title>Node52</title>
<g id="a_node4"><a xlink:href="structhydra_1_1detail_1_1is__device__reference.html" target="_top" xlink:title="hydra::detail::is_device\l_reference\&lt; T \&gt;">
<polygon fill="none" stroke="black" points="126,-1091.5 126,-1121.5 243,-1121.5 243,-1091.5 126,-1091.5"/>
<text text-anchor="start" x="134" y="-1109.5" font-family="Helvetica,sans-Serif" font-size="10.00">hydra::detail::is_device</text>
<text text-anchor="middle" x="184.5" y="-1098.5" font-family="Helvetica,sans-Serif" font-size="10.00">_reference&lt; T &gt;</text>
</a>
</g>
</g>
<!-- Node49&#45;&gt;Node52 -->
<g id="edge3" class="edge">
<title>Node49&#45;&gt;Node52</title>
<path fill="none" stroke="midnightblue" d="M31.95,-624.81C32.17,-706.85 37.12,-1012.69 98,-1082.5 105.3,-1090.87 115.25,-1096.42 125.79,-1100.09"/>
<polygon fill="midnightblue" stroke="midnightblue" points="35.45,-624.38 31.95,-614.38 28.45,-624.39 35.45,-624.38"/>
</g>
<!-- Node53 -->
<g id="node5" class="node">
<title>Node53</title>
<g id="a_node5"><a xlink:href="structhydra_1_1detail_1_1is__function__argument_3_01Arg_00_01false_01_4.html" target="_top" xlink:title="hydra::detail::is_function\l_argument\&lt; Arg, false \&gt;">
<polygon fill="none" stroke="black" points="123,-1042.5 123,-1072.5 246,-1072.5 246,-1042.5 123,-1042.5"/>
<text text-anchor="start" x="131" y="-1060.5" font-family="Helvetica,sans-Serif" font-size="10.00">hydra::detail::is_function</text>
<text text-anchor="middle" x="184.5" y="-1049.5" font-family="Helvetica,sans-Serif" font-size="10.00">_argument&lt; Arg, false &gt;</text>
</a>
</g>
</g>
<!-- Node49&#45;&gt;Node53 -->
<g id="edge4" class="edge">
<title>Node49&#45;&gt;Node53</title>
<path fill="none" stroke="midnightblue" d="M32.29,-624.17C33.82,-699.91 43.11,-971.53 98,-1033.5 104.64,-1041 113.43,-1046.24 122.83,-1049.88"/>
<polygon fill="midnightblue" stroke="midnightblue" points="35.79,-624.05 32.11,-614.11 28.79,-624.17 35.79,-624.05"/>
</g>
<!-- Node54 -->
<g id="node6" class="node">
<title>Node54</title>
<g id="a_node6"><a xlink:href="structhydra_1_1detail_1_1is__hydra__composite__functor.html" target="_top" xlink:title="hydra::detail::is_hydra\l_composite_functor\&lt; Integrator, T \&gt;">
<polygon fill="none" stroke="black" points="98,-993.5 98,-1023.5 271,-1023.5 271,-993.5 98,-993.5"/>
<text text-anchor="start" x="106" y="-1011.5" font-family="Helvetica,sans-Serif" font-size="10.00">hydra::detail::is_hydra</text>
<text text-anchor="middle" x="184.5" y="-1000.5" font-family="Helvetica,sans-Serif" font-size="10.00">_composite_functor&lt; Integrator, T &gt;</text>
</a>
</g>
</g>
<!-- Node49&#45;&gt;Node54 -->
<g id="edge5" class="edge">
<title>Node49&#45;&gt;Node54</title>
<path fill="none" stroke="midnightblue" d="M32.75,-624.06C35.81,-693.86 49.62,-929.37 98,-983.5 101.4,-987.31 105.35,-990.54 109.64,-993.3"/>
<polygon fill="midnightblue" stroke="midnightblue" points="36.24,-623.85 32.33,-614.01 29.25,-624.14 36.24,-623.85"/>
</g>
<!-- Node55 -->
<g id="node7" class="node">
<title>Node55</title>
<g id="a_node7"><a xlink:href="structhydra_1_1detail_1_1is__hydra__convertible__to__tuple.html" target="_top" xlink:title="hydra::detail::is_hydra\l_convertible_to_tuple\l\&lt; T, Enable \&gt;">
<polygon fill="none" stroke="black" points="128,-933 128,-974 241,-974 241,-933 128,-933"/>
<text text-anchor="start" x="136" y="-962" font-family="Helvetica,sans-Serif" font-size="10.00">hydra::detail::is_hydra</text>
<text text-anchor="start" x="136" y="-951" font-family="Helvetica,sans-Serif" font-size="10.00">_convertible_to_tuple</text>
<text text-anchor="middle" x="184.5" y="-940" font-family="Helvetica,sans-Serif" font-size="10.00">&lt; T, Enable &gt;</text>
</a>
</g>
</g>
<!-- Node49&#45;&gt;Node55 -->
<g id="edge6" class="edge">
<title>Node49&#45;&gt;Node55</title>
<path fill="none" stroke="midnightblue" d="M33.59,-624.44C38.95,-687.03 58.3,-878.12 98,-923.5 105.87,-932.5 116.6,-938.8 127.81,-943.21"/>
<polygon fill="midnightblue" stroke="midnightblue" points="37.06,-623.99 32.75,-614.31 30.09,-624.57 37.06,-623.99"/>
</g>
<!-- Node56 -->
<g id="node8" class="node">
<title>Node56</title>
<g id="a_node8"><a xlink:href="structhydra_1_1detail_1_1is__hydra__dense__histogram.html" target="_top" xlink:title="hydra::detail::is_hydra\l_dense_histogram\&lt; T \&gt;">
<polygon fill="none" stroke="black" points="124.5,-883.5 124.5,-913.5 244.5,-913.5 244.5,-883.5 124.5,-883.5"/>
<text text-anchor="start" x="132.5" y="-901.5" font-family="Helvetica,sans-Serif" font-size="10.00">hydra::detail::is_hydra</text>
<text text-anchor="middle" x="184.5" y="-890.5" font-family="Helvetica,sans-Serif" font-size="10.00">_dense_histogram&lt; T &gt;</text>
</a>
</g>
</g>
<!-- Node49&#45;&gt;Node56 -->
<g id="edge7" class="edge">
<title>Node49&#45;&gt;Node56</title>
<path fill="none" stroke="midnightblue" d="M34.26,-624.34C41.02,-680.38 62.86,-838.15 98,-874.5 105.18,-881.93 114.46,-887.11 124.24,-890.72"/>
<polygon fill="midnightblue" stroke="midnightblue" points="37.72,-623.8 33.08,-614.28 30.77,-624.62 37.72,-623.8"/>
</g>
<!-- Node57 -->
<g id="node9" class="node">
<title>Node57</title>
<g id="a_node9"><a xlink:href="structhydra_1_1detail_1_1is__hydra__estimator.html" target="_top" xlink:title="hydra::detail::is_hydra\l_estimator\&lt; Estimator, T \&gt;">
<polygon fill="none" stroke="black" points="117.5,-834.5 117.5,-864.5 251.5,-864.5 251.5,-834.5 117.5,-834.5"/>
<text text-anchor="start" x="125.5" y="-852.5" font-family="Helvetica,sans-Serif" font-size="10.00">hydra::detail::is_hydra</text>
<text text-anchor="middle" x="184.5" y="-841.5" font-family="Helvetica,sans-Serif" font-size="10.00">_estimator&lt; Estimator, T &gt;</text>
</a>
</g>
</g>
<!-- Node49&#45;&gt;Node57 -->
<g id="edge8" class="edge">
<title>Node49&#45;&gt;Node57</title>
<path fill="none" stroke="midnightblue" d="M31.91,-624.32C32.84,-667.31 41.25,-769.69 98,-825.5 103.5,-830.91 110.11,-835.12 117.19,-838.39"/>
<polygon fill="midnightblue" stroke="midnightblue" points="35.41,-624.05 31.82,-614.08 28.41,-624.12 35.41,-624.05"/>
</g>
<!-- Node58 -->
<g id="node10" class="node">
<title>Node58</title>
<g id="a_node10"><a xlink:href="structhydra_1_1detail_1_1is__hydra__functor.html" target="_top" xlink:title="hydra::detail::is_hydra\l_functor\&lt; Functor, T \&gt;">
<polygon fill="none" stroke="black" points="127.5,-785.5 127.5,-815.5 241.5,-815.5 241.5,-785.5 127.5,-785.5"/>
<text text-anchor="start" x="135.5" y="-803.5" font-family="Helvetica,sans-Serif" font-size="10.00">hydra::detail::is_hydra</text>
<text text-anchor="middle" x="184.5" y="-792.5" font-family="Helvetica,sans-Serif" font-size="10.00">_functor&lt; Functor, T &gt;</text>
</a>
</g>
</g>
<!-- Node49&#45;&gt;Node58 -->
<g id="edge9" class="edge">
<title>Node49&#45;&gt;Node58</title>
<path fill="none" stroke="midnightblue" d="M33.91,-624.52C38.42,-660.34 52.99,-735.48 98,-776.5 106.2,-783.98 116.56,-789.15 127.2,-792.72"/>
<polygon fill="midnightblue" stroke="midnightblue" points="37.37,-623.91 32.78,-614.36 30.41,-624.69 37.37,-623.91"/>
</g>
<!-- Node59 -->
<g id="node11" class="node">
<title>Node59</title>
<g id="a_node11"><a xlink:href="structhydra_1_1detail_1_1is__hydra__integrator.html" target="_top" xlink:title="hydra::detail::is_hydra\l_integrator\&lt; Integrator, T \&gt;">
<polygon fill="none" stroke="black" points="118,-736.5 118,-766.5 251,-766.5 251,-736.5 118,-736.5"/>
<text text-anchor="start" x="126" y="-754.5" font-family="Helvetica,sans-Serif" font-size="10.00">hydra::detail::is_hydra</text>
<text text-anchor="middle" x="184.5" y="-743.5" font-family="Helvetica,sans-Serif" font-size="10.00">_integrator&lt; Integrator, T &gt;</text>
</a>
</g>
</g>
<!-- Node49&#45;&gt;Node59 -->
<g id="edge10" class="edge">
<title>Node49&#45;&gt;Node59</title>
<path fill="none" stroke="midnightblue" d="M37.22,-624.09C45.5,-651.36 64.27,-700.45 98,-727.5 103.89,-732.23 110.66,-736.02 117.76,-739.07"/>
<polygon fill="midnightblue" stroke="midnightblue" points="40.5,-622.83 34.38,-614.18 33.77,-624.75 40.5,-622.83"/>
</g>
<!-- Node60 -->
<g id="node12" class="node">
<title>Node60</title>
<g id="a_node12"><a xlink:href="structhydra_1_1detail_1_1is__hydra__lambda.html" target="_top" xlink:title="hydra::detail::is_hydra\l_lambda\&lt; Functor, T \&gt;">
<polygon fill="none" stroke="black" points="126.5,-687.5 126.5,-717.5 242.5,-717.5 242.5,-687.5 126.5,-687.5"/>
<text text-anchor="start" x="134.5" y="-705.5" font-family="Helvetica,sans-Serif" font-size="10.00">hydra::detail::is_hydra</text>
<text text-anchor="middle" x="184.5" y="-694.5" font-family="Helvetica,sans-Serif" font-size="10.00">_lambda&lt; Functor, T &gt;</text>
</a>
</g>
</g>
<!-- Node49&#45;&gt;Node60 -->
<g id="edge11" class="edge">
<title>Node49&#45;&gt;Node60</title>
<path fill="none" stroke="midnightblue" d="M43.52,-622.47C55.25,-639.35 74.96,-664.12 98,-678.5 106.63,-683.89 116.5,-688.09 126.38,-691.37"/>
<polygon fill="midnightblue" stroke="midnightblue" points="46.32,-620.37 37.85,-614.01 40.51,-624.27 46.32,-620.37"/>
</g>
<!-- Node61 -->
<g id="node13" class="node">
<title>Node61</title>
<g id="a_node13"><a xlink:href="structhydra_1_1detail_1_1is__hydra__pdf.html" target="_top" xlink:title="hydra::detail::is_hydra\l_pdf\&lt; PDF, T \&gt;">
<polygon fill="none" stroke="black" points="128,-638.5 128,-668.5 241,-668.5 241,-638.5 128,-638.5"/>
<text text-anchor="start" x="136" y="-656.5" font-family="Helvetica,sans-Serif" font-size="10.00">hydra::detail::is_hydra</text>
<text text-anchor="middle" x="184.5" y="-645.5" font-family="Helvetica,sans-Serif" font-size="10.00">_pdf&lt; PDF, T &gt;</text>
</a>
</g>
</g>
<!-- Node49&#45;&gt;Node61 -->
<g id="edge12" class="edge">
<title>Node49&#45;&gt;Node61</title>
<path fill="none" stroke="midnightblue" d="M65.22,-617.74C75.64,-621.72 87.24,-625.96 98,-629.5 107.52,-632.63 117.72,-635.72 127.63,-638.59"/>
<polygon fill="midnightblue" stroke="midnightblue" points="66.24,-614.38 55.65,-614.04 63.71,-620.91 66.24,-614.38"/>
</g>
<!-- Node62 -->
<g id="node14" class="node">
<title>Node62</title>
<g id="a_node14"><a xlink:href="structhydra_1_1detail_1_1is__hydra__sparse__histogram.html" target="_top" xlink:title="hydra::detail::is_hydra\l_sparse_histogram\&lt; T \&gt;">
<polygon fill="none" stroke="black" points="123,-589.5 123,-619.5 246,-619.5 246,-589.5 123,-589.5"/>
<text text-anchor="start" x="131" y="-607.5" font-family="Helvetica,sans-Serif" font-size="10.00">hydra::detail::is_hydra</text>
<text text-anchor="middle" x="184.5" y="-596.5" font-family="Helvetica,sans-Serif" font-size="10.00">_sparse_histogram&lt; T &gt;</text>
</a>
</g>
</g>
<!-- Node49&#45;&gt;Node62 -->
<g id="edge13" class="edge">
<title>Node49&#45;&gt;Node62</title>
<path fill="none" stroke="midnightblue" d="M72.55,-604.5C88,-604.5 105.96,-604.5 122.88,-604.5"/>
<polygon fill="midnightblue" stroke="midnightblue" points="72.29,-601 62.29,-604.5 72.29,-608 72.29,-601"/>
</g>
<!-- Node63 -->
<g id="node15" class="node">
<title>Node63</title>
<g id="a_node15"><a xlink:href="structhydra_1_1detail_1_1is__hydra__sum__pdf.html" target="_top" xlink:title="hydra::detail::is_hydra\l_sum_pdf\&lt; T, Enable \&gt;">
<polygon fill="none" stroke="black" points="125.5,-540.5 125.5,-570.5 243.5,-570.5 243.5,-540.5 125.5,-540.5"/>
<text text-anchor="start" x="133.5" y="-558.5" font-family="Helvetica,sans-Serif" font-size="10.00">hydra::detail::is_hydra</text>
<text text-anchor="middle" x="184.5" y="-547.5" font-family="Helvetica,sans-Serif" font-size="10.00">_sum_pdf&lt; T, Enable &gt;</text>
</a>
</g>
</g>
<!-- Node49&#45;&gt;Node63 -->
<g id="edge14" class="edge">
<title>Node49&#45;&gt;Node63</title>
<path fill="none" stroke="midnightblue" d="M66.88,-591.34C76.88,-587.7 87.83,-583.83 98,-580.5 108.29,-577.13 119.34,-573.73 129.97,-570.58"/>
<polygon fill="midnightblue" stroke="midnightblue" points="65.43,-588.15 57.25,-594.89 67.85,-594.72 65.43,-588.15"/>
</g>
<!-- Node64 -->
<g id="node16" class="node">
<title>Node64</title>
<g id="a_node16"><a xlink:href="structhydra_1_1detail_1_1is__instantiation__of.html" target="_top" xlink:title="hydra::detail::is_instantiation\l_of\&lt; Template, T \&gt;">
<polygon fill="none" stroke="black" points="114,-491.5 114,-521.5 255,-521.5 255,-491.5 114,-491.5"/>
<text text-anchor="start" x="122" y="-509.5" font-family="Helvetica,sans-Serif" font-size="10.00">hydra::detail::is_instantiation</text>
<text text-anchor="middle" x="184.5" y="-498.5" font-family="Helvetica,sans-Serif" font-size="10.00">_of&lt; Template, T &gt;</text>
</a>
</g>
</g>
<!-- Node49&#45;&gt;Node64 -->
<g id="edge15" class="edge">
<title>Node49&#45;&gt;Node64</title>
<path fill="none" stroke="midnightblue" d="M43.8,-586.57C55.62,-569.96 75.28,-545.75 98,-531.5 104.16,-527.64 110.94,-524.35 117.9,-521.56"/>
<polygon fill="midnightblue" stroke="midnightblue" points="40.85,-584.67 38.07,-594.9 46.62,-588.64 40.85,-584.67"/>
</g>
<!-- Node65 -->
<g id="node17" class="node">
<title>Node65</title>
<g id="a_node17"><a xlink:href="structhydra_1_1detail_1_1is__iterable.html" target="_top" xlink:title="hydra::detail::is_iterable\l\&lt; T, typename \&gt;">
<polygon fill="none" stroke="black" points="124.5,-442.5 124.5,-472.5 244.5,-472.5 244.5,-442.5 124.5,-442.5"/>
<text text-anchor="start" x="132.5" y="-460.5" font-family="Helvetica,sans-Serif" font-size="10.00">hydra::detail::is_iterable</text>
<text text-anchor="middle" x="184.5" y="-449.5" font-family="Helvetica,sans-Serif" font-size="10.00">&lt; T, typename &gt;</text>
</a>
</g>
</g>
<!-- Node49&#45;&gt;Node65 -->
<g id="edge16" class="edge">
<title>Node49&#45;&gt;Node65</title>
<path fill="none" stroke="midnightblue" d="M37.3,-585.12C45.69,-558.13 64.58,-509.51 98,-482.5 105.7,-476.28 114.89,-471.61 124.35,-468.1"/>
<polygon fill="midnightblue" stroke="midnightblue" points="33.88,-584.35 34.43,-594.93 40.6,-586.32 33.88,-584.35"/>
</g>
<!-- Node66 -->
<g id="node18" class="node">
<title>Node66</title>
<g id="a_node18"><a xlink:href="structhydra_1_1detail_1_1is__iterator.html" target="_top" xlink:title="hydra::detail::is_iterator\l\&lt; T, typename \&gt;">
<polygon fill="none" stroke="black" points="125,-393.5 125,-423.5 244,-423.5 244,-393.5 125,-393.5"/>
<text text-anchor="start" x="133" y="-411.5" font-family="Helvetica,sans-Serif" font-size="10.00">hydra::detail::is_iterator</text>
<text text-anchor="middle" x="184.5" y="-400.5" font-family="Helvetica,sans-Serif" font-size="10.00">&lt; T, typename &gt;</text>
</a>
</g>
</g>
<!-- Node49&#45;&gt;Node66 -->
<g id="edge17" class="edge">
<title>Node49&#45;&gt;Node66</title>
<path fill="none" stroke="midnightblue" d="M33.99,-584.64C38.63,-549.1 53.4,-474.51 98,-433.5 105.63,-426.49 115.12,-421.43 124.98,-417.79"/>
<polygon fill="midnightblue" stroke="midnightblue" points="30.5,-584.38 32.82,-594.72 37.45,-585.19 30.5,-584.38"/>
</g>
<!-- Node67 -->
<g id="node19" class="node">
<title>Node67</title>
<g id="a_node19"><a xlink:href="structhydra_1_1detail_1_1is__reverse__iterable.html" target="_top" xlink:title="hydra::detail::is_reverse\l_iterable\&lt; T, U \&gt;">
<polygon fill="none" stroke="black" points="124,-344.5 124,-374.5 245,-374.5 245,-344.5 124,-344.5"/>
<text text-anchor="start" x="132" y="-362.5" font-family="Helvetica,sans-Serif" font-size="10.00">hydra::detail::is_reverse</text>
<text text-anchor="middle" x="184.5" y="-351.5" font-family="Helvetica,sans-Serif" font-size="10.00">_iterable&lt; T, U &gt;</text>
</a>
</g>
</g>
<!-- Node49&#45;&gt;Node67 -->
<g id="edge18" class="edge">
<title>Node49&#45;&gt;Node67</title>
<path fill="none" stroke="midnightblue" d="M31.99,-584.81C33.06,-542.11 41.76,-440.35 98,-384.5 105.13,-377.42 114.16,-372.32 123.65,-368.65"/>
<polygon fill="midnightblue" stroke="midnightblue" points="28.49,-584.94 31.85,-594.98 35.49,-585.03 28.49,-584.94"/>
</g>
<!-- Node68 -->
<g id="node20" class="node">
<title>Node68</title>
<g id="a_node20"><a xlink:href="structhydra_1_1detail_1_1is__rng__formula.html" target="_top" xlink:title="hydra::detail::is_rng\l_formula\&lt; Formula \&gt;">
<polygon fill="none" stroke="black" points="131,-295.5 131,-325.5 238,-325.5 238,-295.5 131,-295.5"/>
<text text-anchor="start" x="139" y="-313.5" font-family="Helvetica,sans-Serif" font-size="10.00">hydra::detail::is_rng</text>
<text text-anchor="middle" x="184.5" y="-302.5" font-family="Helvetica,sans-Serif" font-size="10.00">_formula&lt; Formula &gt;</text>
</a>
</g>
</g>
<!-- Node49&#45;&gt;Node68 -->
<g id="edge19" class="edge">
<title>Node49&#45;&gt;Node68</title>
<path fill="none" stroke="midnightblue" d="M34.29,-584.75C41.13,-528.97 63.16,-371.9 98,-335.5 106.77,-326.34 118.69,-320.48 130.85,-316.75"/>
<polygon fill="midnightblue" stroke="midnightblue" points="30.8,-584.42 33.09,-594.77 37.75,-585.25 30.8,-584.42"/>
</g>
<!-- Node69 -->
<g id="node21" class="node">
<title>Node69</title>
<g id="a_node21"><a xlink:href="structhydra_1_1detail_1_1is__specialization.html" target="_top" xlink:title="hydra::detail::is_specialization\l\&lt; T, REF \&gt;">
<polygon fill="none" stroke="black" points="110.5,-246.5 110.5,-276.5 258.5,-276.5 258.5,-246.5 110.5,-246.5"/>
<text text-anchor="start" x="118.5" y="-264.5" font-family="Helvetica,sans-Serif" font-size="10.00">hydra::detail::is_specialization</text>
<text text-anchor="middle" x="184.5" y="-253.5" font-family="Helvetica,sans-Serif" font-size="10.00">&lt; T, REF &gt;</text>
</a>
</g>
</g>
<!-- Node49&#45;&gt;Node69 -->
<g id="edge20" class="edge">
<title>Node49&#45;&gt;Node69</title>
<path fill="none" stroke="midnightblue" d="M33.46,-584.95C38.5,-522.72 57.13,-330.77 98,-286.5 101.57,-282.64 105.69,-279.36 110.17,-276.58"/>
<polygon fill="midnightblue" stroke="midnightblue" points="29.97,-584.75 32.68,-594.99 36.95,-585.3 29.97,-584.75"/>
</g>
<!-- Node70 -->
<g id="node22" class="node">
<title>Node70</title>
<g id="a_node22"><a xlink:href="structhydra_1_1detail_1_1is__tuple.html" target="_top" xlink:title="hydra::detail::is_tuple\&lt; T \&gt;">
<polygon fill="none" stroke="black" points="117.5,-208 117.5,-227 251.5,-227 251.5,-208 117.5,-208"/>
<text text-anchor="middle" x="184.5" y="-215" font-family="Helvetica,sans-Serif" font-size="10.00">hydra::detail::is_tuple&lt; T &gt;</text>
</a>
</g>
</g>
<!-- Node49&#45;&gt;Node70 -->
<g id="edge21" class="edge">
<title>Node49&#45;&gt;Node70</title>
<path fill="none" stroke="midnightblue" d="M32.78,-584.59C35.91,-515.62 49.75,-288.32 98,-237.5 103.35,-231.86 109.97,-227.68 117.13,-224.59"/>
<polygon fill="midnightblue" stroke="midnightblue" points="29.27,-584.77 32.34,-594.91 36.27,-585.07 29.27,-584.77"/>
</g>
<!-- Node71 -->
<g id="node23" class="node">
<title>Node71</title>
<g id="a_node23"><a xlink:href="structhydra_1_1detail_1_1is__tuple__of__function__arguments.html" target="_top" xlink:title="hydra::detail::is_tuple\l_of_function_arguments\l\&lt; ArgType \&gt;">
<polygon fill="none" stroke="black" points="124,-148 124,-189 245,-189 245,-148 124,-148"/>
<text text-anchor="start" x="132" y="-177" font-family="Helvetica,sans-Serif" font-size="10.00">hydra::detail::is_tuple</text>
<text text-anchor="start" x="132" y="-166" font-family="Helvetica,sans-Serif" font-size="10.00">_of_function_arguments</text>
<text text-anchor="middle" x="184.5" y="-155" font-family="Helvetica,sans-Serif" font-size="10.00">&lt; ArgType &gt;</text>
</a>
</g>
</g>
<!-- Node49&#45;&gt;Node71 -->
<g id="edge22" class="edge">
<title>Node49&#45;&gt;Node71</title>
<path fill="none" stroke="midnightblue" d="M32.62,-584.59C35.26,-511.37 47.95,-258.26 98,-198.5 104.77,-190.42 113.85,-184.51 123.57,-180.2"/>
<polygon fill="midnightblue" stroke="midnightblue" points="29.11,-584.62 32.27,-594.74 36.11,-584.86 29.11,-584.62"/>
</g>
<!-- Node72 -->
<g id="node24" class="node">
<title>Node72</title>
<g id="a_node24"><a xlink:href="structhydra_1_1detail_1_1is__tuple__type.html" target="_top" xlink:title="hydra::detail::is_tuple\l_type\&lt; ArgType \&gt;">
<polygon fill="none" stroke="black" points="129.5,-98.5 129.5,-128.5 239.5,-128.5 239.5,-98.5 129.5,-98.5"/>
<text text-anchor="start" x="137.5" y="-116.5" font-family="Helvetica,sans-Serif" font-size="10.00">hydra::detail::is_tuple</text>
<text text-anchor="middle" x="184.5" y="-105.5" font-family="Helvetica,sans-Serif" font-size="10.00">_type&lt; ArgType &gt;</text>
</a>
</g>
</g>
<!-- Node49&#45;&gt;Node72 -->
<g id="edge23" class="edge">
<title>Node49&#45;&gt;Node72</title>
<path fill="none" stroke="midnightblue" d="M32.05,-584.71C32.65,-504.79 38.87,-206.8 98,-138.5 106.1,-129.15 117.48,-123.2 129.31,-119.44"/>
<polygon fill="midnightblue" stroke="midnightblue" points="28.55,-584.85 32,-594.87 35.55,-584.89 28.55,-584.85"/>
</g>
<!-- Node73 -->
<g id="node25" class="node">
<title>Node73</title>
<g id="a_node25"><a xlink:href="structhydra_1_1detail_1_1is__zip__iterator.html" target="_top" xlink:title="hydra::detail::is_zip\l_iterator\&lt; T \&gt;">
<polygon fill="none" stroke="black" points="134,-49.5 134,-79.5 235,-79.5 235,-49.5 134,-49.5"/>
<text text-anchor="start" x="142" y="-67.5" font-family="Helvetica,sans-Serif" font-size="10.00">hydra::detail::is_zip</text>
<text text-anchor="middle" x="184.5" y="-56.5" font-family="Helvetica,sans-Serif" font-size="10.00">_iterator&lt; T &gt;</text>
</a>
</g>
</g>
<!-- Node49&#45;&gt;Node73 -->
<g id="edge24" class="edge">
<title>Node49&#45;&gt;Node73</title>
<path fill="none" stroke="midnightblue" d="M31.75,-584.57C31.09,-499.27 32.79,-165.84 98,-89.5 107.04,-78.92 120.29,-72.68 133.68,-69.05"/>
<polygon fill="midnightblue" stroke="midnightblue" points="28.25,-584.74 31.85,-594.71 35.25,-584.68 28.25,-584.74"/>
</g>
<!-- Node74 -->
<g id="node26" class="node">
<title>Node74</title>
<g id="a_node26"><a xlink:href="structhydra_1_1detail_1_1is__hydra__functor.html" target="_top" xlink:title="hydra::detail::is_hydra\l_functor\&lt; FUNCTOR \&gt;">
<polygon fill="none" stroke="black" points="125,-0.5 125,-30.5 244,-30.5 244,-0.5 125,-0.5"/>
<text text-anchor="start" x="133" y="-18.5" font-family="Helvetica,sans-Serif" font-size="10.00">hydra::detail::is_hydra</text>
<text text-anchor="middle" x="184.5" y="-7.5" font-family="Helvetica,sans-Serif" font-size="10.00">_functor&lt; FUNCTOR &gt;</text>
</a>
</g>
</g>
<!-- Node49&#45;&gt;Node74 -->
<g id="edge25" class="edge">
<title>Node49&#45;&gt;Node74</title>
<path fill="none" stroke="midnightblue" d="M33.04,-584.61C38.18,-489.38 62.09,-83.02 98,-40.5 104.99,-32.23 114.54,-26.61 124.75,-22.82"/>
<polygon fill="midnightblue" stroke="midnightblue" points="29.54,-584.46 32.51,-594.63 36.53,-584.83 29.54,-584.46"/>
</g>
</g>
</svg>
