<?xml version="1.0" encoding="UTF-8" standalone="no"?>
<!DOCTYPE svg PUBLIC "-//W3C//DTD SVG 1.1//EN"
 "http://www.w3.org/Graphics/SVG/1.1/DTD/svg11.dtd">
<!-- Generated by graphviz version 2.38.0 (20140413.2041)
 -->
<!-- Title: Graphical Class Hierarchy Pages: 1 -->
<svg width="415pt" height="88pt"
 viewBox="0.00 0.00 415.00 88.00" xmlns="http://www.w3.org/2000/svg" xmlns:xlink="http://www.w3.org/1999/xlink">
<g id="graph0" class="graph" transform="scale(1 1) rotate(0) translate(4 84)">
<title>Graphical Class Hierarchy</title>
<!-- Node1 -->
<g id="node1" class="node"><title>Node1</title>
<polygon fill="none" stroke="#bfbfbf" points="0,-30 0,-49 56,-49 56,-30 0,-30"/>
<text text-anchor="middle" x="28" y="-37" font-family="Helvetica,sans-Serif" font-size="10.00">enable_if</text>
</g>
<!-- Node2 -->
<g id="node2" class="node"><title>Node2</title>
<polygon fill="none" stroke="#bfbfbf" points="104,-49.5 104,-79.5 236,-79.5 236,-49.5 104,-49.5"/>
<text text-anchor="start" x="112" y="-67.5" font-family="Helvetica,sans-Serif" font-size="10.00">hydra::detail::AddPdfBase</text>
<text text-anchor="middle" x="170" y="-56.5" font-family="Helvetica,sans-Serif" font-size="10.00">&lt; PDF1, PDF2, PDFs... &gt;</text>
</g>
<!-- Node1&#45;&gt;Node2 -->
<g id="edge1" class="edge"><title>Node1&#45;&gt;Node2</title>
<path fill="none" stroke="midnightblue" d="M66.4173,-46.1817C77.9225,-48.2362 90.9391,-50.5606 103.743,-52.847"/>
<polygon fill="midnightblue" stroke="midnightblue" points="66.7853,-42.6921 56.3258,-44.3796 65.5547,-49.5831 66.7853,-42.6921"/>
</g>
<!-- Node4 -->
<g id="node4" class="node"><title>Node4</title>
<polygon fill="none" stroke="#bfbfbf" points="92,-0.5 92,-30.5 248,-30.5 248,-0.5 92,-0.5"/>
<text text-anchor="start" x="100" y="-18.5" font-family="Helvetica,sans-Serif" font-size="10.00">hydra::detail::PdfBase</text>
<text text-anchor="middle" x="170" y="-7.5" font-family="Helvetica,sans-Serif" font-size="10.00">&lt; FUNCTOR, INTEGRATOR &gt;</text>
</g>
<!-- Node1&#45;&gt;Node4 -->
<g id="edge3" class="edge"><title>Node1&#45;&gt;Node4</title>
<path fill="none" stroke="midnightblue" d="M66.3741,-33.093C74.3759,-31.7213 83.1104,-30.2239 91.9969,-28.7005"/>
<polygon fill="midnightblue" stroke="midnightblue" points="65.5906,-29.6762 56.3258,-34.8156 66.7734,-36.5755 65.5906,-29.6762"/>
</g>
<!-- Node3 -->
<g id="node3" class="node"><title>Node3</title>
<g id="a_node3"><a xlink:href="d1/d2b/a00018.html" target="_top" xlink:title="Build a pdf adding other pdfs. ">
<polygon fill="none" stroke="black" points="287.5,-49.5 287.5,-79.5 403.5,-79.5 403.5,-49.5 287.5,-49.5"/>
<text text-anchor="start" x="295.5" y="-67.5" font-family="Helvetica,sans-Serif" font-size="10.00">hydra::AddPdf&lt; PDF1,</text>
<text text-anchor="middle" x="345.5" y="-56.5" font-family="Helvetica,sans-Serif" font-size="10.00"> PDF2, PDFs &gt;</text>
</a>
</g>
</g>
<!-- Node2&#45;&gt;Node3 -->
<g id="edge2" class="edge"><title>Node2&#45;&gt;Node3</title>
<path fill="none" stroke="midnightblue" d="M246.473,-64.5C260.167,-64.5 274.243,-64.5 287.304,-64.5"/>
<polygon fill="midnightblue" stroke="midnightblue" points="246.099,-61.0001 236.099,-64.5 246.099,-68.0001 246.099,-61.0001"/>
</g>
<!-- Node5 -->
<g id="node5" class="node"><title>Node5</title>
<g id="a_node5"><a xlink:href="d3/de7/a00039.html" target="_top" xlink:title="hydra::Pdf\&lt; FUNCTOR,\l INTEGRATOR \&gt;">
<polygon fill="none" stroke="black" points="284,-0.5 284,-30.5 407,-30.5 407,-0.5 284,-0.5"/>
<text text-anchor="start" x="292" y="-18.5" font-family="Helvetica,sans-Serif" font-size="10.00">hydra::Pdf&lt; FUNCTOR,</text>
<text text-anchor="middle" x="345.5" y="-7.5" font-family="Helvetica,sans-Serif" font-size="10.00"> INTEGRATOR &gt;</text>
</a>
</g>
</g>
<!-- Node4&#45;&gt;Node5 -->
<g id="edge4" class="edge"><title>Node4&#45;&gt;Node5</title>
<path fill="none" stroke="midnightblue" d="M258.228,-15.5C266.862,-15.5 275.489,-15.5 283.769,-15.5"/>
<polygon fill="midnightblue" stroke="midnightblue" points="258.11,-12.0001 248.11,-15.5 258.11,-19.0001 258.11,-12.0001"/>
</g>
</g>
</svg>
