<?xml version="1.0" encoding="UTF-8" standalone="no"?>
<!DOCTYPE svg PUBLIC "-//W3C//DTD SVG 1.1//EN"
 "http://www.w3.org/Graphics/SVG/1.1/DTD/svg11.dtd">
<!-- Generated by graphviz version 2.42.4 (0)
 -->
<!-- Title: Graphical Class Hierarchy Pages: 1 -->
<svg width="358pt" height="2017pt"
 viewBox="0.00 0.00 358.00 2016.50" xmlns="http://www.w3.org/2000/svg" xmlns:xlink="http://www.w3.org/1999/xlink">
<g id="graph0" class="graph" transform="scale(1 1) rotate(0) translate(4 2012.5)">
<title>Graphical Class Hierarchy</title>
<!-- Node3 -->
<g id="node1" class="node">
<title>Node3</title>
<polygon fill="none" stroke="#bfbfbf" points="0,-1034.5 0,-1053.5 57,-1053.5 57,-1034.5 0,-1034.5"/>
<text text-anchor="middle" x="28.5" y="-1041.5" font-family="Helvetica,sans-Serif" font-size="10.00">true_type</text>
</g>
<!-- Node0 -->
<g id="node2" class="node">
<title>Node0</title>
<g id="a_node2"><a xlink:href="structhydra_1_1detail_1_1all__true_3_4.html" target="_top" xlink:title="hydra::detail::all\l_true\&lt;\&gt;">
<polygon fill="none" stroke="black" points="178.5,-1978 178.5,-2008 264.5,-2008 264.5,-1978 178.5,-1978"/>
<text text-anchor="start" x="186.5" y="-1996" font-family="Helvetica,sans-Serif" font-size="10.00">hydra::detail::all</text>
<text text-anchor="middle" x="221.5" y="-1985" font-family="Helvetica,sans-Serif" font-size="10.00">_true&lt;&gt;</text>
</a>
</g>
</g>
<!-- Node3&#45;&gt;Node0 -->
<g id="edge1" class="edge">
<title>Node3&#45;&gt;Node0</title>
<path fill="none" stroke="midnightblue" d="M29.44,-1063.8C29.21,-1191.77 30.78,-1899 93,-1969 113.88,-1992.48 149.86,-1997.5 178.29,-1997.2"/>
<polygon fill="midnightblue" stroke="midnightblue" points="32.94,-1063.55 29.46,-1053.54 25.94,-1063.53 32.94,-1063.55"/>
</g>
<!-- Node5 -->
<g id="node3" class="node">
<title>Node5</title>
<g id="a_node3"><a xlink:href="structhydra_1_1detail_1_1conditions__and.html" target="_top" xlink:title="hydra::detail::conditions\l_and\&lt; Conds \&gt;">
<polygon fill="none" stroke="black" points="161.5,-1929 161.5,-1959 281.5,-1959 281.5,-1929 161.5,-1929"/>
<text text-anchor="start" x="169.5" y="-1947" font-family="Helvetica,sans-Serif" font-size="10.00">hydra::detail::conditions</text>
<text text-anchor="middle" x="221.5" y="-1936" font-family="Helvetica,sans-Serif" font-size="10.00">_and&lt; Conds &gt;</text>
</a>
</g>
</g>
<!-- Node3&#45;&gt;Node5 -->
<g id="edge2" class="edge">
<title>Node3&#45;&gt;Node5</title>
<path fill="none" stroke="midnightblue" d="M29.53,-1063.86C29.87,-1187.88 34.43,-1852.86 93,-1919 109.9,-1938.08 136.72,-1945.19 161.41,-1947.18"/>
<polygon fill="midnightblue" stroke="midnightblue" points="33.02,-1063.58 29.5,-1053.59 26.02,-1063.59 33.02,-1063.58"/>
</g>
<!-- Node6 -->
<g id="node4" class="node">
<title>Node6</title>
<g id="a_node4"><a xlink:href="structhydra_1_1detail_1_1fa__impl_1_1__is__function__argument_3_01hydra__thrust_1_1device__refer9fa1e9372cf57a9fd1f72d2b95066e89.html" target="_top" xlink:title="hydra::detail::fa_impl\l::_is_function_argument\l\&lt; hydra_thrust::device_reference\l\&lt; T \&gt;, hydra_thrust::void_t\&lt;\l typename T::function_argument_type \&gt; \&gt;">
<polygon fill="none" stroke="black" points="122.5,-1846.5 122.5,-1909.5 320.5,-1909.5 320.5,-1846.5 122.5,-1846.5"/>
<text text-anchor="start" x="130.5" y="-1897.5" font-family="Helvetica,sans-Serif" font-size="10.00">hydra::detail::fa_impl</text>
<text text-anchor="start" x="130.5" y="-1886.5" font-family="Helvetica,sans-Serif" font-size="10.00">::_is_function_argument</text>
<text text-anchor="start" x="130.5" y="-1875.5" font-family="Helvetica,sans-Serif" font-size="10.00">&lt; hydra_thrust::device_reference</text>
<text text-anchor="start" x="130.5" y="-1864.5" font-family="Helvetica,sans-Serif" font-size="10.00">&lt; T &gt;, hydra_thrust::void_t&lt;</text>
<text text-anchor="middle" x="221.5" y="-1853.5" font-family="Helvetica,sans-Serif" font-size="10.00"> typename T::function_argument_type &gt; &gt;</text>
</a>
</g>
</g>
<!-- Node3&#45;&gt;Node6 -->
<g id="edge3" class="edge">
<title>Node3&#45;&gt;Node6</title>
<path fill="none" stroke="midnightblue" d="M29.79,-1064.06C31.67,-1181.27 43.57,-1774.58 93,-1837 100.87,-1846.93 111.16,-1854.5 122.5,-1860.25"/>
<polygon fill="midnightblue" stroke="midnightblue" points="33.29,-1063.65 29.63,-1053.71 26.29,-1063.76 33.29,-1063.65"/>
</g>
<!-- Node7 -->
<g id="node5" class="node">
<title>Node7</title>
<g id="a_node5"><a xlink:href="structhydra_1_1detail_1_1fa__impl_1_1__is__function__argument_3_01T_00_01hydra__thrust_1_1void__9740ebec65afca5db7844ad820e3712d.html" target="_top" xlink:title="hydra::detail::fa_impl\l::_is_function_argument\l\&lt; T, hydra_thrust::void\l_t\&lt; typename T::function\l_argument_type \&gt; \&gt;">
<polygon fill="none" stroke="black" points="159,-1764.5 159,-1827.5 284,-1827.5 284,-1764.5 159,-1764.5"/>
<text text-anchor="start" x="167" y="-1815.5" font-family="Helvetica,sans-Serif" font-size="10.00">hydra::detail::fa_impl</text>
<text text-anchor="start" x="167" y="-1804.5" font-family="Helvetica,sans-Serif" font-size="10.00">::_is_function_argument</text>
<text text-anchor="start" x="167" y="-1793.5" font-family="Helvetica,sans-Serif" font-size="10.00">&lt; T, hydra_thrust::void</text>
<text text-anchor="start" x="167" y="-1782.5" font-family="Helvetica,sans-Serif" font-size="10.00">_t&lt; typename T::function</text>
<text text-anchor="middle" x="221.5" y="-1771.5" font-family="Helvetica,sans-Serif" font-size="10.00">_argument_type &gt; &gt;</text>
</a>
</g>
</g>
<!-- Node3&#45;&gt;Node7 -->
<g id="edge4" class="edge">
<title>Node3&#45;&gt;Node7</title>
<path fill="none" stroke="midnightblue" d="M29.99,-1063.99C32.82,-1173.69 48.67,-1699.55 93,-1755 108.97,-1774.98 134.76,-1785.36 158.97,-1790.7"/>
<polygon fill="midnightblue" stroke="midnightblue" points="33.48,-1063.61 29.73,-1053.7 26.48,-1063.79 33.48,-1063.61"/>
</g>
<!-- Node8 -->
<g id="node6" class="node">
<title>Node8</title>
<g id="a_node6"><a xlink:href="structhydra_1_1detail_1_1has__rng__formula_3_01Functor_00_01hydra__thrust_1_1void__t_3_01typenam606e1598181acac98a9289f7499aff1a.html" target="_top" xlink:title="hydra::detail::has\l_rng_formula\&lt; Functor,\l hydra_thrust::void_t\l\&lt; typename hydra::RngFormula\l\&lt; Functor \&gt;::value_type \&gt; \&gt;">
<polygon fill="none" stroke="black" points="144,-1682.5 144,-1745.5 299,-1745.5 299,-1682.5 144,-1682.5"/>
<text text-anchor="start" x="152" y="-1733.5" font-family="Helvetica,sans-Serif" font-size="10.00">hydra::detail::has</text>
<text text-anchor="start" x="152" y="-1722.5" font-family="Helvetica,sans-Serif" font-size="10.00">_rng_formula&lt; Functor,</text>
<text text-anchor="start" x="152" y="-1711.5" font-family="Helvetica,sans-Serif" font-size="10.00"> hydra_thrust::void_t</text>
<text text-anchor="start" x="152" y="-1700.5" font-family="Helvetica,sans-Serif" font-size="10.00">&lt; typename hydra::RngFormula</text>
<text text-anchor="middle" x="221.5" y="-1689.5" font-family="Helvetica,sans-Serif" font-size="10.00">&lt; Functor &gt;::value_type &gt; &gt;</text>
</a>
</g>
</g>
<!-- Node3&#45;&gt;Node8 -->
<g id="edge5" class="edge">
<title>Node3&#45;&gt;Node8</title>
<path fill="none" stroke="midnightblue" d="M30.21,-1063.55C34.07,-1164.55 53.7,-1624.42 93,-1673 105.72,-1688.73 124.52,-1698.5 143.8,-1704.55"/>
<polygon fill="midnightblue" stroke="midnightblue" points="33.71,-1063.38 29.84,-1053.51 26.72,-1063.64 33.71,-1063.38"/>
</g>
<!-- Node9 -->
<g id="node7" class="node">
<title>Node9</title>
<g id="a_node7"><a xlink:href="structhydra_1_1detail_1_1is__device__reference_3_01hydra__thrust_1_1device__reference_3_01T_01_4_01_4.html" target="_top" xlink:title="hydra::detail::is_device\l_reference\&lt; hydra_thrust\l::device_reference\&lt; T \&gt; \&gt;">
<polygon fill="none" stroke="black" points="156.5,-1622.5 156.5,-1663.5 286.5,-1663.5 286.5,-1622.5 156.5,-1622.5"/>
<text text-anchor="start" x="164.5" y="-1651.5" font-family="Helvetica,sans-Serif" font-size="10.00">hydra::detail::is_device</text>
<text text-anchor="start" x="164.5" y="-1640.5" font-family="Helvetica,sans-Serif" font-size="10.00">_reference&lt; hydra_thrust</text>
<text text-anchor="middle" x="221.5" y="-1629.5" font-family="Helvetica,sans-Serif" font-size="10.00">::device_reference&lt; T &gt; &gt;</text>
</a>
</g>
</g>
<!-- Node3&#45;&gt;Node9 -->
<g id="edge6" class="edge">
<title>Node3&#45;&gt;Node9</title>
<path fill="none" stroke="midnightblue" d="M30.37,-1063.79C34.76,-1159.44 55.73,-1570.97 93,-1613 108.84,-1630.87 133.14,-1639.12 156.29,-1642.65"/>
<polygon fill="midnightblue" stroke="midnightblue" points="33.86,-1063.35 29.91,-1053.52 26.86,-1063.67 33.86,-1063.35"/>
</g>
<!-- Node10 -->
<g id="node8" class="node">
<title>Node10</title>
<g id="a_node8"><a xlink:href="structhydra_1_1detail_1_1is__hydra__composite__functor_3_01T_00_01hydra__thrust_1_1void__t_3_01tccab60179542fea9c2cbbbbbcc3f8b21.html" target="_top" xlink:title="hydra::detail::is_hydra\l_composite_functor\&lt; T,\l hydra_thrust::void_t\&lt;\l typename T::hydra_composed\l_functor_type \&gt; \&gt;">
<polygon fill="none" stroke="black" points="146.5,-1540.5 146.5,-1603.5 296.5,-1603.5 296.5,-1540.5 146.5,-1540.5"/>
<text text-anchor="start" x="154.5" y="-1591.5" font-family="Helvetica,sans-Serif" font-size="10.00">hydra::detail::is_hydra</text>
<text text-anchor="start" x="154.5" y="-1580.5" font-family="Helvetica,sans-Serif" font-size="10.00">_composite_functor&lt; T,</text>
<text text-anchor="start" x="154.5" y="-1569.5" font-family="Helvetica,sans-Serif" font-size="10.00"> hydra_thrust::void_t&lt;</text>
<text text-anchor="start" x="154.5" y="-1558.5" font-family="Helvetica,sans-Serif" font-size="10.00"> typename T::hydra_composed</text>
<text text-anchor="middle" x="221.5" y="-1547.5" font-family="Helvetica,sans-Serif" font-size="10.00">_functor_type &gt; &gt;</text>
</a>
</g>
</g>
<!-- Node3&#45;&gt;Node10 -->
<g id="edge7" class="edge">
<title>Node3&#45;&gt;Node10</title>
<path fill="none" stroke="midnightblue" d="M29.36,-1064.08C29.17,-1146.58 32.52,-1458.42 93,-1531 106.47,-1547.17 126.35,-1557.03 146.43,-1563.02"/>
<polygon fill="midnightblue" stroke="midnightblue" points="32.86,-1063.65 29.4,-1053.63 25.86,-1063.62 32.86,-1063.65"/>
</g>
<!-- Node11 -->
<g id="node9" class="node">
<title>Node11</title>
<g id="a_node9"><a xlink:href="structhydra_1_1detail_1_1is__hydra__convertible__to__tuple_3_01T_00_01typename_01tag__type_3_01ta964df32a5ab9b829e612ce2772ce8f5.html" target="_top" xlink:title="hydra::detail::is_hydra\l_convertible_to_tuple\l\&lt; T, typename tag_type\l\&lt; typename T::hydra_convertible\l_to_tuple_tag \&gt;::type \&gt;">
<polygon fill="none" stroke="black" points="142.5,-1458.5 142.5,-1521.5 300.5,-1521.5 300.5,-1458.5 142.5,-1458.5"/>
<text text-anchor="start" x="150.5" y="-1509.5" font-family="Helvetica,sans-Serif" font-size="10.00">hydra::detail::is_hydra</text>
<text text-anchor="start" x="150.5" y="-1498.5" font-family="Helvetica,sans-Serif" font-size="10.00">_convertible_to_tuple</text>
<text text-anchor="start" x="150.5" y="-1487.5" font-family="Helvetica,sans-Serif" font-size="10.00">&lt; T, typename tag_type</text>
<text text-anchor="start" x="150.5" y="-1476.5" font-family="Helvetica,sans-Serif" font-size="10.00">&lt; typename T::hydra_convertible</text>
<text text-anchor="middle" x="221.5" y="-1465.5" font-family="Helvetica,sans-Serif" font-size="10.00">_to_tuple_tag &gt;::type &gt;</text>
</a>
</g>
</g>
<!-- Node3&#45;&gt;Node11 -->
<g id="edge8" class="edge">
<title>Node3&#45;&gt;Node11</title>
<path fill="none" stroke="midnightblue" d="M29.94,-1063.9C31.95,-1137.07 42.5,-1389.96 93,-1449 105.7,-1463.84 123.79,-1473.36 142.37,-1479.45"/>
<polygon fill="midnightblue" stroke="midnightblue" points="33.44,-1063.67 29.69,-1053.76 26.44,-1063.84 33.44,-1063.67"/>
</g>
<!-- Node12 -->
<g id="node10" class="node">
<title>Node12</title>
<g id="a_node10"><a xlink:href="structhydra_1_1detail_1_1is__hydra__dense__histogram_3_01hydra_1_1DenseHistogram_3_01T_00_01N_00fc4864555721ec45e62403c36aadd8e3.html" target="_top" xlink:title="hydra::detail::is_hydra\l_dense_histogram\&lt; hydra\l::DenseHistogram\&lt; T, N,\l detail::BackendPolicy\&lt; BACKEND\l \&gt;, D \&gt; \&gt;">
<polygon fill="none" stroke="black" points="135,-1376.5 135,-1439.5 308,-1439.5 308,-1376.5 135,-1376.5"/>
<text text-anchor="start" x="143" y="-1427.5" font-family="Helvetica,sans-Serif" font-size="10.00">hydra::detail::is_hydra</text>
<text text-anchor="start" x="143" y="-1416.5" font-family="Helvetica,sans-Serif" font-size="10.00">_dense_histogram&lt; hydra</text>
<text text-anchor="start" x="143" y="-1405.5" font-family="Helvetica,sans-Serif" font-size="10.00">::DenseHistogram&lt; T, N,</text>
<text text-anchor="start" x="143" y="-1394.5" font-family="Helvetica,sans-Serif" font-size="10.00"> detail::BackendPolicy&lt; BACKEND</text>
<text text-anchor="middle" x="221.5" y="-1383.5" font-family="Helvetica,sans-Serif" font-size="10.00"> &gt;, D &gt; &gt;</text>
</a>
</g>
</g>
<!-- Node3&#45;&gt;Node12 -->
<g id="edge9" class="edge">
<title>Node3&#45;&gt;Node12</title>
<path fill="none" stroke="midnightblue" d="M30.8,-1063.8C35.34,-1126.84 52.42,-1321.37 93,-1367 104.13,-1379.51 119.08,-1388.23 134.83,-1394.29"/>
<polygon fill="midnightblue" stroke="midnightblue" points="34.28,-1063.36 30.1,-1053.63 27.3,-1063.85 34.28,-1063.36"/>
</g>
<!-- Node13 -->
<g id="node11" class="node">
<title>Node13</title>
<g id="a_node11"><a xlink:href="structhydra_1_1detail_1_1is__hydra__estimator_3_01T_00_01hydra__thrust_1_1void__t_3_01typename_059bbb4e55e19bf7af0b6163360b46c0a.html" target="_top" xlink:title="hydra::detail::is_hydra\l_estimator\&lt; T, hydra_thrust\l::void_t\&lt; typename T::likelihood\l_estimator_type \&gt; \&gt;">
<polygon fill="none" stroke="black" points="144,-1305 144,-1357 299,-1357 299,-1305 144,-1305"/>
<text text-anchor="start" x="152" y="-1345" font-family="Helvetica,sans-Serif" font-size="10.00">hydra::detail::is_hydra</text>
<text text-anchor="start" x="152" y="-1334" font-family="Helvetica,sans-Serif" font-size="10.00">_estimator&lt; T, hydra_thrust</text>
<text text-anchor="start" x="152" y="-1323" font-family="Helvetica,sans-Serif" font-size="10.00">::void_t&lt; typename T::likelihood</text>
<text text-anchor="middle" x="221.5" y="-1312" font-family="Helvetica,sans-Serif" font-size="10.00">_estimator_type &gt; &gt;</text>
</a>
</g>
</g>
<!-- Node3&#45;&gt;Node13 -->
<g id="edge10" class="edge">
<title>Node3&#45;&gt;Node13</title>
<path fill="none" stroke="midnightblue" d="M31.92,-1063.91C38.82,-1117.41 60.21,-1262.51 93,-1296 106.57,-1309.86 125.07,-1318.38 143.77,-1323.58"/>
<polygon fill="midnightblue" stroke="midnightblue" points="35.36,-1063.18 30.64,-1053.69 28.41,-1064.05 35.36,-1063.18"/>
</g>
<!-- Node14 -->
<g id="node12" class="node">
<title>Node14</title>
<g id="a_node12"><a xlink:href="structhydra_1_1detail_1_1is__hydra__functor_3_01Functor_00_01hydra__thrust_1_1void__t_3_01typenafbfefa5d76b2127163526825f05d98e1.html" target="_top" xlink:title="hydra::detail::is_hydra\l_functor\&lt; Functor, hydra\l_thrust::void_t\&lt; typename\l Functor::hydra_functor_type,\l typename Functor::argument\l_type, typename Functor::return_type \&gt; \&gt;">
<polygon fill="none" stroke="black" points="122.5,-1212 122.5,-1286 320.5,-1286 320.5,-1212 122.5,-1212"/>
<text text-anchor="start" x="130.5" y="-1274" font-family="Helvetica,sans-Serif" font-size="10.00">hydra::detail::is_hydra</text>
<text text-anchor="start" x="130.5" y="-1263" font-family="Helvetica,sans-Serif" font-size="10.00">_functor&lt; Functor, hydra</text>
<text text-anchor="start" x="130.5" y="-1252" font-family="Helvetica,sans-Serif" font-size="10.00">_thrust::void_t&lt; typename</text>
<text text-anchor="start" x="130.5" y="-1241" font-family="Helvetica,sans-Serif" font-size="10.00"> Functor::hydra_functor_type,</text>
<text text-anchor="start" x="130.5" y="-1230" font-family="Helvetica,sans-Serif" font-size="10.00"> typename Functor::argument</text>
<text text-anchor="middle" x="221.5" y="-1219" font-family="Helvetica,sans-Serif" font-size="10.00">_type, typename Functor::return_type &gt; &gt;</text>
</a>
</g>
</g>
<!-- Node3&#45;&gt;Node14 -->
<g id="edge11" class="edge">
<title>Node3&#45;&gt;Node14</title>
<path fill="none" stroke="midnightblue" d="M32.15,-1064.03C37.58,-1097.36 53.05,-1164.37 93,-1203 101.54,-1211.26 111.68,-1218.05 122.44,-1223.63"/>
<polygon fill="midnightblue" stroke="midnightblue" points="35.55,-1063.12 30.62,-1053.74 28.63,-1064.15 35.55,-1063.12"/>
</g>
<!-- Node15 -->
<g id="node13" class="node">
<title>Node15</title>
<g id="a_node13"><a xlink:href="structhydra_1_1detail_1_1is__hydra__integrator_3_01T_00_01hydra__thrust_1_1void__t_3_01typename_d2c71af43dd28e3c447ac2b25385ae94.html" target="_top" xlink:title="hydra::detail::is_hydra\l_integrator\&lt; T, hydra\l_thrust::void_t\&lt; typename\l T::hydra_integrator_type \&gt; \&gt;">
<polygon fill="none" stroke="black" points="150.5,-1141 150.5,-1193 292.5,-1193 292.5,-1141 150.5,-1141"/>
<text text-anchor="start" x="158.5" y="-1181" font-family="Helvetica,sans-Serif" font-size="10.00">hydra::detail::is_hydra</text>
<text text-anchor="start" x="158.5" y="-1170" font-family="Helvetica,sans-Serif" font-size="10.00">_integrator&lt; T, hydra</text>
<text text-anchor="start" x="158.5" y="-1159" font-family="Helvetica,sans-Serif" font-size="10.00">_thrust::void_t&lt; typename</text>
<text text-anchor="middle" x="221.5" y="-1148" font-family="Helvetica,sans-Serif" font-size="10.00"> T::hydra_integrator_type &gt; &gt;</text>
</a>
</g>
</g>
<!-- Node3&#45;&gt;Node15 -->
<g id="edge12" class="edge">
<title>Node3&#45;&gt;Node15</title>
<path fill="none" stroke="midnightblue" d="M38.17,-1062.69C48.44,-1082.8 67.45,-1114.26 93,-1132 109.88,-1143.72 130.54,-1151.52 150.27,-1156.71"/>
<polygon fill="midnightblue" stroke="midnightblue" points="41.26,-1061.04 33.72,-1053.6 34.97,-1064.12 41.26,-1061.04"/>
</g>
<!-- Node16 -->
<g id="node14" class="node">
<title>Node16</title>
<g id="a_node14"><a xlink:href="structhydra_1_1detail_1_1is__hydra__lambda_3_01Functor_00_01hydra__thrust_1_1void__t_3_01typenam8750428a194d261b5eb6c32cc8b2c44f.html" target="_top" xlink:title="hydra::detail::is_hydra\l_lambda\&lt; Functor, hydra\l_thrust::void_t\&lt; typename\l Functor::hydra_lambda_type,\l typename Functor::argument\l_type, typename Functor::return_type \&gt; \&gt;">
<polygon fill="none" stroke="black" points="122.5,-1048 122.5,-1122 320.5,-1122 320.5,-1048 122.5,-1048"/>
<text text-anchor="start" x="130.5" y="-1110" font-family="Helvetica,sans-Serif" font-size="10.00">hydra::detail::is_hydra</text>
<text text-anchor="start" x="130.5" y="-1099" font-family="Helvetica,sans-Serif" font-size="10.00">_lambda&lt; Functor, hydra</text>
<text text-anchor="start" x="130.5" y="-1088" font-family="Helvetica,sans-Serif" font-size="10.00">_thrust::void_t&lt; typename</text>
<text text-anchor="start" x="130.5" y="-1077" font-family="Helvetica,sans-Serif" font-size="10.00"> Functor::hydra_lambda_type,</text>
<text text-anchor="start" x="130.5" y="-1066" font-family="Helvetica,sans-Serif" font-size="10.00"> typename Functor::argument</text>
<text text-anchor="middle" x="221.5" y="-1055" font-family="Helvetica,sans-Serif" font-size="10.00">_type, typename Functor::return_type &gt; &gt;</text>
</a>
</g>
</g>
<!-- Node3&#45;&gt;Node16 -->
<g id="edge13" class="edge">
<title>Node3&#45;&gt;Node16</title>
<path fill="none" stroke="midnightblue" d="M67.27,-1052.11C83.29,-1055.55 102.79,-1059.73 122.43,-1063.95"/>
<polygon fill="midnightblue" stroke="midnightblue" points="67.78,-1048.64 57.27,-1049.96 66.32,-1055.48 67.78,-1048.64"/>
</g>
<!-- Node17 -->
<g id="node15" class="node">
<title>Node17</title>
<g id="a_node15"><a xlink:href="structhydra_1_1detail_1_1is__hydra__pdf_3_01T_00_01hydra__thrust_1_1void__t_3_01typename_01T_1_1hydra__pdf__type_01_4_01_4.html" target="_top" xlink:title="hydra::detail::is_hydra\l_pdf\&lt; T, hydra_thrust\l::void_t\&lt; typename T::hydra\l_pdf_type \&gt; \&gt;">
<polygon fill="none" stroke="black" points="152.5,-977 152.5,-1029 290.5,-1029 290.5,-977 152.5,-977"/>
<text text-anchor="start" x="160.5" y="-1017" font-family="Helvetica,sans-Serif" font-size="10.00">hydra::detail::is_hydra</text>
<text text-anchor="start" x="160.5" y="-1006" font-family="Helvetica,sans-Serif" font-size="10.00">_pdf&lt; T, hydra_thrust</text>
<text text-anchor="start" x="160.5" y="-995" font-family="Helvetica,sans-Serif" font-size="10.00">::void_t&lt; typename T::hydra</text>
<text text-anchor="middle" x="221.5" y="-984" font-family="Helvetica,sans-Serif" font-size="10.00">_pdf_type &gt; &gt;</text>
</a>
</g>
</g>
<!-- Node3&#45;&gt;Node17 -->
<g id="edge14" class="edge">
<title>Node3&#45;&gt;Node17</title>
<path fill="none" stroke="midnightblue" d="M67.14,-1035.92C91.39,-1030.72 123.62,-1023.8 152.27,-1017.65"/>
<polygon fill="midnightblue" stroke="midnightblue" points="66.32,-1032.52 57.27,-1038.04 67.78,-1039.36 66.32,-1032.52"/>
</g>
<!-- Node18 -->
<g id="node16" class="node">
<title>Node18</title>
<g id="a_node16"><a xlink:href="structhydra_1_1detail_1_1is__hydra__sparse__histogram_3_01hydra_1_1SparseHistogram_3_01T_00_01N_f0e8aca59eda1633a4e7f9f8573f0524.html" target="_top" xlink:title="hydra::detail::is_hydra\l_sparse_histogram\&lt; hydra\l::SparseHistogram\&lt; T, N,\l detail::BackendPolicy\&lt; BACKEND\l \&gt;, D \&gt; \&gt;">
<polygon fill="none" stroke="black" points="135,-894.5 135,-957.5 308,-957.5 308,-894.5 135,-894.5"/>
<text text-anchor="start" x="143" y="-945.5" font-family="Helvetica,sans-Serif" font-size="10.00">hydra::detail::is_hydra</text>
<text text-anchor="start" x="143" y="-934.5" font-family="Helvetica,sans-Serif" font-size="10.00">_sparse_histogram&lt; hydra</text>
<text text-anchor="start" x="143" y="-923.5" font-family="Helvetica,sans-Serif" font-size="10.00">::SparseHistogram&lt; T, N,</text>
<text text-anchor="start" x="143" y="-912.5" font-family="Helvetica,sans-Serif" font-size="10.00"> detail::BackendPolicy&lt; BACKEND</text>
<text text-anchor="middle" x="221.5" y="-901.5" font-family="Helvetica,sans-Serif" font-size="10.00"> &gt;, D &gt; &gt;</text>
</a>
</g>
</g>
<!-- Node3&#45;&gt;Node18 -->
<g id="edge15" class="edge">
<title>Node3&#45;&gt;Node18</title>
<path fill="none" stroke="midnightblue" d="M40.46,-1025.75C51.66,-1008.56 70.56,-983.24 93,-968 105.63,-959.42 120.14,-952.49 134.75,-946.91"/>
<polygon fill="midnightblue" stroke="midnightblue" points="37.41,-1024.02 35.06,-1034.35 43.34,-1027.74 37.41,-1024.02"/>
</g>
<!-- Node19 -->
<g id="node17" class="node">
<title>Node19</title>
<g id="a_node17"><a xlink:href="structhydra_1_1detail_1_1is__hydra__sum__pdf_3_01T_00_01typename_01tag__type_3_01typename_01T_1_cd81614c45a8283de0a328bd93194fef.html" target="_top" xlink:title="hydra::detail::is_hydra\l_sum_pdf\&lt; T, typename\l tag_type\&lt; typename T::\lhydra_sum_pdf_tag \&gt;::type \&gt;">
<polygon fill="none" stroke="black" points="149,-823 149,-875 294,-875 294,-823 149,-823"/>
<text text-anchor="start" x="157" y="-863" font-family="Helvetica,sans-Serif" font-size="10.00">hydra::detail::is_hydra</text>
<text text-anchor="start" x="157" y="-852" font-family="Helvetica,sans-Serif" font-size="10.00">_sum_pdf&lt; T, typename</text>
<text text-anchor="start" x="157" y="-841" font-family="Helvetica,sans-Serif" font-size="10.00"> tag_type&lt; typename T::</text>
<text text-anchor="middle" x="221.5" y="-830" font-family="Helvetica,sans-Serif" font-size="10.00">hydra_sum_pdf_tag &gt;::type &gt;</text>
</a>
</g>
</g>
<!-- Node3&#45;&gt;Node19 -->
<g id="edge16" class="edge">
<title>Node3&#45;&gt;Node19</title>
<path fill="none" stroke="midnightblue" d="M31.78,-1024.14C36.72,-990.51 51.5,-922.36 93,-885 108.47,-871.07 128.94,-862.49 148.93,-857.22"/>
<polygon fill="midnightblue" stroke="midnightblue" points="28.25,-1024.12 30.42,-1034.49 35.19,-1025.03 28.25,-1024.12"/>
</g>
<!-- Node20 -->
<g id="node18" class="node">
<title>Node20</title>
<g id="a_node18"><a xlink:href="structhydra_1_1detail_1_1is__instantiation__of_3_01Template_00_01Template_3_01Args_8_8_8_01_4_01_4.html" target="_top" xlink:title="hydra::detail::is_instantiation\l_of\&lt; Template, Template\&lt; Args... \&gt; \&gt;">
<polygon fill="none" stroke="black" points="131.5,-774 131.5,-804 311.5,-804 311.5,-774 131.5,-774"/>
<text text-anchor="start" x="139.5" y="-792" font-family="Helvetica,sans-Serif" font-size="10.00">hydra::detail::is_instantiation</text>
<text text-anchor="middle" x="221.5" y="-781" font-family="Helvetica,sans-Serif" font-size="10.00">_of&lt; Template, Template&lt; Args... &gt; &gt;</text>
</a>
</g>
</g>
<!-- Node3&#45;&gt;Node20 -->
<g id="edge17" class="edge">
<title>Node3&#45;&gt;Node20</title>
<path fill="none" stroke="midnightblue" d="M32.25,-1024.37C39.68,-974.17 61.72,-843 93,-814 103.75,-804.03 117.26,-797.51 131.44,-793.34"/>
<polygon fill="midnightblue" stroke="midnightblue" points="28.78,-1023.9 30.82,-1034.29 35.71,-1024.9 28.78,-1023.9"/>
</g>
<!-- Node21 -->
<g id="node19" class="node">
<title>Node21</title>
<g id="a_node19"><a xlink:href="structhydra_1_1detail_1_1is__iterable_3_01T_00_01hydra__thrust_1_1void__t_3_01decltype_07std_1_1dad664b788647f8b21c40fec4ff3be60.html" target="_top" xlink:title="hydra::detail::is_iterable\l\&lt; T, hydra_thrust::void\l_t\&lt; decltype(std::declval\l\&lt; T \&gt;().begin()), decltype\l(std::declval\&lt; T \&gt;().end())\l, decltype(++std::declval\&lt; decltype\l(hydra::begin(std::declval\&lt; T \&gt;()\l))&amp; \&gt;()), decltype(*hydra::begin(std\l::declval\&lt; T \&gt;())) \&gt; \&gt;">
<polygon fill="none" stroke="black" points="136.5,-647.5 136.5,-754.5 306.5,-754.5 306.5,-647.5 136.5,-647.5"/>
<text text-anchor="start" x="144.5" y="-742.5" font-family="Helvetica,sans-Serif" font-size="10.00">hydra::detail::is_iterable</text>
<text text-anchor="start" x="144.5" y="-731.5" font-family="Helvetica,sans-Serif" font-size="10.00">&lt; T, hydra_thrust::void</text>
<text text-anchor="start" x="144.5" y="-720.5" font-family="Helvetica,sans-Serif" font-size="10.00">_t&lt; decltype(std::declval</text>
<text text-anchor="start" x="144.5" y="-709.5" font-family="Helvetica,sans-Serif" font-size="10.00">&lt; T &gt;().begin()), decltype</text>
<text text-anchor="start" x="144.5" y="-698.5" font-family="Helvetica,sans-Serif" font-size="10.00">(std::declval&lt; T &gt;().end())</text>
<text text-anchor="start" x="144.5" y="-687.5" font-family="Helvetica,sans-Serif" font-size="10.00">, decltype(++std::declval&lt; decltype</text>
<text text-anchor="start" x="144.5" y="-676.5" font-family="Helvetica,sans-Serif" font-size="10.00">(hydra::begin(std::declval&lt; T &gt;()</text>
<text text-anchor="start" x="144.5" y="-665.5" font-family="Helvetica,sans-Serif" font-size="10.00">))&amp; &gt;()), decltype(*hydra::begin(std</text>
<text text-anchor="middle" x="221.5" y="-654.5" font-family="Helvetica,sans-Serif" font-size="10.00">::declval&lt; T &gt;())) &gt; &gt;</text>
</a>
</g>
</g>
<!-- Node3&#45;&gt;Node21 -->
<g id="edge18" class="edge">
<title>Node3&#45;&gt;Node21</title>
<path fill="none" stroke="midnightblue" d="M31.79,-1024.21C38.7,-967.54 60.82,-806.06 93,-765 104.38,-750.48 119.94,-738.99 136.27,-729.99"/>
<polygon fill="midnightblue" stroke="midnightblue" points="28.29,-1024.02 30.59,-1034.36 35.24,-1024.84 28.29,-1024.02"/>
</g>
<!-- Node22 -->
<g id="node20" class="node">
<title>Node22</title>
<g id="a_node20"><a xlink:href="structhydra_1_1detail_1_1is__iterator_3_01T_00_01hydra__thrust_1_1void__t_3_01typename_01std_1_1f4f8f83b484a6990de5649c5e71c7fc4.html" target="_top" xlink:title="hydra::detail::is_iterator\l\&lt; T, hydra_thrust::void\l_t\&lt; typename std::enable\l_if\&lt; std::is_default_constructible\l\&lt; T \&gt;::value, void \&gt;::type, typename\l std::enable_if\&lt; std::is_copy_constructible\l\&lt; T \&gt;::value, void \&gt;::type, typename std\l::enable_if\&lt; std::is_destructible\&lt; T \&gt;::value,\l void \&gt;::type, decltype(std::declval\&lt; T &amp; \&gt;\l()[0]), decltype(std::declval\&lt; T &amp; \&gt;() &#45;std::\ldeclval\&lt; T &amp; \&gt;()), decltype(++std::declval\&lt; T\l &amp; \&gt;()), decltype(*std::declval\&lt; T &amp; \&gt;()), decltype\l(std::declval\&lt; T &amp; \&gt;()==std::declval\&lt; T &amp; \&gt;()), decltype\l(std::declval\&lt; T &amp; \&gt;() !=std::declval\&lt; T &amp; \&gt;())\&gt; \&gt;">
<polygon fill="none" stroke="black" points="93,-466 93,-628 350,-628 350,-466 93,-466"/>
<text text-anchor="start" x="101" y="-616" font-family="Helvetica,sans-Serif" font-size="10.00">hydra::detail::is_iterator</text>
<text text-anchor="start" x="101" y="-605" font-family="Helvetica,sans-Serif" font-size="10.00">&lt; T, hydra_thrust::void</text>
<text text-anchor="start" x="101" y="-594" font-family="Helvetica,sans-Serif" font-size="10.00">_t&lt; typename std::enable</text>
<text text-anchor="start" x="101" y="-583" font-family="Helvetica,sans-Serif" font-size="10.00">_if&lt; std::is_default_constructible</text>
<text text-anchor="start" x="101" y="-572" font-family="Helvetica,sans-Serif" font-size="10.00">&lt; T &gt;::value, void &gt;::type, typename</text>
<text text-anchor="start" x="101" y="-561" font-family="Helvetica,sans-Serif" font-size="10.00"> std::enable_if&lt; std::is_copy_constructible</text>
<text text-anchor="start" x="101" y="-550" font-family="Helvetica,sans-Serif" font-size="10.00">&lt; T &gt;::value, void &gt;::type, typename std</text>
<text text-anchor="start" x="101" y="-539" font-family="Helvetica,sans-Serif" font-size="10.00">::enable_if&lt; std::is_destructible&lt; T &gt;::value,</text>
<text text-anchor="start" x="101" y="-528" font-family="Helvetica,sans-Serif" font-size="10.00"> void &gt;::type, decltype(std::declval&lt; T &amp; &gt;</text>
<text text-anchor="start" x="101" y="-517" font-family="Helvetica,sans-Serif" font-size="10.00">()[0]), decltype(std::declval&lt; T &amp; &gt;() &#45;std::</text>
<text text-anchor="start" x="101" y="-506" font-family="Helvetica,sans-Serif" font-size="10.00">declval&lt; T &amp; &gt;()), decltype(++std::declval&lt; T</text>
<text text-anchor="start" x="101" y="-495" font-family="Helvetica,sans-Serif" font-size="10.00"> &amp; &gt;()), decltype(*std::declval&lt; T &amp; &gt;()), decltype</text>
<text text-anchor="start" x="101" y="-484" font-family="Helvetica,sans-Serif" font-size="10.00">(std::declval&lt; T &amp; &gt;()==std::declval&lt; T &amp; &gt;()), decltype</text>
<text text-anchor="middle" x="221.5" y="-473" font-family="Helvetica,sans-Serif" font-size="10.00">(std::declval&lt; T &amp; &gt;() !=std::declval&lt; T &amp; &gt;())&gt; &gt;</text>
</a>
</g>
</g>
<!-- Node3&#45;&gt;Node22 -->
<g id="edge19" class="edge">
<title>Node3&#45;&gt;Node22</title>
<path fill="none" stroke="midnightblue" d="M30.59,-1024.06C34.85,-951.77 52.18,-704.13 93,-638 95.07,-634.64 97.32,-631.38 99.71,-628.2"/>
<polygon fill="midnightblue" stroke="midnightblue" points="27.07,-1024.26 30,-1034.45 34.06,-1024.66 27.07,-1024.26"/>
</g>
<!-- Node23 -->
<g id="node21" class="node">
<title>Node23</title>
<g id="a_node21"><a xlink:href="structhydra_1_1detail_1_1is__reverse__iterable_3_01T_00_01hydra__thrust_1_1void__t_3_01decltype_b769c76123d67ea846790a713f37cb2b.html" target="_top" xlink:title="hydra::detail::is_reverse\l_iterable\&lt; T, hydra_thrust\l::void_t\&lt; decltype(std::declval\l\&lt; T \&gt;().rbegin()), decltype(std\l::declval\&lt; T \&gt;().rend()), decltype\l(++std::declval\&lt; decltype(hydra::rbegin\l(std::declval\&lt; T \&gt;()))&amp; \&gt;()), decltype\l(*hydra::rbegin(std::declval\&lt; T \&gt;())) \&gt; \&gt;">
<polygon fill="none" stroke="black" points="128,-351 128,-447 315,-447 315,-351 128,-351"/>
<text text-anchor="start" x="136" y="-435" font-family="Helvetica,sans-Serif" font-size="10.00">hydra::detail::is_reverse</text>
<text text-anchor="start" x="136" y="-424" font-family="Helvetica,sans-Serif" font-size="10.00">_iterable&lt; T, hydra_thrust</text>
<text text-anchor="start" x="136" y="-413" font-family="Helvetica,sans-Serif" font-size="10.00">::void_t&lt; decltype(std::declval</text>
<text text-anchor="start" x="136" y="-402" font-family="Helvetica,sans-Serif" font-size="10.00">&lt; T &gt;().rbegin()), decltype(std</text>
<text text-anchor="start" x="136" y="-391" font-family="Helvetica,sans-Serif" font-size="10.00">::declval&lt; T &gt;().rend()), decltype</text>
<text text-anchor="start" x="136" y="-380" font-family="Helvetica,sans-Serif" font-size="10.00">(++std::declval&lt; decltype(hydra::rbegin</text>
<text text-anchor="start" x="136" y="-369" font-family="Helvetica,sans-Serif" font-size="10.00">(std::declval&lt; T &gt;()))&amp; &gt;()), decltype</text>
<text text-anchor="middle" x="221.5" y="-358" font-family="Helvetica,sans-Serif" font-size="10.00">(*hydra::rbegin(std::declval&lt; T &gt;())) &gt; &gt;</text>
</a>
</g>
</g>
<!-- Node3&#45;&gt;Node23 -->
<g id="edge20" class="edge">
<title>Node3&#45;&gt;Node23</title>
<path fill="none" stroke="midnightblue" d="M29.09,-1024.23C27.59,-932.68 25.49,-550.41 93,-457 102.05,-444.48 114.45,-434.61 127.99,-426.83"/>
<polygon fill="midnightblue" stroke="midnightblue" points="25.6,-1024.4 29.28,-1034.34 32.6,-1024.27 25.6,-1024.4"/>
</g>
<!-- Node24 -->
<g id="node22" class="node">
<title>Node24</title>
<g id="a_node22"><a xlink:href="structhydra_1_1detail_1_1is__rng__formula_3_01hydra_1_1RngFormula_3_01Formula_01_4_01_4.html" target="_top" xlink:title="hydra::detail::is_rng\l_formula\&lt; hydra::RngFormula\l\&lt; Formula \&gt; \&gt;">
<polygon fill="none" stroke="black" points="148.5,-290.5 148.5,-331.5 294.5,-331.5 294.5,-290.5 148.5,-290.5"/>
<text text-anchor="start" x="156.5" y="-319.5" font-family="Helvetica,sans-Serif" font-size="10.00">hydra::detail::is_rng</text>
<text text-anchor="start" x="156.5" y="-308.5" font-family="Helvetica,sans-Serif" font-size="10.00">_formula&lt; hydra::RngFormula</text>
<text text-anchor="middle" x="221.5" y="-297.5" font-family="Helvetica,sans-Serif" font-size="10.00">&lt; Formula &gt; &gt;</text>
</a>
</g>
</g>
<!-- Node3&#45;&gt;Node24 -->
<g id="edge21" class="edge">
<title>Node3&#45;&gt;Node24</title>
<path fill="none" stroke="midnightblue" d="M29.94,-1024.21C32.52,-915.61 47.24,-395.11 93,-342 106.9,-325.86 127.66,-317.38 148.41,-313.11"/>
<polygon fill="midnightblue" stroke="midnightblue" points="26.44,-1024.32 29.7,-1034.39 33.43,-1024.48 26.44,-1024.32"/>
</g>
<!-- Node25 -->
<g id="node23" class="node">
<title>Node25</title>
<g id="a_node23"><a xlink:href="structhydra_1_1detail_1_1is__specialization_3_01REF_3_01Args_8_8_8_01_4_00_01REF_01_4.html" target="_top" xlink:title="hydra::detail::is_specialization\l\&lt; REF\&lt; Args... \&gt;, REF \&gt;">
<polygon fill="none" stroke="black" points="147.5,-241 147.5,-271 295.5,-271 295.5,-241 147.5,-241"/>
<text text-anchor="start" x="155.5" y="-259" font-family="Helvetica,sans-Serif" font-size="10.00">hydra::detail::is_specialization</text>
<text text-anchor="middle" x="221.5" y="-248" font-family="Helvetica,sans-Serif" font-size="10.00">&lt; REF&lt; Args... &gt;, REF &gt;</text>
</a>
</g>
</g>
<!-- Node3&#45;&gt;Node25 -->
<g id="edge22" class="edge">
<title>Node3&#45;&gt;Node25</title>
<path fill="none" stroke="midnightblue" d="M29.75,-1024.26C31.36,-910.14 41.95,-338.03 93,-281 106.77,-265.62 126.98,-258.04 147.27,-254.65"/>
<polygon fill="midnightblue" stroke="midnightblue" points="26.25,-1024.31 29.61,-1034.36 33.25,-1024.4 26.25,-1024.31"/>
</g>
<!-- Node26 -->
<g id="node24" class="node">
<title>Node26</title>
<g id="a_node24"><a xlink:href="structhydra_1_1detail_1_1is__tuple_3_01hydra_1_1tuple_3_01T_8_8_8_01_4_01_4.html" target="_top" xlink:title="hydra::detail::is_tuple\l\&lt; hydra::tuple\&lt; T... \&gt; \&gt;">
<polygon fill="none" stroke="black" points="163,-192 163,-222 280,-222 280,-192 163,-192"/>
<text text-anchor="start" x="171" y="-210" font-family="Helvetica,sans-Serif" font-size="10.00">hydra::detail::is_tuple</text>
<text text-anchor="middle" x="221.5" y="-199" font-family="Helvetica,sans-Serif" font-size="10.00">&lt; hydra::tuple&lt; T... &gt; &gt;</text>
</a>
</g>
</g>
<!-- Node3&#45;&gt;Node26 -->
<g id="edge23" class="edge">
<title>Node3&#45;&gt;Node26</title>
<path fill="none" stroke="midnightblue" d="M29.64,-1024.11C30.69,-905.36 38.68,-293 93,-232 110.25,-212.63 137.73,-205.62 162.77,-203.77"/>
<polygon fill="midnightblue" stroke="midnightblue" points="26.14,-1024.27 29.56,-1034.29 33.14,-1024.32 26.14,-1024.27"/>
</g>
<!-- Node27 -->
<g id="node25" class="node">
<title>Node27</title>
<g id="a_node25"><a xlink:href="structhydra_1_1detail_1_1is__tuple__type_3_01hydra__thrust_1_1detail_1_1tuple__of__iterator__ref918b4c0478eb726f13586ea6416d2daf.html" target="_top" xlink:title="hydra::detail::is_tuple\l_type\&lt; hydra_thrust::detail\l::tuple_of_iterator_references\l\&lt; ArgTypes... \&gt; \&gt;">
<polygon fill="none" stroke="black" points="150,-121 150,-173 293,-173 293,-121 150,-121"/>
<text text-anchor="start" x="158" y="-161" font-family="Helvetica,sans-Serif" font-size="10.00">hydra::detail::is_tuple</text>
<text text-anchor="start" x="158" y="-150" font-family="Helvetica,sans-Serif" font-size="10.00">_type&lt; hydra_thrust::detail</text>
<text text-anchor="start" x="158" y="-139" font-family="Helvetica,sans-Serif" font-size="10.00">::tuple_of_iterator_references</text>
<text text-anchor="middle" x="221.5" y="-128" font-family="Helvetica,sans-Serif" font-size="10.00">&lt; ArgTypes... &gt; &gt;</text>
</a>
</g>
</g>
<!-- Node3&#45;&gt;Node27 -->
<g id="edge24" class="edge">
<title>Node3&#45;&gt;Node27</title>
<path fill="none" stroke="midnightblue" d="M29.62,-1024.13C30.56,-901.48 38.08,-250.28 93,-183 106.96,-165.89 128.38,-156.56 149.71,-151.56"/>
<polygon fill="midnightblue" stroke="midnightblue" points="26.12,-1024.29 29.55,-1034.32 33.12,-1024.34 26.12,-1024.29"/>
</g>
<!-- Node28 -->
<g id="node26" class="node">
<title>Node28</title>
<g id="a_node26"><a xlink:href="structhydra_1_1detail_1_1is__tuple__type_3_01hydra__thrust_1_1tuple_3_01ArgTypes_8_8_8_01_4_01_4.html" target="_top" xlink:title="hydra::detail::is_tuple\l_type\&lt; hydra_thrust::tuple\l\&lt; ArgTypes... \&gt; \&gt;">
<polygon fill="none" stroke="black" points="156,-60.5 156,-101.5 287,-101.5 287,-60.5 156,-60.5"/>
<text text-anchor="start" x="164" y="-89.5" font-family="Helvetica,sans-Serif" font-size="10.00">hydra::detail::is_tuple</text>
<text text-anchor="start" x="164" y="-78.5" font-family="Helvetica,sans-Serif" font-size="10.00">_type&lt; hydra_thrust::tuple</text>
<text text-anchor="middle" x="221.5" y="-67.5" font-family="Helvetica,sans-Serif" font-size="10.00">&lt; ArgTypes... &gt; &gt;</text>
</a>
</g>
</g>
<!-- Node3&#45;&gt;Node28 -->
<g id="edge25" class="edge">
<title>Node3&#45;&gt;Node28</title>
<path fill="none" stroke="midnightblue" d="M29.47,-1024.09C29.47,-895.41 32.2,-184.16 93,-112 108.41,-93.71 132.63,-85.21 155.84,-81.54"/>
<polygon fill="midnightblue" stroke="midnightblue" points="25.97,-1024.41 29.48,-1034.41 32.97,-1024.4 25.97,-1024.41"/>
</g>
<!-- Node29 -->
<g id="node27" class="node">
<title>Node29</title>
<g id="a_node27"><a xlink:href="structhydra_1_1detail_1_1is__zip__iterator_3_01hydra__thrust_1_1zip__iterator_3_01T_8_8_8_01_4_01_4.html" target="_top" xlink:title="hydra::detail::is_zip\l_iterator\&lt; hydra_thrust\l::zip_iterator\&lt; T... \&gt; \&gt;">
<polygon fill="none" stroke="black" points="164,-0.5 164,-41.5 279,-41.5 279,-0.5 164,-0.5"/>
<text text-anchor="start" x="172" y="-29.5" font-family="Helvetica,sans-Serif" font-size="10.00">hydra::detail::is_zip</text>
<text text-anchor="start" x="172" y="-18.5" font-family="Helvetica,sans-Serif" font-size="10.00">_iterator&lt; hydra_thrust</text>
<text text-anchor="middle" x="221.5" y="-7.5" font-family="Helvetica,sans-Serif" font-size="10.00">::zip_iterator&lt; T... &gt; &gt;</text>
</a>
</g>
</g>
<!-- Node3&#45;&gt;Node29 -->
<g id="edge26" class="edge">
<title>Node3&#45;&gt;Node29</title>
<path fill="none" stroke="midnightblue" d="M29.38,-1024.04C28.73,-890.36 27.91,-128 93,-51 110.18,-30.68 138.28,-22.67 163.74,-19.96"/>
<polygon fill="midnightblue" stroke="midnightblue" points="25.88,-1024.41 29.43,-1034.39 32.88,-1024.37 25.88,-1024.41"/>
</g>
</g>
</svg>
