<?xml version="1.0" encoding="UTF-8" standalone="no"?>
<!DOCTYPE svg PUBLIC "-//W3C//DTD SVG 1.1//EN"
 "http://www.w3.org/Graphics/SVG/1.1/DTD/svg11.dtd">
<!-- Generated by graphviz version 2.42.4 (0)
 -->
<!-- Title: Graphical Class Hierarchy Pages: 1 -->
<svg width="413pt" height="443pt"
 viewBox="0.00 0.00 413.00 442.50" xmlns="http://www.w3.org/2000/svg" xmlns:xlink="http://www.w3.org/1999/xlink">
<g id="graph0" class="graph" transform="scale(1 1) rotate(0) translate(4 438.5)">
<title>Graphical Class Hierarchy</title>
<!-- Node81 -->
<g id="node1" class="node">
<title>Node81</title>
<polygon fill="none" stroke="#bfbfbf" points="0,-213.5 0,-232.5 35,-232.5 35,-213.5 0,-213.5"/>
<text text-anchor="middle" x="17.5" y="-220.5" font-family="Helvetica,sans-Serif" font-size="10.00">type</text>
</g>
<!-- Node0 -->
<g id="node2" class="node">
<title>Node0</title>
<g id="a_node2"><a xlink:href="structhydra_1_1detail_1_1are__base__of.html" target="_top" xlink:title="hydra::detail::are\l_base_of\&lt; Base, T, Ts \&gt;">
<polygon fill="none" stroke="black" points="84,-404 84,-434 207,-434 207,-404 84,-404"/>
<text text-anchor="start" x="92" y="-422" font-family="Helvetica,sans-Serif" font-size="10.00">hydra::detail::are</text>
<text text-anchor="middle" x="145.5" y="-411" font-family="Helvetica,sans-Serif" font-size="10.00">_base_of&lt; Base, T, Ts &gt;</text>
</a>
</g>
</g>
<!-- Node81&#45;&gt;Node0 -->
<g id="edge1" class="edge">
<title>Node81&#45;&gt;Node0</title>
<path fill="none" stroke="midnightblue" d="M18.88,-242.74C20.63,-278.11 29.38,-352.56 71,-395 74.76,-398.83 79.14,-402.05 83.85,-404.76"/>
<polygon fill="midnightblue" stroke="midnightblue" points="22.37,-242.59 18.52,-232.72 15.38,-242.83 22.37,-242.59"/>
</g>
<!-- Node83 -->
<g id="node3" class="node">
<title>Node83</title>
<g id="a_node3"><a xlink:href="structhydra_1_1detail_1_1are__iterables.html" target="_top" xlink:title="hydra::detail::are\l_iterables\&lt; Iterables \&gt;">
<polygon fill="none" stroke="black" points="88.5,-355 88.5,-385 202.5,-385 202.5,-355 88.5,-355"/>
<text text-anchor="start" x="96.5" y="-373" font-family="Helvetica,sans-Serif" font-size="10.00">hydra::detail::are</text>
<text text-anchor="middle" x="145.5" y="-362" font-family="Helvetica,sans-Serif" font-size="10.00">_iterables&lt; Iterables &gt;</text>
</a>
</g>
</g>
<!-- Node81&#45;&gt;Node83 -->
<g id="edge2" class="edge">
<title>Node81&#45;&gt;Node83</title>
<path fill="none" stroke="midnightblue" d="M21.7,-242.69C27.1,-269.73 40.59,-318.15 71,-346 76.05,-350.62 82,-354.36 88.3,-357.37"/>
<polygon fill="midnightblue" stroke="midnightblue" points="25.08,-241.75 19.85,-232.54 18.2,-243 25.08,-241.75"/>
</g>
<!-- Node84 -->
<g id="node4" class="node">
<title>Node84</title>
<g id="a_node4"><a xlink:href="structhydra_1_1detail_1_1are__iterators.html" target="_top" xlink:title="hydra::detail::are\l_iterators\&lt; Iterators \&gt;">
<polygon fill="none" stroke="black" points="90,-306 90,-336 201,-336 201,-306 90,-306"/>
<text text-anchor="start" x="98" y="-324" font-family="Helvetica,sans-Serif" font-size="10.00">hydra::detail::are</text>
<text text-anchor="middle" x="145.5" y="-313" font-family="Helvetica,sans-Serif" font-size="10.00">_iterators&lt; Iterators &gt;</text>
</a>
</g>
</g>
<!-- Node81&#45;&gt;Node84 -->
<g id="edge3" class="edge">
<title>Node81&#45;&gt;Node84</title>
<path fill="none" stroke="midnightblue" d="M27.55,-242.02C36.43,-258.75 51.46,-282.61 71,-297 76.73,-301.22 83.24,-304.72 89.95,-307.62"/>
<polygon fill="midnightblue" stroke="midnightblue" points="30.47,-240.03 22.84,-232.68 24.22,-243.18 30.47,-240.03"/>
</g>
<!-- Node85 -->
<g id="node5" class="node">
<title>Node85</title>
<g id="a_node5"><a xlink:href="structhydra_1_1detail_1_1conditions__and_3_01Cond_00_01Conds_8_8_8_01_4.html" target="_top" xlink:title="hydra::detail::conditions\l_and\&lt; Cond, Conds... \&gt;">
<polygon fill="none" stroke="black" points="84.5,-257 84.5,-287 206.5,-287 206.5,-257 84.5,-257"/>
<text text-anchor="start" x="92.5" y="-275" font-family="Helvetica,sans-Serif" font-size="10.00">hydra::detail::conditions</text>
<text text-anchor="middle" x="145.5" y="-264" font-family="Helvetica,sans-Serif" font-size="10.00">_and&lt; Cond, Conds... &gt;</text>
</a>
</g>
</g>
<!-- Node81&#45;&gt;Node85 -->
<g id="edge4" class="edge">
<title>Node81&#45;&gt;Node85</title>
<path fill="none" stroke="midnightblue" d="M44.25,-236.08C52.68,-240.13 62.15,-244.46 71,-248 78.85,-251.14 87.29,-254.18 95.55,-256.99"/>
<polygon fill="midnightblue" stroke="midnightblue" points="45.8,-232.93 35.28,-231.67 42.71,-239.22 45.8,-232.93"/>
</g>
<!-- Node86 -->
<g id="node6" class="node">
<title>Node86</title>
<g id="a_node6"><a xlink:href="structhydra_1_1detail_1_1is__homogeneous__base.html" target="_top" xlink:title="hydra::detail::is_homogeneous\l_base\&lt; A, Tp, I \&gt;">
<polygon fill="none" stroke="black" points="71,-208 71,-238 220,-238 220,-208 71,-208"/>
<text text-anchor="start" x="79" y="-226" font-family="Helvetica,sans-Serif" font-size="10.00">hydra::detail::is_homogeneous</text>
<text text-anchor="middle" x="145.5" y="-215" font-family="Helvetica,sans-Serif" font-size="10.00">_base&lt; A, Tp, I &gt;</text>
</a>
</g>
</g>
<!-- Node81&#45;&gt;Node86 -->
<g id="edge5" class="edge">
<title>Node81&#45;&gt;Node86</title>
<path fill="none" stroke="midnightblue" d="M45.33,-223C53.04,-223 61.85,-223 70.96,-223"/>
<polygon fill="midnightblue" stroke="midnightblue" points="45.23,-219.5 35.23,-223 45.23,-226.5 45.23,-219.5"/>
</g>
<!-- Node87 -->
<g id="node7" class="node">
<title>Node87</title>
<g id="a_node7"><a xlink:href="structhydra_1_1detail_1_1random_1_1is__callable.html" target="_top" xlink:title="hydra::detail::random\l::is_callable\&lt; T \&gt;">
<polygon fill="none" stroke="black" points="91.5,-159 91.5,-189 199.5,-189 199.5,-159 91.5,-159"/>
<text text-anchor="start" x="99.5" y="-177" font-family="Helvetica,sans-Serif" font-size="10.00">hydra::detail::random</text>
<text text-anchor="middle" x="145.5" y="-166" font-family="Helvetica,sans-Serif" font-size="10.00">::is_callable&lt; T &gt;</text>
</a>
</g>
</g>
<!-- Node81&#45;&gt;Node87 -->
<g id="edge6" class="edge">
<title>Node81&#45;&gt;Node87</title>
<path fill="none" stroke="midnightblue" d="M44.6,-210.44C52.95,-206.59 62.3,-202.46 71,-199 79.64,-195.56 88.97,-192.17 97.97,-189.03"/>
<polygon fill="midnightblue" stroke="midnightblue" points="42.91,-207.37 35.34,-214.78 45.88,-213.71 42.91,-207.37"/>
</g>
<!-- Node88 -->
<g id="node8" class="node">
<title>Node88</title>
<g id="a_node8"><a xlink:href="structhydra_1_1detail_1_1random_1_1is__iterable.html" target="_top" xlink:title="hydra::detail::random\l::is_iterable\&lt; T \&gt;">
<polygon fill="none" stroke="black" points="91.5,-110 91.5,-140 199.5,-140 199.5,-110 91.5,-110"/>
<text text-anchor="start" x="99.5" y="-128" font-family="Helvetica,sans-Serif" font-size="10.00">hydra::detail::random</text>
<text text-anchor="middle" x="145.5" y="-117" font-family="Helvetica,sans-Serif" font-size="10.00">::is_iterable&lt; T &gt;</text>
</a>
</g>
</g>
<!-- Node81&#45;&gt;Node88 -->
<g id="edge7" class="edge">
<title>Node81&#45;&gt;Node88</title>
<path fill="none" stroke="midnightblue" d="M27.66,-204.29C36.6,-187.83 51.68,-164.31 71,-150 77.17,-145.43 84.24,-141.65 91.5,-138.54"/>
<polygon fill="midnightblue" stroke="midnightblue" points="24.39,-203 22.9,-213.49 30.6,-206.22 24.39,-203"/>
</g>
<!-- Node89 -->
<g id="node9" class="node">
<title>Node89</title>
<g id="a_node9"><a xlink:href="structhydra_1_1detail_1_1random_1_1is__iterator.html" target="_top" xlink:title="hydra::detail::random\l::is_iterator\&lt; T \&gt;">
<polygon fill="none" stroke="black" points="91.5,-61 91.5,-91 199.5,-91 199.5,-61 91.5,-61"/>
<text text-anchor="start" x="99.5" y="-79" font-family="Helvetica,sans-Serif" font-size="10.00">hydra::detail::random</text>
<text text-anchor="middle" x="145.5" y="-68" font-family="Helvetica,sans-Serif" font-size="10.00">::is_iterator&lt; T &gt;</text>
</a>
</g>
</g>
<!-- Node81&#45;&gt;Node89 -->
<g id="edge8" class="edge">
<title>Node81&#45;&gt;Node89</title>
<path fill="none" stroke="midnightblue" d="M21.87,-203.12C27.44,-176.29 41.07,-128.67 71,-101 76.84,-95.6 83.89,-91.36 91.29,-88.04"/>
<polygon fill="midnightblue" stroke="midnightblue" points="18.38,-202.75 19.96,-213.23 25.26,-204.05 18.38,-202.75"/>
</g>
<!-- Node90 -->
<g id="node10" class="node">
<title>Node90</title>
<g id="a_node10"><a xlink:href="structhydra_1_1detail_1_1is__homogeneous__base.html" target="_top" xlink:title="hydra::detail::is_homogeneous\l_base\&lt; A, Tuple, hydra_thrust\l::tuple_size\&lt; Tuple \&gt;::value \&gt;">
<polygon fill="none" stroke="black" points="71,-0.5 71,-41.5 220,-41.5 220,-0.5 71,-0.5"/>
<text text-anchor="start" x="79" y="-29.5" font-family="Helvetica,sans-Serif" font-size="10.00">hydra::detail::is_homogeneous</text>
<text text-anchor="start" x="79" y="-18.5" font-family="Helvetica,sans-Serif" font-size="10.00">_base&lt; A, Tuple, hydra_thrust</text>
<text text-anchor="middle" x="145.5" y="-7.5" font-family="Helvetica,sans-Serif" font-size="10.00">::tuple_size&lt; Tuple &gt;::value &gt;</text>
</a>
</g>
</g>
<!-- Node81&#45;&gt;Node90 -->
<g id="edge9" class="edge">
<title>Node81&#45;&gt;Node90</title>
<path fill="none" stroke="midnightblue" d="M19.33,-202.76C21.82,-167.75 31.72,-95.47 71,-52 74.53,-48.1 78.63,-44.67 83.05,-41.66"/>
<polygon fill="midnightblue" stroke="midnightblue" points="15.82,-202.92 18.74,-213.11 22.81,-203.32 15.82,-202.92"/>
</g>
<!-- Node91 -->
<g id="node11" class="node">
<title>Node91</title>
<g id="a_node11"><a xlink:href="structhydra_1_1detail_1_1is__homogeneous.html" target="_top" xlink:title="hydra::detail::is_homogeneous\l\&lt; A, Tuple \&gt;">
<polygon fill="none" stroke="black" points="256,-6 256,-36 405,-36 405,-6 256,-6"/>
<text text-anchor="start" x="264" y="-24" font-family="Helvetica,sans-Serif" font-size="10.00">hydra::detail::is_homogeneous</text>
<text text-anchor="middle" x="330.5" y="-13" font-family="Helvetica,sans-Serif" font-size="10.00">&lt; A, Tuple &gt;</text>
</a>
</g>
</g>
<!-- Node90&#45;&gt;Node91 -->
<g id="edge10" class="edge">
<title>Node90&#45;&gt;Node91</title>
<path fill="none" stroke="midnightblue" d="M230.39,-21C238.84,-21 247.38,-21 255.71,-21"/>
<polygon fill="midnightblue" stroke="midnightblue" points="230.14,-17.5 220.14,-21 230.14,-24.5 230.14,-17.5"/>
</g>
</g>
</svg>
