<?xml version="1.0" encoding="UTF-8" standalone="no"?>
<!DOCTYPE svg PUBLIC "-//W3C//DTD SVG 1.1//EN"
 "http://www.w3.org/Graphics/SVG/1.1/DTD/svg11.dtd">
<!-- Generated by graphviz version 2.40.1 (20161225.0304)
 -->
<!-- Title: Graphical Class Hierarchy Pages: 1 -->
<svg width="279pt" height="312pt"
 viewBox="0.00 0.00 279.00 312.00" xmlns="http://www.w3.org/2000/svg" xmlns:xlink="http://www.w3.org/1999/xlink">
<g id="graph0" class="graph" transform="scale(1 1) rotate(0) translate(4 308)">
<title>Graphical Class Hierarchy</title>
<!-- Node186 -->
<g id="node1" class="node">
<title>Node186</title>
<polygon fill="none" stroke="#bfbfbf" points="0,-142.5 0,-161.5 83,-161.5 83,-142.5 0,-142.5"/>
<text text-anchor="middle" x="41.5" y="-149.5" font-family="Helvetica,sans-Serif" font-size="10.00" fill="#000000">binary_function</text>
</g>
<!-- Node0 -->
<g id="node2" class="node">
<title>Node0</title>
<g id="a_node2"><a xlink:href="structhydra_1_1detail_1_1AddStatsPHSP.html" target="_top" xlink:title="hydra::detail::AddStatsPHSP">
<polygon fill="none" stroke="#000000" points="123.5,-284.5 123.5,-303.5 266.5,-303.5 266.5,-284.5 123.5,-284.5"/>
<text text-anchor="middle" x="195" y="-291.5" font-family="Helvetica,sans-Serif" font-size="10.00" fill="#000000">hydra::detail::AddStatsPHSP</text>
</a>
</g>
</g>
<!-- Node186&#45;&gt;Node0 -->
<g id="edge1" class="edge">
<title>Node186&#45;&gt;Node0</title>
<path fill="none" stroke="#191970" d="M48.3473,-171.4004C59.0427,-198.807 82.3653,-248.4702 119,-275 124.3976,-278.9088 130.5133,-282.0173 136.8744,-284.4887"/>
<polygon fill="#191970" stroke="#191970" points="51.5287,-169.9147 44.7539,-161.7689 44.9703,-172.3615 51.5287,-169.9147"/>
</g>
<!-- Node188 -->
<g id="node3" class="node">
<title>Node188</title>
<g id="a_node3"><a xlink:href="structhydra_1_1detail_1_1CovMatrixBinary.html" target="_top" xlink:title="hydra::detail::CovMatrix\lBinary\&lt; T \&gt;">
<polygon fill="none" stroke="#000000" points="135,-235 135,-265 255,-265 255,-235 135,-235"/>
<text text-anchor="start" x="143" y="-253" font-family="Helvetica,sans-Serif" font-size="10.00" fill="#000000">hydra::detail::CovMatrix</text>
<text text-anchor="middle" x="195" y="-242" font-family="Helvetica,sans-Serif" font-size="10.00" fill="#000000">Binary&lt; T &gt;</text>
</a>
</g>
</g>
<!-- Node186&#45;&gt;Node188 -->
<g id="edge2" class="edge">
<title>Node186&#45;&gt;Node188</title>
<path fill="none" stroke="#191970" d="M55.6474,-169.5284C69.9919,-186.2338 93.6377,-211.0001 119,-226 124.7167,-229.381 130.9614,-232.3378 137.3353,-234.9107"/>
<polygon fill="#191970" stroke="#191970" points="58.1347,-167.0468 49.0342,-161.6217 52.7653,-171.5379 58.1347,-167.0468"/>
</g>
<!-- Node189 -->
<g id="node4" class="node">
<title>Node189</title>
<g id="a_node4"><a xlink:href="structhydra_1_1detail_1_1EvalOnDaughtersBinary.html" target="_top" xlink:title="hydra::detail::EvalOnDaughters\lBinary">
<polygon fill="none" stroke="#000000" points="119,-186 119,-216 271,-216 271,-186 119,-186"/>
<text text-anchor="start" x="127" y="-204" font-family="Helvetica,sans-Serif" font-size="10.00" fill="#000000">hydra::detail::EvalOnDaughters</text>
<text text-anchor="middle" x="195" y="-193" font-family="Helvetica,sans-Serif" font-size="10.00" fill="#000000">Binary</text>
</a>
</g>
</g>
<!-- Node186&#45;&gt;Node189 -->
<g id="edge3" class="edge">
<title>Node186&#45;&gt;Node189</title>
<path fill="none" stroke="#191970" d="M80.4702,-164.6228C92.7896,-168.5993 106.4599,-172.9974 119,-177 128.0953,-179.903 137.8088,-182.9847 147.1466,-185.9378"/>
<polygon fill="#191970" stroke="#191970" points="81.519,-161.2836 70.9273,-161.5398 79.367,-167.9446 81.519,-161.2836"/>
</g>
<!-- Node190 -->
<g id="node5" class="node">
<title>Node190</title>
<g id="a_node5"><a xlink:href="structhydra_1_1detail_1_1ProcessBoxesVegas.html" target="_top" xlink:title="hydra::detail::ProcessBoxes\lVegas">
<polygon fill="none" stroke="#000000" points="125,-137 125,-167 265,-167 265,-137 125,-137"/>
<text text-anchor="start" x="133" y="-155" font-family="Helvetica,sans-Serif" font-size="10.00" fill="#000000">hydra::detail::ProcessBoxes</text>
<text text-anchor="middle" x="195" y="-144" font-family="Helvetica,sans-Serif" font-size="10.00" fill="#000000">Vegas</text>
</a>
</g>
</g>
<!-- Node186&#45;&gt;Node190 -->
<g id="edge4" class="edge">
<title>Node186&#45;&gt;Node190</title>
<path fill="none" stroke="#191970" d="M93.2992,-152C103.4021,-152 114.1522,-152 124.7366,-152"/>
<polygon fill="#191970" stroke="#191970" points="93.0393,-148.5001 83.0393,-152 93.0393,-155.5001 93.0393,-148.5001"/>
</g>
<!-- Node191 -->
<g id="node6" class="node">
<title>Node191</title>
<g id="a_node6"><a xlink:href="structhydra_1_1detail_1_1ProcessCallsPlainBinary.html" target="_top" xlink:title="hydra::detail::ProcessCalls\lPlainBinary">
<polygon fill="none" stroke="#000000" points="128,-88 128,-118 262,-118 262,-88 128,-88"/>
<text text-anchor="start" x="136" y="-106" font-family="Helvetica,sans-Serif" font-size="10.00" fill="#000000">hydra::detail::ProcessCalls</text>
<text text-anchor="middle" x="195" y="-95" font-family="Helvetica,sans-Serif" font-size="10.00" fill="#000000">PlainBinary</text>
</a>
</g>
</g>
<!-- Node186&#45;&gt;Node191 -->
<g id="edge5" class="edge">
<title>Node186&#45;&gt;Node191</title>
<path fill="none" stroke="#191970" d="M81.0696,-139.3687C101.4733,-132.8554 126.4996,-124.8666 147.8944,-118.037"/>
<polygon fill="#191970" stroke="#191970" points="79.9228,-136.0607 71.4607,-142.436 82.0515,-142.7292 79.9228,-136.0607"/>
</g>
<!-- Node192 -->
<g id="node7" class="node">
<title>Node192</title>
<g id="a_node7"><a xlink:href="structhydra_1_1detail_1_1ProcessGenzMalikBinaryCall.html" target="_top" xlink:title="hydra::detail::ProcessGenz\lMalikBinaryCall\&lt; N \&gt;">
<polygon fill="none" stroke="#000000" points="127.5,-39 127.5,-69 262.5,-69 262.5,-39 127.5,-39"/>
<text text-anchor="start" x="135.5" y="-57" font-family="Helvetica,sans-Serif" font-size="10.00" fill="#000000">hydra::detail::ProcessGenz</text>
<text text-anchor="middle" x="195" y="-46" font-family="Helvetica,sans-Serif" font-size="10.00" fill="#000000">MalikBinaryCall&lt; N &gt;</text>
</a>
</g>
</g>
<!-- Node186&#45;&gt;Node192 -->
<g id="edge6" class="edge">
<title>Node186&#45;&gt;Node192</title>
<path fill="none" stroke="#191970" d="M56.2032,-134.2505C70.655,-117.8357 94.1094,-93.8071 119,-79 125.3268,-75.2363 132.2914,-71.9594 139.3586,-69.1291"/>
<polygon fill="#191970" stroke="#191970" points="53.3646,-132.1837 49.5065,-142.0512 58.6759,-136.7434 53.3646,-132.1837"/>
</g>
<!-- Node193 -->
<g id="node8" class="node">
<title>Node193</title>
<g id="a_node8"><a xlink:href="structhydra_1_1GaussKronrodBinary.html" target="_top" xlink:title="hydra::GaussKronrodBinary">
<polygon fill="none" stroke="#000000" points="126.5,-.5 126.5,-19.5 263.5,-19.5 263.5,-.5 126.5,-.5"/>
<text text-anchor="middle" x="195" y="-7.5" font-family="Helvetica,sans-Serif" font-size="10.00" fill="#000000">hydra::GaussKronrodBinary</text>
</a>
</g>
</g>
<!-- Node186&#45;&gt;Node193 -->
<g id="edge7" class="edge">
<title>Node186&#45;&gt;Node193</title>
<path fill="none" stroke="#191970" d="M48.4357,-132.8164C59.2391,-105.7048 82.6927,-56.533 119,-30 124.9485,-25.6529 131.769,-22.2499 138.829,-19.586"/>
<polygon fill="#191970" stroke="#191970" points="45.0959,-131.7516 44.8016,-142.3424 51.6361,-134.2467 45.0959,-131.7516"/>
</g>
</g>
</svg>
