<?xml version="1.0" encoding="UTF-8" standalone="no"?>
<!DOCTYPE svg PUBLIC "-//W3C//DTD SVG 1.1//EN"
 "http://www.w3.org/Graphics/SVG/1.1/DTD/svg11.dtd">
<!-- Generated by graphviz version 5.0.0 (0)
 -->
<!-- Title: Graphical Class Hierarchy Pages: 1 -->
<svg width="259pt" height="284pt"
 viewBox="0.00 0.00 259.00 284.00" xmlns="http://www.w3.org/2000/svg" xmlns:xlink="http://www.w3.org/1999/xlink">
<g id="graph0" class="graph" transform="scale(1 1) rotate(0) translate(4 280)">
<title>Graphical Class Hierarchy</title>
<!-- Node0 -->
<g id="node1" class="node">
<title>Node0</title>
<g id="a_node1"><a xlink:href="classhydra_1_1thrust_1_1unary__function.html" target="_top" xlink:title="unary_function">
<polygon fill="none" stroke="black" points="0,-128 0,-147 80,-147 80,-128 0,-128"/>
<text text-anchor="middle" x="40" y="-135" font-family="Helvetica,sans-Serif" font-size="10.00">unary_function</text>
</a>
</g>
</g>
<!-- Node1 -->
<g id="node2" class="node">
<title>Node1</title>
<g id="a_node2"><a xlink:href="structhydra_1_1detail_1_1Caster.html" target="_top" xlink:title="hydra::detail::Caster\l\&lt; TypeIn, TypeOut \&gt;">
<polygon fill="none" stroke="black" points="130,-245.5 130,-275.5 237,-275.5 237,-245.5 130,-245.5"/>
<text text-anchor="start" x="138" y="-263.5" font-family="Helvetica,sans-Serif" font-size="10.00">hydra::detail::Caster</text>
<text text-anchor="middle" x="183.5" y="-252.5" font-family="Helvetica,sans-Serif" font-size="10.00">&lt; TypeIn, TypeOut &gt;</text>
</a>
</g>
</g>
<!-- Node0&#45;&gt;Node1 -->
<g id="edge1" class="edge">
<title>Node0&#45;&gt;Node1</title>
<path fill="none" stroke="midnightblue" d="M50.72,-156.17C63.1,-178.26 86.48,-214.78 116,-236.5 120.65,-239.92 125.83,-242.89 131.19,-245.47"/>
<polygon fill="midnightblue" stroke="midnightblue" points="53.66,-154.26 45.82,-147.14 47.51,-157.6 53.66,-154.26"/>
</g>
<!-- Node2 -->
<g id="node3" class="node">
<title>Node2</title>
<g id="a_node3"><a xlink:href="structhydra_1_1detail_1_1GetAxisBinCenter.html" target="_top" xlink:title="hydra::detail::GetAxisBin\lCenter\&lt; T, N, I \&gt;">
<polygon fill="none" stroke="black" points="121,-196.5 121,-226.5 246,-226.5 246,-196.5 121,-196.5"/>
<text text-anchor="start" x="129" y="-214.5" font-family="Helvetica,sans-Serif" font-size="10.00">hydra::detail::GetAxisBin</text>
<text text-anchor="middle" x="183.5" y="-203.5" font-family="Helvetica,sans-Serif" font-size="10.00">Center&lt; T, N, I &gt;</text>
</a>
</g>
</g>
<!-- Node0&#45;&gt;Node2 -->
<g id="edge2" class="edge">
<title>Node0&#45;&gt;Node2</title>
<path fill="none" stroke="midnightblue" d="M61.73,-153.31C76.34,-163.95 96.68,-177.75 116,-187.5 122.36,-190.71 129.25,-193.69 136.1,-196.39"/>
<polygon fill="midnightblue" stroke="midnightblue" points="63.55,-150.3 53.43,-147.16 59.38,-155.93 63.55,-150.3"/>
</g>
<!-- Node3 -->
<g id="node4" class="node">
<title>Node3</title>
<g id="a_node4"><a xlink:href="structhydra_1_1detail_1_1GetBinCenter.html" target="_top" xlink:title="hydra::detail::GetBinCenter\l\&lt; T, N \&gt;">
<polygon fill="none" stroke="black" points="116,-147.5 116,-177.5 251,-177.5 251,-147.5 116,-147.5"/>
<text text-anchor="start" x="124" y="-165.5" font-family="Helvetica,sans-Serif" font-size="10.00">hydra::detail::GetBinCenter</text>
<text text-anchor="middle" x="183.5" y="-154.5" font-family="Helvetica,sans-Serif" font-size="10.00">&lt; T, N &gt;</text>
</a>
</g>
</g>
<!-- Node0&#45;&gt;Node3 -->
<g id="edge3" class="edge">
<title>Node0&#45;&gt;Node3</title>
<path fill="none" stroke="midnightblue" d="M89.98,-146.15C98.35,-147.63 107.16,-149.19 115.89,-150.73"/>
<polygon fill="midnightblue" stroke="midnightblue" points="90.5,-142.69 80.04,-144.4 89.28,-149.58 90.5,-142.69"/>
</g>
<!-- Node4 -->
<g id="node5" class="node">
<title>Node4</title>
<g id="a_node5"><a xlink:href="structhydra_1_1detail_1_1GetBinCenter_3_01T_00_011_01_4.html" target="_top" xlink:title="hydra::detail::GetBinCenter\l\&lt; T, 1 \&gt;">
<polygon fill="none" stroke="black" points="116,-98.5 116,-128.5 251,-128.5 251,-98.5 116,-98.5"/>
<text text-anchor="start" x="124" y="-116.5" font-family="Helvetica,sans-Serif" font-size="10.00">hydra::detail::GetBinCenter</text>
<text text-anchor="middle" x="183.5" y="-105.5" font-family="Helvetica,sans-Serif" font-size="10.00">&lt; T, 1 &gt;</text>
</a>
</g>
</g>
<!-- Node0&#45;&gt;Node4 -->
<g id="edge4" class="edge">
<title>Node0&#45;&gt;Node4</title>
<path fill="none" stroke="midnightblue" d="M89.98,-129.19C98.35,-127.77 107.16,-126.28 115.89,-124.8"/>
<polygon fill="midnightblue" stroke="midnightblue" points="89.31,-125.76 80.04,-130.88 90.48,-132.66 89.31,-125.76"/>
</g>
<!-- Node5 -->
<g id="node6" class="node">
<title>Node5</title>
<g id="a_node6"><a xlink:href="structhydra_1_1detail_1_1GetGlobalBin.html" target="_top" xlink:title="hydra::detail::GetGlobal\lBin\&lt; N, T \&gt;">
<polygon fill="none" stroke="black" points="124,-49.5 124,-79.5 243,-79.5 243,-49.5 124,-49.5"/>
<text text-anchor="start" x="132" y="-67.5" font-family="Helvetica,sans-Serif" font-size="10.00">hydra::detail::GetGlobal</text>
<text text-anchor="middle" x="183.5" y="-56.5" font-family="Helvetica,sans-Serif" font-size="10.00">Bin&lt; N, T &gt;</text>
</a>
</g>
</g>
<!-- Node0&#45;&gt;Node5 -->
<g id="edge5" class="edge">
<title>Node0&#45;&gt;Node5</title>
<path fill="none" stroke="midnightblue" d="M62.39,-122.1C77.02,-112 97.11,-98.96 116,-89.5 123.06,-85.96 130.74,-82.63 138.3,-79.63"/>
<polygon fill="midnightblue" stroke="midnightblue" points="60.23,-119.34 54.05,-127.95 64.25,-125.07 60.23,-119.34"/>
</g>
<!-- Node6 -->
<g id="node7" class="node">
<title>Node6</title>
<g id="a_node7"><a xlink:href="structhydra_1_1detail_1_1GetGlobalBin_3_011_00_01T_01_4.html" target="_top" xlink:title="hydra::detail::GetGlobal\lBin\&lt; 1, T \&gt;">
<polygon fill="none" stroke="black" points="124,-0.5 124,-30.5 243,-30.5 243,-0.5 124,-0.5"/>
<text text-anchor="start" x="132" y="-18.5" font-family="Helvetica,sans-Serif" font-size="10.00">hydra::detail::GetGlobal</text>
<text text-anchor="middle" x="183.5" y="-7.5" font-family="Helvetica,sans-Serif" font-size="10.00">Bin&lt; 1, T &gt;</text>
</a>
</g>
</g>
<!-- Node0&#45;&gt;Node6 -->
<g id="edge6" class="edge">
<title>Node0&#45;&gt;Node6</title>
<path fill="none" stroke="midnightblue" d="M51.05,-118.95C63.62,-97.34 87.04,-61.88 116,-40.5 121.16,-36.69 126.97,-33.4 132.95,-30.57"/>
<polygon fill="midnightblue" stroke="midnightblue" points="47.92,-117.37 46.06,-127.8 54.02,-120.81 47.92,-117.37"/>
</g>
</g>
</svg>
