<?xml version="1.0" encoding="UTF-8" standalone="no"?>
<!DOCTYPE svg PUBLIC "-//W3C//DTD SVG 1.1//EN"
 "http://www.w3.org/Graphics/SVG/1.1/DTD/svg11.dtd">
<!-- Generated by graphviz version 5.0.0 (0)
 -->
<!-- Title: Graphical Class Hierarchy Pages: 1 -->
<svg width="237pt" height="159pt"
 viewBox="0.00 0.00 237.00 159.00" xmlns="http://www.w3.org/2000/svg" xmlns:xlink="http://www.w3.org/1999/xlink">
<g id="graph0" class="graph" transform="scale(1 1) rotate(0) translate(4 155)">
<title>Graphical Class Hierarchy</title>
<!-- Node46 -->
<g id="node1" class="node">
<title>Node46</title>
<polygon fill="none" stroke="#bfbfbf" points="0,-77 0,-96 64,-96 64,-77 0,-77"/>
<text text-anchor="middle" x="32" y="-84" font-family="Helvetica,sans-Serif" font-size="10.00">is_base_of</text>
</g>
<!-- Node0 -->
<g id="node2" class="node">
<title>Node0</title>
<g id="a_node2"><a xlink:href="structhydra_1_1detail_1_1are__base__of_3_01Base_00_01T_01_4.html" target="_top" xlink:title="hydra::detail::are\l_base_of\&lt; Base, T \&gt;">
<polygon fill="none" stroke="black" points="110,-120.5 110,-150.5 219,-150.5 219,-120.5 110,-120.5"/>
<text text-anchor="start" x="118" y="-138.5" font-family="Helvetica,sans-Serif" font-size="10.00">hydra::detail::are</text>
<text text-anchor="middle" x="164.5" y="-127.5" font-family="Helvetica,sans-Serif" font-size="10.00">_base_of&lt; Base, T &gt;</text>
</a>
</g>
</g>
<!-- Node46&#45;&gt;Node0 -->
<g id="edge1" class="edge">
<title>Node46&#45;&gt;Node0</title>
<path fill="none" stroke="midnightblue" d="M68.07,-99.67C85.15,-106.08 105.76,-113.82 123.45,-120.46"/>
<polygon fill="midnightblue" stroke="midnightblue" points="69.06,-96.3 58.47,-96.06 66.6,-102.86 69.06,-96.3"/>
</g>
<!-- Node48 -->
<g id="node3" class="node">
<title>Node48</title>
<g id="a_node3"><a xlink:href="structhydra_1_1detail_1_1is__function__argument_3_01Arg_00_01true_01_4.html" target="_top" xlink:title="hydra::detail::is_function\l_argument\&lt; Arg, true \&gt;">
<polygon fill="none" stroke="black" points="103,-71.5 103,-101.5 226,-101.5 226,-71.5 103,-71.5"/>
<text text-anchor="start" x="111" y="-89.5" font-family="Helvetica,sans-Serif" font-size="10.00">hydra::detail::is_function</text>
<text text-anchor="middle" x="164.5" y="-78.5" font-family="Helvetica,sans-Serif" font-size="10.00">_argument&lt; Arg, true &gt;</text>
</a>
</g>
</g>
<!-- Node46&#45;&gt;Node48 -->
<g id="edge2" class="edge">
<title>Node46&#45;&gt;Node48</title>
<path fill="none" stroke="midnightblue" d="M74.48,-86.5C83.5,-86.5 93.23,-86.5 102.82,-86.5"/>
<polygon fill="midnightblue" stroke="midnightblue" points="74.26,-83 64.26,-86.5 74.26,-90 74.26,-83"/>
</g>
<!-- Node49 -->
<g id="node4" class="node">
<title>Node49</title>
<g id="a_node4"><a xlink:href="structhydra_1_1detail_1_1is__function__argument_3_01hydra_1_1thrust_1_1device__reference_3_01Arg_01_4_00_01true_01_4.html" target="_top" xlink:title="hydra::detail::is_function\l_argument\&lt; hydra::thrust\l::device_reference\&lt; Arg \&gt;\l, true \&gt;">
<polygon fill="none" stroke="black" points="100,-0.5 100,-52.5 229,-52.5 229,-0.5 100,-0.5"/>
<text text-anchor="start" x="108" y="-40.5" font-family="Helvetica,sans-Serif" font-size="10.00">hydra::detail::is_function</text>
<text text-anchor="start" x="108" y="-29.5" font-family="Helvetica,sans-Serif" font-size="10.00">_argument&lt; hydra::thrust</text>
<text text-anchor="start" x="108" y="-18.5" font-family="Helvetica,sans-Serif" font-size="10.00">::device_reference&lt; Arg &gt;</text>
<text text-anchor="middle" x="164.5" y="-7.5" font-family="Helvetica,sans-Serif" font-size="10.00">, true &gt;</text>
</a>
</g>
</g>
<!-- Node46&#45;&gt;Node49 -->
<g id="edge3" class="edge">
<title>Node46&#45;&gt;Node49</title>
<path fill="none" stroke="midnightblue" d="M63.07,-72.68C76.1,-66.69 91.8,-59.47 106.87,-52.54"/>
<polygon fill="midnightblue" stroke="midnightblue" points="61.3,-69.64 53.68,-76.99 64.23,-76 61.3,-69.64"/>
</g>
</g>
</svg>
