<?xml version="1.0" encoding="UTF-8" standalone="no"?>
<!DOCTYPE svg PUBLIC "-//W3C//DTD SVG 1.1//EN"
 "http://www.w3.org/Graphics/SVG/1.1/DTD/svg11.dtd">
<!-- Generated by graphviz version 5.0.0 (0)
 -->
<!-- Title: Integrator.h Pages: 1 -->
<svg width="910pt" height="240pt"
 viewBox="0.00 0.00 909.50 240.00" xmlns="http://www.w3.org/2000/svg" xmlns:xlink="http://www.w3.org/1999/xlink">
<g id="graph0" class="graph" transform="scale(1 1) rotate(0) translate(4 236)">
<title>Integrator.h</title>
<!-- Node0 -->
<g id="node1" class="node">
<title>Node0</title>
<polygon fill="#bfbfbf" stroke="black" points="302.5,-212.5 302.5,-231.5 367.5,-231.5 367.5,-212.5 302.5,-212.5"/>
<text text-anchor="middle" x="335" y="-219.5" font-family="Helvetica,sans-Serif" font-size="10.00">Integrator.h</text>
</g>
<!-- Node1 -->
<g id="node2" class="node">
<title>Node1</title>
<g id="a_node2"><a xlink:href="Config_8h.html" target="_top" xlink:title="hydra/detail/Config.h">
<polygon fill="none" stroke="black" points="60.5,-89.5 60.5,-108.5 167.5,-108.5 167.5,-89.5 60.5,-89.5"/>
<text text-anchor="middle" x="114" y="-96.5" font-family="Helvetica,sans-Serif" font-size="10.00">hydra/detail/Config.h</text>
</a>
</g>
</g>
<!-- Node0&#45;&gt;Node1 -->
<g id="edge1" class="edge">
<title>Node0&#45;&gt;Node1</title>
<path fill="none" stroke="midnightblue" d="M302.13,-219.68C243.65,-216.58 125.28,-206.58 100,-176 86.42,-159.58 95.08,-134.28 103.61,-117.44"/>
<polygon fill="midnightblue" stroke="midnightblue" points="106.7,-119.08 108.45,-108.63 100.57,-115.71 106.7,-119.08"/>
</g>
<!-- Node4 -->
<g id="node5" class="node">
<title>Node4</title>
<g id="a_node5"><a xlink:href="Types_8h.html" target="_top" xlink:title="Common and useful typedefs. ">
<polygon fill="none" stroke="black" points="109,-156.5 109,-175.5 187,-175.5 187,-156.5 109,-156.5"/>
<text text-anchor="middle" x="148" y="-163.5" font-family="Helvetica,sans-Serif" font-size="10.00">hydra/Types.h</text>
</a>
</g>
</g>
<!-- Node0&#45;&gt;Node4 -->
<g id="edge4" class="edge">
<title>Node0&#45;&gt;Node4</title>
<path fill="none" stroke="midnightblue" d="M305.37,-212.44C273.5,-203.24 222.67,-188.56 187.44,-178.39"/>
<polygon fill="midnightblue" stroke="midnightblue" points="188.07,-174.93 177.49,-175.52 186.13,-181.65 188.07,-174.93"/>
</g>
<!-- Node5 -->
<g id="node6" class="node">
<title>Node5</title>
<polygon fill="none" stroke="#bfbfbf" points="205,-156.5 205,-175.5 245,-175.5 245,-156.5 205,-156.5"/>
<text text-anchor="middle" x="225" y="-163.5" font-family="Helvetica,sans-Serif" font-size="10.00">utility</text>
</g>
<!-- Node0&#45;&gt;Node5 -->
<g id="edge5" class="edge">
<title>Node0&#45;&gt;Node5</title>
<path fill="none" stroke="midnightblue" d="M317.33,-212.32C299.61,-203.62 272.1,-190.12 251.71,-180.11"/>
<polygon fill="midnightblue" stroke="midnightblue" points="253.15,-176.92 242.63,-175.65 250.06,-183.2 253.15,-176.92"/>
</g>
<!-- Node6 -->
<g id="node7" class="node">
<title>Node6</title>
<g id="a_node7"><a xlink:href="IntegratorTraits_8h.html" target="_top" xlink:title="hydra/detail/IntegratorTraits.h">
<polygon fill="none" stroke="black" points="263,-156.5 263,-175.5 407,-175.5 407,-156.5 263,-156.5"/>
<text text-anchor="middle" x="335" y="-163.5" font-family="Helvetica,sans-Serif" font-size="10.00">hydra/detail/IntegratorTraits.h</text>
</a>
</g>
</g>
<!-- Node0&#45;&gt;Node6 -->
<g id="edge6" class="edge">
<title>Node0&#45;&gt;Node6</title>
<path fill="none" stroke="midnightblue" d="M335,-212.08C335,-205.01 335,-194.86 335,-185.99"/>
<polygon fill="midnightblue" stroke="midnightblue" points="338.5,-185.75 335,-175.75 331.5,-185.75 338.5,-185.75"/>
</g>
<!-- Node9 -->
<g id="node10" class="node">
<title>Node9</title>
<g id="a_node10"><a xlink:href="AnalyticalIntegral_8inl.html" target="_top" xlink:title="hydra/detail/AnalyticalIntegral.inl">
<polygon fill="none" stroke="black" points="425,-156.5 425,-175.5 583,-175.5 583,-156.5 425,-156.5"/>
<text text-anchor="middle" x="504" y="-163.5" font-family="Helvetica,sans-Serif" font-size="10.00">hydra/detail/AnalyticalIntegral.inl</text>
</a>
</g>
</g>
<!-- Node0&#45;&gt;Node9 -->
<g id="edge10" class="edge">
<title>Node0&#45;&gt;Node9</title>
<path fill="none" stroke="midnightblue" d="M361.78,-212.44C390.33,-203.32 435.73,-188.81 467.54,-178.65"/>
<polygon fill="midnightblue" stroke="midnightblue" points="468.89,-181.89 477.35,-175.52 466.76,-175.23 468.89,-181.89"/>
</g>
<!-- Node12 -->
<g id="node13" class="node">
<title>Node12</title>
<g id="a_node13"><a xlink:href="NumericalIntegral_8inl.html" target="_top" xlink:title="hydra/detail/NumericalIntegral.inl">
<polygon fill="none" stroke="black" points="601.5,-156.5 601.5,-175.5 760.5,-175.5 760.5,-156.5 601.5,-156.5"/>
<text text-anchor="middle" x="681" y="-163.5" font-family="Helvetica,sans-Serif" font-size="10.00">hydra/detail/NumericalIntegral.inl</text>
</a>
</g>
</g>
<!-- Node0&#45;&gt;Node12 -->
<g id="edge13" class="edge">
<title>Node0&#45;&gt;Node12</title>
<path fill="none" stroke="midnightblue" d="M367.55,-215.92C424.27,-207.07 542.2,-188.66 616.14,-177.12"/>
<polygon fill="midnightblue" stroke="midnightblue" points="616.93,-180.54 626.27,-175.54 615.85,-173.63 616.93,-180.54"/>
</g>
<!-- Node13 -->
<g id="node14" class="node">
<title>Node13</title>
<g id="a_node14"><a xlink:href="Integrator_8inl.html" target="_top" xlink:title="hydra/detail/Integrator.inl">
<polygon fill="none" stroke="black" points="778.5,-156.5 778.5,-175.5 901.5,-175.5 901.5,-156.5 778.5,-156.5"/>
<text text-anchor="middle" x="840" y="-163.5" font-family="Helvetica,sans-Serif" font-size="10.00">hydra/detail/Integrator.inl</text>
</a>
</g>
</g>
<!-- Node0&#45;&gt;Node13 -->
<g id="edge14" class="edge">
<title>Node0&#45;&gt;Node13</title>
<path fill="none" stroke="midnightblue" d="M367.77,-217.89C438.75,-211.09 612.25,-194.16 767.95,-176.22"/>
<polygon fill="midnightblue" stroke="midnightblue" points="768.64,-179.66 778.17,-175.03 767.84,-172.71 768.64,-179.66"/>
</g>
<!-- Node2 -->
<g id="node3" class="node">
<title>Node2</title>
<polygon fill="none" stroke="#bfbfbf" points="0,-0.5 0,-41.5 104,-41.5 104,-0.5 0,-0.5"/>
<text text-anchor="start" x="8" y="-29.5" font-family="Helvetica,sans-Serif" font-size="10.00">hydra/detail/external</text>
<text text-anchor="start" x="8" y="-18.5" font-family="Helvetica,sans-Serif" font-size="10.00">/hydra_thrust/detail</text>
<text text-anchor="middle" x="52" y="-7.5" font-family="Helvetica,sans-Serif" font-size="10.00">/config.h</text>
</g>
<!-- Node1&#45;&gt;Node2 -->
<g id="edge2" class="edge">
<title>Node1&#45;&gt;Node2</title>
<path fill="none" stroke="midnightblue" d="M106.89,-89.28C99.02,-79.63 85.93,-63.6 74.52,-49.6"/>
<polygon fill="midnightblue" stroke="midnightblue" points="77.07,-47.19 68.04,-41.66 71.65,-51.62 77.07,-47.19"/>
</g>
<!-- Node3 -->
<g id="node4" class="node">
<title>Node3</title>
<polygon fill="none" stroke="#bfbfbf" points="122,-0.5 122,-41.5 232,-41.5 232,-0.5 122,-0.5"/>
<text text-anchor="start" x="130" y="-29.5" font-family="Helvetica,sans-Serif" font-size="10.00">hydra/detail/external</text>
<text text-anchor="start" x="130" y="-18.5" font-family="Helvetica,sans-Serif" font-size="10.00">/hydra_thrust/detail</text>
<text text-anchor="middle" x="177" y="-7.5" font-family="Helvetica,sans-Serif" font-size="10.00">/config/host_device.h</text>
</g>
<!-- Node1&#45;&gt;Node3 -->
<g id="edge3" class="edge">
<title>Node1&#45;&gt;Node3</title>
<path fill="none" stroke="midnightblue" d="M121.23,-89.28C129.22,-79.63 142.52,-63.6 154.12,-49.6"/>
<polygon fill="midnightblue" stroke="midnightblue" points="157.02,-51.59 160.7,-41.66 151.63,-47.12 157.02,-51.59"/>
</g>
<!-- Node6&#45;&gt;Node1 -->
<g id="edge7" class="edge">
<title>Node6&#45;&gt;Node1</title>
<path fill="none" stroke="midnightblue" d="M305.65,-156.37C266.33,-144.8 196.45,-124.25 152.81,-111.41"/>
<polygon fill="midnightblue" stroke="midnightblue" points="153.7,-108.03 143.12,-108.56 151.72,-114.74 153.7,-108.03"/>
</g>
<!-- Node7 -->
<g id="node8" class="node">
<title>Node7</title>
<polygon fill="none" stroke="#bfbfbf" points="191,-78.5 191,-119.5 313,-119.5 313,-78.5 191,-78.5"/>
<text text-anchor="start" x="199" y="-107.5" font-family="Helvetica,sans-Serif" font-size="10.00">hydra/detail/external</text>
<text text-anchor="start" x="199" y="-96.5" font-family="Helvetica,sans-Serif" font-size="10.00">/hydra_thrust/type_traits</text>
<text text-anchor="middle" x="252" y="-85.5" font-family="Helvetica,sans-Serif" font-size="10.00">/void_t.h</text>
</g>
<!-- Node6&#45;&gt;Node7 -->
<g id="edge8" class="edge">
<title>Node6&#45;&gt;Node7</title>
<path fill="none" stroke="midnightblue" d="M323.81,-156.23C313.82,-148.41 298.68,-136.56 284.88,-125.75"/>
<polygon fill="midnightblue" stroke="midnightblue" points="286.98,-122.95 276.95,-119.54 282.67,-128.46 286.98,-122.95"/>
</g>
<!-- Node8 -->
<g id="node9" class="node">
<title>Node8</title>
<polygon fill="none" stroke="#bfbfbf" points="331,-89.5 331,-108.5 393,-108.5 393,-89.5 331,-89.5"/>
<text text-anchor="middle" x="362" y="-96.5" font-family="Helvetica,sans-Serif" font-size="10.00">type_traits</text>
</g>
<!-- Node6&#45;&gt;Node8 -->
<g id="edge9" class="edge">
<title>Node6&#45;&gt;Node8</title>
<path fill="none" stroke="midnightblue" d="M338.64,-156.23C342.69,-146.49 349.34,-130.48 354.51,-118.03"/>
<polygon fill="midnightblue" stroke="midnightblue" points="357.81,-119.2 358.42,-108.63 351.35,-116.52 357.81,-119.2"/>
</g>
<!-- Node10 -->
<g id="node11" class="node">
<title>Node10</title>
<polygon fill="none" stroke="#bfbfbf" points="438.5,-89.5 438.5,-108.5 497.5,-108.5 497.5,-89.5 438.5,-89.5"/>
<text text-anchor="middle" x="468" y="-96.5" font-family="Helvetica,sans-Serif" font-size="10.00">stdexcept</text>
</g>
<!-- Node9&#45;&gt;Node10 -->
<g id="edge11" class="edge">
<title>Node9&#45;&gt;Node10</title>
<path fill="none" stroke="midnightblue" d="M499.14,-156.23C493.69,-146.39 484.7,-130.16 477.78,-117.66"/>
<polygon fill="midnightblue" stroke="midnightblue" points="480.69,-115.68 472.78,-108.63 474.56,-119.07 480.69,-115.68"/>
</g>
<!-- Node11 -->
<g id="node12" class="node">
<title>Node11</title>
<polygon fill="none" stroke="#bfbfbf" points="515.5,-89.5 515.5,-108.5 564.5,-108.5 564.5,-89.5 515.5,-89.5"/>
<text text-anchor="middle" x="540" y="-96.5" font-family="Helvetica,sans-Serif" font-size="10.00">cassert</text>
</g>
<!-- Node9&#45;&gt;Node11 -->
<g id="edge12" class="edge">
<title>Node9&#45;&gt;Node11</title>
<path fill="none" stroke="midnightblue" d="M508.86,-156.23C514.31,-146.39 523.3,-130.16 530.22,-117.66"/>
<polygon fill="midnightblue" stroke="midnightblue" points="533.44,-119.07 535.22,-108.63 527.31,-115.68 533.44,-119.07"/>
</g>
</g>
</svg>
