<?xml version="1.0" encoding="UTF-8" standalone="no"?>
<!DOCTYPE svg PUBLIC "-//W3C//DTD SVG 1.1//EN"
 "http://www.w3.org/Graphics/SVG/1.1/DTD/svg11.dtd">
<!-- Generated by graphviz version 2.40.1 (20161225.0304)
 -->
<!-- Title: Ipatia.h Pages: 1 -->
<svg width="467pt" height="140pt"
 viewBox="0.00 0.00 467.00 140.00" xmlns="http://www.w3.org/2000/svg" xmlns:xlink="http://www.w3.org/1999/xlink">
<g id="graph0" class="graph" transform="scale(1 1) rotate(0) translate(4 136)">
<title>Ipatia.h</title>
<!-- Node85 -->
<g id="node1" class="node">
<title>Node85</title>
<polygon fill="#bfbfbf" stroke="#000000" points="217,-112.5 217,-131.5 266,-131.5 266,-112.5 217,-112.5"/>
<text text-anchor="middle" x="241.5" y="-119.5" font-family="Helvetica,sans-Serif" font-size="10.00" fill="#000000">Ipatia.h</text>
</g>
<!-- Node86 -->
<g id="node2" class="node">
<title>Node86</title>
<g id="a_node2"><a xlink:href="Ipatia__plus__argus_8inl.html" target="_top" xlink:title="Ipatia_plus_argus.inl">
<polygon fill="none" stroke="#000000" points="129.5,-56.5 129.5,-75.5 235.5,-75.5 235.5,-56.5 129.5,-56.5"/>
<text text-anchor="middle" x="182.5" y="-63.5" font-family="Helvetica,sans-Serif" font-size="10.00" fill="#000000">Ipatia_plus_argus.inl</text>
</a>
</g>
</g>
<!-- Node85&#45;&gt;Node86 -->
<g id="edge1" class="edge">
<title>Node85&#45;&gt;Node86</title>
<path fill="none" stroke="#191970" d="M223.9693,-105.3607C213.7623,-95.6727 201.2531,-83.7995 192.6592,-75.6427"/>
<polygon fill="#191970" stroke="#191970" points="221.5604,-107.8998 231.223,-112.2455 226.3794,-102.8227 221.5604,-107.8998"/>
</g>
<!-- Node89 -->
<g id="node5" class="node">
<title>Node89</title>
<g id="a_node5"><a xlink:href="particle__mass_8inl.html" target="_top" xlink:title="particle_mass.inl">
<polygon fill="none" stroke="#000000" points="256.5,-56.5 256.5,-75.5 346.5,-75.5 346.5,-56.5 256.5,-56.5"/>
<text text-anchor="middle" x="301.5" y="-63.5" font-family="Helvetica,sans-Serif" font-size="10.00" fill="#000000">particle_mass.inl</text>
</a>
</g>
</g>
<!-- Node85&#45;&gt;Node89 -->
<g id="edge4" class="edge">
<title>Node85&#45;&gt;Node89</title>
<path fill="none" stroke="#191970" d="M259.3278,-105.3607C269.7078,-95.6727 282.4291,-83.7995 291.1686,-75.6427"/>
<polygon fill="#191970" stroke="#191970" points="256.8737,-102.8636 251.9512,-112.2455 261.6499,-107.981 256.8737,-102.8636"/>
</g>
<!-- Node87 -->
<g id="node3" class="node">
<title>Node87</title>
<g id="a_node3"><a xlink:href="ipatia__plus__argus_8cpp.html" target="_top" xlink:title="ipatia_plus_argus.cpp">
<polygon fill="none" stroke="#000000" points="0,-.5 0,-19.5 111,-19.5 111,-.5 0,-.5"/>
<text text-anchor="middle" x="55.5" y="-7.5" font-family="Helvetica,sans-Serif" font-size="10.00" fill="#000000">ipatia_plus_argus.cpp</text>
</a>
</g>
</g>
<!-- Node86&#45;&gt;Node87 -->
<g id="edge2" class="edge">
<title>Node86&#45;&gt;Node87</title>
<path fill="none" stroke="#191970" d="M151.3108,-52.2473C128.2463,-42.0771 97.4288,-28.4883 77.0472,-19.5011"/>
<polygon fill="#191970" stroke="#191970" points="150.1058,-55.5411 160.6679,-56.3733 152.9301,-49.1361 150.1058,-55.5411"/>
</g>
<!-- Node88 -->
<g id="node4" class="node">
<title>Node88</title>
<g id="a_node4"><a xlink:href="ipatia__plus__argus_8cu.html" target="_top" xlink:title="ipatia_plus_argus.cu">
<polygon fill="none" stroke="#000000" points="129.5,-.5 129.5,-19.5 235.5,-19.5 235.5,-.5 129.5,-.5"/>
<text text-anchor="middle" x="182.5" y="-7.5" font-family="Helvetica,sans-Serif" font-size="10.00" fill="#000000">ipatia_plus_argus.cu</text>
</a>
</g>
</g>
<!-- Node86&#45;&gt;Node88 -->
<g id="edge3" class="edge">
<title>Node86&#45;&gt;Node88</title>
<path fill="none" stroke="#191970" d="M182.5,-46.1575C182.5,-37.155 182.5,-26.9199 182.5,-19.6427"/>
<polygon fill="#191970" stroke="#191970" points="179.0001,-46.2455 182.5,-56.2455 186.0001,-46.2456 179.0001,-46.2455"/>
</g>
<!-- Node90 -->
<g id="node6" class="node">
<title>Node90</title>
<g id="a_node6"><a xlink:href="particle__mass_8cpp.html" target="_top" xlink:title="particle_mass.cpp">
<polygon fill="none" stroke="#000000" points="253.5,-.5 253.5,-19.5 349.5,-19.5 349.5,-.5 253.5,-.5"/>
<text text-anchor="middle" x="301.5" y="-7.5" font-family="Helvetica,sans-Serif" font-size="10.00" fill="#000000">particle_mass.cpp</text>
</a>
</g>
</g>
<!-- Node89&#45;&gt;Node90 -->
<g id="edge5" class="edge">
<title>Node89&#45;&gt;Node90</title>
<path fill="none" stroke="#191970" d="M301.5,-46.1575C301.5,-37.155 301.5,-26.9199 301.5,-19.6427"/>
<polygon fill="#191970" stroke="#191970" points="298.0001,-46.2455 301.5,-56.2455 305.0001,-46.2456 298.0001,-46.2455"/>
</g>
<!-- Node91 -->
<g id="node7" class="node">
<title>Node91</title>
<g id="a_node7"><a xlink:href="particle__mass_8cu.html" target="_top" xlink:title="particle_mass.cu">
<polygon fill="none" stroke="#000000" points="368,-.5 368,-19.5 459,-19.5 459,-.5 368,-.5"/>
<text text-anchor="middle" x="413.5" y="-7.5" font-family="Helvetica,sans-Serif" font-size="10.00" fill="#000000">particle_mass.cu</text>
</a>
</g>
</g>
<!-- Node89&#45;&gt;Node91 -->
<g id="edge6" class="edge">
<title>Node89&#45;&gt;Node91</title>
<path fill="none" stroke="#191970" d="M329.8263,-51.8368C350.0721,-41.7139 376.7642,-28.3679 394.4978,-19.5011"/>
<polygon fill="#191970" stroke="#191970" points="328.1325,-48.7706 320.7535,-56.3733 331.263,-55.0316 328.1325,-48.7706"/>
</g>
</g>
</svg>
