<?xml version="1.0" encoding="UTF-8" standalone="no"?>
<!DOCTYPE svg PUBLIC "-//W3C//DTD SVG 1.1//EN"
 "http://www.w3.org/Graphics/SVG/1.1/DTD/svg11.dtd">
<!-- Generated by graphviz version 2.40.1 (20161225.0304)
 -->
<!-- Title: IsAccepted.h Pages: 1 -->
<svg width="2582pt" height="285pt"
 viewBox="0.00 0.00 2581.50 285.00" xmlns="http://www.w3.org/2000/svg" xmlns:xlink="http://www.w3.org/1999/xlink">
<g id="graph0" class="graph" transform="scale(1 1) rotate(0) translate(4 281)">
<title>IsAccepted.h</title>
<!-- Node5 -->
<g id="node1" class="node">
<title>Node5</title>
<polygon fill="#bfbfbf" stroke="#000000" points="1293.5,-257.5 1293.5,-276.5 1367.5,-276.5 1367.5,-257.5 1293.5,-257.5"/>
<text text-anchor="middle" x="1330.5" y="-264.5" font-family="Helvetica,sans-Serif" font-size="10.00" fill="#000000">IsAccepted.h</text>
</g>
<!-- Node6 -->
<g id="node2" class="node">
<title>Node6</title>
<g id="a_node2"><a xlink:href="PhaseSpace_8h.html" target="_top" xlink:title="PhaseSpace.h">
<polygon fill="none" stroke="#000000" points="1290.5,-201.5 1290.5,-220.5 1370.5,-220.5 1370.5,-201.5 1290.5,-201.5"/>
<text text-anchor="middle" x="1330.5" y="-208.5" font-family="Helvetica,sans-Serif" font-size="10.00" fill="#000000">PhaseSpace.h</text>
</a>
</g>
</g>
<!-- Node5&#45;&gt;Node6 -->
<g id="edge1" class="edge">
<title>Node5&#45;&gt;Node6</title>
<path fill="none" stroke="#191970" d="M1330.5,-247.1575C1330.5,-238.155 1330.5,-227.9199 1330.5,-220.6427"/>
<polygon fill="#191970" stroke="#191970" points="1327.0001,-247.2455 1330.5,-257.2455 1334.0001,-247.2456 1327.0001,-247.2455"/>
</g>
<!-- Node7 -->
<g id="node3" class="node">
<title>Node7</title>
<g id="a_node3"><a xlink:href="PhaseSpaceIntegrator_8h.html" target="_top" xlink:title="PhaseSpaceIntegrator.h">
<polygon fill="none" stroke="#000000" points="362.5,-140 362.5,-159 484.5,-159 484.5,-140 362.5,-140"/>
<text text-anchor="middle" x="423.5" y="-147" font-family="Helvetica,sans-Serif" font-size="10.00" fill="#000000">PhaseSpaceIntegrator.h</text>
</a>
</g>
</g>
<!-- Node6&#45;&gt;Node7 -->
<g id="edge2" class="edge">
<title>Node6&#45;&gt;Node7</title>
<path fill="none" stroke="#191970" d="M1280.316,-209.6213C1154.079,-205.826 813.2219,-193.5519 530.5,-165 514.9995,-163.4346 498.3025,-161.255 482.8142,-159.0239"/>
<polygon fill="#191970" stroke="#191970" points="1280.3483,-213.1237 1290.4476,-209.9214 1280.5556,-206.1267 1280.3483,-213.1237"/>
</g>
<!-- Node8 -->
<g id="node4" class="node">
<title>Node8</title>
<g id="a_node4"><a xlink:href="phsp__unweighting__functor__and__fit_8inl.html" target="_top" xlink:title="phsp_unweighting_functor\l_and_fit.inl">
<polygon fill="none" stroke="#000000" points="148,-67.5 148,-97.5 277,-97.5 277,-67.5 148,-67.5"/>
<text text-anchor="start" x="156" y="-85.5" font-family="Helvetica,sans-Serif" font-size="10.00" fill="#000000">phsp_unweighting_functor</text>
<text text-anchor="middle" x="212.5" y="-74.5" font-family="Helvetica,sans-Serif" font-size="10.00" fill="#000000">_and_fit.inl</text>
</a>
</g>
</g>
<!-- Node6&#45;&gt;Node8 -->
<g id="edge10" class="edge">
<title>Node6&#45;&gt;Node8</title>
<path fill="none" stroke="#191970" d="M1280.2252,-210.2997C1090.2859,-207.4332 422.6112,-195.2798 332.5,-165 290.5611,-150.9074 249.8845,-117.5297 228.3425,-97.8188"/>
<polygon fill="#191970" stroke="#191970" points="1280.4274,-213.803 1290.4784,-210.4524 1280.5317,-206.8038 1280.4274,-213.803"/>
</g>
<!-- Node11 -->
<g id="node7" class="node">
<title>Node11</title>
<g id="a_node7"><a xlink:href="dalitz__plot_8inl.html" target="_top" xlink:title="dalitz_plot.inl">
<polygon fill="none" stroke="#000000" points="296.5,-73 296.5,-92 370.5,-92 370.5,-73 296.5,-73"/>
<text text-anchor="middle" x="333.5" y="-80" font-family="Helvetica,sans-Serif" font-size="10.00" fill="#000000">dalitz_plot.inl</text>
</a>
</g>
</g>
<!-- Node6&#45;&gt;Node11 -->
<g id="edge35" class="edge">
<title>Node6&#45;&gt;Node11</title>
<path fill="none" stroke="#191970" d="M1279.9842,-210.2884C1084.872,-207.3268 389.5068,-194.718 353.5,-165 331.6765,-146.9881 331.3382,-109.5878 332.5331,-92.0134"/>
<polygon fill="#191970" stroke="#191970" points="1280.187,-213.7917 1290.2384,-210.4421 1280.292,-206.7925 1280.187,-213.7917"/>
</g>
<!-- Node14 -->
<g id="node10" class="node">
<title>Node14</title>
<g id="a_node10"><a xlink:href="dalitz__plot_8C.html" target="_top" xlink:title="dalitz_plot.C">
<polygon fill="none" stroke="#000000" points="389,-73 389,-92 460,-92 460,-73 389,-73"/>
<text text-anchor="middle" x="424.5" y="-80" font-family="Helvetica,sans-Serif" font-size="10.00" fill="#000000">dalitz_plot.C</text>
</a>
</g>
</g>
<!-- Node6&#45;&gt;Node14 -->
<g id="edge36" class="edge">
<title>Node6&#45;&gt;Node14</title>
<path fill="none" stroke="#191970" d="M1279.8292,-210.3816C1135.5091,-208.2174 724.3553,-199.1436 594.5,-165 533.2663,-148.8994 467.7378,-110.1846 439.194,-92.1047"/>
<polygon fill="#191970" stroke="#191970" points="1280.1044,-213.8858 1290.1542,-210.5313 1280.206,-206.8866 1280.1044,-213.8858"/>
</g>
<!-- Node15 -->
<g id="node11" class="node">
<title>Node15</title>
<g id="a_node11"><a xlink:href="caching__functors_8inl.html" target="_top" xlink:title="caching_functors.inl">
<polygon fill="none" stroke="#000000" points="603.5,-140 603.5,-159 707.5,-159 707.5,-140 603.5,-140"/>
<text text-anchor="middle" x="655.5" y="-147" font-family="Helvetica,sans-Serif" font-size="10.00" fill="#000000">caching_functors.inl</text>
</a>
</g>
</g>
<!-- Node6&#45;&gt;Node15 -->
<g id="edge11" class="edge">
<title>Node6&#45;&gt;Node15</title>
<path fill="none" stroke="#191970" d="M1280.278,-206.4242C1155.8318,-195.0858 834.1351,-165.7756 707.6639,-154.2527"/>
<polygon fill="#191970" stroke="#191970" points="1280.0208,-209.9152 1290.2971,-207.3371 1280.656,-202.9441 1280.0208,-209.9152"/>
</g>
<!-- Node18 -->
<g id="node14" class="node">
<title>Node18</title>
<g id="a_node14"><a xlink:href="phsp__averaging__functor_8inl.html" target="_top" xlink:title="phsp_averaging_functor.inl">
<polygon fill="none" stroke="#000000" points="884,-140 884,-159 1017,-159 1017,-140 884,-140"/>
<text text-anchor="middle" x="950.5" y="-147" font-family="Helvetica,sans-Serif" font-size="10.00" fill="#000000">phsp_averaging_functor.inl</text>
</a>
</g>
</g>
<!-- Node6&#45;&gt;Node18 -->
<g id="edge14" class="edge">
<title>Node6&#45;&gt;Node18</title>
<path fill="none" stroke="#191970" d="M1280.2874,-202.8735C1210.2728,-191.5422 1083.5731,-171.0368 1009.2561,-159.0092"/>
<polygon fill="#191970" stroke="#191970" points="1279.7623,-206.334 1290.1931,-204.4766 1280.8807,-199.4239 1279.7623,-206.334"/>
</g>
<!-- Node21 -->
<g id="node17" class="node">
<title>Node21</title>
<g id="a_node17"><a xlink:href="phsp__basic_8inl.html" target="_top" xlink:title="phsp_basic.inl">
<polygon fill="none" stroke="#000000" points="1140,-140 1140,-159 1219,-159 1219,-140 1140,-140"/>
<text text-anchor="middle" x="1179.5" y="-147" font-family="Helvetica,sans-Serif" font-size="10.00" fill="#000000">phsp_basic.inl</text>
</a>
</g>
</g>
<!-- Node6&#45;&gt;Node21 -->
<g id="edge17" class="edge">
<title>Node6&#45;&gt;Node21</title>
<path fill="none" stroke="#191970" d="M1297.3427,-197.4955C1268.7692,-185.858 1228.2377,-169.3501 1202.9281,-159.0419"/>
<polygon fill="#191970" stroke="#191970" points="1296.3247,-200.86 1306.9063,-201.3906 1298.9651,-194.3771 1296.3247,-200.86"/>
</g>
<!-- Node24 -->
<g id="node20" class="node">
<title>Node24</title>
<g id="a_node20"><a xlink:href="phsp__chain_8inl.html" target="_top" xlink:title="phsp_chain.inl">
<polygon fill="none" stroke="#000000" points="1291,-140 1291,-159 1370,-159 1370,-140 1291,-140"/>
<text text-anchor="middle" x="1330.5" y="-147" font-family="Helvetica,sans-Serif" font-size="10.00" fill="#000000">phsp_chain.inl</text>
</a>
</g>
</g>
<!-- Node6&#45;&gt;Node24 -->
<g id="edge20" class="edge">
<title>Node6&#45;&gt;Node24</title>
<path fill="none" stroke="#191970" d="M1330.5,-191.2462C1330.5,-180.5519 1330.5,-167.814 1330.5,-159.2449"/>
<polygon fill="#191970" stroke="#191970" points="1327.0001,-191.3906 1330.5,-201.3906 1334.0001,-191.3907 1327.0001,-191.3906"/>
</g>
<!-- Node27 -->
<g id="node23" class="node">
<title>Node27</title>
<g id="a_node23"><a xlink:href="phsp__evaluating__functor_8inl.html" target="_top" xlink:title="phsp_evaluating_functor.inl">
<polygon fill="none" stroke="#000000" points="1443,-140 1443,-159 1578,-159 1578,-140 1443,-140"/>
<text text-anchor="middle" x="1510.5" y="-147" font-family="Helvetica,sans-Serif" font-size="10.00" fill="#000000">phsp_evaluating_functor.inl</text>
</a>
</g>
</g>
<!-- Node6&#45;&gt;Node27 -->
<g id="edge23" class="edge">
<title>Node6&#45;&gt;Node27</title>
<path fill="none" stroke="#191970" d="M1368.2536,-198.1009C1402.393,-186.4366 1451.875,-169.5302 1482.5725,-159.0419"/>
<polygon fill="#191970" stroke="#191970" points="1366.9563,-194.8454 1358.625,-201.3906 1369.2195,-201.4694 1366.9563,-194.8454"/>
</g>
<!-- Node30 -->
<g id="node26" class="node">
<title>Node30</title>
<g id="a_node26"><a xlink:href="phsp__reweighting_8inl.html" target="_top" xlink:title="phsp_reweighting.inl">
<polygon fill="none" stroke="#000000" points="1676.5,-140 1676.5,-159 1780.5,-159 1780.5,-140 1676.5,-140"/>
<text text-anchor="middle" x="1728.5" y="-147" font-family="Helvetica,sans-Serif" font-size="10.00" fill="#000000">phsp_reweighting.inl</text>
</a>
</g>
</g>
<!-- Node6&#45;&gt;Node30 -->
<g id="edge26" class="edge">
<title>Node6&#45;&gt;Node30</title>
<path fill="none" stroke="#191970" d="M1381.1107,-203.1795C1457.046,-191.4458 1599.7166,-169.4 1676.4724,-157.5394"/>
<polygon fill="#191970" stroke="#191970" points="1380.2008,-199.7785 1370.8526,-204.7646 1381.2698,-206.6964 1380.2008,-199.7785"/>
</g>
<!-- Node33 -->
<g id="node29" class="node">
<title>Node33</title>
<g id="a_node29"><a xlink:href="phsp__unweighting_8inl.html" target="_top" xlink:title="phsp_unweighting.inl">
<polygon fill="none" stroke="#000000" points="1799,-140 1799,-159 1906,-159 1906,-140 1799,-140"/>
<text text-anchor="middle" x="1852.5" y="-147" font-family="Helvetica,sans-Serif" font-size="10.00" fill="#000000">phsp_unweighting.inl</text>
</a>
</g>
</g>
<!-- Node6&#45;&gt;Node33 -->
<g id="edge29" class="edge">
<title>Node6&#45;&gt;Node33</title>
<path fill="none" stroke="#191970" d="M1380.7854,-208.2928C1465.569,-203.2084 1642.138,-190.381 1789.5,-165 1798.6022,-163.4323 1808.3371,-161.2786 1817.3655,-159.0751"/>
<polygon fill="#191970" stroke="#191970" points="1380.4413,-204.8069 1370.6645,-208.8889 1380.853,-211.7948 1380.4413,-204.8069"/>
</g>
<!-- Node36 -->
<g id="node32" class="node">
<title>Node36</title>
<g id="a_node32"><a xlink:href="phsp__unweighting__functor_8inl.html" target="_top" xlink:title="phsp_unweighting_functor.inl">
<polygon fill="none" stroke="#000000" points="1924.5,-140 1924.5,-159 2066.5,-159 2066.5,-140 1924.5,-140"/>
<text text-anchor="middle" x="1995.5" y="-147" font-family="Helvetica,sans-Serif" font-size="10.00" fill="#000000">phsp_unweighting_functor.inl</text>
</a>
</g>
</g>
<!-- Node6&#45;&gt;Node36 -->
<g id="edge32" class="edge">
<title>Node6&#45;&gt;Node36</title>
<path fill="none" stroke="#191970" d="M1380.9217,-208.9066C1482.3399,-204.2824 1718.0998,-191.444 1914.5,-165 1926.1355,-163.4334 1938.6276,-161.28 1950.2337,-159.0766"/>
<polygon fill="#191970" stroke="#191970" points="1380.4997,-205.422 1370.6668,-209.367 1380.8137,-212.4149 1380.4997,-205.422"/>
</g>
<!-- Node39 -->
<g id="node35" class="node">
<title>Node39</title>
<g id="a_node35"><a xlink:href="generate__4body__decay__chain_8C.html" target="_top" xlink:title="generate_4body_decay\l_chain.C">
<polygon fill="none" stroke="#000000" points="2085,-134.5 2085,-164.5 2202,-164.5 2202,-134.5 2085,-134.5"/>
<text text-anchor="start" x="2093" y="-152.5" font-family="Helvetica,sans-Serif" font-size="10.00" fill="#000000">generate_4body_decay</text>
<text text-anchor="middle" x="2143.5" y="-141.5" font-family="Helvetica,sans-Serif" font-size="10.00" fill="#000000">_chain.C</text>
</a>
</g>
</g>
<!-- Node6&#45;&gt;Node39 -->
<g id="edge37" class="edge">
<title>Node6&#45;&gt;Node39</title>
<path fill="none" stroke="#191970" d="M1380.9835,-208.9545C1525.8,-202.9164 1940.8241,-184.3758 2075.5,-165 2078.4962,-164.5689 2081.5558,-164.0742 2084.6377,-163.5325"/>
<polygon fill="#191970" stroke="#191970" points="1380.4739,-205.4725 1370.6276,-209.3841 1380.7642,-212.4665 1380.4739,-205.4725"/>
</g>
<!-- Node40 -->
<g id="node36" class="node">
<title>Node40</title>
<g id="a_node36"><a xlink:href="generate__decay__chain_8C.html" target="_top" xlink:title="generate_decay_chain.C">
<polygon fill="none" stroke="#000000" points="2220.5,-140 2220.5,-159 2344.5,-159 2344.5,-140 2220.5,-140"/>
<text text-anchor="middle" x="2282.5" y="-147" font-family="Helvetica,sans-Serif" font-size="10.00" fill="#000000">generate_decay_chain.C</text>
</a>
</g>
</g>
<!-- Node6&#45;&gt;Node40 -->
<g id="edge38" class="edge">
<title>Node6&#45;&gt;Node40</title>
<path fill="none" stroke="#191970" d="M1380.9074,-209.4487C1542.911,-204.2929 2049.1331,-186.8142 2211.5,-165 2222.2537,-163.5552 2233.795,-161.3319 2244.3809,-159.0162"/>
<polygon fill="#191970" stroke="#191970" points="1380.6258,-205.9557 1370.7416,-209.7704 1380.8473,-212.9522 1380.6258,-205.9557"/>
</g>
<!-- Node41 -->
<g id="node37" class="node">
<title>Node41</title>
<g id="a_node37"><a xlink:href="three__body__phsp_8C.html" target="_top" xlink:title="three_body_phsp.C">
<polygon fill="none" stroke="#000000" points="2363,-140 2363,-159 2464,-159 2464,-140 2363,-140"/>
<text text-anchor="middle" x="2413.5" y="-147" font-family="Helvetica,sans-Serif" font-size="10.00" fill="#000000">three_body_phsp.C</text>
</a>
</g>
</g>
<!-- Node6&#45;&gt;Node41 -->
<g id="edge39" class="edge">
<title>Node6&#45;&gt;Node41</title>
<path fill="none" stroke="#191970" d="M1380.7817,-210.1225C1559.3648,-206.7903 2162.5855,-193.6335 2353.5,-165 2362.7565,-163.6117 2372.6511,-161.3769 2381.681,-159.0312"/>
<polygon fill="#191970" stroke="#191970" points="1380.5552,-206.626 1370.6215,-210.31 1380.6844,-213.6248 1380.5552,-206.626"/>
</g>
<!-- Node7&#45;&gt;Node8 -->
<g id="edge3" class="edge">
<title>Node7&#45;&gt;Node8</title>
<path fill="none" stroke="#191970" d="M383.3451,-136.7494C348.1576,-125.5761 296.972,-109.3229 259.8073,-97.5218"/>
<polygon fill="#191970" stroke="#191970" points="382.6785,-140.2099 393.2688,-139.9005 384.7971,-133.5382 382.6785,-140.2099"/>
</g>
<!-- Node7&#45;&gt;Node11 -->
<g id="edge6" class="edge">
<title>Node7&#45;&gt;Node11</title>
<path fill="none" stroke="#191970" d="M402.2169,-133.6559C384.8665,-120.7395 360.93,-102.9201 346.3709,-92.0817"/>
<polygon fill="#191970" stroke="#191970" points="400.4938,-136.7365 410.6052,-139.9005 404.6739,-131.1216 400.4938,-136.7365"/>
</g>
<!-- Node7&#45;&gt;Node14 -->
<g id="edge9" class="edge">
<title>Node7&#45;&gt;Node14</title>
<path fill="none" stroke="#191970" d="M423.7969,-129.6079C423.9819,-117.214 424.2115,-101.8263 424.357,-92.0817"/>
<polygon fill="#191970" stroke="#191970" points="420.293,-129.8494 423.6433,-139.9005 427.2922,-129.9539 420.293,-129.8494"/>
</g>
<!-- Node9 -->
<g id="node5" class="node">
<title>Node9</title>
<g id="a_node5"><a xlink:href="phsp__unweighting__functor__and__fit_8cpp.html" target="_top" xlink:title="phsp_unweighting_functor\l_and_fit.cpp">
<polygon fill="none" stroke="#000000" points="0,-.5 0,-30.5 129,-30.5 129,-.5 0,-.5"/>
<text text-anchor="start" x="8" y="-18.5" font-family="Helvetica,sans-Serif" font-size="10.00" fill="#000000">phsp_unweighting_functor</text>
<text text-anchor="middle" x="64.5" y="-7.5" font-family="Helvetica,sans-Serif" font-size="10.00" fill="#000000">_and_fit.cpp</text>
</a>
</g>
</g>
<!-- Node8&#45;&gt;Node9 -->
<g id="edge4" class="edge">
<title>Node8&#45;&gt;Node9</title>
<path fill="none" stroke="#191970" d="M170.1173,-63.3132C147.1739,-52.9267 119.2366,-40.2794 97.859,-30.6017"/>
<polygon fill="#191970" stroke="#191970" points="168.7325,-66.5282 179.2859,-67.4639 171.6194,-60.1512 168.7325,-66.5282"/>
</g>
<!-- Node10 -->
<g id="node6" class="node">
<title>Node10</title>
<g id="a_node6"><a xlink:href="phsp__unweighting__functor__and__fit_8cu.html" target="_top" xlink:title="phsp_unweighting_functor\l_and_fit.cu">
<polygon fill="none" stroke="#000000" points="147,-.5 147,-30.5 276,-30.5 276,-.5 147,-.5"/>
<text text-anchor="start" x="155" y="-18.5" font-family="Helvetica,sans-Serif" font-size="10.00" fill="#000000">phsp_unweighting_functor</text>
<text text-anchor="middle" x="211.5" y="-7.5" font-family="Helvetica,sans-Serif" font-size="10.00" fill="#000000">_and_fit.cu</text>
</a>
</g>
</g>
<!-- Node8&#45;&gt;Node10 -->
<g id="edge5" class="edge">
<title>Node8&#45;&gt;Node10</title>
<path fill="none" stroke="#191970" d="M212.1198,-57.0249C211.987,-48.128 211.8422,-38.4287 211.726,-30.6432"/>
<polygon fill="#191970" stroke="#191970" points="208.6241,-57.35 212.2731,-67.2967 215.6234,-57.2455 208.6241,-57.35"/>
</g>
<!-- Node12 -->
<g id="node8" class="node">
<title>Node12</title>
<g id="a_node8"><a xlink:href="dalitz__plot_8cpp.html" target="_top" xlink:title="dalitz_plot.cpp">
<polygon fill="none" stroke="#000000" points="294.5,-6 294.5,-25 374.5,-25 374.5,-6 294.5,-6"/>
<text text-anchor="middle" x="334.5" y="-13" font-family="Helvetica,sans-Serif" font-size="10.00" fill="#000000">dalitz_plot.cpp</text>
</a>
</g>
</g>
<!-- Node11&#45;&gt;Node12 -->
<g id="edge7" class="edge">
<title>Node11&#45;&gt;Node12</title>
<path fill="none" stroke="#191970" d="M333.7969,-62.6079C333.9819,-50.214 334.2115,-34.8263 334.357,-25.0817"/>
<polygon fill="#191970" stroke="#191970" points="330.293,-62.8494 333.6433,-72.9005 337.2922,-62.9539 330.293,-62.8494"/>
</g>
<!-- Node13 -->
<g id="node9" class="node">
<title>Node13</title>
<g id="a_node9"><a xlink:href="dalitz__plot_8cu.html" target="_top" xlink:title="dalitz_plot.cu">
<polygon fill="none" stroke="#000000" points="392.5,-6 392.5,-25 466.5,-25 466.5,-6 392.5,-6"/>
<text text-anchor="middle" x="429.5" y="-13" font-family="Helvetica,sans-Serif" font-size="10.00" fill="#000000">dalitz_plot.cu</text>
</a>
</g>
</g>
<!-- Node11&#45;&gt;Node13 -->
<g id="edge8" class="edge">
<title>Node11&#45;&gt;Node13</title>
<path fill="none" stroke="#191970" d="M355.6944,-67.0102C374.2398,-54.067 400.0989,-36.0195 415.7711,-25.0817"/>
<polygon fill="#191970" stroke="#191970" points="353.4517,-64.3072 347.2545,-72.9005 357.4579,-70.0475 353.4517,-64.3072"/>
</g>
<!-- Node16 -->
<g id="node12" class="node">
<title>Node16</title>
<g id="a_node12"><a xlink:href="caching__functors_8cpp.html" target="_top" xlink:title="caching_functors.cpp">
<polygon fill="none" stroke="#000000" points="600.5,-73 600.5,-92 710.5,-92 710.5,-73 600.5,-73"/>
<text text-anchor="middle" x="655.5" y="-80" font-family="Helvetica,sans-Serif" font-size="10.00" fill="#000000">caching_functors.cpp</text>
</a>
</g>
</g>
<!-- Node15&#45;&gt;Node16 -->
<g id="edge12" class="edge">
<title>Node15&#45;&gt;Node16</title>
<path fill="none" stroke="#191970" d="M655.5,-129.6079C655.5,-117.214 655.5,-101.8263 655.5,-92.0817"/>
<polygon fill="#191970" stroke="#191970" points="652.0001,-129.9005 655.5,-139.9005 659.0001,-129.9006 652.0001,-129.9005"/>
</g>
<!-- Node17 -->
<g id="node13" class="node">
<title>Node17</title>
<g id="a_node13"><a xlink:href="caching__functors_8cu.html" target="_top" xlink:title="caching_functors.cu">
<polygon fill="none" stroke="#000000" points="478.5,-73 478.5,-92 582.5,-92 582.5,-73 478.5,-73"/>
<text text-anchor="middle" x="530.5" y="-80" font-family="Helvetica,sans-Serif" font-size="10.00" fill="#000000">caching_functors.cu</text>
</a>
</g>
</g>
<!-- Node15&#45;&gt;Node17 -->
<g id="edge13" class="edge">
<title>Node15&#45;&gt;Node17</title>
<path fill="none" stroke="#191970" d="M628.5551,-135.0575C604.2998,-122.0567 569.3393,-103.3179 548.3762,-92.0817"/>
<polygon fill="#191970" stroke="#191970" points="627.1233,-138.2611 637.5905,-139.9005 630.4303,-132.0915 627.1233,-138.2611"/>
</g>
<!-- Node19 -->
<g id="node15" class="node">
<title>Node19</title>
<g id="a_node15"><a xlink:href="phsp__averaging__functor_8cpp.html" target="_top" xlink:title="phsp_averaging_functor.cpp">
<polygon fill="none" stroke="#000000" points="881,-73 881,-92 1020,-92 1020,-73 881,-73"/>
<text text-anchor="middle" x="950.5" y="-80" font-family="Helvetica,sans-Serif" font-size="10.00" fill="#000000">phsp_averaging_functor.cpp</text>
</a>
</g>
</g>
<!-- Node18&#45;&gt;Node19 -->
<g id="edge15" class="edge">
<title>Node18&#45;&gt;Node19</title>
<path fill="none" stroke="#191970" d="M950.5,-129.6079C950.5,-117.214 950.5,-101.8263 950.5,-92.0817"/>
<polygon fill="#191970" stroke="#191970" points="947.0001,-129.9005 950.5,-139.9005 954.0001,-129.9006 947.0001,-129.9005"/>
</g>
<!-- Node20 -->
<g id="node16" class="node">
<title>Node20</title>
<g id="a_node16"><a xlink:href="phsp__averaging__functor_8cu.html" target="_top" xlink:title="phsp_averaging_functor.cu">
<polygon fill="none" stroke="#000000" points="728.5,-73 728.5,-92 862.5,-92 862.5,-73 728.5,-73"/>
<text text-anchor="middle" x="795.5" y="-80" font-family="Helvetica,sans-Serif" font-size="10.00" fill="#000000">phsp_averaging_functor.cu</text>
</a>
</g>
</g>
<!-- Node18&#45;&gt;Node20 -->
<g id="edge16" class="edge">
<title>Node18&#45;&gt;Node20</title>
<path fill="none" stroke="#191970" d="M919.0647,-135.9118C888.9385,-122.8895 844.2358,-103.5664 817.6665,-92.0817"/>
<polygon fill="#191970" stroke="#191970" points="917.7244,-139.1454 928.2923,-139.9005 920.5019,-132.72 917.7244,-139.1454"/>
</g>
<!-- Node22 -->
<g id="node18" class="node">
<title>Node22</title>
<g id="a_node18"><a xlink:href="phsp__basic_8cpp.html" target="_top" xlink:title="phsp_basic.cpp">
<polygon fill="none" stroke="#000000" points="1137,-73 1137,-92 1222,-92 1222,-73 1137,-73"/>
<text text-anchor="middle" x="1179.5" y="-80" font-family="Helvetica,sans-Serif" font-size="10.00" fill="#000000">phsp_basic.cpp</text>
</a>
</g>
</g>
<!-- Node21&#45;&gt;Node22 -->
<g id="edge18" class="edge">
<title>Node21&#45;&gt;Node22</title>
<path fill="none" stroke="#191970" d="M1179.5,-129.6079C1179.5,-117.214 1179.5,-101.8263 1179.5,-92.0817"/>
<polygon fill="#191970" stroke="#191970" points="1176.0001,-129.9005 1179.5,-139.9005 1183.0001,-129.9006 1176.0001,-129.9005"/>
</g>
<!-- Node23 -->
<g id="node19" class="node">
<title>Node23</title>
<g id="a_node19"><a xlink:href="phsp__basic_8cu.html" target="_top" xlink:title="phsp_basic.cu">
<polygon fill="none" stroke="#000000" points="1038.5,-73 1038.5,-92 1118.5,-92 1118.5,-73 1038.5,-73"/>
<text text-anchor="middle" x="1078.5" y="-80" font-family="Helvetica,sans-Serif" font-size="10.00" fill="#000000">phsp_basic.cu</text>
</a>
</g>
</g>
<!-- Node21&#45;&gt;Node23 -->
<g id="edge19" class="edge">
<title>Node21&#45;&gt;Node23</title>
<path fill="none" stroke="#191970" d="M1156.6799,-134.3619C1137.1339,-121.3957 1109.5823,-103.119 1092.944,-92.0817"/>
<polygon fill="#191970" stroke="#191970" points="1154.7612,-137.2892 1165.0292,-139.9005 1158.6308,-131.4559 1154.7612,-137.2892"/>
</g>
<!-- Node25 -->
<g id="node21" class="node">
<title>Node25</title>
<g id="a_node21"><a xlink:href="phsp__chain_8cpp.html" target="_top" xlink:title="phsp_chain.cpp">
<polygon fill="none" stroke="#000000" points="1339,-73 1339,-92 1424,-92 1424,-73 1339,-73"/>
<text text-anchor="middle" x="1381.5" y="-80" font-family="Helvetica,sans-Serif" font-size="10.00" fill="#000000">phsp_chain.cpp</text>
</a>
</g>
</g>
<!-- Node24&#45;&gt;Node25 -->
<g id="edge21" class="edge">
<title>Node24&#45;&gt;Node25</title>
<path fill="none" stroke="#191970" d="M1343.9361,-131.8486C1353.6256,-119.1194 1366.3348,-102.4229 1374.2065,-92.0817"/>
<polygon fill="#191970" stroke="#191970" points="1341.079,-129.8236 1337.8071,-139.9005 1346.6489,-134.0634 1341.079,-129.8236"/>
</g>
<!-- Node26 -->
<g id="node22" class="node">
<title>Node26</title>
<g id="a_node22"><a xlink:href="phsp__chain_8cu.html" target="_top" xlink:title="phsp_chain.cu">
<polygon fill="none" stroke="#000000" points="1240.5,-73 1240.5,-92 1320.5,-92 1320.5,-73 1240.5,-73"/>
<text text-anchor="middle" x="1280.5" y="-80" font-family="Helvetica,sans-Serif" font-size="10.00" fill="#000000">phsp_chain.cu</text>
</a>
</g>
</g>
<!-- Node24&#45;&gt;Node26 -->
<g id="edge22" class="edge">
<title>Node24&#45;&gt;Node26</title>
<path fill="none" stroke="#191970" d="M1317.3273,-131.8486C1307.8279,-119.1194 1295.3679,-102.4229 1287.6505,-92.0817"/>
<polygon fill="#191970" stroke="#191970" points="1314.5503,-133.9795 1323.3362,-139.9005 1320.1604,-129.7929 1314.5503,-133.9795"/>
</g>
<!-- Node28 -->
<g id="node24" class="node">
<title>Node28</title>
<g id="a_node24"><a xlink:href="phsp__evaluating__functor_8cpp.html" target="_top" xlink:title="phsp_evaluating_functor.cpp">
<polygon fill="none" stroke="#000000" points="1597,-73 1597,-92 1738,-92 1738,-73 1597,-73"/>
<text text-anchor="middle" x="1667.5" y="-80" font-family="Helvetica,sans-Serif" font-size="10.00" fill="#000000">phsp_evaluating_functor.cpp</text>
</a>
</g>
</g>
<!-- Node27&#45;&gt;Node28 -->
<g id="edge24" class="edge">
<title>Node27&#45;&gt;Node28</title>
<path fill="none" stroke="#191970" d="M1542.3409,-135.9118C1572.8558,-122.8895 1618.1354,-103.5664 1645.0475,-92.0817"/>
<polygon fill="#191970" stroke="#191970" points="1540.818,-132.7563 1532.9943,-139.9005 1543.5656,-139.1946 1540.818,-132.7563"/>
</g>
<!-- Node29 -->
<g id="node25" class="node">
<title>Node29</title>
<g id="a_node25"><a xlink:href="phsp__evaluating__functor_8cu.html" target="_top" xlink:title="phsp_evaluating_functor.cu">
<polygon fill="none" stroke="#000000" points="1442.5,-73 1442.5,-92 1578.5,-92 1578.5,-73 1442.5,-73"/>
<text text-anchor="middle" x="1510.5" y="-80" font-family="Helvetica,sans-Serif" font-size="10.00" fill="#000000">phsp_evaluating_functor.cu</text>
</a>
</g>
</g>
<!-- Node27&#45;&gt;Node29 -->
<g id="edge25" class="edge">
<title>Node27&#45;&gt;Node29</title>
<path fill="none" stroke="#191970" d="M1510.5,-129.6079C1510.5,-117.214 1510.5,-101.8263 1510.5,-92.0817"/>
<polygon fill="#191970" stroke="#191970" points="1507.0001,-129.9005 1510.5,-139.9005 1514.0001,-129.9006 1507.0001,-129.9005"/>
</g>
<!-- Node31 -->
<g id="node27" class="node">
<title>Node31</title>
<g id="a_node27"><a xlink:href="phsp__reweighting_8cpp.html" target="_top" xlink:title="phsp_reweighting.cpp">
<polygon fill="none" stroke="#000000" points="1879.5,-73 1879.5,-92 1989.5,-92 1989.5,-73 1879.5,-73"/>
<text text-anchor="middle" x="1934.5" y="-80" font-family="Helvetica,sans-Serif" font-size="10.00" fill="#000000">phsp_reweighting.cpp</text>
</a>
</g>
</g>
<!-- Node30&#45;&gt;Node31 -->
<g id="edge27" class="edge">
<title>Node30&#45;&gt;Node31</title>
<path fill="none" stroke="#191970" d="M1767.7063,-136.7484C1807.734,-123.7297 1868.9642,-103.815 1905.04,-92.0817"/>
<polygon fill="#191970" stroke="#191970" points="1766.4419,-133.4791 1758.0148,-139.9005 1768.607,-140.1359 1766.4419,-133.4791"/>
</g>
<!-- Node32 -->
<g id="node28" class="node">
<title>Node32</title>
<g id="a_node28"><a xlink:href="phsp__reweighting_8cu.html" target="_top" xlink:title="phsp_reweighting.cu">
<polygon fill="none" stroke="#000000" points="1756,-73 1756,-92 1861,-92 1861,-73 1756,-73"/>
<text text-anchor="middle" x="1808.5" y="-80" font-family="Helvetica,sans-Serif" font-size="10.00" fill="#000000">phsp_reweighting.cu</text>
</a>
</g>
</g>
<!-- Node30&#45;&gt;Node32 -->
<g id="edge28" class="edge">
<title>Node30&#45;&gt;Node32</title>
<path fill="none" stroke="#191970" d="M1747.8442,-133.2992C1763.2306,-120.4131 1784.2365,-102.8207 1797.0592,-92.0817"/>
<polygon fill="#191970" stroke="#191970" points="1745.3813,-130.7965 1739.962,-139.9005 1749.8758,-136.1631 1745.3813,-130.7965"/>
</g>
<!-- Node34 -->
<g id="node30" class="node">
<title>Node34</title>
<g id="a_node30"><a xlink:href="phsp__unweighting_8cpp.html" target="_top" xlink:title="phsp_unweighting.cpp">
<polygon fill="none" stroke="#000000" points="2133,-73 2133,-92 2246,-92 2246,-73 2133,-73"/>
<text text-anchor="middle" x="2189.5" y="-80" font-family="Helvetica,sans-Serif" font-size="10.00" fill="#000000">phsp_unweighting.cpp</text>
</a>
</g>
</g>
<!-- Node33&#45;&gt;Node34 -->
<g id="edge30" class="edge">
<title>Node33&#45;&gt;Node34</title>
<path fill="none" stroke="#191970" d="M1899.1619,-137.6296C1904.6563,-136.3476 1910.1939,-135.1083 1915.5,-134 2007.7657,-114.7287 2032.166,-116.9413 2124.5,-98 2133.2506,-96.2049 2142.6177,-94.0874 2151.4388,-92.0038"/>
<polygon fill="#191970" stroke="#191970" points="1898.2924,-134.2388 1889.3778,-139.9641 1899.917,-141.0476 1898.2924,-134.2388"/>
</g>
<!-- Node35 -->
<g id="node31" class="node">
<title>Node35</title>
<g id="a_node31"><a xlink:href="phsp__unweighting_8cu.html" target="_top" xlink:title="phsp_unweighting.cu">
<polygon fill="none" stroke="#000000" points="2008,-73 2008,-92 2115,-92 2115,-73 2008,-73"/>
<text text-anchor="middle" x="2061.5" y="-80" font-family="Helvetica,sans-Serif" font-size="10.00" fill="#000000">phsp_unweighting.cu</text>
</a>
</g>
</g>
<!-- Node33&#45;&gt;Node35 -->
<g id="edge31" class="edge">
<title>Node33&#45;&gt;Node35</title>
<path fill="none" stroke="#191970" d="M1892.0194,-136.8311C1932.6246,-123.8141 1994.9323,-103.8399 2031.6109,-92.0817"/>
<polygon fill="#191970" stroke="#191970" points="1890.8988,-133.5148 1882.4446,-139.9005 1893.0357,-140.1807 1890.8988,-133.5148"/>
</g>
<!-- Node37 -->
<g id="node33" class="node">
<title>Node37</title>
<g id="a_node33"><a xlink:href="phsp__unweighting__functor_8cpp.html" target="_top" xlink:title="phsp_unweighting_functor.cpp">
<polygon fill="none" stroke="#000000" points="2425.5,-73 2425.5,-92 2573.5,-92 2573.5,-73 2425.5,-73"/>
<text text-anchor="middle" x="2499.5" y="-80" font-family="Helvetica,sans-Serif" font-size="10.00" fill="#000000">phsp_unweighting_functor.cpp</text>
</a>
</g>
</g>
<!-- Node36&#45;&gt;Node37 -->
<g id="edge33" class="edge">
<title>Node36&#45;&gt;Node37</title>
<path fill="none" stroke="#191970" d="M2051.662,-138.1242C2059.9711,-136.6241 2068.445,-135.195 2076.5,-134 2226.8107,-111.7006 2266.14,-119.9647 2416.5,-98 2428.1039,-96.3049 2440.5608,-94.1556 2452.2045,-92.0014"/>
<polygon fill="#191970" stroke="#191970" points="2050.8433,-134.7162 2041.6476,-139.9784 2052.1177,-141.5993 2050.8433,-134.7162"/>
</g>
<!-- Node38 -->
<g id="node34" class="node">
<title>Node38</title>
<g id="a_node34"><a xlink:href="phsp__unweighting__functor_8cu.html" target="_top" xlink:title="phsp_unweighting_functor.cu">
<polygon fill="none" stroke="#000000" points="2264,-73 2264,-92 2407,-92 2407,-73 2264,-73"/>
<text text-anchor="middle" x="2335.5" y="-80" font-family="Helvetica,sans-Serif" font-size="10.00" fill="#000000">phsp_unweighting_functor.cu</text>
</a>
</g>
</g>
<!-- Node36&#45;&gt;Node38 -->
<g id="edge34" class="edge">
<title>Node36&#45;&gt;Node38</title>
<path fill="none" stroke="#191970" d="M2054.0661,-137.959C2119.9176,-124.9824 2225.643,-104.1483 2287.0392,-92.0496"/>
<polygon fill="#191970" stroke="#191970" points="2052.9872,-134.6042 2043.8526,-139.9717 2054.3407,-141.4722 2052.9872,-134.6042"/>
</g>
</g>
</svg>
