<?xml version="1.0" encoding="UTF-8" standalone="no"?>
<!DOCTYPE svg PUBLIC "-//W3C//DTD SVG 1.1//EN"
 "http://www.w3.org/Graphics/SVG/1.1/DTD/svg11.dtd">
<!-- Generated by graphviz version 2.40.1 (20161225.0304)
 -->
<!-- Title: Iterator.inl Pages: 1 -->
<svg width="180pt" height="106pt"
 viewBox="0.00 0.00 179.50 106.00" xmlns="http://www.w3.org/2000/svg" xmlns:xlink="http://www.w3.org/1999/xlink">
<g id="graph0" class="graph" transform="scale(1 1) rotate(0) translate(4 102)">
<title>Iterator.inl</title>
<!-- Node0 -->
<g id="node1" class="node">
<title>Node0</title>
<polygon fill="#bfbfbf" stroke="#000000" points="37,-78.5 37,-97.5 97,-97.5 97,-78.5 37,-78.5"/>
<text text-anchor="middle" x="67" y="-85.5" font-family="Helvetica,sans-Serif" font-size="10.00" fill="#000000">Iterator.inl</text>
</g>
<!-- Node1 -->
<g id="node2" class="node">
<title>Node1</title>
<polygon fill="none" stroke="#bfbfbf" points="0,-11.5 0,-30.5 40,-30.5 40,-11.5 0,-11.5"/>
<text text-anchor="middle" x="20" y="-18.5" font-family="Helvetica,sans-Serif" font-size="10.00" fill="#000000">utility</text>
</g>
<!-- Node0&#45;&gt;Node1 -->
<g id="edge1" class="edge">
<title>Node0&#45;&gt;Node1</title>
<path fill="none" stroke="#191970" d="M60.266,-78.4005C53.0764,-68.1515 41.5181,-51.6747 32.6252,-38.9976"/>
<polygon fill="#191970" stroke="#191970" points="35.3296,-36.7582 26.7215,-30.5817 29.599,-40.7783 35.3296,-36.7582"/>
</g>
<!-- Node2 -->
<g id="node3" class="node">
<title>Node2</title>
<polygon fill="none" stroke="#bfbfbf" points="58.5,-.5 58.5,-41.5 171.5,-41.5 171.5,-.5 58.5,-.5"/>
<text text-anchor="start" x="66.5" y="-29.5" font-family="Helvetica,sans-Serif" font-size="10.00" fill="#000000">hydra/detail/external</text>
<text text-anchor="start" x="66.5" y="-18.5" font-family="Helvetica,sans-Serif" font-size="10.00" fill="#000000">/thrust/iterator/reverse</text>
<text text-anchor="middle" x="115" y="-7.5" font-family="Helvetica,sans-Serif" font-size="10.00" fill="#000000">_iterator.h</text>
</g>
<!-- Node0&#45;&gt;Node2 -->
<g id="edge2" class="edge">
<title>Node0&#45;&gt;Node2</title>
<path fill="none" stroke="#191970" d="M73.8772,-78.4005C79.2238,-70.9376 86.936,-60.1727 94.2402,-49.9772"/>
<polygon fill="#191970" stroke="#191970" points="97.2403,-51.7993 100.219,-41.6318 91.5499,-47.7226 97.2403,-51.7993"/>
</g>
</g>
</svg>
