<?xml version="1.0" encoding="UTF-8" standalone="no"?>
<!DOCTYPE svg PUBLIC "-//W3C//DTD SVG 1.1//EN"
 "http://www.w3.org/Graphics/SVG/1.1/DTD/svg11.dtd">
<!-- Generated by graphviz version 2.38.0 (20140413.2041)
 -->
<!-- Title: LogLikelihoodFCN1.inl Pages: 1 -->
<!--zoomable 218 -->
<svg id="main" version="1.1" xmlns="http://www.w3.org/2000/svg" xmlns:xlink="http://www.w3.org/1999/xlink" xml:space="preserve" onload="init(evt)">
<style type="text/css"><![CDATA[
.edge:hover path { stroke: red; }
.edge:hover polygon { stroke: red; fill: red; }
]]></style>
<script type="text/javascript"><![CDATA[
var edges = document.getElementsByTagName('g');
if (edges && edges.length) {
  for (var i=0;i<edges.length;i++) {
    if (edges[i].id.substr(0,4)=='edge') {
      edges[i].setAttribute('class','edge');
    }
  }
}
]]></script>
        <defs>
                <circle id="rim" cx="0" cy="0" r="7"/>
                <circle id="rim2" cx="0" cy="0" r="3.5"/>
                <g id="zoomPlus">
                        <use xlink:href="#rim" fill="#404040">
                                <set attributeName="fill" to="#808080" begin="zoomplus.mouseover" end="zoomplus.mouseout"/>
                        </use>
                        <path d="M-4,0h8M0,-4v8" fill="none" stroke="white" stroke-width="1.5" pointer-events="none"/>
                </g>
                <g id="zoomMin">
                        <use xlink:href="#rim" fill="#404040">
                                <set attributeName="fill" to="#808080" begin="zoomminus.mouseover" end="zoomminus.mouseout"/>
                        </use>
                        <path d="M-4,0h8" fill="none" stroke="white" stroke-width="1.5" pointer-events="none"/>
                </g>
                <g id="dirArrow">
                        <path fill="none" stroke="white" stroke-width="1.5" d="M0,-3.0v7 M-2.5,-0.5L0,-3.0L2.5,-0.5"/>
                </g>
               <g id="resetDef">
                       <use xlink:href="#rim2" fill="#404040">
                               <set attributeName="fill" to="#808080" begin="reset.mouseover" end="reset.mouseout"/>
                       </use>
               </g>
        </defs>

<script type="text/javascript">
var viewWidth = 3138;
var viewHeight = 218;
var sectionId = 'dynsection-1';
</script>
<script xlink:href="svgpan.js"/>
<svg id="graph" class="graph">
<g id="viewport">
<title>LogLikelihoodFCN1.inl</title>
<!-- Node67 -->
<g id="node1" class="node"><title>Node67</title>
<polygon fill="#bfbfbf" stroke="black" points="1655.5,-190.5 1655.5,-209.5 1770.5,-209.5 1770.5,-190.5 1655.5,-190.5"/>
<text text-anchor="middle" x="1713" y="-197.5" font-family="Helvetica,sans-Serif" font-size="10.00">LogLikelihoodFCN1.inl</text>
</g>
<!-- Node68 -->
<g id="node2" class="node"><title>Node68</title>
<g id="a_node2"><a xlink:href="LogLikelihoodFCN_8h.html" target="_top" xlink:title="LogLikelihoodFCN.h">
<polygon fill="none" stroke="black" points="1660.5,-134.5 1660.5,-153.5 1765.5,-153.5 1765.5,-134.5 1660.5,-134.5"/>
<text text-anchor="middle" x="1713" y="-141.5" font-family="Helvetica,sans-Serif" font-size="10.00">LogLikelihoodFCN.h</text>
</a>
</g>
</g>
<!-- Node67&#45;&gt;Node68 -->
<g id="edge1" class="edge"><title>Node67&#45;&gt;Node68</title>
<path fill="none" stroke="midnightblue" d="M1713,-179.805C1713,-170.91 1713,-160.78 1713,-153.751"/>
<polygon fill="midnightblue" stroke="midnightblue" points="1709.5,-180.083 1713,-190.083 1716.5,-180.083 1709.5,-180.083"/>
</g>
<!-- Node69 -->
<g id="node3" class="node"><title>Node69</title>
<g id="a_node3"><a xlink:href="basic__fit_8inl.html" target="_top" xlink:title="basic_fit.inl">
<polygon fill="none" stroke="black" points="91,-73 91,-92 157,-92 157,-73 91,-73"/>
<text text-anchor="middle" x="124" y="-80" font-family="Helvetica,sans-Serif" font-size="10.00">basic_fit.inl</text>
</a>
</g>
</g>
<!-- Node68&#45;&gt;Node69 -->
<g id="edge2" class="edge"><title>Node68&#45;&gt;Node69</title>
<path fill="none" stroke="midnightblue" d="M1650.25,-142.092C1452.27,-138.992 823.096,-127.347 303,-98 252.105,-95.1282 193.206,-90.0101 157.287,-86.6864"/>
<polygon fill="midnightblue" stroke="midnightblue" points="1650.41,-145.595 1660.46,-142.25 1650.52,-138.595 1650.41,-145.595"/>
</g>
<!-- Node72 -->
<g id="node6" class="node"><title>Node72</title>
<g id="a_node6"><a xlink:href="binned__extended__logLL__fit_8inl.html" target="_top" xlink:title="binned_extended_logLL\l_fit.inl">
<polygon fill="none" stroke="black" points="312.5,-67.5 312.5,-97.5 431.5,-97.5 431.5,-67.5 312.5,-67.5"/>
<text text-anchor="start" x="320.5" y="-85.5" font-family="Helvetica,sans-Serif" font-size="10.00">binned_extended_logLL</text>
<text text-anchor="middle" x="372" y="-74.5" font-family="Helvetica,sans-Serif" font-size="10.00">_fit.inl</text>
</a>
</g>
</g>
<!-- Node68&#45;&gt;Node72 -->
<g id="edge5" class="edge"><title>Node68&#45;&gt;Node72</title>
<path fill="none" stroke="midnightblue" d="M1650.13,-141.205C1478.13,-136.144 985.313,-120.641 576,-98 527.431,-95.3134 472.422,-91.3496 431.776,-88.2451"/>
<polygon fill="midnightblue" stroke="midnightblue" points="1650.17,-144.708 1660.27,-141.502 1650.38,-137.711 1650.17,-144.708"/>
</g>
<!-- Node75 -->
<g id="node9" class="node"><title>Node75</title>
<g id="a_node9"><a xlink:href="extended__logLL__fit_8inl.html" target="_top" xlink:title="extended_logLL_fit.inl">
<polygon fill="none" stroke="black" points="585.5,-73 585.5,-92 696.5,-92 696.5,-73 585.5,-73"/>
<text text-anchor="middle" x="641" y="-80" font-family="Helvetica,sans-Serif" font-size="10.00">extended_logLL_fit.inl</text>
</a>
</g>
</g>
<!-- Node68&#45;&gt;Node75 -->
<g id="edge8" class="edge"><title>Node68&#45;&gt;Node75</title>
<path fill="none" stroke="midnightblue" d="M1650.1,-140.191C1506.72,-133.691 1144.62,-116.731 842,-98 792.938,-94.9633 737.185,-90.8922 696.864,-87.8369"/>
<polygon fill="midnightblue" stroke="midnightblue" points="1650.3,-143.704 1660.45,-140.659 1650.62,-136.711 1650.3,-143.704"/>
</g>
<!-- Node78 -->
<g id="node12" class="node"><title>Node78</title>
<g id="a_node12"><a xlink:href="fractional__logLL__fit_8inl.html" target="_top" xlink:title="fractional_logLL_fit.inl">
<polygon fill="none" stroke="black" points="851.5,-73 851.5,-92 962.5,-92 962.5,-73 851.5,-73"/>
<text text-anchor="middle" x="907" y="-80" font-family="Helvetica,sans-Serif" font-size="10.00">fractional_logLL_fit.inl</text>
</a>
</g>
</g>
<!-- Node68&#45;&gt;Node78 -->
<g id="edge11" class="edge"><title>Node68&#45;&gt;Node78</title>
<path fill="none" stroke="midnightblue" d="M1650.27,-138.369C1497.42,-127.085 1107.63,-98.3106 962.53,-87.5993"/>
<polygon fill="midnightblue" stroke="midnightblue" points="1650.2,-141.873 1660.43,-139.119 1650.71,-134.892 1650.2,-141.873"/>
</g>
<!-- Node81 -->
<g id="node15" class="node"><title>Node81</title>
<g id="a_node15"><a xlink:href="multidimensional__fit_8inl.html" target="_top" xlink:title="multidimensional_fit.inl">
<polygon fill="none" stroke="black" points="1121,-73 1121,-92 1237,-92 1237,-73 1121,-73"/>
<text text-anchor="middle" x="1179" y="-80" font-family="Helvetica,sans-Serif" font-size="10.00">multidimensional_fit.inl</text>
</a>
</g>
</g>
<!-- Node68&#45;&gt;Node81 -->
<g id="edge14" class="edge"><title>Node68&#45;&gt;Node81</title>
<path fill="none" stroke="midnightblue" d="M1650.27,-136.011C1546.02,-124.395 1338.56,-101.278 1237.31,-89.9966"/>
<polygon fill="midnightblue" stroke="midnightblue" points="1650.01,-139.503 1660.34,-137.132 1650.79,-132.546 1650.01,-139.503"/>
</g>
<!-- Node84 -->
<g id="node18" class="node"><title>Node84</title>
<g id="a_node18"><a xlink:href="phsp__unweighting__functor__and__fit_8inl.html" target="_top" xlink:title="phsp_unweighting_functor\l_and_fit.inl">
<polygon fill="none" stroke="black" points="1403,-67.5 1403,-97.5 1533,-97.5 1533,-67.5 1403,-67.5"/>
<text text-anchor="start" x="1411" y="-85.5" font-family="Helvetica,sans-Serif" font-size="10.00">phsp_unweighting_functor</text>
<text text-anchor="middle" x="1468" y="-74.5" font-family="Helvetica,sans-Serif" font-size="10.00">_and_fit.inl</text>
</a>
</g>
</g>
<!-- Node68&#45;&gt;Node84 -->
<g id="edge17" class="edge"><title>Node68&#45;&gt;Node84</title>
<path fill="none" stroke="midnightblue" d="M1668.15,-132.107C1628.12,-122.386 1569.27,-108.095 1525.74,-97.523"/>
<polygon fill="midnightblue" stroke="midnightblue" points="1667.35,-135.516 1677.9,-134.475 1669.01,-128.714 1667.35,-135.516"/>
</g>
<!-- Node87 -->
<g id="node21" class="node"><title>Node87</title>
<g id="a_node21"><a xlink:href="splot_8inl.html" target="_top" xlink:title="splot.inl">
<polygon fill="none" stroke="black" points="1626,-73 1626,-92 1676,-92 1676,-73 1626,-73"/>
<text text-anchor="middle" x="1651" y="-80" font-family="Helvetica,sans-Serif" font-size="10.00">splot.inl</text>
</a>
</g>
</g>
<!-- Node68&#45;&gt;Node87 -->
<g id="edge20" class="edge"><title>Node68&#45;&gt;Node87</title>
<path fill="none" stroke="midnightblue" d="M1696.67,-127.325C1684.89,-116.02 1669.44,-101.193 1659.87,-92.0091"/>
<polygon fill="midnightblue" stroke="midnightblue" points="1694.48,-130.076 1704.12,-134.475 1699.33,-125.026 1694.48,-130.076"/>
</g>
<!-- Node90 -->
<g id="node24" class="node"><title>Node90</title>
<g id="a_node24"><a xlink:href="breit__wigner__plus__polynomial_8inl.html" target="_top" xlink:title="breit_wigner_plus_polynomial.inl">
<polygon fill="none" stroke="black" points="1697.5,-73 1697.5,-92 1854.5,-92 1854.5,-73 1697.5,-73"/>
<text text-anchor="middle" x="1776" y="-80" font-family="Helvetica,sans-Serif" font-size="10.00">breit_wigner_plus_polynomial.inl</text>
</a>
</g>
</g>
<!-- Node68&#45;&gt;Node90 -->
<g id="edge23" class="edge"><title>Node68&#45;&gt;Node90</title>
<path fill="none" stroke="midnightblue" d="M1729.6,-127.325C1741.57,-116.02 1757.27,-101.193 1766.99,-92.0091"/>
<polygon fill="midnightblue" stroke="midnightblue" points="1726.89,-125.064 1722.03,-134.475 1731.7,-130.153 1726.89,-125.064"/>
</g>
<!-- Node93 -->
<g id="node27" class="node"><title>Node93</title>
<g id="a_node27"><a xlink:href="crystal__ball__plus__exponential_8inl.html" target="_top" xlink:title="crystal_ball_plus_exponential.inl">
<polygon fill="none" stroke="black" points="2055.5,-73 2055.5,-92 2212.5,-92 2212.5,-73 2055.5,-73"/>
<text text-anchor="middle" x="2134" y="-80" font-family="Helvetica,sans-Serif" font-size="10.00">crystal_ball_plus_exponential.inl</text>
</a>
</g>
</g>
<!-- Node68&#45;&gt;Node93 -->
<g id="edge26" class="edge"><title>Node68&#45;&gt;Node93</title>
<path fill="none" stroke="midnightblue" d="M1775.89,-134.112C1856.35,-122.74 1994.74,-103.182 2073.85,-92.0005"/>
<polygon fill="midnightblue" stroke="midnightblue" points="1775.31,-130.659 1765.89,-135.525 1776.29,-137.591 1775.31,-130.659"/>
</g>
<!-- Node96 -->
<g id="node30" class="node"><title>Node96</title>
<g id="a_node30"><a xlink:href="dalitz__plot_8inl.html" target="_top" xlink:title="dalitz_plot.inl">
<polygon fill="none" stroke="black" points="2413,-73 2413,-92 2487,-92 2487,-73 2413,-73"/>
<text text-anchor="middle" x="2450" y="-80" font-family="Helvetica,sans-Serif" font-size="10.00">dalitz_plot.inl</text>
</a>
</g>
</g>
<!-- Node68&#45;&gt;Node96 -->
<g id="edge29" class="edge"><title>Node68&#45;&gt;Node96</title>
<path fill="none" stroke="midnightblue" d="M1776.03,-137.912C1924.74,-125.905 2293.9,-96.1025 2412.6,-86.5194"/>
<polygon fill="midnightblue" stroke="midnightblue" points="1775.39,-134.451 1765.71,-138.745 1775.96,-141.429 1775.39,-134.451"/>
</g>
<!-- Node99 -->
<g id="node33" class="node"><title>Node99</title>
<g id="a_node33"><a xlink:href="double__gaussian__plus__exponential_8inl.html" target="_top" xlink:title="double_gaussian_plus\l_exponential.inl">
<polygon fill="none" stroke="black" points="2552.5,-67.5 2552.5,-97.5 2665.5,-97.5 2665.5,-67.5 2552.5,-67.5"/>
<text text-anchor="start" x="2560.5" y="-85.5" font-family="Helvetica,sans-Serif" font-size="10.00">double_gaussian_plus</text>
<text text-anchor="middle" x="2609" y="-74.5" font-family="Helvetica,sans-Serif" font-size="10.00">_exponential.inl</text>
</a>
</g>
</g>
<!-- Node68&#45;&gt;Node99 -->
<g id="edge32" class="edge"><title>Node68&#45;&gt;Node99</title>
<path fill="none" stroke="midnightblue" d="M1775.81,-140.888C1908.84,-136.086 2228.75,-122.795 2496,-98 2514.41,-96.2915 2534.45,-93.8968 2552.47,-91.545"/>
<polygon fill="midnightblue" stroke="midnightblue" points="1775.66,-137.391 1765.79,-141.246 1775.91,-144.387 1775.66,-137.391"/>
</g>
<!-- Node102 -->
<g id="node36" class="node"><title>Node102</title>
<g id="a_node36"><a xlink:href="gaussian__plus__argus_8inl.html" target="_top" xlink:title="gaussian_plus_argus.inl">
<polygon fill="none" stroke="black" points="2683.5,-73 2683.5,-92 2804.5,-92 2804.5,-73 2683.5,-73"/>
<text text-anchor="middle" x="2744" y="-80" font-family="Helvetica,sans-Serif" font-size="10.00">gaussian_plus_argus.inl</text>
</a>
</g>
</g>
<!-- Node68&#45;&gt;Node102 -->
<g id="edge35" class="edge"><title>Node68&#45;&gt;Node102</title>
<path fill="none" stroke="midnightblue" d="M1775.79,-143.469C1929.61,-143.879 2337.27,-140.491 2674,-98 2685.2,-96.5861 2697.29,-94.3452 2708.21,-92.0439"/>
<polygon fill="midnightblue" stroke="midnightblue" points="1775.61,-139.969 1765.6,-143.435 1775.58,-146.969 1775.61,-139.969"/>
</g>
<!-- Node105 -->
<g id="node39" class="node"><title>Node105</title>
<g id="a_node39"><a xlink:href="fit__3d__gaussian_8C.html" target="_top" xlink:title="fit_3d_gaussian.C">
<polygon fill="none" stroke="black" points="2822.5,-73 2822.5,-92 2917.5,-92 2917.5,-73 2822.5,-73"/>
<text text-anchor="middle" x="2870" y="-80" font-family="Helvetica,sans-Serif" font-size="10.00">fit_3d_gaussian.C</text>
</a>
</g>
</g>
<!-- Node68&#45;&gt;Node105 -->
<g id="edge38" class="edge"><title>Node68&#45;&gt;Node105</title>
<path fill="none" stroke="midnightblue" d="M1775.75,-142.188C1978.02,-139.294 2611.49,-128.008 2814,-98 2823.14,-96.6457 2832.94,-94.3921 2841.75,-92.0606"/>
<polygon fill="midnightblue" stroke="midnightblue" points="1775.54,-138.69 1765.59,-142.331 1775.64,-145.689 1775.54,-138.69"/>
</g>
<!-- Node106 -->
<g id="node40" class="node"><title>Node106</title>
<g id="a_node40"><a xlink:href="fit__gaussian_8C.html" target="_top" xlink:title="fit_gaussian.C">
<polygon fill="none" stroke="black" points="2936,-73 2936,-92 3016,-92 3016,-73 2936,-73"/>
<text text-anchor="middle" x="2976" y="-80" font-family="Helvetica,sans-Serif" font-size="10.00">fit_gaussian.C</text>
</a>
</g>
</g>
<!-- Node68&#45;&gt;Node106 -->
<g id="edge39" class="edge"><title>Node68&#45;&gt;Node106</title>
<path fill="none" stroke="midnightblue" d="M1775.93,-142.746C1991.93,-141.549 2702.13,-134.839 2927,-98 2935.14,-96.6662 2943.84,-94.3878 2951.6,-92.0273"/>
<polygon fill="midnightblue" stroke="midnightblue" points="1775.7,-139.247 1765.72,-142.8 1775.74,-146.247 1775.7,-139.247"/>
</g>
<!-- Node70 -->
<g id="node4" class="node"><title>Node70</title>
<g id="a_node4"><a xlink:href="basic__fit_8cpp.html" target="_top" xlink:title="basic_fit.cpp">
<polygon fill="none" stroke="black" points="0,-6 0,-25 72,-25 72,-6 0,-6"/>
<text text-anchor="middle" x="36" y="-13" font-family="Helvetica,sans-Serif" font-size="10.00">basic_fit.cpp</text>
</a>
</g>
</g>
<!-- Node69&#45;&gt;Node70 -->
<g id="edge3" class="edge"><title>Node69&#45;&gt;Node70</title>
<path fill="none" stroke="midnightblue" d="M103.784,-66.5678C86.414,-53.7376 61.9739,-35.6853 47.68,-25.1273"/>
<polygon fill="midnightblue" stroke="midnightblue" points="102.009,-69.6077 112.132,-72.7338 106.168,-63.9771 102.009,-69.6077"/>
</g>
<!-- Node71 -->
<g id="node5" class="node"><title>Node71</title>
<g id="a_node5"><a xlink:href="basic__fit_8cu.html" target="_top" xlink:title="basic_fit.cu">
<polygon fill="none" stroke="black" points="90.5,-6 90.5,-25 157.5,-25 157.5,-6 90.5,-6"/>
<text text-anchor="middle" x="124" y="-13" font-family="Helvetica,sans-Serif" font-size="10.00">basic_fit.cu</text>
</a>
</g>
</g>
<!-- Node69&#45;&gt;Node71 -->
<g id="edge4" class="edge"><title>Node69&#45;&gt;Node71</title>
<path fill="none" stroke="midnightblue" d="M124,-62.537C124,-50.1703 124,-34.6198 124,-25.1273"/>
<polygon fill="midnightblue" stroke="midnightblue" points="120.5,-62.7338 124,-72.7338 127.5,-62.7338 120.5,-62.7338"/>
</g>
<!-- Node73 -->
<g id="node7" class="node"><title>Node73</title>
<g id="a_node7"><a xlink:href="binned__extended__logLL__fit_8cpp.html" target="_top" xlink:title="binned_extended_logLL\l_fit.cpp">
<polygon fill="none" stroke="black" points="175.5,-0.5 175.5,-30.5 294.5,-30.5 294.5,-0.5 175.5,-0.5"/>
<text text-anchor="start" x="183.5" y="-18.5" font-family="Helvetica,sans-Serif" font-size="10.00">binned_extended_logLL</text>
<text text-anchor="middle" x="235" y="-7.5" font-family="Helvetica,sans-Serif" font-size="10.00">_fit.cpp</text>
</a>
</g>
</g>
<!-- Node72&#45;&gt;Node73 -->
<g id="edge6" class="edge"><title>Node72&#45;&gt;Node73</title>
<path fill="none" stroke="midnightblue" d="M332.991,-62.9921C311.276,-52.6892 284.673,-40.0677 264.669,-30.5765"/>
<polygon fill="midnightblue" stroke="midnightblue" points="331.738,-66.2715 342.273,-67.396 334.739,-59.9472 331.738,-66.2715"/>
</g>
<!-- Node74 -->
<g id="node8" class="node"><title>Node74</title>
<g id="a_node8"><a xlink:href="binned__extended__logLL__fit_8cu.html" target="_top" xlink:title="binned_extended_logLL\l_fit.cu">
<polygon fill="none" stroke="black" points="312.5,-0.5 312.5,-30.5 431.5,-30.5 431.5,-0.5 312.5,-0.5"/>
<text text-anchor="start" x="320.5" y="-18.5" font-family="Helvetica,sans-Serif" font-size="10.00">binned_extended_logLL</text>
<text text-anchor="middle" x="372" y="-7.5" font-family="Helvetica,sans-Serif" font-size="10.00">_fit.cu</text>
</a>
</g>
</g>
<!-- Node72&#45;&gt;Node74 -->
<g id="edge7" class="edge"><title>Node72&#45;&gt;Node74</title>
<path fill="none" stroke="midnightblue" d="M372,-57.1081C372,-48.1539 372,-38.3227 372,-30.5765"/>
<polygon fill="midnightblue" stroke="midnightblue" points="368.5,-57.3959 372,-67.396 375.5,-57.396 368.5,-57.3959"/>
</g>
<!-- Node76 -->
<g id="node10" class="node"><title>Node76</title>
<g id="a_node10"><a xlink:href="extended__logLL__fit_8cpp.html" target="_top" xlink:title="extended_logLL_fit.cpp">
<polygon fill="none" stroke="black" points="449.5,-6 449.5,-25 566.5,-25 566.5,-6 449.5,-6"/>
<text text-anchor="middle" x="508" y="-13" font-family="Helvetica,sans-Serif" font-size="10.00">extended_logLL_fit.cpp</text>
</a>
</g>
</g>
<!-- Node75&#45;&gt;Node76 -->
<g id="edge9" class="edge"><title>Node75&#45;&gt;Node76</title>
<path fill="none" stroke="midnightblue" d="M614.285,-68.4436C587.941,-55.5691 548.426,-36.2573 525.734,-25.1672"/>
<polygon fill="midnightblue" stroke="midnightblue" points="612.817,-71.6221 623.339,-72.8685 615.891,-65.333 612.817,-71.6221"/>
</g>
<!-- Node77 -->
<g id="node11" class="node"><title>Node77</title>
<g id="a_node11"><a xlink:href="extended__logLL__fit_8cu.html" target="_top" xlink:title="extended_logLL_fit.cu">
<polygon fill="none" stroke="black" points="585,-6 585,-25 697,-25 697,-6 585,-6"/>
<text text-anchor="middle" x="641" y="-13" font-family="Helvetica,sans-Serif" font-size="10.00">extended_logLL_fit.cu</text>
</a>
</g>
</g>
<!-- Node75&#45;&gt;Node77 -->
<g id="edge10" class="edge"><title>Node75&#45;&gt;Node77</title>
<path fill="none" stroke="midnightblue" d="M641,-62.537C641,-50.1703 641,-34.6198 641,-25.1273"/>
<polygon fill="midnightblue" stroke="midnightblue" points="637.5,-62.7338 641,-72.7338 644.5,-62.7338 637.5,-62.7338"/>
</g>
<!-- Node79 -->
<g id="node13" class="node"><title>Node79</title>
<g id="a_node13"><a xlink:href="fractional__logLL__fit_8cpp.html" target="_top" xlink:title="fractional_logLL_fit.cpp">
<polygon fill="none" stroke="black" points="715.5,-6 715.5,-25 832.5,-25 832.5,-6 715.5,-6"/>
<text text-anchor="middle" x="774" y="-13" font-family="Helvetica,sans-Serif" font-size="10.00">fractional_logLL_fit.cpp</text>
</a>
</g>
</g>
<!-- Node78&#45;&gt;Node79 -->
<g id="edge12" class="edge"><title>Node78&#45;&gt;Node79</title>
<path fill="none" stroke="midnightblue" d="M880.285,-68.4436C853.941,-55.5691 814.426,-36.2573 791.734,-25.1672"/>
<polygon fill="midnightblue" stroke="midnightblue" points="878.817,-71.6221 889.339,-72.8685 881.891,-65.333 878.817,-71.6221"/>
</g>
<!-- Node80 -->
<g id="node14" class="node"><title>Node80</title>
<g id="a_node14"><a xlink:href="fractional__logLL__fit_8cu.html" target="_top" xlink:title="fractional_logLL_fit.cu">
<polygon fill="none" stroke="black" points="851,-6 851,-25 963,-25 963,-6 851,-6"/>
<text text-anchor="middle" x="907" y="-13" font-family="Helvetica,sans-Serif" font-size="10.00">fractional_logLL_fit.cu</text>
</a>
</g>
</g>
<!-- Node78&#45;&gt;Node80 -->
<g id="edge13" class="edge"><title>Node78&#45;&gt;Node80</title>
<path fill="none" stroke="midnightblue" d="M907,-62.537C907,-50.1703 907,-34.6198 907,-25.1273"/>
<polygon fill="midnightblue" stroke="midnightblue" points="903.5,-62.7338 907,-72.7338 910.5,-62.7338 903.5,-62.7338"/>
</g>
<!-- Node82 -->
<g id="node16" class="node"><title>Node82</title>
<g id="a_node16"><a xlink:href="multidimensional__fit_8cpp.html" target="_top" xlink:title="multidimensional_fit.cpp">
<polygon fill="none" stroke="black" points="981,-6 981,-25 1103,-25 1103,-6 981,-6"/>
<text text-anchor="middle" x="1042" y="-13" font-family="Helvetica,sans-Serif" font-size="10.00">multidimensional_fit.cpp</text>
</a>
</g>
</g>
<!-- Node81&#45;&gt;Node82 -->
<g id="edge15" class="edge"><title>Node81&#45;&gt;Node82</title>
<path fill="none" stroke="midnightblue" d="M1151.48,-68.4436C1124.35,-55.5691 1083.64,-36.2573 1060.27,-25.1672"/>
<polygon fill="midnightblue" stroke="midnightblue" points="1150.27,-71.7441 1160.81,-72.8685 1153.27,-65.4198 1150.27,-71.7441"/>
</g>
<!-- Node83 -->
<g id="node17" class="node"><title>Node83</title>
<g id="a_node17"><a xlink:href="multidimensional__fit_8cu.html" target="_top" xlink:title="multidimensional_fit.cu">
<polygon fill="none" stroke="black" points="1121,-6 1121,-25 1237,-25 1237,-6 1121,-6"/>
<text text-anchor="middle" x="1179" y="-13" font-family="Helvetica,sans-Serif" font-size="10.00">multidimensional_fit.cu</text>
</a>
</g>
</g>
<!-- Node81&#45;&gt;Node83 -->
<g id="edge16" class="edge"><title>Node81&#45;&gt;Node83</title>
<path fill="none" stroke="midnightblue" d="M1179,-62.537C1179,-50.1703 1179,-34.6198 1179,-25.1273"/>
<polygon fill="midnightblue" stroke="midnightblue" points="1175.5,-62.7338 1179,-72.7338 1182.5,-62.7338 1175.5,-62.7338"/>
</g>
<!-- Node85 -->
<g id="node19" class="node"><title>Node85</title>
<g id="a_node19"><a xlink:href="phsp__unweighting__functor__and__fit_8cpp.html" target="_top" xlink:title="phsp_unweighting_functor\l_and_fit.cpp">
<polygon fill="none" stroke="black" points="1255,-0.5 1255,-30.5 1385,-30.5 1385,-0.5 1255,-0.5"/>
<text text-anchor="start" x="1263" y="-18.5" font-family="Helvetica,sans-Serif" font-size="10.00">phsp_unweighting_functor</text>
<text text-anchor="middle" x="1320" y="-7.5" font-family="Helvetica,sans-Serif" font-size="10.00">_and_fit.cpp</text>
</a>
</g>
</g>
<!-- Node84&#45;&gt;Node85 -->
<g id="edge18" class="edge"><title>Node84&#45;&gt;Node85</title>
<path fill="none" stroke="midnightblue" d="M1426.49,-63.2687C1402.92,-52.9159 1373.86,-40.1528 1352.05,-30.5765"/>
<polygon fill="midnightblue" stroke="midnightblue" points="1425.32,-66.5793 1435.89,-67.396 1428.14,-60.1702 1425.32,-66.5793"/>
</g>
<!-- Node86 -->
<g id="node20" class="node"><title>Node86</title>
<g id="a_node20"><a xlink:href="phsp__unweighting__functor__and__fit_8cu.html" target="_top" xlink:title="phsp_unweighting_functor\l_and_fit.cu">
<polygon fill="none" stroke="black" points="1403,-0.5 1403,-30.5 1533,-30.5 1533,-0.5 1403,-0.5"/>
<text text-anchor="start" x="1411" y="-18.5" font-family="Helvetica,sans-Serif" font-size="10.00">phsp_unweighting_functor</text>
<text text-anchor="middle" x="1468" y="-7.5" font-family="Helvetica,sans-Serif" font-size="10.00">_and_fit.cu</text>
</a>
</g>
</g>
<!-- Node84&#45;&gt;Node86 -->
<g id="edge19" class="edge"><title>Node84&#45;&gt;Node86</title>
<path fill="none" stroke="midnightblue" d="M1468,-57.1081C1468,-48.1539 1468,-38.3227 1468,-30.5765"/>
<polygon fill="midnightblue" stroke="midnightblue" points="1464.5,-57.3959 1468,-67.396 1471.5,-57.396 1464.5,-57.3959"/>
</g>
<!-- Node88 -->
<g id="node22" class="node"><title>Node88</title>
<g id="a_node22"><a xlink:href="splot_8cpp.html" target="_top" xlink:title="splot.cpp">
<polygon fill="none" stroke="black" points="1551,-6 1551,-25 1607,-25 1607,-6 1551,-6"/>
<text text-anchor="middle" x="1579" y="-13" font-family="Helvetica,sans-Serif" font-size="10.00">splot.cpp</text>
</a>
</g>
</g>
<!-- Node87&#45;&gt;Node88 -->
<g id="edge21" class="edge"><title>Node87&#45;&gt;Node88</title>
<path fill="none" stroke="midnightblue" d="M1633.67,-65.8564C1619.52,-53.0777 1600.04,-35.4915 1588.56,-25.1273"/>
<polygon fill="midnightblue" stroke="midnightblue" points="1631.52,-68.6307 1641.29,-72.7338 1636.21,-63.4348 1631.52,-68.6307"/>
</g>
<!-- Node89 -->
<g id="node23" class="node"><title>Node89</title>
<g id="a_node23"><a xlink:href="splot_8cu.html" target="_top" xlink:title="splot.cu">
<polygon fill="none" stroke="black" points="1625.5,-6 1625.5,-25 1676.5,-25 1676.5,-6 1625.5,-6"/>
<text text-anchor="middle" x="1651" y="-13" font-family="Helvetica,sans-Serif" font-size="10.00">splot.cu</text>
</a>
</g>
</g>
<!-- Node87&#45;&gt;Node89 -->
<g id="edge22" class="edge"><title>Node87&#45;&gt;Node89</title>
<path fill="none" stroke="midnightblue" d="M1651,-62.537C1651,-50.1703 1651,-34.6198 1651,-25.1273"/>
<polygon fill="midnightblue" stroke="midnightblue" points="1647.5,-62.7338 1651,-72.7338 1654.5,-62.7338 1647.5,-62.7338"/>
</g>
<!-- Node91 -->
<g id="node25" class="node"><title>Node91</title>
<g id="a_node25"><a xlink:href="breit__wigner__plus__polynomial_8cpp.html" target="_top" xlink:title="breit_wigner_plus_polynomial.cpp">
<polygon fill="none" stroke="black" points="1694.5,-6 1694.5,-25 1857.5,-25 1857.5,-6 1694.5,-6"/>
<text text-anchor="middle" x="1776" y="-13" font-family="Helvetica,sans-Serif" font-size="10.00">breit_wigner_plus_polynomial.cpp</text>
</a>
</g>
</g>
<!-- Node90&#45;&gt;Node91 -->
<g id="edge24" class="edge"><title>Node90&#45;&gt;Node91</title>
<path fill="none" stroke="midnightblue" d="M1776,-62.537C1776,-50.1703 1776,-34.6198 1776,-25.1273"/>
<polygon fill="midnightblue" stroke="midnightblue" points="1772.5,-62.7338 1776,-72.7338 1779.5,-62.7338 1772.5,-62.7338"/>
</g>
<!-- Node92 -->
<g id="node26" class="node"><title>Node92</title>
<g id="a_node26"><a xlink:href="breit__wigner__plus__polynomial_8cu.html" target="_top" xlink:title="breit_wigner_plus_polynomial.cu">
<polygon fill="none" stroke="black" points="1876,-6 1876,-25 2034,-25 2034,-6 1876,-6"/>
<text text-anchor="middle" x="1955" y="-13" font-family="Helvetica,sans-Serif" font-size="10.00">breit_wigner_plus_polynomial.cu</text>
</a>
</g>
</g>
<!-- Node90&#45;&gt;Node92 -->
<g id="edge25" class="edge"><title>Node90&#45;&gt;Node92</title>
<path fill="none" stroke="midnightblue" d="M1809.22,-69.4363C1844.73,-56.5417 1900.13,-36.4243 1931.42,-25.0637"/>
<polygon fill="midnightblue" stroke="midnightblue" points="1807.97,-66.1654 1799.77,-72.8685 1810.36,-72.745 1807.97,-66.1654"/>
</g>
<!-- Node94 -->
<g id="node28" class="node"><title>Node94</title>
<g id="a_node28"><a xlink:href="crystal__ball__plus__exponential_8cpp.html" target="_top" xlink:title="crystal_ball_plus_exponential.cpp">
<polygon fill="none" stroke="black" points="2052.5,-6 2052.5,-25 2215.5,-25 2215.5,-6 2052.5,-6"/>
<text text-anchor="middle" x="2134" y="-13" font-family="Helvetica,sans-Serif" font-size="10.00">crystal_ball_plus_exponential.cpp</text>
</a>
</g>
</g>
<!-- Node93&#45;&gt;Node94 -->
<g id="edge27" class="edge"><title>Node93&#45;&gt;Node94</title>
<path fill="none" stroke="midnightblue" d="M2134,-62.537C2134,-50.1703 2134,-34.6198 2134,-25.1273"/>
<polygon fill="midnightblue" stroke="midnightblue" points="2130.5,-62.7338 2134,-72.7338 2137.5,-62.7338 2130.5,-62.7338"/>
</g>
<!-- Node95 -->
<g id="node29" class="node"><title>Node95</title>
<g id="a_node29"><a xlink:href="crystal__ball__plus__exponential_8cu.html" target="_top" xlink:title="crystal_ball_plus_exponential.cu">
<polygon fill="none" stroke="black" points="2234,-6 2234,-25 2392,-25 2392,-6 2234,-6"/>
<text text-anchor="middle" x="2313" y="-13" font-family="Helvetica,sans-Serif" font-size="10.00">crystal_ball_plus_exponential.cu</text>
</a>
</g>
</g>
<!-- Node93&#45;&gt;Node95 -->
<g id="edge28" class="edge"><title>Node93&#45;&gt;Node95</title>
<path fill="none" stroke="midnightblue" d="M2167.22,-69.4363C2202.73,-56.5417 2258.13,-36.4243 2289.42,-25.0637"/>
<polygon fill="midnightblue" stroke="midnightblue" points="2165.97,-66.1654 2157.77,-72.8685 2168.36,-72.745 2165.97,-66.1654"/>
</g>
<!-- Node97 -->
<g id="node31" class="node"><title>Node97</title>
<g id="a_node31"><a xlink:href="dalitz__plot_8cpp.html" target="_top" xlink:title="dalitz_plot.cpp">
<polygon fill="none" stroke="black" points="2410,-6 2410,-25 2490,-25 2490,-6 2410,-6"/>
<text text-anchor="middle" x="2450" y="-13" font-family="Helvetica,sans-Serif" font-size="10.00">dalitz_plot.cpp</text>
</a>
</g>
</g>
<!-- Node96&#45;&gt;Node97 -->
<g id="edge30" class="edge"><title>Node96&#45;&gt;Node97</title>
<path fill="none" stroke="midnightblue" d="M2450,-62.537C2450,-50.1703 2450,-34.6198 2450,-25.1273"/>
<polygon fill="midnightblue" stroke="midnightblue" points="2446.5,-62.7338 2450,-72.7338 2453.5,-62.7338 2446.5,-62.7338"/>
</g>
<!-- Node98 -->
<g id="node32" class="node"><title>Node98</title>
<g id="a_node32"><a xlink:href="dalitz__plot_8cu.html" target="_top" xlink:title="dalitz_plot.cu">
<polygon fill="none" stroke="black" points="2508,-6 2508,-25 2582,-25 2582,-6 2508,-6"/>
<text text-anchor="middle" x="2545" y="-13" font-family="Helvetica,sans-Serif" font-size="10.00">dalitz_plot.cu</text>
</a>
</g>
</g>
<!-- Node96&#45;&gt;Node98 -->
<g id="edge31" class="edge"><title>Node96&#45;&gt;Node98</title>
<path fill="none" stroke="midnightblue" d="M2471.31,-66.9196C2490.09,-54.0695 2516.82,-35.7821 2532.39,-25.1273"/>
<polygon fill="midnightblue" stroke="midnightblue" points="2469.09,-64.1983 2462.81,-72.7338 2473.04,-69.9755 2469.09,-64.1983"/>
</g>
<!-- Node100 -->
<g id="node34" class="node"><title>Node100</title>
<g id="a_node34"><a xlink:href="double__gaussian__plus__exponential_8cpp.html" target="_top" xlink:title="double_gaussian_plus\l_exponential.cpp">
<polygon fill="none" stroke="black" points="2600.5,-0.5 2600.5,-30.5 2713.5,-30.5 2713.5,-0.5 2600.5,-0.5"/>
<text text-anchor="start" x="2608.5" y="-18.5" font-family="Helvetica,sans-Serif" font-size="10.00">double_gaussian_plus</text>
<text text-anchor="middle" x="2657" y="-7.5" font-family="Helvetica,sans-Serif" font-size="10.00">_exponential.cpp</text>
</a>
</g>
</g>
<!-- Node99&#45;&gt;Node100 -->
<g id="edge33" class="edge"><title>Node99&#45;&gt;Node100</title>
<path fill="none" stroke="midnightblue" d="M2625.5,-59.1575C2632.5,-49.6788 2640.44,-38.9186 2646.61,-30.5765"/>
<polygon fill="midnightblue" stroke="midnightblue" points="2622.54,-57.2725 2619.42,-67.396 2628.17,-61.4308 2622.54,-57.2725"/>
</g>
<!-- Node101 -->
<g id="node35" class="node"><title>Node101</title>
<g id="a_node35"><a xlink:href="double__gaussian__plus__exponential_8cu.html" target="_top" xlink:title="double_gaussian_plus\l_exponential.cu">
<polygon fill="none" stroke="black" points="2731.5,-0.5 2731.5,-30.5 2844.5,-30.5 2844.5,-0.5 2731.5,-0.5"/>
<text text-anchor="start" x="2739.5" y="-18.5" font-family="Helvetica,sans-Serif" font-size="10.00">double_gaussian_plus</text>
<text text-anchor="middle" x="2788" y="-7.5" font-family="Helvetica,sans-Serif" font-size="10.00">_exponential.cu</text>
</a>
</g>
</g>
<!-- Node99&#45;&gt;Node101 -->
<g id="edge34" class="edge"><title>Node99&#45;&gt;Node101</title>
<path fill="none" stroke="midnightblue" d="M2657.32,-63.9553C2686.15,-53.4847 2722.28,-40.3656 2749.24,-30.5765"/>
<polygon fill="midnightblue" stroke="midnightblue" points="2656.05,-60.6929 2647.84,-67.396 2658.43,-67.2725 2656.05,-60.6929"/>
</g>
<!-- Node103 -->
<g id="node37" class="node"><title>Node103</title>
<g id="a_node37"><a xlink:href="gaussian__plus__argus_8cpp.html" target="_top" xlink:title="gaussian_plus_argus.cpp">
<polygon fill="none" stroke="black" points="2862.5,-6 2862.5,-25 2989.5,-25 2989.5,-6 2862.5,-6"/>
<text text-anchor="middle" x="2926" y="-13" font-family="Helvetica,sans-Serif" font-size="10.00">gaussian_plus_argus.cpp</text>
</a>
</g>
</g>
<!-- Node102&#45;&gt;Node103 -->
<g id="edge36" class="edge"><title>Node102&#45;&gt;Node103</title>
<path fill="none" stroke="midnightblue" d="M2777.78,-69.4363C2813.88,-56.5417 2870.21,-36.4243 2902.02,-25.0637"/>
<polygon fill="midnightblue" stroke="midnightblue" points="2776.41,-66.209 2768.17,-72.8685 2778.76,-72.8012 2776.41,-66.209"/>
</g>
<!-- Node104 -->
<g id="node38" class="node"><title>Node104</title>
<g id="a_node38"><a xlink:href="gaussian__plus__argus_8cu.html" target="_top" xlink:title="gaussian_plus_argus.cu">
<polygon fill="none" stroke="black" points="3008,-6 3008,-25 3130,-25 3130,-6 3008,-6"/>
<text text-anchor="middle" x="3069" y="-13" font-family="Helvetica,sans-Serif" font-size="10.00">gaussian_plus_argus.cu</text>
</a>
</g>
</g>
<!-- Node102&#45;&gt;Node104 -->
<g id="edge37" class="edge"><title>Node102&#45;&gt;Node104</title>
<path fill="none" stroke="midnightblue" d="M2794.76,-70.9096C2801.24,-69.5815 2807.77,-68.251 2814,-67 2896.12,-50.5044 2916.88,-47.4956 2999,-31 3008.49,-29.0937 3018.7,-27.0029 3028.3,-25.0171"/>
<polygon fill="midnightblue" stroke="midnightblue" points="2793.79,-67.5371 2784.7,-72.9829 2795.2,-74.3931 2793.79,-67.5371"/>
</g>
</g>
</svg>
        <g id="navigator" transform="translate(0 0)" fill="#404254">
                <rect fill="#f2f5e9" fill-opacity="0.5" stroke="#606060" stroke-width=".5" x="0" y="0" width="60" height="60"/>
                <use id="zoomplus" xlink:href="#zoomPlus" x="17" y="9" onmousedown="handleZoom(evt,'in')"/>
                <use id="zoomminus" xlink:href="#zoomMin" x="42" y="9" onmousedown="handleZoom(evt,'out')"/>
                <use id="reset" xlink:href="#resetDef" x="30" y="36" onmousedown="handleReset()"/>
                <g id="arrowUp" xlink:href="#dirArrow" transform="translate(30 24)" onmousedown="handlePan(0,-1)">
                  <use xlink:href="#rim" fill="#404040">
                        <set attributeName="fill" to="#808080" begin="arrowUp.mouseover" end="arrowUp.mouseout"/>
                  </use>
                  <path fill="none" stroke="white" stroke-width="1.5" d="M0,-3.0v7 M-2.5,-0.5L0,-3.0L2.5,-0.5"/>
                </g>
                <g id="arrowRight" xlink:href="#dirArrow" transform="rotate(90) translate(36 -43)" onmousedown="handlePan(1,0)">
                  <use xlink:href="#rim" fill="#404040">
                        <set attributeName="fill" to="#808080" begin="arrowRight.mouseover" end="arrowRight.mouseout"/>
                  </use>
                  <path fill="none" stroke="white" stroke-width="1.5" d="M0,-3.0v7 M-2.5,-0.5L0,-3.0L2.5,-0.5"/>
                </g>
                <g id="arrowDown" xlink:href="#dirArrow" transform="rotate(180) translate(-30 -48)" onmousedown="handlePan(0,1)">
                  <use xlink:href="#rim" fill="#404040">
                        <set attributeName="fill" to="#808080" begin="arrowDown.mouseover" end="arrowDown.mouseout"/>
                  </use>
                  <path fill="none" stroke="white" stroke-width="1.5" d="M0,-3.0v7 M-2.5,-0.5L0,-3.0L2.5,-0.5"/>
                </g>
                <g id="arrowLeft" xlink:href="#dirArrow" transform="rotate(270) translate(-36 17)" onmousedown="handlePan(-1,0)">
                  <use xlink:href="#rim" fill="#404040">
                        <set attributeName="fill" to="#808080" begin="arrowLeft.mouseover" end="arrowLeft.mouseout"/>
                  </use>
                  <path fill="none" stroke="white" stroke-width="1.5" d="M0,-3.0v7 M-2.5,-0.5L0,-3.0L2.5,-0.5"/>
                </g>
        </g>
        <svg viewBox="0 0 15 15" width="100%" height="30px" preserveAspectRatio="xMaxYMin meet">
         <g id="arrow_out" transform="scale(0.3 0.3)">
          <a xlink:href="LogLikelihoodFCN1_8inl__dep__incl_org.svg" target="_base">
           <rect id="button" ry="5" rx="5" y="6" x="6" height="38" width="38"
                fill="#f2f5e9" fill-opacity="0.5" stroke="#606060" stroke-width="1.0"/>
           <path id="arrow"
             d="M 11.500037,31.436501 C 11.940474,20.09759 22.043105,11.32322 32.158766,21.979434 L 37.068811,17.246167 C 37.068811,17.246167 37.088388,32 37.088388,32 L 22.160133,31.978069 C 22.160133,31.978069 26.997745,27.140456 26.997745,27.140456 C 18.528582,18.264221 13.291696,25.230495 11.500037,31.436501 z"
             style="fill:#404040;"/>
          </a>
         </g>
        </svg>
</svg>
