<?xml version="1.0" encoding="UTF-8" standalone="no"?>
<!DOCTYPE svg PUBLIC "-//W3C//DTD SVG 1.1//EN"
 "http://www.w3.org/Graphics/SVG/1.1/DTD/svg11.dtd">
<!-- Generated by graphviz version 2.42.4 (0)
 -->
<!-- Title: LogLikelihood1.h Pages: 1 -->
<!--zoomable 407 -->
<svg id="main" version="1.1" xmlns="http://www.w3.org/2000/svg" xmlns:xlink="http://www.w3.org/1999/xlink" xml:space="preserve" onload="init(evt)">
<style type="text/css"><![CDATA[
.edge:hover path { stroke: red; }
.edge:hover polygon { stroke: red; fill: red; }
]]></style>
<script type="text/javascript"><![CDATA[
var edges = document.getElementsByTagName('g');
if (edges && edges.length) {
  for (var i=0;i<edges.length;i++) {
    if (edges[i].id.substr(0,4)=='edge') {
      edges[i].setAttribute('class','edge');
    }
  }
}
]]></script>
        <defs>
                <circle id="rim" cx="0" cy="0" r="7"/>
                <circle id="rim2" cx="0" cy="0" r="3.5"/>
                <g id="zoomPlus">
                        <use xlink:href="#rim" fill="#404040">
                                <set attributeName="fill" to="#808080" begin="zoomplus.mouseover" end="zoomplus.mouseout"/>
                        </use>
                        <path d="M-4,0h8M0,-4v8" fill="none" stroke="white" stroke-width="1.5" pointer-events="none"/>
                </g>
                <g id="zoomMin">
                        <use xlink:href="#rim" fill="#404040">
                                <set attributeName="fill" to="#808080" begin="zoomminus.mouseover" end="zoomminus.mouseout"/>
                        </use>
                        <path d="M-4,0h8" fill="none" stroke="white" stroke-width="1.5" pointer-events="none"/>
                </g>
                <g id="dirArrow">
                        <path fill="none" stroke="white" stroke-width="1.5" d="M0,-3.0v7 M-2.5,-0.5L0,-3.0L2.5,-0.5"/>
                </g>
               <g id="resetDef">
                       <use xlink:href="#rim2" fill="#404040">
                               <set attributeName="fill" to="#808080" begin="reset.mouseover" end="reset.mouseout"/>
                       </use>
               </g>
        </defs>

<script type="text/javascript">
var viewWidth = 1912;
var viewHeight = 407;
var sectionId = 'dynsection-0';
</script>
<script xlink:href="svgpan.js"/>
<svg id="graph" class="graph">
<g id="viewport">
<title>LogLikelihood1.h</title>
<!-- Node0 -->
<g id="node1" class="node">
<title>Node0</title>
<polygon fill="#bfbfbf" stroke="black" points="798.5,-379.5 798.5,-398.5 887.5,-398.5 887.5,-379.5 798.5,-379.5"/>
<text text-anchor="middle" x="843" y="-386.5" font-family="Helvetica,sans-Serif" font-size="10.00">LogLikelihood1.h</text>
</g>
<!-- Node1 -->
<g id="node2" class="node">
<title>Node1</title>
<g id="a_node2"><a xlink:href="Config_8h.html" target="_top" xlink:title="hydra/detail/Config.h">
<polygon fill="none" stroke="black" points="675.5,-89.5 675.5,-108.5 782.5,-108.5 782.5,-89.5 675.5,-89.5"/>
<text text-anchor="middle" x="729" y="-96.5" font-family="Helvetica,sans-Serif" font-size="10.00">hydra/detail/Config.h</text>
</a>
</g>
</g>
<!-- Node0&#45;&gt;Node1 -->
<g id="edge1" class="edge">
<title>Node0&#45;&gt;Node1</title>
<path fill="none" stroke="midnightblue" d="M855.31,-379.36C899.3,-347.5 1042.65,-234.36 978,-156 924.42,-91.05 873.6,-140.77 792,-120 782.61,-117.61 772.56,-114.62 763.3,-111.69"/>
<polygon fill="midnightblue" stroke="midnightblue" points="764.24,-108.31 753.64,-108.56 762.08,-114.97 764.24,-108.31"/>
</g>
<!-- Node4 -->
<g id="node5" class="node">
<title>Node4</title>
<g id="a_node5"><a xlink:href="Types_8h.html" target="_top" xlink:title="Common and useful typedefs. ">
<polygon fill="none" stroke="black" points="520,-162 520,-181 598,-181 598,-162 520,-162"/>
<text text-anchor="middle" x="559" y="-169" font-family="Helvetica,sans-Serif" font-size="10.00">hydra/Types.h</text>
</a>
</g>
</g>
<!-- Node0&#45;&gt;Node4 -->
<g id="edge4" class="edge">
<title>Node0&#45;&gt;Node4</title>
<path fill="none" stroke="midnightblue" d="M798.33,-382.69C752.07,-376.37 678.12,-363.94 617,-343 554.01,-321.42 518.01,-332.64 483,-276 470.62,-255.96 471.87,-243.76 483,-223 492.2,-205.84 510.08,-193.52 526.18,-185.35"/>
<polygon fill="midnightblue" stroke="midnightblue" points="527.83,-188.44 535.38,-181.01 524.85,-182.11 527.83,-188.44"/>
</g>
<!-- Node5 -->
<g id="node6" class="node">
<title>Node5</title>
<g id="a_node6"><a xlink:href="Utility__Tuple_8h.html" target="_top" xlink:title="hydra/detail/utility\l/Utility_Tuple.h">
<polygon fill="none" stroke="black" points="626.5,-312.5 626.5,-342.5 719.5,-342.5 719.5,-312.5 626.5,-312.5"/>
<text text-anchor="start" x="634.5" y="-330.5" font-family="Helvetica,sans-Serif" font-size="10.00">hydra/detail/utility</text>
<text text-anchor="middle" x="673" y="-319.5" font-family="Helvetica,sans-Serif" font-size="10.00">/Utility_Tuple.h</text>
</a>
</g>
</g>
<!-- Node0&#45;&gt;Node5 -->
<g id="edge5" class="edge">
<title>Node0&#45;&gt;Node5</title>
<path fill="none" stroke="midnightblue" d="M818.64,-379.48C793.68,-370.74 754.16,-356.91 722.59,-345.86"/>
<polygon fill="midnightblue" stroke="midnightblue" points="723.66,-342.52 713.07,-342.52 721.35,-349.13 723.66,-342.52"/>
</g>
<!-- Node12 -->
<g id="node13" class="node">
<title>Node12</title>
<polygon fill="none" stroke="#bfbfbf" points="0,-156.5 0,-186.5 106,-186.5 106,-156.5 0,-156.5"/>
<text text-anchor="start" x="8" y="-174.5" font-family="Helvetica,sans-Serif" font-size="10.00">hydra/detail/external</text>
<text text-anchor="middle" x="53" y="-163.5" font-family="Helvetica,sans-Serif" font-size="10.00">/hydra_thrust/tuple.h</text>
</g>
<!-- Node0&#45;&gt;Node12 -->
<g id="edge46" class="edge">
<title>Node0&#45;&gt;Node12</title>
<path fill="none" stroke="midnightblue" d="M798.46,-388.14C649.96,-387.63 175.2,-377.92 71,-276 50.18,-255.63 48.33,-220.4 49.89,-196.77"/>
<polygon fill="midnightblue" stroke="midnightblue" points="53.4,-196.8 50.82,-186.52 46.43,-196.16 53.4,-196.8"/>
</g>
<!-- Node16 -->
<g id="node17" class="node">
<title>Node16</title>
<g id="a_node17"><a xlink:href="TypeTraits_8h.html" target="_top" xlink:title="hydra/detail/TypeTraits.h">
<polygon fill="none" stroke="black" points="1063,-162 1063,-181 1187,-181 1187,-162 1063,-162"/>
<text text-anchor="middle" x="1125" y="-169" font-family="Helvetica,sans-Serif" font-size="10.00">hydra/detail/TypeTraits.h</text>
</a>
</g>
</g>
<!-- Node0&#45;&gt;Node16 -->
<g id="edge45" class="edge">
<title>Node0&#45;&gt;Node16</title>
<path fill="none" stroke="midnightblue" d="M887.71,-384.67C923.86,-380.07 974.55,-369.11 1011,-343 1067.14,-302.79 1103.65,-225.65 1118.05,-190.61"/>
<polygon fill="midnightblue" stroke="midnightblue" points="1121.36,-191.76 1121.8,-181.18 1114.85,-189.17 1121.36,-191.76"/>
</g>
<!-- Node30 -->
<g id="node31" class="node">
<title>Node30</title>
<polygon fill="none" stroke="#bfbfbf" points="1101.5,-312.5 1101.5,-342.5 1228.5,-342.5 1228.5,-312.5 1101.5,-312.5"/>
<text text-anchor="start" x="1109.5" y="-330.5" font-family="Helvetica,sans-Serif" font-size="10.00">hydra/detail/external</text>
<text text-anchor="middle" x="1165" y="-319.5" font-family="Helvetica,sans-Serif" font-size="10.00">/hydra_thrust/functional.h</text>
</g>
<!-- Node0&#45;&gt;Node30 -->
<g id="edge47" class="edge">
<title>Node0&#45;&gt;Node30</title>
<path fill="none" stroke="midnightblue" d="M887.53,-379.81C936.44,-370.8 1017.33,-355.9 1087,-343 1088.3,-342.76 1089.6,-342.52 1090.92,-342.27"/>
<polygon fill="midnightblue" stroke="midnightblue" points="1091.96,-345.64 1101.15,-340.38 1090.68,-338.76 1091.96,-345.64"/>
</g>
<!-- Node2 -->
<g id="node3" class="node">
<title>Node2</title>
<polygon fill="none" stroke="#bfbfbf" points="614,-0.5 614,-41.5 718,-41.5 718,-0.5 614,-0.5"/>
<text text-anchor="start" x="622" y="-29.5" font-family="Helvetica,sans-Serif" font-size="10.00">hydra/detail/external</text>
<text text-anchor="start" x="622" y="-18.5" font-family="Helvetica,sans-Serif" font-size="10.00">/hydra_thrust/detail</text>
<text text-anchor="middle" x="666" y="-7.5" font-family="Helvetica,sans-Serif" font-size="10.00">/config.h</text>
</g>
<!-- Node1&#45;&gt;Node2 -->
<g id="edge2" class="edge">
<title>Node1&#45;&gt;Node2</title>
<path fill="none" stroke="midnightblue" d="M721.77,-89.28C713.78,-79.63 700.48,-63.6 688.88,-49.6"/>
<polygon fill="midnightblue" stroke="midnightblue" points="691.37,-47.12 682.3,-41.66 685.98,-51.59 691.37,-47.12"/>
</g>
<!-- Node3 -->
<g id="node4" class="node">
<title>Node3</title>
<polygon fill="none" stroke="#bfbfbf" points="736,-0.5 736,-41.5 846,-41.5 846,-0.5 736,-0.5"/>
<text text-anchor="start" x="744" y="-29.5" font-family="Helvetica,sans-Serif" font-size="10.00">hydra/detail/external</text>
<text text-anchor="start" x="744" y="-18.5" font-family="Helvetica,sans-Serif" font-size="10.00">/hydra_thrust/detail</text>
<text text-anchor="middle" x="791" y="-7.5" font-family="Helvetica,sans-Serif" font-size="10.00">/config/host_device.h</text>
</g>
<!-- Node1&#45;&gt;Node3 -->
<g id="edge3" class="edge">
<title>Node1&#45;&gt;Node3</title>
<path fill="none" stroke="midnightblue" d="M736.11,-89.28C743.98,-79.63 757.07,-63.6 768.48,-49.6"/>
<polygon fill="midnightblue" stroke="midnightblue" points="771.35,-51.62 774.96,-41.66 765.93,-47.19 771.35,-51.62"/>
</g>
<!-- Node5&#45;&gt;Node1 -->
<g id="edge6" class="edge">
<title>Node5&#45;&gt;Node1</title>
<path fill="none" stroke="midnightblue" d="M719.6,-317.96C743.49,-310.96 770.53,-298.39 785,-276 797.78,-256.21 792.64,-245.28 785,-223 778.42,-203.83 766.47,-204.92 757,-187 745.21,-164.69 737.27,-136.54 732.94,-118.4"/>
<polygon fill="midnightblue" stroke="midnightblue" points="736.33,-117.52 730.71,-108.54 729.5,-119.07 736.33,-117.52"/>
</g>
<!-- Node5&#45;&gt;Node4 -->
<g id="edge7" class="edge">
<title>Node5&#45;&gt;Node4</title>
<path fill="none" stroke="midnightblue" d="M667.35,-312.49C658.54,-291.65 640.11,-251.87 617,-223 606.12,-209.41 591.28,-196.57 579.34,-187.23"/>
<polygon fill="midnightblue" stroke="midnightblue" points="581.33,-184.35 571.25,-181.1 577.1,-189.93 581.33,-184.35"/>
</g>
<!-- Node6 -->
<g id="node7" class="node">
<title>Node6</title>
<g id="a_node7"><a xlink:href="Generic_8h.html" target="_top" xlink:title="hydra/detail/utility\l/Generic.h">
<polygon fill="none" stroke="black" points="664.5,-234.5 664.5,-264.5 757.5,-264.5 757.5,-234.5 664.5,-234.5"/>
<text text-anchor="start" x="672.5" y="-252.5" font-family="Helvetica,sans-Serif" font-size="10.00">hydra/detail/utility</text>
<text text-anchor="middle" x="711" y="-241.5" font-family="Helvetica,sans-Serif" font-size="10.00">/Generic.h</text>
</a>
</g>
</g>
<!-- Node5&#45;&gt;Node6 -->
<g id="edge8" class="edge">
<title>Node5&#45;&gt;Node6</title>
<path fill="none" stroke="midnightblue" d="M680.15,-312.2C685.56,-301.38 693.11,-286.27 699.39,-273.72"/>
<polygon fill="midnightblue" stroke="midnightblue" points="702.54,-275.24 703.88,-264.73 696.28,-272.11 702.54,-275.24"/>
</g>
<!-- Node7 -->
<g id="node8" class="node">
<title>Node7</title>
<polygon fill="none" stroke="#bfbfbf" points="349,-89.5 349,-108.5 411,-108.5 411,-89.5 349,-89.5"/>
<text text-anchor="middle" x="380" y="-96.5" font-family="Helvetica,sans-Serif" font-size="10.00">type_traits</text>
</g>
<!-- Node5&#45;&gt;Node7 -->
<g id="edge43" class="edge">
<title>Node5&#45;&gt;Node7</title>
<path fill="none" stroke="midnightblue" d="M626.17,-325.47C504.29,-322.3 184.51,-310.72 153,-276 117.16,-236.51 120.11,-197.99 153,-156 175.61,-127.14 279.35,-111.12 338.46,-104.2"/>
<polygon fill="midnightblue" stroke="midnightblue" points="339.05,-107.65 348.6,-103.05 338.26,-100.7 339.05,-107.65"/>
</g>
<!-- Node8 -->
<g id="node9" class="node">
<title>Node8</title>
<polygon fill="none" stroke="#bfbfbf" points="663,-162 663,-181 701,-181 701,-162 663,-162"/>
<text text-anchor="middle" x="682" y="-169" font-family="Helvetica,sans-Serif" font-size="10.00">array</text>
</g>
<!-- Node5&#45;&gt;Node8 -->
<g id="edge44" class="edge">
<title>Node5&#45;&gt;Node8</title>
<path fill="none" stroke="midnightblue" d="M719.65,-312.69C737.38,-304.92 755.76,-293.21 766,-276 778.04,-255.76 777.6,-243.5 766,-223 759.72,-211.9 732.02,-196.5 710.12,-185.63"/>
<polygon fill="midnightblue" stroke="midnightblue" points="711.39,-182.35 700.87,-181.13 708.33,-188.65 711.39,-182.35"/>
</g>
<!-- Node9 -->
<g id="node10" class="node">
<title>Node9</title>
<g id="a_node10"><a xlink:href="TagTraits_8h.html" target="_top" xlink:title="hydra/detail/TagTraits.h">
<polygon fill="none" stroke="black" points="316.5,-240 316.5,-259 435.5,-259 435.5,-240 316.5,-240"/>
<text text-anchor="middle" x="376" y="-247" font-family="Helvetica,sans-Serif" font-size="10.00">hydra/detail/TagTraits.h</text>
</a>
</g>
</g>
<!-- Node5&#45;&gt;Node9 -->
<g id="edge11" class="edge">
<title>Node5&#45;&gt;Node9</title>
<path fill="none" stroke="midnightblue" d="M626.27,-314.54C569.52,-300.02 474.57,-275.72 419.38,-261.6"/>
<polygon fill="midnightblue" stroke="midnightblue" points="420.11,-258.18 409.56,-259.09 418.38,-264.96 420.11,-258.18"/>
</g>
<!-- Node10 -->
<g id="node11" class="node">
<title>Node10</title>
<g id="a_node11"><a xlink:href="FunctorTraits_8h.html" target="_top" xlink:title="hydra/detail/FunctorTraits.h">
<polygon fill="none" stroke="black" points="162,-240 162,-259 298,-259 298,-240 162,-240"/>
<text text-anchor="middle" x="230" y="-247" font-family="Helvetica,sans-Serif" font-size="10.00">hydra/detail/FunctorTraits.h</text>
</a>
</g>
</g>
<!-- Node5&#45;&gt;Node10 -->
<g id="edge14" class="edge">
<title>Node5&#45;&gt;Node10</title>
<path fill="none" stroke="midnightblue" d="M626.28,-322.81C556.22,-316.65 420.08,-302.29 307,-276 291.88,-272.48 275.5,-267.27 261.75,-262.47"/>
<polygon fill="midnightblue" stroke="midnightblue" points="262.86,-259.15 252.27,-259.08 260.5,-265.74 262.86,-259.15"/>
</g>
<!-- Node5&#45;&gt;Node12 -->
<g id="edge40" class="edge">
<title>Node5&#45;&gt;Node12</title>
<path fill="none" stroke="midnightblue" d="M626.49,-324.57C501.16,-319.06 162.9,-301.93 120,-276 90.19,-257.98 71.2,-221.04 61.33,-196.52"/>
<polygon fill="midnightblue" stroke="midnightblue" points="64.48,-194.96 57.65,-186.86 57.94,-197.45 64.48,-194.96"/>
</g>
<!-- Node15 -->
<g id="node16" class="node">
<title>Node15</title>
<g id="a_node16"><a xlink:href="Parameter_8h.html" target="_top" xlink:title="hydra/Parameter.h">
<polygon fill="none" stroke="black" points="852,-240 852,-259 948,-259 948,-240 852,-240"/>
<text text-anchor="middle" x="900" y="-247" font-family="Helvetica,sans-Serif" font-size="10.00">hydra/Parameter.h</text>
</a>
</g>
</g>
<!-- Node5&#45;&gt;Node15 -->
<g id="edge21" class="edge">
<title>Node5&#45;&gt;Node15</title>
<path fill="none" stroke="midnightblue" d="M719.61,-313.49C752.87,-303.91 798.51,-290.13 838,-276 848.96,-272.08 860.82,-267.33 871.21,-262.99"/>
<polygon fill="midnightblue" stroke="midnightblue" points="872.79,-266.13 880.63,-259.01 870.06,-259.68 872.79,-266.13"/>
</g>
<!-- Node19 -->
<g id="node20" class="node">
<title>Node19</title>
<polygon fill="none" stroke="#bfbfbf" points="801,-78.5 801,-119.5 905,-119.5 905,-78.5 801,-78.5"/>
<text text-anchor="start" x="809" y="-107.5" font-family="Helvetica,sans-Serif" font-size="10.00">hydra/detail/external</text>
<text text-anchor="start" x="809" y="-96.5" font-family="Helvetica,sans-Serif" font-size="10.00">/hydra_thrust/detail</text>
<text text-anchor="middle" x="853" y="-85.5" font-family="Helvetica,sans-Serif" font-size="10.00">/type_traits.h</text>
</g>
<!-- Node5&#45;&gt;Node19 -->
<g id="edge41" class="edge">
<title>Node5&#45;&gt;Node19</title>
<path fill="none" stroke="midnightblue" d="M719.52,-324.29C791.1,-319.93 923.48,-307.7 957,-276 996.34,-238.8 1007.44,-201.44 978,-156 970.25,-144.04 942.35,-131 914.88,-120.52"/>
<polygon fill="midnightblue" stroke="midnightblue" points="915.8,-117.13 905.21,-116.92 913.36,-123.69 915.8,-117.13"/>
</g>
<!-- Node29 -->
<g id="node30" class="node">
<title>Node29</title>
<polygon fill="none" stroke="#bfbfbf" points="492,-223.5 492,-275.5 608,-275.5 608,-223.5 492,-223.5"/>
<text text-anchor="start" x="500" y="-263.5" font-family="Helvetica,sans-Serif" font-size="10.00">hydra/detail/external</text>
<text text-anchor="start" x="500" y="-252.5" font-family="Helvetica,sans-Serif" font-size="10.00">/hydra_thrust/iterator</text>
<text text-anchor="start" x="500" y="-241.5" font-family="Helvetica,sans-Serif" font-size="10.00">/detail/tuple_of_iterator</text>
<text text-anchor="middle" x="550" y="-230.5" font-family="Helvetica,sans-Serif" font-size="10.00">_references.h</text>
</g>
<!-- Node5&#45;&gt;Node29 -->
<g id="edge42" class="edge">
<title>Node5&#45;&gt;Node29</title>
<path fill="none" stroke="midnightblue" d="M650.15,-312.38C635.82,-303.53 616.79,-291.77 599.16,-280.88"/>
<polygon fill="midnightblue" stroke="midnightblue" points="600.99,-277.89 590.65,-275.62 597.32,-283.85 600.99,-277.89"/>
</g>
<!-- Node6&#45;&gt;Node7 -->
<g id="edge9" class="edge">
<title>Node6&#45;&gt;Node7</title>
<path fill="none" stroke="midnightblue" d="M699.12,-234.24C681.27,-213.76 645.49,-176.25 607,-156 574.96,-139.14 477.34,-118.58 421.1,-107.67"/>
<polygon fill="midnightblue" stroke="midnightblue" points="421.59,-104.2 411.1,-105.75 420.26,-111.07 421.59,-104.2"/>
</g>
<!-- Node6&#45;&gt;Node8 -->
<g id="edge10" class="edge">
<title>Node6&#45;&gt;Node8</title>
<path fill="none" stroke="midnightblue" d="M705.55,-234.2C700.83,-221.85 694,-203.94 688.9,-190.6"/>
<polygon fill="midnightblue" stroke="midnightblue" points="692.1,-189.16 685.27,-181.06 685.56,-191.65 692.1,-189.16"/>
</g>
<!-- Node9&#45;&gt;Node4 -->
<g id="edge13" class="edge">
<title>Node9&#45;&gt;Node4</title>
<path fill="none" stroke="midnightblue" d="M396.64,-239.93C428.99,-226.49 491.78,-200.41 529.09,-184.92"/>
<polygon fill="midnightblue" stroke="midnightblue" points="530.55,-188.11 538.44,-181.04 527.86,-181.64 530.55,-188.11"/>
</g>
<!-- Node9&#45;&gt;Node7 -->
<g id="edge12" class="edge">
<title>Node9&#45;&gt;Node7</title>
<path fill="none" stroke="midnightblue" d="M376.24,-239.66C376.87,-216.08 378.62,-151.31 379.49,-118.94"/>
<polygon fill="midnightblue" stroke="midnightblue" points="383,-118.7 379.77,-108.61 376,-118.51 383,-118.7"/>
</g>
<!-- Node10&#45;&gt;Node1 -->
<g id="edge15" class="edge">
<title>Node10&#45;&gt;Node1</title>
<path fill="none" stroke="midnightblue" d="M255.66,-239.98C270.63,-235.02 289.88,-228.65 307,-223 318.33,-219.26 499.55,-159.35 511,-156 569.81,-138.81 638.35,-121.67 682.65,-110.97"/>
<polygon fill="midnightblue" stroke="midnightblue" points="683.64,-114.33 692.54,-108.59 682,-107.52 683.64,-114.33"/>
</g>
<!-- Node10&#45;&gt;Node7 -->
<g id="edge20" class="edge">
<title>Node10&#45;&gt;Node7</title>
<path fill="none" stroke="midnightblue" d="M246.7,-239.98C266.31,-229.42 299.06,-209.97 322,-187 342.99,-165.99 360.84,-136.3 370.99,-117.61"/>
<polygon fill="midnightblue" stroke="midnightblue" points="374.11,-119.19 375.69,-108.71 367.92,-115.92 374.11,-119.19"/>
</g>
<!-- Node11 -->
<g id="node12" class="node">
<title>Node11</title>
<g id="a_node12"><a xlink:href="StaticAssert_8h.html" target="_top" xlink:title="hydra/detail/utility\l/StaticAssert.h">
<polygon fill="none" stroke="black" points="220.5,-156.5 220.5,-186.5 313.5,-186.5 313.5,-156.5 220.5,-156.5"/>
<text text-anchor="start" x="228.5" y="-174.5" font-family="Helvetica,sans-Serif" font-size="10.00">hydra/detail/utility</text>
<text text-anchor="middle" x="267" y="-163.5" font-family="Helvetica,sans-Serif" font-size="10.00">/StaticAssert.h</text>
</a>
</g>
</g>
<!-- Node10&#45;&gt;Node11 -->
<g id="edge16" class="edge">
<title>Node10&#45;&gt;Node11</title>
<path fill="none" stroke="midnightblue" d="M234.24,-239.78C239.45,-229.1 248.46,-210.58 255.72,-195.68"/>
<polygon fill="midnightblue" stroke="midnightblue" points="258.94,-197.04 260.17,-186.52 252.65,-193.98 258.94,-197.04"/>
</g>
<!-- Node10&#45;&gt;Node12 -->
<g id="edge17" class="edge">
<title>Node10&#45;&gt;Node12</title>
<path fill="none" stroke="midnightblue" d="M210.04,-239.93C182.32,-228.03 131.48,-206.2 95.16,-190.6"/>
<polygon fill="midnightblue" stroke="midnightblue" points="96.36,-187.31 85.8,-186.58 93.6,-193.74 96.36,-187.31"/>
</g>
<!-- Node13 -->
<g id="node14" class="node">
<title>Node13</title>
<polygon fill="none" stroke="#bfbfbf" points="493,-78.5 493,-119.5 615,-119.5 615,-78.5 493,-78.5"/>
<text text-anchor="start" x="501" y="-107.5" font-family="Helvetica,sans-Serif" font-size="10.00">hydra/detail/external</text>
<text text-anchor="start" x="501" y="-96.5" font-family="Helvetica,sans-Serif" font-size="10.00">/hydra_thrust/type_traits</text>
<text text-anchor="middle" x="554" y="-85.5" font-family="Helvetica,sans-Serif" font-size="10.00">/void_t.h</text>
</g>
<!-- Node10&#45;&gt;Node13 -->
<g id="edge18" class="edge">
<title>Node10&#45;&gt;Node13</title>
<path fill="none" stroke="midnightblue" d="M248.82,-239.87C297.45,-217.58 428.64,-157.46 502.2,-123.74"/>
<polygon fill="midnightblue" stroke="midnightblue" points="503.67,-126.92 511.31,-119.57 500.76,-120.55 503.67,-126.92"/>
</g>
<!-- Node14 -->
<g id="node15" class="node">
<title>Node14</title>
<polygon fill="none" stroke="#bfbfbf" points="162,-162 162,-181 202,-181 202,-162 162,-162"/>
<text text-anchor="middle" x="182" y="-169" font-family="Helvetica,sans-Serif" font-size="10.00">utility</text>
</g>
<!-- Node10&#45;&gt;Node14 -->
<g id="edge19" class="edge">
<title>Node10&#45;&gt;Node14</title>
<path fill="none" stroke="midnightblue" d="M224.49,-239.78C216.83,-227.64 202.77,-205.38 192.93,-189.8"/>
<polygon fill="midnightblue" stroke="midnightblue" points="195.74,-187.7 187.44,-181.12 189.82,-191.44 195.74,-187.7"/>
</g>
<!-- Node15&#45;&gt;Node1 -->
<g id="edge22" class="edge">
<title>Node15&#45;&gt;Node1</title>
<path fill="none" stroke="midnightblue" d="M876.49,-239.86C851.83,-229.94 813,-211.79 786,-187 764.13,-166.92 746.83,-136.74 737.26,-117.72"/>
<polygon fill="midnightblue" stroke="midnightblue" points="740.39,-116.14 732.87,-108.67 734.09,-119.19 740.39,-116.14"/>
</g>
<!-- Node15&#45;&gt;Node4 -->
<g id="edge23" class="edge">
<title>Node15&#45;&gt;Node4</title>
<path fill="none" stroke="midnightblue" d="M861.55,-239.93C799.09,-226.01 675.71,-198.51 607.39,-183.28"/>
<polygon fill="midnightblue" stroke="midnightblue" points="607.84,-179.8 597.31,-181.04 606.31,-186.63 607.84,-179.8"/>
</g>
<!-- Node15&#45;&gt;Node16 -->
<g id="edge24" class="edge">
<title>Node15&#45;&gt;Node16</title>
<path fill="none" stroke="midnightblue" d="M925.37,-239.93C965.65,-226.32 1044.33,-199.75 1089.96,-184.33"/>
<polygon fill="midnightblue" stroke="midnightblue" points="1091.37,-187.56 1099.72,-181.04 1089.13,-180.92 1091.37,-187.56"/>
</g>
<!-- Node26 -->
<g id="node27" class="node">
<title>Node26</title>
<polygon fill="none" stroke="#bfbfbf" points="857.5,-162 857.5,-181 898.5,-181 898.5,-162 857.5,-162"/>
<text text-anchor="middle" x="878" y="-169" font-family="Helvetica,sans-Serif" font-size="10.00">string</text>
</g>
<!-- Node15&#45;&gt;Node26 -->
<g id="edge37" class="edge">
<title>Node15&#45;&gt;Node26</title>
<path fill="none" stroke="midnightblue" d="M897.48,-239.78C894.06,-227.99 887.88,-206.63 883.4,-191.14"/>
<polygon fill="midnightblue" stroke="midnightblue" points="886.64,-189.75 880.49,-181.12 879.91,-191.7 886.64,-189.75"/>
</g>
<!-- Node27 -->
<g id="node28" class="node">
<title>Node27</title>
<polygon fill="none" stroke="#bfbfbf" points="917,-162 917,-181 969,-181 969,-162 917,-162"/>
<text text-anchor="middle" x="943" y="-169" font-family="Helvetica,sans-Serif" font-size="10.00">ostream</text>
</g>
<!-- Node15&#45;&gt;Node27 -->
<g id="edge38" class="edge">
<title>Node15&#45;&gt;Node27</title>
<path fill="none" stroke="midnightblue" d="M904.93,-239.78C911.74,-227.76 924.16,-205.8 932.96,-190.25"/>
<polygon fill="midnightblue" stroke="midnightblue" points="936.25,-191.54 938.12,-181.12 930.15,-188.1 936.25,-191.54"/>
</g>
<!-- Node28 -->
<g id="node29" class="node">
<title>Node28</title>
<polygon fill="none" stroke="#bfbfbf" points="795,-162 795,-181 839,-181 839,-162 795,-162"/>
<text text-anchor="middle" x="817" y="-169" font-family="Helvetica,sans-Serif" font-size="10.00">vector</text>
</g>
<!-- Node15&#45;&gt;Node28 -->
<g id="edge39" class="edge">
<title>Node15&#45;&gt;Node28</title>
<path fill="none" stroke="midnightblue" d="M890.48,-239.78C876.72,-227.18 851.06,-203.69 834,-188.07"/>
<polygon fill="midnightblue" stroke="midnightblue" points="836.15,-185.29 826.41,-181.12 831.42,-190.45 836.15,-185.29"/>
</g>
<!-- Node16&#45;&gt;Node1 -->
<g id="edge25" class="edge">
<title>Node16&#45;&gt;Node1</title>
<path fill="none" stroke="midnightblue" d="M1062.8,-162.26C981.11,-151.22 842.19,-131.7 792,-120 782.4,-117.76 772.14,-114.77 762.76,-111.79"/>
<polygon fill="midnightblue" stroke="midnightblue" points="763.58,-108.38 752.99,-108.59 761.4,-115.03 763.58,-108.38"/>
</g>
<!-- Node16&#45;&gt;Node7 -->
<g id="edge26" class="edge">
<title>Node16&#45;&gt;Node7</title>
<path fill="none" stroke="midnightblue" d="M1062.8,-164.01C1036.63,-161.37 1005.85,-158.39 978,-156 758.67,-137.19 702.24,-148.84 484,-120 463.14,-117.24 440.15,-112.96 421.1,-109.06"/>
<polygon fill="midnightblue" stroke="midnightblue" points="421.75,-105.62 411.25,-107 420.32,-112.47 421.75,-105.62"/>
</g>
<!-- Node16&#45;&gt;Node13 -->
<g id="edge36" class="edge">
<title>Node16&#45;&gt;Node13</title>
<path fill="none" stroke="midnightblue" d="M1062.97,-164.2C956,-153.24 741.08,-130.82 666,-120 652.84,-118.1 638.85,-115.82 625.38,-113.49"/>
<polygon fill="midnightblue" stroke="midnightblue" points="625.66,-109.98 615.21,-111.7 624.45,-116.88 625.66,-109.98"/>
</g>
<!-- Node17 -->
<g id="node18" class="node">
<title>Node17</title>
<polygon fill="none" stroke="#bfbfbf" points="1178,-89.5 1178,-108.5 1218,-108.5 1218,-89.5 1178,-89.5"/>
<text text-anchor="middle" x="1198" y="-96.5" font-family="Helvetica,sans-Serif" font-size="10.00">limits</text>
</g>
<!-- Node16&#45;&gt;Node17 -->
<g id="edge27" class="edge">
<title>Node16&#45;&gt;Node17</title>
<path fill="none" stroke="midnightblue" d="M1133.95,-161.86C1145.77,-150.44 1166.81,-130.12 1181.54,-115.9"/>
<polygon fill="midnightblue" stroke="midnightblue" points="1184.21,-118.18 1188.98,-108.72 1179.35,-113.14 1184.21,-118.18"/>
</g>
<!-- Node18 -->
<g id="node19" class="node">
<title>Node18</title>
<polygon fill="none" stroke="#bfbfbf" points="1236,-84 1236,-114 1358,-114 1358,-84 1236,-84"/>
<text text-anchor="start" x="1244" y="-102" font-family="Helvetica,sans-Serif" font-size="10.00">hydra/detail/external</text>
<text text-anchor="middle" x="1297" y="-91" font-family="Helvetica,sans-Serif" font-size="10.00">/hydra_thrust/complex.h</text>
</g>
<!-- Node16&#45;&gt;Node18 -->
<g id="edge28" class="edge">
<title>Node16&#45;&gt;Node18</title>
<path fill="none" stroke="midnightblue" d="M1145.75,-162C1172.29,-151.12 1218.95,-131.99 1253.45,-117.85"/>
<polygon fill="midnightblue" stroke="midnightblue" points="1254.9,-121.04 1262.83,-114.01 1252.25,-114.56 1254.9,-121.04"/>
</g>
<!-- Node16&#45;&gt;Node19 -->
<g id="edge29" class="edge">
<title>Node16&#45;&gt;Node19</title>
<path fill="none" stroke="midnightblue" d="M1085.08,-161.97C1044.54,-153.08 979.79,-138.26 915.11,-120.22"/>
<polygon fill="midnightblue" stroke="midnightblue" points="915.73,-116.75 905.16,-117.41 913.83,-123.49 915.73,-116.75"/>
</g>
<!-- Node20 -->
<g id="node21" class="node">
<title>Node20</title>
<polygon fill="none" stroke="#bfbfbf" points="1376.5,-78.5 1376.5,-119.5 1495.5,-119.5 1495.5,-78.5 1376.5,-78.5"/>
<text text-anchor="start" x="1384.5" y="-107.5" font-family="Helvetica,sans-Serif" font-size="10.00">hydra/detail/external</text>
<text text-anchor="start" x="1384.5" y="-96.5" font-family="Helvetica,sans-Serif" font-size="10.00">/hydra_thrust/execution</text>
<text text-anchor="middle" x="1436" y="-85.5" font-family="Helvetica,sans-Serif" font-size="10.00">_policy.h</text>
</g>
<!-- Node16&#45;&gt;Node20 -->
<g id="edge30" class="edge">
<title>Node16&#45;&gt;Node20</title>
<path fill="none" stroke="midnightblue" d="M1171.18,-161.95C1217.95,-153.05 1292.57,-138.19 1366.31,-120.08"/>
<polygon fill="midnightblue" stroke="midnightblue" points="1367.37,-123.43 1376.24,-117.63 1365.69,-116.63 1367.37,-123.43"/>
</g>
<!-- Node21 -->
<g id="node22" class="node">
<title>Node21</title>
<polygon fill="none" stroke="#bfbfbf" points="1514,-78.5 1514,-119.5 1622,-119.5 1622,-78.5 1514,-78.5"/>
<text text-anchor="start" x="1522" y="-107.5" font-family="Helvetica,sans-Serif" font-size="10.00">hydra/detail/external</text>
<text text-anchor="start" x="1522" y="-96.5" font-family="Helvetica,sans-Serif" font-size="10.00">/hydra_thrust/iterator</text>
<text text-anchor="middle" x="1568" y="-85.5" font-family="Helvetica,sans-Serif" font-size="10.00">/iterator_categories.h</text>
</g>
<!-- Node16&#45;&gt;Node21 -->
<g id="edge31" class="edge">
<title>Node16&#45;&gt;Node21</title>
<path fill="none" stroke="midnightblue" d="M1187.12,-165.61C1260.78,-159.07 1387.27,-145.47 1504.04,-120.02"/>
<polygon fill="midnightblue" stroke="midnightblue" points="1504.86,-123.43 1513.87,-117.85 1503.35,-116.59 1504.86,-123.43"/>
</g>
<!-- Node22 -->
<g id="node23" class="node">
<title>Node22</title>
<polygon fill="none" stroke="#bfbfbf" points="1640,-78.5 1640,-119.5 1778,-119.5 1778,-78.5 1640,-78.5"/>
<text text-anchor="start" x="1648" y="-107.5" font-family="Helvetica,sans-Serif" font-size="10.00">hydra/detail/external</text>
<text text-anchor="start" x="1648" y="-96.5" font-family="Helvetica,sans-Serif" font-size="10.00">/hydra_thrust/iterator</text>
<text text-anchor="middle" x="1709" y="-85.5" font-family="Helvetica,sans-Serif" font-size="10.00">/detail/is_iterator_category.h</text>
</g>
<!-- Node16&#45;&gt;Node22 -->
<g id="edge32" class="edge">
<title>Node16&#45;&gt;Node22</title>
<path fill="none" stroke="midnightblue" d="M1187.34,-167.33C1281.3,-161.87 1464.84,-148.61 1629.48,-120.13"/>
<polygon fill="midnightblue" stroke="midnightblue" points="1630.55,-123.5 1639.8,-118.32 1629.34,-116.6 1630.55,-123.5"/>
</g>
<!-- Node23 -->
<g id="node24" class="node">
<title>Node23</title>
<polygon fill="none" stroke="#bfbfbf" points="1796.5,-78.5 1796.5,-119.5 1903.5,-119.5 1903.5,-78.5 1796.5,-78.5"/>
<text text-anchor="start" x="1804.5" y="-107.5" font-family="Helvetica,sans-Serif" font-size="10.00">hydra/detail/external</text>
<text text-anchor="start" x="1804.5" y="-96.5" font-family="Helvetica,sans-Serif" font-size="10.00">/hydra_thrust/iterator</text>
<text text-anchor="middle" x="1850" y="-85.5" font-family="Helvetica,sans-Serif" font-size="10.00">/iterator_traits.h</text>
</g>
<!-- Node16&#45;&gt;Node23 -->
<g id="edge33" class="edge">
<title>Node16&#45;&gt;Node23</title>
<path fill="none" stroke="midnightblue" d="M1187.24,-170.52C1303.58,-169.53 1561.76,-162.45 1786.27,-119.88"/>
<polygon fill="midnightblue" stroke="midnightblue" points="1787.1,-123.29 1796.26,-117.96 1785.77,-116.41 1787.1,-123.29"/>
</g>
<!-- Node24 -->
<g id="node25" class="node">
<title>Node24</title>
<polygon fill="none" stroke="#bfbfbf" points="923.5,-78.5 923.5,-119.5 1028.5,-119.5 1028.5,-78.5 923.5,-78.5"/>
<text text-anchor="start" x="931.5" y="-107.5" font-family="Helvetica,sans-Serif" font-size="10.00">hydra/detail/external</text>
<text text-anchor="start" x="931.5" y="-96.5" font-family="Helvetica,sans-Serif" font-size="10.00">/hydra_thrust/device</text>
<text text-anchor="middle" x="976" y="-85.5" font-family="Helvetica,sans-Serif" font-size="10.00">_reference.h</text>
</g>
<!-- Node16&#45;&gt;Node24 -->
<g id="edge34" class="edge">
<title>Node16&#45;&gt;Node24</title>
<path fill="none" stroke="midnightblue" d="M1107.03,-162C1087.21,-152.62 1054.44,-137.11 1026.63,-123.96"/>
<polygon fill="midnightblue" stroke="midnightblue" points="1027.96,-120.71 1017.42,-119.6 1024.96,-127.04 1027.96,-120.71"/>
</g>
<!-- Node25 -->
<g id="node26" class="node">
<title>Node25</title>
<polygon fill="none" stroke="#bfbfbf" points="1046.5,-78.5 1046.5,-119.5 1159.5,-119.5 1159.5,-78.5 1046.5,-78.5"/>
<text text-anchor="start" x="1054.5" y="-107.5" font-family="Helvetica,sans-Serif" font-size="10.00">hydra/detail/external</text>
<text text-anchor="start" x="1054.5" y="-96.5" font-family="Helvetica,sans-Serif" font-size="10.00">/hydra_thrust/detail</text>
<text text-anchor="middle" x="1103" y="-85.5" font-family="Helvetica,sans-Serif" font-size="10.00">/raw_reference_cast.h</text>
</g>
<!-- Node16&#45;&gt;Node25 -->
<g id="edge35" class="edge">
<title>Node16&#45;&gt;Node25</title>
<path fill="none" stroke="midnightblue" d="M1122.3,-161.86C1119.76,-153.7 1115.79,-140.99 1112.12,-129.22"/>
<polygon fill="midnightblue" stroke="midnightblue" points="1115.46,-128.16 1109.14,-119.66 1108.77,-130.25 1115.46,-128.16"/>
</g>
</g>
</svg>
        <g id="navigator" transform="translate(0 0)" fill="#404254">
                <rect fill="#f2f5e9" fill-opacity="0.5" stroke="#606060" stroke-width=".5" x="0" y="0" width="60" height="60"/>
                <use id="zoomplus" xlink:href="#zoomPlus" x="17" y="9" onmousedown="handleZoom(evt,'in')"/>
                <use id="zoomminus" xlink:href="#zoomMin" x="42" y="9" onmousedown="handleZoom(evt,'out')"/>
                <use id="reset" xlink:href="#resetDef" x="30" y="36" onmousedown="handleReset()"/>
                <g id="arrowUp" xlink:href="#dirArrow" transform="translate(30 24)" onmousedown="handlePan(0,-1)">
                  <use xlink:href="#rim" fill="#404040">
                        <set attributeName="fill" to="#808080" begin="arrowUp.mouseover" end="arrowUp.mouseout"/>
                  </use>
                  <path fill="none" stroke="white" stroke-width="1.5" d="M0,-3.0v7 M-2.5,-0.5L0,-3.0L2.5,-0.5"/>
                </g>
                <g id="arrowRight" xlink:href="#dirArrow" transform="rotate(90) translate(36 -43)" onmousedown="handlePan(1,0)">
                  <use xlink:href="#rim" fill="#404040">
                        <set attributeName="fill" to="#808080" begin="arrowRight.mouseover" end="arrowRight.mouseout"/>
                  </use>
                  <path fill="none" stroke="white" stroke-width="1.5" d="M0,-3.0v7 M-2.5,-0.5L0,-3.0L2.5,-0.5"/>
                </g>
                <g id="arrowDown" xlink:href="#dirArrow" transform="rotate(180) translate(-30 -48)" onmousedown="handlePan(0,1)">
                  <use xlink:href="#rim" fill="#404040">
                        <set attributeName="fill" to="#808080" begin="arrowDown.mouseover" end="arrowDown.mouseout"/>
                  </use>
                  <path fill="none" stroke="white" stroke-width="1.5" d="M0,-3.0v7 M-2.5,-0.5L0,-3.0L2.5,-0.5"/>
                </g>
                <g id="arrowLeft" xlink:href="#dirArrow" transform="rotate(270) translate(-36 17)" onmousedown="handlePan(-1,0)">
                  <use xlink:href="#rim" fill="#404040">
                        <set attributeName="fill" to="#808080" begin="arrowLeft.mouseover" end="arrowLeft.mouseout"/>
                  </use>
                  <path fill="none" stroke="white" stroke-width="1.5" d="M0,-3.0v7 M-2.5,-0.5L0,-3.0L2.5,-0.5"/>
                </g>
        </g>
        <svg viewBox="0 0 15 15" width="100%" height="30px" preserveAspectRatio="xMaxYMin meet">
         <g id="arrow_out" transform="scale(0.3 0.3)">
          <a xlink:href="LogLikelihood1_8h__incl_org.svg" target="_base">
           <rect id="button" ry="5" rx="5" y="6" x="6" height="38" width="38"
                fill="#f2f5e9" fill-opacity="0.5" stroke="#606060" stroke-width="1.0"/>
           <path id="arrow"
             d="M 11.500037,31.436501 C 11.940474,20.09759 22.043105,11.32322 32.158766,21.979434 L 37.068811,17.246167 C 37.068811,17.246167 37.088388,32 37.088388,32 L 22.160133,31.978069 C 22.160133,31.978069 26.997745,27.140456 26.997745,27.140456 C 18.528582,18.264221 13.291696,25.230495 11.500037,31.436501 z"
             style="fill:#404040;"/>
          </a>
         </g>
        </svg>
</svg>
