<?xml version="1.0" encoding="UTF-8" standalone="no"?>
<!DOCTYPE svg PUBLIC "-//W3C//DTD SVG 1.1//EN"
 "http://www.w3.org/Graphics/SVG/1.1/DTD/svg11.dtd">
<!-- Generated by graphviz version 2.40.1 (20161225.0304)
 -->
<!-- Title: LogLikelihoodFCN1.inl Pages: 1 -->
<svg width="4305pt" height="218pt"
 viewBox="0.00 0.00 4304.50 218.00" xmlns="http://www.w3.org/2000/svg" xmlns:xlink="http://www.w3.org/1999/xlink">
<g id="graph0" class="graph" transform="scale(1 1) rotate(0) translate(4 214)">
<title>LogLikelihoodFCN1.inl</title>
<!-- Node97 -->
<g id="node1" class="node">
<title>Node97</title>
<polygon fill="#bfbfbf" stroke="#000000" points="2677.5,-190.5 2677.5,-209.5 2790.5,-209.5 2790.5,-190.5 2677.5,-190.5"/>
<text text-anchor="middle" x="2734" y="-197.5" font-family="Helvetica,sans-Serif" font-size="10.00" fill="#000000">LogLikelihoodFCN1.inl</text>
</g>
<!-- Node98 -->
<g id="node2" class="node">
<title>Node98</title>
<g id="a_node2"><a xlink:href="LogLikelihoodFCN_8h.html" target="_top" xlink:title="LogLikelihoodFCN.h">
<polygon fill="none" stroke="#000000" points="2682,-134.5 2682,-153.5 2786,-153.5 2786,-134.5 2682,-134.5"/>
<text text-anchor="middle" x="2734" y="-141.5" font-family="Helvetica,sans-Serif" font-size="10.00" fill="#000000">LogLikelihoodFCN.h</text>
</a>
</g>
</g>
<!-- Node97&#45;&gt;Node98 -->
<g id="edge1" class="edge">
<title>Node97&#45;&gt;Node98</title>
<path fill="none" stroke="#191970" d="M2734,-180.1575C2734,-171.155 2734,-160.9199 2734,-153.6427"/>
<polygon fill="#191970" stroke="#191970" points="2730.5001,-180.2455 2734,-190.2455 2737.5001,-180.2456 2730.5001,-180.2455"/>
</g>
<!-- Node99 -->
<g id="node3" class="node">
<title>Node99</title>
<g id="a_node3"><a xlink:href="basic__fit_8inl.html" target="_top" xlink:title="basic_fit.inl">
<polygon fill="none" stroke="#000000" points="91,-73 91,-92 157,-92 157,-73 91,-73"/>
<text text-anchor="middle" x="124" y="-80" font-family="Helvetica,sans-Serif" font-size="10.00" fill="#000000">basic_fit.inl</text>
</a>
</g>
</g>
<!-- Node98&#45;&gt;Node99 -->
<g id="edge2" class="edge">
<title>Node98&#45;&gt;Node99</title>
<path fill="none" stroke="#191970" d="M2671.3621,-143.2524C2342.3387,-139.256 811.0433,-119.7811 337,-98 273.2949,-95.0729 199.0419,-89.0822 157.1723,-85.4659"/>
<polygon fill="#191970" stroke="#191970" points="2671.6107,-146.7555 2681.6524,-143.3771 2671.6955,-139.7561 2671.6107,-146.7555"/>
</g>
<!-- Node102 -->
<g id="node6" class="node">
<title>Node102</title>
<g id="a_node6"><a xlink:href="basic__fit__range__semantics_8inl.html" target="_top" xlink:title="basic_fit_range_semantics.inl">
<polygon fill="none" stroke="#000000" points="346,-73 346,-92 492,-92 492,-73 346,-73"/>
<text text-anchor="middle" x="419" y="-80" font-family="Helvetica,sans-Serif" font-size="10.00" fill="#000000">basic_fit_range_semantics.inl</text>
</a>
</g>
</g>
<!-- Node98&#45;&gt;Node102 -->
<g id="edge5" class="edge">
<title>Node98&#45;&gt;Node102</title>
<path fill="none" stroke="#191970" d="M2671.5978,-143.7401C2418.123,-142.4497 1440.8505,-135.1992 638,-98 589.3591,-95.7463 534.7277,-91.882 492.1975,-88.5758"/>
<polygon fill="#191970" stroke="#191970" points="2671.7014,-147.2406 2681.7187,-143.7904 2671.7362,-140.2407 2671.7014,-147.2406"/>
</g>
<!-- Node105 -->
<g id="node9" class="node">
<title>Node105</title>
<g id="a_node9"><a xlink:href="binned__extended__logLL__fit_8inl.html" target="_top" xlink:title="binned_extended_logLL\l_fit.inl">
<polygon fill="none" stroke="#000000" points="647.5,-67.5 647.5,-97.5 766.5,-97.5 766.5,-67.5 647.5,-67.5"/>
<text text-anchor="start" x="655.5" y="-85.5" font-family="Helvetica,sans-Serif" font-size="10.00" fill="#000000">binned_extended_logLL</text>
<text text-anchor="middle" x="707" y="-74.5" font-family="Helvetica,sans-Serif" font-size="10.00" fill="#000000">_fit.inl</text>
</a>
</g>
</g>
<!-- Node98&#45;&gt;Node105 -->
<g id="edge8" class="edge">
<title>Node98&#45;&gt;Node105</title>
<path fill="none" stroke="#191970" d="M2671.4575,-143.5683C2438.7292,-141.7185 1600.759,-132.8841 911,-98 862.4014,-95.5422 807.3945,-91.2759 766.7564,-87.8407"/>
<polygon fill="#191970" stroke="#191970" points="2671.7294,-147.0705 2681.7565,-143.6487 2671.7842,-140.0707 2671.7294,-147.0705"/>
</g>
<!-- Node108 -->
<g id="node12" class="node">
<title>Node108</title>
<g id="a_node12"><a xlink:href="extended__logLL__fit_8inl.html" target="_top" xlink:title="extended_logLL_fit.inl">
<polygon fill="none" stroke="#000000" points="920.5,-73 920.5,-92 1031.5,-92 1031.5,-73 920.5,-73"/>
<text text-anchor="middle" x="976" y="-80" font-family="Helvetica,sans-Serif" font-size="10.00" fill="#000000">extended_logLL_fit.inl</text>
</a>
</g>
</g>
<!-- Node98&#45;&gt;Node108 -->
<g id="edge11" class="edge">
<title>Node98&#45;&gt;Node108</title>
<path fill="none" stroke="#191970" d="M2671.6451,-143.2193C2461.1548,-140.3573 1757.5892,-128.9449 1177,-98 1127.8955,-95.3828 1072.1472,-90.9696 1031.8386,-87.5201"/>
<polygon fill="#191970" stroke="#191970" points="2671.8348,-146.7221 2681.881,-143.357 2671.929,-139.7227 2671.8348,-146.7221"/>
</g>
<!-- Node111 -->
<g id="node15" class="node">
<title>Node111</title>
<g id="a_node15"><a xlink:href="fractional__logLL__fit_8inl.html" target="_top" xlink:title="fractional_logLL_fit.inl">
<polygon fill="none" stroke="#000000" points="1186.5,-73 1186.5,-92 1297.5,-92 1297.5,-73 1186.5,-73"/>
<text text-anchor="middle" x="1242" y="-80" font-family="Helvetica,sans-Serif" font-size="10.00" fill="#000000">fractional_logLL_fit.inl</text>
</a>
</g>
</g>
<!-- Node98&#45;&gt;Node111 -->
<g id="edge14" class="edge">
<title>Node98&#45;&gt;Node111</title>
<path fill="none" stroke="#191970" d="M2671.7221,-142.6516C2485.636,-138.4338 1917.5015,-124.1852 1447,-98 1396.3959,-95.1837 1338.8567,-90.7227 1297.6458,-87.3081"/>
<polygon fill="#191970" stroke="#191970" points="2671.787,-146.1538 2681.8633,-142.8801 2671.9447,-139.1556 2671.787,-146.1538"/>
</g>
<!-- Node114 -->
<g id="node18" class="node">
<title>Node114</title>
<g id="a_node18"><a xlink:href="multidimensional__fit_8inl.html" target="_top" xlink:title="multidimensional_fit.inl">
<polygon fill="none" stroke="#000000" points="1456,-73 1456,-92 1572,-92 1572,-73 1456,-73"/>
<text text-anchor="middle" x="1514" y="-80" font-family="Helvetica,sans-Serif" font-size="10.00" fill="#000000">multidimensional_fit.inl</text>
</a>
</g>
</g>
<!-- Node98&#45;&gt;Node114 -->
<g id="edge17" class="edge">
<title>Node98&#45;&gt;Node114</title>
<path fill="none" stroke="#191970" d="M2671.8809,-141.7351C2514.1118,-135.8577 2085.1466,-119.0957 1728,-98 1675.1969,-94.8811 1615.1291,-90.4532 1572.1022,-87.1281"/>
<polygon fill="#191970" stroke="#191970" points="2671.754,-145.2327 2681.8771,-142.1064 2672.0139,-138.2375 2671.754,-145.2327"/>
</g>
<!-- Node117 -->
<g id="node21" class="node">
<title>Node117</title>
<g id="a_node21"><a xlink:href="phsp__unweighting__functor__and__fit_8inl.html" target="_top" xlink:title="phsp_unweighting_functor\l_and_fit.inl">
<polygon fill="none" stroke="#000000" points="1737.5,-67.5 1737.5,-97.5 1866.5,-97.5 1866.5,-67.5 1737.5,-67.5"/>
<text text-anchor="start" x="1745.5" y="-85.5" font-family="Helvetica,sans-Serif" font-size="10.00" fill="#000000">phsp_unweighting_functor</text>
<text text-anchor="middle" x="1802" y="-74.5" font-family="Helvetica,sans-Serif" font-size="10.00" fill="#000000">_and_fit.inl</text>
</a>
</g>
</g>
<!-- Node98&#45;&gt;Node117 -->
<g id="edge20" class="edge">
<title>Node98&#45;&gt;Node117</title>
<path fill="none" stroke="#191970" d="M2671.332,-141.2767C2538.4402,-135.2909 2218.5935,-119.7677 1951,-98 1923.393,-95.7543 1892.9687,-92.6945 1866.8489,-89.8866"/>
<polygon fill="#191970" stroke="#191970" points="2671.5658,-144.7906 2681.7125,-141.742 2671.8793,-137.7976 2671.5658,-144.7906"/>
</g>
<!-- Node120 -->
<g id="node24" class="node">
<title>Node120</title>
<g id="a_node24"><a xlink:href="splot_8inl.html" target="_top" xlink:title="splot.inl">
<polygon fill="none" stroke="#000000" points="1960,-73 1960,-92 2010,-92 2010,-73 1960,-73"/>
<text text-anchor="middle" x="1985" y="-80" font-family="Helvetica,sans-Serif" font-size="10.00" fill="#000000">splot.inl</text>
</a>
</g>
</g>
<!-- Node98&#45;&gt;Node120 -->
<g id="edge23" class="edge">
<title>Node98&#45;&gt;Node120</title>
<path fill="none" stroke="#191970" d="M2671.5769,-138.8745C2515.7005,-126.0755 2114.4298,-93.1274 2010.0954,-84.5606"/>
<polygon fill="#191970" stroke="#191970" points="2671.6735,-142.3941 2681.9264,-139.7243 2672.2464,-135.4176 2671.6735,-142.3941"/>
</g>
<!-- Node123 -->
<g id="node27" class="node">
<title>Node123</title>
<g id="a_node27"><a xlink:href="breit__wigner__plus__chebychev_8inl.html" target="_top" xlink:title="breit_wigner_plus_chebychev.inl">
<polygon fill="none" stroke="#000000" points="2210.5,-73 2210.5,-92 2367.5,-92 2367.5,-73 2210.5,-73"/>
<text text-anchor="middle" x="2289" y="-80" font-family="Helvetica,sans-Serif" font-size="10.00" fill="#000000">breit_wigner_plus_chebychev.inl</text>
</a>
</g>
</g>
<!-- Node98&#45;&gt;Node123 -->
<g id="edge26" class="edge">
<title>Node98&#45;&gt;Node123</title>
<path fill="none" stroke="#191970" d="M2671.6405,-135.3818C2589.0067,-123.9616 2443.6968,-103.8795 2357.9002,-92.0222"/>
<polygon fill="#191970" stroke="#191970" points="2671.2592,-138.8623 2681.6443,-136.7643 2672.2176,-131.9282 2671.2592,-138.8623"/>
</g>
<!-- Node126 -->
<g id="node30" class="node">
<title>Node126</title>
<g id="a_node30"><a xlink:href="breit__wigner__plus__polynomial_8inl.html" target="_top" xlink:title="breit_wigner_plus_polynomial.inl">
<polygon fill="none" stroke="#000000" points="2567,-73 2567,-92 2723,-92 2723,-73 2567,-73"/>
<text text-anchor="middle" x="2645" y="-80" font-family="Helvetica,sans-Serif" font-size="10.00" fill="#000000">breit_wigner_plus_polynomial.inl</text>
</a>
</g>
</g>
<!-- Node98&#45;&gt;Node126 -->
<g id="edge29" class="edge">
<title>Node98&#45;&gt;Node126</title>
<path fill="none" stroke="#191970" d="M2711.5236,-128.4685C2694.9322,-117.0037 2672.8794,-101.765 2658.8086,-92.0419"/>
<polygon fill="#191970" stroke="#191970" points="2709.8771,-131.5851 2720.0938,-134.3906 2713.8565,-125.8263 2709.8771,-131.5851"/>
</g>
<!-- Node129 -->
<g id="node33" class="node">
<title>Node129</title>
<g id="a_node33"><a xlink:href="crystal__ball__plus__exponential_8inl.html" target="_top" xlink:title="crystal_ball_plus_exponential.inl">
<polygon fill="none" stroke="#000000" points="2744.5,-73 2744.5,-92 2901.5,-92 2901.5,-73 2744.5,-73"/>
<text text-anchor="middle" x="2823" y="-80" font-family="Helvetica,sans-Serif" font-size="10.00" fill="#000000">crystal_ball_plus_exponential.inl</text>
</a>
</g>
</g>
<!-- Node98&#45;&gt;Node129 -->
<g id="edge32" class="edge">
<title>Node98&#45;&gt;Node129</title>
<path fill="none" stroke="#191970" d="M2756.4764,-128.4685C2773.0678,-117.0037 2795.1206,-101.765 2809.1914,-92.0419"/>
<polygon fill="#191970" stroke="#191970" points="2754.1435,-125.8263 2747.9063,-134.3906 2758.1229,-131.5851 2754.1435,-125.8263"/>
</g>
<!-- Node132 -->
<g id="node36" class="node">
<title>Node132</title>
<g id="a_node36"><a xlink:href="dalitz__plot_8inl.html" target="_top" xlink:title="dalitz_plot.inl">
<polygon fill="none" stroke="#000000" points="3102,-73 3102,-92 3176,-92 3176,-73 3102,-73"/>
<text text-anchor="middle" x="3139" y="-80" font-family="Helvetica,sans-Serif" font-size="10.00" fill="#000000">dalitz_plot.inl</text>
</a>
</g>
</g>
<!-- Node98&#45;&gt;Node132 -->
<g id="edge35" class="edge">
<title>Node98&#45;&gt;Node132</title>
<path fill="none" stroke="#191970" d="M2796.1877,-134.5567C2881.5,-121.6018 3032.1648,-98.7231 3101.7973,-88.1493"/>
<polygon fill="#191970" stroke="#191970" points="2795.4787,-131.1241 2786.1176,-136.0859 2796.5297,-138.0448 2795.4787,-131.1241"/>
</g>
<!-- Node135 -->
<g id="node39" class="node">
<title>Node135</title>
<g id="a_node39"><a xlink:href="double__gaussian__plus__exponential_8inl.html" target="_top" xlink:title="double_gaussian_plus\l_exponential.inl">
<polygon fill="none" stroke="#000000" points="3241.5,-67.5 3241.5,-97.5 3354.5,-97.5 3354.5,-67.5 3241.5,-67.5"/>
<text text-anchor="start" x="3249.5" y="-85.5" font-family="Helvetica,sans-Serif" font-size="10.00" fill="#000000">double_gaussian_plus</text>
<text text-anchor="middle" x="3298" y="-74.5" font-family="Helvetica,sans-Serif" font-size="10.00" fill="#000000">_exponential.inl</text>
</a>
</g>
</g>
<!-- Node98&#45;&gt;Node135 -->
<g id="edge38" class="edge">
<title>Node98&#45;&gt;Node135</title>
<path fill="none" stroke="#191970" d="M2796.1237,-138.3507C2883.162,-130.2794 3046.3076,-114.58 3185,-98 3203.3837,-95.8023 3223.4125,-93.1423 3241.4323,-90.6509"/>
<polygon fill="#191970" stroke="#191970" points="2795.7845,-134.8671 2786.1493,-139.2732 2796.4291,-141.8373 2795.7845,-134.8671"/>
</g>
<!-- Node138 -->
<g id="node42" class="node">
<title>Node138</title>
<g id="a_node42"><a xlink:href="gaussian__plus__argus_8inl.html" target="_top" xlink:title="gaussian_plus_argus.inl">
<polygon fill="none" stroke="#000000" points="3372.5,-73 3372.5,-92 3493.5,-92 3493.5,-73 3372.5,-73"/>
<text text-anchor="middle" x="3433" y="-80" font-family="Helvetica,sans-Serif" font-size="10.00" fill="#000000">gaussian_plus_argus.inl</text>
</a>
</g>
</g>
<!-- Node98&#45;&gt;Node138 -->
<g id="edge41" class="edge">
<title>Node98&#45;&gt;Node138</title>
<path fill="none" stroke="#191970" d="M2796.269,-142.4339C2909.5817,-138.9217 3156.8256,-128.2029 3363,-98 3373.3452,-96.4845 3384.438,-94.2947 3394.6739,-92.0364"/>
<polygon fill="#191970" stroke="#191970" points="2795.9434,-138.9421 2786.0535,-142.7422 2796.1546,-145.9389 2795.9434,-138.9421"/>
</g>
<!-- Node141 -->
<g id="node45" class="node">
<title>Node141</title>
<g id="a_node45"><a xlink:href="Ipatia__plus__argus_8inl.html" target="_top" xlink:title="Ipatia_plus_argus.inl">
<polygon fill="none" stroke="#000000" points="3512,-73 3512,-92 3618,-92 3618,-73 3512,-73"/>
<text text-anchor="middle" x="3565" y="-80" font-family="Helvetica,sans-Serif" font-size="10.00" fill="#000000">Ipatia_plus_argus.inl</text>
</a>
</g>
</g>
<!-- Node98&#45;&gt;Node141 -->
<g id="edge44" class="edge">
<title>Node98&#45;&gt;Node141</title>
<path fill="none" stroke="#191970" d="M2796.0523,-141.7379C2953.626,-135.7599 3366.3143,-118.5808 3502,-98 3511.5772,-96.5473 3521.8295,-94.3214 3531.2226,-92.0058"/>
<polygon fill="#191970" stroke="#191970" points="2795.9087,-138.2407 2786.0478,-142.1153 2796.1727,-145.2357 2795.9087,-138.2407"/>
</g>
<!-- Node144 -->
<g id="node48" class="node">
<title>Node144</title>
<g id="a_node48"><a xlink:href="particle__mass_8inl.html" target="_top" xlink:title="particle_mass.inl">
<polygon fill="none" stroke="#000000" points="3636,-73 3636,-92 3726,-92 3726,-73 3636,-73"/>
<text text-anchor="middle" x="3681" y="-80" font-family="Helvetica,sans-Serif" font-size="10.00" fill="#000000">particle_mass.inl</text>
</a>
</g>
</g>
<!-- Node98&#45;&gt;Node144 -->
<g id="edge47" class="edge">
<title>Node98&#45;&gt;Node144</title>
<path fill="none" stroke="#191970" d="M2796.2362,-142.6398C2971.4838,-138.5164 3466.7377,-124.7673 3627,-98 3635.3697,-96.6021 3644.2872,-94.3642 3652.4137,-92.0186"/>
<polygon fill="#191970" stroke="#191970" points="2796.0651,-139.1428 2786.1494,-142.8748 2796.2282,-146.1409 2796.0651,-139.1428"/>
</g>
<!-- Node147 -->
<g id="node51" class="node">
<title>Node147</title>
<g id="a_node51"><a xlink:href="dalitz__plot_8C.html" target="_top" xlink:title="dalitz_plot.C">
<polygon fill="none" stroke="#000000" points="3744.5,-73 3744.5,-92 3815.5,-92 3815.5,-73 3744.5,-73"/>
<text text-anchor="middle" x="3780" y="-80" font-family="Helvetica,sans-Serif" font-size="10.00" fill="#000000">dalitz_plot.C</text>
</a>
</g>
</g>
<!-- Node98&#45;&gt;Node147 -->
<g id="edge50" class="edge">
<title>Node98&#45;&gt;Node147</title>
<path fill="none" stroke="#191970" d="M2796.2326,-143.4607C2985.7372,-141.4527 3553.7879,-132.6289 3735,-98 3742.1422,-96.6352 3749.6915,-94.3771 3756.5241,-92.0012"/>
<polygon fill="#191970" stroke="#191970" points="2796.1251,-139.9616 2786.1618,-143.5648 2796.1975,-146.9612 2796.1251,-139.9616"/>
</g>
<!-- Node148 -->
<g id="node52" class="node">
<title>Node148</title>
<g id="a_node52"><a xlink:href="fit__3d__gaussian_8C.html" target="_top" xlink:title="fit_3d_gaussian.C">
<polygon fill="none" stroke="#000000" points="3833.5,-73 3833.5,-92 3928.5,-92 3928.5,-73 3833.5,-73"/>
<text text-anchor="middle" x="3881" y="-80" font-family="Helvetica,sans-Serif" font-size="10.00" fill="#000000">fit_3d_gaussian.C</text>
</a>
</g>
</g>
<!-- Node98&#45;&gt;Node148 -->
<g id="edge51" class="edge">
<title>Node98&#45;&gt;Node148</title>
<path fill="none" stroke="#191970" d="M2796.2006,-143.2391C2996.6996,-140.494 3624.5905,-129.5368 3825,-98 3833.6697,-96.6357 3842.9143,-94.4086 3851.3419,-92.0626"/>
<polygon fill="#191970" stroke="#191970" points="2796.0863,-139.7403 2786.1345,-143.3749 2796.1808,-146.7396 2796.0863,-139.7403"/>
</g>
<!-- Node149 -->
<g id="node53" class="node">
<title>Node149</title>
<g id="a_node53"><a xlink:href="fit__gaussian_8C.html" target="_top" xlink:title="fit_gaussian.C">
<polygon fill="none" stroke="#000000" points="3946.5,-73 3946.5,-92 4025.5,-92 4025.5,-73 3946.5,-73"/>
<text text-anchor="middle" x="3986" y="-80" font-family="Helvetica,sans-Serif" font-size="10.00" fill="#000000">fit_gaussian.C</text>
</a>
</g>
</g>
<!-- Node98&#45;&gt;Node149 -->
<g id="edge52" class="edge">
<title>Node98&#45;&gt;Node149</title>
<path fill="none" stroke="#191970" d="M2796.2507,-142.6207C3026.9164,-137.3726 3825.4139,-117.9372 3938,-98 3945.5881,-96.6563 3953.6313,-94.4048 3960.92,-92.0285"/>
<polygon fill="#191970" stroke="#191970" points="2795.9402,-139.1267 2786.0221,-142.8526 2796.0989,-146.1249 2795.9402,-139.1267"/>
</g>
<!-- Node150 -->
<g id="node54" class="node">
<title>Node150</title>
<g id="a_node54"><a xlink:href="fit__johnson_8C.html" target="_top" xlink:title="fit_johnson.C">
<polygon fill="none" stroke="#000000" points="4044,-73 4044,-92 4118,-92 4118,-73 4044,-73"/>
<text text-anchor="middle" x="4081" y="-80" font-family="Helvetica,sans-Serif" font-size="10.00" fill="#000000">fit_johnson.C</text>
</a>
</g>
</g>
<!-- Node98&#45;&gt;Node150 -->
<g id="edge53" class="edge">
<title>Node98&#45;&gt;Node150</title>
<path fill="none" stroke="#191970" d="M2796.3984,-142.8539C3039.0792,-138.2517 3912.6578,-120.2847 4035,-98 4042.296,-96.671 4050.0115,-94.4242 4056.996,-92.0475"/>
<polygon fill="#191970" stroke="#191970" points="2796.2678,-139.3557 2786.3357,-143.044 2796.4,-146.3544 2796.2678,-139.3557"/>
</g>
<!-- Node100 -->
<g id="node4" class="node">
<title>Node100</title>
<g id="a_node4"><a xlink:href="basic__fit_8cpp.html" target="_top" xlink:title="basic_fit.cpp">
<polygon fill="none" stroke="#000000" points="0,-6 0,-25 72,-25 72,-6 0,-6"/>
<text text-anchor="middle" x="36" y="-13" font-family="Helvetica,sans-Serif" font-size="10.00" fill="#000000">basic_fit.cpp</text>
</a>
</g>
</g>
<!-- Node99&#45;&gt;Node100 -->
<g id="edge3" class="edge">
<title>Node99&#45;&gt;Node100</title>
<path fill="none" stroke="#191970" d="M103.1899,-66.6559C86.225,-53.7395 62.8204,-35.9201 48.5849,-25.0817"/>
<polygon fill="#191970" stroke="#191970" points="101.3151,-69.6275 111.3917,-72.9005 105.5555,-64.058 101.3151,-69.6275"/>
</g>
<!-- Node101 -->
<g id="node5" class="node">
<title>Node101</title>
<g id="a_node5"><a xlink:href="basic__fit_8cu.html" target="_top" xlink:title="basic_fit.cu">
<polygon fill="none" stroke="#000000" points="90.5,-6 90.5,-25 157.5,-25 157.5,-6 90.5,-6"/>
<text text-anchor="middle" x="124" y="-13" font-family="Helvetica,sans-Serif" font-size="10.00" fill="#000000">basic_fit.cu</text>
</a>
</g>
</g>
<!-- Node99&#45;&gt;Node101 -->
<g id="edge4" class="edge">
<title>Node99&#45;&gt;Node101</title>
<path fill="none" stroke="#191970" d="M124,-62.6079C124,-50.214 124,-34.8263 124,-25.0817"/>
<polygon fill="#191970" stroke="#191970" points="120.5001,-62.9005 124,-72.9005 127.5001,-62.9006 120.5001,-62.9005"/>
</g>
<!-- Node103 -->
<g id="node7" class="node">
<title>Node103</title>
<g id="a_node7"><a xlink:href="basic__fit__range__semantics_8cpp.html" target="_top" xlink:title="basic_fit_range_semantics.cpp">
<polygon fill="none" stroke="#000000" points="176,-6 176,-25 328,-25 328,-6 176,-6"/>
<text text-anchor="middle" x="252" y="-13" font-family="Helvetica,sans-Serif" font-size="10.00" fill="#000000">basic_fit_range_semantics.cpp</text>
</a>
</g>
</g>
<!-- Node102&#45;&gt;Node103 -->
<g id="edge6" class="edge">
<title>Node102&#45;&gt;Node103</title>
<path fill="none" stroke="#191970" d="M385.5517,-69.0806C353.0898,-56.057 304.6328,-36.6162 275.8826,-25.0817"/>
<polygon fill="#191970" stroke="#191970" points="384.4888,-72.4253 395.073,-72.9005 387.0953,-65.9287 384.4888,-72.4253"/>
</g>
<!-- Node104 -->
<g id="node8" class="node">
<title>Node104</title>
<g id="a_node8"><a xlink:href="basic__fit__range__semantics_8cu.html" target="_top" xlink:title="basic_fit_range_semantics.cu">
<polygon fill="none" stroke="#000000" points="346,-6 346,-25 492,-25 492,-6 346,-6"/>
<text text-anchor="middle" x="419" y="-13" font-family="Helvetica,sans-Serif" font-size="10.00" fill="#000000">basic_fit_range_semantics.cu</text>
</a>
</g>
</g>
<!-- Node102&#45;&gt;Node104 -->
<g id="edge7" class="edge">
<title>Node102&#45;&gt;Node104</title>
<path fill="none" stroke="#191970" d="M419,-62.6079C419,-50.214 419,-34.8263 419,-25.0817"/>
<polygon fill="#191970" stroke="#191970" points="415.5001,-62.9005 419,-72.9005 422.5001,-62.9006 415.5001,-62.9005"/>
</g>
<!-- Node106 -->
<g id="node10" class="node">
<title>Node106</title>
<g id="a_node10"><a xlink:href="binned__extended__logLL__fit_8cpp.html" target="_top" xlink:title="binned_extended_logLL\l_fit.cpp">
<polygon fill="none" stroke="#000000" points="510.5,-.5 510.5,-30.5 629.5,-30.5 629.5,-.5 510.5,-.5"/>
<text text-anchor="start" x="518.5" y="-18.5" font-family="Helvetica,sans-Serif" font-size="10.00" fill="#000000">binned_extended_logLL</text>
<text text-anchor="middle" x="570" y="-7.5" font-family="Helvetica,sans-Serif" font-size="10.00" fill="#000000">_fit.cpp</text>
</a>
</g>
</g>
<!-- Node105&#45;&gt;Node106 -->
<g id="edge9" class="edge">
<title>Node105&#45;&gt;Node106</title>
<path fill="none" stroke="#191970" d="M667.2328,-63.0518C646.1816,-52.7567 620.7086,-40.2991 601.1169,-30.7177"/>
<polygon fill="#191970" stroke="#191970" points="665.7336,-66.2147 676.2545,-67.4639 668.8089,-59.9264 665.7336,-66.2147"/>
</g>
<!-- Node107 -->
<g id="node11" class="node">
<title>Node107</title>
<g id="a_node11"><a xlink:href="binned__extended__logLL__fit_8cu.html" target="_top" xlink:title="binned_extended_logLL\l_fit.cu">
<polygon fill="none" stroke="#000000" points="647.5,-.5 647.5,-30.5 766.5,-30.5 766.5,-.5 647.5,-.5"/>
<text text-anchor="start" x="655.5" y="-18.5" font-family="Helvetica,sans-Serif" font-size="10.00" fill="#000000">binned_extended_logLL</text>
<text text-anchor="middle" x="707" y="-7.5" font-family="Helvetica,sans-Serif" font-size="10.00" fill="#000000">_fit.cu</text>
</a>
</g>
</g>
<!-- Node105&#45;&gt;Node107 -->
<g id="edge10" class="edge">
<title>Node105&#45;&gt;Node107</title>
<path fill="none" stroke="#191970" d="M707,-57.0249C707,-48.128 707,-38.4287 707,-30.6432"/>
<polygon fill="#191970" stroke="#191970" points="703.5001,-57.2966 707,-67.2967 710.5001,-57.2967 703.5001,-57.2966"/>
</g>
<!-- Node109 -->
<g id="node13" class="node">
<title>Node109</title>
<g id="a_node13"><a xlink:href="extended__logLL__fit_8cpp.html" target="_top" xlink:title="extended_logLL_fit.cpp">
<polygon fill="none" stroke="#000000" points="784.5,-6 784.5,-25 901.5,-25 901.5,-6 784.5,-6"/>
<text text-anchor="middle" x="843" y="-13" font-family="Helvetica,sans-Serif" font-size="10.00" fill="#000000">extended_logLL_fit.cpp</text>
</a>
</g>
</g>
<!-- Node108&#45;&gt;Node109 -->
<g id="edge12" class="edge">
<title>Node108&#45;&gt;Node109</title>
<path fill="none" stroke="#191970" d="M948.0131,-68.4013C922.1826,-55.389 884.5224,-36.4173 862.0203,-25.0817"/>
<polygon fill="#191970" stroke="#191970" points="946.4389,-71.5273 956.9443,-72.9005 949.5882,-65.2757 946.4389,-71.5273"/>
</g>
<!-- Node110 -->
<g id="node14" class="node">
<title>Node110</title>
<g id="a_node14"><a xlink:href="extended__logLL__fit_8cu.html" target="_top" xlink:title="extended_logLL_fit.cu">
<polygon fill="none" stroke="#000000" points="920,-6 920,-25 1032,-25 1032,-6 920,-6"/>
<text text-anchor="middle" x="976" y="-13" font-family="Helvetica,sans-Serif" font-size="10.00" fill="#000000">extended_logLL_fit.cu</text>
</a>
</g>
</g>
<!-- Node108&#45;&gt;Node110 -->
<g id="edge13" class="edge">
<title>Node108&#45;&gt;Node110</title>
<path fill="none" stroke="#191970" d="M976,-62.6079C976,-50.214 976,-34.8263 976,-25.0817"/>
<polygon fill="#191970" stroke="#191970" points="972.5001,-62.9005 976,-72.9005 979.5001,-62.9006 972.5001,-62.9005"/>
</g>
<!-- Node112 -->
<g id="node16" class="node">
<title>Node112</title>
<g id="a_node16"><a xlink:href="fractional__logLL__fit_8cpp.html" target="_top" xlink:title="fractional_logLL_fit.cpp">
<polygon fill="none" stroke="#000000" points="1050.5,-6 1050.5,-25 1167.5,-25 1167.5,-6 1050.5,-6"/>
<text text-anchor="middle" x="1109" y="-13" font-family="Helvetica,sans-Serif" font-size="10.00" fill="#000000">fractional_logLL_fit.cpp</text>
</a>
</g>
</g>
<!-- Node111&#45;&gt;Node112 -->
<g id="edge15" class="edge">
<title>Node111&#45;&gt;Node112</title>
<path fill="none" stroke="#191970" d="M1214.0131,-68.4013C1188.1826,-55.389 1150.5224,-36.4173 1128.0203,-25.0817"/>
<polygon fill="#191970" stroke="#191970" points="1212.4389,-71.5273 1222.9443,-72.9005 1215.5882,-65.2757 1212.4389,-71.5273"/>
</g>
<!-- Node113 -->
<g id="node17" class="node">
<title>Node113</title>
<g id="a_node17"><a xlink:href="fractional__logLL__fit_8cu.html" target="_top" xlink:title="fractional_logLL_fit.cu">
<polygon fill="none" stroke="#000000" points="1186,-6 1186,-25 1298,-25 1298,-6 1186,-6"/>
<text text-anchor="middle" x="1242" y="-13" font-family="Helvetica,sans-Serif" font-size="10.00" fill="#000000">fractional_logLL_fit.cu</text>
</a>
</g>
</g>
<!-- Node111&#45;&gt;Node113 -->
<g id="edge16" class="edge">
<title>Node111&#45;&gt;Node113</title>
<path fill="none" stroke="#191970" d="M1242,-62.6079C1242,-50.214 1242,-34.8263 1242,-25.0817"/>
<polygon fill="#191970" stroke="#191970" points="1238.5001,-62.9005 1242,-72.9005 1245.5001,-62.9006 1238.5001,-62.9005"/>
</g>
<!-- Node115 -->
<g id="node19" class="node">
<title>Node115</title>
<g id="a_node19"><a xlink:href="multidimensional__fit_8cpp.html" target="_top" xlink:title="multidimensional_fit.cpp">
<polygon fill="none" stroke="#000000" points="1316,-6 1316,-25 1438,-25 1438,-6 1316,-6"/>
<text text-anchor="middle" x="1377" y="-13" font-family="Helvetica,sans-Serif" font-size="10.00" fill="#000000">multidimensional_fit.cpp</text>
</a>
</g>
</g>
<!-- Node114&#45;&gt;Node115 -->
<g id="edge18" class="edge">
<title>Node114&#45;&gt;Node115</title>
<path fill="none" stroke="#191970" d="M1485.1714,-68.4013C1458.564,-55.389 1419.7712,-36.4173 1396.5923,-25.0817"/>
<polygon fill="#191970" stroke="#191970" points="1483.8503,-71.6513 1494.3712,-72.9005 1486.9256,-65.3631 1483.8503,-71.6513"/>
</g>
<!-- Node116 -->
<g id="node20" class="node">
<title>Node116</title>
<g id="a_node20"><a xlink:href="multidimensional__fit_8cu.html" target="_top" xlink:title="multidimensional_fit.cu">
<polygon fill="none" stroke="#000000" points="1456,-6 1456,-25 1572,-25 1572,-6 1456,-6"/>
<text text-anchor="middle" x="1514" y="-13" font-family="Helvetica,sans-Serif" font-size="10.00" fill="#000000">multidimensional_fit.cu</text>
</a>
</g>
</g>
<!-- Node114&#45;&gt;Node116 -->
<g id="edge19" class="edge">
<title>Node114&#45;&gt;Node116</title>
<path fill="none" stroke="#191970" d="M1514,-62.6079C1514,-50.214 1514,-34.8263 1514,-25.0817"/>
<polygon fill="#191970" stroke="#191970" points="1510.5001,-62.9005 1514,-72.9005 1517.5001,-62.9006 1510.5001,-62.9005"/>
</g>
<!-- Node118 -->
<g id="node22" class="node">
<title>Node118</title>
<g id="a_node22"><a xlink:href="phsp__unweighting__functor__and__fit_8cpp.html" target="_top" xlink:title="phsp_unweighting_functor\l_and_fit.cpp">
<polygon fill="none" stroke="#000000" points="1590.5,-.5 1590.5,-30.5 1719.5,-30.5 1719.5,-.5 1590.5,-.5"/>
<text text-anchor="start" x="1598.5" y="-18.5" font-family="Helvetica,sans-Serif" font-size="10.00" fill="#000000">phsp_unweighting_functor</text>
<text text-anchor="middle" x="1655" y="-7.5" font-family="Helvetica,sans-Serif" font-size="10.00" fill="#000000">_and_fit.cpp</text>
</a>
</g>
</g>
<!-- Node117&#45;&gt;Node118 -->
<g id="edge21" class="edge">
<title>Node117&#45;&gt;Node118</title>
<path fill="none" stroke="#191970" d="M1759.9036,-63.3132C1737.1153,-52.9267 1709.3667,-40.2794 1688.1336,-30.6017"/>
<polygon fill="#191970" stroke="#191970" points="1758.4593,-66.5013 1769.0103,-67.4639 1761.3625,-60.1317 1758.4593,-66.5013"/>
</g>
<!-- Node119 -->
<g id="node23" class="node">
<title>Node119</title>
<g id="a_node23"><a xlink:href="phsp__unweighting__functor__and__fit_8cu.html" target="_top" xlink:title="phsp_unweighting_functor\l_and_fit.cu">
<polygon fill="none" stroke="#000000" points="1737.5,-.5 1737.5,-30.5 1866.5,-30.5 1866.5,-.5 1737.5,-.5"/>
<text text-anchor="start" x="1745.5" y="-18.5" font-family="Helvetica,sans-Serif" font-size="10.00" fill="#000000">phsp_unweighting_functor</text>
<text text-anchor="middle" x="1802" y="-7.5" font-family="Helvetica,sans-Serif" font-size="10.00" fill="#000000">_and_fit.cu</text>
</a>
</g>
</g>
<!-- Node117&#45;&gt;Node119 -->
<g id="edge22" class="edge">
<title>Node117&#45;&gt;Node119</title>
<path fill="none" stroke="#191970" d="M1802,-57.0249C1802,-48.128 1802,-38.4287 1802,-30.6432"/>
<polygon fill="#191970" stroke="#191970" points="1798.5001,-57.2966 1802,-67.2967 1805.5001,-57.2967 1798.5001,-57.2966"/>
</g>
<!-- Node121 -->
<g id="node25" class="node">
<title>Node121</title>
<g id="a_node25"><a xlink:href="splot_8cpp.html" target="_top" xlink:title="splot.cpp">
<polygon fill="none" stroke="#000000" points="1885,-6 1885,-25 1941,-25 1941,-6 1885,-6"/>
<text text-anchor="middle" x="1913" y="-13" font-family="Helvetica,sans-Serif" font-size="10.00" fill="#000000">splot.cpp</text>
</a>
</g>
</g>
<!-- Node120&#45;&gt;Node121 -->
<g id="edge24" class="edge">
<title>Node120&#45;&gt;Node121</title>
<path fill="none" stroke="#191970" d="M1967.2042,-65.94C1953.393,-53.0879 1934.7303,-35.7212 1923.2967,-25.0817"/>
<polygon fill="#191970" stroke="#191970" points="1964.9791,-68.6504 1974.6842,-72.9005 1969.7478,-63.5259 1964.9791,-68.6504"/>
</g>
<!-- Node122 -->
<g id="node26" class="node">
<title>Node122</title>
<g id="a_node26"><a xlink:href="splot_8cu.html" target="_top" xlink:title="splot.cu">
<polygon fill="none" stroke="#000000" points="1959.5,-6 1959.5,-25 2010.5,-25 2010.5,-6 1959.5,-6"/>
<text text-anchor="middle" x="1985" y="-13" font-family="Helvetica,sans-Serif" font-size="10.00" fill="#000000">splot.cu</text>
</a>
</g>
</g>
<!-- Node120&#45;&gt;Node122 -->
<g id="edge25" class="edge">
<title>Node120&#45;&gt;Node122</title>
<path fill="none" stroke="#191970" d="M1985,-62.6079C1985,-50.214 1985,-34.8263 1985,-25.0817"/>
<polygon fill="#191970" stroke="#191970" points="1981.5001,-62.9005 1985,-72.9005 1988.5001,-62.9006 1981.5001,-62.9005"/>
</g>
<!-- Node124 -->
<g id="node28" class="node">
<title>Node124</title>
<g id="a_node28"><a xlink:href="breit__wigner__plus__chebychev_8cpp.html" target="_top" xlink:title="breit_wigner_plus_chebychev.cpp">
<polygon fill="none" stroke="#000000" points="2028.5,-6 2028.5,-25 2191.5,-25 2191.5,-6 2028.5,-6"/>
<text text-anchor="middle" x="2110" y="-13" font-family="Helvetica,sans-Serif" font-size="10.00" fill="#000000">breit_wigner_plus_chebychev.cpp</text>
</a>
</g>
</g>
<!-- Node123&#45;&gt;Node124 -->
<g id="edge27" class="edge">
<title>Node123&#45;&gt;Node124</title>
<path fill="none" stroke="#191970" d="M2253.5971,-69.2487C2218.8019,-56.2247 2166.5476,-36.6659 2135.5988,-25.0817"/>
<polygon fill="#191970" stroke="#191970" points="2252.7613,-72.6729 2263.3537,-72.9005 2255.2152,-66.1171 2252.7613,-72.6729"/>
</g>
<!-- Node125 -->
<g id="node29" class="node">
<title>Node125</title>
<g id="a_node29"><a xlink:href="breit__wigner__plus__chebychev_8cu.html" target="_top" xlink:title="breit_wigner_plus_chebychev.cu">
<polygon fill="none" stroke="#000000" points="2210,-6 2210,-25 2368,-25 2368,-6 2210,-6"/>
<text text-anchor="middle" x="2289" y="-13" font-family="Helvetica,sans-Serif" font-size="10.00" fill="#000000">breit_wigner_plus_chebychev.cu</text>
</a>
</g>
</g>
<!-- Node123&#45;&gt;Node125 -->
<g id="edge28" class="edge">
<title>Node123&#45;&gt;Node125</title>
<path fill="none" stroke="#191970" d="M2289,-62.6079C2289,-50.214 2289,-34.8263 2289,-25.0817"/>
<polygon fill="#191970" stroke="#191970" points="2285.5001,-62.9005 2289,-72.9005 2292.5001,-62.9006 2285.5001,-62.9005"/>
</g>
<!-- Node127 -->
<g id="node31" class="node">
<title>Node127</title>
<g id="a_node31"><a xlink:href="breit__wigner__plus__polynomial_8cpp.html" target="_top" xlink:title="breit_wigner_plus_polynomial.cpp">
<polygon fill="none" stroke="#000000" points="2386,-6 2386,-25 2548,-25 2548,-6 2386,-6"/>
<text text-anchor="middle" x="2467" y="-13" font-family="Helvetica,sans-Serif" font-size="10.00" fill="#000000">breit_wigner_plus_polynomial.cpp</text>
</a>
</g>
</g>
<!-- Node126&#45;&gt;Node127 -->
<g id="edge30" class="edge">
<title>Node126&#45;&gt;Node127</title>
<path fill="none" stroke="#191970" d="M2609.7949,-69.2487C2575.1941,-56.2247 2523.2317,-36.6659 2492.4558,-25.0817"/>
<polygon fill="#191970" stroke="#191970" points="2608.905,-72.6534 2619.4969,-72.9005 2611.371,-66.1021 2608.905,-72.6534"/>
</g>
<!-- Node128 -->
<g id="node32" class="node">
<title>Node128</title>
<g id="a_node32"><a xlink:href="breit__wigner__plus__polynomial_8cu.html" target="_top" xlink:title="breit_wigner_plus_polynomial.cu">
<polygon fill="none" stroke="#000000" points="2566.5,-6 2566.5,-25 2723.5,-25 2723.5,-6 2566.5,-6"/>
<text text-anchor="middle" x="2645" y="-13" font-family="Helvetica,sans-Serif" font-size="10.00" fill="#000000">breit_wigner_plus_polynomial.cu</text>
</a>
</g>
</g>
<!-- Node126&#45;&gt;Node128 -->
<g id="edge31" class="edge">
<title>Node126&#45;&gt;Node128</title>
<path fill="none" stroke="#191970" d="M2645,-62.6079C2645,-50.214 2645,-34.8263 2645,-25.0817"/>
<polygon fill="#191970" stroke="#191970" points="2641.5001,-62.9005 2645,-72.9005 2648.5001,-62.9006 2641.5001,-62.9005"/>
</g>
<!-- Node130 -->
<g id="node34" class="node">
<title>Node130</title>
<g id="a_node34"><a xlink:href="crystal__ball__plus__exponential_8cpp.html" target="_top" xlink:title="crystal_ball_plus_exponential.cpp">
<polygon fill="none" stroke="#000000" points="2741.5,-6 2741.5,-25 2904.5,-25 2904.5,-6 2741.5,-6"/>
<text text-anchor="middle" x="2823" y="-13" font-family="Helvetica,sans-Serif" font-size="10.00" fill="#000000">crystal_ball_plus_exponential.cpp</text>
</a>
</g>
</g>
<!-- Node129&#45;&gt;Node130 -->
<g id="edge33" class="edge">
<title>Node129&#45;&gt;Node130</title>
<path fill="none" stroke="#191970" d="M2823,-62.6079C2823,-50.214 2823,-34.8263 2823,-25.0817"/>
<polygon fill="#191970" stroke="#191970" points="2819.5001,-62.9005 2823,-72.9005 2826.5001,-62.9006 2819.5001,-62.9005"/>
</g>
<!-- Node131 -->
<g id="node35" class="node">
<title>Node131</title>
<g id="a_node35"><a xlink:href="crystal__ball__plus__exponential_8cu.html" target="_top" xlink:title="crystal_ball_plus_exponential.cu">
<polygon fill="none" stroke="#000000" points="2923,-6 2923,-25 3081,-25 3081,-6 2923,-6"/>
<text text-anchor="middle" x="3002" y="-13" font-family="Helvetica,sans-Serif" font-size="10.00" fill="#000000">crystal_ball_plus_exponential.cu</text>
</a>
</g>
</g>
<!-- Node129&#45;&gt;Node131 -->
<g id="edge34" class="edge">
<title>Node129&#45;&gt;Node131</title>
<path fill="none" stroke="#191970" d="M2858.4029,-69.2487C2893.1981,-56.2247 2945.4524,-36.6659 2976.4012,-25.0817"/>
<polygon fill="#191970" stroke="#191970" points="2856.7848,-66.1171 2848.6463,-72.9005 2859.2387,-72.6729 2856.7848,-66.1171"/>
</g>
<!-- Node133 -->
<g id="node37" class="node">
<title>Node133</title>
<g id="a_node37"><a xlink:href="dalitz__plot_8cpp.html" target="_top" xlink:title="dalitz_plot.cpp">
<polygon fill="none" stroke="#000000" points="3099,-6 3099,-25 3179,-25 3179,-6 3099,-6"/>
<text text-anchor="middle" x="3139" y="-13" font-family="Helvetica,sans-Serif" font-size="10.00" fill="#000000">dalitz_plot.cpp</text>
</a>
</g>
</g>
<!-- Node132&#45;&gt;Node133 -->
<g id="edge36" class="edge">
<title>Node132&#45;&gt;Node133</title>
<path fill="none" stroke="#191970" d="M3139,-62.6079C3139,-50.214 3139,-34.8263 3139,-25.0817"/>
<polygon fill="#191970" stroke="#191970" points="3135.5001,-62.9005 3139,-72.9005 3142.5001,-62.9006 3135.5001,-62.9005"/>
</g>
<!-- Node134 -->
<g id="node38" class="node">
<title>Node134</title>
<g id="a_node38"><a xlink:href="dalitz__plot_8cu.html" target="_top" xlink:title="dalitz_plot.cu">
<polygon fill="none" stroke="#000000" points="3197,-6 3197,-25 3271,-25 3271,-6 3197,-6"/>
<text text-anchor="middle" x="3234" y="-13" font-family="Helvetica,sans-Serif" font-size="10.00" fill="#000000">dalitz_plot.cu</text>
</a>
</g>
</g>
<!-- Node132&#45;&gt;Node134 -->
<g id="edge37" class="edge">
<title>Node132&#45;&gt;Node134</title>
<path fill="none" stroke="#191970" d="M3160.9632,-67.0102C3179.3154,-54.067 3204.9051,-36.0195 3220.4141,-25.0817"/>
<polygon fill="#191970" stroke="#191970" points="3158.766,-64.2768 3152.6112,-72.9005 3162.8005,-69.9973 3158.766,-64.2768"/>
</g>
<!-- Node136 -->
<g id="node40" class="node">
<title>Node136</title>
<g id="a_node40"><a xlink:href="double__gaussian__plus__exponential_8cpp.html" target="_top" xlink:title="double_gaussian_plus\l_exponential.cpp">
<polygon fill="none" stroke="#000000" points="3289.5,-.5 3289.5,-30.5 3402.5,-30.5 3402.5,-.5 3289.5,-.5"/>
<text text-anchor="start" x="3297.5" y="-18.5" font-family="Helvetica,sans-Serif" font-size="10.00" fill="#000000">double_gaussian_plus</text>
<text text-anchor="middle" x="3346" y="-7.5" font-family="Helvetica,sans-Serif" font-size="10.00" fill="#000000">_exponential.cpp</text>
</a>
</g>
</g>
<!-- Node135&#45;&gt;Node136 -->
<g id="edge39" class="edge">
<title>Node135&#45;&gt;Node136</title>
<path fill="none" stroke="#191970" d="M3314.791,-59.0626C3321.5476,-49.6315 3329.1444,-39.0276 3335.1512,-30.6432"/>
<polygon fill="#191970" stroke="#191970" points="3311.8706,-57.1292 3308.8919,-67.2967 3317.561,-61.2059 3311.8706,-57.1292"/>
</g>
<!-- Node137 -->
<g id="node41" class="node">
<title>Node137</title>
<g id="a_node41"><a xlink:href="double__gaussian__plus__exponential_8cu.html" target="_top" xlink:title="double_gaussian_plus\l_exponential.cu">
<polygon fill="none" stroke="#000000" points="3420.5,-.5 3420.5,-30.5 3533.5,-30.5 3533.5,-.5 3420.5,-.5"/>
<text text-anchor="start" x="3428.5" y="-18.5" font-family="Helvetica,sans-Serif" font-size="10.00" fill="#000000">double_gaussian_plus</text>
<text text-anchor="middle" x="3477" y="-7.5" font-family="Helvetica,sans-Serif" font-size="10.00" fill="#000000">_exponential.cu</text>
</a>
</g>
</g>
<!-- Node135&#45;&gt;Node137 -->
<g id="edge40" class="edge">
<title>Node135&#45;&gt;Node137</title>
<path fill="none" stroke="#191970" d="M3347.786,-63.865C3375.8054,-53.3773 3410.3387,-40.4515 3436.6537,-30.6017"/>
<polygon fill="#191970" stroke="#191970" points="3346.3096,-60.6804 3338.1711,-67.4639 3348.7635,-67.2362 3346.3096,-60.6804"/>
</g>
<!-- Node139 -->
<g id="node43" class="node">
<title>Node139</title>
<g id="a_node43"><a xlink:href="gaussian__plus__argus_8cpp.html" target="_top" xlink:title="gaussian_plus_argus.cpp">
<polygon fill="none" stroke="#000000" points="3551.5,-6 3551.5,-25 3678.5,-25 3678.5,-6 3551.5,-6"/>
<text text-anchor="middle" x="3615" y="-13" font-family="Helvetica,sans-Serif" font-size="10.00" fill="#000000">gaussian_plus_argus.cpp</text>
</a>
</g>
</g>
<!-- Node138&#45;&gt;Node139 -->
<g id="edge42" class="edge">
<title>Node138&#45;&gt;Node139</title>
<path fill="none" stroke="#191970" d="M3468.5417,-69.416C3503.9182,-56.3928 3557.3696,-36.7156 3588.9722,-25.0817"/>
<polygon fill="#191970" stroke="#191970" points="3467.2513,-66.1613 3459.0762,-72.9005 3469.6696,-72.7303 3467.2513,-66.1613"/>
</g>
<!-- Node140 -->
<g id="node44" class="node">
<title>Node140</title>
<g id="a_node44"><a xlink:href="gaussian__plus__argus_8cu.html" target="_top" xlink:title="gaussian_plus_argus.cu">
<polygon fill="none" stroke="#000000" points="3697,-6 3697,-25 3819,-25 3819,-6 3697,-6"/>
<text text-anchor="middle" x="3758" y="-13" font-family="Helvetica,sans-Serif" font-size="10.00" fill="#000000">gaussian_plus_argus.cu</text>
</a>
</g>
</g>
<!-- Node138&#45;&gt;Node140 -->
<g id="edge43" class="edge">
<title>Node138&#45;&gt;Node140</title>
<path fill="none" stroke="#191970" d="M3485.1809,-70.7908C3491.185,-69.4895 3497.2229,-68.2015 3503,-67 3585.0097,-49.944 3605.9903,-48.056 3688,-31 3697.0179,-29.1245 3706.6714,-27.0381 3715.8394,-25.0195"/>
<polygon fill="#191970" stroke="#191970" points="3484.1829,-67.4263 3475.1606,-72.9805 3485.6773,-74.2649 3484.1829,-67.4263"/>
</g>
<!-- Node142 -->
<g id="node46" class="node">
<title>Node142</title>
<g id="a_node46"><a xlink:href="ipatia__plus__argus_8cpp.html" target="_top" xlink:title="ipatia_plus_argus.cpp">
<polygon fill="none" stroke="#000000" points="3837.5,-6 3837.5,-25 3948.5,-25 3948.5,-6 3837.5,-6"/>
<text text-anchor="middle" x="3893" y="-13" font-family="Helvetica,sans-Serif" font-size="10.00" fill="#000000">ipatia_plus_argus.cpp</text>
</a>
</g>
</g>
<!-- Node141&#45;&gt;Node142 -->
<g id="edge45" class="edge">
<title>Node141&#45;&gt;Node142</title>
<path fill="none" stroke="#191970" d="M3611.3286,-70.5541C3616.6022,-69.3026 3621.9095,-68.0909 3627,-67 3715.7402,-47.9834 3739.1576,-49.5331 3828,-31 3836.6311,-29.1995 3845.8662,-27.102 3854.586,-25.0424"/>
<polygon fill="#191970" stroke="#191970" points="3610.1872,-67.2295 3601.2945,-72.9889 3611.8378,-74.0321 3610.1872,-67.2295"/>
</g>
<!-- Node143 -->
<g id="node47" class="node">
<title>Node143</title>
<g id="a_node47"><a xlink:href="ipatia__plus__argus_8cu.html" target="_top" xlink:title="ipatia_plus_argus.cu">
<polygon fill="none" stroke="#000000" points="3967,-6 3967,-25 4073,-25 4073,-6 3967,-6"/>
<text text-anchor="middle" x="4020" y="-13" font-family="Helvetica,sans-Serif" font-size="10.00" fill="#000000">ipatia_plus_argus.cu</text>
</a>
</g>
</g>
<!-- Node141&#45;&gt;Node143 -->
<g id="edge46" class="edge">
<title>Node141&#45;&gt;Node143</title>
<path fill="none" stroke="#191970" d="M3609.3658,-70.6313C3615.2687,-69.2809 3621.2623,-68.0243 3627,-67 3772.6756,-40.9943 3812.3244,-57.0057 3958,-31 3966.9564,-29.4011 3976.5364,-27.2362 3985.4214,-25.0319"/>
<polygon fill="#191970" stroke="#191970" points="3608.4924,-67.2414 3599.5786,-72.9681 3610.118,-74.05 3608.4924,-67.2414"/>
</g>
<!-- Node145 -->
<g id="node49" class="node">
<title>Node145</title>
<g id="a_node49"><a xlink:href="particle__mass_8cpp.html" target="_top" xlink:title="particle_mass.cpp">
<polygon fill="none" stroke="#000000" points="4091,-6 4091,-25 4187,-25 4187,-6 4091,-6"/>
<text text-anchor="middle" x="4139" y="-13" font-family="Helvetica,sans-Serif" font-size="10.00" fill="#000000">particle_mass.cpp</text>
</a>
</g>
</g>
<!-- Node144&#45;&gt;Node145 -->
<g id="edge48" class="edge">
<title>Node144&#45;&gt;Node145</title>
<path fill="none" stroke="#191970" d="M3721.2772,-70.3005C3726.207,-69.0592 3731.1983,-67.9194 3736,-67 3887.8494,-37.9249 3930.0187,-59.3775 4082,-31 4090.3672,-29.4377 4099.3005,-27.2591 4107.5533,-25.0281"/>
<polygon fill="#191970" stroke="#191970" points="3720.0862,-66.9957 3711.3248,-72.9529 3721.8888,-73.7596 3720.0862,-66.9957"/>
</g>
<!-- Node146 -->
<g id="node50" class="node">
<title>Node146</title>
<g id="a_node50"><a xlink:href="particle__mass_8cu.html" target="_top" xlink:title="particle_mass.cu">
<polygon fill="none" stroke="#000000" points="4205.5,-6 4205.5,-25 4296.5,-25 4296.5,-6 4205.5,-6"/>
<text text-anchor="middle" x="4251" y="-13" font-family="Helvetica,sans-Serif" font-size="10.00" fill="#000000">particle_mass.cu</text>
</a>
</g>
</g>
<!-- Node144&#45;&gt;Node146 -->
<g id="edge49" class="edge">
<title>Node144&#45;&gt;Node146</title>
<path fill="none" stroke="#191970" d="M3720.5,-70.3681C3725.6779,-69.0731 3730.9412,-67.9017 3736,-67 3937.8873,-31.0135 3994.1127,-66.9865 4196,-31 4204.3016,-29.5202 4213.1539,-27.3143 4221.276,-25.0276"/>
<polygon fill="#191970" stroke="#191970" points="3719.486,-67.0161 3710.724,-72.9724 3721.288,-73.7802 3719.486,-67.0161"/>
</g>
</g>
</svg>
