<?xml version="1.0" encoding="UTF-8" standalone="no"?>
<!DOCTYPE svg PUBLIC "-//W3C//DTD SVG 1.1//EN"
 "http://www.w3.org/Graphics/SVG/1.1/DTD/svg11.dtd">
<!-- Generated by graphviz version 2.40.1 (20161225.0304)
 -->
<!-- Title: MachineEpsilon.h Pages: 1 -->
<svg width="496pt" height="252pt"
 viewBox="0.00 0.00 495.50 252.00" xmlns="http://www.w3.org/2000/svg" xmlns:xlink="http://www.w3.org/1999/xlink">
<g id="graph0" class="graph" transform="scale(1 1) rotate(0) translate(4 248)">
<title>MachineEpsilon.h</title>
<!-- Node4 -->
<g id="node1" class="node">
<title>Node4</title>
<polygon fill="#bfbfbf" stroke="#000000" points="77.5,-224.5 77.5,-243.5 171.5,-243.5 171.5,-224.5 77.5,-224.5"/>
<text text-anchor="middle" x="124.5" y="-231.5" font-family="Helvetica,sans-Serif" font-size="10.00" fill="#000000">MachineEpsilon.h</text>
</g>
<!-- Node5 -->
<g id="node2" class="node">
<title>Node5</title>
<g id="a_node2"><a xlink:href="SafeCompare_8h.html" target="_top" xlink:title="SafeCompare.h">
<polygon fill="none" stroke="#000000" points="134.5,-168.5 134.5,-187.5 218.5,-187.5 218.5,-168.5 134.5,-168.5"/>
<text text-anchor="middle" x="176.5" y="-175.5" font-family="Helvetica,sans-Serif" font-size="10.00" fill="#000000">SafeCompare.h</text>
</a>
</g>
</g>
<!-- Node4&#45;&gt;Node5 -->
<g id="edge1" class="edge">
<title>Node4&#45;&gt;Node5</title>
<path fill="none" stroke="#191970" d="M140.4822,-216.7884C149.3778,-207.2085 160.1204,-195.6396 167.5461,-187.6427"/>
<polygon fill="#191970" stroke="#191970" points="137.7975,-214.536 133.5577,-224.2455 142.927,-219.2992 137.7975,-214.536"/>
</g>
<!-- Node10 -->
<g id="node7" class="node">
<title>Node10</title>
<g id="a_node7"><a xlink:href="GeneralizedGamma_8h.html" target="_top" xlink:title="GeneralizedGamma.h">
<polygon fill="none" stroke="#000000" points="0,-112.5 0,-131.5 111,-131.5 111,-112.5 0,-112.5"/>
<text text-anchor="middle" x="55.5" y="-119.5" font-family="Helvetica,sans-Serif" font-size="10.00" fill="#000000">GeneralizedGamma.h</text>
</a>
</g>
</g>
<!-- Node4&#45;&gt;Node10 -->
<g id="edge13" class="edge">
<title>Node4&#45;&gt;Node10</title>
<path fill="none" stroke="#191970" d="M113.3446,-215.8927C98.5202,-191.8299 72.8642,-150.1853 61.368,-131.5249"/>
<polygon fill="#191970" stroke="#191970" points="110.3919,-217.7728 118.6171,-224.4509 116.3517,-214.1011 110.3919,-217.7728"/>
</g>
<!-- Node6 -->
<g id="node3" class="node">
<title>Node6</title>
<g id="a_node3"><a xlink:href="DeltaDMassBackground_8h.html" target="_top" xlink:title="DeltaDMassBackground.h">
<polygon fill="none" stroke="#000000" points="129.5,-112.5 129.5,-131.5 259.5,-131.5 259.5,-112.5 129.5,-112.5"/>
<text text-anchor="middle" x="194.5" y="-119.5" font-family="Helvetica,sans-Serif" font-size="10.00" fill="#000000">DeltaDMassBackground.h</text>
</a>
</g>
</g>
<!-- Node5&#45;&gt;Node6 -->
<g id="edge2" class="edge">
<title>Node5&#45;&gt;Node6</title>
<path fill="none" stroke="#191970" d="M182.7827,-158.4538C185.6992,-149.3803 189.0358,-138.9998 191.4006,-131.6427"/>
<polygon fill="#191970" stroke="#191970" points="179.3634,-157.6542 179.6354,-168.2455 186.0276,-159.7963 179.3634,-157.6542"/>
</g>
<!-- Node5&#45;&gt;Node10 -->
<g id="edge6" class="edge">
<title>Node5&#45;&gt;Node10</title>
<path fill="none" stroke="#191970" d="M146.4896,-164.1109C124.5475,-153.9559 95.3612,-140.4482 76.0292,-131.5011"/>
<polygon fill="#191970" stroke="#191970" points="145.1541,-167.3494 155.6994,-168.3733 148.0942,-160.9968 145.1541,-167.3494"/>
</g>
<!-- Node11 -->
<g id="node8" class="node">
<title>Node11</title>
<g id="a_node8"><a xlink:href="Ipatia_8h.html" target="_top" xlink:title="Ipatia.h">
<polygon fill="none" stroke="#000000" points="278,-112.5 278,-131.5 327,-131.5 327,-112.5 278,-112.5"/>
<text text-anchor="middle" x="302.5" y="-119.5" font-family="Helvetica,sans-Serif" font-size="10.00" fill="#000000">Ipatia.h</text>
</a>
</g>
</g>
<!-- Node5&#45;&gt;Node11 -->
<g id="edge8" class="edge">
<title>Node5&#45;&gt;Node11</title>
<path fill="none" stroke="#191970" d="M207.4436,-164.2473C230.3265,-154.0771 260.9014,-140.4883 281.1225,-131.5011"/>
<polygon fill="#191970" stroke="#191970" points="205.8768,-161.1135 198.1602,-168.3733 208.7198,-167.5102 205.8768,-161.1135"/>
</g>
<!-- Node7 -->
<g id="node4" class="node">
<title>Node7</title>
<g id="a_node4"><a xlink:href="particle__mass_8inl.html" target="_top" xlink:title="particle_mass.inl">
<polygon fill="none" stroke="#000000" points="143.5,-56.5 143.5,-75.5 233.5,-75.5 233.5,-56.5 143.5,-56.5"/>
<text text-anchor="middle" x="188.5" y="-63.5" font-family="Helvetica,sans-Serif" font-size="10.00" fill="#000000">particle_mass.inl</text>
</a>
</g>
</g>
<!-- Node6&#45;&gt;Node7 -->
<g id="edge3" class="edge">
<title>Node6&#45;&gt;Node7</title>
<path fill="none" stroke="#191970" d="M192.374,-102.1575C191.4095,-93.155 190.3128,-82.9199 189.5331,-75.6427"/>
<polygon fill="#191970" stroke="#191970" points="188.9094,-102.6753 193.4549,-112.2455 195.8695,-101.9296 188.9094,-102.6753"/>
</g>
<!-- Node8 -->
<g id="node5" class="node">
<title>Node8</title>
<g id="a_node5"><a xlink:href="particle__mass_8cpp.html" target="_top" xlink:title="particle_mass.cpp">
<polygon fill="none" stroke="#000000" points="28.5,-.5 28.5,-19.5 124.5,-19.5 124.5,-.5 28.5,-.5"/>
<text text-anchor="middle" x="76.5" y="-7.5" font-family="Helvetica,sans-Serif" font-size="10.00" fill="#000000">particle_mass.cpp</text>
</a>
</g>
</g>
<!-- Node7&#45;&gt;Node8 -->
<g id="edge4" class="edge">
<title>Node7&#45;&gt;Node8</title>
<path fill="none" stroke="#191970" d="M160.1737,-51.8368C139.9279,-41.7139 113.2358,-28.3679 95.5022,-19.5011"/>
<polygon fill="#191970" stroke="#191970" points="158.737,-55.0316 169.2465,-56.3733 161.8675,-48.7706 158.737,-55.0316"/>
</g>
<!-- Node9 -->
<g id="node6" class="node">
<title>Node9</title>
<g id="a_node6"><a xlink:href="particle__mass_8cu.html" target="_top" xlink:title="particle_mass.cu">
<polygon fill="none" stroke="#000000" points="143,-.5 143,-19.5 234,-19.5 234,-.5 143,-.5"/>
<text text-anchor="middle" x="188.5" y="-7.5" font-family="Helvetica,sans-Serif" font-size="10.00" fill="#000000">particle_mass.cu</text>
</a>
</g>
</g>
<!-- Node7&#45;&gt;Node9 -->
<g id="edge5" class="edge">
<title>Node7&#45;&gt;Node9</title>
<path fill="none" stroke="#191970" d="M188.5,-46.1575C188.5,-37.155 188.5,-26.9199 188.5,-19.6427"/>
<polygon fill="#191970" stroke="#191970" points="185.0001,-46.2455 188.5,-56.2455 192.0001,-46.2456 185.0001,-46.2455"/>
</g>
<!-- Node10&#45;&gt;Node7 -->
<g id="edge7" class="edge">
<title>Node10&#45;&gt;Node7</title>
<path fill="none" stroke="#191970" d="M87.8397,-108.3833C112.0285,-98.1985 144.495,-84.5284 165.9348,-75.5011"/>
<polygon fill="#191970" stroke="#191970" points="86.2217,-105.2669 78.3635,-112.3733 88.9381,-111.7184 86.2217,-105.2669"/>
</g>
<!-- Node11&#45;&gt;Node7 -->
<g id="edge12" class="edge">
<title>Node11&#45;&gt;Node7</title>
<path fill="none" stroke="#191970" d="M273.6679,-107.8368C253.0605,-97.7139 225.8918,-84.3679 207.8416,-75.5011"/>
<polygon fill="#191970" stroke="#191970" points="272.384,-111.1056 282.9027,-112.3733 275.4703,-104.8227 272.384,-111.1056"/>
</g>
<!-- Node12 -->
<g id="node9" class="node">
<title>Node12</title>
<g id="a_node9"><a xlink:href="Ipatia__plus__argus_8inl.html" target="_top" xlink:title="Ipatia_plus_argus.inl">
<polygon fill="none" stroke="#000000" points="254.5,-56.5 254.5,-75.5 360.5,-75.5 360.5,-56.5 254.5,-56.5"/>
<text text-anchor="middle" x="307.5" y="-63.5" font-family="Helvetica,sans-Serif" font-size="10.00" fill="#000000">Ipatia_plus_argus.inl</text>
</a>
</g>
</g>
<!-- Node11&#45;&gt;Node12 -->
<g id="edge9" class="edge">
<title>Node11&#45;&gt;Node12</title>
<path fill="none" stroke="#191970" d="M304.2717,-102.1575C305.0754,-93.155 305.9893,-82.9199 306.639,-75.6427"/>
<polygon fill="#191970" stroke="#191970" points="300.7742,-101.9739 303.3709,-112.2455 307.7465,-102.5965 300.7742,-101.9739"/>
</g>
<!-- Node13 -->
<g id="node10" class="node">
<title>Node13</title>
<g id="a_node10"><a xlink:href="ipatia__plus__argus_8cpp.html" target="_top" xlink:title="ipatia_plus_argus.cpp">
<polygon fill="none" stroke="#000000" points="252,-.5 252,-19.5 363,-19.5 363,-.5 252,-.5"/>
<text text-anchor="middle" x="307.5" y="-7.5" font-family="Helvetica,sans-Serif" font-size="10.00" fill="#000000">ipatia_plus_argus.cpp</text>
</a>
</g>
</g>
<!-- Node12&#45;&gt;Node13 -->
<g id="edge10" class="edge">
<title>Node12&#45;&gt;Node13</title>
<path fill="none" stroke="#191970" d="M307.5,-46.1575C307.5,-37.155 307.5,-26.9199 307.5,-19.6427"/>
<polygon fill="#191970" stroke="#191970" points="304.0001,-46.2455 307.5,-56.2455 311.0001,-46.2456 304.0001,-46.2455"/>
</g>
<!-- Node14 -->
<g id="node11" class="node">
<title>Node14</title>
<g id="a_node11"><a xlink:href="ipatia__plus__argus_8cu.html" target="_top" xlink:title="ipatia_plus_argus.cu">
<polygon fill="none" stroke="#000000" points="381.5,-.5 381.5,-19.5 487.5,-19.5 487.5,-.5 381.5,-.5"/>
<text text-anchor="middle" x="434.5" y="-7.5" font-family="Helvetica,sans-Serif" font-size="10.00" fill="#000000">ipatia_plus_argus.cu</text>
</a>
</g>
</g>
<!-- Node12&#45;&gt;Node14 -->
<g id="edge11" class="edge">
<title>Node12&#45;&gt;Node14</title>
<path fill="none" stroke="#191970" d="M338.6892,-52.2473C361.7537,-42.0771 392.5712,-28.4883 412.9528,-19.5011"/>
<polygon fill="#191970" stroke="#191970" points="337.0699,-49.1361 329.3321,-56.3733 339.8942,-55.5411 337.0699,-49.1361"/>
</g>
</g>
</svg>
