<?xml version="1.0" encoding="UTF-8" standalone="no"?>
<!DOCTYPE svg PUBLIC "-//W3C//DTD SVG 1.1//EN"
 "http://www.w3.org/Graphics/SVG/1.1/DTD/svg11.dtd">
<!-- Generated by graphviz version 2.38.0 (20140413.2041)
 -->
<!-- Title: main Pages: 1 -->
<svg width="523pt" height="693pt"
 viewBox="0.00 0.00 523.00 693.00" xmlns="http://www.w3.org/2000/svg" xmlns:xlink="http://www.w3.org/1999/xlink">
<g id="graph0" class="graph" transform="scale(1 1) rotate(0) translate(4 689)">
<title>main</title>
<!-- Node0 -->
<g id="node1" class="node"><title>Node0</title>
<polygon fill="#bfbfbf" stroke="black" points="0,-323.5 0,-342.5 38,-342.5 38,-323.5 0,-323.5"/>
<text text-anchor="middle" x="19" y="-330.5" font-family="Helvetica,sans-Serif" font-size="10.00">main</text>
</g>
<!-- Node1 -->
<g id="node2" class="node"><title>Node1</title>
<g id="a_node2"><a xlink:href="namespacehydra.html#a4f175cc8f2c59f6cf2c416354fdb951f" target="_top" xlink:title="Apply a filter to the range [first, last] and return a pair of iterators for the filtered events...">
<polygon fill="none" stroke="black" points="98.5,-608.5 98.5,-627.5 192.5,-627.5 192.5,-608.5 98.5,-608.5"/>
<text text-anchor="middle" x="145.5" y="-615.5" font-family="Helvetica,sans-Serif" font-size="10.00">hydra::apply_filter</text>
</a>
</g>
</g>
<!-- Node0&#45;&gt;Node1 -->
<g id="edge1" class="edge"><title>Node0&#45;&gt;Node1</title>
<path fill="none" stroke="midnightblue" d="M20.7351,-342.677C24.1504,-385.221 39.7739,-555.239 74,-594 78.2121,-598.77 83.4105,-602.593 89.0603,-605.657"/>
<polygon fill="midnightblue" stroke="midnightblue" points="87.6854,-608.877 98.2332,-609.874 90.6091,-602.517 87.6854,-608.877"/>
</g>
<!-- Node4 -->
<g id="node5" class="node"><title>Node4</title>
<g id="a_node5"><a xlink:href="namespacehydra.html#ae7f8d7b0cfc77696dd1ba9aaf31d23a7" target="_top" xlink:title="hydra::end">
<polygon fill="none" stroke="black" points="442.5,-589.5 442.5,-608.5 504.5,-608.5 504.5,-589.5 442.5,-589.5"/>
<text text-anchor="middle" x="473.5" y="-596.5" font-family="Helvetica,sans-Serif" font-size="10.00">hydra::end</text>
</a>
</g>
</g>
<!-- Node0&#45;&gt;Node4 -->
<g id="edge9" class="edge"><title>Node0&#45;&gt;Node4</title>
<path fill="none" stroke="midnightblue" d="M20.8271,-342.694C24.4182,-382.336 40.031,-531.407 74,-561 100.643,-584.211 336.459,-594.525 432.283,-597.785"/>
<polygon fill="midnightblue" stroke="midnightblue" points="432.341,-601.289 442.451,-598.123 432.573,-594.293 432.341,-601.289"/>
</g>
<!-- Node5 -->
<g id="node6" class="node"><title>Node5</title>
<g id="a_node6"><a xlink:href="namespacehydra.html#a28aa8ffeea73bf98ccab0fb7cd1c8116" target="_top" xlink:title="hydra::copy">
<polygon fill="none" stroke="black" points="111.5,-532.5 111.5,-551.5 179.5,-551.5 179.5,-532.5 111.5,-532.5"/>
<text text-anchor="middle" x="145.5" y="-539.5" font-family="Helvetica,sans-Serif" font-size="10.00">hydra::copy</text>
</a>
</g>
</g>
<!-- Node0&#45;&gt;Node5 -->
<g id="edge5" class="edge"><title>Node0&#45;&gt;Node5</title>
<path fill="none" stroke="midnightblue" d="M19.6648,-342.503C19.1224,-373.319 21.7551,-471.464 74,-523 81.3775,-530.277 91.2325,-534.845 101.23,-537.69"/>
<polygon fill="midnightblue" stroke="midnightblue" points="100.657,-541.15 111.189,-539.999 102.238,-534.331 100.657,-541.15"/>
</g>
<!-- Node7 -->
<g id="node8" class="node"><title>Node7</title>
<g id="a_node8"><a xlink:href="group__fit.html#afcb827c519d5a9395192358fba358728" target="_top" xlink:title="hydra::Parameter::Create">
<polygon fill="none" stroke="black" points="82,-494.5 82,-513.5 209,-513.5 209,-494.5 82,-494.5"/>
<text text-anchor="middle" x="145.5" y="-501.5" font-family="Helvetica,sans-Serif" font-size="10.00">hydra::Parameter::Create</text>
</a>
</g>
</g>
<!-- Node0&#45;&gt;Node7 -->
<g id="edge7" class="edge"><title>Node0&#45;&gt;Node7</title>
<path fill="none" stroke="midnightblue" d="M20.473,-342.856C22.3145,-369.825 31.2344,-445.451 74,-485 75.7014,-486.573 77.5193,-488.019 79.4284,-489.347"/>
<polygon fill="midnightblue" stroke="midnightblue" points="77.8903,-492.5 88.3045,-494.448 81.3782,-486.431 77.8903,-492.5"/>
</g>
<!-- Node9 -->
<g id="node10" class="node"><title>Node9</title>
<g id="a_node10"><a xlink:href="group__fit.html#a9faea07ef7ea36231838f227f8c8a1c7" target="_top" xlink:title="hydra::Parameter::Error">
<polygon fill="none" stroke="black" points="86,-456.5 86,-475.5 205,-475.5 205,-456.5 86,-456.5"/>
<text text-anchor="middle" x="145.5" y="-463.5" font-family="Helvetica,sans-Serif" font-size="10.00">hydra::Parameter::Error</text>
</a>
</g>
</g>
<!-- Node0&#45;&gt;Node9 -->
<g id="edge10" class="edge"><title>Node0&#45;&gt;Node9</title>
<path fill="none" stroke="midnightblue" d="M21.7282,-342.618C26.1936,-364.598 40.2149,-418.783 74,-447 76.0431,-448.706 78.2255,-450.261 80.5105,-451.676"/>
<polygon fill="midnightblue" stroke="midnightblue" points="79.2674,-454.975 89.755,-456.478 82.4939,-448.763 79.2674,-454.975"/>
</g>
<!-- Node10 -->
<g id="node11" class="node"><title>Node10</title>
<g id="a_node11"><a xlink:href="namespacehydra.html#a77f0de94ba6edf1f98d40ea2afd91a94" target="_top" xlink:title="hydra::exp">
<polygon fill="none" stroke="black" points="114.5,-418.5 114.5,-437.5 176.5,-437.5 176.5,-418.5 114.5,-418.5"/>
<text text-anchor="middle" x="145.5" y="-425.5" font-family="Helvetica,sans-Serif" font-size="10.00">hydra::exp</text>
</a>
</g>
</g>
<!-- Node0&#45;&gt;Node10 -->
<g id="edge11" class="edge"><title>Node0&#45;&gt;Node10</title>
<path fill="none" stroke="midnightblue" d="M24.1199,-342.558C31.6101,-358.776 49.0262,-391.614 74,-409 82.9877,-415.257 93.938,-419.455 104.503,-422.27"/>
<polygon fill="midnightblue" stroke="midnightblue" points="103.905,-425.725 114.437,-424.569 105.483,-418.905 103.905,-425.725"/>
</g>
<!-- Node11 -->
<g id="node12" class="node"><title>Node11</title>
<g id="a_node12"><a xlink:href="group__random.html#a5ee13c32177c69b4bd9b9b7fa7b3209e" target="_top" xlink:title="Fill the range [begin, end] with numbers distributed according a Gaussian distribution. ">
<polygon fill="none" stroke="black" points="265.5,-646.5 265.5,-665.5 383.5,-665.5 383.5,-646.5 265.5,-646.5"/>
<text text-anchor="middle" x="324.5" y="-653.5" font-family="Helvetica,sans-Serif" font-size="10.00">hydra::Random::Gauss</text>
</a>
</g>
</g>
<!-- Node0&#45;&gt;Node11 -->
<g id="edge12" class="edge"><title>Node0&#45;&gt;Node11</title>
<path fill="none" stroke="midnightblue" d="M20.1927,-342.557C21.354,-389.638 28.9865,-596.268 74,-637 129.038,-686.803 221.754,-678.589 277.334,-667.617"/>
<polygon fill="midnightblue" stroke="midnightblue" points="278.185,-671.015 287.262,-665.55 276.758,-664.162 278.185,-671.015"/>
</g>
<!-- Node13 -->
<g id="node14" class="node"><title>Node13</title>
<g id="a_node14"><a xlink:href="group__fit.html#a16906288a84a42bcf4de64ee172915f4" target="_top" xlink:title="hydra::Parameter::GetValue">
<polygon fill="none" stroke="black" points="76.5,-380.5 76.5,-399.5 214.5,-399.5 214.5,-380.5 76.5,-380.5"/>
<text text-anchor="middle" x="145.5" y="-387.5" font-family="Helvetica,sans-Serif" font-size="10.00">hydra::Parameter::GetValue</text>
</a>
</g>
</g>
<!-- Node0&#45;&gt;Node13 -->
<g id="edge16" class="edge"><title>Node0&#45;&gt;Node13</title>
<path fill="none" stroke="midnightblue" d="M31.2733,-342.723C41.72,-351.279 58.0143,-363.509 74,-371 79.0218,-373.353 84.3862,-375.457 89.8295,-377.328"/>
<polygon fill="midnightblue" stroke="midnightblue" points="89.0652,-380.758 99.6555,-380.448 91.1835,-374.086 89.0652,-380.758"/>
</g>
<!-- Node14 -->
<g id="node15" class="node"><title>Node14</title>
<g id="a_node15"><a xlink:href="group__fit.html#a19bbd8c8155327bbd2d2a689c6eaad9f" target="_top" xlink:title="hydra::Parameter::Limits">
<polygon fill="none" stroke="black" points="83.5,-342.5 83.5,-361.5 207.5,-361.5 207.5,-342.5 83.5,-342.5"/>
<text text-anchor="middle" x="145.5" y="-349.5" font-family="Helvetica,sans-Serif" font-size="10.00">hydra::Parameter::Limits</text>
</a>
</g>
</g>
<!-- Node0&#45;&gt;Node14 -->
<g id="edge17" class="edge"><title>Node0&#45;&gt;Node14</title>
<path fill="none" stroke="midnightblue" d="M38.1034,-335.763C47.7232,-337.231 60.2409,-339.141 73.2953,-341.133"/>
<polygon fill="midnightblue" stroke="midnightblue" points="72.9299,-344.618 83.3435,-342.667 73.986,-337.698 72.9299,-344.618"/>
</g>
<!-- Node15 -->
<g id="node16" class="node"><title>Node15</title>
<g id="a_node16"><a xlink:href="namespacehydra.html#a2940519393c31b1d5566e1894e01bad7" target="_top" xlink:title="hydra::make_loglikehood_fcn">
<polygon fill="none" stroke="black" points="74,-304.5 74,-323.5 217,-323.5 217,-304.5 74,-304.5"/>
<text text-anchor="middle" x="145.5" y="-311.5" font-family="Helvetica,sans-Serif" font-size="10.00">hydra::make_loglikehood_fcn</text>
</a>
</g>
</g>
<!-- Node0&#45;&gt;Node15 -->
<g id="edge18" class="edge"><title>Node0&#45;&gt;Node15</title>
<path fill="none" stroke="midnightblue" d="M38.1034,-330.237C47.416,-328.816 59.4445,-326.98 72.0465,-325.057"/>
<polygon fill="midnightblue" stroke="midnightblue" points="72.8775,-328.471 82.235,-323.502 71.8214,-321.551 72.8775,-328.471"/>
</g>
<!-- Node16 -->
<g id="node17" class="node"><title>Node16</title>
<g id="a_node17"><a xlink:href="namespacehydra.html#a2d468a0d98a74f41479f8ccb95f5533e" target="_top" xlink:title="Build a hydra::Pdf given a shape described by a functor and a integrator (algorithm or functor)...">
<polygon fill="none" stroke="black" points="101,-266.5 101,-285.5 190,-285.5 190,-266.5 101,-266.5"/>
<text text-anchor="middle" x="145.5" y="-273.5" font-family="Helvetica,sans-Serif" font-size="10.00">hydra::make_pdf</text>
</a>
</g>
</g>
<!-- Node0&#45;&gt;Node16 -->
<g id="edge19" class="edge"><title>Node0&#45;&gt;Node16</title>
<path fill="none" stroke="midnightblue" d="M31.2733,-323.277C41.72,-314.721 58.0143,-302.491 74,-295 79.368,-292.484 85.1274,-290.254 90.9561,-288.288"/>
<polygon fill="midnightblue" stroke="midnightblue" points="92.2694,-291.545 100.774,-285.227 90.1854,-284.862 92.2694,-291.545"/>
</g>
<!-- Node17 -->
<g id="node18" class="node"><title>Node17</title>
<g id="a_node18"><a xlink:href="namespacehydra.html#a7cd7ac5f41262275e8887b4edcb9357c" target="_top" xlink:title="This version of make_tuple creates a new tuple object from a list of objects. ">
<polygon fill="none" stroke="black" points="97,-228.5 97,-247.5 194,-247.5 194,-228.5 97,-228.5"/>
<text text-anchor="middle" x="145.5" y="-235.5" font-family="Helvetica,sans-Serif" font-size="10.00">hydra::make_tuple</text>
</a>
</g>
</g>
<!-- Node0&#45;&gt;Node17 -->
<g id="edge20" class="edge"><title>Node0&#45;&gt;Node17</title>
<path fill="none" stroke="midnightblue" d="M24.1199,-323.442C31.6101,-307.224 49.0262,-274.386 74,-257 78.1842,-254.087 82.7937,-251.621 87.5917,-249.532"/>
<polygon fill="midnightblue" stroke="midnightblue" points="88.8825,-252.786 96.9885,-245.963 86.3973,-246.242 88.8825,-252.786"/>
</g>
<!-- Node18 -->
<g id="node19" class="node"><title>Node18</title>
<g id="a_node19"><a xlink:href="group__fit.html#a47861993e8a8e57b88324d7d060e31b5" target="_top" xlink:title="hydra::Parameter::Name">
<polygon fill="none" stroke="black" points="83.5,-190.5 83.5,-209.5 207.5,-209.5 207.5,-190.5 83.5,-190.5"/>
<text text-anchor="middle" x="145.5" y="-197.5" font-family="Helvetica,sans-Serif" font-size="10.00">hydra::Parameter::Name</text>
</a>
</g>
</g>
<!-- Node0&#45;&gt;Node18 -->
<g id="edge21" class="edge"><title>Node0&#45;&gt;Node18</title>
<path fill="none" stroke="midnightblue" d="M21.7282,-323.382C26.1936,-301.402 40.2149,-247.217 74,-219 76.0431,-217.294 78.2255,-215.739 80.5105,-214.324"/>
<polygon fill="midnightblue" stroke="midnightblue" points="82.4939,-217.237 89.755,-209.522 79.2674,-211.025 82.4939,-217.237"/>
</g>
<!-- Node19 -->
<g id="node20" class="node"><title>Node19</title>
<g id="a_node20"><a xlink:href="classhydra_1_1Print.html#a03a2522e2192b2509284f25b4b899c7c" target="_top" xlink:title="hydra::Print::SetLevel">
<polygon fill="none" stroke="black" points="90,-152.5 90,-171.5 201,-171.5 201,-152.5 90,-152.5"/>
<text text-anchor="middle" x="145.5" y="-159.5" font-family="Helvetica,sans-Serif" font-size="10.00">hydra::Print::SetLevel</text>
</a>
</g>
</g>
<!-- Node0&#45;&gt;Node19 -->
<g id="edge22" class="edge"><title>Node0&#45;&gt;Node19</title>
<path fill="none" stroke="midnightblue" d="M20.473,-323.144C22.3145,-296.175 31.2344,-220.549 74,-181 75.9951,-179.155 78.1504,-177.486 80.4252,-175.976"/>
<polygon fill="midnightblue" stroke="midnightblue" points="82.6069,-178.772 89.7046,-170.906 79.2508,-172.629 82.6069,-178.772"/>
</g>
<!-- Node20 -->
<g id="node21" class="node"><title>Node20</title>
<g id="a_node21"><a xlink:href="group__random.html#ade43b0c4c234c35cd10b5b984a6a555e" target="_top" xlink:title="hydra::Random::SetSeed">
<polygon fill="none" stroke="black" points="82,-114.5 82,-133.5 209,-133.5 209,-114.5 82,-114.5"/>
<text text-anchor="middle" x="145.5" y="-121.5" font-family="Helvetica,sans-Serif" font-size="10.00">hydra::Random::SetSeed</text>
</a>
</g>
</g>
<!-- Node0&#45;&gt;Node20 -->
<g id="edge23" class="edge"><title>Node0&#45;&gt;Node20</title>
<path fill="none" stroke="midnightblue" d="M19.6648,-323.497C19.1224,-292.681 21.7551,-194.536 74,-143 75.4552,-141.565 77.0068,-140.235 78.6369,-139.002"/>
<polygon fill="midnightblue" stroke="midnightblue" points="80.6851,-141.851 87.3582,-133.622 77.0097,-135.894 80.6851,-141.851"/>
</g>
<!-- Node21 -->
<g id="node22" class="node"><title>Node21</title>
<g id="a_node22"><a xlink:href="namespacehydra.html#ac9c54fb833c00a61ad29f0203620ec27" target="_top" xlink:title="hydra::sqrt">
<polygon fill="none" stroke="black" points="114,-76.5 114,-95.5 177,-95.5 177,-76.5 114,-76.5"/>
<text text-anchor="middle" x="145.5" y="-83.5" font-family="Helvetica,sans-Serif" font-size="10.00">hydra::sqrt</text>
</a>
</g>
</g>
<!-- Node0&#45;&gt;Node21 -->
<g id="edge24" class="edge"><title>Node0&#45;&gt;Node21</title>
<path fill="none" stroke="midnightblue" d="M20.969,-323.456C25.1205,-284.405 42.6365,-137.341 74,-105 81.9052,-96.8484 92.9101,-92.0752 103.878,-89.3141"/>
<polygon fill="midnightblue" stroke="midnightblue" points="104.738,-92.7112 113.849,-87.3049 103.355,-85.8492 104.738,-92.7112"/>
</g>
<!-- Node22 -->
<g id="node23" class="node"><title>Node22</title>
<g id="a_node23"><a xlink:href="group__fit.html#a706c308f57ea396e2cfe6c22f1b6b442" target="_top" xlink:title="hydra::Parameter::Value">
<polygon fill="none" stroke="black" points="84.5,-38.5 84.5,-57.5 206.5,-57.5 206.5,-38.5 84.5,-38.5"/>
<text text-anchor="middle" x="145.5" y="-45.5" font-family="Helvetica,sans-Serif" font-size="10.00">hydra::Parameter::Value</text>
</a>
</g>
</g>
<!-- Node0&#45;&gt;Node22 -->
<g id="edge25" class="edge"><title>Node0&#45;&gt;Node22</title>
<path fill="none" stroke="midnightblue" d="M20.6269,-323.374C23.6248,-280.275 37.874,-105.475 74,-67 75.2229,-65.6976 76.5248,-64.481 77.8934,-63.3447"/>
<polygon fill="midnightblue" stroke="midnightblue" points="80.0045,-66.1435 86.3735,-57.6767 76.1147,-60.3237 80.0045,-66.1435"/>
</g>
<!-- Node23 -->
<g id="node24" class="node"><title>Node23</title>
<g id="a_node24"><a xlink:href="group__functor.html#ga06bab1ad739e661a92fbf918012c9736" target="_top" xlink:title="Function template for wrap a C++11 lambda into a hydra lambda with a certain number of parameters...">
<polygon fill="none" stroke="black" points="93.5,-0.5 93.5,-19.5 197.5,-19.5 197.5,-0.5 93.5,-0.5"/>
<text text-anchor="middle" x="145.5" y="-7.5" font-family="Helvetica,sans-Serif" font-size="10.00">hydra::wrap_lambda</text>
</a>
</g>
</g>
<!-- Node0&#45;&gt;Node23 -->
<g id="edge26" class="edge"><title>Node0&#45;&gt;Node23</title>
<path fill="none" stroke="midnightblue" d="M20.3652,-323.294C22.3245,-276.393 33.082,-73.6625 74,-29 76.9382,-25.7929 80.3553,-23.1042 84.0702,-20.8525"/>
<polygon fill="midnightblue" stroke="midnightblue" points="85.7725,-23.9155 93.1932,-16.3535 82.6764,-17.6374 85.7725,-23.9155"/>
</g>
<!-- Node2 -->
<g id="node3" class="node"><title>Node2</title>
<g id="a_node3"><a xlink:href="namespacehydra.html#a8d210727c4d8b6989542eff5fd3f6319" target="_top" xlink:title="hydra::make_range">
<polygon fill="none" stroke="black" points="274.5,-608.5 274.5,-627.5 374.5,-627.5 374.5,-608.5 274.5,-608.5"/>
<text text-anchor="middle" x="324.5" y="-615.5" font-family="Helvetica,sans-Serif" font-size="10.00">hydra::make_range</text>
</a>
</g>
</g>
<!-- Node1&#45;&gt;Node2 -->
<g id="edge2" class="edge"><title>Node1&#45;&gt;Node2</title>
<path fill="none" stroke="midnightblue" d="M192.543,-618C214.403,-618 240.793,-618 264.138,-618"/>
<polygon fill="midnightblue" stroke="midnightblue" points="264.277,-621.5 274.277,-618 264.277,-614.5 264.277,-621.5"/>
</g>
<!-- Node3 -->
<g id="node4" class="node"><title>Node3</title>
<g id="a_node4"><a xlink:href="namespacehydra.html#a6874d900b0238ec21d1490998de81f99" target="_top" xlink:title="hydra::begin">
<polygon fill="none" stroke="black" points="438.5,-627.5 438.5,-646.5 508.5,-646.5 508.5,-627.5 438.5,-627.5"/>
<text text-anchor="middle" x="473.5" y="-634.5" font-family="Helvetica,sans-Serif" font-size="10.00">hydra::begin</text>
</a>
</g>
</g>
<!-- Node2&#45;&gt;Node3 -->
<g id="edge3" class="edge"><title>Node2&#45;&gt;Node3</title>
<path fill="none" stroke="midnightblue" d="M374.858,-624.38C392.126,-626.612 411.394,-629.102 428.221,-631.277"/>
<polygon fill="midnightblue" stroke="midnightblue" points="427.977,-634.774 438.344,-632.585 428.875,-627.832 427.977,-634.774"/>
</g>
<!-- Node2&#45;&gt;Node4 -->
<g id="edge4" class="edge"><title>Node2&#45;&gt;Node4</title>
<path fill="none" stroke="midnightblue" d="M374.858,-611.62C393.544,-609.205 414.572,-606.487 432.315,-604.194"/>
<polygon fill="midnightblue" stroke="midnightblue" points="432.87,-607.651 442.339,-602.898 431.973,-600.709 432.87,-607.651"/>
</g>
<!-- Node6 -->
<g id="node7" class="node"><title>Node6</title>
<g id="a_node7"><a xlink:href="namespacehydra.html#a98b97d9c4a1b0350ef7c2d646c8c504a" target="_top" xlink:title="hydra::copy">
<polygon fill="none" stroke="black" points="290.5,-532.5 290.5,-551.5 358.5,-551.5 358.5,-532.5 290.5,-532.5"/>
<text text-anchor="middle" x="324.5" y="-539.5" font-family="Helvetica,sans-Serif" font-size="10.00">hydra::copy</text>
</a>
</g>
</g>
<!-- Node5&#45;&gt;Node6 -->
<g id="edge6" class="edge"><title>Node5&#45;&gt;Node6</title>
<path fill="none" stroke="midnightblue" d="M179.792,-542C208.223,-542 249.311,-542 280.276,-542"/>
<polygon fill="midnightblue" stroke="midnightblue" points="280.357,-545.5 290.357,-542 280.357,-538.5 280.357,-545.5"/>
</g>
<!-- Node8 -->
<g id="node9" class="node"><title>Node8</title>
<g id="a_node9"><a xlink:href="group__fit.html#a442e7fd55af0ce0fda6fc37c8fd049ea" target="_top" xlink:title="hydra::Parameter::Parameter">
<polygon fill="none" stroke="black" points="253,-494.5 253,-513.5 396,-513.5 396,-494.5 253,-494.5"/>
<text text-anchor="middle" x="324.5" y="-501.5" font-family="Helvetica,sans-Serif" font-size="10.00">hydra::Parameter::Parameter</text>
</a>
</g>
</g>
<!-- Node7&#45;&gt;Node8 -->
<g id="edge8" class="edge"><title>Node7&#45;&gt;Node8</title>
<path fill="none" stroke="midnightblue" d="M209.402,-504C220.205,-504 231.564,-504 242.757,-504"/>
<polygon fill="midnightblue" stroke="midnightblue" points="242.969,-507.5 252.969,-504 242.969,-500.5 242.969,-507.5"/>
</g>
<!-- Node11&#45;&gt;Node3 -->
<g id="edge14" class="edge"><title>Node11&#45;&gt;Node3</title>
<path fill="none" stroke="midnightblue" d="M383.598,-648.491C398.307,-646.59 413.877,-644.577 427.807,-642.777"/>
<polygon fill="midnightblue" stroke="midnightblue" points="428.63,-646.199 438.099,-641.446 427.733,-639.257 428.63,-646.199"/>
</g>
<!-- Node11&#45;&gt;Node4 -->
<g id="edge15" class="edge"><title>Node11&#45;&gt;Node4</title>
<path fill="none" stroke="midnightblue" d="M367.007,-646.462C376.658,-643.793 386.798,-640.616 396,-637 412.838,-630.383 415.806,-626.066 432,-618 435.324,-616.344 438.819,-614.644 442.305,-612.974"/>
<polygon fill="midnightblue" stroke="midnightblue" points="443.848,-616.116 451.39,-608.675 440.854,-609.789 443.848,-616.116"/>
</g>
<!-- Node12 -->
<g id="node13" class="node"><title>Node12</title>
<g id="a_node13"><a xlink:href="namespacehydra.html#a1016bfa0c15215b4c14afc007d932074" target="_top" xlink:title="hydra::distance">
<polygon fill="none" stroke="black" points="432,-665.5 432,-684.5 515,-684.5 515,-665.5 432,-665.5"/>
<text text-anchor="middle" x="473.5" y="-672.5" font-family="Helvetica,sans-Serif" font-size="10.00">hydra::distance</text>
</a>
</g>
</g>
<!-- Node11&#45;&gt;Node12 -->
<g id="edge13" class="edge"><title>Node11&#45;&gt;Node12</title>
<path fill="none" stroke="midnightblue" d="M383.598,-663.509C396.138,-665.13 409.303,-666.832 421.545,-668.414"/>
<polygon fill="midnightblue" stroke="midnightblue" points="421.211,-671.9 431.577,-669.711 422.108,-664.958 421.211,-671.9"/>
</g>
</g>
</svg>
