<?xml version="1.0" encoding="UTF-8" standalone="no"?>
<!DOCTYPE svg PUBLIC "-//W3C//DTD SVG 1.1//EN"
 "http://www.w3.org/Graphics/SVG/1.1/DTD/svg11.dtd">
<!-- Generated by graphviz version 5.0.0 (0)
 -->
<!-- Title: multiarray.h Pages: 1 -->
<svg width="2664pt" height="252pt"
 viewBox="0.00 0.00 2663.50 252.00" xmlns="http://www.w3.org/2000/svg" xmlns:xlink="http://www.w3.org/1999/xlink">
<g id="graph0" class="graph" transform="scale(1 1) rotate(0) translate(4 248)">
<title>multiarray.h</title>
<!-- Node92 -->
<g id="node1" class="node">
<title>Node92</title>
<polygon fill="#bfbfbf" stroke="black" points="1263.5,-224.5 1263.5,-243.5 1329.5,-243.5 1329.5,-224.5 1263.5,-224.5"/>
<text text-anchor="middle" x="1296.5" y="-231.5" font-family="Helvetica,sans-Serif" font-size="10.00">multiarray.h</text>
</g>
<!-- Node93 -->
<g id="node2" class="node">
<title>Node93</title>
<g id="a_node2"><a xlink:href="detail_2GenzMalikRule_8h.html" target="_top" xlink:title="GenzMalikRule.h">
<polygon fill="none" stroke="black" points="176.5,-168.5 176.5,-187.5 268.5,-187.5 268.5,-168.5 176.5,-168.5"/>
<text text-anchor="middle" x="222.5" y="-175.5" font-family="Helvetica,sans-Serif" font-size="10.00">GenzMalikRule.h</text>
</a>
</g>
</g>
<!-- Node92&#45;&gt;Node93 -->
<g id="edge1" class="edge">
<title>Node92&#45;&gt;Node93</title>
<path fill="none" stroke="midnightblue" d="M1252.85,-231.23C1118.7,-225.73 700.64,-208.07 354.5,-188 325.95,-186.34 293.95,-184.17 268.61,-182.37"/>
<polygon fill="midnightblue" stroke="midnightblue" points="1252.98,-234.74 1263.11,-231.65 1253.27,-227.74 1252.98,-234.74"/>
</g>
<!-- Node100 -->
<g id="node9" class="node">
<title>Node100</title>
<g id="a_node9"><a xlink:href="async__mc_8inl.html" target="_top" xlink:title="async_mc.inl">
<polygon fill="none" stroke="black" points="363.5,-168.5 363.5,-187.5 437.5,-187.5 437.5,-168.5 363.5,-168.5"/>
<text text-anchor="middle" x="400.5" y="-175.5" font-family="Helvetica,sans-Serif" font-size="10.00">async_mc.inl</text>
</a>
</g>
</g>
<!-- Node92&#45;&gt;Node100 -->
<g id="edge9" class="edge">
<title>Node92&#45;&gt;Node100</title>
<path fill="none" stroke="midnightblue" d="M1253.24,-231.36C1131.97,-226.61 778.46,-211.62 485.5,-188 469.82,-186.74 452.55,-184.98 437.7,-183.35"/>
<polygon fill="midnightblue" stroke="midnightblue" points="1253.11,-234.86 1263.24,-231.75 1253.39,-227.87 1253.11,-234.86"/>
</g>
<!-- Node102 -->
<g id="node11" class="node">
<title>Node102</title>
<g id="a_node11"><a xlink:href="multidimensional__fit_8inl.html" target="_top" xlink:title="multidimensional_fit.inl">
<polygon fill="none" stroke="black" points="494.5,-168.5 494.5,-187.5 610.5,-187.5 610.5,-168.5 494.5,-168.5"/>
<text text-anchor="middle" x="552.5" y="-175.5" font-family="Helvetica,sans-Serif" font-size="10.00">multidimensional_fit.inl</text>
</a>
</g>
</g>
<!-- Node92&#45;&gt;Node102 -->
<g id="edge11" class="edge">
<title>Node92&#45;&gt;Node102</title>
<path fill="none" stroke="midnightblue" d="M1252.95,-229.84C1125.77,-220.61 754.82,-193.68 610.71,-183.22"/>
<polygon fill="midnightblue" stroke="midnightblue" points="1252.86,-233.34 1263.09,-230.57 1253.37,-226.36 1252.86,-233.34"/>
</g>
<!-- Node105 -->
<g id="node14" class="node">
<title>Node105</title>
<g id="a_node14"><a xlink:href="splot_8inl.html" target="_top" xlink:title="splot.inl">
<polygon fill="none" stroke="black" points="703.5,-168.5 703.5,-187.5 753.5,-187.5 753.5,-168.5 703.5,-168.5"/>
<text text-anchor="middle" x="728.5" y="-175.5" font-family="Helvetica,sans-Serif" font-size="10.00">splot.inl</text>
</a>
</g>
</g>
<!-- Node92&#45;&gt;Node105 -->
<g id="edge14" class="edge">
<title>Node92&#45;&gt;Node105</title>
<path fill="none" stroke="midnightblue" d="M1253.12,-228.88C1140.71,-218.19 842.6,-189.85 753.8,-181.41"/>
<polygon fill="midnightblue" stroke="midnightblue" points="1252.8,-232.36 1263.09,-229.82 1253.47,-225.39 1252.8,-232.36"/>
</g>
<!-- Node108 -->
<g id="node17" class="node">
<title>Node108</title>
<g id="a_node17"><a xlink:href="multiarray__container_8inl.html" target="_top" xlink:title="multiarray_container.inl">
<polygon fill="none" stroke="black" points="913.5,-168.5 913.5,-187.5 1029.5,-187.5 1029.5,-168.5 913.5,-168.5"/>
<text text-anchor="middle" x="971.5" y="-175.5" font-family="Helvetica,sans-Serif" font-size="10.00">multiarray_container.inl</text>
</a>
</g>
</g>
<!-- Node92&#45;&gt;Node108 -->
<g id="edge17" class="edge">
<title>Node92&#45;&gt;Node108</title>
<path fill="none" stroke="midnightblue" d="M1253.03,-225.78C1193.36,-215.86 1086.28,-198.07 1022.77,-187.52"/>
<polygon fill="midnightblue" stroke="midnightblue" points="1252.81,-229.29 1263.25,-227.47 1253.96,-222.38 1252.81,-229.29"/>
</g>
<!-- Node111 -->
<g id="node20" class="node">
<title>Node111</title>
<g id="a_node20"><a xlink:href="zipping__iterables_8inl.html" target="_top" xlink:title="zipping_iterables.inl">
<polygon fill="none" stroke="black" points="1175.5,-168.5 1175.5,-187.5 1277.5,-187.5 1277.5,-168.5 1175.5,-168.5"/>
<text text-anchor="middle" x="1226.5" y="-175.5" font-family="Helvetica,sans-Serif" font-size="10.00">zipping_iterables.inl</text>
</a>
</g>
</g>
<!-- Node92&#45;&gt;Node111 -->
<g id="edge20" class="edge">
<title>Node92&#45;&gt;Node111</title>
<path fill="none" stroke="midnightblue" d="M1277.19,-218.1C1264.59,-208.38 1248.57,-196.03 1237.95,-187.83"/>
<polygon fill="midnightblue" stroke="midnightblue" points="1275.2,-220.99 1285.25,-224.32 1279.47,-215.44 1275.2,-220.99"/>
</g>
<!-- Node114 -->
<g id="node23" class="node">
<title>Node114</title>
<g id="a_node23"><a xlink:href="phsp__evaluating__functor_8inl.html" target="_top" xlink:title="phsp_evaluating_functor.inl">
<polygon fill="none" stroke="black" points="1299.5,-168.5 1299.5,-187.5 1433.5,-187.5 1433.5,-168.5 1299.5,-168.5"/>
<text text-anchor="middle" x="1366.5" y="-175.5" font-family="Helvetica,sans-Serif" font-size="10.00">phsp_evaluating_functor.inl</text>
</a>
</g>
</g>
<!-- Node92&#45;&gt;Node114 -->
<g id="edge23" class="edge">
<title>Node92&#45;&gt;Node114</title>
<path fill="none" stroke="midnightblue" d="M1315.81,-218.1C1328.41,-208.38 1344.43,-196.03 1355.05,-187.83"/>
<polygon fill="midnightblue" stroke="midnightblue" points="1313.53,-215.44 1307.75,-224.32 1317.8,-220.99 1313.53,-215.44"/>
</g>
<!-- Node117 -->
<g id="node26" class="node">
<title>Node117</title>
<g id="a_node26"><a xlink:href="pseudo__experiment_8inl.html" target="_top" xlink:title="pseudo_experiment.inl">
<polygon fill="none" stroke="black" points="1611.5,-168.5 1611.5,-187.5 1725.5,-187.5 1725.5,-168.5 1611.5,-168.5"/>
<text text-anchor="middle" x="1668.5" y="-175.5" font-family="Helvetica,sans-Serif" font-size="10.00">pseudo_experiment.inl</text>
</a>
</g>
</g>
<!-- Node92&#45;&gt;Node117 -->
<g id="edge26" class="edge">
<title>Node92&#45;&gt;Node117</title>
<path fill="none" stroke="midnightblue" d="M1339.74,-226.72C1406.91,-216.97 1536.37,-198.18 1611.23,-187.31"/>
<polygon fill="midnightblue" stroke="midnightblue" points="1338.91,-223.31 1329.51,-228.21 1339.91,-230.23 1338.91,-223.31"/>
</g>
<!-- Node120 -->
<g id="node29" class="node">
<title>Node120</title>
<g id="a_node29"><a xlink:href="sample__distribution_8inl.html" target="_top" xlink:title="sample_distribution.inl">
<polygon fill="none" stroke="black" points="1883,-168.5 1883,-187.5 1996,-187.5 1996,-168.5 1883,-168.5"/>
<text text-anchor="middle" x="1939.5" y="-175.5" font-family="Helvetica,sans-Serif" font-size="10.00">sample_distribution.inl</text>
</a>
</g>
</g>
<!-- Node92&#45;&gt;Node120 -->
<g id="edge29" class="edge">
<title>Node92&#45;&gt;Node120</title>
<path fill="none" stroke="midnightblue" d="M1339.72,-229.37C1452.62,-219.89 1756.37,-194.38 1882.93,-183.75"/>
<polygon fill="midnightblue" stroke="midnightblue" points="1339.39,-225.89 1329.72,-230.21 1339.97,-232.86 1339.39,-225.89"/>
</g>
<!-- Node123 -->
<g id="node32" class="node">
<title>Node123</title>
<g id="a_node32"><a xlink:href="sobol__quasirandom_8inl.html" target="_top" xlink:title="sobol_quasirandom.inl">
<polygon fill="none" stroke="black" points="2153,-168.5 2153,-187.5 2266,-187.5 2266,-168.5 2153,-168.5"/>
<text text-anchor="middle" x="2209.5" y="-175.5" font-family="Helvetica,sans-Serif" font-size="10.00">sobol_quasirandom.inl</text>
</a>
</g>
</g>
<!-- Node92&#45;&gt;Node123 -->
<g id="edge32" class="edge">
<title>Node92&#45;&gt;Node123</title>
<path fill="none" stroke="midnightblue" d="M1339.69,-230.45C1489.12,-221.61 1984.25,-192.32 2152.77,-182.36"/>
<polygon fill="midnightblue" stroke="midnightblue" points="1339.31,-226.96 1329.53,-231.05 1339.72,-233.95 1339.31,-226.96"/>
</g>
<!-- Node126 -->
<g id="node35" class="node">
<title>Node126</title>
<g id="a_node35"><a xlink:href="unweight__sample_8inl.html" target="_top" xlink:title="unweight_sample.inl">
<polygon fill="none" stroke="black" points="2353,-168.5 2353,-187.5 2458,-187.5 2458,-168.5 2353,-168.5"/>
<text text-anchor="middle" x="2405.5" y="-175.5" font-family="Helvetica,sans-Serif" font-size="10.00">unweight_sample.inl</text>
</a>
</g>
</g>
<!-- Node92&#45;&gt;Node126 -->
<g id="edge35" class="edge">
<title>Node92&#45;&gt;Node126</title>
<path fill="none" stroke="midnightblue" d="M1339.98,-231.35C1477.23,-226.07 1913.55,-208.7 2274.5,-188 2300.33,-186.52 2329.01,-184.58 2352.93,-182.88"/>
<polygon fill="midnightblue" stroke="midnightblue" points="1339.73,-227.86 1329.87,-231.74 1339.99,-234.85 1339.73,-227.86"/>
</g>
<!-- Node129 -->
<g id="node38" class="node">
<title>Node129</title>
<g id="a_node38"><a xlink:href="fit__3d__gaussian_8C.html" target="_top" xlink:title="fit_3d_gaussian.C">
<polygon fill="none" stroke="black" points="2476,-168.5 2476,-187.5 2571,-187.5 2571,-168.5 2476,-168.5"/>
<text text-anchor="middle" x="2523.5" y="-175.5" font-family="Helvetica,sans-Serif" font-size="10.00">fit_3d_gaussian.C</text>
</a>
</g>
</g>
<!-- Node92&#45;&gt;Node129 -->
<g id="edge38" class="edge">
<title>Node92&#45;&gt;Node129</title>
<path fill="none" stroke="midnightblue" d="M1340.11,-233.22C1494.46,-233.6 2029.08,-231.49 2467.5,-188 2470.24,-187.73 2473.06,-187.41 2475.89,-187.05"/>
<polygon fill="midnightblue" stroke="midnightblue" points="1339.68,-229.72 1329.66,-233.19 1339.65,-236.72 1339.68,-229.72"/>
</g>
<!-- Node94 -->
<g id="node3" class="node">
<title>Node94</title>
<g id="a_node3"><a xlink:href="GenzMalikQuadrature_8h.html" target="_top" xlink:title="GenzMalikQuadrature.h">
<polygon fill="none" stroke="black" points="124,-112.5 124,-131.5 243,-131.5 243,-112.5 124,-112.5"/>
<text text-anchor="middle" x="183.5" y="-119.5" font-family="Helvetica,sans-Serif" font-size="10.00">GenzMalikQuadrature.h</text>
</a>
</g>
</g>
<!-- Node93&#45;&gt;Node94 -->
<g id="edge2" class="edge">
<title>Node93&#45;&gt;Node94</title>
<path fill="none" stroke="midnightblue" d="M210.12,-159.86C203.36,-150.5 195.29,-139.33 189.82,-131.75"/>
<polygon fill="midnightblue" stroke="midnightblue" points="207.37,-162.03 216.06,-168.08 213.04,-157.93 207.37,-162.03"/>
</g>
<!-- Node95 -->
<g id="node4" class="node">
<title>Node95</title>
<g id="a_node4"><a xlink:href="ProcessGenzMalikQuadrature_8h.html" target="_top" xlink:title="ProcessGenzMalikQuadrature.h">
<polygon fill="none" stroke="black" points="0,-56.5 0,-75.5 155,-75.5 155,-56.5 0,-56.5"/>
<text text-anchor="middle" x="77.5" y="-63.5" font-family="Helvetica,sans-Serif" font-size="10.00">ProcessGenzMalikQuadrature.h</text>
</a>
</g>
</g>
<!-- Node94&#45;&gt;Node95 -->
<g id="edge3" class="edge">
<title>Node94&#45;&gt;Node95</title>
<path fill="none" stroke="midnightblue" d="M157.44,-107.73C137.82,-97.73 111.47,-84.31 94.49,-75.65"/>
<polygon fill="midnightblue" stroke="midnightblue" points="155.97,-110.9 166.47,-112.32 159.15,-104.67 155.97,-110.9"/>
</g>
<!-- Node97 -->
<g id="node6" class="node">
<title>Node97</title>
<g id="a_node6"><a xlink:href="genz__malik_8inl.html" target="_top" xlink:title="genz_malik.inl">
<polygon fill="none" stroke="black" points="212,-56.5 212,-75.5 291,-75.5 291,-56.5 212,-56.5"/>
<text text-anchor="middle" x="251.5" y="-63.5" font-family="Helvetica,sans-Serif" font-size="10.00">genz_malik.inl</text>
</a>
</g>
</g>
<!-- Node94&#45;&gt;Node97 -->
<g id="edge6" class="edge">
<title>Node94&#45;&gt;Node97</title>
<path fill="none" stroke="midnightblue" d="M202.26,-106.1C214.5,-96.38 230.06,-84.03 240.38,-75.83"/>
<polygon fill="midnightblue" stroke="midnightblue" points="200.08,-103.36 194.43,-112.32 204.43,-108.85 200.08,-103.36"/>
</g>
<!-- Node96 -->
<g id="node5" class="node">
<title>Node96</title>
<g id="a_node5"><a xlink:href="GenzMalikQuadrature_8inl.html" target="_top" xlink:title="GenzMalikQuadrature.inl">
<polygon fill="none" stroke="black" points="40.5,-0.5 40.5,-19.5 164.5,-19.5 164.5,-0.5 40.5,-0.5"/>
<text text-anchor="middle" x="102.5" y="-7.5" font-family="Helvetica,sans-Serif" font-size="10.00">GenzMalikQuadrature.inl</text>
</a>
</g>
</g>
<!-- Node95&#45;&gt;Node96 -->
<g id="edge4" class="edge">
<title>Node95&#45;&gt;Node96</title>
<path fill="none" stroke="midnightblue" d="M85.84,-46.98C90.08,-37.82 95.05,-27.09 98.45,-19.75"/>
<polygon fill="midnightblue" stroke="midnightblue" points="82.65,-45.54 81.63,-56.08 89.01,-48.48 82.65,-45.54"/>
</g>
<!-- Node96&#45;&gt;Node94 -->
<g id="edge5" class="edge">
<title>Node96&#45;&gt;Node94</title>
<path fill="none" stroke="midnightblue" d="M128.51,-24.95C140.68,-32.65 154.46,-43.25 163.5,-56 175.93,-73.53 180.8,-98.99 182.57,-112.24"/>
<polygon fill="midnightblue" stroke="midnightblue" points="130,-21.76 119.62,-19.63 126.4,-27.76 130,-21.76"/>
</g>
<!-- Node98 -->
<g id="node7" class="node">
<title>Node98</title>
<g id="a_node7"><a xlink:href="genz__malik_8cpp.html" target="_top" xlink:title="genz_malik.cpp">
<polygon fill="none" stroke="black" points="196,-0.5 196,-19.5 281,-19.5 281,-0.5 196,-0.5"/>
<text text-anchor="middle" x="238.5" y="-7.5" font-family="Helvetica,sans-Serif" font-size="10.00">genz_malik.cpp</text>
</a>
</g>
</g>
<!-- Node97&#45;&gt;Node98 -->
<g id="edge7" class="edge">
<title>Node97&#45;&gt;Node98</title>
<path fill="none" stroke="midnightblue" d="M246.95,-46.1C244.79,-37.14 242.32,-26.86 240.61,-19.75"/>
<polygon fill="midnightblue" stroke="midnightblue" points="243.61,-47.18 249.35,-56.08 250.42,-45.54 243.61,-47.18"/>
</g>
<!-- Node99 -->
<g id="node8" class="node">
<title>Node99</title>
<g id="a_node8"><a xlink:href="genz__malik_8cu.html" target="_top" xlink:title="genz_malik.cu">
<polygon fill="none" stroke="black" points="299.5,-0.5 299.5,-19.5 379.5,-19.5 379.5,-0.5 299.5,-0.5"/>
<text text-anchor="middle" x="339.5" y="-7.5" font-family="Helvetica,sans-Serif" font-size="10.00">genz_malik.cu</text>
</a>
</g>
</g>
<!-- Node97&#45;&gt;Node99 -->
<g id="edge8" class="edge">
<title>Node97&#45;&gt;Node99</title>
<path fill="none" stroke="midnightblue" d="M274.48,-50.9C290.61,-41 311.68,-28.07 325.4,-19.65"/>
<polygon fill="midnightblue" stroke="midnightblue" points="272.33,-48.11 265.64,-56.32 275.99,-54.08 272.33,-48.11"/>
</g>
<!-- Node101 -->
<g id="node10" class="node">
<title>Node101</title>
<g id="a_node10"><a xlink:href="async__mc_8cu.html" target="_top" xlink:title="async_mc.cu">
<polygon fill="none" stroke="black" points="261,-112.5 261,-131.5 336,-131.5 336,-112.5 261,-112.5"/>
<text text-anchor="middle" x="298.5" y="-119.5" font-family="Helvetica,sans-Serif" font-size="10.00">async_mc.cu</text>
</a>
</g>
</g>
<!-- Node100&#45;&gt;Node101 -->
<g id="edge10" class="edge">
<title>Node100&#45;&gt;Node101</title>
<path fill="none" stroke="midnightblue" d="M375.17,-163.59C356.31,-153.61 331.12,-140.27 314.85,-131.65"/>
<polygon fill="midnightblue" stroke="midnightblue" points="373.64,-166.74 384.11,-168.32 376.91,-160.55 373.64,-166.74"/>
</g>
<!-- Node103 -->
<g id="node12" class="node">
<title>Node103</title>
<g id="a_node12"><a xlink:href="multidimensional__fit_8cpp.html" target="_top" xlink:title="multidimensional_fit.cpp">
<polygon fill="none" stroke="black" points="354.5,-112.5 354.5,-131.5 476.5,-131.5 476.5,-112.5 354.5,-112.5"/>
<text text-anchor="middle" x="415.5" y="-119.5" font-family="Helvetica,sans-Serif" font-size="10.00">multidimensional_fit.cpp</text>
</a>
</g>
</g>
<!-- Node102&#45;&gt;Node103 -->
<g id="edge12" class="edge">
<title>Node102&#45;&gt;Node103</title>
<path fill="none" stroke="midnightblue" d="M521.48,-164.77C495.74,-154.63 459.81,-140.47 437.11,-131.52"/>
<polygon fill="midnightblue" stroke="midnightblue" points="520.21,-168.03 530.79,-168.44 522.77,-161.52 520.21,-168.03"/>
</g>
<!-- Node104 -->
<g id="node13" class="node">
<title>Node104</title>
<g id="a_node13"><a xlink:href="multidimensional__fit_8cu.html" target="_top" xlink:title="multidimensional_fit.cu">
<polygon fill="none" stroke="black" points="494.5,-112.5 494.5,-131.5 610.5,-131.5 610.5,-112.5 494.5,-112.5"/>
<text text-anchor="middle" x="552.5" y="-119.5" font-family="Helvetica,sans-Serif" font-size="10.00">multidimensional_fit.cu</text>
</a>
</g>
</g>
<!-- Node102&#45;&gt;Node104 -->
<g id="edge13" class="edge">
<title>Node102&#45;&gt;Node104</title>
<path fill="none" stroke="midnightblue" d="M552.5,-157.8C552.5,-148.91 552.5,-138.78 552.5,-131.75"/>
<polygon fill="midnightblue" stroke="midnightblue" points="549,-158.08 552.5,-168.08 556,-158.08 549,-158.08"/>
</g>
<!-- Node106 -->
<g id="node15" class="node">
<title>Node106</title>
<g id="a_node15"><a xlink:href="splot_8cpp.html" target="_top" xlink:title="splot.cpp">
<polygon fill="none" stroke="black" points="628.5,-112.5 628.5,-131.5 684.5,-131.5 684.5,-112.5 628.5,-112.5"/>
<text text-anchor="middle" x="656.5" y="-119.5" font-family="Helvetica,sans-Serif" font-size="10.00">splot.cpp</text>
</a>
</g>
</g>
<!-- Node105&#45;&gt;Node106 -->
<g id="edge15" class="edge">
<title>Node105&#45;&gt;Node106</title>
<path fill="none" stroke="midnightblue" d="M708.63,-162.1C695.68,-152.38 679.2,-140.03 668.28,-131.83"/>
<polygon fill="midnightblue" stroke="midnightblue" points="706.83,-165.12 716.93,-168.32 711.03,-159.52 706.83,-165.12"/>
</g>
<!-- Node107 -->
<g id="node16" class="node">
<title>Node107</title>
<g id="a_node16"><a xlink:href="splot_8cu.html" target="_top" xlink:title="splot.cu">
<polygon fill="none" stroke="black" points="703,-112.5 703,-131.5 754,-131.5 754,-112.5 703,-112.5"/>
<text text-anchor="middle" x="728.5" y="-119.5" font-family="Helvetica,sans-Serif" font-size="10.00">splot.cu</text>
</a>
</g>
</g>
<!-- Node105&#45;&gt;Node107 -->
<g id="edge16" class="edge">
<title>Node105&#45;&gt;Node107</title>
<path fill="none" stroke="midnightblue" d="M728.5,-157.8C728.5,-148.91 728.5,-138.78 728.5,-131.75"/>
<polygon fill="midnightblue" stroke="midnightblue" points="725,-158.08 728.5,-168.08 732,-158.08 725,-158.08"/>
</g>
<!-- Node109 -->
<g id="node18" class="node">
<title>Node109</title>
<g id="a_node18"><a xlink:href="multiarray__container_8cpp.html" target="_top" xlink:title="multiarray_container.cpp">
<polygon fill="none" stroke="black" points="772.5,-112.5 772.5,-131.5 894.5,-131.5 894.5,-112.5 772.5,-112.5"/>
<text text-anchor="middle" x="833.5" y="-119.5" font-family="Helvetica,sans-Serif" font-size="10.00">multiarray_container.cpp</text>
</a>
</g>
</g>
<!-- Node108&#45;&gt;Node109 -->
<g id="edge18" class="edge">
<title>Node108&#45;&gt;Node109</title>
<path fill="none" stroke="midnightblue" d="M940.25,-164.77C914.33,-154.63 878.14,-140.47 855.26,-131.52"/>
<polygon fill="midnightblue" stroke="midnightblue" points="939.05,-168.06 949.63,-168.44 941.6,-161.54 939.05,-168.06"/>
</g>
<!-- Node110 -->
<g id="node19" class="node">
<title>Node110</title>
<g id="a_node19"><a xlink:href="multiarray__container_8cu.html" target="_top" xlink:title="multiarray_container.cu">
<polygon fill="none" stroke="black" points="913,-112.5 913,-131.5 1030,-131.5 1030,-112.5 913,-112.5"/>
<text text-anchor="middle" x="971.5" y="-119.5" font-family="Helvetica,sans-Serif" font-size="10.00">multiarray_container.cu</text>
</a>
</g>
</g>
<!-- Node108&#45;&gt;Node110 -->
<g id="edge19" class="edge">
<title>Node108&#45;&gt;Node110</title>
<path fill="none" stroke="midnightblue" d="M971.5,-157.8C971.5,-148.91 971.5,-138.78 971.5,-131.75"/>
<polygon fill="midnightblue" stroke="midnightblue" points="968,-158.08 971.5,-168.08 975,-158.08 968,-158.08"/>
</g>
<!-- Node112 -->
<g id="node21" class="node">
<title>Node112</title>
<g id="a_node21"><a xlink:href="zipping__iterables_8cpp.html" target="_top" xlink:title="zipping_iterables.cpp">
<polygon fill="none" stroke="black" points="1048.5,-112.5 1048.5,-131.5 1156.5,-131.5 1156.5,-112.5 1048.5,-112.5"/>
<text text-anchor="middle" x="1102.5" y="-119.5" font-family="Helvetica,sans-Serif" font-size="10.00">zipping_iterables.cpp</text>
</a>
</g>
</g>
<!-- Node111&#45;&gt;Node112 -->
<g id="edge21" class="edge">
<title>Node111&#45;&gt;Node112</title>
<path fill="none" stroke="midnightblue" d="M1197.49,-164.37C1174.27,-154.26 1142.34,-140.35 1122.06,-131.52"/>
<polygon fill="midnightblue" stroke="midnightblue" points="1196.29,-167.66 1206.85,-168.44 1199.08,-161.24 1196.29,-167.66"/>
</g>
<!-- Node113 -->
<g id="node22" class="node">
<title>Node113</title>
<g id="a_node22"><a xlink:href="zipping__iterables_8cu.html" target="_top" xlink:title="zipping_iterables.cu">
<polygon fill="none" stroke="black" points="1175,-112.5 1175,-131.5 1278,-131.5 1278,-112.5 1175,-112.5"/>
<text text-anchor="middle" x="1226.5" y="-119.5" font-family="Helvetica,sans-Serif" font-size="10.00">zipping_iterables.cu</text>
</a>
</g>
</g>
<!-- Node111&#45;&gt;Node113 -->
<g id="edge22" class="edge">
<title>Node111&#45;&gt;Node113</title>
<path fill="none" stroke="midnightblue" d="M1226.5,-157.8C1226.5,-148.91 1226.5,-138.78 1226.5,-131.75"/>
<polygon fill="midnightblue" stroke="midnightblue" points="1223,-158.08 1226.5,-168.08 1230,-158.08 1223,-158.08"/>
</g>
<!-- Node115 -->
<g id="node24" class="node">
<title>Node115</title>
<g id="a_node24"><a xlink:href="phsp__evaluating__functor_8cpp.html" target="_top" xlink:title="phsp_evaluating_functor.cpp">
<polygon fill="none" stroke="black" points="1296.5,-112.5 1296.5,-131.5 1436.5,-131.5 1436.5,-112.5 1296.5,-112.5"/>
<text text-anchor="middle" x="1366.5" y="-119.5" font-family="Helvetica,sans-Serif" font-size="10.00">phsp_evaluating_functor.cpp</text>
</a>
</g>
</g>
<!-- Node114&#45;&gt;Node115 -->
<g id="edge24" class="edge">
<title>Node114&#45;&gt;Node115</title>
<path fill="none" stroke="midnightblue" d="M1366.5,-157.8C1366.5,-148.91 1366.5,-138.78 1366.5,-131.75"/>
<polygon fill="midnightblue" stroke="midnightblue" points="1363,-158.08 1366.5,-168.08 1370,-158.08 1363,-158.08"/>
</g>
<!-- Node116 -->
<g id="node25" class="node">
<title>Node116</title>
<g id="a_node25"><a xlink:href="phsp__evaluating__functor_8cu.html" target="_top" xlink:title="phsp_evaluating_functor.cu">
<polygon fill="none" stroke="black" points="1455,-112.5 1455,-131.5 1590,-131.5 1590,-112.5 1455,-112.5"/>
<text text-anchor="middle" x="1522.5" y="-119.5" font-family="Helvetica,sans-Serif" font-size="10.00">phsp_evaluating_functor.cu</text>
</a>
</g>
</g>
<!-- Node114&#45;&gt;Node116 -->
<g id="edge25" class="edge">
<title>Node114&#45;&gt;Node116</title>
<path fill="none" stroke="midnightblue" d="M1400.67,-165.17C1430.04,-155 1471.7,-140.59 1497.9,-131.52"/>
<polygon fill="midnightblue" stroke="midnightblue" points="1399.52,-161.86 1391.22,-168.44 1401.81,-168.48 1399.52,-161.86"/>
</g>
<!-- Node118 -->
<g id="node27" class="node">
<title>Node118</title>
<g id="a_node27"><a xlink:href="pseudo__experiment_8cpp.html" target="_top" xlink:title="pseudo_experiment.cpp">
<polygon fill="none" stroke="black" points="1608.5,-112.5 1608.5,-131.5 1728.5,-131.5 1728.5,-112.5 1608.5,-112.5"/>
<text text-anchor="middle" x="1668.5" y="-119.5" font-family="Helvetica,sans-Serif" font-size="10.00">pseudo_experiment.cpp</text>
</a>
</g>
</g>
<!-- Node117&#45;&gt;Node118 -->
<g id="edge27" class="edge">
<title>Node117&#45;&gt;Node118</title>
<path fill="none" stroke="midnightblue" d="M1668.5,-157.8C1668.5,-148.91 1668.5,-138.78 1668.5,-131.75"/>
<polygon fill="midnightblue" stroke="midnightblue" points="1665,-158.08 1668.5,-168.08 1672,-158.08 1665,-158.08"/>
</g>
<!-- Node119 -->
<g id="node28" class="node">
<title>Node119</title>
<g id="a_node28"><a xlink:href="pseudo__experiment_8cu.html" target="_top" xlink:title="pseudo_experiment.cu">
<polygon fill="none" stroke="black" points="1747,-112.5 1747,-131.5 1862,-131.5 1862,-112.5 1747,-112.5"/>
<text text-anchor="middle" x="1804.5" y="-119.5" font-family="Helvetica,sans-Serif" font-size="10.00">pseudo_experiment.cu</text>
</a>
</g>
</g>
<!-- Node117&#45;&gt;Node119 -->
<g id="edge28" class="edge">
<title>Node117&#45;&gt;Node119</title>
<path fill="none" stroke="midnightblue" d="M1699.63,-164.64C1725.16,-154.5 1760.61,-140.43 1783.05,-131.52"/>
<polygon fill="midnightblue" stroke="midnightblue" points="1698.05,-161.5 1690.05,-168.44 1700.64,-168.01 1698.05,-161.5"/>
</g>
<!-- Node121 -->
<g id="node30" class="node">
<title>Node121</title>
<g id="a_node30"><a xlink:href="sample__distribution_8cpp.html" target="_top" xlink:title="sample_distribution.cpp">
<polygon fill="none" stroke="black" points="1880,-112.5 1880,-131.5 1999,-131.5 1999,-112.5 1880,-112.5"/>
<text text-anchor="middle" x="1939.5" y="-119.5" font-family="Helvetica,sans-Serif" font-size="10.00">sample_distribution.cpp</text>
</a>
</g>
</g>
<!-- Node120&#45;&gt;Node121 -->
<g id="edge30" class="edge">
<title>Node120&#45;&gt;Node121</title>
<path fill="none" stroke="midnightblue" d="M1939.5,-157.8C1939.5,-148.91 1939.5,-138.78 1939.5,-131.75"/>
<polygon fill="midnightblue" stroke="midnightblue" points="1936,-158.08 1939.5,-168.08 1943,-158.08 1936,-158.08"/>
</g>
<!-- Node122 -->
<g id="node31" class="node">
<title>Node122</title>
<g id="a_node31"><a xlink:href="sample__distribution_8cu.html" target="_top" xlink:title="sample_distribution.cu">
<polygon fill="none" stroke="black" points="2017.5,-112.5 2017.5,-131.5 2131.5,-131.5 2131.5,-112.5 2017.5,-112.5"/>
<text text-anchor="middle" x="2074.5" y="-119.5" font-family="Helvetica,sans-Serif" font-size="10.00">sample_distribution.cu</text>
</a>
</g>
</g>
<!-- Node120&#45;&gt;Node122 -->
<g id="edge31" class="edge">
<title>Node120&#45;&gt;Node122</title>
<path fill="none" stroke="midnightblue" d="M1970.41,-164.64C1995.74,-154.5 2030.93,-140.43 2053.21,-131.52"/>
<polygon fill="midnightblue" stroke="midnightblue" points="1968.88,-161.48 1960.89,-168.44 1971.48,-167.98 1968.88,-161.48"/>
</g>
<!-- Node124 -->
<g id="node33" class="node">
<title>Node124</title>
<g id="a_node33"><a xlink:href="sobol__quasirandom_8cpp.html" target="_top" xlink:title="sobol_quasirandom.cpp">
<polygon fill="none" stroke="black" points="2150,-112.5 2150,-131.5 2269,-131.5 2269,-112.5 2150,-112.5"/>
<text text-anchor="middle" x="2209.5" y="-119.5" font-family="Helvetica,sans-Serif" font-size="10.00">sobol_quasirandom.cpp</text>
</a>
</g>
</g>
<!-- Node123&#45;&gt;Node124 -->
<g id="edge33" class="edge">
<title>Node123&#45;&gt;Node124</title>
<path fill="none" stroke="midnightblue" d="M2209.5,-157.8C2209.5,-148.91 2209.5,-138.78 2209.5,-131.75"/>
<polygon fill="midnightblue" stroke="midnightblue" points="2206,-158.08 2209.5,-168.08 2213,-158.08 2206,-158.08"/>
</g>
<!-- Node125 -->
<g id="node34" class="node">
<title>Node125</title>
<g id="a_node34"><a xlink:href="sobol__quasirandom_8cu.html" target="_top" xlink:title="sobol_quasirandom.cu">
<polygon fill="none" stroke="black" points="2287.5,-112.5 2287.5,-131.5 2401.5,-131.5 2401.5,-112.5 2287.5,-112.5"/>
<text text-anchor="middle" x="2344.5" y="-119.5" font-family="Helvetica,sans-Serif" font-size="10.00">sobol_quasirandom.cu</text>
</a>
</g>
</g>
<!-- Node123&#45;&gt;Node125 -->
<g id="edge34" class="edge">
<title>Node123&#45;&gt;Node125</title>
<path fill="none" stroke="midnightblue" d="M2240.41,-164.64C2265.74,-154.5 2300.93,-140.43 2323.21,-131.52"/>
<polygon fill="midnightblue" stroke="midnightblue" points="2238.88,-161.48 2230.89,-168.44 2241.48,-167.98 2238.88,-161.48"/>
</g>
<!-- Node127 -->
<g id="node36" class="node">
<title>Node127</title>
<g id="a_node36"><a xlink:href="unweight__sample_8cpp.html" target="_top" xlink:title="unweight_sample.cpp">
<polygon fill="none" stroke="black" points="2420,-112.5 2420,-131.5 2531,-131.5 2531,-112.5 2420,-112.5"/>
<text text-anchor="middle" x="2475.5" y="-119.5" font-family="Helvetica,sans-Serif" font-size="10.00">unweight_sample.cpp</text>
</a>
</g>
</g>
<!-- Node126&#45;&gt;Node127 -->
<g id="edge36" class="edge">
<title>Node126&#45;&gt;Node127</title>
<path fill="none" stroke="midnightblue" d="M2424.81,-162.1C2437.41,-152.38 2453.43,-140.03 2464.05,-131.83"/>
<polygon fill="midnightblue" stroke="midnightblue" points="2422.53,-159.44 2416.75,-168.32 2426.8,-164.99 2422.53,-159.44"/>
</g>
<!-- Node128 -->
<g id="node37" class="node">
<title>Node128</title>
<g id="a_node37"><a xlink:href="unweight__sample_8cu.html" target="_top" xlink:title="unweight_sample.cu">
<polygon fill="none" stroke="black" points="2549.5,-112.5 2549.5,-131.5 2655.5,-131.5 2655.5,-112.5 2549.5,-112.5"/>
<text text-anchor="middle" x="2602.5" y="-119.5" font-family="Helvetica,sans-Serif" font-size="10.00">unweight_sample.cu</text>
</a>
</g>
</g>
<!-- Node126&#45;&gt;Node128 -->
<g id="edge37" class="edge">
<title>Node126&#45;&gt;Node128</title>
<path fill="none" stroke="midnightblue" d="M2446.73,-165.7C2483.91,-155.51 2537.77,-140.74 2571.43,-131.52"/>
<polygon fill="midnightblue" stroke="midnightblue" points="2445.43,-162.42 2436.72,-168.44 2447.28,-169.18 2445.43,-162.42"/>
</g>
</g>
</svg>
