<?xml version="1.0" encoding="UTF-8" standalone="no"?>
<!DOCTYPE svg PUBLIC "-//W3C//DTD SVG 1.1//EN"
 "http://www.w3.org/Graphics/SVG/1.1/DTD/svg11.dtd">
<!-- Generated by graphviz version 2.42.4 (0)
 -->
<!-- Title: Multiply.h Pages: 1 -->
<svg width="2439pt" height="575pt"
 viewBox="0.00 0.00 2439.00 575.00" xmlns="http://www.w3.org/2000/svg" xmlns:xlink="http://www.w3.org/1999/xlink">
<g id="graph0" class="graph" transform="scale(1 1) rotate(0) translate(4 571)">
<title>Multiply.h</title>
<!-- Node0 -->
<g id="node1" class="node">
<title>Node0</title>
<polygon fill="#bfbfbf" stroke="black" points="1130.5,-547.5 1130.5,-566.5 1187.5,-566.5 1187.5,-547.5 1130.5,-547.5"/>
<text text-anchor="middle" x="1159" y="-554.5" font-family="Helvetica,sans-Serif" font-size="10.00">Multiply.h</text>
</g>
<!-- Node1 -->
<g id="node2" class="node">
<title>Node1</title>
<polygon fill="none" stroke="#bfbfbf" points="318,-89.5 318,-108.5 380,-108.5 380,-89.5 318,-89.5"/>
<text text-anchor="middle" x="349" y="-96.5" font-family="Helvetica,sans-Serif" font-size="10.00">type_traits</text>
</g>
<!-- Node0&#45;&gt;Node1 -->
<g id="edge1" class="edge">
<title>Node0&#45;&gt;Node1</title>
<path fill="none" stroke="midnightblue" d="M1130.31,-555.56C992.76,-553.32 399.99,-542.01 218,-511 118.33,-494.02 0,-547.1 0,-446 0,-446 0,-446 0,-248.5 0,-204.06 3.43,-183.93 38,-156 78.91,-122.95 232.99,-107.99 307.77,-102.57"/>
<polygon fill="midnightblue" stroke="midnightblue" points="308.05,-106.06 317.78,-101.86 307.56,-99.07 308.05,-106.06"/>
</g>
<!-- Node2 -->
<g id="node3" class="node">
<title>Node2</title>
<g id="a_node3"><a xlink:href="Config_8h.html" target="_top" xlink:title="hydra/detail/Config.h">
<polygon fill="none" stroke="black" points="977.5,-89.5 977.5,-108.5 1084.5,-108.5 1084.5,-89.5 977.5,-89.5"/>
<text text-anchor="middle" x="1031" y="-96.5" font-family="Helvetica,sans-Serif" font-size="10.00">hydra/detail/Config.h</text>
</a>
</g>
</g>
<!-- Node0&#45;&gt;Node2 -->
<g id="edge2" class="edge">
<title>Node0&#45;&gt;Node2</title>
<path fill="none" stroke="midnightblue" d="M1130.48,-555.96C966.61,-555.35 152,-547.23 152,-446 152,-446 152,-446 152,-248.5 152,-142.5 -0.21,-231.21 422,-156 618.9,-120.93 855.77,-107.15 967.17,-102.32"/>
<polygon fill="midnightblue" stroke="midnightblue" points="967.39,-105.81 977.24,-101.89 967.1,-98.82 967.39,-105.81"/>
</g>
<!-- Node5 -->
<g id="node6" class="node">
<title>Node5</title>
<g id="a_node6"><a xlink:href="Types_8h.html" target="_top" xlink:title="Common and useful typedefs. ">
<polygon fill="none" stroke="black" points="1324,-162 1324,-181 1402,-181 1402,-162 1324,-162"/>
<text text-anchor="middle" x="1363" y="-169" font-family="Helvetica,sans-Serif" font-size="10.00">hydra/Types.h</text>
</a>
</g>
</g>
<!-- Node0&#45;&gt;Node5 -->
<g id="edge5" class="edge">
<title>Node0&#45;&gt;Node5</title>
<path fill="none" stroke="midnightblue" d="M1180.88,-547.41C1214.34,-533.17 1278.14,-501.57 1314,-455 1364.78,-389.06 1358.11,-358.51 1369,-276 1372.89,-246.49 1369.25,-211.92 1366.19,-191.13"/>
<polygon fill="midnightblue" stroke="midnightblue" points="1369.62,-190.45 1364.6,-181.13 1362.71,-191.55 1369.62,-190.45"/>
</g>
<!-- Node6 -->
<g id="node7" class="node">
<title>Node6</title>
<g id="a_node7"><a xlink:href="TypeTraits_8h.html" target="_top" xlink:title="hydra/detail/TypeTraits.h">
<polygon fill="none" stroke="black" points="1830,-162 1830,-181 1954,-181 1954,-162 1830,-162"/>
<text text-anchor="middle" x="1892" y="-169" font-family="Helvetica,sans-Serif" font-size="10.00">hydra/detail/TypeTraits.h</text>
</a>
</g>
</g>
<!-- Node0&#45;&gt;Node6 -->
<g id="edge6" class="edge">
<title>Node0&#45;&gt;Node6</title>
<path fill="none" stroke="midnightblue" d="M1187.59,-554.83C1323.77,-548.89 1900,-519.4 1900,-446 1900,-446 1900,-446 1900,-326.5 1900,-277.79 1895.96,-220.54 1893.62,-191.48"/>
<polygon fill="midnightblue" stroke="midnightblue" points="1897.08,-190.85 1892.77,-181.18 1890.11,-191.43 1897.08,-190.85"/>
</g>
<!-- Node17 -->
<g id="node18" class="node">
<title>Node17</title>
<g id="a_node18"><a xlink:href="Utility__Tuple_8h.html" target="_top" xlink:title="hydra/detail/utility\l/Utility_Tuple.h">
<polygon fill="none" stroke="black" points="931.5,-312.5 931.5,-342.5 1024.5,-342.5 1024.5,-312.5 931.5,-312.5"/>
<text text-anchor="start" x="939.5" y="-330.5" font-family="Helvetica,sans-Serif" font-size="10.00">hydra/detail/utility</text>
<text text-anchor="middle" x="978" y="-319.5" font-family="Helvetica,sans-Serif" font-size="10.00">/Utility_Tuple.h</text>
</a>
</g>
</g>
<!-- Node0&#45;&gt;Node17 -->
<g id="edge19" class="edge">
<title>Node0&#45;&gt;Node17</title>
<path fill="none" stroke="midnightblue" d="M1152.13,-547.36C1126.3,-514.9 1034.55,-399.58 995.65,-350.68"/>
<polygon fill="midnightblue" stroke="midnightblue" points="998.2,-348.27 989.24,-342.62 992.72,-352.63 998.2,-348.27"/>
</g>
<!-- Node25 -->
<g id="node26" class="node">
<title>Node25</title>
<g id="a_node26"><a xlink:href="Parameter_8h.html" target="_top" xlink:title="hydra/Parameter.h">
<polygon fill="none" stroke="black" points="1662,-240 1662,-259 1758,-259 1758,-240 1662,-240"/>
<text text-anchor="middle" x="1710" y="-247" font-family="Helvetica,sans-Serif" font-size="10.00">hydra/Parameter.h</text>
</a>
</g>
</g>
<!-- Node0&#45;&gt;Node25 -->
<g id="edge67" class="edge">
<title>Node0&#45;&gt;Node25</title>
<path fill="none" stroke="midnightblue" d="M1187.57,-554.35C1314.86,-546.6 1824,-511.53 1824,-446 1824,-446 1824,-446 1824,-388 1824,-331.88 1767.02,-286.39 1733.63,-264.54"/>
<polygon fill="midnightblue" stroke="midnightblue" points="1735.23,-261.41 1724.9,-259.02 1731.48,-267.33 1735.23,-261.41"/>
</g>
<!-- Node30 -->
<g id="node31" class="node">
<title>Node30</title>
<g id="a_node31"><a xlink:href="base__functor_8h.html" target="_top" xlink:title="hydra/detail/base_functor.h">
<polygon fill="none" stroke="black" points="1157,-379.5 1157,-398.5 1291,-398.5 1291,-379.5 1157,-379.5"/>
<text text-anchor="middle" x="1224" y="-386.5" font-family="Helvetica,sans-Serif" font-size="10.00">hydra/detail/base_functor.h</text>
</a>
</g>
</g>
<!-- Node0&#45;&gt;Node30 -->
<g id="edge47" class="edge">
<title>Node0&#45;&gt;Node30</title>
<path fill="none" stroke="midnightblue" d="M1158.55,-547.22C1157.87,-526.44 1158.31,-473.18 1178,-435 1183.96,-423.44 1194.01,-413.1 1203.19,-405.24"/>
<polygon fill="midnightblue" stroke="midnightblue" points="1205.64,-407.77 1211.25,-398.77 1201.26,-402.31 1205.64,-407.77"/>
</g>
<!-- Node31 -->
<g id="node32" class="node">
<title>Node31</title>
<g id="a_node32"><a xlink:href="Constant_8h.html" target="_top" xlink:title="hydra/detail/Constant.h">
<polygon fill="none" stroke="black" points="1187,-435.5 1187,-454.5 1305,-454.5 1305,-435.5 1187,-435.5"/>
<text text-anchor="middle" x="1246" y="-442.5" font-family="Helvetica,sans-Serif" font-size="10.00">hydra/detail/Constant.h</text>
</a>
</g>
</g>
<!-- Node0&#45;&gt;Node31 -->
<g id="edge55" class="edge">
<title>Node0&#45;&gt;Node31</title>
<path fill="none" stroke="midnightblue" d="M1165.83,-547.37C1180.25,-529.14 1214.03,-486.43 1232.81,-462.68"/>
<polygon fill="midnightblue" stroke="midnightblue" points="1235.75,-464.61 1239.2,-454.59 1230.26,-460.26 1235.75,-464.61"/>
</g>
<!-- Node32 -->
<g id="node33" class="node">
<title>Node32</title>
<g id="a_node33"><a xlink:href="Argument_8h.html" target="_top" xlink:title="hydra/detail/Argument.h">
<polygon fill="none" stroke="black" points="678,-435.5 678,-454.5 798,-454.5 798,-435.5 678,-435.5"/>
<text text-anchor="middle" x="738" y="-442.5" font-family="Helvetica,sans-Serif" font-size="10.00">hydra/detail/Argument.h</text>
</a>
</g>
</g>
<!-- Node0&#45;&gt;Node32 -->
<g id="edge61" class="edge">
<title>Node0&#45;&gt;Node32</title>
<path fill="none" stroke="midnightblue" d="M1130.32,-548.75C1095.47,-539.92 1034.88,-524.52 983,-511 911.44,-492.36 828.26,-470.18 779.55,-457.14"/>
<polygon fill="midnightblue" stroke="midnightblue" points="780.26,-453.71 769.69,-454.51 778.45,-460.47 780.26,-453.71"/>
</g>
<!-- Node33 -->
<g id="node34" class="node">
<title>Node33</title>
<g id="a_node34"><a xlink:href="CompositeBase_8h.html" target="_top" xlink:title="hydra/detail/CompositeBase.h">
<polygon fill="none" stroke="black" points="1444,-491.5 1444,-510.5 1592,-510.5 1592,-491.5 1444,-491.5"/>
<text text-anchor="middle" x="1518" y="-498.5" font-family="Helvetica,sans-Serif" font-size="10.00">hydra/detail/CompositeBase.h</text>
</a>
</g>
</g>
<!-- Node0&#45;&gt;Node33 -->
<g id="edge68" class="edge">
<title>Node0&#45;&gt;Node33</title>
<path fill="none" stroke="midnightblue" d="M1187.77,-551.67C1244.46,-543.15 1371.93,-523.97 1450.88,-512.1"/>
<polygon fill="midnightblue" stroke="midnightblue" points="1451.84,-515.49 1461.21,-510.54 1450.8,-508.57 1451.84,-515.49"/>
</g>
<!-- Node36 -->
<g id="node37" class="node">
<title>Node36</title>
<g id="a_node37"><a xlink:href="Tuple_8h.html" target="_top" xlink:title="hydra/Tuple.h">
<polygon fill="none" stroke="black" points="405,-318 405,-337 481,-337 481,-318 405,-318"/>
<text text-anchor="middle" x="443" y="-325" font-family="Helvetica,sans-Serif" font-size="10.00">hydra/Tuple.h</text>
</a>
</g>
</g>
<!-- Node0&#45;&gt;Node36 -->
<g id="edge79" class="edge">
<title>Node0&#45;&gt;Node36</title>
<path fill="none" stroke="midnightblue" d="M1130.47,-554.86C1036.74,-549.93 732.39,-524.59 524,-399 498.71,-383.76 473.71,-360.39 458.32,-344.78"/>
<polygon fill="midnightblue" stroke="midnightblue" points="460.66,-342.17 451.19,-337.42 455.63,-347.04 460.66,-342.17"/>
</g>
<!-- Node3 -->
<g id="node4" class="node">
<title>Node3</title>
<polygon fill="none" stroke="#bfbfbf" points="917,-0.5 917,-41.5 1021,-41.5 1021,-0.5 917,-0.5"/>
<text text-anchor="start" x="925" y="-29.5" font-family="Helvetica,sans-Serif" font-size="10.00">hydra/detail/external</text>
<text text-anchor="start" x="925" y="-18.5" font-family="Helvetica,sans-Serif" font-size="10.00">/hydra_thrust/detail</text>
<text text-anchor="middle" x="969" y="-7.5" font-family="Helvetica,sans-Serif" font-size="10.00">/config.h</text>
</g>
<!-- Node2&#45;&gt;Node3 -->
<g id="edge3" class="edge">
<title>Node2&#45;&gt;Node3</title>
<path fill="none" stroke="midnightblue" d="M1023.89,-89.28C1016.02,-79.63 1002.93,-63.6 991.52,-49.6"/>
<polygon fill="midnightblue" stroke="midnightblue" points="994.07,-47.19 985.04,-41.66 988.65,-51.62 994.07,-47.19"/>
</g>
<!-- Node4 -->
<g id="node5" class="node">
<title>Node4</title>
<polygon fill="none" stroke="#bfbfbf" points="1039,-0.5 1039,-41.5 1149,-41.5 1149,-0.5 1039,-0.5"/>
<text text-anchor="start" x="1047" y="-29.5" font-family="Helvetica,sans-Serif" font-size="10.00">hydra/detail/external</text>
<text text-anchor="start" x="1047" y="-18.5" font-family="Helvetica,sans-Serif" font-size="10.00">/hydra_thrust/detail</text>
<text text-anchor="middle" x="1094" y="-7.5" font-family="Helvetica,sans-Serif" font-size="10.00">/config/host_device.h</text>
</g>
<!-- Node2&#45;&gt;Node4 -->
<g id="edge4" class="edge">
<title>Node2&#45;&gt;Node4</title>
<path fill="none" stroke="midnightblue" d="M1038.23,-89.28C1046.22,-79.63 1059.52,-63.6 1071.12,-49.6"/>
<polygon fill="midnightblue" stroke="midnightblue" points="1074.02,-51.59 1077.7,-41.66 1068.63,-47.12 1074.02,-51.59"/>
</g>
<!-- Node6&#45;&gt;Node1 -->
<g id="edge8" class="edge">
<title>Node6&#45;&gt;Node1</title>
<path fill="none" stroke="midnightblue" d="M1856.07,-161.97C1844.89,-159.64 1832.49,-157.38 1821,-156 1748.09,-147.23 620.74,-109.11 390.05,-101.37"/>
<polygon fill="midnightblue" stroke="midnightblue" points="390.17,-97.87 380.05,-101.04 389.93,-104.87 390.17,-97.87"/>
</g>
<!-- Node6&#45;&gt;Node2 -->
<g id="edge7" class="edge">
<title>Node6&#45;&gt;Node2</title>
<path fill="none" stroke="midnightblue" d="M1855.69,-161.99C1844.61,-159.69 1832.36,-157.44 1821,-156 1512.85,-116.81 1430.9,-161.13 1123,-120 1106.79,-117.83 1089.19,-114.31 1073.77,-110.81"/>
<polygon fill="midnightblue" stroke="midnightblue" points="1074.52,-107.39 1063.99,-108.53 1072.93,-114.21 1074.52,-107.39"/>
</g>
<!-- Node7 -->
<g id="node8" class="node">
<title>Node7</title>
<polygon fill="none" stroke="#bfbfbf" points="1971,-89.5 1971,-108.5 2011,-108.5 2011,-89.5 1971,-89.5"/>
<text text-anchor="middle" x="1991" y="-96.5" font-family="Helvetica,sans-Serif" font-size="10.00">limits</text>
</g>
<!-- Node6&#45;&gt;Node7 -->
<g id="edge9" class="edge">
<title>Node6&#45;&gt;Node7</title>
<path fill="none" stroke="midnightblue" d="M1904.14,-161.86C1920.69,-150.07 1950.57,-128.79 1970.59,-114.53"/>
<polygon fill="midnightblue" stroke="midnightblue" points="1972.65,-117.37 1978.76,-108.72 1968.59,-111.67 1972.65,-117.37"/>
</g>
<!-- Node8 -->
<g id="node9" class="node">
<title>Node8</title>
<polygon fill="none" stroke="#bfbfbf" points="1831,-84 1831,-114 1953,-114 1953,-84 1831,-84"/>
<text text-anchor="start" x="1839" y="-102" font-family="Helvetica,sans-Serif" font-size="10.00">hydra/detail/external</text>
<text text-anchor="middle" x="1892" y="-91" font-family="Helvetica,sans-Serif" font-size="10.00">/hydra_thrust/complex.h</text>
</g>
<!-- Node6&#45;&gt;Node8 -->
<g id="edge10" class="edge">
<title>Node6&#45;&gt;Node8</title>
<path fill="none" stroke="midnightblue" d="M1892,-161.86C1892,-152.55 1892,-137.33 1892,-124.31"/>
<polygon fill="midnightblue" stroke="midnightblue" points="1895.5,-124.08 1892,-114.08 1888.5,-124.08 1895.5,-124.08"/>
</g>
<!-- Node9 -->
<g id="node10" class="node">
<title>Node9</title>
<polygon fill="none" stroke="#bfbfbf" points="1329,-78.5 1329,-119.5 1433,-119.5 1433,-78.5 1329,-78.5"/>
<text text-anchor="start" x="1337" y="-107.5" font-family="Helvetica,sans-Serif" font-size="10.00">hydra/detail/external</text>
<text text-anchor="start" x="1337" y="-96.5" font-family="Helvetica,sans-Serif" font-size="10.00">/hydra_thrust/detail</text>
<text text-anchor="middle" x="1381" y="-85.5" font-family="Helvetica,sans-Serif" font-size="10.00">/type_traits.h</text>
</g>
<!-- Node6&#45;&gt;Node9 -->
<g id="edge11" class="edge">
<title>Node6&#45;&gt;Node9</title>
<path fill="none" stroke="midnightblue" d="M1854.18,-162C1843.49,-159.81 1831.83,-157.61 1821,-156 1656.92,-131.52 1609.48,-153.67 1443.12,-119.98"/>
<polygon fill="midnightblue" stroke="midnightblue" points="1443.54,-116.5 1433.04,-117.9 1442.12,-123.35 1443.54,-116.5"/>
</g>
<!-- Node10 -->
<g id="node11" class="node">
<title>Node10</title>
<polygon fill="none" stroke="#bfbfbf" points="2029.5,-78.5 2029.5,-119.5 2148.5,-119.5 2148.5,-78.5 2029.5,-78.5"/>
<text text-anchor="start" x="2037.5" y="-107.5" font-family="Helvetica,sans-Serif" font-size="10.00">hydra/detail/external</text>
<text text-anchor="start" x="2037.5" y="-96.5" font-family="Helvetica,sans-Serif" font-size="10.00">/hydra_thrust/execution</text>
<text text-anchor="middle" x="2089" y="-85.5" font-family="Helvetica,sans-Serif" font-size="10.00">_policy.h</text>
</g>
<!-- Node6&#45;&gt;Node10 -->
<g id="edge12" class="edge">
<title>Node6&#45;&gt;Node10</title>
<path fill="none" stroke="midnightblue" d="M1915.76,-162C1942.54,-152.41 1987.18,-136.44 2024.44,-123.1"/>
<polygon fill="midnightblue" stroke="midnightblue" points="2026,-126.26 2034.24,-119.6 2023.64,-119.67 2026,-126.26"/>
</g>
<!-- Node11 -->
<g id="node12" class="node">
<title>Node11</title>
<polygon fill="none" stroke="#bfbfbf" points="2167,-78.5 2167,-119.5 2275,-119.5 2275,-78.5 2167,-78.5"/>
<text text-anchor="start" x="2175" y="-107.5" font-family="Helvetica,sans-Serif" font-size="10.00">hydra/detail/external</text>
<text text-anchor="start" x="2175" y="-96.5" font-family="Helvetica,sans-Serif" font-size="10.00">/hydra_thrust/iterator</text>
<text text-anchor="middle" x="2221" y="-85.5" font-family="Helvetica,sans-Serif" font-size="10.00">/iterator_categories.h</text>
</g>
<!-- Node6&#45;&gt;Node11 -->
<g id="edge13" class="edge">
<title>Node6&#45;&gt;Node11</title>
<path fill="none" stroke="midnightblue" d="M1946.7,-161.96C1998.36,-153.47 2078.12,-139.27 2156.59,-119.96"/>
<polygon fill="midnightblue" stroke="midnightblue" points="2157.8,-123.26 2166.65,-117.45 2156.1,-116.47 2157.8,-123.26"/>
</g>
<!-- Node12 -->
<g id="node13" class="node">
<title>Node12</title>
<polygon fill="none" stroke="#bfbfbf" points="2293,-78.5 2293,-119.5 2431,-119.5 2431,-78.5 2293,-78.5"/>
<text text-anchor="start" x="2301" y="-107.5" font-family="Helvetica,sans-Serif" font-size="10.00">hydra/detail/external</text>
<text text-anchor="start" x="2301" y="-96.5" font-family="Helvetica,sans-Serif" font-size="10.00">/hydra_thrust/iterator</text>
<text text-anchor="middle" x="2362" y="-85.5" font-family="Helvetica,sans-Serif" font-size="10.00">/detail/is_iterator_category.h</text>
</g>
<!-- Node6&#45;&gt;Node12 -->
<g id="edge14" class="edge">
<title>Node6&#45;&gt;Node12</title>
<path fill="none" stroke="midnightblue" d="M1954.16,-164.87C2029.73,-157.5 2161.26,-142.97 2282.92,-120.1"/>
<polygon fill="midnightblue" stroke="midnightblue" points="2283.61,-123.53 2292.78,-118.22 2282.3,-116.65 2283.61,-123.53"/>
</g>
<!-- Node13 -->
<g id="node14" class="node">
<title>Node13</title>
<polygon fill="none" stroke="#bfbfbf" points="1451.5,-78.5 1451.5,-119.5 1558.5,-119.5 1558.5,-78.5 1451.5,-78.5"/>
<text text-anchor="start" x="1459.5" y="-107.5" font-family="Helvetica,sans-Serif" font-size="10.00">hydra/detail/external</text>
<text text-anchor="start" x="1459.5" y="-96.5" font-family="Helvetica,sans-Serif" font-size="10.00">/hydra_thrust/iterator</text>
<text text-anchor="middle" x="1505" y="-85.5" font-family="Helvetica,sans-Serif" font-size="10.00">/iterator_traits.h</text>
</g>
<!-- Node6&#45;&gt;Node13 -->
<g id="edge15" class="edge">
<title>Node6&#45;&gt;Node13</title>
<path fill="none" stroke="midnightblue" d="M1852.28,-161.94C1842.1,-159.88 1831.17,-157.76 1821,-156 1711.83,-137.13 1679.9,-145.11 1568.55,-120.18"/>
<polygon fill="midnightblue" stroke="midnightblue" points="1569.14,-116.72 1558.61,-117.91 1567.58,-123.55 1569.14,-116.72"/>
</g>
<!-- Node14 -->
<g id="node15" class="node">
<title>Node14</title>
<polygon fill="none" stroke="#bfbfbf" points="1576.5,-78.5 1576.5,-119.5 1681.5,-119.5 1681.5,-78.5 1576.5,-78.5"/>
<text text-anchor="start" x="1584.5" y="-107.5" font-family="Helvetica,sans-Serif" font-size="10.00">hydra/detail/external</text>
<text text-anchor="start" x="1584.5" y="-96.5" font-family="Helvetica,sans-Serif" font-size="10.00">/hydra_thrust/device</text>
<text text-anchor="middle" x="1629" y="-85.5" font-family="Helvetica,sans-Serif" font-size="10.00">_reference.h</text>
</g>
<!-- Node6&#45;&gt;Node14 -->
<g id="edge16" class="edge">
<title>Node6&#45;&gt;Node14</title>
<path fill="none" stroke="midnightblue" d="M1854.56,-161.99C1815.91,-153.02 1753.69,-138.05 1691.76,-120.43"/>
<polygon fill="midnightblue" stroke="midnightblue" points="1692.41,-116.97 1681.83,-117.58 1690.48,-123.7 1692.41,-116.97"/>
</g>
<!-- Node15 -->
<g id="node16" class="node">
<title>Node15</title>
<polygon fill="none" stroke="#bfbfbf" points="1699.5,-78.5 1699.5,-119.5 1812.5,-119.5 1812.5,-78.5 1699.5,-78.5"/>
<text text-anchor="start" x="1707.5" y="-107.5" font-family="Helvetica,sans-Serif" font-size="10.00">hydra/detail/external</text>
<text text-anchor="start" x="1707.5" y="-96.5" font-family="Helvetica,sans-Serif" font-size="10.00">/hydra_thrust/detail</text>
<text text-anchor="middle" x="1756" y="-85.5" font-family="Helvetica,sans-Serif" font-size="10.00">/raw_reference_cast.h</text>
</g>
<!-- Node6&#45;&gt;Node15 -->
<g id="edge17" class="edge">
<title>Node6&#45;&gt;Node15</title>
<path fill="none" stroke="midnightblue" d="M1875.6,-162C1857.66,-152.7 1828.12,-137.38 1802.88,-124.3"/>
<polygon fill="midnightblue" stroke="midnightblue" points="1804.3,-121.09 1793.81,-119.6 1801.07,-127.31 1804.3,-121.09"/>
</g>
<!-- Node16 -->
<g id="node17" class="node">
<title>Node16</title>
<polygon fill="none" stroke="#bfbfbf" points="1132,-78.5 1132,-119.5 1254,-119.5 1254,-78.5 1132,-78.5"/>
<text text-anchor="start" x="1140" y="-107.5" font-family="Helvetica,sans-Serif" font-size="10.00">hydra/detail/external</text>
<text text-anchor="start" x="1140" y="-96.5" font-family="Helvetica,sans-Serif" font-size="10.00">/hydra_thrust/type_traits</text>
<text text-anchor="middle" x="1193" y="-85.5" font-family="Helvetica,sans-Serif" font-size="10.00">/void_t.h</text>
</g>
<!-- Node6&#45;&gt;Node16 -->
<g id="edge18" class="edge">
<title>Node6&#45;&gt;Node16</title>
<path fill="none" stroke="midnightblue" d="M1854.94,-161.99C1844.05,-159.74 1832.09,-157.52 1821,-156 1599.84,-125.6 1541.79,-145.39 1320,-120 1301.85,-117.92 1282.33,-115.13 1264.16,-112.29"/>
<polygon fill="midnightblue" stroke="midnightblue" points="1264.65,-108.82 1254.22,-110.71 1263.55,-115.74 1264.65,-108.82"/>
</g>
<!-- Node17&#45;&gt;Node1 -->
<g id="edge45" class="edge">
<title>Node17&#45;&gt;Node1</title>
<path fill="none" stroke="midnightblue" d="M931.3,-323.74C834.03,-317.52 616.89,-300.96 595,-276 559.84,-235.9 628.26,-197.69 595,-156 569.83,-124.46 453.47,-109.31 390.22,-103.3"/>
<polygon fill="midnightblue" stroke="midnightblue" points="390.45,-99.81 380.17,-102.38 389.81,-106.78 390.45,-99.81"/>
</g>
<!-- Node17&#45;&gt;Node2 -->
<g id="edge20" class="edge">
<title>Node17&#45;&gt;Node2</title>
<path fill="none" stroke="midnightblue" d="M981.32,-312.33C990.49,-273.13 1016.21,-163.21 1026.58,-118.88"/>
<polygon fill="midnightblue" stroke="midnightblue" points="1030.05,-119.42 1028.92,-108.89 1023.23,-117.83 1030.05,-119.42"/>
</g>
<!-- Node17&#45;&gt;Node5 -->
<g id="edge21" class="edge">
<title>Node17&#45;&gt;Node5</title>
<path fill="none" stroke="midnightblue" d="M1024.6,-315.29C1029.46,-314.16 1034.33,-313.05 1039,-312 1114.79,-295.02 1138.5,-306.33 1210,-276 1224.28,-269.94 1304.38,-213.92 1342.64,-186.92"/>
<polygon fill="midnightblue" stroke="midnightblue" points="1344.83,-189.65 1350.98,-181.02 1340.8,-183.94 1344.83,-189.65"/>
</g>
<!-- Node17&#45;&gt;Node9 -->
<g id="edge43" class="edge">
<title>Node17&#45;&gt;Node9</title>
<path fill="none" stroke="midnightblue" d="M987.81,-312.24C1003.5,-290.35 1036.26,-248.35 1073,-223 1150.19,-169.73 1253.85,-134.45 1319.04,-115.84"/>
<polygon fill="midnightblue" stroke="midnightblue" points="1320.09,-119.18 1328.76,-113.1 1318.19,-112.44 1320.09,-119.18"/>
</g>
<!-- Node18 -->
<g id="node19" class="node">
<title>Node18</title>
<g id="a_node19"><a xlink:href="Generic_8h.html" target="_top" xlink:title="hydra/detail/utility\l/Generic.h">
<polygon fill="none" stroke="black" points="302.5,-234.5 302.5,-264.5 395.5,-264.5 395.5,-234.5 302.5,-234.5"/>
<text text-anchor="start" x="310.5" y="-252.5" font-family="Helvetica,sans-Serif" font-size="10.00">hydra/detail/utility</text>
<text text-anchor="middle" x="349" y="-241.5" font-family="Helvetica,sans-Serif" font-size="10.00">/Generic.h</text>
</a>
</g>
</g>
<!-- Node17&#45;&gt;Node18 -->
<g id="edge22" class="edge">
<title>Node17&#45;&gt;Node18</title>
<path fill="none" stroke="midnightblue" d="M931.38,-322.99C843.83,-316.12 648.96,-299.49 486,-276 459.48,-272.18 430.27,-266.89 405.66,-262.12"/>
<polygon fill="midnightblue" stroke="midnightblue" points="406.25,-258.67 395.76,-260.18 404.91,-265.54 406.25,-258.67"/>
</g>
<!-- Node19 -->
<g id="node20" class="node">
<title>Node19</title>
<polygon fill="none" stroke="#bfbfbf" points="452,-162 452,-181 490,-181 490,-162 452,-162"/>
<text text-anchor="middle" x="471" y="-169" font-family="Helvetica,sans-Serif" font-size="10.00">array</text>
</g>
<!-- Node17&#45;&gt;Node19 -->
<g id="edge46" class="edge">
<title>Node17&#45;&gt;Node19</title>
<path fill="none" stroke="midnightblue" d="M931.28,-324.99C836.49,-321.25 625.23,-309.34 562,-276 524.24,-256.09 494.91,-213.66 480.6,-189.77"/>
<polygon fill="midnightblue" stroke="midnightblue" points="483.6,-187.96 475.56,-181.06 477.54,-191.47 483.6,-187.96"/>
</g>
<!-- Node20 -->
<g id="node21" class="node">
<title>Node20</title>
<g id="a_node21"><a xlink:href="TagTraits_8h.html" target="_top" xlink:title="hydra/detail/TagTraits.h">
<polygon fill="none" stroke="black" points="1082.5,-240 1082.5,-259 1201.5,-259 1201.5,-240 1082.5,-240"/>
<text text-anchor="middle" x="1142" y="-247" font-family="Helvetica,sans-Serif" font-size="10.00">hydra/detail/TagTraits.h</text>
</a>
</g>
</g>
<!-- Node17&#45;&gt;Node20 -->
<g id="edge25" class="edge">
<title>Node17&#45;&gt;Node20</title>
<path fill="none" stroke="midnightblue" d="M1008.46,-312.38C1038.76,-298.34 1084.83,-276.99 1114.17,-263.4"/>
<polygon fill="midnightblue" stroke="midnightblue" points="1115.83,-266.49 1123.43,-259.11 1112.88,-260.14 1115.83,-266.49"/>
</g>
<!-- Node21 -->
<g id="node22" class="node">
<title>Node21</title>
<g id="a_node22"><a xlink:href="FunctorTraits_8h.html" target="_top" xlink:title="hydra/detail/FunctorTraits.h">
<polygon fill="none" stroke="black" points="604,-240 604,-259 740,-259 740,-240 604,-240"/>
<text text-anchor="middle" x="672" y="-247" font-family="Helvetica,sans-Serif" font-size="10.00">hydra/detail/FunctorTraits.h</text>
</a>
</g>
</g>
<!-- Node17&#45;&gt;Node21 -->
<g id="edge28" class="edge">
<title>Node17&#45;&gt;Node21</title>
<path fill="none" stroke="midnightblue" d="M931.19,-314.87C872.75,-300.36 773.53,-275.72 716.3,-261.5"/>
<polygon fill="midnightblue" stroke="midnightblue" points="717.01,-258.07 706.46,-259.06 715.32,-264.87 717.01,-258.07"/>
</g>
<!-- Node23 -->
<g id="node24" class="node">
<title>Node23</title>
<polygon fill="none" stroke="#bfbfbf" points="868,-156.5 868,-186.5 974,-186.5 974,-156.5 868,-156.5"/>
<text text-anchor="start" x="876" y="-174.5" font-family="Helvetica,sans-Serif" font-size="10.00">hydra/detail/external</text>
<text text-anchor="middle" x="921" y="-163.5" font-family="Helvetica,sans-Serif" font-size="10.00">/hydra_thrust/tuple.h</text>
</g>
<!-- Node17&#45;&gt;Node23 -->
<g id="edge42" class="edge">
<title>Node17&#45;&gt;Node23</title>
<path fill="none" stroke="midnightblue" d="M972.74,-312.29C962.94,-285.82 941.8,-228.71 929.8,-196.27"/>
<polygon fill="midnightblue" stroke="midnightblue" points="933,-194.84 926.25,-186.68 926.44,-197.27 933,-194.84"/>
</g>
<!-- Node17&#45;&gt;Node25 -->
<g id="edge35" class="edge">
<title>Node17&#45;&gt;Node25</title>
<path fill="none" stroke="midnightblue" d="M1024.62,-321.66C1152.74,-308.36 1509.97,-271.27 1651.33,-256.59"/>
<polygon fill="midnightblue" stroke="midnightblue" points="1651.95,-260.05 1661.53,-255.53 1651.22,-253.08 1651.95,-260.05"/>
</g>
<!-- Node29 -->
<g id="node30" class="node">
<title>Node29</title>
<polygon fill="none" stroke="#bfbfbf" points="796,-223.5 796,-275.5 912,-275.5 912,-223.5 796,-223.5"/>
<text text-anchor="start" x="804" y="-263.5" font-family="Helvetica,sans-Serif" font-size="10.00">hydra/detail/external</text>
<text text-anchor="start" x="804" y="-252.5" font-family="Helvetica,sans-Serif" font-size="10.00">/hydra_thrust/iterator</text>
<text text-anchor="start" x="804" y="-241.5" font-family="Helvetica,sans-Serif" font-size="10.00">/detail/tuple_of_iterator</text>
<text text-anchor="middle" x="854" y="-230.5" font-family="Helvetica,sans-Serif" font-size="10.00">_references.h</text>
</g>
<!-- Node17&#45;&gt;Node29 -->
<g id="edge44" class="edge">
<title>Node17&#45;&gt;Node29</title>
<path fill="none" stroke="midnightblue" d="M954.97,-312.38C940.52,-303.53 921.33,-291.77 903.56,-280.88"/>
<polygon fill="midnightblue" stroke="midnightblue" points="905.33,-277.86 894.98,-275.62 901.68,-283.83 905.33,-277.86"/>
</g>
<!-- Node18&#45;&gt;Node1 -->
<g id="edge23" class="edge">
<title>Node18&#45;&gt;Node1</title>
<path fill="none" stroke="midnightblue" d="M349,-234.26C349,-207.35 349,-149.04 349,-118.9"/>
<polygon fill="midnightblue" stroke="midnightblue" points="352.5,-118.85 349,-108.85 345.5,-118.85 352.5,-118.85"/>
</g>
<!-- Node18&#45;&gt;Node19 -->
<g id="edge24" class="edge">
<title>Node18&#45;&gt;Node19</title>
<path fill="none" stroke="midnightblue" d="M371.66,-234.38C393.61,-220.71 426.69,-200.1 448.56,-186.48"/>
<polygon fill="midnightblue" stroke="midnightblue" points="450.55,-189.36 457.18,-181.11 446.85,-183.42 450.55,-189.36"/>
</g>
<!-- Node20&#45;&gt;Node1 -->
<g id="edge26" class="edge">
<title>Node20&#45;&gt;Node1</title>
<path fill="none" stroke="midnightblue" d="M1131.24,-239.93C1106.68,-220.92 1043.88,-175.33 983,-156 871.84,-120.7 512.91,-105.54 390.41,-101.31"/>
<polygon fill="midnightblue" stroke="midnightblue" points="390.43,-97.8 380.32,-100.96 390.19,-104.8 390.43,-97.8"/>
</g>
<!-- Node20&#45;&gt;Node5 -->
<g id="edge27" class="edge">
<title>Node20&#45;&gt;Node5</title>
<path fill="none" stroke="midnightblue" d="M1166.66,-239.99C1181.05,-235.03 1199.55,-228.66 1216,-223 1254.51,-209.75 1298.71,-194.57 1328.51,-184.34"/>
<polygon fill="midnightblue" stroke="midnightblue" points="1329.71,-187.63 1338.03,-181.07 1327.43,-181.01 1329.71,-187.63"/>
</g>
<!-- Node21&#45;&gt;Node1 -->
<g id="edge34" class="edge">
<title>Node21&#45;&gt;Node1</title>
<path fill="none" stroke="midnightblue" d="M670.52,-239.74C666.9,-221.15 655.76,-177.66 628,-156 591.41,-127.46 458.28,-110.65 390,-103.72"/>
<polygon fill="midnightblue" stroke="midnightblue" points="390.32,-100.24 380.02,-102.74 389.63,-107.2 390.32,-100.24"/>
</g>
<!-- Node21&#45;&gt;Node2 -->
<g id="edge29" class="edge">
<title>Node21&#45;&gt;Node2</title>
<path fill="none" stroke="midnightblue" d="M688.71,-239.85C710.54,-228.4 749.78,-207.28 782,-187 802.25,-174.26 804.36,-166.19 826,-156 872.56,-134.07 929.25,-119.41 971.2,-110.61"/>
<polygon fill="midnightblue" stroke="midnightblue" points="972.17,-113.99 981.27,-108.55 970.77,-107.13 972.17,-113.99"/>
</g>
<!-- Node21&#45;&gt;Node16 -->
<g id="edge32" class="edge">
<title>Node21&#45;&gt;Node16</title>
<path fill="none" stroke="midnightblue" d="M697.44,-239.97C727.3,-229.47 777.85,-210.15 818,-187 837.79,-175.59 837.96,-164.9 859,-156 955.92,-115.02 989.38,-138.32 1093,-120 1102.32,-118.35 1112.1,-116.52 1121.75,-114.66"/>
<polygon fill="midnightblue" stroke="midnightblue" points="1122.59,-118.06 1131.74,-112.7 1121.25,-111.19 1122.59,-118.06"/>
</g>
<!-- Node22 -->
<g id="node23" class="node">
<title>Node22</title>
<g id="a_node23"><a xlink:href="StaticAssert_8h.html" target="_top" xlink:title="hydra/detail/utility\l/StaticAssert.h">
<polygon fill="none" stroke="black" points="680.5,-156.5 680.5,-186.5 773.5,-186.5 773.5,-156.5 680.5,-156.5"/>
<text text-anchor="start" x="688.5" y="-174.5" font-family="Helvetica,sans-Serif" font-size="10.00">hydra/detail/utility</text>
<text text-anchor="middle" x="727" y="-163.5" font-family="Helvetica,sans-Serif" font-size="10.00">/StaticAssert.h</text>
</a>
</g>
</g>
<!-- Node21&#45;&gt;Node22 -->
<g id="edge30" class="edge">
<title>Node21&#45;&gt;Node22</title>
<path fill="none" stroke="midnightblue" d="M678.31,-239.78C686.19,-228.9 699.95,-209.87 710.84,-194.83"/>
<polygon fill="midnightblue" stroke="midnightblue" points="713.83,-196.67 716.85,-186.52 708.16,-192.57 713.83,-196.67"/>
</g>
<!-- Node21&#45;&gt;Node23 -->
<g id="edge31" class="edge">
<title>Node21&#45;&gt;Node23</title>
<path fill="none" stroke="midnightblue" d="M699.32,-239.95C715.26,-234.97 735.76,-228.6 754,-223 790.74,-211.73 832.08,-199.23 864.44,-189.48"/>
<polygon fill="midnightblue" stroke="midnightblue" points="865.61,-192.79 874.18,-186.55 863.6,-186.08 865.61,-192.79"/>
</g>
<!-- Node24 -->
<g id="node25" class="node">
<title>Node24</title>
<polygon fill="none" stroke="#bfbfbf" points="546,-162 546,-181 586,-181 586,-162 546,-162"/>
<text text-anchor="middle" x="566" y="-169" font-family="Helvetica,sans-Serif" font-size="10.00">utility</text>
</g>
<!-- Node21&#45;&gt;Node24 -->
<g id="edge33" class="edge">
<title>Node21&#45;&gt;Node24</title>
<path fill="none" stroke="midnightblue" d="M659.84,-239.78C641.87,-226.9 608,-202.62 586.25,-187.02"/>
<polygon fill="midnightblue" stroke="midnightblue" points="588.18,-184.1 578.02,-181.12 584.11,-189.79 588.18,-184.1"/>
</g>
<!-- Node25&#45;&gt;Node2 -->
<g id="edge36" class="edge">
<title>Node25&#45;&gt;Node2</title>
<path fill="none" stroke="midnightblue" d="M1699.01,-239.92C1673.94,-220.88 1609.85,-175.24 1548,-156 1366.99,-99.68 1310.46,-148.19 1123,-120 1107.37,-117.65 1090.43,-114.22 1075.39,-110.87"/>
<polygon fill="midnightblue" stroke="midnightblue" points="1075.85,-107.38 1065.32,-108.57 1074.29,-114.2 1075.85,-107.38"/>
</g>
<!-- Node25&#45;&gt;Node5 -->
<g id="edge37" class="edge">
<title>Node25&#45;&gt;Node5</title>
<path fill="none" stroke="midnightblue" d="M1670.87,-239.93C1607.18,-225.98 1481.25,-198.4 1411.81,-183.19"/>
<polygon fill="midnightblue" stroke="midnightblue" points="1412.51,-179.76 1401.99,-181.04 1411.01,-186.6 1412.51,-179.76"/>
</g>
<!-- Node25&#45;&gt;Node6 -->
<g id="edge38" class="edge">
<title>Node25&#45;&gt;Node6</title>
<path fill="none" stroke="midnightblue" d="M1730.52,-239.93C1762.7,-226.49 1825.15,-200.41 1862.25,-184.92"/>
<polygon fill="midnightblue" stroke="midnightblue" points="1863.67,-188.12 1871.55,-181.04 1860.97,-181.66 1863.67,-188.12"/>
</g>
<!-- Node26 -->
<g id="node27" class="node">
<title>Node26</title>
<polygon fill="none" stroke="#bfbfbf" points="1638.5,-162 1638.5,-181 1679.5,-181 1679.5,-162 1638.5,-162"/>
<text text-anchor="middle" x="1659" y="-169" font-family="Helvetica,sans-Serif" font-size="10.00">string</text>
</g>
<!-- Node25&#45;&gt;Node26 -->
<g id="edge39" class="edge">
<title>Node25&#45;&gt;Node26</title>
<path fill="none" stroke="midnightblue" d="M1704.15,-239.78C1696,-227.64 1681.07,-205.38 1670.61,-189.8"/>
<polygon fill="midnightblue" stroke="midnightblue" points="1673.26,-187.47 1664.78,-181.12 1667.45,-191.37 1673.26,-187.47"/>
</g>
<!-- Node27 -->
<g id="node28" class="node">
<title>Node27</title>
<polygon fill="none" stroke="#bfbfbf" points="1698,-162 1698,-181 1750,-181 1750,-162 1698,-162"/>
<text text-anchor="middle" x="1724" y="-169" font-family="Helvetica,sans-Serif" font-size="10.00">ostream</text>
</g>
<!-- Node25&#45;&gt;Node27 -->
<g id="edge40" class="edge">
<title>Node25&#45;&gt;Node27</title>
<path fill="none" stroke="midnightblue" d="M1711.61,-239.78C1713.78,-227.99 1717.71,-206.63 1720.57,-191.14"/>
<polygon fill="midnightblue" stroke="midnightblue" points="1724.04,-191.59 1722.41,-181.12 1717.16,-190.32 1724.04,-191.59"/>
</g>
<!-- Node28 -->
<g id="node29" class="node">
<title>Node28</title>
<polygon fill="none" stroke="#bfbfbf" points="1768,-162 1768,-181 1812,-181 1812,-162 1768,-162"/>
<text text-anchor="middle" x="1790" y="-169" font-family="Helvetica,sans-Serif" font-size="10.00">vector</text>
</g>
<!-- Node25&#45;&gt;Node28 -->
<g id="edge41" class="edge">
<title>Node25&#45;&gt;Node28</title>
<path fill="none" stroke="midnightblue" d="M1719.18,-239.78C1732.44,-227.18 1757.17,-203.69 1773.61,-188.07"/>
<polygon fill="midnightblue" stroke="midnightblue" points="1776.09,-190.54 1780.93,-181.12 1771.27,-185.47 1776.09,-190.54"/>
</g>
<!-- Node30&#45;&gt;Node1 -->
<g id="edge48" class="edge">
<title>Node30&#45;&gt;Node1</title>
<path fill="none" stroke="midnightblue" d="M1156.89,-386.87C982.47,-383.56 517.95,-372.17 367,-343 276.61,-325.53 224.54,-350.89 171,-276 121.22,-206.37 253.41,-139.7 317.02,-112.65"/>
<polygon fill="midnightblue" stroke="midnightblue" points="318.72,-115.74 326.61,-108.66 316.03,-109.28 318.72,-115.74"/>
</g>
<!-- Node30&#45;&gt;Node2 -->
<g id="edge49" class="edge">
<title>Node30&#45;&gt;Node2</title>
<path fill="none" stroke="midnightblue" d="M1225.68,-379.36C1230.23,-353.53 1240.49,-275.44 1210,-223 1177.1,-166.42 1106.52,-130.02 1064.48,-112.44"/>
<polygon fill="midnightblue" stroke="midnightblue" points="1065.54,-109.1 1054.96,-108.58 1062.91,-115.58 1065.54,-109.1"/>
</g>
<!-- Node30&#45;&gt;Node5 -->
<g id="edge50" class="edge">
<title>Node30&#45;&gt;Node5</title>
<path fill="none" stroke="midnightblue" d="M1238.17,-379.33C1250.78,-371.11 1269.16,-357.84 1282,-343 1322.85,-295.8 1347.75,-224.45 1357.82,-191.02"/>
<polygon fill="midnightblue" stroke="midnightblue" points="1361.24,-191.8 1360.67,-181.22 1354.52,-189.85 1361.24,-191.8"/>
</g>
<!-- Node30&#45;&gt;Node6 -->
<g id="edge53" class="edge">
<title>Node30&#45;&gt;Node6</title>
<path fill="none" stroke="midnightblue" d="M1291.24,-384.56C1397.24,-376.9 1607.55,-352.53 1767,-276 1812.7,-254.07 1855.9,-211.85 1877.55,-188.68"/>
<polygon fill="midnightblue" stroke="midnightblue" points="1880.33,-190.82 1884.51,-181.09 1875.17,-186.09 1880.33,-190.82"/>
</g>
<!-- Node30&#45;&gt;Node17 -->
<g id="edge51" class="edge">
<title>Node30&#45;&gt;Node17</title>
<path fill="none" stroke="midnightblue" d="M1188.75,-379.48C1148.44,-369.73 1081.9,-353.63 1034.36,-342.13"/>
<polygon fill="midnightblue" stroke="midnightblue" points="1035.07,-338.7 1024.53,-339.75 1033.42,-345.51 1035.07,-338.7"/>
</g>
<!-- Node30&#45;&gt;Node18 -->
<g id="edge52" class="edge">
<title>Node30&#45;&gt;Node18</title>
<path fill="none" stroke="midnightblue" d="M1156.89,-388.16C971.02,-388.07 459.02,-384.06 396,-343 372.4,-327.62 360.09,-296.5 354.09,-274.62"/>
<polygon fill="midnightblue" stroke="midnightblue" points="357.44,-273.59 351.63,-264.73 350.64,-275.28 357.44,-273.59"/>
</g>
<!-- Node30&#45;&gt;Node23 -->
<g id="edge54" class="edge">
<title>Node30&#45;&gt;Node23</title>
<path fill="none" stroke="midnightblue" d="M1211.75,-379.29C1167.23,-347.62 1013.32,-238.16 949.29,-192.62"/>
<polygon fill="midnightblue" stroke="midnightblue" points="951.05,-189.58 940.87,-186.63 946.99,-195.28 951.05,-189.58"/>
</g>
<!-- Node31&#45;&gt;Node1 -->
<g id="edge56" class="edge">
<title>Node31&#45;&gt;Node1</title>
<path fill="none" stroke="midnightblue" d="M1186.67,-441.17C978.32,-430.85 288.01,-393.13 203,-343 131.24,-300.68 127.69,-211.3 190,-156 223.27,-126.47 273.08,-112.27 308.07,-105.6"/>
<polygon fill="midnightblue" stroke="midnightblue" points="308.73,-109.03 317.96,-103.84 307.51,-102.14 308.73,-109.03"/>
</g>
<!-- Node31&#45;&gt;Node2 -->
<g id="edge57" class="edge">
<title>Node31&#45;&gt;Node2</title>
<path fill="none" stroke="midnightblue" d="M1265.84,-435.46C1281.96,-427.75 1304.48,-415.16 1320,-399 1399.87,-315.81 1487.32,-242.46 1411,-156 1368.32,-107.65 1186.58,-130.86 1123,-120 1107.81,-117.41 1091.34,-114.01 1076.58,-110.76"/>
<polygon fill="midnightblue" stroke="midnightblue" points="1077.2,-107.31 1066.68,-108.54 1075.67,-114.14 1077.2,-107.31"/>
</g>
<!-- Node31&#45;&gt;Node5 -->
<g id="edge58" class="edge">
<title>Node31&#45;&gt;Node5</title>
<path fill="none" stroke="midnightblue" d="M1259.61,-435.49C1271.62,-427.38 1288.91,-414.17 1300,-399 1347.99,-333.33 1359.44,-232.66 1362.16,-191.27"/>
<polygon fill="midnightblue" stroke="midnightblue" points="1365.66,-191.42 1362.72,-181.24 1358.67,-191.03 1365.66,-191.42"/>
</g>
<!-- Node31&#45;&gt;Node17 -->
<g id="edge59" class="edge">
<title>Node31&#45;&gt;Node17</title>
<path fill="none" stroke="midnightblue" d="M1227.2,-435.4C1207.46,-426.36 1175.53,-411.72 1148,-399 1128.87,-390.16 1124.36,-387.34 1105,-379 1078.57,-367.61 1048.68,-355.68 1024.53,-346.27"/>
<polygon fill="midnightblue" stroke="midnightblue" points="1025.5,-342.89 1014.91,-342.54 1022.96,-349.42 1025.5,-342.89"/>
</g>
<!-- Node31&#45;&gt;Node30 -->
<g id="edge60" class="edge">
<title>Node31&#45;&gt;Node30</title>
<path fill="none" stroke="midnightblue" d="M1242.37,-435.08C1239.39,-427.77 1235.07,-417.18 1231.38,-408.1"/>
<polygon fill="midnightblue" stroke="midnightblue" points="1234.58,-406.69 1227.57,-398.75 1228.1,-409.33 1234.58,-406.69"/>
</g>
<!-- Node32&#45;&gt;Node1 -->
<g id="edge62" class="edge">
<title>Node32&#45;&gt;Node1</title>
<path fill="none" stroke="midnightblue" d="M677.71,-440.38C507.92,-429.37 38,-393.09 38,-328.5 38,-328.5 38,-328.5 38,-248.5 38,-206.03 31.06,-185.1 62,-156 96.95,-123.12 236.79,-108.26 307.55,-102.74"/>
<polygon fill="midnightblue" stroke="midnightblue" points="308.16,-106.2 317.87,-101.96 307.64,-99.22 308.16,-106.2"/>
</g>
<!-- Node32&#45;&gt;Node2 -->
<g id="edge63" class="edge">
<title>Node32&#45;&gt;Node2</title>
<path fill="none" stroke="midnightblue" d="M723.53,-435.45C664.21,-399.4 446.84,-256.96 537,-156 565.17,-124.46 839.75,-108.39 966.93,-102.59"/>
<polygon fill="midnightblue" stroke="midnightblue" points="967.47,-106.07 977.3,-102.12 967.16,-99.08 967.47,-106.07"/>
</g>
<!-- Node32&#45;&gt;Node5 -->
<g id="edge64" class="edge">
<title>Node32&#45;&gt;Node5</title>
<path fill="none" stroke="midnightblue" d="M794.45,-435.43C895.17,-418.18 1109.73,-372.37 1264,-276 1283.52,-263.81 1326.56,-215.15 1348.91,-189.12"/>
<polygon fill="midnightblue" stroke="midnightblue" points="1351.8,-191.13 1355.63,-181.25 1346.48,-186.58 1351.8,-191.13"/>
</g>
<!-- Node32&#45;&gt;Node17 -->
<g id="edge65" class="edge">
<title>Node32&#45;&gt;Node17</title>
<path fill="none" stroke="midnightblue" d="M756.04,-435.32C794.83,-416.65 886.92,-372.33 939.48,-347.04"/>
<polygon fill="midnightblue" stroke="midnightblue" points="941.32,-350.04 948.81,-342.55 938.29,-343.73 941.32,-350.04"/>
</g>
<!-- Node32&#45;&gt;Node30 -->
<g id="edge66" class="edge">
<title>Node32&#45;&gt;Node30</title>
<path fill="none" stroke="midnightblue" d="M798.08,-437.32C886.01,-427.55 1049.8,-409.36 1146.63,-398.6"/>
<polygon fill="midnightblue" stroke="midnightblue" points="1147.1,-402.07 1156.66,-397.48 1146.33,-395.11 1147.1,-402.07"/>
</g>
<!-- Node33&#45;&gt;Node2 -->
<g id="edge69" class="edge">
<title>Node33&#45;&gt;Node2</title>
<path fill="none" stroke="midnightblue" d="M1519.24,-491.4C1525.07,-447.06 1545.2,-243.08 1436,-156 1381.26,-112.35 1192.07,-131.45 1123,-120 1107.67,-117.46 1091.04,-114.05 1076.19,-110.76"/>
<polygon fill="midnightblue" stroke="midnightblue" points="1076.75,-107.3 1066.23,-108.52 1075.22,-114.13 1076.75,-107.3"/>
</g>
<!-- Node33&#45;&gt;Node5 -->
<g id="edge70" class="edge">
<title>Node33&#45;&gt;Node5</title>
<path fill="none" stroke="midnightblue" d="M1514.28,-491.47C1510.44,-482.49 1504.4,-467.9 1500,-455 1465.38,-353.54 1495.84,-310.57 1434,-223 1422.87,-207.24 1405.21,-194.65 1390.29,-185.98"/>
<polygon fill="midnightblue" stroke="midnightblue" points="1391.88,-182.86 1381.43,-181.1 1388.5,-188.99 1391.88,-182.86"/>
</g>
<!-- Node33&#45;&gt;Node6 -->
<g id="edge71" class="edge">
<title>Node33&#45;&gt;Node6</title>
<path fill="none" stroke="midnightblue" d="M1592.02,-494.47C1628.08,-488.82 1670.55,-477.52 1703,-455 1804.17,-384.8 1865.99,-241.32 1885.39,-190.69"/>
<polygon fill="midnightblue" stroke="midnightblue" points="1888.75,-191.7 1888.97,-181.11 1882.19,-189.25 1888.75,-191.7"/>
</g>
<!-- Node33&#45;&gt;Node17 -->
<g id="edge72" class="edge">
<title>Node33&#45;&gt;Node17</title>
<path fill="none" stroke="midnightblue" d="M1443.88,-499.3C1373.51,-496.54 1265.75,-486.81 1178,-455 1108.81,-429.92 1038.52,-378 1002.55,-349.08"/>
<polygon fill="midnightblue" stroke="midnightblue" points="1004.54,-346.19 994.58,-342.59 1000.13,-351.62 1004.54,-346.19"/>
</g>
<!-- Node33&#45;&gt;Node25 -->
<g id="edge75" class="edge">
<title>Node33&#45;&gt;Node25</title>
<path fill="none" stroke="midnightblue" d="M1582.34,-491.49C1634.53,-480.49 1702.78,-455.49 1724,-399 1740.72,-354.51 1726.27,-297.47 1716.75,-268.76"/>
<polygon fill="midnightblue" stroke="midnightblue" points="1720.02,-267.51 1713.41,-259.22 1713.41,-269.82 1720.02,-267.51"/>
</g>
<!-- Node33&#45;&gt;Node30 -->
<g id="edge73" class="edge">
<title>Node33&#45;&gt;Node30</title>
<path fill="none" stroke="midnightblue" d="M1494.93,-491.37C1442.98,-471.93 1316.68,-424.67 1256.68,-402.23"/>
<polygon fill="midnightblue" stroke="midnightblue" points="1257.55,-398.82 1246.96,-398.59 1255.1,-405.37 1257.55,-398.82"/>
</g>
<!-- Node33&#45;&gt;Node31 -->
<g id="edge74" class="edge">
<title>Node33&#45;&gt;Node31</title>
<path fill="none" stroke="midnightblue" d="M1474.9,-491.44C1427.15,-481.96 1350.14,-466.67 1298.81,-456.48"/>
<polygon fill="midnightblue" stroke="midnightblue" points="1299.39,-453.03 1288.9,-454.52 1298.02,-459.9 1299.39,-453.03"/>
</g>
<!-- Node34 -->
<g id="node35" class="node">
<title>Node34</title>
<g id="a_node35"><a xlink:href="Placeholders_8h.html" target="_top" xlink:title="hydra/Placeholders.h">
<polygon fill="none" stroke="black" points="1558,-435.5 1558,-454.5 1666,-454.5 1666,-435.5 1558,-435.5"/>
<text text-anchor="middle" x="1612" y="-442.5" font-family="Helvetica,sans-Serif" font-size="10.00">hydra/Placeholders.h</text>
</a>
</g>
</g>
<!-- Node33&#45;&gt;Node34 -->
<g id="edge76" class="edge">
<title>Node33&#45;&gt;Node34</title>
<path fill="none" stroke="midnightblue" d="M1533.1,-491.32C1547.9,-482.82 1570.69,-469.73 1587.98,-459.8"/>
<polygon fill="midnightblue" stroke="midnightblue" points="1590.01,-462.67 1596.93,-454.65 1586.52,-456.6 1590.01,-462.67"/>
</g>
<!-- Node34&#45;&gt;Node9 -->
<g id="edge77" class="edge">
<title>Node34&#45;&gt;Node9</title>
<path fill="none" stroke="midnightblue" d="M1641.12,-435.44C1658.64,-428.62 1679.52,-417.14 1690,-399 1694.45,-391.3 1692.49,-387.53 1690,-379 1673.57,-322.6 1594.28,-192.19 1548,-156 1546.87,-155.12 1489.97,-136.12 1442.9,-120.5"/>
<polygon fill="midnightblue" stroke="midnightblue" points="1443.93,-117.15 1433.33,-117.32 1441.72,-123.79 1443.93,-117.15"/>
</g>
<!-- Node35 -->
<g id="node36" class="node">
<title>Node35</title>
<g id="a_node36"><a xlink:href="Placeholders_8inl.html" target="_top" xlink:title="hydra/detail/Placeholders.inl">
<polygon fill="none" stroke="black" points="1542.5,-379.5 1542.5,-398.5 1681.5,-398.5 1681.5,-379.5 1542.5,-379.5"/>
<text text-anchor="middle" x="1612" y="-386.5" font-family="Helvetica,sans-Serif" font-size="10.00">hydra/detail/Placeholders.inl</text>
</a>
</g>
</g>
<!-- Node34&#45;&gt;Node35 -->
<g id="edge78" class="edge">
<title>Node34&#45;&gt;Node35</title>
<path fill="none" stroke="midnightblue" d="M1612,-435.08C1612,-428.01 1612,-417.86 1612,-408.99"/>
<polygon fill="midnightblue" stroke="midnightblue" points="1615.5,-408.75 1612,-398.75 1608.5,-408.75 1615.5,-408.75"/>
</g>
<!-- Node36&#45;&gt;Node2 -->
<g id="edge80" class="edge">
<title>Node36&#45;&gt;Node2</title>
<path fill="none" stroke="midnightblue" d="M439.41,-317.63C428.75,-289.7 400.58,-202.65 443,-156 477.76,-117.77 822.22,-105.03 967.21,-101.33"/>
<polygon fill="midnightblue" stroke="midnightblue" points="967.38,-104.83 977.29,-101.08 967.21,-97.83 967.38,-104.83"/>
</g>
<!-- Node36&#45;&gt;Node18 -->
<g id="edge83" class="edge">
<title>Node36&#45;&gt;Node18</title>
<path fill="none" stroke="midnightblue" d="M432.22,-317.78C418.19,-306.44 393.23,-286.26 374.3,-270.95"/>
<polygon fill="midnightblue" stroke="midnightblue" points="376.32,-268.09 366.34,-264.52 371.92,-273.53 376.32,-268.09"/>
</g>
<!-- Node36&#45;&gt;Node23 -->
<g id="edge81" class="edge">
<title>Node36&#45;&gt;Node23</title>
<path fill="none" stroke="midnightblue" d="M481.18,-323.84C552.97,-318.24 704.81,-303.47 749,-276 773.62,-260.7 764.01,-240.65 787,-223 807.8,-207.04 834.21,-195.65 858.07,-187.79"/>
<polygon fill="midnightblue" stroke="midnightblue" points="859.28,-191.08 867.77,-184.74 857.18,-184.4 859.28,-191.08"/>
</g>
<!-- Node36&#45;&gt;Node24 -->
<g id="edge84" class="edge">
<title>Node36&#45;&gt;Node24</title>
<path fill="none" stroke="midnightblue" d="M449.97,-317.78C469.75,-293 526.56,-221.88 552.63,-189.24"/>
<polygon fill="midnightblue" stroke="midnightblue" points="555.6,-191.12 559.11,-181.13 550.14,-186.75 555.6,-191.12"/>
</g>
<!-- Node37 -->
<g id="node38" class="node">
<title>Node37</title>
<polygon fill="none" stroke="#bfbfbf" points="180,-229 180,-270 284,-270 284,-229 180,-229"/>
<text text-anchor="start" x="188" y="-258" font-family="Helvetica,sans-Serif" font-size="10.00">hydra/detail/external</text>
<text text-anchor="start" x="188" y="-247" font-family="Helvetica,sans-Serif" font-size="10.00">/hydra_thrust/detail</text>
<text text-anchor="middle" x="232" y="-236" font-family="Helvetica,sans-Serif" font-size="10.00">/tuple/tuple.h</text>
</g>
<!-- Node36&#45;&gt;Node37 -->
<g id="edge82" class="edge">
<title>Node36&#45;&gt;Node37</title>
<path fill="none" stroke="midnightblue" d="M415.7,-317.95C385.48,-308.34 335.43,-291.99 293,-276 291.15,-275.3 289.27,-274.58 287.37,-273.85"/>
<polygon fill="midnightblue" stroke="midnightblue" points="288.41,-270.49 277.82,-270.07 285.83,-277 288.41,-270.49"/>
</g>
</g>
</svg>
