<?xml version="1.0" encoding="UTF-8" standalone="no"?>
<!DOCTYPE svg PUBLIC "-//W3C//DTD SVG 1.1//EN"
 "http://www.w3.org/Graphics/SVG/1.1/DTD/svg11.dtd">
<!-- Generated by graphviz version 5.0.0 (0)
 -->
<!-- Title: multiarray_container.inl Pages: 1 -->
<svg width="266pt" height="84pt"
 viewBox="0.00 0.00 265.50 84.00" xmlns="http://www.w3.org/2000/svg" xmlns:xlink="http://www.w3.org/1999/xlink">
<g id="graph0" class="graph" transform="scale(1 1) rotate(0) translate(4 80)">
<title>multiarray_container.inl</title>
<!-- Node108 -->
<g id="node1" class="node">
<title>Node108</title>
<polygon fill="#bfbfbf" stroke="black" points="72,-56.5 72,-75.5 188,-75.5 188,-56.5 72,-56.5"/>
<text text-anchor="middle" x="130" y="-63.5" font-family="Helvetica,sans-Serif" font-size="10.00">multiarray_container.inl</text>
</g>
<!-- Node109 -->
<g id="node2" class="node">
<title>Node109</title>
<g id="a_node2"><a xlink:href="multiarray__container_8cpp.html" target="_top" xlink:title="multiarray_container.cpp">
<polygon fill="none" stroke="black" points="0,-0.5 0,-19.5 122,-19.5 122,-0.5 0,-0.5"/>
<text text-anchor="middle" x="61" y="-7.5" font-family="Helvetica,sans-Serif" font-size="10.00">multiarray_container.cpp</text>
</a>
</g>
</g>
<!-- Node108&#45;&gt;Node109 -->
<g id="edge1" class="edge">
<title>Node108&#45;&gt;Node109</title>
<path fill="none" stroke="midnightblue" d="M110.96,-50.1C98.54,-40.38 82.76,-28.03 72.29,-19.83"/>
<polygon fill="midnightblue" stroke="midnightblue" points="108.88,-52.92 118.91,-56.32 113.2,-47.4 108.88,-52.92"/>
</g>
<!-- Node110 -->
<g id="node3" class="node">
<title>Node110</title>
<g id="a_node3"><a xlink:href="multiarray__container_8cu.html" target="_top" xlink:title="multiarray_container.cu">
<polygon fill="none" stroke="black" points="140.5,-0.5 140.5,-19.5 257.5,-19.5 257.5,-0.5 140.5,-0.5"/>
<text text-anchor="middle" x="199" y="-7.5" font-family="Helvetica,sans-Serif" font-size="10.00">multiarray_container.cu</text>
</a>
</g>
</g>
<!-- Node108&#45;&gt;Node110 -->
<g id="edge2" class="edge">
<title>Node108&#45;&gt;Node110</title>
<path fill="none" stroke="midnightblue" d="M149.04,-50.1C161.46,-40.38 177.24,-28.03 187.71,-19.83"/>
<polygon fill="midnightblue" stroke="midnightblue" points="146.8,-47.4 141.09,-56.32 151.12,-52.92 146.8,-47.4"/>
</g>
</g>
</svg>
