<?xml version="1.0" encoding="UTF-8" standalone="no"?>
<!DOCTYPE svg PUBLIC "-//W3C//DTD SVG 1.1//EN"
 "http://www.w3.org/Graphics/SVG/1.1/DTD/svg11.dtd">
<!-- Generated by graphviz version 2.40.1 (20161225.0304)
 -->
<!-- Title: multivector.h Pages: 1 -->
<svg width="3074pt" height="319pt"
 viewBox="0.00 0.00 3073.50 319.00" xmlns="http://www.w3.org/2000/svg" xmlns:xlink="http://www.w3.org/1999/xlink">
<g id="graph0" class="graph" transform="scale(1 1) rotate(0) translate(4 315)">
<title>multivector.h</title>
<!-- Node49 -->
<g id="node1" class="node">
<title>Node49</title>
<polygon fill="#bfbfbf" stroke="#000000" points="1055,-291.5 1055,-310.5 1128,-310.5 1128,-291.5 1055,-291.5"/>
<text text-anchor="middle" x="1091.5" y="-298.5" font-family="Helvetica,sans-Serif" font-size="10.00" fill="#000000">multivector.h</text>
</g>
<!-- Node50 -->
<g id="node2" class="node">
<title>Node50</title>
<g id="a_node2"><a xlink:href="Cache_8h.html" target="_top" xlink:title="Cache.h">
<polygon fill="none" stroke="#000000" points="188,-235.5 188,-254.5 241,-254.5 241,-235.5 188,-235.5"/>
<text text-anchor="middle" x="214.5" y="-242.5" font-family="Helvetica,sans-Serif" font-size="10.00" fill="#000000">Cache.h</text>
</a>
</g>
</g>
<!-- Node49&#45;&gt;Node50 -->
<g id="edge1" class="edge">
<title>Node49&#45;&gt;Node50</title>
<path fill="none" stroke="#191970" d="M1044.5093,-298.3414C926.7814,-291.6288 609.6993,-273.2285 345.5,-255 309.3193,-252.5037 267.5476,-249.2507 241.0869,-247.1439"/>
<polygon fill="#191970" stroke="#191970" points="1044.4342,-301.8427 1054.6171,-298.9169 1044.8322,-294.8541 1044.4342,-301.8427"/>
</g>
<!-- Node54 -->
<g id="node6" class="node">
<title>Node54</title>
<g id="a_node6"><a xlink:href="GenzMalikQuadrature_8inl.html" target="_top" xlink:title="GenzMalikQuadrature.inl">
<polygon fill="none" stroke="#000000" points="410.5,-174 410.5,-193 534.5,-193 534.5,-174 410.5,-174"/>
<text text-anchor="middle" x="472.5" y="-181" font-family="Helvetica,sans-Serif" font-size="10.00" fill="#000000">GenzMalikQuadrature.inl</text>
</a>
</g>
</g>
<!-- Node49&#45;&gt;Node54 -->
<g id="edge5" class="edge">
<title>Node49&#45;&gt;Node54</title>
<path fill="none" stroke="#191970" d="M1044.8256,-296.9503C976.7986,-290.5934 846.6275,-276.71 737.5,-255 651.2716,-237.8456 551.6889,-208.2796 502.789,-193.1024"/>
<polygon fill="#191970" stroke="#191970" points="1044.5204,-300.4369 1054.7995,-297.8699 1045.1631,-293.4665 1044.5204,-300.4369"/>
</g>
<!-- Node55 -->
<g id="node7" class="node">
<title>Node55</title>
<g id="a_node7"><a xlink:href="GenzMalikQuadrature_8h.html" target="_top" xlink:title="GenzMalikQuadrature.h">
<polygon fill="none" stroke="#000000" points="262,-112.5 262,-131.5 381,-131.5 381,-112.5 262,-112.5"/>
<text text-anchor="middle" x="321.5" y="-119.5" font-family="Helvetica,sans-Serif" font-size="10.00" fill="#000000">GenzMalikQuadrature.h</text>
</a>
</g>
</g>
<!-- Node49&#45;&gt;Node55 -->
<g id="edge58" class="edge">
<title>Node49&#45;&gt;Node55</title>
<path fill="none" stroke="#191970" d="M1044.5312,-298.1917C908.0027,-289.3895 513.8133,-259.2649 401.5,-199 369.396,-181.7737 341.0908,-148.0135 328.4739,-131.5222"/>
<polygon fill="#191970" stroke="#191970" points="1044.4655,-301.6945 1054.6676,-298.8364 1044.9099,-294.7087 1044.4655,-301.6945"/>
</g>
<!-- Node64 -->
<g id="node16" class="node">
<title>Node64</title>
<g id="a_node16"><a xlink:href="Evaluate_8h.html" target="_top" xlink:title="Evaluate.h">
<polygon fill="none" stroke="#000000" points="1158,-235.5 1158,-254.5 1221,-254.5 1221,-235.5 1158,-235.5"/>
<text text-anchor="middle" x="1189.5" y="-242.5" font-family="Helvetica,sans-Serif" font-size="10.00" fill="#000000">Evaluate.h</text>
</a>
</g>
</g>
<!-- Node49&#45;&gt;Node64 -->
<g id="edge16" class="edge">
<title>Node49&#45;&gt;Node64</title>
<path fill="none" stroke="#191970" d="M1117.6686,-286.0465C1135.1058,-276.0824 1157.5111,-263.2794 1172.6253,-254.6427"/>
<polygon fill="#191970" stroke="#191970" points="1115.5162,-283.2453 1108.5703,-291.2455 1118.9892,-289.323 1115.5162,-283.2453"/>
</g>
<!-- Node85 -->
<g id="node37" class="node">
<title>Node85</title>
<g id="a_node37"><a xlink:href="GaussKronrodAdaptiveQuadrature_8h.html" target="_top" xlink:title="GaussKronrodAdaptiveQuadrature.h">
<polygon fill="none" stroke="#000000" points="1598,-235.5 1598,-254.5 1771,-254.5 1771,-235.5 1598,-235.5"/>
<text text-anchor="middle" x="1684.5" y="-242.5" font-family="Helvetica,sans-Serif" font-size="10.00" fill="#000000">GaussKronrodAdaptiveQuadrature.h</text>
</a>
</g>
</g>
<!-- Node49&#45;&gt;Node85 -->
<g id="edge37" class="edge">
<title>Node49&#45;&gt;Node85</title>
<path fill="none" stroke="#191970" d="M1138.1682,-296.5929C1237.3995,-287.222 1470.6601,-265.194 1597.9377,-253.1745"/>
<polygon fill="#191970" stroke="#191970" points="1137.7739,-293.1145 1128.1473,-297.5392 1138.4321,-300.0834 1137.7739,-293.1145"/>
</g>
<!-- Node89 -->
<g id="node41" class="node">
<title>Node89</title>
<g id="a_node41"><a xlink:href="GaussKronrodQuadrature_8h.html" target="_top" xlink:title="GaussKronrodQuadrature.h">
<polygon fill="none" stroke="#000000" points="2470,-235.5 2470,-254.5 2605,-254.5 2605,-235.5 2470,-235.5"/>
<text text-anchor="middle" x="2537.5" y="-242.5" font-family="Helvetica,sans-Serif" font-size="10.00" fill="#000000">GaussKronrodQuadrature.h</text>
</a>
</g>
</g>
<!-- Node49&#45;&gt;Node89 -->
<g id="edge41" class="edge">
<title>Node49&#45;&gt;Node89</title>
<path fill="none" stroke="#191970" d="M1138.5094,-299.1794C1350.6847,-290.9624 2219.5658,-257.3128 2469.7843,-247.6225"/>
<polygon fill="#191970" stroke="#191970" points="1138.1884,-295.6892 1128.3313,-299.5736 1138.4593,-302.6839 1138.1884,-295.6892"/>
</g>
<!-- Node104 -->
<g id="node56" class="node">
<title>Node104</title>
<g id="a_node56"><a xlink:href="GenzMalikRule_8h.html" target="_top" xlink:title="GenzMalikRule.h">
<polygon fill="none" stroke="#000000" points="747,-235.5 747,-254.5 838,-254.5 838,-235.5 747,-235.5"/>
<text text-anchor="middle" x="792.5" y="-242.5" font-family="Helvetica,sans-Serif" font-size="10.00" fill="#000000">GenzMalikRule.h</text>
</a>
</g>
</g>
<!-- Node49&#45;&gt;Node104 -->
<g id="edge59" class="edge">
<title>Node49&#45;&gt;Node104</title>
<path fill="none" stroke="#191970" d="M1044.7519,-292.2445C988.2857,-281.6689 893.9352,-263.9979 838.0234,-253.5261"/>
<polygon fill="#191970" stroke="#191970" points="1044.3633,-295.7325 1054.8367,-294.1333 1045.652,-288.8521 1044.3633,-295.7325"/>
</g>
<!-- Node105 -->
<g id="node57" class="node">
<title>Node105</title>
<g id="a_node57"><a xlink:href="multivector__container_8inl.html" target="_top" xlink:title="multivector_container.inl">
<polygon fill="none" stroke="#000000" points="2796.5,-235.5 2796.5,-254.5 2918.5,-254.5 2918.5,-235.5 2796.5,-235.5"/>
<text text-anchor="middle" x="2857.5" y="-242.5" font-family="Helvetica,sans-Serif" font-size="10.00" fill="#000000">multivector_container.inl</text>
</a>
</g>
</g>
<!-- Node49&#45;&gt;Node105 -->
<g id="edge61" class="edge">
<title>Node49&#45;&gt;Node105</title>
<path fill="none" stroke="#191970" d="M1138.2758,-299.7696C1324.5533,-294.831 2031.6893,-275.7139 2613.5,-255 2675.7836,-252.7825 2746.9918,-249.8144 2796.3387,-247.6889"/>
<polygon fill="#191970" stroke="#191970" points="1137.9248,-296.2776 1128.0209,-300.0411 1138.1101,-303.2752 1137.9248,-296.2776"/>
</g>
<!-- Node51 -->
<g id="node3" class="node">
<title>Node51</title>
<g id="a_node3"><a xlink:href="caching__functors_8inl.html" target="_top" xlink:title="caching_functors.inl">
<polygon fill="none" stroke="#000000" points="139.5,-174 139.5,-193 243.5,-193 243.5,-174 139.5,-174"/>
<text text-anchor="middle" x="191.5" y="-181" font-family="Helvetica,sans-Serif" font-size="10.00" fill="#000000">caching_functors.inl</text>
</a>
</g>
</g>
<!-- Node50&#45;&gt;Node51 -->
<g id="edge2" class="edge">
<title>Node50&#45;&gt;Node51</title>
<path fill="none" stroke="#191970" d="M207.364,-225.9189C203.3142,-215.0901 198.4166,-201.9944 195.1444,-193.2449"/>
<polygon fill="#191970" stroke="#191970" points="204.125,-227.2502 210.9063,-235.3906 210.6815,-224.7982 204.125,-227.2502"/>
</g>
<!-- Node52 -->
<g id="node4" class="node">
<title>Node52</title>
<g id="a_node4"><a xlink:href="caching__functors_8cpp.html" target="_top" xlink:title="caching_functors.cpp">
<polygon fill="none" stroke="#000000" points="11.5,-112.5 11.5,-131.5 121.5,-131.5 121.5,-112.5 11.5,-112.5"/>
<text text-anchor="middle" x="66.5" y="-119.5" font-family="Helvetica,sans-Serif" font-size="10.00" fill="#000000">caching_functors.cpp</text>
</a>
</g>
</g>
<!-- Node51&#45;&gt;Node52 -->
<g id="edge3" class="edge">
<title>Node51&#45;&gt;Node52</title>
<path fill="none" stroke="#191970" d="M162.8035,-169.3813C139.2301,-157.7832 106.4798,-141.6701 85.8941,-131.5419"/>
<polygon fill="#191970" stroke="#191970" points="161.4508,-172.6164 171.9688,-173.8906 164.5411,-166.3355 161.4508,-172.6164"/>
</g>
<!-- Node53 -->
<g id="node5" class="node">
<title>Node53</title>
<g id="a_node5"><a xlink:href="caching__functors_8cu.html" target="_top" xlink:title="caching_functors.cu">
<polygon fill="none" stroke="#000000" points="139.5,-112.5 139.5,-131.5 243.5,-131.5 243.5,-112.5 139.5,-112.5"/>
<text text-anchor="middle" x="191.5" y="-119.5" font-family="Helvetica,sans-Serif" font-size="10.00" fill="#000000">caching_functors.cu</text>
</a>
</g>
</g>
<!-- Node51&#45;&gt;Node53 -->
<g id="edge4" class="edge">
<title>Node51&#45;&gt;Node53</title>
<path fill="none" stroke="#191970" d="M191.5,-163.7462C191.5,-153.0519 191.5,-140.314 191.5,-131.7449"/>
<polygon fill="#191970" stroke="#191970" points="188.0001,-163.8906 191.5,-173.8906 195.0001,-163.8907 188.0001,-163.8906"/>
</g>
<!-- Node54&#45;&gt;Node55 -->
<g id="edge6" class="edge">
<title>Node54&#45;&gt;Node55</title>
<path fill="none" stroke="#191970" d="M439.3427,-169.9955C410.7692,-158.358 370.2377,-141.8501 344.9281,-131.5419"/>
<polygon fill="#191970" stroke="#191970" points="438.3247,-173.36 448.9063,-173.8906 440.9651,-166.8771 438.3247,-173.36"/>
</g>
<!-- Node56 -->
<g id="node8" class="node">
<title>Node56</title>
<g id="a_node8"><a xlink:href="ProcessGenzMalikQuadrature_8h.html" target="_top" xlink:title="ProcessGenzMalikQuadrature.h">
<polygon fill="none" stroke="#000000" points="398,-56.5 398,-75.5 553,-75.5 553,-56.5 398,-56.5"/>
<text text-anchor="middle" x="475.5" y="-63.5" font-family="Helvetica,sans-Serif" font-size="10.00" fill="#000000">ProcessGenzMalikQuadrature.h</text>
</a>
</g>
</g>
<!-- Node55&#45;&gt;Node56 -->
<g id="edge7" class="edge">
<title>Node55&#45;&gt;Node56</title>
<path fill="none" stroke="#191970" d="M357.4614,-108.9231C385.6134,-98.686 424.1055,-84.6889 449.3719,-75.5011"/>
<polygon fill="#191970" stroke="#191970" points="356.1754,-105.6665 347.9735,-112.3733 358.5676,-112.245 356.1754,-105.6665"/>
</g>
<!-- Node57 -->
<g id="node9" class="node">
<title>Node57</title>
<g id="a_node9"><a xlink:href="multidimensional__fit_8inl.html" target="_top" xlink:title="multidimensional_fit.inl">
<polygon fill="none" stroke="#000000" points="263.5,-56.5 263.5,-75.5 379.5,-75.5 379.5,-56.5 263.5,-56.5"/>
<text text-anchor="middle" x="321.5" y="-63.5" font-family="Helvetica,sans-Serif" font-size="10.00" fill="#000000">multidimensional_fit.inl</text>
</a>
</g>
</g>
<!-- Node55&#45;&gt;Node57 -->
<g id="edge9" class="edge">
<title>Node55&#45;&gt;Node57</title>
<path fill="none" stroke="#191970" d="M321.5,-102.1575C321.5,-93.155 321.5,-82.9199 321.5,-75.6427"/>
<polygon fill="#191970" stroke="#191970" points="318.0001,-102.2455 321.5,-112.2455 325.0001,-102.2456 318.0001,-102.2455"/>
</g>
<!-- Node60 -->
<g id="node12" class="node">
<title>Node60</title>
<g id="a_node12"><a xlink:href="genz__malik_8inl.html" target="_top" xlink:title="genz_malik.inl">
<polygon fill="none" stroke="#000000" points="53,-56.5 53,-75.5 132,-75.5 132,-56.5 53,-56.5"/>
<text text-anchor="middle" x="92.5" y="-63.5" font-family="Helvetica,sans-Serif" font-size="10.00" fill="#000000">genz_malik.inl</text>
</a>
</g>
</g>
<!-- Node55&#45;&gt;Node60 -->
<g id="edge12" class="edge">
<title>Node55&#45;&gt;Node60</title>
<path fill="none" stroke="#191970" d="M272.622,-110.0473C230.4728,-99.7401 170.4138,-85.0532 131.445,-75.5237"/>
<polygon fill="#191970" stroke="#191970" points="271.8485,-113.4612 282.3937,-112.4369 273.5113,-106.6616 271.8485,-113.4612"/>
</g>
<!-- Node63 -->
<g id="node15" class="node">
<title>Node63</title>
<g id="a_node15"><a xlink:href="fit__3d__gaussian_8C.html" target="_top" xlink:title="fit_3d_gaussian.C">
<polygon fill="none" stroke="#000000" points="150,-56.5 150,-75.5 245,-75.5 245,-56.5 150,-56.5"/>
<text text-anchor="middle" x="197.5" y="-63.5" font-family="Helvetica,sans-Serif" font-size="10.00" fill="#000000">fit_3d_gaussian.C</text>
</a>
</g>
</g>
<!-- Node55&#45;&gt;Node63 -->
<g id="edge15" class="edge">
<title>Node55&#45;&gt;Node63</title>
<path fill="none" stroke="#191970" d="M291.0476,-108.2473C268.5278,-98.0771 238.4383,-84.4883 218.5382,-75.5011"/>
<polygon fill="#191970" stroke="#191970" points="289.6294,-111.4471 300.1836,-112.3733 292.5105,-105.0675 289.6294,-111.4471"/>
</g>
<!-- Node56&#45;&gt;Node54 -->
<g id="edge8" class="edge">
<title>Node56&#45;&gt;Node54</title>
<path fill="none" stroke="#191970" d="M452.5503,-81.908C443.2314,-89.765 433.4978,-100.1153 428.5,-112 418.5559,-135.6468 443.0818,-160.5741 459.3816,-173.8445"/>
<polygon fill="#191970" stroke="#191970" points="454.7957,-84.5951 460.5035,-75.6692 450.4752,-79.0874 454.7957,-84.5951"/>
</g>
<!-- Node58 -->
<g id="node10" class="node">
<title>Node58</title>
<g id="a_node10"><a xlink:href="multidimensional__fit_8cpp.html" target="_top" xlink:title="multidimensional_fit.cpp">
<polygon fill="none" stroke="#000000" points="230.5,-.5 230.5,-19.5 352.5,-19.5 352.5,-.5 230.5,-.5"/>
<text text-anchor="middle" x="291.5" y="-7.5" font-family="Helvetica,sans-Serif" font-size="10.00" fill="#000000">multidimensional_fit.cpp</text>
</a>
</g>
</g>
<!-- Node57&#45;&gt;Node58 -->
<g id="edge10" class="edge">
<title>Node57&#45;&gt;Node58</title>
<path fill="none" stroke="#191970" d="M311.502,-47.3372C306.5324,-38.0605 300.7356,-27.2398 296.6657,-19.6427"/>
<polygon fill="#191970" stroke="#191970" points="308.4669,-49.0835 316.2744,-56.2455 314.6373,-45.7779 308.4669,-49.0835"/>
</g>
<!-- Node59 -->
<g id="node11" class="node">
<title>Node59</title>
<g id="a_node11"><a xlink:href="multidimensional__fit_8cu.html" target="_top" xlink:title="multidimensional_fit.cu">
<polygon fill="none" stroke="#000000" points="370.5,-.5 370.5,-19.5 486.5,-19.5 486.5,-.5 370.5,-.5"/>
<text text-anchor="middle" x="428.5" y="-7.5" font-family="Helvetica,sans-Serif" font-size="10.00" fill="#000000">multidimensional_fit.cu</text>
</a>
</g>
</g>
<!-- Node57&#45;&gt;Node59 -->
<g id="edge11" class="edge">
<title>Node57&#45;&gt;Node59</title>
<path fill="none" stroke="#191970" d="M349.0199,-51.5971C368.2017,-41.558 393.2678,-28.4393 410.0756,-19.6427"/>
<polygon fill="#191970" stroke="#191970" points="347.375,-48.5075 340.138,-56.2455 350.6209,-54.7095 347.375,-48.5075"/>
</g>
<!-- Node61 -->
<g id="node13" class="node">
<title>Node61</title>
<g id="a_node13"><a xlink:href="genz__malik_8cpp.html" target="_top" xlink:title="genz_malik.cpp">
<polygon fill="none" stroke="#000000" points="0,-.5 0,-19.5 85,-19.5 85,-.5 0,-.5"/>
<text text-anchor="middle" x="42.5" y="-7.5" font-family="Helvetica,sans-Serif" font-size="10.00" fill="#000000">genz_malik.cpp</text>
</a>
</g>
</g>
<!-- Node60&#45;&gt;Node61 -->
<g id="edge13" class="edge">
<title>Node60&#45;&gt;Node61</title>
<path fill="none" stroke="#191970" d="M76.8753,-48.5004C68.3727,-38.9775 58.1782,-27.5596 51.1095,-19.6427"/>
<polygon fill="#191970" stroke="#191970" points="74.5197,-51.1172 83.7907,-56.2455 79.7413,-46.4551 74.5197,-51.1172"/>
</g>
<!-- Node62 -->
<g id="node14" class="node">
<title>Node62</title>
<g id="a_node14"><a xlink:href="genz__malik_8cu.html" target="_top" xlink:title="genz_malik.cu">
<polygon fill="none" stroke="#000000" points="103.5,-.5 103.5,-19.5 183.5,-19.5 183.5,-.5 103.5,-.5"/>
<text text-anchor="middle" x="143.5" y="-7.5" font-family="Helvetica,sans-Serif" font-size="10.00" fill="#000000">genz_malik.cu</text>
</a>
</g>
</g>
<!-- Node60&#45;&gt;Node62 -->
<g id="edge14" class="edge">
<title>Node60&#45;&gt;Node62</title>
<path fill="none" stroke="#191970" d="M108.1749,-48.7884C116.8994,-39.2085 127.4354,-27.6396 134.7183,-19.6427"/>
<polygon fill="#191970" stroke="#191970" points="105.5291,-46.4954 101.3835,-56.2455 110.7046,-51.2088 105.5291,-46.4954"/>
</g>
<!-- Node65 -->
<g id="node17" class="node">
<title>Node65</title>
<g id="a_node17"><a xlink:href="phsp__averaging__functor_8inl.html" target="_top" xlink:title="phsp_averaging_functor.inl">
<polygon fill="none" stroke="#000000" points="1409,-174 1409,-193 1542,-193 1542,-174 1409,-174"/>
<text text-anchor="middle" x="1475.5" y="-181" font-family="Helvetica,sans-Serif" font-size="10.00" fill="#000000">phsp_averaging_functor.inl</text>
</a>
</g>
</g>
<!-- Node64&#45;&gt;Node65 -->
<g id="edge17" class="edge">
<title>Node64&#45;&gt;Node65</title>
<path fill="none" stroke="#191970" d="M1230.9964,-236.0768C1284.2712,-224.6209 1376.3429,-204.8222 1431.021,-193.0645"/>
<polygon fill="#191970" stroke="#191970" points="1230.2404,-232.6593 1221.1998,-238.1834 1231.7121,-239.5029 1230.2404,-232.6593"/>
</g>
<!-- Node68 -->
<g id="node20" class="node">
<title>Node68</title>
<g id="a_node20"><a xlink:href="phsp__basic_8inl.html" target="_top" xlink:title="phsp_basic.inl">
<polygon fill="none" stroke="#000000" points="1572,-174 1572,-193 1651,-193 1651,-174 1572,-174"/>
<text text-anchor="middle" x="1611.5" y="-181" font-family="Helvetica,sans-Serif" font-size="10.00" fill="#000000">phsp_basic.inl</text>
</a>
</g>
</g>
<!-- Node64&#45;&gt;Node68 -->
<g id="edge20" class="edge">
<title>Node64&#45;&gt;Node68</title>
<path fill="none" stroke="#191970" d="M1231.3163,-241.3447C1298.8399,-235.0679 1435.9051,-220.7759 1550.5,-199 1559.1951,-197.3477 1568.4948,-195.1893 1577.1459,-193.0104"/>
<polygon fill="#191970" stroke="#191970" points="1230.7286,-237.8838 1221.0904,-242.2831 1231.3684,-244.8545 1230.7286,-237.8838"/>
</g>
<!-- Node71 -->
<g id="node23" class="node">
<title>Node71</title>
<g id="a_node23"><a xlink:href="phsp__chain_8inl.html" target="_top" xlink:title="phsp_chain.inl">
<polygon fill="none" stroke="#000000" points="1774,-174 1774,-193 1853,-193 1853,-174 1774,-174"/>
<text text-anchor="middle" x="1813.5" y="-181" font-family="Helvetica,sans-Serif" font-size="10.00" fill="#000000">phsp_chain.inl</text>
</a>
</g>
</g>
<!-- Node64&#45;&gt;Node71 -->
<g id="edge23" class="edge">
<title>Node64&#45;&gt;Node71</title>
<path fill="none" stroke="#191970" d="M1231.3072,-240.9471C1313.3945,-232.9809 1501.421,-214.691 1659.5,-199 1698.4064,-195.1381 1742.8341,-190.6591 1773.939,-187.512"/>
<polygon fill="#191970" stroke="#191970" points="1230.7502,-237.4847 1221.1349,-241.9341 1231.4262,-244.452 1230.7502,-237.4847"/>
</g>
<!-- Node74 -->
<g id="node26" class="node">
<title>Node74</title>
<g id="a_node26"><a xlink:href="phsp__evaluating__functor_8inl.html" target="_top" xlink:title="phsp_evaluating_functor.inl">
<polygon fill="none" stroke="#000000" points="598,-174 598,-193 733,-193 733,-174 598,-174"/>
<text text-anchor="middle" x="665.5" y="-181" font-family="Helvetica,sans-Serif" font-size="10.00" fill="#000000">phsp_evaluating_functor.inl</text>
</a>
</g>
</g>
<!-- Node64&#45;&gt;Node74 -->
<g id="edge26" class="edge">
<title>Node64&#45;&gt;Node74</title>
<path fill="none" stroke="#191970" d="M1147.7716,-240.1025C1057.4627,-229.5033 843.1902,-204.3549 733.2034,-191.4461"/>
<polygon fill="#191970" stroke="#191970" points="1147.5617,-243.6018 1157.9015,-241.2914 1148.3777,-236.6495 1147.5617,-243.6018"/>
</g>
<!-- Node77 -->
<g id="node29" class="node">
<title>Node77</title>
<g id="a_node29"><a xlink:href="phsp__reweighting_8inl.html" target="_top" xlink:title="phsp_reweighting.inl">
<polygon fill="none" stroke="#000000" points="880.5,-174 880.5,-193 984.5,-193 984.5,-174 880.5,-174"/>
<text text-anchor="middle" x="932.5" y="-181" font-family="Helvetica,sans-Serif" font-size="10.00" fill="#000000">phsp_reweighting.inl</text>
</a>
</g>
</g>
<!-- Node64&#45;&gt;Node77 -->
<g id="edge29" class="edge">
<title>Node64&#45;&gt;Node77</title>
<path fill="none" stroke="#191970" d="M1147.7719,-235.1007C1108.6749,-225.8145 1048.6127,-211.5208 996.5,-199 988.4965,-197.077 979.9325,-195.0097 971.7563,-193.0312"/>
<polygon fill="#191970" stroke="#191970" points="1147.1923,-238.5603 1157.7304,-237.4653 1148.8096,-231.7497 1147.1923,-238.5603"/>
</g>
<!-- Node80 -->
<g id="node32" class="node">
<title>Node80</title>
<g id="a_node32"><a xlink:href="phsp__unweighting_8inl.html" target="_top" xlink:title="phsp_unweighting.inl">
<polygon fill="none" stroke="#000000" points="1006,-174 1006,-193 1113,-193 1113,-174 1006,-174"/>
<text text-anchor="middle" x="1059.5" y="-181" font-family="Helvetica,sans-Serif" font-size="10.00" fill="#000000">phsp_unweighting.inl</text>
</a>
</g>
</g>
<!-- Node64&#45;&gt;Node80 -->
<g id="edge32" class="edge">
<title>Node64&#45;&gt;Node80</title>
<path fill="none" stroke="#191970" d="M1159.9819,-231.0357C1135.4423,-219.4265 1101.1742,-203.2151 1079.6699,-193.0419"/>
<polygon fill="#191970" stroke="#191970" points="1158.6512,-234.278 1169.1875,-235.3906 1161.6447,-227.9504 1158.6512,-234.278"/>
</g>
<!-- Node83 -->
<g id="node35" class="node">
<title>Node83</title>
<g id="a_node35"><a xlink:href="generate__4body__decay__chain_8C.html" target="_top" xlink:title="generate_4body_decay\l_chain.C">
<polygon fill="none" stroke="#000000" points="1131,-168.5 1131,-198.5 1248,-198.5 1248,-168.5 1131,-168.5"/>
<text text-anchor="start" x="1139" y="-186.5" font-family="Helvetica,sans-Serif" font-size="10.00" fill="#000000">generate_4body_decay</text>
<text text-anchor="middle" x="1189.5" y="-175.5" font-family="Helvetica,sans-Serif" font-size="10.00" fill="#000000">_chain.C</text>
</a>
</g>
</g>
<!-- Node64&#45;&gt;Node83 -->
<g id="edge35" class="edge">
<title>Node64&#45;&gt;Node83</title>
<path fill="none" stroke="#191970" d="M1189.5,-225.3693C1189.5,-216.681 1189.5,-206.6241 1189.5,-198.5446"/>
<polygon fill="#191970" stroke="#191970" points="1186.0001,-225.3906 1189.5,-235.3906 1193.0001,-225.3907 1186.0001,-225.3906"/>
</g>
<!-- Node84 -->
<g id="node36" class="node">
<title>Node84</title>
<g id="a_node36"><a xlink:href="generate__decay__chain_8C.html" target="_top" xlink:title="generate_decay_chain.C">
<polygon fill="none" stroke="#000000" points="1266.5,-174 1266.5,-193 1390.5,-193 1390.5,-174 1266.5,-174"/>
<text text-anchor="middle" x="1328.5" y="-181" font-family="Helvetica,sans-Serif" font-size="10.00" fill="#000000">generate_decay_chain.C</text>
</a>
</g>
</g>
<!-- Node64&#45;&gt;Node84 -->
<g id="edge36" class="edge">
<title>Node64&#45;&gt;Node84</title>
<path fill="none" stroke="#191970" d="M1220.3675,-231.3428C1246.6506,-219.7139 1283.7372,-203.3051 1306.9338,-193.0419"/>
<polygon fill="#191970" stroke="#191970" points="1218.9475,-228.1437 1211.2188,-235.3906 1221.7798,-234.5452 1218.9475,-228.1437"/>
</g>
<!-- Node66 -->
<g id="node18" class="node">
<title>Node66</title>
<g id="a_node18"><a xlink:href="phsp__averaging__functor_8cpp.html" target="_top" xlink:title="phsp_averaging_functor.cpp">
<polygon fill="none" stroke="#000000" points="1259,-112.5 1259,-131.5 1398,-131.5 1398,-112.5 1259,-112.5"/>
<text text-anchor="middle" x="1328.5" y="-119.5" font-family="Helvetica,sans-Serif" font-size="10.00" fill="#000000">phsp_averaging_functor.cpp</text>
</a>
</g>
</g>
<!-- Node65&#45;&gt;Node66 -->
<g id="edge18" class="edge">
<title>Node65&#45;&gt;Node66</title>
<path fill="none" stroke="#191970" d="M1443.221,-169.9955C1415.4045,-158.358 1375.9467,-141.8501 1351.3075,-131.5419"/>
<polygon fill="#191970" stroke="#191970" points="1441.9552,-173.2599 1452.5313,-173.8906 1444.6569,-166.8022 1441.9552,-173.2599"/>
</g>
<!-- Node67 -->
<g id="node19" class="node">
<title>Node67</title>
<g id="a_node19"><a xlink:href="phsp__averaging__functor_8cu.html" target="_top" xlink:title="phsp_averaging_functor.cu">
<polygon fill="none" stroke="#000000" points="1416.5,-112.5 1416.5,-131.5 1550.5,-131.5 1550.5,-112.5 1416.5,-112.5"/>
<text text-anchor="middle" x="1483.5" y="-119.5" font-family="Helvetica,sans-Serif" font-size="10.00" fill="#000000">phsp_averaging_functor.cu</text>
</a>
</g>
</g>
<!-- Node65&#45;&gt;Node67 -->
<g id="edge19" class="edge">
<title>Node65&#45;&gt;Node67</title>
<path fill="none" stroke="#191970" d="M1478.0696,-163.7462C1479.4607,-153.0519 1481.1177,-140.314 1482.2324,-131.7449"/>
<polygon fill="#191970" stroke="#191970" points="1474.5693,-163.5227 1476.75,-173.8906 1481.5108,-164.4257 1474.5693,-163.5227"/>
</g>
<!-- Node69 -->
<g id="node21" class="node">
<title>Node69</title>
<g id="a_node21"><a xlink:href="phsp__basic_8cpp.html" target="_top" xlink:title="phsp_basic.cpp">
<polygon fill="none" stroke="#000000" points="1569,-112.5 1569,-131.5 1654,-131.5 1654,-112.5 1569,-112.5"/>
<text text-anchor="middle" x="1611.5" y="-119.5" font-family="Helvetica,sans-Serif" font-size="10.00" fill="#000000">phsp_basic.cpp</text>
</a>
</g>
</g>
<!-- Node68&#45;&gt;Node69 -->
<g id="edge21" class="edge">
<title>Node68&#45;&gt;Node69</title>
<path fill="none" stroke="#191970" d="M1611.5,-163.7462C1611.5,-153.0519 1611.5,-140.314 1611.5,-131.7449"/>
<polygon fill="#191970" stroke="#191970" points="1608.0001,-163.8906 1611.5,-173.8906 1615.0001,-163.8907 1608.0001,-163.8906"/>
</g>
<!-- Node70 -->
<g id="node22" class="node">
<title>Node70</title>
<g id="a_node22"><a xlink:href="phsp__basic_8cu.html" target="_top" xlink:title="phsp_basic.cu">
<polygon fill="none" stroke="#000000" points="1672.5,-112.5 1672.5,-131.5 1752.5,-131.5 1752.5,-112.5 1672.5,-112.5"/>
<text text-anchor="middle" x="1712.5" y="-119.5" font-family="Helvetica,sans-Serif" font-size="10.00" fill="#000000">phsp_basic.cu</text>
</a>
</g>
</g>
<!-- Node68&#45;&gt;Node70 -->
<g id="edge22" class="edge">
<title>Node68&#45;&gt;Node70</title>
<path fill="none" stroke="#191970" d="M1635.9674,-168.6015C1654.9054,-157.07 1680.5659,-141.445 1696.8296,-131.5419"/>
<polygon fill="#191970" stroke="#191970" points="1634.0021,-165.7004 1627.2813,-173.8906 1637.6427,-171.6792 1634.0021,-165.7004"/>
</g>
<!-- Node72 -->
<g id="node24" class="node">
<title>Node72</title>
<g id="a_node24"><a xlink:href="phsp__chain_8cpp.html" target="_top" xlink:title="phsp_chain.cpp">
<polygon fill="none" stroke="#000000" points="1771,-112.5 1771,-131.5 1856,-131.5 1856,-112.5 1771,-112.5"/>
<text text-anchor="middle" x="1813.5" y="-119.5" font-family="Helvetica,sans-Serif" font-size="10.00" fill="#000000">phsp_chain.cpp</text>
</a>
</g>
</g>
<!-- Node71&#45;&gt;Node72 -->
<g id="edge24" class="edge">
<title>Node71&#45;&gt;Node72</title>
<path fill="none" stroke="#191970" d="M1813.5,-163.7462C1813.5,-153.0519 1813.5,-140.314 1813.5,-131.7449"/>
<polygon fill="#191970" stroke="#191970" points="1810.0001,-163.8906 1813.5,-173.8906 1817.0001,-163.8907 1810.0001,-163.8906"/>
</g>
<!-- Node73 -->
<g id="node25" class="node">
<title>Node73</title>
<g id="a_node25"><a xlink:href="phsp__chain_8cu.html" target="_top" xlink:title="phsp_chain.cu">
<polygon fill="none" stroke="#000000" points="1874.5,-112.5 1874.5,-131.5 1954.5,-131.5 1954.5,-112.5 1874.5,-112.5"/>
<text text-anchor="middle" x="1914.5" y="-119.5" font-family="Helvetica,sans-Serif" font-size="10.00" fill="#000000">phsp_chain.cu</text>
</a>
</g>
</g>
<!-- Node71&#45;&gt;Node73 -->
<g id="edge25" class="edge">
<title>Node71&#45;&gt;Node73</title>
<path fill="none" stroke="#191970" d="M1837.9674,-168.6015C1856.9054,-157.07 1882.5659,-141.445 1898.8296,-131.5419"/>
<polygon fill="#191970" stroke="#191970" points="1836.0021,-165.7004 1829.2813,-173.8906 1839.6427,-171.6792 1836.0021,-165.7004"/>
</g>
<!-- Node75 -->
<g id="node27" class="node">
<title>Node75</title>
<g id="a_node27"><a xlink:href="phsp__evaluating__functor_8cpp.html" target="_top" xlink:title="phsp_evaluating_functor.cpp">
<polygon fill="none" stroke="#000000" points="438,-112.5 438,-131.5 579,-131.5 579,-112.5 438,-112.5"/>
<text text-anchor="middle" x="508.5" y="-119.5" font-family="Helvetica,sans-Serif" font-size="10.00" fill="#000000">phsp_evaluating_functor.cpp</text>
</a>
</g>
</g>
<!-- Node74&#45;&gt;Node75 -->
<g id="edge27" class="edge">
<title>Node74&#45;&gt;Node75</title>
<path fill="none" stroke="#191970" d="M631.4137,-170.1477C601.6847,-158.5023 559.2893,-141.8952 532.859,-131.5419"/>
<polygon fill="#191970" stroke="#191970" points="630.381,-173.5021 640.9688,-173.8906 632.9342,-166.9843 630.381,-173.5021"/>
</g>
<!-- Node76 -->
<g id="node28" class="node">
<title>Node76</title>
<g id="a_node28"><a xlink:href="phsp__evaluating__functor_8cu.html" target="_top" xlink:title="phsp_evaluating_functor.cu">
<polygon fill="none" stroke="#000000" points="597.5,-112.5 597.5,-131.5 733.5,-131.5 733.5,-112.5 597.5,-112.5"/>
<text text-anchor="middle" x="665.5" y="-119.5" font-family="Helvetica,sans-Serif" font-size="10.00" fill="#000000">phsp_evaluating_functor.cu</text>
</a>
</g>
</g>
<!-- Node74&#45;&gt;Node76 -->
<g id="edge28" class="edge">
<title>Node74&#45;&gt;Node76</title>
<path fill="none" stroke="#191970" d="M665.5,-163.7462C665.5,-153.0519 665.5,-140.314 665.5,-131.7449"/>
<polygon fill="#191970" stroke="#191970" points="662.0001,-163.8906 665.5,-173.8906 669.0001,-163.8907 662.0001,-163.8906"/>
</g>
<!-- Node78 -->
<g id="node30" class="node">
<title>Node78</title>
<g id="a_node30"><a xlink:href="phsp__reweighting_8cpp.html" target="_top" xlink:title="phsp_reweighting.cpp">
<polygon fill="none" stroke="#000000" points="751.5,-112.5 751.5,-131.5 861.5,-131.5 861.5,-112.5 751.5,-112.5"/>
<text text-anchor="middle" x="806.5" y="-119.5" font-family="Helvetica,sans-Serif" font-size="10.00" fill="#000000">phsp_reweighting.cpp</text>
</a>
</g>
</g>
<!-- Node77&#45;&gt;Node78 -->
<g id="edge30" class="edge">
<title>Node77&#45;&gt;Node78</title>
<path fill="none" stroke="#191970" d="M903.5739,-169.3813C879.8119,-157.7832 846.7997,-141.6701 826.0493,-131.5419"/>
<polygon fill="#191970" stroke="#191970" points="902.2906,-172.6496 912.8125,-173.8906 905.3611,-166.3589 902.2906,-172.6496"/>
</g>
<!-- Node79 -->
<g id="node31" class="node">
<title>Node79</title>
<g id="a_node31"><a xlink:href="phsp__reweighting_8cu.html" target="_top" xlink:title="phsp_reweighting.cu">
<polygon fill="none" stroke="#000000" points="880,-112.5 880,-131.5 985,-131.5 985,-112.5 880,-112.5"/>
<text text-anchor="middle" x="932.5" y="-119.5" font-family="Helvetica,sans-Serif" font-size="10.00" fill="#000000">phsp_reweighting.cu</text>
</a>
</g>
</g>
<!-- Node77&#45;&gt;Node79 -->
<g id="edge31" class="edge">
<title>Node77&#45;&gt;Node79</title>
<path fill="none" stroke="#191970" d="M932.5,-163.7462C932.5,-153.0519 932.5,-140.314 932.5,-131.7449"/>
<polygon fill="#191970" stroke="#191970" points="929.0001,-163.8906 932.5,-173.8906 936.0001,-163.8907 929.0001,-163.8906"/>
</g>
<!-- Node81 -->
<g id="node33" class="node">
<title>Node81</title>
<g id="a_node33"><a xlink:href="phsp__unweighting_8cpp.html" target="_top" xlink:title="phsp_unweighting.cpp">
<polygon fill="none" stroke="#000000" points="1003,-112.5 1003,-131.5 1116,-131.5 1116,-112.5 1003,-112.5"/>
<text text-anchor="middle" x="1059.5" y="-119.5" font-family="Helvetica,sans-Serif" font-size="10.00" fill="#000000">phsp_unweighting.cpp</text>
</a>
</g>
</g>
<!-- Node80&#45;&gt;Node81 -->
<g id="edge33" class="edge">
<title>Node80&#45;&gt;Node81</title>
<path fill="none" stroke="#191970" d="M1059.5,-163.7462C1059.5,-153.0519 1059.5,-140.314 1059.5,-131.7449"/>
<polygon fill="#191970" stroke="#191970" points="1056.0001,-163.8906 1059.5,-173.8906 1063.0001,-163.8907 1056.0001,-163.8906"/>
</g>
<!-- Node82 -->
<g id="node34" class="node">
<title>Node82</title>
<g id="a_node34"><a xlink:href="phsp__unweighting_8cu.html" target="_top" xlink:title="phsp_unweighting.cu">
<polygon fill="none" stroke="#000000" points="1134,-112.5 1134,-131.5 1241,-131.5 1241,-112.5 1134,-112.5"/>
<text text-anchor="middle" x="1187.5" y="-119.5" font-family="Helvetica,sans-Serif" font-size="10.00" fill="#000000">phsp_unweighting.cu</text>
</a>
</g>
</g>
<!-- Node80&#45;&gt;Node82 -->
<g id="edge34" class="edge">
<title>Node80&#45;&gt;Node82</title>
<path fill="none" stroke="#191970" d="M1088.5639,-169.5357C1112.7261,-157.9265 1146.467,-141.7151 1167.6404,-131.5419"/>
<polygon fill="#191970" stroke="#191970" points="1086.9978,-166.4051 1079.5,-173.8906 1090.0294,-172.7146 1086.9978,-166.4051"/>
</g>
<!-- Node86 -->
<g id="node38" class="node">
<title>Node86</title>
<g id="a_node38"><a xlink:href="adaptive__gauss__kronrod_8inl.html" target="_top" xlink:title="adaptive_gauss_kronrod.inl">
<polygon fill="none" stroke="#000000" points="1976,-174 1976,-193 2111,-193 2111,-174 1976,-174"/>
<text text-anchor="middle" x="2043.5" y="-181" font-family="Helvetica,sans-Serif" font-size="10.00" fill="#000000">adaptive_gauss_kronrod.inl</text>
</a>
</g>
</g>
<!-- Node85&#45;&gt;Node86 -->
<g id="edge38" class="edge">
<title>Node85&#45;&gt;Node86</title>
<path fill="none" stroke="#191970" d="M1750.3955,-233.7115C1818.5737,-222.0319 1923.875,-203.9929 1987.9649,-193.0137"/>
<polygon fill="#191970" stroke="#191970" points="1749.4653,-230.3198 1740.1999,-235.4581 1750.6473,-237.2193 1749.4653,-230.3198"/>
</g>
<!-- Node87 -->
<g id="node39" class="node">
<title>Node87</title>
<g id="a_node39"><a xlink:href="adaptive__gauss__kronrod_8cpp.html" target="_top" xlink:title="adaptive_gauss_kronrod.cpp">
<polygon fill="none" stroke="#000000" points="1973,-112.5 1973,-131.5 2114,-131.5 2114,-112.5 1973,-112.5"/>
<text text-anchor="middle" x="2043.5" y="-119.5" font-family="Helvetica,sans-Serif" font-size="10.00" fill="#000000">adaptive_gauss_kronrod.cpp</text>
</a>
</g>
</g>
<!-- Node86&#45;&gt;Node87 -->
<g id="edge39" class="edge">
<title>Node86&#45;&gt;Node87</title>
<path fill="none" stroke="#191970" d="M2043.5,-163.7462C2043.5,-153.0519 2043.5,-140.314 2043.5,-131.7449"/>
<polygon fill="#191970" stroke="#191970" points="2040.0001,-163.8906 2043.5,-173.8906 2047.0001,-163.8907 2040.0001,-163.8906"/>
</g>
<!-- Node88 -->
<g id="node40" class="node">
<title>Node88</title>
<g id="a_node40"><a xlink:href="adaptive__gauss__kronrod_8cu.html" target="_top" xlink:title="adaptive_gauss_kronrod.cu">
<polygon fill="none" stroke="#000000" points="2132.5,-112.5 2132.5,-131.5 2268.5,-131.5 2268.5,-112.5 2132.5,-112.5"/>
<text text-anchor="middle" x="2200.5" y="-119.5" font-family="Helvetica,sans-Serif" font-size="10.00" fill="#000000">adaptive_gauss_kronrod.cu</text>
</a>
</g>
</g>
<!-- Node86&#45;&gt;Node88 -->
<g id="edge40" class="edge">
<title>Node86&#45;&gt;Node88</title>
<path fill="none" stroke="#191970" d="M2077.5863,-170.1477C2107.3153,-158.5023 2149.7107,-141.8952 2176.141,-131.5419"/>
<polygon fill="#191970" stroke="#191970" points="2076.0658,-166.9843 2068.0313,-173.8906 2078.619,-173.5021 2076.0658,-166.9843"/>
</g>
<!-- Node90 -->
<g id="node42" class="node">
<title>Node90</title>
<g id="a_node42"><a xlink:href="DeltaDMassBackground_8h.html" target="_top" xlink:title="DeltaDMassBackground.h">
<polygon fill="none" stroke="#000000" points="2426.5,-174 2426.5,-193 2556.5,-193 2556.5,-174 2426.5,-174"/>
<text text-anchor="middle" x="2491.5" y="-181" font-family="Helvetica,sans-Serif" font-size="10.00" fill="#000000">DeltaDMassBackground.h</text>
</a>
</g>
</g>
<!-- Node89&#45;&gt;Node90 -->
<g id="edge42" class="edge">
<title>Node89&#45;&gt;Node90</title>
<path fill="none" stroke="#191970" d="M2524.2209,-227.2465C2515.9417,-216.1775 2505.6031,-202.3552 2498.7888,-193.2449"/>
<polygon fill="#191970" stroke="#191970" points="2521.5201,-229.4792 2530.3125,-235.3906 2527.1256,-225.2864 2521.5201,-229.4792"/>
</g>
<!-- Node91 -->
<g id="node43" class="node">
<title>Node91</title>
<g id="a_node43"><a xlink:href="particle__mass_8inl.html" target="_top" xlink:title="particle_mass.inl">
<polygon fill="none" stroke="#000000" points="2516.5,-112.5 2516.5,-131.5 2606.5,-131.5 2606.5,-112.5 2516.5,-112.5"/>
<text text-anchor="middle" x="2561.5" y="-119.5" font-family="Helvetica,sans-Serif" font-size="10.00" fill="#000000">particle_mass.inl</text>
</a>
</g>
</g>
<!-- Node89&#45;&gt;Node91 -->
<g id="edge57" class="edge">
<title>Node89&#45;&gt;Node91</title>
<path fill="none" stroke="#191970" d="M2551.6593,-226.9387C2557.1188,-218.8664 2562.7122,-208.9416 2565.5,-199 2572.078,-175.5422 2567.2812,-146.5202 2563.9584,-131.7019"/>
<polygon fill="#191970" stroke="#191970" points="2548.7324,-225.0134 2545.7089,-235.1677 2554.4048,-229.1151 2548.7324,-225.0134"/>
</g>
<!-- Node94 -->
<g id="node46" class="node">
<title>Node94</title>
<g id="a_node46"><a xlink:href="Ipatia_8h.html" target="_top" xlink:title="Ipatia.h">
<polygon fill="none" stroke="#000000" points="2613,-174 2613,-193 2662,-193 2662,-174 2613,-174"/>
<text text-anchor="middle" x="2637.5" y="-181" font-family="Helvetica,sans-Serif" font-size="10.00" fill="#000000">Ipatia.h</text>
</a>
</g>
</g>
<!-- Node89&#45;&gt;Node94 -->
<g id="edge46" class="edge">
<title>Node89&#45;&gt;Node94</title>
<path fill="none" stroke="#191970" d="M2561.7252,-230.1015C2580.4756,-218.57 2605.8821,-202.945 2621.9847,-193.0419"/>
<polygon fill="#191970" stroke="#191970" points="2559.8095,-227.1707 2553.125,-235.3906 2563.4766,-233.1333 2559.8095,-227.1707"/>
</g>
<!-- Node98 -->
<g id="node50" class="node">
<title>Node98</title>
<g id="a_node50"><a xlink:href="splot_8inl.html" target="_top" xlink:title="splot.inl">
<polygon fill="none" stroke="#000000" points="2727.5,-174 2727.5,-193 2777.5,-193 2777.5,-174 2727.5,-174"/>
<text text-anchor="middle" x="2752.5" y="-181" font-family="Helvetica,sans-Serif" font-size="10.00" fill="#000000">splot.inl</text>
</a>
</g>
</g>
<!-- Node89&#45;&gt;Node98 -->
<g id="edge51" class="edge">
<title>Node89&#45;&gt;Node98</title>
<path fill="none" stroke="#191970" d="M2580.924,-232.5787C2624.8482,-220.0144 2691.2458,-201.0216 2727.2045,-190.7357"/>
<polygon fill="#191970" stroke="#191970" points="2579.7456,-229.2754 2571.0938,-235.3906 2581.6707,-236.0054 2579.7456,-229.2754"/>
</g>
<!-- Node101 -->
<g id="node53" class="node">
<title>Node101</title>
<g id="a_node53"><a xlink:href="gauss__kronrod_8inl.html" target="_top" xlink:title="gauss_kronrod.inl">
<polygon fill="none" stroke="#000000" points="2315,-174 2315,-193 2408,-193 2408,-174 2315,-174"/>
<text text-anchor="middle" x="2361.5" y="-181" font-family="Helvetica,sans-Serif" font-size="10.00" fill="#000000">gauss_kronrod.inl</text>
</a>
</g>
</g>
<!-- Node89&#45;&gt;Node101 -->
<g id="edge54" class="edge">
<title>Node89&#45;&gt;Node101</title>
<path fill="none" stroke="#191970" d="M2500.1547,-231.9504C2466.7897,-220.2916 2418.6934,-203.4852 2388.8069,-193.0419"/>
<polygon fill="#191970" stroke="#191970" points="2499.4052,-235.3959 2510,-235.3906 2501.7143,-228.7877 2499.4052,-235.3959"/>
</g>
<!-- Node90&#45;&gt;Node91 -->
<g id="edge43" class="edge">
<title>Node90&#45;&gt;Node91</title>
<path fill="none" stroke="#191970" d="M2510.2257,-167.0482C2523.0515,-155.7798 2539.6281,-141.216 2550.4083,-131.7449"/>
<polygon fill="#191970" stroke="#191970" points="2507.6399,-164.661 2502.4375,-173.8906 2512.2601,-169.9197 2507.6399,-164.661"/>
</g>
<!-- Node92 -->
<g id="node44" class="node">
<title>Node92</title>
<g id="a_node44"><a xlink:href="particle__mass_8cpp.html" target="_top" xlink:title="particle_mass.cpp">
<polygon fill="none" stroke="#000000" points="2399.5,-56.5 2399.5,-75.5 2495.5,-75.5 2495.5,-56.5 2399.5,-56.5"/>
<text text-anchor="middle" x="2447.5" y="-63.5" font-family="Helvetica,sans-Serif" font-size="10.00" fill="#000000">particle_mass.cpp</text>
</a>
</g>
</g>
<!-- Node91&#45;&gt;Node92 -->
<g id="edge44" class="edge">
<title>Node91&#45;&gt;Node92</title>
<path fill="none" stroke="#191970" d="M2532.6679,-107.8368C2512.0605,-97.7139 2484.8918,-84.3679 2466.8416,-75.5011"/>
<polygon fill="#191970" stroke="#191970" points="2531.384,-111.1056 2541.9027,-112.3733 2534.4703,-104.8227 2531.384,-111.1056"/>
</g>
<!-- Node93 -->
<g id="node45" class="node">
<title>Node93</title>
<g id="a_node45"><a xlink:href="particle__mass_8cu.html" target="_top" xlink:title="particle_mass.cu">
<polygon fill="none" stroke="#000000" points="2514,-56.5 2514,-75.5 2605,-75.5 2605,-56.5 2514,-56.5"/>
<text text-anchor="middle" x="2559.5" y="-63.5" font-family="Helvetica,sans-Serif" font-size="10.00" fill="#000000">particle_mass.cu</text>
</a>
</g>
</g>
<!-- Node91&#45;&gt;Node93 -->
<g id="edge45" class="edge">
<title>Node91&#45;&gt;Node93</title>
<path fill="none" stroke="#191970" d="M2560.7913,-102.1575C2560.4698,-93.155 2560.1043,-82.9199 2559.8444,-75.6427"/>
<polygon fill="#191970" stroke="#191970" points="2557.2968,-102.3769 2561.1516,-112.2455 2564.2924,-102.127 2557.2968,-102.3769"/>
</g>
<!-- Node94&#45;&gt;Node91 -->
<g id="edge50" class="edge">
<title>Node94&#45;&gt;Node91</title>
<path fill="none" stroke="#191970" d="M2617.566,-167.3692C2603.5875,-156.0576 2585.3581,-141.3062 2573.5424,-131.7449"/>
<polygon fill="#191970" stroke="#191970" points="2615.6496,-170.3209 2625.625,-173.8906 2620.053,-164.8793 2615.6496,-170.3209"/>
</g>
<!-- Node95 -->
<g id="node47" class="node">
<title>Node95</title>
<g id="a_node47"><a xlink:href="Ipatia__plus__argus_8inl.html" target="_top" xlink:title="Ipatia_plus_argus.inl">
<polygon fill="none" stroke="#000000" points="2624.5,-112.5 2624.5,-131.5 2730.5,-131.5 2730.5,-112.5 2624.5,-112.5"/>
<text text-anchor="middle" x="2677.5" y="-119.5" font-family="Helvetica,sans-Serif" font-size="10.00" fill="#000000">Ipatia_plus_argus.inl</text>
</a>
</g>
</g>
<!-- Node94&#45;&gt;Node95 -->
<g id="edge47" class="edge">
<title>Node94&#45;&gt;Node95</title>
<path fill="none" stroke="#191970" d="M2649.2614,-165.4169C2656.424,-154.4043 2665.2951,-140.765 2671.1619,-131.7449"/>
<polygon fill="#191970" stroke="#191970" points="2646.2683,-163.5994 2643.75,-173.8906 2652.1363,-167.416 2646.2683,-163.5994"/>
</g>
<!-- Node96 -->
<g id="node48" class="node">
<title>Node96</title>
<g id="a_node48"><a xlink:href="ipatia__plus__argus_8cpp.html" target="_top" xlink:title="ipatia_plus_argus.cpp">
<polygon fill="none" stroke="#000000" points="2623,-56.5 2623,-75.5 2734,-75.5 2734,-56.5 2623,-56.5"/>
<text text-anchor="middle" x="2678.5" y="-63.5" font-family="Helvetica,sans-Serif" font-size="10.00" fill="#000000">ipatia_plus_argus.cpp</text>
</a>
</g>
</g>
<!-- Node95&#45;&gt;Node96 -->
<g id="edge48" class="edge">
<title>Node95&#45;&gt;Node96</title>
<path fill="none" stroke="#191970" d="M2677.8543,-102.1575C2678.0151,-93.155 2678.1979,-82.9199 2678.3278,-75.6427"/>
<polygon fill="#191970" stroke="#191970" points="2674.3534,-102.1846 2677.6742,-112.2455 2681.3523,-102.3097 2674.3534,-102.1846"/>
</g>
<!-- Node97 -->
<g id="node49" class="node">
<title>Node97</title>
<g id="a_node49"><a xlink:href="ipatia__plus__argus_8cu.html" target="_top" xlink:title="ipatia_plus_argus.cu">
<polygon fill="none" stroke="#000000" points="2752.5,-56.5 2752.5,-75.5 2858.5,-75.5 2858.5,-56.5 2752.5,-56.5"/>
<text text-anchor="middle" x="2805.5" y="-63.5" font-family="Helvetica,sans-Serif" font-size="10.00" fill="#000000">ipatia_plus_argus.cu</text>
</a>
</g>
</g>
<!-- Node95&#45;&gt;Node97 -->
<g id="edge49" class="edge">
<title>Node95&#45;&gt;Node97</title>
<path fill="none" stroke="#191970" d="M2708.9348,-108.2473C2732.1809,-98.0771 2763.2411,-84.4883 2783.7831,-75.5011"/>
<polygon fill="#191970" stroke="#191970" points="2707.2627,-105.1585 2699.504,-112.3733 2710.0685,-111.5716 2707.2627,-105.1585"/>
</g>
<!-- Node99 -->
<g id="node51" class="node">
<title>Node99</title>
<g id="a_node51"><a xlink:href="splot_8cpp.html" target="_top" xlink:title="splot.cpp">
<polygon fill="none" stroke="#000000" points="2748.5,-112.5 2748.5,-131.5 2804.5,-131.5 2804.5,-112.5 2748.5,-112.5"/>
<text text-anchor="middle" x="2776.5" y="-119.5" font-family="Helvetica,sans-Serif" font-size="10.00" fill="#000000">splot.cpp</text>
</a>
</g>
</g>
<!-- Node98&#45;&gt;Node99 -->
<g id="edge52" class="edge">
<title>Node98&#45;&gt;Node99</title>
<path fill="none" stroke="#191970" d="M2759.9463,-164.4189C2764.1722,-153.5901 2769.2827,-140.4944 2772.6971,-131.7449"/>
<polygon fill="#191970" stroke="#191970" points="2756.625,-163.3024 2756.25,-173.8906 2763.146,-165.8473 2756.625,-163.3024"/>
</g>
<!-- Node100 -->
<g id="node52" class="node">
<title>Node100</title>
<g id="a_node52"><a xlink:href="splot_8cu.html" target="_top" xlink:title="splot.cu">
<polygon fill="none" stroke="#000000" points="2823,-112.5 2823,-131.5 2874,-131.5 2874,-112.5 2823,-112.5"/>
<text text-anchor="middle" x="2848.5" y="-119.5" font-family="Helvetica,sans-Serif" font-size="10.00" fill="#000000">splot.cu</text>
</a>
</g>
</g>
<!-- Node98&#45;&gt;Node100 -->
<g id="edge53" class="edge">
<title>Node98&#45;&gt;Node100</title>
<path fill="none" stroke="#191970" d="M2776.2486,-168.286C2794.1993,-156.7864 2818.2873,-141.355 2833.6053,-131.5419"/>
<polygon fill="#191970" stroke="#191970" points="2774.0323,-165.5492 2767.5,-173.8906 2777.8083,-171.4434 2774.0323,-165.5492"/>
</g>
<!-- Node102 -->
<g id="node54" class="node">
<title>Node102</title>
<g id="a_node54"><a xlink:href="gauss__kronrod_8cpp.html" target="_top" xlink:title="gauss_kronrod.cpp">
<polygon fill="none" stroke="#000000" points="2287,-112.5 2287,-131.5 2386,-131.5 2386,-112.5 2287,-112.5"/>
<text text-anchor="middle" x="2336.5" y="-119.5" font-family="Helvetica,sans-Serif" font-size="10.00" fill="#000000">gauss_kronrod.cpp</text>
</a>
</g>
</g>
<!-- Node101&#45;&gt;Node102 -->
<g id="edge55" class="edge">
<title>Node101&#45;&gt;Node102</title>
<path fill="none" stroke="#191970" d="M2353.7434,-164.4189C2349.3415,-153.5901 2344.0181,-140.4944 2340.4613,-131.7449"/>
<polygon fill="#191970" stroke="#191970" points="2350.5856,-165.9448 2357.5938,-173.8906 2357.0702,-163.3087 2350.5856,-165.9448"/>
</g>
<!-- Node103 -->
<g id="node55" class="node">
<title>Node103</title>
<g id="a_node55"><a xlink:href="gauss__kronrod_8cu.html" target="_top" xlink:title="gauss_kronrod.cu">
<polygon fill="none" stroke="#000000" points="2404.5,-112.5 2404.5,-131.5 2498.5,-131.5 2498.5,-112.5 2404.5,-112.5"/>
<text text-anchor="middle" x="2451.5" y="-119.5" font-family="Helvetica,sans-Serif" font-size="10.00" fill="#000000">gauss_kronrod.cu</text>
</a>
</g>
</g>
<!-- Node101&#45;&gt;Node103 -->
<g id="edge56" class="edge">
<title>Node101&#45;&gt;Node103</title>
<path fill="none" stroke="#191970" d="M2384.229,-167.9685C2401.0068,-156.5037 2423.3074,-141.265 2437.5362,-131.5419"/>
<polygon fill="#191970" stroke="#191970" points="2381.8443,-165.3589 2375.5625,-173.8906 2385.7936,-171.1384 2381.8443,-165.3589"/>
</g>
<!-- Node104&#45;&gt;Node54 -->
<g id="edge60" class="edge">
<title>Node104&#45;&gt;Node54</title>
<path fill="none" stroke="#191970" d="M736.8408,-234.303C676.2205,-222.6525 580.1645,-204.1918 522.0578,-193.0244"/>
<polygon fill="#191970" stroke="#191970" points="736.5108,-237.8035 746.9916,-236.2539 737.832,-230.9293 736.5108,-237.8035"/>
</g>
<!-- Node106 -->
<g id="node58" class="node">
<title>Node106</title>
<g id="a_node58"><a xlink:href="multivector__container_8cpp.html" target="_top" xlink:title="multivector_container.cpp">
<polygon fill="none" stroke="#000000" points="2937.5,-174 2937.5,-193 3065.5,-193 3065.5,-174 2937.5,-174"/>
<text text-anchor="middle" x="3001.5" y="-181" font-family="Helvetica,sans-Serif" font-size="10.00" fill="#000000">multivector_container.cpp</text>
</a>
</g>
</g>
<!-- Node105&#45;&gt;Node106 -->
<g id="edge62" class="edge">
<title>Node105&#45;&gt;Node106</title>
<path fill="none" stroke="#191970" d="M2889.4778,-231.3428C2916.7064,-219.7139 2955.127,-203.3051 2979.158,-193.0419"/>
<polygon fill="#191970" stroke="#191970" points="2887.8217,-228.2442 2880,-235.3906 2890.5711,-234.6817 2887.8217,-228.2442"/>
</g>
<!-- Node107 -->
<g id="node59" class="node">
<title>Node107</title>
<g id="a_node59"><a xlink:href="multivector__container_8cu.html" target="_top" xlink:title="multivector_container.cu">
<polygon fill="none" stroke="#000000" points="2796,-174 2796,-193 2919,-193 2919,-174 2796,-174"/>
<text text-anchor="middle" x="2857.5" y="-181" font-family="Helvetica,sans-Serif" font-size="10.00" fill="#000000">multivector_container.cu</text>
</a>
</g>
</g>
<!-- Node105&#45;&gt;Node107 -->
<g id="edge63" class="edge">
<title>Node105&#45;&gt;Node107</title>
<path fill="none" stroke="#191970" d="M2857.5,-225.2462C2857.5,-214.5519 2857.5,-201.814 2857.5,-193.2449"/>
<polygon fill="#191970" stroke="#191970" points="2854.0001,-225.3906 2857.5,-235.3906 2861.0001,-225.3907 2854.0001,-225.3906"/>
</g>
</g>
</svg>
