<?xml version="1.0" encoding="UTF-8" standalone="no"?>
<!DOCTYPE svg PUBLIC "-//W3C//DTD SVG 1.1//EN"
 "http://www.w3.org/Graphics/SVG/1.1/DTD/svg11.dtd">
<!-- Generated by graphviz version 2.38.0 (20140413.2041)
 -->
<!-- Title: hydra::make_tuple Pages: 1 -->
<svg width="270pt" height="154pt"
 viewBox="0.00 0.00 270.00 154.00" xmlns="http://www.w3.org/2000/svg" xmlns:xlink="http://www.w3.org/1999/xlink">
<g id="graph0" class="graph" transform="scale(1 1) rotate(0) translate(4 150)">
<title>hydra::make_tuple</title>
<!-- Node201 -->
<g id="node1" class="node"><title>Node201</title>
<polygon fill="#bfbfbf" stroke="black" points="0,-60.5 0,-79.5 97,-79.5 97,-60.5 0,-60.5"/>
<text text-anchor="middle" x="48.5" y="-67.5" font-family="Helvetica,sans-Serif" font-size="10.00">hydra::make_tuple</text>
</g>
<!-- Node202 -->
<g id="node2" class="node"><title>Node202</title>
<g id="a_node2"><a xlink:href="group__generic.html#ga93303de58d08af18100ae64b47277a4d" target="_top" xlink:title="Evaluate a functor over a list of ranges. ">
<polygon fill="none" stroke="black" points="165,-126.5 165,-145.5 230,-145.5 230,-126.5 165,-126.5"/>
<text text-anchor="middle" x="197.5" y="-133.5" font-family="Helvetica,sans-Serif" font-size="10.00">hydra::eval</text>
</a>
</g>
</g>
<!-- Node201&#45;&gt;Node202 -->
<g id="edge1" class="edge"><title>Node201&#45;&gt;Node202</title>
<path fill="none" stroke="midnightblue" d="M72.9249,-85.046C89.2805,-95.081 111.882,-108.029 133,-117 143.062,-121.274 154.4,-124.993 164.683,-127.979"/>
<polygon fill="midnightblue" stroke="midnightblue" points="74.4122,-81.8487 64.0751,-79.5262 70.7076,-87.7881 74.4122,-81.8487"/>
</g>
<!-- Node203 -->
<g id="node3" class="node"><title>Node203</title>
<g id="a_node3"><a xlink:href="structhydra_1_1GaussKronrodRule.html#a9a0885268c7033d6f108dae597f24728" target="_top" xlink:title="hydra::GaussKronrodRule\l\&lt; 41 \&gt;::GetAbscissa">
<polygon fill="none" stroke="black" points="133,-77 133,-107 262,-107 262,-77 133,-77"/>
<text text-anchor="start" x="141" y="-95" font-family="Helvetica,sans-Serif" font-size="10.00">hydra::GaussKronrodRule</text>
<text text-anchor="middle" x="197.5" y="-84" font-family="Helvetica,sans-Serif" font-size="10.00">&lt; 41 &gt;::GetAbscissa</text>
</a>
</g>
</g>
<!-- Node201&#45;&gt;Node203 -->
<g id="edge2" class="edge"><title>Node201&#45;&gt;Node203</title>
<path fill="none" stroke="midnightblue" d="M107.32,-78.6533C115.737,-79.913 124.442,-81.2159 132.965,-82.4914"/>
<polygon fill="midnightblue" stroke="midnightblue" points="107.635,-75.1615 97.2267,-77.1428 106.598,-82.0844 107.635,-75.1615"/>
</g>
<!-- Node204 -->
<g id="node4" class="node"><title>Node204</title>
<g id="a_node4"><a xlink:href="multiarray__container_8inl.html#a1c03069360f1f90a556eb537e0ff8a72" target="_top" xlink:title="main">
<polygon fill="none" stroke="black" points="178.5,-38.5 178.5,-57.5 216.5,-57.5 216.5,-38.5 178.5,-38.5"/>
<text text-anchor="middle" x="197.5" y="-45.5" font-family="Helvetica,sans-Serif" font-size="10.00">main</text>
</a>
</g>
</g>
<!-- Node201&#45;&gt;Node204 -->
<g id="edge3" class="edge"><title>Node201&#45;&gt;Node204</title>
<path fill="none" stroke="midnightblue" d="M107.152,-61.3717C132.503,-57.5777 160.495,-53.3885 178.273,-50.7278"/>
<polygon fill="midnightblue" stroke="midnightblue" points="106.598,-57.9156 97.2267,-62.8572 107.635,-64.8385 106.598,-57.9156"/>
</g>
<!-- Node205 -->
<g id="node5" class="node"><title>Node205</title>
<g id="a_node5"><a xlink:href="namespacehydra.html#a66310c43220a83278f7e1588cf2d0feb" target="_top" xlink:title="hydra::make_chain">
<polygon fill="none" stroke="black" points="148,-0.5 148,-19.5 247,-19.5 247,-0.5 148,-0.5"/>
<text text-anchor="middle" x="197.5" y="-7.5" font-family="Helvetica,sans-Serif" font-size="10.00">hydra::make_chain</text>
</a>
</g>
</g>
<!-- Node201&#45;&gt;Node205 -->
<g id="edge4" class="edge"><title>Node201&#45;&gt;Node205</title>
<path fill="none" stroke="midnightblue" d="M75.6043,-55.7901C91.8205,-47.3153 113.267,-36.7354 133,-29 141.892,-25.5143 151.693,-22.2916 160.879,-19.5278"/>
<polygon fill="midnightblue" stroke="midnightblue" points="73.912,-52.7257 66.7132,-60.4992 77.1884,-58.9116 73.912,-52.7257"/>
</g>
</g>
</svg>
