<?xml version="1.0" encoding="UTF-8" standalone="no"?>
<!DOCTYPE svg PUBLIC "-//W3C//DTD SVG 1.1//EN"
 "http://www.w3.org/Graphics/SVG/1.1/DTD/svg11.dtd">
<!-- Generated by graphviz version 2.38.0 (20140413.2041)
 -->
<!-- Title: hydra::operator&lt;&lt; Pages: 1 -->
<svg width="293pt" height="218pt"
 viewBox="0.00 0.00 293.00 218.00" xmlns="http://www.w3.org/2000/svg" xmlns:xlink="http://www.w3.org/1999/xlink">
<g id="graph0" class="graph" transform="scale(1 1) rotate(0) translate(4 214)">
<title>hydra::operator&lt;&lt;</title>
<!-- Node361 -->
<g id="node1" class="node"><title>Node361</title>
<polygon fill="#bfbfbf" stroke="black" points="0,-95.5 0,-114.5 94,-114.5 94,-95.5 0,-95.5"/>
<text text-anchor="middle" x="47" y="-102.5" font-family="Helvetica,sans-Serif" font-size="10.00">hydra::operator&lt;&lt;</text>
</g>
<!-- Node362 -->
<g id="node2" class="node"><title>Node362</title>
<g id="a_node2"><a xlink:href="group__fit.html#a8ecd9637331ea7ac68629addc623576d" target="_top" xlink:title="hydra::Parameter::GetError">
<polygon fill="none" stroke="black" points="140.5,-190.5 140.5,-209.5 274.5,-209.5 274.5,-190.5 140.5,-190.5"/>
<text text-anchor="middle" x="207.5" y="-197.5" font-family="Helvetica,sans-Serif" font-size="10.00">hydra::Parameter::GetError</text>
</a>
</g>
</g>
<!-- Node361&#45;&gt;Node362 -->
<g id="edge1" class="edge"><title>Node361&#45;&gt;Node362</title>
<path fill="none" stroke="midnightblue" d="M55.4879,-114.566C68.7218,-130.796 97.8964,-163.651 130,-181 134.218,-183.279 138.713,-185.29 143.332,-187.064"/>
<polygon fill="midnightblue" stroke="midnightblue" points="142.341,-190.425 152.936,-190.382 144.627,-183.808 142.341,-190.425"/>
</g>
<!-- Node363 -->
<g id="node3" class="node"><title>Node363</title>
<g id="a_node3"><a xlink:href="group__fit.html#a842f9d069d9611c59e60de589d567031" target="_top" xlink:title="hydra::Parameter::GetIndex">
<polygon fill="none" stroke="black" points="139,-152.5 139,-171.5 276,-171.5 276,-152.5 139,-152.5"/>
<text text-anchor="middle" x="207.5" y="-159.5" font-family="Helvetica,sans-Serif" font-size="10.00">hydra::Parameter::GetIndex</text>
</a>
</g>
</g>
<!-- Node361&#45;&gt;Node363 -->
<g id="edge2" class="edge"><title>Node361&#45;&gt;Node363</title>
<path fill="none" stroke="midnightblue" d="M66.1449,-114.631C82.49,-123.008 107.357,-135.024 130,-143 137.09,-145.498 144.659,-147.798 152.176,-149.871"/>
<polygon fill="midnightblue" stroke="midnightblue" points="151.42,-153.291 161.983,-152.463 153.209,-146.524 151.42,-153.291"/>
</g>
<!-- Node364 -->
<g id="node4" class="node"><title>Node364</title>
<g id="a_node4"><a xlink:href="group__fit.html#aedc7a299e48470b4e4d8cb2ef7c193e7" target="_top" xlink:title="hydra::Parameter::GetLowerLim">
<polygon fill="none" stroke="black" points="130,-114.5 130,-133.5 285,-133.5 285,-114.5 130,-114.5"/>
<text text-anchor="middle" x="207.5" y="-121.5" font-family="Helvetica,sans-Serif" font-size="10.00">hydra::Parameter::GetLowerLim</text>
</a>
</g>
</g>
<!-- Node361&#45;&gt;Node364 -->
<g id="edge3" class="edge"><title>Node361&#45;&gt;Node364</title>
<path fill="none" stroke="midnightblue" d="M94.2708,-110.547C102.37,-111.518 111.029,-112.556 119.811,-113.608"/>
<polygon fill="midnightblue" stroke="midnightblue" points="119.409,-117.085 129.755,-114.8 120.242,-110.135 119.409,-117.085"/>
</g>
<!-- Node365 -->
<g id="node5" class="node"><title>Node365</title>
<g id="a_node5"><a xlink:href="group__fit.html#a41e4ba0c91d6ef5862a7a5740d12284a" target="_top" xlink:title="hydra::Parameter::GetName">
<polygon fill="none" stroke="black" points="137.5,-76.5 137.5,-95.5 277.5,-95.5 277.5,-76.5 137.5,-76.5"/>
<text text-anchor="middle" x="207.5" y="-83.5" font-family="Helvetica,sans-Serif" font-size="10.00">hydra::Parameter::GetName</text>
</a>
</g>
</g>
<!-- Node361&#45;&gt;Node365 -->
<g id="edge4" class="edge"><title>Node361&#45;&gt;Node365</title>
<path fill="none" stroke="midnightblue" d="M94.2708,-99.4533C104.73,-98.1995 116.123,-96.8339 127.508,-95.4691"/>
<polygon fill="midnightblue" stroke="midnightblue" points="127.975,-98.9382 137.487,-94.2728 127.142,-91.988 127.975,-98.9382"/>
</g>
<!-- Node366 -->
<g id="node6" class="node"><title>Node366</title>
<g id="a_node6"><a xlink:href="group__fit.html#a5f48b300aa929203bcdb4af6faa7ca63" target="_top" xlink:title="hydra::Parameter::GetUpperLim">
<polygon fill="none" stroke="black" points="130,-38.5 130,-57.5 285,-57.5 285,-38.5 130,-38.5"/>
<text text-anchor="middle" x="207.5" y="-45.5" font-family="Helvetica,sans-Serif" font-size="10.00">hydra::Parameter::GetUpperLim</text>
</a>
</g>
</g>
<!-- Node361&#45;&gt;Node366 -->
<g id="edge5" class="edge"><title>Node361&#45;&gt;Node366</title>
<path fill="none" stroke="midnightblue" d="M66.1449,-95.3693C82.49,-86.9918 107.357,-74.9763 130,-67 137.09,-64.5024 144.659,-62.2019 152.176,-60.1288"/>
<polygon fill="midnightblue" stroke="midnightblue" points="153.209,-63.4762 161.983,-57.5372 151.42,-56.7085 153.209,-63.4762"/>
</g>
<!-- Node367 -->
<g id="node7" class="node"><title>Node367</title>
<g id="a_node7"><a xlink:href="group__fit.html#a16906288a84a42bcf4de64ee172915f4" target="_top" xlink:title="hydra::Parameter::GetValue">
<polygon fill="none" stroke="black" points="138.5,-0.5 138.5,-19.5 276.5,-19.5 276.5,-0.5 138.5,-0.5"/>
<text text-anchor="middle" x="207.5" y="-7.5" font-family="Helvetica,sans-Serif" font-size="10.00">hydra::Parameter::GetValue</text>
</a>
</g>
</g>
<!-- Node361&#45;&gt;Node367 -->
<g id="edge6" class="edge"><title>Node361&#45;&gt;Node367</title>
<path fill="none" stroke="midnightblue" d="M55.4879,-95.434C68.7218,-79.2038 97.8964,-46.3487 130,-29 134.218,-26.7209 138.713,-24.7097 143.332,-22.9359"/>
<polygon fill="midnightblue" stroke="midnightblue" points="144.627,-26.1916 152.936,-19.6183 142.341,-19.5752 144.627,-26.1916"/>
</g>
</g>
</svg>
