<?xml version="1.0" encoding="UTF-8" standalone="no"?>
<!DOCTYPE svg PUBLIC "-//W3C//DTD SVG 1.1//EN"
 "http://www.w3.org/Graphics/SVG/1.1/DTD/svg11.dtd">
<!-- Generated by graphviz version 2.38.0 (20140413.2041)
 -->
<!-- Title: hydra::make_range Pages: 1 -->
<svg width="214pt" height="66pt"
 viewBox="0.00 0.00 214.00 66.00" xmlns="http://www.w3.org/2000/svg" xmlns:xlink="http://www.w3.org/1999/xlink">
<g id="graph0" class="graph" transform="scale(1 1) rotate(0) translate(4 62)">
<title>hydra::make_range</title>
<!-- Node187 -->
<g id="node1" class="node"><title>Node187</title>
<polygon fill="#bfbfbf" stroke="black" points="0,-19.5 0,-38.5 100,-38.5 100,-19.5 0,-19.5"/>
<text text-anchor="middle" x="50" y="-26.5" font-family="Helvetica,sans-Serif" font-size="10.00">hydra::make_range</text>
</g>
<!-- Node188 -->
<g id="node2" class="node"><title>Node188</title>
<g id="a_node2"><a xlink:href="namespacehydra.html#a6874d900b0238ec21d1490998de81f99" target="_top" xlink:title="hydra::begin">
<polygon fill="none" stroke="black" points="136,-38.5 136,-57.5 206,-57.5 206,-38.5 136,-38.5"/>
<text text-anchor="middle" x="171" y="-45.5" font-family="Helvetica,sans-Serif" font-size="10.00">hydra::begin</text>
</a>
</g>
</g>
<!-- Node187&#45;&gt;Node188 -->
<g id="edge1" class="edge"><title>Node187&#45;&gt;Node188</title>
<path fill="none" stroke="midnightblue" d="M100.089,-36.8377C108.646,-38.204 117.5,-39.6176 125.912,-40.9607"/>
<polygon fill="midnightblue" stroke="midnightblue" points="125.478,-44.4356 135.904,-42.5562 126.581,-37.5232 125.478,-44.4356"/>
</g>
<!-- Node189 -->
<g id="node3" class="node"><title>Node189</title>
<g id="a_node3"><a xlink:href="namespacehydra.html#ae7f8d7b0cfc77696dd1ba9aaf31d23a7" target="_top" xlink:title="hydra::end">
<polygon fill="none" stroke="black" points="140,-0.5 140,-19.5 202,-19.5 202,-0.5 140,-0.5"/>
<text text-anchor="middle" x="171" y="-7.5" font-family="Helvetica,sans-Serif" font-size="10.00">hydra::end</text>
</a>
</g>
</g>
<!-- Node187&#45;&gt;Node189 -->
<g id="edge2" class="edge"><title>Node187&#45;&gt;Node189</title>
<path fill="none" stroke="midnightblue" d="M100.089,-21.1623C109.962,-19.5858 120.231,-17.9463 129.76,-16.4248"/>
<polygon fill="midnightblue" stroke="midnightblue" points="130.434,-19.8616 139.757,-14.8287 129.33,-12.9492 130.434,-19.8616"/>
</g>
</g>
</svg>
