<?xml version="1.0" encoding="UTF-8" standalone="no"?>
<!DOCTYPE svg PUBLIC "-//W3C//DTD SVG 1.1//EN"
 "http://www.w3.org/Graphics/SVG/1.1/DTD/svg11.dtd">
<!-- Generated by graphviz version 2.42.4 (0)
 -->
<!-- Title: ParametersCompositeFunctor.h Pages: 1 -->
<!--zoomable 519 -->
<svg id="main" version="1.1" xmlns="http://www.w3.org/2000/svg" xmlns:xlink="http://www.w3.org/1999/xlink" xml:space="preserve" onload="init(evt)">
<style type="text/css"><![CDATA[
.edge:hover path { stroke: red; }
.edge:hover polygon { stroke: red; fill: red; }
]]></style>
<script type="text/javascript"><![CDATA[
var edges = document.getElementsByTagName('g');
if (edges && edges.length) {
  for (var i=0;i<edges.length;i++) {
    if (edges[i].id.substr(0,4)=='edge') {
      edges[i].setAttribute('class','edge');
    }
  }
}
]]></script>
        <defs>
                <circle id="rim" cx="0" cy="0" r="7"/>
                <circle id="rim2" cx="0" cy="0" r="3.5"/>
                <g id="zoomPlus">
                        <use xlink:href="#rim" fill="#404040">
                                <set attributeName="fill" to="#808080" begin="zoomplus.mouseover" end="zoomplus.mouseout"/>
                        </use>
                        <path d="M-4,0h8M0,-4v8" fill="none" stroke="white" stroke-width="1.5" pointer-events="none"/>
                </g>
                <g id="zoomMin">
                        <use xlink:href="#rim" fill="#404040">
                                <set attributeName="fill" to="#808080" begin="zoomminus.mouseover" end="zoomminus.mouseout"/>
                        </use>
                        <path d="M-4,0h8" fill="none" stroke="white" stroke-width="1.5" pointer-events="none"/>
                </g>
                <g id="dirArrow">
                        <path fill="none" stroke="white" stroke-width="1.5" d="M0,-3.0v7 M-2.5,-0.5L0,-3.0L2.5,-0.5"/>
                </g>
               <g id="resetDef">
                       <use xlink:href="#rim2" fill="#404040">
                               <set attributeName="fill" to="#808080" begin="reset.mouseover" end="reset.mouseout"/>
                       </use>
               </g>
        </defs>

<script type="text/javascript">
var viewWidth = 2248;
var viewHeight = 519;
var sectionId = 'dynsection-0';
</script>
<script xlink:href="svgpan.js"/>
<svg id="graph" class="graph">
<g id="viewport">
<title>ParametersCompositeFunctor.h</title>
<!-- Node0 -->
<g id="node1" class="node">
<title>Node0</title>
<polygon fill="#bfbfbf" stroke="black" points="1036.5,-491.5 1036.5,-510.5 1191.5,-510.5 1191.5,-491.5 1036.5,-491.5"/>
<text text-anchor="middle" x="1114" y="-498.5" font-family="Helvetica,sans-Serif" font-size="10.00">ParametersCompositeFunctor.h</text>
</g>
<!-- Node1 -->
<g id="node2" class="node">
<title>Node1</title>
<g id="a_node2"><a xlink:href="Config_8h.html" target="_top" xlink:title="hydra/detail/Config.h">
<polygon fill="none" stroke="black" points="1138.5,-89.5 1138.5,-108.5 1245.5,-108.5 1245.5,-89.5 1138.5,-89.5"/>
<text text-anchor="middle" x="1192" y="-96.5" font-family="Helvetica,sans-Serif" font-size="10.00">hydra/detail/Config.h</text>
</a>
</g>
</g>
<!-- Node0&#45;&gt;Node1 -->
<g id="edge1" class="edge">
<title>Node0&#45;&gt;Node1</title>
<path fill="none" stroke="midnightblue" d="M1080.34,-491.48C1036.11,-478.04 964,-447.32 964,-390 964,-390 964,-390 964,-326.5 964,-248.96 947.85,-212.46 1001,-156 1041.5,-112.97 1072.38,-136.94 1129,-120 1137.79,-117.37 1147.23,-114.43 1156.06,-111.64"/>
<polygon fill="midnightblue" stroke="midnightblue" points="1157.23,-114.94 1165.7,-108.56 1155.11,-108.27 1157.23,-114.94"/>
</g>
<!-- Node4 -->
<g id="node5" class="node">
<title>Node4</title>
<g id="a_node5"><a xlink:href="Types_8h.html" target="_top" xlink:title="Common and useful typedefs. ">
<polygon fill="none" stroke="black" points="1010,-162 1010,-181 1088,-181 1088,-162 1010,-162"/>
<text text-anchor="middle" x="1049" y="-169" font-family="Helvetica,sans-Serif" font-size="10.00">hydra/Types.h</text>
</a>
</g>
</g>
<!-- Node0&#45;&gt;Node4 -->
<g id="edge4" class="edge">
<title>Node0&#45;&gt;Node4</title>
<path fill="none" stroke="midnightblue" d="M1093.98,-491.44C1061.76,-476.17 1002,-440.97 1002,-390 1002,-390 1002,-390 1002,-326.5 1002,-275.21 1026.14,-218.34 1039.82,-190.23"/>
<polygon fill="midnightblue" stroke="midnightblue" points="1042.97,-191.75 1044.32,-181.24 1036.71,-188.61 1042.97,-191.75"/>
</g>
<!-- Node5 -->
<g id="node6" class="node">
<title>Node5</title>
<g id="a_node6"><a xlink:href="TypeTraits_8h.html" target="_top" xlink:title="hydra/detail/TypeTraits.h">
<polygon fill="none" stroke="black" points="600,-162 600,-181 724,-181 724,-162 600,-162"/>
<text text-anchor="middle" x="662" y="-169" font-family="Helvetica,sans-Serif" font-size="10.00">hydra/detail/TypeTraits.h</text>
</a>
</g>
</g>
<!-- Node0&#45;&gt;Node5 -->
<g id="edge5" class="edge">
<title>Node0&#45;&gt;Node5</title>
<path fill="none" stroke="midnightblue" d="M1036.24,-494.24C920.91,-483.52 718,-455.38 718,-390 718,-390 718,-390 718,-326.5 718,-274.31 689.24,-217.83 672.94,-190.01"/>
<polygon fill="midnightblue" stroke="midnightblue" points="675.74,-187.88 667.57,-181.12 669.74,-191.49 675.74,-187.88"/>
</g>
<!-- Node17 -->
<g id="node18" class="node">
<title>Node17</title>
<g id="a_node18"><a xlink:href="Utility__Tuple_8h.html" target="_top" xlink:title="hydra/detail/utility\l/Utility_Tuple.h">
<polygon fill="none" stroke="black" points="1369.5,-312.5 1369.5,-342.5 1462.5,-342.5 1462.5,-312.5 1369.5,-312.5"/>
<text text-anchor="start" x="1377.5" y="-330.5" font-family="Helvetica,sans-Serif" font-size="10.00">hydra/detail/utility</text>
<text text-anchor="middle" x="1416" y="-319.5" font-family="Helvetica,sans-Serif" font-size="10.00">/Utility_Tuple.h</text>
</a>
</g>
</g>
<!-- Node0&#45;&gt;Node17 -->
<g id="edge18" class="edge">
<title>Node0&#45;&gt;Node17</title>
<path fill="none" stroke="midnightblue" d="M1120.95,-491.24C1139.01,-469.08 1189.81,-410.34 1245,-379 1280.52,-358.83 1324.87,-346.03 1359.49,-338.37"/>
<polygon fill="midnightblue" stroke="midnightblue" points="1360.4,-341.76 1369.45,-336.25 1358.94,-334.91 1360.4,-341.76"/>
</g>
<!-- Node25 -->
<g id="node26" class="node">
<title>Node25</title>
<g id="a_node26"><a xlink:href="Parameter_8h.html" target="_top" xlink:title="hydra/Parameter.h">
<polygon fill="none" stroke="black" points="840,-240 840,-259 936,-259 936,-240 840,-240"/>
<text text-anchor="middle" x="888" y="-247" font-family="Helvetica,sans-Serif" font-size="10.00">hydra/Parameter.h</text>
</a>
</g>
</g>
<!-- Node0&#45;&gt;Node25 -->
<g id="edge60" class="edge">
<title>Node0&#45;&gt;Node25</title>
<path fill="none" stroke="midnightblue" d="M1036.26,-494.66C1005.91,-488.84 972.95,-477.35 950,-455 897.39,-403.77 889.07,-309.51 888,-269.39"/>
<polygon fill="midnightblue" stroke="midnightblue" points="891.5,-269.33 887.86,-259.38 884.5,-269.43 891.5,-269.33"/>
</g>
<!-- Node30 -->
<g id="node31" class="node">
<title>Node30</title>
<g id="a_node31"><a xlink:href="base__functor_8h.html" target="_top" xlink:title="hydra/detail/base_functor.h">
<polygon fill="none" stroke="black" points="1254,-379.5 1254,-398.5 1388,-398.5 1388,-379.5 1254,-379.5"/>
<text text-anchor="middle" x="1321" y="-386.5" font-family="Helvetica,sans-Serif" font-size="10.00">hydra/detail/base_functor.h</text>
</a>
</g>
</g>
<!-- Node0&#45;&gt;Node30 -->
<g id="edge46" class="edge">
<title>Node0&#45;&gt;Node30</title>
<path fill="none" stroke="midnightblue" d="M1130.24,-491.37C1166.22,-472.25 1252.82,-426.23 1295.86,-403.36"/>
<polygon fill="midnightblue" stroke="midnightblue" points="1297.64,-406.37 1304.83,-398.59 1294.36,-400.19 1297.64,-406.37"/>
</g>
<!-- Node31 -->
<g id="node32" class="node">
<title>Node31</title>
<g id="a_node32"><a xlink:href="Constant_8h.html" target="_top" xlink:title="hydra/detail/Constant.h">
<polygon fill="none" stroke="black" points="1339,-435.5 1339,-454.5 1457,-454.5 1457,-435.5 1339,-435.5"/>
<text text-anchor="middle" x="1398" y="-442.5" font-family="Helvetica,sans-Serif" font-size="10.00">hydra/detail/Constant.h</text>
</a>
</g>
</g>
<!-- Node0&#45;&gt;Node31 -->
<g id="edge54" class="edge">
<title>Node0&#45;&gt;Node31</title>
<path fill="none" stroke="midnightblue" d="M1159,-491.44C1208.96,-481.94 1289.6,-466.61 1343.2,-456.42"/>
<polygon fill="midnightblue" stroke="midnightblue" points="1344.04,-459.82 1353.21,-454.52 1342.73,-452.95 1344.04,-459.82"/>
</g>
<!-- Node32 -->
<g id="node33" class="node">
<title>Node32</title>
<g id="a_node33"><a xlink:href="Placeholders_8h.html" target="_top" xlink:title="hydra/Placeholders.h">
<polygon fill="none" stroke="black" points="2018,-435.5 2018,-454.5 2126,-454.5 2126,-435.5 2018,-435.5"/>
<text text-anchor="middle" x="2072" y="-442.5" font-family="Helvetica,sans-Serif" font-size="10.00">hydra/Placeholders.h</text>
</a>
</g>
</g>
<!-- Node0&#45;&gt;Node32 -->
<g id="edge61" class="edge">
<title>Node0&#45;&gt;Node32</title>
<path fill="none" stroke="midnightblue" d="M1191.59,-495.63C1376.02,-485.23 1837.91,-459.2 2007.9,-449.61"/>
<polygon fill="midnightblue" stroke="midnightblue" points="2008.16,-453.1 2017.95,-449.05 2007.77,-446.12 2008.16,-453.1"/>
</g>
<!-- Node2 -->
<g id="node3" class="node">
<title>Node2</title>
<polygon fill="none" stroke="#bfbfbf" points="1077,-0.5 1077,-41.5 1181,-41.5 1181,-0.5 1077,-0.5"/>
<text text-anchor="start" x="1085" y="-29.5" font-family="Helvetica,sans-Serif" font-size="10.00">hydra/detail/external</text>
<text text-anchor="start" x="1085" y="-18.5" font-family="Helvetica,sans-Serif" font-size="10.00">/hydra_thrust/detail</text>
<text text-anchor="middle" x="1129" y="-7.5" font-family="Helvetica,sans-Serif" font-size="10.00">/config.h</text>
</g>
<!-- Node1&#45;&gt;Node2 -->
<g id="edge2" class="edge">
<title>Node1&#45;&gt;Node2</title>
<path fill="none" stroke="midnightblue" d="M1184.77,-89.28C1176.78,-79.63 1163.48,-63.6 1151.88,-49.6"/>
<polygon fill="midnightblue" stroke="midnightblue" points="1154.37,-47.12 1145.3,-41.66 1148.98,-51.59 1154.37,-47.12"/>
</g>
<!-- Node3 -->
<g id="node4" class="node">
<title>Node3</title>
<polygon fill="none" stroke="#bfbfbf" points="1199,-0.5 1199,-41.5 1309,-41.5 1309,-0.5 1199,-0.5"/>
<text text-anchor="start" x="1207" y="-29.5" font-family="Helvetica,sans-Serif" font-size="10.00">hydra/detail/external</text>
<text text-anchor="start" x="1207" y="-18.5" font-family="Helvetica,sans-Serif" font-size="10.00">/hydra_thrust/detail</text>
<text text-anchor="middle" x="1254" y="-7.5" font-family="Helvetica,sans-Serif" font-size="10.00">/config/host_device.h</text>
</g>
<!-- Node1&#45;&gt;Node3 -->
<g id="edge3" class="edge">
<title>Node1&#45;&gt;Node3</title>
<path fill="none" stroke="midnightblue" d="M1199.11,-89.28C1206.98,-79.63 1220.07,-63.6 1231.48,-49.6"/>
<polygon fill="midnightblue" stroke="midnightblue" points="1234.35,-51.62 1237.96,-41.66 1228.93,-47.19 1234.35,-51.62"/>
</g>
<!-- Node5&#45;&gt;Node1 -->
<g id="edge6" class="edge">
<title>Node5&#45;&gt;Node1</title>
<path fill="none" stroke="midnightblue" d="M699.82,-161.97C710.5,-159.78 722.17,-157.59 733,-156 907.84,-130.28 955.76,-154.94 1129,-120 1139.1,-117.96 1149.87,-114.89 1159.59,-111.77"/>
<polygon fill="midnightblue" stroke="midnightblue" points="1160.9,-115.02 1169.27,-108.53 1158.68,-108.38 1160.9,-115.02"/>
</g>
<!-- Node6 -->
<g id="node7" class="node">
<title>Node6</title>
<polygon fill="none" stroke="#bfbfbf" points="1691,-89.5 1691,-108.5 1753,-108.5 1753,-89.5 1691,-89.5"/>
<text text-anchor="middle" x="1722" y="-96.5" font-family="Helvetica,sans-Serif" font-size="10.00">type_traits</text>
</g>
<!-- Node5&#45;&gt;Node6 -->
<g id="edge7" class="edge">
<title>Node5&#45;&gt;Node6</title>
<path fill="none" stroke="midnightblue" d="M698.68,-161.95C709.66,-159.68 721.77,-157.46 733,-156 920.95,-131.62 1518.39,-107.71 1680.87,-101.53"/>
<polygon fill="midnightblue" stroke="midnightblue" points="1681.07,-105.03 1690.93,-101.15 1680.81,-98.03 1681.07,-105.03"/>
</g>
<!-- Node7 -->
<g id="node8" class="node">
<title>Node7</title>
<polygon fill="none" stroke="#bfbfbf" points="940,-89.5 940,-108.5 980,-108.5 980,-89.5 940,-89.5"/>
<text text-anchor="middle" x="960" y="-96.5" font-family="Helvetica,sans-Serif" font-size="10.00">limits</text>
</g>
<!-- Node5&#45;&gt;Node7 -->
<g id="edge8" class="edge">
<title>Node5&#45;&gt;Node7</title>
<path fill="none" stroke="midnightblue" d="M702.89,-161.99C712.74,-159.99 723.24,-157.88 733,-156 820.82,-139.05 848.34,-154.15 931,-120 934.6,-118.51 938.21,-116.52 941.6,-114.38"/>
<polygon fill="midnightblue" stroke="midnightblue" points="943.71,-117.17 949.89,-108.56 939.69,-111.44 943.71,-117.17"/>
</g>
<!-- Node8 -->
<g id="node9" class="node">
<title>Node8</title>
<polygon fill="none" stroke="#bfbfbf" points="0,-84 0,-114 122,-114 122,-84 0,-84"/>
<text text-anchor="start" x="8" y="-102" font-family="Helvetica,sans-Serif" font-size="10.00">hydra/detail/external</text>
<text text-anchor="middle" x="61" y="-91" font-family="Helvetica,sans-Serif" font-size="10.00">/hydra_thrust/complex.h</text>
</g>
<!-- Node5&#45;&gt;Node8 -->
<g id="edge9" class="edge">
<title>Node5&#45;&gt;Node8</title>
<path fill="none" stroke="midnightblue" d="M599.76,-168.28C500.04,-163.9 298.66,-151.65 131,-120 125.93,-119.04 120.7,-117.88 115.48,-116.61"/>
<polygon fill="midnightblue" stroke="midnightblue" points="116.08,-113.15 105.52,-114.04 114.33,-119.93 116.08,-113.15"/>
</g>
<!-- Node9 -->
<g id="node10" class="node">
<title>Node9</title>
<polygon fill="none" stroke="#bfbfbf" points="1868,-78.5 1868,-119.5 1972,-119.5 1972,-78.5 1868,-78.5"/>
<text text-anchor="start" x="1876" y="-107.5" font-family="Helvetica,sans-Serif" font-size="10.00">hydra/detail/external</text>
<text text-anchor="start" x="1876" y="-96.5" font-family="Helvetica,sans-Serif" font-size="10.00">/hydra_thrust/detail</text>
<text text-anchor="middle" x="1920" y="-85.5" font-family="Helvetica,sans-Serif" font-size="10.00">/type_traits.h</text>
</g>
<!-- Node5&#45;&gt;Node9 -->
<g id="edge10" class="edge">
<title>Node5&#45;&gt;Node9</title>
<path fill="none" stroke="midnightblue" d="M697.93,-161.95C709.1,-159.62 721.51,-157.37 733,-156 1187.42,-102.03 1305.87,-156.77 1762,-120 1793.68,-117.45 1828.76,-113.15 1857.81,-109.2"/>
<polygon fill="midnightblue" stroke="midnightblue" points="1858.39,-112.65 1867.82,-107.82 1857.43,-105.72 1858.39,-112.65"/>
</g>
<!-- Node10 -->
<g id="node11" class="node">
<title>Node10</title>
<polygon fill="none" stroke="#bfbfbf" points="140.5,-78.5 140.5,-119.5 259.5,-119.5 259.5,-78.5 140.5,-78.5"/>
<text text-anchor="start" x="148.5" y="-107.5" font-family="Helvetica,sans-Serif" font-size="10.00">hydra/detail/external</text>
<text text-anchor="start" x="148.5" y="-96.5" font-family="Helvetica,sans-Serif" font-size="10.00">/hydra_thrust/execution</text>
<text text-anchor="middle" x="200" y="-85.5" font-family="Helvetica,sans-Serif" font-size="10.00">_policy.h</text>
</g>
<!-- Node5&#45;&gt;Node10 -->
<g id="edge11" class="edge">
<title>Node5&#45;&gt;Node10</title>
<path fill="none" stroke="midnightblue" d="M599.91,-165.5C524.08,-158.74 391.88,-144.81 269.61,-119.96"/>
<polygon fill="midnightblue" stroke="midnightblue" points="270.2,-116.51 259.7,-117.91 268.78,-123.36 270.2,-116.51"/>
</g>
<!-- Node11 -->
<g id="node12" class="node">
<title>Node11</title>
<polygon fill="none" stroke="#bfbfbf" points="278,-78.5 278,-119.5 386,-119.5 386,-78.5 278,-78.5"/>
<text text-anchor="start" x="286" y="-107.5" font-family="Helvetica,sans-Serif" font-size="10.00">hydra/detail/external</text>
<text text-anchor="start" x="286" y="-96.5" font-family="Helvetica,sans-Serif" font-size="10.00">/hydra_thrust/iterator</text>
<text text-anchor="middle" x="332" y="-85.5" font-family="Helvetica,sans-Serif" font-size="10.00">/iterator_categories.h</text>
</g>
<!-- Node5&#45;&gt;Node11 -->
<g id="edge12" class="edge">
<title>Node5&#45;&gt;Node11</title>
<path fill="none" stroke="midnightblue" d="M606.35,-161.98C554.27,-153.56 474.18,-139.45 396.17,-120.16"/>
<polygon fill="midnightblue" stroke="midnightblue" points="396.73,-116.69 386.18,-117.66 395.03,-123.48 396.73,-116.69"/>
</g>
<!-- Node12 -->
<g id="node13" class="node">
<title>Node12</title>
<polygon fill="none" stroke="#bfbfbf" points="404,-78.5 404,-119.5 542,-119.5 542,-78.5 404,-78.5"/>
<text text-anchor="start" x="412" y="-107.5" font-family="Helvetica,sans-Serif" font-size="10.00">hydra/detail/external</text>
<text text-anchor="start" x="412" y="-96.5" font-family="Helvetica,sans-Serif" font-size="10.00">/hydra_thrust/iterator</text>
<text text-anchor="middle" x="473" y="-85.5" font-family="Helvetica,sans-Serif" font-size="10.00">/detail/is_iterator_category.h</text>
</g>
<!-- Node5&#45;&gt;Node12 -->
<g id="edge13" class="edge">
<title>Node5&#45;&gt;Node12</title>
<path fill="none" stroke="midnightblue" d="M639.2,-162C613.52,-152.41 570.68,-136.44 534.94,-123.1"/>
<polygon fill="midnightblue" stroke="midnightblue" points="536.13,-119.81 525.54,-119.6 533.69,-126.37 536.13,-119.81"/>
</g>
<!-- Node13 -->
<g id="node14" class="node">
<title>Node13</title>
<polygon fill="none" stroke="#bfbfbf" points="560.5,-78.5 560.5,-119.5 667.5,-119.5 667.5,-78.5 560.5,-78.5"/>
<text text-anchor="start" x="568.5" y="-107.5" font-family="Helvetica,sans-Serif" font-size="10.00">hydra/detail/external</text>
<text text-anchor="start" x="568.5" y="-96.5" font-family="Helvetica,sans-Serif" font-size="10.00">/hydra_thrust/iterator</text>
<text text-anchor="middle" x="614" y="-85.5" font-family="Helvetica,sans-Serif" font-size="10.00">/iterator_traits.h</text>
</g>
<!-- Node5&#45;&gt;Node13 -->
<g id="edge14" class="edge">
<title>Node5&#45;&gt;Node13</title>
<path fill="none" stroke="midnightblue" d="M656.11,-161.86C650.39,-153.45 641.39,-140.23 633.17,-128.16"/>
<polygon fill="midnightblue" stroke="midnightblue" points="635.91,-125.96 627.39,-119.66 630.12,-129.9 635.91,-125.96"/>
</g>
<!-- Node14 -->
<g id="node15" class="node">
<title>Node14</title>
<polygon fill="none" stroke="#bfbfbf" points="685.5,-78.5 685.5,-119.5 790.5,-119.5 790.5,-78.5 685.5,-78.5"/>
<text text-anchor="start" x="693.5" y="-107.5" font-family="Helvetica,sans-Serif" font-size="10.00">hydra/detail/external</text>
<text text-anchor="start" x="693.5" y="-96.5" font-family="Helvetica,sans-Serif" font-size="10.00">/hydra_thrust/device</text>
<text text-anchor="middle" x="738" y="-85.5" font-family="Helvetica,sans-Serif" font-size="10.00">_reference.h</text>
</g>
<!-- Node5&#45;&gt;Node14 -->
<g id="edge15" class="edge">
<title>Node5&#45;&gt;Node14</title>
<path fill="none" stroke="midnightblue" d="M671.32,-161.86C680.73,-153.13 695.75,-139.19 709.15,-126.76"/>
<polygon fill="midnightblue" stroke="midnightblue" points="711.85,-129.03 716.8,-119.66 707.09,-123.9 711.85,-129.03"/>
</g>
<!-- Node15 -->
<g id="node16" class="node">
<title>Node15</title>
<polygon fill="none" stroke="#bfbfbf" points="808.5,-78.5 808.5,-119.5 921.5,-119.5 921.5,-78.5 808.5,-78.5"/>
<text text-anchor="start" x="816.5" y="-107.5" font-family="Helvetica,sans-Serif" font-size="10.00">hydra/detail/external</text>
<text text-anchor="start" x="816.5" y="-96.5" font-family="Helvetica,sans-Serif" font-size="10.00">/hydra_thrust/detail</text>
<text text-anchor="middle" x="865" y="-85.5" font-family="Helvetica,sans-Serif" font-size="10.00">/raw_reference_cast.h</text>
</g>
<!-- Node5&#45;&gt;Node15 -->
<g id="edge16" class="edge">
<title>Node5&#45;&gt;Node15</title>
<path fill="none" stroke="midnightblue" d="M686.49,-162C714.19,-152.37 760.47,-136.3 798.97,-122.93"/>
<polygon fill="midnightblue" stroke="midnightblue" points="800.27,-126.19 808.57,-119.6 797.97,-119.57 800.27,-126.19"/>
</g>
<!-- Node16 -->
<g id="node17" class="node">
<title>Node16</title>
<polygon fill="none" stroke="#bfbfbf" points="998,-78.5 998,-119.5 1120,-119.5 1120,-78.5 998,-78.5"/>
<text text-anchor="start" x="1006" y="-107.5" font-family="Helvetica,sans-Serif" font-size="10.00">hydra/detail/external</text>
<text text-anchor="start" x="1006" y="-96.5" font-family="Helvetica,sans-Serif" font-size="10.00">/hydra_thrust/type_traits</text>
<text text-anchor="middle" x="1059" y="-85.5" font-family="Helvetica,sans-Serif" font-size="10.00">/void_t.h</text>
</g>
<!-- Node5&#45;&gt;Node16 -->
<g id="edge17" class="edge">
<title>Node5&#45;&gt;Node16</title>
<path fill="none" stroke="midnightblue" d="M701.72,-161.94C711.9,-159.87 722.83,-157.75 733,-156 843.02,-137.05 874.82,-143.45 987.59,-120.16"/>
<polygon fill="midnightblue" stroke="midnightblue" points="988.59,-123.52 997.66,-118.05 987.16,-116.67 988.59,-123.52"/>
</g>
<!-- Node17&#45;&gt;Node1 -->
<g id="edge19" class="edge">
<title>Node17&#45;&gt;Node1</title>
<path fill="none" stroke="midnightblue" d="M1369.33,-321.12C1315.71,-313.93 1232.46,-299.3 1212,-276 1172.82,-231.38 1181.37,-153.94 1187.93,-118.57"/>
<polygon fill="midnightblue" stroke="midnightblue" points="1191.38,-119.16 1189.93,-108.66 1184.52,-117.77 1191.38,-119.16"/>
</g>
<!-- Node17&#45;&gt;Node4 -->
<g id="edge20" class="edge">
<title>Node17&#45;&gt;Node4</title>
<path fill="none" stroke="midnightblue" d="M1369.22,-323.02C1319.69,-317.9 1240.22,-305.49 1178,-276 1131.12,-253.78 1086.15,-211.36 1063.75,-188.33"/>
<polygon fill="midnightblue" stroke="midnightblue" points="1066.24,-185.87 1056.8,-181.06 1061.18,-190.71 1066.24,-185.87"/>
</g>
<!-- Node17&#45;&gt;Node6 -->
<g id="edge44" class="edge">
<title>Node17&#45;&gt;Node6</title>
<path fill="none" stroke="midnightblue" d="M1462.56,-321.61C1524.01,-314.36 1627.9,-299.08 1658,-276 1708.05,-237.62 1719,-156.33 1721.36,-119.21"/>
<polygon fill="midnightblue" stroke="midnightblue" points="1724.88,-118.98 1721.87,-108.82 1717.89,-118.64 1724.88,-118.98"/>
</g>
<!-- Node17&#45;&gt;Node9 -->
<g id="edge42" class="edge">
<title>Node17&#45;&gt;Node9</title>
<path fill="none" stroke="midnightblue" d="M1462.84,-324.92C1578.46,-320.55 1870.3,-306.58 1901,-276 1939.29,-237.85 1933.94,-169.05 1926.83,-129.72"/>
<polygon fill="midnightblue" stroke="midnightblue" points="1930.23,-128.83 1924.87,-119.69 1923.36,-130.18 1930.23,-128.83"/>
</g>
<!-- Node18 -->
<g id="node19" class="node">
<title>Node18</title>
<g id="a_node19"><a xlink:href="Generic_8h.html" target="_top" xlink:title="hydra/detail/utility\l/Generic.h">
<polygon fill="none" stroke="black" points="1798.5,-234.5 1798.5,-264.5 1891.5,-264.5 1891.5,-234.5 1798.5,-234.5"/>
<text text-anchor="start" x="1806.5" y="-252.5" font-family="Helvetica,sans-Serif" font-size="10.00">hydra/detail/utility</text>
<text text-anchor="middle" x="1845" y="-241.5" font-family="Helvetica,sans-Serif" font-size="10.00">/Generic.h</text>
</a>
</g>
</g>
<!-- Node17&#45;&gt;Node18 -->
<g id="edge21" class="edge">
<title>Node17&#45;&gt;Node18</title>
<path fill="none" stroke="midnightblue" d="M1462.67,-323.98C1533.3,-319.3 1671.08,-306.79 1784,-276 1791.31,-274.01 1798.9,-271.35 1806.15,-268.5"/>
<polygon fill="midnightblue" stroke="midnightblue" points="1807.85,-271.58 1815.76,-264.54 1805.18,-265.11 1807.85,-271.58"/>
</g>
<!-- Node19 -->
<g id="node20" class="node">
<title>Node19</title>
<polygon fill="none" stroke="#bfbfbf" points="1758,-162 1758,-181 1796,-181 1796,-162 1758,-162"/>
<text text-anchor="middle" x="1777" y="-169" font-family="Helvetica,sans-Serif" font-size="10.00">array</text>
</g>
<!-- Node17&#45;&gt;Node19 -->
<g id="edge45" class="edge">
<title>Node17&#45;&gt;Node19</title>
<path fill="none" stroke="midnightblue" d="M1462.59,-322.92C1534.48,-316.65 1668.28,-301.86 1708,-276 1739.7,-255.36 1760.33,-214.51 1770.19,-190.77"/>
<polygon fill="midnightblue" stroke="midnightblue" points="1773.55,-191.78 1773.97,-181.2 1767.04,-189.21 1773.55,-191.78"/>
</g>
<!-- Node20 -->
<g id="node21" class="node">
<title>Node20</title>
<g id="a_node21"><a xlink:href="TagTraits_8h.html" target="_top" xlink:title="hydra/detail/TagTraits.h">
<polygon fill="none" stroke="black" points="1220.5,-240 1220.5,-259 1339.5,-259 1339.5,-240 1220.5,-240"/>
<text text-anchor="middle" x="1280" y="-247" font-family="Helvetica,sans-Serif" font-size="10.00">hydra/detail/TagTraits.h</text>
</a>
</g>
</g>
<!-- Node17&#45;&gt;Node20 -->
<g id="edge24" class="edge">
<title>Node17&#45;&gt;Node20</title>
<path fill="none" stroke="midnightblue" d="M1390.74,-312.38C1366.05,-298.59 1328.73,-277.73 1304.36,-264.11"/>
<polygon fill="midnightblue" stroke="midnightblue" points="1305.84,-260.93 1295.4,-259.11 1302.42,-267.04 1305.84,-260.93"/>
</g>
<!-- Node21 -->
<g id="node22" class="node">
<title>Node21</title>
<g id="a_node22"><a xlink:href="FunctorTraits_8h.html" target="_top" xlink:title="hydra/detail/FunctorTraits.h">
<polygon fill="none" stroke="black" points="1492,-240 1492,-259 1628,-259 1628,-240 1492,-240"/>
<text text-anchor="middle" x="1560" y="-247" font-family="Helvetica,sans-Serif" font-size="10.00">hydra/detail/FunctorTraits.h</text>
</a>
</g>
</g>
<!-- Node17&#45;&gt;Node21 -->
<g id="edge27" class="edge">
<title>Node17&#45;&gt;Node21</title>
<path fill="none" stroke="midnightblue" d="M1442.75,-312.38C1469,-298.53 1508.75,-277.55 1534.55,-263.93"/>
<polygon fill="midnightblue" stroke="midnightblue" points="1536.48,-266.87 1543.69,-259.11 1533.22,-260.68 1536.48,-266.87"/>
</g>
<!-- Node23 -->
<g id="node24" class="node">
<title>Node23</title>
<polygon fill="none" stroke="#bfbfbf" points="1588,-156.5 1588,-186.5 1694,-186.5 1694,-156.5 1588,-156.5"/>
<text text-anchor="start" x="1596" y="-174.5" font-family="Helvetica,sans-Serif" font-size="10.00">hydra/detail/external</text>
<text text-anchor="middle" x="1641" y="-163.5" font-family="Helvetica,sans-Serif" font-size="10.00">/hydra_thrust/tuple.h</text>
</g>
<!-- Node17&#45;&gt;Node23 -->
<g id="edge41" class="edge">
<title>Node17&#45;&gt;Node23</title>
<path fill="none" stroke="midnightblue" d="M1462.77,-322.39C1520.9,-316.21 1615.14,-302.36 1637,-276 1655.14,-254.13 1652.41,-219.84 1647.67,-196.78"/>
<polygon fill="midnightblue" stroke="midnightblue" points="1651.01,-195.72 1645.33,-186.77 1644.19,-197.3 1651.01,-195.72"/>
</g>
<!-- Node17&#45;&gt;Node25 -->
<g id="edge34" class="edge">
<title>Node17&#45;&gt;Node25</title>
<path fill="none" stroke="midnightblue" d="M1369.14,-319.76C1272.66,-305.87 1052.04,-274.11 946.43,-258.91"/>
<polygon fill="midnightblue" stroke="midnightblue" points="946.67,-255.41 936.27,-257.45 945.67,-262.34 946.67,-255.41"/>
</g>
<!-- Node29 -->
<g id="node30" class="node">
<title>Node29</title>
<polygon fill="none" stroke="#bfbfbf" points="1358,-223.5 1358,-275.5 1474,-275.5 1474,-223.5 1358,-223.5"/>
<text text-anchor="start" x="1366" y="-263.5" font-family="Helvetica,sans-Serif" font-size="10.00">hydra/detail/external</text>
<text text-anchor="start" x="1366" y="-252.5" font-family="Helvetica,sans-Serif" font-size="10.00">/hydra_thrust/iterator</text>
<text text-anchor="start" x="1366" y="-241.5" font-family="Helvetica,sans-Serif" font-size="10.00">/detail/tuple_of_iterator</text>
<text text-anchor="middle" x="1416" y="-230.5" font-family="Helvetica,sans-Serif" font-size="10.00">_references.h</text>
</g>
<!-- Node17&#45;&gt;Node29 -->
<g id="edge43" class="edge">
<title>Node17&#45;&gt;Node29</title>
<path fill="none" stroke="midnightblue" d="M1416,-312.2C1416,-304.63 1416,-294.95 1416,-285.53"/>
<polygon fill="midnightblue" stroke="midnightblue" points="1419.5,-285.5 1416,-275.5 1412.5,-285.5 1419.5,-285.5"/>
</g>
<!-- Node18&#45;&gt;Node6 -->
<g id="edge22" class="edge">
<title>Node18&#45;&gt;Node6</title>
<path fill="none" stroke="midnightblue" d="M1841.57,-234.32C1836.33,-214.93 1824.78,-179.83 1805,-156 1789.92,-137.83 1767.47,-123.17 1749.72,-113.42"/>
<polygon fill="midnightblue" stroke="midnightblue" points="1750.9,-110.08 1740.42,-108.51 1747.64,-116.28 1750.9,-110.08"/>
</g>
<!-- Node18&#45;&gt;Node19 -->
<g id="edge23" class="edge">
<title>Node18&#45;&gt;Node19</title>
<path fill="none" stroke="midnightblue" d="M1832.21,-234.2C1820.61,-221.24 1803.53,-202.16 1791.45,-188.65"/>
<polygon fill="midnightblue" stroke="midnightblue" points="1793.94,-186.18 1784.66,-181.06 1788.72,-190.85 1793.94,-186.18"/>
</g>
<!-- Node20&#45;&gt;Node4 -->
<g id="edge26" class="edge">
<title>Node20&#45;&gt;Node4</title>
<path fill="none" stroke="midnightblue" d="M1253.95,-239.93C1212.51,-226.29 1131.48,-199.64 1084.67,-184.24"/>
<polygon fill="midnightblue" stroke="midnightblue" points="1085.55,-180.84 1074.95,-181.04 1083.36,-187.49 1085.55,-180.84"/>
</g>
<!-- Node20&#45;&gt;Node6 -->
<g id="edge25" class="edge">
<title>Node20&#45;&gt;Node6</title>
<path fill="none" stroke="midnightblue" d="M1285.69,-239.84C1298.54,-221.04 1331.88,-176.55 1372,-156 1425.33,-128.68 1600.09,-110.52 1680.65,-103.39"/>
<polygon fill="midnightblue" stroke="midnightblue" points="1681.25,-106.85 1690.91,-102.5 1680.64,-99.88 1681.25,-106.85"/>
</g>
<!-- Node21&#45;&gt;Node1 -->
<g id="edge28" class="edge">
<title>Node21&#45;&gt;Node1</title>
<path fill="none" stroke="midnightblue" d="M1534.35,-239.96C1519.38,-234.99 1500.13,-228.61 1483,-223 1433.72,-206.85 1420.13,-206.33 1372,-187 1315.18,-164.18 1251.19,-131.5 1216.9,-113.38"/>
<polygon fill="midnightblue" stroke="midnightblue" points="1218.52,-110.28 1208.04,-108.68 1215.23,-116.46 1218.52,-110.28"/>
</g>
<!-- Node21&#45;&gt;Node6 -->
<g id="edge33" class="edge">
<title>Node21&#45;&gt;Node6</title>
<path fill="none" stroke="midnightblue" d="M1559.25,-239.96C1558.16,-222.16 1558.19,-180.7 1579,-156 1604.42,-125.82 1648.24,-111.82 1680.69,-105.38"/>
<polygon fill="midnightblue" stroke="midnightblue" points="1681.57,-108.78 1690.78,-103.54 1680.32,-101.89 1681.57,-108.78"/>
</g>
<!-- Node21&#45;&gt;Node16 -->
<g id="edge31" class="edge">
<title>Node21&#45;&gt;Node16</title>
<path fill="none" stroke="midnightblue" d="M1536.64,-239.93C1521.49,-234.58 1501.25,-227.82 1483,-223 1403.7,-202.07 1381.05,-208.88 1302,-187 1237.42,-169.12 1165.38,-142.45 1116.62,-123.35"/>
<polygon fill="midnightblue" stroke="midnightblue" points="1117.78,-120.04 1107.19,-119.64 1115.21,-126.56 1117.78,-120.04"/>
</g>
<!-- Node22 -->
<g id="node23" class="node">
<title>Node22</title>
<g id="a_node23"><a xlink:href="StaticAssert_8h.html" target="_top" xlink:title="hydra/detail/utility\l/StaticAssert.h">
<polygon fill="none" stroke="black" points="1380.5,-156.5 1380.5,-186.5 1473.5,-186.5 1473.5,-156.5 1380.5,-156.5"/>
<text text-anchor="start" x="1388.5" y="-174.5" font-family="Helvetica,sans-Serif" font-size="10.00">hydra/detail/utility</text>
<text text-anchor="middle" x="1427" y="-163.5" font-family="Helvetica,sans-Serif" font-size="10.00">/StaticAssert.h</text>
</a>
</g>
</g>
<!-- Node21&#45;&gt;Node22 -->
<g id="edge29" class="edge">
<title>Node21&#45;&gt;Node22</title>
<path fill="none" stroke="midnightblue" d="M1545,-239.93C1524.62,-228.28 1487.59,-207.12 1460.44,-191.61"/>
<polygon fill="midnightblue" stroke="midnightblue" points="1462.06,-188.5 1451.64,-186.58 1458.59,-194.58 1462.06,-188.5"/>
</g>
<!-- Node21&#45;&gt;Node23 -->
<g id="edge30" class="edge">
<title>Node21&#45;&gt;Node23</title>
<path fill="none" stroke="midnightblue" d="M1569.29,-239.78C1581.22,-228.59 1602.31,-208.8 1618.54,-193.57"/>
<polygon fill="midnightblue" stroke="midnightblue" points="1621.16,-195.91 1626.06,-186.52 1616.37,-190.81 1621.16,-195.91"/>
</g>
<!-- Node24 -->
<g id="node25" class="node">
<title>Node24</title>
<polygon fill="none" stroke="#bfbfbf" points="1492,-162 1492,-181 1532,-181 1532,-162 1492,-162"/>
<text text-anchor="middle" x="1512" y="-169" font-family="Helvetica,sans-Serif" font-size="10.00">utility</text>
</g>
<!-- Node21&#45;&gt;Node24 -->
<g id="edge32" class="edge">
<title>Node21&#45;&gt;Node24</title>
<path fill="none" stroke="midnightblue" d="M1554.49,-239.78C1546.83,-227.64 1532.77,-205.38 1522.93,-189.8"/>
<polygon fill="midnightblue" stroke="midnightblue" points="1525.74,-187.7 1517.44,-181.12 1519.82,-191.44 1525.74,-187.7"/>
</g>
<!-- Node25&#45;&gt;Node1 -->
<g id="edge35" class="edge">
<title>Node25&#45;&gt;Node1</title>
<path fill="none" stroke="midnightblue" d="M892.9,-239.73C903.79,-221.11 931.92,-177.57 968,-156 1030.93,-118.37 1058.21,-139.11 1129,-120 1138.19,-117.52 1148.05,-114.54 1157.17,-111.66"/>
<polygon fill="midnightblue" stroke="midnightblue" points="1158.26,-114.98 1166.71,-108.59 1156.12,-108.32 1158.26,-114.98"/>
</g>
<!-- Node25&#45;&gt;Node4 -->
<g id="edge36" class="edge">
<title>Node25&#45;&gt;Node4</title>
<path fill="none" stroke="midnightblue" d="M906.16,-239.93C934.3,-226.64 988.64,-200.99 1021.58,-185.44"/>
<polygon fill="midnightblue" stroke="midnightblue" points="1023.11,-188.59 1030.66,-181.16 1020.13,-182.26 1023.11,-188.59"/>
</g>
<!-- Node25&#45;&gt;Node5 -->
<g id="edge37" class="edge">
<title>Node25&#45;&gt;Node5</title>
<path fill="none" stroke="midnightblue" d="M868.63,-240C856.49,-234.81 840.46,-228.19 826,-223 784.45,-208.09 736.06,-193.53 702.66,-183.9"/>
<polygon fill="midnightblue" stroke="midnightblue" points="703.38,-180.46 692.8,-181.07 701.45,-187.19 703.38,-180.46"/>
</g>
<!-- Node26 -->
<g id="node27" class="node">
<title>Node26</title>
<polygon fill="none" stroke="#bfbfbf" points="742.5,-162 742.5,-181 783.5,-181 783.5,-162 742.5,-162"/>
<text text-anchor="middle" x="763" y="-169" font-family="Helvetica,sans-Serif" font-size="10.00">string</text>
</g>
<!-- Node25&#45;&gt;Node26 -->
<g id="edge38" class="edge">
<title>Node25&#45;&gt;Node26</title>
<path fill="none" stroke="midnightblue" d="M873.66,-239.78C852.19,-226.73 811.46,-201.97 785.86,-186.4"/>
<polygon fill="midnightblue" stroke="midnightblue" points="787.53,-183.32 777.17,-181.12 783.9,-189.3 787.53,-183.32"/>
</g>
<!-- Node27 -->
<g id="node28" class="node">
<title>Node27</title>
<polygon fill="none" stroke="#bfbfbf" points="802,-162 802,-181 854,-181 854,-162 802,-162"/>
<text text-anchor="middle" x="828" y="-169" font-family="Helvetica,sans-Serif" font-size="10.00">ostream</text>
</g>
<!-- Node25&#45;&gt;Node27 -->
<g id="edge39" class="edge">
<title>Node25&#45;&gt;Node27</title>
<path fill="none" stroke="midnightblue" d="M881.12,-239.78C871.44,-227.53 853.63,-204.96 841.31,-189.36"/>
<polygon fill="midnightblue" stroke="midnightblue" points="843.75,-186.8 834.8,-181.12 838.25,-191.13 843.75,-186.8"/>
</g>
<!-- Node28 -->
<g id="node29" class="node">
<title>Node28</title>
<polygon fill="none" stroke="#bfbfbf" points="872,-162 872,-181 916,-181 916,-162 872,-162"/>
<text text-anchor="middle" x="894" y="-169" font-family="Helvetica,sans-Serif" font-size="10.00">vector</text>
</g>
<!-- Node25&#45;&gt;Node28 -->
<g id="edge40" class="edge">
<title>Node25&#45;&gt;Node28</title>
<path fill="none" stroke="midnightblue" d="M888.69,-239.78C889.62,-227.99 891.31,-206.63 892.53,-191.14"/>
<polygon fill="midnightblue" stroke="midnightblue" points="896.02,-191.36 893.32,-181.12 889.04,-190.81 896.02,-191.36"/>
</g>
<!-- Node30&#45;&gt;Node1 -->
<g id="edge48" class="edge">
<title>Node30&#45;&gt;Node1</title>
<path fill="none" stroke="midnightblue" d="M1302.55,-379.42C1271.45,-363.84 1209.4,-327.65 1183,-276 1156.47,-224.11 1174.4,-152.01 1185.32,-118.49"/>
<polygon fill="midnightblue" stroke="midnightblue" points="1188.75,-119.29 1188.68,-108.69 1182.12,-117.02 1188.75,-119.29"/>
</g>
<!-- Node30&#45;&gt;Node4 -->
<g id="edge49" class="edge">
<title>Node30&#45;&gt;Node4</title>
<path fill="none" stroke="midnightblue" d="M1253.69,-383.16C1217.3,-377.78 1173.15,-366.5 1140,-343 1086.9,-305.35 1062.02,-226.85 1053.08,-191.03"/>
<polygon fill="midnightblue" stroke="midnightblue" points="1056.42,-189.94 1050.73,-181.01 1049.61,-191.54 1056.42,-189.94"/>
</g>
<!-- Node30&#45;&gt;Node5 -->
<g id="edge52" class="edge">
<title>Node30&#45;&gt;Node5</title>
<path fill="none" stroke="midnightblue" d="M1253.81,-380.01C1157.29,-366.92 975.17,-336.12 831,-276 772.91,-251.77 711.54,-209.32 681.24,-187.06"/>
<polygon fill="midnightblue" stroke="midnightblue" points="683.33,-184.25 673.21,-181.09 679.15,-189.87 683.33,-184.25"/>
</g>
<!-- Node30&#45;&gt;Node6 -->
<g id="edge47" class="edge">
<title>Node30&#45;&gt;Node6</title>
<path fill="none" stroke="midnightblue" d="M1388.07,-384.82C1497.52,-379.06 1709.5,-365.38 1781,-343 1839.29,-324.75 1870.08,-328.68 1901,-276 1944.14,-202.51 1816.94,-138.6 1754.46,-112.52"/>
<polygon fill="midnightblue" stroke="midnightblue" points="1755.6,-109.2 1745.02,-108.66 1752.95,-115.68 1755.6,-109.2"/>
</g>
<!-- Node30&#45;&gt;Node17 -->
<g id="edge50" class="edge">
<title>Node30&#45;&gt;Node17</title>
<path fill="none" stroke="midnightblue" d="M1334.61,-379.48C1347.72,-371.27 1368.01,-358.56 1385.05,-347.88"/>
<polygon fill="midnightblue" stroke="midnightblue" points="1386.99,-350.8 1393.61,-342.52 1383.28,-344.86 1386.99,-350.8"/>
</g>
<!-- Node30&#45;&gt;Node18 -->
<g id="edge51" class="edge">
<title>Node30&#45;&gt;Node18</title>
<path fill="none" stroke="midnightblue" d="M1388.21,-386.05C1491.52,-382.2 1683.91,-371.36 1746,-343 1780.38,-327.3 1810.6,-294.87 1828.34,-272.89"/>
<polygon fill="midnightblue" stroke="midnightblue" points="1831.31,-274.79 1834.73,-264.76 1825.8,-270.46 1831.31,-274.79"/>
</g>
<!-- Node30&#45;&gt;Node23 -->
<g id="edge53" class="edge">
<title>Node30&#45;&gt;Node23</title>
<path fill="none" stroke="midnightblue" d="M1388.09,-387.67C1467.77,-383.19 1597.47,-362.13 1658,-276 1674.6,-252.38 1664.12,-218.32 1653.73,-195.81"/>
<polygon fill="midnightblue" stroke="midnightblue" points="1656.78,-194.07 1649.22,-186.65 1650.5,-197.16 1656.78,-194.07"/>
</g>
<!-- Node31&#45;&gt;Node1 -->
<g id="edge56" class="edge">
<title>Node31&#45;&gt;Node1</title>
<path fill="none" stroke="midnightblue" d="M1457.09,-442.01C1608.47,-434.38 1992.14,-397.75 1901,-223 1876.94,-176.87 1853.87,-173.85 1805,-156 1705.46,-119.64 1392.22,-106.01 1256.15,-101.71"/>
<polygon fill="midnightblue" stroke="midnightblue" points="1255.99,-98.2 1245.88,-101.39 1255.77,-105.2 1255.99,-98.2"/>
</g>
<!-- Node31&#45;&gt;Node4 -->
<g id="edge57" class="edge">
<title>Node31&#45;&gt;Node4</title>
<path fill="none" stroke="midnightblue" d="M1338.77,-435.74C1275,-424.29 1173.39,-398.38 1104,-343 1075.77,-320.47 1070.19,-310 1058,-276 1047.88,-247.78 1047.11,-212.57 1047.81,-191.35"/>
<polygon fill="midnightblue" stroke="midnightblue" points="1051.32,-191.29 1048.3,-181.13 1044.33,-190.95 1051.32,-191.29"/>
</g>
<!-- Node31&#45;&gt;Node6 -->
<g id="edge55" class="edge">
<title>Node31&#45;&gt;Node6</title>
<path fill="none" stroke="midnightblue" d="M1457.26,-439.45C1615.15,-426.54 2034,-386.79 2034,-328.5 2034,-328.5 2034,-328.5 2034,-248.5 2034,-189.12 1847.45,-132.78 1762.85,-110.28"/>
<polygon fill="midnightblue" stroke="midnightblue" points="1763.62,-106.87 1753.06,-107.71 1761.84,-113.64 1763.62,-106.87"/>
</g>
<!-- Node31&#45;&gt;Node17 -->
<g id="edge58" class="edge">
<title>Node31&#45;&gt;Node17</title>
<path fill="none" stroke="midnightblue" d="M1399.35,-435.32C1402.06,-417.97 1408.21,-378.46 1412.24,-352.66"/>
<polygon fill="midnightblue" stroke="midnightblue" points="1415.73,-352.97 1413.81,-342.55 1408.81,-351.89 1415.73,-352.97"/>
</g>
<!-- Node31&#45;&gt;Node30 -->
<g id="edge59" class="edge">
<title>Node31&#45;&gt;Node30</title>
<path fill="none" stroke="midnightblue" d="M1385.63,-435.32C1373.84,-427.06 1355.87,-414.45 1341.86,-404.63"/>
<polygon fill="midnightblue" stroke="midnightblue" points="1343.54,-401.53 1333.34,-398.65 1339.52,-407.26 1343.54,-401.53"/>
</g>
<!-- Node32&#45;&gt;Node9 -->
<g id="edge62" class="edge">
<title>Node32&#45;&gt;Node9</title>
<path fill="none" stroke="midnightblue" d="M2072,-435.31C2072,-416.06 2072,-368.4 2072,-328.5 2072,-328.5 2072,-328.5 2072,-248.5 2072,-206.03 2075.56,-188.32 2048,-156 2030.98,-136.05 2005.51,-122.96 1981.76,-114.5"/>
<polygon fill="midnightblue" stroke="midnightblue" points="1982.67,-111.11 1972.07,-111.26 1980.45,-117.75 1982.67,-111.11"/>
</g>
<!-- Node33 -->
<g id="node34" class="node">
<title>Node33</title>
<g id="a_node34"><a xlink:href="Placeholders_8inl.html" target="_top" xlink:title="hydra/detail/Placeholders.inl">
<polygon fill="none" stroke="black" points="2100.5,-379.5 2100.5,-398.5 2239.5,-398.5 2239.5,-379.5 2100.5,-379.5"/>
<text text-anchor="middle" x="2170" y="-386.5" font-family="Helvetica,sans-Serif" font-size="10.00">hydra/detail/Placeholders.inl</text>
</a>
</g>
</g>
<!-- Node32&#45;&gt;Node33 -->
<g id="edge63" class="edge">
<title>Node32&#45;&gt;Node33</title>
<path fill="none" stroke="midnightblue" d="M2087.75,-435.32C2103.32,-426.74 2127.38,-413.49 2145.46,-403.52"/>
<polygon fill="midnightblue" stroke="midnightblue" points="2147.22,-406.55 2154.29,-398.65 2143.85,-400.42 2147.22,-406.55"/>
</g>
</g>
</svg>
        <g id="navigator" transform="translate(0 0)" fill="#404254">
                <rect fill="#f2f5e9" fill-opacity="0.5" stroke="#606060" stroke-width=".5" x="0" y="0" width="60" height="60"/>
                <use id="zoomplus" xlink:href="#zoomPlus" x="17" y="9" onmousedown="handleZoom(evt,'in')"/>
                <use id="zoomminus" xlink:href="#zoomMin" x="42" y="9" onmousedown="handleZoom(evt,'out')"/>
                <use id="reset" xlink:href="#resetDef" x="30" y="36" onmousedown="handleReset()"/>
                <g id="arrowUp" xlink:href="#dirArrow" transform="translate(30 24)" onmousedown="handlePan(0,-1)">
                  <use xlink:href="#rim" fill="#404040">
                        <set attributeName="fill" to="#808080" begin="arrowUp.mouseover" end="arrowUp.mouseout"/>
                  </use>
                  <path fill="none" stroke="white" stroke-width="1.5" d="M0,-3.0v7 M-2.5,-0.5L0,-3.0L2.5,-0.5"/>
                </g>
                <g id="arrowRight" xlink:href="#dirArrow" transform="rotate(90) translate(36 -43)" onmousedown="handlePan(1,0)">
                  <use xlink:href="#rim" fill="#404040">
                        <set attributeName="fill" to="#808080" begin="arrowRight.mouseover" end="arrowRight.mouseout"/>
                  </use>
                  <path fill="none" stroke="white" stroke-width="1.5" d="M0,-3.0v7 M-2.5,-0.5L0,-3.0L2.5,-0.5"/>
                </g>
                <g id="arrowDown" xlink:href="#dirArrow" transform="rotate(180) translate(-30 -48)" onmousedown="handlePan(0,1)">
                  <use xlink:href="#rim" fill="#404040">
                        <set attributeName="fill" to="#808080" begin="arrowDown.mouseover" end="arrowDown.mouseout"/>
                  </use>
                  <path fill="none" stroke="white" stroke-width="1.5" d="M0,-3.0v7 M-2.5,-0.5L0,-3.0L2.5,-0.5"/>
                </g>
                <g id="arrowLeft" xlink:href="#dirArrow" transform="rotate(270) translate(-36 17)" onmousedown="handlePan(-1,0)">
                  <use xlink:href="#rim" fill="#404040">
                        <set attributeName="fill" to="#808080" begin="arrowLeft.mouseover" end="arrowLeft.mouseout"/>
                  </use>
                  <path fill="none" stroke="white" stroke-width="1.5" d="M0,-3.0v7 M-2.5,-0.5L0,-3.0L2.5,-0.5"/>
                </g>
        </g>
        <svg viewBox="0 0 15 15" width="100%" height="30px" preserveAspectRatio="xMaxYMin meet">
         <g id="arrow_out" transform="scale(0.3 0.3)">
          <a xlink:href="ParametersCompositeFunctor_8h__incl_org.svg" target="_base">
           <rect id="button" ry="5" rx="5" y="6" x="6" height="38" width="38"
                fill="#f2f5e9" fill-opacity="0.5" stroke="#606060" stroke-width="1.0"/>
           <path id="arrow"
             d="M 11.500037,31.436501 C 11.940474,20.09759 22.043105,11.32322 32.158766,21.979434 L 37.068811,17.246167 C 37.068811,17.246167 37.088388,32 37.088388,32 L 22.160133,31.978069 C 22.160133,31.978069 26.997745,27.140456 26.997745,27.140456 C 18.528582,18.264221 13.291696,25.230495 11.500037,31.436501 z"
             style="fill:#404040;"/>
          </a>
         </g>
        </svg>
</svg>
