<?xml version="1.0" encoding="UTF-8" standalone="no"?>
<!DOCTYPE svg PUBLIC "-//W3C//DTD SVG 1.1//EN"
 "http://www.w3.org/Graphics/SVG/1.1/DTD/svg11.dtd">
<!-- Generated by graphviz version 2.40.1 (20161225.0304)
 -->
<!-- Title: ParametersCompositeFunctor.h Pages: 1 -->
<svg width="163pt" height="140pt"
 viewBox="0.00 0.00 163.00 140.00" xmlns="http://www.w3.org/2000/svg" xmlns:xlink="http://www.w3.org/1999/xlink">
<g id="graph0" class="graph" transform="scale(1 1) rotate(0) translate(4 136)">
<title>ParametersCompositeFunctor.h</title>
<!-- Node40 -->
<g id="node1" class="node">
<title>Node40</title>
<polygon fill="#bfbfbf" stroke="#000000" points="0,-112.5 0,-131.5 155,-131.5 155,-112.5 0,-112.5"/>
<text text-anchor="middle" x="77.5" y="-119.5" font-family="Helvetica,sans-Serif" font-size="10.00" fill="#000000">ParametersCompositeFunctor.h</text>
</g>
<!-- Node41 -->
<g id="node2" class="node">
<title>Node41</title>
<g id="a_node2"><a xlink:href="BaseCompositeFunctor_8h.html" target="_top" xlink:title="BaseCompositeFunctor.h">
<polygon fill="none" stroke="#000000" points="14,-56.5 14,-75.5 141,-75.5 141,-56.5 14,-56.5"/>
<text text-anchor="middle" x="77.5" y="-63.5" font-family="Helvetica,sans-Serif" font-size="10.00" fill="#000000">BaseCompositeFunctor.h</text>
</a>
</g>
</g>
<!-- Node40&#45;&gt;Node41 -->
<g id="edge1" class="edge">
<title>Node40&#45;&gt;Node41</title>
<path fill="none" stroke="#191970" d="M77.5,-102.1575C77.5,-93.155 77.5,-82.9199 77.5,-75.6427"/>
<polygon fill="#191970" stroke="#191970" points="74.0001,-102.2455 77.5,-112.2455 81.0001,-102.2456 74.0001,-102.2455"/>
</g>
<!-- Node42 -->
<g id="node3" class="node">
<title>Node42</title>
<g id="a_node3"><a xlink:href="Convolution_8h.html" target="_top" xlink:title="Convolution.h">
<polygon fill="none" stroke="#000000" points="39.5,-.5 39.5,-19.5 115.5,-19.5 115.5,-.5 39.5,-.5"/>
<text text-anchor="middle" x="77.5" y="-7.5" font-family="Helvetica,sans-Serif" font-size="10.00" fill="#000000">Convolution.h</text>
</a>
</g>
</g>
<!-- Node41&#45;&gt;Node42 -->
<g id="edge2" class="edge">
<title>Node41&#45;&gt;Node42</title>
<path fill="none" stroke="#191970" d="M77.5,-46.1575C77.5,-37.155 77.5,-26.9199 77.5,-19.6427"/>
<polygon fill="#191970" stroke="#191970" points="74.0001,-46.2455 77.5,-56.2455 81.0001,-46.2456 74.0001,-46.2455"/>
</g>
</g>
</svg>
