<?xml version="1.0" encoding="UTF-8" standalone="no"?>
<!DOCTYPE svg PUBLIC "-//W3C//DTD SVG 1.1//EN"
 "http://www.w3.org/Graphics/SVG/1.1/DTD/svg11.dtd">
<!-- Generated by graphviz version 2.38.0 (20140413.2041)
 -->
<!-- Title: PDFSumNonExtendable.h Pages: 1 -->
<!--zoomable 274 -->
<svg id="main" version="1.1" xmlns="http://www.w3.org/2000/svg" xmlns:xlink="http://www.w3.org/1999/xlink" xml:space="preserve" onload="init(evt)">
<style type="text/css"><![CDATA[
.edge:hover path { stroke: red; }
.edge:hover polygon { stroke: red; fill: red; }
]]></style>
<script type="text/javascript"><![CDATA[
var edges = document.getElementsByTagName('g');
if (edges && edges.length) {
  for (var i=0;i<edges.length;i++) {
    if (edges[i].id.substr(0,4)=='edge') {
      edges[i].setAttribute('class','edge');
    }
  }
}
]]></script>
        <defs>
                <circle id="rim" cx="0" cy="0" r="7"/>
                <circle id="rim2" cx="0" cy="0" r="3.5"/>
                <g id="zoomPlus">
                        <use xlink:href="#rim" fill="#404040">
                                <set attributeName="fill" to="#808080" begin="zoomplus.mouseover" end="zoomplus.mouseout"/>
                        </use>
                        <path d="M-4,0h8M0,-4v8" fill="none" stroke="white" stroke-width="1.5" pointer-events="none"/>
                </g>
                <g id="zoomMin">
                        <use xlink:href="#rim" fill="#404040">
                                <set attributeName="fill" to="#808080" begin="zoomminus.mouseover" end="zoomminus.mouseout"/>
                        </use>
                        <path d="M-4,0h8" fill="none" stroke="white" stroke-width="1.5" pointer-events="none"/>
                </g>
                <g id="dirArrow">
                        <path fill="none" stroke="white" stroke-width="1.5" d="M0,-3.0v7 M-2.5,-0.5L0,-3.0L2.5,-0.5"/>
                </g>
               <g id="resetDef">
                       <use xlink:href="#rim2" fill="#404040">
                               <set attributeName="fill" to="#808080" begin="reset.mouseover" end="reset.mouseout"/>
                       </use>
               </g>
        </defs>

<script type="text/javascript">
var viewWidth = 3139;
var viewHeight = 274;
var sectionId = 'dynsection-1';
</script>
<script xlink:href="svgpan.js"/>
<svg id="graph" class="graph">
<g id="viewport">
<title>PDFSumNonExtendable.h</title>
<!-- Node48 -->
<g id="node1" class="node"><title>Node48</title>
<polygon fill="#bfbfbf" stroke="black" points="1460.5,-246.5 1460.5,-265.5 1592.5,-265.5 1592.5,-246.5 1460.5,-246.5"/>
<text text-anchor="middle" x="1526.5" y="-253.5" font-family="Helvetica,sans-Serif" font-size="10.00">PDFSumNonExtendable.h</text>
</g>
<!-- Node49 -->
<g id="node2" class="node"><title>Node49</title>
<g id="a_node2"><a xlink:href="AddPdf_8h.html" target="_top" xlink:title="Include this file to get the classes and functions necessary to build&#45;up composed PDF models...">
<polygon fill="none" stroke="black" points="1412,-134.5 1412,-153.5 1469,-153.5 1469,-134.5 1412,-134.5"/>
<text text-anchor="middle" x="1440.5" y="-141.5" font-family="Helvetica,sans-Serif" font-size="10.00">AddPdf.h</text>
</a>
</g>
</g>
<!-- Node48&#45;&gt;Node49 -->
<g id="edge1" class="edge"><title>Node48&#45;&gt;Node49</title>
<path fill="none" stroke="midnightblue" d="M1497.81,-241.619C1484.42,-234.057 1469.32,-223.413 1459.5,-210 1446.86,-192.734 1442.59,-167.165 1441.18,-153.826"/>
<polygon fill="midnightblue" stroke="midnightblue" points="1496.24,-244.75 1506.71,-246.358 1499.53,-238.571 1496.24,-244.75"/>
</g>
<!-- Node81 -->
<g id="node34" class="node"><title>Node81</title>
<g id="a_node34"><a xlink:href="LogLikelihoodFCN3_8inl.html" target="_top" xlink:title="LogLikelihoodFCN3.inl">
<polygon fill="none" stroke="black" points="1469,-190.5 1469,-209.5 1584,-209.5 1584,-190.5 1469,-190.5"/>
<text text-anchor="middle" x="1526.5" y="-197.5" font-family="Helvetica,sans-Serif" font-size="10.00">LogLikelihoodFCN3.inl</text>
</a>
</g>
</g>
<!-- Node48&#45;&gt;Node81 -->
<g id="edge33" class="edge"><title>Node48&#45;&gt;Node81</title>
<path fill="none" stroke="midnightblue" d="M1526.5,-235.805C1526.5,-226.91 1526.5,-216.78 1526.5,-209.751"/>
<polygon fill="midnightblue" stroke="midnightblue" points="1523,-236.083 1526.5,-246.083 1530,-236.083 1523,-236.083"/>
</g>
<!-- Node82 -->
<g id="node35" class="node"><title>Node82</title>
<g id="a_node35"><a xlink:href="LogLikelihoodFCN_8h.html" target="_top" xlink:title="LogLikelihoodFCN.h">
<polygon fill="none" stroke="black" points="1536,-134.5 1536,-153.5 1641,-153.5 1641,-134.5 1536,-134.5"/>
<text text-anchor="middle" x="1588.5" y="-141.5" font-family="Helvetica,sans-Serif" font-size="10.00">LogLikelihoodFCN.h</text>
</a>
</g>
</g>
<!-- Node48&#45;&gt;Node82 -->
<g id="edge53" class="edge"><title>Node48&#45;&gt;Node82</title>
<path fill="none" stroke="midnightblue" d="M1557.88,-241.833C1571.08,-234.533 1585.08,-224.047 1592.5,-210 1602.11,-191.807 1596.04,-166.629 1591.72,-153.593"/>
<polygon fill="midnightblue" stroke="midnightblue" points="1556.28,-238.721 1548.96,-246.382 1559.46,-244.957 1556.28,-238.721"/>
</g>
<!-- Node50 -->
<g id="node3" class="node"><title>Node50</title>
<g id="a_node3"><a xlink:href="binned__extended__logLL__fit_8inl.html" target="_top" xlink:title="binned_extended_logLL\l_fit.inl">
<polygon fill="none" stroke="black" points="790,-67.5 790,-97.5 909,-97.5 909,-67.5 790,-67.5"/>
<text text-anchor="start" x="798" y="-85.5" font-family="Helvetica,sans-Serif" font-size="10.00">binned_extended_logLL</text>
<text text-anchor="middle" x="849.5" y="-74.5" font-family="Helvetica,sans-Serif" font-size="10.00">_fit.inl</text>
</a>
</g>
</g>
<!-- Node49&#45;&gt;Node50 -->
<g id="edge2" class="edge"><title>Node49&#45;&gt;Node50</title>
<path fill="none" stroke="midnightblue" d="M1401.98,-139.121C1301.44,-129 1030.57,-101.73 909.451,-89.5356"/>
<polygon fill="midnightblue" stroke="midnightblue" points="1401.69,-142.611 1411.99,-140.13 1402.4,-135.646 1401.69,-142.611"/>
</g>
<!-- Node53 -->
<g id="node6" class="node"><title>Node53</title>
<g id="a_node6"><a xlink:href="extended__logLL__fit_8inl.html" target="_top" xlink:title="extended_logLL_fit.inl">
<polygon fill="none" stroke="black" points="1033,-73 1033,-92 1144,-92 1144,-73 1033,-73"/>
<text text-anchor="middle" x="1088.5" y="-80" font-family="Helvetica,sans-Serif" font-size="10.00">extended_logLL_fit.inl</text>
</a>
</g>
</g>
<!-- Node49&#45;&gt;Node53 -->
<g id="edge5" class="edge"><title>Node49&#45;&gt;Node53</title>
<path fill="none" stroke="midnightblue" d="M1401.93,-136.481C1338,-125.674 1210.09,-104.053 1139.03,-92.0412"/>
<polygon fill="midnightblue" stroke="midnightblue" points="1401.55,-139.966 1411.99,-138.181 1402.72,-133.063 1401.55,-139.966"/>
</g>
<!-- Node56 -->
<g id="node9" class="node"><title>Node56</title>
<g id="a_node9"><a xlink:href="fractional__logLL__fit_8inl.html" target="_top" xlink:title="fractional_logLL_fit.inl">
<polygon fill="none" stroke="black" points="1238,-73 1238,-92 1349,-92 1349,-73 1238,-73"/>
<text text-anchor="middle" x="1293.5" y="-80" font-family="Helvetica,sans-Serif" font-size="10.00">fractional_logLL_fit.inl</text>
</a>
</g>
</g>
<!-- Node49&#45;&gt;Node56 -->
<g id="edge8" class="edge"><title>Node49&#45;&gt;Node56</title>
<path fill="none" stroke="midnightblue" d="M1409.94,-130.631C1381.38,-119.072 1339.5,-102.12 1314.52,-92.0091"/>
<polygon fill="midnightblue" stroke="midnightblue" points="1408.86,-133.967 1419.44,-134.475 1411.48,-127.479 1408.86,-133.967"/>
</g>
<!-- Node59 -->
<g id="node12" class="node"><title>Node59</title>
<g id="a_node12"><a xlink:href="multidimensional__fit_8inl.html" target="_top" xlink:title="multidimensional_fit.inl">
<polygon fill="none" stroke="black" points="1382.5,-73 1382.5,-92 1498.5,-92 1498.5,-73 1382.5,-73"/>
<text text-anchor="middle" x="1440.5" y="-80" font-family="Helvetica,sans-Serif" font-size="10.00">multidimensional_fit.inl</text>
</a>
</g>
</g>
<!-- Node49&#45;&gt;Node59 -->
<g id="edge11" class="edge"><title>Node49&#45;&gt;Node59</title>
<path fill="none" stroke="midnightblue" d="M1440.5,-124.317C1440.5,-113.496 1440.5,-100.398 1440.5,-92.0091"/>
<polygon fill="midnightblue" stroke="midnightblue" points="1437,-124.475 1440.5,-134.475 1444,-124.475 1437,-124.475"/>
</g>
<!-- Node62 -->
<g id="node15" class="node"><title>Node62</title>
<g id="a_node15"><a xlink:href="splot_8inl.html" target="_top" xlink:title="splot.inl">
<polygon fill="none" stroke="black" points="1630.5,-73 1630.5,-92 1680.5,-92 1680.5,-73 1630.5,-73"/>
<text text-anchor="middle" x="1655.5" y="-80" font-family="Helvetica,sans-Serif" font-size="10.00">splot.inl</text>
</a>
</g>
</g>
<!-- Node49&#45;&gt;Node62 -->
<g id="edge14" class="edge"><title>Node49&#45;&gt;Node62</title>
<path fill="none" stroke="midnightblue" d="M1479.06,-135.092C1515.83,-127.147 1572.55,-113.83 1620.5,-98 1625.62,-96.3092 1631.05,-94.2139 1636.07,-92.1467"/>
<polygon fill="midnightblue" stroke="midnightblue" points="1478.29,-131.678 1469.24,-137.189 1479.75,-138.523 1478.29,-131.678"/>
</g>
<!-- Node65 -->
<g id="node18" class="node"><title>Node65</title>
<g id="a_node18"><a xlink:href="breit__wigner__plus__polynomial_8inl.html" target="_top" xlink:title="breit_wigner_plus_polynomial.inl">
<polygon fill="none" stroke="black" points="1737,-73 1737,-92 1894,-92 1894,-73 1737,-73"/>
<text text-anchor="middle" x="1815.5" y="-80" font-family="Helvetica,sans-Serif" font-size="10.00">breit_wigner_plus_polynomial.inl</text>
</a>
</g>
</g>
<!-- Node49&#45;&gt;Node65 -->
<g id="edge17" class="edge"><title>Node49&#45;&gt;Node65</title>
<path fill="none" stroke="midnightblue" d="M1479.49,-136.814C1546.89,-126.12 1685.28,-104.161 1761.75,-92.0276"/>
<polygon fill="midnightblue" stroke="midnightblue" points="1478.63,-133.406 1469.3,-138.43 1479.73,-140.32 1478.63,-133.406"/>
</g>
<!-- Node68 -->
<g id="node21" class="node"><title>Node68</title>
<g id="a_node21"><a xlink:href="crystal__ball__plus__exponential_8inl.html" target="_top" xlink:title="crystal_ball_plus_exponential.inl">
<polygon fill="none" stroke="black" points="2022,-73 2022,-92 2179,-92 2179,-73 2022,-73"/>
<text text-anchor="middle" x="2100.5" y="-80" font-family="Helvetica,sans-Serif" font-size="10.00">crystal_ball_plus_exponential.inl</text>
</a>
</g>
</g>
<!-- Node49&#45;&gt;Node68 -->
<g id="edge20" class="edge"><title>Node49&#45;&gt;Node68</title>
<path fill="none" stroke="midnightblue" d="M1479.44,-138.787C1494.18,-137.229 1511.11,-135.482 1526.5,-134 1703.25,-116.978 1910.85,-99.2827 2021.54,-90.0314"/>
<polygon fill="midnightblue" stroke="midnightblue" points="1478.73,-135.343 1469.15,-139.882 1479.47,-142.304 1478.73,-135.343"/>
</g>
<!-- Node71 -->
<g id="node24" class="node"><title>Node71</title>
<g id="a_node24"><a xlink:href="dalitz__plot_8inl.html" target="_top" xlink:title="dalitz_plot.inl">
<polygon fill="none" stroke="black" points="2343.5,-73 2343.5,-92 2417.5,-92 2417.5,-73 2343.5,-73"/>
<text text-anchor="middle" x="2380.5" y="-80" font-family="Helvetica,sans-Serif" font-size="10.00">dalitz_plot.inl</text>
</a>
</g>
</g>
<!-- Node49&#45;&gt;Node71 -->
<g id="edge23" class="edge"><title>Node49&#45;&gt;Node71</title>
<path fill="none" stroke="midnightblue" d="M1479.42,-138.512C1494.15,-136.922 1511.09,-135.226 1526.5,-134 1819.79,-110.681 1893.9,-117.022 2187.5,-98 2241.65,-94.4915 2304.29,-89.639 2343.16,-86.5345"/>
<polygon fill="midnightblue" stroke="midnightblue" points="1478.69,-135.071 1469.13,-139.642 1479.46,-142.029 1478.69,-135.071"/>
</g>
<!-- Node74 -->
<g id="node27" class="node"><title>Node74</title>
<g id="a_node27"><a xlink:href="double__gaussian__plus__exponential_8inl.html" target="_top" xlink:title="double_gaussian_plus\l_exponential.inl">
<polygon fill="none" stroke="black" points="264,-67.5 264,-97.5 377,-97.5 377,-67.5 264,-67.5"/>
<text text-anchor="start" x="272" y="-85.5" font-family="Helvetica,sans-Serif" font-size="10.00">double_gaussian_plus</text>
<text text-anchor="middle" x="320.5" y="-74.5" font-family="Helvetica,sans-Serif" font-size="10.00">_exponential.inl</text>
</a>
</g>
</g>
<!-- Node49&#45;&gt;Node74 -->
<g id="edge26" class="edge"><title>Node49&#45;&gt;Node74</title>
<path fill="none" stroke="midnightblue" d="M1401.47,-141.427C1274.4,-136.236 861.084,-118.787 519.5,-98 471.439,-95.0753 416.901,-91.0518 377.089,-87.985"/>
<polygon fill="midnightblue" stroke="midnightblue" points="1401.7,-144.94 1411.84,-141.85 1401.99,-137.946 1401.7,-144.94"/>
</g>
<!-- Node77 -->
<g id="node30" class="node"><title>Node77</title>
<g id="a_node30"><a xlink:href="gaussian__plus__argus_8inl.html" target="_top" xlink:title="gaussian_plus_argus.inl">
<polygon fill="none" stroke="black" points="529,-73 529,-92 650,-92 650,-73 529,-73"/>
<text text-anchor="middle" x="589.5" y="-80" font-family="Helvetica,sans-Serif" font-size="10.00">gaussian_plus_argus.inl</text>
</a>
</g>
</g>
<!-- Node49&#45;&gt;Node77 -->
<g id="edge29" class="edge"><title>Node49&#45;&gt;Node77</title>
<path fill="none" stroke="midnightblue" d="M1401.75,-140.463C1299.94,-133.773 1016.43,-114.999 780.5,-98 736.883,-94.8575 687.678,-91.1174 650.135,-88.2229"/>
<polygon fill="midnightblue" stroke="midnightblue" points="1401.66,-143.964 1411.87,-141.127 1402.12,-136.979 1401.66,-143.964"/>
</g>
<!-- Node80 -->
<g id="node33" class="node"><title>Node80</title>
<g id="a_node33"><a xlink:href="fit__3d__gaussian_8C.html" target="_top" xlink:title="fit_3d_gaussian.C">
<polygon fill="none" stroke="black" points="1517,-73 1517,-92 1612,-92 1612,-73 1517,-73"/>
<text text-anchor="middle" x="1564.5" y="-80" font-family="Helvetica,sans-Serif" font-size="10.00">fit_3d_gaussian.C</text>
</a>
</g>
</g>
<!-- Node49&#45;&gt;Node80 -->
<g id="edge32" class="edge"><title>Node49&#45;&gt;Node80</title>
<path fill="none" stroke="midnightblue" d="M1467.55,-130.021C1491.6,-118.482 1526.06,-101.943 1546.77,-92.0091"/>
<polygon fill="midnightblue" stroke="midnightblue" points="1465.77,-126.993 1458.27,-134.475 1468.8,-133.304 1465.77,-126.993"/>
</g>
<!-- Node51 -->
<g id="node4" class="node"><title>Node51</title>
<g id="a_node4"><a xlink:href="binned__extended__logLL__fit_8cpp.html" target="_top" xlink:title="binned_extended_logLL\l_fit.cpp">
<polygon fill="none" stroke="black" points="548,-0.5 548,-30.5 667,-30.5 667,-0.5 548,-0.5"/>
<text text-anchor="start" x="556" y="-18.5" font-family="Helvetica,sans-Serif" font-size="10.00">binned_extended_logLL</text>
<text text-anchor="middle" x="607.5" y="-7.5" font-family="Helvetica,sans-Serif" font-size="10.00">_fit.cpp</text>
</a>
</g>
</g>
<!-- Node50&#45;&gt;Node51 -->
<g id="edge3" class="edge"><title>Node50&#45;&gt;Node51</title>
<path fill="none" stroke="midnightblue" d="M787.51,-64.8498C748.055,-54.2523 697.515,-40.6775 660.036,-30.6109"/>
<polygon fill="midnightblue" stroke="midnightblue" points="786.722,-68.2621 797.288,-67.476 788.538,-61.5017 786.722,-68.2621"/>
</g>
<!-- Node52 -->
<g id="node5" class="node"><title>Node52</title>
<g id="a_node5"><a xlink:href="binned__extended__logLL__fit_8cu.html" target="_top" xlink:title="binned_extended_logLL\l_fit.cu">
<polygon fill="none" stroke="black" points="685,-0.5 685,-30.5 804,-30.5 804,-0.5 685,-0.5"/>
<text text-anchor="start" x="693" y="-18.5" font-family="Helvetica,sans-Serif" font-size="10.00">binned_extended_logLL</text>
<text text-anchor="middle" x="744.5" y="-7.5" font-family="Helvetica,sans-Serif" font-size="10.00">_fit.cu</text>
</a>
</g>
</g>
<!-- Node50&#45;&gt;Node52 -->
<g id="edge4" class="edge"><title>Node50&#45;&gt;Node52</title>
<path fill="none" stroke="midnightblue" d="M818.024,-62.0151C801.685,-51.8999 782.09,-39.7698 767.239,-30.5765"/>
<polygon fill="midnightblue" stroke="midnightblue" points="816.372,-65.1083 826.717,-67.396 820.056,-59.1564 816.372,-65.1083"/>
</g>
<!-- Node54 -->
<g id="node7" class="node"><title>Node54</title>
<g id="a_node7"><a xlink:href="extended__logLL__fit_8cpp.html" target="_top" xlink:title="extended_logLL_fit.cpp">
<polygon fill="none" stroke="black" points="822,-6 822,-25 939,-25 939,-6 822,-6"/>
<text text-anchor="middle" x="880.5" y="-13" font-family="Helvetica,sans-Serif" font-size="10.00">extended_logLL_fit.cpp</text>
</a>
</g>
</g>
<!-- Node53&#45;&gt;Node54 -->
<g id="edge6" class="edge"><title>Node53&#45;&gt;Node54</title>
<path fill="none" stroke="midnightblue" d="M1051.21,-69.8471C1010.01,-56.9725 944.646,-36.5456 907.904,-25.0637"/>
<polygon fill="midnightblue" stroke="midnightblue" points="1050.29,-73.2264 1060.88,-72.8685 1052.38,-66.545 1050.29,-73.2264"/>
</g>
<!-- Node55 -->
<g id="node8" class="node"><title>Node55</title>
<g id="a_node8"><a xlink:href="extended__logLL__fit_8cu.html" target="_top" xlink:title="extended_logLL_fit.cu">
<polygon fill="none" stroke="black" points="957.5,-6 957.5,-25 1069.5,-25 1069.5,-6 957.5,-6"/>
<text text-anchor="middle" x="1013.5" y="-13" font-family="Helvetica,sans-Serif" font-size="10.00">extended_logLL_fit.cu</text>
</a>
</g>
</g>
<!-- Node53&#45;&gt;Node55 -->
<g id="edge7" class="edge"><title>Node53&#45;&gt;Node55</title>
<path fill="none" stroke="midnightblue" d="M1070.45,-65.8564C1055.71,-53.0777 1035.41,-35.4915 1023.45,-25.1273"/>
<polygon fill="midnightblue" stroke="midnightblue" points="1068.54,-68.8294 1078.39,-72.7338 1073.12,-63.5396 1068.54,-68.8294"/>
</g>
<!-- Node57 -->
<g id="node10" class="node"><title>Node57</title>
<g id="a_node10"><a xlink:href="fractional__logLL__fit_8cpp.html" target="_top" xlink:title="fractional_logLL_fit.cpp">
<polygon fill="none" stroke="black" points="1088,-6 1088,-25 1205,-25 1205,-6 1088,-6"/>
<text text-anchor="middle" x="1146.5" y="-13" font-family="Helvetica,sans-Serif" font-size="10.00">fractional_logLL_fit.cpp</text>
</a>
</g>
</g>
<!-- Node56&#45;&gt;Node57 -->
<g id="edge9" class="edge"><title>Node56&#45;&gt;Node57</title>
<path fill="none" stroke="midnightblue" d="M1264.74,-68.781C1235.62,-55.9085 1191.4,-36.3545 1166.1,-25.1672"/>
<polygon fill="midnightblue" stroke="midnightblue" points="1263.42,-72.0254 1273.98,-72.8685 1266.25,-65.6234 1263.42,-72.0254"/>
</g>
<!-- Node58 -->
<g id="node11" class="node"><title>Node58</title>
<g id="a_node11"><a xlink:href="fractional__logLL__fit_8cu.html" target="_top" xlink:title="fractional_logLL_fit.cu">
<polygon fill="none" stroke="black" points="1223.5,-6 1223.5,-25 1335.5,-25 1335.5,-6 1223.5,-6"/>
<text text-anchor="middle" x="1279.5" y="-13" font-family="Helvetica,sans-Serif" font-size="10.00">fractional_logLL_fit.cu</text>
</a>
</g>
</g>
<!-- Node56&#45;&gt;Node58 -->
<g id="edge10" class="edge"><title>Node56&#45;&gt;Node58</title>
<path fill="none" stroke="midnightblue" d="M1289.5,-62.9145C1286.82,-50.4883 1283.42,-34.7166 1281.36,-25.1273"/>
<polygon fill="midnightblue" stroke="midnightblue" points="1286.08,-63.695 1291.61,-72.7338 1292.93,-62.221 1286.08,-63.695"/>
</g>
<!-- Node60 -->
<g id="node13" class="node"><title>Node60</title>
<g id="a_node13"><a xlink:href="multidimensional__fit_8cpp.html" target="_top" xlink:title="multidimensional_fit.cpp">
<polygon fill="none" stroke="black" points="1353.5,-6 1353.5,-25 1475.5,-25 1475.5,-6 1353.5,-6"/>
<text text-anchor="middle" x="1414.5" y="-13" font-family="Helvetica,sans-Serif" font-size="10.00">multidimensional_fit.cpp</text>
</a>
</g>
</g>
<!-- Node59&#45;&gt;Node60 -->
<g id="edge12" class="edge"><title>Node59&#45;&gt;Node60</title>
<path fill="none" stroke="midnightblue" d="M1433.22,-63.29C1428.22,-50.8076 1421.83,-34.8135 1417.95,-25.1273"/>
<polygon fill="midnightblue" stroke="midnightblue" points="1430.03,-64.7489 1436.99,-72.7338 1436.53,-62.1491 1430.03,-64.7489"/>
</g>
<!-- Node61 -->
<g id="node14" class="node"><title>Node61</title>
<g id="a_node14"><a xlink:href="multidimensional__fit_8cu.html" target="_top" xlink:title="multidimensional_fit.cu">
<polygon fill="none" stroke="black" points="1493.5,-6 1493.5,-25 1609.5,-25 1609.5,-6 1493.5,-6"/>
<text text-anchor="middle" x="1551.5" y="-13" font-family="Helvetica,sans-Serif" font-size="10.00">multidimensional_fit.cu</text>
</a>
</g>
</g>
<!-- Node59&#45;&gt;Node61 -->
<g id="edge13" class="edge"><title>Node59&#45;&gt;Node61</title>
<path fill="none" stroke="midnightblue" d="M1464.21,-67.6151C1486.2,-54.737 1518.24,-35.9758 1536.77,-25.1273"/>
<polygon fill="midnightblue" stroke="midnightblue" points="1462.33,-64.6603 1455.47,-72.7338 1465.87,-70.7008 1462.33,-64.6603"/>
</g>
<!-- Node63 -->
<g id="node16" class="node"><title>Node63</title>
<g id="a_node16"><a xlink:href="splot_8cpp.html" target="_top" xlink:title="splot.cpp">
<polygon fill="none" stroke="black" points="1627.5,-6 1627.5,-25 1683.5,-25 1683.5,-6 1627.5,-6"/>
<text text-anchor="middle" x="1655.5" y="-13" font-family="Helvetica,sans-Serif" font-size="10.00">splot.cpp</text>
</a>
</g>
</g>
<!-- Node62&#45;&gt;Node63 -->
<g id="edge15" class="edge"><title>Node62&#45;&gt;Node63</title>
<path fill="none" stroke="midnightblue" d="M1655.5,-62.537C1655.5,-50.1703 1655.5,-34.6198 1655.5,-25.1273"/>
<polygon fill="midnightblue" stroke="midnightblue" points="1652,-62.7338 1655.5,-72.7338 1659,-62.7338 1652,-62.7338"/>
</g>
<!-- Node64 -->
<g id="node17" class="node"><title>Node64</title>
<g id="a_node17"><a xlink:href="splot_8cu.html" target="_top" xlink:title="splot.cu">
<polygon fill="none" stroke="black" points="1702,-6 1702,-25 1753,-25 1753,-6 1702,-6"/>
<text text-anchor="middle" x="1727.5" y="-13" font-family="Helvetica,sans-Serif" font-size="10.00">splot.cu</text>
</a>
</g>
</g>
<!-- Node62&#45;&gt;Node64 -->
<g id="edge16" class="edge"><title>Node62&#45;&gt;Node64</title>
<path fill="none" stroke="midnightblue" d="M1672.83,-65.8564C1686.98,-53.0777 1706.46,-35.4915 1717.94,-25.1273"/>
<polygon fill="midnightblue" stroke="midnightblue" points="1670.29,-63.4348 1665.21,-72.7338 1674.98,-68.6307 1670.29,-63.4348"/>
</g>
<!-- Node66 -->
<g id="node19" class="node"><title>Node66</title>
<g id="a_node19"><a xlink:href="breit__wigner__plus__polynomial_8cpp.html" target="_top" xlink:title="breit_wigner_plus_polynomial.cpp">
<polygon fill="none" stroke="black" points="1771,-6 1771,-25 1934,-25 1934,-6 1771,-6"/>
<text text-anchor="middle" x="1852.5" y="-13" font-family="Helvetica,sans-Serif" font-size="10.00">breit_wigner_plus_polynomial.cpp</text>
</a>
</g>
</g>
<!-- Node65&#45;&gt;Node66 -->
<g id="edge18" class="edge"><title>Node65&#45;&gt;Node66</title>
<path fill="none" stroke="midnightblue" d="M1825.44,-64.0347C1832.61,-51.4499 1841.97,-35.0072 1847.59,-25.1273"/>
<polygon fill="midnightblue" stroke="midnightblue" points="1822.4,-62.3117 1820.49,-72.7338 1828.48,-65.7746 1822.4,-62.3117"/>
</g>
<!-- Node67 -->
<g id="node20" class="node"><title>Node67</title>
<g id="a_node20"><a xlink:href="breit__wigner__plus__polynomial_8cu.html" target="_top" xlink:title="breit_wigner_plus_polynomial.cu">
<polygon fill="none" stroke="black" points="1952.5,-6 1952.5,-25 2110.5,-25 2110.5,-6 1952.5,-6"/>
<text text-anchor="middle" x="2031.5" y="-13" font-family="Helvetica,sans-Serif" font-size="10.00">breit_wigner_plus_polynomial.cu</text>
</a>
</g>
</g>
<!-- Node65&#45;&gt;Node67 -->
<g id="edge19" class="edge"><title>Node65&#45;&gt;Node67</title>
<path fill="none" stroke="midnightblue" d="M1853.95,-69.9287C1896.72,-57.0589 1964.81,-36.5699 2003.04,-25.0637"/>
<polygon fill="midnightblue" stroke="midnightblue" points="1852.75,-66.6353 1844.18,-72.8685 1854.77,-73.3384 1852.75,-66.6353"/>
</g>
<!-- Node69 -->
<g id="node22" class="node"><title>Node69</title>
<g id="a_node22"><a xlink:href="crystal__ball__plus__exponential_8cpp.html" target="_top" xlink:title="crystal_ball_plus_exponential.cpp">
<polygon fill="none" stroke="black" points="2129,-6 2129,-25 2292,-25 2292,-6 2129,-6"/>
<text text-anchor="middle" x="2210.5" y="-13" font-family="Helvetica,sans-Serif" font-size="10.00">crystal_ball_plus_exponential.cpp</text>
</a>
</g>
</g>
<!-- Node68&#45;&gt;Node69 -->
<g id="edge21" class="edge"><title>Node68&#45;&gt;Node69</title>
<path fill="none" stroke="midnightblue" d="M2124,-67.6151C2145.79,-54.737 2177.54,-35.9758 2195.9,-25.1273"/>
<polygon fill="midnightblue" stroke="midnightblue" points="2122.16,-64.6332 2115.34,-72.7338 2125.72,-70.6597 2122.16,-64.6332"/>
</g>
<!-- Node70 -->
<g id="node23" class="node"><title>Node70</title>
<g id="a_node23"><a xlink:href="crystal__ball__plus__exponential_8cu.html" target="_top" xlink:title="crystal_ball_plus_exponential.cu">
<polygon fill="none" stroke="black" points="2310.5,-6 2310.5,-25 2468.5,-25 2468.5,-6 2310.5,-6"/>
<text text-anchor="middle" x="2389.5" y="-13" font-family="Helvetica,sans-Serif" font-size="10.00">crystal_ball_plus_exponential.cu</text>
</a>
</g>
</g>
<!-- Node68&#45;&gt;Node70 -->
<g id="edge22" class="edge"><title>Node68&#45;&gt;Node70</title>
<path fill="none" stroke="midnightblue" d="M2148.41,-70.7236C2205.32,-57.9244 2299.09,-36.8334 2351.34,-25.0834"/>
<polygon fill="midnightblue" stroke="midnightblue" points="2147.57,-67.3265 2138.58,-72.9355 2149.1,-74.1558 2147.57,-67.3265"/>
</g>
<!-- Node72 -->
<g id="node25" class="node"><title>Node72</title>
<g id="a_node25"><a xlink:href="dalitz__plot_8cpp.html" target="_top" xlink:title="dalitz_plot.cpp">
<polygon fill="none" stroke="black" points="2486.5,-6 2486.5,-25 2566.5,-25 2566.5,-6 2486.5,-6"/>
<text text-anchor="middle" x="2526.5" y="-13" font-family="Helvetica,sans-Serif" font-size="10.00">dalitz_plot.cpp</text>
</a>
</g>
</g>
<!-- Node71&#45;&gt;Node72 -->
<g id="edge24" class="edge"><title>Node71&#45;&gt;Node72</title>
<path fill="none" stroke="midnightblue" d="M2409.07,-68.781C2437.98,-55.9085 2481.9,-36.3545 2507.03,-25.1672"/>
<polygon fill="midnightblue" stroke="midnightblue" points="2407.6,-65.6038 2399.89,-72.8685 2410.45,-71.9987 2407.6,-65.6038"/>
</g>
<!-- Node73 -->
<g id="node26" class="node"><title>Node73</title>
<g id="a_node26"><a xlink:href="dalitz__plot_8cu.html" target="_top" xlink:title="dalitz_plot.cu">
<polygon fill="none" stroke="black" points="2584.5,-6 2584.5,-25 2658.5,-25 2658.5,-6 2584.5,-6"/>
<text text-anchor="middle" x="2621.5" y="-13" font-family="Helvetica,sans-Serif" font-size="10.00">dalitz_plot.cu</text>
</a>
</g>
</g>
<!-- Node71&#45;&gt;Node73 -->
<g id="edge25" class="edge"><title>Node71&#45;&gt;Node73</title>
<path fill="none" stroke="midnightblue" d="M2425.77,-70.4847C2465.41,-60.671 2524.48,-45.6379 2575.5,-31 2581.94,-29.1527 2588.85,-27.044 2595.3,-25.0176"/>
<polygon fill="midnightblue" stroke="midnightblue" points="2424.75,-67.1316 2415.88,-72.9252 2426.42,-73.9278 2424.75,-67.1316"/>
</g>
<!-- Node75 -->
<g id="node28" class="node"><title>Node75</title>
<g id="a_node28"><a xlink:href="double__gaussian__plus__exponential_8cpp.html" target="_top" xlink:title="double_gaussian_plus\l_exponential.cpp">
<polygon fill="none" stroke="black" points="0,-0.5 0,-30.5 113,-30.5 113,-0.5 0,-0.5"/>
<text text-anchor="start" x="8" y="-18.5" font-family="Helvetica,sans-Serif" font-size="10.00">double_gaussian_plus</text>
<text text-anchor="middle" x="56.5" y="-7.5" font-family="Helvetica,sans-Serif" font-size="10.00">_exponential.cpp</text>
</a>
</g>
</g>
<!-- Node74&#45;&gt;Node75 -->
<g id="edge27" class="edge"><title>Node74&#45;&gt;Node75</title>
<path fill="none" stroke="midnightblue" d="M253.952,-65.115C210.486,-54.4131 154.343,-40.5901 113.041,-30.4211"/>
<polygon fill="midnightblue" stroke="midnightblue" points="253.319,-68.5636 263.865,-67.5559 254.992,-61.7666 253.319,-68.5636"/>
</g>
<!-- Node76 -->
<g id="node29" class="node"><title>Node76</title>
<g id="a_node29"><a xlink:href="double__gaussian__plus__exponential_8cu.html" target="_top" xlink:title="double_gaussian_plus\l_exponential.cu">
<polygon fill="none" stroke="black" points="131,-0.5 131,-30.5 244,-30.5 244,-0.5 131,-0.5"/>
<text text-anchor="start" x="139" y="-18.5" font-family="Helvetica,sans-Serif" font-size="10.00">double_gaussian_plus</text>
<text text-anchor="middle" x="187.5" y="-7.5" font-family="Helvetica,sans-Serif" font-size="10.00">_exponential.cu</text>
</a>
</g>
</g>
<!-- Node74&#45;&gt;Node76 -->
<g id="edge28" class="edge"><title>Node74&#45;&gt;Node76</title>
<path fill="none" stroke="midnightblue" d="M282.63,-62.9921C261.549,-52.6892 235.723,-40.0677 216.303,-30.5765"/>
<polygon fill="midnightblue" stroke="midnightblue" points="281.12,-66.1496 291.641,-67.396 284.193,-59.8605 281.12,-66.1496"/>
</g>
<!-- Node78 -->
<g id="node31" class="node"><title>Node78</title>
<g id="a_node31"><a xlink:href="gaussian__plus__argus_8cpp.html" target="_top" xlink:title="gaussian_plus_argus.cpp">
<polygon fill="none" stroke="black" points="262,-6 262,-25 389,-25 389,-6 262,-6"/>
<text text-anchor="middle" x="325.5" y="-13" font-family="Helvetica,sans-Serif" font-size="10.00">gaussian_plus_argus.cpp</text>
</a>
</g>
</g>
<!-- Node77&#45;&gt;Node78 -->
<g id="edge30" class="edge"><title>Node77&#45;&gt;Node78</title>
<path fill="none" stroke="midnightblue" d="M544.759,-70.4841C492.684,-57.6627 407.789,-36.7605 360.362,-25.0834"/>
<polygon fill="midnightblue" stroke="midnightblue" points="544.168,-73.9433 554.715,-72.9355 545.842,-67.1462 544.168,-73.9433"/>
</g>
<!-- Node79 -->
<g id="node32" class="node"><title>Node79</title>
<g id="a_node32"><a xlink:href="gaussian__plus__argus_8cu.html" target="_top" xlink:title="gaussian_plus_argus.cu">
<polygon fill="none" stroke="black" points="407.5,-6 407.5,-25 529.5,-25 529.5,-6 407.5,-6"/>
<text text-anchor="middle" x="468.5" y="-13" font-family="Helvetica,sans-Serif" font-size="10.00">gaussian_plus_argus.cu</text>
</a>
</g>
</g>
<!-- Node77&#45;&gt;Node79 -->
<g id="edge31" class="edge"><title>Node77&#45;&gt;Node79</title>
<path fill="none" stroke="midnightblue" d="M564.292,-67.9586C540.304,-55.0727 504.935,-36.0727 484.56,-25.1273"/>
<polygon fill="midnightblue" stroke="midnightblue" points="562.716,-71.0847 573.181,-72.7338 566.028,-64.9182 562.716,-71.0847"/>
</g>
<!-- Node81&#45;&gt;Node82 -->
<g id="edge34" class="edge"><title>Node81&#45;&gt;Node82</title>
<path fill="none" stroke="midnightblue" d="M1544.25,-183.537C1555.31,-173.909 1569.13,-161.869 1578.36,-153.834"/>
<polygon fill="midnightblue" stroke="midnightblue" points="1541.7,-181.117 1536.46,-190.324 1546.3,-186.395 1541.7,-181.117"/>
</g>
<!-- Node82&#45;&gt;Node50 -->
<g id="edge38" class="edge"><title>Node82&#45;&gt;Node50</title>
<path fill="none" stroke="midnightblue" d="M1525.81,-137.898C1510.04,-136.62 1493.15,-135.255 1477.5,-134 1275.74,-117.821 1225.25,-114.405 1023.5,-98 985.431,-94.9045 942.685,-91.3435 909.088,-88.5251"/>
<polygon fill="midnightblue" stroke="midnightblue" points="1525.74,-141.403 1535.99,-138.723 1526.31,-134.426 1525.74,-141.403"/>
</g>
<!-- Node82&#45;&gt;Node53 -->
<g id="edge39" class="edge"><title>Node82&#45;&gt;Node53</title>
<path fill="none" stroke="midnightblue" d="M1525.83,-135.543C1427.39,-123.828 1238.07,-101.299 1144.15,-90.1228"/>
<polygon fill="midnightblue" stroke="midnightblue" points="1525.59,-139.039 1535.94,-136.745 1526.42,-132.088 1525.59,-139.039"/>
</g>
<!-- Node82&#45;&gt;Node56 -->
<g id="edge40" class="edge"><title>Node82&#45;&gt;Node56</title>
<path fill="none" stroke="midnightblue" d="M1536.31,-132.474C1479.14,-120.943 1388.55,-102.672 1335.69,-92.0091"/>
<polygon fill="midnightblue" stroke="midnightblue" points="1535.74,-135.929 1546.23,-134.475 1537.12,-129.067 1535.74,-135.929"/>
</g>
<!-- Node82&#45;&gt;Node59 -->
<g id="edge41" class="edge"><title>Node82&#45;&gt;Node59</title>
<path fill="none" stroke="midnightblue" d="M1557.73,-130.631C1528.98,-119.072 1486.82,-102.12 1461.67,-92.0091"/>
<polygon fill="midnightblue" stroke="midnightblue" points="1556.71,-133.992 1567.3,-134.475 1559.32,-127.498 1556.71,-133.992"/>
</g>
<!-- Node82&#45;&gt;Node62 -->
<g id="edge45" class="edge"><title>Node82&#45;&gt;Node62</title>
<path fill="none" stroke="midnightblue" d="M1605.79,-127.65C1618.56,-116.306 1635.48,-101.281 1645.92,-92.0091"/>
<polygon fill="midnightblue" stroke="midnightblue" points="1603.25,-125.218 1598.1,-134.475 1607.9,-130.452 1603.25,-125.218"/>
</g>
<!-- Node82&#45;&gt;Node65 -->
<g id="edge46" class="edge"><title>Node82&#45;&gt;Node65</title>
<path fill="none" stroke="midnightblue" d="M1630.86,-131.896C1674.95,-120.34 1743.03,-102.495 1783.04,-92.0091"/>
<polygon fill="midnightblue" stroke="midnightblue" points="1629.81,-128.554 1621.02,-134.475 1631.58,-135.325 1629.81,-128.554"/>
</g>
<!-- Node82&#45;&gt;Node68 -->
<g id="edge47" class="edge"><title>Node82&#45;&gt;Node68</title>
<path fill="none" stroke="midnightblue" d="M1651.41,-135.69C1746.42,-124.648 1926.12,-103.765 2027.01,-92.04"/>
<polygon fill="midnightblue" stroke="midnightblue" points="1650.89,-132.226 1641.36,-136.857 1651.7,-139.179 1650.89,-132.226"/>
</g>
<!-- Node82&#45;&gt;Node71 -->
<g id="edge48" class="edge"><title>Node82&#45;&gt;Node71</title>
<path fill="none" stroke="midnightblue" d="M1651.08,-138.298C1808.61,-126.464 2217.86,-95.7185 2343.36,-86.29"/>
<polygon fill="midnightblue" stroke="midnightblue" points="1650.79,-134.811 1641.08,-139.05 1651.31,-141.791 1650.79,-134.811"/>
</g>
<!-- Node82&#45;&gt;Node74 -->
<g id="edge49" class="edge"><title>Node82&#45;&gt;Node74</title>
<path fill="none" stroke="midnightblue" d="M1525.61,-137.423C1509.9,-136.162 1493.09,-134.925 1477.5,-134 1052.17,-108.777 944.931,-121.486 519.5,-98 471.423,-95.346 416.887,-91.2992 377.079,-88.1546"/>
<polygon fill="midnightblue" stroke="midnightblue" points="1525.49,-140.925 1535.74,-138.252 1526.06,-133.949 1525.49,-140.925"/>
</g>
<!-- Node82&#45;&gt;Node77 -->
<g id="edge50" class="edge"><title>Node82&#45;&gt;Node77</title>
<path fill="none" stroke="midnightblue" d="M1525.6,-137.577C1509.89,-136.312 1493.09,-135.034 1477.5,-134 1167.99,-113.464 1090.06,-117.742 780.5,-98 736.858,-95.2168 687.654,-91.4669 650.118,-88.4779"/>
<polygon fill="midnightblue" stroke="midnightblue" points="1525.48,-141.079 1535.73,-138.404 1526.05,-134.102 1525.48,-141.079"/>
</g>
<!-- Node82&#45;&gt;Node80 -->
<g id="edge51" class="edge"><title>Node82&#45;&gt;Node80</title>
<path fill="none" stroke="midnightblue" d="M1581.24,-124.997C1576.82,-114.05 1571.39,-100.575 1567.93,-92.0091"/>
<polygon fill="midnightblue" stroke="midnightblue" points="1578.07,-126.51 1585.06,-134.475 1584.57,-123.892 1578.07,-126.51"/>
</g>
<!-- Node83 -->
<g id="node36" class="node"><title>Node83</title>
<g id="a_node36"><a xlink:href="basic__fit_8inl.html" target="_top" xlink:title="basic_fit.inl">
<polygon fill="none" stroke="black" points="2679.5,-73 2679.5,-92 2745.5,-92 2745.5,-73 2679.5,-73"/>
<text text-anchor="middle" x="2712.5" y="-80" font-family="Helvetica,sans-Serif" font-size="10.00">basic_fit.inl</text>
</a>
</g>
</g>
<!-- Node82&#45;&gt;Node83 -->
<g id="edge35" class="edge"><title>Node82&#45;&gt;Node83</title>
<path fill="none" stroke="midnightblue" d="M1651.36,-139.672C1859.71,-128.643 2523.23,-93.5193 2679.37,-85.2538"/>
<polygon fill="midnightblue" stroke="midnightblue" points="1651.01,-136.186 1641.21,-140.21 1651.38,-143.176 1651.01,-136.186"/>
</g>
<!-- Node86 -->
<g id="node39" class="node"><title>Node86</title>
<g id="a_node39"><a xlink:href="phsp__unweighting__functor__and__fit_8inl.html" target="_top" xlink:title="phsp_unweighting_functor\l_and_fit.inl">
<polygon fill="none" stroke="black" points="2807.5,-67.5 2807.5,-97.5 2937.5,-97.5 2937.5,-67.5 2807.5,-67.5"/>
<text text-anchor="start" x="2815.5" y="-85.5" font-family="Helvetica,sans-Serif" font-size="10.00">phsp_unweighting_functor</text>
<text text-anchor="middle" x="2872.5" y="-74.5" font-family="Helvetica,sans-Serif" font-size="10.00">_and_fit.inl</text>
</a>
</g>
</g>
<!-- Node82&#45;&gt;Node86 -->
<g id="edge42" class="edge"><title>Node82&#45;&gt;Node86</title>
<path fill="none" stroke="midnightblue" d="M1651.23,-142.424C1826.15,-140.42 2334.03,-131.888 2754.5,-98 2771.68,-96.6155 2790.2,-94.5915 2807.37,-92.4925"/>
<polygon fill="midnightblue" stroke="midnightblue" points="1651.14,-138.925 1641.18,-142.536 1651.22,-145.924 1651.14,-138.925"/>
</g>
<!-- Node89 -->
<g id="node42" class="node"><title>Node89</title>
<g id="a_node42"><a xlink:href="fit__gaussian_8C.html" target="_top" xlink:title="fit_gaussian.C">
<polygon fill="none" stroke="black" points="2955.5,-73 2955.5,-92 3035.5,-92 3035.5,-73 2955.5,-73"/>
<text text-anchor="middle" x="2995.5" y="-80" font-family="Helvetica,sans-Serif" font-size="10.00">fit_gaussian.C</text>
</a>
</g>
</g>
<!-- Node82&#45;&gt;Node89 -->
<g id="edge52" class="edge"><title>Node82&#45;&gt;Node89</title>
<path fill="none" stroke="midnightblue" d="M1651.34,-143.036C1883.47,-142.838 2692.22,-139.144 2946.5,-98 2954.64,-96.6821 2963.34,-94.4082 2971.11,-92.0467"/>
<polygon fill="midnightblue" stroke="midnightblue" points="1651.05,-139.536 1641.05,-143.042 1651.06,-146.536 1651.05,-139.536"/>
</g>
<!-- Node84 -->
<g id="node37" class="node"><title>Node84</title>
<g id="a_node37"><a xlink:href="basic__fit_8cpp.html" target="_top" xlink:title="basic_fit.cpp">
<polygon fill="none" stroke="black" points="2676.5,-6 2676.5,-25 2748.5,-25 2748.5,-6 2676.5,-6"/>
<text text-anchor="middle" x="2712.5" y="-13" font-family="Helvetica,sans-Serif" font-size="10.00">basic_fit.cpp</text>
</a>
</g>
</g>
<!-- Node83&#45;&gt;Node84 -->
<g id="edge36" class="edge"><title>Node83&#45;&gt;Node84</title>
<path fill="none" stroke="midnightblue" d="M2712.5,-62.537C2712.5,-50.1703 2712.5,-34.6198 2712.5,-25.1273"/>
<polygon fill="midnightblue" stroke="midnightblue" points="2709,-62.7338 2712.5,-72.7338 2716,-62.7338 2709,-62.7338"/>
</g>
<!-- Node85 -->
<g id="node38" class="node"><title>Node85</title>
<g id="a_node38"><a xlink:href="basic__fit_8cu.html" target="_top" xlink:title="basic_fit.cu">
<polygon fill="none" stroke="black" points="2767,-6 2767,-25 2834,-25 2834,-6 2767,-6"/>
<text text-anchor="middle" x="2800.5" y="-13" font-family="Helvetica,sans-Serif" font-size="10.00">basic_fit.cu</text>
</a>
</g>
</g>
<!-- Node83&#45;&gt;Node85 -->
<g id="edge37" class="edge"><title>Node83&#45;&gt;Node85</title>
<path fill="none" stroke="midnightblue" d="M2732.72,-66.5678C2750.09,-53.7376 2774.53,-35.6853 2788.82,-25.1273"/>
<polygon fill="midnightblue" stroke="midnightblue" points="2730.33,-63.9771 2724.37,-72.7338 2734.49,-69.6077 2730.33,-63.9771"/>
</g>
<!-- Node87 -->
<g id="node40" class="node"><title>Node87</title>
<g id="a_node40"><a xlink:href="phsp__unweighting__functor__and__fit_8cpp.html" target="_top" xlink:title="phsp_unweighting_functor\l_and_fit.cpp">
<polygon fill="none" stroke="black" points="2852.5,-0.5 2852.5,-30.5 2982.5,-30.5 2982.5,-0.5 2852.5,-0.5"/>
<text text-anchor="start" x="2860.5" y="-18.5" font-family="Helvetica,sans-Serif" font-size="10.00">phsp_unweighting_functor</text>
<text text-anchor="middle" x="2917.5" y="-7.5" font-family="Helvetica,sans-Serif" font-size="10.00">_and_fit.cpp</text>
</a>
</g>
</g>
<!-- Node86&#45;&gt;Node87 -->
<g id="edge43" class="edge"><title>Node86&#45;&gt;Node87</title>
<path fill="none" stroke="midnightblue" d="M2887.97,-59.1575C2894.53,-49.6788 2901.98,-38.9186 2907.75,-30.5765"/>
<polygon fill="midnightblue" stroke="midnightblue" points="2885.08,-57.1818 2882.26,-67.396 2890.83,-61.1663 2885.08,-57.1818"/>
</g>
<!-- Node88 -->
<g id="node41" class="node"><title>Node88</title>
<g id="a_node41"><a xlink:href="phsp__unweighting__functor__and__fit_8cu.html" target="_top" xlink:title="phsp_unweighting_functor\l_and_fit.cu">
<polygon fill="none" stroke="black" points="3000.5,-0.5 3000.5,-30.5 3130.5,-30.5 3130.5,-0.5 3000.5,-0.5"/>
<text text-anchor="start" x="3008.5" y="-18.5" font-family="Helvetica,sans-Serif" font-size="10.00">phsp_unweighting_functor</text>
<text text-anchor="middle" x="3065.5" y="-7.5" font-family="Helvetica,sans-Serif" font-size="10.00">_and_fit.cu</text>
</a>
</g>
</g>
<!-- Node86&#45;&gt;Node88 -->
<g id="edge44" class="edge"><title>Node86&#45;&gt;Node88</title>
<path fill="none" stroke="midnightblue" d="M2924.19,-64.0917C2955.34,-53.5988 2994.51,-40.4082 3023.7,-30.5765"/>
<polygon fill="midnightblue" stroke="midnightblue" points="2922.74,-60.8872 2914.38,-67.396 2924.97,-67.5211 2922.74,-60.8872"/>
</g>
</g>
</svg>
        <g id="navigator" transform="translate(0 0)" fill="#404254">
                <rect fill="#f2f5e9" fill-opacity="0.5" stroke="#606060" stroke-width=".5" x="0" y="0" width="60" height="60"/>
                <use id="zoomplus" xlink:href="#zoomPlus" x="17" y="9" onmousedown="handleZoom(evt,'in')"/>
                <use id="zoomminus" xlink:href="#zoomMin" x="42" y="9" onmousedown="handleZoom(evt,'out')"/>
                <use id="reset" xlink:href="#resetDef" x="30" y="36" onmousedown="handleReset()"/>
                <g id="arrowUp" xlink:href="#dirArrow" transform="translate(30 24)" onmousedown="handlePan(0,-1)">
                  <use xlink:href="#rim" fill="#404040">
                        <set attributeName="fill" to="#808080" begin="arrowUp.mouseover" end="arrowUp.mouseout"/>
                  </use>
                  <path fill="none" stroke="white" stroke-width="1.5" d="M0,-3.0v7 M-2.5,-0.5L0,-3.0L2.5,-0.5"/>
                </g>
                <g id="arrowRight" xlink:href="#dirArrow" transform="rotate(90) translate(36 -43)" onmousedown="handlePan(1,0)">
                  <use xlink:href="#rim" fill="#404040">
                        <set attributeName="fill" to="#808080" begin="arrowRight.mouseover" end="arrowRight.mouseout"/>
                  </use>
                  <path fill="none" stroke="white" stroke-width="1.5" d="M0,-3.0v7 M-2.5,-0.5L0,-3.0L2.5,-0.5"/>
                </g>
                <g id="arrowDown" xlink:href="#dirArrow" transform="rotate(180) translate(-30 -48)" onmousedown="handlePan(0,1)">
                  <use xlink:href="#rim" fill="#404040">
                        <set attributeName="fill" to="#808080" begin="arrowDown.mouseover" end="arrowDown.mouseout"/>
                  </use>
                  <path fill="none" stroke="white" stroke-width="1.5" d="M0,-3.0v7 M-2.5,-0.5L0,-3.0L2.5,-0.5"/>
                </g>
                <g id="arrowLeft" xlink:href="#dirArrow" transform="rotate(270) translate(-36 17)" onmousedown="handlePan(-1,0)">
                  <use xlink:href="#rim" fill="#404040">
                        <set attributeName="fill" to="#808080" begin="arrowLeft.mouseover" end="arrowLeft.mouseout"/>
                  </use>
                  <path fill="none" stroke="white" stroke-width="1.5" d="M0,-3.0v7 M-2.5,-0.5L0,-3.0L2.5,-0.5"/>
                </g>
        </g>
        <svg viewBox="0 0 15 15" width="100%" height="30px" preserveAspectRatio="xMaxYMin meet">
         <g id="arrow_out" transform="scale(0.3 0.3)">
          <a xlink:href="PDFSumNonExtendable_8h__dep__incl_org.svg" target="_base">
           <rect id="button" ry="5" rx="5" y="6" x="6" height="38" width="38"
                fill="#f2f5e9" fill-opacity="0.5" stroke="#606060" stroke-width="1.0"/>
           <path id="arrow"
             d="M 11.500037,31.436501 C 11.940474,20.09759 22.043105,11.32322 32.158766,21.979434 L 37.068811,17.246167 C 37.068811,17.246167 37.088388,32 37.088388,32 L 22.160133,31.978069 C 22.160133,31.978069 26.997745,27.140456 26.997745,27.140456 C 18.528582,18.264221 13.291696,25.230495 11.500037,31.436501 z"
             style="fill:#404040;"/>
          </a>
         </g>
        </svg>
</svg>
