<?xml version="1.0" encoding="UTF-8" standalone="no"?>
<!DOCTYPE svg PUBLIC "-//W3C//DTD SVG 1.1//EN"
 "http://www.w3.org/Graphics/SVG/1.1/DTD/svg11.dtd">
<!-- Generated by graphviz version 2.42.4 (0)
 -->
<!-- Title: PhaseSpaceIntegrator.inl Pages: 1 -->
<svg width="678pt" height="218pt"
 viewBox="0.00 0.00 678.00 218.00" xmlns="http://www.w3.org/2000/svg" xmlns:xlink="http://www.w3.org/1999/xlink">
<g id="graph0" class="graph" transform="scale(1 1) rotate(0) translate(4 214)">
<title>PhaseSpaceIntegrator.inl</title>
<!-- Node1 -->
<g id="node1" class="node">
<title>Node1</title>
<polygon fill="#bfbfbf" stroke="black" points="380.5,-190.5 380.5,-209.5 505.5,-209.5 505.5,-190.5 380.5,-190.5"/>
<text text-anchor="middle" x="443" y="-197.5" font-family="Helvetica,sans-Serif" font-size="10.00">PhaseSpaceIntegrator.inl</text>
</g>
<!-- Node2 -->
<g id="node2" class="node">
<title>Node2</title>
<g id="a_node2"><a xlink:href="PhaseSpaceIntegrator_8h.html" target="_top" xlink:title="PhaseSpaceIntegrator.h">
<polygon fill="none" stroke="black" points="382.5,-134.5 382.5,-153.5 503.5,-153.5 503.5,-134.5 382.5,-134.5"/>
<text text-anchor="middle" x="443" y="-141.5" font-family="Helvetica,sans-Serif" font-size="10.00">PhaseSpaceIntegrator.h</text>
</a>
</g>
</g>
<!-- Node1&#45;&gt;Node2 -->
<g id="edge1" class="edge">
<title>Node1&#45;&gt;Node2</title>
<path fill="none" stroke="midnightblue" d="M443,-179.8C443,-170.91 443,-160.78 443,-153.75"/>
<polygon fill="midnightblue" stroke="midnightblue" points="439.5,-180.08 443,-190.08 446.5,-180.08 439.5,-180.08"/>
</g>
<!-- Node3 -->
<g id="node3" class="node">
<title>Node3</title>
<g id="a_node3"><a xlink:href="phsp__unweighting__functor__and__fit_8inl.html" target="_top" xlink:title="phsp_unweighting_functor\l_and_fit.inl">
<polygon fill="none" stroke="black" points="148,-67.5 148,-97.5 278,-97.5 278,-67.5 148,-67.5"/>
<text text-anchor="start" x="156" y="-85.5" font-family="Helvetica,sans-Serif" font-size="10.00">phsp_unweighting_functor</text>
<text text-anchor="middle" x="213" y="-74.5" font-family="Helvetica,sans-Serif" font-size="10.00">_and_fit.inl</text>
</a>
</g>
</g>
<!-- Node2&#45;&gt;Node3 -->
<g id="edge2" class="edge">
<title>Node2&#45;&gt;Node3</title>
<path fill="none" stroke="midnightblue" d="M399.93,-131.86C362.38,-122.14 307.73,-108.01 267.21,-97.52"/>
<polygon fill="midnightblue" stroke="midnightblue" points="399.49,-135.36 410.05,-134.48 401.24,-128.58 399.49,-135.36"/>
</g>
<!-- Node6 -->
<g id="node6" class="node">
<title>Node6</title>
<g id="a_node6"><a xlink:href="dalitz__plot_8inl.html" target="_top" xlink:title="dalitz_plot.inl">
<polygon fill="none" stroke="black" points="299,-73 299,-92 373,-92 373,-73 299,-73"/>
<text text-anchor="middle" x="336" y="-80" font-family="Helvetica,sans-Serif" font-size="10.00">dalitz_plot.inl</text>
</a>
</g>
</g>
<!-- Node2&#45;&gt;Node6 -->
<g id="edge5" class="edge">
<title>Node2&#45;&gt;Node6</title>
<path fill="none" stroke="midnightblue" d="M418.82,-129.56C398.12,-118.04 368.93,-101.81 351.3,-92.01"/>
<polygon fill="midnightblue" stroke="midnightblue" points="417.23,-132.67 427.67,-134.48 420.63,-126.56 417.23,-132.67"/>
</g>
<!-- Node9 -->
<g id="node9" class="node">
<title>Node9</title>
<g id="a_node9"><a xlink:href="apply__filter__issue_8C.html" target="_top" xlink:title="apply_filter_issue.C">
<polygon fill="none" stroke="black" points="391.5,-73 391.5,-92 494.5,-92 494.5,-73 391.5,-73"/>
<text text-anchor="middle" x="443" y="-80" font-family="Helvetica,sans-Serif" font-size="10.00">apply_filter_issue.C</text>
</a>
</g>
</g>
<!-- Node2&#45;&gt;Node9 -->
<g id="edge8" class="edge">
<title>Node2&#45;&gt;Node9</title>
<path fill="none" stroke="midnightblue" d="M443,-124.32C443,-113.5 443,-100.4 443,-92.01"/>
<polygon fill="midnightblue" stroke="midnightblue" points="439.5,-124.48 443,-134.48 446.5,-124.48 439.5,-124.48"/>
</g>
<!-- Node10 -->
<g id="node10" class="node">
<title>Node10</title>
<g id="a_node10"><a xlink:href="dalitz__plot_8C.html" target="_top" xlink:title="dalitz_plot.C">
<polygon fill="none" stroke="black" points="512.5,-73 512.5,-92 583.5,-92 583.5,-73 512.5,-73"/>
<text text-anchor="middle" x="548" y="-80" font-family="Helvetica,sans-Serif" font-size="10.00">dalitz_plot.C</text>
</a>
</g>
</g>
<!-- Node2&#45;&gt;Node10 -->
<g id="edge9" class="edge">
<title>Node2&#45;&gt;Node10</title>
<path fill="none" stroke="midnightblue" d="M467,-129.4C487.3,-117.9 515.76,-101.77 532.98,-92.01"/>
<polygon fill="midnightblue" stroke="midnightblue" points="465.02,-126.5 458.04,-134.48 468.47,-132.59 465.02,-126.5"/>
</g>
<!-- Node11 -->
<g id="node11" class="node">
<title>Node11</title>
<g id="a_node11"><a xlink:href="filter__test_8C.html" target="_top" xlink:title="filter_test.C">
<polygon fill="none" stroke="black" points="602,-73 602,-92 670,-92 670,-73 602,-73"/>
<text text-anchor="middle" x="636" y="-80" font-family="Helvetica,sans-Serif" font-size="10.00">filter_test.C</text>
</a>
</g>
</g>
<!-- Node2&#45;&gt;Node11 -->
<g id="edge10" class="edge">
<title>Node2&#45;&gt;Node11</title>
<path fill="none" stroke="midnightblue" d="M482.18,-131.64C512.51,-122.75 555.53,-109.94 593,-98 598.86,-96.14 605.13,-94.06 611.04,-92.08"/>
<polygon fill="midnightblue" stroke="midnightblue" points="481.02,-128.33 472.41,-134.5 482.99,-135.05 481.02,-128.33"/>
</g>
<!-- Node4 -->
<g id="node4" class="node">
<title>Node4</title>
<g id="a_node4"><a xlink:href="phsp__unweighting__functor__and__fit_8cpp.html" target="_top" xlink:title="phsp_unweighting_functor\l_and_fit.cpp">
<polygon fill="none" stroke="black" points="0,-0.5 0,-30.5 130,-30.5 130,-0.5 0,-0.5"/>
<text text-anchor="start" x="8" y="-18.5" font-family="Helvetica,sans-Serif" font-size="10.00">phsp_unweighting_functor</text>
<text text-anchor="middle" x="65" y="-7.5" font-family="Helvetica,sans-Serif" font-size="10.00">_and_fit.cpp</text>
</a>
</g>
</g>
<!-- Node3&#45;&gt;Node4 -->
<g id="edge3" class="edge">
<title>Node3&#45;&gt;Node4</title>
<path fill="none" stroke="midnightblue" d="M171.49,-63.27C147.92,-52.92 118.86,-40.15 97.05,-30.58"/>
<polygon fill="midnightblue" stroke="midnightblue" points="170.32,-66.58 180.89,-67.4 173.14,-60.17 170.32,-66.58"/>
</g>
<!-- Node5 -->
<g id="node5" class="node">
<title>Node5</title>
<g id="a_node5"><a xlink:href="phsp__unweighting__functor__and__fit_8cu.html" target="_top" xlink:title="phsp_unweighting_functor\l_and_fit.cu">
<polygon fill="none" stroke="black" points="148,-0.5 148,-30.5 278,-30.5 278,-0.5 148,-0.5"/>
<text text-anchor="start" x="156" y="-18.5" font-family="Helvetica,sans-Serif" font-size="10.00">phsp_unweighting_functor</text>
<text text-anchor="middle" x="213" y="-7.5" font-family="Helvetica,sans-Serif" font-size="10.00">_and_fit.cu</text>
</a>
</g>
</g>
<!-- Node3&#45;&gt;Node5 -->
<g id="edge4" class="edge">
<title>Node3&#45;&gt;Node5</title>
<path fill="none" stroke="midnightblue" d="M213,-57.11C213,-48.15 213,-38.32 213,-30.58"/>
<polygon fill="midnightblue" stroke="midnightblue" points="209.5,-57.4 213,-67.4 216.5,-57.4 209.5,-57.4"/>
</g>
<!-- Node7 -->
<g id="node7" class="node">
<title>Node7</title>
<g id="a_node7"><a xlink:href="dalitz__plot_8cpp.html" target="_top" xlink:title="dalitz_plot.cpp">
<polygon fill="none" stroke="black" points="296,-6 296,-25 376,-25 376,-6 296,-6"/>
<text text-anchor="middle" x="336" y="-13" font-family="Helvetica,sans-Serif" font-size="10.00">dalitz_plot.cpp</text>
</a>
</g>
</g>
<!-- Node6&#45;&gt;Node7 -->
<g id="edge6" class="edge">
<title>Node6&#45;&gt;Node7</title>
<path fill="none" stroke="midnightblue" d="M336,-62.54C336,-50.17 336,-34.62 336,-25.13"/>
<polygon fill="midnightblue" stroke="midnightblue" points="332.5,-62.73 336,-72.73 339.5,-62.73 332.5,-62.73"/>
</g>
<!-- Node8 -->
<g id="node8" class="node">
<title>Node8</title>
<g id="a_node8"><a xlink:href="dalitz__plot_8cu.html" target="_top" xlink:title="dalitz_plot.cu">
<polygon fill="none" stroke="black" points="394,-6 394,-25 468,-25 468,-6 394,-6"/>
<text text-anchor="middle" x="431" y="-13" font-family="Helvetica,sans-Serif" font-size="10.00">dalitz_plot.cu</text>
</a>
</g>
</g>
<!-- Node6&#45;&gt;Node8 -->
<g id="edge7" class="edge">
<title>Node6&#45;&gt;Node8</title>
<path fill="none" stroke="midnightblue" d="M357.31,-66.92C376.09,-54.07 402.82,-35.78 418.39,-25.13"/>
<polygon fill="midnightblue" stroke="midnightblue" points="355.09,-64.2 348.81,-72.73 359.04,-69.98 355.09,-64.2"/>
</g>
</g>
</svg>
