<?xml version="1.0" encoding="UTF-8" standalone="no"?>
<!DOCTYPE svg PUBLIC "-//W3C//DTD SVG 1.1//EN"
 "http://www.w3.org/Graphics/SVG/1.1/DTD/svg11.dtd">
<!-- Generated by graphviz version 2.38.0 (20140413.2041)
 -->
<!-- Title: PhaseSpaceIntegrator.h Pages: 1 -->
<!--zoomable 229 -->
<svg id="main" version="1.1" xmlns="http://www.w3.org/2000/svg" xmlns:xlink="http://www.w3.org/1999/xlink" xml:space="preserve" onload="init(evt)">
<style type="text/css"><![CDATA[
.edge:hover path { stroke: red; }
.edge:hover polygon { stroke: red; fill: red; }
]]></style>
<script type="text/javascript"><![CDATA[
var edges = document.getElementsByTagName('g');
if (edges && edges.length) {
  for (var i=0;i<edges.length;i++) {
    if (edges[i].id.substr(0,4)=='edge') {
      edges[i].setAttribute('class','edge');
    }
  }
}
]]></script>
        <defs>
                <circle id="rim" cx="0" cy="0" r="7"/>
                <circle id="rim2" cx="0" cy="0" r="3.5"/>
                <g id="zoomPlus">
                        <use xlink:href="#rim" fill="#404040">
                                <set attributeName="fill" to="#808080" begin="zoomplus.mouseover" end="zoomplus.mouseout"/>
                        </use>
                        <path d="M-4,0h8M0,-4v8" fill="none" stroke="white" stroke-width="1.5" pointer-events="none"/>
                </g>
                <g id="zoomMin">
                        <use xlink:href="#rim" fill="#404040">
                                <set attributeName="fill" to="#808080" begin="zoomminus.mouseover" end="zoomminus.mouseout"/>
                        </use>
                        <path d="M-4,0h8" fill="none" stroke="white" stroke-width="1.5" pointer-events="none"/>
                </g>
                <g id="dirArrow">
                        <path fill="none" stroke="white" stroke-width="1.5" d="M0,-3.0v7 M-2.5,-0.5L0,-3.0L2.5,-0.5"/>
                </g>
               <g id="resetDef">
                       <use xlink:href="#rim2" fill="#404040">
                               <set attributeName="fill" to="#808080" begin="reset.mouseover" end="reset.mouseout"/>
                       </use>
               </g>
        </defs>

<script type="text/javascript">
var viewWidth = 939;
var viewHeight = 229;
var sectionId = 'dynsection-0';
</script>
<script xlink:href="svgpan.js"/>
<svg id="graph" class="graph">
<g id="viewport">
<title>PhaseSpaceIntegrator.h</title>
<!-- Node0 -->
<g id="node1" class="node"><title>Node0</title>
<polygon fill="#bfbfbf" stroke="black" points="369,-201.5 369,-220.5 491,-220.5 491,-201.5 369,-201.5"/>
<text text-anchor="middle" x="430" y="-208.5" font-family="Helvetica,sans-Serif" font-size="10.00">PhaseSpaceIntegrator.h</text>
</g>
<!-- Node1 -->
<g id="node2" class="node"><title>Node1</title>
<g id="a_node2"><a xlink:href="Config_8h.html" target="_top" xlink:title="hydra/detail/Config.h">
<polygon fill="none" stroke="black" points="120.5,-84 120.5,-103 227.5,-103 227.5,-84 120.5,-84"/>
<text text-anchor="middle" x="174" y="-91" font-family="Helvetica,sans-Serif" font-size="10.00">hydra/detail/Config.h</text>
</a>
</g>
</g>
<!-- Node0&#45;&gt;Node1 -->
<g id="edge1" class="edge"><title>Node0&#45;&gt;Node1</title>
<path fill="none" stroke="midnightblue" d="M368.909,-205.311C308.326,-199.453 221.028,-187.36 196,-165 181.535,-152.077 176.483,-129.808 174.771,-113.752"/>
<polygon fill="midnightblue" stroke="midnightblue" points="178.233,-113.105 174.027,-103.381 171.251,-113.606 178.233,-113.105"/>
</g>
<!-- Node4 -->
<g id="node5" class="node"><title>Node4</title>
<g id="a_node5"><a xlink:href="BackendPolicy_8h.html" target="_top" xlink:title="hydra/detail/BackendPolicy.h">
<polygon fill="none" stroke="black" points="590.5,-145.5 590.5,-164.5 733.5,-164.5 733.5,-145.5 590.5,-145.5"/>
<text text-anchor="middle" x="662" y="-152.5" font-family="Helvetica,sans-Serif" font-size="10.00">hydra/detail/BackendPolicy.h</text>
</a>
</g>
</g>
<!-- Node0&#45;&gt;Node4 -->
<g id="edge4" class="edge"><title>Node0&#45;&gt;Node4</title>
<path fill="none" stroke="midnightblue" d="M466.761,-201.444C507.063,-192.063 571.809,-176.993 615.585,-166.804"/>
<polygon fill="midnightblue" stroke="midnightblue" points="616.465,-170.192 625.411,-164.516 614.878,-163.375 616.465,-170.192"/>
</g>
<!-- Node6 -->
<g id="node7" class="node"><title>Node6</title>
<g id="a_node7"><a xlink:href="Types_8h.html" target="_top" xlink:title="Common and useful typedefs. ">
<polygon fill="none" stroke="black" points="304.5,-84 304.5,-103 383.5,-103 383.5,-84 304.5,-84"/>
<text text-anchor="middle" x="344" y="-91" font-family="Helvetica,sans-Serif" font-size="10.00">hydra/Types.h</text>
</a>
</g>
</g>
<!-- Node0&#45;&gt;Node6 -->
<g id="edge6" class="edge"><title>Node0&#45;&gt;Node6</title>
<path fill="none" stroke="midnightblue" d="M414.823,-201.421C401.904,-193.447 383.639,-180.486 372,-165 360.158,-149.243 352.592,-127.812 348.35,-112.728"/>
<polygon fill="midnightblue" stroke="midnightblue" points="351.735,-111.839 345.835,-103.039 344.959,-113.597 351.735,-111.839"/>
</g>
<!-- Node7 -->
<g id="node8" class="node"><title>Node7</title>
<g id="a_node8"><a xlink:href="Integrator_8h.html" target="_top" xlink:title="hydra/detail/Integrator.h">
<polygon fill="none" stroke="black" points="205.5,-145.5 205.5,-164.5 324.5,-164.5 324.5,-145.5 205.5,-145.5"/>
<text text-anchor="middle" x="265" y="-152.5" font-family="Helvetica,sans-Serif" font-size="10.00">hydra/detail/Integrator.h</text>
</a>
</g>
</g>
<!-- Node0&#45;&gt;Node7 -->
<g id="edge7" class="edge"><title>Node0&#45;&gt;Node7</title>
<path fill="none" stroke="midnightblue" d="M403.855,-201.444C375.977,-192.32 331.652,-177.813 300.6,-167.651"/>
<polygon fill="midnightblue" stroke="midnightblue" points="301.615,-164.3 291.022,-164.516 299.438,-170.953 301.615,-164.3"/>
</g>
<!-- Node9 -->
<g id="node10" class="node"><title>Node9</title>
<g id="a_node10"><a xlink:href="Print_8h.html" target="_top" xlink:title="hydra/detail/Print.h">
<polygon fill="none" stroke="black" points="381,-145.5 381,-164.5 479,-164.5 479,-145.5 381,-145.5"/>
<text text-anchor="middle" x="430" y="-152.5" font-family="Helvetica,sans-Serif" font-size="10.00">hydra/detail/Print.h</text>
</a>
</g>
</g>
<!-- Node0&#45;&gt;Node9 -->
<g id="edge11" class="edge"><title>Node0&#45;&gt;Node9</title>
<path fill="none" stroke="midnightblue" d="M430,-201.083C430,-194.006 430,-183.861 430,-174.986"/>
<polygon fill="midnightblue" stroke="midnightblue" points="433.5,-174.751 430,-164.751 426.5,-174.751 433.5,-174.751"/>
</g>
<!-- Node13 -->
<g id="node14" class="node"><title>Node13</title>
<polygon fill="none" stroke="#bfbfbf" points="718,-11.5 718,-30.5 756,-30.5 756,-11.5 718,-11.5"/>
<text text-anchor="middle" x="737" y="-18.5" font-family="Helvetica,sans-Serif" font-size="10.00">tuple</text>
</g>
<!-- Node0&#45;&gt;Node13 -->
<g id="edge24" class="edge"><title>Node0&#45;&gt;Node13</title>
<path fill="none" stroke="midnightblue" d="M441.692,-201.207C453.504,-192.259 472.214,-177.908 488,-165 533.864,-127.495 537.042,-106.47 589,-78 637.832,-51.2432 659.004,-66.5126 709,-42 712.111,-40.4747 715.25,-38.6139 718.244,-36.648"/>
<polygon fill="midnightblue" stroke="midnightblue" points="720.517,-39.3256 726.62,-30.6651 716.448,-33.6295 720.517,-39.3256"/>
</g>
<!-- Node19 -->
<g id="node20" class="node"><title>Node19</title>
<g id="a_node20"><a xlink:href="PhaseSpaceIntegrator_8inl.html" target="_top" xlink:title="hydra/detail/PhaseSpaceIntegrator.inl">
<polygon fill="none" stroke="black" points="751.5,-145.5 751.5,-164.5 930.5,-164.5 930.5,-145.5 751.5,-145.5"/>
<text text-anchor="middle" x="841" y="-152.5" font-family="Helvetica,sans-Serif" font-size="10.00">hydra/detail/PhaseSpaceIntegrator.inl</text>
</a>
</g>
</g>
<!-- Node0&#45;&gt;Node19 -->
<g id="edge25" class="edge"><title>Node0&#45;&gt;Node19</title>
<path fill="none" stroke="midnightblue" d="M491.087,-201.974C564.278,-192.358 686.888,-176.248 765.823,-165.877"/>
<polygon fill="midnightblue" stroke="midnightblue" points="766.723,-169.289 776.182,-164.516 765.812,-162.349 766.723,-169.289"/>
</g>
<!-- Node2 -->
<g id="node3" class="node"><title>Node2</title>
<polygon fill="none" stroke="#bfbfbf" points="0,-6 0,-36 108,-36 108,-6 0,-6"/>
<text text-anchor="start" x="8" y="-24" font-family="Helvetica,sans-Serif" font-size="10.00">hydra/detail/external</text>
<text text-anchor="middle" x="54" y="-13" font-family="Helvetica,sans-Serif" font-size="10.00">/thrust/detail/config.h</text>
</g>
<!-- Node1&#45;&gt;Node2 -->
<g id="edge2" class="edge"><title>Node1&#45;&gt;Node2</title>
<path fill="none" stroke="midnightblue" d="M159.286,-83.8553C141.305,-73.2918 110.353,-55.1073 86.6476,-41.1805"/>
<polygon fill="midnightblue" stroke="midnightblue" points="88.3545,-38.1239 77.9594,-36.0762 84.8086,-44.1594 88.3545,-38.1239"/>
</g>
<!-- Node3 -->
<g id="node4" class="node"><title>Node3</title>
<polygon fill="none" stroke="#bfbfbf" points="126,-0.5 126,-41.5 230,-41.5 230,-0.5 126,-0.5"/>
<text text-anchor="start" x="134" y="-29.5" font-family="Helvetica,sans-Serif" font-size="10.00">hydra/detail/external</text>
<text text-anchor="start" x="134" y="-18.5" font-family="Helvetica,sans-Serif" font-size="10.00">/thrust/detail/config</text>
<text text-anchor="middle" x="178" y="-7.5" font-family="Helvetica,sans-Serif" font-size="10.00">/host_device.h</text>
</g>
<!-- Node1&#45;&gt;Node3 -->
<g id="edge3" class="edge"><title>Node1&#45;&gt;Node3</title>
<path fill="none" stroke="midnightblue" d="M174.49,-83.8553C174.944,-75.8604 175.645,-63.5002 176.302,-51.9243"/>
<polygon fill="midnightblue" stroke="midnightblue" points="179.812,-51.8438 176.884,-41.6616 172.824,-51.4473 179.812,-51.8438"/>
</g>
<!-- Node5 -->
<g id="node6" class="node"><title>Node5</title>
<polygon fill="none" stroke="#bfbfbf" points="598,-78.5 598,-108.5 726,-108.5 726,-78.5 598,-78.5"/>
<text text-anchor="start" x="606" y="-96.5" font-family="Helvetica,sans-Serif" font-size="10.00">hydra/detail/external</text>
<text text-anchor="middle" x="662" y="-85.5" font-family="Helvetica,sans-Serif" font-size="10.00">/thrust/execution_policy.h</text>
</g>
<!-- Node4&#45;&gt;Node5 -->
<g id="edge5" class="edge"><title>Node4&#45;&gt;Node5</title>
<path fill="none" stroke="midnightblue" d="M662,-145.475C662,-138.471 662,-128.192 662,-118.696"/>
<polygon fill="midnightblue" stroke="midnightblue" points="665.5,-118.523 662,-108.523 658.5,-118.523 665.5,-118.523"/>
</g>
<!-- Node7&#45;&gt;Node1 -->
<g id="edge8" class="edge"><title>Node7&#45;&gt;Node1</title>
<path fill="none" stroke="midnightblue" d="M251.962,-145.475C237.231,-135.843 213.027,-120.017 195.491,-108.552"/>
<polygon fill="midnightblue" stroke="midnightblue" points="197.299,-105.552 187.014,-103.009 193.468,-111.411 197.299,-105.552"/>
</g>
<!-- Node7&#45;&gt;Node6 -->
<g id="edge9" class="edge"><title>Node7&#45;&gt;Node6</title>
<path fill="none" stroke="midnightblue" d="M276.319,-145.475C288.873,-136.02 309.351,-120.596 324.499,-109.187"/>
<polygon fill="midnightblue" stroke="midnightblue" points="326.82,-111.821 332.702,-103.009 322.609,-106.23 326.82,-111.821"/>
</g>
<!-- Node8 -->
<g id="node9" class="node"><title>Node8</title>
<polygon fill="none" stroke="#bfbfbf" points="246,-84 246,-103 286,-103 286,-84 246,-84"/>
<text text-anchor="middle" x="266" y="-91" font-family="Helvetica,sans-Serif" font-size="10.00">utility</text>
</g>
<!-- Node7&#45;&gt;Node8 -->
<g id="edge10" class="edge"><title>Node7&#45;&gt;Node8</title>
<path fill="none" stroke="midnightblue" d="M265.143,-145.475C265.284,-137.08 265.505,-123.981 265.686,-113.163"/>
<polygon fill="midnightblue" stroke="midnightblue" points="269.188,-113.067 265.857,-103.009 262.189,-112.949 269.188,-113.067"/>
</g>
<!-- Node9&#45;&gt;Node1 -->
<g id="edge21" class="edge"><title>Node9&#45;&gt;Node1</title>
<path fill="none" stroke="midnightblue" d="M393.321,-145.475C347.793,-134.893 270.1,-116.836 220.453,-105.297"/>
<polygon fill="midnightblue" stroke="midnightblue" points="221.143,-101.864 210.611,-103.009 219.559,-108.682 221.143,-101.864"/>
</g>
<!-- Node9&#45;&gt;Node6 -->
<g id="edge22" class="edge"><title>Node9&#45;&gt;Node6</title>
<path fill="none" stroke="midnightblue" d="M417.678,-145.475C403.884,-135.931 381.301,-120.307 364.768,-108.868"/>
<polygon fill="midnightblue" stroke="midnightblue" points="366.514,-105.82 356.299,-103.009 362.531,-111.577 366.514,-105.82"/>
</g>
<!-- Node10 -->
<g id="node11" class="node"><title>Node10</title>
<g id="a_node11"><a xlink:href="StreamSTL_8h.html" target="_top" xlink:title="hydra/detail/utility\l/StreamSTL.h">
<polygon fill="none" stroke="black" points="440.5,-78.5 440.5,-108.5 533.5,-108.5 533.5,-78.5 440.5,-78.5"/>
<text text-anchor="start" x="448.5" y="-96.5" font-family="Helvetica,sans-Serif" font-size="10.00">hydra/detail/utility</text>
<text text-anchor="middle" x="487" y="-85.5" font-family="Helvetica,sans-Serif" font-size="10.00">/StreamSTL.h</text>
</a>
</g>
</g>
<!-- Node9&#45;&gt;Node10 -->
<g id="edge12" class="edge"><title>Node9&#45;&gt;Node10</title>
<path fill="none" stroke="midnightblue" d="M438.167,-145.475C445.526,-137.793 456.659,-126.172 466.438,-115.964"/>
<polygon fill="midnightblue" stroke="midnightblue" points="469.176,-118.165 473.566,-108.523 464.121,-113.323 469.176,-118.165"/>
</g>
<!-- Node11 -->
<g id="node12" class="node"><title>Node11</title>
<polygon fill="none" stroke="#bfbfbf" points="251,-11.5 251,-30.5 305,-30.5 305,-11.5 251,-11.5"/>
<text text-anchor="middle" x="278" y="-18.5" font-family="Helvetica,sans-Serif" font-size="10.00">iostream</text>
</g>
<!-- Node9&#45;&gt;Node11 -->
<g id="edge23" class="edge"><title>Node9&#45;&gt;Node11</title>
<path fill="none" stroke="midnightblue" d="M427.738,-145.34C423.31,-129.922 412.126,-97.5072 392,-78 364.584,-51.427 348.045,-59.2832 314,-42 310.055,-39.9974 305.914,-37.7946 301.903,-35.6052"/>
<polygon fill="midnightblue" stroke="midnightblue" points="303.371,-32.4169 292.929,-30.6216 299.972,-38.5366 303.371,-32.4169"/>
</g>
<!-- Node10&#45;&gt;Node11 -->
<g id="edge13" class="edge"><title>Node10&#45;&gt;Node11</title>
<path fill="none" stroke="midnightblue" d="M440.381,-80.1516C397.362,-68.5285 336.809,-51.5243 314,-42 309.575,-40.1525 304.999,-37.9004 300.653,-35.5825"/>
<polygon fill="midnightblue" stroke="midnightblue" points="302.091,-32.3761 291.657,-30.5348 298.665,-38.4807 302.091,-32.3761"/>
</g>
<!-- Node12 -->
<g id="node13" class="node"><title>Node12</title>
<polygon fill="none" stroke="#bfbfbf" points="461,-11.5 461,-30.5 499,-30.5 499,-11.5 461,-11.5"/>
<text text-anchor="middle" x="480" y="-18.5" font-family="Helvetica,sans-Serif" font-size="10.00">array</text>
</g>
<!-- Node10&#45;&gt;Node12 -->
<g id="edge14" class="edge"><title>Node10&#45;&gt;Node12</title>
<path fill="none" stroke="midnightblue" d="M485.583,-78.2333C484.518,-67.5006 483.047,-52.6875 481.882,-40.959"/>
<polygon fill="midnightblue" stroke="midnightblue" points="485.354,-40.4984 480.883,-30.8932 478.388,-41.1901 485.354,-40.4984"/>
</g>
<!-- Node10&#45;&gt;Node13 -->
<g id="edge15" class="edge"><title>Node10&#45;&gt;Node13</title>
<path fill="none" stroke="midnightblue" d="M533.612,-81.3524C538.468,-80.2112 543.333,-79.0764 548,-78 619.447,-61.5213 642.053,-71.9059 709,-42 712.319,-40.5175 715.641,-38.61 718.779,-36.5632"/>
<polygon fill="midnightblue" stroke="midnightblue" points="720.903,-39.3465 726.974,-30.6631 716.813,-33.6658 720.903,-39.3465"/>
</g>
<!-- Node14 -->
<g id="node15" class="node"><title>Node14</title>
<polygon fill="none" stroke="#bfbfbf" points="517,-11.5 517,-30.5 579,-30.5 579,-11.5 517,-11.5"/>
<text text-anchor="middle" x="548" y="-18.5" font-family="Helvetica,sans-Serif" font-size="10.00">type_traits</text>
</g>
<!-- Node10&#45;&gt;Node14 -->
<g id="edge16" class="edge"><title>Node10&#45;&gt;Node14</title>
<path fill="none" stroke="midnightblue" d="M499.344,-78.2333C509.301,-66.7261 523.316,-50.5283 533.749,-38.4707"/>
<polygon fill="midnightblue" stroke="midnightblue" points="536.409,-40.7455 540.305,-30.8932 531.115,-36.1653 536.409,-40.7455"/>
</g>
<!-- Node15 -->
<g id="node16" class="node"><title>Node15</title>
<polygon fill="none" stroke="#bfbfbf" points="597.5,-11.5 597.5,-30.5 640.5,-30.5 640.5,-11.5 597.5,-11.5"/>
<text text-anchor="middle" x="619" y="-18.5" font-family="Helvetica,sans-Serif" font-size="10.00">cstdio</text>
</g>
<!-- Node10&#45;&gt;Node15 -->
<g id="edge17" class="edge"><title>Node10&#45;&gt;Node15</title>
<path fill="none" stroke="midnightblue" d="M517.505,-78.321C537.782,-68.6355 564.84,-55.2086 588,-42 591.156,-40.2003 594.435,-38.2163 597.627,-36.2181"/>
<polygon fill="midnightblue" stroke="midnightblue" points="599.706,-39.0427 606.224,-30.6897 595.92,-33.1551 599.706,-39.0427"/>
</g>
<!-- Node16 -->
<g id="node17" class="node"><title>Node16</title>
<polygon fill="none" stroke="#bfbfbf" points="658.5,-11.5 658.5,-30.5 699.5,-30.5 699.5,-11.5 658.5,-11.5"/>
<text text-anchor="middle" x="679" y="-18.5" font-family="Helvetica,sans-Serif" font-size="10.00">string</text>
</g>
<!-- Node10&#45;&gt;Node16 -->
<g id="edge18" class="edge"><title>Node10&#45;&gt;Node16</title>
<path fill="none" stroke="midnightblue" d="M533.713,-81.7282C566.815,-73.1956 611.775,-59.7571 649,-42 652.482,-40.3392 656.026,-38.319 659.4,-36.2087"/>
<polygon fill="midnightblue" stroke="midnightblue" points="661.417,-39.0705 667.777,-30.5972 657.521,-33.2548 661.417,-39.0705"/>
</g>
<!-- Node17 -->
<g id="node18" class="node"><title>Node17</title>
<polygon fill="none" stroke="#bfbfbf" points="323.5,-11.5 323.5,-30.5 372.5,-30.5 372.5,-11.5 323.5,-11.5"/>
<text text-anchor="middle" x="348" y="-18.5" font-family="Helvetica,sans-Serif" font-size="10.00">cassert</text>
</g>
<!-- Node10&#45;&gt;Node17 -->
<g id="edge19" class="edge"><title>Node10&#45;&gt;Node17</title>
<path fill="none" stroke="midnightblue" d="M455.878,-78.3632C434.803,-68.5881 406.451,-55.0423 382,-42 378.365,-40.0611 374.561,-37.9291 370.868,-35.8018"/>
<polygon fill="midnightblue" stroke="midnightblue" points="372.472,-32.6845 362.077,-30.636 368.925,-38.7198 372.472,-32.6845"/>
</g>
<!-- Node18 -->
<g id="node19" class="node"><title>Node18</title>
<polygon fill="none" stroke="#bfbfbf" points="391,-11.5 391,-30.5 443,-30.5 443,-11.5 391,-11.5"/>
<text text-anchor="middle" x="417" y="-18.5" font-family="Helvetica,sans-Serif" font-size="10.00">memory</text>
</g>
<!-- Node10&#45;&gt;Node18 -->
<g id="edge20" class="edge"><title>Node10&#45;&gt;Node18</title>
<path fill="none" stroke="midnightblue" d="M472.834,-78.2333C461.299,-66.6154 445.016,-50.2163 433.01,-38.1241"/>
<polygon fill="midnightblue" stroke="midnightblue" points="435.36,-35.5233 425.83,-30.8932 430.392,-40.4554 435.36,-35.5233"/>
</g>
</g>
</svg>
        <g id="navigator" transform="translate(0 0)" fill="#404254">
                <rect fill="#f2f5e9" fill-opacity="0.5" stroke="#606060" stroke-width=".5" x="0" y="0" width="60" height="60"/>
                <use id="zoomplus" xlink:href="#zoomPlus" x="17" y="9" onmousedown="handleZoom(evt,'in')"/>
                <use id="zoomminus" xlink:href="#zoomMin" x="42" y="9" onmousedown="handleZoom(evt,'out')"/>
                <use id="reset" xlink:href="#resetDef" x="30" y="36" onmousedown="handleReset()"/>
                <g id="arrowUp" xlink:href="#dirArrow" transform="translate(30 24)" onmousedown="handlePan(0,-1)">
                  <use xlink:href="#rim" fill="#404040">
                        <set attributeName="fill" to="#808080" begin="arrowUp.mouseover" end="arrowUp.mouseout"/>
                  </use>
                  <path fill="none" stroke="white" stroke-width="1.5" d="M0,-3.0v7 M-2.5,-0.5L0,-3.0L2.5,-0.5"/>
                </g>
                <g id="arrowRight" xlink:href="#dirArrow" transform="rotate(90) translate(36 -43)" onmousedown="handlePan(1,0)">
                  <use xlink:href="#rim" fill="#404040">
                        <set attributeName="fill" to="#808080" begin="arrowRight.mouseover" end="arrowRight.mouseout"/>
                  </use>
                  <path fill="none" stroke="white" stroke-width="1.5" d="M0,-3.0v7 M-2.5,-0.5L0,-3.0L2.5,-0.5"/>
                </g>
                <g id="arrowDown" xlink:href="#dirArrow" transform="rotate(180) translate(-30 -48)" onmousedown="handlePan(0,1)">
                  <use xlink:href="#rim" fill="#404040">
                        <set attributeName="fill" to="#808080" begin="arrowDown.mouseover" end="arrowDown.mouseout"/>
                  </use>
                  <path fill="none" stroke="white" stroke-width="1.5" d="M0,-3.0v7 M-2.5,-0.5L0,-3.0L2.5,-0.5"/>
                </g>
                <g id="arrowLeft" xlink:href="#dirArrow" transform="rotate(270) translate(-36 17)" onmousedown="handlePan(-1,0)">
                  <use xlink:href="#rim" fill="#404040">
                        <set attributeName="fill" to="#808080" begin="arrowLeft.mouseover" end="arrowLeft.mouseout"/>
                  </use>
                  <path fill="none" stroke="white" stroke-width="1.5" d="M0,-3.0v7 M-2.5,-0.5L0,-3.0L2.5,-0.5"/>
                </g>
        </g>
        <svg viewBox="0 0 15 15" width="100%" height="30px" preserveAspectRatio="xMaxYMin meet">
         <g id="arrow_out" transform="scale(0.3 0.3)">
          <a xlink:href="PhaseSpaceIntegrator_8h__incl_org.svg" target="_base">
           <rect id="button" ry="5" rx="5" y="6" x="6" height="38" width="38"
                fill="#f2f5e9" fill-opacity="0.5" stroke="#606060" stroke-width="1.0"/>
           <path id="arrow"
             d="M 11.500037,31.436501 C 11.940474,20.09759 22.043105,11.32322 32.158766,21.979434 L 37.068811,17.246167 C 37.068811,17.246167 37.088388,32 37.088388,32 L 22.160133,31.978069 C 22.160133,31.978069 26.997745,27.140456 26.997745,27.140456 C 18.528582,18.264221 13.291696,25.230495 11.500037,31.436501 z"
             style="fill:#404040;"/>
          </a>
         </g>
        </svg>
</svg>
