<?xml version="1.0" encoding="UTF-8" standalone="no"?>
<!DOCTYPE svg PUBLIC "-//W3C//DTD SVG 1.1//EN"
 "http://www.w3.org/Graphics/SVG/1.1/DTD/svg11.dtd">
<!-- Generated by graphviz version 2.40.1 (20161225.0304)
 -->
<!-- Title: phsp_averaging_functor.inl Pages: 1 -->
<svg width="300pt" height="84pt"
 viewBox="0.00 0.00 299.50 84.00" xmlns="http://www.w3.org/2000/svg" xmlns:xlink="http://www.w3.org/1999/xlink">
<g id="graph0" class="graph" transform="scale(1 1) rotate(0) translate(4 80)">
<title>phsp_averaging_functor.inl</title>
<!-- Node145 -->
<g id="node1" class="node">
<title>Node145</title>
<polygon fill="#bfbfbf" stroke="#000000" points="80,-56.5 80,-75.5 213,-75.5 213,-56.5 80,-56.5"/>
<text text-anchor="middle" x="146.5" y="-63.5" font-family="Helvetica,sans-Serif" font-size="10.00" fill="#000000">phsp_averaging_functor.inl</text>
</g>
<!-- Node146 -->
<g id="node2" class="node">
<title>Node146</title>
<g id="a_node2"><a xlink:href="phsp__averaging__functor_8cpp.html" target="_top" xlink:title="phsp_averaging_functor.cpp">
<polygon fill="none" stroke="#000000" points="0,-.5 0,-19.5 139,-19.5 139,-.5 0,-.5"/>
<text text-anchor="middle" x="69.5" y="-7.5" font-family="Helvetica,sans-Serif" font-size="10.00" fill="#000000">phsp_averaging_functor.cpp</text>
</a>
</g>
</g>
<!-- Node145&#45;&gt;Node146 -->
<g id="edge1" class="edge">
<title>Node145&#45;&gt;Node146</title>
<path fill="none" stroke="#191970" d="M124.7884,-50.2097C111.2647,-40.3743 94.3042,-28.0394 82.7587,-19.6427"/>
<polygon fill="#191970" stroke="#191970" points="122.9416,-53.1944 133.0876,-56.2455 127.0589,-47.5332 122.9416,-53.1944"/>
</g>
<!-- Node147 -->
<g id="node3" class="node">
<title>Node147</title>
<g id="a_node3"><a xlink:href="phsp__averaging__functor_8cu.html" target="_top" xlink:title="phsp_averaging_functor.cu">
<polygon fill="none" stroke="#000000" points="157.5,-.5 157.5,-19.5 291.5,-19.5 291.5,-.5 157.5,-.5"/>
<text text-anchor="middle" x="224.5" y="-7.5" font-family="Helvetica,sans-Serif" font-size="10.00" fill="#000000">phsp_averaging_functor.cu</text>
</a>
</g>
</g>
<!-- Node145&#45;&gt;Node147 -->
<g id="edge2" class="edge">
<title>Node145&#45;&gt;Node147</title>
<path fill="none" stroke="#191970" d="M168.4936,-50.2097C182.1929,-40.3743 199.3736,-28.0394 211.0691,-19.6427"/>
<polygon fill="#191970" stroke="#191970" points="166.1686,-47.5703 160.0866,-56.2455 170.2511,-53.2566 166.1686,-47.5703"/>
</g>
</g>
</svg>
