<?xml version="1.0" encoding="UTF-8" standalone="no"?>
<!DOCTYPE svg PUBLIC "-//W3C//DTD SVG 1.1//EN"
 "http://www.w3.org/Graphics/SVG/1.1/DTD/svg11.dtd">
<!-- Generated by graphviz version 2.38.0 (20140413.2041)
 -->
<!-- Title: main Pages: 1 -->
<!--zoomable 534 -->
<svg id="main" version="1.1" xmlns="http://www.w3.org/2000/svg" xmlns:xlink="http://www.w3.org/1999/xlink" xml:space="preserve" onload="init(evt)">
<style type="text/css"><![CDATA[
.edge:hover path { stroke: red; }
.edge:hover polygon { stroke: red; fill: red; }
]]></style>
<script type="text/javascript"><![CDATA[
var edges = document.getElementsByTagName('g');
if (edges && edges.length) {
  for (var i=0;i<edges.length;i++) {
    if (edges[i].id.substr(0,4)=='edge') {
      edges[i].setAttribute('class','edge');
    }
  }
}
]]></script>
        <defs>
                <circle id="rim" cx="0" cy="0" r="7"/>
                <circle id="rim2" cx="0" cy="0" r="3.5"/>
                <g id="zoomPlus">
                        <use xlink:href="#rim" fill="#404040">
                                <set attributeName="fill" to="#808080" begin="zoomplus.mouseover" end="zoomplus.mouseout"/>
                        </use>
                        <path d="M-4,0h8M0,-4v8" fill="none" stroke="white" stroke-width="1.5" pointer-events="none"/>
                </g>
                <g id="zoomMin">
                        <use xlink:href="#rim" fill="#404040">
                                <set attributeName="fill" to="#808080" begin="zoomminus.mouseover" end="zoomminus.mouseout"/>
                        </use>
                        <path d="M-4,0h8" fill="none" stroke="white" stroke-width="1.5" pointer-events="none"/>
                </g>
                <g id="dirArrow">
                        <path fill="none" stroke="white" stroke-width="1.5" d="M0,-3.0v7 M-2.5,-0.5L0,-3.0L2.5,-0.5"/>
                </g>
               <g id="resetDef">
                       <use xlink:href="#rim2" fill="#404040">
                               <set attributeName="fill" to="#808080" begin="reset.mouseover" end="reset.mouseout"/>
                       </use>
               </g>
        </defs>

<script type="text/javascript">
var viewWidth = 404;
var viewHeight = 534;
var sectionId = 'dynsection-2';
</script>
<script xlink:href="svgpan.js"/>
<svg id="graph" class="graph">
<g id="viewport">
<title>main</title>
<!-- Node0 -->
<g id="node1" class="node"><title>Node0</title>
<polygon fill="#bfbfbf" stroke="black" points="0,-247.5 0,-266.5 38,-266.5 38,-247.5 0,-247.5"/>
<text text-anchor="middle" x="19" y="-254.5" font-family="Helvetica,sans-Serif" font-size="10.00">main</text>
</g>
<!-- Node1 -->
<g id="node2" class="node"><title>Node1</title>
<g id="a_node2"><a xlink:href="group__fit.html#afcb827c519d5a9395192358fba358728" target="_top" xlink:title="hydra::Parameter::Create">
<polygon fill="none" stroke="black" points="82,-506.5 82,-525.5 209,-525.5 209,-506.5 82,-506.5"/>
<text text-anchor="middle" x="145.5" y="-513.5" font-family="Helvetica,sans-Serif" font-size="10.00">hydra::Parameter::Create</text>
</a>
</g>
</g>
<!-- Node0&#45;&gt;Node1 -->
<g id="edge1" class="edge"><title>Node0&#45;&gt;Node1</title>
<path fill="none" stroke="midnightblue" d="M20.957,-266.509C25.121,-306.114 42.8652,-457.507 74,-492 77.4843,-495.86 81.6138,-499.1 86.0999,-501.818"/>
<polygon fill="midnightblue" stroke="midnightblue" points="84.5954,-504.98 95.0904,-506.431 87.7908,-498.752 84.5954,-504.98"/>
</g>
<!-- Node3 -->
<g id="node4" class="node"><title>Node3</title>
<g id="a_node4"><a xlink:href="namespacehydra.html#ae7f8d7b0cfc77696dd1ba9aaf31d23a7" target="_top" xlink:title="hydra::end">
<polygon fill="none" stroke="black" points="293.5,-367.5 293.5,-386.5 355.5,-386.5 355.5,-367.5 293.5,-367.5"/>
<text text-anchor="middle" x="324.5" y="-374.5" font-family="Helvetica,sans-Serif" font-size="10.00">hydra::end</text>
</a>
</g>
</g>
<!-- Node0&#45;&gt;Node3 -->
<g id="edge3" class="edge"><title>Node0&#45;&gt;Node3</title>
<path fill="none" stroke="midnightblue" d="M21.053,-266.668C25.2897,-303.577 42.3996,-434.738 74,-459 124.411,-497.705 156.834,-479.479 217,-459 254.666,-446.179 289.403,-414.06 308.403,-394.038"/>
<polygon fill="midnightblue" stroke="midnightblue" points="311.118,-396.256 315.327,-386.533 305.973,-391.509 311.118,-396.256"/>
</g>
<!-- Node4 -->
<g id="node5" class="node"><title>Node4</title>
<g id="a_node5"><a xlink:href="group__fit.html#a9faea07ef7ea36231838f227f8c8a1c7" target="_top" xlink:title="hydra::Parameter::Error">
<polygon fill="none" stroke="black" points="86,-430.5 86,-449.5 205,-449.5 205,-430.5 86,-430.5"/>
<text text-anchor="middle" x="145.5" y="-437.5" font-family="Helvetica,sans-Serif" font-size="10.00">hydra::Parameter::Error</text>
</a>
</g>
</g>
<!-- Node0&#45;&gt;Node4 -->
<g id="edge4" class="edge"><title>Node0&#45;&gt;Node4</title>
<path fill="none" stroke="midnightblue" d="M20.1759,-266.791C21.2337,-295.09 28.2844,-377.725 74,-421 75.519,-422.438 77.135,-423.769 78.8293,-425.002"/>
<polygon fill="midnightblue" stroke="midnightblue" points="77.4822,-428.273 87.8656,-430.38 81.062,-422.258 77.4822,-428.273"/>
</g>
<!-- Node5 -->
<g id="node6" class="node"><title>Node5</title>
<g id="a_node6"><a xlink:href="group__phsp.html#a2bc929273f54d8e7e45f90aff2813194" target="_top" xlink:title="Generate a phase&#45;space given a mother particle and a output range. ">
<polygon fill="none" stroke="black" points="91.5,-381 91.5,-411 199.5,-411 199.5,-381 91.5,-381"/>
<text text-anchor="start" x="99.5" y="-399" font-family="Helvetica,sans-Serif" font-size="10.00">hydra::PhaseSpace::</text>
<text text-anchor="middle" x="145.5" y="-388" font-family="Helvetica,sans-Serif" font-size="10.00">Generate</text>
</a>
</g>
</g>
<!-- Node0&#45;&gt;Node5 -->
<g id="edge5" class="edge"><title>Node0&#45;&gt;Node5</title>
<path fill="none" stroke="midnightblue" d="M21.9554,-266.764C26.8207,-288.576 41.4964,-341.642 74,-371 76.6337,-373.379 79.5084,-375.535 82.5428,-377.488"/>
<polygon fill="midnightblue" stroke="midnightblue" points="81.0138,-380.643 91.4493,-382.474 84.4331,-374.535 81.0138,-380.643"/>
</g>
<!-- Node6 -->
<g id="node7" class="node"><title>Node6</title>
<g id="a_node7"><a xlink:href="group__fit.html#a19bbd8c8155327bbd2d2a689c6eaad9f" target="_top" xlink:title="hydra::Parameter::Limits">
<polygon fill="none" stroke="black" points="83.5,-342.5 83.5,-361.5 207.5,-361.5 207.5,-342.5 83.5,-342.5"/>
<text text-anchor="middle" x="145.5" y="-349.5" font-family="Helvetica,sans-Serif" font-size="10.00">hydra::Parameter::Limits</text>
</a>
</g>
</g>
<!-- Node0&#45;&gt;Node6 -->
<g id="edge6" class="edge"><title>Node0&#45;&gt;Node6</title>
<path fill="none" stroke="midnightblue" d="M24.1199,-266.558C31.6101,-282.776 49.0262,-315.614 74,-333 76.8967,-335.017 79.9973,-336.819 83.2232,-338.431"/>
<polygon fill="midnightblue" stroke="midnightblue" points="82.0134,-341.721 92.5807,-342.485 84.7962,-335.298 82.0134,-341.721"/>
</g>
<!-- Node7 -->
<g id="node8" class="node"><title>Node7</title>
<g id="a_node8"><a xlink:href="namespacehydra.html#a2940519393c31b1d5566e1894e01bad7" target="_top" xlink:title="hydra::make_loglikehood_fcn">
<polygon fill="none" stroke="black" points="74,-304.5 74,-323.5 217,-323.5 217,-304.5 74,-304.5"/>
<text text-anchor="middle" x="145.5" y="-311.5" font-family="Helvetica,sans-Serif" font-size="10.00">hydra::make_loglikehood_fcn</text>
</a>
</g>
</g>
<!-- Node0&#45;&gt;Node7 -->
<g id="edge7" class="edge"><title>Node0&#45;&gt;Node7</title>
<path fill="none" stroke="midnightblue" d="M31.2733,-266.723C41.72,-275.279 58.0143,-287.509 74,-295 79.0218,-297.353 84.3862,-299.457 89.8295,-301.328"/>
<polygon fill="midnightblue" stroke="midnightblue" points="89.0652,-304.758 99.6555,-304.448 91.1835,-298.086 89.0652,-304.758"/>
</g>
<!-- Node8 -->
<g id="node9" class="node"><title>Node8</title>
<g id="a_node9"><a xlink:href="namespacehydra.html#a2d468a0d98a74f41479f8ccb95f5533e" target="_top" xlink:title="Build a hydra::Pdf given a shape described by a functor and a integrator (algorithm or functor)...">
<polygon fill="none" stroke="black" points="101,-266.5 101,-285.5 190,-285.5 190,-266.5 101,-266.5"/>
<text text-anchor="middle" x="145.5" y="-273.5" font-family="Helvetica,sans-Serif" font-size="10.00">hydra::make_pdf</text>
</a>
</g>
</g>
<!-- Node0&#45;&gt;Node8 -->
<g id="edge8" class="edge"><title>Node0&#45;&gt;Node8</title>
<path fill="none" stroke="midnightblue" d="M38.1034,-259.763C51.9949,-261.883 71.9294,-264.925 90.7963,-267.804"/>
<polygon fill="midnightblue" stroke="midnightblue" points="90.4105,-271.286 100.824,-269.335 91.4666,-264.366 90.4105,-271.286"/>
</g>
<!-- Node9 -->
<g id="node10" class="node"><title>Node9</title>
<g id="a_node10"><a xlink:href="namespacehydra.html#a8d210727c4d8b6989542eff5fd3f6319" target="_top" xlink:title="hydra::make_range">
<polygon fill="none" stroke="black" points="95.5,-228.5 95.5,-247.5 195.5,-247.5 195.5,-228.5 95.5,-228.5"/>
<text text-anchor="middle" x="145.5" y="-235.5" font-family="Helvetica,sans-Serif" font-size="10.00">hydra::make_range</text>
</a>
</g>
</g>
<!-- Node0&#45;&gt;Node9 -->
<g id="edge9" class="edge"><title>Node0&#45;&gt;Node9</title>
<path fill="none" stroke="midnightblue" d="M38.1034,-254.237C50.6753,-252.319 68.1967,-249.645 85.3969,-247.02"/>
<polygon fill="midnightblue" stroke="midnightblue" points="86.0897,-250.455 95.4472,-245.486 85.0336,-243.535 86.0897,-250.455"/>
</g>
<!-- Node11 -->
<g id="node12" class="node"><title>Node11</title>
<g id="a_node12"><a xlink:href="group__phsp.html#a7f617ab3292ed83e381c87a79be9e08f" target="_top" xlink:title="hydra::Vector4R::mass">
<polygon fill="none" stroke="black" points="86.5,-190.5 86.5,-209.5 204.5,-209.5 204.5,-190.5 86.5,-190.5"/>
<text text-anchor="middle" x="145.5" y="-197.5" font-family="Helvetica,sans-Serif" font-size="10.00">hydra::Vector4R::mass</text>
</a>
</g>
</g>
<!-- Node0&#45;&gt;Node11 -->
<g id="edge12" class="edge"><title>Node0&#45;&gt;Node11</title>
<path fill="none" stroke="midnightblue" d="M31.2733,-247.277C41.72,-238.721 58.0143,-226.491 74,-219 79.0218,-216.647 84.3862,-214.543 89.8295,-212.672"/>
<polygon fill="midnightblue" stroke="midnightblue" points="91.1835,-215.914 99.6555,-209.552 89.0652,-209.242 91.1835,-215.914"/>
</g>
<!-- Node13 -->
<g id="node14" class="node"><title>Node13</title>
<g id="a_node14"><a xlink:href="group__fit.html#a47861993e8a8e57b88324d7d060e31b5" target="_top" xlink:title="hydra::Parameter::Name">
<polygon fill="none" stroke="black" points="83.5,-152.5 83.5,-171.5 207.5,-171.5 207.5,-152.5 83.5,-152.5"/>
<text text-anchor="middle" x="145.5" y="-159.5" font-family="Helvetica,sans-Serif" font-size="10.00">hydra::Parameter::Name</text>
</a>
</g>
</g>
<!-- Node0&#45;&gt;Node13 -->
<g id="edge14" class="edge"><title>Node0&#45;&gt;Node13</title>
<path fill="none" stroke="midnightblue" d="M24.1199,-247.442C31.6101,-231.224 49.0262,-198.386 74,-181 76.8967,-178.983 79.9973,-177.181 83.2232,-175.569"/>
<polygon fill="midnightblue" stroke="midnightblue" points="84.7962,-178.702 92.5807,-171.515 82.0134,-172.279 84.7962,-178.702"/>
</g>
<!-- Node14 -->
<g id="node15" class="node"><title>Node14</title>
<g id="a_node15"><a xlink:href="namespacehydra.html#ad17e6f0c375b2466aa3f5f3cac2bbe7c" target="_top" xlink:title="hydra::pow">
<polygon fill="none" stroke="black" points="113,-114.5 113,-133.5 178,-133.5 178,-114.5 113,-114.5"/>
<text text-anchor="middle" x="145.5" y="-121.5" font-family="Helvetica,sans-Serif" font-size="10.00">hydra::pow</text>
</a>
</g>
</g>
<!-- Node0&#45;&gt;Node14 -->
<g id="edge15" class="edge"><title>Node0&#45;&gt;Node14</title>
<path fill="none" stroke="midnightblue" d="M21.7282,-247.382C26.1936,-225.402 40.2149,-171.217 74,-143 82.184,-136.165 92.6014,-131.77 102.901,-128.95"/>
<polygon fill="midnightblue" stroke="midnightblue" points="103.704,-132.357 112.663,-126.7 102.132,-125.535 103.704,-132.357"/>
</g>
<!-- Node16 -->
<g id="node17" class="node"><title>Node16</title>
<g id="a_node17"><a xlink:href="classhydra_1_1Print.html#a03a2522e2192b2509284f25b4b899c7c" target="_top" xlink:title="hydra::Print::SetLevel">
<polygon fill="none" stroke="black" points="90,-76.5 90,-95.5 201,-95.5 201,-76.5 90,-76.5"/>
<text text-anchor="middle" x="145.5" y="-83.5" font-family="Helvetica,sans-Serif" font-size="10.00">hydra::Print::SetLevel</text>
</a>
</g>
</g>
<!-- Node0&#45;&gt;Node16 -->
<g id="edge17" class="edge"><title>Node0&#45;&gt;Node16</title>
<path fill="none" stroke="midnightblue" d="M20.473,-247.144C22.3145,-220.175 31.2344,-144.549 74,-105 75.9951,-103.155 78.1504,-101.486 80.4252,-99.9756"/>
<polygon fill="midnightblue" stroke="midnightblue" points="82.6069,-102.772 89.7046,-94.9061 79.2508,-96.629 82.6069,-102.772"/>
</g>
<!-- Node17 -->
<g id="node18" class="node"><title>Node17</title>
<g id="a_node18"><a xlink:href="group__fit.html#a706c308f57ea396e2cfe6c22f1b6b442" target="_top" xlink:title="hydra::Parameter::Value">
<polygon fill="none" stroke="black" points="84.5,-38.5 84.5,-57.5 206.5,-57.5 206.5,-38.5 84.5,-38.5"/>
<text text-anchor="middle" x="145.5" y="-45.5" font-family="Helvetica,sans-Serif" font-size="10.00">hydra::Parameter::Value</text>
</a>
</g>
</g>
<!-- Node0&#45;&gt;Node17 -->
<g id="edge18" class="edge"><title>Node0&#45;&gt;Node17</title>
<path fill="none" stroke="midnightblue" d="M19.6648,-247.497C19.1224,-216.681 21.7551,-118.536 74,-67 75.4552,-65.5645 77.0068,-64.2345 78.6369,-63.0024"/>
<polygon fill="midnightblue" stroke="midnightblue" points="80.6851,-65.8513 87.3582,-57.6221 77.0097,-59.8938 80.6851,-65.8513"/>
</g>
<!-- Node18 -->
<g id="node19" class="node"><title>Node18</title>
<g id="a_node19"><a xlink:href="group__functor.html#ga06bab1ad739e661a92fbf918012c9736" target="_top" xlink:title="Function template for wrap a C++11 lambda into a hydra lambda with a certain number of parameters...">
<polygon fill="none" stroke="black" points="93.5,-0.5 93.5,-19.5 197.5,-19.5 197.5,-0.5 93.5,-0.5"/>
<text text-anchor="middle" x="145.5" y="-7.5" font-family="Helvetica,sans-Serif" font-size="10.00">hydra::wrap_lambda</text>
</a>
</g>
</g>
<!-- Node0&#45;&gt;Node18 -->
<g id="edge19" class="edge"><title>Node0&#45;&gt;Node18</title>
<path fill="none" stroke="midnightblue" d="M20.969,-247.456C25.1205,-208.405 42.6365,-61.3412 74,-29 77.028,-25.8776 80.5109,-23.2508 84.2722,-21.043"/>
<polygon fill="midnightblue" stroke="midnightblue" points="85.9784,-24.1061 93.4711,-16.6155 82.9426,-17.7987 85.9784,-24.1061"/>
</g>
<!-- Node2 -->
<g id="node3" class="node"><title>Node2</title>
<g id="a_node3"><a xlink:href="group__fit.html#a442e7fd55af0ce0fda6fc37c8fd049ea" target="_top" xlink:title="hydra::Parameter::Parameter">
<polygon fill="none" stroke="black" points="253,-506.5 253,-525.5 396,-525.5 396,-506.5 253,-506.5"/>
<text text-anchor="middle" x="324.5" y="-513.5" font-family="Helvetica,sans-Serif" font-size="10.00">hydra::Parameter::Parameter</text>
</a>
</g>
</g>
<!-- Node1&#45;&gt;Node2 -->
<g id="edge2" class="edge"><title>Node1&#45;&gt;Node2</title>
<path fill="none" stroke="midnightblue" d="M209.402,-516C220.205,-516 231.564,-516 242.757,-516"/>
<polygon fill="midnightblue" stroke="midnightblue" points="242.969,-519.5 252.969,-516 242.969,-512.5 242.969,-519.5"/>
</g>
<!-- Node9&#45;&gt;Node3 -->
<g id="edge11" class="edge"><title>Node9&#45;&gt;Node3</title>
<path fill="none" stroke="midnightblue" d="M195.823,-247.321C203.224,-249.828 210.532,-252.998 217,-257 259.615,-283.368 294.931,-331.94 312.161,-358.485"/>
<polygon fill="midnightblue" stroke="midnightblue" points="309.363,-360.61 317.67,-367.186 315.278,-356.865 309.363,-360.61"/>
</g>
<!-- Node10 -->
<g id="node11" class="node"><title>Node10</title>
<g id="a_node11"><a xlink:href="namespacehydra.html#a6874d900b0238ec21d1490998de81f99" target="_top" xlink:title="hydra::begin">
<polygon fill="none" stroke="black" points="289.5,-228.5 289.5,-247.5 359.5,-247.5 359.5,-228.5 289.5,-228.5"/>
<text text-anchor="middle" x="324.5" y="-235.5" font-family="Helvetica,sans-Serif" font-size="10.00">hydra::begin</text>
</a>
</g>
</g>
<!-- Node9&#45;&gt;Node10 -->
<g id="edge10" class="edge"><title>Node9&#45;&gt;Node10</title>
<path fill="none" stroke="midnightblue" d="M195.804,-238C221.966,-238 253.855,-238 279.221,-238"/>
<polygon fill="midnightblue" stroke="midnightblue" points="279.302,-241.5 289.302,-238 279.302,-234.5 279.302,-241.5"/>
</g>
<!-- Node12 -->
<g id="node13" class="node"><title>Node12</title>
<g id="a_node13"><a xlink:href="namespacehydra.html#ac9c54fb833c00a61ad29f0203620ec27" target="_top" xlink:title="hydra::sqrt">
<polygon fill="none" stroke="black" points="293,-190.5 293,-209.5 356,-209.5 356,-190.5 293,-190.5"/>
<text text-anchor="middle" x="324.5" y="-197.5" font-family="Helvetica,sans-Serif" font-size="10.00">hydra::sqrt</text>
</a>
</g>
</g>
<!-- Node11&#45;&gt;Node12 -->
<g id="edge13" class="edge"><title>Node11&#45;&gt;Node12</title>
<path fill="none" stroke="midnightblue" d="M204.947,-200C230.445,-200 259.72,-200 282.799,-200"/>
<polygon fill="midnightblue" stroke="midnightblue" points="282.931,-203.5 292.931,-200 282.931,-196.5 282.931,-203.5"/>
</g>
<!-- Node15 -->
<g id="node16" class="node"><title>Node15</title>
<g id="a_node16"><a xlink:href="namespacehydra.html#aa8b268e8ec63688dfa15b64c335dfdb7" target="_top" xlink:title="hydra::pow">
<polygon fill="none" stroke="black" points="292,-114.5 292,-133.5 357,-133.5 357,-114.5 292,-114.5"/>
<text text-anchor="middle" x="324.5" y="-121.5" font-family="Helvetica,sans-Serif" font-size="10.00">hydra::pow</text>
</a>
</g>
</g>
<!-- Node14&#45;&gt;Node15 -->
<g id="edge16" class="edge"><title>Node14&#45;&gt;Node15</title>
<path fill="none" stroke="midnightblue" d="M178.144,-124C207,-124 249.841,-124 281.544,-124"/>
<polygon fill="midnightblue" stroke="midnightblue" points="281.832,-127.5 291.832,-124 281.832,-120.5 281.832,-127.5"/>
</g>
</g>
</svg>
        <g id="navigator" transform="translate(0 0)" fill="#404254">
                <rect fill="#f2f5e9" fill-opacity="0.5" stroke="#606060" stroke-width=".5" x="0" y="0" width="60" height="60"/>
                <use id="zoomplus" xlink:href="#zoomPlus" x="17" y="9" onmousedown="handleZoom(evt,'in')"/>
                <use id="zoomminus" xlink:href="#zoomMin" x="42" y="9" onmousedown="handleZoom(evt,'out')"/>
                <use id="reset" xlink:href="#resetDef" x="30" y="36" onmousedown="handleReset()"/>
                <g id="arrowUp" xlink:href="#dirArrow" transform="translate(30 24)" onmousedown="handlePan(0,-1)">
                  <use xlink:href="#rim" fill="#404040">
                        <set attributeName="fill" to="#808080" begin="arrowUp.mouseover" end="arrowUp.mouseout"/>
                  </use>
                  <path fill="none" stroke="white" stroke-width="1.5" d="M0,-3.0v7 M-2.5,-0.5L0,-3.0L2.5,-0.5"/>
                </g>
                <g id="arrowRight" xlink:href="#dirArrow" transform="rotate(90) translate(36 -43)" onmousedown="handlePan(1,0)">
                  <use xlink:href="#rim" fill="#404040">
                        <set attributeName="fill" to="#808080" begin="arrowRight.mouseover" end="arrowRight.mouseout"/>
                  </use>
                  <path fill="none" stroke="white" stroke-width="1.5" d="M0,-3.0v7 M-2.5,-0.5L0,-3.0L2.5,-0.5"/>
                </g>
                <g id="arrowDown" xlink:href="#dirArrow" transform="rotate(180) translate(-30 -48)" onmousedown="handlePan(0,1)">
                  <use xlink:href="#rim" fill="#404040">
                        <set attributeName="fill" to="#808080" begin="arrowDown.mouseover" end="arrowDown.mouseout"/>
                  </use>
                  <path fill="none" stroke="white" stroke-width="1.5" d="M0,-3.0v7 M-2.5,-0.5L0,-3.0L2.5,-0.5"/>
                </g>
                <g id="arrowLeft" xlink:href="#dirArrow" transform="rotate(270) translate(-36 17)" onmousedown="handlePan(-1,0)">
                  <use xlink:href="#rim" fill="#404040">
                        <set attributeName="fill" to="#808080" begin="arrowLeft.mouseover" end="arrowLeft.mouseout"/>
                  </use>
                  <path fill="none" stroke="white" stroke-width="1.5" d="M0,-3.0v7 M-2.5,-0.5L0,-3.0L2.5,-0.5"/>
                </g>
        </g>
        <svg viewBox="0 0 15 15" width="100%" height="30px" preserveAspectRatio="xMaxYMin meet">
         <g id="arrow_out" transform="scale(0.3 0.3)">
          <a xlink:href="phsp__unweighting__functor__and__fit_8inl_a1c03069360f1f90a556eb537e0ff8a72_cgraph_org.svg" target="_base">
           <rect id="button" ry="5" rx="5" y="6" x="6" height="38" width="38"
                fill="#f2f5e9" fill-opacity="0.5" stroke="#606060" stroke-width="1.0"/>
           <path id="arrow"
             d="M 11.500037,31.436501 C 11.940474,20.09759 22.043105,11.32322 32.158766,21.979434 L 37.068811,17.246167 C 37.068811,17.246167 37.088388,32 37.088388,32 L 22.160133,31.978069 C 22.160133,31.978069 26.997745,27.140456 26.997745,27.140456 C 18.528582,18.264221 13.291696,25.230495 11.500037,31.436501 z"
             style="fill:#404040;"/>
          </a>
         </g>
        </svg>
</svg>
