<?xml version="1.0" encoding="UTF-8" standalone="no"?>
<!DOCTYPE svg PUBLIC "-//W3C//DTD SVG 1.1//EN"
 "http://www.w3.org/Graphics/SVG/1.1/DTD/svg11.dtd">
<!-- Generated by graphviz version 5.0.0 (0)
 -->
<!-- Title: phsp_unweighting_functor_and_fit.inl Pages: 1 -->
<svg width="286pt" height="106pt"
 viewBox="0.00 0.00 286.00 106.00" xmlns="http://www.w3.org/2000/svg" xmlns:xlink="http://www.w3.org/1999/xlink">
<g id="graph0" class="graph" transform="scale(1 1) rotate(0) translate(4 102)">
<title>phsp_unweighting_functor_and_fit.inl</title>
<!-- Node238 -->
<g id="node1" class="node">
<title>Node238</title>
<polygon fill="#bfbfbf" stroke="black" points="74,-67.5 74,-97.5 204,-97.5 204,-67.5 74,-67.5"/>
<text text-anchor="start" x="82" y="-85.5" font-family="Helvetica,sans-Serif" font-size="10.00">phsp_unweighting_functor</text>
<text text-anchor="middle" x="139" y="-74.5" font-family="Helvetica,sans-Serif" font-size="10.00">_and_fit.inl</text>
</g>
<!-- Node239 -->
<g id="node2" class="node">
<title>Node239</title>
<g id="a_node2"><a xlink:href="phsp__unweighting__functor__and__fit_8cpp.html" target="_top" xlink:title="phsp_unweighting_functor\l_and_fit.cpp">
<polygon fill="none" stroke="black" points="0,-0.5 0,-30.5 130,-30.5 130,-0.5 0,-0.5"/>
<text text-anchor="start" x="8" y="-18.5" font-family="Helvetica,sans-Serif" font-size="10.00">phsp_unweighting_functor</text>
<text text-anchor="middle" x="65" y="-7.5" font-family="Helvetica,sans-Serif" font-size="10.00">_and_fit.cpp</text>
</a>
</g>
</g>
<!-- Node238&#45;&gt;Node239 -->
<g id="edge1" class="edge">
<title>Node238&#45;&gt;Node239</title>
<path fill="none" stroke="midnightblue" d="M115.2,-60.6C104.03,-50.78 91.01,-39.34 81.03,-30.58"/>
<polygon fill="midnightblue" stroke="midnightblue" points="113.12,-63.43 122.94,-67.4 117.74,-58.17 113.12,-63.43"/>
</g>
<!-- Node240 -->
<g id="node3" class="node">
<title>Node240</title>
<g id="a_node3"><a xlink:href="phsp__unweighting__functor__and__fit_8cu.html" target="_top" xlink:title="phsp_unweighting_functor\l_and_fit.cu">
<polygon fill="none" stroke="black" points="148,-0.5 148,-30.5 278,-30.5 278,-0.5 148,-0.5"/>
<text text-anchor="start" x="156" y="-18.5" font-family="Helvetica,sans-Serif" font-size="10.00">phsp_unweighting_functor</text>
<text text-anchor="middle" x="213" y="-7.5" font-family="Helvetica,sans-Serif" font-size="10.00">_and_fit.cu</text>
</a>
</g>
</g>
<!-- Node238&#45;&gt;Node240 -->
<g id="edge2" class="edge">
<title>Node238&#45;&gt;Node240</title>
<path fill="none" stroke="midnightblue" d="M162.8,-60.6C173.97,-50.78 186.99,-39.34 196.97,-30.58"/>
<polygon fill="midnightblue" stroke="midnightblue" points="160.26,-58.17 155.06,-67.4 164.88,-63.43 160.26,-58.17"/>
</g>
</g>
</svg>
