<?xml version="1.0" encoding="UTF-8" standalone="no"?>
<!DOCTYPE svg PUBLIC "-//W3C//DTD SVG 1.1//EN"
 "http://www.w3.org/Graphics/SVG/1.1/DTD/svg11.dtd">
<!-- Generated by graphviz version 2.40.1 (20161225.0304)
 -->
<!-- Title: phsp_chain.inl Pages: 1 -->
<svg width="192pt" height="84pt"
 viewBox="0.00 0.00 191.50 84.00" xmlns="http://www.w3.org/2000/svg" xmlns:xlink="http://www.w3.org/1999/xlink">
<g id="graph0" class="graph" transform="scale(1 1) rotate(0) translate(4 80)">
<title>phsp_chain.inl</title>
<!-- Node147 -->
<g id="node1" class="node">
<title>Node147</title>
<polygon fill="#bfbfbf" stroke="#000000" points="53,-56.5 53,-75.5 132,-75.5 132,-56.5 53,-56.5"/>
<text text-anchor="middle" x="92.5" y="-63.5" font-family="Helvetica,sans-Serif" font-size="10.00" fill="#000000">phsp_chain.inl</text>
</g>
<!-- Node148 -->
<g id="node2" class="node">
<title>Node148</title>
<g id="a_node2"><a xlink:href="phsp__chain_8cpp.html" target="_top" xlink:title="phsp_chain.cpp">
<polygon fill="none" stroke="#000000" points="0,-.5 0,-19.5 85,-19.5 85,-.5 0,-.5"/>
<text text-anchor="middle" x="42.5" y="-7.5" font-family="Helvetica,sans-Serif" font-size="10.00" fill="#000000">phsp_chain.cpp</text>
</a>
</g>
</g>
<!-- Node147&#45;&gt;Node148 -->
<g id="edge1" class="edge">
<title>Node147&#45;&gt;Node148</title>
<path fill="none" stroke="#191970" d="M76.8753,-48.5004C68.3727,-38.9775 58.1782,-27.5596 51.1095,-19.6427"/>
<polygon fill="#191970" stroke="#191970" points="74.5197,-51.1172 83.7907,-56.2455 79.7413,-46.4551 74.5197,-51.1172"/>
</g>
<!-- Node149 -->
<g id="node3" class="node">
<title>Node149</title>
<g id="a_node3"><a xlink:href="phsp__chain_8cu.html" target="_top" xlink:title="phsp_chain.cu">
<polygon fill="none" stroke="#000000" points="103.5,-.5 103.5,-19.5 183.5,-19.5 183.5,-.5 103.5,-.5"/>
<text text-anchor="middle" x="143.5" y="-7.5" font-family="Helvetica,sans-Serif" font-size="10.00" fill="#000000">phsp_chain.cu</text>
</a>
</g>
</g>
<!-- Node147&#45;&gt;Node149 -->
<g id="edge2" class="edge">
<title>Node147&#45;&gt;Node149</title>
<path fill="none" stroke="#191970" d="M108.1749,-48.7884C116.8994,-39.2085 127.4354,-27.6396 134.7183,-19.6427"/>
<polygon fill="#191970" stroke="#191970" points="105.5291,-46.4954 101.3835,-56.2455 110.7046,-51.2088 105.5291,-46.4954"/>
</g>
</g>
</svg>
