<?xml version="1.0" encoding="UTF-8" standalone="no"?>
<!DOCTYPE svg PUBLIC "-//W3C//DTD SVG 1.1//EN"
 "http://www.w3.org/Graphics/SVG/1.1/DTD/svg11.dtd">
<!-- Generated by graphviz version 5.0.0 (0)
 -->
<!-- Title: phsp_evaluating_functor.inl Pages: 1 -->
<svg width="302pt" height="84pt"
 viewBox="0.00 0.00 301.50 84.00" xmlns="http://www.w3.org/2000/svg" xmlns:xlink="http://www.w3.org/1999/xlink">
<g id="graph0" class="graph" transform="scale(1 1) rotate(0) translate(4 80)">
<title>phsp_evaluating_functor.inl</title>
<!-- Node184 -->
<g id="node1" class="node">
<title>Node184</title>
<polygon fill="#bfbfbf" stroke="black" points="81,-56.5 81,-75.5 215,-75.5 215,-56.5 81,-56.5"/>
<text text-anchor="middle" x="148" y="-63.5" font-family="Helvetica,sans-Serif" font-size="10.00">phsp_evaluating_functor.inl</text>
</g>
<!-- Node185 -->
<g id="node2" class="node">
<title>Node185</title>
<g id="a_node2"><a xlink:href="phsp__evaluating__functor_8cpp.html" target="_top" xlink:title="phsp_evaluating_functor.cpp">
<polygon fill="none" stroke="black" points="0,-0.5 0,-19.5 140,-19.5 140,-0.5 0,-0.5"/>
<text text-anchor="middle" x="70" y="-7.5" font-family="Helvetica,sans-Serif" font-size="10.00">phsp_evaluating_functor.cpp</text>
</a>
</g>
</g>
<!-- Node184&#45;&gt;Node185 -->
<g id="edge1" class="edge">
<title>Node184&#45;&gt;Node185</title>
<path fill="none" stroke="midnightblue" d="M127.23,-50.62C112.98,-40.76 94.54,-27.99 82.5,-19.65"/>
<polygon fill="midnightblue" stroke="midnightblue" points="125.25,-53.51 135.47,-56.32 129.24,-47.75 125.25,-53.51"/>
</g>
<!-- Node186 -->
<g id="node3" class="node">
<title>Node186</title>
<g id="a_node3"><a xlink:href="phsp__evaluating__functor_8cu.html" target="_top" xlink:title="phsp_evaluating_functor.cu">
<polygon fill="none" stroke="black" points="158.5,-0.5 158.5,-19.5 293.5,-19.5 293.5,-0.5 158.5,-0.5"/>
<text text-anchor="middle" x="226" y="-7.5" font-family="Helvetica,sans-Serif" font-size="10.00">phsp_evaluating_functor.cu</text>
</a>
</g>
</g>
<!-- Node184&#45;&gt;Node186 -->
<g id="edge2" class="edge">
<title>Node184&#45;&gt;Node186</title>
<path fill="none" stroke="midnightblue" d="M168.77,-50.62C183.02,-40.76 201.46,-27.99 213.5,-19.65"/>
<polygon fill="midnightblue" stroke="midnightblue" points="166.76,-47.75 160.53,-56.32 170.75,-53.51 166.76,-47.75"/>
</g>
</g>
</svg>
