<?xml version="1.0" encoding="UTF-8" standalone="no"?>
<!DOCTYPE svg PUBLIC "-//W3C//DTD SVG 1.1//EN"
 "http://www.w3.org/Graphics/SVG/1.1/DTD/svg11.dtd">
<!-- Generated by graphviz version 5.0.0 (0)
 -->
<!-- Title: PlainState.h Pages: 1 -->
<svg width="667pt" height="252pt"
 viewBox="0.00 0.00 666.50 252.00" xmlns="http://www.w3.org/2000/svg" xmlns:xlink="http://www.w3.org/1999/xlink">
<g id="graph0" class="graph" transform="scale(1 1) rotate(0) translate(4 248)">
<title>PlainState.h</title>
<!-- Node8 -->
<g id="node1" class="node">
<title>Node8</title>
<polygon fill="#bfbfbf" stroke="black" points="429,-224.5 429,-243.5 499,-243.5 499,-224.5 429,-224.5"/>
<text text-anchor="middle" x="464" y="-231.5" font-family="Helvetica,sans-Serif" font-size="10.00">PlainState.h</text>
</g>
<!-- Node9 -->
<g id="node2" class="node">
<title>Node9</title>
<g id="a_node2"><a xlink:href="ProcessCallsPlain_8h.html" target="_top" xlink:title="ProcessCallsPlain.h">
<polygon fill="none" stroke="black" points="371.5,-168.5 371.5,-187.5 476.5,-187.5 476.5,-168.5 371.5,-168.5"/>
<text text-anchor="middle" x="424" y="-175.5" font-family="Helvetica,sans-Serif" font-size="10.00">ProcessCallsPlain.h</text>
</a>
</g>
</g>
<!-- Node8&#45;&gt;Node9 -->
<g id="edge1" class="edge">
<title>Node8&#45;&gt;Node9</title>
<path fill="none" stroke="midnightblue" d="M451.3,-215.86C444.37,-206.5 436.09,-195.33 430.48,-187.75"/>
<polygon fill="midnightblue" stroke="midnightblue" points="448.63,-218.13 457.39,-224.08 454.25,-213.96 448.63,-218.13"/>
</g>
<!-- Node10 -->
<g id="node3" class="node">
<title>Node10</title>
<g id="a_node3"><a xlink:href="Plain_8h.html" target="_top" xlink:title="Plain.h">
<polygon fill="none" stroke="black" points="440.5,-112.5 440.5,-131.5 487.5,-131.5 487.5,-112.5 440.5,-112.5"/>
<text text-anchor="middle" x="464" y="-119.5" font-family="Helvetica,sans-Serif" font-size="10.00">Plain.h</text>
</a>
</g>
</g>
<!-- Node8&#45;&gt;Node10 -->
<g id="edge13" class="edge">
<title>Node8&#45;&gt;Node10</title>
<path fill="none" stroke="midnightblue" d="M474.28,-215.63C478.49,-207.52 482.88,-197.57 485,-188 489.57,-167.39 477.63,-144.02 469.93,-131.69"/>
<polygon fill="midnightblue" stroke="midnightblue" points="471.18,-214 469.38,-224.44 477.3,-217.4 471.18,-214"/>
</g>
<!-- Node9&#45;&gt;Node10 -->
<g id="edge2" class="edge">
<title>Node9&#45;&gt;Node10</title>
<path fill="none" stroke="midnightblue" d="M436.7,-159.86C443.63,-150.5 451.91,-139.33 457.52,-131.75"/>
<polygon fill="midnightblue" stroke="midnightblue" points="433.75,-157.96 430.61,-168.08 439.37,-162.13 433.75,-157.96"/>
</g>
<!-- Node11 -->
<g id="node4" class="node">
<title>Node11</title>
<g id="a_node4"><a xlink:href="multidimensional__fit_8inl.html" target="_top" xlink:title="multidimensional_fit.inl">
<polygon fill="none" stroke="black" points="140,-56.5 140,-75.5 256,-75.5 256,-56.5 140,-56.5"/>
<text text-anchor="middle" x="198" y="-63.5" font-family="Helvetica,sans-Serif" font-size="10.00">multidimensional_fit.inl</text>
</a>
</g>
</g>
<!-- Node10&#45;&gt;Node11 -->
<g id="edge3" class="edge">
<title>Node10&#45;&gt;Node11</title>
<path fill="none" stroke="midnightblue" d="M430.44,-114.19C382.09,-104.37 292.87,-86.26 240.14,-75.56"/>
<polygon fill="midnightblue" stroke="midnightblue" points="429.9,-117.65 440.39,-116.21 431.29,-110.79 429.9,-117.65"/>
</g>
<!-- Node14 -->
<g id="node7" class="node">
<title>Node14</title>
<g id="a_node7"><a xlink:href="genz__malik_8inl.html" target="_top" xlink:title="genz_malik.inl">
<polygon fill="none" stroke="black" points="378.5,-56.5 378.5,-75.5 457.5,-75.5 457.5,-56.5 378.5,-56.5"/>
<text text-anchor="middle" x="418" y="-63.5" font-family="Helvetica,sans-Serif" font-size="10.00">genz_malik.inl</text>
</a>
</g>
</g>
<!-- Node10&#45;&gt;Node14 -->
<g id="edge6" class="edge">
<title>Node10&#45;&gt;Node14</title>
<path fill="none" stroke="midnightblue" d="M449.89,-104.43C441.82,-94.97 432.04,-83.48 425.45,-75.75"/>
<polygon fill="midnightblue" stroke="midnightblue" points="447.25,-106.74 456.4,-112.08 452.58,-102.2 447.25,-106.74"/>
</g>
<!-- Node17 -->
<g id="node10" class="node">
<title>Node17</title>
<g id="a_node10"><a xlink:href="plain__mc_8inl.html" target="_top" xlink:title="plain_mc.inl">
<polygon fill="none" stroke="black" points="477,-56.5 477,-75.5 545,-75.5 545,-56.5 477,-56.5"/>
<text text-anchor="middle" x="511" y="-63.5" font-family="Helvetica,sans-Serif" font-size="10.00">plain_mc.inl</text>
</a>
</g>
</g>
<!-- Node10&#45;&gt;Node17 -->
<g id="edge9" class="edge">
<title>Node10&#45;&gt;Node17</title>
<path fill="none" stroke="midnightblue" d="M478.42,-104.43C486.66,-94.97 496.65,-83.48 503.38,-75.75"/>
<polygon fill="midnightblue" stroke="midnightblue" points="475.69,-102.24 471.76,-112.08 480.97,-106.84 475.69,-102.24"/>
</g>
<!-- Node20 -->
<g id="node13" class="node">
<title>Node20</title>
<g id="a_node13"><a xlink:href="fit__3d__gaussian_8C.html" target="_top" xlink:title="fit_3d_gaussian.C">
<polygon fill="none" stroke="black" points="563.5,-56.5 563.5,-75.5 658.5,-75.5 658.5,-56.5 563.5,-56.5"/>
<text text-anchor="middle" x="611" y="-63.5" font-family="Helvetica,sans-Serif" font-size="10.00">fit_3d_gaussian.C</text>
</a>
</g>
</g>
<!-- Node10&#45;&gt;Node20 -->
<g id="edge12" class="edge">
<title>Node10&#45;&gt;Node20</title>
<path fill="none" stroke="midnightblue" d="M496.92,-108.91C524.56,-98.75 563.34,-84.51 587.82,-75.52"/>
<polygon fill="midnightblue" stroke="midnightblue" points="495.47,-105.71 487.29,-112.44 497.89,-112.28 495.47,-105.71"/>
</g>
<!-- Node12 -->
<g id="node5" class="node">
<title>Node12</title>
<g id="a_node5"><a xlink:href="multidimensional__fit_8cpp.html" target="_top" xlink:title="multidimensional_fit.cpp">
<polygon fill="none" stroke="black" points="0,-0.5 0,-19.5 122,-19.5 122,-0.5 0,-0.5"/>
<text text-anchor="middle" x="61" y="-7.5" font-family="Helvetica,sans-Serif" font-size="10.00">multidimensional_fit.cpp</text>
</a>
</g>
</g>
<!-- Node11&#45;&gt;Node12 -->
<g id="edge4" class="edge">
<title>Node11&#45;&gt;Node12</title>
<path fill="none" stroke="midnightblue" d="M166.98,-52.77C141.24,-42.63 105.31,-28.47 82.61,-19.52"/>
<polygon fill="midnightblue" stroke="midnightblue" points="165.71,-56.03 176.29,-56.44 168.27,-49.52 165.71,-56.03"/>
</g>
<!-- Node13 -->
<g id="node6" class="node">
<title>Node13</title>
<g id="a_node6"><a xlink:href="multidimensional__fit_8cu.html" target="_top" xlink:title="multidimensional_fit.cu">
<polygon fill="none" stroke="black" points="140,-0.5 140,-19.5 256,-19.5 256,-0.5 140,-0.5"/>
<text text-anchor="middle" x="198" y="-7.5" font-family="Helvetica,sans-Serif" font-size="10.00">multidimensional_fit.cu</text>
</a>
</g>
</g>
<!-- Node11&#45;&gt;Node13 -->
<g id="edge5" class="edge">
<title>Node11&#45;&gt;Node13</title>
<path fill="none" stroke="midnightblue" d="M198,-45.8C198,-36.91 198,-26.78 198,-19.75"/>
<polygon fill="midnightblue" stroke="midnightblue" points="194.5,-46.08 198,-56.08 201.5,-46.08 194.5,-46.08"/>
</g>
<!-- Node15 -->
<g id="node8" class="node">
<title>Node15</title>
<g id="a_node8"><a xlink:href="genz__malik_8cpp.html" target="_top" xlink:title="genz_malik.cpp">
<polygon fill="none" stroke="black" points="274.5,-0.5 274.5,-19.5 359.5,-19.5 359.5,-0.5 274.5,-0.5"/>
<text text-anchor="middle" x="317" y="-7.5" font-family="Helvetica,sans-Serif" font-size="10.00">genz_malik.cpp</text>
</a>
</g>
</g>
<!-- Node14&#45;&gt;Node15 -->
<g id="edge7" class="edge">
<title>Node14&#45;&gt;Node15</title>
<path fill="none" stroke="midnightblue" d="M392.92,-51.59C374.24,-41.61 349.3,-28.27 333.19,-19.65"/>
<polygon fill="midnightblue" stroke="midnightblue" points="391.3,-54.7 401.77,-56.32 394.6,-48.52 391.3,-54.7"/>
</g>
<!-- Node16 -->
<g id="node9" class="node">
<title>Node16</title>
<g id="a_node9"><a xlink:href="genz__malik_8cu.html" target="_top" xlink:title="genz_malik.cu">
<polygon fill="none" stroke="black" points="378,-0.5 378,-19.5 458,-19.5 458,-0.5 378,-0.5"/>
<text text-anchor="middle" x="418" y="-7.5" font-family="Helvetica,sans-Serif" font-size="10.00">genz_malik.cu</text>
</a>
</g>
</g>
<!-- Node14&#45;&gt;Node16 -->
<g id="edge8" class="edge">
<title>Node14&#45;&gt;Node16</title>
<path fill="none" stroke="midnightblue" d="M418,-45.8C418,-36.91 418,-26.78 418,-19.75"/>
<polygon fill="midnightblue" stroke="midnightblue" points="414.5,-46.08 418,-56.08 421.5,-46.08 414.5,-46.08"/>
</g>
<!-- Node18 -->
<g id="node11" class="node">
<title>Node18</title>
<g id="a_node11"><a xlink:href="plain__mc_8cpp.html" target="_top" xlink:title="plain_mc.cpp">
<polygon fill="none" stroke="black" points="476,-0.5 476,-19.5 550,-19.5 550,-0.5 476,-0.5"/>
<text text-anchor="middle" x="513" y="-7.5" font-family="Helvetica,sans-Serif" font-size="10.00">plain_mc.cpp</text>
</a>
</g>
</g>
<!-- Node17&#45;&gt;Node18 -->
<g id="edge10" class="edge">
<title>Node17&#45;&gt;Node18</title>
<path fill="none" stroke="midnightblue" d="M511.71,-45.8C512.04,-36.91 512.42,-26.78 512.68,-19.75"/>
<polygon fill="midnightblue" stroke="midnightblue" points="508.2,-45.96 511.33,-56.08 515.2,-46.22 508.2,-45.96"/>
</g>
<!-- Node19 -->
<g id="node12" class="node">
<title>Node19</title>
<g id="a_node12"><a xlink:href="plain__mc_8cu.html" target="_top" xlink:title="plain_mc.cu">
<polygon fill="none" stroke="black" points="568.5,-0.5 568.5,-19.5 637.5,-19.5 637.5,-0.5 568.5,-0.5"/>
<text text-anchor="middle" x="603" y="-7.5" font-family="Helvetica,sans-Serif" font-size="10.00">plain_mc.cu</text>
</a>
</g>
</g>
<!-- Node17&#45;&gt;Node19 -->
<g id="edge11" class="edge">
<title>Node17&#45;&gt;Node19</title>
<path fill="none" stroke="midnightblue" d="M534.55,-51.18C551.48,-41.24 573.78,-28.15 588.26,-19.65"/>
<polygon fill="midnightblue" stroke="midnightblue" points="532.63,-48.24 525.78,-56.32 536.18,-54.28 532.63,-48.24"/>
</g>
</g>
</svg>
