<?xml version="1.0" encoding="UTF-8" standalone="no"?>
<!DOCTYPE svg PUBLIC "-//W3C//DTD SVG 1.1//EN"
 "http://www.w3.org/Graphics/SVG/1.1/DTD/svg11.dtd">
<!-- Generated by graphviz version 2.42.4 (0)
 -->
<!-- Title: Plain.h Pages: 1 -->
<svg width="646pt" height="140pt"
 viewBox="0.00 0.00 645.50 140.00" xmlns="http://www.w3.org/2000/svg" xmlns:xlink="http://www.w3.org/1999/xlink">
<g id="graph0" class="graph" transform="scale(1 1) rotate(0) translate(4 136)">
<title>Plain.h</title>
<!-- Node40 -->
<g id="node1" class="node">
<title>Node40</title>
<polygon fill="#bfbfbf" stroke="black" points="343.5,-112.5 343.5,-131.5 390.5,-131.5 390.5,-112.5 343.5,-112.5"/>
<text text-anchor="middle" x="367" y="-119.5" font-family="Helvetica,sans-Serif" font-size="10.00">Plain.h</text>
</g>
<!-- Node41 -->
<g id="node2" class="node">
<title>Node41</title>
<g id="a_node2"><a xlink:href="multidimensional__fit_8inl.html" target="_top" xlink:title="multidimensional_fit.inl">
<polygon fill="none" stroke="black" points="140,-56.5 140,-75.5 256,-75.5 256,-56.5 140,-56.5"/>
<text text-anchor="middle" x="198" y="-63.5" font-family="Helvetica,sans-Serif" font-size="10.00">multidimensional_fit.inl</text>
</a>
</g>
</g>
<!-- Node40&#45;&gt;Node41 -->
<g id="edge1" class="edge">
<title>Node40&#45;&gt;Node41</title>
<path fill="none" stroke="midnightblue" d="M333.38,-110.26C301.49,-100.07 254.22,-84.96 224.8,-75.56"/>
<polygon fill="midnightblue" stroke="midnightblue" points="332.55,-113.67 343.14,-113.38 334.68,-107 332.55,-113.67"/>
</g>
<!-- Node44 -->
<g id="node5" class="node">
<title>Node44</title>
<g id="a_node5"><a xlink:href="genz__malik_8inl.html" target="_top" xlink:title="genz_malik.inl">
<polygon fill="none" stroke="black" points="327.5,-56.5 327.5,-75.5 406.5,-75.5 406.5,-56.5 327.5,-56.5"/>
<text text-anchor="middle" x="367" y="-63.5" font-family="Helvetica,sans-Serif" font-size="10.00">genz_malik.inl</text>
</a>
</g>
</g>
<!-- Node40&#45;&gt;Node44 -->
<g id="edge4" class="edge">
<title>Node40&#45;&gt;Node44</title>
<path fill="none" stroke="midnightblue" d="M367,-101.8C367,-92.91 367,-82.78 367,-75.75"/>
<polygon fill="midnightblue" stroke="midnightblue" points="363.5,-102.08 367,-112.08 370.5,-102.08 363.5,-102.08"/>
</g>
<!-- Node47 -->
<g id="node8" class="node">
<title>Node47</title>
<g id="a_node8"><a xlink:href="plain__mc_8inl.html" target="_top" xlink:title="plain_mc.inl">
<polygon fill="none" stroke="black" points="479,-56.5 479,-75.5 547,-75.5 547,-56.5 479,-56.5"/>
<text text-anchor="middle" x="513" y="-63.5" font-family="Helvetica,sans-Serif" font-size="10.00">plain_mc.inl</text>
</a>
</g>
</g>
<!-- Node40&#45;&gt;Node47 -->
<g id="edge7" class="edge">
<title>Node40&#45;&gt;Node47</title>
<path fill="none" stroke="midnightblue" d="M399.7,-108.91C427.15,-98.75 465.67,-84.51 489.97,-75.52"/>
<polygon fill="midnightblue" stroke="midnightblue" points="398.3,-105.69 390.13,-112.44 400.73,-112.26 398.3,-105.69"/>
</g>
<!-- Node42 -->
<g id="node3" class="node">
<title>Node42</title>
<g id="a_node3"><a xlink:href="multidimensional__fit_8cpp.html" target="_top" xlink:title="multidimensional_fit.cpp">
<polygon fill="none" stroke="black" points="0,-0.5 0,-19.5 122,-19.5 122,-0.5 0,-0.5"/>
<text text-anchor="middle" x="61" y="-7.5" font-family="Helvetica,sans-Serif" font-size="10.00">multidimensional_fit.cpp</text>
</a>
</g>
</g>
<!-- Node41&#45;&gt;Node42 -->
<g id="edge2" class="edge">
<title>Node41&#45;&gt;Node42</title>
<path fill="none" stroke="midnightblue" d="M166.98,-52.77C141.24,-42.63 105.31,-28.47 82.61,-19.52"/>
<polygon fill="midnightblue" stroke="midnightblue" points="165.71,-56.03 176.29,-56.44 168.27,-49.52 165.71,-56.03"/>
</g>
<!-- Node43 -->
<g id="node4" class="node">
<title>Node43</title>
<g id="a_node4"><a xlink:href="multidimensional__fit_8cu.html" target="_top" xlink:title="multidimensional_fit.cu">
<polygon fill="none" stroke="black" points="140,-0.5 140,-19.5 256,-19.5 256,-0.5 140,-0.5"/>
<text text-anchor="middle" x="198" y="-7.5" font-family="Helvetica,sans-Serif" font-size="10.00">multidimensional_fit.cu</text>
</a>
</g>
</g>
<!-- Node41&#45;&gt;Node43 -->
<g id="edge3" class="edge">
<title>Node41&#45;&gt;Node43</title>
<path fill="none" stroke="midnightblue" d="M198,-45.8C198,-36.91 198,-26.78 198,-19.75"/>
<polygon fill="midnightblue" stroke="midnightblue" points="194.5,-46.08 198,-56.08 201.5,-46.08 194.5,-46.08"/>
</g>
<!-- Node45 -->
<g id="node6" class="node">
<title>Node45</title>
<g id="a_node6"><a xlink:href="genz__malik_8cpp.html" target="_top" xlink:title="genz_malik.cpp">
<polygon fill="none" stroke="black" points="274.5,-0.5 274.5,-19.5 359.5,-19.5 359.5,-0.5 274.5,-0.5"/>
<text text-anchor="middle" x="317" y="-7.5" font-family="Helvetica,sans-Serif" font-size="10.00">genz_malik.cpp</text>
</a>
</g>
</g>
<!-- Node44&#45;&gt;Node45 -->
<g id="edge5" class="edge">
<title>Node44&#45;&gt;Node45</title>
<path fill="none" stroke="midnightblue" d="M351.92,-48.72C343.11,-39.2 332.33,-27.56 325.1,-19.75"/>
<polygon fill="midnightblue" stroke="midnightblue" points="349.38,-51.12 358.74,-56.08 354.52,-46.37 349.38,-51.12"/>
</g>
<!-- Node46 -->
<g id="node7" class="node">
<title>Node46</title>
<g id="a_node7"><a xlink:href="genz__malik_8cu.html" target="_top" xlink:title="genz_malik.cu">
<polygon fill="none" stroke="black" points="378,-0.5 378,-19.5 458,-19.5 458,-0.5 378,-0.5"/>
<text text-anchor="middle" x="418" y="-7.5" font-family="Helvetica,sans-Serif" font-size="10.00">genz_malik.cu</text>
</a>
</g>
</g>
<!-- Node44&#45;&gt;Node46 -->
<g id="edge6" class="edge">
<title>Node44&#45;&gt;Node46</title>
<path fill="none" stroke="midnightblue" d="M382.38,-48.72C391.37,-39.2 402.36,-27.56 409.74,-19.75"/>
<polygon fill="midnightblue" stroke="midnightblue" points="379.74,-46.41 375.42,-56.08 384.83,-51.22 379.74,-46.41"/>
</g>
<!-- Node48 -->
<g id="node9" class="node">
<title>Node48</title>
<g id="a_node9"><a xlink:href="plain__mc_8cpp.html" target="_top" xlink:title="plain_mc.cpp">
<polygon fill="none" stroke="black" points="476,-0.5 476,-19.5 550,-19.5 550,-0.5 476,-0.5"/>
<text text-anchor="middle" x="513" y="-7.5" font-family="Helvetica,sans-Serif" font-size="10.00">plain_mc.cpp</text>
</a>
</g>
</g>
<!-- Node47&#45;&gt;Node48 -->
<g id="edge8" class="edge">
<title>Node47&#45;&gt;Node48</title>
<path fill="none" stroke="midnightblue" d="M513,-45.8C513,-36.91 513,-26.78 513,-19.75"/>
<polygon fill="midnightblue" stroke="midnightblue" points="509.5,-46.08 513,-56.08 516.5,-46.08 509.5,-46.08"/>
</g>
<!-- Node49 -->
<g id="node10" class="node">
<title>Node49</title>
<g id="a_node10"><a xlink:href="plain__mc_8cu.html" target="_top" xlink:title="plain_mc.cu">
<polygon fill="none" stroke="black" points="568.5,-0.5 568.5,-19.5 637.5,-19.5 637.5,-0.5 568.5,-0.5"/>
<text text-anchor="middle" x="603" y="-7.5" font-family="Helvetica,sans-Serif" font-size="10.00">plain_mc.cu</text>
</a>
</g>
</g>
<!-- Node47&#45;&gt;Node49 -->
<g id="edge9" class="edge">
<title>Node47&#45;&gt;Node49</title>
<path fill="none" stroke="midnightblue" d="M536.04,-51.18C552.6,-41.24 574.42,-28.15 588.58,-19.65"/>
<polygon fill="midnightblue" stroke="midnightblue" points="534.23,-48.18 527.46,-56.32 537.84,-54.18 534.23,-48.18"/>
</g>
</g>
</svg>
