<?xml version="1.0" encoding="UTF-8" standalone="no"?>
<!DOCTYPE svg PUBLIC "-//W3C//DTD SVG 1.1//EN"
 "http://www.w3.org/Graphics/SVG/1.1/DTD/svg11.dtd">
<!-- Generated by graphviz version 5.0.0 (0)
 -->
<!-- Title: Print.h Pages: 1 -->
<svg width="762pt" height="173pt"
 viewBox="0.00 0.00 762.00 173.00" xmlns="http://www.w3.org/2000/svg" xmlns:xlink="http://www.w3.org/1999/xlink">
<g id="graph0" class="graph" transform="scale(1 1) rotate(0) translate(4 169)">
<title>Print.h</title>
<!-- Node0 -->
<g id="node1" class="node">
<title>Node0</title>
<polygon fill="#bfbfbf" stroke="black" points="322.5,-145.5 322.5,-164.5 367.5,-164.5 367.5,-145.5 322.5,-145.5"/>
<text text-anchor="middle" x="345" y="-152.5" font-family="Helvetica,sans-Serif" font-size="10.00">Print.h</text>
</g>
<!-- Node1 -->
<g id="node2" class="node">
<title>Node1</title>
<g id="a_node2"><a xlink:href="StreamSTL_8h.html" target="_top" xlink:title="hydra/detail/utility\l/StreamSTL.h">
<polygon fill="none" stroke="black" points="239.5,-78.5 239.5,-108.5 332.5,-108.5 332.5,-78.5 239.5,-78.5"/>
<text text-anchor="start" x="247.5" y="-96.5" font-family="Helvetica,sans-Serif" font-size="10.00">hydra/detail/utility</text>
<text text-anchor="middle" x="286" y="-85.5" font-family="Helvetica,sans-Serif" font-size="10.00">/StreamSTL.h</text>
</a>
</g>
</g>
<!-- Node0&#45;&gt;Node1 -->
<g id="edge1" class="edge">
<title>Node0&#45;&gt;Node1</title>
<path fill="none" stroke="midnightblue" d="M336.55,-145.48C328.85,-137.72 317.18,-125.94 306.99,-115.66"/>
<polygon fill="midnightblue" stroke="midnightblue" points="309.43,-113.16 299.91,-108.52 304.46,-118.09 309.43,-113.16"/>
</g>
<!-- Node2 -->
<g id="node3" class="node">
<title>Node2</title>
<polygon fill="none" stroke="#bfbfbf" points="0,-11.5 0,-30.5 54,-30.5 54,-11.5 0,-11.5"/>
<text text-anchor="middle" x="27" y="-18.5" font-family="Helvetica,sans-Serif" font-size="10.00">iostream</text>
</g>
<!-- Node0&#45;&gt;Node2 -->
<g id="edge14" class="edge">
<title>Node0&#45;&gt;Node2</title>
<path fill="none" stroke="midnightblue" d="M322.27,-146.13C273.78,-129.1 156.94,-86.72 63,-42 58.82,-40.01 54.45,-37.75 50.26,-35.48"/>
<polygon fill="midnightblue" stroke="midnightblue" points="51.93,-32.4 41.49,-30.6 48.53,-38.52 51.93,-32.4"/>
</g>
<!-- Node10 -->
<g id="node11" class="node">
<title>Node10</title>
<g id="a_node11"><a xlink:href="Config_8h.html" target="_top" xlink:title="hydra/detail/Config.h">
<polygon fill="none" stroke="black" points="435.5,-84 435.5,-103 542.5,-103 542.5,-84 435.5,-84"/>
<text text-anchor="middle" x="489" y="-91" font-family="Helvetica,sans-Serif" font-size="10.00">hydra/detail/Config.h</text>
</a>
</g>
</g>
<!-- Node0&#45;&gt;Node10 -->
<g id="edge10" class="edge">
<title>Node0&#45;&gt;Node10</title>
<path fill="none" stroke="midnightblue" d="M365.63,-145.48C390.12,-135.36 431.15,-118.4 459.11,-106.85"/>
<polygon fill="midnightblue" stroke="midnightblue" points="460.5,-110.06 468.41,-103.01 457.83,-103.59 460.5,-110.06"/>
</g>
<!-- Node13 -->
<g id="node14" class="node">
<title>Node13</title>
<g id="a_node14"><a xlink:href="Types_8h.html" target="_top" xlink:title="Common and useful typedefs. ">
<polygon fill="none" stroke="black" points="561,-84 561,-103 639,-103 639,-84 561,-84"/>
<text text-anchor="middle" x="600" y="-91" font-family="Helvetica,sans-Serif" font-size="10.00">hydra/Types.h</text>
</a>
</g>
</g>
<!-- Node0&#45;&gt;Node13 -->
<g id="edge13" class="edge">
<title>Node0&#45;&gt;Node13</title>
<path fill="none" stroke="midnightblue" d="M367.81,-149.66C406.09,-142.23 485.61,-126.22 552,-109 555.67,-108.05 559.48,-107 563.28,-105.92"/>
<polygon fill="midnightblue" stroke="midnightblue" points="564.59,-109.18 573.2,-103.01 562.61,-102.46 564.59,-109.18"/>
</g>
<!-- Node1&#45;&gt;Node2 -->
<g id="edge2" class="edge">
<title>Node1&#45;&gt;Node2</title>
<path fill="none" stroke="midnightblue" d="M239.17,-85.87C193.25,-78.46 121.77,-64.45 63,-42 58.32,-40.21 53.51,-37.91 48.98,-35.5"/>
<polygon fill="midnightblue" stroke="midnightblue" points="50.66,-32.43 40.23,-30.54 47.21,-38.52 50.66,-32.43"/>
</g>
<!-- Node3 -->
<g id="node4" class="node">
<title>Node3</title>
<polygon fill="none" stroke="#bfbfbf" points="72,-11.5 72,-30.5 110,-30.5 110,-11.5 72,-11.5"/>
<text text-anchor="middle" x="91" y="-18.5" font-family="Helvetica,sans-Serif" font-size="10.00">array</text>
</g>
<!-- Node1&#45;&gt;Node3 -->
<g id="edge3" class="edge">
<title>Node1&#45;&gt;Node3</title>
<path fill="none" stroke="midnightblue" d="M239.47,-82.75C205.09,-74.53 157.73,-61.04 119,-42 115.89,-40.47 112.75,-38.61 109.76,-36.64"/>
<polygon fill="midnightblue" stroke="midnightblue" points="111.56,-33.62 101.38,-30.66 107.49,-39.32 111.56,-33.62"/>
</g>
<!-- Node4 -->
<g id="node5" class="node">
<title>Node4</title>
<polygon fill="none" stroke="#bfbfbf" points="128,-11.5 128,-30.5 166,-30.5 166,-11.5 128,-11.5"/>
<text text-anchor="middle" x="147" y="-18.5" font-family="Helvetica,sans-Serif" font-size="10.00">tuple</text>
</g>
<!-- Node1&#45;&gt;Node4 -->
<g id="edge4" class="edge">
<title>Node1&#45;&gt;Node4</title>
<path fill="none" stroke="midnightblue" d="M250.64,-78.48C228.39,-69.16 199.39,-56.08 175,-42 172.1,-40.33 169.13,-38.43 166.26,-36.48"/>
<polygon fill="midnightblue" stroke="midnightblue" points="168.29,-33.63 158.11,-30.69 164.23,-39.34 168.29,-33.63"/>
</g>
<!-- Node5 -->
<g id="node6" class="node">
<title>Node5</title>
<polygon fill="none" stroke="#bfbfbf" points="184,-11.5 184,-30.5 246,-30.5 246,-11.5 184,-11.5"/>
<text text-anchor="middle" x="215" y="-18.5" font-family="Helvetica,sans-Serif" font-size="10.00">type_traits</text>
</g>
<!-- Node1&#45;&gt;Node5 -->
<g id="edge5" class="edge">
<title>Node1&#45;&gt;Node5</title>
<path fill="none" stroke="midnightblue" d="M271.63,-78.23C259.93,-66.62 243.42,-50.22 231.24,-38.12"/>
<polygon fill="midnightblue" stroke="midnightblue" points="233.52,-35.46 223.96,-30.89 228.59,-40.42 233.52,-35.46"/>
</g>
<!-- Node6 -->
<g id="node7" class="node">
<title>Node6</title>
<polygon fill="none" stroke="#bfbfbf" points="264.5,-11.5 264.5,-30.5 307.5,-30.5 307.5,-11.5 264.5,-11.5"/>
<text text-anchor="middle" x="286" y="-18.5" font-family="Helvetica,sans-Serif" font-size="10.00">cstdio</text>
</g>
<!-- Node1&#45;&gt;Node6 -->
<g id="edge6" class="edge">
<title>Node1&#45;&gt;Node6</title>
<path fill="none" stroke="midnightblue" d="M286,-78.23C286,-67.5 286,-52.69 286,-40.96"/>
<polygon fill="midnightblue" stroke="midnightblue" points="289.5,-40.89 286,-30.89 282.5,-40.89 289.5,-40.89"/>
</g>
<!-- Node7 -->
<g id="node8" class="node">
<title>Node7</title>
<polygon fill="none" stroke="#bfbfbf" points="325.5,-11.5 325.5,-30.5 366.5,-30.5 366.5,-11.5 325.5,-11.5"/>
<text text-anchor="middle" x="346" y="-18.5" font-family="Helvetica,sans-Serif" font-size="10.00">string</text>
</g>
<!-- Node1&#45;&gt;Node7 -->
<g id="edge7" class="edge">
<title>Node1&#45;&gt;Node7</title>
<path fill="none" stroke="midnightblue" d="M298.14,-78.23C307.84,-66.84 321.46,-50.84 331.69,-38.82"/>
<polygon fill="midnightblue" stroke="midnightblue" points="334.62,-40.78 338.43,-30.89 329.28,-36.24 334.62,-40.78"/>
</g>
<!-- Node8 -->
<g id="node9" class="node">
<title>Node8</title>
<polygon fill="none" stroke="#bfbfbf" points="384.5,-11.5 384.5,-30.5 433.5,-30.5 433.5,-11.5 384.5,-11.5"/>
<text text-anchor="middle" x="409" y="-18.5" font-family="Helvetica,sans-Serif" font-size="10.00">cassert</text>
</g>
<!-- Node1&#45;&gt;Node8 -->
<g id="edge8" class="edge">
<title>Node1&#45;&gt;Node8</title>
<path fill="none" stroke="midnightblue" d="M311,-78.45C328.87,-68.38 353.46,-54.44 375,-42 378.5,-39.98 382.2,-37.82 385.81,-35.7"/>
<polygon fill="midnightblue" stroke="midnightblue" points="387.62,-38.7 394.47,-30.61 384.08,-32.67 387.62,-38.7"/>
</g>
<!-- Node9 -->
<g id="node10" class="node">
<title>Node9</title>
<polygon fill="none" stroke="#bfbfbf" points="452,-11.5 452,-30.5 504,-30.5 504,-11.5 452,-11.5"/>
<text text-anchor="middle" x="478" y="-18.5" font-family="Helvetica,sans-Serif" font-size="10.00">memory</text>
</g>
<!-- Node1&#45;&gt;Node9 -->
<g id="edge9" class="edge">
<title>Node1&#45;&gt;Node9</title>
<path fill="none" stroke="midnightblue" d="M332.6,-79.99C364.07,-70.92 406.23,-57.55 442,-42 446.32,-40.12 450.8,-37.88 455.08,-35.6"/>
<polygon fill="midnightblue" stroke="midnightblue" points="456.94,-38.57 463.96,-30.63 453.52,-32.46 456.94,-38.57"/>
</g>
<!-- Node11 -->
<g id="node12" class="node">
<title>Node11</title>
<polygon fill="none" stroke="#bfbfbf" points="522,-0.5 522,-41.5 626,-41.5 626,-0.5 522,-0.5"/>
<text text-anchor="start" x="530" y="-29.5" font-family="Helvetica,sans-Serif" font-size="10.00">hydra/detail/external</text>
<text text-anchor="start" x="530" y="-18.5" font-family="Helvetica,sans-Serif" font-size="10.00">/hydra_thrust/detail</text>
<text text-anchor="middle" x="574" y="-7.5" font-family="Helvetica,sans-Serif" font-size="10.00">/config.h</text>
</g>
<!-- Node10&#45;&gt;Node11 -->
<g id="edge11" class="edge">
<title>Node10&#45;&gt;Node11</title>
<path fill="none" stroke="midnightblue" d="M499.42,-83.86C510.14,-74.96 527.38,-60.67 542.58,-48.06"/>
<polygon fill="midnightblue" stroke="midnightblue" points="544.83,-50.74 550.29,-41.66 540.36,-45.35 544.83,-50.74"/>
</g>
<!-- Node12 -->
<g id="node13" class="node">
<title>Node12</title>
<polygon fill="none" stroke="#bfbfbf" points="644,-0.5 644,-41.5 754,-41.5 754,-0.5 644,-0.5"/>
<text text-anchor="start" x="652" y="-29.5" font-family="Helvetica,sans-Serif" font-size="10.00">hydra/detail/external</text>
<text text-anchor="start" x="652" y="-18.5" font-family="Helvetica,sans-Serif" font-size="10.00">/hydra_thrust/detail</text>
<text text-anchor="middle" x="699" y="-7.5" font-family="Helvetica,sans-Serif" font-size="10.00">/config/host_device.h</text>
</g>
<!-- Node10&#45;&gt;Node12 -->
<g id="edge12" class="edge">
<title>Node10&#45;&gt;Node12</title>
<path fill="none" stroke="midnightblue" d="M514.33,-84C543.82,-74.1 593.65,-57.37 634.12,-43.78"/>
<polygon fill="midnightblue" stroke="midnightblue" points="635.29,-47.08 643.66,-40.58 633.06,-40.44 635.29,-47.08"/>
</g>
</g>
</svg>
