<?xml version="1.0" encoding="UTF-8" standalone="no"?>
<!DOCTYPE svg PUBLIC "-//W3C//DTD SVG 1.1//EN"
 "http://www.w3.org/Graphics/SVG/1.1/DTD/svg11.dtd">
<!-- Generated by graphviz version 2.38.0 (20140413.2041)
 -->
<!-- Title: Print.h Pages: 1 -->
<svg width="760pt" height="173pt"
 viewBox="0.00 0.00 760.00 173.00" xmlns="http://www.w3.org/2000/svg" xmlns:xlink="http://www.w3.org/1999/xlink">
<g id="graph0" class="graph" transform="scale(1 1) rotate(0) translate(4 169)">
<title>Print.h</title>
<!-- Node0 -->
<g id="node1" class="node"><title>Node0</title>
<polygon fill="#bfbfbf" stroke="black" points="365.5,-145.5 365.5,-164.5 410.5,-164.5 410.5,-145.5 365.5,-145.5"/>
<text text-anchor="middle" x="388" y="-152.5" font-family="Helvetica,sans-Serif" font-size="10.00">Print.h</text>
</g>
<!-- Node1 -->
<g id="node2" class="node"><title>Node1</title>
<g id="a_node2"><a xlink:href="StreamSTL_8h.html" target="_top" xlink:title="hydra/detail/utility\l/StreamSTL.h">
<polygon fill="none" stroke="black" points="239.5,-78.5 239.5,-108.5 332.5,-108.5 332.5,-78.5 239.5,-78.5"/>
<text text-anchor="start" x="247.5" y="-96.5" font-family="Helvetica,sans-Serif" font-size="10.00">hydra/detail/utility</text>
<text text-anchor="middle" x="286" y="-85.5" font-family="Helvetica,sans-Serif" font-size="10.00">/StreamSTL.h</text>
</a>
</g>
</g>
<!-- Node0&#45;&gt;Node1 -->
<g id="edge1" class="edge"><title>Node0&#45;&gt;Node1</title>
<path fill="none" stroke="midnightblue" d="M373.386,-145.475C359.184,-137.191 337.128,-124.325 318.728,-113.591"/>
<polygon fill="midnightblue" stroke="midnightblue" points="320.441,-110.539 310.039,-108.523 316.914,-116.585 320.441,-110.539"/>
</g>
<!-- Node2 -->
<g id="node3" class="node"><title>Node2</title>
<polygon fill="none" stroke="#bfbfbf" points="0,-11.5 0,-30.5 54,-30.5 54,-11.5 0,-11.5"/>
<text text-anchor="middle" x="27" y="-18.5" font-family="Helvetica,sans-Serif" font-size="10.00">iostream</text>
</g>
<!-- Node0&#45;&gt;Node2 -->
<g id="edge14" class="edge"><title>Node0&#45;&gt;Node2</title>
<path fill="none" stroke="midnightblue" d="M365.27,-148.322C334.365,-140.421 277.497,-125.243 230,-109 154.329,-83.1231 135.208,-76.3757 63,-42 58.82,-40.0101 54.4515,-37.7473 50.2572,-35.477"/>
<polygon fill="midnightblue" stroke="midnightblue" points="51.934,-32.4047 41.4944,-30.598 48.5288,-38.5206 51.934,-32.4047"/>
</g>
<!-- Node10 -->
<g id="node11" class="node"><title>Node10</title>
<g id="a_node11"><a xlink:href="Config_8h.html" target="_top" xlink:title="hydra/detail/Config.h">
<polygon fill="none" stroke="black" points="436.5,-84 436.5,-103 543.5,-103 543.5,-84 436.5,-84"/>
<text text-anchor="middle" x="490" y="-91" font-family="Helvetica,sans-Serif" font-size="10.00">hydra/detail/Config.h</text>
</a>
</g>
</g>
<!-- Node0&#45;&gt;Node10 -->
<g id="edge10" class="edge"><title>Node0&#45;&gt;Node10</title>
<path fill="none" stroke="midnightblue" d="M402.614,-145.475C419.353,-135.711 447.004,-119.581 466.719,-108.081"/>
<polygon fill="midnightblue" stroke="midnightblue" points="468.539,-111.071 475.413,-103.009 465.012,-105.025 468.539,-111.071"/>
</g>
<!-- Node13 -->
<g id="node14" class="node"><title>Node13</title>
<g id="a_node14"><a xlink:href="Types_8h.html" target="_top" xlink:title="Common and useful typedefs. ">
<polygon fill="none" stroke="black" points="561.5,-84 561.5,-103 640.5,-103 640.5,-84 561.5,-84"/>
<text text-anchor="middle" x="601" y="-91" font-family="Helvetica,sans-Serif" font-size="10.00">hydra/Types.h</text>
</a>
</g>
</g>
<!-- Node0&#45;&gt;Node13 -->
<g id="edge13" class="edge"><title>Node0&#45;&gt;Node13</title>
<path fill="none" stroke="midnightblue" d="M410.741,-148.007C442.612,-139.56 502.346,-123.555 553,-109 556.365,-108.033 559.857,-107.012 563.354,-105.978"/>
<polygon fill="midnightblue" stroke="midnightblue" points="564.538,-109.277 573.118,-103.062 562.535,-102.57 564.538,-109.277"/>
</g>
<!-- Node1&#45;&gt;Node2 -->
<g id="edge2" class="edge"><title>Node1&#45;&gt;Node2</title>
<path fill="none" stroke="midnightblue" d="M239.175,-85.8746C193.254,-78.4609 121.775,-64.4525 63,-42 58.3205,-40.2124 53.506,-37.9052 48.9808,-35.4968"/>
<polygon fill="midnightblue" stroke="midnightblue" points="50.661,-32.4261 40.2345,-30.5449 47.2121,-38.5175 50.661,-32.4261"/>
</g>
<!-- Node3 -->
<g id="node4" class="node"><title>Node3</title>
<polygon fill="none" stroke="#bfbfbf" points="72,-11.5 72,-30.5 110,-30.5 110,-11.5 72,-11.5"/>
<text text-anchor="middle" x="91" y="-18.5" font-family="Helvetica,sans-Serif" font-size="10.00">array</text>
</g>
<!-- Node1&#45;&gt;Node3 -->
<g id="edge3" class="edge"><title>Node1&#45;&gt;Node3</title>
<path fill="none" stroke="midnightblue" d="M239.47,-82.7525C205.091,-74.5341 157.734,-61.044 119,-42 115.891,-40.4713 112.753,-38.6086 109.759,-36.6419"/>
<polygon fill="midnightblue" stroke="midnightblue" points="111.555,-33.6234 101.383,-30.6589 107.486,-39.3195 111.555,-33.6234"/>
</g>
<!-- Node4 -->
<g id="node5" class="node"><title>Node4</title>
<polygon fill="none" stroke="#bfbfbf" points="128,-11.5 128,-30.5 166,-30.5 166,-11.5 128,-11.5"/>
<text text-anchor="middle" x="147" y="-18.5" font-family="Helvetica,sans-Serif" font-size="10.00">tuple</text>
</g>
<!-- Node1&#45;&gt;Node4 -->
<g id="edge4" class="edge"><title>Node1&#45;&gt;Node4</title>
<path fill="none" stroke="midnightblue" d="M250.638,-78.4793C228.393,-69.1599 199.385,-56.0793 175,-42 172.103,-40.3273 169.133,-38.4294 166.262,-36.4848"/>
<polygon fill="midnightblue" stroke="midnightblue" points="168.289,-33.6319 158.111,-30.6897 164.233,-39.3369 168.289,-33.6319"/>
</g>
<!-- Node5 -->
<g id="node6" class="node"><title>Node5</title>
<polygon fill="none" stroke="#bfbfbf" points="184,-11.5 184,-30.5 246,-30.5 246,-11.5 184,-11.5"/>
<text text-anchor="middle" x="215" y="-18.5" font-family="Helvetica,sans-Serif" font-size="10.00">type_traits</text>
</g>
<!-- Node1&#45;&gt;Node5 -->
<g id="edge5" class="edge"><title>Node1&#45;&gt;Node5</title>
<path fill="none" stroke="midnightblue" d="M271.632,-78.2333C259.932,-66.6154 243.416,-50.2163 231.238,-38.1241"/>
<polygon fill="midnightblue" stroke="midnightblue" points="233.518,-35.4556 223.956,-30.8932 228.586,-40.4228 233.518,-35.4556"/>
</g>
<!-- Node6 -->
<g id="node7" class="node"><title>Node6</title>
<polygon fill="none" stroke="#bfbfbf" points="264.5,-11.5 264.5,-30.5 307.5,-30.5 307.5,-11.5 264.5,-11.5"/>
<text text-anchor="middle" x="286" y="-18.5" font-family="Helvetica,sans-Serif" font-size="10.00">cstdio</text>
</g>
<!-- Node1&#45;&gt;Node6 -->
<g id="edge6" class="edge"><title>Node1&#45;&gt;Node6</title>
<path fill="none" stroke="midnightblue" d="M286,-78.2333C286,-67.5006 286,-52.6875 286,-40.959"/>
<polygon fill="midnightblue" stroke="midnightblue" points="289.5,-40.8931 286,-30.8932 282.5,-40.8932 289.5,-40.8931"/>
</g>
<!-- Node7 -->
<g id="node8" class="node"><title>Node7</title>
<polygon fill="none" stroke="#bfbfbf" points="325.5,-11.5 325.5,-30.5 366.5,-30.5 366.5,-11.5 325.5,-11.5"/>
<text text-anchor="middle" x="346" y="-18.5" font-family="Helvetica,sans-Serif" font-size="10.00">string</text>
</g>
<!-- Node1&#45;&gt;Node7 -->
<g id="edge7" class="edge"><title>Node1&#45;&gt;Node7</title>
<path fill="none" stroke="midnightblue" d="M298.142,-78.2333C307.841,-66.8367 321.456,-50.8393 331.685,-38.8197"/>
<polygon fill="midnightblue" stroke="midnightblue" points="334.616,-40.777 338.431,-30.8932 329.285,-36.2401 334.616,-40.777"/>
</g>
<!-- Node8 -->
<g id="node9" class="node"><title>Node8</title>
<polygon fill="none" stroke="#bfbfbf" points="384.5,-11.5 384.5,-30.5 433.5,-30.5 433.5,-11.5 384.5,-11.5"/>
<text text-anchor="middle" x="409" y="-18.5" font-family="Helvetica,sans-Serif" font-size="10.00">cassert</text>
</g>
<!-- Node1&#45;&gt;Node8 -->
<g id="edge8" class="edge"><title>Node1&#45;&gt;Node8</title>
<path fill="none" stroke="midnightblue" d="M310.995,-78.4547C328.866,-68.3794 353.465,-54.4427 375,-42 378.502,-39.9765 382.198,-37.8221 385.812,-35.705"/>
<polygon fill="midnightblue" stroke="midnightblue" points="387.623,-38.7004 394.469,-30.6146 384.075,-32.6662 387.623,-38.7004"/>
</g>
<!-- Node9 -->
<g id="node10" class="node"><title>Node9</title>
<polygon fill="none" stroke="#bfbfbf" points="452,-11.5 452,-30.5 504,-30.5 504,-11.5 452,-11.5"/>
<text text-anchor="middle" x="478" y="-18.5" font-family="Helvetica,sans-Serif" font-size="10.00">memory</text>
</g>
<!-- Node1&#45;&gt;Node9 -->
<g id="edge9" class="edge"><title>Node1&#45;&gt;Node9</title>
<path fill="none" stroke="midnightblue" d="M332.602,-79.988C364.071,-70.9183 406.234,-57.5488 442,-42 446.321,-40.1213 450.804,-37.8844 455.078,-35.5982"/>
<polygon fill="midnightblue" stroke="midnightblue" points="456.937,-38.5688 463.958,-30.6346 453.522,-32.4585 456.937,-38.5688"/>
</g>
<!-- Node11 -->
<g id="node12" class="node"><title>Node11</title>
<polygon fill="none" stroke="#bfbfbf" points="522,-6 522,-36 630,-36 630,-6 522,-6"/>
<text text-anchor="start" x="530" y="-24" font-family="Helvetica,sans-Serif" font-size="10.00">hydra/detail/external</text>
<text text-anchor="middle" x="576" y="-13" font-family="Helvetica,sans-Serif" font-size="10.00">/thrust/detail/config.h</text>
</g>
<!-- Node10&#45;&gt;Node11 -->
<g id="edge11" class="edge"><title>Node10&#45;&gt;Node11</title>
<path fill="none" stroke="midnightblue" d="M500.545,-83.8553C513.034,-73.6176 534.255,-56.2215 551.016,-42.4807"/>
<polygon fill="midnightblue" stroke="midnightblue" points="553.314,-45.1227 558.829,-36.0762 548.877,-39.7092 553.314,-45.1227"/>
</g>
<!-- Node12 -->
<g id="node13" class="node"><title>Node12</title>
<polygon fill="none" stroke="#bfbfbf" points="648,-0.5 648,-41.5 752,-41.5 752,-0.5 648,-0.5"/>
<text text-anchor="start" x="656" y="-29.5" font-family="Helvetica,sans-Serif" font-size="10.00">hydra/detail/external</text>
<text text-anchor="start" x="656" y="-18.5" font-family="Helvetica,sans-Serif" font-size="10.00">/thrust/detail/config</text>
<text text-anchor="middle" x="700" y="-7.5" font-family="Helvetica,sans-Serif" font-size="10.00">/host_device.h</text>
</g>
<!-- Node10&#45;&gt;Node12 -->
<g id="edge12" class="edge"><title>Node10&#45;&gt;Node12</title>
<path fill="none" stroke="midnightblue" d="M515.331,-83.9961C545.528,-73.8586 597.051,-56.5615 638.014,-42.8096"/>
<polygon fill="midnightblue" stroke="midnightblue" points="639.28,-46.0767 647.646,-39.576 637.052,-39.4406 639.28,-46.0767"/>
</g>
</g>
</svg>
