<?xml version="1.0" encoding="UTF-8" standalone="no"?>
<!DOCTYPE svg PUBLIC "-//W3C//DTD SVG 1.1//EN"
 "http://www.w3.org/Graphics/SVG/1.1/DTD/svg11.dtd">
<!-- Generated by graphviz version 2.38.0 (20140413.2041)
 -->
<!-- Title: ProcessCallsPlain.h Pages: 1 -->
<svg width="170pt" height="196pt"
 viewBox="0.00 0.00 169.50 196.00" xmlns="http://www.w3.org/2000/svg" xmlns:xlink="http://www.w3.org/1999/xlink">
<g id="graph0" class="graph" transform="scale(1 1) rotate(0) translate(4 192)">
<title>ProcessCallsPlain.h</title>
<!-- Node40 -->
<g id="node1" class="node"><title>Node40</title>
<polygon fill="#bfbfbf" stroke="black" points="29.5,-168.5 29.5,-187.5 134.5,-187.5 134.5,-168.5 29.5,-168.5"/>
<text text-anchor="middle" x="82" y="-175.5" font-family="Helvetica,sans-Serif" font-size="10.00">ProcessCallsPlain.h</text>
</g>
<!-- Node41 -->
<g id="node2" class="node"><title>Node41</title>
<g id="a_node2"><a xlink:href="Plain_8h.html" target="_top" xlink:title="Plain.h">
<polygon fill="none" stroke="black" points="58.5,-112.5 58.5,-131.5 105.5,-131.5 105.5,-112.5 58.5,-112.5"/>
<text text-anchor="middle" x="82" y="-119.5" font-family="Helvetica,sans-Serif" font-size="10.00">Plain.h</text>
</a>
</g>
</g>
<!-- Node40&#45;&gt;Node41 -->
<g id="edge1" class="edge"><title>Node40&#45;&gt;Node41</title>
<path fill="none" stroke="midnightblue" d="M82,-157.805C82,-148.91 82,-138.78 82,-131.751"/>
<polygon fill="midnightblue" stroke="midnightblue" points="78.5001,-158.083 82,-168.083 85.5001,-158.083 78.5001,-158.083"/>
</g>
<!-- Node42 -->
<g id="node3" class="node"><title>Node42</title>
<g id="a_node3"><a xlink:href="plain__mc_8inl.html" target="_top" xlink:title="plain_mc.inl">
<polygon fill="none" stroke="black" points="48,-56.5 48,-75.5 116,-75.5 116,-56.5 48,-56.5"/>
<text text-anchor="middle" x="82" y="-63.5" font-family="Helvetica,sans-Serif" font-size="10.00">plain_mc.inl</text>
</a>
</g>
</g>
<!-- Node41&#45;&gt;Node42 -->
<g id="edge2" class="edge"><title>Node41&#45;&gt;Node42</title>
<path fill="none" stroke="midnightblue" d="M82,-101.805C82,-92.9102 82,-82.7798 82,-75.7511"/>
<polygon fill="midnightblue" stroke="midnightblue" points="78.5001,-102.083 82,-112.083 85.5001,-102.083 78.5001,-102.083"/>
</g>
<!-- Node43 -->
<g id="node4" class="node"><title>Node43</title>
<g id="a_node4"><a xlink:href="plain__mc_8cpp.html" target="_top" xlink:title="plain_mc.cpp">
<polygon fill="none" stroke="black" points="0,-0.5 0,-19.5 74,-19.5 74,-0.5 0,-0.5"/>
<text text-anchor="middle" x="37" y="-7.5" font-family="Helvetica,sans-Serif" font-size="10.00">plain_mc.cpp</text>
</a>
</g>
</g>
<!-- Node42&#45;&gt;Node43 -->
<g id="edge3" class="edge"><title>Node42&#45;&gt;Node43</title>
<path fill="none" stroke="midnightblue" d="M67.9533,-48.144C60.1131,-38.7357 50.6705,-27.4046 44.2926,-19.7511"/>
<polygon fill="midnightblue" stroke="midnightblue" points="65.4785,-50.6414 74.5692,-56.083 70.8561,-46.1601 65.4785,-50.6414"/>
</g>
<!-- Node44 -->
<g id="node5" class="node"><title>Node44</title>
<g id="a_node5"><a xlink:href="plain__mc_8cu.html" target="_top" xlink:title="plain_mc.cu">
<polygon fill="none" stroke="black" points="92.5,-0.5 92.5,-19.5 161.5,-19.5 161.5,-0.5 92.5,-0.5"/>
<text text-anchor="middle" x="127" y="-7.5" font-family="Helvetica,sans-Serif" font-size="10.00">plain_mc.cu</text>
</a>
</g>
</g>
<!-- Node42&#45;&gt;Node44 -->
<g id="edge4" class="edge"><title>Node42&#45;&gt;Node44</title>
<path fill="none" stroke="midnightblue" d="M96.0467,-48.144C103.887,-38.7357 113.329,-27.4046 119.707,-19.7511"/>
<polygon fill="midnightblue" stroke="midnightblue" points="93.1439,-46.1601 89.4308,-56.083 98.5215,-50.6414 93.1439,-46.1601"/>
</g>
</g>
</svg>
