<?xml version="1.0" encoding="UTF-8" standalone="no"?>
<!DOCTYPE svg PUBLIC "-//W3C//DTD SVG 1.1//EN"
 "http://www.w3.org/Graphics/SVG/1.1/DTD/svg11.dtd">
<!-- Generated by graphviz version 2.38.0 (20140413.2041)
 -->
<!-- Title: ProcessSPlot.h Pages: 1 -->
<svg width="134pt" height="252pt"
 viewBox="0.00 0.00 133.50 252.00" xmlns="http://www.w3.org/2000/svg" xmlns:xlink="http://www.w3.org/1999/xlink">
<g id="graph0" class="graph" transform="scale(1 1) rotate(0) translate(4 248)">
<title>ProcessSPlot.h</title>
<!-- Node41 -->
<g id="node1" class="node"><title>Node41</title>
<polygon fill="#bfbfbf" stroke="black" points="21.5,-224.5 21.5,-243.5 106.5,-243.5 106.5,-224.5 21.5,-224.5"/>
<text text-anchor="middle" x="64" y="-231.5" font-family="Helvetica,sans-Serif" font-size="10.00">ProcessSPlot.h</text>
</g>
<!-- Node42 -->
<g id="node2" class="node"><title>Node42</title>
<g id="a_node2"><a xlink:href="SPlot_8inl.html" target="_top" xlink:title="SPlot.inl">
<polygon fill="none" stroke="black" points="37.5,-168.5 37.5,-187.5 90.5,-187.5 90.5,-168.5 37.5,-168.5"/>
<text text-anchor="middle" x="64" y="-175.5" font-family="Helvetica,sans-Serif" font-size="10.00">SPlot.inl</text>
</a>
</g>
</g>
<!-- Node41&#45;&gt;Node42 -->
<g id="edge1" class="edge"><title>Node41&#45;&gt;Node42</title>
<path fill="none" stroke="midnightblue" d="M64,-213.805C64,-204.91 64,-194.78 64,-187.751"/>
<polygon fill="midnightblue" stroke="midnightblue" points="60.5001,-214.083 64,-224.083 67.5001,-214.083 60.5001,-214.083"/>
</g>
<!-- Node43 -->
<g id="node3" class="node"><title>Node43</title>
<g id="a_node3"><a xlink:href="SPlot_8h.html" target="_top" xlink:title="SPlot.h">
<polygon fill="none" stroke="black" points="39.5,-112.5 39.5,-131.5 88.5,-131.5 88.5,-112.5 39.5,-112.5"/>
<text text-anchor="middle" x="64" y="-119.5" font-family="Helvetica,sans-Serif" font-size="10.00">SPlot.h</text>
</a>
</g>
</g>
<!-- Node42&#45;&gt;Node43 -->
<g id="edge2" class="edge"><title>Node42&#45;&gt;Node43</title>
<path fill="none" stroke="midnightblue" d="M64,-157.805C64,-148.91 64,-138.78 64,-131.751"/>
<polygon fill="midnightblue" stroke="midnightblue" points="60.5001,-158.083 64,-168.083 67.5001,-158.083 60.5001,-158.083"/>
</g>
<!-- Node44 -->
<g id="node4" class="node"><title>Node44</title>
<g id="a_node4"><a xlink:href="splot_8inl.html" target="_top" xlink:title="splot.inl">
<polygon fill="none" stroke="black" points="39,-56.5 39,-75.5 89,-75.5 89,-56.5 39,-56.5"/>
<text text-anchor="middle" x="64" y="-63.5" font-family="Helvetica,sans-Serif" font-size="10.00">splot.inl</text>
</a>
</g>
</g>
<!-- Node43&#45;&gt;Node44 -->
<g id="edge3" class="edge"><title>Node43&#45;&gt;Node44</title>
<path fill="none" stroke="midnightblue" d="M64,-101.805C64,-92.9102 64,-82.7798 64,-75.7511"/>
<polygon fill="midnightblue" stroke="midnightblue" points="60.5001,-102.083 64,-112.083 67.5001,-102.083 60.5001,-102.083"/>
</g>
<!-- Node45 -->
<g id="node5" class="node"><title>Node45</title>
<g id="a_node5"><a xlink:href="splot_8cpp.html" target="_top" xlink:title="splot.cpp">
<polygon fill="none" stroke="black" points="0,-0.5 0,-19.5 56,-19.5 56,-0.5 0,-0.5"/>
<text text-anchor="middle" x="28" y="-7.5" font-family="Helvetica,sans-Serif" font-size="10.00">splot.cpp</text>
</a>
</g>
</g>
<!-- Node44&#45;&gt;Node45 -->
<g id="edge4" class="edge"><title>Node44&#45;&gt;Node45</title>
<path fill="none" stroke="midnightblue" d="M52.3771,-47.5656C46.1832,-38.2747 38.8323,-27.2484 33.8341,-19.7511"/>
<polygon fill="midnightblue" stroke="midnightblue" points="49.5961,-49.7039 58.0553,-56.083 55.4205,-45.821 49.5961,-49.7039"/>
</g>
<!-- Node46 -->
<g id="node6" class="node"><title>Node46</title>
<g id="a_node6"><a xlink:href="splot_8cu.html" target="_top" xlink:title="splot.cu">
<polygon fill="none" stroke="black" points="74.5,-0.5 74.5,-19.5 125.5,-19.5 125.5,-0.5 74.5,-0.5"/>
<text text-anchor="middle" x="100" y="-7.5" font-family="Helvetica,sans-Serif" font-size="10.00">splot.cu</text>
</a>
</g>
</g>
<!-- Node44&#45;&gt;Node46 -->
<g id="edge5" class="edge"><title>Node44&#45;&gt;Node46</title>
<path fill="none" stroke="midnightblue" d="M75.6229,-47.5656C81.8168,-38.2747 89.1677,-27.2484 94.1659,-19.7511"/>
<polygon fill="midnightblue" stroke="midnightblue" points="72.5795,-45.821 69.9447,-56.083 78.4039,-49.7039 72.5795,-45.821"/>
</g>
</g>
</svg>
