<?xml version="1.0" encoding="UTF-8" standalone="no"?>
<!DOCTYPE svg PUBLIC "-//W3C//DTD SVG 1.1//EN"
 "http://www.w3.org/Graphics/SVG/1.1/DTD/svg11.dtd">
<!-- Generated by graphviz version 5.0.0 (0)
 -->
<!-- Title: ProcessGaussKronrodQuadrature.h Pages: 1 -->
<svg width="272pt" height="162pt"
 viewBox="0.00 0.00 272.00 162.00" xmlns="http://www.w3.org/2000/svg" xmlns:xlink="http://www.w3.org/1999/xlink">
<g id="graph0" class="graph" transform="scale(1 1) rotate(0) translate(4 158)">
<title>ProcessGaussKronrodQuadrature.h</title>
<!-- Node0 -->
<g id="node1" class="node">
<title>Node0</title>
<polygon fill="#bfbfbf" stroke="black" points="83.5,-134.5 83.5,-153.5 254.5,-153.5 254.5,-134.5 83.5,-134.5"/>
<text text-anchor="middle" x="169" y="-141.5" font-family="Helvetica,sans-Serif" font-size="10.00">ProcessGaussKronrodQuadrature.h</text>
</g>
<!-- Node1 -->
<g id="node2" class="node">
<title>Node1</title>
<g id="a_node2"><a xlink:href="Config_8h.html" target="_top" xlink:title="hydra/detail/Config.h">
<polygon fill="none" stroke="black" points="60.5,-78.5 60.5,-97.5 167.5,-97.5 167.5,-78.5 60.5,-78.5"/>
<text text-anchor="middle" x="114" y="-85.5" font-family="Helvetica,sans-Serif" font-size="10.00">hydra/detail/Config.h</text>
</a>
</g>
</g>
<!-- Node0&#45;&gt;Node1 -->
<g id="edge1" class="edge">
<title>Node0&#45;&gt;Node1</title>
<path fill="none" stroke="midnightblue" d="M159.92,-134.08C151.83,-126.14 139.8,-114.34 130.09,-104.8"/>
<polygon fill="midnightblue" stroke="midnightblue" points="132.5,-102.26 122.91,-97.75 127.6,-107.25 132.5,-102.26"/>
</g>
<!-- Node4 -->
<g id="node5" class="node">
<title>Node4</title>
<g id="a_node5"><a xlink:href="Types_8h.html" target="_top" xlink:title="Common and useful typedefs. ">
<polygon fill="none" stroke="black" points="186,-78.5 186,-97.5 264,-97.5 264,-78.5 186,-78.5"/>
<text text-anchor="middle" x="225" y="-85.5" font-family="Helvetica,sans-Serif" font-size="10.00">hydra/Types.h</text>
</a>
</g>
</g>
<!-- Node0&#45;&gt;Node4 -->
<g id="edge4" class="edge">
<title>Node0&#45;&gt;Node4</title>
<path fill="none" stroke="midnightblue" d="M178,-134.32C186.19,-126.42 198.51,-114.55 208.47,-104.94"/>
<polygon fill="midnightblue" stroke="midnightblue" points="211.07,-107.29 215.84,-97.83 206.21,-102.26 211.07,-107.29"/>
</g>
<!-- Node2 -->
<g id="node3" class="node">
<title>Node2</title>
<polygon fill="none" stroke="#bfbfbf" points="0,-0.5 0,-41.5 104,-41.5 104,-0.5 0,-0.5"/>
<text text-anchor="start" x="8" y="-29.5" font-family="Helvetica,sans-Serif" font-size="10.00">hydra/detail/external</text>
<text text-anchor="start" x="8" y="-18.5" font-family="Helvetica,sans-Serif" font-size="10.00">/hydra_thrust/detail</text>
<text text-anchor="middle" x="52" y="-7.5" font-family="Helvetica,sans-Serif" font-size="10.00">/config.h</text>
</g>
<!-- Node1&#45;&gt;Node2 -->
<g id="edge2" class="edge">
<title>Node1&#45;&gt;Node2</title>
<path fill="none" stroke="midnightblue" d="M105.64,-78.23C98.46,-70.7 87.71,-59.44 77.72,-48.96"/>
<polygon fill="midnightblue" stroke="midnightblue" points="80.07,-46.36 70.64,-41.54 75.01,-51.19 80.07,-46.36"/>
</g>
<!-- Node3 -->
<g id="node4" class="node">
<title>Node3</title>
<polygon fill="none" stroke="#bfbfbf" points="122,-0.5 122,-41.5 232,-41.5 232,-0.5 122,-0.5"/>
<text text-anchor="start" x="130" y="-29.5" font-family="Helvetica,sans-Serif" font-size="10.00">hydra/detail/external</text>
<text text-anchor="start" x="130" y="-18.5" font-family="Helvetica,sans-Serif" font-size="10.00">/hydra_thrust/detail</text>
<text text-anchor="middle" x="177" y="-7.5" font-family="Helvetica,sans-Serif" font-size="10.00">/config/host_device.h</text>
</g>
<!-- Node1&#45;&gt;Node3 -->
<g id="edge3" class="edge">
<title>Node1&#45;&gt;Node3</title>
<path fill="none" stroke="midnightblue" d="M122.5,-78.23C129.79,-70.7 140.71,-59.44 150.86,-48.96"/>
<polygon fill="midnightblue" stroke="midnightblue" points="153.61,-51.16 158.06,-41.54 148.59,-46.29 153.61,-51.16"/>
</g>
</g>
</svg>
