<?xml version="1.0" encoding="UTF-8" standalone="no"?>
<!DOCTYPE svg PUBLIC "-//W3C//DTD SVG 1.1//EN"
 "http://www.w3.org/Graphics/SVG/1.1/DTD/svg11.dtd">
<!-- Generated by graphviz version 2.38.0 (20140413.2041)
 -->
<!-- Title: ProcessGaussKronrodAdaptiveQuadrature.h Pages: 1 -->
<svg width="575pt" height="173pt"
 viewBox="0.00 0.00 574.50 173.00" xmlns="http://www.w3.org/2000/svg" xmlns:xlink="http://www.w3.org/1999/xlink">
<g id="graph0" class="graph" transform="scale(1 1) rotate(0) translate(4 169)">
<title>ProcessGaussKronrodAdaptiveQuadrature.h</title>
<!-- Node0 -->
<g id="node1" class="node"><title>Node0</title>
<polygon fill="#bfbfbf" stroke="black" points="188.5,-134.5 188.5,-164.5 341.5,-164.5 341.5,-134.5 188.5,-134.5"/>
<text text-anchor="start" x="196.5" y="-152.5" font-family="Helvetica,sans-Serif" font-size="10.00">ProcessGaussKronrodAdaptive</text>
<text text-anchor="middle" x="265" y="-141.5" font-family="Helvetica,sans-Serif" font-size="10.00">Quadrature.h</text>
</g>
<!-- Node1 -->
<g id="node2" class="node"><title>Node1</title>
<g id="a_node2"><a xlink:href="Config_8h.html" target="_top" xlink:title="hydra/detail/Config.h">
<polygon fill="none" stroke="black" points="100.5,-78.5 100.5,-97.5 207.5,-97.5 207.5,-78.5 100.5,-78.5"/>
<text text-anchor="middle" x="154" y="-85.5" font-family="Helvetica,sans-Serif" font-size="10.00">hydra/detail/Config.h</text>
</a>
</g>
</g>
<!-- Node0&#45;&gt;Node1 -->
<g id="edge1" class="edge"><title>Node0&#45;&gt;Node1</title>
<path fill="none" stroke="midnightblue" d="M238.695,-134.399C220.736,-124.773 197.076,-112.09 179.329,-102.577"/>
<polygon fill="midnightblue" stroke="midnightblue" points="180.619,-99.2975 170.151,-97.6578 177.312,-105.467 180.619,-99.2975"/>
</g>
<!-- Node4 -->
<g id="node5" class="node"><title>Node4</title>
<g id="a_node5"><a xlink:href="Types_8h.html" target="_top" xlink:title="Common and useful typedefs. ">
<polygon fill="none" stroke="black" points="225.5,-78.5 225.5,-97.5 304.5,-97.5 304.5,-78.5 225.5,-78.5"/>
<text text-anchor="middle" x="265" y="-85.5" font-family="Helvetica,sans-Serif" font-size="10.00">hydra/Types.h</text>
</a>
</g>
</g>
<!-- Node0&#45;&gt;Node4 -->
<g id="edge4" class="edge"><title>Node0&#45;&gt;Node4</title>
<path fill="none" stroke="midnightblue" d="M265,-134.399C265,-126.466 265,-116.458 265,-107.858"/>
<polygon fill="midnightblue" stroke="midnightblue" points="268.5,-107.658 265,-97.6578 261.5,-107.658 268.5,-107.658"/>
</g>
<!-- Node5 -->
<g id="node6" class="node"><title>Node5</title>
<g id="a_node6"><a xlink:href="Collection_8h.html" target="_top" xlink:title="hydra/Collection.h">
<polygon fill="none" stroke="black" points="322.5,-78.5 322.5,-97.5 417.5,-97.5 417.5,-78.5 322.5,-78.5"/>
<text text-anchor="middle" x="370" y="-85.5" font-family="Helvetica,sans-Serif" font-size="10.00">hydra/Collection.h</text>
</a>
</g>
</g>
<!-- Node0&#45;&gt;Node5 -->
<g id="edge5" class="edge"><title>Node0&#45;&gt;Node5</title>
<path fill="none" stroke="midnightblue" d="M289.884,-134.399C306.714,-124.862 328.839,-112.325 345.573,-102.842"/>
<polygon fill="midnightblue" stroke="midnightblue" points="347.747,-105.633 354.722,-97.6578 344.296,-99.5429 347.747,-105.633"/>
</g>
<!-- Node2 -->
<g id="node3" class="node"><title>Node2</title>
<polygon fill="none" stroke="#bfbfbf" points="0,-6 0,-36 108,-36 108,-6 0,-6"/>
<text text-anchor="start" x="8" y="-24" font-family="Helvetica,sans-Serif" font-size="10.00">hydra/detail/external</text>
<text text-anchor="middle" x="54" y="-13" font-family="Helvetica,sans-Serif" font-size="10.00">/thrust/detail/config.h</text>
</g>
<!-- Node1&#45;&gt;Node2 -->
<g id="edge2" class="edge"><title>Node1&#45;&gt;Node2</title>
<path fill="none" stroke="midnightblue" d="M140.514,-78.2338C126.154,-68.9003 102.961,-53.8246 84.2018,-41.6311"/>
<polygon fill="midnightblue" stroke="midnightblue" points="85.9673,-38.6044 75.6754,-36.089 82.1524,-44.4735 85.9673,-38.6044"/>
</g>
<!-- Node3 -->
<g id="node4" class="node"><title>Node3</title>
<polygon fill="none" stroke="#bfbfbf" points="126,-0.5 126,-41.5 230,-41.5 230,-0.5 126,-0.5"/>
<text text-anchor="start" x="134" y="-29.5" font-family="Helvetica,sans-Serif" font-size="10.00">hydra/detail/external</text>
<text text-anchor="start" x="134" y="-18.5" font-family="Helvetica,sans-Serif" font-size="10.00">/thrust/detail/config</text>
<text text-anchor="middle" x="178" y="-7.5" font-family="Helvetica,sans-Serif" font-size="10.00">/host_device.h</text>
</g>
<!-- Node1&#45;&gt;Node3 -->
<g id="edge3" class="edge"><title>Node1&#45;&gt;Node3</title>
<path fill="none" stroke="midnightblue" d="M157.237,-78.2338C159.828,-71.2166 163.617,-60.9537 167.252,-51.1101"/>
<polygon fill="midnightblue" stroke="midnightblue" points="170.604,-52.1354 170.784,-41.5421 164.037,-49.7107 170.604,-52.1354"/>
</g>
<!-- Node6 -->
<g id="node7" class="node"><title>Node6</title>
<polygon fill="none" stroke="#bfbfbf" points="295,-6 295,-36 399,-36 399,-6 295,-6"/>
<text text-anchor="start" x="303" y="-24" font-family="Helvetica,sans-Serif" font-size="10.00">hydra/detail/external</text>
<text text-anchor="middle" x="347" y="-13" font-family="Helvetica,sans-Serif" font-size="10.00">/thrust/tuple.h</text>
</g>
<!-- Node5&#45;&gt;Node6 -->
<g id="edge6" class="edge"><title>Node5&#45;&gt;Node6</title>
<path fill="none" stroke="midnightblue" d="M366.898,-78.2338C363.939,-69.8717 359.349,-56.9003 355.323,-45.5221"/>
<polygon fill="midnightblue" stroke="midnightblue" points="358.621,-44.3487 351.985,-36.089 352.022,-46.6838 358.621,-44.3487"/>
</g>
<!-- Node7 -->
<g id="node8" class="node"><title>Node7</title>
<polygon fill="none" stroke="#bfbfbf" points="417.5,-0.5 417.5,-41.5 566.5,-41.5 566.5,-0.5 417.5,-0.5"/>
<text text-anchor="start" x="425.5" y="-29.5" font-family="Helvetica,sans-Serif" font-size="10.00">hydra/detail/external</text>
<text text-anchor="start" x="425.5" y="-18.5" font-family="Helvetica,sans-Serif" font-size="10.00">/thrust/iterator/detail</text>
<text text-anchor="middle" x="492" y="-7.5" font-family="Helvetica,sans-Serif" font-size="10.00">/tuple_of_iterator_references.h</text>
</g>
<!-- Node5&#45;&gt;Node7 -->
<g id="edge7" class="edge"><title>Node5&#45;&gt;Node7</title>
<path fill="none" stroke="midnightblue" d="M386.201,-78.3685C401.514,-70.2099 425.221,-57.5789 446.316,-46.3398"/>
<polygon fill="midnightblue" stroke="midnightblue" points="447.985,-49.4166 455.165,-41.6254 444.693,-43.2387 447.985,-49.4166"/>
</g>
</g>
</svg>
