<?xml version="1.0" encoding="UTF-8" standalone="no"?>
<!DOCTYPE svg PUBLIC "-//W3C//DTD SVG 1.1//EN"
 "http://www.w3.org/Graphics/SVG/1.1/DTD/svg11.dtd">
<!-- Generated by graphviz version 5.0.0 (0)
 -->
<!-- Title: pseudo_experiment.inl Pages: 1 -->
<svg width="262pt" height="84pt"
 viewBox="0.00 0.00 261.50 84.00" xmlns="http://www.w3.org/2000/svg" xmlns:xlink="http://www.w3.org/1999/xlink">
<g id="graph0" class="graph" transform="scale(1 1) rotate(0) translate(4 80)">
<title>pseudo_experiment.inl</title>
<!-- Node215 -->
<g id="node1" class="node">
<title>Node215</title>
<polygon fill="#bfbfbf" stroke="black" points="71,-56.5 71,-75.5 185,-75.5 185,-56.5 71,-56.5"/>
<text text-anchor="middle" x="128" y="-63.5" font-family="Helvetica,sans-Serif" font-size="10.00">pseudo_experiment.inl</text>
</g>
<!-- Node216 -->
<g id="node2" class="node">
<title>Node216</title>
<g id="a_node2"><a xlink:href="pseudo__experiment_8cpp.html" target="_top" xlink:title="pseudo_experiment.cpp">
<polygon fill="none" stroke="black" points="0,-0.5 0,-19.5 120,-19.5 120,-0.5 0,-0.5"/>
<text text-anchor="middle" x="60" y="-7.5" font-family="Helvetica,sans-Serif" font-size="10.00">pseudo_experiment.cpp</text>
</a>
</g>
</g>
<!-- Node215&#45;&gt;Node216 -->
<g id="edge1" class="edge">
<title>Node215&#45;&gt;Node216</title>
<path fill="none" stroke="midnightblue" d="M109.24,-50.1C97,-40.38 81.44,-28.03 71.12,-19.83"/>
<polygon fill="midnightblue" stroke="midnightblue" points="107.07,-52.85 117.07,-56.32 111.42,-47.36 107.07,-52.85"/>
</g>
<!-- Node217 -->
<g id="node3" class="node">
<title>Node217</title>
<g id="a_node3"><a xlink:href="pseudo__experiment_8cu.html" target="_top" xlink:title="pseudo_experiment.cu">
<polygon fill="none" stroke="black" points="138.5,-0.5 138.5,-19.5 253.5,-19.5 253.5,-0.5 138.5,-0.5"/>
<text text-anchor="middle" x="196" y="-7.5" font-family="Helvetica,sans-Serif" font-size="10.00">pseudo_experiment.cu</text>
</a>
</g>
</g>
<!-- Node215&#45;&gt;Node217 -->
<g id="edge2" class="edge">
<title>Node215&#45;&gt;Node217</title>
<path fill="none" stroke="midnightblue" d="M146.76,-50.1C159,-40.38 174.56,-28.03 184.88,-19.83"/>
<polygon fill="midnightblue" stroke="midnightblue" points="144.58,-47.36 138.93,-56.32 148.93,-52.85 144.58,-47.36"/>
</g>
</g>
</svg>
