<?xml version="1.0" encoding="UTF-8" standalone="no"?>
<!DOCTYPE svg PUBLIC "-//W3C//DTD SVG 1.1//EN"
 "http://www.w3.org/Graphics/SVG/1.1/DTD/svg11.dtd">
<!-- Generated by graphviz version 5.0.0 (0)
 -->
<!-- Title: RealToComplexCuFFT.h Pages: 1 -->
<!--zoomable 196 -->
<svg id="main" version="1.1" xmlns="http://www.w3.org/2000/svg" xmlns:xlink="http://www.w3.org/1999/xlink" xml:space="preserve" onload="init(evt)">
<style type="text/css"><![CDATA[
.edge:hover path { stroke: red; }
.edge:hover polygon { stroke: red; fill: red; }
]]></style>
<script type="text/javascript"><![CDATA[
var edges = document.getElementsByTagName('g');
if (edges && edges.length) {
  for (var i=0;i<edges.length;i++) {
    if (edges[i].id.substr(0,4)=='edge') {
      edges[i].setAttribute('class','edge');
    }
  }
}
]]></script>
        <defs>
                <circle id="rim" cx="0" cy="0" r="7"/>
                <circle id="rim2" cx="0" cy="0" r="3.5"/>
                <g id="zoomPlus">
                        <use xlink:href="#rim" fill="#404040">
                                <set attributeName="fill" to="#808080" begin="zoomplus.mouseover" end="zoomplus.mouseout"/>
                        </use>
                        <path d="M-4,0h8M0,-4v8" fill="none" stroke="white" stroke-width="1.5" pointer-events="none"/>
                </g>
                <g id="zoomMin">
                        <use xlink:href="#rim" fill="#404040">
                                <set attributeName="fill" to="#808080" begin="zoomminus.mouseover" end="zoomminus.mouseout"/>
                        </use>
                        <path d="M-4,0h8" fill="none" stroke="white" stroke-width="1.5" pointer-events="none"/>
                </g>
                <g id="dirArrow">
                        <path fill="none" stroke="white" stroke-width="1.5" d="M0,-3.0v7 M-2.5,-0.5L0,-3.0L2.5,-0.5"/>
                </g>
               <g id="resetDef">
                       <use xlink:href="#rim2" fill="#404040">
                               <set attributeName="fill" to="#808080" begin="reset.mouseover" end="reset.mouseout"/>
                       </use>
               </g>
        </defs>

<script type="text/javascript">
var viewWidth = 679;
var viewHeight = 196;
var sectionId = 'dynsection-1';
</script>
<script xlink:href="svgpan.js"/>
<svg id="graph" class="graph">
<g id="viewport">
<title>RealToComplexCuFFT.h</title>
<!-- Node95 -->
<g id="node1" class="node">
<title>Node95</title>
<polygon fill="#bfbfbf" stroke="black" points="276,-168.5 276,-187.5 400,-187.5 400,-168.5 276,-168.5"/>
<text text-anchor="middle" x="338" y="-175.5" font-family="Helvetica,sans-Serif" font-size="10.00">RealToComplexCuFFT.h</text>
</g>
<!-- Node96 -->
<g id="node2" class="node">
<title>Node96</title>
<g id="a_node2"><a xlink:href="CuFFT_8h.html" target="_top" xlink:title="CuFFT.h">
<polygon fill="none" stroke="black" points="311,-112.5 311,-131.5 365,-131.5 365,-112.5 311,-112.5"/>
<text text-anchor="middle" x="338" y="-119.5" font-family="Helvetica,sans-Serif" font-size="10.00">CuFFT.h</text>
</a>
</g>
</g>
<!-- Node95&#45;&gt;Node96 -->
<g id="edge1" class="edge">
<title>Node95&#45;&gt;Node96</title>
<path fill="none" stroke="midnightblue" d="M338,-157.8C338,-148.91 338,-138.78 338,-131.75"/>
<polygon fill="midnightblue" stroke="midnightblue" points="334.5,-158.08 338,-168.08 341.5,-158.08 334.5,-158.08"/>
</g>
<!-- Node97 -->
<g id="node3" class="node">
<title>Node97</title>
<g id="a_node3"><a xlink:href="convolute__functions_8inl.html" target="_top" xlink:title="convolute_functions.inl">
<polygon fill="none" stroke="black" points="141,-56.5 141,-75.5 257,-75.5 257,-56.5 141,-56.5"/>
<text text-anchor="middle" x="199" y="-63.5" font-family="Helvetica,sans-Serif" font-size="10.00">convolute_functions.inl</text>
</a>
</g>
</g>
<!-- Node96&#45;&gt;Node97 -->
<g id="edge2" class="edge">
<title>Node96&#45;&gt;Node97</title>
<path fill="none" stroke="midnightblue" d="M306.52,-108.77C280.41,-98.63 243.96,-84.47 220.92,-75.52"/>
<polygon fill="midnightblue" stroke="midnightblue" points="305.39,-112.08 315.98,-112.44 307.92,-105.56 305.39,-112.08"/>
</g>
<!-- Node100 -->
<g id="node6" class="node">
<title>Node100</title>
<g id="a_node6"><a xlink:href="cufft_8inl.html" target="_top" xlink:title="cufft.inl">
<polygon fill="none" stroke="black" points="313.5,-56.5 313.5,-75.5 362.5,-75.5 362.5,-56.5 313.5,-56.5"/>
<text text-anchor="middle" x="338" y="-63.5" font-family="Helvetica,sans-Serif" font-size="10.00">cufft.inl</text>
</a>
</g>
</g>
<!-- Node96&#45;&gt;Node100 -->
<g id="edge5" class="edge">
<title>Node96&#45;&gt;Node100</title>
<path fill="none" stroke="midnightblue" d="M338,-101.8C338,-92.91 338,-82.78 338,-75.75"/>
<polygon fill="midnightblue" stroke="midnightblue" points="334.5,-102.08 338,-112.08 341.5,-102.08 334.5,-102.08"/>
</g>
<!-- Node103 -->
<g id="node9" class="node">
<title>Node103</title>
<g id="a_node9"><a xlink:href="fit__convoluted__pdfs_8inl.html" target="_top" xlink:title="fit_convoluted_pdfs.inl">
<polygon fill="none" stroke="black" points="420,-56.5 420,-75.5 534,-75.5 534,-56.5 420,-56.5"/>
<text text-anchor="middle" x="477" y="-63.5" font-family="Helvetica,sans-Serif" font-size="10.00">fit_convoluted_pdfs.inl</text>
</a>
</g>
</g>
<!-- Node96&#45;&gt;Node103 -->
<g id="edge8" class="edge">
<title>Node96&#45;&gt;Node103</title>
<path fill="none" stroke="midnightblue" d="M369.48,-108.77C395.59,-98.63 432.04,-84.47 455.08,-75.52"/>
<polygon fill="midnightblue" stroke="midnightblue" points="368.08,-105.56 360.02,-112.44 370.61,-112.08 368.08,-105.56"/>
</g>
<!-- Node98 -->
<g id="node4" class="node">
<title>Node98</title>
<g id="a_node4"><a xlink:href="convolute__functions_8cpp.html" target="_top" xlink:title="convolute_functions.cpp">
<polygon fill="none" stroke="black" points="0,-0.5 0,-19.5 122,-19.5 122,-0.5 0,-0.5"/>
<text text-anchor="middle" x="61" y="-7.5" font-family="Helvetica,sans-Serif" font-size="10.00">convolute_functions.cpp</text>
</a>
</g>
</g>
<!-- Node97&#45;&gt;Node98 -->
<g id="edge3" class="edge">
<title>Node97&#45;&gt;Node98</title>
<path fill="none" stroke="midnightblue" d="M167.75,-52.77C141.83,-42.63 105.64,-28.47 82.76,-19.52"/>
<polygon fill="midnightblue" stroke="midnightblue" points="166.55,-56.06 177.13,-56.44 169.1,-49.54 166.55,-56.06"/>
</g>
<!-- Node99 -->
<g id="node5" class="node">
<title>Node99</title>
<g id="a_node5"><a xlink:href="convolute__functions_8cu.html" target="_top" xlink:title="convolute_functions.cu">
<polygon fill="none" stroke="black" points="140.5,-0.5 140.5,-19.5 257.5,-19.5 257.5,-0.5 140.5,-0.5"/>
<text text-anchor="middle" x="199" y="-7.5" font-family="Helvetica,sans-Serif" font-size="10.00">convolute_functions.cu</text>
</a>
</g>
</g>
<!-- Node97&#45;&gt;Node99 -->
<g id="edge4" class="edge">
<title>Node97&#45;&gt;Node99</title>
<path fill="none" stroke="midnightblue" d="M199,-45.8C199,-36.91 199,-26.78 199,-19.75"/>
<polygon fill="midnightblue" stroke="midnightblue" points="195.5,-46.08 199,-56.08 202.5,-46.08 195.5,-46.08"/>
</g>
<!-- Node101 -->
<g id="node7" class="node">
<title>Node101</title>
<g id="a_node7"><a xlink:href="cufft_8cpp.html" target="_top" xlink:title="cufft.cpp">
<polygon fill="none" stroke="black" points="275.5,-0.5 275.5,-19.5 330.5,-19.5 330.5,-0.5 275.5,-0.5"/>
<text text-anchor="middle" x="303" y="-7.5" font-family="Helvetica,sans-Serif" font-size="10.00">cufft.cpp</text>
</a>
</g>
</g>
<!-- Node100&#45;&gt;Node101 -->
<g id="edge6" class="edge">
<title>Node100&#45;&gt;Node101</title>
<path fill="none" stroke="midnightblue" d="M326.7,-47.57C320.68,-38.27 313.53,-27.25 308.67,-19.75"/>
<polygon fill="midnightblue" stroke="midnightblue" points="323.84,-49.6 332.22,-56.08 329.72,-45.79 323.84,-49.6"/>
</g>
<!-- Node102 -->
<g id="node8" class="node">
<title>Node102</title>
<g id="a_node8"><a xlink:href="cufft_8cu.html" target="_top" xlink:title="cufft.cu">
<polygon fill="none" stroke="black" points="349,-0.5 349,-19.5 399,-19.5 399,-0.5 349,-0.5"/>
<text text-anchor="middle" x="374" y="-7.5" font-family="Helvetica,sans-Serif" font-size="10.00">cufft.cu</text>
</a>
</g>
</g>
<!-- Node100&#45;&gt;Node102 -->
<g id="edge7" class="edge">
<title>Node100&#45;&gt;Node102</title>
<path fill="none" stroke="midnightblue" d="M349.62,-47.57C355.82,-38.27 363.17,-27.25 368.17,-19.75"/>
<polygon fill="midnightblue" stroke="midnightblue" points="346.58,-45.82 343.94,-56.08 352.4,-49.7 346.58,-45.82"/>
</g>
<!-- Node104 -->
<g id="node10" class="node">
<title>Node104</title>
<g id="a_node10"><a xlink:href="fit__convoluted__pdfs_8cpp.html" target="_top" xlink:title="fit_convoluted_pdfs.cpp">
<polygon fill="none" stroke="black" points="417,-0.5 417,-19.5 537,-19.5 537,-0.5 417,-0.5"/>
<text text-anchor="middle" x="477" y="-7.5" font-family="Helvetica,sans-Serif" font-size="10.00">fit_convoluted_pdfs.cpp</text>
</a>
</g>
</g>
<!-- Node103&#45;&gt;Node104 -->
<g id="edge9" class="edge">
<title>Node103&#45;&gt;Node104</title>
<path fill="none" stroke="midnightblue" d="M477,-45.8C477,-36.91 477,-26.78 477,-19.75"/>
<polygon fill="midnightblue" stroke="midnightblue" points="473.5,-46.08 477,-56.08 480.5,-46.08 473.5,-46.08"/>
</g>
<!-- Node105 -->
<g id="node11" class="node">
<title>Node105</title>
<g id="a_node11"><a xlink:href="fit__convoluted__pdfs_8cu.html" target="_top" xlink:title="fit_convoluted_pdfs.cu">
<polygon fill="none" stroke="black" points="555.5,-0.5 555.5,-19.5 670.5,-19.5 670.5,-0.5 555.5,-0.5"/>
<text text-anchor="middle" x="613" y="-7.5" font-family="Helvetica,sans-Serif" font-size="10.00">fit_convoluted_pdfs.cu</text>
</a>
</g>
</g>
<!-- Node103&#45;&gt;Node105 -->
<g id="edge10" class="edge">
<title>Node103&#45;&gt;Node105</title>
<path fill="none" stroke="midnightblue" d="M508.13,-52.64C533.66,-42.5 569.11,-28.43 591.55,-19.52"/>
<polygon fill="midnightblue" stroke="midnightblue" points="506.55,-49.5 498.55,-56.44 509.14,-56.01 506.55,-49.5"/>
</g>
</g>
</svg>
        <g id="navigator" transform="translate(0 0)" fill="#404254">
                <rect fill="#f2f5e9" fill-opacity="0.5" stroke="#606060" stroke-width=".5" x="0" y="0" width="60" height="60"/>
                <use id="zoomplus" xlink:href="#zoomPlus" x="17" y="9" onmousedown="handleZoom(evt,'in')"/>
                <use id="zoomminus" xlink:href="#zoomMin" x="42" y="9" onmousedown="handleZoom(evt,'out')"/>
                <use id="reset" xlink:href="#resetDef" x="30" y="36" onmousedown="handleReset()"/>
                <g id="arrowUp" xlink:href="#dirArrow" transform="translate(30 24)" onmousedown="handlePan(0,-1)">
                  <use xlink:href="#rim" fill="#404040">
                        <set attributeName="fill" to="#808080" begin="arrowUp.mouseover" end="arrowUp.mouseout"/>
                  </use>
                  <path fill="none" stroke="white" stroke-width="1.5" d="M0,-3.0v7 M-2.5,-0.5L0,-3.0L2.5,-0.5"/>
                </g>
                <g id="arrowRight" xlink:href="#dirArrow" transform="rotate(90) translate(36 -43)" onmousedown="handlePan(1,0)">
                  <use xlink:href="#rim" fill="#404040">
                        <set attributeName="fill" to="#808080" begin="arrowRight.mouseover" end="arrowRight.mouseout"/>
                  </use>
                  <path fill="none" stroke="white" stroke-width="1.5" d="M0,-3.0v7 M-2.5,-0.5L0,-3.0L2.5,-0.5"/>
                </g>
                <g id="arrowDown" xlink:href="#dirArrow" transform="rotate(180) translate(-30 -48)" onmousedown="handlePan(0,1)">
                  <use xlink:href="#rim" fill="#404040">
                        <set attributeName="fill" to="#808080" begin="arrowDown.mouseover" end="arrowDown.mouseout"/>
                  </use>
                  <path fill="none" stroke="white" stroke-width="1.5" d="M0,-3.0v7 M-2.5,-0.5L0,-3.0L2.5,-0.5"/>
                </g>
                <g id="arrowLeft" xlink:href="#dirArrow" transform="rotate(270) translate(-36 17)" onmousedown="handlePan(-1,0)">
                  <use xlink:href="#rim" fill="#404040">
                        <set attributeName="fill" to="#808080" begin="arrowLeft.mouseover" end="arrowLeft.mouseout"/>
                  </use>
                  <path fill="none" stroke="white" stroke-width="1.5" d="M0,-3.0v7 M-2.5,-0.5L0,-3.0L2.5,-0.5"/>
                </g>
        </g>
        <svg viewBox="0 0 15 15" width="100%" height="30px" preserveAspectRatio="xMaxYMin meet">
         <g id="arrow_out" transform="scale(0.3 0.3)">
          <a xlink:href="RealToComplexCuFFT_8h__dep__incl_org.svg" target="_base">
           <rect id="button" ry="5" rx="5" y="6" x="6" height="38" width="38"
                fill="#f2f5e9" fill-opacity="0.5" stroke="#606060" stroke-width="1.0"/>
           <path id="arrow"
             d="M 11.500037,31.436501 C 11.940474,20.09759 22.043105,11.32322 32.158766,21.979434 L 37.068811,17.246167 C 37.068811,17.246167 37.088388,32 37.088388,32 L 22.160133,31.978069 C 22.160133,31.978069 26.997745,27.140456 26.997745,27.140456 C 18.528582,18.264221 13.291696,25.230495 11.500037,31.436501 z"
             style="fill:#404040;"/>
          </a>
         </g>
        </svg>
</svg>
