<?xml version="1.0" encoding="UTF-8" standalone="no"?>
<!DOCTYPE svg PUBLIC "-//W3C//DTD SVG 1.1//EN"
 "http://www.w3.org/Graphics/SVG/1.1/DTD/svg11.dtd">
<!-- Generated by graphviz version 2.42.4 (0)
 -->
<!-- Title: SafeCompare.h Pages: 1 -->
<svg width="404pt" height="229pt"
 viewBox="0.00 0.00 404.00 229.00" xmlns="http://www.w3.org/2000/svg" xmlns:xlink="http://www.w3.org/1999/xlink">
<g id="graph0" class="graph" transform="scale(1 1) rotate(0) translate(4 225)">
<title>SafeCompare.h</title>
<!-- Node0 -->
<g id="node1" class="node">
<title>Node0</title>
<polygon fill="#bfbfbf" stroke="black" points="197.5,-201.5 197.5,-220.5 282.5,-220.5 282.5,-201.5 197.5,-201.5"/>
<text text-anchor="middle" x="240" y="-208.5" font-family="Helvetica,sans-Serif" font-size="10.00">SafeCompare.h</text>
</g>
<!-- Node1 -->
<g id="node2" class="node">
<title>Node1</title>
<g id="a_node2"><a xlink:href="Config_8h.html" target="_top" xlink:title="hydra/detail/Config.h">
<polygon fill="none" stroke="black" points="60.5,-78.5 60.5,-97.5 167.5,-97.5 167.5,-78.5 60.5,-78.5"/>
<text text-anchor="middle" x="114" y="-85.5" font-family="Helvetica,sans-Serif" font-size="10.00">hydra/detail/Config.h</text>
</a>
</g>
</g>
<!-- Node0&#45;&gt;Node1 -->
<g id="edge1" class="edge">
<title>Node0&#45;&gt;Node1</title>
<path fill="none" stroke="midnightblue" d="M197.39,-209.56C163.59,-206.68 118.29,-196.62 95,-165 82.32,-147.79 92.37,-123.07 102.02,-106.54"/>
<polygon fill="midnightblue" stroke="midnightblue" points="105.11,-108.21 107.48,-97.88 99.19,-104.47 105.11,-108.21"/>
</g>
<!-- Node4 -->
<g id="node5" class="node">
<title>Node4</title>
<g id="a_node5"><a xlink:href="MachineEpsilon_8h.html" target="_top" xlink:title="hydra/detail/utility\l/MachineEpsilon.h">
<polygon fill="none" stroke="black" points="104.5,-134.5 104.5,-164.5 201.5,-164.5 201.5,-134.5 104.5,-134.5"/>
<text text-anchor="start" x="112.5" y="-152.5" font-family="Helvetica,sans-Serif" font-size="10.00">hydra/detail/utility</text>
<text text-anchor="middle" x="153" y="-141.5" font-family="Helvetica,sans-Serif" font-size="10.00">/MachineEpsilon.h</text>
</a>
</g>
</g>
<!-- Node0&#45;&gt;Node4 -->
<g id="edge4" class="edge">
<title>Node0&#45;&gt;Node4</title>
<path fill="none" stroke="midnightblue" d="M227.54,-201.48C215.64,-193.34 197.29,-180.79 181.77,-170.18"/>
<polygon fill="midnightblue" stroke="midnightblue" points="183.73,-167.28 173.5,-164.52 179.78,-173.06 183.73,-167.28"/>
</g>
<!-- Node5 -->
<g id="node6" class="node">
<title>Node5</title>
<polygon fill="none" stroke="#bfbfbf" points="220,-140 220,-159 260,-159 260,-140 220,-140"/>
<text text-anchor="middle" x="240" y="-147" font-family="Helvetica,sans-Serif" font-size="10.00">limits</text>
</g>
<!-- Node0&#45;&gt;Node5 -->
<g id="edge6" class="edge">
<title>Node0&#45;&gt;Node5</title>
<path fill="none" stroke="midnightblue" d="M240,-201.48C240,-193.08 240,-179.98 240,-169.16"/>
<polygon fill="midnightblue" stroke="midnightblue" points="243.5,-169.01 240,-159.01 236.5,-169.01 243.5,-169.01"/>
</g>
<!-- Node6 -->
<g id="node7" class="node">
<title>Node6</title>
<polygon fill="none" stroke="#bfbfbf" points="278.5,-140 278.5,-159 337.5,-159 337.5,-140 278.5,-140"/>
<text text-anchor="middle" x="308" y="-147" font-family="Helvetica,sans-Serif" font-size="10.00">stdexcept</text>
</g>
<!-- Node0&#45;&gt;Node6 -->
<g id="edge7" class="edge">
<title>Node0&#45;&gt;Node6</title>
<path fill="none" stroke="midnightblue" d="M249.74,-201.48C260.35,-192.2 277.52,-177.17 290.48,-165.83"/>
<polygon fill="midnightblue" stroke="midnightblue" points="293.05,-168.23 298.28,-159.01 288.44,-162.96 293.05,-168.23"/>
</g>
<!-- Node7 -->
<g id="node8" class="node">
<title>Node7</title>
<polygon fill="none" stroke="#bfbfbf" points="356,-140 356,-159 396,-159 396,-140 356,-140"/>
<text text-anchor="middle" x="376" y="-147" font-family="Helvetica,sans-Serif" font-size="10.00">utility</text>
</g>
<!-- Node0&#45;&gt;Node7 -->
<g id="edge8" class="edge">
<title>Node0&#45;&gt;Node7</title>
<path fill="none" stroke="midnightblue" d="M261.5,-201.44C283.23,-192.68 317.7,-178.47 347,-165 348,-164.54 349.01,-164.07 350.03,-163.59"/>
<polygon fill="midnightblue" stroke="midnightblue" points="351.76,-166.64 359.22,-159.12 348.7,-160.34 351.76,-166.64"/>
</g>
<!-- Node2 -->
<g id="node3" class="node">
<title>Node2</title>
<polygon fill="none" stroke="#bfbfbf" points="0,-0.5 0,-41.5 104,-41.5 104,-0.5 0,-0.5"/>
<text text-anchor="start" x="8" y="-29.5" font-family="Helvetica,sans-Serif" font-size="10.00">hydra/detail/external</text>
<text text-anchor="start" x="8" y="-18.5" font-family="Helvetica,sans-Serif" font-size="10.00">/hydra_thrust/detail</text>
<text text-anchor="middle" x="52" y="-7.5" font-family="Helvetica,sans-Serif" font-size="10.00">/config.h</text>
</g>
<!-- Node1&#45;&gt;Node2 -->
<g id="edge2" class="edge">
<title>Node1&#45;&gt;Node2</title>
<path fill="none" stroke="midnightblue" d="M105.64,-78.23C98.46,-70.7 87.71,-59.44 77.72,-48.96"/>
<polygon fill="midnightblue" stroke="midnightblue" points="80.07,-46.36 70.64,-41.54 75.01,-51.19 80.07,-46.36"/>
</g>
<!-- Node3 -->
<g id="node4" class="node">
<title>Node3</title>
<polygon fill="none" stroke="#bfbfbf" points="122,-0.5 122,-41.5 232,-41.5 232,-0.5 122,-0.5"/>
<text text-anchor="start" x="130" y="-29.5" font-family="Helvetica,sans-Serif" font-size="10.00">hydra/detail/external</text>
<text text-anchor="start" x="130" y="-18.5" font-family="Helvetica,sans-Serif" font-size="10.00">/hydra_thrust/detail</text>
<text text-anchor="middle" x="177" y="-7.5" font-family="Helvetica,sans-Serif" font-size="10.00">/config/host_device.h</text>
</g>
<!-- Node1&#45;&gt;Node3 -->
<g id="edge3" class="edge">
<title>Node1&#45;&gt;Node3</title>
<path fill="none" stroke="midnightblue" d="M122.5,-78.23C129.79,-70.7 140.71,-59.44 150.86,-48.96"/>
<polygon fill="midnightblue" stroke="midnightblue" points="153.61,-51.16 158.06,-41.54 148.59,-46.29 153.61,-51.16"/>
</g>
<!-- Node4&#45;&gt;Node1 -->
<g id="edge5" class="edge">
<title>Node4&#45;&gt;Node1</title>
<path fill="none" stroke="midnightblue" d="M143.76,-134.4C138.21,-125.93 131.11,-115.1 125.23,-106.14"/>
<polygon fill="midnightblue" stroke="midnightblue" points="128.08,-104.1 119.67,-97.66 122.23,-107.94 128.08,-104.1"/>
</g>
</g>
</svg>
