<?xml version="1.0" encoding="UTF-8" standalone="no"?>
<!DOCTYPE svg PUBLIC "-//W3C//DTD SVG 1.1//EN"
 "http://www.w3.org/Graphics/SVG/1.1/DTD/svg11.dtd">
<!-- Generated by graphviz version 2.40.1 (20161225.0304)
 -->
<!-- Title: SafeCompare.h Pages: 1 -->
<svg width="406pt" height="229pt"
 viewBox="0.00 0.00 406.00 229.00" xmlns="http://www.w3.org/2000/svg" xmlns:xlink="http://www.w3.org/1999/xlink">
<g id="graph0" class="graph" transform="scale(1 1) rotate(0) translate(4 225)">
<title>SafeCompare.h</title>
<!-- Node0 -->
<g id="node1" class="node">
<title>Node0</title>
<polygon fill="#bfbfbf" stroke="#000000" points="200,-201.5 200,-220.5 284,-220.5 284,-201.5 200,-201.5"/>
<text text-anchor="middle" x="242" y="-208.5" font-family="Helvetica,sans-Serif" font-size="10.00" fill="#000000">SafeCompare.h</text>
</g>
<!-- Node1 -->
<g id="node2" class="node">
<title>Node1</title>
<g id="a_node2"><a xlink:href="Config_8h.html" target="_top" xlink:title="hydra/detail/Config.h">
<polygon fill="none" stroke="#000000" points="63,-78.5 63,-97.5 169,-97.5 169,-78.5 63,-78.5"/>
<text text-anchor="middle" x="116" y="-85.5" font-family="Helvetica,sans-Serif" font-size="10.00" fill="#000000">hydra/detail/Config.h</text>
</a>
</g>
</g>
<!-- Node0&#45;&gt;Node1 -->
<g id="edge1" class="edge">
<title>Node0&#45;&gt;Node1</title>
<path fill="none" stroke="#191970" d="M199.9388,-203.3398C161.6676,-195.4128 109.3222,-181.8365 97,-165 84.4921,-147.9097 93.8733,-123.5594 103.3558,-106.8427"/>
<polygon fill="#191970" stroke="#191970" points="106.5382,-108.3485 108.7859,-97.9948 100.5721,-104.687 106.5382,-108.3485"/>
</g>
<!-- Node4 -->
<g id="node5" class="node">
<title>Node4</title>
<g id="a_node5"><a xlink:href="MachineEpsilon_8h.html" target="_top" xlink:title="hydra/detail/utility\l/MachineEpsilon.h">
<polygon fill="none" stroke="#000000" points="106.5,-134.5 106.5,-164.5 203.5,-164.5 203.5,-134.5 106.5,-134.5"/>
<text text-anchor="start" x="114.5" y="-152.5" font-family="Helvetica,sans-Serif" font-size="10.00" fill="#000000">hydra/detail/utility</text>
<text text-anchor="middle" x="155" y="-141.5" font-family="Helvetica,sans-Serif" font-size="10.00" fill="#000000">/MachineEpsilon.h</text>
</a>
</g>
</g>
<!-- Node0&#45;&gt;Node4 -->
<g id="edge4" class="edge">
<title>Node0&#45;&gt;Node4</title>
<path fill="none" stroke="#191970" d="M228.4063,-201.3906C216.7409,-193.1444 199.5141,-180.9669 184.68,-170.4807"/>
<polygon fill="#191970" stroke="#191970" points="186.4687,-167.459 176.2826,-164.5446 182.428,-173.175 186.4687,-167.459"/>
</g>
<!-- Node5 -->
<g id="node6" class="node">
<title>Node5</title>
<polygon fill="none" stroke="#bfbfbf" points="222,-140 222,-159 262,-159 262,-140 222,-140"/>
<text text-anchor="middle" x="242" y="-147" font-family="Helvetica,sans-Serif" font-size="10.00" fill="#000000">limits</text>
</g>
<!-- Node0&#45;&gt;Node5 -->
<g id="edge6" class="edge">
<title>Node0&#45;&gt;Node5</title>
<path fill="none" stroke="#191970" d="M242,-201.3906C242,-192.8657 242,-180.1392 242,-169.4235"/>
<polygon fill="#191970" stroke="#191970" points="245.5001,-169.2448 242,-159.2449 238.5001,-169.2449 245.5001,-169.2448"/>
</g>
<!-- Node6 -->
<g id="node7" class="node">
<title>Node6</title>
<polygon fill="none" stroke="#bfbfbf" points="280.5,-140 280.5,-159 339.5,-159 339.5,-140 280.5,-140"/>
<text text-anchor="middle" x="310" y="-147" font-family="Helvetica,sans-Serif" font-size="10.00" fill="#000000">stdexcept</text>
</g>
<!-- Node0&#45;&gt;Node6 -->
<g id="edge7" class="edge">
<title>Node0&#45;&gt;Node6</title>
<path fill="none" stroke="#191970" d="M252.625,-201.3906C263.0431,-191.9683 279.1364,-177.4134 291.6304,-166.1137"/>
<polygon fill="#191970" stroke="#191970" points="294.1562,-168.5484 299.2252,-159.2449 289.4608,-163.3568 294.1562,-168.5484"/>
</g>
<!-- Node7 -->
<g id="node8" class="node">
<title>Node7</title>
<polygon fill="none" stroke="#bfbfbf" points="358,-140 358,-159 398,-159 398,-140 358,-140"/>
<text text-anchor="middle" x="378" y="-147" font-family="Helvetica,sans-Serif" font-size="10.00" fill="#000000">utility</text>
</g>
<!-- Node0&#45;&gt;Node7 -->
<g id="edge8" class="edge">
<title>Node0&#45;&gt;Node7</title>
<path fill="none" stroke="#191970" d="M266.0594,-201.3412C287.9185,-192.4047 320.9396,-178.5006 349,-165 349.8327,-164.5993 350.6761,-164.1874 351.5254,-163.7672"/>
<polygon fill="#191970" stroke="#191970" points="353.344,-166.7678 360.6408,-159.0862 350.1463,-160.5409 353.344,-166.7678"/>
</g>
<!-- Node2 -->
<g id="node3" class="node">
<title>Node2</title>
<polygon fill="none" stroke="#bfbfbf" points="0,-6 0,-36 108,-36 108,-6 0,-6"/>
<text text-anchor="start" x="8" y="-24" font-family="Helvetica,sans-Serif" font-size="10.00" fill="#000000">hydra/detail/external</text>
<text text-anchor="middle" x="54" y="-13" font-family="Helvetica,sans-Serif" font-size="10.00" fill="#000000">/thrust/detail/config.h</text>
</g>
<!-- Node1&#45;&gt;Node2 -->
<g id="edge2" class="edge">
<title>Node1&#45;&gt;Node2</title>
<path fill="none" stroke="#191970" d="M107.1169,-78.4005C98.712,-69.3178 85.7812,-55.3442 74.7825,-43.4585"/>
<polygon fill="#191970" stroke="#191970" points="77.2615,-40.9842 67.9007,-36.0218 72.1238,-45.7386 77.2615,-40.9842"/>
</g>
<!-- Node3 -->
<g id="node4" class="node">
<title>Node3</title>
<polygon fill="none" stroke="#bfbfbf" points="126,-.5 126,-41.5 230,-41.5 230,-.5 126,-.5"/>
<text text-anchor="start" x="134" y="-29.5" font-family="Helvetica,sans-Serif" font-size="10.00" fill="#000000">hydra/detail/external</text>
<text text-anchor="start" x="134" y="-18.5" font-family="Helvetica,sans-Serif" font-size="10.00" fill="#000000">/thrust/detail/config</text>
<text text-anchor="middle" x="178" y="-7.5" font-family="Helvetica,sans-Serif" font-size="10.00" fill="#000000">/host_device.h</text>
</g>
<!-- Node1&#45;&gt;Node3 -->
<g id="edge3" class="edge">
<title>Node1&#45;&gt;Node3</title>
<path fill="none" stroke="#191970" d="M124.8831,-78.4005C131.9962,-70.7137 142.3511,-59.5239 152.0329,-49.0612"/>
<polygon fill="#191970" stroke="#191970" points="154.6849,-51.3486 158.9079,-41.6318 149.5471,-46.5942 154.6849,-51.3486"/>
</g>
<!-- Node4&#45;&gt;Node1 -->
<g id="edge5" class="edge">
<title>Node4&#45;&gt;Node1</title>
<path fill="none" stroke="#191970" d="M145.3595,-134.2977C140.0023,-125.8498 133.2978,-115.2773 127.6487,-106.369"/>
<polygon fill="#191970" stroke="#191970" points="130.5556,-104.4176 122.2444,-97.8469 124.6441,-108.1664 130.5556,-104.4176"/>
</g>
</g>
</svg>
