<?xml version="1.0" encoding="UTF-8" standalone="no"?>
<!DOCTYPE svg PUBLIC "-//W3C//DTD SVG 1.1//EN"
 "http://www.w3.org/Graphics/SVG/1.1/DTD/svg11.dtd">
<!-- Generated by graphviz version 2.38.0 (20140413.2041)
 -->
<!-- Title: main Pages: 1 -->
<svg width="446pt" height="161pt"
 viewBox="0.00 0.00 446.00 161.00" xmlns="http://www.w3.org/2000/svg" xmlns:xlink="http://www.w3.org/1999/xlink">
<g id="graph0" class="graph" transform="scale(1 1) rotate(0) translate(4 157)">
<title>main</title>
<!-- Node0 -->
<g id="node1" class="node"><title>Node0</title>
<polygon fill="#bfbfbf" stroke="black" points="0,-57.5 0,-76.5 38,-76.5 38,-57.5 0,-57.5"/>
<text text-anchor="middle" x="19" y="-64.5" font-family="Helvetica,sans-Serif" font-size="10.00">main</text>
</g>
<!-- Node1 -->
<g id="node2" class="node"><title>Node1</title>
<g id="a_node2"><a xlink:href="namespacehydra.html#a77f0de94ba6edf1f98d40ea2afd91a94" target="_top" xlink:title="hydra::exp">
<polygon fill="none" stroke="black" points="104,-114.5 104,-133.5 166,-133.5 166,-114.5 104,-114.5"/>
<text text-anchor="middle" x="135" y="-121.5" font-family="Helvetica,sans-Serif" font-size="10.00">hydra::exp</text>
</a>
</g>
</g>
<!-- Node0&#45;&gt;Node1 -->
<g id="edge1" class="edge"><title>Node0&#45;&gt;Node1</title>
<path fill="none" stroke="midnightblue" d="M31.3525,-76.5584C41.8526,-85.0039 58.1807,-97.1635 74,-105 80.3152,-108.128 87.2569,-110.886 94.1086,-113.262"/>
<polygon fill="midnightblue" stroke="midnightblue" points="93.4072,-116.714 103.999,-116.468 95.5657,-110.055 93.4072,-116.714"/>
</g>
<!-- Node2 -->
<g id="node3" class="node"><title>Node2</title>
<g id="a_node3"><a xlink:href="group__random.html#ac65eeb80e6378894c9a2a22660f6205f" target="_top" xlink:title="Fill a range with numbers distributed according a user defined distribution. ">
<polygon fill="none" stroke="black" points="74,-76.5 74,-95.5 196,-95.5 196,-76.5 74,-76.5"/>
<text text-anchor="middle" x="135" y="-83.5" font-family="Helvetica,sans-Serif" font-size="10.00">hydra::Random::Sample</text>
</a>
</g>
</g>
<!-- Node0&#45;&gt;Node2 -->
<g id="edge2" class="edge"><title>Node0&#45;&gt;Node2</title>
<path fill="none" stroke="midnightblue" d="M38.0636,-70.0106C46.0567,-71.3428 56.0065,-73.0011 66.4457,-74.7409"/>
<polygon fill="midnightblue" stroke="midnightblue" points="66.1171,-78.2344 76.5564,-76.4261 67.2679,-71.3296 66.1171,-78.2344"/>
</g>
<!-- Node7 -->
<g id="node8" class="node"><title>Node7</title>
<g id="a_node8"><a xlink:href="namespacehydra.html#ac9c54fb833c00a61ad29f0203620ec27" target="_top" xlink:title="hydra::sqrt">
<polygon fill="none" stroke="black" points="103.5,-38.5 103.5,-57.5 166.5,-57.5 166.5,-38.5 103.5,-38.5"/>
<text text-anchor="middle" x="135" y="-45.5" font-family="Helvetica,sans-Serif" font-size="10.00">hydra::sqrt</text>
</a>
</g>
</g>
<!-- Node0&#45;&gt;Node7 -->
<g id="edge9" class="edge"><title>Node0&#45;&gt;Node7</title>
<path fill="none" stroke="midnightblue" d="M38.0636,-63.9894C52.8584,-61.5236 74.3568,-57.9405 93.2542,-54.791"/>
<polygon fill="midnightblue" stroke="midnightblue" points="93.8485,-58.2403 103.137,-53.1438 92.6977,-51.3355 93.8485,-58.2403"/>
</g>
<!-- Node8 -->
<g id="node9" class="node"><title>Node8</title>
<g id="a_node9"><a xlink:href="group__functor.html#ga06bab1ad739e661a92fbf918012c9736" target="_top" xlink:title="Function template for wrap a C++11 lambda into a hydra lambda with a certain number of parameters...">
<polygon fill="none" stroke="black" points="83,-0.5 83,-19.5 187,-19.5 187,-0.5 83,-0.5"/>
<text text-anchor="middle" x="135" y="-7.5" font-family="Helvetica,sans-Serif" font-size="10.00">hydra::wrap_lambda</text>
</a>
</g>
</g>
<!-- Node0&#45;&gt;Node8 -->
<g id="edge10" class="edge"><title>Node0&#45;&gt;Node8</title>
<path fill="none" stroke="midnightblue" d="M31.3525,-57.4416C41.8526,-48.9961 58.1807,-36.8365 74,-29 78.5344,-26.7537 83.3919,-24.6984 88.3071,-22.8384"/>
<polygon fill="midnightblue" stroke="midnightblue" points="89.4948,-26.1309 97.7608,-19.5034 87.166,-19.5296 89.4948,-26.1309"/>
</g>
<!-- Node3 -->
<g id="node4" class="node"><title>Node3</title>
<g id="a_node4"><a xlink:href="namespacehydra.html#a1016bfa0c15215b4c14afc007d932074" target="_top" xlink:title="hydra::distance">
<polygon fill="none" stroke="black" points="240.5,-133.5 240.5,-152.5 323.5,-152.5 323.5,-133.5 240.5,-133.5"/>
<text text-anchor="middle" x="282" y="-140.5" font-family="Helvetica,sans-Serif" font-size="10.00">hydra::distance</text>
</a>
</g>
</g>
<!-- Node2&#45;&gt;Node3 -->
<g id="edge3" class="edge"><title>Node2&#45;&gt;Node3</title>
<path fill="none" stroke="midnightblue" d="M168.617,-95.5876C177.564,-98.418 187.217,-101.659 196,-105 214.892,-112.188 235.609,-121.42 251.86,-128.985"/>
<polygon fill="midnightblue" stroke="midnightblue" points="250.807,-132.357 261.345,-133.446 253.786,-126.023 250.807,-132.357"/>
</g>
<!-- Node4 -->
<g id="node5" class="node"><title>Node4</title>
<g id="a_node5"><a xlink:href="namespacehydra.html#a6874d900b0238ec21d1490998de81f99" target="_top" xlink:title="hydra::begin">
<polygon fill="none" stroke="black" points="368,-76.5 368,-95.5 438,-95.5 438,-76.5 368,-76.5"/>
<text text-anchor="middle" x="403" y="-83.5" font-family="Helvetica,sans-Serif" font-size="10.00">hydra::begin</text>
</a>
</g>
</g>
<!-- Node2&#45;&gt;Node4 -->
<g id="edge4" class="edge"><title>Node2&#45;&gt;Node4</title>
<path fill="none" stroke="midnightblue" d="M196.027,-86C245.11,-86 313.397,-86 357.648,-86"/>
<polygon fill="midnightblue" stroke="midnightblue" points="357.805,-89.5001 367.805,-86 357.805,-82.5001 357.805,-89.5001"/>
</g>
<!-- Node5 -->
<g id="node6" class="node"><title>Node5</title>
<g id="a_node6"><a xlink:href="namespacehydra.html#ae7f8d7b0cfc77696dd1ba9aaf31d23a7" target="_top" xlink:title="hydra::end">
<polygon fill="none" stroke="black" points="372,-29.5 372,-48.5 434,-48.5 434,-29.5 372,-29.5"/>
<text text-anchor="middle" x="403" y="-36.5" font-family="Helvetica,sans-Serif" font-size="10.00">hydra::end</text>
</a>
</g>
</g>
<!-- Node2&#45;&gt;Node5 -->
<g id="edge5" class="edge"><title>Node2&#45;&gt;Node5</title>
<path fill="none" stroke="midnightblue" d="M169.706,-76.491C178.385,-73.7269 187.633,-70.4994 196,-67 212.691,-60.019 214.56,-52.8127 232,-48 275.118,-36.1011 326.67,-35.1257 361.614,-36.3167"/>
<polygon fill="midnightblue" stroke="midnightblue" points="361.76,-39.8258 371.897,-36.7462 362.052,-32.8319 361.76,-39.8258"/>
</g>
<!-- Node6 -->
<g id="node7" class="node"><title>Node6</title>
<g id="a_node7"><a xlink:href="namespacehydra.html#a8d210727c4d8b6989542eff5fd3f6319" target="_top" xlink:title="hydra::make_range">
<polygon fill="none" stroke="black" points="232,-57.5 232,-76.5 332,-76.5 332,-57.5 232,-57.5"/>
<text text-anchor="middle" x="282" y="-64.5" font-family="Helvetica,sans-Serif" font-size="10.00">hydra::make_range</text>
</a>
</g>
</g>
<!-- Node2&#45;&gt;Node6 -->
<g id="edge6" class="edge"><title>Node2&#45;&gt;Node6</title>
<path fill="none" stroke="midnightblue" d="M196.233,-78.1074C204.642,-77.0056 213.277,-75.8741 221.668,-74.7745"/>
<polygon fill="midnightblue" stroke="midnightblue" points="222.291,-78.2229 231.752,-73.4532 221.382,-71.2822 222.291,-78.2229"/>
</g>
<!-- Node6&#45;&gt;Node4 -->
<g id="edge7" class="edge"><title>Node6&#45;&gt;Node4</title>
<path fill="none" stroke="midnightblue" d="M332.089,-74.8377C340.646,-76.204 349.5,-77.6176 357.912,-78.9607"/>
<polygon fill="midnightblue" stroke="midnightblue" points="357.478,-82.4356 367.904,-80.5562 358.581,-75.5232 357.478,-82.4356"/>
</g>
<!-- Node6&#45;&gt;Node5 -->
<g id="edge8" class="edge"><title>Node6&#45;&gt;Node5</title>
<path fill="none" stroke="midnightblue" d="M323.62,-57.4423C335.929,-54.5461 349.441,-51.3669 361.727,-48.4761"/>
<polygon fill="midnightblue" stroke="midnightblue" points="362.773,-51.8255 371.706,-46.1281 361.17,-45.0116 362.773,-51.8255"/>
</g>
</g>
</svg>
