<?xml version="1.0" encoding="UTF-8" standalone="no"?>
<!DOCTYPE svg PUBLIC "-//W3C//DTD SVG 1.1//EN"
 "http://www.w3.org/Graphics/SVG/1.1/DTD/svg11.dtd">
<!-- Generated by graphviz version 5.0.0 (0)
 -->
<!-- Title: Spline4DFunctor.h Pages: 1 -->
<svg width="284pt" height="140pt"
 viewBox="0.00 0.00 283.50 140.00" xmlns="http://www.w3.org/2000/svg" xmlns:xlink="http://www.w3.org/1999/xlink">
<g id="graph0" class="graph" transform="scale(1 1) rotate(0) translate(4 136)">
<title>Spline4DFunctor.h</title>
<!-- Node148 -->
<g id="node1" class="node">
<title>Node148</title>
<polygon fill="#bfbfbf" stroke="black" points="90,-112.5 90,-131.5 187,-131.5 187,-112.5 90,-112.5"/>
<text text-anchor="middle" x="138.5" y="-119.5" font-family="Helvetica,sans-Serif" font-size="10.00">Spline4DFunctor.h</text>
</g>
<!-- Node149 -->
<g id="node2" class="node">
<title>Node149</title>
<g id="a_node2"><a xlink:href="spline4D__interpolation_8inl.html" target="_top" xlink:title="spline4D_interpolation.inl">
<polygon fill="none" stroke="black" points="76,-56.5 76,-75.5 201,-75.5 201,-56.5 76,-56.5"/>
<text text-anchor="middle" x="138.5" y="-63.5" font-family="Helvetica,sans-Serif" font-size="10.00">spline4D_interpolation.inl</text>
</a>
</g>
</g>
<!-- Node148&#45;&gt;Node149 -->
<g id="edge1" class="edge">
<title>Node148&#45;&gt;Node149</title>
<path fill="none" stroke="midnightblue" d="M138.5,-101.8C138.5,-92.91 138.5,-82.78 138.5,-75.75"/>
<polygon fill="midnightblue" stroke="midnightblue" points="135,-102.08 138.5,-112.08 142,-102.08 135,-102.08"/>
</g>
<!-- Node150 -->
<g id="node3" class="node">
<title>Node150</title>
<g id="a_node3"><a xlink:href="spline4D__interpolation_8cpp.html" target="_top" xlink:title="spline4D_interpolation.cpp">
<polygon fill="none" stroke="black" points="0,-0.5 0,-19.5 131,-19.5 131,-0.5 0,-0.5"/>
<text text-anchor="middle" x="65.5" y="-7.5" font-family="Helvetica,sans-Serif" font-size="10.00">spline4D_interpolation.cpp</text>
</a>
</g>
</g>
<!-- Node149&#45;&gt;Node150 -->
<g id="edge2" class="edge">
<title>Node149&#45;&gt;Node150</title>
<path fill="none" stroke="midnightblue" d="M118.36,-50.1C105.22,-40.38 88.52,-28.03 77.44,-19.83"/>
<polygon fill="midnightblue" stroke="midnightblue" points="116.65,-53.19 126.77,-56.32 120.81,-47.56 116.65,-53.19"/>
</g>
<!-- Node151 -->
<g id="node4" class="node">
<title>Node151</title>
<g id="a_node4"><a xlink:href="spline4D__interpolation_8cu.html" target="_top" xlink:title="spline4D_interpolation.cu">
<polygon fill="none" stroke="black" points="149.5,-0.5 149.5,-19.5 275.5,-19.5 275.5,-0.5 149.5,-0.5"/>
<text text-anchor="middle" x="212.5" y="-7.5" font-family="Helvetica,sans-Serif" font-size="10.00">spline4D_interpolation.cu</text>
</a>
</g>
</g>
<!-- Node149&#45;&gt;Node151 -->
<g id="edge3" class="edge">
<title>Node149&#45;&gt;Node151</title>
<path fill="none" stroke="midnightblue" d="M158.53,-50.38C171.91,-40.62 189.06,-28.11 200.39,-19.83"/>
<polygon fill="midnightblue" stroke="midnightblue" points="156.4,-47.6 150.39,-56.32 160.53,-53.26 156.4,-47.6"/>
</g>
</g>
</svg>
