<?xml version="1.0" encoding="UTF-8" standalone="no"?>
<!DOCTYPE svg PUBLIC "-//W3C//DTD SVG 1.1//EN"
 "http://www.w3.org/Graphics/SVG/1.1/DTD/svg11.dtd">
<!-- Generated by graphviz version 5.0.0 (0)
 -->
<!-- Title: Spline2D.inl Pages: 1 -->
<svg width="1688pt" height="252pt"
 viewBox="0.00 0.00 1687.50 252.00" xmlns="http://www.w3.org/2000/svg" xmlns:xlink="http://www.w3.org/1999/xlink">
<g id="graph0" class="graph" transform="scale(1 1) rotate(0) translate(4 248)">
<title>Spline2D.inl</title>
<!-- Node61 -->
<g id="node1" class="node">
<title>Node61</title>
<polygon fill="#bfbfbf" stroke="black" points="917.5,-224.5 917.5,-243.5 986.5,-243.5 986.5,-224.5 917.5,-224.5"/>
<text text-anchor="middle" x="952" y="-231.5" font-family="Helvetica,sans-Serif" font-size="10.00">Spline2D.inl</text>
</g>
<!-- Node62 -->
<g id="node2" class="node">
<title>Node62</title>
<g id="a_node2"><a xlink:href="Spline_8h.html" target="_top" xlink:title="Spline.h">
<polygon fill="none" stroke="black" points="926,-168.5 926,-187.5 978,-187.5 978,-168.5 926,-168.5"/>
<text text-anchor="middle" x="952" y="-175.5" font-family="Helvetica,sans-Serif" font-size="10.00">Spline.h</text>
</a>
</g>
</g>
<!-- Node61&#45;&gt;Node62 -->
<g id="edge1" class="edge">
<title>Node61&#45;&gt;Node62</title>
<path fill="none" stroke="midnightblue" d="M952,-213.8C952,-204.91 952,-194.78 952,-187.75"/>
<polygon fill="midnightblue" stroke="midnightblue" points="948.5,-214.08 952,-224.08 955.5,-214.08 948.5,-214.08"/>
</g>
<!-- Node63 -->
<g id="node3" class="node">
<title>Node63</title>
<g id="a_node3"><a xlink:href="ConvolutionFunctor_8h.html" target="_top" xlink:title="ConvolutionFunctor.h">
<polygon fill="none" stroke="black" points="349.5,-112.5 349.5,-131.5 458.5,-131.5 458.5,-112.5 349.5,-112.5"/>
<text text-anchor="middle" x="404" y="-119.5" font-family="Helvetica,sans-Serif" font-size="10.00">ConvolutionFunctor.h</text>
</a>
</g>
</g>
<!-- Node62&#45;&gt;Node63 -->
<g id="edge2" class="edge">
<title>Node62&#45;&gt;Node63</title>
<path fill="none" stroke="midnightblue" d="M915.81,-173.43C822.01,-164.19 570.57,-139.41 458.82,-128.4"/>
<polygon fill="midnightblue" stroke="midnightblue" points="915.64,-176.93 925.94,-174.43 916.33,-169.97 915.64,-176.93"/>
</g>
<!-- Node70 -->
<g id="node10" class="node">
<title>Node70</title>
<g id="a_node10"><a xlink:href="Spline2DFunctor_8h.html" target="_top" xlink:title="Spline2DFunctor.h">
<polygon fill="none" stroke="black" points="727.5,-112.5 727.5,-131.5 824.5,-131.5 824.5,-112.5 727.5,-112.5"/>
<text text-anchor="middle" x="776" y="-119.5" font-family="Helvetica,sans-Serif" font-size="10.00">Spline2DFunctor.h</text>
</a>
</g>
</g>
<!-- Node62&#45;&gt;Node70 -->
<g id="edge9" class="edge">
<title>Node62&#45;&gt;Node70</title>
<path fill="none" stroke="midnightblue" d="M915.89,-165.92C882.73,-155.75 834.29,-140.88 803.99,-131.59"/>
<polygon fill="midnightblue" stroke="midnightblue" points="915.06,-169.33 925.65,-168.92 917.12,-162.64 915.06,-169.33"/>
</g>
<!-- Node74 -->
<g id="node14" class="node">
<title>Node74</title>
<g id="a_node14"><a xlink:href="Spline3DFunctor_8h.html" target="_top" xlink:title="Spline3DFunctor.h">
<polygon fill="none" stroke="black" points="903.5,-112.5 903.5,-131.5 1000.5,-131.5 1000.5,-112.5 903.5,-112.5"/>
<text text-anchor="middle" x="952" y="-119.5" font-family="Helvetica,sans-Serif" font-size="10.00">Spline3DFunctor.h</text>
</a>
</g>
</g>
<!-- Node62&#45;&gt;Node74 -->
<g id="edge13" class="edge">
<title>Node62&#45;&gt;Node74</title>
<path fill="none" stroke="midnightblue" d="M952,-157.8C952,-148.91 952,-138.78 952,-131.75"/>
<polygon fill="midnightblue" stroke="midnightblue" points="948.5,-158.08 952,-168.08 955.5,-158.08 948.5,-158.08"/>
</g>
<!-- Node78 -->
<g id="node18" class="node">
<title>Node78</title>
<g id="a_node18"><a xlink:href="Spline4DFunctor_8h.html" target="_top" xlink:title="Spline4DFunctor.h">
<polygon fill="none" stroke="black" points="1107.5,-112.5 1107.5,-131.5 1204.5,-131.5 1204.5,-112.5 1107.5,-112.5"/>
<text text-anchor="middle" x="1156" y="-119.5" font-family="Helvetica,sans-Serif" font-size="10.00">Spline4DFunctor.h</text>
</a>
</g>
</g>
<!-- Node62&#45;&gt;Node78 -->
<g id="edge17" class="edge">
<title>Node62&#45;&gt;Node78</title>
<path fill="none" stroke="midnightblue" d="M988.01,-167.47C1026.47,-157.29 1086.87,-141.3 1123.8,-131.52"/>
<polygon fill="midnightblue" stroke="midnightblue" points="987.02,-164.11 978.25,-170.05 988.81,-170.88 987.02,-164.11"/>
</g>
<!-- Node82 -->
<g id="node22" class="node">
<title>Node82</title>
<g id="a_node22"><a xlink:href="SplineFunctor_8h.html" target="_top" xlink:title="SplineFunctor.h">
<polygon fill="none" stroke="black" points="1357,-112.5 1357,-131.5 1441,-131.5 1441,-112.5 1357,-112.5"/>
<text text-anchor="middle" x="1399" y="-119.5" font-family="Helvetica,sans-Serif" font-size="10.00">SplineFunctor.h</text>
</a>
</g>
</g>
<!-- Node62&#45;&gt;Node82 -->
<g id="edge21" class="edge">
<title>Node62&#45;&gt;Node82</title>
<path fill="none" stroke="midnightblue" d="M988.39,-172.6C1070.44,-162.69 1269.51,-138.64 1356.79,-128.1"/>
<polygon fill="midnightblue" stroke="midnightblue" points="987.8,-169.15 978.29,-173.82 988.64,-176.1 987.8,-169.15"/>
</g>
<!-- Node64 -->
<g id="node4" class="node">
<title>Node64</title>
<g id="a_node4"><a xlink:href="convolute__functions_8inl.html" target="_top" xlink:title="convolute_functions.inl">
<polygon fill="none" stroke="black" points="141,-56.5 141,-75.5 257,-75.5 257,-56.5 141,-56.5"/>
<text text-anchor="middle" x="199" y="-63.5" font-family="Helvetica,sans-Serif" font-size="10.00">convolute_functions.inl</text>
</a>
</g>
</g>
<!-- Node63&#45;&gt;Node64 -->
<g id="edge3" class="edge">
<title>Node63&#45;&gt;Node64</title>
<path fill="none" stroke="midnightblue" d="M361.59,-109.83C322.89,-99.63 266.51,-84.78 231.33,-75.52"/>
<polygon fill="midnightblue" stroke="midnightblue" points="360.96,-113.28 371.52,-112.44 362.74,-106.51 360.96,-113.28"/>
</g>
<!-- Node67 -->
<g id="node7" class="node">
<title>Node67</title>
<g id="a_node7"><a xlink:href="fit__convoluted__pdfs_8inl.html" target="_top" xlink:title="fit_convoluted_pdfs.inl">
<polygon fill="none" stroke="black" points="347,-56.5 347,-75.5 461,-75.5 461,-56.5 347,-56.5"/>
<text text-anchor="middle" x="404" y="-63.5" font-family="Helvetica,sans-Serif" font-size="10.00">fit_convoluted_pdfs.inl</text>
</a>
</g>
</g>
<!-- Node63&#45;&gt;Node67 -->
<g id="edge6" class="edge">
<title>Node63&#45;&gt;Node67</title>
<path fill="none" stroke="midnightblue" d="M404,-101.8C404,-92.91 404,-82.78 404,-75.75"/>
<polygon fill="midnightblue" stroke="midnightblue" points="400.5,-102.08 404,-112.08 407.5,-102.08 400.5,-102.08"/>
</g>
<!-- Node65 -->
<g id="node5" class="node">
<title>Node65</title>
<g id="a_node5"><a xlink:href="convolute__functions_8cpp.html" target="_top" xlink:title="convolute_functions.cpp">
<polygon fill="none" stroke="black" points="0,-0.5 0,-19.5 122,-19.5 122,-0.5 0,-0.5"/>
<text text-anchor="middle" x="61" y="-7.5" font-family="Helvetica,sans-Serif" font-size="10.00">convolute_functions.cpp</text>
</a>
</g>
</g>
<!-- Node64&#45;&gt;Node65 -->
<g id="edge4" class="edge">
<title>Node64&#45;&gt;Node65</title>
<path fill="none" stroke="midnightblue" d="M167.75,-52.77C141.83,-42.63 105.64,-28.47 82.76,-19.52"/>
<polygon fill="midnightblue" stroke="midnightblue" points="166.55,-56.06 177.13,-56.44 169.1,-49.54 166.55,-56.06"/>
</g>
<!-- Node66 -->
<g id="node6" class="node">
<title>Node66</title>
<g id="a_node6"><a xlink:href="convolute__functions_8cu.html" target="_top" xlink:title="convolute_functions.cu">
<polygon fill="none" stroke="black" points="140.5,-0.5 140.5,-19.5 257.5,-19.5 257.5,-0.5 140.5,-0.5"/>
<text text-anchor="middle" x="199" y="-7.5" font-family="Helvetica,sans-Serif" font-size="10.00">convolute_functions.cu</text>
</a>
</g>
</g>
<!-- Node64&#45;&gt;Node66 -->
<g id="edge5" class="edge">
<title>Node64&#45;&gt;Node66</title>
<path fill="none" stroke="midnightblue" d="M199,-45.8C199,-36.91 199,-26.78 199,-19.75"/>
<polygon fill="midnightblue" stroke="midnightblue" points="195.5,-46.08 199,-56.08 202.5,-46.08 195.5,-46.08"/>
</g>
<!-- Node68 -->
<g id="node8" class="node">
<title>Node68</title>
<g id="a_node8"><a xlink:href="fit__convoluted__pdfs_8cpp.html" target="_top" xlink:title="fit_convoluted_pdfs.cpp">
<polygon fill="none" stroke="black" points="276,-0.5 276,-19.5 396,-19.5 396,-0.5 276,-0.5"/>
<text text-anchor="middle" x="336" y="-7.5" font-family="Helvetica,sans-Serif" font-size="10.00">fit_convoluted_pdfs.cpp</text>
</a>
</g>
</g>
<!-- Node67&#45;&gt;Node68 -->
<g id="edge7" class="edge">
<title>Node67&#45;&gt;Node68</title>
<path fill="none" stroke="midnightblue" d="M385.24,-50.1C373,-40.38 357.44,-28.03 347.12,-19.83"/>
<polygon fill="midnightblue" stroke="midnightblue" points="383.07,-52.85 393.07,-56.32 387.42,-47.36 383.07,-52.85"/>
</g>
<!-- Node69 -->
<g id="node9" class="node">
<title>Node69</title>
<g id="a_node9"><a xlink:href="fit__convoluted__pdfs_8cu.html" target="_top" xlink:title="fit_convoluted_pdfs.cu">
<polygon fill="none" stroke="black" points="414.5,-0.5 414.5,-19.5 529.5,-19.5 529.5,-0.5 414.5,-0.5"/>
<text text-anchor="middle" x="472" y="-7.5" font-family="Helvetica,sans-Serif" font-size="10.00">fit_convoluted_pdfs.cu</text>
</a>
</g>
</g>
<!-- Node67&#45;&gt;Node69 -->
<g id="edge8" class="edge">
<title>Node67&#45;&gt;Node69</title>
<path fill="none" stroke="midnightblue" d="M422.76,-50.1C435,-40.38 450.56,-28.03 460.88,-19.83"/>
<polygon fill="midnightblue" stroke="midnightblue" points="420.58,-47.36 414.93,-56.32 424.93,-52.85 420.58,-47.36"/>
</g>
<!-- Node71 -->
<g id="node11" class="node">
<title>Node71</title>
<g id="a_node11"><a xlink:href="spline2D__interpolation_8inl.html" target="_top" xlink:title="spline2D_interpolation.inl">
<polygon fill="none" stroke="black" points="697.5,-56.5 697.5,-75.5 822.5,-75.5 822.5,-56.5 697.5,-56.5"/>
<text text-anchor="middle" x="760" y="-63.5" font-family="Helvetica,sans-Serif" font-size="10.00">spline2D_interpolation.inl</text>
</a>
</g>
</g>
<!-- Node70&#45;&gt;Node71 -->
<g id="edge10" class="edge">
<title>Node70&#45;&gt;Node71</title>
<path fill="none" stroke="midnightblue" d="M770.49,-102.4C767.81,-93.36 764.72,-82.94 762.59,-75.75"/>
<polygon fill="midnightblue" stroke="midnightblue" points="767.16,-103.49 773.36,-112.08 773.87,-101.5 767.16,-103.49"/>
</g>
<!-- Node72 -->
<g id="node12" class="node">
<title>Node72</title>
<g id="a_node12"><a xlink:href="spline2D__interpolation_8cpp.html" target="_top" xlink:title="spline2D_interpolation.cpp">
<polygon fill="none" stroke="black" points="547.5,-0.5 547.5,-19.5 678.5,-19.5 678.5,-0.5 547.5,-0.5"/>
<text text-anchor="middle" x="613" y="-7.5" font-family="Helvetica,sans-Serif" font-size="10.00">spline2D_interpolation.cpp</text>
</a>
</g>
</g>
<!-- Node71&#45;&gt;Node72 -->
<g id="edge11" class="edge">
<title>Node71&#45;&gt;Node72</title>
<path fill="none" stroke="midnightblue" d="M727.08,-52.91C699.44,-42.75 660.66,-28.51 636.18,-19.52"/>
<polygon fill="midnightblue" stroke="midnightblue" points="726.11,-56.28 736.71,-56.44 728.53,-49.71 726.11,-56.28"/>
</g>
<!-- Node73 -->
<g id="node13" class="node">
<title>Node73</title>
<g id="a_node13"><a xlink:href="spline2D__interpolation_8cu.html" target="_top" xlink:title="spline2D_interpolation.cu">
<polygon fill="none" stroke="black" points="697,-0.5 697,-19.5 823,-19.5 823,-0.5 697,-0.5"/>
<text text-anchor="middle" x="760" y="-7.5" font-family="Helvetica,sans-Serif" font-size="10.00">spline2D_interpolation.cu</text>
</a>
</g>
</g>
<!-- Node71&#45;&gt;Node73 -->
<g id="edge12" class="edge">
<title>Node71&#45;&gt;Node73</title>
<path fill="none" stroke="midnightblue" d="M760,-45.8C760,-36.91 760,-26.78 760,-19.75"/>
<polygon fill="midnightblue" stroke="midnightblue" points="756.5,-46.08 760,-56.08 763.5,-46.08 756.5,-46.08"/>
</g>
<!-- Node75 -->
<g id="node15" class="node">
<title>Node75</title>
<g id="a_node15"><a xlink:href="spline3D__interpolation_8inl.html" target="_top" xlink:title="spline3D_interpolation.inl">
<polygon fill="none" stroke="black" points="889.5,-56.5 889.5,-75.5 1014.5,-75.5 1014.5,-56.5 889.5,-56.5"/>
<text text-anchor="middle" x="952" y="-63.5" font-family="Helvetica,sans-Serif" font-size="10.00">spline3D_interpolation.inl</text>
</a>
</g>
</g>
<!-- Node74&#45;&gt;Node75 -->
<g id="edge14" class="edge">
<title>Node74&#45;&gt;Node75</title>
<path fill="none" stroke="midnightblue" d="M952,-101.8C952,-92.91 952,-82.78 952,-75.75"/>
<polygon fill="midnightblue" stroke="midnightblue" points="948.5,-102.08 952,-112.08 955.5,-102.08 948.5,-102.08"/>
</g>
<!-- Node76 -->
<g id="node16" class="node">
<title>Node76</title>
<g id="a_node16"><a xlink:href="spline3D__interpolation_8cpp.html" target="_top" xlink:title="spline3D_interpolation.cpp">
<polygon fill="none" stroke="black" points="841.5,-0.5 841.5,-19.5 972.5,-19.5 972.5,-0.5 841.5,-0.5"/>
<text text-anchor="middle" x="907" y="-7.5" font-family="Helvetica,sans-Serif" font-size="10.00">spline3D_interpolation.cpp</text>
</a>
</g>
</g>
<!-- Node75&#45;&gt;Node76 -->
<g id="edge15" class="edge">
<title>Node75&#45;&gt;Node76</title>
<path fill="none" stroke="midnightblue" d="M937.95,-48.14C930.11,-38.74 920.67,-27.4 914.29,-19.75"/>
<polygon fill="midnightblue" stroke="midnightblue" points="935.48,-50.64 944.57,-56.08 940.86,-46.16 935.48,-50.64"/>
</g>
<!-- Node77 -->
<g id="node17" class="node">
<title>Node77</title>
<g id="a_node17"><a xlink:href="spline3D__interpolation_8cu.html" target="_top" xlink:title="spline3D_interpolation.cu">
<polygon fill="none" stroke="black" points="991,-0.5 991,-19.5 1117,-19.5 1117,-0.5 991,-0.5"/>
<text text-anchor="middle" x="1054" y="-7.5" font-family="Helvetica,sans-Serif" font-size="10.00">spline3D_interpolation.cu</text>
</a>
</g>
</g>
<!-- Node75&#45;&gt;Node77 -->
<g id="edge16" class="edge">
<title>Node75&#45;&gt;Node77</title>
<path fill="none" stroke="midnightblue" d="M977.33,-51.59C996.19,-41.61 1021.38,-28.27 1037.65,-19.65"/>
<polygon fill="midnightblue" stroke="midnightblue" points="975.59,-48.55 968.39,-56.32 978.86,-54.74 975.59,-48.55"/>
</g>
<!-- Node79 -->
<g id="node19" class="node">
<title>Node79</title>
<g id="a_node19"><a xlink:href="spline4D__interpolation_8inl.html" target="_top" xlink:title="spline4D_interpolation.inl">
<polygon fill="none" stroke="black" points="1138.5,-56.5 1138.5,-75.5 1263.5,-75.5 1263.5,-56.5 1138.5,-56.5"/>
<text text-anchor="middle" x="1201" y="-63.5" font-family="Helvetica,sans-Serif" font-size="10.00">spline4D_interpolation.inl</text>
</a>
</g>
</g>
<!-- Node78&#45;&gt;Node79 -->
<g id="edge18" class="edge">
<title>Node78&#45;&gt;Node79</title>
<path fill="none" stroke="midnightblue" d="M1170.05,-104.14C1177.89,-94.74 1187.33,-83.4 1193.71,-75.75"/>
<polygon fill="midnightblue" stroke="midnightblue" points="1167.14,-102.16 1163.43,-112.08 1172.52,-106.64 1167.14,-102.16"/>
</g>
<!-- Node80 -->
<g id="node20" class="node">
<title>Node80</title>
<g id="a_node20"><a xlink:href="spline4D__interpolation_8cpp.html" target="_top" xlink:title="spline4D_interpolation.cpp">
<polygon fill="none" stroke="black" points="1135.5,-0.5 1135.5,-19.5 1266.5,-19.5 1266.5,-0.5 1135.5,-0.5"/>
<text text-anchor="middle" x="1201" y="-7.5" font-family="Helvetica,sans-Serif" font-size="10.00">spline4D_interpolation.cpp</text>
</a>
</g>
</g>
<!-- Node79&#45;&gt;Node80 -->
<g id="edge19" class="edge">
<title>Node79&#45;&gt;Node80</title>
<path fill="none" stroke="midnightblue" d="M1201,-45.8C1201,-36.91 1201,-26.78 1201,-19.75"/>
<polygon fill="midnightblue" stroke="midnightblue" points="1197.5,-46.08 1201,-56.08 1204.5,-46.08 1197.5,-46.08"/>
</g>
<!-- Node81 -->
<g id="node21" class="node">
<title>Node81</title>
<g id="a_node21"><a xlink:href="spline4D__interpolation_8cu.html" target="_top" xlink:title="spline4D_interpolation.cu">
<polygon fill="none" stroke="black" points="1285,-0.5 1285,-19.5 1411,-19.5 1411,-0.5 1285,-0.5"/>
<text text-anchor="middle" x="1348" y="-7.5" font-family="Helvetica,sans-Serif" font-size="10.00">spline4D_interpolation.cu</text>
</a>
</g>
</g>
<!-- Node79&#45;&gt;Node81 -->
<g id="edge20" class="edge">
<title>Node79&#45;&gt;Node81</title>
<path fill="none" stroke="midnightblue" d="M1233.92,-52.91C1261.56,-42.75 1300.34,-28.51 1324.82,-19.52"/>
<polygon fill="midnightblue" stroke="midnightblue" points="1232.47,-49.71 1224.29,-56.44 1234.89,-56.28 1232.47,-49.71"/>
</g>
<!-- Node83 -->
<g id="node23" class="node">
<title>Node83</title>
<g id="a_node23"><a xlink:href="spline__interpolation_8inl.html" target="_top" xlink:title="spline_interpolation.inl">
<polygon fill="none" stroke="black" points="1432.5,-56.5 1432.5,-75.5 1545.5,-75.5 1545.5,-56.5 1432.5,-56.5"/>
<text text-anchor="middle" x="1489" y="-63.5" font-family="Helvetica,sans-Serif" font-size="10.00">spline_interpolation.inl</text>
</a>
</g>
</g>
<!-- Node82&#45;&gt;Node83 -->
<g id="edge22" class="edge">
<title>Node82&#45;&gt;Node83</title>
<path fill="none" stroke="midnightblue" d="M1422.04,-107.18C1438.6,-97.24 1460.42,-84.15 1474.58,-75.65"/>
<polygon fill="midnightblue" stroke="midnightblue" points="1420.23,-104.18 1413.46,-112.32 1423.84,-110.18 1420.23,-104.18"/>
</g>
<!-- Node84 -->
<g id="node24" class="node">
<title>Node84</title>
<g id="a_node24"><a xlink:href="spline__interpolation_8cpp.html" target="_top" xlink:title="spline_interpolation.cpp">
<polygon fill="none" stroke="black" points="1429.5,-0.5 1429.5,-19.5 1548.5,-19.5 1548.5,-0.5 1429.5,-0.5"/>
<text text-anchor="middle" x="1489" y="-7.5" font-family="Helvetica,sans-Serif" font-size="10.00">spline_interpolation.cpp</text>
</a>
</g>
</g>
<!-- Node83&#45;&gt;Node84 -->
<g id="edge23" class="edge">
<title>Node83&#45;&gt;Node84</title>
<path fill="none" stroke="midnightblue" d="M1489,-45.8C1489,-36.91 1489,-26.78 1489,-19.75"/>
<polygon fill="midnightblue" stroke="midnightblue" points="1485.5,-46.08 1489,-56.08 1492.5,-46.08 1485.5,-46.08"/>
</g>
<!-- Node85 -->
<g id="node25" class="node">
<title>Node85</title>
<g id="a_node25"><a xlink:href="spline__interpolation_8cu.html" target="_top" xlink:title="spline_interpolation.cu">
<polygon fill="none" stroke="black" points="1566.5,-0.5 1566.5,-19.5 1679.5,-19.5 1679.5,-0.5 1566.5,-0.5"/>
<text text-anchor="middle" x="1623" y="-7.5" font-family="Helvetica,sans-Serif" font-size="10.00">spline_interpolation.cu</text>
</a>
</g>
</g>
<!-- Node83&#45;&gt;Node85 -->
<g id="edge24" class="edge">
<title>Node83&#45;&gt;Node85</title>
<path fill="none" stroke="midnightblue" d="M1519.68,-52.64C1544.82,-42.5 1579.75,-28.43 1601.87,-19.52"/>
<polygon fill="midnightblue" stroke="midnightblue" points="1518.2,-49.46 1510.23,-56.44 1520.82,-55.95 1518.2,-49.46"/>
</g>
</g>
</svg>
