<?xml version="1.0" encoding="UTF-8" standalone="no"?>
<!DOCTYPE svg PUBLIC "-//W3C//DTD SVG 1.1//EN"
 "http://www.w3.org/Graphics/SVG/1.1/DTD/svg11.dtd">
<!-- Generated by graphviz version 2.38.0 (20140413.2041)
 -->
<!-- Title: strided_iterator.h Pages: 1 -->
<svg width="538pt" height="106pt"
 viewBox="0.00 0.00 537.50 106.00" xmlns="http://www.w3.org/2000/svg" xmlns:xlink="http://www.w3.org/1999/xlink">
<g id="graph0" class="graph" transform="scale(1 1) rotate(0) translate(4 102)">
<title>strided_iterator.h</title>
<!-- Node0 -->
<g id="node1" class="node"><title>Node0</title>
<polygon fill="#bfbfbf" stroke="black" points="224,-78.5 224,-97.5 313,-97.5 313,-78.5 224,-78.5"/>
<text text-anchor="middle" x="268.5" y="-85.5" font-family="Helvetica,sans-Serif" font-size="10.00">strided_iterator.h</text>
</g>
<!-- Node1 -->
<g id="node2" class="node"><title>Node1</title>
<polygon fill="none" stroke="#bfbfbf" points="0,-0.5 0,-41.5 117,-41.5 117,-0.5 0,-0.5"/>
<text text-anchor="start" x="8" y="-29.5" font-family="Helvetica,sans-Serif" font-size="10.00">hydra/detail/external</text>
<text text-anchor="start" x="8" y="-18.5" font-family="Helvetica,sans-Serif" font-size="10.00">/thrust/iterator/counting</text>
<text text-anchor="middle" x="58.5" y="-7.5" font-family="Helvetica,sans-Serif" font-size="10.00">_iterator.h</text>
</g>
<!-- Node0&#45;&gt;Node1 -->
<g id="edge1" class="edge"><title>Node0&#45;&gt;Node1</title>
<path fill="none" stroke="midnightblue" d="M240.614,-78.3685C211.712,-69.4226 165.437,-55.0996 126.768,-43.1305"/>
<polygon fill="midnightblue" stroke="midnightblue" points="127.703,-39.7563 117.116,-40.1429 125.634,-46.4433 127.703,-39.7563"/>
</g>
<!-- Node2 -->
<g id="node3" class="node"><title>Node2</title>
<polygon fill="none" stroke="#bfbfbf" points="135.5,-0.5 135.5,-41.5 257.5,-41.5 257.5,-0.5 135.5,-0.5"/>
<text text-anchor="start" x="143.5" y="-29.5" font-family="Helvetica,sans-Serif" font-size="10.00">hydra/detail/external</text>
<text text-anchor="start" x="143.5" y="-18.5" font-family="Helvetica,sans-Serif" font-size="10.00">/thrust/iterator/transform</text>
<text text-anchor="middle" x="196.5" y="-7.5" font-family="Helvetica,sans-Serif" font-size="10.00">_iterator.h</text>
</g>
<!-- Node0&#45;&gt;Node2 -->
<g id="edge2" class="edge"><title>Node0&#45;&gt;Node2</title>
<path fill="none" stroke="midnightblue" d="M258.79,-78.2338C250.288,-70.5588 237.486,-59.0009 225.694,-48.3557"/>
<polygon fill="midnightblue" stroke="midnightblue" points="227.915,-45.6452 218.147,-41.5421 223.224,-50.8411 227.915,-45.6452"/>
</g>
<!-- Node3 -->
<g id="node4" class="node"><title>Node3</title>
<polygon fill="none" stroke="#bfbfbf" points="276,-0.5 276,-41.5 407,-41.5 407,-0.5 276,-0.5"/>
<text text-anchor="start" x="284" y="-29.5" font-family="Helvetica,sans-Serif" font-size="10.00">hydra/detail/external</text>
<text text-anchor="start" x="284" y="-18.5" font-family="Helvetica,sans-Serif" font-size="10.00">/thrust/iterator/permutation</text>
<text text-anchor="middle" x="341.5" y="-7.5" font-family="Helvetica,sans-Serif" font-size="10.00">_iterator.h</text>
</g>
<!-- Node0&#45;&gt;Node3 -->
<g id="edge3" class="edge"><title>Node0&#45;&gt;Node3</title>
<path fill="none" stroke="midnightblue" d="M278.345,-78.2338C286.965,-70.5588 299.945,-59.0009 311.901,-48.3557"/>
<polygon fill="midnightblue" stroke="midnightblue" points="314.412,-50.8061 319.553,-41.5421 309.757,-45.5781 314.412,-50.8061"/>
</g>
<!-- Node4 -->
<g id="node5" class="node"><title>Node4</title>
<polygon fill="none" stroke="#bfbfbf" points="425.5,-6 425.5,-36 529.5,-36 529.5,-6 425.5,-6"/>
<text text-anchor="start" x="433.5" y="-24" font-family="Helvetica,sans-Serif" font-size="10.00">hydra/detail/external</text>
<text text-anchor="middle" x="477.5" y="-13" font-family="Helvetica,sans-Serif" font-size="10.00">/thrust/functional.h</text>
</g>
<!-- Node0&#45;&gt;Node4 -->
<g id="edge4" class="edge"><title>Node0&#45;&gt;Node4</title>
<path fill="none" stroke="midnightblue" d="M297.206,-78.4725C327.065,-69.5554 375.142,-55.0657 416.5,-42 419.383,-41.0893 422.339,-40.1471 425.322,-39.1902"/>
<polygon fill="midnightblue" stroke="midnightblue" points="426.436,-42.5084 434.877,-36.105 424.285,-35.847 426.436,-42.5084"/>
</g>
</g>
</svg>
