<?xml version="1.0" encoding="UTF-8" standalone="no"?>
<!DOCTYPE svg PUBLIC "-//W3C//DTD SVG 1.1//EN"
 "http://www.w3.org/Graphics/SVG/1.1/DTD/svg11.dtd">
<!-- Generated by graphviz version 2.38.0 (20140413.2041)
 -->
<!-- Title: hydra::detail::Caster&lt; TypeIn, TypeOut &gt; Pages: 1 -->
<svg width="145pt" height="193pt"
 viewBox="0.00 0.00 145.00 193.00" xmlns="http://www.w3.org/2000/svg" xmlns:xlink="http://www.w3.org/1999/xlink">
<g id="graph0" class="graph" transform="scale(1 1) rotate(0) translate(4 189)">
<title>hydra::detail::Caster&lt; TypeIn, TypeOut &gt;</title>
<!-- Node2 -->
<g id="node1" class="node"><title>Node2</title>
<polygon fill="#bfbfbf" stroke="black" points="14.5,-0.5 14.5,-68.5 122.5,-68.5 122.5,-0.5 14.5,-0.5"/>
<text text-anchor="start" x="22.5" y="-56.5" font-family="Helvetica,sans-Serif" font-size="10.00">hydra::detail::Caster</text>
<text text-anchor="middle" x="68.5" y="-45.5" font-family="Helvetica,sans-Serif" font-size="10.00">&lt; TypeIn, TypeOut &gt;</text>
<polyline fill="none" stroke="black" points="14.5,-38.5 122.5,-38.5 "/>
<text text-anchor="middle" x="68.5" y="-26.5" font-family="Helvetica,sans-Serif" font-size="10.00"> </text>
<polyline fill="none" stroke="black" points="14.5,-19.5 122.5,-19.5 "/>
<text text-anchor="start" x="22.5" y="-7.5" font-family="Helvetica,sans-Serif" font-size="10.00">+ operator()()</text>
</g>
<!-- Node3 -->
<g id="node2" class="node"><title>Node3</title>
<polygon fill="none" stroke="#bfbfbf" points="0,-105.5 0,-184.5 137,-184.5 137,-105.5 0,-105.5"/>
<text text-anchor="start" x="8" y="-172.5" font-family="Helvetica,sans-Serif" font-size="10.00">HYDRA_EXTERNAL_NS::</text>
<text text-anchor="start" x="8" y="-161.5" font-family="Helvetica,sans-Serif" font-size="10.00">thrust::unary_function</text>
<text text-anchor="middle" x="68.5" y="-150.5" font-family="Helvetica,sans-Serif" font-size="10.00">&lt; TypeIn, TypeOut &gt;</text>
<polyline fill="none" stroke="#bfbfbf" points="0,-143.5 137,-143.5 "/>
<text text-anchor="middle" x="68.5" y="-131.5" font-family="Helvetica,sans-Serif" font-size="10.00"> </text>
<polyline fill="none" stroke="#bfbfbf" points="0,-124.5 137,-124.5 "/>
<text text-anchor="middle" x="68.5" y="-112.5" font-family="Helvetica,sans-Serif" font-size="10.00"> </text>
</g>
<!-- Node3&#45;&gt;Node2 -->
<g id="edge1" class="edge"><title>Node3&#45;&gt;Node2</title>
<path fill="none" stroke="midnightblue" d="M68.5,-95.3492C68.5,-86.2824 68.5,-77.0048 68.5,-68.5439"/>
<polygon fill="none" stroke="midnightblue" points="65.0001,-95.4414 68.5,-105.441 72.0001,-95.4415 65.0001,-95.4414"/>
</g>
</g>
</svg>
