<?xml version="1.0" encoding="UTF-8" standalone="no"?>
<!DOCTYPE svg PUBLIC "-//W3C//DTD SVG 1.1//EN"
 "http://www.w3.org/Graphics/SVG/1.1/DTD/svg11.dtd">
<!-- Generated by graphviz version 2.38.0 (20140413.2041)
 -->
<!-- Title: hydra::detail::RndTrial&lt; T, GRND, FUNCTOR, N &gt; Pages: 1 -->
<svg width="187pt" height="215pt"
 viewBox="0.00 0.00 187.00 215.00" xmlns="http://www.w3.org/2000/svg" xmlns:xlink="http://www.w3.org/1999/xlink">
<g id="graph0" class="graph" transform="scale(1 1) rotate(0) translate(4 211)">
<title>hydra::detail::RndTrial&lt; T, GRND, FUNCTOR, N &gt;</title>
<!-- Node1 -->
<g id="node1" class="node"><title>Node1</title>
<polygon fill="#bfbfbf" stroke="black" points="33,-0.5 33,-90.5 179,-90.5 179,-0.5 33,-0.5"/>
<text text-anchor="start" x="41" y="-78.5" font-family="Helvetica,sans-Serif" font-size="10.00">hydra::detail::RndTrial</text>
<text text-anchor="middle" x="106" y="-67.5" font-family="Helvetica,sans-Serif" font-size="10.00">&lt; T, GRND, FUNCTOR, N &gt;</text>
<polyline fill="none" stroke="black" points="33,-60.5 179,-60.5 "/>
<text text-anchor="middle" x="106" y="-48.5" font-family="Helvetica,sans-Serif" font-size="10.00"> </text>
<polyline fill="none" stroke="black" points="33,-41.5 179,-41.5 "/>
<text text-anchor="start" x="41" y="-29.5" font-family="Helvetica,sans-Serif" font-size="10.00">+ RndTrial()</text>
<text text-anchor="start" x="41" y="-18.5" font-family="Helvetica,sans-Serif" font-size="10.00">+ RndTrial()</text>
<text text-anchor="start" x="41" y="-7.5" font-family="Helvetica,sans-Serif" font-size="10.00">+ operator()()</text>
</g>
<!-- Node2 -->
<g id="node2" class="node"><title>Node2</title>
<polygon fill="none" stroke="#bfbfbf" points="0,-149.5 0,-206.5 66,-206.5 66,-149.5 0,-149.5"/>
<text text-anchor="middle" x="33" y="-194.5" font-family="Helvetica,sans-Serif" font-size="10.00">FUNCTOR</text>
<polyline fill="none" stroke="#bfbfbf" points="0,-187.5 66,-187.5 "/>
<text text-anchor="middle" x="33" y="-175.5" font-family="Helvetica,sans-Serif" font-size="10.00"> </text>
<polyline fill="none" stroke="#bfbfbf" points="0,-168.5 66,-168.5 "/>
<text text-anchor="middle" x="33" y="-156.5" font-family="Helvetica,sans-Serif" font-size="10.00"> </text>
</g>
<!-- Node2&#45;&gt;Node1 -->
<g id="edge1" class="edge"><title>Node2&#45;&gt;Node1</title>
<path fill="none" stroke="#404040" d="M39.9875,-149.282C43.7835,-136.574 49.1233,-121.574 56,-109 57.5408,-106.183 59.2109,-103.365 60.9743,-100.569"/>
<polygon fill="none" stroke="#404040" points="60.9965,-100.536 61.0335,-93.3248 67.704,-90.5855 67.6671,-97.7965 60.9965,-100.536"/>
<text text-anchor="middle" x="79" y="-117.5" font-family="Helvetica,sans-Serif" font-size="10.00"> +fFunctor</text>
</g>
<!-- Node3 -->
<g id="node3" class="node"><title>Node3</title>
<polygon fill="none" stroke="#bfbfbf" points="84.5,-149.5 84.5,-206.5 127.5,-206.5 127.5,-149.5 84.5,-149.5"/>
<text text-anchor="middle" x="106" y="-194.5" font-family="Helvetica,sans-Serif" font-size="10.00">size_t</text>
<polyline fill="none" stroke="#bfbfbf" points="84.5,-187.5 127.5,-187.5 "/>
<text text-anchor="middle" x="106" y="-175.5" font-family="Helvetica,sans-Serif" font-size="10.00"> </text>
<polyline fill="none" stroke="#bfbfbf" points="84.5,-168.5 127.5,-168.5 "/>
<text text-anchor="middle" x="106" y="-156.5" font-family="Helvetica,sans-Serif" font-size="10.00"> </text>
</g>
<!-- Node3&#45;&gt;Node1 -->
<g id="edge2" class="edge"><title>Node3&#45;&gt;Node1</title>
<path fill="none" stroke="#404040" d="M106,-149.324C106,-135.731 106,-118.837 106,-102.696"/>
<polygon fill="none" stroke="#404040" points="106,-102.568 102,-96.5677 106,-90.5676 110,-96.5676 106,-102.568"/>
<text text-anchor="middle" x="123.5" y="-117.5" font-family="Helvetica,sans-Serif" font-size="10.00"> +fSeed</text>
</g>
<!-- Node4 -->
<g id="node4" class="node"><title>Node4</title>
<polygon fill="none" stroke="#bfbfbf" points="149.5,-149.5 149.5,-206.5 178.5,-206.5 178.5,-149.5 149.5,-149.5"/>
<text text-anchor="middle" x="164" y="-194.5" font-family="Helvetica,sans-Serif" font-size="10.00">T</text>
<polyline fill="none" stroke="#bfbfbf" points="149.5,-187.5 178.5,-187.5 "/>
<text text-anchor="middle" x="164" y="-175.5" font-family="Helvetica,sans-Serif" font-size="10.00"> </text>
<polyline fill="none" stroke="#bfbfbf" points="149.5,-168.5 178.5,-168.5 "/>
<text text-anchor="middle" x="164" y="-156.5" font-family="Helvetica,sans-Serif" font-size="10.00"> </text>
</g>
<!-- Node4&#45;&gt;Node1 -->
<g id="edge3" class="edge"><title>Node4&#45;&gt;Node1</title>
<path fill="none" stroke="#404040" d="M156.5,-149.378C152.729,-136.827 147.739,-121.929 142,-109 140.906,-106.536 139.742,-104.044 138.526,-101.546"/>
<polygon fill="none" stroke="#404040" points="138.404,-101.309 132.108,-97.7938 132.931,-90.6298 139.227,-94.1447 138.404,-101.309"/>
<text text-anchor="middle" x="165" y="-123" font-family="Helvetica,sans-Serif" font-size="10.00"> +fMin</text>
<text text-anchor="middle" x="165" y="-112" font-family="Helvetica,sans-Serif" font-size="10.00">+fMax</text>
</g>
</g>
</svg>
