<?xml version="1.0" encoding="UTF-8" standalone="no"?>
<!DOCTYPE svg PUBLIC "-//W3C//DTD SVG 1.1//EN"
 "http://www.w3.org/Graphics/SVG/1.1/DTD/svg11.dtd">
<!-- Generated by graphviz version 5.0.0 (0)
 -->
<!-- Title: hydra::detail::EvalMothers&lt; N, GRND, FUNCTOR, FUNCTORS &gt; Pages: 1 -->
<svg width="330pt" height="270pt"
 viewBox="0.00 0.00 330.00 270.00" xmlns="http://www.w3.org/2000/svg" xmlns:xlink="http://www.w3.org/1999/xlink">
<g id="graph0" class="graph" transform="scale(1 1) rotate(0) translate(4 266)">
<title>hydra::detail::EvalMothers&lt; N, GRND, FUNCTOR, FUNCTORS &gt;</title>
<!-- Node1 -->
<g id="node1" class="node">
<title>Node1</title>
<polygon fill="#bfbfbf" stroke="black" points="119,-0.5 119,-134.5 315,-134.5 315,-0.5 119,-0.5"/>
<text text-anchor="start" x="127" y="-122.5" font-family="Helvetica,sans-Serif" font-size="10.00">hydra::detail::EvalMothers</text>
<text text-anchor="middle" x="217" y="-111.5" font-family="Helvetica,sans-Serif" font-size="10.00">&lt; N, GRND, FUNCTOR, FUNCTORS &gt;</text>
<polyline fill="none" stroke="black" points="119,-104.5 315,-104.5 "/>
<text text-anchor="middle" x="217" y="-92.5" font-family="Helvetica,sans-Serif" font-size="10.00"> </text>
<polyline fill="none" stroke="black" points="119,-85.5 315,-85.5 "/>
<text text-anchor="start" x="127" y="-73.5" font-family="Helvetica,sans-Serif" font-size="10.00">+ EvalMothers()</text>
<text text-anchor="start" x="127" y="-62.5" font-family="Helvetica,sans-Serif" font-size="10.00">+ EvalMothers()</text>
<text text-anchor="start" x="127" y="-51.5" font-family="Helvetica,sans-Serif" font-size="10.00">+ bbsort()</text>
<text text-anchor="start" x="127" y="-40.5" font-family="Helvetica,sans-Serif" font-size="10.00">+ operator()()</text>
<text text-anchor="start" x="127" y="-29.5" font-family="Helvetica,sans-Serif" font-size="10.00">+ process()</text>
<text text-anchor="start" x="127" y="-18.5" font-family="Helvetica,sans-Serif" font-size="10.00">+ hash()</text>
<text text-anchor="start" x="127" y="-7.5" font-family="Helvetica,sans-Serif" font-size="10.00">+ pdk()</text>
</g>
<!-- Node2 -->
<g id="node2" class="node">
<title>Node2</title>
<polygon fill="none" stroke="#bfbfbf" points="0,-204.5 0,-261.5 176,-261.5 176,-204.5 0,-204.5"/>
<text text-anchor="middle" x="88" y="-249.5" font-family="Helvetica,sans-Serif" font-size="10.00">tuple&lt; FUNCTOR, FUNCTORS... &gt;</text>
<polyline fill="none" stroke="#bfbfbf" points="0,-242.5 176,-242.5 "/>
<text text-anchor="middle" x="88" y="-230.5" font-family="Helvetica,sans-Serif" font-size="10.00"> </text>
<polyline fill="none" stroke="#bfbfbf" points="0,-223.5 176,-223.5 "/>
<text text-anchor="middle" x="88" y="-211.5" font-family="Helvetica,sans-Serif" font-size="10.00"> </text>
</g>
<!-- Node2&#45;&gt;Node1 -->
<g id="edge1" class="edge">
<title>Node2&#45;&gt;Node1</title>
<path fill="none" stroke="#404040" d="M109.88,-204.26C123.03,-187.6 140.46,-165.51 157.43,-144"/>
<polygon fill="none" stroke="#404040" points="157.48,-143.93 158.06,-136.74 164.92,-134.51 164.34,-141.7 157.48,-143.93"/>
<text text-anchor="middle" x="173.5" y="-167" font-family="Helvetica,sans-Serif" font-size="10.00"> +fFunctors</text>
</g>
<!-- Node3 -->
<g id="node3" class="node">
<title>Node3</title>
<g id="a_node3"><a xlink:href="namespace_3globalScope_4.html#classdouble" target="_top" xlink:title="{double\n||}">
<polygon fill="none" stroke="black" points="194.5,-204.5 194.5,-261.5 239.5,-261.5 239.5,-204.5 194.5,-204.5"/>
<text text-anchor="middle" x="217" y="-249.5" font-family="Helvetica,sans-Serif" font-size="10.00">double</text>
<polyline fill="none" stroke="black" points="194.5,-242.5 239.5,-242.5 "/>
<text text-anchor="middle" x="217" y="-230.5" font-family="Helvetica,sans-Serif" font-size="10.00"> </text>
<polyline fill="none" stroke="black" points="194.5,-223.5 239.5,-223.5 "/>
<text text-anchor="middle" x="217" y="-211.5" font-family="Helvetica,sans-Serif" font-size="10.00"> </text>
</a>
</g>
</g>
<!-- Node3&#45;&gt;Node1 -->
<g id="edge2" class="edge">
<title>Node3&#45;&gt;Node1</title>
<path fill="none" stroke="#404040" d="M217,-204.26C217,-188.27 217,-167.28 217,-146.61"/>
<polygon fill="none" stroke="#404040" points="217,-146.51 213,-140.51 217,-134.51 221,-140.51 217,-146.51"/>
<text text-anchor="middle" x="246" y="-178" font-family="Helvetica,sans-Serif" font-size="10.00"> +fECM</text>
<text text-anchor="middle" x="246" y="-167" font-family="Helvetica,sans-Serif" font-size="10.00">+fMasses</text>
<text text-anchor="middle" x="246" y="-156" font-family="Helvetica,sans-Serif" font-size="10.00">+fMaxWeight</text>
</g>
<!-- Node4 -->
<g id="node4" class="node">
<title>Node4</title>
<polygon fill="none" stroke="#bfbfbf" points="276.5,-204.5 276.5,-261.5 319.5,-261.5 319.5,-204.5 276.5,-204.5"/>
<text text-anchor="middle" x="298" y="-249.5" font-family="Helvetica,sans-Serif" font-size="10.00">size_t</text>
<polyline fill="none" stroke="#bfbfbf" points="276.5,-242.5 319.5,-242.5 "/>
<text text-anchor="middle" x="298" y="-230.5" font-family="Helvetica,sans-Serif" font-size="10.00"> </text>
<polyline fill="none" stroke="#bfbfbf" points="276.5,-223.5 319.5,-223.5 "/>
<text text-anchor="middle" x="298" y="-211.5" font-family="Helvetica,sans-Serif" font-size="10.00"> </text>
</g>
<!-- Node4&#45;&gt;Node1 -->
<g id="edge3" class="edge">
<title>Node4&#45;&gt;Node1</title>
<path fill="none" stroke="#404040" d="M292.74,-204.5C289.19,-188.93 283.71,-169.35 276,-153 274.78,-150.41 273.48,-147.8 272.11,-145.21"/>
<polygon fill="none" stroke="#404040" points="272.03,-145.06 265.61,-141.78 266.18,-134.59 272.6,-137.88 272.03,-145.06"/>
<text text-anchor="middle" x="304.5" y="-167" font-family="Helvetica,sans-Serif" font-size="10.00"> +fSeed</text>
</g>
</g>
</svg>
