<?xml version="1.0" encoding="UTF-8" standalone="no"?>
<!DOCTYPE svg PUBLIC "-//W3C//DTD SVG 1.1//EN"
 "http://www.w3.org/Graphics/SVG/1.1/DTD/svg11.dtd">
<!-- Generated by graphviz version 5.0.0 (0)
 -->
<!-- Title: hydra::detail::random::is_callable&lt; T &gt; Pages: 1 -->
<svg width="223pt" height="259pt"
 viewBox="0.00 0.00 223.00 259.00" xmlns="http://www.w3.org/2000/svg" xmlns:xlink="http://www.w3.org/1999/xlink">
<g id="graph0" class="graph" transform="scale(1 1) rotate(0) translate(4 255)">
<title>hydra::detail::random::is_callable&lt; T &gt;</title>
<!-- Node2 -->
<g id="node1" class="node">
<title>Node2</title>
<polygon fill="#bfbfbf" stroke="black" points="53.5,-0.5 53.5,-68.5 161.5,-68.5 161.5,-0.5 53.5,-0.5"/>
<text text-anchor="start" x="61.5" y="-56.5" font-family="Helvetica,sans-Serif" font-size="10.00">hydra::detail::random</text>
<text text-anchor="middle" x="107.5" y="-45.5" font-family="Helvetica,sans-Serif" font-size="10.00">::is_callable&lt; T &gt;</text>
<polyline fill="none" stroke="black" points="53.5,-38.5 161.5,-38.5 "/>
<text text-anchor="middle" x="107.5" y="-26.5" font-family="Helvetica,sans-Serif" font-size="10.00"> </text>
<polyline fill="none" stroke="black" points="53.5,-19.5 161.5,-19.5 "/>
<text text-anchor="middle" x="107.5" y="-7.5" font-family="Helvetica,sans-Serif" font-size="10.00"> </text>
</g>
<!-- Node3 -->
<g id="node2" class="node">
<title>Node3</title>
<polygon fill="none" stroke="#bfbfbf" points="0,-105.5 0,-250.5 215,-250.5 215,-105.5 0,-105.5"/>
<text text-anchor="start" x="8" y="-238.5" font-family="Helvetica,sans-Serif" font-size="10.00">std::conditional::type</text>
<text text-anchor="start" x="8" y="-227.5" font-family="Helvetica,sans-Serif" font-size="10.00">&lt;(hydra::detail::is_hydra</text>
<text text-anchor="start" x="8" y="-216.5" font-family="Helvetica,sans-Serif" font-size="10.00">_composite_functor&lt; T &gt;::</text>
<text text-anchor="start" x="8" y="-205.5" font-family="Helvetica,sans-Serif" font-size="10.00">value||hydra::detail::is_hydra</text>
<text text-anchor="start" x="8" y="-194.5" font-family="Helvetica,sans-Serif" font-size="10.00">_functor&lt; T &gt;::value||hydra::</text>
<text text-anchor="start" x="8" y="-183.5" font-family="Helvetica,sans-Serif" font-size="10.00">detail::is_hydra_lambda&lt; T &gt;::</text>
<text text-anchor="start" x="8" y="-172.5" font-family="Helvetica,sans-Serif" font-size="10.00">value) &amp;&amp;!hydra::detail::is_iterable</text>
<text text-anchor="start" x="8" y="-161.5" font-family="Helvetica,sans-Serif" font-size="10.00">&lt; T &gt;::value &amp;&amp;!hydra::detail::is_iterator</text>
<text text-anchor="middle" x="107.5" y="-150.5" font-family="Helvetica,sans-Serif" font-size="10.00">&lt; T &gt;::value, std::true_type, std::false_type &gt;</text>
<polyline fill="none" stroke="#bfbfbf" points="0,-143.5 215,-143.5 "/>
<text text-anchor="middle" x="107.5" y="-131.5" font-family="Helvetica,sans-Serif" font-size="10.00"> </text>
<polyline fill="none" stroke="#bfbfbf" points="0,-124.5 215,-124.5 "/>
<text text-anchor="middle" x="107.5" y="-112.5" font-family="Helvetica,sans-Serif" font-size="10.00"> </text>
</g>
<!-- Node3&#45;&gt;Node2 -->
<g id="edge1" class="edge">
<title>Node3&#45;&gt;Node2</title>
<path fill="none" stroke="midnightblue" d="M107.5,-95.19C107.5,-85.83 107.5,-76.73 107.5,-68.58"/>
<polygon fill="none" stroke="midnightblue" points="104,-95.42 107.5,-105.42 111,-95.42 104,-95.42"/>
</g>
</g>
</svg>
