<?xml version="1.0" encoding="UTF-8" standalone="no"?>
<!DOCTYPE svg PUBLIC "-//W3C//DTD SVG 1.1//EN"
 "http://www.w3.org/Graphics/SVG/1.1/DTD/svg11.dtd">
<!-- Generated by graphviz version 5.0.0 (0)
 -->
<!-- Title: hydra::detail::GetGlobalBin&lt; N, T &gt; Pages: 1 -->
<svg width="306pt" height="281pt"
 viewBox="0.00 0.00 306.00 281.00" xmlns="http://www.w3.org/2000/svg" xmlns:xlink="http://www.w3.org/1999/xlink">
<g id="graph0" class="graph" transform="scale(1 1) rotate(0) translate(4 277)">
<title>hydra::detail::GetGlobalBin&lt; N, T &gt;</title>
<!-- Node2 -->
<g id="node1" class="node">
<title>Node2</title>
<polygon fill="#bfbfbf" stroke="black" points="100.5,-0.5 100.5,-134.5 219.5,-134.5 219.5,-0.5 100.5,-0.5"/>
<text text-anchor="start" x="108.5" y="-122.5" font-family="Helvetica,sans-Serif" font-size="10.00">hydra::detail::GetGlobal</text>
<text text-anchor="middle" x="160" y="-111.5" font-family="Helvetica,sans-Serif" font-size="10.00">Bin&lt; N, T &gt;</text>
<polyline fill="none" stroke="black" points="100.5,-104.5 219.5,-104.5 "/>
<text text-anchor="middle" x="160" y="-92.5" font-family="Helvetica,sans-Serif" font-size="10.00"> </text>
<polyline fill="none" stroke="black" points="100.5,-85.5 219.5,-85.5 "/>
<text text-anchor="start" x="108.5" y="-73.5" font-family="Helvetica,sans-Serif" font-size="10.00">+ GetGlobalBin()</text>
<text text-anchor="start" x="108.5" y="-62.5" font-family="Helvetica,sans-Serif" font-size="10.00">+ GetGlobalBin()</text>
<text text-anchor="start" x="108.5" y="-51.5" font-family="Helvetica,sans-Serif" font-size="10.00">+ get_bin()</text>
<text text-anchor="start" x="108.5" y="-40.5" font-family="Helvetica,sans-Serif" font-size="10.00">+ get_global_bin()</text>
<text text-anchor="start" x="108.5" y="-29.5" font-family="Helvetica,sans-Serif" font-size="10.00">+ get_global_bin()</text>
<text text-anchor="start" x="108.5" y="-18.5" font-family="Helvetica,sans-Serif" font-size="10.00">+ operator()()</text>
<text text-anchor="start" x="108.5" y="-7.5" font-family="Helvetica,sans-Serif" font-size="10.00">+ operator=()</text>
</g>
<!-- Node3 -->
<g id="node2" class="node">
<title>Node3</title>
<g id="a_node2"><a xlink:href="classhydra_1_1thrust_1_1unary__function.html" target="_top" xlink:title="{hydra::thrust::unary\l_function\&lt; tuple_type\l\&lt; N, T \&gt;::type, size_t \&gt;\n||}">
<polygon fill="none" stroke="black" points="0,-193.5 0,-272.5 120,-272.5 120,-193.5 0,-193.5"/>
<text text-anchor="start" x="8" y="-260.5" font-family="Helvetica,sans-Serif" font-size="10.00">hydra::thrust::unary</text>
<text text-anchor="start" x="8" y="-249.5" font-family="Helvetica,sans-Serif" font-size="10.00">_function&lt; tuple_type</text>
<text text-anchor="middle" x="60" y="-238.5" font-family="Helvetica,sans-Serif" font-size="10.00">&lt; N, T &gt;::type, size_t &gt;</text>
<polyline fill="none" stroke="black" points="0,-231.5 120,-231.5 "/>
<text text-anchor="middle" x="60" y="-219.5" font-family="Helvetica,sans-Serif" font-size="10.00"> </text>
<polyline fill="none" stroke="black" points="0,-212.5 120,-212.5 "/>
<text text-anchor="middle" x="60" y="-200.5" font-family="Helvetica,sans-Serif" font-size="10.00"> </text>
</a>
</g>
</g>
<!-- Node3&#45;&gt;Node2 -->
<g id="edge1" class="edge">
<title>Node3&#45;&gt;Node2</title>
<path fill="none" stroke="midnightblue" d="M89.13,-184.38C98.6,-168.88 109.3,-151.39 119.46,-134.78"/>
<polygon fill="none" stroke="midnightblue" points="85.93,-182.9 83.7,-193.25 91.9,-186.55 85.93,-182.9"/>
</g>
<!-- Node4 -->
<g id="node3" class="node">
<title>Node4</title>
<polygon fill="none" stroke="#bfbfbf" points="138.5,-204.5 138.5,-261.5 181.5,-261.5 181.5,-204.5 138.5,-204.5"/>
<text text-anchor="middle" x="160" y="-249.5" font-family="Helvetica,sans-Serif" font-size="10.00">size_t</text>
<polyline fill="none" stroke="#bfbfbf" points="138.5,-242.5 181.5,-242.5 "/>
<text text-anchor="middle" x="160" y="-230.5" font-family="Helvetica,sans-Serif" font-size="10.00"> </text>
<polyline fill="none" stroke="#bfbfbf" points="138.5,-223.5 181.5,-223.5 "/>
<text text-anchor="middle" x="160" y="-211.5" font-family="Helvetica,sans-Serif" font-size="10.00"> </text>
</g>
<!-- Node4&#45;&gt;Node2 -->
<g id="edge2" class="edge">
<title>Node4&#45;&gt;Node2</title>
<path fill="none" stroke="#404040" d="M160,-204.26C160,-188.27 160,-167.28 160,-146.61"/>
<polygon fill="none" stroke="#404040" points="160,-146.51 156,-140.51 160,-134.51 164,-140.51 160,-146.51"/>
<text text-anchor="middle" x="193.5" y="-167" font-family="Helvetica,sans-Serif" font-size="10.00"> +fNGlobalBins</text>
<text text-anchor="middle" x="193.5" y="-156" font-family="Helvetica,sans-Serif" font-size="10.00">+fGrid</text>
</g>
<!-- Node5 -->
<g id="node4" class="node">
<title>Node5</title>
<polygon fill="none" stroke="#bfbfbf" points="235.5,-204.5 235.5,-261.5 264.5,-261.5 264.5,-204.5 235.5,-204.5"/>
<text text-anchor="middle" x="250" y="-249.5" font-family="Helvetica,sans-Serif" font-size="10.00">T</text>
<polyline fill="none" stroke="#bfbfbf" points="235.5,-242.5 264.5,-242.5 "/>
<text text-anchor="middle" x="250" y="-230.5" font-family="Helvetica,sans-Serif" font-size="10.00"> </text>
<polyline fill="none" stroke="#bfbfbf" points="235.5,-223.5 264.5,-223.5 "/>
<text text-anchor="middle" x="250" y="-211.5" font-family="Helvetica,sans-Serif" font-size="10.00"> </text>
</g>
<!-- Node5&#45;&gt;Node2 -->
<g id="edge3" class="edge">
<title>Node5&#45;&gt;Node2</title>
<path fill="none" stroke="#404040" d="M245.17,-204.29C241.74,-188.65 236.26,-169.08 228,-153 226.61,-150.29 225.12,-147.58 223.55,-144.89"/>
<polygon fill="none" stroke="#404040" points="223.49,-144.8 216.93,-141.82 217.16,-134.61 223.72,-137.59 223.49,-144.8"/>
<text text-anchor="middle" x="267" y="-167" font-family="Helvetica,sans-Serif" font-size="10.00"> +fDelta</text>
<text text-anchor="middle" x="267" y="-156" font-family="Helvetica,sans-Serif" font-size="10.00">+fLowerLimits</text>
</g>
</g>
</svg>
