<?xml version="1.0" encoding="UTF-8" standalone="no"?>
<!DOCTYPE svg PUBLIC "-//W3C//DTD SVG 1.1//EN"
 "http://www.w3.org/Graphics/SVG/1.1/DTD/svg11.dtd">
<!-- Generated by graphviz version 2.42.4 (0)
 -->
<!-- Title: hydra::detail::FCNWeightsReducerUnary&lt; ArgType &gt; Pages: 1 -->
<svg width="141pt" height="193pt"
 viewBox="0.00 0.00 141.00 193.00" xmlns="http://www.w3.org/2000/svg" xmlns:xlink="http://www.w3.org/1999/xlink">
<g id="graph0" class="graph" transform="scale(1 1) rotate(0) translate(4 189)">
<title>hydra::detail::FCNWeightsReducerUnary&lt; ArgType &gt;</title>
<!-- Node2 -->
<g id="node1" class="node">
<title>Node2</title>
<polygon fill="#bfbfbf" stroke="black" points="0,-0.5 0,-68.5 133,-68.5 133,-0.5 0,-0.5"/>
<text text-anchor="start" x="8" y="-56.5" font-family="Helvetica,sans-Serif" font-size="10.00">hydra::detail::FCNWeights</text>
<text text-anchor="middle" x="66.5" y="-45.5" font-family="Helvetica,sans-Serif" font-size="10.00">ReducerUnary&lt; ArgType &gt;</text>
<polyline fill="none" stroke="black" points="0,-38.5 133,-38.5 "/>
<text text-anchor="middle" x="66.5" y="-26.5" font-family="Helvetica,sans-Serif" font-size="10.00"> </text>
<polyline fill="none" stroke="black" points="0,-19.5 133,-19.5 "/>
<text text-anchor="start" x="8" y="-7.5" font-family="Helvetica,sans-Serif" font-size="10.00">+ operator()()</text>
</g>
<!-- Node3 -->
<g id="node2" class="node">
<title>Node3</title>
<polygon fill="none" stroke="#bfbfbf" points="14.5,-105.5 14.5,-184.5 118.5,-184.5 118.5,-105.5 14.5,-105.5"/>
<text text-anchor="start" x="22.5" y="-172.5" font-family="Helvetica,sans-Serif" font-size="10.00">hydra_thrust::unary</text>
<text text-anchor="start" x="22.5" y="-161.5" font-family="Helvetica,sans-Serif" font-size="10.00">_function&lt; ArgType,</text>
<text text-anchor="middle" x="66.5" y="-150.5" font-family="Helvetica,sans-Serif" font-size="10.00"> double &gt;</text>
<polyline fill="none" stroke="#bfbfbf" points="14.5,-143.5 118.5,-143.5 "/>
<text text-anchor="middle" x="66.5" y="-131.5" font-family="Helvetica,sans-Serif" font-size="10.00"> </text>
<polyline fill="none" stroke="#bfbfbf" points="14.5,-124.5 118.5,-124.5 "/>
<text text-anchor="middle" x="66.5" y="-112.5" font-family="Helvetica,sans-Serif" font-size="10.00"> </text>
</g>
<!-- Node3&#45;&gt;Node2 -->
<g id="edge1" class="edge">
<title>Node3&#45;&gt;Node2</title>
<path fill="none" stroke="midnightblue" d="M66.5,-95.35C66.5,-86.28 66.5,-77 66.5,-68.54"/>
<polygon fill="none" stroke="midnightblue" points="63,-95.44 66.5,-105.44 70,-95.44 63,-95.44"/>
</g>
</g>
</svg>
