<?xml version="1.0" encoding="UTF-8" standalone="no"?>
<!DOCTYPE svg PUBLIC "-//W3C//DTD SVG 1.1//EN"
 "http://www.w3.org/Graphics/SVG/1.1/DTD/svg11.dtd">
<!-- Generated by graphviz version 2.38.0 (20140413.2041)
 -->
<!-- Title: hydra::detail::EvalMother&lt; N, GRND, FUNCTOR, FUNCTORS &gt; Pages: 1 -->
<svg width="295pt" height="303pt"
 viewBox="0.00 0.00 295.00 303.00" xmlns="http://www.w3.org/2000/svg" xmlns:xlink="http://www.w3.org/1999/xlink">
<g id="graph0" class="graph" transform="scale(1 1) rotate(0) translate(4 299)">
<title>hydra::detail::EvalMother&lt; N, GRND, FUNCTOR, FUNCTORS &gt;</title>
<!-- Node1 -->
<g id="node1" class="node"><title>Node1</title>
<polygon fill="#bfbfbf" stroke="black" points="53.5,-0.5 53.5,-134.5 249.5,-134.5 249.5,-0.5 53.5,-0.5"/>
<text text-anchor="start" x="61.5" y="-122.5" font-family="Helvetica,sans-Serif" font-size="10.00">hydra::detail::EvalMother</text>
<text text-anchor="middle" x="151.5" y="-111.5" font-family="Helvetica,sans-Serif" font-size="10.00">&lt; N, GRND, FUNCTOR, FUNCTORS &gt;</text>
<polyline fill="none" stroke="black" points="53.5,-104.5 249.5,-104.5 "/>
<text text-anchor="middle" x="151.5" y="-92.5" font-family="Helvetica,sans-Serif" font-size="10.00"> </text>
<polyline fill="none" stroke="black" points="53.5,-85.5 249.5,-85.5 "/>
<text text-anchor="start" x="61.5" y="-73.5" font-family="Helvetica,sans-Serif" font-size="10.00">+ EvalMother()</text>
<text text-anchor="start" x="61.5" y="-62.5" font-family="Helvetica,sans-Serif" font-size="10.00">+ EvalMother()</text>
<text text-anchor="start" x="61.5" y="-51.5" font-family="Helvetica,sans-Serif" font-size="10.00">+ bbsort()</text>
<text text-anchor="start" x="61.5" y="-40.5" font-family="Helvetica,sans-Serif" font-size="10.00">+ operator()()</text>
<text text-anchor="start" x="61.5" y="-29.5" font-family="Helvetica,sans-Serif" font-size="10.00">+ process()</text>
<text text-anchor="start" x="61.5" y="-18.5" font-family="Helvetica,sans-Serif" font-size="10.00">+ hash()</text>
<text text-anchor="start" x="61.5" y="-7.5" font-family="Helvetica,sans-Serif" font-size="10.00">+ pdk()</text>
</g>
<!-- Node2 -->
<g id="node2" class="node"><title>Node2</title>
<g id="a_node2"><a xlink:href="namespace_3globalScope_4.html#classdouble" target="_top" xlink:title="{double\n||}">
<polygon fill="none" stroke="black" points="0,-237.5 0,-294.5 45,-294.5 45,-237.5 0,-237.5"/>
<text text-anchor="middle" x="22.5" y="-282.5" font-family="Helvetica,sans-Serif" font-size="10.00">double</text>
<polyline fill="none" stroke="black" points="0,-275.5 45,-275.5 "/>
<text text-anchor="middle" x="22.5" y="-263.5" font-family="Helvetica,sans-Serif" font-size="10.00"> </text>
<polyline fill="none" stroke="black" points="0,-256.5 45,-256.5 "/>
<text text-anchor="middle" x="22.5" y="-244.5" font-family="Helvetica,sans-Serif" font-size="10.00"> </text>
</a>
</g>
</g>
<!-- Node2&#45;&gt;Node1 -->
<g id="edge1" class="edge"><title>Node2&#45;&gt;Node1</title>
<path fill="none" stroke="#404040" d="M39.7277,-237.203C53.9362,-214.43 74.7343,-181.44 93.5,-153 95.2762,-150.308 97.0916,-147.574 98.9318,-144.817"/>
<polygon fill="none" stroke="#404040" points="98.9891,-144.731 99.0122,-137.52 105.677,-134.768 105.654,-141.979 98.9891,-144.731"/>
<text text-anchor="middle" x="120.5" y="-211" font-family="Helvetica,sans-Serif" font-size="10.00"> +fTeCmTm</text>
<text text-anchor="middle" x="120.5" y="-200" font-family="Helvetica,sans-Serif" font-size="10.00">+fMasses</text>
<text text-anchor="middle" x="120.5" y="-189" font-family="Helvetica,sans-Serif" font-size="10.00">+fBeta0</text>
<text text-anchor="middle" x="120.5" y="-178" font-family="Helvetica,sans-Serif" font-size="10.00">+fBeta1</text>
<text text-anchor="middle" x="120.5" y="-167" font-family="Helvetica,sans-Serif" font-size="10.00">+fBeta2</text>
<text text-anchor="middle" x="120.5" y="-156" font-family="Helvetica,sans-Serif" font-size="10.00">+fWtMax</text>
</g>
<!-- Node3 -->
<g id="node3" class="node"><title>Node3</title>
<polygon fill="none" stroke="#bfbfbf" points="63.5,-237.5 63.5,-294.5 239.5,-294.5 239.5,-237.5 63.5,-237.5"/>
<text text-anchor="middle" x="151.5" y="-282.5" font-family="Helvetica,sans-Serif" font-size="10.00">tuple&lt; FUNCTOR, FUNCTORS... &gt;</text>
<polyline fill="none" stroke="#bfbfbf" points="63.5,-275.5 239.5,-275.5 "/>
<text text-anchor="middle" x="151.5" y="-263.5" font-family="Helvetica,sans-Serif" font-size="10.00"> </text>
<polyline fill="none" stroke="#bfbfbf" points="63.5,-256.5 239.5,-256.5 "/>
<text text-anchor="middle" x="151.5" y="-244.5" font-family="Helvetica,sans-Serif" font-size="10.00"> </text>
</g>
<!-- Node3&#45;&gt;Node1 -->
<g id="edge2" class="edge"><title>Node3&#45;&gt;Node1</title>
<path fill="none" stroke="#404040" d="M151.5,-237.263C151.5,-213.717 151.5,-178.752 151.5,-146.745"/>
<polygon fill="none" stroke="#404040" points="151.5,-146.653 147.5,-140.653 151.5,-134.653 155.5,-140.653 151.5,-146.653"/>
<text text-anchor="middle" x="177" y="-183.5" font-family="Helvetica,sans-Serif" font-size="10.00"> +fFunctors</text>
</g>
<!-- Node4 -->
<g id="node4" class="node"><title>Node4</title>
<g id="a_node4"><a xlink:href="namespace_3globalScope_4.html#classint" target="_top" xlink:title="{int\n||}">
<polygon fill="none" stroke="black" points="258,-237.5 258,-294.5 287,-294.5 287,-237.5 258,-237.5"/>
<text text-anchor="middle" x="272.5" y="-282.5" font-family="Helvetica,sans-Serif" font-size="10.00">int</text>
<polyline fill="none" stroke="black" points="258,-275.5 287,-275.5 "/>
<text text-anchor="middle" x="272.5" y="-263.5" font-family="Helvetica,sans-Serif" font-size="10.00"> </text>
<polyline fill="none" stroke="black" points="258,-256.5 287,-256.5 "/>
<text text-anchor="middle" x="272.5" y="-244.5" font-family="Helvetica,sans-Serif" font-size="10.00"> </text>
</a>
</g>
</g>
<!-- Node4&#45;&gt;Node1 -->
<g id="edge3" class="edge"><title>Node4&#45;&gt;Node1</title>
<path fill="none" stroke="#404040" d="M257.878,-239.452C244.711,-216.625 224.689,-182.353 206.5,-153 204.887,-150.396 203.237,-147.753 201.563,-145.089"/>
<polygon fill="none" stroke="#404040" points="201.433,-144.884 194.844,-141.954 195.015,-134.745 201.604,-137.675 201.433,-144.884"/>
<text text-anchor="middle" x="263" y="-183.5" font-family="Helvetica,sans-Serif" font-size="10.00"> +fSeed</text>
</g>
</g>
</svg>
