<?xml version="1.0" encoding="UTF-8" standalone="no"?>
<!DOCTYPE svg PUBLIC "-//W3C//DTD SVG 1.1//EN"
 "http://www.w3.org/Graphics/SVG/1.1/DTD/svg11.dtd">
<!-- Generated by graphviz version 2.42.4 (0)
 -->
<!-- Title: hydra::detail::is_zip_iterator&lt; hydra_thrust::zip_iterator&lt; T... &gt; &gt; Pages: 1 -->
<svg width="123pt" height="182pt"
 viewBox="0.00 0.00 123.00 182.00" xmlns="http://www.w3.org/2000/svg" xmlns:xlink="http://www.w3.org/1999/xlink">
<g id="graph0" class="graph" transform="scale(1 1) rotate(0) translate(4 178)">
<title>hydra::detail::is_zip_iterator&lt; hydra_thrust::zip_iterator&lt; T... &gt; &gt;</title>
<!-- Node0 -->
<g id="node1" class="node">
<title>Node0</title>
<polygon fill="#bfbfbf" stroke="black" points="0,-0.5 0,-79.5 115,-79.5 115,-0.5 0,-0.5"/>
<text text-anchor="start" x="8" y="-67.5" font-family="Helvetica,sans-Serif" font-size="10.00">hydra::detail::is_zip</text>
<text text-anchor="start" x="8" y="-56.5" font-family="Helvetica,sans-Serif" font-size="10.00">_iterator&lt; hydra_thrust</text>
<text text-anchor="middle" x="57.5" y="-45.5" font-family="Helvetica,sans-Serif" font-size="10.00">::zip_iterator&lt; T... &gt; &gt;</text>
<polyline fill="none" stroke="black" points="0,-38.5 115,-38.5 "/>
<text text-anchor="middle" x="57.5" y="-26.5" font-family="Helvetica,sans-Serif" font-size="10.00"> </text>
<polyline fill="none" stroke="black" points="0,-19.5 115,-19.5 "/>
<text text-anchor="middle" x="57.5" y="-7.5" font-family="Helvetica,sans-Serif" font-size="10.00"> </text>
</g>
<!-- Node1 -->
<g id="node2" class="node">
<title>Node1</title>
<polygon fill="none" stroke="#bfbfbf" points="29,-116.5 29,-173.5 86,-173.5 86,-116.5 29,-116.5"/>
<text text-anchor="middle" x="57.5" y="-161.5" font-family="Helvetica,sans-Serif" font-size="10.00">true_type</text>
<polyline fill="none" stroke="#bfbfbf" points="29,-154.5 86,-154.5 "/>
<text text-anchor="middle" x="57.5" y="-142.5" font-family="Helvetica,sans-Serif" font-size="10.00"> </text>
<polyline fill="none" stroke="#bfbfbf" points="29,-135.5 86,-135.5 "/>
<text text-anchor="middle" x="57.5" y="-123.5" font-family="Helvetica,sans-Serif" font-size="10.00"> </text>
</g>
<!-- Node1&#45;&gt;Node0 -->
<g id="edge1" class="edge">
<title>Node1&#45;&gt;Node0</title>
<path fill="none" stroke="midnightblue" d="M57.5,-106.16C57.5,-97.47 57.5,-88.23 57.5,-79.52"/>
<polygon fill="none" stroke="midnightblue" points="54,-106.4 57.5,-116.4 61,-106.4 54,-106.4"/>
</g>
</g>
</svg>
