<?xml version="1.0" encoding="UTF-8" standalone="no"?>
<!DOCTYPE svg PUBLIC "-//W3C//DTD SVG 1.1//EN"
 "http://www.w3.org/Graphics/SVG/1.1/DTD/svg11.dtd">
<!-- Generated by graphviz version 2.42.4 (0)
 -->
<!-- Title: hydra::detail::AddStatsPHSP Pages: 1 -->
<svg width="152pt" height="193pt"
 viewBox="0.00 0.00 152.00 193.00" xmlns="http://www.w3.org/2000/svg" xmlns:xlink="http://www.w3.org/1999/xlink">
<g id="graph0" class="graph" transform="scale(1 1) rotate(0) translate(4 189)">
<title>hydra::detail::AddStatsPHSP</title>
<!-- Node2 -->
<g id="node1" class="node">
<title>Node2</title>
<polygon fill="#bfbfbf" stroke="black" points="0,-0.5 0,-57.5 144,-57.5 144,-0.5 0,-0.5"/>
<text text-anchor="middle" x="72" y="-45.5" font-family="Helvetica,sans-Serif" font-size="10.00">hydra::detail::AddStatsPHSP</text>
<polyline fill="none" stroke="black" points="0,-38.5 144,-38.5 "/>
<text text-anchor="middle" x="72" y="-26.5" font-family="Helvetica,sans-Serif" font-size="10.00"> </text>
<polyline fill="none" stroke="black" points="0,-19.5 144,-19.5 "/>
<text text-anchor="start" x="8" y="-7.5" font-family="Helvetica,sans-Serif" font-size="10.00">+ operator()()</text>
</g>
<!-- Node3 -->
<g id="node2" class="node">
<title>Node3</title>
<polygon fill="none" stroke="#bfbfbf" points="3.5,-94.5 3.5,-184.5 140.5,-184.5 140.5,-94.5 3.5,-94.5"/>
<text text-anchor="start" x="11.5" y="-172.5" font-family="Helvetica,sans-Serif" font-size="10.00">hydra_thrust::binary</text>
<text text-anchor="start" x="11.5" y="-161.5" font-family="Helvetica,sans-Serif" font-size="10.00">_function&lt; StatsPHSP</text>
<text text-anchor="start" x="11.5" y="-150.5" font-family="Helvetica,sans-Serif" font-size="10.00"> const &amp;, StatsPHSP const</text>
<text text-anchor="middle" x="72" y="-139.5" font-family="Helvetica,sans-Serif" font-size="10.00"> &amp;, StatsPHSP &gt;</text>
<polyline fill="none" stroke="#bfbfbf" points="3.5,-132.5 140.5,-132.5 "/>
<text text-anchor="middle" x="72" y="-120.5" font-family="Helvetica,sans-Serif" font-size="10.00"> </text>
<polyline fill="none" stroke="#bfbfbf" points="3.5,-113.5 140.5,-113.5 "/>
<text text-anchor="middle" x="72" y="-101.5" font-family="Helvetica,sans-Serif" font-size="10.00"> </text>
</g>
<!-- Node3&#45;&gt;Node2 -->
<g id="edge1" class="edge">
<title>Node3&#45;&gt;Node2</title>
<path fill="none" stroke="midnightblue" d="M72,-84.35C72,-75.07 72,-65.79 72,-57.59"/>
<polygon fill="none" stroke="midnightblue" points="68.5,-84.37 72,-94.37 75.5,-84.37 68.5,-84.37"/>
</g>
</g>
</svg>
