<?xml version="1.0" encoding="UTF-8" standalone="no"?>
<!DOCTYPE svg PUBLIC "-//W3C//DTD SVG 1.1//EN"
 "http://www.w3.org/Graphics/SVG/1.1/DTD/svg11.dtd">
<!-- Generated by graphviz version 5.0.0 (0)
 -->
<!-- Title: hydra::detail::random::is_iterator&lt; T &gt; Pages: 1 -->
<svg width="208pt" height="270pt"
 viewBox="0.00 0.00 208.00 270.00" xmlns="http://www.w3.org/2000/svg" xmlns:xlink="http://www.w3.org/1999/xlink">
<g id="graph0" class="graph" transform="scale(1 1) rotate(0) translate(4 266)">
<title>hydra::detail::random::is_iterator&lt; T &gt;</title>
<!-- Node2 -->
<g id="node1" class="node">
<title>Node2</title>
<polygon fill="#bfbfbf" stroke="black" points="46,-0.5 46,-68.5 154,-68.5 154,-0.5 46,-0.5"/>
<text text-anchor="start" x="54" y="-56.5" font-family="Helvetica,sans-Serif" font-size="10.00">hydra::detail::random</text>
<text text-anchor="middle" x="100" y="-45.5" font-family="Helvetica,sans-Serif" font-size="10.00">::is_iterator&lt; T &gt;</text>
<polyline fill="none" stroke="black" points="46,-38.5 154,-38.5 "/>
<text text-anchor="middle" x="100" y="-26.5" font-family="Helvetica,sans-Serif" font-size="10.00"> </text>
<polyline fill="none" stroke="black" points="46,-19.5 154,-19.5 "/>
<text text-anchor="middle" x="100" y="-7.5" font-family="Helvetica,sans-Serif" font-size="10.00"> </text>
</g>
<!-- Node3 -->
<g id="node2" class="node">
<title>Node3</title>
<polygon fill="none" stroke="#bfbfbf" points="0,-105.5 0,-261.5 200,-261.5 200,-105.5 0,-105.5"/>
<text text-anchor="start" x="8" y="-249.5" font-family="Helvetica,sans-Serif" font-size="10.00">std::conditional::type</text>
<text text-anchor="start" x="8" y="-238.5" font-family="Helvetica,sans-Serif" font-size="10.00">&lt; !hydra::detail::is_hydra</text>
<text text-anchor="start" x="8" y="-227.5" font-family="Helvetica,sans-Serif" font-size="10.00">_composite_functor&lt; T &gt;::</text>
<text text-anchor="start" x="8" y="-216.5" font-family="Helvetica,sans-Serif" font-size="10.00">value &amp;&amp;!hydra::detail::is</text>
<text text-anchor="start" x="8" y="-205.5" font-family="Helvetica,sans-Serif" font-size="10.00">_hydra_functor&lt; T &gt;::value</text>
<text text-anchor="start" x="8" y="-194.5" font-family="Helvetica,sans-Serif" font-size="10.00"> &amp;&amp;!hydra::detail::is_hydra</text>
<text text-anchor="start" x="8" y="-183.5" font-family="Helvetica,sans-Serif" font-size="10.00">_lambda&lt; T &gt;::value &amp;&amp;!hydra</text>
<text text-anchor="start" x="8" y="-172.5" font-family="Helvetica,sans-Serif" font-size="10.00">::detail::is_iterable&lt; T &gt;::value</text>
<text text-anchor="start" x="8" y="-161.5" font-family="Helvetica,sans-Serif" font-size="10.00"> &amp;&amp;hydra::detail::is_iterator&lt; T</text>
<text text-anchor="middle" x="100" y="-150.5" font-family="Helvetica,sans-Serif" font-size="10.00"> &gt;::value, std::true_type, std::false_type &gt;</text>
<polyline fill="none" stroke="#bfbfbf" points="0,-143.5 200,-143.5 "/>
<text text-anchor="middle" x="100" y="-131.5" font-family="Helvetica,sans-Serif" font-size="10.00"> </text>
<polyline fill="none" stroke="#bfbfbf" points="0,-124.5 200,-124.5 "/>
<text text-anchor="middle" x="100" y="-112.5" font-family="Helvetica,sans-Serif" font-size="10.00"> </text>
</g>
<!-- Node3&#45;&gt;Node2 -->
<g id="edge1" class="edge">
<title>Node3&#45;&gt;Node2</title>
<path fill="none" stroke="midnightblue" d="M100,-94.94C100,-85.63 100,-76.64 100,-68.59"/>
<polygon fill="none" stroke="midnightblue" points="96.5,-95.13 100,-105.13 103.5,-95.13 96.5,-95.13"/>
</g>
</g>
</svg>
