<?xml version="1.0" encoding="UTF-8" standalone="no"?>
<!DOCTYPE svg PUBLIC "-//W3C//DTD SVG 1.1//EN"
 "http://www.w3.org/Graphics/SVG/1.1/DTD/svg11.dtd">
<!-- Generated by graphviz version 2.42.4 (0)
 -->
<!-- Title: hydra::detail::GetBinCenter&lt; T, 1 &gt; Pages: 1 -->
<svg width="143pt" height="270pt"
 viewBox="0.00 0.00 143.00 270.00" xmlns="http://www.w3.org/2000/svg" xmlns:xlink="http://www.w3.org/1999/xlink">
<g id="graph0" class="graph" transform="scale(1 1) rotate(0) translate(4 266)">
<title>hydra::detail::GetBinCenter&lt; T, 1 &gt;</title>
<!-- Node0 -->
<g id="node1" class="node">
<title>Node0</title>
<polygon fill="#bfbfbf" stroke="black" points="0,-0.5 0,-156.5 135,-156.5 135,-0.5 0,-0.5"/>
<text text-anchor="start" x="8" y="-144.5" font-family="Helvetica,sans-Serif" font-size="10.00">hydra::detail::GetBinCenter</text>
<text text-anchor="middle" x="67.5" y="-133.5" font-family="Helvetica,sans-Serif" font-size="10.00">&lt; T, 1 &gt;</text>
<polyline fill="none" stroke="black" points="0,-126.5 135,-126.5 "/>
<text text-anchor="start" x="8" y="-114.5" font-family="Helvetica,sans-Serif" font-size="10.00">+ fDelta</text>
<text text-anchor="start" x="8" y="-103.5" font-family="Helvetica,sans-Serif" font-size="10.00">+ fGrid</text>
<text text-anchor="start" x="8" y="-92.5" font-family="Helvetica,sans-Serif" font-size="10.00">+ fIncrement</text>
<text text-anchor="start" x="8" y="-81.5" font-family="Helvetica,sans-Serif" font-size="10.00">+ fLowerLimits</text>
<text text-anchor="start" x="8" y="-70.5" font-family="Helvetica,sans-Serif" font-size="10.00">+ fNGlobalBins</text>
<polyline fill="none" stroke="black" points="0,-63.5 135,-63.5 "/>
<text text-anchor="start" x="8" y="-51.5" font-family="Helvetica,sans-Serif" font-size="10.00">+ GetBinCenter()</text>
<text text-anchor="start" x="8" y="-40.5" font-family="Helvetica,sans-Serif" font-size="10.00">+ GetBinCenter()</text>
<text text-anchor="start" x="8" y="-29.5" font-family="Helvetica,sans-Serif" font-size="10.00">+ GetBinCenter()</text>
<text text-anchor="start" x="8" y="-18.5" font-family="Helvetica,sans-Serif" font-size="10.00">+ operator()()</text>
<text text-anchor="start" x="8" y="-7.5" font-family="Helvetica,sans-Serif" font-size="10.00">+ operator=()</text>
</g>
<!-- Node1 -->
<g id="node2" class="node">
<title>Node1</title>
<polygon fill="none" stroke="#bfbfbf" points="17,-193.5 17,-261.5 118,-261.5 118,-193.5 17,-193.5"/>
<text text-anchor="start" x="25" y="-249.5" font-family="Helvetica,sans-Serif" font-size="10.00">hydra_thrust::unary</text>
<text text-anchor="middle" x="67.5" y="-238.5" font-family="Helvetica,sans-Serif" font-size="10.00">_function&lt; T, T &gt;</text>
<polyline fill="none" stroke="#bfbfbf" points="17,-231.5 118,-231.5 "/>
<text text-anchor="middle" x="67.5" y="-219.5" font-family="Helvetica,sans-Serif" font-size="10.00"> </text>
<polyline fill="none" stroke="#bfbfbf" points="17,-212.5 118,-212.5 "/>
<text text-anchor="middle" x="67.5" y="-200.5" font-family="Helvetica,sans-Serif" font-size="10.00"> </text>
</g>
<!-- Node1&#45;&gt;Node0 -->
<g id="edge1" class="edge">
<title>Node1&#45;&gt;Node0</title>
<path fill="none" stroke="midnightblue" d="M67.5,-183C67.5,-174.7 67.5,-165.78 67.5,-156.79"/>
<polygon fill="none" stroke="midnightblue" points="64,-183.14 67.5,-193.14 71,-183.14 64,-183.14"/>
</g>
</g>
</svg>
