<?xml version="1.0" encoding="UTF-8" standalone="no"?>
<!DOCTYPE svg PUBLIC "-//W3C//DTD SVG 1.1//EN"
 "http://www.w3.org/Graphics/SVG/1.1/DTD/svg11.dtd">
<!-- Generated by graphviz version 2.38.0 (20140413.2041)
 -->
<!-- Title: hydra::detail::make_index_sequence&lt; N &gt; Pages: 1 -->
<!--zoomable 481 -->
<svg id="main" version="1.1" xmlns="http://www.w3.org/2000/svg" xmlns:xlink="http://www.w3.org/1999/xlink" xml:space="preserve" onload="init(evt)">
<style type="text/css"><![CDATA[
.edge:hover path { stroke: red; }
.edge:hover polygon { stroke: red; fill: red; }
]]></style>
<script type="text/javascript"><![CDATA[
var edges = document.getElementsByTagName('g');
if (edges && edges.length) {
  for (var i=0;i<edges.length;i++) {
    if (edges[i].id.substr(0,4)=='edge') {
      edges[i].setAttribute('class','edge');
    }
  }
}
]]></script>
        <defs>
                <circle id="rim" cx="0" cy="0" r="7"/>
                <circle id="rim2" cx="0" cy="0" r="3.5"/>
                <g id="zoomPlus">
                        <use xlink:href="#rim" fill="#404040">
                                <set attributeName="fill" to="#808080" begin="zoomplus.mouseover" end="zoomplus.mouseout"/>
                        </use>
                        <path d="M-4,0h8M0,-4v8" fill="none" stroke="white" stroke-width="1.5" pointer-events="none"/>
                </g>
                <g id="zoomMin">
                        <use xlink:href="#rim" fill="#404040">
                                <set attributeName="fill" to="#808080" begin="zoomminus.mouseover" end="zoomminus.mouseout"/>
                        </use>
                        <path d="M-4,0h8" fill="none" stroke="white" stroke-width="1.5" pointer-events="none"/>
                </g>
                <g id="dirArrow">
                        <path fill="none" stroke="white" stroke-width="1.5" d="M0,-3.0v7 M-2.5,-0.5L0,-3.0L2.5,-0.5"/>
                </g>
               <g id="resetDef">
                       <use xlink:href="#rim2" fill="#404040">
                               <set attributeName="fill" to="#808080" begin="reset.mouseover" end="reset.mouseout"/>
                       </use>
               </g>
        </defs>

<script type="text/javascript">
var viewWidth = 218;
var viewHeight = 481;
var sectionId = 'dynsection-0';
</script>
<script xlink:href="svgpan.js"/>
<svg id="graph" class="graph">
<g id="viewport">
<title>hydra::detail::make_index_sequence&lt; N &gt;</title>
<!-- Node0 -->
<g id="node1" class="node"><title>Node0</title>
<polygon fill="#bfbfbf" stroke="black" points="19,-116.5 19,-184.5 137,-184.5 137,-116.5 19,-116.5"/>
<text text-anchor="start" x="27" y="-172.5" font-family="Helvetica,sans-Serif" font-size="10.00">hydra::detail::make</text>
<text text-anchor="middle" x="78" y="-161.5" font-family="Helvetica,sans-Serif" font-size="10.00">_index_sequence&lt; N &gt;</text>
<polyline fill="none" stroke="black" points="19,-154.5 137,-154.5 "/>
<text text-anchor="middle" x="78" y="-142.5" font-family="Helvetica,sans-Serif" font-size="10.00"> </text>
<polyline fill="none" stroke="black" points="19,-135.5 137,-135.5 "/>
<text text-anchor="middle" x="78" y="-123.5" font-family="Helvetica,sans-Serif" font-size="10.00"> </text>
</g>
<!-- Node3 -->
<g id="node4" class="node"><title>Node3</title>
<g id="a_node4"><a xlink:href="structhydra_1_1detail_1_1make__index__sequence.html" target="_top" xlink:title="{hydra::detail::make\l_index_sequence\&lt; sizeof...(N)\&gt;\n||}">
<polygon fill="none" stroke="black" points="0,-0.5 0,-68.5 156,-68.5 156,-0.5 0,-0.5"/>
<text text-anchor="start" x="8" y="-56.5" font-family="Helvetica,sans-Serif" font-size="10.00">hydra::detail::make</text>
<text text-anchor="middle" x="78" y="-45.5" font-family="Helvetica,sans-Serif" font-size="10.00">_index_sequence&lt; sizeof...(N)&gt;</text>
<polyline fill="none" stroke="black" points="0,-38.5 156,-38.5 "/>
<text text-anchor="middle" x="78" y="-26.5" font-family="Helvetica,sans-Serif" font-size="10.00"> </text>
<polyline fill="none" stroke="black" points="0,-19.5 156,-19.5 "/>
<text text-anchor="middle" x="78" y="-7.5" font-family="Helvetica,sans-Serif" font-size="10.00"> </text>
</a>
</g>
</g>
<!-- Node0&#45;&gt;Node3 -->
<g id="edge3" class="edge"><title>Node0&#45;&gt;Node3</title>
<path fill="none" stroke="orange" d="M78,-106.06C78,-93.644 78,-80.3162 78,-68.6243"/>
<polygon fill="orange" stroke="orange" points="74.5001,-106.22 78,-116.22 81.5001,-106.22 74.5001,-106.22"/>
<text text-anchor="middle" x="111.5" y="-90" font-family="Helvetica,sans-Serif" font-size="10.00"> &lt; sizeof...(N)&gt;</text>
</g>
<!-- Node1 -->
<g id="node2" class="node"><title>Node1</title>
<g id="a_node2"><a xlink:href="namespacehydra_1_1detail.html" target="_top" xlink:title="{hydra::detail::_merge\l_and_renumber\&lt; make_index\l_sequence\&lt; N/2 \&gt;::type,\l make_index_sequence\&lt; N \l&#45; N/2 \&gt;::type \&gt;\n||}">
<polygon fill="none" stroke="black" points="5.5,-222.5 5.5,-323.5 150.5,-323.5 150.5,-222.5 5.5,-222.5"/>
<text text-anchor="start" x="13.5" y="-311.5" font-family="Helvetica,sans-Serif" font-size="10.00">hydra::detail::_merge</text>
<text text-anchor="start" x="13.5" y="-300.5" font-family="Helvetica,sans-Serif" font-size="10.00">_and_renumber&lt; make_index</text>
<text text-anchor="start" x="13.5" y="-289.5" font-family="Helvetica,sans-Serif" font-size="10.00">_sequence&lt; N/2 &gt;::type,</text>
<text text-anchor="start" x="13.5" y="-278.5" font-family="Helvetica,sans-Serif" font-size="10.00"> make_index_sequence&lt; N </text>
<text text-anchor="middle" x="78" y="-267.5" font-family="Helvetica,sans-Serif" font-size="10.00">&#45; N/2 &gt;::type &gt;</text>
<polyline fill="none" stroke="black" points="5.5,-260.5 150.5,-260.5 "/>
<text text-anchor="middle" x="78" y="-248.5" font-family="Helvetica,sans-Serif" font-size="10.00"> </text>
<polyline fill="none" stroke="black" points="5.5,-241.5 150.5,-241.5 "/>
<text text-anchor="middle" x="78" y="-229.5" font-family="Helvetica,sans-Serif" font-size="10.00"> </text>
</a>
</g>
</g>
<!-- Node1&#45;&gt;Node0 -->
<g id="edge1" class="edge"><title>Node1&#45;&gt;Node0</title>
<path fill="none" stroke="midnightblue" d="M78,-212.074C78,-202.613 78,-193.141 78,-184.592"/>
<polygon fill="none" stroke="midnightblue" points="74.5001,-212.292 78,-222.292 81.5001,-212.292 74.5001,-212.292"/>
</g>
<!-- Node2 -->
<g id="node3" class="node"><title>Node2</title>
<g id="a_node3"><a xlink:href="namespacehydra_1_1detail.html#structhydra_1_1detail_1_1__merge__and__renumber" target="_top" xlink:title="{hydra::detail::_merge\l_and_renumber\&lt; Sequence1,\l Sequence2 \&gt;\n||}">
<polygon fill="none" stroke="black" points="6,-393.5 6,-472.5 150,-472.5 150,-393.5 6,-393.5"/>
<text text-anchor="start" x="14" y="-460.5" font-family="Helvetica,sans-Serif" font-size="10.00">hydra::detail::_merge</text>
<text text-anchor="start" x="14" y="-449.5" font-family="Helvetica,sans-Serif" font-size="10.00">_and_renumber&lt; Sequence1,</text>
<text text-anchor="middle" x="78" y="-438.5" font-family="Helvetica,sans-Serif" font-size="10.00"> Sequence2 &gt;</text>
<polyline fill="none" stroke="black" points="6,-431.5 150,-431.5 "/>
<text text-anchor="middle" x="78" y="-419.5" font-family="Helvetica,sans-Serif" font-size="10.00"> </text>
<polyline fill="none" stroke="black" points="6,-412.5 150,-412.5 "/>
<text text-anchor="middle" x="78" y="-400.5" font-family="Helvetica,sans-Serif" font-size="10.00"> </text>
</a>
</g>
</g>
<!-- Node2&#45;&gt;Node1 -->
<g id="edge2" class="edge"><title>Node2&#45;&gt;Node1</title>
<path fill="none" stroke="orange" d="M78,-383.152C78,-364.234 78,-342.601 78,-323.611"/>
<polygon fill="orange" stroke="orange" points="74.5001,-383.349 78,-393.349 81.5001,-383.349 74.5001,-383.349"/>
<text text-anchor="start" x="78" y="-367" font-family="Helvetica,sans-Serif" font-size="10.00"> &lt; make_index_sequence</text>
<text text-anchor="start" x="78" y="-356" font-family="Helvetica,sans-Serif" font-size="10.00">&lt; N/2 &gt;::type, make_index</text>
<text text-anchor="middle" x="144" y="-345" font-family="Helvetica,sans-Serif" font-size="10.00">_sequence&lt; N &#45; N/2 &gt;::type &gt;</text>
</g>
</g>
</svg>
        <g id="navigator" transform="translate(0 0)" fill="#404254">
                <rect fill="#f2f5e9" fill-opacity="0.5" stroke="#606060" stroke-width=".5" x="0" y="0" width="60" height="60"/>
                <use id="zoomplus" xlink:href="#zoomPlus" x="17" y="9" onmousedown="handleZoom(evt,'in')"/>
                <use id="zoomminus" xlink:href="#zoomMin" x="42" y="9" onmousedown="handleZoom(evt,'out')"/>
                <use id="reset" xlink:href="#resetDef" x="30" y="36" onmousedown="handleReset()"/>
                <g id="arrowUp" xlink:href="#dirArrow" transform="translate(30 24)" onmousedown="handlePan(0,-1)">
                  <use xlink:href="#rim" fill="#404040">
                        <set attributeName="fill" to="#808080" begin="arrowUp.mouseover" end="arrowUp.mouseout"/>
                  </use>
                  <path fill="none" stroke="white" stroke-width="1.5" d="M0,-3.0v7 M-2.5,-0.5L0,-3.0L2.5,-0.5"/>
                </g>
                <g id="arrowRight" xlink:href="#dirArrow" transform="rotate(90) translate(36 -43)" onmousedown="handlePan(1,0)">
                  <use xlink:href="#rim" fill="#404040">
                        <set attributeName="fill" to="#808080" begin="arrowRight.mouseover" end="arrowRight.mouseout"/>
                  </use>
                  <path fill="none" stroke="white" stroke-width="1.5" d="M0,-3.0v7 M-2.5,-0.5L0,-3.0L2.5,-0.5"/>
                </g>
                <g id="arrowDown" xlink:href="#dirArrow" transform="rotate(180) translate(-30 -48)" onmousedown="handlePan(0,1)">
                  <use xlink:href="#rim" fill="#404040">
                        <set attributeName="fill" to="#808080" begin="arrowDown.mouseover" end="arrowDown.mouseout"/>
                  </use>
                  <path fill="none" stroke="white" stroke-width="1.5" d="M0,-3.0v7 M-2.5,-0.5L0,-3.0L2.5,-0.5"/>
                </g>
                <g id="arrowLeft" xlink:href="#dirArrow" transform="rotate(270) translate(-36 17)" onmousedown="handlePan(-1,0)">
                  <use xlink:href="#rim" fill="#404040">
                        <set attributeName="fill" to="#808080" begin="arrowLeft.mouseover" end="arrowLeft.mouseout"/>
                  </use>
                  <path fill="none" stroke="white" stroke-width="1.5" d="M0,-3.0v7 M-2.5,-0.5L0,-3.0L2.5,-0.5"/>
                </g>
        </g>
        <svg viewBox="0 0 15 15" width="100%" height="30px" preserveAspectRatio="xMaxYMin meet">
         <g id="arrow_out" transform="scale(0.3 0.3)">
          <a xlink:href="structhydra_1_1detail_1_1make__index__sequence__inherit__graph_org.svg" target="_base">
           <rect id="button" ry="5" rx="5" y="6" x="6" height="38" width="38"
                fill="#f2f5e9" fill-opacity="0.5" stroke="#606060" stroke-width="1.0"/>
           <path id="arrow"
             d="M 11.500037,31.436501 C 11.940474,20.09759 22.043105,11.32322 32.158766,21.979434 L 37.068811,17.246167 C 37.068811,17.246167 37.088388,32 37.088388,32 L 22.160133,31.978069 C 22.160133,31.978069 26.997745,27.140456 26.997745,27.140456 C 18.528582,18.264221 13.291696,25.230495 11.500037,31.436501 z"
             style="fill:#404040;"/>
          </a>
         </g>
        </svg>
</svg>
