<?xml version="1.0" encoding="UTF-8" standalone="no"?>
<!DOCTYPE svg PUBLIC "-//W3C//DTD SVG 1.1//EN"
 "http://www.w3.org/Graphics/SVG/1.1/DTD/svg11.dtd">
<!-- Generated by graphviz version 5.0.0 (0)
 -->
<!-- Title: hydra::detail::BackendPolicy&lt; Backend::Device &gt; Pages: 1 -->
<svg width="212pt" height="204pt"
 viewBox="0.00 0.00 211.50 204.00" xmlns="http://www.w3.org/2000/svg" xmlns:xlink="http://www.w3.org/1999/xlink">
<g id="graph0" class="graph" transform="scale(1 1) rotate(0) translate(4 200)">
<title>hydra::detail::BackendPolicy&lt; Backend::Device &gt;</title>
<!-- Node2 -->
<g id="node1" class="node">
<title>Node2</title>
<polygon fill="#bfbfbf" stroke="black" points="50.5,-0.5 50.5,-68.5 191.5,-68.5 191.5,-0.5 50.5,-0.5"/>
<text text-anchor="start" x="58.5" y="-56.5" font-family="Helvetica,sans-Serif" font-size="10.00">hydra::detail::BackendPolicy</text>
<text text-anchor="middle" x="121" y="-45.5" font-family="Helvetica,sans-Serif" font-size="10.00">&lt; Backend::Device &gt;</text>
<polyline fill="none" stroke="black" points="50.5,-38.5 191.5,-38.5 "/>
<text text-anchor="middle" x="121" y="-26.5" font-family="Helvetica,sans-Serif" font-size="10.00"> </text>
<polyline fill="none" stroke="black" points="50.5,-19.5 191.5,-19.5 "/>
<text text-anchor="middle" x="121" y="-7.5" font-family="Helvetica,sans-Serif" font-size="10.00"> </text>
</g>
<!-- Node3 -->
<g id="node2" class="node">
<title>Node3</title>
<g id="a_node2"><a xlink:href="classhydra_1_1thrust_1_1device__execution__policy.html" target="_top" xlink:title="{hydra::thrust::device\l_execution_policy\&lt; device\l::device_t \&gt;\n||}">
<polygon fill="none" stroke="black" points="0,-116.5 0,-195.5 132,-195.5 132,-116.5 0,-116.5"/>
<text text-anchor="start" x="8" y="-183.5" font-family="Helvetica,sans-Serif" font-size="10.00">hydra::thrust::device</text>
<text text-anchor="start" x="8" y="-172.5" font-family="Helvetica,sans-Serif" font-size="10.00">_execution_policy&lt; device</text>
<text text-anchor="middle" x="66" y="-161.5" font-family="Helvetica,sans-Serif" font-size="10.00">::device_t &gt;</text>
<polyline fill="none" stroke="black" points="0,-154.5 132,-154.5 "/>
<text text-anchor="middle" x="66" y="-142.5" font-family="Helvetica,sans-Serif" font-size="10.00"> </text>
<polyline fill="none" stroke="black" points="0,-135.5 132,-135.5 "/>
<text text-anchor="middle" x="66" y="-123.5" font-family="Helvetica,sans-Serif" font-size="10.00"> </text>
</a>
</g>
</g>
<!-- Node3&#45;&gt;Node2 -->
<g id="edge1" class="edge">
<title>Node3&#45;&gt;Node2</title>
<path fill="none" stroke="midnightblue" d="M88.07,-107.05C93.96,-94.26 100.19,-80.71 105.63,-68.89"/>
<polygon fill="none" stroke="midnightblue" points="84.86,-105.65 83.86,-116.2 91.22,-108.58 84.86,-105.65"/>
</g>
<!-- Node4 -->
<g id="node3" class="node">
<title>Node4</title>
<polygon fill="none" stroke="#bfbfbf" points="150.5,-127.5 150.5,-184.5 203.5,-184.5 203.5,-127.5 150.5,-127.5"/>
<text text-anchor="middle" x="177" y="-172.5" font-family="Helvetica,sans-Serif" font-size="10.00">device_t</text>
<polyline fill="none" stroke="#bfbfbf" points="150.5,-165.5 203.5,-165.5 "/>
<text text-anchor="middle" x="177" y="-153.5" font-family="Helvetica,sans-Serif" font-size="10.00"> </text>
<polyline fill="none" stroke="#bfbfbf" points="150.5,-146.5 203.5,-146.5 "/>
<text text-anchor="middle" x="177" y="-134.5" font-family="Helvetica,sans-Serif" font-size="10.00"> </text>
</g>
<!-- Node4&#45;&gt;Node2 -->
<g id="edge2" class="edge">
<title>Node4&#45;&gt;Node2</title>
<path fill="none" stroke="#404040" d="M164.01,-127.28C157.41,-113.19 149.22,-95.72 141.77,-79.82"/>
<polygon fill="none" stroke="#404040" points="141.6,-79.46 135.43,-75.72 136.51,-68.59 142.67,-72.32 141.6,-79.46"/>
<text text-anchor="middle" x="172" y="-90" font-family="Helvetica,sans-Serif" font-size="10.00"> +backend</text>
</g>
</g>
</svg>
