<?xml version="1.0" encoding="UTF-8" standalone="no"?>
<!DOCTYPE svg PUBLIC "-//W3C//DTD SVG 1.1//EN"
 "http://www.w3.org/Graphics/SVG/1.1/DTD/svg11.dtd">
<!-- Generated by graphviz version 5.0.0 (0)
 -->
<!-- Title: hydra::detail::RndUniform&lt; T, GRND &gt; Pages: 1 -->
<svg width="136pt" height="226pt"
 viewBox="0.00 0.00 136.00 226.00" xmlns="http://www.w3.org/2000/svg" xmlns:xlink="http://www.w3.org/1999/xlink">
<g id="graph0" class="graph" transform="scale(1 1) rotate(0) translate(4 222)">
<title>hydra::detail::RndUniform&lt; T, GRND &gt;</title>
<!-- Node1 -->
<g id="node1" class="node">
<title>Node1</title>
<polygon fill="#bfbfbf" stroke="black" points="0,-0.5 0,-101.5 128,-101.5 128,-0.5 0,-0.5"/>
<text text-anchor="start" x="8" y="-89.5" font-family="Helvetica,sans-Serif" font-size="10.00">hydra::detail::RndUniform</text>
<text text-anchor="middle" x="64" y="-78.5" font-family="Helvetica,sans-Serif" font-size="10.00">&lt; T, GRND &gt;</text>
<polyline fill="none" stroke="black" points="0,-71.5 128,-71.5 "/>
<text text-anchor="middle" x="64" y="-59.5" font-family="Helvetica,sans-Serif" font-size="10.00"> </text>
<polyline fill="none" stroke="black" points="0,-52.5 128,-52.5 "/>
<text text-anchor="start" x="8" y="-40.5" font-family="Helvetica,sans-Serif" font-size="10.00">+ RndUniform()</text>
<text text-anchor="start" x="8" y="-29.5" font-family="Helvetica,sans-Serif" font-size="10.00">+ RndUniform()</text>
<text text-anchor="start" x="8" y="-18.5" font-family="Helvetica,sans-Serif" font-size="10.00">+ operator()()</text>
<text text-anchor="start" x="8" y="-7.5" font-family="Helvetica,sans-Serif" font-size="10.00">+ operator=()</text>
</g>
<!-- Node2 -->
<g id="node2" class="node">
<title>Node2</title>
<polygon fill="none" stroke="#bfbfbf" points="13.5,-160.5 13.5,-217.5 56.5,-217.5 56.5,-160.5 13.5,-160.5"/>
<text text-anchor="middle" x="35" y="-205.5" font-family="Helvetica,sans-Serif" font-size="10.00">size_t</text>
<polyline fill="none" stroke="#bfbfbf" points="13.5,-198.5 56.5,-198.5 "/>
<text text-anchor="middle" x="35" y="-186.5" font-family="Helvetica,sans-Serif" font-size="10.00"> </text>
<polyline fill="none" stroke="#bfbfbf" points="13.5,-179.5 56.5,-179.5 "/>
<text text-anchor="middle" x="35" y="-167.5" font-family="Helvetica,sans-Serif" font-size="10.00"> </text>
</g>
<!-- Node2&#45;&gt;Node1 -->
<g id="edge1" class="edge">
<title>Node2&#45;&gt;Node1</title>
<path fill="none" stroke="#404040" d="M33.07,-160.28C32.81,-147.85 33.31,-133.07 36,-120 36.44,-117.84 36.95,-115.67 37.52,-113.49"/>
<polygon fill="none" stroke="#404040" points="37.57,-113.33 35.47,-106.43 41.03,-101.84 43.13,-108.73 37.57,-113.33"/>
<text text-anchor="middle" x="53.5" y="-128.5" font-family="Helvetica,sans-Serif" font-size="10.00"> +fSeed</text>
</g>
<!-- Node3 -->
<g id="node3" class="node">
<title>Node3</title>
<polygon fill="none" stroke="#bfbfbf" points="78.5,-160.5 78.5,-217.5 107.5,-217.5 107.5,-160.5 78.5,-160.5"/>
<text text-anchor="middle" x="93" y="-205.5" font-family="Helvetica,sans-Serif" font-size="10.00">T</text>
<polyline fill="none" stroke="#bfbfbf" points="78.5,-198.5 107.5,-198.5 "/>
<text text-anchor="middle" x="93" y="-186.5" font-family="Helvetica,sans-Serif" font-size="10.00"> </text>
<polyline fill="none" stroke="#bfbfbf" points="78.5,-179.5 107.5,-179.5 "/>
<text text-anchor="middle" x="93" y="-167.5" font-family="Helvetica,sans-Serif" font-size="10.00"> </text>
</g>
<!-- Node3&#45;&gt;Node1 -->
<g id="edge2" class="edge">
<title>Node3&#45;&gt;Node1</title>
<path fill="none" stroke="#404040" d="M87.13,-160.48C84.24,-146.93 80.63,-130 77.13,-113.58"/>
<polygon fill="none" stroke="#404040" points="77.11,-113.5 71.95,-108.47 74.61,-101.76 79.77,-106.8 77.11,-113.5"/>
<text text-anchor="middle" x="96" y="-134" font-family="Helvetica,sans-Serif" font-size="10.00"> +fMin</text>
<text text-anchor="middle" x="96" y="-123" font-family="Helvetica,sans-Serif" font-size="10.00">+fMax</text>
</g>
</g>
</svg>
