<?xml version="1.0" encoding="UTF-8" standalone="no"?>
<!DOCTYPE svg PUBLIC "-//W3C//DTD SVG 1.1//EN"
 "http://www.w3.org/Graphics/SVG/1.1/DTD/svg11.dtd">
<!-- Generated by graphviz version 2.42.4 (0)
 -->
<!-- Title: hydra::detail::GetBinCenter&lt; T, 1 &gt; Pages: 1 -->
<svg width="291pt" height="259pt"
 viewBox="0.00 0.00 290.50 259.00" xmlns="http://www.w3.org/2000/svg" xmlns:xlink="http://www.w3.org/1999/xlink">
<g id="graph0" class="graph" transform="scale(1 1) rotate(0) translate(4 255)">
<title>hydra::detail::GetBinCenter&lt; T, 1 &gt;</title>
<!-- Node2 -->
<g id="node1" class="node">
<title>Node2</title>
<polygon fill="#bfbfbf" stroke="black" points="73,-0.5 73,-112.5 208,-112.5 208,-0.5 73,-0.5"/>
<text text-anchor="start" x="81" y="-100.5" font-family="Helvetica,sans-Serif" font-size="10.00">hydra::detail::GetBinCenter</text>
<text text-anchor="middle" x="140.5" y="-89.5" font-family="Helvetica,sans-Serif" font-size="10.00">&lt; T, 1 &gt;</text>
<polyline fill="none" stroke="black" points="73,-82.5 208,-82.5 "/>
<text text-anchor="middle" x="140.5" y="-70.5" font-family="Helvetica,sans-Serif" font-size="10.00"> </text>
<polyline fill="none" stroke="black" points="73,-63.5 208,-63.5 "/>
<text text-anchor="start" x="81" y="-51.5" font-family="Helvetica,sans-Serif" font-size="10.00">+ GetBinCenter()</text>
<text text-anchor="start" x="81" y="-40.5" font-family="Helvetica,sans-Serif" font-size="10.00">+ GetBinCenter()</text>
<text text-anchor="start" x="81" y="-29.5" font-family="Helvetica,sans-Serif" font-size="10.00">+ GetBinCenter()</text>
<text text-anchor="start" x="81" y="-18.5" font-family="Helvetica,sans-Serif" font-size="10.00">+ operator()()</text>
<text text-anchor="start" x="81" y="-7.5" font-family="Helvetica,sans-Serif" font-size="10.00">+ operator=()</text>
</g>
<!-- Node3 -->
<g id="node2" class="node">
<title>Node3</title>
<polygon fill="none" stroke="#bfbfbf" points="0,-182.5 0,-250.5 101,-250.5 101,-182.5 0,-182.5"/>
<text text-anchor="start" x="8" y="-238.5" font-family="Helvetica,sans-Serif" font-size="10.00">hydra_thrust::unary</text>
<text text-anchor="middle" x="50.5" y="-227.5" font-family="Helvetica,sans-Serif" font-size="10.00">_function&lt; T, T &gt;</text>
<polyline fill="none" stroke="#bfbfbf" points="0,-220.5 101,-220.5 "/>
<text text-anchor="middle" x="50.5" y="-208.5" font-family="Helvetica,sans-Serif" font-size="10.00"> </text>
<polyline fill="none" stroke="#bfbfbf" points="0,-201.5 101,-201.5 "/>
<text text-anchor="middle" x="50.5" y="-189.5" font-family="Helvetica,sans-Serif" font-size="10.00"> </text>
</g>
<!-- Node3&#45;&gt;Node2 -->
<g id="edge1" class="edge">
<title>Node3&#45;&gt;Node2</title>
<path fill="none" stroke="midnightblue" d="M74.41,-173.53C85.04,-154.86 97.7,-132.64 109.08,-112.66"/>
<polygon fill="none" stroke="midnightblue" points="71.28,-171.96 69.37,-182.38 77.36,-175.42 71.28,-171.96"/>
</g>
<!-- Node4 -->
<g id="node3" class="node">
<title>Node4</title>
<polygon fill="none" stroke="#bfbfbf" points="119,-188 119,-245 162,-245 162,-188 119,-188"/>
<text text-anchor="middle" x="140.5" y="-233" font-family="Helvetica,sans-Serif" font-size="10.00">size_t</text>
<polyline fill="none" stroke="#bfbfbf" points="119,-226 162,-226 "/>
<text text-anchor="middle" x="140.5" y="-214" font-family="Helvetica,sans-Serif" font-size="10.00"> </text>
<polyline fill="none" stroke="#bfbfbf" points="119,-207 162,-207 "/>
<text text-anchor="middle" x="140.5" y="-195" font-family="Helvetica,sans-Serif" font-size="10.00"> </text>
</g>
<!-- Node4&#45;&gt;Node2 -->
<g id="edge2" class="edge">
<title>Node4&#45;&gt;Node2</title>
<path fill="none" stroke="#404040" d="M140.5,-187.98C140.5,-170.45 140.5,-146.93 140.5,-124.68"/>
<polygon fill="none" stroke="#404040" points="140.5,-124.5 136.5,-118.5 140.5,-112.5 144.5,-118.5 140.5,-124.5"/>
<text text-anchor="middle" x="174" y="-150.5" font-family="Helvetica,sans-Serif" font-size="10.00"> +fNGlobalBins</text>
<text text-anchor="middle" x="174" y="-139.5" font-family="Helvetica,sans-Serif" font-size="10.00">+fGrid</text>
</g>
<!-- Node5 -->
<g id="node4" class="node">
<title>Node5</title>
<polygon fill="none" stroke="#bfbfbf" points="216,-188 216,-245 245,-245 245,-188 216,-188"/>
<text text-anchor="middle" x="230.5" y="-233" font-family="Helvetica,sans-Serif" font-size="10.00">T</text>
<polyline fill="none" stroke="#bfbfbf" points="216,-226 245,-226 "/>
<text text-anchor="middle" x="230.5" y="-214" font-family="Helvetica,sans-Serif" font-size="10.00"> </text>
<polyline fill="none" stroke="#bfbfbf" points="216,-207 245,-207 "/>
<text text-anchor="middle" x="230.5" y="-195" font-family="Helvetica,sans-Serif" font-size="10.00"> </text>
</g>
<!-- Node5&#45;&gt;Node2 -->
<g id="edge3" class="edge">
<title>Node5&#45;&gt;Node2</title>
<path fill="none" stroke="#404040" d="M226.85,-187.97C223.74,-170.8 218.18,-148.69 208.5,-131 206.95,-128.17 205.27,-125.36 203.48,-122.58"/>
<polygon fill="none" stroke="#404040" points="203.46,-122.56 196.74,-119.93 196.59,-112.72 203.3,-115.35 203.46,-122.56"/>
<text text-anchor="middle" x="251.5" y="-156" font-family="Helvetica,sans-Serif" font-size="10.00"> +fIncrement</text>
<text text-anchor="middle" x="251.5" y="-145" font-family="Helvetica,sans-Serif" font-size="10.00">+fDelta</text>
<text text-anchor="middle" x="251.5" y="-134" font-family="Helvetica,sans-Serif" font-size="10.00">+fLowerLimits</text>
</g>
</g>
</svg>
