<?xml version="1.0" encoding="UTF-8" standalone="no"?>
<!DOCTYPE svg PUBLIC "-//W3C//DTD SVG 1.1//EN"
 "http://www.w3.org/Graphics/SVG/1.1/DTD/svg11.dtd">
<!-- Generated by graphviz version 2.40.1 (20161225.0304)
 -->
<!-- Title: hydra::detail::all_true&lt; bs &gt; Pages: 1 -->
<svg width="196pt" height="515pt"
 viewBox="0.00 0.00 195.50 515.00" xmlns="http://www.w3.org/2000/svg" xmlns:xlink="http://www.w3.org/1999/xlink">
<g id="graph0" class="graph" transform="scale(1 1) rotate(0) translate(4 511)">
<title>hydra::detail::all_true&lt; bs &gt;</title>
<!-- Node0 -->
<g id="node1" class="node">
<title>Node0</title>
<polygon fill="#bfbfbf" stroke="#000000" points="33.5,-321.5 33.5,-389.5 119.5,-389.5 119.5,-321.5 33.5,-321.5"/>
<text text-anchor="start" x="41.5" y="-377.5" font-family="Helvetica,sans-Serif" font-size="10.00" fill="#000000">hydra::detail::all</text>
<text text-anchor="middle" x="76.5" y="-366.5" font-family="Helvetica,sans-Serif" font-size="10.00" fill="#000000">_true&lt; bs &gt;</text>
<polyline fill="none" stroke="#000000" points="33.5,-359.5 119.5,-359.5 "/>
<text text-anchor="middle" x="76.5" y="-347.5" font-family="Helvetica,sans-Serif" font-size="10.00" fill="#000000"> </text>
<polyline fill="none" stroke="#000000" points="33.5,-340.5 119.5,-340.5 "/>
<text text-anchor="middle" x="76.5" y="-328.5" font-family="Helvetica,sans-Serif" font-size="10.00" fill="#000000"> </text>
</g>
<!-- Node2 -->
<g id="node3" class="node">
<title>Node2</title>
<g id="a_node3"><a xlink:href="structhydra_1_1detail_1_1all__true.html" target="_top" xlink:title="{hydra::detail::all\l_true\&lt; detail::is_hydra\l_pdf\&lt; PDF1 \&gt;::value, detail\l::is_hydra_pdf\&lt; PDF2 \&gt;::value,\l detail::is_hydra_pdf\&lt; PDFs \&gt;\l::value... \&gt;\n||}">
<polygon fill="none" stroke="#000000" points="0,-106.5 0,-218.5 153,-218.5 153,-106.5 0,-106.5"/>
<text text-anchor="start" x="8" y="-206.5" font-family="Helvetica,sans-Serif" font-size="10.00" fill="#000000">hydra::detail::all</text>
<text text-anchor="start" x="8" y="-195.5" font-family="Helvetica,sans-Serif" font-size="10.00" fill="#000000">_true&lt; detail::is_hydra</text>
<text text-anchor="start" x="8" y="-184.5" font-family="Helvetica,sans-Serif" font-size="10.00" fill="#000000">_pdf&lt; PDF1 &gt;::value, detail</text>
<text text-anchor="start" x="8" y="-173.5" font-family="Helvetica,sans-Serif" font-size="10.00" fill="#000000">::is_hydra_pdf&lt; PDF2 &gt;::value,</text>
<text text-anchor="start" x="8" y="-162.5" font-family="Helvetica,sans-Serif" font-size="10.00" fill="#000000"> detail::is_hydra_pdf&lt; PDFs &gt;</text>
<text text-anchor="middle" x="76.5" y="-151.5" font-family="Helvetica,sans-Serif" font-size="10.00" fill="#000000">::value... &gt;</text>
<polyline fill="none" stroke="#000000" points="0,-144.5 153,-144.5 "/>
<text text-anchor="middle" x="76.5" y="-132.5" font-family="Helvetica,sans-Serif" font-size="10.00" fill="#000000"> </text>
<polyline fill="none" stroke="#000000" points="0,-125.5 153,-125.5 "/>
<text text-anchor="middle" x="76.5" y="-113.5" font-family="Helvetica,sans-Serif" font-size="10.00" fill="#000000"> </text>
</a>
</g>
</g>
<!-- Node0&#45;&gt;Node2 -->
<g id="edge2" class="edge">
<title>Node0&#45;&gt;Node2</title>
<path fill="none" stroke="#ffa500" d="M76.5,-311.3085C76.5,-283.7546 76.5,-248.047 76.5,-218.517"/>
<polygon fill="#ffa500" stroke="#ffa500" points="73.0001,-311.4397 76.5,-321.4397 80.0001,-311.4398 73.0001,-311.4397"/>
<text text-anchor="start" x="76.5" y="-295" font-family="Helvetica,sans-Serif" font-size="10.00" fill="#000000"> &lt; detail::is_hydra</text>
<text text-anchor="start" x="76.5" y="-284" font-family="Helvetica,sans-Serif" font-size="10.00" fill="#000000">_pdf&lt; PDF1 &gt;::value,</text>
<text text-anchor="start" x="76.5" y="-273" font-family="Helvetica,sans-Serif" font-size="10.00" fill="#000000"> detail::is_hydra_pdf</text>
<text text-anchor="start" x="76.5" y="-262" font-family="Helvetica,sans-Serif" font-size="10.00" fill="#000000">&lt; PDF2 &gt;::value, detail</text>
<text text-anchor="start" x="76.5" y="-251" font-family="Helvetica,sans-Serif" font-size="10.00" fill="#000000">::is_hydra_pdf&lt; PDFs &gt;::</text>
<text text-anchor="middle" x="132" y="-240" font-family="Helvetica,sans-Serif" font-size="10.00" fill="#000000">value... &gt;</text>
</g>
<!-- Node1 -->
<g id="node2" class="node">
<title>Node1</title>
<polygon fill="none" stroke="#bfbfbf" points="8.5,-427.5 8.5,-506.5 144.5,-506.5 144.5,-427.5 8.5,-427.5"/>
<text text-anchor="start" x="16.5" y="-494.5" font-family="Helvetica,sans-Serif" font-size="10.00" fill="#000000">std::is_same&lt; bool</text>
<text text-anchor="start" x="16.5" y="-483.5" font-family="Helvetica,sans-Serif" font-size="10.00" fill="#000000">_pack&lt; bs..., true &gt;</text>
<text text-anchor="middle" x="76.5" y="-472.5" font-family="Helvetica,sans-Serif" font-size="10.00" fill="#000000">, bool_pack&lt; true, bs... &gt; &gt;</text>
<polyline fill="none" stroke="#bfbfbf" points="8.5,-465.5 144.5,-465.5 "/>
<text text-anchor="middle" x="76.5" y="-453.5" font-family="Helvetica,sans-Serif" font-size="10.00" fill="#000000"> </text>
<polyline fill="none" stroke="#bfbfbf" points="8.5,-446.5 144.5,-446.5 "/>
<text text-anchor="middle" x="76.5" y="-434.5" font-family="Helvetica,sans-Serif" font-size="10.00" fill="#000000"> </text>
</g>
<!-- Node1&#45;&gt;Node0 -->
<g id="edge1" class="edge">
<title>Node1&#45;&gt;Node0</title>
<path fill="none" stroke="#191970" d="M76.5,-417.1102C76.5,-407.8885 76.5,-398.4506 76.5,-389.8207"/>
<polygon fill="none" stroke="#191970" points="73.0001,-417.3753 76.5,-427.3753 80.0001,-417.3754 73.0001,-417.3753"/>
</g>
<!-- Node3 -->
<g id="node4" class="node">
<title>Node3</title>
<g id="a_node4"><a xlink:href="classhydra_1_1detail_1_1AddPdfChecker.html" target="_top" xlink:title="{hydra::detail::AddPdfChecker\l\&lt; PDF1, PDF2, PDFs \&gt;\n||}">
<polygon fill="none" stroke="#000000" points="4.5,-.5 4.5,-68.5 148.5,-68.5 148.5,-.5 4.5,-.5"/>
<text text-anchor="start" x="12.5" y="-56.5" font-family="Helvetica,sans-Serif" font-size="10.00" fill="#000000">hydra::detail::AddPdfChecker</text>
<text text-anchor="middle" x="76.5" y="-45.5" font-family="Helvetica,sans-Serif" font-size="10.00" fill="#000000">&lt; PDF1, PDF2, PDFs &gt;</text>
<polyline fill="none" stroke="#000000" points="4.5,-38.5 148.5,-38.5 "/>
<text text-anchor="middle" x="76.5" y="-26.5" font-family="Helvetica,sans-Serif" font-size="10.00" fill="#000000"> </text>
<polyline fill="none" stroke="#000000" points="4.5,-19.5 148.5,-19.5 "/>
<text text-anchor="middle" x="76.5" y="-7.5" font-family="Helvetica,sans-Serif" font-size="10.00" fill="#000000"> </text>
</a>
</g>
</g>
<!-- Node2&#45;&gt;Node3 -->
<g id="edge3" class="edge">
<title>Node2&#45;&gt;Node3</title>
<path fill="none" stroke="#191970" d="M76.5,-96.3328C76.5,-86.7008 76.5,-77.1344 76.5,-68.5076"/>
<polygon fill="none" stroke="#191970" points="73.0001,-96.3573 76.5,-106.3573 80.0001,-96.3574 73.0001,-96.3573"/>
</g>
</g>
</svg>
