<?xml version="1.0" encoding="UTF-8" standalone="no"?>
<!DOCTYPE svg PUBLIC "-//W3C//DTD SVG 1.1//EN"
 "http://www.w3.org/Graphics/SVG/1.1/DTD/svg11.dtd">
<!-- Generated by graphviz version 5.0.0 (0)
 -->
<!-- Title: hydra::detail::all_true&lt; bs &gt; Pages: 1 -->
<!--zoomable 803 -->
<svg id="main" version="1.1" xmlns="http://www.w3.org/2000/svg" xmlns:xlink="http://www.w3.org/1999/xlink" xml:space="preserve" onload="init(evt)">
<style type="text/css"><![CDATA[
.edge:hover path { stroke: red; }
.edge:hover polygon { stroke: red; fill: red; }
]]></style>
<script type="text/javascript"><![CDATA[
var edges = document.getElementsByTagName('g');
if (edges && edges.length) {
  for (var i=0;i<edges.length;i++) {
    if (edges[i].id.substr(0,4)=='edge') {
      edges[i].setAttribute('class','edge');
    }
  }
}
]]></script>
        <defs>
                <circle id="rim" cx="0" cy="0" r="7"/>
                <circle id="rim2" cx="0" cy="0" r="3.5"/>
                <g id="zoomPlus">
                        <use xlink:href="#rim" fill="#404040">
                                <set attributeName="fill" to="#808080" begin="zoomplus.mouseover" end="zoomplus.mouseout"/>
                        </use>
                        <path d="M-4,0h8M0,-4v8" fill="none" stroke="white" stroke-width="1.5" pointer-events="none"/>
                </g>
                <g id="zoomMin">
                        <use xlink:href="#rim" fill="#404040">
                                <set attributeName="fill" to="#808080" begin="zoomminus.mouseover" end="zoomminus.mouseout"/>
                        </use>
                        <path d="M-4,0h8" fill="none" stroke="white" stroke-width="1.5" pointer-events="none"/>
                </g>
                <g id="dirArrow">
                        <path fill="none" stroke="white" stroke-width="1.5" d="M0,-3.0v7 M-2.5,-0.5L0,-3.0L2.5,-0.5"/>
                </g>
               <g id="resetDef">
                       <use xlink:href="#rim2" fill="#404040">
                               <set attributeName="fill" to="#808080" begin="reset.mouseover" end="reset.mouseout"/>
                       </use>
               </g>
        </defs>

<script type="text/javascript">
var viewWidth = 520;
var viewHeight = 803;
var sectionId = 'dynsection-0';
</script>
<script xlink:href="svgpan.js"/>
<svg id="graph" class="graph">
<g id="viewport">
<title>hydra::detail::all_true&lt; bs &gt;</title>
<!-- Node0 -->
<g id="node1" class="node">
<title>Node0</title>
<polygon fill="#bfbfbf" stroke="black" points="116,-609.5 116,-677.5 202,-677.5 202,-609.5 116,-609.5"/>
<text text-anchor="start" x="124" y="-665.5" font-family="Helvetica,sans-Serif" font-size="10.00">hydra::detail::all</text>
<text text-anchor="middle" x="159" y="-654.5" font-family="Helvetica,sans-Serif" font-size="10.00">_true&lt; bs &gt;</text>
<polyline fill="none" stroke="black" points="116,-647.5 202,-647.5 "/>
<text text-anchor="middle" x="159" y="-635.5" font-family="Helvetica,sans-Serif" font-size="10.00"> </text>
<polyline fill="none" stroke="black" points="116,-628.5 202,-628.5 "/>
<text text-anchor="middle" x="159" y="-616.5" font-family="Helvetica,sans-Serif" font-size="10.00"> </text>
</g>
<!-- Node2 -->
<g id="node3" class="node">
<title>Node2</title>
<g id="a_node3"><a xlink:href="structhydra_1_1detail_1_1all__true.html" target="_top" xlink:title="{hydra::detail::all\l_true\&lt; detail::is_hydra\l_pdf\&lt; PDF1 \&gt;::value, detail\l::is_hydra_pdf\&lt; PDF2 \&gt;::value,\l detail::is_hydra_pdf\&lt; PDFs \&gt;\l::value... \&gt;\n||}">
<polygon fill="none" stroke="black" points="0,-394.5 0,-506.5 154,-506.5 154,-394.5 0,-394.5"/>
<text text-anchor="start" x="8" y="-494.5" font-family="Helvetica,sans-Serif" font-size="10.00">hydra::detail::all</text>
<text text-anchor="start" x="8" y="-483.5" font-family="Helvetica,sans-Serif" font-size="10.00">_true&lt; detail::is_hydra</text>
<text text-anchor="start" x="8" y="-472.5" font-family="Helvetica,sans-Serif" font-size="10.00">_pdf&lt; PDF1 &gt;::value, detail</text>
<text text-anchor="start" x="8" y="-461.5" font-family="Helvetica,sans-Serif" font-size="10.00">::is_hydra_pdf&lt; PDF2 &gt;::value,</text>
<text text-anchor="start" x="8" y="-450.5" font-family="Helvetica,sans-Serif" font-size="10.00"> detail::is_hydra_pdf&lt; PDFs &gt;</text>
<text text-anchor="middle" x="77" y="-439.5" font-family="Helvetica,sans-Serif" font-size="10.00">::value... &gt;</text>
<polyline fill="none" stroke="black" points="0,-432.5 154,-432.5 "/>
<text text-anchor="middle" x="77" y="-420.5" font-family="Helvetica,sans-Serif" font-size="10.00"> </text>
<polyline fill="none" stroke="black" points="0,-413.5 154,-413.5 "/>
<text text-anchor="middle" x="77" y="-401.5" font-family="Helvetica,sans-Serif" font-size="10.00"> </text>
</a>
</g>
</g>
<!-- Node0&#45;&gt;Node2 -->
<g id="edge2" class="edge">
<title>Node0&#45;&gt;Node2</title>
<path fill="none" stroke="orange" d="M108.93,-603.82C105.55,-599.77 102.5,-595.49 100,-591 85.78,-565.48 79.81,-533.55 77.5,-506.67"/>
<polygon fill="orange" stroke="orange" points="106.44,-606.28 115.77,-611.29 111.6,-601.55 106.44,-606.28"/>
<text text-anchor="start" x="100" y="-583" font-family="Helvetica,sans-Serif" font-size="10.00"> &lt; detail::is_hydra</text>
<text text-anchor="start" x="100" y="-572" font-family="Helvetica,sans-Serif" font-size="10.00">_pdf&lt; PDF1 &gt;::value,</text>
<text text-anchor="start" x="100" y="-561" font-family="Helvetica,sans-Serif" font-size="10.00"> detail::is_hydra_pdf</text>
<text text-anchor="start" x="100" y="-550" font-family="Helvetica,sans-Serif" font-size="10.00">&lt; PDF2 &gt;::value, detail</text>
<text text-anchor="start" x="100" y="-539" font-family="Helvetica,sans-Serif" font-size="10.00">::is_hydra_pdf&lt; PDFs &gt;::</text>
<text text-anchor="middle" x="156" y="-528" font-family="Helvetica,sans-Serif" font-size="10.00">value... &gt;</text>
</g>
<!-- Node4 -->
<g id="node5" class="node">
<title>Node4</title>
<g id="a_node5"><a xlink:href="structhydra_1_1detail_1_1all__true.html" target="_top" xlink:title="{hydra::detail::all\l_true\&lt; is_function_argument\l\&lt; ArgTypes \&gt;::value... \&gt;\n||}">
<polygon fill="none" stroke="black" points="172,-411 172,-490 312,-490 312,-411 172,-411"/>
<text text-anchor="start" x="180" y="-478" font-family="Helvetica,sans-Serif" font-size="10.00">hydra::detail::all</text>
<text text-anchor="start" x="180" y="-467" font-family="Helvetica,sans-Serif" font-size="10.00">_true&lt; is_function_argument</text>
<text text-anchor="middle" x="242" y="-456" font-family="Helvetica,sans-Serif" font-size="10.00">&lt; ArgTypes &gt;::value... &gt;</text>
<polyline fill="none" stroke="black" points="172,-449 312,-449 "/>
<text text-anchor="middle" x="242" y="-437" font-family="Helvetica,sans-Serif" font-size="10.00"> </text>
<polyline fill="none" stroke="black" points="172,-430 312,-430 "/>
<text text-anchor="middle" x="242" y="-418" font-family="Helvetica,sans-Serif" font-size="10.00"> </text>
</a>
</g>
</g>
<!-- Node0&#45;&gt;Node4 -->
<g id="edge4" class="edge">
<title>Node0&#45;&gt;Node4</title>
<path fill="none" stroke="orange" d="M205,-601.66C207.6,-598.23 209.97,-594.66 212,-591 229.34,-559.69 236.67,-519.28 239.75,-490.02"/>
<polygon fill="orange" stroke="orange" points="202.27,-599.48 198.6,-609.42 207.67,-603.93 202.27,-599.48"/>
<text text-anchor="start" x="235" y="-561" font-family="Helvetica,sans-Serif" font-size="10.00"> &lt; is_function_argument</text>
<text text-anchor="middle" x="288" y="-550" font-family="Helvetica,sans-Serif" font-size="10.00">&lt; ArgTypes &gt;::value... &gt;</text>
</g>
<!-- Node1 -->
<g id="node2" class="node">
<title>Node1</title>
<polygon fill="none" stroke="#bfbfbf" points="91,-715.5 91,-794.5 227,-794.5 227,-715.5 91,-715.5"/>
<text text-anchor="start" x="99" y="-782.5" font-family="Helvetica,sans-Serif" font-size="10.00">std::is_same&lt; bool</text>
<text text-anchor="start" x="99" y="-771.5" font-family="Helvetica,sans-Serif" font-size="10.00">_pack&lt; bs..., true &gt;</text>
<text text-anchor="middle" x="159" y="-760.5" font-family="Helvetica,sans-Serif" font-size="10.00">, bool_pack&lt; true, bs... &gt; &gt;</text>
<polyline fill="none" stroke="#bfbfbf" points="91,-753.5 227,-753.5 "/>
<text text-anchor="middle" x="159" y="-741.5" font-family="Helvetica,sans-Serif" font-size="10.00"> </text>
<polyline fill="none" stroke="#bfbfbf" points="91,-734.5 227,-734.5 "/>
<text text-anchor="middle" x="159" y="-722.5" font-family="Helvetica,sans-Serif" font-size="10.00"> </text>
</g>
<!-- Node1&#45;&gt;Node0 -->
<g id="edge1" class="edge">
<title>Node1&#45;&gt;Node0</title>
<path fill="none" stroke="midnightblue" d="M159,-705.38C159,-696.02 159,-686.41 159,-677.67"/>
<polygon fill="none" stroke="midnightblue" points="155.5,-705.39 159,-715.39 162.5,-705.39 155.5,-705.39"/>
</g>
<!-- Node3 -->
<g id="node4" class="node">
<title>Node3</title>
<g id="a_node4"><a xlink:href="classhydra_1_1detail_1_1AddPdfChecker.html" target="_top" xlink:title="{hydra::detail::AddPdfChecker\l\&lt; PDF1, PDF2, PDFs \&gt;\n||}">
<polygon fill="none" stroke="black" points="4.5,-288.5 4.5,-356.5 149.5,-356.5 149.5,-288.5 4.5,-288.5"/>
<text text-anchor="start" x="12.5" y="-344.5" font-family="Helvetica,sans-Serif" font-size="10.00">hydra::detail::AddPdfChecker</text>
<text text-anchor="middle" x="77" y="-333.5" font-family="Helvetica,sans-Serif" font-size="10.00">&lt; PDF1, PDF2, PDFs &gt;</text>
<polyline fill="none" stroke="black" points="4.5,-326.5 149.5,-326.5 "/>
<text text-anchor="middle" x="77" y="-314.5" font-family="Helvetica,sans-Serif" font-size="10.00"> </text>
<polyline fill="none" stroke="black" points="4.5,-307.5 149.5,-307.5 "/>
<text text-anchor="middle" x="77" y="-295.5" font-family="Helvetica,sans-Serif" font-size="10.00"> </text>
</a>
</g>
</g>
<!-- Node2&#45;&gt;Node3 -->
<g id="edge3" class="edge">
<title>Node2&#45;&gt;Node3</title>
<path fill="none" stroke="midnightblue" d="M77,-383.96C77,-374.48 77,-365.08 77,-356.62"/>
<polygon fill="none" stroke="midnightblue" points="73.5,-384.23 77,-394.23 80.5,-384.23 73.5,-384.23"/>
</g>
<!-- Node5 -->
<g id="node6" class="node">
<title>Node5</title>
<g id="a_node6"><a xlink:href="structhydra_1_1detail_1_1is__function__argument__pack.html" target="_top" xlink:title="{hydra::detail::is_function\l_argument_pack\&lt; ArgTypes \&gt;\n||}">
<polygon fill="none" stroke="black" points="167.5,-288.5 167.5,-356.5 314.5,-356.5 314.5,-288.5 167.5,-288.5"/>
<text text-anchor="start" x="175.5" y="-344.5" font-family="Helvetica,sans-Serif" font-size="10.00">hydra::detail::is_function</text>
<text text-anchor="middle" x="241" y="-333.5" font-family="Helvetica,sans-Serif" font-size="10.00">_argument_pack&lt; ArgTypes &gt;</text>
<polyline fill="none" stroke="black" points="167.5,-326.5 314.5,-326.5 "/>
<text text-anchor="middle" x="241" y="-314.5" font-family="Helvetica,sans-Serif" font-size="10.00"> </text>
<polyline fill="none" stroke="black" points="167.5,-307.5 314.5,-307.5 "/>
<text text-anchor="middle" x="241" y="-295.5" font-family="Helvetica,sans-Serif" font-size="10.00"> </text>
</a>
</g>
</g>
<!-- Node4&#45;&gt;Node5 -->
<g id="edge5" class="edge">
<title>Node4&#45;&gt;Node5</title>
<path fill="none" stroke="midnightblue" d="M241.61,-400.31C241.49,-385.76 241.37,-370.19 241.26,-356.89"/>
<polygon fill="none" stroke="midnightblue" points="238.11,-400.7 241.69,-410.67 245.11,-400.64 238.11,-400.7"/>
</g>
<!-- Node6 -->
<g id="node7" class="node">
<title>Node6</title>
<g id="a_node7"><a xlink:href="structhydra_1_1detail_1_1is__function__argument__pack.html" target="_top" xlink:title="{hydra::detail::is_function\l_argument_pack\&lt; std::decay\l\&lt; ArgTypes \&gt;::type... \&gt;\n||}">
<polygon fill="none" stroke="black" points="220.5,-150.5 220.5,-229.5 363.5,-229.5 363.5,-150.5 220.5,-150.5"/>
<text text-anchor="start" x="228.5" y="-217.5" font-family="Helvetica,sans-Serif" font-size="10.00">hydra::detail::is_function</text>
<text text-anchor="start" x="228.5" y="-206.5" font-family="Helvetica,sans-Serif" font-size="10.00">_argument_pack&lt; std::decay</text>
<text text-anchor="middle" x="292" y="-195.5" font-family="Helvetica,sans-Serif" font-size="10.00">&lt; ArgTypes &gt;::type... &gt;</text>
<polyline fill="none" stroke="black" points="220.5,-188.5 363.5,-188.5 "/>
<text text-anchor="middle" x="292" y="-176.5" font-family="Helvetica,sans-Serif" font-size="10.00"> </text>
<polyline fill="none" stroke="black" points="220.5,-169.5 363.5,-169.5 "/>
<text text-anchor="middle" x="292" y="-157.5" font-family="Helvetica,sans-Serif" font-size="10.00"> </text>
</a>
</g>
</g>
<!-- Node4&#45;&gt;Node6 -->
<g id="edge10" class="edge">
<title>Node4&#45;&gt;Node6</title>
<path fill="none" stroke="midnightblue" d="M291,-403.14C303.1,-389.35 314.91,-373.49 323,-357 344.59,-312.98 356.81,-294.06 340,-248 337.65,-241.56 334.21,-235.34 330.25,-229.53"/>
<polygon fill="none" stroke="midnightblue" points="288.38,-400.81 284.26,-410.57 293.57,-405.51 288.38,-400.81"/>
</g>
<!-- Node5&#45;&gt;Node6 -->
<g id="edge6" class="edge">
<title>Node5&#45;&gt;Node6</title>
<path fill="none" stroke="orange" d="M228.32,-278.25C227.31,-268.04 227.97,-257.39 232,-248 234.83,-241.4 238.85,-235.2 243.48,-229.5"/>
<polygon fill="orange" stroke="orange" points="224.87,-278.89 229.81,-288.27 231.79,-277.86 224.87,-278.89"/>
<text text-anchor="start" x="232" y="-262" font-family="Helvetica,sans-Serif" font-size="10.00"> &lt; std::decay&lt; ArgTypes</text>
<text text-anchor="middle" x="286" y="-251" font-family="Helvetica,sans-Serif" font-size="10.00"> &gt;::type... &gt;</text>
</g>
<!-- Node7 -->
<g id="node8" class="node">
<title>Node7</title>
<g id="a_node8"><a xlink:href="structhydra_1_1detail_1_1is__tuple__of__function__arguments_3_01hydra_1_1thrust_1_1detail_1_1tupb8d5df9f37f5c6735a3d0165e8041ed9.html" target="_top" xlink:title="{hydra::detail::is_tuple\l_of_function_arguments\l\&lt; hydra::thrust::detail\l::tuple_of_iterator_references\l\&lt; ArgTypes &amp;... \&gt; \&gt;\n||}">
<polygon fill="none" stroke="black" points="50.5,-6 50.5,-107 193.5,-107 193.5,-6 50.5,-6"/>
<text text-anchor="start" x="58.5" y="-95" font-family="Helvetica,sans-Serif" font-size="10.00">hydra::detail::is_tuple</text>
<text text-anchor="start" x="58.5" y="-84" font-family="Helvetica,sans-Serif" font-size="10.00">_of_function_arguments</text>
<text text-anchor="start" x="58.5" y="-73" font-family="Helvetica,sans-Serif" font-size="10.00">&lt; hydra::thrust::detail</text>
<text text-anchor="start" x="58.5" y="-62" font-family="Helvetica,sans-Serif" font-size="10.00">::tuple_of_iterator_references</text>
<text text-anchor="middle" x="122" y="-51" font-family="Helvetica,sans-Serif" font-size="10.00">&lt; ArgTypes &amp;... &gt; &gt;</text>
<polyline fill="none" stroke="black" points="50.5,-44 193.5,-44 "/>
<text text-anchor="middle" x="122" y="-32" font-family="Helvetica,sans-Serif" font-size="10.00"> </text>
<polyline fill="none" stroke="black" points="50.5,-25 193.5,-25 "/>
<text text-anchor="middle" x="122" y="-13" font-family="Helvetica,sans-Serif" font-size="10.00"> </text>
</a>
</g>
</g>
<!-- Node6&#45;&gt;Node7 -->
<g id="edge7" class="edge">
<title>Node6&#45;&gt;Node7</title>
<path fill="none" stroke="midnightblue" d="M233.58,-143.81C218.33,-132.01 201.8,-119.23 186.25,-107.2"/>
<polygon fill="none" stroke="midnightblue" points="231.86,-146.91 241.91,-150.26 236.15,-141.37 231.86,-146.91"/>
</g>
<!-- Node8 -->
<g id="node9" class="node">
<title>Node8</title>
<g id="a_node9"><a xlink:href="structhydra_1_1detail_1_1is__tuple__of__function__arguments_3_01hydra_1_1thrust_1_1detail_1_1tup9c3ba752e8de42a534da063330119dc7.html" target="_top" xlink:title="{hydra::detail::is_tuple\l_of_function_arguments\l\&lt; hydra::thrust::detail\l::tuple_of_iterator_references\l\&lt; hydra::thrust::device_reference\l\&lt; ArgTypes \&gt;... \&gt; \&gt;\n||}">
<polygon fill="none" stroke="black" points="211.5,-0.5 211.5,-112.5 372.5,-112.5 372.5,-0.5 211.5,-0.5"/>
<text text-anchor="start" x="219.5" y="-100.5" font-family="Helvetica,sans-Serif" font-size="10.00">hydra::detail::is_tuple</text>
<text text-anchor="start" x="219.5" y="-89.5" font-family="Helvetica,sans-Serif" font-size="10.00">_of_function_arguments</text>
<text text-anchor="start" x="219.5" y="-78.5" font-family="Helvetica,sans-Serif" font-size="10.00">&lt; hydra::thrust::detail</text>
<text text-anchor="start" x="219.5" y="-67.5" font-family="Helvetica,sans-Serif" font-size="10.00">::tuple_of_iterator_references</text>
<text text-anchor="start" x="219.5" y="-56.5" font-family="Helvetica,sans-Serif" font-size="10.00">&lt; hydra::thrust::device_reference</text>
<text text-anchor="middle" x="292" y="-45.5" font-family="Helvetica,sans-Serif" font-size="10.00">&lt; ArgTypes &gt;... &gt; &gt;</text>
<polyline fill="none" stroke="black" points="211.5,-38.5 372.5,-38.5 "/>
<text text-anchor="middle" x="292" y="-26.5" font-family="Helvetica,sans-Serif" font-size="10.00"> </text>
<polyline fill="none" stroke="black" points="211.5,-19.5 372.5,-19.5 "/>
<text text-anchor="middle" x="292" y="-7.5" font-family="Helvetica,sans-Serif" font-size="10.00"> </text>
</a>
</g>
</g>
<!-- Node6&#45;&gt;Node8 -->
<g id="edge8" class="edge">
<title>Node6&#45;&gt;Node8</title>
<path fill="none" stroke="midnightblue" d="M292,-139.99C292,-131.04 292,-121.64 292,-112.53"/>
<polygon fill="none" stroke="midnightblue" points="288.5,-140.26 292,-150.26 295.5,-140.26 288.5,-140.26"/>
</g>
<!-- Node9 -->
<g id="node10" class="node">
<title>Node9</title>
<g id="a_node10"><a xlink:href="structhydra_1_1detail_1_1is__tuple__of__function__arguments_3_01hydra_1_1thrust_1_1tuple_3_01ArgTypes_8_8_8_01_4_01_4.html" target="_top" xlink:title="{hydra::detail::is_tuple\l_of_function_arguments\l\&lt; hydra::thrust::tuple\l\&lt; ArgTypes... \&gt; \&gt;\n||}">
<polygon fill="none" stroke="black" points="390.5,-11.5 390.5,-101.5 511.5,-101.5 511.5,-11.5 390.5,-11.5"/>
<text text-anchor="start" x="398.5" y="-89.5" font-family="Helvetica,sans-Serif" font-size="10.00">hydra::detail::is_tuple</text>
<text text-anchor="start" x="398.5" y="-78.5" font-family="Helvetica,sans-Serif" font-size="10.00">_of_function_arguments</text>
<text text-anchor="start" x="398.5" y="-67.5" font-family="Helvetica,sans-Serif" font-size="10.00">&lt; hydra::thrust::tuple</text>
<text text-anchor="middle" x="451" y="-56.5" font-family="Helvetica,sans-Serif" font-size="10.00">&lt; ArgTypes... &gt; &gt;</text>
<polyline fill="none" stroke="black" points="390.5,-49.5 511.5,-49.5 "/>
<text text-anchor="middle" x="451" y="-37.5" font-family="Helvetica,sans-Serif" font-size="10.00"> </text>
<polyline fill="none" stroke="black" points="390.5,-30.5 511.5,-30.5 "/>
<text text-anchor="middle" x="451" y="-18.5" font-family="Helvetica,sans-Serif" font-size="10.00"> </text>
</a>
</g>
</g>
<!-- Node6&#45;&gt;Node9 -->
<g id="edge9" class="edge">
<title>Node6&#45;&gt;Node9</title>
<path fill="none" stroke="midnightblue" d="M346.81,-143.67C363.31,-130.02 381.39,-115.07 397.79,-101.5"/>
<polygon fill="none" stroke="midnightblue" points="344.32,-141.19 338.85,-150.26 348.78,-146.58 344.32,-141.19"/>
</g>
</g>
</svg>
        <g id="navigator" transform="translate(0 0)" fill="#404254">
                <rect fill="#f2f5e9" fill-opacity="0.5" stroke="#606060" stroke-width=".5" x="0" y="0" width="60" height="60"/>
                <use id="zoomplus" xlink:href="#zoomPlus" x="17" y="9" onmousedown="handleZoom(evt,'in')"/>
                <use id="zoomminus" xlink:href="#zoomMin" x="42" y="9" onmousedown="handleZoom(evt,'out')"/>
                <use id="reset" xlink:href="#resetDef" x="30" y="36" onmousedown="handleReset()"/>
                <g id="arrowUp" xlink:href="#dirArrow" transform="translate(30 24)" onmousedown="handlePan(0,-1)">
                  <use xlink:href="#rim" fill="#404040">
                        <set attributeName="fill" to="#808080" begin="arrowUp.mouseover" end="arrowUp.mouseout"/>
                  </use>
                  <path fill="none" stroke="white" stroke-width="1.5" d="M0,-3.0v7 M-2.5,-0.5L0,-3.0L2.5,-0.5"/>
                </g>
                <g id="arrowRight" xlink:href="#dirArrow" transform="rotate(90) translate(36 -43)" onmousedown="handlePan(1,0)">
                  <use xlink:href="#rim" fill="#404040">
                        <set attributeName="fill" to="#808080" begin="arrowRight.mouseover" end="arrowRight.mouseout"/>
                  </use>
                  <path fill="none" stroke="white" stroke-width="1.5" d="M0,-3.0v7 M-2.5,-0.5L0,-3.0L2.5,-0.5"/>
                </g>
                <g id="arrowDown" xlink:href="#dirArrow" transform="rotate(180) translate(-30 -48)" onmousedown="handlePan(0,1)">
                  <use xlink:href="#rim" fill="#404040">
                        <set attributeName="fill" to="#808080" begin="arrowDown.mouseover" end="arrowDown.mouseout"/>
                  </use>
                  <path fill="none" stroke="white" stroke-width="1.5" d="M0,-3.0v7 M-2.5,-0.5L0,-3.0L2.5,-0.5"/>
                </g>
                <g id="arrowLeft" xlink:href="#dirArrow" transform="rotate(270) translate(-36 17)" onmousedown="handlePan(-1,0)">
                  <use xlink:href="#rim" fill="#404040">
                        <set attributeName="fill" to="#808080" begin="arrowLeft.mouseover" end="arrowLeft.mouseout"/>
                  </use>
                  <path fill="none" stroke="white" stroke-width="1.5" d="M0,-3.0v7 M-2.5,-0.5L0,-3.0L2.5,-0.5"/>
                </g>
        </g>
        <svg viewBox="0 0 15 15" width="100%" height="30px" preserveAspectRatio="xMaxYMin meet">
         <g id="arrow_out" transform="scale(0.3 0.3)">
          <a xlink:href="structhydra_1_1detail_1_1all__true__inherit__graph_org.svg" target="_base">
           <rect id="button" ry="5" rx="5" y="6" x="6" height="38" width="38"
                fill="#f2f5e9" fill-opacity="0.5" stroke="#606060" stroke-width="1.0"/>
           <path id="arrow"
             d="M 11.500037,31.436501 C 11.940474,20.09759 22.043105,11.32322 32.158766,21.979434 L 37.068811,17.246167 C 37.068811,17.246167 37.088388,32 37.088388,32 L 22.160133,31.978069 C 22.160133,31.978069 26.997745,27.140456 26.997745,27.140456 C 18.528582,18.264221 13.291696,25.230495 11.500037,31.436501 z"
             style="fill:#404040;"/>
          </a>
         </g>
        </svg>
</svg>
