<?xml version="1.0" encoding="UTF-8" standalone="no"?>
<!DOCTYPE svg PUBLIC "-//W3C//DTD SVG 1.1//EN"
 "http://www.w3.org/Graphics/SVG/1.1/DTD/svg11.dtd">
<!-- Generated by graphviz version 2.42.4 (0)
 -->
<!-- Title: hydra::detail::impl::exact_unsigned_base_helper&lt; Bits &gt; Pages: 1 -->
<svg width="125pt" height="193pt"
 viewBox="0.00 0.00 125.00 193.00" xmlns="http://www.w3.org/2000/svg" xmlns:xlink="http://www.w3.org/1999/xlink">
<g id="graph0" class="graph" transform="scale(1 1) rotate(0) translate(4 189)">
<title>hydra::detail::impl::exact_unsigned_base_helper&lt; Bits &gt;</title>
<!-- Node0 -->
<g id="node1" class="node">
<title>Node0</title>
<polygon fill="#bfbfbf" stroke="black" points="0,-105.5 0,-184.5 117,-184.5 117,-105.5 0,-105.5"/>
<text text-anchor="start" x="8" y="-172.5" font-family="Helvetica,sans-Serif" font-size="10.00">hydra::detail::impl</text>
<text text-anchor="start" x="8" y="-161.5" font-family="Helvetica,sans-Serif" font-size="10.00">::exact_unsigned_base</text>
<text text-anchor="middle" x="58.5" y="-150.5" font-family="Helvetica,sans-Serif" font-size="10.00">_helper&lt; Bits &gt;</text>
<polyline fill="none" stroke="black" points="0,-143.5 117,-143.5 "/>
<text text-anchor="middle" x="58.5" y="-131.5" font-family="Helvetica,sans-Serif" font-size="10.00"> </text>
<polyline fill="none" stroke="black" points="0,-124.5 117,-124.5 "/>
<text text-anchor="middle" x="58.5" y="-112.5" font-family="Helvetica,sans-Serif" font-size="10.00"> </text>
</g>
<!-- Node1 -->
<g id="node2" class="node">
<title>Node1</title>
<g id="a_node2"><a xlink:href="structhydra_1_1detail_1_1uint__t.html" target="_top" xlink:title="{hydra::detail::uint\l_t\&lt; Bits \&gt;\n||}">
<polygon fill="none" stroke="black" points="12.5,-0.5 12.5,-68.5 104.5,-68.5 104.5,-0.5 12.5,-0.5"/>
<text text-anchor="start" x="20.5" y="-56.5" font-family="Helvetica,sans-Serif" font-size="10.00">hydra::detail::uint</text>
<text text-anchor="middle" x="58.5" y="-45.5" font-family="Helvetica,sans-Serif" font-size="10.00">_t&lt; Bits &gt;</text>
<polyline fill="none" stroke="black" points="12.5,-38.5 104.5,-38.5 "/>
<text text-anchor="middle" x="58.5" y="-26.5" font-family="Helvetica,sans-Serif" font-size="10.00"> </text>
<polyline fill="none" stroke="black" points="12.5,-19.5 104.5,-19.5 "/>
<text text-anchor="middle" x="58.5" y="-7.5" font-family="Helvetica,sans-Serif" font-size="10.00"> </text>
</a>
</g>
</g>
<!-- Node0&#45;&gt;Node1 -->
<g id="edge1" class="edge">
<title>Node0&#45;&gt;Node1</title>
<path fill="none" stroke="midnightblue" d="M58.5,-95.35C58.5,-86.28 58.5,-77 58.5,-68.54"/>
<polygon fill="none" stroke="midnightblue" points="55,-95.44 58.5,-105.44 62,-95.44 55,-95.44"/>
</g>
</g>
</svg>
