<?xml version="1.0" encoding="UTF-8" standalone="no"?>
<!DOCTYPE svg PUBLIC "-//W3C//DTD SVG 1.1//EN"
 "http://www.w3.org/Graphics/SVG/1.1/DTD/svg11.dtd">
<!-- Generated by graphviz version 2.42.4 (0)
 -->
<!-- Title: hydra::detail::BackendPolicy&lt; Backend::Cpp &gt; Pages: 1 -->
<svg width="188pt" height="193pt"
 viewBox="0.00 0.00 187.50 193.00" xmlns="http://www.w3.org/2000/svg" xmlns:xlink="http://www.w3.org/1999/xlink">
<g id="graph0" class="graph" transform="scale(1 1) rotate(0) translate(4 189)">
<title>hydra::detail::BackendPolicy&lt; Backend::Cpp &gt;</title>
<!-- Node2 -->
<g id="node1" class="node">
<title>Node2</title>
<polygon fill="#bfbfbf" stroke="black" points="38,-0.5 38,-68.5 179,-68.5 179,-0.5 38,-0.5"/>
<text text-anchor="start" x="46" y="-56.5" font-family="Helvetica,sans-Serif" font-size="10.00">hydra::detail::BackendPolicy</text>
<text text-anchor="middle" x="108.5" y="-45.5" font-family="Helvetica,sans-Serif" font-size="10.00">&lt; Backend::Cpp &gt;</text>
<polyline fill="none" stroke="black" points="38,-38.5 179,-38.5 "/>
<text text-anchor="middle" x="108.5" y="-26.5" font-family="Helvetica,sans-Serif" font-size="10.00"> </text>
<polyline fill="none" stroke="black" points="38,-19.5 179,-19.5 "/>
<text text-anchor="middle" x="108.5" y="-7.5" font-family="Helvetica,sans-Serif" font-size="10.00"> </text>
</g>
<!-- Node3 -->
<g id="node2" class="node">
<title>Node3</title>
<polygon fill="none" stroke="#bfbfbf" points="0,-116.5 0,-184.5 119,-184.5 119,-116.5 0,-116.5"/>
<text text-anchor="start" x="8" y="-172.5" font-family="Helvetica,sans-Serif" font-size="10.00">hydra_thrust::execution</text>
<text text-anchor="middle" x="59.5" y="-161.5" font-family="Helvetica,sans-Serif" font-size="10.00">_policy&lt; cpp::cpp_t &gt;</text>
<polyline fill="none" stroke="#bfbfbf" points="0,-154.5 119,-154.5 "/>
<text text-anchor="middle" x="59.5" y="-142.5" font-family="Helvetica,sans-Serif" font-size="10.00"> </text>
<polyline fill="none" stroke="#bfbfbf" points="0,-135.5 119,-135.5 "/>
<text text-anchor="middle" x="59.5" y="-123.5" font-family="Helvetica,sans-Serif" font-size="10.00"> </text>
</g>
<!-- Node3&#45;&gt;Node2 -->
<g id="edge1" class="edge">
<title>Node3&#45;&gt;Node2</title>
<path fill="none" stroke="midnightblue" d="M77.85,-106.8C83.28,-94.18 89.14,-80.55 94.26,-68.62"/>
<polygon fill="none" stroke="midnightblue" points="74.54,-105.65 73.8,-116.22 80.97,-108.41 74.54,-105.65"/>
</g>
<!-- Node4 -->
<g id="node3" class="node">
<title>Node4</title>
<polygon fill="none" stroke="#bfbfbf" points="137,-122 137,-179 178,-179 178,-122 137,-122"/>
<text text-anchor="middle" x="157.5" y="-167" font-family="Helvetica,sans-Serif" font-size="10.00">cpp_t</text>
<polyline fill="none" stroke="#bfbfbf" points="137,-160 178,-160 "/>
<text text-anchor="middle" x="157.5" y="-148" font-family="Helvetica,sans-Serif" font-size="10.00"> </text>
<polyline fill="none" stroke="#bfbfbf" points="137,-141 178,-141 "/>
<text text-anchor="middle" x="157.5" y="-129" font-family="Helvetica,sans-Serif" font-size="10.00"> </text>
</g>
<!-- Node4&#45;&gt;Node2 -->
<g id="edge2" class="edge">
<title>Node4&#45;&gt;Node2</title>
<path fill="none" stroke="#404040" d="M145.64,-121.9C140.19,-109.22 133.58,-93.85 127.46,-79.62"/>
<polygon fill="none" stroke="#404040" points="127.43,-79.55 121.39,-75.61 122.69,-68.52 128.74,-72.45 127.43,-79.55"/>
<text text-anchor="middle" x="156.5" y="-90" font-family="Helvetica,sans-Serif" font-size="10.00"> +backend</text>
</g>
</g>
</svg>
