<?xml version="1.0" encoding="UTF-8" standalone="no"?>
<!DOCTYPE svg PUBLIC "-//W3C//DTD SVG 1.1//EN"
 "http://www.w3.org/Graphics/SVG/1.1/DTD/svg11.dtd">
<!-- Generated by graphviz version 2.38.0 (20140413.2041)
 -->
<!-- Title: hydra::GaussKronrodRuleSelector&lt; 15 &gt; Pages: 1 -->
<!--zoomable 557 -->
<svg id="main" version="1.1" xmlns="http://www.w3.org/2000/svg" xmlns:xlink="http://www.w3.org/1999/xlink" xml:space="preserve" onload="init(evt)">
<style type="text/css"><![CDATA[
.edge:hover path { stroke: red; }
.edge:hover polygon { stroke: red; fill: red; }
]]></style>
<script type="text/javascript"><![CDATA[
var edges = document.getElementsByTagName('g');
if (edges && edges.length) {
  for (var i=0;i<edges.length;i++) {
    if (edges[i].id.substr(0,4)=='edge') {
      edges[i].setAttribute('class','edge');
    }
  }
}
]]></script>
        <defs>
                <circle id="rim" cx="0" cy="0" r="7"/>
                <circle id="rim2" cx="0" cy="0" r="3.5"/>
                <g id="zoomPlus">
                        <use xlink:href="#rim" fill="#404040">
                                <set attributeName="fill" to="#808080" begin="zoomplus.mouseover" end="zoomplus.mouseout"/>
                        </use>
                        <path d="M-4,0h8M0,-4v8" fill="none" stroke="white" stroke-width="1.5" pointer-events="none"/>
                </g>
                <g id="zoomMin">
                        <use xlink:href="#rim" fill="#404040">
                                <set attributeName="fill" to="#808080" begin="zoomminus.mouseover" end="zoomminus.mouseout"/>
                        </use>
                        <path d="M-4,0h8" fill="none" stroke="white" stroke-width="1.5" pointer-events="none"/>
                </g>
                <g id="dirArrow">
                        <path fill="none" stroke="white" stroke-width="1.5" d="M0,-3.0v7 M-2.5,-0.5L0,-3.0L2.5,-0.5"/>
                </g>
               <g id="resetDef">
                       <use xlink:href="#rim2" fill="#404040">
                               <set attributeName="fill" to="#808080" begin="reset.mouseover" end="reset.mouseout"/>
                       </use>
               </g>
        </defs>

<script type="text/javascript">
var viewWidth = 343;
var viewHeight = 557;
var sectionId = 'dynsection-2';
</script>
<script xlink:href="svgpan.js"/>
<svg id="graph" class="graph">
<g id="viewport">
<title>hydra::GaussKronrodRuleSelector&lt; 15 &gt;</title>
<!-- Node12 -->
<g id="node1" class="node"><title>Node12</title>
<polygon fill="#bfbfbf" stroke="black" points="93.3118,-0.5 93.3118,-68.5 258.312,-68.5 258.312,-0.5 93.3118,-0.5"/>
<text text-anchor="start" x="101.312" y="-56.5" font-family="Helvetica,sans-Serif" font-size="10.00">hydra::GaussKronrodRuleSelector</text>
<text text-anchor="middle" x="175.812" y="-45.5" font-family="Helvetica,sans-Serif" font-size="10.00">&lt; 15 &gt;</text>
<polyline fill="none" stroke="black" points="93.3118,-38.5 258.312,-38.5 "/>
<text text-anchor="middle" x="175.812" y="-26.5" font-family="Helvetica,sans-Serif" font-size="10.00"> </text>
<polyline fill="none" stroke="black" points="93.3118,-19.5 258.312,-19.5 "/>
<text text-anchor="start" x="101.312" y="-7.5" font-family="Helvetica,sans-Serif" font-size="10.00">+ GaussKronrodRuleSelector()</text>
</g>
<!-- Node13 -->
<g id="node2" class="node"><title>Node13</title>
<g id="a_node2"><a xlink:href="group__numerical__integration.html" target="_top" xlink:title="{hydra::GaussKronrodRule\l\&lt; 15 \&gt;\n||+ GaussKronrodRule()\l+ GaussKronrodRule()\l+ GaussKronrodRule()\l+ GaussKronrodRule()\l+ GetAbscissa()\l+ operator=()\l+ Print()\l}">
<polygon fill="none" stroke="black" points="111.312,-116.5 111.312,-250.5 240.312,-250.5 240.312,-116.5 111.312,-116.5"/>
<text text-anchor="start" x="119.312" y="-238.5" font-family="Helvetica,sans-Serif" font-size="10.00">hydra::GaussKronrodRule</text>
<text text-anchor="middle" x="175.812" y="-227.5" font-family="Helvetica,sans-Serif" font-size="10.00">&lt; 15 &gt;</text>
<polyline fill="none" stroke="black" points="111.312,-220.5 240.312,-220.5 "/>
<text text-anchor="middle" x="175.812" y="-208.5" font-family="Helvetica,sans-Serif" font-size="10.00"> </text>
<polyline fill="none" stroke="black" points="111.312,-201.5 240.312,-201.5 "/>
<text text-anchor="start" x="119.312" y="-189.5" font-family="Helvetica,sans-Serif" font-size="10.00">+ GaussKronrodRule()</text>
<text text-anchor="start" x="119.312" y="-178.5" font-family="Helvetica,sans-Serif" font-size="10.00">+ GaussKronrodRule()</text>
<text text-anchor="start" x="119.312" y="-167.5" font-family="Helvetica,sans-Serif" font-size="10.00">+ GaussKronrodRule()</text>
<text text-anchor="start" x="119.312" y="-156.5" font-family="Helvetica,sans-Serif" font-size="10.00">+ GaussKronrodRule()</text>
<text text-anchor="start" x="119.312" y="-145.5" font-family="Helvetica,sans-Serif" font-size="10.00">+ GetAbscissa()</text>
<text text-anchor="start" x="119.312" y="-134.5" font-family="Helvetica,sans-Serif" font-size="10.00">+ operator=()</text>
<text text-anchor="start" x="119.312" y="-123.5" font-family="Helvetica,sans-Serif" font-size="10.00">+ Print()</text>
</a>
</g>
</g>
<!-- Node13&#45;&gt;Node12 -->
<g id="edge1" class="edge"><title>Node13&#45;&gt;Node12</title>
<path fill="none" stroke="#404040" d="M175.812,-116.311C175.812,-104.351 175.812,-92.1305 175.812,-80.9329"/>
<polygon fill="none" stroke="#404040" points="175.812,-80.7934 171.812,-74.7935 175.812,-68.7934 179.812,-74.7934 175.812,-80.7934"/>
<text text-anchor="middle" x="192.312" y="-90" font-family="Helvetica,sans-Serif" font-size="10.00"> +fRule</text>
</g>
<!-- Node14 -->
<g id="node3" class="node"><title>Node14</title>
<g id="a_node3"><a xlink:href="namespace_3globalScope_4.html#classdouble" target="_top" xlink:title="{double\n||}">
<polygon fill="none" stroke="black" points="22.3118,-491.5 22.3118,-548.5 67.3118,-548.5 67.3118,-491.5 22.3118,-491.5"/>
<text text-anchor="middle" x="44.8118" y="-536.5" font-family="Helvetica,sans-Serif" font-size="10.00">double</text>
<polyline fill="none" stroke="black" points="22.3118,-529.5 67.3118,-529.5 "/>
<text text-anchor="middle" x="44.8118" y="-517.5" font-family="Helvetica,sans-Serif" font-size="10.00"> </text>
<polyline fill="none" stroke="black" points="22.3118,-510.5 67.3118,-510.5 "/>
<text text-anchor="middle" x="44.8118" y="-498.5" font-family="Helvetica,sans-Serif" font-size="10.00"> </text>
</a>
</g>
</g>
<!-- Node14&#45;&gt;Node13 -->
<g id="edge2" class="edge"><title>Node14&#45;&gt;Node13</title>
<path fill="none" stroke="#404040" d="M31.2448,-491.398C11.8619,-447.745 -17.9845,-361.247 14.8118,-298 33.0576,-262.813 67.7817,-236.223 100.324,-217.658"/>
<polygon fill="none" stroke="#404040" points="100.727,-217.437 104.065,-211.046 111.249,-211.669 107.911,-218.061 100.727,-217.437"/>
<text text-anchor="middle" x="51.8118" y="-368.5" font-family="Helvetica,sans-Serif" font-size="10.00"> +KronrodWeight</text>
<text text-anchor="middle" x="51.8118" y="-357.5" font-family="Helvetica,sans-Serif" font-size="10.00">+GaussWeight</text>
<text text-anchor="middle" x="51.8118" y="-346.5" font-family="Helvetica,sans-Serif" font-size="10.00">+X</text>
</g>
<!-- Node16 -->
<g id="node5" class="node"><title>Node16</title>
<g id="a_node5"><a xlink:href="group__numerical__integration.html#structhydra_1_1GaussKronrodRule" target="_top" xlink:title="Rules for Gauss&#45;Kronrod quadrature. ">
<polygon fill="none" stroke="black" points="98.3118,-298.5 98.3118,-421.5 253.312,-421.5 253.312,-298.5 98.3118,-298.5"/>
<text text-anchor="middle" x="175.812" y="-409.5" font-family="Helvetica,sans-Serif" font-size="10.00">hydra::GaussKronrodRule&lt; N &gt;</text>
<polyline fill="none" stroke="black" points="98.3118,-402.5 253.312,-402.5 "/>
<text text-anchor="middle" x="175.812" y="-390.5" font-family="Helvetica,sans-Serif" font-size="10.00"> </text>
<polyline fill="none" stroke="black" points="98.3118,-383.5 253.312,-383.5 "/>
<text text-anchor="start" x="106.312" y="-371.5" font-family="Helvetica,sans-Serif" font-size="10.00">+ GaussKronrodRule()</text>
<text text-anchor="start" x="106.312" y="-360.5" font-family="Helvetica,sans-Serif" font-size="10.00">+ GaussKronrodRule()</text>
<text text-anchor="start" x="106.312" y="-349.5" font-family="Helvetica,sans-Serif" font-size="10.00">+ GaussKronrodRule()</text>
<text text-anchor="start" x="106.312" y="-338.5" font-family="Helvetica,sans-Serif" font-size="10.00">+ GaussKronrodRule()</text>
<text text-anchor="start" x="106.312" y="-327.5" font-family="Helvetica,sans-Serif" font-size="10.00">+ GetAbscissa()</text>
<text text-anchor="start" x="106.312" y="-316.5" font-family="Helvetica,sans-Serif" font-size="10.00">+ operator=()</text>
<text text-anchor="start" x="106.312" y="-305.5" font-family="Helvetica,sans-Serif" font-size="10.00">+ Print()</text>
</a>
</g>
</g>
<!-- Node14&#45;&gt;Node16 -->
<g id="edge5" class="edge"><title>Node14&#45;&gt;Node16</title>
<path fill="none" stroke="#404040" d="M67.3315,-491.839C81.2871,-475.007 99.9032,-452.554 117.769,-431.005"/>
<polygon fill="none" stroke="#404040" points="117.975,-430.757 118.725,-423.585 125.634,-421.52 124.884,-428.692 117.975,-430.757"/>
<text text-anchor="middle" x="147.812" y="-465" font-family="Helvetica,sans-Serif" font-size="10.00"> +KronrodWeight</text>
<text text-anchor="middle" x="147.812" y="-454" font-family="Helvetica,sans-Serif" font-size="10.00">+GaussWeight</text>
<text text-anchor="middle" x="147.812" y="-443" font-family="Helvetica,sans-Serif" font-size="10.00">+X</text>
</g>
<!-- Node15 -->
<g id="node4" class="node"><title>Node15</title>
<polygon fill="none" stroke="#bfbfbf" points="223.312,-491.5 223.312,-548.5 266.312,-548.5 266.312,-491.5 223.312,-491.5"/>
<text text-anchor="middle" x="244.812" y="-536.5" font-family="Helvetica,sans-Serif" font-size="10.00">size_t</text>
<polyline fill="none" stroke="#bfbfbf" points="223.312,-529.5 266.312,-529.5 "/>
<text text-anchor="middle" x="244.812" y="-517.5" font-family="Helvetica,sans-Serif" font-size="10.00"> </text>
<polyline fill="none" stroke="#bfbfbf" points="223.312,-510.5 266.312,-510.5 "/>
<text text-anchor="middle" x="244.812" y="-498.5" font-family="Helvetica,sans-Serif" font-size="10.00"> </text>
</g>
<!-- Node15&#45;&gt;Node13 -->
<g id="edge3" class="edge"><title>Node15&#45;&gt;Node13</title>
<path fill="none" stroke="#404040" d="M266.381,-492.643C270.261,-486.534 273.73,-479.815 275.812,-473 288.191,-432.479 295.234,-383.322 261.812,-298 256.825,-285.27 249.98,-272.744 242.312,-260.927"/>
<polygon fill="none" stroke="#404040" points="242.132,-260.662 235.451,-257.948 235.387,-250.737 242.068,-253.452 242.132,-260.662"/>
<text text-anchor="middle" x="310.812" y="-363" font-family="Helvetica,sans-Serif" font-size="10.00"> +GaussN</text>
<text text-anchor="middle" x="310.812" y="-352" font-family="Helvetica,sans-Serif" font-size="10.00">+KronrodN</text>
</g>
<!-- Node15&#45;&gt;Node16 -->
<g id="edge6" class="edge"><title>Node15&#45;&gt;Node16</title>
<path fill="none" stroke="#404040" d="M232.793,-491.479C225.658,-475.141 216.251,-453.6 207.141,-432.74"/>
<polygon fill="none" stroke="#404040" points="207.076,-432.59 201.009,-428.692 202.273,-421.593 208.34,-425.49 207.076,-432.59"/>
<text text-anchor="middle" x="248.812" y="-459.5" font-family="Helvetica,sans-Serif" font-size="10.00"> +GaussN</text>
<text text-anchor="middle" x="248.812" y="-448.5" font-family="Helvetica,sans-Serif" font-size="10.00">+KronrodN</text>
</g>
<!-- Node16&#45;&gt;Node13 -->
<g id="edge4" class="edge"><title>Node16&#45;&gt;Node13</title>
<path fill="none" stroke="orange" d="M175.812,-288.162C175.812,-275.747 175.812,-262.873 175.812,-250.594"/>
<polygon fill="orange" stroke="orange" points="172.312,-288.458 175.812,-298.458 179.312,-288.458 172.312,-288.458"/>
<text text-anchor="middle" x="191.812" y="-272" font-family="Helvetica,sans-Serif" font-size="10.00"> &lt; 15 &gt;</text>
</g>
</g>
</svg>
        <g id="navigator" transform="translate(0 0)" fill="#404254">
                <rect fill="#f2f5e9" fill-opacity="0.5" stroke="#606060" stroke-width=".5" x="0" y="0" width="60" height="60"/>
                <use id="zoomplus" xlink:href="#zoomPlus" x="17" y="9" onmousedown="handleZoom(evt,'in')"/>
                <use id="zoomminus" xlink:href="#zoomMin" x="42" y="9" onmousedown="handleZoom(evt,'out')"/>
                <use id="reset" xlink:href="#resetDef" x="30" y="36" onmousedown="handleReset()"/>
                <g id="arrowUp" xlink:href="#dirArrow" transform="translate(30 24)" onmousedown="handlePan(0,-1)">
                  <use xlink:href="#rim" fill="#404040">
                        <set attributeName="fill" to="#808080" begin="arrowUp.mouseover" end="arrowUp.mouseout"/>
                  </use>
                  <path fill="none" stroke="white" stroke-width="1.5" d="M0,-3.0v7 M-2.5,-0.5L0,-3.0L2.5,-0.5"/>
                </g>
                <g id="arrowRight" xlink:href="#dirArrow" transform="rotate(90) translate(36 -43)" onmousedown="handlePan(1,0)">
                  <use xlink:href="#rim" fill="#404040">
                        <set attributeName="fill" to="#808080" begin="arrowRight.mouseover" end="arrowRight.mouseout"/>
                  </use>
                  <path fill="none" stroke="white" stroke-width="1.5" d="M0,-3.0v7 M-2.5,-0.5L0,-3.0L2.5,-0.5"/>
                </g>
                <g id="arrowDown" xlink:href="#dirArrow" transform="rotate(180) translate(-30 -48)" onmousedown="handlePan(0,1)">
                  <use xlink:href="#rim" fill="#404040">
                        <set attributeName="fill" to="#808080" begin="arrowDown.mouseover" end="arrowDown.mouseout"/>
                  </use>
                  <path fill="none" stroke="white" stroke-width="1.5" d="M0,-3.0v7 M-2.5,-0.5L0,-3.0L2.5,-0.5"/>
                </g>
                <g id="arrowLeft" xlink:href="#dirArrow" transform="rotate(270) translate(-36 17)" onmousedown="handlePan(-1,0)">
                  <use xlink:href="#rim" fill="#404040">
                        <set attributeName="fill" to="#808080" begin="arrowLeft.mouseover" end="arrowLeft.mouseout"/>
                  </use>
                  <path fill="none" stroke="white" stroke-width="1.5" d="M0,-3.0v7 M-2.5,-0.5L0,-3.0L2.5,-0.5"/>
                </g>
        </g>
        <svg viewBox="0 0 15 15" width="100%" height="30px" preserveAspectRatio="xMaxYMin meet">
         <g id="arrow_out" transform="scale(0.3 0.3)">
          <a xlink:href="structhydra_1_1GaussKronrodRuleSelector_3_0115_01_4__coll__graph_org.svg" target="_base">
           <rect id="button" ry="5" rx="5" y="6" x="6" height="38" width="38"
                fill="#f2f5e9" fill-opacity="0.5" stroke="#606060" stroke-width="1.0"/>
           <path id="arrow"
             d="M 11.500037,31.436501 C 11.940474,20.09759 22.043105,11.32322 32.158766,21.979434 L 37.068811,17.246167 C 37.068811,17.246167 37.088388,32 37.088388,32 L 22.160133,31.978069 C 22.160133,31.978069 26.997745,27.140456 26.997745,27.140456 C 18.528582,18.264221 13.291696,25.230495 11.500037,31.436501 z"
             style="fill:#404040;"/>
          </a>
         </g>
        </svg>
</svg>
