<?xml version="1.0" encoding="UTF-8" standalone="no"?>
<!DOCTYPE svg PUBLIC "-//W3C//DTD SVG 1.1//EN"
 "http://www.w3.org/Graphics/SVG/1.1/DTD/svg11.dtd">
<!-- Generated by graphviz version 2.42.4 (0)
 -->
<!-- Title: hydra::detail::is_tuple_of_function_arguments&lt; hydra_thrust::detail::tuple_of_iterator_references&lt; hydra_thrust::device_reference&lt; ArgTypes &gt;... &gt; &gt; Pages: 1 -->
<!--zoomable 726 -->
<svg id="main" version="1.1" xmlns="http://www.w3.org/2000/svg" xmlns:xlink="http://www.w3.org/1999/xlink" xml:space="preserve" onload="init(evt)">
<style type="text/css"><![CDATA[
.edge:hover path { stroke: red; }
.edge:hover polygon { stroke: red; fill: red; }
]]></style>
<script type="text/javascript"><![CDATA[
var edges = document.getElementsByTagName('g');
if (edges && edges.length) {
  for (var i=0;i<edges.length;i++) {
    if (edges[i].id.substr(0,4)=='edge') {
      edges[i].setAttribute('class','edge');
    }
  }
}
]]></script>
        <defs>
                <circle id="rim" cx="0" cy="0" r="7"/>
                <circle id="rim2" cx="0" cy="0" r="3.5"/>
                <g id="zoomPlus">
                        <use xlink:href="#rim" fill="#404040">
                                <set attributeName="fill" to="#808080" begin="zoomplus.mouseover" end="zoomplus.mouseout"/>
                        </use>
                        <path d="M-4,0h8M0,-4v8" fill="none" stroke="white" stroke-width="1.5" pointer-events="none"/>
                </g>
                <g id="zoomMin">
                        <use xlink:href="#rim" fill="#404040">
                                <set attributeName="fill" to="#808080" begin="zoomminus.mouseover" end="zoomminus.mouseout"/>
                        </use>
                        <path d="M-4,0h8" fill="none" stroke="white" stroke-width="1.5" pointer-events="none"/>
                </g>
                <g id="dirArrow">
                        <path fill="none" stroke="white" stroke-width="1.5" d="M0,-3.0v7 M-2.5,-0.5L0,-3.0L2.5,-0.5"/>
                </g>
               <g id="resetDef">
                       <use xlink:href="#rim2" fill="#404040">
                               <set attributeName="fill" to="#808080" begin="reset.mouseover" end="reset.mouseout"/>
                       </use>
               </g>
        </defs>

<script type="text/javascript">
var viewWidth = 248;
var viewHeight = 726;
var sectionId = 'dynsection-0';
</script>
<script xlink:href="svgpan.js"/>
<svg id="graph" class="graph">
<g id="viewport">
<title>hydra::detail::is_tuple_of_function_arguments&lt; hydra_thrust::detail::tuple_of_iterator_references&lt; hydra_thrust::device_reference&lt; ArgTypes &gt;... &gt; &gt;</title>
<!-- Node0 -->
<g id="node1" class="node">
<title>Node0</title>
<polygon fill="#bfbfbf" stroke="black" points="0,-0.5 0,-112.5 160,-112.5 160,-0.5 0,-0.5"/>
<text text-anchor="start" x="8" y="-100.5" font-family="Helvetica,sans-Serif" font-size="10.00">hydra::detail::is_tuple</text>
<text text-anchor="start" x="8" y="-89.5" font-family="Helvetica,sans-Serif" font-size="10.00">_of_function_arguments</text>
<text text-anchor="start" x="8" y="-78.5" font-family="Helvetica,sans-Serif" font-size="10.00">&lt; hydra_thrust::detail</text>
<text text-anchor="start" x="8" y="-67.5" font-family="Helvetica,sans-Serif" font-size="10.00">::tuple_of_iterator_references</text>
<text text-anchor="start" x="8" y="-56.5" font-family="Helvetica,sans-Serif" font-size="10.00">&lt; hydra_thrust::device_reference</text>
<text text-anchor="middle" x="80" y="-45.5" font-family="Helvetica,sans-Serif" font-size="10.00">&lt; ArgTypes &gt;... &gt; &gt;</text>
<polyline fill="none" stroke="black" points="0,-38.5 160,-38.5 "/>
<text text-anchor="middle" x="80" y="-26.5" font-family="Helvetica,sans-Serif" font-size="10.00"> </text>
<polyline fill="none" stroke="black" points="0,-19.5 160,-19.5 "/>
<text text-anchor="middle" x="80" y="-7.5" font-family="Helvetica,sans-Serif" font-size="10.00"> </text>
</g>
<!-- Node1 -->
<g id="node2" class="node">
<title>Node1</title>
<g id="a_node2"><a xlink:href="structhydra_1_1detail_1_1is__function__argument__pack.html" target="_top" xlink:title="{hydra::detail::is_function\l_argument_pack\&lt; std::decay\l\&lt; ArgTypes \&gt;::type... \&gt;\n||}">
<polygon fill="none" stroke="black" points="8.5,-150.5 8.5,-229.5 151.5,-229.5 151.5,-150.5 8.5,-150.5"/>
<text text-anchor="start" x="16.5" y="-217.5" font-family="Helvetica,sans-Serif" font-size="10.00">hydra::detail::is_function</text>
<text text-anchor="start" x="16.5" y="-206.5" font-family="Helvetica,sans-Serif" font-size="10.00">_argument_pack&lt; std::decay</text>
<text text-anchor="middle" x="80" y="-195.5" font-family="Helvetica,sans-Serif" font-size="10.00">&lt; ArgTypes &gt;::type... &gt;</text>
<polyline fill="none" stroke="black" points="8.5,-188.5 151.5,-188.5 "/>
<text text-anchor="middle" x="80" y="-176.5" font-family="Helvetica,sans-Serif" font-size="10.00"> </text>
<polyline fill="none" stroke="black" points="8.5,-169.5 151.5,-169.5 "/>
<text text-anchor="middle" x="80" y="-157.5" font-family="Helvetica,sans-Serif" font-size="10.00"> </text>
</a>
</g>
</g>
<!-- Node1&#45;&gt;Node0 -->
<g id="edge1" class="edge">
<title>Node1&#45;&gt;Node0</title>
<path fill="none" stroke="midnightblue" d="M80,-139.99C80,-131.04 80,-121.64 80,-112.53"/>
<polygon fill="none" stroke="midnightblue" points="76.5,-140.26 80,-150.26 83.5,-140.26 76.5,-140.26"/>
</g>
<!-- Node2 -->
<g id="node3" class="node">
<title>Node2</title>
<g id="a_node3"><a xlink:href="structhydra_1_1detail_1_1all__true.html" target="_top" xlink:title="{hydra::detail::all\l_true\&lt; is_function_argument\l\&lt; ArgTypes \&gt;::value... \&gt;\n||}">
<polygon fill="none" stroke="black" points="6,-394.5 6,-473.5 146,-473.5 146,-394.5 6,-394.5"/>
<text text-anchor="start" x="14" y="-461.5" font-family="Helvetica,sans-Serif" font-size="10.00">hydra::detail::all</text>
<text text-anchor="start" x="14" y="-450.5" font-family="Helvetica,sans-Serif" font-size="10.00">_true&lt; is_function_argument</text>
<text text-anchor="middle" x="76" y="-439.5" font-family="Helvetica,sans-Serif" font-size="10.00">&lt; ArgTypes &gt;::value... &gt;</text>
<polyline fill="none" stroke="black" points="6,-432.5 146,-432.5 "/>
<text text-anchor="middle" x="76" y="-420.5" font-family="Helvetica,sans-Serif" font-size="10.00"> </text>
<polyline fill="none" stroke="black" points="6,-413.5 146,-413.5 "/>
<text text-anchor="middle" x="76" y="-401.5" font-family="Helvetica,sans-Serif" font-size="10.00"> </text>
</a>
</g>
</g>
<!-- Node2&#45;&gt;Node1 -->
<g id="edge2" class="edge">
<title>Node2&#45;&gt;Node1</title>
<path fill="none" stroke="midnightblue" d="M76.81,-384.17C77.56,-338.71 78.66,-271.83 79.36,-229.88"/>
<polygon fill="none" stroke="midnightblue" points="73.3,-384.33 76.64,-394.39 80.3,-384.45 73.3,-384.33"/>
</g>
<!-- Node5 -->
<g id="node6" class="node">
<title>Node5</title>
<g id="a_node6"><a xlink:href="structhydra_1_1detail_1_1is__function__argument__pack.html" target="_top" xlink:title="{hydra::detail::is_function\l_argument_pack\&lt; ArgTypes \&gt;\n||}">
<polygon fill="none" stroke="black" points="92.5,-288.5 92.5,-356.5 239.5,-356.5 239.5,-288.5 92.5,-288.5"/>
<text text-anchor="start" x="100.5" y="-344.5" font-family="Helvetica,sans-Serif" font-size="10.00">hydra::detail::is_function</text>
<text text-anchor="middle" x="166" y="-333.5" font-family="Helvetica,sans-Serif" font-size="10.00">_argument_pack&lt; ArgTypes &gt;</text>
<polyline fill="none" stroke="black" points="92.5,-326.5 239.5,-326.5 "/>
<text text-anchor="middle" x="166" y="-314.5" font-family="Helvetica,sans-Serif" font-size="10.00"> </text>
<polyline fill="none" stroke="black" points="92.5,-307.5 239.5,-307.5 "/>
<text text-anchor="middle" x="166" y="-295.5" font-family="Helvetica,sans-Serif" font-size="10.00"> </text>
</a>
</g>
</g>
<!-- Node2&#45;&gt;Node5 -->
<g id="edge7" class="edge">
<title>Node2&#45;&gt;Node5</title>
<path fill="none" stroke="midnightblue" d="M114.25,-386.47C122.48,-376.45 131.02,-366.06 138.73,-356.67"/>
<polygon fill="none" stroke="midnightblue" points="111.38,-384.45 107.73,-394.39 116.78,-388.89 111.38,-384.45"/>
</g>
<!-- Node3 -->
<g id="node4" class="node">
<title>Node3</title>
<polygon fill="none" stroke="#bfbfbf" points="4,-638.5 4,-717.5 140,-717.5 140,-638.5 4,-638.5"/>
<text text-anchor="start" x="12" y="-705.5" font-family="Helvetica,sans-Serif" font-size="10.00">std::is_same&lt; bool</text>
<text text-anchor="start" x="12" y="-694.5" font-family="Helvetica,sans-Serif" font-size="10.00">_pack&lt; bs..., true &gt;</text>
<text text-anchor="middle" x="72" y="-683.5" font-family="Helvetica,sans-Serif" font-size="10.00">, bool_pack&lt; true, bs... &gt; &gt;</text>
<polyline fill="none" stroke="#bfbfbf" points="4,-676.5 140,-676.5 "/>
<text text-anchor="middle" x="72" y="-664.5" font-family="Helvetica,sans-Serif" font-size="10.00"> </text>
<polyline fill="none" stroke="#bfbfbf" points="4,-657.5 140,-657.5 "/>
<text text-anchor="middle" x="72" y="-645.5" font-family="Helvetica,sans-Serif" font-size="10.00"> </text>
</g>
<!-- Node3&#45;&gt;Node2 -->
<g id="edge3" class="edge">
<title>Node3&#45;&gt;Node2</title>
<path fill="none" stroke="midnightblue" d="M72.81,-628.17C73.56,-582.71 74.66,-515.83 75.36,-473.88"/>
<polygon fill="none" stroke="midnightblue" points="69.3,-628.33 72.64,-638.39 76.3,-628.45 69.3,-628.33"/>
</g>
<!-- Node4 -->
<g id="node5" class="node">
<title>Node4</title>
<g id="a_node5"><a xlink:href="structhydra_1_1detail_1_1all__true.html" target="_top" xlink:title="{hydra::detail::all\l_true\&lt; bs \&gt;\n||}">
<polygon fill="none" stroke="black" points="88,-532.5 88,-600.5 174,-600.5 174,-532.5 88,-532.5"/>
<text text-anchor="start" x="96" y="-588.5" font-family="Helvetica,sans-Serif" font-size="10.00">hydra::detail::all</text>
<text text-anchor="middle" x="131" y="-577.5" font-family="Helvetica,sans-Serif" font-size="10.00">_true&lt; bs &gt;</text>
<polyline fill="none" stroke="black" points="88,-570.5 174,-570.5 "/>
<text text-anchor="middle" x="131" y="-558.5" font-family="Helvetica,sans-Serif" font-size="10.00"> </text>
<polyline fill="none" stroke="black" points="88,-551.5 174,-551.5 "/>
<text text-anchor="middle" x="131" y="-539.5" font-family="Helvetica,sans-Serif" font-size="10.00"> </text>
</a>
</g>
</g>
<!-- Node3&#45;&gt;Node4 -->
<g id="edge5" class="edge">
<title>Node3&#45;&gt;Node4</title>
<path fill="none" stroke="midnightblue" d="M97.55,-629.57C102.8,-619.84 108.22,-609.78 113.13,-600.67"/>
<polygon fill="none" stroke="midnightblue" points="94.46,-627.93 92.8,-638.39 100.63,-631.25 94.46,-627.93"/>
</g>
<!-- Node4&#45;&gt;Node2 -->
<g id="edge4" class="edge">
<title>Node4&#45;&gt;Node2</title>
<path fill="none" stroke="orange" d="M112.96,-522.71C106.32,-506.93 98.83,-489.16 92.34,-473.77"/>
<polygon fill="orange" stroke="orange" points="109.87,-524.38 116.98,-532.23 116.32,-521.66 109.87,-524.38"/>
<text text-anchor="start" x="108" y="-506" font-family="Helvetica,sans-Serif" font-size="10.00"> &lt; is_function_argument</text>
<text text-anchor="middle" x="161" y="-495" font-family="Helvetica,sans-Serif" font-size="10.00">&lt; ArgTypes &gt;::value... &gt;</text>
</g>
<!-- Node5&#45;&gt;Node1 -->
<g id="edge6" class="edge">
<title>Node5&#45;&gt;Node1</title>
<path fill="none" stroke="orange" d="M138.39,-279.6C127.85,-263.6 115.89,-245.45 105.55,-229.77"/>
<polygon fill="orange" stroke="orange" points="135.65,-281.81 144.08,-288.23 141.5,-277.96 135.65,-281.81"/>
<text text-anchor="start" x="130" y="-262" font-family="Helvetica,sans-Serif" font-size="10.00"> &lt; std::decay&lt; ArgTypes</text>
<text text-anchor="middle" x="184" y="-251" font-family="Helvetica,sans-Serif" font-size="10.00"> &gt;::type... &gt;</text>
</g>
</g>
</svg>
        <g id="navigator" transform="translate(0 0)" fill="#404254">
                <rect fill="#f2f5e9" fill-opacity="0.5" stroke="#606060" stroke-width=".5" x="0" y="0" width="60" height="60"/>
                <use id="zoomplus" xlink:href="#zoomPlus" x="17" y="9" onmousedown="handleZoom(evt,'in')"/>
                <use id="zoomminus" xlink:href="#zoomMin" x="42" y="9" onmousedown="handleZoom(evt,'out')"/>
                <use id="reset" xlink:href="#resetDef" x="30" y="36" onmousedown="handleReset()"/>
                <g id="arrowUp" xlink:href="#dirArrow" transform="translate(30 24)" onmousedown="handlePan(0,-1)">
                  <use xlink:href="#rim" fill="#404040">
                        <set attributeName="fill" to="#808080" begin="arrowUp.mouseover" end="arrowUp.mouseout"/>
                  </use>
                  <path fill="none" stroke="white" stroke-width="1.5" d="M0,-3.0v7 M-2.5,-0.5L0,-3.0L2.5,-0.5"/>
                </g>
                <g id="arrowRight" xlink:href="#dirArrow" transform="rotate(90) translate(36 -43)" onmousedown="handlePan(1,0)">
                  <use xlink:href="#rim" fill="#404040">
                        <set attributeName="fill" to="#808080" begin="arrowRight.mouseover" end="arrowRight.mouseout"/>
                  </use>
                  <path fill="none" stroke="white" stroke-width="1.5" d="M0,-3.0v7 M-2.5,-0.5L0,-3.0L2.5,-0.5"/>
                </g>
                <g id="arrowDown" xlink:href="#dirArrow" transform="rotate(180) translate(-30 -48)" onmousedown="handlePan(0,1)">
                  <use xlink:href="#rim" fill="#404040">
                        <set attributeName="fill" to="#808080" begin="arrowDown.mouseover" end="arrowDown.mouseout"/>
                  </use>
                  <path fill="none" stroke="white" stroke-width="1.5" d="M0,-3.0v7 M-2.5,-0.5L0,-3.0L2.5,-0.5"/>
                </g>
                <g id="arrowLeft" xlink:href="#dirArrow" transform="rotate(270) translate(-36 17)" onmousedown="handlePan(-1,0)">
                  <use xlink:href="#rim" fill="#404040">
                        <set attributeName="fill" to="#808080" begin="arrowLeft.mouseover" end="arrowLeft.mouseout"/>
                  </use>
                  <path fill="none" stroke="white" stroke-width="1.5" d="M0,-3.0v7 M-2.5,-0.5L0,-3.0L2.5,-0.5"/>
                </g>
        </g>
        <svg viewBox="0 0 15 15" width="100%" height="30px" preserveAspectRatio="xMaxYMin meet">
         <g id="arrow_out" transform="scale(0.3 0.3)">
          <a xlink:href="structhydra_1_1detail_1_1is__tuple__of__function__arguments_3_01hydra__thrust_1_1detail_1_1tuplec34de66be6fc45f4b826673c6247bab8_org.svg" target="_base">
           <rect id="button" ry="5" rx="5" y="6" x="6" height="38" width="38"
                fill="#f2f5e9" fill-opacity="0.5" stroke="#606060" stroke-width="1.0"/>
           <path id="arrow"
             d="M 11.500037,31.436501 C 11.940474,20.09759 22.043105,11.32322 32.158766,21.979434 L 37.068811,17.246167 C 37.068811,17.246167 37.088388,32 37.088388,32 L 22.160133,31.978069 C 22.160133,31.978069 26.997745,27.140456 26.997745,27.140456 C 18.528582,18.264221 13.291696,25.230495 11.500037,31.436501 z"
             style="fill:#404040;"/>
          </a>
         </g>
        </svg>
</svg>
