<?xml version="1.0" encoding="UTF-8" standalone="no"?>
<!DOCTYPE svg PUBLIC "-//W3C//DTD SVG 1.1//EN"
 "http://www.w3.org/Graphics/SVG/1.1/DTD/svg11.dtd">
<!-- Generated by graphviz version 2.38.0 (20140413.2041)
 -->
<!-- Title: hydra::Compose::operator= Pages: 1 -->
<svg width="329pt" height="142pt"
 viewBox="0.00 0.00 329.00 142.00" xmlns="http://www.w3.org/2000/svg" xmlns:xlink="http://www.w3.org/1999/xlink">
<g id="graph0" class="graph" transform="scale(1 1) rotate(0) translate(4 138)">
<title>hydra::Compose::operator=</title>
<!-- Node24 -->
<g id="node1" class="node"><title>Node24</title>
<polygon fill="#bfbfbf" stroke="black" points="0,-57.5 0,-76.5 136,-76.5 136,-57.5 0,-57.5"/>
<text text-anchor="middle" x="68" y="-64.5" font-family="Helvetica,sans-Serif" font-size="10.00">hydra::Compose::operator=</text>
</g>
<!-- Node25 -->
<g id="node2" class="node"><title>Node25</title>
<g id="a_node2"><a xlink:href="structhydra_1_1Compose.html#abf501a57be97d1c1dee258ec22a3b3b4" target="_top" xlink:title="hydra::Compose::GetF0">
<polygon fill="none" stroke="black" points="185.5,-114.5 185.5,-133.5 307.5,-133.5 307.5,-114.5 185.5,-114.5"/>
<text text-anchor="middle" x="246.5" y="-121.5" font-family="Helvetica,sans-Serif" font-size="10.00">hydra::Compose::GetF0</text>
</a>
</g>
</g>
<!-- Node24&#45;&gt;Node25 -->
<g id="edge1" class="edge"><title>Node24&#45;&gt;Node25</title>
<path fill="none" stroke="midnightblue" d="M92.9059,-76.5971C113.632,-84.73 144.532,-96.4067 172,-105 179.691,-107.406 187.9,-109.747 195.942,-111.916"/>
<polygon fill="midnightblue" stroke="midnightblue" points="195.06,-115.303 205.622,-114.469 196.846,-108.534 195.06,-115.303"/>
</g>
<!-- Node26 -->
<g id="node3" class="node"><title>Node26</title>
<g id="a_node3"><a xlink:href="structhydra_1_1Compose.html#aae0013c90701b323713e02daddd0ada9" target="_top" xlink:title="hydra::Compose::GetFunctors">
<polygon fill="none" stroke="black" points="172,-76.5 172,-95.5 321,-95.5 321,-76.5 172,-76.5"/>
<text text-anchor="middle" x="246.5" y="-83.5" font-family="Helvetica,sans-Serif" font-size="10.00">hydra::Compose::GetFunctors</text>
</a>
</g>
</g>
<!-- Node24&#45;&gt;Node26 -->
<g id="edge2" class="edge"><title>Node24&#45;&gt;Node26</title>
<path fill="none" stroke="midnightblue" d="M136.231,-74.2373C144.633,-75.1418 153.305,-76.0754 161.918,-77.0025"/>
<polygon fill="midnightblue" stroke="midnightblue" points="161.665,-80.4954 171.982,-78.0859 162.414,-73.5356 161.665,-80.4954"/>
</g>
<!-- Node27 -->
<g id="node4" class="node"><title>Node27</title>
<g id="a_node4"><a xlink:href="structhydra_1_1Compose.html#ac13f2a931bcb4105a7727e9067607bc1" target="_top" xlink:title="hydra::Compose::GetIndex">
<polygon fill="none" stroke="black" points="179.5,-38.5 179.5,-57.5 313.5,-57.5 313.5,-38.5 179.5,-38.5"/>
<text text-anchor="middle" x="246.5" y="-45.5" font-family="Helvetica,sans-Serif" font-size="10.00">hydra::Compose::GetIndex</text>
</a>
</g>
</g>
<!-- Node24&#45;&gt;Node27 -->
<g id="edge3" class="edge"><title>Node24&#45;&gt;Node27</title>
<path fill="none" stroke="midnightblue" d="M136.231,-59.7627C147.046,-58.5985 158.308,-57.3861 169.315,-56.2012"/>
<polygon fill="midnightblue" stroke="midnightblue" points="169.764,-59.6732 179.332,-55.1229 169.014,-52.7134 169.764,-59.6732"/>
</g>
<!-- Node28 -->
<g id="node5" class="node"><title>Node28</title>
<g id="a_node5"><a xlink:href="structhydra_1_1Compose.html#ac44ef79c116d04266028665da96916b2" target="_top" xlink:title="hydra::Compose::IsCached">
<polygon fill="none" stroke="black" points="178,-0.5 178,-19.5 315,-19.5 315,-0.5 178,-0.5"/>
<text text-anchor="middle" x="246.5" y="-7.5" font-family="Helvetica,sans-Serif" font-size="10.00">hydra::Compose::IsCached</text>
</a>
</g>
</g>
<!-- Node24&#45;&gt;Node28 -->
<g id="edge4" class="edge"><title>Node24&#45;&gt;Node28</title>
<path fill="none" stroke="midnightblue" d="M92.9059,-57.4029C113.632,-49.27 144.532,-37.5933 172,-29 179.691,-26.594 187.9,-24.2535 195.942,-22.0844"/>
<polygon fill="midnightblue" stroke="midnightblue" points="196.846,-25.4658 205.622,-19.5308 195.06,-18.6974 196.846,-25.4658"/>
</g>
</g>
</svg>
