<?xml version="1.0" encoding="UTF-8" standalone="no"?>
<!DOCTYPE svg PUBLIC "-//W3C//DTD SVG 1.1//EN"
 "http://www.w3.org/Graphics/SVG/1.1/DTD/svg11.dtd">
<!-- Generated by graphviz version 2.42.4 (0)
 -->
<!-- Title: hydra::detail::BackendPolicy&lt; Backend::Host &gt; Pages: 1 -->
<svg width="192pt" height="204pt"
 viewBox="0.00 0.00 192.00 204.00" xmlns="http://www.w3.org/2000/svg" xmlns:xlink="http://www.w3.org/1999/xlink">
<g id="graph0" class="graph" transform="scale(1 1) rotate(0) translate(4 200)">
<title>hydra::detail::BackendPolicy&lt; Backend::Host &gt;</title>
<!-- Node2 -->
<g id="node1" class="node">
<title>Node2</title>
<polygon fill="#bfbfbf" stroke="black" points="40.5,-0.5 40.5,-68.5 181.5,-68.5 181.5,-0.5 40.5,-0.5"/>
<text text-anchor="start" x="48.5" y="-56.5" font-family="Helvetica,sans-Serif" font-size="10.00">hydra::detail::BackendPolicy</text>
<text text-anchor="middle" x="111" y="-45.5" font-family="Helvetica,sans-Serif" font-size="10.00">&lt; Backend::Host &gt;</text>
<polyline fill="none" stroke="black" points="40.5,-38.5 181.5,-38.5 "/>
<text text-anchor="middle" x="111" y="-26.5" font-family="Helvetica,sans-Serif" font-size="10.00"> </text>
<polyline fill="none" stroke="black" points="40.5,-19.5 181.5,-19.5 "/>
<text text-anchor="middle" x="111" y="-7.5" font-family="Helvetica,sans-Serif" font-size="10.00"> </text>
</g>
<!-- Node3 -->
<g id="node2" class="node">
<title>Node3</title>
<polygon fill="none" stroke="#bfbfbf" points="0,-116.5 0,-195.5 122,-195.5 122,-116.5 0,-116.5"/>
<text text-anchor="start" x="8" y="-183.5" font-family="Helvetica,sans-Serif" font-size="10.00">hydra_thrust::host</text>
<text text-anchor="start" x="8" y="-172.5" font-family="Helvetica,sans-Serif" font-size="10.00">_execution_policy&lt; host</text>
<text text-anchor="middle" x="61" y="-161.5" font-family="Helvetica,sans-Serif" font-size="10.00">::host_t &gt;</text>
<polyline fill="none" stroke="#bfbfbf" points="0,-154.5 122,-154.5 "/>
<text text-anchor="middle" x="61" y="-142.5" font-family="Helvetica,sans-Serif" font-size="10.00"> </text>
<polyline fill="none" stroke="#bfbfbf" points="0,-135.5 122,-135.5 "/>
<text text-anchor="middle" x="61" y="-123.5" font-family="Helvetica,sans-Serif" font-size="10.00"> </text>
</g>
<!-- Node3&#45;&gt;Node2 -->
<g id="edge1" class="edge">
<title>Node3&#45;&gt;Node2</title>
<path fill="none" stroke="midnightblue" d="M81.22,-106.68C86.52,-94 92.13,-80.6 97.03,-68.89"/>
<polygon fill="none" stroke="midnightblue" points="77.86,-105.63 77.23,-116.2 84.32,-108.33 77.86,-105.63"/>
</g>
<!-- Node4 -->
<g id="node3" class="node">
<title>Node4</title>
<polygon fill="none" stroke="#bfbfbf" points="140,-127.5 140,-184.5 184,-184.5 184,-127.5 140,-127.5"/>
<text text-anchor="middle" x="162" y="-172.5" font-family="Helvetica,sans-Serif" font-size="10.00">host_t</text>
<polyline fill="none" stroke="#bfbfbf" points="140,-165.5 184,-165.5 "/>
<text text-anchor="middle" x="162" y="-153.5" font-family="Helvetica,sans-Serif" font-size="10.00"> </text>
<polyline fill="none" stroke="#bfbfbf" points="140,-146.5 184,-146.5 "/>
<text text-anchor="middle" x="162" y="-134.5" font-family="Helvetica,sans-Serif" font-size="10.00"> </text>
</g>
<!-- Node4&#45;&gt;Node2 -->
<g id="edge2" class="edge">
<title>Node4&#45;&gt;Node2</title>
<path fill="none" stroke="#404040" d="M150.17,-127.28C144.16,-113.19 136.7,-95.72 129.92,-79.82"/>
<polygon fill="none" stroke="#404040" points="129.83,-79.63 123.8,-75.68 125.12,-68.59 131.16,-72.54 129.83,-79.63"/>
<text text-anchor="middle" x="159" y="-90" font-family="Helvetica,sans-Serif" font-size="10.00"> +backend</text>
</g>
</g>
</svg>
