<?xml version="1.0" encoding="UTF-8" standalone="no"?>
<!DOCTYPE svg PUBLIC "-//W3C//DTD SVG 1.1//EN"
 "http://www.w3.org/Graphics/SVG/1.1/DTD/svg11.dtd">
<!-- Generated by graphviz version 5.0.0 (0)
 -->
<!-- Title: hydra::detail::make_index_sequence&lt; 0 &gt; Pages: 1 -->
<svg width="124pt" height="299pt"
 viewBox="0.00 0.00 124.00 299.00" xmlns="http://www.w3.org/2000/svg" xmlns:xlink="http://www.w3.org/1999/xlink">
<g id="graph0" class="graph" transform="scale(1 1) rotate(0) translate(4 295)">
<title>hydra::detail::make_index_sequence&lt; 0 &gt;</title>
<!-- Node0 -->
<g id="node1" class="node">
<title>Node0</title>
<polygon fill="#bfbfbf" stroke="black" points="0,-0.5 0,-68.5 116,-68.5 116,-0.5 0,-0.5"/>
<text text-anchor="start" x="8" y="-56.5" font-family="Helvetica,sans-Serif" font-size="10.00">hydra::detail::make</text>
<text text-anchor="middle" x="58" y="-45.5" font-family="Helvetica,sans-Serif" font-size="10.00">_index_sequence&lt; 0 &gt;</text>
<polyline fill="none" stroke="black" points="0,-38.5 116,-38.5 "/>
<text text-anchor="middle" x="58" y="-26.5" font-family="Helvetica,sans-Serif" font-size="10.00"> </text>
<polyline fill="none" stroke="black" points="0,-19.5 116,-19.5 "/>
<text text-anchor="middle" x="58" y="-7.5" font-family="Helvetica,sans-Serif" font-size="10.00"> </text>
</g>
<!-- Node1 -->
<g id="node2" class="node">
<title>Node1</title>
<g id="a_node2"><a xlink:href="structhydra_1_1detail_1_1index__sequence.html" target="_top" xlink:title="{hydra::detail::index\l_sequence\&lt;\&gt;\n||+ size()\l}">
<polygon fill="none" stroke="black" points="8.5,-106.5 8.5,-174.5 107.5,-174.5 107.5,-106.5 8.5,-106.5"/>
<text text-anchor="start" x="16.5" y="-162.5" font-family="Helvetica,sans-Serif" font-size="10.00">hydra::detail::index</text>
<text text-anchor="middle" x="58" y="-151.5" font-family="Helvetica,sans-Serif" font-size="10.00">_sequence&lt;&gt;</text>
<polyline fill="none" stroke="black" points="8.5,-144.5 107.5,-144.5 "/>
<text text-anchor="middle" x="58" y="-132.5" font-family="Helvetica,sans-Serif" font-size="10.00"> </text>
<polyline fill="none" stroke="black" points="8.5,-125.5 107.5,-125.5 "/>
<text text-anchor="start" x="16.5" y="-113.5" font-family="Helvetica,sans-Serif" font-size="10.00">+ size()</text>
</a>
</g>
</g>
<!-- Node1&#45;&gt;Node0 -->
<g id="edge1" class="edge">
<title>Node1&#45;&gt;Node0</title>
<path fill="none" stroke="midnightblue" d="M58,-96.17C58,-87 58,-77.46 58,-68.73"/>
<polygon fill="none" stroke="midnightblue" points="54.5,-96.31 58,-106.31 61.5,-96.31 54.5,-96.31"/>
</g>
<!-- Node2 -->
<g id="node3" class="node">
<title>Node2</title>
<g id="a_node3"><a xlink:href="structhydra_1_1detail_1_1index__sequence.html" target="_top" xlink:title="{hydra::detail::index\l_sequence\&lt; Ints \&gt;\n||+ size()\l}">
<polygon fill="none" stroke="black" points="8.5,-222.5 8.5,-290.5 107.5,-290.5 107.5,-222.5 8.5,-222.5"/>
<text text-anchor="start" x="16.5" y="-278.5" font-family="Helvetica,sans-Serif" font-size="10.00">hydra::detail::index</text>
<text text-anchor="middle" x="58" y="-267.5" font-family="Helvetica,sans-Serif" font-size="10.00">_sequence&lt; Ints &gt;</text>
<polyline fill="none" stroke="black" points="8.5,-260.5 107.5,-260.5 "/>
<text text-anchor="middle" x="58" y="-248.5" font-family="Helvetica,sans-Serif" font-size="10.00"> </text>
<polyline fill="none" stroke="black" points="8.5,-241.5 107.5,-241.5 "/>
<text text-anchor="start" x="16.5" y="-229.5" font-family="Helvetica,sans-Serif" font-size="10.00">+ size()</text>
</a>
</g>
</g>
<!-- Node2&#45;&gt;Node1 -->
<g id="edge2" class="edge">
<title>Node2&#45;&gt;Node1</title>
<path fill="none" stroke="orange" d="M58,-212.06C58,-199.64 58,-186.32 58,-174.62"/>
<polygon fill="orange" stroke="orange" points="54.5,-212.22 58,-222.22 61.5,-212.22 54.5,-212.22"/>
<text text-anchor="middle" x="66" y="-196" font-family="Helvetica,sans-Serif" font-size="10.00"> &lt;&gt;</text>
</g>
</g>
</svg>
