<?xml version="1.0" encoding="UTF-8" standalone="no"?>
<!DOCTYPE svg PUBLIC "-//W3C//DTD SVG 1.1//EN"
 "http://www.w3.org/Graphics/SVG/1.1/DTD/svg11.dtd">
<!-- Generated by graphviz version 2.38.0 (20140413.2041)
 -->
<!-- Title: hydra::detail::ResultPHSP Pages: 1 -->
<svg width="140pt" height="193pt"
 viewBox="0.00 0.00 140.00 193.00" xmlns="http://www.w3.org/2000/svg" xmlns:xlink="http://www.w3.org/1999/xlink">
<g id="graph0" class="graph" transform="scale(1 1) rotate(0) translate(4 189)">
<title>hydra::detail::ResultPHSP</title>
<!-- Node48 -->
<g id="node1" class="node"><title>Node48</title>
<polygon fill="#bfbfbf" stroke="black" points="0,-0.5 0,-57.5 132,-57.5 132,-0.5 0,-0.5"/>
<text text-anchor="middle" x="66" y="-45.5" font-family="Helvetica,sans-Serif" font-size="10.00">hydra::detail::ResultPHSP</text>
<polyline fill="none" stroke="black" points="0,-38.5 132,-38.5 "/>
<text text-anchor="middle" x="66" y="-26.5" font-family="Helvetica,sans-Serif" font-size="10.00"> </text>
<polyline fill="none" stroke="black" points="0,-19.5 132,-19.5 "/>
<text text-anchor="middle" x="66" y="-7.5" font-family="Helvetica,sans-Serif" font-size="10.00"> </text>
</g>
<!-- Node49 -->
<g id="node2" class="node"><title>Node49</title>
<g id="a_node2"><a xlink:href="namespace_3globalScope_4.html#classdouble" target="_top" xlink:title="{double\n||}">
<polygon fill="none" stroke="black" points="43.5,-127.5 43.5,-184.5 88.5,-184.5 88.5,-127.5 43.5,-127.5"/>
<text text-anchor="middle" x="66" y="-172.5" font-family="Helvetica,sans-Serif" font-size="10.00">double</text>
<polyline fill="none" stroke="black" points="43.5,-165.5 88.5,-165.5 "/>
<text text-anchor="middle" x="66" y="-153.5" font-family="Helvetica,sans-Serif" font-size="10.00"> </text>
<polyline fill="none" stroke="black" points="43.5,-146.5 88.5,-146.5 "/>
<text text-anchor="middle" x="66" y="-134.5" font-family="Helvetica,sans-Serif" font-size="10.00"> </text>
</a>
</g>
</g>
<!-- Node49&#45;&gt;Node48 -->
<g id="edge1" class="edge"><title>Node49&#45;&gt;Node48</title>
<path fill="none" stroke="#404040" d="M66,-127.258C66,-110.347 66,-88.457 66,-69.7276"/>
<polygon fill="none" stroke="#404040" points="66.0001,-69.664 62,-63.664 66,-57.664 70,-63.664 66.0001,-69.664"/>
<text text-anchor="middle" x="83" y="-101" font-family="Helvetica,sans-Serif" font-size="10.00"> +fW</text>
<text text-anchor="middle" x="83" y="-90" font-family="Helvetica,sans-Serif" font-size="10.00">+fMean</text>
<text text-anchor="middle" x="83" y="-79" font-family="Helvetica,sans-Serif" font-size="10.00">+fM2</text>
</g>
</g>
</svg>
