<?xml version="1.0" encoding="UTF-8" standalone="no"?>
<!DOCTYPE svg PUBLIC "-//W3C//DTD SVG 1.1//EN"
 "http://www.w3.org/Graphics/SVG/1.1/DTD/svg11.dtd">
<!-- Generated by graphviz version 2.42.4 (0)
 -->
<!-- Title: hydra::detail::SWeights&lt; F1, F2, Fs &gt; Pages: 1 -->
<svg width="466pt" height="237pt"
 viewBox="0.00 0.00 465.50 237.00" xmlns="http://www.w3.org/2000/svg" xmlns:xlink="http://www.w3.org/1999/xlink">
<g id="graph0" class="graph" transform="scale(1 1) rotate(0) translate(4 233)">
<title>hydra::detail::SWeights&lt; F1, F2, Fs &gt;</title>
<!-- Node1 -->
<g id="node1" class="node">
<title>Node1</title>
<polygon fill="#bfbfbf" stroke="black" points="133.5,-0.5 133.5,-112.5 251.5,-112.5 251.5,-0.5 133.5,-0.5"/>
<text text-anchor="start" x="141.5" y="-100.5" font-family="Helvetica,sans-Serif" font-size="10.00">hydra::detail::SWeights</text>
<text text-anchor="middle" x="192.5" y="-89.5" font-family="Helvetica,sans-Serif" font-size="10.00">&lt; F1, F2, Fs &gt;</text>
<polyline fill="none" stroke="black" points="133.5,-82.5 251.5,-82.5 "/>
<text text-anchor="middle" x="192.5" y="-70.5" font-family="Helvetica,sans-Serif" font-size="10.00"> </text>
<polyline fill="none" stroke="black" points="133.5,-63.5 251.5,-63.5 "/>
<text text-anchor="start" x="141.5" y="-51.5" font-family="Helvetica,sans-Serif" font-size="10.00">+ SWeights()</text>
<text text-anchor="start" x="141.5" y="-40.5" font-family="Helvetica,sans-Serif" font-size="10.00">+ SWeights()</text>
<text text-anchor="start" x="141.5" y="-29.5" font-family="Helvetica,sans-Serif" font-size="10.00">+ SWeights()</text>
<text text-anchor="start" x="141.5" y="-18.5" font-family="Helvetica,sans-Serif" font-size="10.00">+ SWeights()</text>
<text text-anchor="start" x="141.5" y="-7.5" font-family="Helvetica,sans-Serif" font-size="10.00">+ operator()()</text>
</g>
<!-- Node2 -->
<g id="node2" class="node">
<title>Node2</title>
<g id="a_node2"><a xlink:href="namespace_3globalScope_4.html#classdouble" target="_top" xlink:title="{double\n||}">
<polygon fill="none" stroke="black" points="0,-166 0,-223 45,-223 45,-166 0,-166"/>
<text text-anchor="middle" x="22.5" y="-211" font-family="Helvetica,sans-Serif" font-size="10.00">double</text>
<polyline fill="none" stroke="black" points="0,-204 45,-204 "/>
<text text-anchor="middle" x="22.5" y="-192" font-family="Helvetica,sans-Serif" font-size="10.00"> </text>
<polyline fill="none" stroke="black" points="0,-185 45,-185 "/>
<text text-anchor="middle" x="22.5" y="-173" font-family="Helvetica,sans-Serif" font-size="10.00"> </text>
</a>
</g>
</g>
<!-- Node2&#45;&gt;Node1 -->
<g id="edge1" class="edge">
<title>Node2&#45;&gt;Node1</title>
<path fill="none" stroke="#404040" d="M45.16,-169.64C48.29,-166.39 51.46,-163.11 54.5,-160 67.24,-146.96 69.43,-142.59 83.5,-131 95.85,-120.82 109.61,-110.7 123.09,-101.38"/>
<polygon fill="none" stroke="#404040" points="123.39,-101.17 126.1,-94.48 133.31,-94.41 130.6,-101.1 123.39,-101.17"/>
<text text-anchor="middle" x="114.5" y="-134" font-family="Helvetica,sans-Serif" font-size="10.00"> +fCoeficients</text>
</g>
<!-- Node3 -->
<g id="node3" class="node">
<title>Node3</title>
<polygon fill="none" stroke="#bfbfbf" points="63.5,-166 63.5,-223 179.5,-223 179.5,-166 63.5,-166"/>
<text text-anchor="middle" x="121.5" y="-211" font-family="Helvetica,sans-Serif" font-size="10.00">static constexpr size_t</text>
<polyline fill="none" stroke="#bfbfbf" points="63.5,-204 179.5,-204 "/>
<text text-anchor="middle" x="121.5" y="-192" font-family="Helvetica,sans-Serif" font-size="10.00"> </text>
<polyline fill="none" stroke="#bfbfbf" points="63.5,-185 179.5,-185 "/>
<text text-anchor="middle" x="121.5" y="-173" font-family="Helvetica,sans-Serif" font-size="10.00"> </text>
</g>
<!-- Node3&#45;&gt;Node1 -->
<g id="edge2" class="edge">
<title>Node3&#45;&gt;Node1</title>
<path fill="none" stroke="#404040" d="M135.87,-165.98C142.32,-153.61 150.25,-138.44 158.1,-123.4"/>
<polygon fill="none" stroke="#404040" points="158.22,-123.15 157.46,-115.98 163.78,-112.52 164.55,-119.69 158.22,-123.15"/>
<text text-anchor="middle" x="178.5" y="-134" font-family="Helvetica,sans-Serif" font-size="10.00"> +nfunctors</text>
</g>
<!-- Node4 -->
<g id="node4" class="node">
<title>Node4</title>
<polygon fill="none" stroke="#bfbfbf" points="198,-160.5 198,-228.5 329,-228.5 329,-160.5 198,-160.5"/>
<text text-anchor="start" x="206" y="-216.5" font-family="Helvetica,sans-Serif" font-size="10.00">Matrix&lt; double, nfunctors,</text>
<text text-anchor="middle" x="263.5" y="-205.5" font-family="Helvetica,sans-Serif" font-size="10.00"> nfunctors &gt;</text>
<polyline fill="none" stroke="#bfbfbf" points="198,-198.5 329,-198.5 "/>
<text text-anchor="middle" x="263.5" y="-186.5" font-family="Helvetica,sans-Serif" font-size="10.00"> </text>
<polyline fill="none" stroke="#bfbfbf" points="198,-179.5 329,-179.5 "/>
<text text-anchor="middle" x="263.5" y="-167.5" font-family="Helvetica,sans-Serif" font-size="10.00"> </text>
</g>
<!-- Node4&#45;&gt;Node1 -->
<g id="edge3" class="edge">
<title>Node4&#45;&gt;Node1</title>
<path fill="none" stroke="#404040" d="M246.13,-160.23C240.29,-149.05 233.56,-136.16 226.88,-123.36"/>
<polygon fill="none" stroke="#404040" points="226.86,-123.32 220.54,-119.85 221.31,-112.68 227.63,-116.15 226.86,-123.32"/>
<text text-anchor="middle" x="266" y="-134" font-family="Helvetica,sans-Serif" font-size="10.00"> +fICovMatrix</text>
</g>
<!-- Node5 -->
<g id="node5" class="node">
<title>Node5</title>
<polygon fill="none" stroke="#bfbfbf" points="347.5,-166 347.5,-223 457.5,-223 457.5,-166 347.5,-166"/>
<text text-anchor="middle" x="402.5" y="-211" font-family="Helvetica,sans-Serif" font-size="10.00">tuple&lt; F1, F2, Fs... &gt;</text>
<polyline fill="none" stroke="#bfbfbf" points="347.5,-204 457.5,-204 "/>
<text text-anchor="middle" x="402.5" y="-192" font-family="Helvetica,sans-Serif" font-size="10.00"> </text>
<polyline fill="none" stroke="#bfbfbf" points="347.5,-185 457.5,-185 "/>
<text text-anchor="middle" x="402.5" y="-173" font-family="Helvetica,sans-Serif" font-size="10.00"> </text>
</g>
<!-- Node5&#45;&gt;Node1 -->
<g id="edge4" class="edge">
<title>Node5&#45;&gt;Node1</title>
<path fill="none" stroke="#404040" d="M360,-165.98C331.89,-147.77 294.37,-123.47 261.96,-102.49"/>
<polygon fill="none" stroke="#404040" points="261.72,-102.33 254.5,-102.42 251.64,-95.8 258.85,-95.71 261.72,-102.33"/>
<text text-anchor="middle" x="347" y="-134" font-family="Helvetica,sans-Serif" font-size="10.00"> +fFunctors</text>
</g>
</g>
</svg>
