<?xml version="1.0" encoding="UTF-8" standalone="no"?>
<!DOCTYPE svg PUBLIC "-//W3C//DTD SVG 1.1//EN"
 "http://www.w3.org/Graphics/SVG/1.1/DTD/svg11.dtd">
<!-- Generated by graphviz version 5.0.0 (0)
 -->
<!-- Title: hydra::detail::DecayMothers&lt; N, GRND &gt; Pages: 1 -->
<svg width="148pt" height="270pt"
 viewBox="0.00 0.00 148.00 270.00" xmlns="http://www.w3.org/2000/svg" xmlns:xlink="http://www.w3.org/1999/xlink">
<g id="graph0" class="graph" transform="scale(1 1) rotate(0) translate(4 266)">
<title>hydra::detail::DecayMothers&lt; N, GRND &gt;</title>
<!-- Node1 -->
<g id="node1" class="node">
<title>Node1</title>
<polygon fill="#bfbfbf" stroke="black" points="0,-0.5 0,-134.5 140,-134.5 140,-0.5 0,-0.5"/>
<text text-anchor="start" x="8" y="-122.5" font-family="Helvetica,sans-Serif" font-size="10.00">hydra::detail::DecayMothers</text>
<text text-anchor="middle" x="70" y="-111.5" font-family="Helvetica,sans-Serif" font-size="10.00">&lt; N, GRND &gt;</text>
<polyline fill="none" stroke="black" points="0,-104.5 140,-104.5 "/>
<text text-anchor="middle" x="70" y="-92.5" font-family="Helvetica,sans-Serif" font-size="10.00"> </text>
<polyline fill="none" stroke="black" points="0,-85.5 140,-85.5 "/>
<text text-anchor="start" x="8" y="-73.5" font-family="Helvetica,sans-Serif" font-size="10.00">+ DecayMothers()</text>
<text text-anchor="start" x="8" y="-62.5" font-family="Helvetica,sans-Serif" font-size="10.00">+ DecayMothers()</text>
<text text-anchor="start" x="8" y="-51.5" font-family="Helvetica,sans-Serif" font-size="10.00">+ bbsort()</text>
<text text-anchor="start" x="8" y="-40.5" font-family="Helvetica,sans-Serif" font-size="10.00">+ operator()()</text>
<text text-anchor="start" x="8" y="-29.5" font-family="Helvetica,sans-Serif" font-size="10.00">+ process()</text>
<text text-anchor="start" x="8" y="-18.5" font-family="Helvetica,sans-Serif" font-size="10.00">+ hash()</text>
<text text-anchor="start" x="8" y="-7.5" font-family="Helvetica,sans-Serif" font-size="10.00">+ pdk()</text>
</g>
<!-- Node2 -->
<g id="node2" class="node">
<title>Node2</title>
<g id="a_node2"><a xlink:href="namespace_3globalScope_4.html#classdouble" target="_top" xlink:title="{double\n||}">
<polygon fill="none" stroke="black" points="7.5,-204.5 7.5,-261.5 52.5,-261.5 52.5,-204.5 7.5,-204.5"/>
<text text-anchor="middle" x="30" y="-249.5" font-family="Helvetica,sans-Serif" font-size="10.00">double</text>
<polyline fill="none" stroke="black" points="7.5,-242.5 52.5,-242.5 "/>
<text text-anchor="middle" x="30" y="-230.5" font-family="Helvetica,sans-Serif" font-size="10.00"> </text>
<polyline fill="none" stroke="black" points="7.5,-223.5 52.5,-223.5 "/>
<text text-anchor="middle" x="30" y="-211.5" font-family="Helvetica,sans-Serif" font-size="10.00"> </text>
</a>
</g>
</g>
<!-- Node2&#45;&gt;Node1 -->
<g id="edge1" class="edge">
<title>Node2&#45;&gt;Node1</title>
<path fill="none" stroke="#404040" d="M27.54,-204.25C26.89,-188.95 27.22,-169.72 31,-153 31.49,-150.85 32.03,-148.69 32.63,-146.52"/>
<polygon fill="none" stroke="#404040" points="32.67,-146.39 30.66,-139.46 36.27,-134.94 38.29,-141.86 32.67,-146.39"/>
<text text-anchor="middle" x="60" y="-178" font-family="Helvetica,sans-Serif" font-size="10.00"> +fECM</text>
<text text-anchor="middle" x="60" y="-167" font-family="Helvetica,sans-Serif" font-size="10.00">+fMasses</text>
<text text-anchor="middle" x="60" y="-156" font-family="Helvetica,sans-Serif" font-size="10.00">+fMaxWeight</text>
</g>
<!-- Node3 -->
<g id="node3" class="node">
<title>Node3</title>
<polygon fill="none" stroke="#bfbfbf" points="89.5,-204.5 89.5,-261.5 132.5,-261.5 132.5,-204.5 89.5,-204.5"/>
<text text-anchor="middle" x="111" y="-249.5" font-family="Helvetica,sans-Serif" font-size="10.00">size_t</text>
<polyline fill="none" stroke="#bfbfbf" points="89.5,-242.5 132.5,-242.5 "/>
<text text-anchor="middle" x="111" y="-230.5" font-family="Helvetica,sans-Serif" font-size="10.00"> </text>
<polyline fill="none" stroke="#bfbfbf" points="89.5,-223.5 132.5,-223.5 "/>
<text text-anchor="middle" x="111" y="-211.5" font-family="Helvetica,sans-Serif" font-size="10.00"> </text>
</g>
<!-- Node3&#45;&gt;Node1 -->
<g id="edge2" class="edge">
<title>Node3&#45;&gt;Node1</title>
<path fill="none" stroke="#404040" d="M104.04,-204.26C100.02,-188.2 94.72,-167.09 89.51,-146.32"/>
<polygon fill="none" stroke="#404040" points="89.47,-146.15 84.13,-141.3 86.55,-134.51 91.89,-139.36 89.47,-146.15"/>
<text text-anchor="middle" x="115.5" y="-167" font-family="Helvetica,sans-Serif" font-size="10.00"> +fSeed</text>
</g>
</g>
</svg>
