<?xml version="1.0" encoding="UTF-8" standalone="no"?>
<!DOCTYPE svg PUBLIC "-//W3C//DTD SVG 1.1//EN"
 "http://www.w3.org/Graphics/SVG/1.1/DTD/svg11.dtd">
<!-- Generated by graphviz version 5.0.0 (0)
 -->
<!-- Title: hydra::detail::is_instantiation_of&lt; Template, Template&lt; Args... &gt; &gt; Pages: 1 -->
<svg width="188pt" height="171pt"
 viewBox="0.00 0.00 188.00 171.00" xmlns="http://www.w3.org/2000/svg" xmlns:xlink="http://www.w3.org/1999/xlink">
<g id="graph0" class="graph" transform="scale(1 1) rotate(0) translate(4 167)">
<title>hydra::detail::is_instantiation_of&lt; Template, Template&lt; Args... &gt; &gt;</title>
<!-- Node0 -->
<g id="node1" class="node">
<title>Node0</title>
<polygon fill="#bfbfbf" stroke="black" points="0,-0.5 0,-68.5 180,-68.5 180,-0.5 0,-0.5"/>
<text text-anchor="start" x="8" y="-56.5" font-family="Helvetica,sans-Serif" font-size="10.00">hydra::detail::is_instantiation</text>
<text text-anchor="middle" x="90" y="-45.5" font-family="Helvetica,sans-Serif" font-size="10.00">_of&lt; Template, Template&lt; Args... &gt; &gt;</text>
<polyline fill="none" stroke="black" points="0,-38.5 180,-38.5 "/>
<text text-anchor="middle" x="90" y="-26.5" font-family="Helvetica,sans-Serif" font-size="10.00"> </text>
<polyline fill="none" stroke="black" points="0,-19.5 180,-19.5 "/>
<text text-anchor="middle" x="90" y="-7.5" font-family="Helvetica,sans-Serif" font-size="10.00"> </text>
</g>
<!-- Node1 -->
<g id="node2" class="node">
<title>Node1</title>
<polygon fill="none" stroke="#bfbfbf" points="61.5,-105.5 61.5,-162.5 118.5,-162.5 118.5,-105.5 61.5,-105.5"/>
<text text-anchor="middle" x="90" y="-150.5" font-family="Helvetica,sans-Serif" font-size="10.00">true_type</text>
<polyline fill="none" stroke="#bfbfbf" points="61.5,-143.5 118.5,-143.5 "/>
<text text-anchor="middle" x="90" y="-131.5" font-family="Helvetica,sans-Serif" font-size="10.00"> </text>
<polyline fill="none" stroke="#bfbfbf" points="61.5,-124.5 118.5,-124.5 "/>
<text text-anchor="middle" x="90" y="-112.5" font-family="Helvetica,sans-Serif" font-size="10.00"> </text>
</g>
<!-- Node1&#45;&gt;Node0 -->
<g id="edge1" class="edge">
<title>Node1&#45;&gt;Node0</title>
<path fill="none" stroke="midnightblue" d="M90,-95.06C90,-86.39 90,-77.24 90,-68.79"/>
<polygon fill="none" stroke="midnightblue" points="86.5,-95.32 90,-105.32 93.5,-95.32 86.5,-95.32"/>
</g>
</g>
</svg>
