<?xml version="1.0" encoding="UTF-8" standalone="no"?>
<!DOCTYPE svg PUBLIC "-//W3C//DTD SVG 1.1//EN"
 "http://www.w3.org/Graphics/SVG/1.1/DTD/svg11.dtd">
<!-- Generated by graphviz version 2.42.4 (0)
 -->
<!-- Title: hydra::detail::find_unique_type&lt; T, Types &gt; Pages: 1 -->
<svg width="152pt" height="321pt"
 viewBox="0.00 0.00 151.50 321.00" xmlns="http://www.w3.org/2000/svg" xmlns:xlink="http://www.w3.org/1999/xlink">
<g id="graph0" class="graph" transform="scale(1 1) rotate(0) translate(4 317)">
<title>hydra::detail::find_unique_type&lt; T, Types &gt;</title>
<!-- Node5 -->
<g id="node1" class="node">
<title>Node5</title>
<polygon fill="#bfbfbf" stroke="black" points="0,-0.5 0,-68.5 129,-68.5 129,-0.5 0,-0.5"/>
<text text-anchor="start" x="8" y="-56.5" font-family="Helvetica,sans-Serif" font-size="10.00">hydra::detail::find</text>
<text text-anchor="middle" x="64.5" y="-45.5" font-family="Helvetica,sans-Serif" font-size="10.00">_unique_type&lt; T, Types &gt;</text>
<polyline fill="none" stroke="black" points="0,-38.5 129,-38.5 "/>
<text text-anchor="middle" x="64.5" y="-26.5" font-family="Helvetica,sans-Serif" font-size="10.00"> </text>
<polyline fill="none" stroke="black" points="0,-19.5 129,-19.5 "/>
<text text-anchor="middle" x="64.5" y="-7.5" font-family="Helvetica,sans-Serif" font-size="10.00"> </text>
</g>
<!-- Node6 -->
<g id="node2" class="node">
<title>Node6</title>
<g id="a_node2"><a xlink:href="namespacehydra_1_1detail.html" target="_top" xlink:title="{hydra::detail::find\l_unique_type_impl\&lt; 0,\l T, Types... \&gt;\n||}">
<polygon fill="none" stroke="black" points="7,-106.5 7,-185.5 122,-185.5 122,-106.5 7,-106.5"/>
<text text-anchor="start" x="15" y="-173.5" font-family="Helvetica,sans-Serif" font-size="10.00">hydra::detail::find</text>
<text text-anchor="start" x="15" y="-162.5" font-family="Helvetica,sans-Serif" font-size="10.00">_unique_type_impl&lt; 0,</text>
<text text-anchor="middle" x="64.5" y="-151.5" font-family="Helvetica,sans-Serif" font-size="10.00"> T, Types... &gt;</text>
<polyline fill="none" stroke="black" points="7,-144.5 122,-144.5 "/>
<text text-anchor="middle" x="64.5" y="-132.5" font-family="Helvetica,sans-Serif" font-size="10.00"> </text>
<polyline fill="none" stroke="black" points="7,-125.5 122,-125.5 "/>
<text text-anchor="middle" x="64.5" y="-113.5" font-family="Helvetica,sans-Serif" font-size="10.00"> </text>
</a>
</g>
</g>
<!-- Node6&#45;&gt;Node5 -->
<g id="edge1" class="edge">
<title>Node6&#45;&gt;Node5</title>
<path fill="none" stroke="midnightblue" d="M64.5,-96.38C64.5,-87.02 64.5,-77.41 64.5,-68.67"/>
<polygon fill="none" stroke="midnightblue" points="61,-96.39 64.5,-106.39 68,-96.39 61,-96.39"/>
</g>
<!-- Node7 -->
<g id="node3" class="node">
<title>Node7</title>
<g id="a_node3"><a xlink:href="namespacehydra_1_1detail.html#structhydra_1_1detail_1_1find__unique__type__impl" target="_top" xlink:title="{hydra::detail::find\l_unique_type_impl\&lt; I,\l T, Types \&gt;\n||}">
<polygon fill="none" stroke="black" points="8,-233.5 8,-312.5 121,-312.5 121,-233.5 8,-233.5"/>
<text text-anchor="start" x="16" y="-300.5" font-family="Helvetica,sans-Serif" font-size="10.00">hydra::detail::find</text>
<text text-anchor="start" x="16" y="-289.5" font-family="Helvetica,sans-Serif" font-size="10.00">_unique_type_impl&lt; I,</text>
<text text-anchor="middle" x="64.5" y="-278.5" font-family="Helvetica,sans-Serif" font-size="10.00"> T, Types &gt;</text>
<polyline fill="none" stroke="black" points="8,-271.5 121,-271.5 "/>
<text text-anchor="middle" x="64.5" y="-259.5" font-family="Helvetica,sans-Serif" font-size="10.00"> </text>
<polyline fill="none" stroke="black" points="8,-252.5 121,-252.5 "/>
<text text-anchor="middle" x="64.5" y="-240.5" font-family="Helvetica,sans-Serif" font-size="10.00"> </text>
</a>
</g>
</g>
<!-- Node7&#45;&gt;Node6 -->
<g id="edge2" class="edge">
<title>Node7&#45;&gt;Node6</title>
<path fill="none" stroke="orange" d="M64.5,-223.22C64.5,-210.74 64.5,-197.5 64.5,-185.61"/>
<polygon fill="orange" stroke="orange" points="61,-223.48 64.5,-233.48 68,-223.48 61,-223.48"/>
<text text-anchor="middle" x="104" y="-207" font-family="Helvetica,sans-Serif" font-size="10.00"> &lt; 0, T, Types... &gt;</text>
</g>
</g>
</svg>
