<?xml version="1.0" encoding="UTF-8" standalone="no"?>
<!DOCTYPE svg PUBLIC "-//W3C//DTD SVG 1.1//EN"
 "http://www.w3.org/Graphics/SVG/1.1/DTD/svg11.dtd">
<!-- Generated by graphviz version 2.38.0 (20140413.2041)
 -->
<!-- Title: hydra::strided_range&lt; Iterator &gt;::stride_functor Pages: 1 -->
<svg width="202pt" height="237pt"
 viewBox="0.00 0.00 202.00 237.00" xmlns="http://www.w3.org/2000/svg" xmlns:xlink="http://www.w3.org/1999/xlink">
<g id="graph0" class="graph" transform="scale(1 1) rotate(0) translate(4 233)">
<title>hydra::strided_range&lt; Iterator &gt;::stride_functor</title>
<!-- Node8 -->
<g id="node1" class="node"><title>Node8</title>
<polygon fill="#bfbfbf" stroke="black" points="71,-0.5 71,-90.5 176,-90.5 176,-0.5 71,-0.5"/>
<text text-anchor="start" x="79" y="-78.5" font-family="Helvetica,sans-Serif" font-size="10.00">hydra::strided_range</text>
<text text-anchor="start" x="79" y="-67.5" font-family="Helvetica,sans-Serif" font-size="10.00">&lt; Iterator &gt;::stride</text>
<text text-anchor="middle" x="123.5" y="-56.5" font-family="Helvetica,sans-Serif" font-size="10.00">_functor</text>
<polyline fill="none" stroke="black" points="71,-49.5 176,-49.5 "/>
<text text-anchor="middle" x="123.5" y="-37.5" font-family="Helvetica,sans-Serif" font-size="10.00"> </text>
<polyline fill="none" stroke="black" points="71,-30.5 176,-30.5 "/>
<text text-anchor="start" x="79" y="-18.5" font-family="Helvetica,sans-Serif" font-size="10.00">+ stride_functor()</text>
<text text-anchor="start" x="79" y="-7.5" font-family="Helvetica,sans-Serif" font-size="10.00">+ operator()()</text>
</g>
<!-- Node9 -->
<g id="node2" class="node"><title>Node9</title>
<polygon fill="none" stroke="#bfbfbf" points="0,-138.5 0,-228.5 141,-228.5 141,-138.5 0,-138.5"/>
<text text-anchor="start" x="8" y="-216.5" font-family="Helvetica,sans-Serif" font-size="10.00">HYDRA_EXTERNAL_NS::</text>
<text text-anchor="start" x="8" y="-205.5" font-family="Helvetica,sans-Serif" font-size="10.00">thrust::unary_function</text>
<text text-anchor="start" x="8" y="-194.5" font-family="Helvetica,sans-Serif" font-size="10.00">&lt; difference_type, difference</text>
<text text-anchor="middle" x="70.5" y="-183.5" font-family="Helvetica,sans-Serif" font-size="10.00">_type &gt;</text>
<polyline fill="none" stroke="#bfbfbf" points="0,-176.5 141,-176.5 "/>
<text text-anchor="middle" x="70.5" y="-164.5" font-family="Helvetica,sans-Serif" font-size="10.00"> </text>
<polyline fill="none" stroke="#bfbfbf" points="0,-157.5 141,-157.5 "/>
<text text-anchor="middle" x="70.5" y="-145.5" font-family="Helvetica,sans-Serif" font-size="10.00"> </text>
</g>
<!-- Node9&#45;&gt;Node8 -->
<g id="edge1" class="edge"><title>Node9&#45;&gt;Node8</title>
<path fill="none" stroke="midnightblue" d="M91.3937,-128.886C96.2978,-116.302 101.47,-103.029 106.197,-90.8992"/>
<polygon fill="none" stroke="midnightblue" points="88.0776,-127.756 87.7076,-138.345 94.5998,-130.298 88.0776,-127.756"/>
</g>
<!-- Node10 -->
<g id="node3" class="node"><title>Node10</title>
<polygon fill="none" stroke="#bfbfbf" points="159,-155 159,-212 194,-212 194,-155 159,-155"/>
<text text-anchor="middle" x="176.5" y="-200" font-family="Helvetica,sans-Serif" font-size="10.00">type</text>
<polyline fill="none" stroke="#bfbfbf" points="159,-193 194,-193 "/>
<text text-anchor="middle" x="176.5" y="-181" font-family="Helvetica,sans-Serif" font-size="10.00"> </text>
<polyline fill="none" stroke="#bfbfbf" points="159,-174 194,-174 "/>
<text text-anchor="middle" x="176.5" y="-162" font-family="Helvetica,sans-Serif" font-size="10.00"> </text>
</g>
<!-- Node10&#45;&gt;Node8 -->
<g id="edge2" class="edge"><title>Node10&#45;&gt;Node8</title>
<path fill="none" stroke="#404040" d="M165.775,-154.978C159.813,-139.681 152.177,-120.086 145.039,-101.769"/>
<polygon fill="none" stroke="#404040" points="145.035,-101.76 139.13,-97.6219 140.678,-90.579 146.584,-94.717 145.035,-101.76"/>
<text text-anchor="middle" x="168.5" y="-112" font-family="Helvetica,sans-Serif" font-size="10.00"> +stride</text>
</g>
</g>
</svg>
