<?xml version="1.0" encoding="UTF-8" standalone="no"?>
<!DOCTYPE svg PUBLIC "-//W3C//DTD SVG 1.1//EN"
 "http://www.w3.org/Graphics/SVG/1.1/DTD/svg11.dtd">
<!-- Generated by graphviz version 5.0.0 (0)
 -->
<!-- Title: hydra::detail::SWeights&lt; W, F1, F2, Fs &gt; Pages: 1 -->
<svg width="465pt" height="259pt"
 viewBox="0.00 0.00 465.00 259.00" xmlns="http://www.w3.org/2000/svg" xmlns:xlink="http://www.w3.org/1999/xlink">
<g id="graph0" class="graph" transform="scale(1 1) rotate(0) translate(4 255)">
<title>hydra::detail::SWeights&lt; W, F1, F2, Fs &gt;</title>
<!-- Node1 -->
<g id="node1" class="node">
<title>Node1</title>
<polygon fill="#bfbfbf" stroke="black" points="127.5,-0.5 127.5,-134.5 245.5,-134.5 245.5,-0.5 127.5,-0.5"/>
<text text-anchor="start" x="135.5" y="-122.5" font-family="Helvetica,sans-Serif" font-size="10.00">hydra::detail::SWeights</text>
<text text-anchor="middle" x="186.5" y="-111.5" font-family="Helvetica,sans-Serif" font-size="10.00">&lt; W, F1, F2, Fs &gt;</text>
<polyline fill="none" stroke="black" points="127.5,-104.5 245.5,-104.5 "/>
<text text-anchor="middle" x="186.5" y="-92.5" font-family="Helvetica,sans-Serif" font-size="10.00"> </text>
<polyline fill="none" stroke="black" points="127.5,-85.5 245.5,-85.5 "/>
<text text-anchor="start" x="135.5" y="-73.5" font-family="Helvetica,sans-Serif" font-size="10.00">+ SWeights()</text>
<text text-anchor="start" x="135.5" y="-62.5" font-family="Helvetica,sans-Serif" font-size="10.00">+ SWeights()</text>
<text text-anchor="start" x="135.5" y="-51.5" font-family="Helvetica,sans-Serif" font-size="10.00">+ SWeights()</text>
<text text-anchor="start" x="135.5" y="-40.5" font-family="Helvetica,sans-Serif" font-size="10.00">+ SWeights()</text>
<text text-anchor="start" x="135.5" y="-29.5" font-family="Helvetica,sans-Serif" font-size="10.00">+ operator()()</text>
<text text-anchor="start" x="135.5" y="-18.5" font-family="Helvetica,sans-Serif" font-size="10.00">+ operator()()</text>
<text text-anchor="start" x="135.5" y="-7.5" font-family="Helvetica,sans-Serif" font-size="10.00">+ operator=()</text>
</g>
<!-- Node2 -->
<g id="node2" class="node">
<title>Node2</title>
<g id="a_node2"><a xlink:href="namespace_3globalScope_4.html#classdouble" target="_top" xlink:title="{double\n||}">
<polygon fill="none" stroke="black" points="0,-188 0,-245 45,-245 45,-188 0,-188"/>
<text text-anchor="middle" x="22.5" y="-233" font-family="Helvetica,sans-Serif" font-size="10.00">double</text>
<polyline fill="none" stroke="black" points="0,-226 45,-226 "/>
<text text-anchor="middle" x="22.5" y="-214" font-family="Helvetica,sans-Serif" font-size="10.00"> </text>
<polyline fill="none" stroke="black" points="0,-207 45,-207 "/>
<text text-anchor="middle" x="22.5" y="-195" font-family="Helvetica,sans-Serif" font-size="10.00"> </text>
</a>
</g>
</g>
<!-- Node2&#45;&gt;Node1 -->
<g id="edge1" class="edge">
<title>Node2&#45;&gt;Node1</title>
<path fill="none" stroke="#404040" d="M43.73,-187.9C52.97,-176.59 64.25,-163.67 75.5,-153 88.42,-140.74 103.08,-128.56 117.4,-117.41"/>
<polygon fill="none" stroke="#404040" points="117.72,-117.17 120.05,-110.34 127.25,-109.87 124.91,-116.7 117.72,-117.17"/>
<text text-anchor="middle" x="108" y="-156" font-family="Helvetica,sans-Serif" font-size="10.00"> +fCoefficients</text>
</g>
<!-- Node3 -->
<g id="node3" class="node">
<title>Node3</title>
<polygon fill="none" stroke="#bfbfbf" points="63.5,-188 63.5,-245 179.5,-245 179.5,-188 63.5,-188"/>
<text text-anchor="middle" x="121.5" y="-233" font-family="Helvetica,sans-Serif" font-size="10.00">static constexpr size_t</text>
<polyline fill="none" stroke="#bfbfbf" points="63.5,-226 179.5,-226 "/>
<text text-anchor="middle" x="121.5" y="-214" font-family="Helvetica,sans-Serif" font-size="10.00"> </text>
<polyline fill="none" stroke="#bfbfbf" points="63.5,-207 179.5,-207 "/>
<text text-anchor="middle" x="121.5" y="-195" font-family="Helvetica,sans-Serif" font-size="10.00"> </text>
</g>
<!-- Node3&#45;&gt;Node1 -->
<g id="edge2" class="edge">
<title>Node3&#45;&gt;Node1</title>
<path fill="none" stroke="#404040" d="M133.73,-187.85C139.08,-175.74 145.66,-160.86 152.34,-145.77"/>
<polygon fill="none" stroke="#404040" points="152.34,-145.75 151.11,-138.64 157.19,-134.77 158.43,-141.88 152.34,-145.75"/>
<text text-anchor="middle" x="173.5" y="-156" font-family="Helvetica,sans-Serif" font-size="10.00"> +nfunctors</text>
</g>
<!-- Node4 -->
<g id="node4" class="node">
<title>Node4</title>
<polygon fill="none" stroke="#bfbfbf" points="197.5,-188 197.5,-245 307.5,-245 307.5,-188 197.5,-188"/>
<text text-anchor="middle" x="252.5" y="-233" font-family="Helvetica,sans-Serif" font-size="10.00">tuple&lt; F1, F2, Fs... &gt;</text>
<polyline fill="none" stroke="#bfbfbf" points="197.5,-226 307.5,-226 "/>
<text text-anchor="middle" x="252.5" y="-214" font-family="Helvetica,sans-Serif" font-size="10.00"> </text>
<polyline fill="none" stroke="#bfbfbf" points="197.5,-207 307.5,-207 "/>
<text text-anchor="middle" x="252.5" y="-195" font-family="Helvetica,sans-Serif" font-size="10.00"> </text>
</g>
<!-- Node4&#45;&gt;Node1 -->
<g id="edge3" class="edge">
<title>Node4&#45;&gt;Node1</title>
<path fill="none" stroke="#404040" d="M240.09,-187.85C234.65,-175.74 227.97,-160.86 221.19,-145.77"/>
<polygon fill="none" stroke="#404040" points="221.17,-145.72 215.06,-141.89 216.26,-134.77 222.36,-138.61 221.17,-145.72"/>
<text text-anchor="middle" x="254" y="-156" font-family="Helvetica,sans-Serif" font-size="10.00"> +fFunctors</text>
</g>
<!-- Node5 -->
<g id="node5" class="node">
<title>Node5</title>
<polygon fill="none" stroke="#bfbfbf" points="326,-182.5 326,-250.5 457,-250.5 457,-182.5 326,-182.5"/>
<text text-anchor="start" x="334" y="-238.5" font-family="Helvetica,sans-Serif" font-size="10.00">Matrix&lt; double, nfunctors,</text>
<text text-anchor="middle" x="391.5" y="-227.5" font-family="Helvetica,sans-Serif" font-size="10.00"> nfunctors &gt;</text>
<polyline fill="none" stroke="#bfbfbf" points="326,-220.5 457,-220.5 "/>
<text text-anchor="middle" x="391.5" y="-208.5" font-family="Helvetica,sans-Serif" font-size="10.00"> </text>
<polyline fill="none" stroke="#bfbfbf" points="326,-201.5 457,-201.5 "/>
<text text-anchor="middle" x="391.5" y="-189.5" font-family="Helvetica,sans-Serif" font-size="10.00"> </text>
</g>
<!-- Node5&#45;&gt;Node1 -->
<g id="edge4" class="edge">
<title>Node5&#45;&gt;Node1</title>
<path fill="none" stroke="#404040" d="M345.24,-182.33C318.82,-163.38 285.18,-139.26 255.68,-118.11"/>
<polygon fill="none" stroke="#404040" points="255.6,-118.05 248.39,-117.8 245.85,-111.06 253.05,-111.3 255.6,-118.05"/>
<text text-anchor="middle" x="349" y="-156" font-family="Helvetica,sans-Serif" font-size="10.00"> +fICovMatrix</text>
</g>
</g>
</svg>
