<?xml version="1.0" encoding="UTF-8" standalone="no"?>
<!DOCTYPE svg PUBLIC "-//W3C//DTD SVG 1.1//EN"
 "http://www.w3.org/Graphics/SVG/1.1/DTD/svg11.dtd">
<!-- Generated by graphviz version 5.0.0 (0)
 -->
<!-- Title: hydra::detail::ProcessCallsPlainBinary Pages: 1 -->
<svg width="142pt" height="204pt"
 viewBox="0.00 0.00 142.00 204.00" xmlns="http://www.w3.org/2000/svg" xmlns:xlink="http://www.w3.org/1999/xlink">
<g id="graph0" class="graph" transform="scale(1 1) rotate(0) translate(4 200)">
<title>hydra::detail::ProcessCallsPlainBinary</title>
<!-- Node0 -->
<g id="node1" class="node">
<title>Node0</title>
<polygon fill="#bfbfbf" stroke="black" points="0,-0.5 0,-68.5 134,-68.5 134,-0.5 0,-0.5"/>
<text text-anchor="start" x="8" y="-56.5" font-family="Helvetica,sans-Serif" font-size="10.00">hydra::detail::ProcessCalls</text>
<text text-anchor="middle" x="67" y="-45.5" font-family="Helvetica,sans-Serif" font-size="10.00">PlainBinary</text>
<polyline fill="none" stroke="black" points="0,-38.5 134,-38.5 "/>
<text text-anchor="middle" x="67" y="-26.5" font-family="Helvetica,sans-Serif" font-size="10.00"> </text>
<polyline fill="none" stroke="black" points="0,-19.5 134,-19.5 "/>
<text text-anchor="start" x="8" y="-7.5" font-family="Helvetica,sans-Serif" font-size="10.00">+ operator()()</text>
</g>
<!-- Node1 -->
<g id="node2" class="node">
<title>Node1</title>
<g id="a_node2"><a xlink:href="classhydra_1_1thrust_1_1binary__function.html" target="_top" xlink:title="{hydra::thrust::binary\l_function\&lt; PlainState\l const &amp;, PlainState const\l &amp;, PlainState \&gt;\n||}">
<polygon fill="none" stroke="black" points="1.5,-105.5 1.5,-195.5 132.5,-195.5 132.5,-105.5 1.5,-105.5"/>
<text text-anchor="start" x="9.5" y="-183.5" font-family="Helvetica,sans-Serif" font-size="10.00">hydra::thrust::binary</text>
<text text-anchor="start" x="9.5" y="-172.5" font-family="Helvetica,sans-Serif" font-size="10.00">_function&lt; PlainState</text>
<text text-anchor="start" x="9.5" y="-161.5" font-family="Helvetica,sans-Serif" font-size="10.00"> const &amp;, PlainState const</text>
<text text-anchor="middle" x="67" y="-150.5" font-family="Helvetica,sans-Serif" font-size="10.00"> &amp;, PlainState &gt;</text>
<polyline fill="none" stroke="black" points="1.5,-143.5 132.5,-143.5 "/>
<text text-anchor="middle" x="67" y="-131.5" font-family="Helvetica,sans-Serif" font-size="10.00"> </text>
<polyline fill="none" stroke="black" points="1.5,-124.5 132.5,-124.5 "/>
<text text-anchor="middle" x="67" y="-112.5" font-family="Helvetica,sans-Serif" font-size="10.00"> </text>
</a>
</g>
</g>
<!-- Node1&#45;&gt;Node0 -->
<g id="edge1" class="edge">
<title>Node1&#45;&gt;Node0</title>
<path fill="none" stroke="midnightblue" d="M67,-95.32C67,-86.28 67,-77.16 67,-68.85"/>
<polygon fill="none" stroke="midnightblue" points="63.5,-95.42 67,-105.42 70.5,-95.42 63.5,-95.42"/>
</g>
</g>
</svg>
