<?xml version="1.0" encoding="UTF-8" standalone="no"?>
<!DOCTYPE svg PUBLIC "-//W3C//DTD SVG 1.1//EN"
 "http://www.w3.org/Graphics/SVG/1.1/DTD/svg11.dtd">
<!-- Generated by graphviz version 2.42.4 (0)
 -->
<!-- Title: hydra::detail::sobol_lattice&lt; UIntType, D, W, SobolTables &gt; Pages: 1 -->
<svg width="147pt" height="259pt"
 viewBox="0.00 0.00 146.50 259.00" xmlns="http://www.w3.org/2000/svg" xmlns:xlink="http://www.w3.org/1999/xlink">
<g id="graph0" class="graph" transform="scale(1 1) rotate(0) translate(4 255)">
<title>hydra::detail::sobol_lattice&lt; UIntType, D, W, SobolTables &gt;</title>
<!-- Node1 -->
<g id="node1" class="node">
<title>Node1</title>
<polygon fill="#bfbfbf" stroke="black" points="0,-0.5 0,-123.5 113,-123.5 113,-0.5 0,-0.5"/>
<text text-anchor="start" x="8" y="-111.5" font-family="Helvetica,sans-Serif" font-size="10.00">hydra::detail::sobol</text>
<text text-anchor="start" x="8" y="-100.5" font-family="Helvetica,sans-Serif" font-size="10.00">_lattice&lt; UIntType, D,</text>
<text text-anchor="middle" x="56.5" y="-89.5" font-family="Helvetica,sans-Serif" font-size="10.00"> W, SobolTables &gt;</text>
<polyline fill="none" stroke="black" points="0,-82.5 113,-82.5 "/>
<text text-anchor="middle" x="56.5" y="-70.5" font-family="Helvetica,sans-Serif" font-size="10.00"> </text>
<polyline fill="none" stroke="black" points="0,-63.5 113,-63.5 "/>
<text text-anchor="start" x="8" y="-51.5" font-family="Helvetica,sans-Serif" font-size="10.00">+ sobol_lattice()</text>
<text text-anchor="start" x="8" y="-40.5" font-family="Helvetica,sans-Serif" font-size="10.00">+ sobol_lattice()</text>
<text text-anchor="start" x="8" y="-29.5" font-family="Helvetica,sans-Serif" font-size="10.00">+ GetBits()</text>
<text text-anchor="start" x="8" y="-18.5" font-family="Helvetica,sans-Serif" font-size="10.00">+ iter_at()</text>
<text text-anchor="start" x="8" y="-7.5" font-family="Helvetica,sans-Serif" font-size="10.00">+ operator=()</text>
</g>
<!-- Node2 -->
<g id="node2" class="node">
<title>Node2</title>
<g id="a_node2"><a xlink:href="namespace_3globalScope_4.html#classunsigned" target="_top" xlink:title="{unsigned\n||}">
<polygon fill="none" stroke="black" points="28.5,-193.5 28.5,-250.5 84.5,-250.5 84.5,-193.5 28.5,-193.5"/>
<text text-anchor="middle" x="56.5" y="-238.5" font-family="Helvetica,sans-Serif" font-size="10.00">unsigned</text>
<polyline fill="none" stroke="black" points="28.5,-231.5 84.5,-231.5 "/>
<text text-anchor="middle" x="56.5" y="-219.5" font-family="Helvetica,sans-Serif" font-size="10.00"> </text>
<polyline fill="none" stroke="black" points="28.5,-212.5 84.5,-212.5 "/>
<text text-anchor="middle" x="56.5" y="-200.5" font-family="Helvetica,sans-Serif" font-size="10.00"> </text>
</a>
</g>
</g>
<!-- Node2&#45;&gt;Node1 -->
<g id="edge1" class="edge">
<title>Node2&#45;&gt;Node1</title>
<path fill="none" stroke="#404040" d="M56.5,-193.48C56.5,-177.37 56.5,-156.19 56.5,-135.61"/>
<polygon fill="none" stroke="#404040" points="56.5,-135.59 52.5,-129.59 56.5,-123.59 60.5,-129.59 56.5,-135.59"/>
<text text-anchor="middle" x="97.5" y="-167" font-family="Helvetica,sans-Serif" font-size="10.00"> +storage_size</text>
<text text-anchor="middle" x="97.5" y="-156" font-family="Helvetica,sans-Serif" font-size="10.00">+bit_count</text>
<text text-anchor="middle" x="97.5" y="-145" font-family="Helvetica,sans-Serif" font-size="10.00">+lattice_dimension</text>
</g>
</g>
</svg>
