<?xml version="1.0" encoding="UTF-8" standalone="no"?>
<!DOCTYPE svg PUBLIC "-//W3C//DTD SVG 1.1//EN"
 "http://www.w3.org/Graphics/SVG/1.1/DTD/svg11.dtd">
<!-- Generated by graphviz version 2.38.0 (20140413.2041)
 -->
<!-- Title: hydra::detail::GetGlobalBin&lt; N, T &gt; Pages: 1 -->
<svg width="145pt" height="303pt"
 viewBox="0.00 0.00 145.00 303.00" xmlns="http://www.w3.org/2000/svg" xmlns:xlink="http://www.w3.org/1999/xlink">
<g id="graph0" class="graph" transform="scale(1 1) rotate(0) translate(4 299)">
<title>hydra::detail::GetGlobalBin&lt; N, T &gt;</title>
<!-- Node0 -->
<g id="node1" class="node"><title>Node0</title>
<polygon fill="#bfbfbf" stroke="black" points="9,-0.5 9,-167.5 128,-167.5 128,-0.5 9,-0.5"/>
<text text-anchor="start" x="17" y="-155.5" font-family="Helvetica,sans-Serif" font-size="10.00">hydra::detail::GetGlobal</text>
<text text-anchor="middle" x="68.5" y="-144.5" font-family="Helvetica,sans-Serif" font-size="10.00">Bin&lt; N, T &gt;</text>
<polyline fill="none" stroke="black" points="9,-137.5 128,-137.5 "/>
<text text-anchor="start" x="17" y="-125.5" font-family="Helvetica,sans-Serif" font-size="10.00">+ fDelta</text>
<text text-anchor="start" x="17" y="-114.5" font-family="Helvetica,sans-Serif" font-size="10.00">+ fGrid</text>
<text text-anchor="start" x="17" y="-103.5" font-family="Helvetica,sans-Serif" font-size="10.00">+ fLowerLimits</text>
<text text-anchor="start" x="17" y="-92.5" font-family="Helvetica,sans-Serif" font-size="10.00">+ fNGlobalBins</text>
<polyline fill="none" stroke="black" points="9,-85.5 128,-85.5 "/>
<text text-anchor="start" x="17" y="-73.5" font-family="Helvetica,sans-Serif" font-size="10.00">+ GetGlobalBin()</text>
<text text-anchor="start" x="17" y="-62.5" font-family="Helvetica,sans-Serif" font-size="10.00">+ GetGlobalBin()</text>
<text text-anchor="start" x="17" y="-51.5" font-family="Helvetica,sans-Serif" font-size="10.00">+ get_bin()</text>
<text text-anchor="start" x="17" y="-40.5" font-family="Helvetica,sans-Serif" font-size="10.00">+ get_global_bin()</text>
<text text-anchor="start" x="17" y="-29.5" font-family="Helvetica,sans-Serif" font-size="10.00">+ get_global_bin()</text>
<text text-anchor="start" x="17" y="-18.5" font-family="Helvetica,sans-Serif" font-size="10.00">+ operator()()</text>
<text text-anchor="start" x="17" y="-7.5" font-family="Helvetica,sans-Serif" font-size="10.00">+ operator=()</text>
</g>
<!-- Node1 -->
<g id="node2" class="node"><title>Node1</title>
<polygon fill="none" stroke="#bfbfbf" points="0,-204.5 0,-294.5 137,-294.5 137,-204.5 0,-204.5"/>
<text text-anchor="start" x="8" y="-282.5" font-family="Helvetica,sans-Serif" font-size="10.00">HYDRA_EXTERNAL_NS::</text>
<text text-anchor="start" x="8" y="-271.5" font-family="Helvetica,sans-Serif" font-size="10.00">thrust::unary_function</text>
<text text-anchor="start" x="8" y="-260.5" font-family="Helvetica,sans-Serif" font-size="10.00">&lt; tuple_type&lt; N, T &gt;::</text>
<text text-anchor="middle" x="68.5" y="-249.5" font-family="Helvetica,sans-Serif" font-size="10.00">type, size_t &gt;</text>
<polyline fill="none" stroke="#bfbfbf" points="0,-242.5 137,-242.5 "/>
<text text-anchor="middle" x="68.5" y="-230.5" font-family="Helvetica,sans-Serif" font-size="10.00"> </text>
<polyline fill="none" stroke="#bfbfbf" points="0,-223.5 137,-223.5 "/>
<text text-anchor="middle" x="68.5" y="-211.5" font-family="Helvetica,sans-Serif" font-size="10.00"> </text>
</g>
<!-- Node1&#45;&gt;Node0 -->
<g id="edge1" class="edge"><title>Node1&#45;&gt;Node0</title>
<path fill="none" stroke="midnightblue" d="M68.5,-194.133C68.5,-185.631 68.5,-176.681 68.5,-167.715"/>
<polygon fill="none" stroke="midnightblue" points="65.0001,-194.255 68.5,-204.255 72.0001,-194.255 65.0001,-194.255"/>
</g>
</g>
</svg>
