<?xml version="1.0" encoding="UTF-8" standalone="no"?>
<!DOCTYPE svg PUBLIC "-//W3C//DTD SVG 1.1//EN"
 "http://www.w3.org/Graphics/SVG/1.1/DTD/svg11.dtd">
<!-- Generated by graphviz version 5.0.0 (0)
 -->
<!-- Title: hydra::detail::GetGlobalBin&lt; 1, T &gt; Pages: 1 -->
<svg width="127pt" height="259pt"
 viewBox="0.00 0.00 127.00 259.00" xmlns="http://www.w3.org/2000/svg" xmlns:xlink="http://www.w3.org/1999/xlink">
<g id="graph0" class="graph" transform="scale(1 1) rotate(0) translate(4 255)">
<title>hydra::detail::GetGlobalBin&lt; 1, T &gt;</title>
<!-- Node0 -->
<g id="node1" class="node">
<title>Node0</title>
<polygon fill="#bfbfbf" stroke="black" points="0,-0.5 0,-145.5 119,-145.5 119,-0.5 0,-0.5"/>
<text text-anchor="start" x="8" y="-133.5" font-family="Helvetica,sans-Serif" font-size="10.00">hydra::detail::GetGlobal</text>
<text text-anchor="middle" x="59.5" y="-122.5" font-family="Helvetica,sans-Serif" font-size="10.00">Bin&lt; 1, T &gt;</text>
<polyline fill="none" stroke="black" points="0,-115.5 119,-115.5 "/>
<text text-anchor="start" x="8" y="-103.5" font-family="Helvetica,sans-Serif" font-size="10.00">+ fDelta</text>
<text text-anchor="start" x="8" y="-92.5" font-family="Helvetica,sans-Serif" font-size="10.00">+ fGrid</text>
<text text-anchor="start" x="8" y="-81.5" font-family="Helvetica,sans-Serif" font-size="10.00">+ fLowerLimits</text>
<text text-anchor="start" x="8" y="-70.5" font-family="Helvetica,sans-Serif" font-size="10.00">+ fNGlobalBins</text>
<polyline fill="none" stroke="black" points="0,-63.5 119,-63.5 "/>
<text text-anchor="start" x="8" y="-51.5" font-family="Helvetica,sans-Serif" font-size="10.00">+ GetGlobalBin()</text>
<text text-anchor="start" x="8" y="-40.5" font-family="Helvetica,sans-Serif" font-size="10.00">+ GetGlobalBin()</text>
<text text-anchor="start" x="8" y="-29.5" font-family="Helvetica,sans-Serif" font-size="10.00">+ get_bin()</text>
<text text-anchor="start" x="8" y="-18.5" font-family="Helvetica,sans-Serif" font-size="10.00">+ operator()()</text>
<text text-anchor="start" x="8" y="-7.5" font-family="Helvetica,sans-Serif" font-size="10.00">+ operator=()</text>
</g>
<!-- Node1 -->
<g id="node2" class="node">
<title>Node1</title>
<g id="a_node2"><a xlink:href="classhydra_1_1thrust_1_1unary__function.html" target="_top" xlink:title="{hydra::thrust::unary\l_function\&lt; T, size_t \&gt;\n||}">
<polygon fill="none" stroke="black" points="4,-182.5 4,-250.5 115,-250.5 115,-182.5 4,-182.5"/>
<text text-anchor="start" x="12" y="-238.5" font-family="Helvetica,sans-Serif" font-size="10.00">hydra::thrust::unary</text>
<text text-anchor="middle" x="59.5" y="-227.5" font-family="Helvetica,sans-Serif" font-size="10.00">_function&lt; T, size_t &gt;</text>
<polyline fill="none" stroke="black" points="4,-220.5 115,-220.5 "/>
<text text-anchor="middle" x="59.5" y="-208.5" font-family="Helvetica,sans-Serif" font-size="10.00"> </text>
<polyline fill="none" stroke="black" points="4,-201.5 115,-201.5 "/>
<text text-anchor="middle" x="59.5" y="-189.5" font-family="Helvetica,sans-Serif" font-size="10.00"> </text>
</a>
</g>
</g>
<!-- Node1&#45;&gt;Node0 -->
<g id="edge1" class="edge">
<title>Node1&#45;&gt;Node0</title>
<path fill="none" stroke="midnightblue" d="M59.5,-172.09C59.5,-163.73 59.5,-154.76 59.5,-145.77"/>
<polygon fill="none" stroke="midnightblue" points="56,-172.32 59.5,-182.32 63,-172.32 56,-172.32"/>
</g>
</g>
</svg>
