<?xml version="1.0" encoding="UTF-8" standalone="no"?>
<!DOCTYPE svg PUBLIC "-//W3C//DTD SVG 1.1//EN"
 "http://www.w3.org/Graphics/SVG/1.1/DTD/svg11.dtd">
<!-- Generated by graphviz version 2.38.0 (20140413.2041)
 -->
<!-- Title: hydra::GaussKronrodUnary&lt; FUNCTOR &gt; Pages: 1 -->
<svg width="143pt" height="226pt"
 viewBox="0.00 0.00 143.00 226.00" xmlns="http://www.w3.org/2000/svg" xmlns:xlink="http://www.w3.org/1999/xlink">
<g id="graph0" class="graph" transform="scale(1 1) rotate(0) translate(4 222)">
<title>hydra::GaussKronrodUnary&lt; FUNCTOR &gt;</title>
<!-- Node1 -->
<g id="node1" class="node"><title>Node1</title>
<polygon fill="#bfbfbf" stroke="black" points="0,-0.5 0,-112.5 135,-112.5 135,-0.5 0,-0.5"/>
<text text-anchor="start" x="8" y="-100.5" font-family="Helvetica,sans-Serif" font-size="10.00">hydra::GaussKronrodUnary</text>
<text text-anchor="middle" x="67.5" y="-89.5" font-family="Helvetica,sans-Serif" font-size="10.00">&lt; FUNCTOR &gt;</text>
<polyline fill="none" stroke="black" points="0,-82.5 135,-82.5 "/>
<text text-anchor="middle" x="67.5" y="-70.5" font-family="Helvetica,sans-Serif" font-size="10.00"> </text>
<polyline fill="none" stroke="black" points="0,-63.5 135,-63.5 "/>
<text text-anchor="start" x="8" y="-51.5" font-family="Helvetica,sans-Serif" font-size="10.00">+ GaussKronrodUnary()</text>
<text text-anchor="start" x="8" y="-40.5" font-family="Helvetica,sans-Serif" font-size="10.00">+ GaussKronrodUnary()</text>
<text text-anchor="start" x="8" y="-29.5" font-family="Helvetica,sans-Serif" font-size="10.00">+ GaussKronrodUnary()</text>
<text text-anchor="start" x="8" y="-18.5" font-family="Helvetica,sans-Serif" font-size="10.00">+ operator()()</text>
<text text-anchor="start" x="8" y="-7.5" font-family="Helvetica,sans-Serif" font-size="10.00">+ operator=()</text>
</g>
<!-- Node2 -->
<g id="node2" class="node"><title>Node2</title>
<polygon fill="none" stroke="#bfbfbf" points="34.5,-160.5 34.5,-217.5 100.5,-217.5 100.5,-160.5 34.5,-160.5"/>
<text text-anchor="middle" x="67.5" y="-205.5" font-family="Helvetica,sans-Serif" font-size="10.00">FUNCTOR</text>
<polyline fill="none" stroke="#bfbfbf" points="34.5,-198.5 100.5,-198.5 "/>
<text text-anchor="middle" x="67.5" y="-186.5" font-family="Helvetica,sans-Serif" font-size="10.00"> </text>
<polyline fill="none" stroke="#bfbfbf" points="34.5,-179.5 100.5,-179.5 "/>
<text text-anchor="middle" x="67.5" y="-167.5" font-family="Helvetica,sans-Serif" font-size="10.00"> </text>
</g>
<!-- Node2&#45;&gt;Node1 -->
<g id="edge1" class="edge"><title>Node2&#45;&gt;Node1</title>
<path fill="none" stroke="#404040" d="M67.5,-160.324C67.5,-149.778 67.5,-137.246 67.5,-124.62"/>
<polygon fill="none" stroke="#404040" points="67.5001,-124.548 63.5,-118.548 67.5,-112.548 71.5,-118.548 67.5001,-124.548"/>
<text text-anchor="middle" x="90.5" y="-134" font-family="Helvetica,sans-Serif" font-size="10.00"> +fFunctor</text>
</g>
</g>
</svg>
