<?xml version="1.0" encoding="UTF-8" standalone="no"?>
<!DOCTYPE svg PUBLIC "-//W3C//DTD SVG 1.1//EN"
 "http://www.w3.org/Graphics/SVG/1.1/DTD/svg11.dtd">
<!-- Generated by graphviz version 2.38.0 (20140413.2041)
 -->
<!-- Title: hydra::detail::FlagDaugthers&lt; N &gt; Pages: 1 -->
<svg width="173pt" height="215pt"
 viewBox="0.00 0.00 173.00 215.00" xmlns="http://www.w3.org/2000/svg" xmlns:xlink="http://www.w3.org/1999/xlink">
<g id="graph0" class="graph" transform="scale(1 1) rotate(0) translate(4 211)">
<title>hydra::detail::FlagDaugthers&lt; N &gt;</title>
<!-- Node0 -->
<g id="node1" class="node"><title>Node0</title>
<polygon fill="#bfbfbf" stroke="black" points="0,-0.5 0,-90.5 165,-90.5 165,-0.5 0,-0.5"/>
<text text-anchor="middle" x="82.5" y="-78.5" font-family="Helvetica,sans-Serif" font-size="10.00">hydra::detail::FlagDaugthers&lt; N &gt;</text>
<polyline fill="none" stroke="black" points="0,-71.5 165,-71.5 "/>
<text text-anchor="start" x="8" y="-59.5" font-family="Helvetica,sans-Serif" font-size="10.00">+ fMax</text>
<text text-anchor="start" x="8" y="-48.5" font-family="Helvetica,sans-Serif" font-size="10.00">+ fVals</text>
<polyline fill="none" stroke="black" points="0,-41.5 165,-41.5 "/>
<text text-anchor="start" x="8" y="-29.5" font-family="Helvetica,sans-Serif" font-size="10.00">+ FlagDaugthers()</text>
<text text-anchor="start" x="8" y="-18.5" font-family="Helvetica,sans-Serif" font-size="10.00">+ FlagDaugthers()</text>
<text text-anchor="start" x="8" y="-7.5" font-family="Helvetica,sans-Serif" font-size="10.00">+ operator()()</text>
</g>
<!-- Node1 -->
<g id="node2" class="node"><title>Node1</title>
<polygon fill="none" stroke="#bfbfbf" points="14,-127.5 14,-206.5 151,-206.5 151,-127.5 14,-127.5"/>
<text text-anchor="start" x="22" y="-194.5" font-family="Helvetica,sans-Serif" font-size="10.00">HYDRA_EXTERNAL_NS::</text>
<text text-anchor="start" x="22" y="-183.5" font-family="Helvetica,sans-Serif" font-size="10.00">thrust::unary_function</text>
<text text-anchor="middle" x="82.5" y="-172.5" font-family="Helvetica,sans-Serif" font-size="10.00">&lt; size_t, bool &gt;</text>
<polyline fill="none" stroke="#bfbfbf" points="14,-165.5 151,-165.5 "/>
<text text-anchor="middle" x="82.5" y="-153.5" font-family="Helvetica,sans-Serif" font-size="10.00"> </text>
<polyline fill="none" stroke="#bfbfbf" points="14,-146.5 151,-146.5 "/>
<text text-anchor="middle" x="82.5" y="-134.5" font-family="Helvetica,sans-Serif" font-size="10.00"> </text>
</g>
<!-- Node1&#45;&gt;Node0 -->
<g id="edge1" class="edge"><title>Node1&#45;&gt;Node0</title>
<path fill="none" stroke="midnightblue" d="M82.5,-117.187C82.5,-108.491 82.5,-99.4758 82.5,-90.9111"/>
<polygon fill="none" stroke="midnightblue" points="79.0001,-117.202 82.5,-127.202 86.0001,-117.202 79.0001,-117.202"/>
</g>
</g>
</svg>
