<?xml version="1.0" encoding="UTF-8" standalone="no"?>
<!DOCTYPE svg PUBLIC "-//W3C//DTD SVG 1.1//EN"
 "http://www.w3.org/Graphics/SVG/1.1/DTD/svg11.dtd">
<!-- Generated by graphviz version 2.42.4 (0)
 -->
<!-- Title: hydra::detail::find_unique_type&lt; T, Types &gt; Pages: 1 -->
<svg width="187pt" height="565pt"
 viewBox="0.00 0.00 187.00 565.00" xmlns="http://www.w3.org/2000/svg" xmlns:xlink="http://www.w3.org/1999/xlink">
<g id="graph0" class="graph" transform="scale(1 1) rotate(0) translate(4 561)">
<title>hydra::detail::find_unique_type&lt; T, Types &gt;</title>
<!-- Node0 -->
<g id="node1" class="node">
<title>Node0</title>
<polygon fill="#bfbfbf" stroke="black" points="12.5,-244.5 12.5,-312.5 141.5,-312.5 141.5,-244.5 12.5,-244.5"/>
<text text-anchor="start" x="20.5" y="-300.5" font-family="Helvetica,sans-Serif" font-size="10.00">hydra::detail::find</text>
<text text-anchor="middle" x="77" y="-289.5" font-family="Helvetica,sans-Serif" font-size="10.00">_unique_type&lt; T, Types &gt;</text>
<polyline fill="none" stroke="black" points="12.5,-282.5 141.5,-282.5 "/>
<text text-anchor="middle" x="77" y="-270.5" font-family="Helvetica,sans-Serif" font-size="10.00"> </text>
<polyline fill="none" stroke="black" points="12.5,-263.5 141.5,-263.5 "/>
<text text-anchor="middle" x="77" y="-251.5" font-family="Helvetica,sans-Serif" font-size="10.00"> </text>
</g>
<!-- Node3 -->
<g id="node4" class="node">
<title>Node3</title>
<g id="a_node4"><a xlink:href="structhydra_1_1detail_1_1find__unique__type.html" target="_top" xlink:title="{hydra::detail::find\l_unique_type\&lt; Type,\l Head, Tail... \&gt;\n||}">
<polygon fill="none" stroke="black" points="23.5,-117.5 23.5,-196.5 130.5,-196.5 130.5,-117.5 23.5,-117.5"/>
<text text-anchor="start" x="31.5" y="-184.5" font-family="Helvetica,sans-Serif" font-size="10.00">hydra::detail::find</text>
<text text-anchor="start" x="31.5" y="-173.5" font-family="Helvetica,sans-Serif" font-size="10.00">_unique_type&lt; Type,</text>
<text text-anchor="middle" x="77" y="-162.5" font-family="Helvetica,sans-Serif" font-size="10.00"> Head, Tail... &gt;</text>
<polyline fill="none" stroke="black" points="23.5,-155.5 130.5,-155.5 "/>
<text text-anchor="middle" x="77" y="-143.5" font-family="Helvetica,sans-Serif" font-size="10.00"> </text>
<polyline fill="none" stroke="black" points="23.5,-136.5 130.5,-136.5 "/>
<text text-anchor="middle" x="77" y="-124.5" font-family="Helvetica,sans-Serif" font-size="10.00"> </text>
</a>
</g>
</g>
<!-- Node0&#45;&gt;Node3 -->
<g id="edge3" class="edge">
<title>Node0&#45;&gt;Node3</title>
<path fill="none" stroke="orange" d="M77,-234.18C77,-221.89 77,-208.59 77,-196.6"/>
<polygon fill="orange" stroke="orange" points="73.5,-234.21 77,-244.21 80.5,-234.21 73.5,-234.21"/>
<text text-anchor="middle" x="128" y="-218" font-family="Helvetica,sans-Serif" font-size="10.00"> &lt; Type, Head, Tail... &gt;</text>
</g>
<!-- Node1 -->
<g id="node2" class="node">
<title>Node1</title>
<g id="a_node2"><a xlink:href="namespacehydra_1_1detail.html" target="_top" xlink:title="{hydra::detail::find\l_unique_type_impl\&lt; 0,\l T, Types... \&gt;\n||}">
<polygon fill="none" stroke="black" points="19.5,-350.5 19.5,-429.5 134.5,-429.5 134.5,-350.5 19.5,-350.5"/>
<text text-anchor="start" x="27.5" y="-417.5" font-family="Helvetica,sans-Serif" font-size="10.00">hydra::detail::find</text>
<text text-anchor="start" x="27.5" y="-406.5" font-family="Helvetica,sans-Serif" font-size="10.00">_unique_type_impl&lt; 0,</text>
<text text-anchor="middle" x="77" y="-395.5" font-family="Helvetica,sans-Serif" font-size="10.00"> T, Types... &gt;</text>
<polyline fill="none" stroke="black" points="19.5,-388.5 134.5,-388.5 "/>
<text text-anchor="middle" x="77" y="-376.5" font-family="Helvetica,sans-Serif" font-size="10.00"> </text>
<polyline fill="none" stroke="black" points="19.5,-369.5 134.5,-369.5 "/>
<text text-anchor="middle" x="77" y="-357.5" font-family="Helvetica,sans-Serif" font-size="10.00"> </text>
</a>
</g>
</g>
<!-- Node1&#45;&gt;Node0 -->
<g id="edge1" class="edge">
<title>Node1&#45;&gt;Node0</title>
<path fill="none" stroke="midnightblue" d="M77,-340.38C77,-331.02 77,-321.41 77,-312.67"/>
<polygon fill="none" stroke="midnightblue" points="73.5,-340.39 77,-350.39 80.5,-340.39 73.5,-340.39"/>
</g>
<!-- Node2 -->
<g id="node3" class="node">
<title>Node2</title>
<g id="a_node3"><a xlink:href="namespacehydra_1_1detail.html#structhydra_1_1detail_1_1find__unique__type__impl" target="_top" xlink:title="{hydra::detail::find\l_unique_type_impl\&lt; I,\l T, Types \&gt;\n||}">
<polygon fill="none" stroke="black" points="20.5,-477.5 20.5,-556.5 133.5,-556.5 133.5,-477.5 20.5,-477.5"/>
<text text-anchor="start" x="28.5" y="-544.5" font-family="Helvetica,sans-Serif" font-size="10.00">hydra::detail::find</text>
<text text-anchor="start" x="28.5" y="-533.5" font-family="Helvetica,sans-Serif" font-size="10.00">_unique_type_impl&lt; I,</text>
<text text-anchor="middle" x="77" y="-522.5" font-family="Helvetica,sans-Serif" font-size="10.00"> T, Types &gt;</text>
<polyline fill="none" stroke="black" points="20.5,-515.5 133.5,-515.5 "/>
<text text-anchor="middle" x="77" y="-503.5" font-family="Helvetica,sans-Serif" font-size="10.00"> </text>
<polyline fill="none" stroke="black" points="20.5,-496.5 133.5,-496.5 "/>
<text text-anchor="middle" x="77" y="-484.5" font-family="Helvetica,sans-Serif" font-size="10.00"> </text>
</a>
</g>
</g>
<!-- Node2&#45;&gt;Node1 -->
<g id="edge2" class="edge">
<title>Node2&#45;&gt;Node1</title>
<path fill="none" stroke="orange" d="M77,-467.22C77,-454.74 77,-441.5 77,-429.61"/>
<polygon fill="orange" stroke="orange" points="73.5,-467.48 77,-477.48 80.5,-467.48 73.5,-467.48"/>
<text text-anchor="middle" x="116.5" y="-451" font-family="Helvetica,sans-Serif" font-size="10.00"> &lt; 0, T, Types... &gt;</text>
</g>
<!-- Node4 -->
<g id="node5" class="node">
<title>Node4</title>
<g id="a_node5"><a xlink:href="structhydra_1_1detail_1_1index__in__tuple_3_01Type_00_01hydra__thrust_1_1tuple_3_01Head_00_01Tail_8_8_8_01_4_01_4.html" target="_top" xlink:title="{hydra::detail::index\l_in_tuple\&lt; Type, hydra\l_thrust::tuple\&lt; Head, Tail... \&gt; \&gt;\n||}">
<polygon fill="none" stroke="black" points="0,-0.5 0,-79.5 154,-79.5 154,-0.5 0,-0.5"/>
<text text-anchor="start" x="8" y="-67.5" font-family="Helvetica,sans-Serif" font-size="10.00">hydra::detail::index</text>
<text text-anchor="start" x="8" y="-56.5" font-family="Helvetica,sans-Serif" font-size="10.00">_in_tuple&lt; Type, hydra</text>
<text text-anchor="middle" x="77" y="-45.5" font-family="Helvetica,sans-Serif" font-size="10.00">_thrust::tuple&lt; Head, Tail... &gt; &gt;</text>
<polyline fill="none" stroke="black" points="0,-38.5 154,-38.5 "/>
<text text-anchor="middle" x="77" y="-26.5" font-family="Helvetica,sans-Serif" font-size="10.00"> </text>
<polyline fill="none" stroke="black" points="0,-19.5 154,-19.5 "/>
<text text-anchor="middle" x="77" y="-7.5" font-family="Helvetica,sans-Serif" font-size="10.00"> </text>
</a>
</g>
</g>
<!-- Node3&#45;&gt;Node4 -->
<g id="edge4" class="edge">
<title>Node3&#45;&gt;Node4</title>
<path fill="none" stroke="midnightblue" d="M77,-107.2C77,-98.02 77,-88.53 77,-79.71"/>
<polygon fill="none" stroke="midnightblue" points="73.5,-107.39 77,-117.39 80.5,-107.39 73.5,-107.39"/>
</g>
</g>
</svg>
