<?xml version="1.0" encoding="UTF-8" standalone="no"?>
<!DOCTYPE svg PUBLIC "-//W3C//DTD SVG 1.1//EN"
 "http://www.w3.org/Graphics/SVG/1.1/DTD/svg11.dtd">
<!-- Generated by graphviz version 2.38.0 (20140413.2041)
 -->
<!-- Title: hydra::Divide::operator= Pages: 1 -->
<svg width="300pt" height="104pt"
 viewBox="0.00 0.00 300.00 104.00" xmlns="http://www.w3.org/2000/svg" xmlns:xlink="http://www.w3.org/1999/xlink">
<g id="graph0" class="graph" transform="scale(1 1) rotate(0) translate(4 100)">
<title>hydra::Divide::operator=</title>
<!-- Node21 -->
<g id="node1" class="node"><title>Node21</title>
<polygon fill="#bfbfbf" stroke="black" points="0,-38.5 0,-57.5 122,-57.5 122,-38.5 0,-38.5"/>
<text text-anchor="middle" x="61" y="-45.5" font-family="Helvetica,sans-Serif" font-size="10.00">hydra::Divide::operator=</text>
</g>
<!-- Node22 -->
<g id="node2" class="node"><title>Node22</title>
<g id="a_node2"><a xlink:href="structhydra_1_1Divide.html#a85b235f970b74d11490dd343d1ac3b09" target="_top" xlink:title="hydra::Divide::GetFunctors">
<polygon fill="none" stroke="black" points="158,-76.5 158,-95.5 292,-95.5 292,-76.5 158,-76.5"/>
<text text-anchor="middle" x="225" y="-83.5" font-family="Helvetica,sans-Serif" font-size="10.00">hydra::Divide::GetFunctors</text>
</a>
</g>
</g>
<!-- Node21&#45;&gt;Node22 -->
<g id="edge1" class="edge"><title>Node21&#45;&gt;Node22</title>
<path fill="none" stroke="midnightblue" d="M102.879,-57.589C124.353,-62.6261 150.86,-68.8438 173.597,-74.1771"/>
<polygon fill="midnightblue" stroke="midnightblue" points="172.879,-77.6037 183.415,-76.4799 174.478,-70.7887 172.879,-77.6037"/>
</g>
<!-- Node23 -->
<g id="node3" class="node"><title>Node23</title>
<g id="a_node3"><a xlink:href="structhydra_1_1Divide.html#aa4341ed4cdd1776f203901b2dd51b795" target="_top" xlink:title="hydra::Divide::GetIndex">
<polygon fill="none" stroke="black" points="165,-38.5 165,-57.5 285,-57.5 285,-38.5 165,-38.5"/>
<text text-anchor="middle" x="225" y="-45.5" font-family="Helvetica,sans-Serif" font-size="10.00">hydra::Divide::GetIndex</text>
</a>
</g>
</g>
<!-- Node21&#45;&gt;Node23 -->
<g id="edge2" class="edge"><title>Node21&#45;&gt;Node23</title>
<path fill="none" stroke="midnightblue" d="M122.323,-48C132.889,-48 143.959,-48 154.745,-48"/>
<polygon fill="midnightblue" stroke="midnightblue" points="154.974,-51.5001 164.974,-48 154.974,-44.5001 154.974,-51.5001"/>
</g>
<!-- Node24 -->
<g id="node4" class="node"><title>Node24</title>
<g id="a_node4"><a xlink:href="structhydra_1_1Divide.html#afcafff566bd379fa15f12d3c242c967c" target="_top" xlink:title="hydra::Divide::IsCached">
<polygon fill="none" stroke="black" points="164,-0.5 164,-19.5 286,-19.5 286,-0.5 164,-0.5"/>
<text text-anchor="middle" x="225" y="-7.5" font-family="Helvetica,sans-Serif" font-size="10.00">hydra::Divide::IsCached</text>
</a>
</g>
</g>
<!-- Node21&#45;&gt;Node24 -->
<g id="edge3" class="edge"><title>Node21&#45;&gt;Node24</title>
<path fill="none" stroke="midnightblue" d="M102.879,-38.411C124.353,-33.3739 150.86,-27.1562 173.597,-21.8229"/>
<polygon fill="midnightblue" stroke="midnightblue" points="174.478,-25.2113 183.415,-19.5201 172.879,-18.3963 174.478,-25.2113"/>
</g>
</g>
</svg>
