<?xml version="1.0" encoding="UTF-8" standalone="no"?>
<!DOCTYPE svg PUBLIC "-//W3C//DTD SVG 1.1//EN"
 "http://www.w3.org/Graphics/SVG/1.1/DTD/svg11.dtd">
<!-- Generated by graphviz version 5.0.0 (0)
 -->
<!-- Title: hydra::detail::is_tuple_of_function_arguments&lt; hydra::thrust::detail::tuple_of_iterator_references&lt; hydra::thrust::device_reference&lt; ArgTypes &gt;... &gt; &gt; Pages: 1 -->
<!--zoomable 726 -->
<svg id="main" version="1.1" xmlns="http://www.w3.org/2000/svg" xmlns:xlink="http://www.w3.org/1999/xlink" xml:space="preserve" onload="init(evt)">
<style type="text/css"><![CDATA[
.edge:hover path { stroke: red; }
.edge:hover polygon { stroke: red; fill: red; }
]]></style>
<script type="text/javascript"><![CDATA[
var edges = document.getElementsByTagName('g');
if (edges && edges.length) {
  for (var i=0;i<edges.length;i++) {
    if (edges[i].id.substr(0,4)=='edge') {
      edges[i].setAttribute('class','edge');
    }
  }
}
]]></script>
        <defs>
                <circle id="rim" cx="0" cy="0" r="7"/>
                <circle id="rim2" cx="0" cy="0" r="3.5"/>
                <g id="zoomPlus">
                        <use xlink:href="#rim" fill="#404040">
                                <set attributeName="fill" to="#808080" begin="zoomplus.mouseover" end="zoomplus.mouseout"/>
                        </use>
                        <path d="M-4,0h8M0,-4v8" fill="none" stroke="white" stroke-width="1.5" pointer-events="none"/>
                </g>
                <g id="zoomMin">
                        <use xlink:href="#rim" fill="#404040">
                                <set attributeName="fill" to="#808080" begin="zoomminus.mouseover" end="zoomminus.mouseout"/>
                        </use>
                        <path d="M-4,0h8" fill="none" stroke="white" stroke-width="1.5" pointer-events="none"/>
                </g>
                <g id="dirArrow">
                        <path fill="none" stroke="white" stroke-width="1.5" d="M0,-3.0v7 M-2.5,-0.5L0,-3.0L2.5,-0.5"/>
                </g>
               <g id="resetDef">
                       <use xlink:href="#rim2" fill="#404040">
                               <set attributeName="fill" to="#808080" begin="reset.mouseover" end="reset.mouseout"/>
                       </use>
               </g>
        </defs>

<script type="text/javascript">
var viewWidth = 248;
var viewHeight = 726;
var sectionId = 'dynsection-0';
</script>
<script xlink:href="svgpan.js"/>
<svg id="graph" class="graph">
<g id="viewport">
<title>hydra::detail::is_tuple_of_function_arguments&lt; hydra::thrust::detail::tuple_of_iterator_references&lt; hydra::thrust::device_reference&lt; ArgTypes &gt;... &gt; &gt;</title>
<!-- Node0 -->
<g id="node1" class="node">
<title>Node0</title>
<polygon fill="#bfbfbf" stroke="black" points="0,-0.5 0,-112.5 161,-112.5 161,-0.5 0,-0.5"/>
<text text-anchor="start" x="8" y="-100.5" font-family="Helvetica,sans-Serif" font-size="10.00">hydra::detail::is_tuple</text>
<text text-anchor="start" x="8" y="-89.5" font-family="Helvetica,sans-Serif" font-size="10.00">_of_function_arguments</text>
<text text-anchor="start" x="8" y="-78.5" font-family="Helvetica,sans-Serif" font-size="10.00">&lt; hydra::thrust::detail</text>
<text text-anchor="start" x="8" y="-67.5" font-family="Helvetica,sans-Serif" font-size="10.00">::tuple_of_iterator_references</text>
<text text-anchor="start" x="8" y="-56.5" font-family="Helvetica,sans-Serif" font-size="10.00">&lt; hydra::thrust::device_reference</text>
<text text-anchor="middle" x="80.5" y="-45.5" font-family="Helvetica,sans-Serif" font-size="10.00">&lt; ArgTypes &gt;... &gt; &gt;</text>
<polyline fill="none" stroke="black" points="0,-38.5 161,-38.5 "/>
<text text-anchor="middle" x="80.5" y="-26.5" font-family="Helvetica,sans-Serif" font-size="10.00"> </text>
<polyline fill="none" stroke="black" points="0,-19.5 161,-19.5 "/>
<text text-anchor="middle" x="80.5" y="-7.5" font-family="Helvetica,sans-Serif" font-size="10.00"> </text>
</g>
<!-- Node1 -->
<g id="node2" class="node">
<title>Node1</title>
<g id="a_node2"><a xlink:href="structhydra_1_1detail_1_1is__function__argument__pack.html" target="_top" xlink:title="{hydra::detail::is_function\l_argument_pack\&lt; std::decay\l\&lt; ArgTypes \&gt;::type... \&gt;\n||}">
<polygon fill="none" stroke="black" points="9,-150.5 9,-229.5 152,-229.5 152,-150.5 9,-150.5"/>
<text text-anchor="start" x="17" y="-217.5" font-family="Helvetica,sans-Serif" font-size="10.00">hydra::detail::is_function</text>
<text text-anchor="start" x="17" y="-206.5" font-family="Helvetica,sans-Serif" font-size="10.00">_argument_pack&lt; std::decay</text>
<text text-anchor="middle" x="80.5" y="-195.5" font-family="Helvetica,sans-Serif" font-size="10.00">&lt; ArgTypes &gt;::type... &gt;</text>
<polyline fill="none" stroke="black" points="9,-188.5 152,-188.5 "/>
<text text-anchor="middle" x="80.5" y="-176.5" font-family="Helvetica,sans-Serif" font-size="10.00"> </text>
<polyline fill="none" stroke="black" points="9,-169.5 152,-169.5 "/>
<text text-anchor="middle" x="80.5" y="-157.5" font-family="Helvetica,sans-Serif" font-size="10.00"> </text>
</a>
</g>
</g>
<!-- Node1&#45;&gt;Node0 -->
<g id="edge1" class="edge">
<title>Node1&#45;&gt;Node0</title>
<path fill="none" stroke="midnightblue" d="M80.5,-139.99C80.5,-131.04 80.5,-121.64 80.5,-112.53"/>
<polygon fill="none" stroke="midnightblue" points="77,-140.26 80.5,-150.26 84,-140.26 77,-140.26"/>
</g>
<!-- Node2 -->
<g id="node3" class="node">
<title>Node2</title>
<g id="a_node3"><a xlink:href="structhydra_1_1detail_1_1all__true.html" target="_top" xlink:title="{hydra::detail::all\l_true\&lt; is_function_argument\l\&lt; ArgTypes \&gt;::value... \&gt;\n||}">
<polygon fill="none" stroke="black" points="6.5,-394.5 6.5,-473.5 146.5,-473.5 146.5,-394.5 6.5,-394.5"/>
<text text-anchor="start" x="14.5" y="-461.5" font-family="Helvetica,sans-Serif" font-size="10.00">hydra::detail::all</text>
<text text-anchor="start" x="14.5" y="-450.5" font-family="Helvetica,sans-Serif" font-size="10.00">_true&lt; is_function_argument</text>
<text text-anchor="middle" x="76.5" y="-439.5" font-family="Helvetica,sans-Serif" font-size="10.00">&lt; ArgTypes &gt;::value... &gt;</text>
<polyline fill="none" stroke="black" points="6.5,-432.5 146.5,-432.5 "/>
<text text-anchor="middle" x="76.5" y="-420.5" font-family="Helvetica,sans-Serif" font-size="10.00"> </text>
<polyline fill="none" stroke="black" points="6.5,-413.5 146.5,-413.5 "/>
<text text-anchor="middle" x="76.5" y="-401.5" font-family="Helvetica,sans-Serif" font-size="10.00"> </text>
</a>
</g>
</g>
<!-- Node2&#45;&gt;Node1 -->
<g id="edge2" class="edge">
<title>Node2&#45;&gt;Node1</title>
<path fill="none" stroke="midnightblue" d="M77.31,-384.17C78.06,-338.71 79.16,-271.83 79.86,-229.88"/>
<polygon fill="none" stroke="midnightblue" points="73.8,-384.33 77.14,-394.39 80.8,-384.45 73.8,-384.33"/>
</g>
<!-- Node5 -->
<g id="node6" class="node">
<title>Node5</title>
<g id="a_node6"><a xlink:href="structhydra_1_1detail_1_1is__function__argument__pack.html" target="_top" xlink:title="{hydra::detail::is_function\l_argument_pack\&lt; ArgTypes \&gt;\n||}">
<polygon fill="none" stroke="black" points="93,-288.5 93,-356.5 240,-356.5 240,-288.5 93,-288.5"/>
<text text-anchor="start" x="101" y="-344.5" font-family="Helvetica,sans-Serif" font-size="10.00">hydra::detail::is_function</text>
<text text-anchor="middle" x="166.5" y="-333.5" font-family="Helvetica,sans-Serif" font-size="10.00">_argument_pack&lt; ArgTypes &gt;</text>
<polyline fill="none" stroke="black" points="93,-326.5 240,-326.5 "/>
<text text-anchor="middle" x="166.5" y="-314.5" font-family="Helvetica,sans-Serif" font-size="10.00"> </text>
<polyline fill="none" stroke="black" points="93,-307.5 240,-307.5 "/>
<text text-anchor="middle" x="166.5" y="-295.5" font-family="Helvetica,sans-Serif" font-size="10.00"> </text>
</a>
</g>
</g>
<!-- Node2&#45;&gt;Node5 -->
<g id="edge7" class="edge">
<title>Node2&#45;&gt;Node5</title>
<path fill="none" stroke="midnightblue" d="M114.75,-386.47C122.98,-376.45 131.52,-366.06 139.23,-356.67"/>
<polygon fill="none" stroke="midnightblue" points="111.88,-384.45 108.23,-394.39 117.28,-388.89 111.88,-384.45"/>
</g>
<!-- Node3 -->
<g id="node4" class="node">
<title>Node3</title>
<polygon fill="none" stroke="#bfbfbf" points="4.5,-638.5 4.5,-717.5 140.5,-717.5 140.5,-638.5 4.5,-638.5"/>
<text text-anchor="start" x="12.5" y="-705.5" font-family="Helvetica,sans-Serif" font-size="10.00">std::is_same&lt; bool</text>
<text text-anchor="start" x="12.5" y="-694.5" font-family="Helvetica,sans-Serif" font-size="10.00">_pack&lt; bs..., true &gt;</text>
<text text-anchor="middle" x="72.5" y="-683.5" font-family="Helvetica,sans-Serif" font-size="10.00">, bool_pack&lt; true, bs... &gt; &gt;</text>
<polyline fill="none" stroke="#bfbfbf" points="4.5,-676.5 140.5,-676.5 "/>
<text text-anchor="middle" x="72.5" y="-664.5" font-family="Helvetica,sans-Serif" font-size="10.00"> </text>
<polyline fill="none" stroke="#bfbfbf" points="4.5,-657.5 140.5,-657.5 "/>
<text text-anchor="middle" x="72.5" y="-645.5" font-family="Helvetica,sans-Serif" font-size="10.00"> </text>
</g>
<!-- Node3&#45;&gt;Node2 -->
<g id="edge3" class="edge">
<title>Node3&#45;&gt;Node2</title>
<path fill="none" stroke="midnightblue" d="M73.31,-628.17C74.06,-582.71 75.16,-515.83 75.86,-473.88"/>
<polygon fill="none" stroke="midnightblue" points="69.8,-628.33 73.14,-638.39 76.8,-628.45 69.8,-628.33"/>
</g>
<!-- Node4 -->
<g id="node5" class="node">
<title>Node4</title>
<g id="a_node5"><a xlink:href="structhydra_1_1detail_1_1all__true.html" target="_top" xlink:title="{hydra::detail::all\l_true\&lt; bs \&gt;\n||}">
<polygon fill="none" stroke="black" points="88.5,-532.5 88.5,-600.5 174.5,-600.5 174.5,-532.5 88.5,-532.5"/>
<text text-anchor="start" x="96.5" y="-588.5" font-family="Helvetica,sans-Serif" font-size="10.00">hydra::detail::all</text>
<text text-anchor="middle" x="131.5" y="-577.5" font-family="Helvetica,sans-Serif" font-size="10.00">_true&lt; bs &gt;</text>
<polyline fill="none" stroke="black" points="88.5,-570.5 174.5,-570.5 "/>
<text text-anchor="middle" x="131.5" y="-558.5" font-family="Helvetica,sans-Serif" font-size="10.00"> </text>
<polyline fill="none" stroke="black" points="88.5,-551.5 174.5,-551.5 "/>
<text text-anchor="middle" x="131.5" y="-539.5" font-family="Helvetica,sans-Serif" font-size="10.00"> </text>
</a>
</g>
</g>
<!-- Node3&#45;&gt;Node4 -->
<g id="edge5" class="edge">
<title>Node3&#45;&gt;Node4</title>
<path fill="none" stroke="midnightblue" d="M98.05,-629.57C103.3,-619.84 108.72,-609.78 113.63,-600.67"/>
<polygon fill="none" stroke="midnightblue" points="94.96,-627.93 93.3,-638.39 101.13,-631.25 94.96,-627.93"/>
</g>
<!-- Node4&#45;&gt;Node2 -->
<g id="edge4" class="edge">
<title>Node4&#45;&gt;Node2</title>
<path fill="none" stroke="orange" d="M113.46,-522.71C106.82,-506.93 99.33,-489.16 92.84,-473.77"/>
<polygon fill="orange" stroke="orange" points="110.37,-524.38 117.48,-532.23 116.82,-521.66 110.37,-524.38"/>
<text text-anchor="start" x="108.5" y="-506" font-family="Helvetica,sans-Serif" font-size="10.00"> &lt; is_function_argument</text>
<text text-anchor="middle" x="161.5" y="-495" font-family="Helvetica,sans-Serif" font-size="10.00">&lt; ArgTypes &gt;::value... &gt;</text>
</g>
<!-- Node5&#45;&gt;Node1 -->
<g id="edge6" class="edge">
<title>Node5&#45;&gt;Node1</title>
<path fill="none" stroke="orange" d="M138.89,-279.6C128.35,-263.6 116.39,-245.45 106.05,-229.77"/>
<polygon fill="orange" stroke="orange" points="136.15,-281.81 144.58,-288.23 142,-277.96 136.15,-281.81"/>
<text text-anchor="start" x="130.5" y="-262" font-family="Helvetica,sans-Serif" font-size="10.00"> &lt; std::decay&lt; ArgTypes</text>
<text text-anchor="middle" x="184.5" y="-251" font-family="Helvetica,sans-Serif" font-size="10.00"> &gt;::type... &gt;</text>
</g>
</g>
</svg>
        <g id="navigator" transform="translate(0 0)" fill="#404254">
                <rect fill="#f2f5e9" fill-opacity="0.5" stroke="#606060" stroke-width=".5" x="0" y="0" width="60" height="60"/>
                <use id="zoomplus" xlink:href="#zoomPlus" x="17" y="9" onmousedown="handleZoom(evt,'in')"/>
                <use id="zoomminus" xlink:href="#zoomMin" x="42" y="9" onmousedown="handleZoom(evt,'out')"/>
                <use id="reset" xlink:href="#resetDef" x="30" y="36" onmousedown="handleReset()"/>
                <g id="arrowUp" xlink:href="#dirArrow" transform="translate(30 24)" onmousedown="handlePan(0,-1)">
                  <use xlink:href="#rim" fill="#404040">
                        <set attributeName="fill" to="#808080" begin="arrowUp.mouseover" end="arrowUp.mouseout"/>
                  </use>
                  <path fill="none" stroke="white" stroke-width="1.5" d="M0,-3.0v7 M-2.5,-0.5L0,-3.0L2.5,-0.5"/>
                </g>
                <g id="arrowRight" xlink:href="#dirArrow" transform="rotate(90) translate(36 -43)" onmousedown="handlePan(1,0)">
                  <use xlink:href="#rim" fill="#404040">
                        <set attributeName="fill" to="#808080" begin="arrowRight.mouseover" end="arrowRight.mouseout"/>
                  </use>
                  <path fill="none" stroke="white" stroke-width="1.5" d="M0,-3.0v7 M-2.5,-0.5L0,-3.0L2.5,-0.5"/>
                </g>
                <g id="arrowDown" xlink:href="#dirArrow" transform="rotate(180) translate(-30 -48)" onmousedown="handlePan(0,1)">
                  <use xlink:href="#rim" fill="#404040">
                        <set attributeName="fill" to="#808080" begin="arrowDown.mouseover" end="arrowDown.mouseout"/>
                  </use>
                  <path fill="none" stroke="white" stroke-width="1.5" d="M0,-3.0v7 M-2.5,-0.5L0,-3.0L2.5,-0.5"/>
                </g>
                <g id="arrowLeft" xlink:href="#dirArrow" transform="rotate(270) translate(-36 17)" onmousedown="handlePan(-1,0)">
                  <use xlink:href="#rim" fill="#404040">
                        <set attributeName="fill" to="#808080" begin="arrowLeft.mouseover" end="arrowLeft.mouseout"/>
                  </use>
                  <path fill="none" stroke="white" stroke-width="1.5" d="M0,-3.0v7 M-2.5,-0.5L0,-3.0L2.5,-0.5"/>
                </g>
        </g>
        <svg viewBox="0 0 15 15" width="100%" height="30px" preserveAspectRatio="xMaxYMin meet">
         <g id="arrow_out" transform="scale(0.3 0.3)">
          <a xlink:href="structhydra_1_1detail_1_1is__tuple__of__function__arguments_3_01hydra_1_1thrust_1_1detail_1_1tupef55ec437367d8568bb2f12630b44573_org.svg" target="_base">
           <rect id="button" ry="5" rx="5" y="6" x="6" height="38" width="38"
                fill="#f2f5e9" fill-opacity="0.5" stroke="#606060" stroke-width="1.0"/>
           <path id="arrow"
             d="M 11.500037,31.436501 C 11.940474,20.09759 22.043105,11.32322 32.158766,21.979434 L 37.068811,17.246167 C 37.068811,17.246167 37.088388,32 37.088388,32 L 22.160133,31.978069 C 22.160133,31.978069 26.997745,27.140456 26.997745,27.140456 C 18.528582,18.264221 13.291696,25.230495 11.500037,31.436501 z"
             style="fill:#404040;"/>
          </a>
         </g>
        </svg>
</svg>
