<?xml version="1.0" encoding="UTF-8" standalone="no"?>
<!DOCTYPE svg PUBLIC "-//W3C//DTD SVG 1.1//EN"
 "http://www.w3.org/Graphics/SVG/1.1/DTD/svg11.dtd">
<!-- Generated by graphviz version 5.0.0 (0)
 -->
<!-- Title: parity&lt; L, true &gt; Pages: 1 -->
<svg width="118pt" height="171pt"
 viewBox="0.00 0.00 118.00 171.00" xmlns="http://www.w3.org/2000/svg" xmlns:xlink="http://www.w3.org/1999/xlink">
<g id="graph0" class="graph" transform="scale(1 1) rotate(0) translate(4 167)">
<title>parity&lt; L, true &gt;</title>
<!-- Node2 -->
<g id="node1" class="node">
<title>Node2</title>
<polygon fill="#bfbfbf" stroke="black" points="12,-0.5 12,-57.5 98,-57.5 98,-0.5 12,-0.5"/>
<text text-anchor="middle" x="55" y="-45.5" font-family="Helvetica,sans-Serif" font-size="10.00">parity&lt; L, true &gt;</text>
<polyline fill="none" stroke="black" points="12,-38.5 98,-38.5 "/>
<text text-anchor="middle" x="55" y="-26.5" font-family="Helvetica,sans-Serif" font-size="10.00"> </text>
<polyline fill="none" stroke="black" points="12,-19.5 98,-19.5 "/>
<text text-anchor="middle" x="55" y="-7.5" font-family="Helvetica,sans-Serif" font-size="10.00"> </text>
</g>
<!-- Node3 -->
<g id="node2" class="node">
<title>Node3</title>
<polygon fill="none" stroke="#bfbfbf" points="0,-94.5 0,-162.5 110,-162.5 110,-94.5 0,-94.5"/>
<text text-anchor="start" x="8" y="-150.5" font-family="Helvetica,sans-Serif" font-size="10.00">std::integral_constant</text>
<text text-anchor="middle" x="55" y="-139.5" font-family="Helvetica,sans-Serif" font-size="10.00">&lt; int,&#45;1 &gt;</text>
<polyline fill="none" stroke="#bfbfbf" points="0,-132.5 110,-132.5 "/>
<text text-anchor="middle" x="55" y="-120.5" font-family="Helvetica,sans-Serif" font-size="10.00"> </text>
<polyline fill="none" stroke="#bfbfbf" points="0,-113.5 110,-113.5 "/>
<text text-anchor="middle" x="55" y="-101.5" font-family="Helvetica,sans-Serif" font-size="10.00"> </text>
</g>
<!-- Node3&#45;&gt;Node2 -->
<g id="edge1" class="edge">
<title>Node3&#45;&gt;Node2</title>
<path fill="none" stroke="midnightblue" d="M48.29,-84.45C48.16,-75.4 48.34,-66.09 48.84,-57.78"/>
<polygon fill="none" stroke="midnightblue" points="44.79,-84.59 48.57,-94.49 51.79,-84.4 44.79,-84.59"/>
</g>
<!-- Node3&#45;&gt;Node2 -->
<g id="edge2" class="edge">
<title>Node3&#45;&gt;Node2</title>
<path fill="none" stroke="midnightblue" d="M61.71,-84.45C61.84,-75.4 61.66,-66.09 61.16,-57.78"/>
<polygon fill="none" stroke="midnightblue" points="58.21,-84.4 61.43,-94.49 65.21,-84.59 58.21,-84.4"/>
</g>
</g>
</svg>
