<?xml version="1.0" encoding="UTF-8" standalone="no"?>
<!DOCTYPE svg PUBLIC "-//W3C//DTD SVG 1.1//EN"
 "http://www.w3.org/Graphics/SVG/1.1/DTD/svg11.dtd">
<!-- Generated by graphviz version 5.0.0 (0)
 -->
<!-- Title: hydra::detail::functor_traits&lt; T &gt; Pages: 1 -->
<svg width="183pt" height="310pt"
 viewBox="0.00 0.00 183.00 310.00" xmlns="http://www.w3.org/2000/svg" xmlns:xlink="http://www.w3.org/1999/xlink">
<g id="graph0" class="graph" transform="scale(1 1) rotate(0) translate(4 306)">
<title>hydra::detail::functor_traits&lt; T &gt;</title>
<!-- Node33 -->
<g id="node1" class="node">
<title>Node33</title>
<polygon fill="#bfbfbf" stroke="black" points="2,-233.5 2,-301.5 108,-301.5 108,-233.5 2,-233.5"/>
<text text-anchor="start" x="10" y="-289.5" font-family="Helvetica,sans-Serif" font-size="10.00">hydra::detail::functor</text>
<text text-anchor="middle" x="55" y="-278.5" font-family="Helvetica,sans-Serif" font-size="10.00">_traits&lt; T &gt;</text>
<polyline fill="none" stroke="black" points="2,-271.5 108,-271.5 "/>
<text text-anchor="middle" x="55" y="-259.5" font-family="Helvetica,sans-Serif" font-size="10.00"> </text>
<polyline fill="none" stroke="black" points="2,-252.5 108,-252.5 "/>
<text text-anchor="middle" x="55" y="-240.5" font-family="Helvetica,sans-Serif" font-size="10.00"> </text>
</g>
<!-- Node34 -->
<g id="node2" class="node">
<title>Node34</title>
<g id="a_node2"><a xlink:href="namespacehydra_1_1detail.html" target="_top" xlink:title="{hydra::detail::functor\l_traits\&lt; decltype(&amp;T::\loperator())\&gt;\n||}">
<polygon fill="none" stroke="black" points="0,-106.5 0,-185.5 110,-185.5 110,-106.5 0,-106.5"/>
<text text-anchor="start" x="8" y="-173.5" font-family="Helvetica,sans-Serif" font-size="10.00">hydra::detail::functor</text>
<text text-anchor="start" x="8" y="-162.5" font-family="Helvetica,sans-Serif" font-size="10.00">_traits&lt; decltype(&amp;T::</text>
<text text-anchor="middle" x="55" y="-151.5" font-family="Helvetica,sans-Serif" font-size="10.00">operator())&gt;</text>
<polyline fill="none" stroke="black" points="0,-144.5 110,-144.5 "/>
<text text-anchor="middle" x="55" y="-132.5" font-family="Helvetica,sans-Serif" font-size="10.00"> </text>
<polyline fill="none" stroke="black" points="0,-125.5 110,-125.5 "/>
<text text-anchor="middle" x="55" y="-113.5" font-family="Helvetica,sans-Serif" font-size="10.00"> </text>
</a>
</g>
</g>
<!-- Node33&#45;&gt;Node34 -->
<g id="edge1" class="edge">
<title>Node33&#45;&gt;Node34</title>
<path fill="none" stroke="orange" d="M55,-223.18C55,-210.89 55,-197.59 55,-185.6"/>
<polygon fill="orange" stroke="orange" points="51.5,-223.21 55,-233.21 58.5,-223.21 51.5,-223.21"/>
<text text-anchor="middle" x="115" y="-207" font-family="Helvetica,sans-Serif" font-size="10.00"> &lt; decltype(&amp;T::operator())&gt;</text>
</g>
<!-- Node35 -->
<g id="node3" class="node">
<title>Node35</title>
<g id="a_node3"><a xlink:href="structhydra_1_1detail_1_1lambda__traits.html" target="_top" xlink:title="{hydra::detail::lambda\l_traits\&lt; T \&gt;\n||}">
<polygon fill="none" stroke="black" points="1.5,-0.5 1.5,-68.5 108.5,-68.5 108.5,-0.5 1.5,-0.5"/>
<text text-anchor="start" x="9.5" y="-56.5" font-family="Helvetica,sans-Serif" font-size="10.00">hydra::detail::lambda</text>
<text text-anchor="middle" x="55" y="-45.5" font-family="Helvetica,sans-Serif" font-size="10.00">_traits&lt; T &gt;</text>
<polyline fill="none" stroke="black" points="1.5,-38.5 108.5,-38.5 "/>
<text text-anchor="middle" x="55" y="-26.5" font-family="Helvetica,sans-Serif" font-size="10.00"> </text>
<polyline fill="none" stroke="black" points="1.5,-19.5 108.5,-19.5 "/>
<text text-anchor="middle" x="55" y="-7.5" font-family="Helvetica,sans-Serif" font-size="10.00"> </text>
</a>
</g>
</g>
<!-- Node34&#45;&gt;Node35 -->
<g id="edge2" class="edge">
<title>Node34&#45;&gt;Node35</title>
<path fill="none" stroke="midnightblue" d="M55,-96.38C55,-87.02 55,-77.41 55,-68.67"/>
<polygon fill="none" stroke="midnightblue" points="51.5,-96.39 55,-106.39 58.5,-96.39 51.5,-96.39"/>
</g>
</g>
</svg>
