<?xml version="1.0" encoding="UTF-8" standalone="no"?>
<!DOCTYPE svg PUBLIC "-//W3C//DTD SVG 1.1//EN"
 "http://www.w3.org/Graphics/SVG/1.1/DTD/svg11.dtd">
<!-- Generated by graphviz version 5.0.0 (0)
 -->
<!-- Title: hydra::detail::stuple_impl::stripped_tuple_impl&lt; T, U &gt; Pages: 1 -->
<svg width="339pt" height="464pt"
 viewBox="0.00 0.00 339.00 464.00" xmlns="http://www.w3.org/2000/svg" xmlns:xlink="http://www.w3.org/1999/xlink">
<g id="graph0" class="graph" transform="scale(1 1) rotate(0) translate(4 460)">
<title>hydra::detail::stuple_impl::stripped_tuple_impl&lt; T, U &gt;</title>
<!-- Node0 -->
<g id="node1" class="node">
<title>Node0</title>
<polygon fill="#bfbfbf" stroke="black" points="102.5,-376.5 102.5,-455.5 209.5,-455.5 209.5,-376.5 102.5,-376.5"/>
<text text-anchor="start" x="110.5" y="-443.5" font-family="Helvetica,sans-Serif" font-size="10.00">hydra::detail::stuple</text>
<text text-anchor="start" x="110.5" y="-432.5" font-family="Helvetica,sans-Serif" font-size="10.00">_impl::stripped_tuple</text>
<text text-anchor="middle" x="156" y="-421.5" font-family="Helvetica,sans-Serif" font-size="10.00">_impl&lt; T, U &gt;</text>
<polyline fill="none" stroke="black" points="102.5,-414.5 209.5,-414.5 "/>
<text text-anchor="middle" x="156" y="-402.5" font-family="Helvetica,sans-Serif" font-size="10.00"> </text>
<polyline fill="none" stroke="black" points="102.5,-395.5 209.5,-395.5 "/>
<text text-anchor="middle" x="156" y="-383.5" font-family="Helvetica,sans-Serif" font-size="10.00"> </text>
</g>
<!-- Node1 -->
<g id="node2" class="node">
<title>Node1</title>
<g id="a_node2"><a xlink:href="namespacehydra_1_1detail_1_1stuple__impl.html" target="_top" xlink:title="{hydra::detail::stuple\l_impl::stripped_tuple\l_impl\&lt; std::conditional\l\&lt;(detail::is_intuple\&lt; Head,\l Tuple \&gt;::value), Tuple, detail\l::merged_tuple\&lt; Tuple, hydra::\ltuple\&lt; Head \&gt; \&gt;::type \&gt;::type,\l hydra::tuple\&lt; Tail... \&gt; \&gt;\n||}">
<polygon fill="none" stroke="black" points="0,-128.5 0,-262.5 150,-262.5 150,-128.5 0,-128.5"/>
<text text-anchor="start" x="8" y="-250.5" font-family="Helvetica,sans-Serif" font-size="10.00">hydra::detail::stuple</text>
<text text-anchor="start" x="8" y="-239.5" font-family="Helvetica,sans-Serif" font-size="10.00">_impl::stripped_tuple</text>
<text text-anchor="start" x="8" y="-228.5" font-family="Helvetica,sans-Serif" font-size="10.00">_impl&lt; std::conditional</text>
<text text-anchor="start" x="8" y="-217.5" font-family="Helvetica,sans-Serif" font-size="10.00">&lt;(detail::is_intuple&lt; Head,</text>
<text text-anchor="start" x="8" y="-206.5" font-family="Helvetica,sans-Serif" font-size="10.00"> Tuple &gt;::value), Tuple, detail</text>
<text text-anchor="start" x="8" y="-195.5" font-family="Helvetica,sans-Serif" font-size="10.00">::merged_tuple&lt; Tuple, hydra::</text>
<text text-anchor="start" x="8" y="-184.5" font-family="Helvetica,sans-Serif" font-size="10.00">tuple&lt; Head &gt; &gt;::type &gt;::type,</text>
<text text-anchor="middle" x="75" y="-173.5" font-family="Helvetica,sans-Serif" font-size="10.00"> hydra::tuple&lt; Tail... &gt; &gt;</text>
<polyline fill="none" stroke="black" points="0,-166.5 150,-166.5 "/>
<text text-anchor="middle" x="75" y="-154.5" font-family="Helvetica,sans-Serif" font-size="10.00"> </text>
<polyline fill="none" stroke="black" points="0,-147.5 150,-147.5 "/>
<text text-anchor="middle" x="75" y="-135.5" font-family="Helvetica,sans-Serif" font-size="10.00"> </text>
</a>
</g>
</g>
<!-- Node0&#45;&gt;Node1 -->
<g id="edge1" class="edge">
<title>Node0&#45;&gt;Node1</title>
<path fill="none" stroke="orange" d="M94.08,-380.7C86.83,-374.12 80.44,-366.56 76,-358 61.01,-329.13 59.4,-293.27 62.12,-262.67"/>
<polygon fill="orange" stroke="orange" points="92.3,-383.77 102.23,-387.46 96.77,-378.38 92.3,-383.77"/>
<text text-anchor="start" x="76" y="-350" font-family="Helvetica,sans-Serif" font-size="10.00"> &lt; std::conditional</text>
<text text-anchor="start" x="76" y="-339" font-family="Helvetica,sans-Serif" font-size="10.00">&lt;(detail::is_intuple</text>
<text text-anchor="start" x="76" y="-328" font-family="Helvetica,sans-Serif" font-size="10.00">&lt; Head, Tuple &gt;::value)</text>
<text text-anchor="start" x="76" y="-317" font-family="Helvetica,sans-Serif" font-size="10.00">, Tuple, detail::merged</text>
<text text-anchor="start" x="76" y="-306" font-family="Helvetica,sans-Serif" font-size="10.00">_tuple&lt; Tuple, hydra::tuple</text>
<text text-anchor="start" x="76" y="-295" font-family="Helvetica,sans-Serif" font-size="10.00">&lt; Head &gt; &gt;::type &gt;::type, hydra</text>
<text text-anchor="middle" x="145.5" y="-284" font-family="Helvetica,sans-Serif" font-size="10.00">::tuple&lt; Tail... &gt; &gt;</text>
</g>
<!-- Node3 -->
<g id="node4" class="node">
<title>Node3</title>
<g id="a_node4"><a xlink:href="namespacehydra_1_1detail_1_1stuple__impl.html" target="_top" xlink:title="{hydra::detail::stuple\l_impl::stripped_tuple\l_impl\&lt; hydra::tuple\&lt; \&gt;\l, hydra::tuple\&lt; T... \&gt; \&gt;\n||}">
<polygon fill="none" stroke="black" points="179.5,-150.5 179.5,-240.5 294.5,-240.5 294.5,-150.5 179.5,-150.5"/>
<text text-anchor="start" x="187.5" y="-228.5" font-family="Helvetica,sans-Serif" font-size="10.00">hydra::detail::stuple</text>
<text text-anchor="start" x="187.5" y="-217.5" font-family="Helvetica,sans-Serif" font-size="10.00">_impl::stripped_tuple</text>
<text text-anchor="start" x="187.5" y="-206.5" font-family="Helvetica,sans-Serif" font-size="10.00">_impl&lt; hydra::tuple&lt; &gt;</text>
<text text-anchor="middle" x="237" y="-195.5" font-family="Helvetica,sans-Serif" font-size="10.00">, hydra::tuple&lt; T... &gt; &gt;</text>
<polyline fill="none" stroke="black" points="179.5,-188.5 294.5,-188.5 "/>
<text text-anchor="middle" x="237" y="-176.5" font-family="Helvetica,sans-Serif" font-size="10.00"> </text>
<polyline fill="none" stroke="black" points="179.5,-169.5 294.5,-169.5 "/>
<text text-anchor="middle" x="237" y="-157.5" font-family="Helvetica,sans-Serif" font-size="10.00"> </text>
</a>
</g>
</g>
<!-- Node0&#45;&gt;Node3 -->
<g id="edge3" class="edge">
<title>Node0&#45;&gt;Node3</title>
<path fill="none" stroke="orange" d="M208.77,-368.32C211.1,-364.99 213.2,-361.54 215,-358 233.55,-321.4 238.14,-274.45 238.64,-240.61"/>
<polygon fill="orange" stroke="orange" points="205.92,-366.29 202.59,-376.35 211.47,-370.56 205.92,-366.29"/>
<text text-anchor="start" x="236" y="-322.5" font-family="Helvetica,sans-Serif" font-size="10.00"> &lt; hydra::tuple&lt; &gt;,</text>
<text text-anchor="middle" x="283.5" y="-311.5" font-family="Helvetica,sans-Serif" font-size="10.00"> hydra::tuple&lt; T... &gt; &gt;</text>
</g>
<!-- Node2 -->
<g id="node3" class="node">
<title>Node2</title>
<g id="a_node3"><a xlink:href="structhydra_1_1detail_1_1stuple__impl_1_1stripped__tuple__impl_3_01Tuple_00_01hydra_1_1tuple_3_01Head_00_01Tail_8_8_8_01_4_01_4.html" target="_top" xlink:title="{hydra::detail::stuple\l_impl::stripped_tuple\l_impl\&lt; Tuple, hydra::tuple\l\&lt; Head, Tail... \&gt; \&gt;\n||}">
<polygon fill="none" stroke="black" points="10,-0.5 10,-90.5 140,-90.5 140,-0.5 10,-0.5"/>
<text text-anchor="start" x="18" y="-78.5" font-family="Helvetica,sans-Serif" font-size="10.00">hydra::detail::stuple</text>
<text text-anchor="start" x="18" y="-67.5" font-family="Helvetica,sans-Serif" font-size="10.00">_impl::stripped_tuple</text>
<text text-anchor="start" x="18" y="-56.5" font-family="Helvetica,sans-Serif" font-size="10.00">_impl&lt; Tuple, hydra::tuple</text>
<text text-anchor="middle" x="75" y="-45.5" font-family="Helvetica,sans-Serif" font-size="10.00">&lt; Head, Tail... &gt; &gt;</text>
<polyline fill="none" stroke="black" points="10,-38.5 140,-38.5 "/>
<text text-anchor="middle" x="75" y="-26.5" font-family="Helvetica,sans-Serif" font-size="10.00"> </text>
<polyline fill="none" stroke="black" points="10,-19.5 140,-19.5 "/>
<text text-anchor="middle" x="75" y="-7.5" font-family="Helvetica,sans-Serif" font-size="10.00"> </text>
</a>
</g>
</g>
<!-- Node1&#45;&gt;Node2 -->
<g id="edge2" class="edge">
<title>Node1&#45;&gt;Node2</title>
<path fill="none" stroke="midnightblue" d="M75,-118.07C75,-108.65 75,-99.28 75,-90.57"/>
<polygon fill="none" stroke="midnightblue" points="71.5,-118.29 75,-128.29 78.5,-118.29 71.5,-118.29"/>
</g>
<!-- Node4 -->
<g id="node5" class="node">
<title>Node4</title>
<g id="a_node5"><a xlink:href="structhydra_1_1detail_1_1stripped__tuple_3_01hydra_1_1tuple_3_01T_8_8_8_01_4_01_4.html" target="_top" xlink:title="{hydra::detail::stripped\l_tuple\&lt; hydra::tuple\&lt;\l T... \&gt; \&gt;\n||}">
<polygon fill="none" stroke="black" points="182,-6 182,-85 292,-85 292,-6 182,-6"/>
<text text-anchor="start" x="190" y="-73" font-family="Helvetica,sans-Serif" font-size="10.00">hydra::detail::stripped</text>
<text text-anchor="start" x="190" y="-62" font-family="Helvetica,sans-Serif" font-size="10.00">_tuple&lt; hydra::tuple&lt;</text>
<text text-anchor="middle" x="237" y="-51" font-family="Helvetica,sans-Serif" font-size="10.00"> T... &gt; &gt;</text>
<polyline fill="none" stroke="black" points="182,-44 292,-44 "/>
<text text-anchor="middle" x="237" y="-32" font-family="Helvetica,sans-Serif" font-size="10.00"> </text>
<polyline fill="none" stroke="black" points="182,-25 292,-25 "/>
<text text-anchor="middle" x="237" y="-13" font-family="Helvetica,sans-Serif" font-size="10.00"> </text>
</a>
</g>
</g>
<!-- Node3&#45;&gt;Node4 -->
<g id="edge4" class="edge">
<title>Node3&#45;&gt;Node4</title>
<path fill="none" stroke="midnightblue" d="M237,-140.25C237,-121.94 237,-101.9 237,-85.06"/>
<polygon fill="none" stroke="midnightblue" points="233.5,-140.5 237,-150.5 240.5,-140.5 233.5,-140.5"/>
</g>
</g>
</svg>
