<?xml version="1.0" encoding="UTF-8" standalone="no"?>
<!DOCTYPE svg PUBLIC "-//W3C//DTD SVG 1.1//EN"
 "http://www.w3.org/Graphics/SVG/1.1/DTD/svg11.dtd">
<!-- Generated by graphviz version 2.38.0 (20140413.2041)
 -->
<!-- Title: hydra::detail::is_homogeneous&lt; A, Tuple &gt; Pages: 1 -->
<svg width="475pt" height="680pt"
 viewBox="0.00 0.00 474.50 680.00" xmlns="http://www.w3.org/2000/svg" xmlns:xlink="http://www.w3.org/1999/xlink">
<g id="graph0" class="graph" transform="scale(1 1) rotate(0) translate(4 676)">
<title>hydra::detail::is_homogeneous&lt; A, Tuple &gt;</title>
<!-- Node0 -->
<g id="node1" class="node"><title>Node0</title>
<polygon fill="#bfbfbf" stroke="black" points="108,-0.5 108,-68.5 257,-68.5 257,-0.5 108,-0.5"/>
<text text-anchor="start" x="116" y="-56.5" font-family="Helvetica,sans-Serif" font-size="10.00">hydra::detail::is_homogeneous</text>
<text text-anchor="middle" x="182.5" y="-45.5" font-family="Helvetica,sans-Serif" font-size="10.00">&lt; A, Tuple &gt;</text>
<polyline fill="none" stroke="black" points="108,-38.5 257,-38.5 "/>
<text text-anchor="middle" x="182.5" y="-26.5" font-family="Helvetica,sans-Serif" font-size="10.00"> </text>
<polyline fill="none" stroke="black" points="108,-19.5 257,-19.5 "/>
<text text-anchor="middle" x="182.5" y="-7.5" font-family="Helvetica,sans-Serif" font-size="10.00"> </text>
</g>
<!-- Node1 -->
<g id="node2" class="node"><title>Node1</title>
<g id="a_node2"><a xlink:href="structhydra_1_1detail_1_1is__homogeneous__base.html" target="_top" xlink:title="{hydra::detail::is_homogeneous\l_base\&lt; A, Tuple, HYDRA_EXTERNAL\l_NS::thrust::tuple_size\&lt; Tuple\l \&gt;::value \&gt;\n||}">
<polygon fill="none" stroke="black" points="88,-106.5 88,-196.5 277,-196.5 277,-106.5 88,-106.5"/>
<text text-anchor="start" x="96" y="-184.5" font-family="Helvetica,sans-Serif" font-size="10.00">hydra::detail::is_homogeneous</text>
<text text-anchor="start" x="96" y="-173.5" font-family="Helvetica,sans-Serif" font-size="10.00">_base&lt; A, Tuple, HYDRA_EXTERNAL</text>
<text text-anchor="start" x="96" y="-162.5" font-family="Helvetica,sans-Serif" font-size="10.00">_NS::thrust::tuple_size&lt; Tuple</text>
<text text-anchor="middle" x="182.5" y="-151.5" font-family="Helvetica,sans-Serif" font-size="10.00"> &gt;::value &gt;</text>
<polyline fill="none" stroke="black" points="88,-144.5 277,-144.5 "/>
<text text-anchor="middle" x="182.5" y="-132.5" font-family="Helvetica,sans-Serif" font-size="10.00"> </text>
<polyline fill="none" stroke="black" points="88,-125.5 277,-125.5 "/>
<text text-anchor="middle" x="182.5" y="-113.5" font-family="Helvetica,sans-Serif" font-size="10.00"> </text>
</a>
</g>
</g>
<!-- Node1&#45;&gt;Node0 -->
<g id="edge1" class="edge"><title>Node1&#45;&gt;Node0</title>
<path fill="none" stroke="midnightblue" d="M182.5,-96.2309C182.5,-86.8035 182.5,-77.2599 182.5,-68.6181"/>
<polygon fill="none" stroke="midnightblue" points="179,-96.3669 182.5,-106.367 186,-96.3669 179,-96.3669"/>
</g>
<!-- Node2 -->
<g id="node3" class="node"><title>Node2</title>
<polygon fill="none" stroke="#bfbfbf" points="0,-266.5 0,-455.5 243,-455.5 243,-266.5 0,-266.5"/>
<text text-anchor="start" x="8" y="-443.5" font-family="Helvetica,sans-Serif" font-size="10.00">std::conditional&lt; HYDRA</text>
<text text-anchor="start" x="8" y="-432.5" font-family="Helvetica,sans-Serif" font-size="10.00">_EXTERNAL_NS::thrust::</text>
<text text-anchor="start" x="8" y="-421.5" font-family="Helvetica,sans-Serif" font-size="10.00">detail::is_same&lt; HYDRA</text>
<text text-anchor="start" x="8" y="-410.5" font-family="Helvetica,sans-Serif" font-size="10.00">_EXTERNAL_NS::thrust::detail</text>
<text text-anchor="start" x="8" y="-399.5" font-family="Helvetica,sans-Serif" font-size="10.00">::remove_const&lt; HYDRA_EXTERNAL</text>
<text text-anchor="start" x="8" y="-388.5" font-family="Helvetica,sans-Serif" font-size="10.00">_NS::thrust::detail::remove_reference</text>
<text text-anchor="start" x="8" y="-377.5" font-family="Helvetica,sans-Serif" font-size="10.00">&lt; A &gt;::type &gt;::type, HYDRA_EXTERNAL</text>
<text text-anchor="start" x="8" y="-366.5" font-family="Helvetica,sans-Serif" font-size="10.00">_NS::thrust::detail::remove_const&lt; HYDRA</text>
<text text-anchor="start" x="8" y="-355.5" font-family="Helvetica,sans-Serif" font-size="10.00">_EXTERNAL_NS::thrust::detail::remove_reference</text>
<text text-anchor="start" x="8" y="-344.5" font-family="Helvetica,sans-Serif" font-size="10.00">&lt; HYDRA_EXTERNAL_NS::thrust::tuple_element&lt;</text>
<text text-anchor="start" x="8" y="-333.5" font-family="Helvetica,sans-Serif" font-size="10.00"> I&#45;1, Tuple &gt;::type &gt;::type &gt;::type &gt;::value,</text>
<text text-anchor="start" x="8" y="-322.5" font-family="Helvetica,sans-Serif" font-size="10.00"> is_homogeneous_base&lt; A, Tuple , I&#45;1 &gt;, HYDRA</text>
<text text-anchor="middle" x="121.5" y="-311.5" font-family="Helvetica,sans-Serif" font-size="10.00">_EXTERNAL_NS::thrust::detail::false_type &gt;::type</text>
<polyline fill="none" stroke="#bfbfbf" points="0,-304.5 243,-304.5 "/>
<text text-anchor="middle" x="121.5" y="-292.5" font-family="Helvetica,sans-Serif" font-size="10.00"> </text>
<polyline fill="none" stroke="#bfbfbf" points="0,-285.5 243,-285.5 "/>
<text text-anchor="middle" x="121.5" y="-273.5" font-family="Helvetica,sans-Serif" font-size="10.00"> </text>
</g>
<!-- Node2&#45;&gt;Node1 -->
<g id="edge2" class="edge"><title>Node2&#45;&gt;Node1</title>
<path fill="none" stroke="midnightblue" d="M151.906,-256.569C158.12,-235.433 164.339,-214.278 169.531,-196.616"/>
<polygon fill="none" stroke="midnightblue" points="148.518,-255.685 149.055,-266.267 155.234,-257.66 148.518,-255.685"/>
</g>
<!-- Node3 -->
<g id="node4" class="node"><title>Node3</title>
<g id="a_node4"><a xlink:href="structhydra_1_1detail_1_1is__homogeneous__base.html" target="_top" xlink:title="{hydra::detail::is_homogeneous\l_base\&lt; A, Tp, I \&gt;\n||}">
<polygon fill="none" stroke="black" points="261,-327 261,-395 410,-395 410,-327 261,-327"/>
<text text-anchor="start" x="269" y="-383" font-family="Helvetica,sans-Serif" font-size="10.00">hydra::detail::is_homogeneous</text>
<text text-anchor="middle" x="335.5" y="-372" font-family="Helvetica,sans-Serif" font-size="10.00">_base&lt; A, Tp, I &gt;</text>
<polyline fill="none" stroke="black" points="261,-365 410,-365 "/>
<text text-anchor="middle" x="335.5" y="-353" font-family="Helvetica,sans-Serif" font-size="10.00"> </text>
<polyline fill="none" stroke="black" points="261,-346 410,-346 "/>
<text text-anchor="middle" x="335.5" y="-334" font-family="Helvetica,sans-Serif" font-size="10.00"> </text>
</a>
</g>
</g>
<!-- Node3&#45;&gt;Node1 -->
<g id="edge3" class="edge"><title>Node3&#45;&gt;Node1</title>
<path fill="none" stroke="orange" d="M304.886,-318.48C278.856,-283.179 241.584,-232.631 215.023,-196.609"/>
<polygon fill="orange" stroke="orange" points="302.166,-320.69 310.918,-326.662 307.8,-316.536 302.166,-320.69"/>
<text text-anchor="start" x="249.5" y="-240" font-family="Helvetica,sans-Serif" font-size="10.00"> &lt; A, Tuple, HYDRA_EXTERNAL</text>
<text text-anchor="start" x="249.5" y="-229" font-family="Helvetica,sans-Serif" font-size="10.00">_NS::thrust::tuple_size</text>
<text text-anchor="middle" x="324.5" y="-218" font-family="Helvetica,sans-Serif" font-size="10.00">&lt; Tuple &gt;::value &gt;</text>
</g>
<!-- Node4 -->
<g id="node5" class="node"><title>Node4</title>
<polygon fill="none" stroke="#bfbfbf" points="204.5,-493.5 204.5,-671.5 466.5,-671.5 466.5,-493.5 204.5,-493.5"/>
<text text-anchor="start" x="212.5" y="-659.5" font-family="Helvetica,sans-Serif" font-size="10.00">std::conditional::type</text>
<text text-anchor="start" x="212.5" y="-648.5" font-family="Helvetica,sans-Serif" font-size="10.00">&lt; HYDRA_EXTERNAL_NS::thrust</text>
<text text-anchor="start" x="212.5" y="-637.5" font-family="Helvetica,sans-Serif" font-size="10.00">::detail::is_same&lt; HYDRA_EXTERNAL</text>
<text text-anchor="start" x="212.5" y="-626.5" font-family="Helvetica,sans-Serif" font-size="10.00">_NS::thrust::detail::remove_const</text>
<text text-anchor="start" x="212.5" y="-615.5" font-family="Helvetica,sans-Serif" font-size="10.00">&lt; HYDRA_EXTERNAL_NS::thrust::detail</text>
<text text-anchor="start" x="212.5" y="-604.5" font-family="Helvetica,sans-Serif" font-size="10.00">::remove_reference&lt; A &gt;::type &gt;::type,</text>
<text text-anchor="start" x="212.5" y="-593.5" font-family="Helvetica,sans-Serif" font-size="10.00"> HYDRA_EXTERNAL_NS::thrust::detail::remove</text>
<text text-anchor="start" x="212.5" y="-582.5" font-family="Helvetica,sans-Serif" font-size="10.00">_const&lt; HYDRA_EXTERNAL_NS::thrust::detail</text>
<text text-anchor="start" x="212.5" y="-571.5" font-family="Helvetica,sans-Serif" font-size="10.00">::remove_reference&lt; HYDRA_EXTERNAL_NS::thrust</text>
<text text-anchor="start" x="212.5" y="-560.5" font-family="Helvetica,sans-Serif" font-size="10.00">::tuple_element&lt; I&#45;1, Tp &gt;::type &gt;::type &gt;::type</text>
<text text-anchor="start" x="212.5" y="-549.5" font-family="Helvetica,sans-Serif" font-size="10.00"> &gt;::value, is_homogeneous_base&lt; A, Tp, I&#45;1 &gt;, HYDRA</text>
<text text-anchor="middle" x="335.5" y="-538.5" font-family="Helvetica,sans-Serif" font-size="10.00">_EXTERNAL_NS::thrust::detail::false_type &gt;</text>
<polyline fill="none" stroke="#bfbfbf" points="204.5,-531.5 466.5,-531.5 "/>
<text text-anchor="middle" x="335.5" y="-519.5" font-family="Helvetica,sans-Serif" font-size="10.00"> </text>
<polyline fill="none" stroke="#bfbfbf" points="204.5,-512.5 466.5,-512.5 "/>
<text text-anchor="middle" x="335.5" y="-500.5" font-family="Helvetica,sans-Serif" font-size="10.00"> </text>
</g>
<!-- Node4&#45;&gt;Node3 -->
<g id="edge4" class="edge"><title>Node4&#45;&gt;Node3</title>
<path fill="none" stroke="midnightblue" d="M335.5,-483.28C335.5,-451.665 335.5,-418.76 335.5,-395.214"/>
<polygon fill="none" stroke="midnightblue" points="332,-483.486 335.5,-493.486 339,-483.486 332,-483.486"/>
</g>
</g>
</svg>
