<?xml version="1.0" encoding="UTF-8" standalone="no"?>
<!DOCTYPE svg PUBLIC "-//W3C//DTD SVG 1.1//EN"
 "http://www.w3.org/Graphics/SVG/1.1/DTD/svg11.dtd">
<!-- Generated by graphviz version 2.40.1 (20161225.0304)
 -->
<!-- Title: hydra::detail::BackendPolicy&lt; Backend::Host &gt; Pages: 1 -->
<svg width="149pt" height="193pt"
 viewBox="0.00 0.00 149.00 193.00" xmlns="http://www.w3.org/2000/svg" xmlns:xlink="http://www.w3.org/1999/xlink">
<g id="graph0" class="graph" transform="scale(1 1) rotate(0) translate(4 189)">
<title>hydra::detail::BackendPolicy&lt; Backend::Host &gt;</title>
<!-- Node0 -->
<g id="node1" class="node">
<title>Node0</title>
<polygon fill="#bfbfbf" stroke="#000000" points="0,-.5 0,-68.5 141,-68.5 141,-.5 0,-.5"/>
<text text-anchor="start" x="8" y="-56.5" font-family="Helvetica,sans-Serif" font-size="10.00" fill="#000000">hydra::detail::BackendPolicy</text>
<text text-anchor="middle" x="70.5" y="-45.5" font-family="Helvetica,sans-Serif" font-size="10.00" fill="#000000">&lt; Backend::Host &gt;</text>
<polyline fill="none" stroke="#000000" points="0,-38.5 141,-38.5 "/>
<text text-anchor="start" x="8" y="-26.5" font-family="Helvetica,sans-Serif" font-size="10.00" fill="#000000">+ backend</text>
<polyline fill="none" stroke="#000000" points="0,-19.5 141,-19.5 "/>
<text text-anchor="middle" x="70.5" y="-7.5" font-family="Helvetica,sans-Serif" font-size="10.00" fill="#000000"> </text>
</g>
<!-- Node1 -->
<g id="node2" class="node">
<title>Node1</title>
<polygon fill="none" stroke="#bfbfbf" points="4.5,-105.5 4.5,-184.5 136.5,-184.5 136.5,-105.5 4.5,-105.5"/>
<text text-anchor="start" x="12.5" y="-172.5" font-family="Helvetica,sans-Serif" font-size="10.00" fill="#000000">HYDRA_EXTERNAL_NS::</text>
<text text-anchor="start" x="12.5" y="-161.5" font-family="Helvetica,sans-Serif" font-size="10.00" fill="#000000">thrust::host_execution</text>
<text text-anchor="middle" x="70.5" y="-150.5" font-family="Helvetica,sans-Serif" font-size="10.00" fill="#000000">_policy&lt; host::host_t &gt;</text>
<polyline fill="none" stroke="#bfbfbf" points="4.5,-143.5 136.5,-143.5 "/>
<text text-anchor="middle" x="70.5" y="-131.5" font-family="Helvetica,sans-Serif" font-size="10.00" fill="#000000"> </text>
<polyline fill="none" stroke="#bfbfbf" points="4.5,-124.5 136.5,-124.5 "/>
<text text-anchor="middle" x="70.5" y="-112.5" font-family="Helvetica,sans-Serif" font-size="10.00" fill="#000000"> </text>
</g>
<!-- Node1&#45;&gt;Node0 -->
<g id="edge1" class="edge">
<title>Node1&#45;&gt;Node0</title>
<path fill="none" stroke="#191970" d="M70.5,-95.3742C70.5,-86.3552 70.5,-77.1343 70.5,-68.6861"/>
<polygon fill="none" stroke="#191970" points="67.0001,-95.419 70.5,-105.4191 74.0001,-95.4191 67.0001,-95.419"/>
</g>
</g>
</svg>
