<?xml version="1.0" encoding="UTF-8" standalone="no"?>
<!DOCTYPE svg PUBLIC "-//W3C//DTD SVG 1.1//EN"
 "http://www.w3.org/Graphics/SVG/1.1/DTD/svg11.dtd">
<!-- Generated by graphviz version 2.42.4 (0)
 -->
<!-- Title: hydra::detail::is_function_argument_pack&lt; ArgTypes &gt; Pages: 1 -->
<!--zoomable 726 -->
<svg id="main" version="1.1" xmlns="http://www.w3.org/2000/svg" xmlns:xlink="http://www.w3.org/1999/xlink" xml:space="preserve" onload="init(evt)">
<style type="text/css"><![CDATA[
.edge:hover path { stroke: red; }
.edge:hover polygon { stroke: red; fill: red; }
]]></style>
<script type="text/javascript"><![CDATA[
var edges = document.getElementsByTagName('g');
if (edges && edges.length) {
  for (var i=0;i<edges.length;i++) {
    if (edges[i].id.substr(0,4)=='edge') {
      edges[i].setAttribute('class','edge');
    }
  }
}
]]></script>
        <defs>
                <circle id="rim" cx="0" cy="0" r="7"/>
                <circle id="rim2" cx="0" cy="0" r="3.5"/>
                <g id="zoomPlus">
                        <use xlink:href="#rim" fill="#404040">
                                <set attributeName="fill" to="#808080" begin="zoomplus.mouseover" end="zoomplus.mouseout"/>
                        </use>
                        <path d="M-4,0h8M0,-4v8" fill="none" stroke="white" stroke-width="1.5" pointer-events="none"/>
                </g>
                <g id="zoomMin">
                        <use xlink:href="#rim" fill="#404040">
                                <set attributeName="fill" to="#808080" begin="zoomminus.mouseover" end="zoomminus.mouseout"/>
                        </use>
                        <path d="M-4,0h8" fill="none" stroke="white" stroke-width="1.5" pointer-events="none"/>
                </g>
                <g id="dirArrow">
                        <path fill="none" stroke="white" stroke-width="1.5" d="M0,-3.0v7 M-2.5,-0.5L0,-3.0L2.5,-0.5"/>
                </g>
               <g id="resetDef">
                       <use xlink:href="#rim2" fill="#404040">
                               <set attributeName="fill" to="#808080" begin="reset.mouseover" end="reset.mouseout"/>
                       </use>
               </g>
        </defs>

<script type="text/javascript">
var viewWidth = 469;
var viewHeight = 726;
var sectionId = 'dynsection-0';
</script>
<script xlink:href="svgpan.js"/>
<svg id="graph" class="graph">
<g id="viewport">
<title>hydra::detail::is_function_argument_pack&lt; ArgTypes &gt;</title>
<!-- Node0 -->
<g id="node1" class="node">
<title>Node0</title>
<polygon fill="#bfbfbf" stroke="black" points="168,-288.5 168,-356.5 315,-356.5 315,-288.5 168,-288.5"/>
<text text-anchor="start" x="176" y="-344.5" font-family="Helvetica,sans-Serif" font-size="10.00">hydra::detail::is_function</text>
<text text-anchor="middle" x="241.5" y="-333.5" font-family="Helvetica,sans-Serif" font-size="10.00">_argument_pack&lt; ArgTypes &gt;</text>
<polyline fill="none" stroke="black" points="168,-326.5 315,-326.5 "/>
<text text-anchor="middle" x="241.5" y="-314.5" font-family="Helvetica,sans-Serif" font-size="10.00"> </text>
<polyline fill="none" stroke="black" points="168,-307.5 315,-307.5 "/>
<text text-anchor="middle" x="241.5" y="-295.5" font-family="Helvetica,sans-Serif" font-size="10.00"> </text>
</g>
<!-- Node4 -->
<g id="node5" class="node">
<title>Node4</title>
<g id="a_node5"><a xlink:href="structhydra_1_1detail_1_1is__function__argument__pack.html" target="_top" xlink:title="{hydra::detail::is_function\l_argument_pack\&lt; std::decay\l\&lt; ArgTypes \&gt;::type... \&gt;\n||}">
<polygon fill="none" stroke="black" points="170,-150.5 170,-229.5 313,-229.5 313,-150.5 170,-150.5"/>
<text text-anchor="start" x="178" y="-217.5" font-family="Helvetica,sans-Serif" font-size="10.00">hydra::detail::is_function</text>
<text text-anchor="start" x="178" y="-206.5" font-family="Helvetica,sans-Serif" font-size="10.00">_argument_pack&lt; std::decay</text>
<text text-anchor="middle" x="241.5" y="-195.5" font-family="Helvetica,sans-Serif" font-size="10.00">&lt; ArgTypes &gt;::type... &gt;</text>
<polyline fill="none" stroke="black" points="170,-188.5 313,-188.5 "/>
<text text-anchor="middle" x="241.5" y="-176.5" font-family="Helvetica,sans-Serif" font-size="10.00"> </text>
<polyline fill="none" stroke="black" points="170,-169.5 313,-169.5 "/>
<text text-anchor="middle" x="241.5" y="-157.5" font-family="Helvetica,sans-Serif" font-size="10.00"> </text>
</a>
</g>
</g>
<!-- Node0&#45;&gt;Node4 -->
<g id="edge5" class="edge">
<title>Node0&#45;&gt;Node4</title>
<path fill="none" stroke="orange" d="M241.5,-277.81C241.5,-262.26 241.5,-244.87 241.5,-229.77"/>
<polygon fill="orange" stroke="orange" points="238,-278.23 241.5,-288.23 245,-278.23 238,-278.23"/>
<text text-anchor="start" x="241.5" y="-262" font-family="Helvetica,sans-Serif" font-size="10.00"> &lt; std::decay&lt; ArgTypes</text>
<text text-anchor="middle" x="295.5" y="-251" font-family="Helvetica,sans-Serif" font-size="10.00"> &gt;::type... &gt;</text>
</g>
<!-- Node1 -->
<g id="node2" class="node">
<title>Node1</title>
<g id="a_node2"><a xlink:href="structhydra_1_1detail_1_1all__true.html" target="_top" xlink:title="{hydra::detail::all\l_true\&lt; is_function_argument\l\&lt; ArgTypes \&gt;::value... \&gt;\n||}">
<polygon fill="none" stroke="black" points="171.5,-394.5 171.5,-473.5 311.5,-473.5 311.5,-394.5 171.5,-394.5"/>
<text text-anchor="start" x="179.5" y="-461.5" font-family="Helvetica,sans-Serif" font-size="10.00">hydra::detail::all</text>
<text text-anchor="start" x="179.5" y="-450.5" font-family="Helvetica,sans-Serif" font-size="10.00">_true&lt; is_function_argument</text>
<text text-anchor="middle" x="241.5" y="-439.5" font-family="Helvetica,sans-Serif" font-size="10.00">&lt; ArgTypes &gt;::value... &gt;</text>
<polyline fill="none" stroke="black" points="171.5,-432.5 311.5,-432.5 "/>
<text text-anchor="middle" x="241.5" y="-420.5" font-family="Helvetica,sans-Serif" font-size="10.00"> </text>
<polyline fill="none" stroke="black" points="171.5,-413.5 311.5,-413.5 "/>
<text text-anchor="middle" x="241.5" y="-401.5" font-family="Helvetica,sans-Serif" font-size="10.00"> </text>
</a>
</g>
</g>
<!-- Node1&#45;&gt;Node0 -->
<g id="edge1" class="edge">
<title>Node1&#45;&gt;Node0</title>
<path fill="none" stroke="midnightblue" d="M241.5,-384.38C241.5,-375.02 241.5,-365.41 241.5,-356.67"/>
<polygon fill="none" stroke="midnightblue" points="238,-384.39 241.5,-394.39 245,-384.39 238,-384.39"/>
</g>
<!-- Node2 -->
<g id="node3" class="node">
<title>Node2</title>
<polygon fill="none" stroke="#bfbfbf" points="169.5,-638.5 169.5,-717.5 305.5,-717.5 305.5,-638.5 169.5,-638.5"/>
<text text-anchor="start" x="177.5" y="-705.5" font-family="Helvetica,sans-Serif" font-size="10.00">std::is_same&lt; bool</text>
<text text-anchor="start" x="177.5" y="-694.5" font-family="Helvetica,sans-Serif" font-size="10.00">_pack&lt; bs..., true &gt;</text>
<text text-anchor="middle" x="237.5" y="-683.5" font-family="Helvetica,sans-Serif" font-size="10.00">, bool_pack&lt; true, bs... &gt; &gt;</text>
<polyline fill="none" stroke="#bfbfbf" points="169.5,-676.5 305.5,-676.5 "/>
<text text-anchor="middle" x="237.5" y="-664.5" font-family="Helvetica,sans-Serif" font-size="10.00"> </text>
<polyline fill="none" stroke="#bfbfbf" points="169.5,-657.5 305.5,-657.5 "/>
<text text-anchor="middle" x="237.5" y="-645.5" font-family="Helvetica,sans-Serif" font-size="10.00"> </text>
</g>
<!-- Node2&#45;&gt;Node1 -->
<g id="edge2" class="edge">
<title>Node2&#45;&gt;Node1</title>
<path fill="none" stroke="midnightblue" d="M238.31,-628.17C239.06,-582.71 240.16,-515.83 240.86,-473.88"/>
<polygon fill="none" stroke="midnightblue" points="234.8,-628.33 238.14,-638.39 241.8,-628.45 234.8,-628.33"/>
</g>
<!-- Node3 -->
<g id="node4" class="node">
<title>Node3</title>
<g id="a_node4"><a xlink:href="structhydra_1_1detail_1_1all__true.html" target="_top" xlink:title="{hydra::detail::all\l_true\&lt; bs \&gt;\n||}">
<polygon fill="none" stroke="black" points="253.5,-532.5 253.5,-600.5 339.5,-600.5 339.5,-532.5 253.5,-532.5"/>
<text text-anchor="start" x="261.5" y="-588.5" font-family="Helvetica,sans-Serif" font-size="10.00">hydra::detail::all</text>
<text text-anchor="middle" x="296.5" y="-577.5" font-family="Helvetica,sans-Serif" font-size="10.00">_true&lt; bs &gt;</text>
<polyline fill="none" stroke="black" points="253.5,-570.5 339.5,-570.5 "/>
<text text-anchor="middle" x="296.5" y="-558.5" font-family="Helvetica,sans-Serif" font-size="10.00"> </text>
<polyline fill="none" stroke="black" points="253.5,-551.5 339.5,-551.5 "/>
<text text-anchor="middle" x="296.5" y="-539.5" font-family="Helvetica,sans-Serif" font-size="10.00"> </text>
</a>
</g>
</g>
<!-- Node2&#45;&gt;Node3 -->
<g id="edge4" class="edge">
<title>Node2&#45;&gt;Node3</title>
<path fill="none" stroke="midnightblue" d="M263.05,-629.57C268.3,-619.84 273.72,-609.78 278.63,-600.67"/>
<polygon fill="none" stroke="midnightblue" points="259.96,-627.93 258.3,-638.39 266.13,-631.25 259.96,-627.93"/>
</g>
<!-- Node3&#45;&gt;Node1 -->
<g id="edge3" class="edge">
<title>Node3&#45;&gt;Node1</title>
<path fill="none" stroke="orange" d="M278.46,-522.71C271.82,-506.93 264.33,-489.16 257.84,-473.77"/>
<polygon fill="orange" stroke="orange" points="275.37,-524.38 282.48,-532.23 281.82,-521.66 275.37,-524.38"/>
<text text-anchor="start" x="273.5" y="-506" font-family="Helvetica,sans-Serif" font-size="10.00"> &lt; is_function_argument</text>
<text text-anchor="middle" x="326.5" y="-495" font-family="Helvetica,sans-Serif" font-size="10.00">&lt; ArgTypes &gt;::value... &gt;</text>
</g>
<!-- Node5 -->
<g id="node6" class="node">
<title>Node5</title>
<g id="a_node6"><a xlink:href="structhydra_1_1detail_1_1is__tuple__of__function__arguments_3_01hydra__thrust_1_1detail_1_1tuple91678faffaaaeae4ffb8187c2b42b734.html" target="_top" xlink:title="{hydra::detail::is_tuple\l_of_function_arguments\l\&lt; hydra_thrust::detail\l::tuple_of_iterator_references\l\&lt; ArgTypes &amp;... \&gt; \&gt;\n||}">
<polygon fill="none" stroke="black" points="0,-6 0,-107 143,-107 143,-6 0,-6"/>
<text text-anchor="start" x="8" y="-95" font-family="Helvetica,sans-Serif" font-size="10.00">hydra::detail::is_tuple</text>
<text text-anchor="start" x="8" y="-84" font-family="Helvetica,sans-Serif" font-size="10.00">_of_function_arguments</text>
<text text-anchor="start" x="8" y="-73" font-family="Helvetica,sans-Serif" font-size="10.00">&lt; hydra_thrust::detail</text>
<text text-anchor="start" x="8" y="-62" font-family="Helvetica,sans-Serif" font-size="10.00">::tuple_of_iterator_references</text>
<text text-anchor="middle" x="71.5" y="-51" font-family="Helvetica,sans-Serif" font-size="10.00">&lt; ArgTypes &amp;... &gt; &gt;</text>
<polyline fill="none" stroke="black" points="0,-44 143,-44 "/>
<text text-anchor="middle" x="71.5" y="-32" font-family="Helvetica,sans-Serif" font-size="10.00"> </text>
<polyline fill="none" stroke="black" points="0,-25 143,-25 "/>
<text text-anchor="middle" x="71.5" y="-13" font-family="Helvetica,sans-Serif" font-size="10.00"> </text>
</a>
</g>
</g>
<!-- Node4&#45;&gt;Node5 -->
<g id="edge6" class="edge">
<title>Node4&#45;&gt;Node5</title>
<path fill="none" stroke="midnightblue" d="M183.08,-143.81C167.83,-132.01 151.3,-119.23 135.75,-107.2"/>
<polygon fill="none" stroke="midnightblue" points="181.36,-146.91 191.41,-150.26 185.65,-141.37 181.36,-146.91"/>
</g>
<!-- Node6 -->
<g id="node7" class="node">
<title>Node6</title>
<g id="a_node7"><a xlink:href="structhydra_1_1detail_1_1is__tuple__of__function__arguments_3_01hydra__thrust_1_1detail_1_1tuple91dbb50ce69fee5b9cbe82c5a46c3272.html" target="_top" xlink:title="{hydra::detail::is_tuple\l_of_function_arguments\l\&lt; hydra_thrust::detail\l::tuple_of_iterator_references\l\&lt; hydra_thrust::device_reference\l\&lt; ArgTypes \&gt;... \&gt; \&gt;\n||}">
<polygon fill="none" stroke="black" points="161.5,-0.5 161.5,-112.5 321.5,-112.5 321.5,-0.5 161.5,-0.5"/>
<text text-anchor="start" x="169.5" y="-100.5" font-family="Helvetica,sans-Serif" font-size="10.00">hydra::detail::is_tuple</text>
<text text-anchor="start" x="169.5" y="-89.5" font-family="Helvetica,sans-Serif" font-size="10.00">_of_function_arguments</text>
<text text-anchor="start" x="169.5" y="-78.5" font-family="Helvetica,sans-Serif" font-size="10.00">&lt; hydra_thrust::detail</text>
<text text-anchor="start" x="169.5" y="-67.5" font-family="Helvetica,sans-Serif" font-size="10.00">::tuple_of_iterator_references</text>
<text text-anchor="start" x="169.5" y="-56.5" font-family="Helvetica,sans-Serif" font-size="10.00">&lt; hydra_thrust::device_reference</text>
<text text-anchor="middle" x="241.5" y="-45.5" font-family="Helvetica,sans-Serif" font-size="10.00">&lt; ArgTypes &gt;... &gt; &gt;</text>
<polyline fill="none" stroke="black" points="161.5,-38.5 321.5,-38.5 "/>
<text text-anchor="middle" x="241.5" y="-26.5" font-family="Helvetica,sans-Serif" font-size="10.00"> </text>
<polyline fill="none" stroke="black" points="161.5,-19.5 321.5,-19.5 "/>
<text text-anchor="middle" x="241.5" y="-7.5" font-family="Helvetica,sans-Serif" font-size="10.00"> </text>
</a>
</g>
</g>
<!-- Node4&#45;&gt;Node6 -->
<g id="edge7" class="edge">
<title>Node4&#45;&gt;Node6</title>
<path fill="none" stroke="midnightblue" d="M241.5,-139.99C241.5,-131.04 241.5,-121.64 241.5,-112.53"/>
<polygon fill="none" stroke="midnightblue" points="238,-140.26 241.5,-150.26 245,-140.26 238,-140.26"/>
</g>
<!-- Node7 -->
<g id="node8" class="node">
<title>Node7</title>
<g id="a_node8"><a xlink:href="structhydra_1_1detail_1_1is__tuple__of__function__arguments_3_01hydra__thrust_1_1tuple_3_01ArgTypes_8_8_8_01_4_01_4.html" target="_top" xlink:title="{hydra::detail::is_tuple\l_of_function_arguments\l\&lt; hydra_thrust::tuple\&lt;\l ArgTypes... \&gt; \&gt;\n||}">
<polygon fill="none" stroke="black" points="340,-11.5 340,-101.5 461,-101.5 461,-11.5 340,-11.5"/>
<text text-anchor="start" x="348" y="-89.5" font-family="Helvetica,sans-Serif" font-size="10.00">hydra::detail::is_tuple</text>
<text text-anchor="start" x="348" y="-78.5" font-family="Helvetica,sans-Serif" font-size="10.00">_of_function_arguments</text>
<text text-anchor="start" x="348" y="-67.5" font-family="Helvetica,sans-Serif" font-size="10.00">&lt; hydra_thrust::tuple&lt;</text>
<text text-anchor="middle" x="400.5" y="-56.5" font-family="Helvetica,sans-Serif" font-size="10.00"> ArgTypes... &gt; &gt;</text>
<polyline fill="none" stroke="black" points="340,-49.5 461,-49.5 "/>
<text text-anchor="middle" x="400.5" y="-37.5" font-family="Helvetica,sans-Serif" font-size="10.00"> </text>
<polyline fill="none" stroke="black" points="340,-30.5 461,-30.5 "/>
<text text-anchor="middle" x="400.5" y="-18.5" font-family="Helvetica,sans-Serif" font-size="10.00"> </text>
</a>
</g>
</g>
<!-- Node4&#45;&gt;Node7 -->
<g id="edge8" class="edge">
<title>Node4&#45;&gt;Node7</title>
<path fill="none" stroke="midnightblue" d="M296.31,-143.67C312.81,-130.02 330.89,-115.07 347.29,-101.5"/>
<polygon fill="none" stroke="midnightblue" points="293.82,-141.19 288.35,-150.26 298.28,-146.58 293.82,-141.19"/>
</g>
</g>
</svg>
        <g id="navigator" transform="translate(0 0)" fill="#404254">
                <rect fill="#f2f5e9" fill-opacity="0.5" stroke="#606060" stroke-width=".5" x="0" y="0" width="60" height="60"/>
                <use id="zoomplus" xlink:href="#zoomPlus" x="17" y="9" onmousedown="handleZoom(evt,'in')"/>
                <use id="zoomminus" xlink:href="#zoomMin" x="42" y="9" onmousedown="handleZoom(evt,'out')"/>
                <use id="reset" xlink:href="#resetDef" x="30" y="36" onmousedown="handleReset()"/>
                <g id="arrowUp" xlink:href="#dirArrow" transform="translate(30 24)" onmousedown="handlePan(0,-1)">
                  <use xlink:href="#rim" fill="#404040">
                        <set attributeName="fill" to="#808080" begin="arrowUp.mouseover" end="arrowUp.mouseout"/>
                  </use>
                  <path fill="none" stroke="white" stroke-width="1.5" d="M0,-3.0v7 M-2.5,-0.5L0,-3.0L2.5,-0.5"/>
                </g>
                <g id="arrowRight" xlink:href="#dirArrow" transform="rotate(90) translate(36 -43)" onmousedown="handlePan(1,0)">
                  <use xlink:href="#rim" fill="#404040">
                        <set attributeName="fill" to="#808080" begin="arrowRight.mouseover" end="arrowRight.mouseout"/>
                  </use>
                  <path fill="none" stroke="white" stroke-width="1.5" d="M0,-3.0v7 M-2.5,-0.5L0,-3.0L2.5,-0.5"/>
                </g>
                <g id="arrowDown" xlink:href="#dirArrow" transform="rotate(180) translate(-30 -48)" onmousedown="handlePan(0,1)">
                  <use xlink:href="#rim" fill="#404040">
                        <set attributeName="fill" to="#808080" begin="arrowDown.mouseover" end="arrowDown.mouseout"/>
                  </use>
                  <path fill="none" stroke="white" stroke-width="1.5" d="M0,-3.0v7 M-2.5,-0.5L0,-3.0L2.5,-0.5"/>
                </g>
                <g id="arrowLeft" xlink:href="#dirArrow" transform="rotate(270) translate(-36 17)" onmousedown="handlePan(-1,0)">
                  <use xlink:href="#rim" fill="#404040">
                        <set attributeName="fill" to="#808080" begin="arrowLeft.mouseover" end="arrowLeft.mouseout"/>
                  </use>
                  <path fill="none" stroke="white" stroke-width="1.5" d="M0,-3.0v7 M-2.5,-0.5L0,-3.0L2.5,-0.5"/>
                </g>
        </g>
        <svg viewBox="0 0 15 15" width="100%" height="30px" preserveAspectRatio="xMaxYMin meet">
         <g id="arrow_out" transform="scale(0.3 0.3)">
          <a xlink:href="structhydra_1_1detail_1_1is__function__argument__pack__inherit__graph_org.svg" target="_base">
           <rect id="button" ry="5" rx="5" y="6" x="6" height="38" width="38"
                fill="#f2f5e9" fill-opacity="0.5" stroke="#606060" stroke-width="1.0"/>
           <path id="arrow"
             d="M 11.500037,31.436501 C 11.940474,20.09759 22.043105,11.32322 32.158766,21.979434 L 37.068811,17.246167 C 37.068811,17.246167 37.088388,32 37.088388,32 L 22.160133,31.978069 C 22.160133,31.978069 26.997745,27.140456 26.997745,27.140456 C 18.528582,18.264221 13.291696,25.230495 11.500037,31.436501 z"
             style="fill:#404040;"/>
          </a>
         </g>
        </svg>
</svg>
