<?xml version="1.0" encoding="UTF-8" standalone="no"?>
<!DOCTYPE svg PUBLIC "-//W3C//DTD SVG 1.1//EN"
 "http://www.w3.org/Graphics/SVG/1.1/DTD/svg11.dtd">
<!-- Generated by graphviz version 2.38.0 (20140413.2041)
 -->
<!-- Title: TBB.h Pages: 1 -->
<svg width="713pt" height="173pt"
 viewBox="0.00 0.00 713.00 173.00" xmlns="http://www.w3.org/2000/svg" xmlns:xlink="http://www.w3.org/1999/xlink">
<g id="graph0" class="graph" transform="scale(1 1) rotate(0) translate(4 169)">
<title>TBB.h</title>
<!-- Node0 -->
<g id="node1" class="node"><title>Node0</title>
<polygon fill="#bfbfbf" stroke="black" points="375,-145.5 375,-164.5 419,-164.5 419,-145.5 375,-145.5"/>
<text text-anchor="middle" x="397" y="-152.5" font-family="Helvetica,sans-Serif" font-size="10.00">TBB.h</text>
</g>
<!-- Node1 -->
<g id="node2" class="node"><title>Node1</title>
<g id="a_node2"><a xlink:href="Config_8h.html" target="_top" xlink:title="hydra/detail/Config.h">
<polygon fill="none" stroke="black" points="119.5,-84 119.5,-103 226.5,-103 226.5,-84 119.5,-84"/>
<text text-anchor="middle" x="173" y="-91" font-family="Helvetica,sans-Serif" font-size="10.00">hydra/detail/Config.h</text>
</a>
</g>
</g>
<!-- Node0&#45;&gt;Node1 -->
<g id="edge1" class="edge"><title>Node0&#45;&gt;Node1</title>
<path fill="none" stroke="midnightblue" d="M374.703,-148.077C337.589,-138.219 262.547,-118.286 215.193,-105.708"/>
<polygon fill="midnightblue" stroke="midnightblue" points="215.806,-102.249 205.243,-103.064 214.009,-109.014 215.806,-102.249"/>
</g>
<!-- Node4 -->
<g id="node5" class="node"><title>Node4</title>
<g id="a_node5"><a xlink:href="BackendPolicy_8h.html" target="_top" xlink:title="hydra/detail/BackendPolicy.h">
<polygon fill="none" stroke="black" points="244.5,-84 244.5,-103 387.5,-103 387.5,-84 244.5,-84"/>
<text text-anchor="middle" x="316" y="-91" font-family="Helvetica,sans-Serif" font-size="10.00">hydra/detail/BackendPolicy.h</text>
</a>
</g>
</g>
<!-- Node0&#45;&gt;Node4 -->
<g id="edge4" class="edge"><title>Node0&#45;&gt;Node4</title>
<path fill="none" stroke="midnightblue" d="M385.395,-145.475C372.523,-136.02 351.526,-120.596 335.994,-109.187"/>
<polygon fill="midnightblue" stroke="midnightblue" points="337.715,-106.108 327.584,-103.009 333.571,-111.75 337.715,-106.108"/>
</g>
<!-- Node6 -->
<g id="node7" class="node"><title>Node6</title>
<polygon fill="none" stroke="#bfbfbf" points="405.5,-78.5 405.5,-108.5 552.5,-108.5 552.5,-78.5 405.5,-78.5"/>
<text text-anchor="start" x="413.5" y="-96.5" font-family="Helvetica,sans-Serif" font-size="10.00">hydra/detail/external</text>
<text text-anchor="middle" x="479" y="-85.5" font-family="Helvetica,sans-Serif" font-size="10.00">/thrust/system/tbb/detail/par.h</text>
</g>
<!-- Node0&#45;&gt;Node6 -->
<g id="edge6" class="edge"><title>Node0&#45;&gt;Node6</title>
<path fill="none" stroke="midnightblue" d="M408.749,-145.475C419.854,-137.417 436.935,-125.023 451.473,-114.474"/>
<polygon fill="midnightblue" stroke="midnightblue" points="453.636,-117.229 459.674,-108.523 449.525,-111.563 453.636,-117.229"/>
</g>
<!-- Node7 -->
<g id="node8" class="node"><title>Node7</title>
<polygon fill="none" stroke="#bfbfbf" points="571,-78.5 571,-108.5 705,-108.5 705,-78.5 571,-78.5"/>
<text text-anchor="start" x="579" y="-96.5" font-family="Helvetica,sans-Serif" font-size="10.00">hydra/detail/external</text>
<text text-anchor="middle" x="638" y="-85.5" font-family="Helvetica,sans-Serif" font-size="10.00">/thrust/system/tbb/vector.h</text>
</g>
<!-- Node0&#45;&gt;Node7 -->
<g id="edge7" class="edge"><title>Node0&#45;&gt;Node7</title>
<path fill="none" stroke="midnightblue" d="M419.241,-148.509C453.434,-140.067 520.289,-123.562 571.136,-111.008"/>
<polygon fill="midnightblue" stroke="midnightblue" points="572.208,-114.349 581.077,-108.554 570.53,-107.553 572.208,-114.349"/>
</g>
<!-- Node2 -->
<g id="node3" class="node"><title>Node2</title>
<polygon fill="none" stroke="#bfbfbf" points="0,-6 0,-36 108,-36 108,-6 0,-6"/>
<text text-anchor="start" x="8" y="-24" font-family="Helvetica,sans-Serif" font-size="10.00">hydra/detail/external</text>
<text text-anchor="middle" x="54" y="-13" font-family="Helvetica,sans-Serif" font-size="10.00">/thrust/detail/config.h</text>
</g>
<!-- Node1&#45;&gt;Node2 -->
<g id="edge2" class="edge"><title>Node1&#45;&gt;Node2</title>
<path fill="none" stroke="midnightblue" d="M158.408,-83.8553C140.578,-73.2918 109.883,-55.1073 86.3756,-41.1805"/>
<polygon fill="midnightblue" stroke="midnightblue" points="88.1472,-38.162 77.7597,-36.0762 84.5793,-44.1845 88.1472,-38.162"/>
</g>
<!-- Node3 -->
<g id="node4" class="node"><title>Node3</title>
<polygon fill="none" stroke="#bfbfbf" points="126,-0.5 126,-41.5 230,-41.5 230,-0.5 126,-0.5"/>
<text text-anchor="start" x="134" y="-29.5" font-family="Helvetica,sans-Serif" font-size="10.00">hydra/detail/external</text>
<text text-anchor="start" x="134" y="-18.5" font-family="Helvetica,sans-Serif" font-size="10.00">/thrust/detail/config</text>
<text text-anchor="middle" x="178" y="-7.5" font-family="Helvetica,sans-Serif" font-size="10.00">/host_device.h</text>
</g>
<!-- Node1&#45;&gt;Node3 -->
<g id="edge3" class="edge"><title>Node1&#45;&gt;Node3</title>
<path fill="none" stroke="midnightblue" d="M173.613,-83.8553C174.18,-75.8604 175.057,-63.5002 175.878,-51.9243"/>
<polygon fill="midnightblue" stroke="midnightblue" points="179.389,-51.8842 176.606,-41.6616 172.407,-51.3889 179.389,-51.8842"/>
</g>
<!-- Node5 -->
<g id="node6" class="node"><title>Node5</title>
<polygon fill="none" stroke="#bfbfbf" points="252,-6 252,-36 380,-36 380,-6 252,-6"/>
<text text-anchor="start" x="260" y="-24" font-family="Helvetica,sans-Serif" font-size="10.00">hydra/detail/external</text>
<text text-anchor="middle" x="316" y="-13" font-family="Helvetica,sans-Serif" font-size="10.00">/thrust/execution_policy.h</text>
</g>
<!-- Node4&#45;&gt;Node5 -->
<g id="edge5" class="edge"><title>Node4&#45;&gt;Node5</title>
<path fill="none" stroke="midnightblue" d="M316,-83.8553C316,-74.5483 316,-59.3253 316,-46.3107"/>
<polygon fill="midnightblue" stroke="midnightblue" points="319.5,-46.0761 316,-36.0762 312.5,-46.0762 319.5,-46.0761"/>
</g>
</g>
</svg>
