<?xml version="1.0" encoding="UTF-8" standalone="no"?>
<!DOCTYPE svg PUBLIC "-//W3C//DTD SVG 1.1//EN"
 "http://www.w3.org/Graphics/SVG/1.1/DTD/svg11.dtd">
<!-- Generated by graphviz version 2.40.1 (20161225.0304)
 -->
<!-- Title: TriangularShape.h Pages: 1 -->
<svg width="3102pt" height="709pt"
 viewBox="0.00 0.00 3102.00 709.00" xmlns="http://www.w3.org/2000/svg" xmlns:xlink="http://www.w3.org/1999/xlink">
<g id="graph0" class="graph" transform="scale(1 1) rotate(0) translate(4 705)">
<title>TriangularShape.h</title>
<!-- Node0 -->
<g id="node1" class="node">
<title>Node0</title>
<polygon fill="#bfbfbf" stroke="#000000" points="1513.5,-681.5 1513.5,-700.5 1608.5,-700.5 1608.5,-681.5 1513.5,-681.5"/>
<text text-anchor="middle" x="1561" y="-688.5" font-family="Helvetica,sans-Serif" font-size="10.00" fill="#000000">TriangularShape.h</text>
</g>
<!-- Node1 -->
<g id="node2" class="node">
<title>Node1</title>
<g id="a_node2"><a xlink:href="Config_8h.html" target="_top" xlink:title="hydra/detail/Config.h">
<polygon fill="none" stroke="#000000" points="824,-78.5 824,-97.5 930,-97.5 930,-78.5 824,-78.5"/>
<text text-anchor="middle" x="877" y="-85.5" font-family="Helvetica,sans-Serif" font-size="10.00" fill="#000000">hydra/detail/Config.h</text>
</a>
</g>
</g>
<!-- Node0&#45;&gt;Node1 -->
<g id="edge1" class="edge">
<title>Node0&#45;&gt;Node1</title>
<path fill="none" stroke="#191970" d="M1513.1118,-690.7006C1263.0844,-688.9918 116.4674,-679.3042 50,-645 17.2981,-628.1223 0,-615.8004 0,-579 0,-579 0,-579 0,-222 0,-139.6334 612.3009,-101.3572 813.6626,-90.9966"/>
<polygon fill="#191970" stroke="#191970" points="813.9786,-94.4852 823.7878,-90.4814 813.6228,-87.4942 813.9786,-94.4852"/>
</g>
<!-- Node4 -->
<g id="node5" class="node">
<title>Node4</title>
<g id="a_node5"><a xlink:href="BackendPolicy_8h.html" target="_top" xlink:title="hydra/detail/BackendPolicy.h">
<polygon fill="none" stroke="#000000" points="1249.5,-625.5 1249.5,-644.5 1392.5,-644.5 1392.5,-625.5 1249.5,-625.5"/>
<text text-anchor="middle" x="1321" y="-632.5" font-family="Helvetica,sans-Serif" font-size="10.00" fill="#000000">hydra/detail/BackendPolicy.h</text>
</a>
</g>
</g>
<!-- Node0&#45;&gt;Node4 -->
<g id="edge4" class="edge">
<title>Node0&#45;&gt;Node4</title>
<path fill="none" stroke="#191970" d="M1520.0152,-681.4369C1479.0274,-671.8731 1415.8996,-657.1432 1371.7643,-646.845"/>
<polygon fill="#191970" stroke="#191970" points="1372.3495,-643.3876 1361.8157,-644.5237 1370.7588,-650.2045 1372.3495,-643.3876"/>
</g>
<!-- Node6 -->
<g id="node7" class="node">
<title>Node6</title>
<g id="a_node7"><a xlink:href="Types_8h.html" target="_top" xlink:title="Common and useful typedefs. ">
<polygon fill="none" stroke="#000000" points="2098.5,-78.5 2098.5,-97.5 2177.5,-97.5 2177.5,-78.5 2098.5,-78.5"/>
<text text-anchor="middle" x="2138" y="-85.5" font-family="Helvetica,sans-Serif" font-size="10.00" fill="#000000">hydra/Types.h</text>
</a>
</g>
</g>
<!-- Node0&#45;&gt;Node6 -->
<g id="edge6" class="edge">
<title>Node0&#45;&gt;Node6</title>
<path fill="none" stroke="#191970" d="M1608.5302,-689.2726C1759.3536,-683.6406 2226.0459,-665.0169 2376,-645 2506.1635,-627.6249 2664,-710.3181 2664,-579 2664,-579 2664,-579 2664,-512 2664,-322.7585 2630.4814,-231.0162 2468,-134 2362.6398,-71.0903 2313.7231,-116.1799 2187.5544,-97.8907"/>
<polygon fill="#191970" stroke="#191970" points="2187.9535,-94.4107 2177.5338,-96.3292 2186.8757,-101.3273 2187.9535,-94.4107"/>
</g>
<!-- Node7 -->
<g id="node8" class="node">
<title>Node7</title>
<g id="a_node8"><a xlink:href="Function_8h.html" target="_top" xlink:title="hydra/Function.h">
<polygon fill="none" stroke="#000000" points="1478.5,-625.5 1478.5,-644.5 1567.5,-644.5 1567.5,-625.5 1478.5,-625.5"/>
<text text-anchor="middle" x="1523" y="-632.5" font-family="Helvetica,sans-Serif" font-size="10.00" fill="#000000">hydra/Function.h</text>
</a>
</g>
</g>
<!-- Node0&#45;&gt;Node7 -->
<g id="edge7" class="edge">
<title>Node0&#45;&gt;Node7</title>
<path fill="none" stroke="#191970" d="M1554.3809,-681.2455C1549.0954,-673.4564 1541.5459,-662.3308 1535.1762,-652.9439"/>
<polygon fill="#191970" stroke="#191970" points="1538.0545,-650.9522 1529.5432,-644.6427 1532.2621,-654.8827 1538.0545,-650.9522"/>
</g>
<!-- Node12 -->
<g id="node13" class="node">
<title>Node12</title>
<polygon fill="none" stroke="#bfbfbf" points="1000,-352 1000,-371 1038,-371 1038,-352 1000,-352"/>
<text text-anchor="middle" x="1019" y="-359" font-family="Helvetica,sans-Serif" font-size="10.00" fill="#000000">tuple</text>
</g>
<!-- Node0&#45;&gt;Node12 -->
<g id="edge137" class="edge">
<title>Node0&#45;&gt;Node12</title>
<path fill="none" stroke="#191970" d="M1513.4172,-689.0799C1291.1615,-679.8044 366,-637.6704 366,-579 366,-579 366,-579 366,-512 366,-467.197 351.6474,-442.915 385,-413 430.4902,-372.1984 871.2645,-363.4529 989.7838,-361.8327"/>
<polygon fill="#191970" stroke="#191970" points="989.9661,-365.3307 999.9198,-361.701 989.8751,-358.3313 989.9661,-365.3307"/>
</g>
<!-- Node16 -->
<g id="node17" class="node">
<title>Node16</title>
<polygon fill="none" stroke="#bfbfbf" points="158.5,-352 158.5,-371 207.5,-371 207.5,-352 158.5,-352"/>
<text text-anchor="middle" x="183" y="-359" font-family="Helvetica,sans-Serif" font-size="10.00" fill="#000000">cassert</text>
</g>
<!-- Node0&#45;&gt;Node16 -->
<g id="edge140" class="edge">
<title>Node0&#45;&gt;Node16</title>
<path fill="none" stroke="#191970" d="M1513.2733,-689.9569C1259.0931,-684.0955 76,-652.8468 76,-579 76,-579 76,-579 76,-512 76,-467.197 69.1336,-449.582 95,-413 108.0543,-394.5378 129.9901,-381.6779 148.6944,-373.426"/>
<polygon fill="#191970" stroke="#191970" points="150.2159,-376.5843 158.1168,-369.5255 147.5385,-370.1165 150.2159,-376.5843"/>
</g>
<!-- Node18 -->
<g id="node19" class="node">
<title>Node18</title>
<g id="a_node19"><a xlink:href="Integrator_8h.html" target="_top" xlink:title="hydra/Integrator.h">
<polygon fill="none" stroke="#000000" points="638.5,-502.5 638.5,-521.5 731.5,-521.5 731.5,-502.5 638.5,-502.5"/>
<text text-anchor="middle" x="685" y="-509.5" font-family="Helvetica,sans-Serif" font-size="10.00" fill="#000000">hydra/Integrator.h</text>
</a>
</g>
</g>
<!-- Node0&#45;&gt;Node18 -->
<g id="edge125" class="edge">
<title>Node0&#45;&gt;Node18</title>
<path fill="none" stroke="#191970" d="M1513.2607,-686.6681C1404.5334,-676.1265 1130.6553,-645.7445 908,-589 838.9599,-571.4049 760.7828,-542.1696 717.7624,-525.2368"/>
<polygon fill="#191970" stroke="#191970" points="718.9562,-521.9451 708.37,-521.5151 716.3775,-528.4528 718.9562,-521.9451"/>
</g>
<!-- Node19 -->
<g id="node20" class="node">
<title>Node19</title>
<polygon fill="none" stroke="#bfbfbf" points="2692,-424.5 2692,-443.5 2732,-443.5 2732,-424.5 2692,-424.5"/>
<text text-anchor="middle" x="2712" y="-431.5" font-family="Helvetica,sans-Serif" font-size="10.00" fill="#000000">utility</text>
</g>
<!-- Node0&#45;&gt;Node19 -->
<g id="edge141" class="edge">
<title>Node0&#45;&gt;Node19</title>
<path fill="none" stroke="#191970" d="M1608.8262,-690.7023C1817.2337,-689.1936 2637.476,-680.9817 2678,-645 2733.0145,-596.152 2723.2044,-496.3929 2715.9841,-453.8919"/>
<polygon fill="#191970" stroke="#191970" points="2719.4066,-453.1506 2714.1586,-443.9469 2712.5216,-454.4145 2719.4066,-453.1506"/>
</g>
<!-- Node21 -->
<g id="node22" class="node">
<title>Node21</title>
<polygon fill="none" stroke="#bfbfbf" points="55.5,-352 55.5,-371 114.5,-371 114.5,-352 55.5,-352"/>
<text text-anchor="middle" x="85" y="-359" font-family="Helvetica,sans-Serif" font-size="10.00" fill="#000000">stdexcept</text>
</g>
<!-- Node0&#45;&gt;Node21 -->
<g id="edge139" class="edge">
<title>Node0&#45;&gt;Node21</title>
<path fill="none" stroke="#191970" d="M1513.3941,-690.0516C1293.5339,-685.5728 381.7269,-665.8845 256,-645 156.1365,-628.4116 38,-680.2319 38,-579 38,-579 38,-579 38,-512 38,-462.5106 61.4423,-407.8586 75.2152,-380.02"/>
<polygon fill="#191970" stroke="#191970" points="78.3711,-381.5354 79.7906,-371.036 72.1335,-378.3586 78.3711,-381.5354"/>
</g>
<!-- Node24 -->
<g id="node25" class="node">
<title>Node24</title>
<g id="a_node25"><a xlink:href="Parameter_8h.html" target="_top" xlink:title="hydra/Parameter.h">
<polygon fill="none" stroke="#000000" points="1474.5,-424.5 1474.5,-443.5 1571.5,-443.5 1571.5,-424.5 1474.5,-424.5"/>
<text text-anchor="middle" x="1523" y="-431.5" font-family="Helvetica,sans-Serif" font-size="10.00" fill="#000000">hydra/Parameter.h</text>
</a>
</g>
</g>
<!-- Node0&#45;&gt;Node24 -->
<g id="edge131" class="edge">
<title>Node0&#45;&gt;Node24</title>
<path fill="none" stroke="#191970" d="M1565.411,-681.3802C1569.3419,-672.2426 1574.8026,-658.0061 1577,-645 1578.4808,-636.2353 1578.2207,-633.8047 1577,-625 1568.0753,-560.6286 1542.9943,-487.4444 1530.4044,-453.3659"/>
<polygon fill="#191970" stroke="#191970" points="1533.5814,-451.8698 1526.792,-443.7363 1527.0274,-454.3285 1533.5814,-451.8698"/>
</g>
<!-- Node42 -->
<g id="node43" class="node">
<title>Node42</title>
<polygon fill="none" stroke="#bfbfbf" points="2060,-279.5 2060,-298.5 2100,-298.5 2100,-279.5 2060,-279.5"/>
<text text-anchor="middle" x="2080" y="-286.5" font-family="Helvetica,sans-Serif" font-size="10.00" fill="#000000">limits</text>
</g>
<!-- Node0&#45;&gt;Node42 -->
<g id="edge138" class="edge">
<title>Node0&#45;&gt;Node42</title>
<path fill="none" stroke="#191970" d="M1608.571,-689.6222C1794.372,-683.7596 2463.9499,-657.9544 2526,-589 2548.7989,-563.6642 2542.0826,-543.8496 2493,-491 2441.3281,-435.3624 2412.1809,-439.4351 2341,-413 2277.1344,-389.2816 2253.3003,-406.7263 2192,-377 2154.0893,-358.616 2117.0298,-325.7221 2096.4816,-305.7762"/>
<polygon fill="#191970" stroke="#191970" points="2098.7792,-303.1258 2089.2082,-298.5818 2093.8565,-308.1025 2098.7792,-303.1258"/>
</g>
<!-- Node56 -->
<g id="node57" class="node">
<title>Node56</title>
<g id="a_node57"><a xlink:href="Pdf_8h.html" target="_top" xlink:title="hydra/Pdf.h">
<polygon fill="none" stroke="#000000" points="1957.5,-569.5 1957.5,-588.5 2024.5,-588.5 2024.5,-569.5 1957.5,-569.5"/>
<text text-anchor="middle" x="1991" y="-576.5" font-family="Helvetica,sans-Serif" font-size="10.00" fill="#000000">hydra/Pdf.h</text>
</a>
</g>
</g>
<!-- Node0&#45;&gt;Node56 -->
<g id="edge110" class="edge">
<title>Node0&#45;&gt;Node56</title>
<path fill="none" stroke="#191970" d="M1597.6616,-681.4509C1676.7031,-660.8634 1862.845,-612.3799 1947.6014,-590.3038"/>
<polygon fill="#191970" stroke="#191970" points="1948.626,-593.6538 1957.421,-587.7462 1946.8616,-586.8798 1948.626,-593.6538"/>
</g>
<!-- Node58 -->
<g id="node59" class="node">
<title>Node58</title>
<g id="a_node59"><a xlink:href="CheckValue_8h.html" target="_top" xlink:title="hydra/detail/utility\l/CheckValue.h">
<polygon fill="none" stroke="#000000" points="2730.5,-497 2730.5,-527 2823.5,-527 2823.5,-497 2730.5,-497"/>
<text text-anchor="start" x="2738.5" y="-515" font-family="Helvetica,sans-Serif" font-size="10.00" fill="#000000">hydra/detail/utility</text>
<text text-anchor="middle" x="2777" y="-504" font-family="Helvetica,sans-Serif" font-size="10.00" fill="#000000">/CheckValue.h</text>
</a>
</g>
</g>
<!-- Node0&#45;&gt;Node58 -->
<g id="edge126" class="edge">
<title>Node0&#45;&gt;Node58</title>
<path fill="none" stroke="#191970" d="M1608.7955,-690.4854C1820.9803,-688.0245 2669.3443,-676.2582 2716,-645 2752.4355,-620.5891 2767.4704,-568.6141 2773.3985,-537.3553"/>
<polygon fill="#191970" stroke="#191970" points="2776.8922,-537.69 2775.1357,-527.2418 2769.9933,-536.5049 2776.8922,-537.69"/>
</g>
<!-- Node61 -->
<g id="node62" class="node">
<title>Node61</title>
<g id="a_node62"><a xlink:href="Tuple_8h.html" target="_top" xlink:title="hydra/Tuple.h">
<polygon fill="none" stroke="#000000" points="2938,-502.5 2938,-521.5 3014,-521.5 3014,-502.5 2938,-502.5"/>
<text text-anchor="middle" x="2976" y="-509.5" font-family="Helvetica,sans-Serif" font-size="10.00" fill="#000000">hydra/Tuple.h</text>
</a>
</g>
</g>
<!-- Node0&#45;&gt;Node61 -->
<g id="edge132" class="edge">
<title>Node0&#45;&gt;Node61</title>
<path fill="none" stroke="#191970" d="M1608.5489,-690.4643C1815.2186,-687.9574 2630.0018,-676.1659 2740,-645 2827.0805,-620.3274 2916.6038,-557.5896 2955.6869,-527.9596"/>
<polygon fill="#191970" stroke="#191970" points="2957.8641,-530.7007 2963.6661,-521.8358 2953.6022,-525.1476 2957.8641,-530.7007"/>
</g>
<!-- Node2 -->
<g id="node3" class="node">
<title>Node2</title>
<polygon fill="none" stroke="#bfbfbf" points="761,-6 761,-36 869,-36 869,-6 761,-6"/>
<text text-anchor="start" x="769" y="-24" font-family="Helvetica,sans-Serif" font-size="10.00" fill="#000000">hydra/detail/external</text>
<text text-anchor="middle" x="815" y="-13" font-family="Helvetica,sans-Serif" font-size="10.00" fill="#000000">/thrust/detail/config.h</text>
</g>
<!-- Node1&#45;&gt;Node2 -->
<g id="edge2" class="edge">
<title>Node1&#45;&gt;Node2</title>
<path fill="none" stroke="#191970" d="M868.1169,-78.4005C859.712,-69.3178 846.7812,-55.3442 835.7825,-43.4585"/>
<polygon fill="#191970" stroke="#191970" points="838.2615,-40.9842 828.9007,-36.0218 833.1238,-45.7386 838.2615,-40.9842"/>
</g>
<!-- Node3 -->
<g id="node4" class="node">
<title>Node3</title>
<polygon fill="none" stroke="#bfbfbf" points="887,-.5 887,-41.5 991,-41.5 991,-.5 887,-.5"/>
<text text-anchor="start" x="895" y="-29.5" font-family="Helvetica,sans-Serif" font-size="10.00" fill="#000000">hydra/detail/external</text>
<text text-anchor="start" x="895" y="-18.5" font-family="Helvetica,sans-Serif" font-size="10.00" fill="#000000">/thrust/detail/config</text>
<text text-anchor="middle" x="939" y="-7.5" font-family="Helvetica,sans-Serif" font-size="10.00" fill="#000000">/host_device.h</text>
</g>
<!-- Node1&#45;&gt;Node3 -->
<g id="edge3" class="edge">
<title>Node1&#45;&gt;Node3</title>
<path fill="none" stroke="#191970" d="M885.8831,-78.4005C892.9962,-70.7137 903.3511,-59.5239 913.0329,-49.0612"/>
<polygon fill="#191970" stroke="#191970" points="915.6849,-51.3486 919.9079,-41.6318 910.5471,-46.5942 915.6849,-51.3486"/>
</g>
<!-- Node5 -->
<g id="node6" class="node">
<title>Node5</title>
<polygon fill="none" stroke="#bfbfbf" points="1164,-274 1164,-304 1292,-304 1292,-274 1164,-274"/>
<text text-anchor="start" x="1172" y="-292" font-family="Helvetica,sans-Serif" font-size="10.00" fill="#000000">hydra/detail/external</text>
<text text-anchor="middle" x="1228" y="-281" font-family="Helvetica,sans-Serif" font-size="10.00" fill="#000000">/thrust/execution_policy.h</text>
</g>
<!-- Node4&#45;&gt;Node5 -->
<g id="edge5" class="edge">
<title>Node4&#45;&gt;Node5</title>
<path fill="none" stroke="#191970" d="M1318.4156,-625.3849C1306.1379,-579.7066 1253.5196,-383.9439 1234.7141,-313.9794"/>
<polygon fill="#191970" stroke="#191970" points="1238.0712,-312.9852 1232.0954,-304.2365 1231.3111,-314.8022 1238.0712,-312.9852"/>
</g>
<!-- Node7&#45;&gt;Node1 -->
<g id="edge8" class="edge">
<title>Node7&#45;&gt;Node1</title>
<path fill="none" stroke="#191970" d="M1478.472,-631.216C1455.6159,-629.3001 1427.3232,-626.9691 1402,-625 1182.5247,-607.9341 1126.1225,-618.719 908,-589 782.6847,-571.9259 752.1554,-561.7784 629,-533 464.5795,-494.5789 290,-530.3498 290,-361.5 290,-361.5 290,-361.5 290,-222 290,-173.6392 311.9087,-157.8137 354,-134 393.1514,-111.8496 682.9038,-96.5079 813.4957,-90.6453"/>
<polygon fill="#191970" stroke="#191970" points="813.9124,-94.1303 823.7472,-90.1899 813.6016,-87.1372 813.9124,-94.1303"/>
</g>
<!-- Node7&#45;&gt;Node6 -->
<g id="edge9" class="edge">
<title>Node7&#45;&gt;Node6</title>
<path fill="none" stroke="#191970" d="M1514.6506,-625.072C1487.7534,-592.3427 1403.5232,-483.8328 1376,-377 1363.1637,-327.1749 1374.9186,-300.2613 1415,-268 1465.7192,-227.1763 1494.4248,-249.9822 1557,-232 1635.0797,-209.5622 1661.6726,-218.351 1731,-176 1753.5278,-162.2381 1749.2916,-145.6103 1773,-134 1827.4309,-107.3446 2001.7603,-94.9296 2088.3,-90.2905"/>
<polygon fill="#191970" stroke="#191970" points="2088.6006,-93.7797 2098.4045,-89.7629 2088.2356,-86.7892 2088.6006,-93.7797"/>
</g>
<!-- Node8 -->
<g id="node9" class="node">
<title>Node8</title>
<g id="a_node9"><a xlink:href="Print_8h.html" target="_top" xlink:title="hydra/detail/Print.h">
<polygon fill="none" stroke="#000000" points="1083,-502.5 1083,-521.5 1181,-521.5 1181,-502.5 1083,-502.5"/>
<text text-anchor="middle" x="1132" y="-509.5" font-family="Helvetica,sans-Serif" font-size="10.00" fill="#000000">hydra/detail/Print.h</text>
</a>
</g>
</g>
<!-- Node7&#45;&gt;Node8 -->
<g id="edge10" class="edge">
<title>Node7&#45;&gt;Node8</title>
<path fill="none" stroke="#191970" d="M1478.1496,-630.6585C1428.2141,-624.8965 1345.6326,-612.5792 1278,-589 1232.2956,-573.0658 1183.3447,-544.6382 1155.3274,-527.1397"/>
<polygon fill="#191970" stroke="#191970" points="1156.9855,-524.0471 1146.6634,-521.6583 1153.2429,-529.9626 1156.9855,-524.0471"/>
</g>
<!-- Node11 -->
<g id="node12" class="node">
<title>Node11</title>
<polygon fill="none" stroke="#bfbfbf" points="2288,-212.5 2288,-231.5 2326,-231.5 2326,-212.5 2288,-212.5"/>
<text text-anchor="middle" x="2307" y="-219.5" font-family="Helvetica,sans-Serif" font-size="10.00" fill="#000000">array</text>
</g>
<!-- Node7&#45;&gt;Node11 -->
<g id="edge107" class="edge">
<title>Node7&#45;&gt;Node11</title>
<path fill="none" stroke="#191970" d="M1567.7157,-633.7669C1750.0746,-628.2824 2430.841,-603.2036 2493,-533 2581.4079,-433.1504 2395.8664,-285.4174 2329.4473,-237.5658"/>
<polygon fill="#191970" stroke="#191970" points="2331.434,-234.6839 2321.257,-231.7379 2327.3756,-240.3874 2331.434,-234.6839"/>
</g>
<!-- Node17 -->
<g id="node18" class="node">
<title>Node17</title>
<polygon fill="none" stroke="#bfbfbf" points="1276,-352 1276,-371 1328,-371 1328,-352 1276,-352"/>
<text text-anchor="middle" x="1302" y="-359" font-family="Helvetica,sans-Serif" font-size="10.00" fill="#000000">memory</text>
</g>
<!-- Node7&#45;&gt;Node17 -->
<g id="edge109" class="edge">
<title>Node7&#45;&gt;Node17</title>
<path fill="none" stroke="#191970" d="M1478.2746,-628.1361C1434.2012,-620.4706 1371.0552,-606.7699 1354,-589 1298.1153,-530.7734 1297.7162,-425.4163 1300.2903,-381.5299"/>
<polygon fill="#191970" stroke="#191970" points="1303.7985,-381.5372 1301.0141,-371.3148 1296.816,-381.0424 1303.7985,-381.5372"/>
</g>
<!-- Node7&#45;&gt;Node18 -->
<g id="edge23" class="edge">
<title>Node7&#45;&gt;Node18</title>
<path fill="none" stroke="#191970" d="M1478.3487,-631.1343C1377.1835,-622.2967 1132.9421,-600.4946 1051,-589 914.5148,-569.8543 879.3101,-567.9741 746,-533 737.3568,-530.7324 728.1763,-527.8387 719.6329,-524.9292"/>
<polygon fill="#191970" stroke="#191970" points="720.5615,-521.546 709.9667,-521.5431 718.2472,-528.1524 720.5615,-521.546"/>
</g>
<!-- Node7&#45;&gt;Node24 -->
<g id="edge32" class="edge">
<title>Node7&#45;&gt;Node24</title>
<path fill="none" stroke="#191970" d="M1523,-625.3054C1523,-594.1298 1523,-496.0298 1523,-453.7302"/>
<polygon fill="#191970" stroke="#191970" points="1526.5001,-453.5973 1523,-443.5974 1519.5001,-453.5974 1526.5001,-453.5973"/>
</g>
<!-- Node32 -->
<g id="node33" class="node">
<title>Node32</title>
<polygon fill="none" stroke="#bfbfbf" points="2650,-6 2650,-36 2754,-36 2754,-6 2650,-6"/>
<text text-anchor="start" x="2658" y="-24" font-family="Helvetica,sans-Serif" font-size="10.00" fill="#000000">hydra/detail/external</text>
<text text-anchor="middle" x="2702" y="-13" font-family="Helvetica,sans-Serif" font-size="10.00" fill="#000000">/thrust/tuple.h</text>
</g>
<!-- Node7&#45;&gt;Node32 -->
<g id="edge105" class="edge">
<title>Node7&#45;&gt;Node32</title>
<path fill="none" stroke="#191970" d="M1567.7686,-633.6674C1737.7414,-628.4763 2337.7322,-608.9101 2421,-589 2480.6017,-574.7487 2501.064,-573.5628 2547,-533 2696.573,-400.9228 2704.2597,-129.902 2702.8666,-46.1925"/>
<polygon fill="#191970" stroke="#191970" points="2706.3631,-45.9973 2702.6361,-36.0796 2699.365,-46.1568 2706.3631,-45.9973"/>
</g>
<!-- Node33 -->
<g id="node34" class="node">
<title>Node33</title>
<polygon fill="none" stroke="#bfbfbf" points="2459.5,-.5 2459.5,-41.5 2608.5,-41.5 2608.5,-.5 2459.5,-.5"/>
<text text-anchor="start" x="2467.5" y="-29.5" font-family="Helvetica,sans-Serif" font-size="10.00" fill="#000000">hydra/detail/external</text>
<text text-anchor="start" x="2467.5" y="-18.5" font-family="Helvetica,sans-Serif" font-size="10.00" fill="#000000">/thrust/iterator/detail</text>
<text text-anchor="middle" x="2534" y="-7.5" font-family="Helvetica,sans-Serif" font-size="10.00" fill="#000000">/tuple_of_iterator_references.h</text>
</g>
<!-- Node7&#45;&gt;Node33 -->
<g id="edge103" class="edge">
<title>Node7&#45;&gt;Node33</title>
<path fill="none" stroke="#191970" d="M1567.675,-634.0352C1716.5268,-630.5809 2194.7322,-617.4894 2346,-589 2424.5899,-574.1986 2463.0431,-592.0264 2517,-533 2649.0262,-388.5692 2575.3437,-293.4429 2585,-98 2585.4386,-89.1219 2588.1725,-86.3035 2585,-78 2580.9361,-67.3634 2573.8726,-57.4572 2566.2749,-48.9854"/>
<polygon fill="#191970" stroke="#191970" points="2568.6663,-46.4224 2559.218,-41.6287 2563.6147,-51.2682 2568.6663,-46.4224"/>
</g>
<!-- Node43 -->
<g id="node44" class="node">
<title>Node43</title>
<polygon fill="none" stroke="#bfbfbf" points="1424,-274 1424,-304 1552,-304 1552,-274 1424,-274"/>
<text text-anchor="start" x="1432" y="-292" font-family="Helvetica,sans-Serif" font-size="10.00" fill="#000000">hydra/detail/external</text>
<text text-anchor="middle" x="1488" y="-281" font-family="Helvetica,sans-Serif" font-size="10.00" fill="#000000">/thrust/detail/type_traits.h</text>
</g>
<!-- Node7&#45;&gt;Node43 -->
<g id="edge106" class="edge">
<title>Node7&#45;&gt;Node43</title>
<path fill="none" stroke="#191970" d="M1518.8381,-625.4953C1507.5341,-599.0961 1476.4139,-522.3812 1466,-455 1463.1489,-436.5524 1464.3632,-431.5948 1466,-413 1469.0394,-378.4706 1476.7517,-339.1518 1482.1835,-314.2186"/>
<polygon fill="#191970" stroke="#191970" points="1485.6668,-314.6784 1484.4226,-304.1568 1478.8339,-313.1578 1485.6668,-314.6784"/>
</g>
<!-- Node47 -->
<g id="node48" class="node">
<title>Node47</title>
<g id="a_node48"><a xlink:href="Utility__Tuple_8h.html" target="_top" xlink:title="hydra/detail/utility\l/Utility_Tuple.h">
<polygon fill="none" stroke="#000000" points="1682.5,-497 1682.5,-527 1775.5,-527 1775.5,-497 1682.5,-497"/>
<text text-anchor="start" x="1690.5" y="-515" font-family="Helvetica,sans-Serif" font-size="10.00" fill="#000000">hydra/detail/utility</text>
<text text-anchor="middle" x="1729" y="-504" font-family="Helvetica,sans-Serif" font-size="10.00" fill="#000000">/Utility_Tuple.h</text>
</a>
</g>
</g>
<!-- Node7&#45;&gt;Node47 -->
<g id="edge76" class="edge">
<title>Node7&#45;&gt;Node47</title>
<path fill="none" stroke="#191970" d="M1539.1645,-625.3484C1572.6178,-605.3739 1650.0659,-559.1305 1695.0205,-532.2887"/>
<polygon fill="#191970" stroke="#191970" points="1697.0325,-535.1639 1703.8241,-527.0322 1693.4438,-529.1537 1697.0325,-535.1639"/>
</g>
<!-- Node49 -->
<g id="node50" class="node">
<title>Node49</title>
<g id="a_node50"><a xlink:href="FunctorTraits_8h.html" target="_top" xlink:title="hydra/detail/FunctorTraits.h">
<polygon fill="none" stroke="#000000" points="2196,-424.5 2196,-443.5 2332,-443.5 2332,-424.5 2196,-424.5"/>
<text text-anchor="middle" x="2264" y="-431.5" font-family="Helvetica,sans-Serif" font-size="10.00" fill="#000000">hydra/detail/FunctorTraits.h</text>
</a>
</g>
</g>
<!-- Node7&#45;&gt;Node49 -->
<g id="edge92" class="edge">
<title>Node7&#45;&gt;Node49</title>
<path fill="none" stroke="#191970" d="M1563.9644,-625.3833C1618.055,-611.3338 1714.6595,-581.4649 1785,-533 1805.729,-518.7176 1800.5298,-502.3477 1823,-491 1966.1384,-418.7132 2024.1025,-482.9709 2182,-455 2195.0164,-452.6942 2209.0098,-449.416 2221.6864,-446.1335"/>
<polygon fill="#191970" stroke="#191970" points="2222.7611,-449.4694 2231.5267,-443.5185 2220.9632,-442.7042 2222.7611,-449.4694"/>
</g>
<!-- Node50 -->
<g id="node51" class="node">
<title>Node50</title>
<g id="a_node51"><a xlink:href="Parameters_8h.html" target="_top" xlink:title="hydra/detail/Parameters.h">
<polygon fill="none" stroke="#000000" points="1060,-569.5 1060,-588.5 1188,-588.5 1188,-569.5 1060,-569.5"/>
<text text-anchor="middle" x="1124" y="-576.5" font-family="Helvetica,sans-Serif" font-size="10.00" fill="#000000">hydra/detail/Parameters.h</text>
</a>
</g>
</g>
<!-- Node7&#45;&gt;Node50 -->
<g id="edge93" class="edge">
<title>Node7&#45;&gt;Node50</title>
<path fill="none" stroke="#191970" d="M1478.391,-628.7391C1410.457,-619.2045 1280.3014,-600.937 1198.041,-589.3917"/>
<polygon fill="#191970" stroke="#191970" points="1198.3954,-585.9072 1188.0059,-587.9833 1197.4224,-592.8393 1198.3954,-585.9072"/>
</g>
<!-- Node54 -->
<g id="node55" class="node">
<title>Node54</title>
<polygon fill="none" stroke="#bfbfbf" points="1832,-491.5 1832,-532.5 1936,-532.5 1936,-491.5 1832,-491.5"/>
<text text-anchor="start" x="1840" y="-520.5" font-family="Helvetica,sans-Serif" font-size="10.00" fill="#000000">hydra/detail/external</text>
<text text-anchor="start" x="1840" y="-509.5" font-family="Helvetica,sans-Serif" font-size="10.00" fill="#000000">/thrust/iterator/zip</text>
<text text-anchor="middle" x="1884" y="-498.5" font-family="Helvetica,sans-Serif" font-size="10.00" fill="#000000">_iterator.h</text>
</g>
<!-- Node7&#45;&gt;Node54 -->
<g id="edge104" class="edge">
<title>Node7&#45;&gt;Node54</title>
<path fill="none" stroke="#191970" d="M1567.6625,-631.8266C1639.2436,-626.1165 1775.8917,-612.4668 1818,-589 1838.169,-577.7599 1854.9938,-557.8294 1866.6079,-541.0618"/>
<polygon fill="#191970" stroke="#191970" points="1869.581,-542.9115 1872.1964,-532.6445 1863.7493,-539.0396 1869.581,-542.9115"/>
</g>
<!-- Node55 -->
<g id="node56" class="node">
<title>Node55</title>
<polygon fill="none" stroke="#bfbfbf" points="1954.5,-502.5 1954.5,-521.5 2027.5,-521.5 2027.5,-502.5 1954.5,-502.5"/>
<text text-anchor="middle" x="1991" y="-509.5" font-family="Helvetica,sans-Serif" font-size="10.00" fill="#000000">initializer_list</text>
</g>
<!-- Node7&#45;&gt;Node55 -->
<g id="edge108" class="edge">
<title>Node7&#45;&gt;Node55</title>
<path fill="none" stroke="#191970" d="M1567.5313,-633.3122C1630.3383,-629.8836 1747.895,-619.5961 1843,-589 1889.819,-573.9379 1939.6429,-544.9798 1967.8867,-527.1869"/>
<polygon fill="#191970" stroke="#191970" points="1970.0607,-529.9513 1976.6022,-521.617 1966.2912,-524.0529 1970.0607,-529.9513"/>
</g>
<!-- Node8&#45;&gt;Node1 -->
<g id="edge20" class="edge">
<title>Node8&#45;&gt;Node1</title>
<path fill="none" stroke="#191970" d="M1107.9837,-502.4288C1097.6378,-498.535 1085.3352,-494.2068 1074,-491 998.0112,-469.5023 966.2259,-498.0183 900,-455 864.2116,-431.753 862.1576,-415.6204 844,-377 797.4901,-278.0755 753.7892,-230.0378 806,-134 813.6377,-119.9511 827.6209,-109.5317 841.1708,-102.1958"/>
<polygon fill="#191970" stroke="#191970" points="843.0059,-105.1921 850.399,-97.603 839.887,-98.9253 843.0059,-105.1921"/>
</g>
<!-- Node8&#45;&gt;Node6 -->
<g id="edge21" class="edge">
<title>Node8&#45;&gt;Node6</title>
<path fill="none" stroke="#191970" d="M1120.7234,-502.4453C1109.4588,-492.0907 1092.8603,-474.4246 1086,-455 1065.5144,-396.9962 1101.6266,-285.6233 1122,-268 1183.3081,-214.9677 1406.8121,-253.3954 1485,-232 1505.3298,-226.437 1508.2135,-219.2624 1528,-212 1584.6832,-191.1952 1606.6278,-206.0497 1659,-176 1682.1715,-162.7048 1677.8227,-145.3638 1702,-134 1769.4454,-102.2995 1988.816,-92.181 2088.2272,-89.1755"/>
<polygon fill="#191970" stroke="#191970" points="2088.4245,-92.6713 2098.3187,-88.8825 2088.2213,-85.6743 2088.4245,-92.6713"/>
</g>
<!-- Node9 -->
<g id="node10" class="node">
<title>Node9</title>
<g id="a_node10"><a xlink:href="StreamSTL_8h.html" target="_top" xlink:title="hydra/detail/utility\l/StreamSTL.h">
<polygon fill="none" stroke="#000000" points="1094.5,-419 1094.5,-449 1187.5,-449 1187.5,-419 1094.5,-419"/>
<text text-anchor="start" x="1102.5" y="-437" font-family="Helvetica,sans-Serif" font-size="10.00" fill="#000000">hydra/detail/utility</text>
<text text-anchor="middle" x="1141" y="-426" font-family="Helvetica,sans-Serif" font-size="10.00" fill="#000000">/StreamSTL.h</text>
</a>
</g>
</g>
<!-- Node8&#45;&gt;Node9 -->
<g id="edge11" class="edge">
<title>Node8&#45;&gt;Node9</title>
<path fill="none" stroke="#191970" d="M1133.1036,-502.4357C1134.3349,-491.7641 1136.3774,-474.0627 1138.0766,-459.3365"/>
<polygon fill="#191970" stroke="#191970" points="1141.5673,-459.6177 1139.2366,-449.2824 1134.6134,-458.8152 1141.5673,-459.6177"/>
</g>
<!-- Node10 -->
<g id="node11" class="node">
<title>Node10</title>
<polygon fill="none" stroke="#bfbfbf" points="1538,-78.5 1538,-97.5 1592,-97.5 1592,-78.5 1538,-78.5"/>
<text text-anchor="middle" x="1565" y="-85.5" font-family="Helvetica,sans-Serif" font-size="10.00" fill="#000000">iostream</text>
</g>
<!-- Node8&#45;&gt;Node10 -->
<g id="edge22" class="edge">
<title>Node8&#45;&gt;Node10</title>
<path fill="none" stroke="#191970" d="M1105.6761,-502.4365C1061.3843,-486.3378 976.6783,-455.5148 976,-455 932.6164,-422.073 897.56,-395.6263 920,-346 978.7762,-216.0155 1030.5931,-191.8331 1161,-134 1226.2768,-105.0509 1440.695,-93.1286 1527.7594,-89.4012"/>
<polygon fill="#191970" stroke="#191970" points="1528.1228,-92.8892 1537.9689,-88.9769 1527.8321,-85.8953 1528.1228,-92.8892"/>
</g>
<!-- Node9&#45;&gt;Node10 -->
<g id="edge12" class="edge">
<title>Node9&#45;&gt;Node10</title>
<path fill="none" stroke="#191970" d="M1135.1447,-418.9265C1124.5107,-389.2618 1104.6568,-321.5356 1122,-268 1144.6584,-198.057 1155.8718,-171.6864 1219,-134 1270.4334,-103.2952 1448.7807,-92.5807 1527.3433,-89.2931"/>
<polygon fill="#191970" stroke="#191970" points="1527.8908,-92.7741 1537.743,-88.8772 1527.611,-85.7797 1527.8908,-92.7741"/>
</g>
<!-- Node9&#45;&gt;Node11 -->
<g id="edge13" class="edge">
<title>Node9&#45;&gt;Node11</title>
<path fill="none" stroke="#191970" d="M1187.5542,-430.7598C1317.4635,-421.5939 1682.1674,-394.9808 1801,-377 1818.3142,-374.3802 2093.8451,-318.7735 2109,-310 2130.7856,-297.3879 2125.6407,-281.3215 2147,-268 2188.1604,-242.3289 2244.1222,-230.5463 2277.7859,-225.4755"/>
<polygon fill="#191970" stroke="#191970" points="2278.4698,-228.9138 2287.8852,-224.0558 2277.4953,-221.982 2278.4698,-228.9138"/>
</g>
<!-- Node9&#45;&gt;Node12 -->
<g id="edge14" class="edge">
<title>Node9&#45;&gt;Node12</title>
<path fill="none" stroke="#191970" d="M1115.7215,-418.978C1094.6857,-406.4772 1064.8991,-388.7761 1043.954,-376.3292"/>
<polygon fill="#191970" stroke="#191970" points="1045.678,-373.2824 1035.2933,-371.1825 1042.1019,-379.3 1045.678,-373.2824"/>
</g>
<!-- Node13 -->
<g id="node14" class="node">
<title>Node13</title>
<polygon fill="none" stroke="#bfbfbf" points="2156,-279.5 2156,-298.5 2218,-298.5 2218,-279.5 2156,-279.5"/>
<text text-anchor="middle" x="2187" y="-286.5" font-family="Helvetica,sans-Serif" font-size="10.00" fill="#000000">type_traits</text>
</g>
<!-- Node9&#45;&gt;Node13 -->
<g id="edge15" class="edge">
<title>Node9&#45;&gt;Node13</title>
<path fill="none" stroke="#191970" d="M1187.5263,-430.9296C1357.9257,-419.6623 1939.018,-381.0346 1958,-377 2033.5609,-360.9397 2117.001,-323.4647 2159.2279,-302.9805"/>
<polygon fill="#191970" stroke="#191970" points="2160.8845,-306.0663 2168.3222,-298.521 2157.8026,-299.7813 2160.8845,-306.0663"/>
</g>
<!-- Node14 -->
<g id="node15" class="node">
<title>Node14</title>
<polygon fill="none" stroke="#bfbfbf" points="1132.5,-352 1132.5,-371 1175.5,-371 1175.5,-352 1132.5,-352"/>
<text text-anchor="middle" x="1154" y="-359" font-family="Helvetica,sans-Serif" font-size="10.00" fill="#000000">cstdio</text>
</g>
<!-- Node9&#45;&gt;Node14 -->
<g id="edge16" class="edge">
<title>Node9&#45;&gt;Node14</title>
<path fill="none" stroke="#191970" d="M1143.6936,-418.978C1145.6523,-408.0542 1148.3231,-393.1596 1150.4551,-381.2699"/>
<polygon fill="#191970" stroke="#191970" points="1153.9056,-381.8564 1152.2256,-371.3957 1147.0155,-380.6209 1153.9056,-381.8564"/>
</g>
<!-- Node15 -->
<g id="node16" class="node">
<title>Node15</title>
<polygon fill="none" stroke="#bfbfbf" points="1384.5,-352 1384.5,-371 1425.5,-371 1425.5,-352 1384.5,-352"/>
<text text-anchor="middle" x="1405" y="-359" font-family="Helvetica,sans-Serif" font-size="10.00" fill="#000000">string</text>
</g>
<!-- Node9&#45;&gt;Node15 -->
<g id="edge17" class="edge">
<title>Node9&#45;&gt;Node15</title>
<path fill="none" stroke="#191970" d="M1187.5902,-421.2053C1241.5363,-406.3906 1328.8358,-382.4163 1374.6757,-369.8277"/>
<polygon fill="#191970" stroke="#191970" points="1375.6164,-373.199 1384.3325,-367.1757 1373.7626,-366.4489 1375.6164,-373.199"/>
</g>
<!-- Node9&#45;&gt;Node16 -->
<g id="edge18" class="edge">
<title>Node9&#45;&gt;Node16</title>
<path fill="none" stroke="#191970" d="M1094.4699,-430.4787C927.9566,-417.8772 363.8764,-375.1885 217.783,-364.1323"/>
<polygon fill="#191970" stroke="#191970" points="217.8488,-360.6274 207.6132,-363.3627 217.3205,-367.6074 217.8488,-360.6274"/>
</g>
<!-- Node9&#45;&gt;Node17 -->
<g id="edge19" class="edge">
<title>Node9&#45;&gt;Node17</title>
<path fill="none" stroke="#191970" d="M1174.3593,-418.978C1202.8666,-406.1408 1243.5518,-387.8198 1271.2742,-375.3361"/>
<polygon fill="#191970" stroke="#191970" points="1272.8171,-378.4799 1280.4982,-371.1825 1269.9429,-372.0972 1272.8171,-378.4799"/>
</g>
<!-- Node18&#45;&gt;Node1 -->
<g id="edge24" class="edge">
<title>Node18&#45;&gt;Node1</title>
<path fill="none" stroke="#191970" d="M638.4736,-507.7804C564.7848,-500.3441 425.4284,-482.9889 385,-455 344.985,-427.2973 328,-410.1687 328,-361.5 328,-361.5 328,-361.5 328,-222 328,-122.9553 669.4944,-96.7895 813.8176,-90.1538"/>
<polygon fill="#191970" stroke="#191970" points="814.0254,-93.6481 823.8607,-89.709 813.7157,-86.655 814.0254,-93.6481"/>
</g>
<!-- Node18&#45;&gt;Node6 -->
<g id="edge25" class="edge">
<title>Node18&#45;&gt;Node6</title>
<path fill="none" stroke="#191970" d="M692.8574,-502.2427C708.1832,-483.5689 743.6688,-442.0536 779,-413 957.8507,-265.9272 998.3103,-204.1 1219,-134 1301.8962,-107.6688 1908.8649,-92.847 2088.2235,-89.0088"/>
<polygon fill="#191970" stroke="#191970" points="2088.502,-92.5038 2098.4255,-88.7925 2088.3536,-85.5053 2088.502,-92.5038"/>
</g>
<!-- Node18&#45;&gt;Node19 -->
<g id="edge26" class="edge">
<title>Node18&#45;&gt;Node19</title>
<path fill="none" stroke="#191970" d="M731.5254,-503.7007C759.4084,-499.0938 795.6218,-493.7523 828,-491 1498.2177,-434.0288 1668.9078,-482.01 2341,-455 2467.746,-449.9063 2618.6559,-440.2488 2681.8399,-436.0429"/>
<polygon fill="#191970" stroke="#191970" points="2682.1593,-439.5295 2691.9033,-435.3697 2681.6919,-432.5451 2682.1593,-439.5295"/>
</g>
<!-- Node20 -->
<g id="node21" class="node">
<title>Node20</title>
<g id="a_node21"><a xlink:href="AnalyticalIntegral_8inl.html" target="_top" xlink:title="hydra/detail/AnalyticalIntegral.inl">
<polygon fill="none" stroke="#000000" points="104,-424.5 104,-443.5 262,-443.5 262,-424.5 104,-424.5"/>
<text text-anchor="middle" x="183" y="-431.5" font-family="Helvetica,sans-Serif" font-size="10.00" fill="#000000">hydra/detail/AnalyticalIntegral.inl</text>
</a>
</g>
</g>
<!-- Node18&#45;&gt;Node20 -->
<g id="edge27" class="edge">
<title>Node18&#45;&gt;Node20</title>
<path fill="none" stroke="#191970" d="M638.4236,-504.9435C568.1145,-494.2689 430.6837,-473.3159 314,-455 293.8527,-451.8375 271.9714,-448.3505 251.9656,-445.1418"/>
<polygon fill="#191970" stroke="#191970" points="252.4321,-441.672 242.0037,-443.5422 251.3223,-448.5834 252.4321,-441.672"/>
</g>
<!-- Node22 -->
<g id="node23" class="node">
<title>Node22</title>
<g id="a_node23"><a xlink:href="NumericalIntegral_8inl.html" target="_top" xlink:title="hydra/detail/NumericalIntegral.inl">
<polygon fill="none" stroke="#000000" points="394,-424.5 394,-443.5 552,-443.5 552,-424.5 394,-424.5"/>
<text text-anchor="middle" x="473" y="-431.5" font-family="Helvetica,sans-Serif" font-size="10.00" fill="#000000">hydra/detail/NumericalIntegral.inl</text>
</a>
</g>
</g>
<!-- Node18&#45;&gt;Node22 -->
<g id="edge30" class="edge">
<title>Node18&#45;&gt;Node22</title>
<path fill="none" stroke="#191970" d="M659.0046,-502.4357C621.1539,-488.5095 550.7646,-462.6115 508.27,-446.9767"/>
<polygon fill="#191970" stroke="#191970" points="509.4696,-443.6887 498.8761,-443.5204 507.0524,-450.2582 509.4696,-443.6887"/>
</g>
<!-- Node23 -->
<g id="node24" class="node">
<title>Node23</title>
<g id="a_node24"><a xlink:href="Integrator_8inl.html" target="_top" xlink:title="hydra/detail/Integrator.inl">
<polygon fill="none" stroke="#000000" points="570,-424.5 570,-443.5 694,-443.5 694,-424.5 570,-424.5"/>
<text text-anchor="middle" x="632" y="-431.5" font-family="Helvetica,sans-Serif" font-size="10.00" fill="#000000">hydra/detail/Integrator.inl</text>
</a>
</g>
</g>
<!-- Node18&#45;&gt;Node23 -->
<g id="edge31" class="edge">
<title>Node18&#45;&gt;Node23</title>
<path fill="none" stroke="#191970" d="M678.5012,-502.4357C669.9979,-489.9214 654.9259,-467.74 644.2482,-452.0257"/>
<polygon fill="#191970" stroke="#191970" points="647.0672,-449.9467 638.552,-443.6426 641.2773,-453.8809 647.0672,-449.9467"/>
</g>
<!-- Node20&#45;&gt;Node16 -->
<g id="edge29" class="edge">
<title>Node20&#45;&gt;Node16</title>
<path fill="none" stroke="#191970" d="M183,-424.2223C183,-413.243 183,-395.1397 183,-381.197"/>
<polygon fill="#191970" stroke="#191970" points="186.5001,-381.1227 183,-371.1228 179.5001,-381.1228 186.5001,-381.1227"/>
</g>
<!-- Node20&#45;&gt;Node21 -->
<g id="edge28" class="edge">
<title>Node20&#45;&gt;Node21</title>
<path fill="none" stroke="#191970" d="M169.7833,-424.2223C153.4728,-412.1559 125.5316,-391.4851 106.2071,-377.1889"/>
<polygon fill="#191970" stroke="#191970" points="108.1281,-374.2564 98.0073,-371.1228 103.9649,-379.8839 108.1281,-374.2564"/>
</g>
<!-- Node24&#45;&gt;Node1 -->
<g id="edge33" class="edge">
<title>Node24&#45;&gt;Node1</title>
<path fill="none" stroke="#191970" d="M1514.9539,-424.4633C1500.2443,-407.3896 1467.524,-371.0483 1435,-346 1407.7021,-324.9766 1333.2861,-280.0319 1301,-268 1220.0545,-237.8345 1192.3904,-257.9606 1110,-232 1052.3248,-213.827 1037.4989,-207.6947 986,-176 951.2577,-154.6181 915.2485,-123.4769 894.5476,-104.5445"/>
<polygon fill="#191970" stroke="#191970" points="896.869,-101.9241 887.1519,-97.7019 892.1151,-107.0622 896.869,-101.9241"/>
</g>
<!-- Node24&#45;&gt;Node6 -->
<g id="edge34" class="edge">
<title>Node24&#45;&gt;Node6</title>
<path fill="none" stroke="#191970" d="M1571.527,-431.7907C1664.3512,-425.5117 1870.4828,-401.496 2013,-310 2034.1832,-296.4004 2030.3936,-282.4587 2051,-268 2085.5916,-243.7286 2108.0156,-260.7341 2139,-232 2172.2143,-201.198 2179.5728,-177.5187 2167,-134 2164.1062,-123.9836 2158.3122,-114.0485 2152.6587,-105.9887"/>
<polygon fill="#191970" stroke="#191970" points="2155.3003,-103.6776 2146.4977,-97.7814 2149.7021,-107.88 2155.3003,-103.6776"/>
</g>
<!-- Node24&#45;&gt;Node15 -->
<g id="edge74" class="edge">
<title>Node24&#45;&gt;Node15</title>
<path fill="none" stroke="#191970" d="M1507.086,-424.2223C1487.093,-411.9385 1452.5864,-390.7374 1429.2875,-376.4224"/>
<polygon fill="#191970" stroke="#191970" points="1431.0144,-373.3756 1420.6619,-371.1228 1427.3499,-379.3398 1431.0144,-373.3756"/>
</g>
<!-- Node25 -->
<g id="node26" class="node">
<title>Node25</title>
<g id="a_node26"><a xlink:href="TypeTraits_8h.html" target="_top" xlink:title="hydra/detail/TypeTraits.h">
<polygon fill="none" stroke="#000000" points="1666.5,-352 1666.5,-371 1791.5,-371 1791.5,-352 1666.5,-352"/>
<text text-anchor="middle" x="1729" y="-359" font-family="Helvetica,sans-Serif" font-size="10.00" fill="#000000">hydra/detail/TypeTraits.h</text>
</a>
</g>
</g>
<!-- Node24&#45;&gt;Node25 -->
<g id="edge35" class="edge">
<title>Node24&#45;&gt;Node25</title>
<path fill="none" stroke="#191970" d="M1550.3552,-424.3726C1586.8555,-411.5266 1651.6015,-388.7398 1692.3098,-374.4128"/>
<polygon fill="#191970" stroke="#191970" points="1693.5888,-377.6732 1701.8598,-371.0518 1691.2649,-371.0702 1693.5888,-377.6732"/>
</g>
<!-- Node46 -->
<g id="node47" class="node">
<title>Node46</title>
<polygon fill="none" stroke="#bfbfbf" points="1520,-352 1520,-371 1572,-371 1572,-352 1520,-352"/>
<text text-anchor="middle" x="1546" y="-359" font-family="Helvetica,sans-Serif" font-size="10.00" fill="#000000">ostream</text>
</g>
<!-- Node24&#45;&gt;Node46 -->
<g id="edge75" class="edge">
<title>Node24&#45;&gt;Node46</title>
<path fill="none" stroke="#191970" d="M1526.1019,-424.2223C1529.6195,-413.1343 1535.442,-394.7806 1539.8823,-380.7841"/>
<polygon fill="#191970" stroke="#191970" points="1543.2594,-381.713 1542.9473,-371.1228 1536.5872,-379.5962 1543.2594,-381.713"/>
</g>
<!-- Node25&#45;&gt;Node1 -->
<g id="edge36" class="edge">
<title>Node25&#45;&gt;Node1</title>
<path fill="none" stroke="#191970" d="M1708.1304,-351.8948C1687.0703,-342.0099 1653.7813,-325.857 1626,-310 1596.1285,-292.9499 1593.3767,-279.6087 1561,-268 1429.604,-220.8879 1386.3463,-256.9084 1249,-232 1147.6032,-213.6112 1112.4063,-228.9507 1024,-176 1002.4043,-163.0653 1006.5264,-148.572 986,-134 965.758,-119.6299 940.3343,-108.5755 919.1332,-100.909"/>
<polygon fill="#191970" stroke="#191970" points="920.0102,-97.5082 909.4153,-97.5217 917.7061,-104.1182 920.0102,-97.5082"/>
</g>
<!-- Node25&#45;&gt;Node5 -->
<g id="edge71" class="edge">
<title>Node25&#45;&gt;Node5</title>
<path fill="none" stroke="#191970" d="M1666.3083,-352.4279C1573.7831,-339.0385 1400.9864,-314.033 1302.2476,-299.7444"/>
<polygon fill="#191970" stroke="#191970" points="1302.741,-296.2794 1292.3428,-298.3111 1301.7384,-303.2073 1302.741,-296.2794"/>
</g>
<!-- Node25&#45;&gt;Node13 -->
<g id="edge67" class="edge">
<title>Node25&#45;&gt;Node13</title>
<path fill="none" stroke="#191970" d="M1791.6117,-355.5039C1867.2707,-347.6866 1998.2153,-332.3246 2109,-310 2121.1365,-307.5543 2134.1783,-304.2981 2146.0577,-301.0812"/>
<polygon fill="#191970" stroke="#191970" points="2147.014,-304.4482 2155.7176,-298.4069 2145.1463,-297.7019 2147.014,-304.4482"/>
</g>
<!-- Node26 -->
<g id="node27" class="node">
<title>Node26</title>
<g id="a_node27"><a xlink:href="Containers_8h.html" target="_top" xlink:title="Typedefs for useful container classes used in MCBooster. ">
<polygon fill="none" stroke="#000000" points="1646,-279.5 1646,-298.5 1744,-298.5 1744,-279.5 1646,-279.5"/>
<text text-anchor="middle" x="1695" y="-286.5" font-family="Helvetica,sans-Serif" font-size="10.00" fill="#000000">hydra/Containers.h</text>
</a>
</g>
</g>
<!-- Node25&#45;&gt;Node26 -->
<g id="edge37" class="edge">
<title>Node25&#45;&gt;Node26</title>
<path fill="none" stroke="#191970" d="M1724.4146,-351.7223C1719.1637,-340.5256 1710.4383,-321.92 1703.8511,-307.8737"/>
<polygon fill="#191970" stroke="#191970" points="1706.9276,-306.1905 1699.5127,-298.6228 1700.5899,-309.1627 1706.9276,-306.1905"/>
</g>
<!-- Node37 -->
<g id="node38" class="node">
<title>Node37</title>
<polygon fill="none" stroke="#bfbfbf" points="1782,-140 1782,-170 1886,-170 1886,-140 1782,-140"/>
<text text-anchor="start" x="1790" y="-158" font-family="Helvetica,sans-Serif" font-size="10.00" fill="#000000">hydra/detail/external</text>
<text text-anchor="middle" x="1834" y="-147" font-family="Helvetica,sans-Serif" font-size="10.00" fill="#000000">/thrust/complex.h</text>
</g>
<!-- Node25&#45;&gt;Node37 -->
<g id="edge69" class="edge">
<title>Node25&#45;&gt;Node37</title>
<path fill="none" stroke="#191970" d="M1694.6838,-351.9763C1674.03,-344.2784 1649.4047,-331.16 1637,-310 1627.5596,-293.8965 1629.4209,-285.0588 1637,-268 1652.0764,-234.0667 1667.6799,-231.9453 1699,-212 1723.6415,-196.3077 1753.3391,-183.2247 1778.599,-173.5674"/>
<polygon fill="#191970" stroke="#191970" points="1779.9026,-176.8167 1788.043,-170.0356 1777.4506,-170.2602 1779.9026,-176.8167"/>
</g>
<!-- Node25&#45;&gt;Node42 -->
<g id="edge68" class="edge">
<title>Node25&#45;&gt;Node42</title>
<path fill="none" stroke="#191970" d="M1791.5206,-352.4529C1849.3807,-343.5404 1937.5851,-328.5801 2013,-310 2025.3584,-306.9552 2038.7815,-302.9007 2050.3449,-299.1666"/>
<polygon fill="#191970" stroke="#191970" points="2051.5515,-302.4542 2059.9544,-296.0011 2049.3613,-295.8057 2051.5515,-302.4542"/>
</g>
<!-- Node25&#45;&gt;Node43 -->
<g id="edge70" class="edge">
<title>Node25&#45;&gt;Node43</title>
<path fill="none" stroke="#191970" d="M1696.9971,-351.8726C1659.1036,-340.4731 1595.1881,-321.2454 1547.9941,-307.048"/>
<polygon fill="#191970" stroke="#191970" points="1548.777,-303.6287 1538.1927,-304.0995 1546.7604,-310.3319 1548.777,-303.6287"/>
</g>
<!-- Node44 -->
<g id="node45" class="node">
<title>Node44</title>
<polygon fill="none" stroke="#bfbfbf" points="1894,-268.5 1894,-309.5 2004,-309.5 2004,-268.5 1894,-268.5"/>
<text text-anchor="start" x="1902" y="-297.5" font-family="Helvetica,sans-Serif" font-size="10.00" fill="#000000">hydra/detail/external</text>
<text text-anchor="start" x="1902" y="-286.5" font-family="Helvetica,sans-Serif" font-size="10.00" fill="#000000">/thrust/iterator/iterator</text>
<text text-anchor="middle" x="1949" y="-275.5" font-family="Helvetica,sans-Serif" font-size="10.00" fill="#000000">_categories.h</text>
</g>
<!-- Node25&#45;&gt;Node44 -->
<g id="edge72" class="edge">
<title>Node25&#45;&gt;Node44</title>
<path fill="none" stroke="#191970" d="M1758.2143,-351.8726C1790.2031,-341.3308 1842.5064,-324.0945 1884.2664,-310.3327"/>
<polygon fill="#191970" stroke="#191970" points="1885.4165,-313.6389 1893.8186,-307.1848 1883.2255,-306.9906 1885.4165,-313.6389"/>
</g>
<!-- Node45 -->
<g id="node46" class="node">
<title>Node45</title>
<polygon fill="none" stroke="#bfbfbf" points="1762.5,-268.5 1762.5,-309.5 1875.5,-309.5 1875.5,-268.5 1762.5,-268.5"/>
<text text-anchor="start" x="1770.5" y="-297.5" font-family="Helvetica,sans-Serif" font-size="10.00" fill="#000000">hydra/detail/external</text>
<text text-anchor="start" x="1770.5" y="-286.5" font-family="Helvetica,sans-Serif" font-size="10.00" fill="#000000">/thrust/iterator/detail</text>
<text text-anchor="middle" x="1819" y="-275.5" font-family="Helvetica,sans-Serif" font-size="10.00" fill="#000000">/is_iterator_category.h</text>
</g>
<!-- Node25&#45;&gt;Node45 -->
<g id="edge73" class="edge">
<title>Node25&#45;&gt;Node45</title>
<path fill="none" stroke="#191970" d="M1741.1378,-351.7223C1752.4965,-342.5723 1769.9973,-328.4744 1785.532,-315.9604"/>
<polygon fill="#191970" stroke="#191970" points="1787.8415,-318.5943 1793.4334,-309.5953 1783.4502,-313.143 1787.8415,-318.5943"/>
</g>
<!-- Node26&#45;&gt;Node1 -->
<g id="edge40" class="edge">
<title>Node26&#45;&gt;Node1</title>
<path fill="none" stroke="#191970" d="M1652.3628,-279.4911C1634.3974,-275.6521 1613.2324,-271.348 1594,-268 1480.8051,-248.2948 1450.4595,-255.5421 1338,-232 1247.6509,-213.0864 1225.8228,-204.4228 1138,-176 1086.6275,-159.3739 1075.115,-151.4015 1024,-134 988.7877,-122.0124 948.4412,-109.471 918.9359,-100.5168"/>
<polygon fill="#191970" stroke="#191970" points="919.5629,-97.0499 908.9779,-97.5059 917.537,-103.7503 919.5629,-97.0499"/>
</g>
<!-- Node26&#45;&gt;Node6 -->
<g id="edge41" class="edge">
<title>Node26&#45;&gt;Node6</title>
<path fill="none" stroke="#191970" d="M1712.7807,-279.368C1760.2303,-253.8589 1894.1303,-183.1447 2010,-134 2039.2671,-121.5867 2073.1517,-109.5076 2098.7029,-100.8442"/>
<polygon fill="#191970" stroke="#191970" points="2100.0438,-104.086 2108.4074,-97.582 2097.8133,-97.4509 2100.0438,-104.086"/>
</g>
<!-- Node26&#45;&gt;Node11 -->
<g id="edge39" class="edge">
<title>Node26&#45;&gt;Node11</title>
<path fill="none" stroke="#191970" d="M1717.2885,-279.49C1728.1643,-275.2597 1741.5573,-270.6459 1754,-268 1957.1852,-224.7935 2013.2237,-251.8638 2220,-232 2239.1184,-230.1634 2260.5537,-227.7043 2277.3636,-225.6843"/>
<polygon fill="#191970" stroke="#191970" points="2278.1669,-229.1125 2287.6714,-224.4312 2277.3221,-222.1637 2278.1669,-229.1125"/>
</g>
<!-- Node27 -->
<g id="node28" class="node">
<title>Node27</title>
<polygon fill="none" stroke="#bfbfbf" points="1723,-212.5 1723,-231.5 1767,-231.5 1767,-212.5 1723,-212.5"/>
<text text-anchor="middle" x="1745" y="-219.5" font-family="Helvetica,sans-Serif" font-size="10.00" fill="#000000">vector</text>
</g>
<!-- Node26&#45;&gt;Node27 -->
<g id="edge38" class="edge">
<title>Node26&#45;&gt;Node27</title>
<path fill="none" stroke="#191970" d="M1702.1638,-279.4005C1709.8866,-269.052 1722.3476,-252.3542 1731.8437,-239.6295"/>
<polygon fill="#191970" stroke="#191970" points="1734.6736,-241.6893 1737.8495,-231.5817 1729.0636,-237.5027 1734.6736,-241.6893"/>
</g>
<!-- Node28 -->
<g id="node29" class="node">
<title>Node28</title>
<g id="a_node29"><a xlink:href="Vector3R_8h.html" target="_top" xlink:title="hydra/Vector3R.h">
<polygon fill="none" stroke="#000000" points="2350,-145.5 2350,-164.5 2442,-164.5 2442,-145.5 2350,-145.5"/>
<text text-anchor="middle" x="2396" y="-152.5" font-family="Helvetica,sans-Serif" font-size="10.00" fill="#000000">hydra/Vector3R.h</text>
</a>
</g>
</g>
<!-- Node26&#45;&gt;Node28 -->
<g id="edge42" class="edge">
<title>Node26&#45;&gt;Node28</title>
<path fill="none" stroke="#191970" d="M1717.5873,-279.4706C1728.4167,-275.2897 1741.6852,-270.7227 1754,-268 1921.8051,-230.8995 1970.3059,-264.8226 2139,-232 2219.8418,-216.2707 2311.6142,-185.536 2360.6512,-168.0281"/>
<polygon fill="#191970" stroke="#191970" points="2361.9354,-171.2858 2370.1601,-164.6071 2359.5657,-164.6991 2361.9354,-171.2858"/>
</g>
<!-- Node35 -->
<g id="node36" class="node">
<title>Node35</title>
<g id="a_node36"><a xlink:href="Vector4R_8h.html" target="_top" xlink:title="hydra/Vector4R.h">
<polygon fill="none" stroke="#000000" points="2038,-212.5 2038,-231.5 2130,-231.5 2130,-212.5 2038,-212.5"/>
<text text-anchor="middle" x="2084" y="-219.5" font-family="Helvetica,sans-Serif" font-size="10.00" fill="#000000">hydra/Vector4R.h</text>
</a>
</g>
</g>
<!-- Node26&#45;&gt;Node35 -->
<g id="edge52" class="edge">
<title>Node26&#45;&gt;Node35</title>
<path fill="none" stroke="#191970" d="M1718.4914,-279.399C1729.1729,-275.3573 1742.0668,-270.9231 1754,-268 1848.5299,-244.8443 1961.3462,-232.2562 2027.581,-226.3471"/>
<polygon fill="#191970" stroke="#191970" points="2028.1434,-229.8114 2037.8014,-225.4554 2027.535,-222.8379 2028.1434,-229.8114"/>
</g>
<!-- Node26&#45;&gt;Node37 -->
<g id="edge60" class="edge">
<title>Node26&#45;&gt;Node37</title>
<path fill="none" stroke="#191970" d="M1694.8521,-279.327C1695.113,-263.4973 1697.8043,-231.8391 1714,-212 1723.6316,-200.2017 1755.2636,-185.4062 1783.6325,-173.8461"/>
<polygon fill="#191970" stroke="#191970" points="1785.1092,-177.0251 1793.0917,-170.0588 1782.5072,-170.5266 1785.1092,-177.0251"/>
</g>
<!-- Node38 -->
<g id="node39" class="node">
<title>Node38</title>
<g id="a_node39"><a xlink:href="Containers_8inl.html" target="_top" xlink:title="hydra/detail/Containers.inl">
<polygon fill="none" stroke="#000000" points="1346.5,-212.5 1346.5,-231.5 1475.5,-231.5 1475.5,-212.5 1346.5,-212.5"/>
<text text-anchor="middle" x="1411" y="-219.5" font-family="Helvetica,sans-Serif" font-size="10.00" fill="#000000">hydra/detail/Containers.inl</text>
</a>
</g>
</g>
<!-- Node26&#45;&gt;Node38 -->
<g id="edge61" class="edge">
<title>Node26&#45;&gt;Node38</title>
<path fill="none" stroke="#191970" d="M1654.6113,-279.4717C1603.8648,-267.4998 1516.76,-246.9504 1461.6175,-233.9415"/>
<polygon fill="#191970" stroke="#191970" points="1462.2456,-230.4936 1451.7092,-231.6039 1460.6383,-237.3066 1462.2456,-230.4936"/>
</g>
<!-- Node28&#45;&gt;Node1 -->
<g id="edge43" class="edge">
<title>Node28&#45;&gt;Node1</title>
<path fill="none" stroke="#191970" d="M2349.9914,-150.3733C2300.7907,-145.5856 2220.4572,-138.2281 2151,-134 1686.7412,-105.7391 1126.1763,-92.8785 940.2797,-89.1784"/>
<polygon fill="#191970" stroke="#191970" points="940.2084,-85.6764 930.1413,-88.9784 940.0702,-92.6751 940.2084,-85.6764"/>
</g>
<!-- Node28&#45;&gt;Node6 -->
<g id="edge44" class="edge">
<title>Node28&#45;&gt;Node6</title>
<path fill="none" stroke="#191970" d="M2359.3089,-145.4717C2313.4951,-133.5743 2235.0615,-113.2059 2184.9223,-100.1852"/>
<polygon fill="#191970" stroke="#191970" points="2185.541,-96.7299 2174.9823,-97.6039 2183.7815,-103.5052 2185.541,-96.7299"/>
</g>
<!-- Node28&#45;&gt;Node10 -->
<g id="edge46" class="edge">
<title>Node28&#45;&gt;Node10</title>
<path fill="none" stroke="#191970" d="M2349.9499,-150.9538C2300.7145,-146.6508 2220.3524,-139.6942 2151,-134 1943.6278,-116.9737 1694.8581,-97.8891 1602.1773,-90.8254"/>
<polygon fill="#191970" stroke="#191970" points="1602.4055,-87.3327 1592.1685,-90.0631 1601.8738,-94.3125 1602.4055,-87.3327"/>
</g>
<!-- Node29 -->
<g id="node30" class="node">
<title>Node29</title>
<polygon fill="none" stroke="#bfbfbf" points="2261,-78.5 2261,-97.5 2305,-97.5 2305,-78.5 2261,-78.5"/>
<text text-anchor="middle" x="2283" y="-85.5" font-family="Helvetica,sans-Serif" font-size="10.00" fill="#000000">iosfwd</text>
</g>
<!-- Node28&#45;&gt;Node29 -->
<g id="edge45" class="edge">
<title>Node28&#45;&gt;Node29</title>
<path fill="none" stroke="#191970" d="M2379.8099,-145.4005C2361.0137,-134.2559 2329.7984,-115.7477 2307.9076,-102.7682"/>
<polygon fill="#191970" stroke="#191970" points="2309.5469,-99.6712 2299.1601,-97.5817 2305.9767,-105.6924 2309.5469,-99.6712"/>
</g>
<!-- Node30 -->
<g id="node31" class="node">
<title>Node30</title>
<polygon fill="none" stroke="#bfbfbf" points="2195.5,-78.5 2195.5,-97.5 2242.5,-97.5 2242.5,-78.5 2195.5,-78.5"/>
<text text-anchor="middle" x="2219" y="-85.5" font-family="Helvetica,sans-Serif" font-size="10.00" fill="#000000">math.h</text>
</g>
<!-- Node28&#45;&gt;Node30 -->
<g id="edge47" class="edge">
<title>Node28&#45;&gt;Node30</title>
<path fill="none" stroke="#191970" d="M2370.6402,-145.4005C2339.4936,-133.6106 2286.5755,-113.5794 2252.2112,-100.5715"/>
<polygon fill="#191970" stroke="#191970" points="2253.2072,-97.2062 2242.6158,-96.9393 2250.7291,-103.7529 2253.2072,-97.2062"/>
</g>
<!-- Node31 -->
<g id="node32" class="node">
<title>Node31</title>
<g id="a_node32"><a xlink:href="Collection_8h.html" target="_top" xlink:title="hydra/Collection.h">
<polygon fill="none" stroke="#000000" points="2464.5,-78.5 2464.5,-97.5 2559.5,-97.5 2559.5,-78.5 2464.5,-78.5"/>
<text text-anchor="middle" x="2512" y="-85.5" font-family="Helvetica,sans-Serif" font-size="10.00" fill="#000000">hydra/Collection.h</text>
</a>
</g>
</g>
<!-- Node28&#45;&gt;Node31 -->
<g id="edge48" class="edge">
<title>Node28&#45;&gt;Node31</title>
<path fill="none" stroke="#191970" d="M2412.62,-145.4005C2432.0012,-134.2062 2464.2455,-115.5823 2486.7315,-102.5947"/>
<polygon fill="#191970" stroke="#191970" points="2488.502,-105.614 2495.4109,-97.5817 2485.0009,-99.5525 2488.502,-105.614"/>
</g>
<!-- Node34 -->
<g id="node35" class="node">
<title>Node34</title>
<g id="a_node35"><a xlink:href="Vector3R_8inl.html" target="_top" xlink:title="hydra/detail/Vector3R.inl">
<polygon fill="none" stroke="#000000" points="2323.5,-78.5 2323.5,-97.5 2446.5,-97.5 2446.5,-78.5 2323.5,-78.5"/>
<text text-anchor="middle" x="2385" y="-85.5" font-family="Helvetica,sans-Serif" font-size="10.00" fill="#000000">hydra/detail/Vector3R.inl</text>
</a>
</g>
</g>
<!-- Node28&#45;&gt;Node34 -->
<g id="edge51" class="edge">
<title>Node28&#45;&gt;Node34</title>
<path fill="none" stroke="#191970" d="M2394.424,-145.4005C2392.8066,-135.5495 2390.2447,-119.9451 2388.2,-107.4912"/>
<polygon fill="#191970" stroke="#191970" points="2391.6471,-106.8825 2386.5731,-97.5817 2384.7395,-108.0166 2391.6471,-106.8825"/>
</g>
<!-- Node31&#45;&gt;Node32 -->
<g id="edge49" class="edge">
<title>Node31&#45;&gt;Node32</title>
<path fill="none" stroke="#191970" d="M2539.2224,-78.4005C2567.9229,-68.2798 2613.8446,-52.0864 2649.6065,-39.4756"/>
<polygon fill="#191970" stroke="#191970" points="2651.1341,-42.6482 2659.401,-36.0218 2648.8062,-36.0466 2651.1341,-42.6482"/>
</g>
<!-- Node31&#45;&gt;Node33 -->
<g id="edge50" class="edge">
<title>Node31&#45;&gt;Node33</title>
<path fill="none" stroke="#191970" d="M2515.1521,-78.4005C2517.5045,-71.2361 2520.8563,-61.0286 2524.0826,-51.2031"/>
<polygon fill="#191970" stroke="#191970" points="2527.4309,-52.2246 2527.2254,-41.6318 2520.7803,-50.0408 2527.4309,-52.2246"/>
</g>
<!-- Node35&#45;&gt;Node1 -->
<g id="edge55" class="edge">
<title>Node35&#45;&gt;Node1</title>
<path fill="none" stroke="#191970" d="M2037.7918,-216.0172C2004.9309,-210.027 1960.9536,-198.3415 1928,-176 1908.3508,-162.6784 1916.1113,-144.8567 1895,-134 1852.5036,-112.1458 1156.4419,-94.4111 940.424,-89.4122"/>
<polygon fill="#191970" stroke="#191970" points="940.2799,-85.908 930.202,-89.1769 940.1187,-92.9062 940.2799,-85.908"/>
</g>
<!-- Node35&#45;&gt;Node6 -->
<g id="edge56" class="edge">
<title>Node35&#45;&gt;Node6</title>
<path fill="none" stroke="#191970" d="M2108.4712,-212.3462C2123.7107,-204.9011 2142.0612,-192.9799 2151,-176 2162.4723,-154.2076 2154.6074,-125.4181 2147.0448,-106.8051"/>
<polygon fill="#191970" stroke="#191970" points="2150.2334,-105.3613 2142.9993,-97.6206 2143.8273,-108.183 2150.2334,-105.3613"/>
</g>
<!-- Node35&#45;&gt;Node10 -->
<g id="edge54" class="edge">
<title>Node35&#45;&gt;Node10</title>
<path fill="none" stroke="#191970" d="M2068.8606,-212.4577C2035.7364,-191.7473 1957.4446,-143.752 1928,-134 1868.0514,-114.1451 1682.2632,-97.3842 1602.2634,-90.8876"/>
<polygon fill="#191970" stroke="#191970" points="1602.3967,-87.3872 1592.1486,-90.0753 1601.8363,-94.3647 1602.3967,-87.3872"/>
</g>
<!-- Node35&#45;&gt;Node28 -->
<g id="edge57" class="edge">
<title>Node35&#45;&gt;Node28</title>
<path fill="none" stroke="#191970" d="M2130.4608,-215.7416C2181.3901,-208.368 2265.2749,-194.7094 2336,-176 2344.5121,-173.7482 2353.546,-170.8604 2361.9498,-167.9516"/>
<polygon fill="#191970" stroke="#191970" points="2363.2116,-171.2177 2371.4567,-164.5643 2360.8621,-164.6237 2363.2116,-171.2177"/>
</g>
<!-- Node35&#45;&gt;Node30 -->
<g id="edge53" class="edge">
<title>Node35&#45;&gt;Node30</title>
<path fill="none" stroke="#191970" d="M2108.7424,-212.4626C2126.5277,-204.6811 2150.2309,-192.3121 2167,-176 2187.5945,-155.9669 2202.9382,-126.0756 2211.4354,-106.808"/>
<polygon fill="#191970" stroke="#191970" points="2214.6717,-108.1414 2215.3442,-97.5679 2208.2247,-105.4141 2214.6717,-108.1414"/>
</g>
<!-- Node35&#45;&gt;Node31 -->
<g id="edge58" class="edge">
<title>Node35&#45;&gt;Node31</title>
<path fill="none" stroke="#191970" d="M2130.1101,-220.847C2216.3208,-217.948 2398.0005,-208.1073 2451,-176 2477.3868,-160.0148 2495.1979,-127.7715 2504.4627,-107.068"/>
<polygon fill="#191970" stroke="#191970" points="2507.7544,-108.2701 2508.4268,-97.6967 2501.3074,-105.543 2507.7544,-108.2701"/>
</g>
<!-- Node36 -->
<g id="node37" class="node">
<title>Node36</title>
<g id="a_node37"><a xlink:href="Vector4R_8inl.html" target="_top" xlink:title="hydra/detail/Vector4R.inl">
<polygon fill="none" stroke="#000000" points="2018.5,-145.5 2018.5,-164.5 2141.5,-164.5 2141.5,-145.5 2018.5,-145.5"/>
<text text-anchor="middle" x="2080" y="-152.5" font-family="Helvetica,sans-Serif" font-size="10.00" fill="#000000">hydra/detail/Vector4R.inl</text>
</a>
</g>
</g>
<!-- Node35&#45;&gt;Node36 -->
<g id="edge59" class="edge">
<title>Node35&#45;&gt;Node36</title>
<path fill="none" stroke="#191970" d="M2083.4269,-212.4005C2082.8447,-202.649 2081.926,-187.2597 2081.1862,-174.8695"/>
<polygon fill="#191970" stroke="#191970" points="2084.6619,-174.3553 2080.572,-164.5817 2077.6743,-174.7725 2084.6619,-174.3553"/>
</g>
<!-- Node38&#45;&gt;Node1 -->
<g id="edge62" class="edge">
<title>Node38&#45;&gt;Node1</title>
<path fill="none" stroke="#191970" d="M1355.7397,-212.4661C1316.7922,-204.8578 1263.8053,-192.6989 1219,-176 1181.0015,-161.838 1176.4107,-147.0024 1138,-134 1072.4914,-111.8246 993.9297,-99.8315 940.2277,-93.7084"/>
<polygon fill="#191970" stroke="#191970" points="940.4884,-90.216 930.1645,-92.5965 939.7196,-97.1737 940.4884,-90.216"/>
</g>
<!-- Node38&#45;&gt;Node37 -->
<g id="edge65" class="edge">
<title>Node38&#45;&gt;Node37</title>
<path fill="none" stroke="#191970" d="M1471.1564,-212.4717C1550.8857,-199.8432 1690.8713,-177.6705 1771.6758,-164.8717"/>
<polygon fill="#191970" stroke="#191970" points="1772.3804,-168.3038 1781.7097,-163.2824 1771.2853,-161.39 1772.3804,-168.3038"/>
</g>
<!-- Node39 -->
<g id="node40" class="node">
<title>Node39</title>
<polygon fill="none" stroke="#bfbfbf" points="1228,-140 1228,-170 1344,-170 1344,-140 1228,-140"/>
<text text-anchor="start" x="1236" y="-158" font-family="Helvetica,sans-Serif" font-size="10.00" fill="#000000">hydra/detail/external</text>
<text text-anchor="middle" x="1286" y="-147" font-family="Helvetica,sans-Serif" font-size="10.00" fill="#000000">/thrust/device_vector.h</text>
</g>
<!-- Node38&#45;&gt;Node39 -->
<g id="edge63" class="edge">
<title>Node38&#45;&gt;Node39</title>
<path fill="none" stroke="#191970" d="M1393.0905,-212.4005C1374.8541,-202.6258 1346.0495,-187.1865 1322.9052,-174.7812"/>
<polygon fill="#191970" stroke="#191970" points="1324.4929,-171.6612 1314.0257,-170.0218 1321.186,-177.8308 1324.4929,-171.6612"/>
</g>
<!-- Node40 -->
<g id="node41" class="node">
<title>Node40</title>
<polygon fill="none" stroke="#bfbfbf" points="1362.5,-140 1362.5,-170 1469.5,-170 1469.5,-140 1362.5,-140"/>
<text text-anchor="start" x="1370.5" y="-158" font-family="Helvetica,sans-Serif" font-size="10.00" fill="#000000">hydra/detail/external</text>
<text text-anchor="middle" x="1416" y="-147" font-family="Helvetica,sans-Serif" font-size="10.00" fill="#000000">/thrust/host_vector.h</text>
</g>
<!-- Node38&#45;&gt;Node40 -->
<g id="edge64" class="edge">
<title>Node38&#45;&gt;Node40</title>
<path fill="none" stroke="#191970" d="M1411.7164,-212.4005C1412.3425,-204.0099 1413.2802,-191.4451 1414.1188,-180.2085"/>
<polygon fill="#191970" stroke="#191970" points="1417.625,-180.2545 1414.879,-170.0218 1410.6444,-179.7335 1417.625,-180.2545"/>
</g>
<!-- Node41 -->
<g id="node42" class="node">
<title>Node41</title>
<polygon fill="none" stroke="#bfbfbf" points="1488,-134.5 1488,-175.5 1650,-175.5 1650,-134.5 1488,-134.5"/>
<text text-anchor="start" x="1496" y="-163.5" font-family="Helvetica,sans-Serif" font-size="10.00" fill="#000000">hydra/detail/external</text>
<text text-anchor="start" x="1496" y="-152.5" font-family="Helvetica,sans-Serif" font-size="10.00" fill="#000000">/thrust/system/cuda/experimental</text>
<text text-anchor="middle" x="1569" y="-141.5" font-family="Helvetica,sans-Serif" font-size="10.00" fill="#000000">/pinned_allocator.h</text>
</g>
<!-- Node38&#45;&gt;Node41 -->
<g id="edge66" class="edge">
<title>Node38&#45;&gt;Node41</title>
<path fill="none" stroke="#191970" d="M1433.6375,-212.4005C1453.7885,-203.8555 1484.1482,-190.9815 1511.0121,-179.5898"/>
<polygon fill="#191970" stroke="#191970" points="1512.5059,-182.7581 1520.346,-175.6318 1509.7731,-176.3136 1512.5059,-182.7581"/>
</g>
<!-- Node47&#45;&gt;Node1 -->
<g id="edge77" class="edge">
<title>Node47&#45;&gt;Node1</title>
<path fill="none" stroke="#191970" d="M1682.3458,-508.8093C1525.8626,-498.0402 1028.6147,-463.2487 1014,-455 954.2683,-421.2869 896.2394,-243.0946 882,-176 877.1036,-152.9284 876.2907,-125.7395 876.4191,-107.7542"/>
<polygon fill="#191970" stroke="#191970" points="879.9206,-107.6927 876.5992,-97.632 872.9217,-107.5681 879.9206,-107.6927"/>
</g>
<!-- Node47&#45;&gt;Node6 -->
<g id="edge78" class="edge">
<title>Node47&#45;&gt;Node6</title>
<path fill="none" stroke="#191970" d="M1764.6015,-496.9909C1770.0557,-494.8755 1775.6505,-492.8085 1781,-491 1838.2004,-471.6625 1855.2758,-475.6928 1912,-455 1984.3937,-428.5911 2185.4355,-374.8896 2227,-310 2255.6247,-265.3117 2214.6338,-186.0812 2183,-134 2176.3393,-123.034 2166.5985,-112.6494 2157.8815,-104.5315"/>
<polygon fill="#191970" stroke="#191970" points="2160.0769,-101.7998 2150.2817,-97.7618 2155.4208,-107.0268 2160.0769,-101.7998"/>
</g>
<!-- Node47&#45;&gt;Node11 -->
<g id="edge91" class="edge">
<title>Node47&#45;&gt;Node11</title>
<path fill="none" stroke="#191970" d="M1762.3832,-496.8998C1768.478,-494.6108 1774.8549,-492.5125 1781,-491 1938.4264,-452.2525 1997.0589,-523.5036 2144,-455 2168.2128,-443.712 2164.0492,-426.6726 2187,-413 2233.3756,-385.3725 2270.4242,-420.0441 2303,-377 2333.2248,-337.0623 2321.6274,-273.3001 2313.035,-241.4421"/>
<polygon fill="#191970" stroke="#191970" points="2316.3291,-240.2335 2310.1945,-231.5954 2309.6034,-242.1737 2316.3291,-240.2335"/>
</g>
<!-- Node47&#45;&gt;Node13 -->
<g id="edge90" class="edge">
<title>Node47&#45;&gt;Node13</title>
<path fill="none" stroke="#191970" d="M1762.8696,-496.9579C1817.4115,-472.5851 1927.9129,-422.5865 2020,-377 2070.2553,-352.1218 2127.9375,-321.1863 2160.6667,-303.4052"/>
<polygon fill="#191970" stroke="#191970" points="2162.4892,-306.3982 2169.5984,-298.5426 2159.1421,-300.2502 2162.4892,-306.3982"/>
</g>
<!-- Node47&#45;&gt;Node24 -->
<g id="edge86" class="edge">
<title>Node47&#45;&gt;Node24</title>
<path fill="none" stroke="#191970" d="M1689.2811,-496.9608C1651.2358,-482.5553 1594.3838,-461.0288 1557.9984,-447.2518"/>
<polygon fill="#191970" stroke="#191970" points="1558.9027,-443.8518 1548.3112,-443.5839 1556.4239,-450.3982 1558.9027,-443.8518"/>
</g>
<!-- Node47&#45;&gt;Node25 -->
<g id="edge82" class="edge">
<title>Node47&#45;&gt;Node25</title>
<path fill="none" stroke="#191970" d="M1729,-496.741C1729,-469.3077 1729,-411.6885 1729,-381.2727"/>
<polygon fill="#191970" stroke="#191970" points="1732.5001,-381.0671 1729,-371.0671 1725.5001,-381.0671 1732.5001,-381.0671"/>
</g>
<!-- Node47&#45;&gt;Node32 -->
<g id="edge87" class="edge">
<title>Node47&#45;&gt;Node32</title>
<path fill="none" stroke="#191970" d="M1775.5998,-500.1357C1790.6402,-496.6978 1807.4456,-493.2648 1823,-491 1937.1847,-474.3739 2238.2895,-507.5845 2341,-455 2526.7634,-359.8951 2653.2624,-122.7287 2690.5621,-45.6342"/>
<polygon fill="#191970" stroke="#191970" points="2693.8945,-46.7778 2695.044,-36.2455 2687.5774,-43.7621 2693.8945,-46.7778"/>
</g>
<!-- Node47&#45;&gt;Node33 -->
<g id="edge89" class="edge">
<title>Node47&#45;&gt;Node33</title>
<path fill="none" stroke="#191970" d="M1711.8706,-496.8413C1699.543,-485.6695 1682.7365,-469.8903 1669,-455 1647.8914,-432.1185 1607.4979,-362.3401 1581,-346 1516.7425,-306.3751 1484.2879,-339.9724 1415,-310 1384.7895,-296.9316 1381.1558,-286.6016 1354,-268 1294.0982,-226.9674 1252.9341,-240.1902 1219,-176 1210.2759,-159.4974 1207.0312,-148.3246 1219,-134 1297.9129,-39.5546 2170.5541,-24.0453 2449.0894,-21.4996"/>
<polygon fill="#191970" stroke="#191970" points="2449.1722,-24.9991 2459.1409,-21.411 2449.1105,-17.9994 2449.1722,-24.9991"/>
</g>
<!-- Node47&#45;&gt;Node43 -->
<g id="edge88" class="edge">
<title>Node47&#45;&gt;Node43</title>
<path fill="none" stroke="#191970" d="M1721.9444,-496.6594C1706.5544,-464.6859 1667.0525,-390.2236 1614,-346 1594.313,-329.5893 1569.1355,-316.9535 1546.4696,-307.798"/>
<polygon fill="#191970" stroke="#191970" points="1547.5214,-304.4517 1536.9328,-304.0865 1544.9825,-310.9751 1547.5214,-304.4517"/>
</g>
<!-- Node48 -->
<g id="node49" class="node">
<title>Node48</title>
<g id="a_node49"><a xlink:href="Generic_8h.html" target="_top" xlink:title="hydra/detail/utility\l/Generic.h">
<polygon fill="none" stroke="#000000" points="2200.5,-346.5 2200.5,-376.5 2293.5,-376.5 2293.5,-346.5 2200.5,-346.5"/>
<text text-anchor="start" x="2208.5" y="-364.5" font-family="Helvetica,sans-Serif" font-size="10.00" fill="#000000">hydra/detail/utility</text>
<text text-anchor="middle" x="2247" y="-353.5" font-family="Helvetica,sans-Serif" font-size="10.00" fill="#000000">/Generic.h</text>
</a>
</g>
</g>
<!-- Node47&#45;&gt;Node48 -->
<g id="edge79" class="edge">
<title>Node47&#45;&gt;Node48</title>
<path fill="none" stroke="#191970" d="M1768.6706,-496.9505C1775.7003,-494.6851 1783.0085,-492.5818 1790,-491 1927.8686,-459.8086 1976.7103,-512.1385 2106,-455 2131.9279,-443.5414 2130.8025,-429.292 2154,-413 2170.5665,-401.365 2190.0099,-390.2459 2206.8236,-381.3366"/>
<polygon fill="#191970" stroke="#191970" points="2208.6104,-384.3522 2215.859,-376.625 2205.3738,-378.1453 2208.6104,-384.3522"/>
</g>
<!-- Node47&#45;&gt;Node49 -->
<g id="edge83" class="edge">
<title>Node47&#45;&gt;Node49</title>
<path fill="none" stroke="#191970" d="M1768.3127,-496.927C1775.4463,-494.6351 1782.8821,-492.5288 1790,-491 1961.0544,-454.2607 2009.6006,-484.7967 2182,-455 2195.026,-452.7487 2209.0222,-449.4866 2221.6985,-446.2022"/>
<polygon fill="#191970" stroke="#191970" points="2222.7752,-449.5375 2231.5379,-443.5822 2220.974,-442.7732 2222.7752,-449.5375"/>
</g>
<!-- Node48&#45;&gt;Node11 -->
<g id="edge81" class="edge">
<title>Node48&#45;&gt;Node11</title>
<path fill="none" stroke="#191970" d="M2253.5353,-346.3055C2264.5234,-320.758 2286.6774,-269.25 2298.7313,-241.2247"/>
<polygon fill="#191970" stroke="#191970" points="2302.0763,-242.3059 2302.8122,-231.7366 2295.6458,-239.5401 2302.0763,-242.3059"/>
</g>
<!-- Node48&#45;&gt;Node13 -->
<g id="edge80" class="edge">
<title>Node48&#45;&gt;Node13</title>
<path fill="none" stroke="#191970" d="M2234.568,-346.478C2224.9741,-334.8854 2211.6793,-318.8209 2201.5833,-306.6214"/>
<polygon fill="#191970" stroke="#191970" points="2204.2616,-304.3681 2195.1895,-298.8957 2198.8688,-308.8311 2204.2616,-304.3681"/>
</g>
<!-- Node49&#45;&gt;Node6 -->
<g id="edge85" class="edge">
<title>Node49&#45;&gt;Node6</title>
<path fill="none" stroke="#191970" d="M2278.7745,-424.3805C2292.8664,-414.3471 2313.4589,-397.2675 2324,-377 2357.9127,-311.7956 2362.4588,-280.174 2335,-212 2310.1582,-150.3235 2235.8746,-116.7061 2185.9629,-100.557"/>
<polygon fill="#191970" stroke="#191970" points="2186.9158,-97.188 2176.3274,-97.5569 2184.8348,-103.8715 2186.9158,-97.188"/>
</g>
<!-- Node49&#45;&gt;Node13 -->
<g id="edge84" class="edge">
<title>Node49&#45;&gt;Node13</title>
<path fill="none" stroke="#191970" d="M2244.2067,-424.4415C2227.0718,-414.9905 2203.315,-398.7894 2192,-377 2180.9102,-355.6441 2181.5581,-327.3197 2183.7079,-308.6462"/>
<polygon fill="#191970" stroke="#191970" points="2187.1864,-309.0429 2185.1093,-298.6536 2180.2543,-308.0706 2187.1864,-309.0429"/>
</g>
<!-- Node50&#45;&gt;Node1 -->
<g id="edge94" class="edge">
<title>Node50&#45;&gt;Node1</title>
<path fill="none" stroke="#191970" d="M1059.9082,-571.8956C978.7238,-562.4591 847.0334,-545.5255 828,-533 732.1935,-469.9517 744,-403.6908 744,-289 744,-289 744,-289 744,-222 744,-178.8522 754.9145,-164.9288 785,-134 799.183,-119.4195 818.9585,-108.7071 836.5419,-101.3072"/>
<polygon fill="#191970" stroke="#191970" points="838.0357,-104.4799 846.0356,-97.5335 835.4499,-97.975 838.0357,-104.4799"/>
</g>
<!-- Node50&#45;&gt;Node6 -->
<g id="edge95" class="edge">
<title>Node50&#45;&gt;Node6</title>
<path fill="none" stroke="#191970" d="M1146.6507,-569.4796C1161.6356,-561.9099 1180.256,-549.7914 1190,-533 1207.4695,-502.8956 1195.4429,-489.7711 1197,-455 1199.1804,-406.3117 1205.5817,-390.1781 1185,-346 1176.2046,-327.1209 1162.0902,-329.5833 1155,-310 1148.6454,-292.4483 1142.4652,-281.8319 1155,-268 1209.731,-207.6053 1441.1149,-252.4976 1520,-232 1541.5767,-226.3935 1544.999,-219.4796 1566,-212 1621.6706,-192.1726 1642.34,-204.6982 1694,-176 1718.2008,-162.556 1714.8074,-145.4784 1740,-134 1800.9479,-106.2307 1995.4239,-94.2097 2088.0428,-89.9579"/>
<polygon fill="#191970" stroke="#191970" points="2088.4501,-93.4433 2098.2839,-89.5005 2088.1377,-86.4502 2088.4501,-93.4433"/>
</g>
<!-- Node50&#45;&gt;Node8 -->
<g id="edge96" class="edge">
<title>Node50&#45;&gt;Node8</title>
<path fill="none" stroke="#191970" d="M1125.1462,-569.4005C1126.3106,-559.649 1128.1481,-544.2597 1129.6275,-531.8695"/>
<polygon fill="#191970" stroke="#191970" points="1133.1455,-531.9261 1130.8559,-521.5817 1126.1949,-531.0961 1133.1455,-531.9261"/>
</g>
<!-- Node50&#45;&gt;Node18 -->
<g id="edge97" class="edge">
<title>Node50&#45;&gt;Node18</title>
<path fill="none" stroke="#191970" d="M1059.7529,-575.3124C983.9677,-570.0162 854.5531,-557.9966 746,-533 736.9596,-530.9183 727.3836,-527.9853 718.5648,-524.9698"/>
<polygon fill="#191970" stroke="#191970" points="719.5936,-521.621 708.9989,-521.5711 717.2501,-528.2171 719.5936,-521.621"/>
</g>
<!-- Node50&#45;&gt;Node24 -->
<g id="edge98" class="edge">
<title>Node50&#45;&gt;Node24</title>
<path fill="none" stroke="#191970" d="M1150.1795,-569.4861C1219.5106,-544.2906 1407.9737,-475.8015 1487.1788,-447.0177"/>
<polygon fill="#191970" stroke="#191970" points="1488.5209,-450.254 1496.7241,-443.5489 1486.13,-443.675 1488.5209,-450.254"/>
</g>
<!-- Node50&#45;&gt;Node47 -->
<g id="edge99" class="edge">
<title>Node50&#45;&gt;Node47</title>
<path fill="none" stroke="#191970" d="M1188.1728,-571.8933C1306.8713,-558.7481 1558.8973,-530.8378 1671.9887,-518.3136"/>
<polygon fill="#191970" stroke="#191970" points="1672.6119,-521.7661 1682.1659,-517.1866 1671.8414,-514.8087 1672.6119,-521.7661"/>
</g>
<!-- Node51 -->
<g id="node52" class="node">
<title>Node51</title>
<g id="a_node52"><a xlink:href="Hash_8h.html" target="_top" xlink:title="hydra/detail/Hash.h">
<polygon fill="none" stroke="#000000" points="837.5,-502.5 837.5,-521.5 938.5,-521.5 938.5,-502.5 837.5,-502.5"/>
<text text-anchor="middle" x="888" y="-509.5" font-family="Helvetica,sans-Serif" font-size="10.00" fill="#000000">hydra/detail/Hash.h</text>
</a>
</g>
</g>
<!-- Node50&#45;&gt;Node51 -->
<g id="edge100" class="edge">
<title>Node50&#45;&gt;Node51</title>
<path fill="none" stroke="#191970" d="M1090.4376,-569.4717C1048.7054,-557.624 977.3836,-537.3758 931.497,-524.3487"/>
<polygon fill="#191970" stroke="#191970" points="932.4045,-520.9681 921.8287,-521.6039 930.4927,-527.702 932.4045,-520.9681"/>
</g>
<!-- Node53 -->
<g id="node54" class="node">
<title>Node53</title>
<polygon fill="none" stroke="#bfbfbf" points="1013,-502.5 1013,-521.5 1065,-521.5 1065,-502.5 1013,-502.5"/>
<text text-anchor="middle" x="1039" y="-509.5" font-family="Helvetica,sans-Serif" font-size="10.00" fill="#000000">assert.h</text>
</g>
<!-- Node50&#45;&gt;Node53 -->
<g id="edge102" class="edge">
<title>Node50&#45;&gt;Node53</title>
<path fill="none" stroke="#191970" d="M1111.8216,-569.4005C1098.0616,-558.5544 1075.4535,-540.7339 1059.0738,-527.8229"/>
<polygon fill="#191970" stroke="#191970" points="1061.1761,-525.0234 1051.1558,-521.5817 1056.8427,-530.5209 1061.1761,-525.0234"/>
</g>
<!-- Node52 -->
<g id="node53" class="node">
<title>Node52</title>
<polygon fill="none" stroke="#bfbfbf" points="788.5,-424.5 788.5,-443.5 847.5,-443.5 847.5,-424.5 788.5,-424.5"/>
<text text-anchor="middle" x="818" y="-431.5" font-family="Helvetica,sans-Serif" font-size="10.00" fill="#000000">functional</text>
</g>
<!-- Node51&#45;&gt;Node52 -->
<g id="edge101" class="edge">
<title>Node51&#45;&gt;Node52</title>
<path fill="none" stroke="#191970" d="M879.4166,-502.4357C867.976,-489.6875 847.5323,-466.9074 833.3922,-451.1514"/>
<polygon fill="#191970" stroke="#191970" points="835.9376,-448.7473 826.6536,-443.6426 830.7279,-453.4227 835.9376,-448.7473"/>
</g>
<!-- Node56&#45;&gt;Node1 -->
<g id="edge111" class="edge">
<title>Node56&#45;&gt;Node1</title>
<path fill="none" stroke="#191970" d="M1957.4667,-576.2422C1880.0877,-569.7669 1683.1112,-552.6455 1519,-533 1503.706,-531.1692 982.357,-464.1957 970,-455 857.3153,-371.1433 867.9555,-171.5514 874.5485,-107.8809"/>
<polygon fill="#191970" stroke="#191970" points="878.0614,-107.9612 875.7018,-97.6325 871.1054,-107.1783 878.0614,-107.9612"/>
</g>
<!-- Node56&#45;&gt;Node6 -->
<g id="edge112" class="edge">
<title>Node56&#45;&gt;Node6</title>
<path fill="none" stroke="#191970" d="M2024.6305,-575.5573C2070.232,-570.1583 2153.7086,-557.6657 2221,-533 2254.6207,-520.6763 2339.2856,-482.6817 2362,-455 2444.5628,-354.3818 2430.9841,-304.608 2451,-176 2453.8706,-157.5554 2463.2753,-148.0628 2451,-134 2413.8887,-91.4846 2260.7185,-106.3265 2187.7059,-97.7469"/>
<polygon fill="#191970" stroke="#191970" points="2187.9316,-94.2439 2177.5385,-96.3015 2186.9463,-101.1742 2187.9316,-94.2439"/>
</g>
<!-- Node56&#45;&gt;Node8 -->
<g id="edge113" class="edge">
<title>Node56&#45;&gt;Node8</title>
<path fill="none" stroke="#191970" d="M1957.2214,-576.453C1866.0342,-569.567 1607.2326,-549.9564 1392,-533 1323.2229,-527.5816 1244.2281,-521.1753 1191.533,-516.8757"/>
<polygon fill="#191970" stroke="#191970" points="1191.6071,-513.3702 1181.3554,-516.0448 1191.0374,-520.3469 1191.6071,-513.3702"/>
</g>
<!-- Node56&#45;&gt;Node11 -->
<g id="edge120" class="edge">
<title>Node56&#45;&gt;Node11</title>
<path fill="none" stroke="#191970" d="M2024.58,-569.5111C2108.5108,-545.4655 2322.0743,-482.1293 2341,-455 2355.4304,-434.3146 2373.6437,-401.0885 2334,-268 2331.0421,-258.0699 2325.5119,-248.0327 2320.2231,-239.8789"/>
<polygon fill="#191970" stroke="#191970" points="2323.0604,-237.8281 2314.5044,-231.5795 2317.2963,-241.7998 2323.0604,-237.8281"/>
</g>
<!-- Node56&#45;&gt;Node17 -->
<g id="edge123" class="edge">
<title>Node56&#45;&gt;Node17</title>
<path fill="none" stroke="#191970" d="M1957.4686,-576.6199C1876.6272,-570.618 1672.8757,-553.8471 1608,-533 1539.4469,-510.9712 1528.8343,-490.166 1466,-455 1416.8024,-427.4659 1359.6725,-394.718 1327.4842,-376.1952"/>
<polygon fill="#191970" stroke="#191970" points="1329.1253,-373.1015 1318.7128,-371.1445 1325.6323,-379.1677 1329.1253,-373.1015"/>
</g>
<!-- Node56&#45;&gt;Node19 -->
<g id="edge121" class="edge">
<title>Node56&#45;&gt;Node19</title>
<path fill="none" stroke="#191970" d="M2024.6361,-577.3351C2102.1609,-573.0739 2291.1049,-560.1437 2348,-533 2372.3999,-521.3592 2367.8872,-503.2245 2392,-491 2417.725,-477.9581 2606.4525,-449.3933 2681.4232,-438.4172"/>
<polygon fill="#191970" stroke="#191970" points="2682.2358,-441.8358 2691.6261,-436.9294 2681.2257,-434.9091 2682.2358,-441.8358"/>
</g>
<!-- Node56&#45;&gt;Node24 -->
<g id="edge114" class="edge">
<title>Node56&#45;&gt;Node24</title>
<path fill="none" stroke="#191970" d="M1957.4628,-576.0502C1886.8919,-569.533 1725.3341,-552.8963 1674,-533 1642.9665,-520.9719 1639.7939,-509.31 1612,-491 1590.0792,-476.559 1564.864,-460.4573 1546.8824,-449.0609"/>
<polygon fill="#191970" stroke="#191970" points="1548.5163,-445.953 1538.1943,-443.564 1544.7736,-451.8684 1548.5163,-445.953"/>
</g>
<!-- Node56&#45;&gt;Node32 -->
<g id="edge119" class="edge">
<title>Node56&#45;&gt;Node32</title>
<path fill="none" stroke="#191970" d="M2024.5354,-578.0871C2176.944,-573.8215 2798.3848,-555.1271 2833,-533 2905.703,-486.5258 2924,-447.7878 2924,-361.5 2924,-361.5 2924,-361.5 2924,-155 2924,-79.8503 2829.6058,-45.7301 2763.9212,-31.0845"/>
<polygon fill="#191970" stroke="#191970" points="2764.5591,-27.6419 2754.0491,-28.9801 2763.0997,-34.4881 2764.5591,-27.6419"/>
</g>
<!-- Node56&#45;&gt;Node33 -->
<g id="edge117" class="edge">
<title>Node56&#45;&gt;Node33</title>
<path fill="none" stroke="#191970" d="M2024.5156,-575.3964C2090.24,-568.0471 2233.6729,-550.5365 2280,-533 2282.0774,-532.2136 2550,-363.7213 2550,-361.5 2550,-361.5 2550,-361.5 2550,-222 2550,-157.4453 2586.5506,-140.1231 2569,-78 2566.2585,-68.296 2561.3498,-58.6169 2556.0596,-50.0624"/>
<polygon fill="#191970" stroke="#191970" points="2558.9085,-48.0248 2550.4833,-41.6008 2553.0635,-51.8767 2558.9085,-48.0248"/>
</g>
<!-- Node56&#45;&gt;Node47 -->
<g id="edge115" class="edge">
<title>Node56&#45;&gt;Node47</title>
<path fill="none" stroke="#191970" d="M1957.2844,-570.3781C1913.9182,-559.2882 1837.9664,-539.8655 1785.6565,-526.4885"/>
<polygon fill="#191970" stroke="#191970" points="1786.4076,-523.068 1775.8522,-523.9813 1784.6732,-529.8498 1786.4076,-523.068"/>
</g>
<!-- Node56&#45;&gt;Node49 -->
<g id="edge116" class="edge">
<title>Node56&#45;&gt;Node49</title>
<path fill="none" stroke="#191970" d="M2008.9123,-569.4861C2055.6731,-544.6498 2181.6376,-477.7456 2237.1278,-448.2728"/>
<polygon fill="#191970" stroke="#191970" points="2238.832,-451.3308 2246.0218,-443.5489 2235.5484,-445.1486 2238.832,-451.3308"/>
</g>
<!-- Node56&#45;&gt;Node54 -->
<g id="edge118" class="edge">
<title>Node56&#45;&gt;Node54</title>
<path fill="none" stroke="#191970" d="M1975.6695,-569.4005C1962.5593,-561.1913 1943.0683,-548.9867 1925.4257,-537.9394"/>
<polygon fill="#191970" stroke="#191970" points="1927.2823,-534.9725 1916.9492,-532.6318 1923.5673,-540.9054 1927.2823,-534.9725"/>
</g>
<!-- Node56&#45;&gt;Node55 -->
<g id="edge122" class="edge">
<title>Node56&#45;&gt;Node55</title>
<path fill="none" stroke="#191970" d="M1991,-569.4005C1991,-559.649 1991,-544.2597 1991,-531.8695"/>
<polygon fill="#191970" stroke="#191970" points="1994.5001,-531.5816 1991,-521.5817 1987.5001,-531.5817 1994.5001,-531.5816"/>
</g>
<!-- Node57 -->
<g id="node58" class="node">
<title>Node57</title>
<polygon fill="none" stroke="#bfbfbf" points="2400.5,-502.5 2400.5,-521.5 2483.5,-521.5 2483.5,-502.5 2400.5,-502.5"/>
<text text-anchor="middle" x="2442" y="-509.5" font-family="Helvetica,sans-Serif" font-size="10.00" fill="#000000">unordered_map</text>
</g>
<!-- Node56&#45;&gt;Node57 -->
<g id="edge124" class="edge">
<title>Node56&#45;&gt;Node57</title>
<path fill="none" stroke="#191970" d="M2024.5113,-577.8358C2093.2186,-574.853 2254.6435,-564.7767 2386,-533 2394.2512,-531.0039 2402.9438,-528.1409 2410.9543,-525.1683"/>
<polygon fill="#191970" stroke="#191970" points="2412.2539,-528.4183 2420.3115,-521.5389 2409.7225,-521.8921 2412.2539,-528.4183"/>
</g>
<!-- Node58&#45;&gt;Node1 -->
<g id="edge127" class="edge">
<title>Node58&#45;&gt;Node1</title>
<path fill="none" stroke="#191970" d="M2730.3061,-507.8533C2674.0637,-503.0193 2576.6976,-495.1628 2493,-491 2336.8086,-483.2317 1232.5509,-509.5796 1086,-455 1034.8047,-435.9334 1023.1648,-421.1579 991,-377 926.0382,-287.8165 892.1033,-156.6266 881.0894,-107.5104"/>
<polygon fill="#191970" stroke="#191970" points="884.476,-106.612 878.9291,-97.5853 877.6361,-108.1009 884.476,-106.612"/>
</g>
<!-- Node58&#45;&gt;Node19 -->
<g id="edge130" class="edge">
<title>Node58&#45;&gt;Node19</title>
<path fill="none" stroke="#191970" d="M2764.4673,-496.9608C2753.5914,-483.9097 2737.8446,-465.0136 2726.4423,-451.3308"/>
<polygon fill="#191970" stroke="#191970" points="2729.0772,-449.0254 2719.9866,-443.5839 2723.6997,-453.5068 2729.0772,-449.0254"/>
</g>
<!-- Node59 -->
<g id="node60" class="node">
<title>Node59</title>
<polygon fill="none" stroke="#bfbfbf" points="2750,-424.5 2750,-443.5 2796,-443.5 2796,-424.5 2750,-424.5"/>
<text text-anchor="middle" x="2773" y="-431.5" font-family="Helvetica,sans-Serif" font-size="10.00" fill="#000000">stdio.h</text>
</g>
<!-- Node58&#45;&gt;Node59 -->
<g id="edge128" class="edge">
<title>Node58&#45;&gt;Node59</title>
<path fill="none" stroke="#191970" d="M2776.2288,-496.9608C2775.5974,-484.6484 2774.6992,-467.134 2774.0104,-453.7024"/>
<polygon fill="#191970" stroke="#191970" points="2777.4991,-453.3915 2773.4915,-443.5839 2770.5083,-453.75 2777.4991,-453.3915"/>
</g>
<!-- Node60 -->
<g id="node61" class="node">
<title>Node60</title>
<polygon fill="none" stroke="#bfbfbf" points="2814,-424.5 2814,-443.5 2858,-443.5 2858,-424.5 2814,-424.5"/>
<text text-anchor="middle" x="2836" y="-431.5" font-family="Helvetica,sans-Serif" font-size="10.00" fill="#000000">cmath</text>
</g>
<!-- Node58&#45;&gt;Node60 -->
<g id="edge129" class="edge">
<title>Node58&#45;&gt;Node60</title>
<path fill="none" stroke="#191970" d="M2788.3758,-496.9608C2798.1547,-484.0328 2812.2717,-465.3696 2822.5969,-451.7194"/>
<polygon fill="#191970" stroke="#191970" points="2825.5094,-453.6707 2828.7507,-443.5839 2819.9266,-449.4478 2825.5094,-453.6707"/>
</g>
<!-- Node61&#45;&gt;Node19 -->
<g id="edge133" class="edge">
<title>Node61&#45;&gt;Node19</title>
<path fill="none" stroke="#191970" d="M2937.8766,-507.389C2890.1091,-500.586 2806.564,-485.2557 2741,-455 2737.7405,-453.4958 2734.4758,-451.6016 2731.3741,-449.5699"/>
<polygon fill="#191970" stroke="#191970" points="2733.3651,-446.6906 2723.2041,-443.6895 2729.2758,-452.372 2733.3651,-446.6906"/>
</g>
<!-- Node61&#45;&gt;Node32 -->
<g id="edge134" class="edge">
<title>Node61&#45;&gt;Node32</title>
<path fill="none" stroke="#191970" d="M2974.4483,-502.1686C2970.8032,-478.1913 2962,-414.7698 2962,-361.5 2962,-361.5 2962,-361.5 2962,-155 2962,-119.154 2964.1592,-102.5079 2938,-78 2913.0873,-54.6599 2825.2152,-38.0356 2764.0322,-28.9729"/>
<polygon fill="#191970" stroke="#191970" points="2764.4764,-25.5008 2754.0777,-27.5298 2763.472,-32.4284 2764.4764,-25.5008"/>
</g>
<!-- Node61&#45;&gt;Node48 -->
<g id="edge136" class="edge">
<title>Node61&#45;&gt;Node48</title>
<path fill="none" stroke="#191970" d="M2969.1337,-502.4783C2953.6401,-481.8546 2913.6536,-433.2835 2867,-413 2816.1461,-390.8903 2447.905,-371.1122 2304.2119,-364.1528"/>
<polygon fill="#191970" stroke="#191970" points="2304.0111,-360.6392 2293.8545,-363.6545 2303.6747,-367.6311 2304.0111,-360.6392"/>
</g>
<!-- Node62 -->
<g id="node63" class="node">
<title>Node62</title>
<polygon fill="none" stroke="#bfbfbf" points="2990,-413.5 2990,-454.5 3094,-454.5 3094,-413.5 2990,-413.5"/>
<text text-anchor="start" x="2998" y="-442.5" font-family="Helvetica,sans-Serif" font-size="10.00" fill="#000000">hydra/detail/external</text>
<text text-anchor="start" x="2998" y="-431.5" font-family="Helvetica,sans-Serif" font-size="10.00" fill="#000000">/thrust/detail/tuple</text>
<text text-anchor="middle" x="3042" y="-420.5" font-family="Helvetica,sans-Serif" font-size="10.00" fill="#000000">/tuple.h</text>
</g>
<!-- Node61&#45;&gt;Node62 -->
<g id="edge135" class="edge">
<title>Node61&#45;&gt;Node62</title>
<path fill="none" stroke="#191970" d="M2984.0929,-502.4357C2992.4375,-492.5739 3005.8619,-476.7087 3017.685,-462.7359"/>
<polygon fill="#191970" stroke="#191970" points="3020.6231,-464.682 3024.4107,-454.7873 3015.2794,-460.1604 3020.6231,-464.682"/>
</g>
</g>
</svg>
