<?xml version="1.0" encoding="UTF-8" standalone="no"?>
<!DOCTYPE svg PUBLIC "-//W3C//DTD SVG 1.1//EN"
 "http://www.w3.org/Graphics/SVG/1.1/DTD/svg11.dtd">
<!-- Generated by graphviz version 2.42.4 (0)
 -->
<!-- Title: TriangularShape.h Pages: 1 -->
<!--zoomable 140 -->
<svg id="main" version="1.1" xmlns="http://www.w3.org/2000/svg" xmlns:xlink="http://www.w3.org/1999/xlink" xml:space="preserve" onload="init(evt)">
<style type="text/css"><![CDATA[
.edge:hover path { stroke: red; }
.edge:hover polygon { stroke: red; fill: red; }
]]></style>
<script type="text/javascript"><![CDATA[
var edges = document.getElementsByTagName('g');
if (edges && edges.length) {
  for (var i=0;i<edges.length;i++) {
    if (edges[i].id.substr(0,4)=='edge') {
      edges[i].setAttribute('class','edge');
    }
  }
}
]]></script>
        <defs>
                <circle id="rim" cx="0" cy="0" r="7"/>
                <circle id="rim2" cx="0" cy="0" r="3.5"/>
                <g id="zoomPlus">
                        <use xlink:href="#rim" fill="#404040">
                                <set attributeName="fill" to="#808080" begin="zoomplus.mouseover" end="zoomplus.mouseout"/>
                        </use>
                        <path d="M-4,0h8M0,-4v8" fill="none" stroke="white" stroke-width="1.5" pointer-events="none"/>
                </g>
                <g id="zoomMin">
                        <use xlink:href="#rim" fill="#404040">
                                <set attributeName="fill" to="#808080" begin="zoomminus.mouseover" end="zoomminus.mouseout"/>
                        </use>
                        <path d="M-4,0h8" fill="none" stroke="white" stroke-width="1.5" pointer-events="none"/>
                </g>
                <g id="dirArrow">
                        <path fill="none" stroke="white" stroke-width="1.5" d="M0,-3.0v7 M-2.5,-0.5L0,-3.0L2.5,-0.5"/>
                </g>
               <g id="resetDef">
                       <use xlink:href="#rim2" fill="#404040">
                               <set attributeName="fill" to="#808080" begin="reset.mouseover" end="reset.mouseout"/>
                       </use>
               </g>
        </defs>

<script type="text/javascript">
var viewWidth = 739;
var viewHeight = 140;
var sectionId = 'dynsection-1';
</script>
<script xlink:href="svgpan.js"/>
<svg id="graph" class="graph">
<g id="viewport">
<title>TriangularShape.h</title>
<!-- Node64 -->
<g id="node1" class="node">
<title>Node64</title>
<polygon fill="#bfbfbf" stroke="black" points="268.5,-112.5 268.5,-131.5 363.5,-131.5 363.5,-112.5 268.5,-112.5"/>
<text text-anchor="middle" x="316" y="-119.5" font-family="Helvetica,sans-Serif" font-size="10.00">TriangularShape.h</text>
</g>
<!-- Node65 -->
<g id="node2" class="node">
<title>Node65</title>
<g id="a_node2"><a xlink:href="quick__test_8inl.html" target="_top" xlink:title="quick_test.inl">
<polygon fill="none" stroke="black" points="99,-56.5 99,-75.5 173,-75.5 173,-56.5 99,-56.5"/>
<text text-anchor="middle" x="136" y="-63.5" font-family="Helvetica,sans-Serif" font-size="10.00">quick_test.inl</text>
</a>
</g>
</g>
<!-- Node64&#45;&gt;Node65 -->
<g id="edge1" class="edge">
<title>Node64&#45;&gt;Node65</title>
<path fill="none" stroke="midnightblue" d="M277.89,-109.57C243.94,-99.38 195.01,-84.7 164.39,-75.52"/>
<polygon fill="midnightblue" stroke="midnightblue" points="276.89,-112.92 287.48,-112.44 278.91,-106.22 276.89,-112.92"/>
</g>
<!-- Node68 -->
<g id="node5" class="node">
<title>Node68</title>
<g id="a_node5"><a xlink:href="basic__distributions_8inl.html" target="_top" xlink:title="basic_distributions.inl">
<polygon fill="none" stroke="black" points="261,-56.5 261,-75.5 371,-75.5 371,-56.5 261,-56.5"/>
<text text-anchor="middle" x="316" y="-63.5" font-family="Helvetica,sans-Serif" font-size="10.00">basic_distributions.inl</text>
</a>
</g>
</g>
<!-- Node64&#45;&gt;Node68 -->
<g id="edge4" class="edge">
<title>Node64&#45;&gt;Node68</title>
<path fill="none" stroke="midnightblue" d="M316,-101.8C316,-92.91 316,-82.78 316,-75.75"/>
<polygon fill="midnightblue" stroke="midnightblue" points="312.5,-102.08 316,-112.08 319.5,-102.08 312.5,-102.08"/>
</g>
<!-- Node71 -->
<g id="node8" class="node">
<title>Node71</title>
<g id="a_node8"><a xlink:href="fill__basic__distributions_8inl.html" target="_top" xlink:title="fill_basic_distributions.inl">
<polygon fill="none" stroke="black" points="458.5,-56.5 458.5,-75.5 583.5,-75.5 583.5,-56.5 458.5,-56.5"/>
<text text-anchor="middle" x="521" y="-63.5" font-family="Helvetica,sans-Serif" font-size="10.00">fill_basic_distributions.inl</text>
</a>
</g>
</g>
<!-- Node64&#45;&gt;Node71 -->
<g id="edge7" class="edge">
<title>Node64&#45;&gt;Node71</title>
<path fill="none" stroke="midnightblue" d="M358.41,-109.83C397.11,-99.63 453.49,-84.78 488.67,-75.52"/>
<polygon fill="midnightblue" stroke="midnightblue" points="357.26,-106.51 348.48,-112.44 359.04,-113.28 357.26,-106.51"/>
</g>
<!-- Node66 -->
<g id="node3" class="node">
<title>Node66</title>
<g id="a_node3"><a xlink:href="quick__test_8cpp.html" target="_top" xlink:title="quick_test.cpp">
<polygon fill="none" stroke="black" points="0,-0.5 0,-19.5 80,-19.5 80,-0.5 0,-0.5"/>
<text text-anchor="middle" x="40" y="-7.5" font-family="Helvetica,sans-Serif" font-size="10.00">quick_test.cpp</text>
</a>
</g>
</g>
<!-- Node65&#45;&gt;Node66 -->
<g id="edge2" class="edge">
<title>Node65&#45;&gt;Node66</title>
<path fill="none" stroke="midnightblue" d="M111.43,-51.18C93.76,-41.24 70.49,-28.15 55.39,-19.65"/>
<polygon fill="midnightblue" stroke="midnightblue" points="110.14,-54.47 120.58,-56.32 113.58,-48.37 110.14,-54.47"/>
</g>
<!-- Node67 -->
<g id="node4" class="node">
<title>Node67</title>
<g id="a_node4"><a xlink:href="quick__test_8cu.html" target="_top" xlink:title="quick_test.cu">
<polygon fill="none" stroke="black" points="98.5,-0.5 98.5,-19.5 173.5,-19.5 173.5,-0.5 98.5,-0.5"/>
<text text-anchor="middle" x="136" y="-7.5" font-family="Helvetica,sans-Serif" font-size="10.00">quick_test.cu</text>
</a>
</g>
</g>
<!-- Node65&#45;&gt;Node67 -->
<g id="edge3" class="edge">
<title>Node65&#45;&gt;Node67</title>
<path fill="none" stroke="midnightblue" d="M136,-45.8C136,-36.91 136,-26.78 136,-19.75"/>
<polygon fill="midnightblue" stroke="midnightblue" points="132.5,-46.08 136,-56.08 139.5,-46.08 132.5,-46.08"/>
</g>
<!-- Node69 -->
<g id="node6" class="node">
<title>Node69</title>
<g id="a_node6"><a xlink:href="basic__distributions_8cpp.html" target="_top" xlink:title="basic_distributions.cpp">
<polygon fill="none" stroke="black" points="192,-0.5 192,-19.5 308,-19.5 308,-0.5 192,-0.5"/>
<text text-anchor="middle" x="250" y="-7.5" font-family="Helvetica,sans-Serif" font-size="10.00">basic_distributions.cpp</text>
</a>
</g>
</g>
<!-- Node68&#45;&gt;Node69 -->
<g id="edge5" class="edge">
<title>Node68&#45;&gt;Node69</title>
<path fill="none" stroke="midnightblue" d="M297.45,-49.82C285.62,-40.15 270.71,-27.95 260.8,-19.83"/>
<polygon fill="midnightblue" stroke="midnightblue" points="295.44,-52.7 305.4,-56.32 299.87,-47.28 295.44,-52.7"/>
</g>
<!-- Node70 -->
<g id="node7" class="node">
<title>Node70</title>
<g id="a_node7"><a xlink:href="basic__distributions_8cu.html" target="_top" xlink:title="basic_distributions.cu">
<polygon fill="none" stroke="black" points="326.5,-0.5 326.5,-19.5 437.5,-19.5 437.5,-0.5 326.5,-0.5"/>
<text text-anchor="middle" x="382" y="-7.5" font-family="Helvetica,sans-Serif" font-size="10.00">basic_distributions.cu</text>
</a>
</g>
</g>
<!-- Node68&#45;&gt;Node70 -->
<g id="edge6" class="edge">
<title>Node68&#45;&gt;Node70</title>
<path fill="none" stroke="midnightblue" d="M334.55,-49.82C346.38,-40.15 361.29,-27.95 371.2,-19.83"/>
<polygon fill="midnightblue" stroke="midnightblue" points="332.13,-47.28 326.6,-56.32 336.56,-52.7 332.13,-47.28"/>
</g>
<!-- Node72 -->
<g id="node9" class="node">
<title>Node72</title>
<g id="a_node9"><a xlink:href="fill__basic__distributions_8cpp.html" target="_top" xlink:title="fill_basic_distributions.cpp">
<polygon fill="none" stroke="black" points="455.5,-0.5 455.5,-19.5 586.5,-19.5 586.5,-0.5 455.5,-0.5"/>
<text text-anchor="middle" x="521" y="-7.5" font-family="Helvetica,sans-Serif" font-size="10.00">fill_basic_distributions.cpp</text>
</a>
</g>
</g>
<!-- Node71&#45;&gt;Node72 -->
<g id="edge8" class="edge">
<title>Node71&#45;&gt;Node72</title>
<path fill="none" stroke="midnightblue" d="M521,-45.8C521,-36.91 521,-26.78 521,-19.75"/>
<polygon fill="midnightblue" stroke="midnightblue" points="517.5,-46.08 521,-56.08 524.5,-46.08 517.5,-46.08"/>
</g>
<!-- Node73 -->
<g id="node10" class="node">
<title>Node73</title>
<g id="a_node10"><a xlink:href="fill__basic__distributions_8cu.html" target="_top" xlink:title="fill_basic_distributions.cu">
<polygon fill="none" stroke="black" points="605,-0.5 605,-19.5 731,-19.5 731,-0.5 605,-0.5"/>
<text text-anchor="middle" x="668" y="-7.5" font-family="Helvetica,sans-Serif" font-size="10.00">fill_basic_distributions.cu</text>
</a>
</g>
</g>
<!-- Node71&#45;&gt;Node73 -->
<g id="edge9" class="edge">
<title>Node71&#45;&gt;Node73</title>
<path fill="none" stroke="midnightblue" d="M553.92,-52.91C581.56,-42.75 620.34,-28.51 644.82,-19.52"/>
<polygon fill="midnightblue" stroke="midnightblue" points="552.47,-49.71 544.29,-56.44 554.89,-56.28 552.47,-49.71"/>
</g>
</g>
</svg>
        <g id="navigator" transform="translate(0 0)" fill="#404254">
                <rect fill="#f2f5e9" fill-opacity="0.5" stroke="#606060" stroke-width=".5" x="0" y="0" width="60" height="60"/>
                <use id="zoomplus" xlink:href="#zoomPlus" x="17" y="9" onmousedown="handleZoom(evt,'in')"/>
                <use id="zoomminus" xlink:href="#zoomMin" x="42" y="9" onmousedown="handleZoom(evt,'out')"/>
                <use id="reset" xlink:href="#resetDef" x="30" y="36" onmousedown="handleReset()"/>
                <g id="arrowUp" xlink:href="#dirArrow" transform="translate(30 24)" onmousedown="handlePan(0,-1)">
                  <use xlink:href="#rim" fill="#404040">
                        <set attributeName="fill" to="#808080" begin="arrowUp.mouseover" end="arrowUp.mouseout"/>
                  </use>
                  <path fill="none" stroke="white" stroke-width="1.5" d="M0,-3.0v7 M-2.5,-0.5L0,-3.0L2.5,-0.5"/>
                </g>
                <g id="arrowRight" xlink:href="#dirArrow" transform="rotate(90) translate(36 -43)" onmousedown="handlePan(1,0)">
                  <use xlink:href="#rim" fill="#404040">
                        <set attributeName="fill" to="#808080" begin="arrowRight.mouseover" end="arrowRight.mouseout"/>
                  </use>
                  <path fill="none" stroke="white" stroke-width="1.5" d="M0,-3.0v7 M-2.5,-0.5L0,-3.0L2.5,-0.5"/>
                </g>
                <g id="arrowDown" xlink:href="#dirArrow" transform="rotate(180) translate(-30 -48)" onmousedown="handlePan(0,1)">
                  <use xlink:href="#rim" fill="#404040">
                        <set attributeName="fill" to="#808080" begin="arrowDown.mouseover" end="arrowDown.mouseout"/>
                  </use>
                  <path fill="none" stroke="white" stroke-width="1.5" d="M0,-3.0v7 M-2.5,-0.5L0,-3.0L2.5,-0.5"/>
                </g>
                <g id="arrowLeft" xlink:href="#dirArrow" transform="rotate(270) translate(-36 17)" onmousedown="handlePan(-1,0)">
                  <use xlink:href="#rim" fill="#404040">
                        <set attributeName="fill" to="#808080" begin="arrowLeft.mouseover" end="arrowLeft.mouseout"/>
                  </use>
                  <path fill="none" stroke="white" stroke-width="1.5" d="M0,-3.0v7 M-2.5,-0.5L0,-3.0L2.5,-0.5"/>
                </g>
        </g>
        <svg viewBox="0 0 15 15" width="100%" height="30px" preserveAspectRatio="xMaxYMin meet">
         <g id="arrow_out" transform="scale(0.3 0.3)">
          <a xlink:href="TriangularShape_8h__dep__incl_org.svg" target="_base">
           <rect id="button" ry="5" rx="5" y="6" x="6" height="38" width="38"
                fill="#f2f5e9" fill-opacity="0.5" stroke="#606060" stroke-width="1.0"/>
           <path id="arrow"
             d="M 11.500037,31.436501 C 11.940474,20.09759 22.043105,11.32322 32.158766,21.979434 L 37.068811,17.246167 C 37.068811,17.246167 37.088388,32 37.088388,32 L 22.160133,31.978069 C 22.160133,31.978069 26.997745,27.140456 26.997745,27.140456 C 18.528582,18.264221 13.291696,25.230495 11.500037,31.436501 z"
             style="fill:#404040;"/>
          </a>
         </g>
        </svg>
</svg>
