<?xml version="1.0" encoding="UTF-8" standalone="no"?>
<!DOCTYPE svg PUBLIC "-//W3C//DTD SVG 1.1//EN"
 "http://www.w3.org/Graphics/SVG/1.1/DTD/svg11.dtd">
<!-- Generated by graphviz version 2.42.4 (0)
 -->
<!-- Title: Tuple.h Pages: 1 -->
<svg width="592pt" height="184pt"
 viewBox="0.00 0.00 592.00 184.00" xmlns="http://www.w3.org/2000/svg" xmlns:xlink="http://www.w3.org/1999/xlink">
<g id="graph0" class="graph" transform="scale(1 1) rotate(0) translate(4 180)">
<title>Tuple.h</title>
<!-- Node0 -->
<g id="node1" class="node">
<title>Node0</title>
<polygon fill="#bfbfbf" stroke="black" points="337.5,-156.5 337.5,-175.5 386.5,-175.5 386.5,-156.5 337.5,-156.5"/>
<text text-anchor="middle" x="362" y="-163.5" font-family="Helvetica,sans-Serif" font-size="10.00">Tuple.h</text>
</g>
<!-- Node1 -->
<g id="node2" class="node">
<title>Node1</title>
<g id="a_node2"><a xlink:href="Config_8h.html" target="_top" xlink:title="hydra/detail/Config.h">
<polygon fill="none" stroke="black" points="60.5,-89.5 60.5,-108.5 167.5,-108.5 167.5,-89.5 60.5,-89.5"/>
<text text-anchor="middle" x="114" y="-96.5" font-family="Helvetica,sans-Serif" font-size="10.00">hydra/detail/Config.h</text>
</a>
</g>
</g>
<!-- Node0&#45;&gt;Node1 -->
<g id="edge1" class="edge">
<title>Node0&#45;&gt;Node1</title>
<path fill="none" stroke="midnightblue" d="M337.32,-159.57C301.72,-151.6 233.98,-135.95 177,-120 168.01,-117.48 158.37,-114.54 149.4,-111.71"/>
<polygon fill="midnightblue" stroke="midnightblue" points="150.22,-108.3 139.63,-108.58 148.08,-114.96 150.22,-108.3"/>
</g>
<!-- Node4 -->
<g id="node5" class="node">
<title>Node4</title>
<polygon fill="none" stroke="#bfbfbf" points="186,-84 186,-114 292,-114 292,-84 186,-84"/>
<text text-anchor="start" x="194" y="-102" font-family="Helvetica,sans-Serif" font-size="10.00">hydra/detail/external</text>
<text text-anchor="middle" x="239" y="-91" font-family="Helvetica,sans-Serif" font-size="10.00">/hydra_thrust/tuple.h</text>
</g>
<!-- Node0&#45;&gt;Node4 -->
<g id="edge4" class="edge">
<title>Node0&#45;&gt;Node4</title>
<path fill="none" stroke="midnightblue" d="M345.67,-156.37C327.67,-146.86 298.16,-131.27 274.74,-118.89"/>
<polygon fill="midnightblue" stroke="midnightblue" points="276.26,-115.73 265.78,-114.15 272.99,-121.92 276.26,-115.73"/>
</g>
<!-- Node5 -->
<g id="node6" class="node">
<title>Node5</title>
<polygon fill="none" stroke="#bfbfbf" points="310,-78.5 310,-119.5 414,-119.5 414,-78.5 310,-78.5"/>
<text text-anchor="start" x="318" y="-107.5" font-family="Helvetica,sans-Serif" font-size="10.00">hydra/detail/external</text>
<text text-anchor="start" x="318" y="-96.5" font-family="Helvetica,sans-Serif" font-size="10.00">/hydra_thrust/detail</text>
<text text-anchor="middle" x="362" y="-85.5" font-family="Helvetica,sans-Serif" font-size="10.00">/tuple/tuple.h</text>
</g>
<!-- Node0&#45;&gt;Node5 -->
<g id="edge5" class="edge">
<title>Node0&#45;&gt;Node5</title>
<path fill="none" stroke="midnightblue" d="M362,-156.23C362,-149.36 362,-139.38 362,-129.73"/>
<polygon fill="midnightblue" stroke="midnightblue" points="365.5,-129.54 362,-119.54 358.5,-129.54 365.5,-129.54"/>
</g>
<!-- Node6 -->
<g id="node7" class="node">
<title>Node6</title>
<g id="a_node7"><a xlink:href="Generic_8h.html" target="_top" xlink:title="hydra/detail/utility\l/Generic.h">
<polygon fill="none" stroke="black" points="432.5,-84 432.5,-114 525.5,-114 525.5,-84 432.5,-84"/>
<text text-anchor="start" x="440.5" y="-102" font-family="Helvetica,sans-Serif" font-size="10.00">hydra/detail/utility</text>
<text text-anchor="middle" x="479" y="-91" font-family="Helvetica,sans-Serif" font-size="10.00">/Generic.h</text>
</a>
</g>
</g>
<!-- Node0&#45;&gt;Node6 -->
<g id="edge6" class="edge">
<title>Node0&#45;&gt;Node6</title>
<path fill="none" stroke="midnightblue" d="M377.78,-156.23C394.88,-146.73 422.7,-131.28 444.85,-118.97"/>
<polygon fill="midnightblue" stroke="midnightblue" points="446.6,-122.01 453.64,-114.09 443.2,-115.89 446.6,-122.01"/>
</g>
<!-- Node9 -->
<g id="node10" class="node">
<title>Node9</title>
<polygon fill="none" stroke="#bfbfbf" points="544,-89.5 544,-108.5 584,-108.5 584,-89.5 544,-89.5"/>
<text text-anchor="middle" x="564" y="-96.5" font-family="Helvetica,sans-Serif" font-size="10.00">utility</text>
</g>
<!-- Node0&#45;&gt;Node9 -->
<g id="edge9" class="edge">
<title>Node0&#45;&gt;Node9</title>
<path fill="none" stroke="midnightblue" d="M386.69,-161.37C421.11,-155.69 484.91,-142.92 535,-120 538.38,-118.45 541.8,-116.51 545.04,-114.45"/>
<polygon fill="midnightblue" stroke="midnightblue" points="547.31,-117.13 553.53,-108.55 543.32,-111.38 547.31,-117.13"/>
</g>
<!-- Node2 -->
<g id="node3" class="node">
<title>Node2</title>
<polygon fill="none" stroke="#bfbfbf" points="0,-0.5 0,-41.5 104,-41.5 104,-0.5 0,-0.5"/>
<text text-anchor="start" x="8" y="-29.5" font-family="Helvetica,sans-Serif" font-size="10.00">hydra/detail/external</text>
<text text-anchor="start" x="8" y="-18.5" font-family="Helvetica,sans-Serif" font-size="10.00">/hydra_thrust/detail</text>
<text text-anchor="middle" x="52" y="-7.5" font-family="Helvetica,sans-Serif" font-size="10.00">/config.h</text>
</g>
<!-- Node1&#45;&gt;Node2 -->
<g id="edge2" class="edge">
<title>Node1&#45;&gt;Node2</title>
<path fill="none" stroke="midnightblue" d="M106.89,-89.28C99.02,-79.63 85.93,-63.6 74.52,-49.6"/>
<polygon fill="midnightblue" stroke="midnightblue" points="77.07,-47.19 68.04,-41.66 71.65,-51.62 77.07,-47.19"/>
</g>
<!-- Node3 -->
<g id="node4" class="node">
<title>Node3</title>
<polygon fill="none" stroke="#bfbfbf" points="122,-0.5 122,-41.5 232,-41.5 232,-0.5 122,-0.5"/>
<text text-anchor="start" x="130" y="-29.5" font-family="Helvetica,sans-Serif" font-size="10.00">hydra/detail/external</text>
<text text-anchor="start" x="130" y="-18.5" font-family="Helvetica,sans-Serif" font-size="10.00">/hydra_thrust/detail</text>
<text text-anchor="middle" x="177" y="-7.5" font-family="Helvetica,sans-Serif" font-size="10.00">/config/host_device.h</text>
</g>
<!-- Node1&#45;&gt;Node3 -->
<g id="edge3" class="edge">
<title>Node1&#45;&gt;Node3</title>
<path fill="none" stroke="midnightblue" d="M121.23,-89.28C129.22,-79.63 142.52,-63.6 154.12,-49.6"/>
<polygon fill="midnightblue" stroke="midnightblue" points="157.02,-51.59 160.7,-41.66 151.63,-47.12 157.02,-51.59"/>
</g>
<!-- Node7 -->
<g id="node8" class="node">
<title>Node7</title>
<polygon fill="none" stroke="#bfbfbf" points="414,-11.5 414,-30.5 476,-30.5 476,-11.5 414,-11.5"/>
<text text-anchor="middle" x="445" y="-18.5" font-family="Helvetica,sans-Serif" font-size="10.00">type_traits</text>
</g>
<!-- Node6&#45;&gt;Node7 -->
<g id="edge7" class="edge">
<title>Node6&#45;&gt;Node7</title>
<path fill="none" stroke="midnightblue" d="M472.6,-83.7C467.03,-71.23 458.91,-53.09 452.92,-39.7"/>
<polygon fill="midnightblue" stroke="midnightblue" points="456.11,-38.26 448.83,-30.56 449.72,-41.12 456.11,-38.26"/>
</g>
<!-- Node8 -->
<g id="node9" class="node">
<title>Node8</title>
<polygon fill="none" stroke="#bfbfbf" points="494,-11.5 494,-30.5 532,-30.5 532,-11.5 494,-11.5"/>
<text text-anchor="middle" x="513" y="-18.5" font-family="Helvetica,sans-Serif" font-size="10.00">array</text>
</g>
<!-- Node6&#45;&gt;Node8 -->
<g id="edge8" class="edge">
<title>Node6&#45;&gt;Node8</title>
<path fill="none" stroke="midnightblue" d="M485.4,-83.7C490.97,-71.23 499.09,-53.09 505.08,-39.7"/>
<polygon fill="midnightblue" stroke="midnightblue" points="508.28,-41.12 509.17,-30.56 501.89,-38.26 508.28,-41.12"/>
</g>
</g>
</svg>
