<?xml version="1.0" encoding="UTF-8" standalone="no"?>
<!DOCTYPE svg PUBLIC "-//W3C//DTD SVG 1.1//EN"
 "http://www.w3.org/Graphics/SVG/1.1/DTD/svg11.dtd">
<!-- Generated by graphviz version 2.38.0 (20140413.2041)
 -->
<!-- Title: main Pages: 1 -->
<svg width="186pt" height="104pt"
 viewBox="0.00 0.00 186.00 104.00" xmlns="http://www.w3.org/2000/svg" xmlns:xlink="http://www.w3.org/1999/xlink">
<g id="graph0" class="graph" transform="scale(1 1) rotate(0) translate(4 100)">
<title>main</title>
<!-- Node0 -->
<g id="node1" class="node"><title>Node0</title>
<polygon fill="#bfbfbf" stroke="black" points="0,-38.5 0,-57.5 38,-57.5 38,-38.5 0,-38.5"/>
<text text-anchor="middle" x="19" y="-45.5" font-family="Helvetica,sans-Serif" font-size="10.00">main</text>
</g>
<!-- Node1 -->
<g id="node2" class="node"><title>Node1</title>
<g id="a_node2"><a xlink:href="namespacehydra.html#a77f0de94ba6edf1f98d40ea2afd91a94" target="_top" xlink:title="hydra::exp">
<polygon fill="none" stroke="black" points="95,-76.5 95,-95.5 157,-95.5 157,-76.5 95,-76.5"/>
<text text-anchor="middle" x="126" y="-83.5" font-family="Helvetica,sans-Serif" font-size="10.00">hydra::exp</text>
</a>
</g>
</g>
<!-- Node0&#45;&gt;Node1 -->
<g id="edge1" class="edge"><title>Node0&#45;&gt;Node1</title>
<path fill="none" stroke="midnightblue" d="M38.2896,-54.6191C52.2387,-59.6673 71.8948,-66.781 88.9664,-72.9593"/>
<polygon fill="midnightblue" stroke="midnightblue" points="88.0623,-76.3542 98.6565,-76.4662 90.4445,-69.772 88.0623,-76.3542"/>
</g>
<!-- Node2 -->
<g id="node3" class="node"><title>Node2</title>
<g id="a_node3"><a xlink:href="namespacehydra.html#ac9c54fb833c00a61ad29f0203620ec27" target="_top" xlink:title="hydra::sqrt">
<polygon fill="none" stroke="black" points="94.5,-38.5 94.5,-57.5 157.5,-57.5 157.5,-38.5 94.5,-38.5"/>
<text text-anchor="middle" x="126" y="-45.5" font-family="Helvetica,sans-Serif" font-size="10.00">hydra::sqrt</text>
</a>
</g>
</g>
<!-- Node0&#45;&gt;Node2 -->
<g id="edge2" class="edge"><title>Node0&#45;&gt;Node2</title>
<path fill="none" stroke="midnightblue" d="M38.2896,-48C50.9176,-48 68.2228,-48 84.0534,-48"/>
<polygon fill="midnightblue" stroke="midnightblue" points="84.1795,-51.5001 94.1795,-48 84.1794,-44.5001 84.1795,-51.5001"/>
</g>
<!-- Node3 -->
<g id="node4" class="node"><title>Node3</title>
<g id="a_node4"><a xlink:href="group__functor.html#ga06bab1ad739e661a92fbf918012c9736" target="_top" xlink:title="Function template for wrap a C++11 lambda into a hydra lambda with a certain number of parameters...">
<polygon fill="none" stroke="black" points="74,-0.5 74,-19.5 178,-19.5 178,-0.5 74,-0.5"/>
<text text-anchor="middle" x="126" y="-7.5" font-family="Helvetica,sans-Serif" font-size="10.00">hydra::wrap_lambda</text>
</a>
</g>
</g>
<!-- Node0&#45;&gt;Node3 -->
<g id="edge3" class="edge"><title>Node0&#45;&gt;Node3</title>
<path fill="none" stroke="midnightblue" d="M38.2896,-41.3809C52.2387,-36.3327 71.8948,-29.219 88.9664,-23.0407"/>
<polygon fill="midnightblue" stroke="midnightblue" points="90.4445,-26.228 98.6565,-19.5338 88.0623,-19.6458 90.4445,-26.228"/>
</g>
</g>
</svg>
