<?xml version="1.0" encoding="UTF-8" standalone="no"?>
<!DOCTYPE svg PUBLIC "-//W3C//DTD SVG 1.1//EN"
 "http://www.w3.org/Graphics/SVG/1.1/DTD/svg11.dtd">
<!-- Generated by graphviz version 5.0.0 (0)
 -->
<!-- Title: Vegas.h Pages: 1 -->
<svg width="144pt" height="140pt"
 viewBox="0.00 0.00 144.00 140.00" xmlns="http://www.w3.org/2000/svg" xmlns:xlink="http://www.w3.org/1999/xlink">
<g id="graph0" class="graph" transform="scale(1 1) rotate(0) translate(4 136)">
<title>Vegas.h</title>
<!-- Node111 -->
<g id="node1" class="node">
<title>Node111</title>
<polygon fill="#bfbfbf" stroke="black" points="42.5,-112.5 42.5,-131.5 95.5,-131.5 95.5,-112.5 42.5,-112.5"/>
<text text-anchor="middle" x="69" y="-119.5" font-family="Helvetica,sans-Serif" font-size="10.00">Vegas.h</text>
</g>
<!-- Node112 -->
<g id="node2" class="node">
<title>Node112</title>
<g id="a_node2"><a xlink:href="vegas_8inl.html" target="_top" xlink:title="vegas.inl">
<polygon fill="none" stroke="black" points="41,-56.5 41,-75.5 97,-75.5 97,-56.5 41,-56.5"/>
<text text-anchor="middle" x="69" y="-63.5" font-family="Helvetica,sans-Serif" font-size="10.00">vegas.inl</text>
</a>
</g>
</g>
<!-- Node111&#45;&gt;Node112 -->
<g id="edge1" class="edge">
<title>Node111&#45;&gt;Node112</title>
<path fill="none" stroke="midnightblue" d="M69,-101.8C69,-92.91 69,-82.78 69,-75.75"/>
<polygon fill="midnightblue" stroke="midnightblue" points="65.5,-102.08 69,-112.08 72.5,-102.08 65.5,-102.08"/>
</g>
<!-- Node113 -->
<g id="node3" class="node">
<title>Node113</title>
<g id="a_node3"><a xlink:href="vegas_8cpp.html" target="_top" xlink:title="vegas.cpp">
<polygon fill="none" stroke="black" points="0,-0.5 0,-19.5 62,-19.5 62,-0.5 0,-0.5"/>
<text text-anchor="middle" x="31" y="-7.5" font-family="Helvetica,sans-Serif" font-size="10.00">vegas.cpp</text>
</a>
</g>
</g>
<!-- Node112&#45;&gt;Node113 -->
<g id="edge2" class="edge">
<title>Node112&#45;&gt;Node113</title>
<path fill="none" stroke="midnightblue" d="M56.94,-47.86C50.36,-38.5 42.49,-27.33 37.16,-19.75"/>
<polygon fill="midnightblue" stroke="midnightblue" points="54.11,-49.92 62.73,-56.08 59.83,-45.89 54.11,-49.92"/>
</g>
<!-- Node114 -->
<g id="node4" class="node">
<title>Node114</title>
<g id="a_node4"><a xlink:href="vegas_8cu.html" target="_top" xlink:title="vegas.cu">
<polygon fill="none" stroke="black" points="80,-0.5 80,-19.5 136,-19.5 136,-0.5 80,-0.5"/>
<text text-anchor="middle" x="108" y="-7.5" font-family="Helvetica,sans-Serif" font-size="10.00">vegas.cu</text>
</a>
</g>
</g>
<!-- Node112&#45;&gt;Node114 -->
<g id="edge3" class="edge">
<title>Node112&#45;&gt;Node114</title>
<path fill="none" stroke="midnightblue" d="M81.38,-47.86C88.14,-38.5 96.21,-27.33 101.68,-19.75"/>
<polygon fill="midnightblue" stroke="midnightblue" points="78.46,-45.93 75.44,-56.08 84.13,-50.03 78.46,-45.93"/>
</g>
</g>
</svg>
