<?xml version="1.0" encoding="UTF-8" standalone="no"?>
<!DOCTYPE svg PUBLIC "-//W3C//DTD SVG 1.1//EN"
 "http://www.w3.org/Graphics/SVG/1.1/DTD/svg11.dtd">
<!-- Generated by graphviz version 2.42.4 (0)
 -->
<!-- Title: VegasState.h Pages: 1 -->
<!--zoomable 173 -->
<svg id="main" version="1.1" xmlns="http://www.w3.org/2000/svg" xmlns:xlink="http://www.w3.org/1999/xlink" xml:space="preserve" onload="init(evt)">
<style type="text/css"><![CDATA[
.edge:hover path { stroke: red; }
.edge:hover polygon { stroke: red; fill: red; }
]]></style>
<script type="text/javascript"><![CDATA[
var edges = document.getElementsByTagName('g');
if (edges && edges.length) {
  for (var i=0;i<edges.length;i++) {
    if (edges[i].id.substr(0,4)=='edge') {
      edges[i].setAttribute('class','edge');
    }
  }
}
]]></script>
        <defs>
                <circle id="rim" cx="0" cy="0" r="7"/>
                <circle id="rim2" cx="0" cy="0" r="3.5"/>
                <g id="zoomPlus">
                        <use xlink:href="#rim" fill="#404040">
                                <set attributeName="fill" to="#808080" begin="zoomplus.mouseover" end="zoomplus.mouseout"/>
                        </use>
                        <path d="M-4,0h8M0,-4v8" fill="none" stroke="white" stroke-width="1.5" pointer-events="none"/>
                </g>
                <g id="zoomMin">
                        <use xlink:href="#rim" fill="#404040">
                                <set attributeName="fill" to="#808080" begin="zoomminus.mouseover" end="zoomminus.mouseout"/>
                        </use>
                        <path d="M-4,0h8" fill="none" stroke="white" stroke-width="1.5" pointer-events="none"/>
                </g>
                <g id="dirArrow">
                        <path fill="none" stroke="white" stroke-width="1.5" d="M0,-3.0v7 M-2.5,-0.5L0,-3.0L2.5,-0.5"/>
                </g>
               <g id="resetDef">
                       <use xlink:href="#rim2" fill="#404040">
                               <set attributeName="fill" to="#808080" begin="reset.mouseover" end="reset.mouseout"/>
                       </use>
               </g>
        </defs>

<script type="text/javascript">
var viewWidth = 890;
var viewHeight = 173;
var sectionId = 'dynsection-0';
</script>
<script xlink:href="svgpan.js"/>
<svg id="graph" class="graph">
<g id="viewport">
<title>VegasState.h</title>
<!-- Node0 -->
<g id="node1" class="node">
<title>Node0</title>
<polygon fill="#bfbfbf" stroke="black" points="444,-145.5 444,-164.5 520,-164.5 520,-145.5 444,-145.5"/>
<text text-anchor="middle" x="482" y="-152.5" font-family="Helvetica,sans-Serif" font-size="10.00">VegasState.h</text>
</g>
<!-- Node1 -->
<g id="node2" class="node">
<title>Node1</title>
<polygon fill="none" stroke="#bfbfbf" points="46,-84 46,-103 100,-103 100,-84 46,-84"/>
<text text-anchor="middle" x="73" y="-91" font-family="Helvetica,sans-Serif" font-size="10.00">iostream</text>
</g>
<!-- Node0&#45;&gt;Node1 -->
<g id="edge1" class="edge">
<title>Node0&#45;&gt;Node1</title>
<path fill="none" stroke="midnightblue" d="M443.8,-152.69C375.58,-149.64 228.72,-139.76 109,-109 106.49,-108.35 103.92,-107.58 101.36,-106.72"/>
<polygon fill="midnightblue" stroke="midnightblue" points="102.34,-103.34 91.74,-103.13 99.89,-109.9 102.34,-103.34"/>
</g>
<!-- Node2 -->
<g id="node3" class="node">
<title>Node2</title>
<g id="a_node3"><a xlink:href="Config_8h.html" target="_top" xlink:title="hydra/detail/Config.h">
<polygon fill="none" stroke="black" points="118.5,-84 118.5,-103 225.5,-103 225.5,-84 118.5,-84"/>
<text text-anchor="middle" x="172" y="-91" font-family="Helvetica,sans-Serif" font-size="10.00">hydra/detail/Config.h</text>
</a>
</g>
</g>
<!-- Node0&#45;&gt;Node2 -->
<g id="edge2" class="edge">
<title>Node0&#45;&gt;Node2</title>
<path fill="none" stroke="midnightblue" d="M443.81,-147.6C395.19,-139.33 308.64,-124.17 235,-109 229.5,-107.87 223.75,-106.62 218.05,-105.36"/>
<polygon fill="midnightblue" stroke="midnightblue" points="218.44,-101.86 207.92,-103.07 216.9,-108.68 218.44,-101.86"/>
</g>
<!-- Node5 -->
<g id="node6" class="node">
<title>Node5</title>
<g id="a_node6"><a xlink:href="BackendPolicy_8h.html" target="_top" xlink:title="hydra/detail/BackendPolicy.h">
<polygon fill="none" stroke="black" points="244,-84 244,-103 386,-103 386,-84 244,-84"/>
<text text-anchor="middle" x="315" y="-91" font-family="Helvetica,sans-Serif" font-size="10.00">hydra/detail/BackendPolicy.h</text>
</a>
</g>
</g>
<!-- Node0&#45;&gt;Node5 -->
<g id="edge5" class="edge">
<title>Node0&#45;&gt;Node5</title>
<path fill="none" stroke="midnightblue" d="M458.07,-145.48C429.3,-135.22 380.84,-117.96 348.4,-106.4"/>
<polygon fill="midnightblue" stroke="midnightblue" points="349.48,-103.07 338.88,-103.01 347.13,-109.66 349.48,-103.07"/>
</g>
<!-- Node7 -->
<g id="node8" class="node">
<title>Node7</title>
<g id="a_node8"><a xlink:href="Types_8h.html" target="_top" xlink:title="Common and useful typedefs. ">
<polygon fill="none" stroke="black" points="404,-84 404,-103 482,-103 482,-84 404,-84"/>
<text text-anchor="middle" x="443" y="-91" font-family="Helvetica,sans-Serif" font-size="10.00">hydra/Types.h</text>
</a>
</g>
</g>
<!-- Node0&#45;&gt;Node7 -->
<g id="edge7" class="edge">
<title>Node0&#45;&gt;Node7</title>
<path fill="none" stroke="midnightblue" d="M476.41,-145.48C470.62,-136.64 461.41,-122.59 454.13,-111.48"/>
<polygon fill="midnightblue" stroke="midnightblue" points="456.99,-109.45 448.58,-103.01 451.13,-113.29 456.99,-109.45"/>
</g>
<!-- Node8 -->
<g id="node9" class="node">
<title>Node8</title>
<polygon fill="none" stroke="#bfbfbf" points="500,-84 500,-103 544,-103 544,-84 500,-84"/>
<text text-anchor="middle" x="522" y="-91" font-family="Helvetica,sans-Serif" font-size="10.00">vector</text>
</g>
<!-- Node0&#45;&gt;Node8 -->
<g id="edge8" class="edge">
<title>Node0&#45;&gt;Node8</title>
<path fill="none" stroke="midnightblue" d="M487.73,-145.48C493.67,-136.64 503.12,-122.59 510.59,-111.48"/>
<polygon fill="midnightblue" stroke="midnightblue" points="513.61,-113.26 516.28,-103.01 507.8,-109.36 513.61,-113.26"/>
</g>
<!-- Node9 -->
<g id="node10" class="node">
<title>Node9</title>
<polygon fill="none" stroke="#bfbfbf" points="562,-78.5 562,-108.5 666,-108.5 666,-78.5 562,-78.5"/>
<text text-anchor="start" x="570" y="-96.5" font-family="Helvetica,sans-Serif" font-size="10.00">hydra/detail/external</text>
<text text-anchor="middle" x="614" y="-85.5" font-family="Helvetica,sans-Serif" font-size="10.00">/hydra_thrust/copy.h</text>
</g>
<!-- Node0&#45;&gt;Node9 -->
<g id="edge9" class="edge">
<title>Node0&#45;&gt;Node9</title>
<path fill="none" stroke="midnightblue" d="M500.91,-145.48C519.79,-136.96 549.4,-123.62 573.58,-112.72"/>
<polygon fill="midnightblue" stroke="midnightblue" points="575.21,-115.82 582.89,-108.52 572.34,-109.44 575.21,-115.82"/>
</g>
<!-- Node10 -->
<g id="node11" class="node">
<title>Node10</title>
<polygon fill="none" stroke="#bfbfbf" points="684,-84 684,-103 730,-103 730,-84 684,-84"/>
<text text-anchor="middle" x="707" y="-91" font-family="Helvetica,sans-Serif" font-size="10.00">chrono</text>
</g>
<!-- Node0&#45;&gt;Node10 -->
<g id="edge10" class="edge">
<title>Node0&#45;&gt;Node10</title>
<path fill="none" stroke="midnightblue" d="M520.34,-147.36C559.73,-140.01 622.55,-126.81 675,-109 676.67,-108.43 678.37,-107.81 680.07,-107.15"/>
<polygon fill="midnightblue" stroke="midnightblue" points="681.79,-110.22 689.65,-103.11 679.07,-103.77 681.79,-110.22"/>
</g>
<!-- Node11 -->
<g id="node12" class="node">
<title>Node11</title>
<g id="a_node12"><a xlink:href="VegasState_8inl.html" target="_top" xlink:title="hydra/detail/VegasState.inl">
<polygon fill="none" stroke="black" points="748,-84 748,-103 882,-103 882,-84 748,-84"/>
<text text-anchor="middle" x="815" y="-91" font-family="Helvetica,sans-Serif" font-size="10.00">hydra/detail/VegasState.inl</text>
</a>
</g>
</g>
<!-- Node0&#45;&gt;Node11 -->
<g id="edge11" class="edge">
<title>Node0&#45;&gt;Node11</title>
<path fill="none" stroke="midnightblue" d="M520.35,-147.47C570.6,-138.87 661.47,-123.18 739,-109 746.09,-107.7 753.54,-106.31 760.89,-104.93"/>
<polygon fill="midnightblue" stroke="midnightblue" points="761.64,-108.35 770.81,-103.05 760.34,-101.47 761.64,-108.35"/>
</g>
<!-- Node3 -->
<g id="node4" class="node">
<title>Node3</title>
<polygon fill="none" stroke="#bfbfbf" points="0,-0.5 0,-41.5 104,-41.5 104,-0.5 0,-0.5"/>
<text text-anchor="start" x="8" y="-29.5" font-family="Helvetica,sans-Serif" font-size="10.00">hydra/detail/external</text>
<text text-anchor="start" x="8" y="-18.5" font-family="Helvetica,sans-Serif" font-size="10.00">/hydra_thrust/detail</text>
<text text-anchor="middle" x="52" y="-7.5" font-family="Helvetica,sans-Serif" font-size="10.00">/config.h</text>
</g>
<!-- Node2&#45;&gt;Node3 -->
<g id="edge3" class="edge">
<title>Node2&#45;&gt;Node3</title>
<path fill="none" stroke="midnightblue" d="M157.29,-83.86C141.66,-74.68 116.25,-59.75 94.31,-46.85"/>
<polygon fill="midnightblue" stroke="midnightblue" points="95.86,-43.71 85.47,-41.66 92.32,-49.74 95.86,-43.71"/>
</g>
<!-- Node4 -->
<g id="node5" class="node">
<title>Node4</title>
<polygon fill="none" stroke="#bfbfbf" points="122,-0.5 122,-41.5 232,-41.5 232,-0.5 122,-0.5"/>
<text text-anchor="start" x="130" y="-29.5" font-family="Helvetica,sans-Serif" font-size="10.00">hydra/detail/external</text>
<text text-anchor="start" x="130" y="-18.5" font-family="Helvetica,sans-Serif" font-size="10.00">/hydra_thrust/detail</text>
<text text-anchor="middle" x="177" y="-7.5" font-family="Helvetica,sans-Serif" font-size="10.00">/config/host_device.h</text>
</g>
<!-- Node2&#45;&gt;Node4 -->
<g id="edge4" class="edge">
<title>Node2&#45;&gt;Node4</title>
<path fill="none" stroke="midnightblue" d="M172.61,-83.86C173.18,-75.86 174.06,-63.5 174.88,-51.92"/>
<polygon fill="midnightblue" stroke="midnightblue" points="178.39,-51.88 175.61,-41.66 171.41,-51.39 178.39,-51.88"/>
</g>
<!-- Node6 -->
<g id="node7" class="node">
<title>Node6</title>
<polygon fill="none" stroke="#bfbfbf" points="255.5,-0.5 255.5,-41.5 374.5,-41.5 374.5,-0.5 255.5,-0.5"/>
<text text-anchor="start" x="263.5" y="-29.5" font-family="Helvetica,sans-Serif" font-size="10.00">hydra/detail/external</text>
<text text-anchor="start" x="263.5" y="-18.5" font-family="Helvetica,sans-Serif" font-size="10.00">/hydra_thrust/execution</text>
<text text-anchor="middle" x="315" y="-7.5" font-family="Helvetica,sans-Serif" font-size="10.00">_policy.h</text>
</g>
<!-- Node5&#45;&gt;Node6 -->
<g id="edge6" class="edge">
<title>Node5&#45;&gt;Node6</title>
<path fill="none" stroke="midnightblue" d="M315,-83.86C315,-75.86 315,-63.5 315,-51.92"/>
<polygon fill="midnightblue" stroke="midnightblue" points="318.5,-51.66 315,-41.66 311.5,-51.66 318.5,-51.66"/>
</g>
</g>
</svg>
        <g id="navigator" transform="translate(0 0)" fill="#404254">
                <rect fill="#f2f5e9" fill-opacity="0.5" stroke="#606060" stroke-width=".5" x="0" y="0" width="60" height="60"/>
                <use id="zoomplus" xlink:href="#zoomPlus" x="17" y="9" onmousedown="handleZoom(evt,'in')"/>
                <use id="zoomminus" xlink:href="#zoomMin" x="42" y="9" onmousedown="handleZoom(evt,'out')"/>
                <use id="reset" xlink:href="#resetDef" x="30" y="36" onmousedown="handleReset()"/>
                <g id="arrowUp" xlink:href="#dirArrow" transform="translate(30 24)" onmousedown="handlePan(0,-1)">
                  <use xlink:href="#rim" fill="#404040">
                        <set attributeName="fill" to="#808080" begin="arrowUp.mouseover" end="arrowUp.mouseout"/>
                  </use>
                  <path fill="none" stroke="white" stroke-width="1.5" d="M0,-3.0v7 M-2.5,-0.5L0,-3.0L2.5,-0.5"/>
                </g>
                <g id="arrowRight" xlink:href="#dirArrow" transform="rotate(90) translate(36 -43)" onmousedown="handlePan(1,0)">
                  <use xlink:href="#rim" fill="#404040">
                        <set attributeName="fill" to="#808080" begin="arrowRight.mouseover" end="arrowRight.mouseout"/>
                  </use>
                  <path fill="none" stroke="white" stroke-width="1.5" d="M0,-3.0v7 M-2.5,-0.5L0,-3.0L2.5,-0.5"/>
                </g>
                <g id="arrowDown" xlink:href="#dirArrow" transform="rotate(180) translate(-30 -48)" onmousedown="handlePan(0,1)">
                  <use xlink:href="#rim" fill="#404040">
                        <set attributeName="fill" to="#808080" begin="arrowDown.mouseover" end="arrowDown.mouseout"/>
                  </use>
                  <path fill="none" stroke="white" stroke-width="1.5" d="M0,-3.0v7 M-2.5,-0.5L0,-3.0L2.5,-0.5"/>
                </g>
                <g id="arrowLeft" xlink:href="#dirArrow" transform="rotate(270) translate(-36 17)" onmousedown="handlePan(-1,0)">
                  <use xlink:href="#rim" fill="#404040">
                        <set attributeName="fill" to="#808080" begin="arrowLeft.mouseover" end="arrowLeft.mouseout"/>
                  </use>
                  <path fill="none" stroke="white" stroke-width="1.5" d="M0,-3.0v7 M-2.5,-0.5L0,-3.0L2.5,-0.5"/>
                </g>
        </g>
        <svg viewBox="0 0 15 15" width="100%" height="30px" preserveAspectRatio="xMaxYMin meet">
         <g id="arrow_out" transform="scale(0.3 0.3)">
          <a xlink:href="VegasState_8h__incl_org.svg" target="_base">
           <rect id="button" ry="5" rx="5" y="6" x="6" height="38" width="38"
                fill="#f2f5e9" fill-opacity="0.5" stroke="#606060" stroke-width="1.0"/>
           <path id="arrow"
             d="M 11.500037,31.436501 C 11.940474,20.09759 22.043105,11.32322 32.158766,21.979434 L 37.068811,17.246167 C 37.068811,17.246167 37.088388,32 37.088388,32 L 22.160133,31.978069 C 22.160133,31.978069 26.997745,27.140456 26.997745,27.140456 C 18.528582,18.264221 13.291696,25.230495 11.500037,31.436501 z"
             style="fill:#404040;"/>
          </a>
         </g>
        </svg>
</svg>
