<?xml version="1.0" encoding="UTF-8" standalone="no"?>
<!DOCTYPE svg PUBLIC "-//W3C//DTD SVG 1.1//EN"
 "http://www.w3.org/Graphics/SVG/1.1/DTD/svg11.dtd">
<!-- Generated by graphviz version 2.40.1 (20161225.0304)
 -->
<!-- Title: WignerD.h Pages: 1 -->
<svg width="3584pt" height="731pt"
 viewBox="0.00 0.00 3584.00 731.00" xmlns="http://www.w3.org/2000/svg" xmlns:xlink="http://www.w3.org/1999/xlink">
<g id="graph0" class="graph" transform="scale(1 1) rotate(0) translate(4 727)">
<title>WignerD.h</title>
<!-- Node0 -->
<g id="node1" class="node">
<title>Node0</title>
<polygon fill="#bfbfbf" stroke="#000000" points="1333,-703.5 1333,-722.5 1395,-722.5 1395,-703.5 1333,-703.5"/>
<text text-anchor="middle" x="1364" y="-710.5" font-family="Helvetica,sans-Serif" font-size="10.00" fill="#000000">WignerD.h</text>
</g>
<!-- Node1 -->
<g id="node2" class="node">
<title>Node1</title>
<g id="a_node2"><a xlink:href="Config_8h.html" target="_top" xlink:title="hydra/detail/Config.h">
<polygon fill="none" stroke="#000000" points="1330,-78.5 1330,-97.5 1436,-97.5 1436,-78.5 1330,-78.5"/>
<text text-anchor="middle" x="1383" y="-85.5" font-family="Helvetica,sans-Serif" font-size="10.00" fill="#000000">hydra/detail/Config.h</text>
</a>
</g>
</g>
<!-- Node0&#45;&gt;Node1 -->
<g id="edge1" class="edge">
<title>Node0&#45;&gt;Node1</title>
<path fill="none" stroke="#191970" d="M1332.7899,-712.3568C1262.9869,-710.3102 1089.3603,-701.8302 949,-667 858.5641,-644.5585 754,-683.1787 754,-590 754,-590 754,-590 754,-222 754,-140.4532 837.0736,-158.0283 915,-134 988.8784,-111.2199 1209.5885,-96.9691 1319.4413,-91.0954"/>
<polygon fill="#191970" stroke="#191970" points="1319.9158,-94.5753 1329.7175,-90.5531 1319.5469,-87.585 1319.9158,-94.5753"/>
</g>
<!-- Node4 -->
<g id="node5" class="node">
<title>Node4</title>
<g id="a_node5"><a xlink:href="BackendPolicy_8h.html" target="_top" xlink:title="hydra/detail/BackendPolicy.h">
<polygon fill="none" stroke="#000000" points="1096.5,-435.5 1096.5,-454.5 1239.5,-454.5 1239.5,-435.5 1096.5,-435.5"/>
<text text-anchor="middle" x="1168" y="-442.5" font-family="Helvetica,sans-Serif" font-size="10.00" fill="#000000">hydra/detail/BackendPolicy.h</text>
</a>
</g>
</g>
<!-- Node0&#45;&gt;Node4 -->
<g id="edge4" class="edge">
<title>Node0&#45;&gt;Node4</title>
<path fill="none" stroke="#191970" d="M1357.0243,-703.4617C1328.3324,-664.2301 1219.1515,-514.9419 1181.1411,-462.9684"/>
<polygon fill="#191970" stroke="#191970" points="1183.8253,-460.7096 1175.097,-454.704 1178.1751,-464.8419 1183.8253,-460.7096"/>
</g>
<!-- Node6 -->
<g id="node7" class="node">
<title>Node6</title>
<g id="a_node7"><a xlink:href="Types_8h.html" target="_top" xlink:title="Common and useful typedefs. ">
<polygon fill="none" stroke="#000000" points="2277.5,-78.5 2277.5,-97.5 2356.5,-97.5 2356.5,-78.5 2277.5,-78.5"/>
<text text-anchor="middle" x="2317" y="-85.5" font-family="Helvetica,sans-Serif" font-size="10.00" fill="#000000">hydra/Types.h</text>
</a>
</g>
</g>
<!-- Node0&#45;&gt;Node6 -->
<g id="edge6" class="edge">
<title>Node0&#45;&gt;Node6</title>
<path fill="none" stroke="#191970" d="M1364,-703.4309C1364,-682.738 1364,-632.2813 1364,-590 1364,-590 1364,-590 1364,-523 1364,-376.1368 1530.1437,-215.6366 1706,-134 1756.3098,-110.645 2130.1988,-94.8124 2267.0254,-89.7471"/>
<polygon fill="#191970" stroke="#191970" points="2267.3617,-93.2372 2277.2267,-89.3732 2267.1052,-86.2419 2267.3617,-93.2372"/>
</g>
<!-- Node7 -->
<g id="node8" class="node">
<title>Node7</title>
<g id="a_node8"><a xlink:href="Function_8h.html" target="_top" xlink:title="hydra/Function.h">
<polygon fill="none" stroke="#000000" points="2141.5,-642 2141.5,-661 2230.5,-661 2230.5,-642 2141.5,-642"/>
<text text-anchor="middle" x="2186" y="-649" font-family="Helvetica,sans-Serif" font-size="10.00" fill="#000000">hydra/Function.h</text>
</a>
</g>
</g>
<!-- Node0&#45;&gt;Node7 -->
<g id="edge7" class="edge">
<title>Node0&#45;&gt;Node7</title>
<path fill="none" stroke="#191970" d="M1395.2196,-710.6642C1518.6114,-701.4324 1973.2544,-667.4171 2131.3706,-655.5872"/>
<polygon fill="#191970" stroke="#191970" points="2131.639,-659.077 2141.3499,-654.8406 2131.1167,-652.0965 2131.639,-659.077"/>
</g>
<!-- Node12 -->
<g id="node13" class="node">
<title>Node12</title>
<polygon fill="none" stroke="#bfbfbf" points="2938,-357.5 2938,-376.5 2976,-376.5 2976,-357.5 2938,-357.5"/>
<text text-anchor="middle" x="2957" y="-364.5" font-family="Helvetica,sans-Serif" font-size="10.00" fill="#000000">tuple</text>
</g>
<!-- Node0&#45;&gt;Node12 -->
<g id="edge142" class="edge">
<title>Node0&#45;&gt;Node12</title>
<path fill="none" stroke="#191970" d="M1395.1593,-712.5495C1605.7841,-709.4467 2817.7885,-690.6627 2980,-667 3111.1083,-647.8745 3268,-722.4959 3268,-590 3268,-590 3268,-590 3268,-523 3268,-384.0452 3105.4241,-459.0375 2986,-388 2983.257,-386.3684 2980.4477,-384.5465 2977.7092,-382.6763"/>
<polygon fill="#191970" stroke="#191970" points="2979.5386,-379.6817 2969.3688,-376.7109 2975.4663,-385.3753 2979.5386,-379.6817"/>
</g>
<!-- Node19 -->
<g id="node20" class="node">
<title>Node19</title>
<polygon fill="none" stroke="#bfbfbf" points="1258,-435.5 1258,-454.5 1298,-454.5 1298,-435.5 1258,-435.5"/>
<text text-anchor="middle" x="1278" y="-442.5" font-family="Helvetica,sans-Serif" font-size="10.00" fill="#000000">utility</text>
</g>
<!-- Node0&#45;&gt;Node19 -->
<g id="edge146" class="edge">
<title>Node0&#45;&gt;Node19</title>
<path fill="none" stroke="#191970" d="M1360.9392,-703.4617C1348.4542,-664.555 1301.2351,-517.407 1284.1867,-464.2796"/>
<polygon fill="#191970" stroke="#191970" points="1287.5022,-463.1564 1281.114,-454.704 1280.8369,-465.2953 1287.5022,-463.1564"/>
</g>
<!-- Node21 -->
<g id="node22" class="node">
<title>Node21</title>
<polygon fill="none" stroke="#bfbfbf" points="2509.5,-357.5 2509.5,-376.5 2568.5,-376.5 2568.5,-357.5 2509.5,-357.5"/>
<text text-anchor="middle" x="2539" y="-364.5" font-family="Helvetica,sans-Serif" font-size="10.00" fill="#000000">stdexcept</text>
</g>
<!-- Node0&#45;&gt;Node21 -->
<g id="edge144" class="edge">
<title>Node0&#45;&gt;Node21</title>
<path fill="none" stroke="#191970" d="M1395.1204,-712.3743C1530.9532,-709.4882 2072.5527,-696.3319 2240,-667 2467.4099,-627.1644 2599.1373,-663.3197 2719,-466 2728.6912,-450.0462 2730.4509,-438.7418 2719,-424 2679.3246,-372.9219 2638.2542,-411.5063 2578,-388 2573.3209,-386.1746 2568.4909,-383.9137 2563.8914,-381.5584"/>
<polygon fill="#191970" stroke="#191970" points="2565.3586,-378.373 2554.8966,-376.7004 2562.032,-384.5321 2565.3586,-378.373"/>
</g>
<!-- Node42 -->
<g id="node43" class="node">
<title>Node42</title>
<polygon fill="none" stroke="#bfbfbf" points="2676,-279.5 2676,-298.5 2716,-298.5 2716,-279.5 2676,-279.5"/>
<text text-anchor="middle" x="2696" y="-286.5" font-family="Helvetica,sans-Serif" font-size="10.00" fill="#000000">limits</text>
</g>
<!-- Node0&#45;&gt;Node42 -->
<g id="edge143" class="edge">
<title>Node0&#45;&gt;Node42</title>
<path fill="none" stroke="#191970" d="M1395.0496,-712.4875C1542.4875,-709.9148 2172.8114,-697.312 2367,-667 2479.8077,-649.3912 2512.165,-649.6045 2615,-600 2692.0004,-562.8573 2724.8285,-546.7156 2753,-466 2773.1395,-408.2973 2732.3214,-339.1424 2709.6887,-307.0285"/>
<polygon fill="#191970" stroke="#191970" points="2712.3062,-304.6769 2703.594,-298.6479 2706.6449,-308.794 2712.3062,-304.6769"/>
</g>
<!-- Node53 -->
<g id="node54" class="node">
<title>Node53</title>
<polygon fill="none" stroke="#bfbfbf" points="820,-435.5 820,-454.5 872,-454.5 872,-435.5 820,-435.5"/>
<text text-anchor="middle" x="846" y="-442.5" font-family="Helvetica,sans-Serif" font-size="10.00" fill="#000000">assert.h</text>
</g>
<!-- Node0&#45;&gt;Node53 -->
<g id="edge145" class="edge">
<title>Node0&#45;&gt;Node53</title>
<path fill="none" stroke="#191970" d="M1332.6769,-710.0241C1236.5074,-700.2368 948.2379,-665.8434 886,-600 850.4794,-562.4217 845.4621,-497.5893 845.3718,-464.9704"/>
<polygon fill="#191970" stroke="#191970" points="848.8727,-464.9184 845.5034,-454.8736 841.8732,-464.8271 848.8727,-464.9184"/>
</g>
<!-- Node56 -->
<g id="node57" class="node">
<title>Node56</title>
<g id="a_node57"><a xlink:href="Pdf_8h.html" target="_top" xlink:title="hydra/Pdf.h">
<polygon fill="none" stroke="#000000" points="2048.5,-580.5 2048.5,-599.5 2115.5,-599.5 2115.5,-580.5 2048.5,-580.5"/>
<text text-anchor="middle" x="2082" y="-587.5" font-family="Helvetica,sans-Serif" font-size="10.00" fill="#000000">hydra/Pdf.h</text>
</a>
</g>
</g>
<!-- Node0&#45;&gt;Node56 -->
<g id="edge110" class="edge">
<title>Node0&#45;&gt;Node56</title>
<path fill="none" stroke="#191970" d="M1395.3132,-707.6358C1509.7601,-688.03 1905.6083,-620.2175 2038.2751,-597.4905"/>
<polygon fill="#191970" stroke="#191970" points="2039.1982,-600.8834 2048.4636,-595.7451 2038.0162,-593.9839 2039.1982,-600.8834"/>
</g>
<!-- Node58 -->
<g id="node59" class="node">
<title>Node58</title>
<polygon fill="none" stroke="#bfbfbf" points="3334.5,-642 3334.5,-661 3453.5,-661 3453.5,-642 3334.5,-642"/>
<text text-anchor="middle" x="3394" y="-649" font-family="Helvetica,sans-Serif" font-size="10.00" fill="#000000">hydra/detail/Integrator.h</text>
</g>
<!-- Node0&#45;&gt;Node58 -->
<g id="edge125" class="edge">
<title>Node0&#45;&gt;Node58</title>
<path fill="none" stroke="#191970" d="M1395.0471,-712.6132C1629.7439,-709.6445 3121.1249,-689.9707 3320,-667 3328.1577,-666.0578 3336.7478,-664.6503 3345.0716,-663.0614"/>
<polygon fill="#191970" stroke="#191970" points="3345.934,-666.458 3355.0459,-661.0522 3344.5517,-659.5959 3345.934,-666.458"/>
</g>
<!-- Node59 -->
<g id="node60" class="node">
<title>Node59</title>
<g id="a_node60"><a xlink:href="CheckValue_8h.html" target="_top" xlink:title="hydra/detail/utility\l/CheckValue.h">
<polygon fill="none" stroke="#000000" points="143.5,-508 143.5,-538 236.5,-538 236.5,-508 143.5,-508"/>
<text text-anchor="start" x="151.5" y="-526" font-family="Helvetica,sans-Serif" font-size="10.00" fill="#000000">hydra/detail/utility</text>
<text text-anchor="middle" x="190" y="-515" font-family="Helvetica,sans-Serif" font-size="10.00" fill="#000000">/CheckValue.h</text>
</a>
</g>
</g>
<!-- Node0&#45;&gt;Node59 -->
<g id="edge126" class="edge">
<title>Node0&#45;&gt;Node59</title>
<path fill="none" stroke="#191970" d="M1332.75,-711.6791C1218.7869,-706.7296 825.7283,-688.4645 702,-667 530.1701,-637.1908 333.1997,-572.987 241.7113,-541.364"/>
<polygon fill="#191970" stroke="#191970" points="242.7318,-538.0135 232.137,-538.0403 240.436,-544.6263 242.7318,-538.0135"/>
</g>
<!-- Node62 -->
<g id="node63" class="node">
<title>Node62</title>
<g id="a_node63"><a xlink:href="Tuple_8h.html" target="_top" xlink:title="hydra/Tuple.h">
<polygon fill="none" stroke="#000000" points="3372,-513.5 3372,-532.5 3448,-532.5 3448,-513.5 3372,-513.5"/>
<text text-anchor="middle" x="3410" y="-520.5" font-family="Helvetica,sans-Serif" font-size="10.00" fill="#000000">hydra/Tuple.h</text>
</a>
</g>
</g>
<!-- Node0&#45;&gt;Node62 -->
<g id="edge131" class="edge">
<title>Node0&#45;&gt;Node62</title>
<path fill="none" stroke="#191970" d="M1395.2741,-712.9589C1636.4043,-712.5546 3192.8059,-708.3461 3282,-667 3311.6683,-653.2472 3370.6864,-576.4991 3396.9135,-541.0074"/>
<polygon fill="#191970" stroke="#191970" points="3400.0211,-542.6885 3403.1147,-532.5553 3394.3772,-538.5476 3400.0211,-542.6885"/>
</g>
<!-- Node64 -->
<g id="node65" class="node">
<title>Node64</title>
<g id="a_node65"><a xlink:href="Utils_8h.html" target="_top" xlink:title="hydra/functions/Utils.h">
<polygon fill="none" stroke="#000000" points="1056,-513.5 1056,-532.5 1170,-532.5 1170,-513.5 1056,-513.5"/>
<text text-anchor="middle" x="1113" y="-520.5" font-family="Helvetica,sans-Serif" font-size="10.00" fill="#000000">hydra/functions/Utils.h</text>
</a>
</g>
</g>
<!-- Node0&#45;&gt;Node64 -->
<g id="edge136" class="edge">
<title>Node0&#45;&gt;Node64</title>
<path fill="none" stroke="#191970" d="M1332.7574,-707.7552C1289.1503,-699.93 1212.9126,-684.2582 1191,-667 1149.6405,-634.4257 1127.3046,-573.6361 1118.1107,-542.4905"/>
<polygon fill="#191970" stroke="#191970" points="1121.4653,-541.49 1115.3972,-532.805 1114.7248,-543.3785 1121.4653,-541.49"/>
</g>
<!-- Node65 -->
<g id="node66" class="node">
<title>Node65</title>
<polygon fill="none" stroke="#bfbfbf" points="928.5,-435.5 928.5,-454.5 963.5,-454.5 963.5,-435.5 928.5,-435.5"/>
<text text-anchor="middle" x="946" y="-442.5" font-family="Helvetica,sans-Serif" font-size="10.00" fill="#000000">ratio</text>
</g>
<!-- Node0&#45;&gt;Node65 -->
<g id="edge147" class="edge">
<title>Node0&#45;&gt;Node65</title>
<path fill="none" stroke="#191970" d="M1332.7664,-710.2571C1291.3499,-705.6857 1216.7633,-694.1642 1159,-667 1078.1505,-628.9791 1057.9559,-611.9951 1000,-544 978.9229,-519.2719 962.479,-484.9984 953.5191,-463.9484"/>
<polygon fill="#191970" stroke="#191970" points="956.6799,-462.4324 949.6325,-454.5214 950.2084,-465.1005 956.6799,-462.4324"/>
</g>
<!-- Node66 -->
<g id="node67" class="node">
<title>Node66</title>
<polygon fill="none" stroke="#bfbfbf" points="3472,-636.5 3472,-666.5 3576,-666.5 3576,-636.5 3472,-636.5"/>
<text text-anchor="start" x="3480" y="-654.5" font-family="Helvetica,sans-Serif" font-size="10.00" fill="#000000">hydra/detail/external</text>
<text text-anchor="middle" x="3524" y="-643.5" font-family="Helvetica,sans-Serif" font-size="10.00" fill="#000000">/thrust/extrema.h</text>
</g>
<!-- Node0&#45;&gt;Node66 -->
<g id="edge148" class="edge">
<title>Node0&#45;&gt;Node66</title>
<path fill="none" stroke="#191970" d="M1395.3521,-712.743C1637.2866,-710.7038 3204.2868,-696.4806 3461.6389,-666.8497"/>
<polygon fill="#191970" stroke="#191970" points="3462.4224,-670.279 3471.9099,-665.5633 3461.5525,-663.3332 3462.4224,-670.279"/>
</g>
<!-- Node67 -->
<g id="node68" class="node">
<title>Node67</title>
<g id="a_node68"><a xlink:href="wigner__d__funcion_8h.html" target="_top" xlink:title="hydra/functions/detail\l/wigner_d_funcion.h">
<polygon fill="none" stroke="#000000" points="592,-508 592,-538 702,-538 702,-508 592,-508"/>
<text text-anchor="start" x="600" y="-526" font-family="Helvetica,sans-Serif" font-size="10.00" fill="#000000">hydra/functions/detail</text>
<text text-anchor="middle" x="647" y="-515" font-family="Helvetica,sans-Serif" font-size="10.00" fill="#000000">/wigner_d_funcion.h</text>
</a>
</g>
</g>
<!-- Node0&#45;&gt;Node67 -->
<g id="edge149" class="edge">
<title>Node0&#45;&gt;Node67</title>
<path fill="none" stroke="#191970" d="M1332.6887,-712.3162C1213.3662,-709.4911 791.2656,-697.4153 740,-667 694.5371,-640.0273 667.3903,-581.1594 655.0295,-547.6424"/>
<polygon fill="#191970" stroke="#191970" points="658.2958,-546.3805 651.6642,-538.1178 651.6956,-548.7126 658.2958,-546.3805"/>
</g>
<!-- Node2 -->
<g id="node3" class="node">
<title>Node2</title>
<polygon fill="none" stroke="#bfbfbf" points="1267,-6 1267,-36 1375,-36 1375,-6 1267,-6"/>
<text text-anchor="start" x="1275" y="-24" font-family="Helvetica,sans-Serif" font-size="10.00" fill="#000000">hydra/detail/external</text>
<text text-anchor="middle" x="1321" y="-13" font-family="Helvetica,sans-Serif" font-size="10.00" fill="#000000">/thrust/detail/config.h</text>
</g>
<!-- Node1&#45;&gt;Node2 -->
<g id="edge2" class="edge">
<title>Node1&#45;&gt;Node2</title>
<path fill="none" stroke="#191970" d="M1374.1169,-78.4005C1365.712,-69.3178 1352.7812,-55.3442 1341.7825,-43.4585"/>
<polygon fill="#191970" stroke="#191970" points="1344.2615,-40.9842 1334.9007,-36.0218 1339.1238,-45.7386 1344.2615,-40.9842"/>
</g>
<!-- Node3 -->
<g id="node4" class="node">
<title>Node3</title>
<polygon fill="none" stroke="#bfbfbf" points="1393,-.5 1393,-41.5 1497,-41.5 1497,-.5 1393,-.5"/>
<text text-anchor="start" x="1401" y="-29.5" font-family="Helvetica,sans-Serif" font-size="10.00" fill="#000000">hydra/detail/external</text>
<text text-anchor="start" x="1401" y="-18.5" font-family="Helvetica,sans-Serif" font-size="10.00" fill="#000000">/thrust/detail/config</text>
<text text-anchor="middle" x="1445" y="-7.5" font-family="Helvetica,sans-Serif" font-size="10.00" fill="#000000">/host_device.h</text>
</g>
<!-- Node1&#45;&gt;Node3 -->
<g id="edge3" class="edge">
<title>Node1&#45;&gt;Node3</title>
<path fill="none" stroke="#191970" d="M1391.8831,-78.4005C1398.9962,-70.7137 1409.3511,-59.5239 1419.0329,-49.0612"/>
<polygon fill="#191970" stroke="#191970" points="1421.6849,-51.3486 1425.9079,-41.6318 1416.5471,-46.5942 1421.6849,-51.3486"/>
</g>
<!-- Node5 -->
<g id="node6" class="node">
<title>Node5</title>
<polygon fill="none" stroke="#bfbfbf" points="1742,-274 1742,-304 1870,-304 1870,-274 1742,-274"/>
<text text-anchor="start" x="1750" y="-292" font-family="Helvetica,sans-Serif" font-size="10.00" fill="#000000">hydra/detail/external</text>
<text text-anchor="middle" x="1806" y="-281" font-family="Helvetica,sans-Serif" font-size="10.00" fill="#000000">/thrust/execution_policy.h</text>
</g>
<!-- Node4&#45;&gt;Node5 -->
<g id="edge5" class="edge">
<title>Node4&#45;&gt;Node5</title>
<path fill="none" stroke="#191970" d="M1204.2581,-435.4686C1218.2294,-431.8303 1234.3453,-427.6754 1249,-424 1421.9678,-380.6201 1625.7425,-331.8145 1732.4179,-306.4407"/>
<polygon fill="#191970" stroke="#191970" points="1733.5148,-309.7775 1742.4339,-304.0593 1731.8955,-302.9674 1733.5148,-309.7775"/>
</g>
<!-- Node7&#45;&gt;Node1 -->
<g id="edge8" class="edge">
<title>Node7&#45;&gt;Node1</title>
<path fill="none" stroke="#191970" d="M2141.3595,-649.4314C1914.4869,-638.6313 900,-586.7718 900,-523 900,-523 900,-523 900,-222 900,-154.783 960.4308,-158.5605 1023,-134 1075.6094,-113.349 1231.2727,-99.0516 1319.7205,-92.3442"/>
<polygon fill="#191970" stroke="#191970" points="1320.1886,-95.8191 1329.8998,-91.5833 1319.6667,-88.8386 1320.1886,-95.8191"/>
</g>
<!-- Node7&#45;&gt;Node6 -->
<g id="edge9" class="edge">
<title>Node7&#45;&gt;Node6</title>
<path fill="none" stroke="#191970" d="M2213.8073,-641.9619C2220.9742,-639.7577 2228.7203,-637.5944 2236,-636 2355.9802,-609.7211 2389.1388,-621.8725 2510,-600 2769.9131,-552.9631 2879.8728,-627.3478 3089,-466 3120.0079,-442.0765 3120.6155,-426.0231 3130,-388 3148.947,-311.2325 3165.6093,-261.5635 3104,-212 3042.4686,-162.4992 3005.9282,-197.7106 2930,-176 2878.0847,-161.1556 2868.6653,-145.913 2816,-134 2731.3302,-114.8476 2475.4331,-97.6019 2366.7187,-90.9288"/>
<polygon fill="#191970" stroke="#191970" points="2366.8625,-87.4312 2356.6681,-90.3163 2366.4366,-94.4182 2366.8625,-87.4312"/>
</g>
<!-- Node8 -->
<g id="node9" class="node">
<title>Node8</title>
<g id="a_node9"><a xlink:href="Print_8h.html" target="_top" xlink:title="hydra/detail/Print.h">
<polygon fill="none" stroke="#000000" points="2450,-513.5 2450,-532.5 2548,-532.5 2548,-513.5 2450,-513.5"/>
<text text-anchor="middle" x="2499" y="-520.5" font-family="Helvetica,sans-Serif" font-size="10.00" fill="#000000">hydra/detail/Print.h</text>
</a>
</g>
</g>
<!-- Node7&#45;&gt;Node8 -->
<g id="edge10" class="edge">
<title>Node7&#45;&gt;Node8</title>
<path fill="none" stroke="#191970" d="M2230.5153,-645.9675C2292.7522,-637.6243 2401.9716,-620.5883 2436,-600 2459.5663,-585.7416 2478.2187,-559.3683 2488.9347,-541.5062"/>
<polygon fill="#191970" stroke="#191970" points="2492.1101,-543.0048 2494.0523,-532.5895 2486.039,-539.5203 2492.1101,-543.0048"/>
</g>
<!-- Node11 -->
<g id="node12" class="node">
<title>Node11</title>
<polygon fill="none" stroke="#bfbfbf" points="3057,-212.5 3057,-231.5 3095,-231.5 3095,-212.5 3057,-212.5"/>
<text text-anchor="middle" x="3076" y="-219.5" font-family="Helvetica,sans-Serif" font-size="10.00" fill="#000000">array</text>
</g>
<!-- Node7&#45;&gt;Node11 -->
<g id="edge107" class="edge">
<title>Node7&#45;&gt;Node11</title>
<path fill="none" stroke="#191970" d="M2230.7506,-649.7184C2377.889,-643.6633 2840.9186,-622.9718 2904,-600 3033.4069,-552.875 3096.9994,-521.7082 3130,-388 3134.2612,-370.7349 3135.3417,-281.6686 3129,-268 3123.2313,-255.5664 3112.2974,-245.1772 3101.8521,-237.4369"/>
<polygon fill="#191970" stroke="#191970" points="3103.5409,-234.3506 3093.3171,-231.5712 3099.5762,-240.1196 3103.5409,-234.3506"/>
</g>
<!-- Node17 -->
<g id="node18" class="node">
<title>Node17</title>
<polygon fill="none" stroke="#bfbfbf" points="2654,-357.5 2654,-376.5 2706,-376.5 2706,-357.5 2654,-357.5"/>
<text text-anchor="middle" x="2680" y="-364.5" font-family="Helvetica,sans-Serif" font-size="10.00" fill="#000000">memory</text>
</g>
<!-- Node7&#45;&gt;Node17 -->
<g id="edge109" class="edge">
<title>Node7&#45;&gt;Node17</title>
<path fill="none" stroke="#191970" d="M2230.7368,-646.8598C2285.9303,-640.2908 2382.1376,-626.0704 2461,-600 2590.0892,-557.3256 2663.9307,-581.2873 2736,-466 2745.8948,-450.1716 2743.067,-441.2772 2736,-424 2729.215,-407.4124 2715.017,-393.0506 2702.6156,-382.8924"/>
<polygon fill="#191970" stroke="#191970" points="2704.4802,-379.9097 2694.4302,-376.5557 2700.1951,-385.4449 2704.4802,-379.9097"/>
</g>
<!-- Node18 -->
<g id="node19" class="node">
<title>Node18</title>
<g id="a_node19"><a xlink:href="Integrator_8h.html" target="_top" xlink:title="hydra/Integrator.h">
<polygon fill="none" stroke="#000000" points="1450.5,-513.5 1450.5,-532.5 1543.5,-532.5 1543.5,-513.5 1450.5,-513.5"/>
<text text-anchor="middle" x="1497" y="-520.5" font-family="Helvetica,sans-Serif" font-size="10.00" fill="#000000">hydra/Integrator.h</text>
</a>
</g>
</g>
<!-- Node7&#45;&gt;Node18 -->
<g id="edge23" class="edge">
<title>Node7&#45;&gt;Node18</title>
<path fill="none" stroke="#191970" d="M2141.357,-650.1685C2025.0007,-646.2674 1714.7644,-632.9903 1618,-600 1578.294,-586.4629 1538.4435,-557.3941 1515.8359,-539.0999"/>
<polygon fill="#191970" stroke="#191970" points="1517.9909,-536.3403 1508.0518,-532.6708 1513.5332,-541.7375 1517.9909,-536.3403"/>
</g>
<!-- Node24 -->
<g id="node25" class="node">
<title>Node24</title>
<g id="a_node25"><a xlink:href="Parameter_8h.html" target="_top" xlink:title="hydra/Parameter.h">
<polygon fill="none" stroke="#000000" points="1978.5,-435.5 1978.5,-454.5 2075.5,-454.5 2075.5,-435.5 1978.5,-435.5"/>
<text text-anchor="middle" x="2027" y="-442.5" font-family="Helvetica,sans-Serif" font-size="10.00" fill="#000000">hydra/Parameter.h</text>
</a>
</g>
</g>
<!-- Node7&#45;&gt;Node24 -->
<g id="edge32" class="edge">
<title>Node7&#45;&gt;Node24</title>
<path fill="none" stroke="#191970" d="M2183.2228,-641.7387C2175.5924,-616.2805 2152.2276,-546.7384 2113,-502 2097.3122,-484.1084 2074.7479,-469.4365 2056.6682,-459.4607"/>
<polygon fill="#191970" stroke="#191970" points="2058.1548,-456.2871 2047.6826,-454.6798 2054.8668,-462.4669 2058.1548,-456.2871"/>
</g>
<!-- Node32 -->
<g id="node33" class="node">
<title>Node32</title>
<polygon fill="none" stroke="#bfbfbf" points="3292,-6 3292,-36 3396,-36 3396,-6 3292,-6"/>
<text text-anchor="start" x="3300" y="-24" font-family="Helvetica,sans-Serif" font-size="10.00" fill="#000000">hydra/detail/external</text>
<text text-anchor="middle" x="3344" y="-13" font-family="Helvetica,sans-Serif" font-size="10.00" fill="#000000">/thrust/tuple.h</text>
</g>
<!-- Node7&#45;&gt;Node32 -->
<g id="edge105" class="edge">
<title>Node7&#45;&gt;Node32</title>
<path fill="none" stroke="#191970" d="M2230.8832,-650.5334C2372.2196,-647.1624 2806.7762,-634.2126 2943,-600 3001.6492,-585.2703 3013.0335,-571.282 3067,-544 3210.3154,-471.549 3382,-527.5878 3382,-367 3382,-367 3382,-367 3382,-155 3382,-115.5468 3366.5648,-71.9537 3355.3691,-45.5231"/>
<polygon fill="#191970" stroke="#191970" points="3358.5399,-44.0383 3351.3268,-36.278 3352.1262,-46.8427 3358.5399,-44.0383"/>
</g>
<!-- Node33 -->
<g id="node34" class="node">
<title>Node33</title>
<polygon fill="none" stroke="#bfbfbf" points="1554.5,-.5 1554.5,-41.5 1703.5,-41.5 1703.5,-.5 1554.5,-.5"/>
<text text-anchor="start" x="1562.5" y="-29.5" font-family="Helvetica,sans-Serif" font-size="10.00" fill="#000000">hydra/detail/external</text>
<text text-anchor="start" x="1562.5" y="-18.5" font-family="Helvetica,sans-Serif" font-size="10.00" fill="#000000">/thrust/iterator/detail</text>
<text text-anchor="middle" x="1629" y="-7.5" font-family="Helvetica,sans-Serif" font-size="10.00" fill="#000000">/tuple_of_iterator_references.h</text>
</g>
<!-- Node7&#45;&gt;Node33 -->
<g id="edge103" class="edge">
<title>Node7&#45;&gt;Node33</title>
<path fill="none" stroke="#191970" d="M2141.3432,-651.2855C1830.3301,-649.508 0,-634.3182 0,-523 0,-523 0,-523 0,-155 0,-123.9009 16.2963,-107.6357 125,-78 273.0917,-37.626 1353.2337,-56.9547 1506,-42 1518.419,-40.7843 1531.4764,-39.0525 1544.2564,-37.0983"/>
<polygon fill="#191970" stroke="#191970" points="1545.0984,-40.5088 1554.4286,-35.4891 1544.0045,-33.5947 1545.0984,-40.5088"/>
</g>
<!-- Node43 -->
<g id="node44" class="node">
<title>Node43</title>
<polygon fill="none" stroke="#bfbfbf" points="2492,-274 2492,-304 2620,-304 2620,-274 2492,-274"/>
<text text-anchor="start" x="2500" y="-292" font-family="Helvetica,sans-Serif" font-size="10.00" fill="#000000">hydra/detail/external</text>
<text text-anchor="middle" x="2556" y="-281" font-family="Helvetica,sans-Serif" font-size="10.00" fill="#000000">/thrust/detail/type_traits.h</text>
</g>
<!-- Node7&#45;&gt;Node43 -->
<g id="edge106" class="edge">
<title>Node7&#45;&gt;Node43</title>
<path fill="none" stroke="#191970" d="M2199.1851,-641.8949C2221.5144,-624.8647 2266.5303,-587.0856 2289,-544 2314.1502,-495.7746 2287.3359,-471.9539 2313,-424 2336.1333,-380.775 2349.4366,-372.0008 2391,-346 2408.7648,-334.8869 2455.4806,-319.1484 2494.6877,-307.024"/>
<polygon fill="#191970" stroke="#191970" points="2495.9368,-310.3019 2504.4716,-304.0243 2493.8849,-303.6093 2495.9368,-310.3019"/>
</g>
<!-- Node47 -->
<g id="node48" class="node">
<title>Node47</title>
<g id="a_node48"><a xlink:href="Utility__Tuple_8h.html" target="_top" xlink:title="hydra/detail/utility\l/Utility_Tuple.h">
<polygon fill="none" stroke="#000000" points="2186.5,-508 2186.5,-538 2279.5,-538 2279.5,-508 2186.5,-508"/>
<text text-anchor="start" x="2194.5" y="-526" font-family="Helvetica,sans-Serif" font-size="10.00" fill="#000000">hydra/detail/utility</text>
<text text-anchor="middle" x="2233" y="-515" font-family="Helvetica,sans-Serif" font-size="10.00" fill="#000000">/Utility_Tuple.h</text>
</a>
</g>
</g>
<!-- Node7&#45;&gt;Node47 -->
<g id="edge76" class="edge">
<title>Node7&#45;&gt;Node47</title>
<path fill="none" stroke="#191970" d="M2189.5326,-641.8416C2196.7577,-622.0879 2213.4235,-576.5229 2223.8923,-547.9008"/>
<polygon fill="#191970" stroke="#191970" points="2227.2918,-548.7954 2227.4399,-538.2016 2220.7178,-546.3909 2227.2918,-548.7954"/>
</g>
<!-- Node49 -->
<g id="node50" class="node">
<title>Node49</title>
<g id="a_node50"><a xlink:href="FunctorTraits_8h.html" target="_top" xlink:title="hydra/detail/FunctorTraits.h">
<polygon fill="none" stroke="#000000" points="2322,-435.5 2322,-454.5 2458,-454.5 2458,-435.5 2322,-435.5"/>
<text text-anchor="middle" x="2390" y="-442.5" font-family="Helvetica,sans-Serif" font-size="10.00" fill="#000000">hydra/detail/FunctorTraits.h</text>
</a>
</g>
</g>
<!-- Node7&#45;&gt;Node49 -->
<g id="edge92" class="edge">
<title>Node7&#45;&gt;Node49</title>
<path fill="none" stroke="#191970" d="M2230.5692,-647.0638C2286.4932,-640.4704 2377.5758,-625.9797 2398,-600 2429.121,-560.4139 2410.5436,-496.0269 2398.242,-464.1416"/>
<polygon fill="#191970" stroke="#191970" points="2401.3961,-462.6062 2394.3916,-454.6571 2394.9102,-465.2393 2401.3961,-462.6062"/>
</g>
<!-- Node50 -->
<g id="node51" class="node">
<title>Node50</title>
<g id="a_node51"><a xlink:href="Parameters_8h.html" target="_top" xlink:title="hydra/detail/Parameters.h">
<polygon fill="none" stroke="#000000" points="1627,-580.5 1627,-599.5 1755,-599.5 1755,-580.5 1627,-580.5"/>
<text text-anchor="middle" x="1691" y="-587.5" font-family="Helvetica,sans-Serif" font-size="10.00" fill="#000000">hydra/detail/Parameters.h</text>
</a>
</g>
</g>
<!-- Node7&#45;&gt;Node50 -->
<g id="edge93" class="edge">
<title>Node7&#45;&gt;Node50</title>
<path fill="none" stroke="#191970" d="M2141.199,-645.9338C2055.982,-635.3462 1869.7619,-612.2098 1765.4963,-599.2556"/>
<polygon fill="#191970" stroke="#191970" points="1765.7149,-595.7559 1755.3596,-597.9962 1764.8517,-602.7025 1765.7149,-595.7559"/>
</g>
<!-- Node54 -->
<g id="node55" class="node">
<title>Node54</title>
<polygon fill="none" stroke="#bfbfbf" points="1757,-502.5 1757,-543.5 1861,-543.5 1861,-502.5 1757,-502.5"/>
<text text-anchor="start" x="1765" y="-531.5" font-family="Helvetica,sans-Serif" font-size="10.00" fill="#000000">hydra/detail/external</text>
<text text-anchor="start" x="1765" y="-520.5" font-family="Helvetica,sans-Serif" font-size="10.00" fill="#000000">/thrust/iterator/zip</text>
<text text-anchor="middle" x="1809" y="-509.5" font-family="Helvetica,sans-Serif" font-size="10.00" fill="#000000">_iterator.h</text>
</g>
<!-- Node7&#45;&gt;Node54 -->
<g id="edge104" class="edge">
<title>Node7&#45;&gt;Node54</title>
<path fill="none" stroke="#191970" d="M2146.4182,-641.9246C2108.4926,-632.4257 2049.8235,-616.8802 2000,-600 1953.9553,-584.4 1902.9379,-563.6482 1865.221,-547.6186"/>
<polygon fill="#191970" stroke="#191970" points="1866.5008,-544.3594 1855.9297,-543.6511 1863.7518,-550.7971 1866.5008,-544.3594"/>
</g>
<!-- Node55 -->
<g id="node56" class="node">
<title>Node55</title>
<polygon fill="none" stroke="#bfbfbf" points="1879.5,-513.5 1879.5,-532.5 1952.5,-532.5 1952.5,-513.5 1879.5,-513.5"/>
<text text-anchor="middle" x="1916" y="-520.5" font-family="Helvetica,sans-Serif" font-size="10.00" fill="#000000">initializer_list</text>
</g>
<!-- Node7&#45;&gt;Node55 -->
<g id="edge108" class="edge">
<title>Node7&#45;&gt;Node55</title>
<path fill="none" stroke="#191970" d="M2152.1652,-641.9932C2121.8083,-632.9187 2076.4099,-617.986 2039,-600 2001.5519,-581.9957 1961.303,-555.2301 1937.4056,-538.4652"/>
<polygon fill="#191970" stroke="#191970" points="1939.2696,-535.4963 1929.0872,-532.5686 1935.2214,-541.2071 1939.2696,-535.4963"/>
</g>
<!-- Node8&#45;&gt;Node1 -->
<g id="edge20" class="edge">
<title>Node8&#45;&gt;Node1</title>
<path fill="none" stroke="#191970" d="M2499.1191,-513.4956C2498.8029,-493.3391 2494.9401,-446.3266 2467,-424 2397.6237,-368.5622 2156.3724,-403.8899 2069,-388 2000.044,-375.4594 1985.219,-362.0738 1917,-346 1835.8927,-326.8894 1809.8121,-342.3035 1733,-310 1702.6581,-297.2397 1700.2976,-284.8137 1672,-268 1633.3809,-245.0536 1527.0616,-204.083 1492,-176 1473.0349,-160.8097 1475.3299,-149.951 1457,-134 1443.0523,-121.8626 1425.5545,-110.8291 1411.0759,-102.6123"/>
<polygon fill="#191970" stroke="#191970" points="1412.511,-99.4066 1402.0651,-97.6361 1409.127,-105.5343 1412.511,-99.4066"/>
</g>
<!-- Node8&#45;&gt;Node6 -->
<g id="edge21" class="edge">
<title>Node8&#45;&gt;Node6</title>
<path fill="none" stroke="#191970" d="M2499.197,-513.3183C2499.4214,-501.9783 2499.7849,-482.6262 2500,-466 2500.0216,-464.3334 2499.8877,-347.2413 2501,-346 2591.7948,-244.6722 2714.6282,-411.7052 2805,-310 2817.3989,-296.0461 2815.4944,-283.4374 2805,-268 2780.5476,-232.0301 2753.1915,-250.862 2714,-232 2635.0694,-194.0125 2624.9624,-164.9071 2543,-134 2484.6579,-111.9998 2413.6696,-99.7438 2367.0079,-93.5179"/>
<polygon fill="#191970" stroke="#191970" points="2367.2201,-90.0163 2356.8542,-92.2072 2366.3238,-96.9587 2367.2201,-90.0163"/>
</g>
<!-- Node9 -->
<g id="node10" class="node">
<title>Node9</title>
<g id="a_node10"><a xlink:href="StreamSTL_8h.html" target="_top" xlink:title="hydra/detail/utility\l/StreamSTL.h">
<polygon fill="none" stroke="#000000" points="2880.5,-430 2880.5,-460 2973.5,-460 2973.5,-430 2880.5,-430"/>
<text text-anchor="start" x="2888.5" y="-448" font-family="Helvetica,sans-Serif" font-size="10.00" fill="#000000">hydra/detail/utility</text>
<text text-anchor="middle" x="2927" y="-437" font-family="Helvetica,sans-Serif" font-size="10.00" fill="#000000">/StreamSTL.h</text>
</a>
</g>
</g>
<!-- Node8&#45;&gt;Node9 -->
<g id="edge11" class="edge">
<title>Node8&#45;&gt;Node9</title>
<path fill="none" stroke="#191970" d="M2548.097,-514.0524C2628.0648,-499.4789 2785.9827,-470.6994 2870.4942,-455.2978"/>
<polygon fill="#191970" stroke="#191970" points="2871.216,-458.724 2880.4265,-453.4877 2869.9609,-451.8374 2871.216,-458.724"/>
</g>
<!-- Node10 -->
<g id="node11" class="node">
<title>Node10</title>
<polygon fill="none" stroke="#bfbfbf" points="3173,-78.5 3173,-97.5 3227,-97.5 3227,-78.5 3173,-78.5"/>
<text text-anchor="middle" x="3200" y="-85.5" font-family="Helvetica,sans-Serif" font-size="10.00" fill="#000000">iostream</text>
</g>
<!-- Node8&#45;&gt;Node10 -->
<g id="edge22" class="edge">
<title>Node8&#45;&gt;Node10</title>
<path fill="none" stroke="#191970" d="M2519.3171,-513.4362C2529.2523,-509.1936 2541.5184,-504.5851 2553,-502 2661.462,-477.58 2953.474,-517.5069 3052,-466 3186.908,-395.4735 3199.5217,-174.8494 3200.1701,-107.6326"/>
<polygon fill="#191970" stroke="#191970" points="3203.6701,-107.5707 3200.1839,-97.5659 3196.6701,-107.561 3203.6701,-107.5707"/>
</g>
<!-- Node9&#45;&gt;Node10 -->
<g id="edge12" class="edge">
<title>Node9&#45;&gt;Node10</title>
<path fill="none" stroke="#191970" d="M2923.2091,-429.6325C2920.5976,-418.2259 2917.3621,-402.2464 2916,-388 2910.7356,-332.9378 2914.4585,-311.2023 2949,-268 2953.3696,-262.5348 3117.5597,-146.2604 3177.979,-103.554"/>
<polygon fill="#191970" stroke="#191970" points="3180.281,-106.213 3186.4278,-97.5836 3176.2412,-100.4963 3180.281,-106.213"/>
</g>
<!-- Node9&#45;&gt;Node11 -->
<g id="edge13" class="edge">
<title>Node9&#45;&gt;Node11</title>
<path fill="none" stroke="#191970" d="M2923.5835,-429.6934C2919.8682,-409.4453 2916.0464,-373.1527 2929,-346 2953.9016,-293.8027 3012.4042,-255.4718 3047.6372,-236.1395"/>
<polygon fill="#191970" stroke="#191970" points="3049.7332,-238.9884 3056.9104,-231.1948 3046.4396,-232.8116 3049.7332,-238.9884"/>
</g>
<!-- Node9&#45;&gt;Node12 -->
<g id="edge14" class="edge">
<title>Node9&#45;&gt;Node12</title>
<path fill="none" stroke="#191970" d="M2932.7843,-429.9608C2937.5672,-417.5253 2944.3911,-399.7832 2949.5767,-386.3007"/>
<polygon fill="#191970" stroke="#191970" points="2952.9908,-387.1738 2953.3139,-376.5839 2946.4573,-384.6609 2952.9908,-387.1738"/>
</g>
<!-- Node13 -->
<g id="node14" class="node">
<title>Node13</title>
<polygon fill="none" stroke="#bfbfbf" points="2734,-279.5 2734,-298.5 2796,-298.5 2796,-279.5 2734,-279.5"/>
<text text-anchor="middle" x="2765" y="-286.5" font-family="Helvetica,sans-Serif" font-size="10.00" fill="#000000">type_traits</text>
</g>
<!-- Node9&#45;&gt;Node13 -->
<g id="edge15" class="edge">
<title>Node9&#45;&gt;Node13</title>
<path fill="none" stroke="#191970" d="M2886.4101,-429.9293C2849.1234,-415.7559 2798.6588,-395.6111 2792,-388 2772.5208,-365.7353 2766.9518,-330.7005 2765.4431,-308.8302"/>
<polygon fill="#191970" stroke="#191970" points="2768.9343,-308.5568 2764.9721,-298.7308 2761.9419,-308.883 2768.9343,-308.5568"/>
</g>
<!-- Node14 -->
<g id="node15" class="node">
<title>Node14</title>
<polygon fill="none" stroke="#bfbfbf" points="2800.5,-357.5 2800.5,-376.5 2843.5,-376.5 2843.5,-357.5 2800.5,-357.5"/>
<text text-anchor="middle" x="2822" y="-364.5" font-family="Helvetica,sans-Serif" font-size="10.00" fill="#000000">cstdio</text>
</g>
<!-- Node9&#45;&gt;Node14 -->
<g id="edge16" class="edge">
<title>Node9&#45;&gt;Node14</title>
<path fill="none" stroke="#191970" d="M2906.7549,-429.9608C2888.4402,-416.3556 2861.5751,-396.3987 2843.0231,-382.6172"/>
<polygon fill="#191970" stroke="#191970" points="2845.016,-379.7375 2834.9014,-376.5839 2840.8417,-385.3568 2845.016,-379.7375"/>
</g>
<!-- Node15 -->
<g id="node16" class="node">
<title>Node15</title>
<polygon fill="none" stroke="#bfbfbf" points="2221.5,-357.5 2221.5,-376.5 2262.5,-376.5 2262.5,-357.5 2221.5,-357.5"/>
<text text-anchor="middle" x="2242" y="-364.5" font-family="Helvetica,sans-Serif" font-size="10.00" fill="#000000">string</text>
</g>
<!-- Node9&#45;&gt;Node15 -->
<g id="edge17" class="edge">
<title>Node9&#45;&gt;Node15</title>
<path fill="none" stroke="#191970" d="M2880.4557,-439.7001C2749.7541,-424.8173 2381.8143,-382.9205 2272.8041,-370.5076"/>
<polygon fill="#191970" stroke="#191970" points="2273.1255,-367.0217 2262.7937,-369.3678 2272.3335,-373.9767 2273.1255,-367.0217"/>
</g>
<!-- Node16 -->
<g id="node17" class="node">
<title>Node16</title>
<polygon fill="none" stroke="#bfbfbf" points="2586.5,-357.5 2586.5,-376.5 2635.5,-376.5 2635.5,-357.5 2586.5,-357.5"/>
<text text-anchor="middle" x="2611" y="-364.5" font-family="Helvetica,sans-Serif" font-size="10.00" fill="#000000">cassert</text>
</g>
<!-- Node9&#45;&gt;Node16 -->
<g id="edge18" class="edge">
<title>Node9&#45;&gt;Node16</title>
<path fill="none" stroke="#191970" d="M2880.2465,-437.6068C2811.6277,-426.408 2687.2136,-404.6831 2645,-388 2640.8625,-386.3648 2636.6644,-384.2312 2632.6958,-381.9514"/>
<polygon fill="#191970" stroke="#191970" points="2634.3279,-378.8447 2623.9884,-376.5325 2630.6293,-384.7878 2634.3279,-378.8447"/>
</g>
<!-- Node9&#45;&gt;Node17 -->
<g id="edge19" class="edge">
<title>Node9&#45;&gt;Node17</title>
<path fill="none" stroke="#191970" d="M2880.2508,-430.2371C2832.3723,-415.1176 2758.996,-391.9461 2715.6229,-378.2493"/>
<polygon fill="#191970" stroke="#191970" points="2716.6495,-374.9032 2706.0597,-375.2294 2714.5415,-381.5783 2716.6495,-374.9032"/>
</g>
<!-- Node18&#45;&gt;Node1 -->
<g id="edge24" class="edge">
<title>Node18&#45;&gt;Node1</title>
<path fill="none" stroke="#191970" d="M1476.0836,-513.3766C1458.2415,-503.9787 1433.545,-487.8951 1421,-466 1351.835,-345.285 1370.8509,-166.8651 1379.6886,-107.7926"/>
<polygon fill="#191970" stroke="#191970" points="1383.1919,-108.0447 1381.2912,-97.6218 1376.2772,-106.9551 1383.1919,-108.0447"/>
</g>
<!-- Node18&#45;&gt;Node6 -->
<g id="edge25" class="edge">
<title>Node18&#45;&gt;Node6</title>
<path fill="none" stroke="#191970" d="M1519.4447,-513.4114C1529.2993,-509.4684 1541.0886,-505.1076 1552,-502 1633.4002,-478.8167 1685.1054,-531.2597 1739,-466 1750.8864,-451.607 1744.4633,-441.8493 1739,-424 1716.3704,-350.0664 1636.6069,-341.0306 1662,-268 1686.9389,-196.2757 1701.0909,-169.9094 1768,-134 1811.3938,-110.711 2140.3157,-95.121 2267.2457,-89.9161"/>
<polygon fill="#191970" stroke="#191970" points="2267.6109,-93.4043 2277.4609,-89.5018 2267.3272,-86.41 2267.6109,-93.4043"/>
</g>
<!-- Node18&#45;&gt;Node19 -->
<g id="edge26" class="edge">
<title>Node18&#45;&gt;Node19</title>
<path fill="none" stroke="#191970" d="M1470.1463,-513.4357C1429.0133,-498.7856 1350.6821,-470.8868 1307.8314,-455.6249"/>
<polygon fill="#191970" stroke="#191970" points="1308.8418,-452.2694 1298.2471,-452.2113 1306.4931,-458.8637 1308.8418,-452.2694"/>
</g>
<!-- Node20 -->
<g id="node21" class="node">
<title>Node20</title>
<g id="a_node21"><a xlink:href="AnalyticalIntegral_8inl.html" target="_top" xlink:title="hydra/detail/AnalyticalIntegral.inl">
<polygon fill="none" stroke="#000000" points="2552,-435.5 2552,-454.5 2710,-454.5 2710,-435.5 2552,-435.5"/>
<text text-anchor="middle" x="2631" y="-442.5" font-family="Helvetica,sans-Serif" font-size="10.00" fill="#000000">hydra/detail/AnalyticalIntegral.inl</text>
</a>
</g>
</g>
<!-- Node18&#45;&gt;Node20 -->
<g id="edge27" class="edge">
<title>Node18&#45;&gt;Node20</title>
<path fill="none" stroke="#191970" d="M1517.158,-513.4913C1527.3622,-509.1499 1540.0844,-504.4406 1552,-502 1751.3519,-461.168 2264.2156,-482.9393 2467,-466 2496.4252,-463.542 2528.6829,-459.6687 2556.7455,-455.9143"/>
<polygon fill="#191970" stroke="#191970" points="2557.4428,-459.3518 2566.8816,-454.5393 2556.5018,-452.4153 2557.4428,-459.3518"/>
</g>
<!-- Node22 -->
<g id="node23" class="node">
<title>Node22</title>
<g id="a_node23"><a xlink:href="NumericalIntegral_8inl.html" target="_top" xlink:title="hydra/detail/NumericalIntegral.inl">
<polygon fill="none" stroke="#000000" points="1430,-435.5 1430,-454.5 1588,-454.5 1588,-435.5 1430,-435.5"/>
<text text-anchor="middle" x="1509" y="-442.5" font-family="Helvetica,sans-Serif" font-size="10.00" fill="#000000">hydra/detail/NumericalIntegral.inl</text>
</a>
</g>
</g>
<!-- Node18&#45;&gt;Node22 -->
<g id="edge30" class="edge">
<title>Node18&#45;&gt;Node22</title>
<path fill="none" stroke="#191970" d="M1498.4714,-513.4357C1500.3247,-501.3893 1503.5562,-480.3849 1505.9516,-464.8143"/>
<polygon fill="#191970" stroke="#191970" points="1509.4552,-465.0585 1507.5165,-454.6426 1502.5366,-463.9941 1509.4552,-465.0585"/>
</g>
<!-- Node23 -->
<g id="node24" class="node">
<title>Node23</title>
<g id="a_node24"><a xlink:href="Integrator_8inl.html" target="_top" xlink:title="hydra/detail/Integrator.inl">
<polygon fill="none" stroke="#000000" points="1606,-435.5 1606,-454.5 1730,-454.5 1730,-435.5 1606,-435.5"/>
<text text-anchor="middle" x="1668" y="-442.5" font-family="Helvetica,sans-Serif" font-size="10.00" fill="#000000">hydra/detail/Integrator.inl</text>
</a>
</g>
</g>
<!-- Node18&#45;&gt;Node23 -->
<g id="edge31" class="edge">
<title>Node18&#45;&gt;Node23</title>
<path fill="none" stroke="#191970" d="M1517.968,-513.4357C1548.0486,-499.7147 1603.607,-474.3722 1638.0212,-458.6746"/>
<polygon fill="#191970" stroke="#191970" points="1639.4826,-461.8549 1647.1283,-454.5204 1636.5775,-455.4862 1639.4826,-461.8549"/>
</g>
<!-- Node20&#45;&gt;Node16 -->
<g id="edge29" class="edge">
<title>Node20&#45;&gt;Node16</title>
<path fill="none" stroke="#191970" d="M2628.5476,-435.4357C2625.4288,-423.2723 2619.9683,-401.9762 2615.9647,-386.3623"/>
<polygon fill="#191970" stroke="#191970" points="2619.3466,-385.4599 2613.4725,-376.6426 2612.566,-387.1985 2619.3466,-385.4599"/>
</g>
<!-- Node20&#45;&gt;Node21 -->
<g id="edge28" class="edge">
<title>Node20&#45;&gt;Node21</title>
<path fill="none" stroke="#191970" d="M2619.719,-435.4357C2604.4068,-422.4536 2576.8239,-399.0681 2558.2153,-383.2913"/>
<polygon fill="#191970" stroke="#191970" points="2560.2643,-380.4398 2550.3733,-376.6426 2555.7375,-385.7791 2560.2643,-380.4398"/>
</g>
<!-- Node24&#45;&gt;Node1 -->
<g id="edge33" class="edge">
<title>Node24&#45;&gt;Node1</title>
<path fill="none" stroke="#191970" d="M1998.8206,-435.4515C1987.9567,-431.8111 1975.4183,-427.6592 1964,-424 1912.1895,-407.3966 1897.2547,-408.8438 1847,-388 1802.0713,-369.3653 1502.0767,-206.2656 1464,-176 1437.338,-154.8074 1411.5896,-124.6461 1396.5293,-105.7089"/>
<polygon fill="#191970" stroke="#191970" points="1399.1341,-103.358 1390.2171,-97.6363 1393.6198,-107.6699 1399.1341,-103.358"/>
</g>
<!-- Node24&#45;&gt;Node6 -->
<g id="edge34" class="edge">
<title>Node24&#45;&gt;Node6</title>
<path fill="none" stroke="#191970" d="M2023.6409,-435.4649C2011.9795,-400.4646 1977.0725,-277.693 2036,-212 2108.9025,-130.7275 2192.4241,-242.5178 2279,-176 2300.6004,-159.404 2310.1139,-128.0534 2314.1662,-107.6015"/>
<polygon fill="#191970" stroke="#191970" points="2317.6538,-107.9719 2315.8977,-97.5236 2310.7549,-106.7865 2317.6538,-107.9719"/>
</g>
<!-- Node24&#45;&gt;Node15 -->
<g id="edge74" class="edge">
<title>Node24&#45;&gt;Node15</title>
<path fill="none" stroke="#191970" d="M2072.5489,-435.4822C2111.2138,-426.3763 2167.5003,-410.6593 2213,-388 2216.2134,-386.3997 2219.4528,-384.4527 2222.5429,-382.397"/>
<polygon fill="#191970" stroke="#191970" points="2224.6431,-385.1976 2230.711,-376.5125 2220.5514,-379.518 2224.6431,-385.1976"/>
</g>
<!-- Node25 -->
<g id="node26" class="node">
<title>Node25</title>
<g id="a_node26"><a xlink:href="TypeTraits_8h.html" target="_top" xlink:title="hydra/detail/TypeTraits.h">
<polygon fill="none" stroke="#000000" points="2078.5,-357.5 2078.5,-376.5 2203.5,-376.5 2203.5,-357.5 2078.5,-357.5"/>
<text text-anchor="middle" x="2141" y="-364.5" font-family="Helvetica,sans-Serif" font-size="10.00" fill="#000000">hydra/detail/TypeTraits.h</text>
</a>
</g>
</g>
<!-- Node24&#45;&gt;Node25 -->
<g id="edge35" class="edge">
<title>Node24&#45;&gt;Node25</title>
<path fill="none" stroke="#191970" d="M2040.9786,-435.4357C2060.2943,-422.2197 2095.3679,-398.222 2118.4251,-382.446"/>
<polygon fill="#191970" stroke="#191970" points="2120.6303,-385.178 2126.907,-376.6426 2116.6775,-379.4009 2120.6303,-385.178"/>
</g>
<!-- Node46 -->
<g id="node47" class="node">
<title>Node46</title>
<polygon fill="none" stroke="#bfbfbf" points="1856,-357.5 1856,-376.5 1908,-376.5 1908,-357.5 1856,-357.5"/>
<text text-anchor="middle" x="1882" y="-364.5" font-family="Helvetica,sans-Serif" font-size="10.00" fill="#000000">ostream</text>
</g>
<!-- Node24&#45;&gt;Node46 -->
<g id="edge75" class="edge">
<title>Node24&#45;&gt;Node46</title>
<path fill="none" stroke="#191970" d="M2009.2202,-435.4357C1984.1085,-421.9273 1938.0571,-397.1548 1908.79,-381.4112"/>
<polygon fill="#191970" stroke="#191970" points="1910.39,-378.2977 1899.9253,-376.6426 1907.0738,-384.4623 1910.39,-378.2977"/>
</g>
<!-- Node25&#45;&gt;Node1 -->
<g id="edge36" class="edge">
<title>Node25&#45;&gt;Node1</title>
<path fill="none" stroke="#191970" d="M2118.1514,-357.4482C2072.9825,-338.7713 1968.8501,-296.7332 1879,-268 1726.2124,-219.14 1667.0417,-259.3722 1530,-176 1508.4942,-162.9165 1512.5264,-148.572 1492,-134 1471.758,-119.6299 1446.3343,-108.5755 1425.1332,-100.909"/>
<polygon fill="#191970" stroke="#191970" points="1426.0102,-97.5082 1415.4153,-97.5217 1423.7061,-104.1182 1426.0102,-97.5082"/>
</g>
<!-- Node25&#45;&gt;Node5 -->
<g id="edge71" class="edge">
<title>Node25&#45;&gt;Node5</title>
<path fill="none" stroke="#191970" d="M2099.9224,-357.4357C2045.2185,-344.6986 1947.5038,-321.9472 1879.8401,-306.1926"/>
<polygon fill="#191970" stroke="#191970" points="1880.6169,-302.7799 1870.0837,-303.921 1879.0294,-309.5976 1880.6169,-302.7799"/>
</g>
<!-- Node25&#45;&gt;Node13 -->
<g id="edge67" class="edge">
<title>Node25&#45;&gt;Node13</title>
<path fill="none" stroke="#191970" d="M2168.7077,-357.4139C2181.9547,-353.2205 2198.1318,-348.6594 2213,-346 2437.5535,-305.8347 2505.5673,-372.3445 2725,-310 2730.5642,-308.4191 2736.2422,-306.0062 2741.5067,-303.3719"/>
<polygon fill="#191970" stroke="#191970" points="2743.3097,-306.3755 2750.4221,-298.5229 2739.9651,-300.2262 2743.3097,-306.3755"/>
</g>
<!-- Node26 -->
<g id="node27" class="node">
<title>Node26</title>
<g id="a_node27"><a xlink:href="Containers_8h.html" target="_top" xlink:title="Typedefs for useful container classes used in MCBooster. ">
<polygon fill="none" stroke="#000000" points="2116,-279.5 2116,-298.5 2214,-298.5 2214,-279.5 2116,-279.5"/>
<text text-anchor="middle" x="2165" y="-286.5" font-family="Helvetica,sans-Serif" font-size="10.00" fill="#000000">hydra/Containers.h</text>
</a>
</g>
</g>
<!-- Node25&#45;&gt;Node26 -->
<g id="edge37" class="edge">
<title>Node25&#45;&gt;Node26</title>
<path fill="none" stroke="#191970" d="M2143.9429,-357.4357C2147.6854,-345.2723 2154.2381,-323.9762 2159.0424,-308.3623"/>
<polygon fill="#191970" stroke="#191970" points="2162.4374,-309.2297 2162.0331,-298.6426 2155.7469,-307.171 2162.4374,-309.2297"/>
</g>
<!-- Node37 -->
<g id="node38" class="node">
<title>Node37</title>
<polygon fill="none" stroke="#bfbfbf" points="2364,-140 2364,-170 2468,-170 2468,-140 2364,-140"/>
<text text-anchor="start" x="2372" y="-158" font-family="Helvetica,sans-Serif" font-size="10.00" fill="#000000">hydra/detail/external</text>
<text text-anchor="middle" x="2416" y="-147" font-family="Helvetica,sans-Serif" font-size="10.00" fill="#000000">/thrust/complex.h</text>
</g>
<!-- Node25&#45;&gt;Node37 -->
<g id="edge69" class="edge">
<title>Node25&#45;&gt;Node37</title>
<path fill="none" stroke="#191970" d="M2132.8618,-357.2509C2118.9014,-339.2748 2093.1663,-299.8343 2107,-268 2121.5378,-234.5453 2134.5211,-228.6039 2167,-212 2240.8067,-174.2684 2269.7083,-196.5999 2350,-176 2353.758,-175.0358 2357.6172,-173.9811 2361.4923,-172.874"/>
<polygon fill="#191970" stroke="#191970" points="2362.5088,-176.2233 2371.1091,-170.0357 2360.5273,-169.5096 2362.5088,-176.2233"/>
</g>
<!-- Node25&#45;&gt;Node42 -->
<g id="edge68" class="edge">
<title>Node25&#45;&gt;Node42</title>
<path fill="none" stroke="#191970" d="M2169.0707,-357.4134C2182.2575,-353.2729 2198.2817,-348.7553 2213,-346 2395.4112,-311.8525 2446.9383,-345.9644 2629,-310 2641.3942,-307.5517 2654.7342,-303.6438 2666.2229,-299.8595"/>
<polygon fill="#191970" stroke="#191970" points="2667.4355,-303.144 2675.772,-296.6055 2665.1775,-296.5181 2667.4355,-303.144"/>
</g>
<!-- Node25&#45;&gt;Node43 -->
<g id="edge70" class="edge">
<title>Node25&#45;&gt;Node43</title>
<path fill="none" stroke="#191970" d="M2170.1709,-357.4024C2183.1667,-353.4103 2198.7315,-349.014 2213,-346 2331.4483,-320.9798 2364.5058,-334.8018 2483,-310 2487.7517,-309.0054 2492.6463,-307.8627 2497.5445,-306.6349"/>
<polygon fill="#191970" stroke="#191970" points="2498.7702,-309.9321 2507.5591,-304.0155 2496.9989,-303.1599 2498.7702,-309.9321"/>
</g>
<!-- Node44 -->
<g id="node45" class="node">
<title>Node44</title>
<polygon fill="none" stroke="#bfbfbf" points="2364,-268.5 2364,-309.5 2474,-309.5 2474,-268.5 2364,-268.5"/>
<text text-anchor="start" x="2372" y="-297.5" font-family="Helvetica,sans-Serif" font-size="10.00" fill="#000000">hydra/detail/external</text>
<text text-anchor="start" x="2372" y="-286.5" font-family="Helvetica,sans-Serif" font-size="10.00" fill="#000000">/thrust/iterator/iterator</text>
<text text-anchor="middle" x="2419" y="-275.5" font-family="Helvetica,sans-Serif" font-size="10.00" fill="#000000">_categories.h</text>
</g>
<!-- Node25&#45;&gt;Node44 -->
<g id="edge72" class="edge">
<title>Node25&#45;&gt;Node44</title>
<path fill="none" stroke="#191970" d="M2172.8307,-357.4522C2185.3265,-353.7732 2199.8091,-349.5945 2213,-346 2272.8726,-329.6846 2290.813,-328.2638 2354.2212,-310.1396"/>
<polygon fill="#191970" stroke="#191970" points="2355.2799,-313.4769 2363.9168,-307.3406 2353.3383,-306.7516 2355.2799,-313.4769"/>
</g>
<!-- Node45 -->
<g id="node46" class="node">
<title>Node45</title>
<polygon fill="none" stroke="#bfbfbf" points="2232.5,-268.5 2232.5,-309.5 2345.5,-309.5 2345.5,-268.5 2232.5,-268.5"/>
<text text-anchor="start" x="2240.5" y="-297.5" font-family="Helvetica,sans-Serif" font-size="10.00" fill="#000000">hydra/detail/external</text>
<text text-anchor="start" x="2240.5" y="-286.5" font-family="Helvetica,sans-Serif" font-size="10.00" fill="#000000">/thrust/iterator/detail</text>
<text text-anchor="middle" x="2289" y="-275.5" font-family="Helvetica,sans-Serif" font-size="10.00" fill="#000000">/is_iterator_category.h</text>
</g>
<!-- Node25&#45;&gt;Node45 -->
<g id="edge73" class="edge">
<title>Node25&#45;&gt;Node45</title>
<path fill="none" stroke="#191970" d="M2159.1477,-357.4357C2179.4159,-346.7538 2213.0486,-329.0284 2241.0068,-314.2937"/>
<polygon fill="#191970" stroke="#191970" points="2242.6458,-317.3863 2249.8606,-309.6275 2239.3821,-311.1937 2242.6458,-317.3863"/>
</g>
<!-- Node26&#45;&gt;Node1 -->
<g id="edge40" class="edge">
<title>Node26&#45;&gt;Node1</title>
<path fill="none" stroke="#191970" d="M2115.9158,-281.7485C2052.8593,-272.0921 1940.1851,-253.685 1845,-232 1754.5811,-211.4008 1732.2485,-204.4976 1644,-176 1592.6168,-159.4071 1581.115,-151.4015 1530,-134 1494.7877,-122.0124 1454.4412,-109.471 1424.9359,-100.5168"/>
<polygon fill="#191970" stroke="#191970" points="1425.5629,-97.0499 1414.9779,-97.5059 1423.537,-103.7503 1425.5629,-97.0499"/>
</g>
<!-- Node26&#45;&gt;Node6 -->
<g id="edge41" class="edge">
<title>Node26&#45;&gt;Node6</title>
<path fill="none" stroke="#191970" d="M2191.7648,-279.4192C2267.1591,-252.4167 2475.9158,-177.5458 2477,-176 2487.7189,-160.7176 2488.2287,-148.9118 2477,-134 2463.6285,-116.2425 2408.5624,-103.2173 2366.7333,-95.6483"/>
<polygon fill="#191970" stroke="#191970" points="2367.1415,-92.1666 2356.6874,-93.8878 2365.9331,-99.0615 2367.1415,-92.1666"/>
</g>
<!-- Node26&#45;&gt;Node11 -->
<g id="edge39" class="edge">
<title>Node26&#45;&gt;Node11</title>
<path fill="none" stroke="#191970" d="M2186.9818,-279.4603C2197.9001,-275.168 2211.4184,-270.5102 2224,-268 2526.4545,-207.6569 2609.0919,-249.6797 2917,-232 2962.2026,-229.4045 3014.6101,-226.0394 3046.525,-223.9503"/>
<polygon fill="#191970" stroke="#191970" points="3047.1646,-227.4159 3056.9137,-223.2679 3046.7057,-220.431 3047.1646,-227.4159"/>
</g>
<!-- Node27 -->
<g id="node28" class="node">
<title>Node27</title>
<polygon fill="none" stroke="#bfbfbf" points="2193,-212.5 2193,-231.5 2237,-231.5 2237,-212.5 2193,-212.5"/>
<text text-anchor="middle" x="2215" y="-219.5" font-family="Helvetica,sans-Serif" font-size="10.00" fill="#000000">vector</text>
</g>
<!-- Node26&#45;&gt;Node27 -->
<g id="edge38" class="edge">
<title>Node26&#45;&gt;Node27</title>
<path fill="none" stroke="#191970" d="M2172.1638,-279.4005C2179.8866,-269.052 2192.3476,-252.3542 2201.8437,-239.6295"/>
<polygon fill="#191970" stroke="#191970" points="2204.6736,-241.6893 2207.8495,-231.5817 2199.0636,-237.5027 2204.6736,-241.6893"/>
</g>
<!-- Node28 -->
<g id="node29" class="node">
<title>Node28</title>
<g id="a_node29"><a xlink:href="Vector3R_8h.html" target="_top" xlink:title="hydra/Vector3R.h">
<polygon fill="none" stroke="#000000" points="2939,-145.5 2939,-164.5 3031,-164.5 3031,-145.5 2939,-145.5"/>
<text text-anchor="middle" x="2985" y="-152.5" font-family="Helvetica,sans-Serif" font-size="10.00" fill="#000000">hydra/Vector3R.h</text>
</a>
</g>
</g>
<!-- Node26&#45;&gt;Node28 -->
<g id="edge42" class="edge">
<title>Node26&#45;&gt;Node28</title>
<path fill="none" stroke="#191970" d="M2187.2688,-279.3954C2198.1401,-275.1436 2211.5351,-270.539 2224,-268 2485.7711,-214.6804 2565.3593,-298.8736 2824,-232 2875.9232,-218.5748 2931.2362,-188.102 2961.6169,-169.7725"/>
<polygon fill="#191970" stroke="#191970" points="2963.5147,-172.7145 2970.2136,-164.5063 2959.8581,-166.7455 2963.5147,-172.7145"/>
</g>
<!-- Node35 -->
<g id="node36" class="node">
<title>Node35</title>
<g id="a_node36"><a xlink:href="Vector4R_8h.html" target="_top" xlink:title="hydra/Vector4R.h">
<polygon fill="none" stroke="#000000" points="2723,-212.5 2723,-231.5 2815,-231.5 2815,-212.5 2723,-212.5"/>
<text text-anchor="middle" x="2769" y="-219.5" font-family="Helvetica,sans-Serif" font-size="10.00" fill="#000000">hydra/Vector4R.h</text>
</a>
</g>
</g>
<!-- Node26&#45;&gt;Node35 -->
<g id="edge52" class="edge">
<title>Node26&#45;&gt;Node35</title>
<path fill="none" stroke="#191970" d="M2187.5764,-279.4207C2198.4034,-275.2289 2211.6731,-270.6671 2224,-268 2316.0951,-248.0742 2592.9526,-231.3966 2712.745,-224.9066"/>
<polygon fill="#191970" stroke="#191970" points="2713.013,-228.3974 2722.8106,-224.3653 2712.637,-221.4075 2713.013,-228.3974"/>
</g>
<!-- Node26&#45;&gt;Node37 -->
<g id="edge60" class="edge">
<title>Node26&#45;&gt;Node37</title>
<path fill="none" stroke="#191970" d="M2164.3806,-279.4067C2163.8923,-263.1117 2165.4383,-230.0426 2184,-212 2238.133,-159.3808 2277.0602,-195.4666 2350,-176 2353.5797,-175.0446 2357.2538,-174.015 2360.9478,-172.9429"/>
<polygon fill="#191970" stroke="#191970" points="2362.1389,-176.24 2370.721,-170.0273 2360.1377,-169.5322 2362.1389,-176.24"/>
</g>
<!-- Node38 -->
<g id="node39" class="node">
<title>Node38</title>
<g id="a_node39"><a xlink:href="Containers_8inl.html" target="_top" xlink:title="hydra/detail/Containers.inl">
<polygon fill="none" stroke="#000000" points="1854.5,-212.5 1854.5,-231.5 1983.5,-231.5 1983.5,-212.5 1854.5,-212.5"/>
<text text-anchor="middle" x="1919" y="-219.5" font-family="Helvetica,sans-Serif" font-size="10.00" fill="#000000">hydra/detail/Containers.inl</text>
</a>
</g>
</g>
<!-- Node26&#45;&gt;Node38 -->
<g id="edge61" class="edge">
<title>Node26&#45;&gt;Node38</title>
<path fill="none" stroke="#191970" d="M2130.0154,-279.4717C2086.4237,-267.5991 2011.8591,-247.2909 1964.0396,-234.2669"/>
<polygon fill="#191970" stroke="#191970" points="1964.8305,-230.8549 1954.2622,-231.6039 1962.9909,-237.6088 1964.8305,-230.8549"/>
</g>
<!-- Node28&#45;&gt;Node1 -->
<g id="edge43" class="edge">
<title>Node28&#45;&gt;Node1</title>
<path fill="none" stroke="#191970" d="M2938.8498,-148.1078C2904.9421,-143.3266 2857.709,-137.254 2816,-134 2543.9674,-112.7772 1686.8627,-94.1671 1446.3266,-89.2602"/>
<polygon fill="#191970" stroke="#191970" points="1446.0809,-85.7546 1436.0118,-89.0505 1445.9385,-92.7531 1446.0809,-85.7546"/>
</g>
<!-- Node28&#45;&gt;Node6 -->
<g id="edge44" class="edge">
<title>Node28&#45;&gt;Node6</title>
<path fill="none" stroke="#191970" d="M2946.1082,-145.4445C2928.2059,-141.3617 2906.6257,-136.8821 2887,-134 2695.8386,-105.9275 2465.9107,-93.9527 2366.6321,-89.824"/>
<polygon fill="#191970" stroke="#191970" points="2366.7245,-86.325 2356.5903,-89.4148 2366.4394,-93.3192 2366.7245,-86.325"/>
</g>
<!-- Node28&#45;&gt;Node10 -->
<g id="edge46" class="edge">
<title>Node28&#45;&gt;Node10</title>
<path fill="none" stroke="#191970" d="M3011.49,-145.4198C3021.8984,-141.7367 3033.9735,-137.5636 3045,-134 3085.249,-120.9923 3131.8205,-107.3595 3163.3251,-98.3446"/>
<polygon fill="#191970" stroke="#191970" points="3164.3405,-101.6947 3172.9974,-95.5866 3162.4209,-94.963 3164.3405,-101.6947"/>
</g>
<!-- Node29 -->
<g id="node30" class="node">
<title>Node29</title>
<polygon fill="none" stroke="#bfbfbf" points="2969,-78.5 2969,-97.5 3013,-97.5 3013,-78.5 2969,-78.5"/>
<text text-anchor="middle" x="2991" y="-85.5" font-family="Helvetica,sans-Serif" font-size="10.00" fill="#000000">iosfwd</text>
</g>
<!-- Node28&#45;&gt;Node29 -->
<g id="edge45" class="edge">
<title>Node28&#45;&gt;Node29</title>
<path fill="none" stroke="#191970" d="M2985.8597,-145.4005C2986.7329,-135.649 2988.1111,-120.2597 2989.2206,-107.8695"/>
<polygon fill="#191970" stroke="#191970" points="2992.7359,-107.854 2990.1419,-97.5817 2985.7639,-107.2296 2992.7359,-107.854"/>
</g>
<!-- Node30 -->
<g id="node31" class="node">
<title>Node30</title>
<polygon fill="none" stroke="#bfbfbf" points="2790.5,-78.5 2790.5,-97.5 2837.5,-97.5 2837.5,-78.5 2790.5,-78.5"/>
<text text-anchor="middle" x="2814" y="-85.5" font-family="Helvetica,sans-Serif" font-size="10.00" fill="#000000">math.h</text>
</g>
<!-- Node28&#45;&gt;Node30 -->
<g id="edge47" class="edge">
<title>Node28&#45;&gt;Node30</title>
<path fill="none" stroke="#191970" d="M2960.4999,-145.4005C2930.7893,-133.7595 2880.5735,-114.0843 2847.3524,-101.0679"/>
<polygon fill="#191970" stroke="#191970" points="2848.2172,-97.6477 2837.6295,-97.2583 2845.6635,-104.1653 2848.2172,-97.6477"/>
</g>
<!-- Node31 -->
<g id="node32" class="node">
<title>Node31</title>
<g id="a_node32"><a xlink:href="Collection_8h.html" target="_top" xlink:title="hydra/Collection.h">
<polygon fill="none" stroke="#000000" points="2855.5,-78.5 2855.5,-97.5 2950.5,-97.5 2950.5,-78.5 2855.5,-78.5"/>
<text text-anchor="middle" x="2903" y="-85.5" font-family="Helvetica,sans-Serif" font-size="10.00" fill="#000000">hydra/Collection.h</text>
</a>
</g>
</g>
<!-- Node28&#45;&gt;Node31 -->
<g id="edge48" class="edge">
<title>Node28&#45;&gt;Node31</title>
<path fill="none" stroke="#191970" d="M2973.2514,-145.4005C2960.0989,-134.6539 2938.5664,-117.0603 2922.8017,-104.1794"/>
<polygon fill="#191970" stroke="#191970" points="2924.6852,-101.1986 2914.7268,-97.5817 2920.2561,-106.6193 2924.6852,-101.1986"/>
</g>
<!-- Node34 -->
<g id="node35" class="node">
<title>Node34</title>
<g id="a_node35"><a xlink:href="Vector3R_8inl.html" target="_top" xlink:title="hydra/detail/Vector3R.inl">
<polygon fill="none" stroke="#000000" points="3031.5,-78.5 3031.5,-97.5 3154.5,-97.5 3154.5,-78.5 3031.5,-78.5"/>
<text text-anchor="middle" x="3093" y="-85.5" font-family="Helvetica,sans-Serif" font-size="10.00" fill="#000000">hydra/detail/Vector3R.inl</text>
</a>
</g>
</g>
<!-- Node28&#45;&gt;Node34 -->
<g id="edge51" class="edge">
<title>Node28&#45;&gt;Node34</title>
<path fill="none" stroke="#191970" d="M3000.4738,-145.4005C3018.358,-134.3057 3048.0062,-115.9128 3068.9138,-102.9424"/>
<polygon fill="#191970" stroke="#191970" points="3070.9024,-105.8275 3077.5549,-97.5817 3067.2122,-99.8792 3070.9024,-105.8275"/>
</g>
<!-- Node31&#45;&gt;Node32 -->
<g id="edge49" class="edge">
<title>Node31&#45;&gt;Node32</title>
<path fill="none" stroke="#191970" d="M2950.5699,-79.558C2953.7597,-79.0217 2956.9255,-78.4978 2960,-78 3073.1048,-59.6873 3205.3326,-40.5597 3281.4059,-29.7755"/>
<polygon fill="#191970" stroke="#191970" points="3282.3488,-33.177 3291.7596,-28.3101 3281.3678,-26.2461 3282.3488,-33.177"/>
</g>
<!-- Node31&#45;&gt;Node33 -->
<g id="edge50" class="edge">
<title>Node31&#45;&gt;Node33</title>
<path fill="none" stroke="#191970" d="M2855.4026,-79.0665C2852.5649,-78.6689 2849.748,-78.3083 2847,-78 2626.7769,-53.2901 1952.0899,-30.8724 1713.5988,-23.5252"/>
<polygon fill="#191970" stroke="#191970" points="1713.6975,-20.0267 1703.5947,-23.218 1713.4825,-27.0234 1713.6975,-20.0267"/>
</g>
<!-- Node35&#45;&gt;Node1 -->
<g id="edge55" class="edge">
<title>Node35&#45;&gt;Node1</title>
<path fill="none" stroke="#191970" d="M2739.0231,-212.4998C2669.9274,-190.6697 2503.3644,-138.4542 2477,-134 2276.7555,-100.169 1648.7117,-90.767 1446.4445,-88.5824"/>
<polygon fill="#191970" stroke="#191970" points="1446.3212,-85.081 1436.2847,-88.4749 1446.2471,-92.0806 1446.3212,-85.081"/>
</g>
<!-- Node35&#45;&gt;Node6 -->
<g id="edge56" class="edge">
<title>Node35&#45;&gt;Node6</title>
<path fill="none" stroke="#191970" d="M2744.3054,-212.3884C2724.654,-204.1708 2696.9122,-191.27 2675,-176 2652.8199,-160.5433 2655.2982,-145.8516 2631,-134 2585.4788,-111.7968 2443.3889,-97.7595 2366.9152,-91.6109"/>
<polygon fill="#191970" stroke="#191970" points="2366.821,-88.0927 2356.5768,-90.7956 2366.2706,-95.071 2366.821,-88.0927"/>
</g>
<!-- Node35&#45;&gt;Node10 -->
<g id="edge54" class="edge">
<title>Node35&#45;&gt;Node10</title>
<path fill="none" stroke="#191970" d="M2815.2411,-217.5139C2881.9775,-210.4756 3001.5123,-195.5934 3040,-176 3063.8073,-163.8801 3060.5683,-148.5086 3083,-134 3107.6953,-118.0273 3138.8093,-106.1248 3162.7427,-98.433"/>
<polygon fill="#191970" stroke="#191970" points="3164.0095,-101.7045 3172.5206,-95.3947 3161.9324,-95.0198 3164.0095,-101.7045"/>
</g>
<!-- Node35&#45;&gt;Node28 -->
<g id="edge57" class="edge">
<title>Node35&#45;&gt;Node28</title>
<path fill="none" stroke="#191970" d="M2803.234,-212.4372C2834.9415,-203.4544 2883.3429,-189.4225 2925,-176 2932.7552,-173.5012 2941.0275,-170.697 2948.8737,-167.9716"/>
<polygon fill="#191970" stroke="#191970" points="2950.2355,-171.203 2958.5133,-164.5902 2947.9184,-164.5976 2950.2355,-171.203"/>
</g>
<!-- Node35&#45;&gt;Node30 -->
<g id="edge53" class="edge">
<title>Node35&#45;&gt;Node30</title>
<path fill="none" stroke="#191970" d="M2783.9965,-212.3308C2795.1598,-204.1671 2809.5381,-191.3661 2816,-176 2825.2662,-153.9651 2822.462,-126.0032 2818.8784,-107.584"/>
<polygon fill="#191970" stroke="#191970" points="2822.2755,-106.7354 2816.7057,-97.7227 2815.4395,-108.2416 2822.2755,-106.7354"/>
</g>
<!-- Node35&#45;&gt;Node31 -->
<g id="edge58" class="edge">
<title>Node35&#45;&gt;Node31</title>
<path fill="none" stroke="#191970" d="M2784.6485,-212.4949C2798.2004,-203.8713 2817.9389,-190.344 2833,-176 2855.8563,-154.232 2877.7638,-124.8581 2890.8039,-106.1687"/>
<polygon fill="#191970" stroke="#191970" points="2893.8435,-107.9249 2896.6157,-97.6992 2888.0717,-103.9643 2893.8435,-107.9249"/>
</g>
<!-- Node36 -->
<g id="node37" class="node">
<title>Node36</title>
<g id="a_node37"><a xlink:href="Vector4R_8inl.html" target="_top" xlink:title="hydra/detail/Vector4R.inl">
<polygon fill="none" stroke="#000000" points="2683.5,-145.5 2683.5,-164.5 2806.5,-164.5 2806.5,-145.5 2683.5,-145.5"/>
<text text-anchor="middle" x="2745" y="-152.5" font-family="Helvetica,sans-Serif" font-size="10.00" fill="#000000">hydra/detail/Vector4R.inl</text>
</a>
</g>
</g>
<!-- Node35&#45;&gt;Node36 -->
<g id="edge59" class="edge">
<title>Node35&#45;&gt;Node36</title>
<path fill="none" stroke="#191970" d="M2765.5614,-212.4005C2761.997,-202.45 2756.3299,-186.6292 2751.8471,-174.1147"/>
<polygon fill="#191970" stroke="#191970" points="2755.0995,-172.8156 2748.4322,-164.5817 2748.5096,-175.1762 2755.0995,-172.8156"/>
</g>
<!-- Node38&#45;&gt;Node1 -->
<g id="edge62" class="edge">
<title>Node38&#45;&gt;Node1</title>
<path fill="none" stroke="#191970" d="M1893.1738,-212.4386C1844.8449,-194.8384 1737.196,-157.012 1644,-134 1577.2761,-117.5245 1499.5577,-104.6144 1446.3919,-96.7182"/>
<polygon fill="#191970" stroke="#191970" points="1446.8305,-93.2452 1436.4279,-95.2544 1445.8129,-100.1708 1446.8305,-93.2452"/>
</g>
<!-- Node38&#45;&gt;Node37 -->
<g id="edge65" class="edge">
<title>Node38&#45;&gt;Node37</title>
<path fill="none" stroke="#191970" d="M1983.7728,-214.2183C2055.893,-205.4388 2175.8919,-190.4876 2279,-176 2303.3893,-172.5731 2330.1761,-168.5295 2353.5445,-164.9102"/>
<polygon fill="#191970" stroke="#191970" points="2354.3321,-168.3299 2363.6754,-163.3346 2353.2563,-161.413 2354.3321,-168.3299"/>
</g>
<!-- Node39 -->
<g id="node40" class="node">
<title>Node39</title>
<polygon fill="none" stroke="#bfbfbf" points="1848,-140 1848,-170 1964,-170 1964,-140 1848,-140"/>
<text text-anchor="start" x="1856" y="-158" font-family="Helvetica,sans-Serif" font-size="10.00" fill="#000000">hydra/detail/external</text>
<text text-anchor="middle" x="1906" y="-147" font-family="Helvetica,sans-Serif" font-size="10.00" fill="#000000">/thrust/device_vector.h</text>
</g>
<!-- Node38&#45;&gt;Node39 -->
<g id="edge63" class="edge">
<title>Node38&#45;&gt;Node39</title>
<path fill="none" stroke="#191970" d="M1917.1374,-212.4005C1915.4926,-203.9234 1913.0211,-191.1856 1910.8239,-179.8614"/>
<polygon fill="#191970" stroke="#191970" points="1914.2554,-179.172 1908.9147,-170.0218 1907.3836,-180.5054 1914.2554,-179.172"/>
</g>
<!-- Node40 -->
<g id="node41" class="node">
<title>Node40</title>
<polygon fill="none" stroke="#bfbfbf" points="1982.5,-140 1982.5,-170 2089.5,-170 2089.5,-140 1982.5,-140"/>
<text text-anchor="start" x="1990.5" y="-158" font-family="Helvetica,sans-Serif" font-size="10.00" fill="#000000">hydra/detail/external</text>
<text text-anchor="middle" x="2036" y="-147" font-family="Helvetica,sans-Serif" font-size="10.00" fill="#000000">/thrust/host_vector.h</text>
</g>
<!-- Node38&#45;&gt;Node40 -->
<g id="edge64" class="edge">
<title>Node38&#45;&gt;Node40</title>
<path fill="none" stroke="#191970" d="M1935.7632,-212.4005C1952.6815,-202.7123 1979.3173,-187.4593 2000.8803,-175.1113"/>
<polygon fill="#191970" stroke="#191970" points="2002.8294,-178.0284 2009.768,-170.0218 1999.3508,-171.9539 2002.8294,-178.0284"/>
</g>
<!-- Node41 -->
<g id="node42" class="node">
<title>Node41</title>
<polygon fill="none" stroke="#bfbfbf" points="2108,-134.5 2108,-175.5 2270,-175.5 2270,-134.5 2108,-134.5"/>
<text text-anchor="start" x="2116" y="-163.5" font-family="Helvetica,sans-Serif" font-size="10.00" fill="#000000">hydra/detail/external</text>
<text text-anchor="start" x="2116" y="-152.5" font-family="Helvetica,sans-Serif" font-size="10.00" fill="#000000">/thrust/system/cuda/experimental</text>
<text text-anchor="middle" x="2189" y="-141.5" font-family="Helvetica,sans-Serif" font-size="10.00" fill="#000000">/pinned_allocator.h</text>
</g>
<!-- Node38&#45;&gt;Node41 -->
<g id="edge66" class="edge">
<title>Node38&#45;&gt;Node41</title>
<path fill="none" stroke="#191970" d="M1957.3977,-212.4717C1993.901,-203.4135 2050.1927,-189.4448 2098.1382,-177.5472"/>
<polygon fill="#191970" stroke="#191970" points="2099.057,-180.9254 2107.9196,-175.1199 2097.371,-174.1315 2099.057,-180.9254"/>
</g>
<!-- Node47&#45;&gt;Node1 -->
<g id="edge77" class="edge">
<title>Node47&#45;&gt;Node1</title>
<path fill="none" stroke="#191970" d="M2186.2317,-515.0172C2133.062,-505.4553 2043.9234,-487.9443 1969,-466 1957.1063,-462.5165 1771.2741,-393.147 1760,-388 1597.3168,-313.7301 1530.2214,-315.2414 1418,-176 1401.6129,-155.6674 1392.0873,-126.6911 1387.217,-107.6231"/>
<polygon fill="#191970" stroke="#191970" points="1390.5741,-106.61 1384.8706,-97.6813 1383.7613,-108.2179 1390.5741,-106.61"/>
</g>
<!-- Node47&#45;&gt;Node6 -->
<g id="edge78" class="edge">
<title>Node47&#45;&gt;Node6</title>
<path fill="none" stroke="#191970" d="M2216.2016,-507.8209C2194.1044,-488.0218 2153.8669,-452.5445 2118,-424 2096.8554,-407.1722 2081.2044,-412.1107 2069,-388 2060.5697,-371.3454 2065.4903,-364.3337 2069,-346 2081.2351,-282.0878 2076.3289,-251.5546 2128,-212 2192.0901,-162.9386 2251.1132,-235.1777 2306,-176 2322.8831,-157.797 2322.8617,-127.6113 2320.5331,-107.7604"/>
<polygon fill="#191970" stroke="#191970" points="2323.9693,-107.0699 2319.0505,-97.6861 2317.0439,-108.0892 2323.9693,-107.0699"/>
</g>
<!-- Node47&#45;&gt;Node11 -->
<g id="edge91" class="edge">
<title>Node47&#45;&gt;Node11</title>
<path fill="none" stroke="#191970" d="M2279.6281,-517.7809C2321.7526,-513.1878 2385.4732,-506.5426 2441,-502 2568.3806,-491.579 2897.8638,-517.1228 3015,-466 3020.7625,-463.485 3094.5215,-393.7782 3097,-388 3118.2965,-338.3501 3097.5674,-273.2304 3084.6341,-241.3209"/>
<polygon fill="#191970" stroke="#191970" points="3087.7424,-239.6854 3080.6188,-231.8429 3081.297,-242.416 3087.7424,-239.6854"/>
</g>
<!-- Node47&#45;&gt;Node13 -->
<g id="edge90" class="edge">
<title>Node47&#45;&gt;Node13</title>
<path fill="none" stroke="#191970" d="M2242.5423,-507.9312C2266.6137,-471.5331 2333.923,-379.3693 2418,-346 2545.69,-295.3211 2593.7601,-350.61 2725,-310 2730.4323,-308.3191 2735.9958,-305.9059 2741.1806,-303.3102"/>
<polygon fill="#191970" stroke="#191970" points="2742.8523,-306.3852 2749.994,-298.5592 2739.5307,-300.2235 2742.8523,-306.3852"/>
</g>
<!-- Node47&#45;&gt;Node24 -->
<g id="edge86" class="edge">
<title>Node47&#45;&gt;Node24</title>
<path fill="none" stroke="#191970" d="M2193.2811,-507.9608C2155.2358,-493.5553 2098.3838,-472.0288 2061.9984,-458.2518"/>
<polygon fill="#191970" stroke="#191970" points="2062.9027,-454.8518 2052.3112,-454.5839 2060.4239,-461.3982 2062.9027,-454.8518"/>
</g>
<!-- Node47&#45;&gt;Node25 -->
<g id="edge82" class="edge">
<title>Node47&#45;&gt;Node25</title>
<path fill="none" stroke="#191970" d="M2224.0111,-507.758C2207.0389,-478.979 2170.3335,-416.7394 2151.9526,-385.5718"/>
<polygon fill="#191970" stroke="#191970" points="2154.7716,-383.4618 2146.6769,-376.6261 2148.742,-387.0177 2154.7716,-383.4618"/>
</g>
<!-- Node47&#45;&gt;Node32 -->
<g id="edge87" class="edge">
<title>Node47&#45;&gt;Node32</title>
<path fill="none" stroke="#191970" d="M2279.624,-517.7304C2321.7458,-513.1037 2385.4647,-506.4376 2441,-502 2508.7906,-496.5832 2990.8384,-495.7349 3052,-466 3182.2539,-402.6745 3268,-366.8316 3268,-222 3268,-222 3268,-222 3268,-155 3268,-111.3187 3298.9339,-68.8321 3321.331,-43.7952"/>
<polygon fill="#191970" stroke="#191970" points="3324.0395,-46.0211 3328.2528,-36.3 3318.897,-41.2719 3324.0395,-46.0211"/>
</g>
<!-- Node47&#45;&gt;Node33 -->
<g id="edge89" class="edge">
<title>Node47&#45;&gt;Node33</title>
<path fill="none" stroke="#191970" d="M2192.4693,-507.9859C2169.2385,-498.1898 2140.3507,-483.8981 2118,-466 2099.2535,-450.9881 2101.0139,-440.9504 2084,-424 1987.4743,-327.8349 1946.9643,-322.3782 1845,-232 1774.2759,-169.3122 1696.0431,-90.2768 1655.9506,-49.0063"/>
<polygon fill="#191970" stroke="#191970" points="1658.3921,-46.4964 1648.9188,-41.7522 1653.3659,-51.3685 1658.3921,-46.4964"/>
</g>
<!-- Node47&#45;&gt;Node43 -->
<g id="edge88" class="edge">
<title>Node47&#45;&gt;Node43</title>
<path fill="none" stroke="#191970" d="M2231.4219,-507.8154C2229.9753,-487.7024 2229.644,-451.559 2242,-424 2244.4281,-418.5843 2309.8341,-348.9222 2315,-346 2381.4647,-308.4028 2408.9298,-328.5665 2483,-310 2487.1014,-308.9719 2491.3205,-307.872 2495.5635,-306.7343"/>
<polygon fill="#191970" stroke="#191970" points="2496.7406,-310.041 2505.4632,-304.0272 2494.8941,-303.2889 2496.7406,-310.041"/>
</g>
<!-- Node48 -->
<g id="node49" class="node">
<title>Node48</title>
<g id="a_node49"><a xlink:href="Generic_8h.html" target="_top" xlink:title="hydra/detail/utility\l/Generic.h">
<polygon fill="none" stroke="#000000" points="2994.5,-352 2994.5,-382 3087.5,-382 3087.5,-352 2994.5,-352"/>
<text text-anchor="start" x="3002.5" y="-370" font-family="Helvetica,sans-Serif" font-size="10.00" fill="#000000">hydra/detail/utility</text>
<text text-anchor="middle" x="3041" y="-359" font-family="Helvetica,sans-Serif" font-size="10.00" fill="#000000">/Generic.h</text>
</a>
</g>
</g>
<!-- Node47&#45;&gt;Node48 -->
<g id="edge79" class="edge">
<title>Node47&#45;&gt;Node48</title>
<path fill="none" stroke="#191970" d="M2279.6321,-517.8302C2321.7594,-513.2698 2385.4816,-506.645 2441,-502 2501.1448,-496.9679 2931.6593,-497.7308 2983,-466 3009.8642,-449.3968 3025.6991,-415.3892 3033.8625,-391.9018"/>
<polygon fill="#191970" stroke="#191970" points="3037.2349,-392.8484 3036.9934,-382.2563 3030.5769,-390.6871 3037.2349,-392.8484"/>
</g>
<!-- Node47&#45;&gt;Node49 -->
<g id="edge83" class="edge">
<title>Node47&#45;&gt;Node49</title>
<path fill="none" stroke="#191970" d="M2263.2712,-507.9608C2291.6473,-493.8631 2333.7508,-472.9455 2361.5278,-459.1454"/>
<polygon fill="#191970" stroke="#191970" points="2363.311,-462.1677 2370.7094,-454.5839 2360.1965,-455.8987 2363.311,-462.1677"/>
</g>
<!-- Node48&#45;&gt;Node11 -->
<g id="edge81" class="edge">
<title>Node48&#45;&gt;Node11</title>
<path fill="none" stroke="#191970" d="M3044.6795,-351.7565C3051.0602,-325.322 3064.1711,-271.0053 3071.2373,-241.7311"/>
<polygon fill="#191970" stroke="#191970" points="3074.6787,-242.3901 3073.6229,-231.848 3067.8741,-240.7476 3074.6787,-242.3901"/>
</g>
<!-- Node48&#45;&gt;Node13 -->
<g id="edge80" class="edge">
<title>Node48&#45;&gt;Node13</title>
<path fill="none" stroke="#191970" d="M3002.3226,-351.8932C2996.5498,-349.8143 2990.6433,-347.7837 2985,-346 2923.3974,-326.5286 2850.5928,-308.646 2806.1197,-298.286"/>
<polygon fill="#191970" stroke="#191970" points="2806.7931,-294.8494 2796.2614,-296.0047 2805.2149,-301.6692 2806.7931,-294.8494"/>
</g>
<!-- Node49&#45;&gt;Node6 -->
<g id="edge85" class="edge">
<title>Node49&#45;&gt;Node6</title>
<path fill="none" stroke="#191970" d="M2389.7134,-435.3885C2389.6844,-415.4443 2392.6571,-369.4709 2419,-346 2489.7024,-283.0057 2567.9591,-382.3955 2629,-310 2641.0327,-295.7291 2636.1434,-285.2458 2629,-268 2596.7688,-190.1869 2568.1271,-175.7869 2495,-134 2455.2303,-111.2744 2404.1126,-99.5724 2366.8673,-93.6762"/>
<polygon fill="#191970" stroke="#191970" points="2367.1588,-90.181 2356.751,-92.1628 2366.1231,-97.1039 2367.1588,-90.181"/>
</g>
<!-- Node49&#45;&gt;Node13 -->
<g id="edge84" class="edge">
<title>Node49&#45;&gt;Node13</title>
<path fill="none" stroke="#191970" d="M2394.3188,-435.3804C2404.0258,-415.0002 2429.676,-367.5788 2467,-346 2567.2317,-288.0513 2614.778,-345.434 2725,-310 2730.1872,-308.3324 2735.5047,-306.0235 2740.4997,-303.5441"/>
<polygon fill="#191970" stroke="#191970" points="2742.4169,-306.4881 2749.589,-298.6899 2739.1193,-300.3135 2742.4169,-306.4881"/>
</g>
<!-- Node50&#45;&gt;Node1 -->
<g id="edge94" class="edge">
<title>Node50&#45;&gt;Node1</title>
<path fill="none" stroke="#191970" d="M1626.8002,-582.0727C1563.9457,-573.6206 1473.0947,-559.36 1441,-544 1380.1664,-514.8861 1326,-512.4414 1326,-445 1326,-445 1326,-445 1326,-222 1326,-177.6138 1352.81,-131.0826 1369.6563,-106.2256"/>
<polygon fill="#191970" stroke="#191970" points="1372.6801,-108.0091 1375.5482,-97.8099 1366.9458,-103.9944 1372.6801,-108.0091"/>
</g>
<!-- Node50&#45;&gt;Node6 -->
<g id="edge95" class="edge">
<title>Node50&#45;&gt;Node6</title>
<path fill="none" stroke="#191970" d="M1689.9263,-580.3013C1688.5118,-562.3035 1688.2736,-523.6069 1709,-502 1754.966,-454.0812 1813.0936,-518.3044 1854,-466 1907.0231,-398.2028 1767.9554,-390.959 1733,-310 1698.4115,-229.8909 1745.3216,-179.1327 1820,-134 1857.6593,-111.2403 2148.4399,-95.6384 2266.9626,-90.164"/>
<polygon fill="#191970" stroke="#191970" points="2267.3816,-93.6486 2277.2116,-89.6961 2267.0623,-86.6559 2267.3816,-93.6486"/>
</g>
<!-- Node50&#45;&gt;Node8 -->
<g id="edge96" class="edge">
<title>Node50&#45;&gt;Node8</title>
<path fill="none" stroke="#191970" d="M1755.1994,-585.546C1864.7464,-577.8373 2094.782,-561.1786 2289,-544 2339.9136,-539.4967 2397.6957,-533.6657 2439.743,-529.2911"/>
<polygon fill="#191970" stroke="#191970" points="2440.2275,-532.7596 2449.8101,-528.2402 2439.5008,-525.7974 2440.2275,-532.7596"/>
</g>
<!-- Node50&#45;&gt;Node18 -->
<g id="edge97" class="edge">
<title>Node50&#45;&gt;Node18</title>
<path fill="none" stroke="#191970" d="M1660.7687,-580.4299C1632.5212,-571.3851 1589.2353,-557.2622 1552,-544 1545.2074,-541.5807 1537.9818,-538.9 1531.0777,-536.2857"/>
<polygon fill="#191970" stroke="#191970" points="1531.8707,-532.842 1521.2802,-532.5412 1529.3717,-539.3807 1531.8707,-532.842"/>
</g>
<!-- Node50&#45;&gt;Node24 -->
<g id="edge98" class="edge">
<title>Node50&#45;&gt;Node24</title>
<path fill="none" stroke="#191970" d="M1694.3847,-580.2323C1701.3197,-561.7628 1718.9807,-521.801 1748,-502 1766.0268,-489.6996 1891.9162,-467.2504 1968.2989,-454.504"/>
<polygon fill="#191970" stroke="#191970" points="1968.982,-457.9386 1978.2736,-452.8477 1967.8353,-451.0332 1968.982,-457.9386"/>
</g>
<!-- Node50&#45;&gt;Node47 -->
<g id="edge99" class="edge">
<title>Node50&#45;&gt;Node47</title>
<path fill="none" stroke="#191970" d="M1755.0353,-582.0842C1861.8739,-568.8772 2074.7677,-542.5601 2176.4244,-529.9937"/>
<polygon fill="#191970" stroke="#191970" points="2177.0007,-533.4492 2186.4957,-528.7487 2176.1419,-526.502 2177.0007,-533.4492"/>
</g>
<!-- Node51 -->
<g id="node52" class="node">
<title>Node51</title>
<g id="a_node52"><a xlink:href="Hash_8h.html" target="_top" xlink:title="hydra/detail/Hash.h">
<polygon fill="none" stroke="#000000" points="1561.5,-513.5 1561.5,-532.5 1662.5,-532.5 1662.5,-513.5 1561.5,-513.5"/>
<text text-anchor="middle" x="1612" y="-520.5" font-family="Helvetica,sans-Serif" font-size="10.00" fill="#000000">hydra/detail/Hash.h</text>
</a>
</g>
</g>
<!-- Node50&#45;&gt;Node51 -->
<g id="edge100" class="edge">
<title>Node50&#45;&gt;Node51</title>
<path fill="none" stroke="#191970" d="M1679.6812,-580.4005C1667.0099,-569.6539 1646.2652,-552.0603 1631.0773,-539.1794"/>
<polygon fill="#191970" stroke="#191970" points="1633.1882,-536.3805 1623.2978,-532.5817 1628.6605,-541.7191 1633.1882,-536.3805"/>
</g>
<!-- Node50&#45;&gt;Node53 -->
<g id="edge102" class="edge">
<title>Node50&#45;&gt;Node53</title>
<path fill="none" stroke="#191970" d="M1626.9129,-587.5623C1466.9149,-581.2167 1058.5471,-563.3308 1000,-544 945.8041,-526.1059 891.8687,-484.6062 864.4931,-461.4203"/>
<polygon fill="#191970" stroke="#191970" points="866.4302,-458.4692 856.5715,-454.5891 861.8588,-463.7703 866.4302,-458.4692"/>
</g>
<!-- Node52 -->
<g id="node53" class="node">
<title>Node52</title>
<polygon fill="none" stroke="#bfbfbf" points="1786.5,-435.5 1786.5,-454.5 1845.5,-454.5 1845.5,-435.5 1786.5,-435.5"/>
<text text-anchor="middle" x="1816" y="-442.5" font-family="Helvetica,sans-Serif" font-size="10.00" fill="#000000">functional</text>
</g>
<!-- Node51&#45;&gt;Node52 -->
<g id="edge101" class="edge">
<title>Node51&#45;&gt;Node52</title>
<path fill="none" stroke="#191970" d="M1641.5409,-513.4926C1673.9133,-502.8395 1727.2048,-484.6108 1772,-466 1777.1785,-463.8485 1782.6234,-461.4042 1787.8501,-458.9627"/>
<polygon fill="#191970" stroke="#191970" points="1789.4006,-462.101 1796.9178,-454.6349 1786.3854,-455.7836 1789.4006,-462.101"/>
</g>
<!-- Node56&#45;&gt;Node1 -->
<g id="edge111" class="edge">
<title>Node56&#45;&gt;Node1</title>
<path fill="none" stroke="#191970" d="M2048.4943,-588.7913C1871.8813,-582.3864 1056.7075,-552.388 1047,-544 934.8654,-447.1067 976.3067,-354.7827 1016,-212 1026.8405,-173.005 1029.2707,-156.3709 1063,-134 1103.9866,-106.8157 1238.8266,-95.2931 1319.8095,-90.7288"/>
<polygon fill="#191970" stroke="#191970" points="1320.098,-94.2184 1329.8932,-90.1806 1319.718,-87.2287 1320.098,-94.2184"/>
</g>
<!-- Node56&#45;&gt;Node6 -->
<g id="edge112" class="edge">
<title>Node56&#45;&gt;Node6</title>
<path fill="none" stroke="#191970" d="M2082.57,-580.241C2083.0669,-562.4854 2081.5619,-524.6455 2062,-502 2033.0265,-468.4593 2008.5344,-486.0369 1969,-466 1940.2974,-451.4529 1862.4547,-416.2243 1847,-388 1838.0348,-371.6272 1840.3662,-363.4481 1847,-346 1854.6077,-325.9902 1871.3923,-330.0098 1879,-310 1885.6338,-292.5519 1885.8964,-285.346 1879,-268 1870.8692,-247.5492 1854.2101,-251.988 1845,-232 1826.7382,-192.3679 1809.659,-166.3002 1839,-134 1867.3974,-102.7386 2150.3236,-92.1458 2267.047,-89.088"/>
<polygon fill="#191970" stroke="#191970" points="2267.2419,-92.5843 2277.1498,-88.8314 2267.0641,-85.5865 2267.2419,-92.5843"/>
</g>
<!-- Node56&#45;&gt;Node8 -->
<g id="edge113" class="edge">
<title>Node56&#45;&gt;Node8</title>
<path fill="none" stroke="#191970" d="M2115.7716,-584.5739C2186.5302,-573.205 2351.1132,-546.7612 2439.8234,-532.508"/>
<polygon fill="#191970" stroke="#191970" points="2440.4141,-535.9581 2449.7322,-530.9159 2439.3036,-529.0467 2440.4141,-535.9581"/>
</g>
<!-- Node56&#45;&gt;Node11 -->
<g id="edge120" class="edge">
<title>Node56&#45;&gt;Node11</title>
<path fill="none" stroke="#191970" d="M2115.7685,-587.4273C2193.6855,-581.3386 2392.0037,-564.97 2557,-544 2570.8086,-542.245 3039.9469,-472.9627 3052,-466 3090.5866,-443.7098 3100.1514,-430.0155 3115,-388 3120.2675,-373.095 3119.6406,-286.1071 3113,-268 3109.03,-257.175 3101.4039,-246.9806 3094.1017,-238.9532"/>
<polygon fill="#191970" stroke="#191970" points="3096.5351,-236.4352 3087.0548,-231.705 3091.5161,-241.3148 3096.5351,-236.4352"/>
</g>
<!-- Node56&#45;&gt;Node17 -->
<g id="edge123" class="edge">
<title>Node56&#45;&gt;Node17</title>
<path fill="none" stroke="#191970" d="M2115.5034,-585.2683C2162.3934,-578.2711 2250.0375,-563.8224 2323,-544 2376.7202,-529.4053 2386.8673,-514.9815 2441,-502 2501.5761,-487.4733 2677.8773,-512.7913 2719,-466 2739.9933,-442.1129 2715.1169,-405.5844 2696.5683,-384.2177"/>
<polygon fill="#191970" stroke="#191970" points="2698.9485,-381.6322 2689.6383,-376.5754 2693.7629,-386.3344 2698.9485,-381.6322"/>
</g>
<!-- Node56&#45;&gt;Node19 -->
<g id="edge121" class="edge">
<title>Node56&#45;&gt;Node19</title>
<path fill="none" stroke="#191970" d="M2048.0791,-588.5009C1923.9982,-582.889 1498.9977,-562.4969 1441,-544 1384.1126,-525.8572 1326.4831,-484.1452 1297.3888,-461.0753"/>
<polygon fill="#191970" stroke="#191970" points="1299.29,-458.1123 1289.3081,-454.5609 1294.8967,-463.562 1299.29,-458.1123"/>
</g>
<!-- Node56&#45;&gt;Node24 -->
<g id="edge114" class="edge">
<title>Node56&#45;&gt;Node24</title>
<path fill="none" stroke="#191970" d="M2087.0617,-580.2408C2095.0332,-563.4368 2108.3924,-528.3111 2096,-502 2087.4769,-483.904 2070.0773,-469.5939 2054.8839,-459.838"/>
<polygon fill="#191970" stroke="#191970" points="2056.6439,-456.8121 2046.277,-454.626 2053.0179,-462.7998 2056.6439,-456.8121"/>
</g>
<!-- Node56&#45;&gt;Node32 -->
<g id="edge119" class="edge">
<title>Node56&#45;&gt;Node32</title>
<path fill="none" stroke="#191970" d="M2115.7555,-589.3921C2316.449,-584.8931 3344,-549.1556 3344,-289 3344,-289 3344,-289 3344,-155 3344,-117.1735 3344,-73.3406 3344,-46.3908"/>
<polygon fill="#191970" stroke="#191970" points="3347.5001,-46.2729 3344,-36.2729 3340.5001,-46.273 3347.5001,-46.2729"/>
</g>
<!-- Node56&#45;&gt;Node33 -->
<g id="edge117" class="edge">
<title>Node56&#45;&gt;Node33</title>
<path fill="none" stroke="#191970" d="M2048.1176,-588.8304C1989.9931,-586.8474 1867.5297,-582.771 1764,-580 1673.4548,-577.5765 217.1798,-579.8529 134,-544 77.7159,-519.74 38,-506.2898 38,-445 38,-445 38,-445 38,-155 38,8.5936 1343.6416,-62.0652 1506,-42 1518.3841,-40.4695 1531.4224,-38.5646 1544.1936,-36.5312"/>
<polygon fill="#191970" stroke="#191970" points="1545.0525,-39.9376 1554.3609,-34.8776 1543.9287,-33.0283 1545.0525,-39.9376"/>
</g>
<!-- Node56&#45;&gt;Node47 -->
<g id="edge115" class="edge">
<title>Node56&#45;&gt;Node47</title>
<path fill="none" stroke="#191970" d="M2103.6346,-580.4005C2126.0541,-570.4528 2161.696,-554.6382 2189.8965,-542.1254"/>
<polygon fill="#191970" stroke="#191970" points="2191.4239,-545.2768 2199.145,-538.0218 2188.5848,-538.8784 2191.4239,-545.2768"/>
</g>
<!-- Node56&#45;&gt;Node49 -->
<g id="edge116" class="edge">
<title>Node56&#45;&gt;Node49</title>
<path fill="none" stroke="#191970" d="M2115.5144,-588.2059C2158.1662,-584.699 2233.0178,-574.368 2289,-544 2289.635,-543.6555 2343.978,-490.2577 2372.6773,-462.038"/>
<polygon fill="#191970" stroke="#191970" points="2375.35,-464.3185 2380.026,-454.8113 2370.4419,-459.3275 2375.35,-464.3185"/>
</g>
<!-- Node56&#45;&gt;Node54 -->
<g id="edge118" class="edge">
<title>Node56&#45;&gt;Node54</title>
<path fill="none" stroke="#191970" d="M2048.2869,-583.9575C2008.1821,-576.4924 1939.0729,-562.757 1871.1286,-544.1711"/>
<polygon fill="#191970" stroke="#191970" points="1871.6878,-540.6941 1861.1161,-541.3939 1869.8168,-547.4394 1871.6878,-540.6941"/>
</g>
<!-- Node56&#45;&gt;Node55 -->
<g id="edge122" class="edge">
<title>Node56&#45;&gt;Node55</title>
<path fill="none" stroke="#191970" d="M2054.8622,-580.3296C2030.19,-571.3853 1992.8781,-557.4763 1961,-544 1955.7392,-541.776 1950.1875,-539.2967 1944.8478,-536.8432"/>
<polygon fill="#191970" stroke="#191970" points="1946.116,-533.5727 1935.574,-532.5153 1943.1557,-539.9159 1946.116,-533.5727"/>
</g>
<!-- Node57 -->
<g id="node58" class="node">
<title>Node57</title>
<polygon fill="none" stroke="#bfbfbf" points="1970.5,-513.5 1970.5,-532.5 2053.5,-532.5 2053.5,-513.5 1970.5,-513.5"/>
<text text-anchor="middle" x="2012" y="-520.5" font-family="Helvetica,sans-Serif" font-size="10.00" fill="#000000">unordered_map</text>
</g>
<!-- Node56&#45;&gt;Node57 -->
<g id="edge124" class="edge">
<title>Node56&#45;&gt;Node57</title>
<path fill="none" stroke="#191970" d="M2071.9707,-580.4005C2060.8469,-569.7535 2042.7013,-552.3856 2029.279,-539.5385"/>
<polygon fill="#191970" stroke="#191970" points="2031.655,-536.9678 2022.0107,-532.5817 2026.8148,-542.0247 2031.655,-536.9678"/>
</g>
<!-- Node59&#45;&gt;Node1 -->
<g id="edge127" class="edge">
<title>Node59&#45;&gt;Node1</title>
<path fill="none" stroke="#191970" d="M179.9482,-507.6415C173.0895,-496.5025 164.3167,-480.8473 159,-466 143.8956,-423.8198 140,-411.803 140,-367 140,-367 140,-367 140,-222 140,-162.0237 1066.8611,-105.7097 1319.8594,-91.4552"/>
<polygon fill="#191970" stroke="#191970" points="1320.1993,-94.9418 1329.9875,-90.8868 1319.807,-87.9528 1320.1993,-94.9418"/>
</g>
<!-- Node59&#45;&gt;Node19 -->
<g id="edge130" class="edge">
<title>Node59&#45;&gt;Node19</title>
<path fill="none" stroke="#191970" d="M236.7527,-520.5026C441.1955,-509.579 1246.4819,-466.5238 1248,-466 1251.8782,-464.6617 1255.7075,-462.6638 1259.2661,-460.4238"/>
<polygon fill="#191970" stroke="#191970" points="1261.3244,-463.2548 1267.428,-454.5947 1257.2561,-457.5583 1261.3244,-463.2548"/>
</g>
<!-- Node60 -->
<g id="node61" class="node">
<title>Node60</title>
<polygon fill="none" stroke="#bfbfbf" points="66,-435.5 66,-454.5 112,-454.5 112,-435.5 66,-435.5"/>
<text text-anchor="middle" x="89" y="-442.5" font-family="Helvetica,sans-Serif" font-size="10.00" fill="#000000">stdio.h</text>
</g>
<!-- Node59&#45;&gt;Node60 -->
<g id="edge128" class="edge">
<title>Node59&#45;&gt;Node60</title>
<path fill="none" stroke="#191970" d="M170.5262,-507.9608C152.9889,-494.4172 127.3012,-474.5791 109.465,-460.8046"/>
<polygon fill="#191970" stroke="#191970" points="111.4638,-457.926 101.4099,-454.5839 107.1852,-463.4663 111.4638,-457.926"/>
</g>
<!-- Node61 -->
<g id="node62" class="node">
<title>Node61</title>
<polygon fill="none" stroke="#bfbfbf" points="168,-435.5 168,-454.5 212,-454.5 212,-435.5 168,-435.5"/>
<text text-anchor="middle" x="190" y="-442.5" font-family="Helvetica,sans-Serif" font-size="10.00" fill="#000000">cmath</text>
</g>
<!-- Node59&#45;&gt;Node61 -->
<g id="edge129" class="edge">
<title>Node59&#45;&gt;Node61</title>
<path fill="none" stroke="#191970" d="M190,-507.9608C190,-495.6484 190,-478.134 190,-464.7024"/>
<polygon fill="#191970" stroke="#191970" points="193.5001,-464.5838 190,-454.5839 186.5001,-464.5839 193.5001,-464.5838"/>
</g>
<!-- Node62&#45;&gt;Node19 -->
<g id="edge132" class="edge">
<title>Node62&#45;&gt;Node19</title>
<path fill="none" stroke="#191970" d="M3371.9778,-522.0373C3105.194,-515.2665 1521.8225,-474.8172 1421,-466 1381.8168,-462.5733 1337.0046,-455.4697 1308.1471,-450.4767"/>
<polygon fill="#191970" stroke="#191970" points="1308.732,-447.026 1298.2773,-448.7434 1307.5211,-453.9204 1308.732,-447.026"/>
</g>
<!-- Node62&#45;&gt;Node32 -->
<g id="edge133" class="edge">
<title>Node62&#45;&gt;Node32</title>
<path fill="none" stroke="#191970" d="M3447.704,-513.4398C3472.8661,-505.086 3504.5989,-490.3764 3523,-466 3549.9933,-430.2415 3542,-411.803 3542,-367 3542,-367 3542,-367 3542,-155 3542,-88.2966 3463.975,-52.5341 3405.8848,-35.1519"/>
<polygon fill="#191970" stroke="#191970" points="3406.5999,-31.7157 3396.0222,-32.3172 3404.6663,-38.4434 3406.5999,-31.7157"/>
</g>
<!-- Node62&#45;&gt;Node48 -->
<g id="edge135" class="edge">
<title>Node62&#45;&gt;Node48</title>
<path fill="none" stroke="#191970" d="M3400.6963,-513.4469C3380.8213,-493.6134 3331.9471,-447.8377 3282,-424 3222.6477,-395.6736 3148.1816,-380.8478 3097.8526,-373.5021"/>
<polygon fill="#191970" stroke="#191970" points="3098.1973,-370.0162 3087.8071,-372.0885 3097.2218,-376.9479 3098.1973,-370.0162"/>
</g>
<!-- Node63 -->
<g id="node64" class="node">
<title>Node63</title>
<polygon fill="none" stroke="#bfbfbf" points="3410,-424.5 3410,-465.5 3514,-465.5 3514,-424.5 3410,-424.5"/>
<text text-anchor="start" x="3418" y="-453.5" font-family="Helvetica,sans-Serif" font-size="10.00" fill="#000000">hydra/detail/external</text>
<text text-anchor="start" x="3418" y="-442.5" font-family="Helvetica,sans-Serif" font-size="10.00" fill="#000000">/thrust/detail/tuple</text>
<text text-anchor="middle" x="3462" y="-431.5" font-family="Helvetica,sans-Serif" font-size="10.00" fill="#000000">/tuple.h</text>
</g>
<!-- Node62&#45;&gt;Node63 -->
<g id="edge134" class="edge">
<title>Node62&#45;&gt;Node63</title>
<path fill="none" stroke="#191970" d="M3416.3762,-513.4357C3422.8893,-503.6661 3433.3302,-488.0047 3442.5812,-474.1282"/>
<polygon fill="#191970" stroke="#191970" points="3445.5069,-476.0493 3448.1418,-465.7873 3439.6826,-472.1664 3445.5069,-476.0493"/>
</g>
<!-- Node64&#45;&gt;Node1 -->
<g id="edge137" class="edge">
<title>Node64&#45;&gt;Node1</title>
<path fill="none" stroke="#191970" d="M1099.1108,-513.3066C1085.5425,-503.0955 1065.3276,-485.7731 1054,-466 1031.4947,-426.7153 1030,-412.2745 1030,-367 1030,-367 1030,-367 1030,-222 1030,-160.7019 1218.4001,-117.4498 1319.9269,-98.592"/>
<polygon fill="#191970" stroke="#191970" points="1320.5642,-102.0336 1329.7701,-96.7895 1319.3032,-95.1481 1320.5642,-102.0336"/>
</g>
<!-- Node64&#45;&gt;Node4 -->
<g id="edge138" class="edge">
<title>Node64&#45;&gt;Node4</title>
<path fill="none" stroke="#191970" d="M1119.7441,-513.4357C1128.5682,-500.9214 1144.209,-478.74 1155.2896,-463.0257"/>
<polygon fill="#191970" stroke="#191970" points="1158.2984,-464.8321 1161.2008,-454.6426 1152.5776,-460.7982 1158.2984,-464.8321"/>
</g>
<!-- Node64&#45;&gt;Node6 -->
<g id="edge139" class="edge">
<title>Node64&#45;&gt;Node6</title>
<path fill="none" stroke="#191970" d="M1105.9623,-513.3758C1093.41,-494.9296 1069.9989,-453.7864 1087,-424 1212.633,-203.8872 1335.7151,-208.3729 1578,-134 1643.4694,-113.9032 2112.03,-95.3893 2267.2199,-89.7491"/>
<polygon fill="#191970" stroke="#191970" points="2267.5453,-93.2397 2277.4123,-89.3808 2267.2924,-86.2443 2267.5453,-93.2397"/>
</g>
<!-- Node64&#45;&gt;Node19 -->
<g id="edge140" class="edge">
<title>Node64&#45;&gt;Node19</title>
<path fill="none" stroke="#191970" d="M1140.1662,-513.466C1168.0009,-503.2558 1212.1553,-485.8211 1248,-466 1251.0044,-464.3387 1254.0761,-462.4438 1257.0531,-460.4879"/>
<polygon fill="#191970" stroke="#191970" points="1259.3112,-463.1814 1265.5378,-454.6093 1255.3247,-457.4275 1259.3112,-463.1814"/>
</g>
<!-- Node64&#45;&gt;Node65 -->
<g id="edge141" class="edge">
<title>Node64&#45;&gt;Node65</title>
<path fill="none" stroke="#191970" d="M1092.5225,-513.4357C1062.3991,-499.3661 1006.1133,-473.0768 972.7564,-457.497"/>
<polygon fill="#191970" stroke="#191970" points="974.1372,-454.279 963.5956,-453.2183 971.1749,-460.6214 974.1372,-454.279"/>
</g>
<!-- Node67&#45;&gt;Node1 -->
<g id="edge150" class="edge">
<title>Node67&#45;&gt;Node1</title>
<path fill="none" stroke="#191970" d="M664.4749,-507.7695C675.5153,-497.1641 689.1351,-482.0823 697,-466 716.6829,-425.7521 716,-411.803 716,-367 716,-367 716,-367 716,-222 716,-181.4604 708.682,-159.7418 740,-134 784.1075,-97.7459 1166.4542,-90.0611 1319.7839,-88.4352"/>
<polygon fill="#191970" stroke="#191970" points="1320.0193,-91.9331 1329.9835,-88.3324 1319.9487,-84.9334 1320.0193,-91.9331"/>
</g>
<!-- Node67&#45;&gt;Node6 -->
<g id="edge151" class="edge">
<title>Node67&#45;&gt;Node6</title>
<path fill="none" stroke="#191970" d="M666.0584,-507.8934C705.9698,-476.4817 801.6338,-402.3577 886,-346 942.0286,-308.5722 954.6722,-295.9097 1016,-268 1191.6422,-188.0668 1239.238,-169.0698 1429,-134 1591.7457,-103.9231 2104.8193,-91.9592 2267.2052,-88.8661"/>
<polygon fill="#191970" stroke="#191970" points="2267.4542,-92.3621 2277.3867,-88.6751 2267.3228,-85.3634 2267.4542,-92.3621"/>
</g>
<!-- Node67&#45;&gt;Node19 -->
<g id="edge153" class="edge">
<title>Node67&#45;&gt;Node19</title>
<path fill="none" stroke="#191970" d="M702.2028,-521.358C831.1111,-516.9488 1148.5345,-502.6059 1248,-466 1251.6768,-464.6469 1255.3218,-462.7283 1258.7373,-460.5949"/>
<polygon fill="#191970" stroke="#191970" points="1260.9554,-463.3134 1267.1064,-454.6869 1256.9184,-457.5947 1260.9554,-463.3134"/>
</g>
<!-- Node67&#45;&gt;Node53 -->
<g id="edge152" class="edge">
<title>Node67&#45;&gt;Node53</title>
<path fill="none" stroke="#191970" d="M694.2848,-507.9732C726.2669,-497.3434 769.2169,-482.155 806,-466 810.605,-463.9775 815.4127,-461.6506 820.0327,-459.2987"/>
<polygon fill="#191970" stroke="#191970" points="821.8992,-462.2719 829.1272,-454.5255 818.6461,-456.0738 821.8992,-462.2719"/>
</g>
<!-- Node67&#45;&gt;Node61 -->
<g id="edge154" class="edge">
<title>Node67&#45;&gt;Node61</title>
<path fill="none" stroke="#191970" d="M591.8238,-518.7832C492.4835,-510.6698 287.6725,-491.4168 221,-466 217.1467,-464.5311 213.2995,-462.5006 209.6921,-460.2771"/>
<polygon fill="#191970" stroke="#191970" points="211.5791,-457.3274 201.3515,-454.5622 207.6225,-463.1019 211.5791,-457.3274"/>
</g>
<!-- Node68 -->
<g id="node69" class="node">
<title>Node68</title>
<g id="a_node69"><a xlink:href="wigner__d__function__macro_8inl.html" target="_top" xlink:title="hydra/functions/detail\l/wigner_d_function/wigner\l_d_function_macro.inl">
<polygon fill="none" stroke="#000000" points="276,-346.5 276,-387.5 404,-387.5 404,-346.5 276,-346.5"/>
<text text-anchor="start" x="284" y="-375.5" font-family="Helvetica,sans-Serif" font-size="10.00" fill="#000000">hydra/functions/detail</text>
<text text-anchor="start" x="284" y="-364.5" font-family="Helvetica,sans-Serif" font-size="10.00" fill="#000000">/wigner_d_function/wigner</text>
<text text-anchor="middle" x="340" y="-353.5" font-family="Helvetica,sans-Serif" font-size="10.00" fill="#000000">_d_function_macro.inl</text>
</a>
</g>
</g>
<!-- Node67&#45;&gt;Node68 -->
<g id="edge155" class="edge">
<title>Node67&#45;&gt;Node68</title>
<path fill="none" stroke="#191970" d="M591.9537,-514.8822C530.2096,-504.9468 434.7949,-486.8495 405,-466 380.6403,-448.9539 363.0612,-419.5783 352.3747,-397.2405"/>
<polygon fill="#191970" stroke="#191970" points="355.4229,-395.4898 348.0836,-387.8488 349.056,-398.3989 355.4229,-395.4898"/>
</g>
<!-- Node69 -->
<g id="node70" class="node">
<title>Node69</title>
<g id="a_node70"><a xlink:href="wigner__J__unit__1_8inl.html" target="_top" xlink:title="hydra/functions/detail\l/wigner_d_function/wigner\l_J_unit_1.inl">
<polygon fill="none" stroke="#000000" points="414,-424.5 414,-465.5 542,-465.5 542,-424.5 414,-424.5"/>
<text text-anchor="start" x="422" y="-453.5" font-family="Helvetica,sans-Serif" font-size="10.00" fill="#000000">hydra/functions/detail</text>
<text text-anchor="start" x="422" y="-442.5" font-family="Helvetica,sans-Serif" font-size="10.00" fill="#000000">/wigner_d_function/wigner</text>
<text text-anchor="middle" x="478" y="-431.5" font-family="Helvetica,sans-Serif" font-size="10.00" fill="#000000">_J_unit_1.inl</text>
</a>
</g>
</g>
<!-- Node67&#45;&gt;Node69 -->
<g id="edge156" class="edge">
<title>Node67&#45;&gt;Node69</title>
<path fill="none" stroke="#191970" d="M614.4151,-507.9608C591.0773,-497.1895 559.1136,-482.437 531.9927,-469.9197"/>
<polygon fill="#191970" stroke="#191970" points="533.1701,-466.6084 522.6238,-465.5956 530.2367,-472.9641 533.1701,-466.6084"/>
</g>
<!-- Node70 -->
<g id="node71" class="node">
<title>Node70</title>
<g id="a_node71"><a xlink:href="wigner__J__unit__2_8inl.html" target="_top" xlink:title="hydra/functions/detail\l/wigner_d_function/wigner\l_J_unit_2.inl">
<polygon fill="none" stroke="#000000" points="230,-424.5 230,-465.5 358,-465.5 358,-424.5 230,-424.5"/>
<text text-anchor="start" x="238" y="-453.5" font-family="Helvetica,sans-Serif" font-size="10.00" fill="#000000">hydra/functions/detail</text>
<text text-anchor="start" x="238" y="-442.5" font-family="Helvetica,sans-Serif" font-size="10.00" fill="#000000">/wigner_d_function/wigner</text>
<text text-anchor="middle" x="294" y="-431.5" font-family="Helvetica,sans-Serif" font-size="10.00" fill="#000000">_J_unit_2.inl</text>
</a>
</g>
</g>
<!-- Node67&#45;&gt;Node70 -->
<g id="edge157" class="edge">
<title>Node67&#45;&gt;Node70</title>
<path fill="none" stroke="#191970" d="M591.7441,-512.5355C536.0646,-501.7589 447.7735,-484.0368 372,-466 370.7338,-465.6986 369.4569,-465.3914 368.1717,-465.0794"/>
<polygon fill="#191970" stroke="#191970" points="368.7459,-461.6157 358.1972,-462.6036 367.0595,-468.4096 368.7459,-461.6157"/>
</g>
<!-- Node71 -->
<g id="node72" class="node">
<title>Node71</title>
<g id="a_node72"><a xlink:href="wigner__J__half__1_8inl.html" target="_top" xlink:title="hydra/functions/detail\l/wigner_d_function/wigner\l_J_half_1.inl">
<polygon fill="none" stroke="#000000" points="560,-424.5 560,-465.5 688,-465.5 688,-424.5 560,-424.5"/>
<text text-anchor="start" x="568" y="-453.5" font-family="Helvetica,sans-Serif" font-size="10.00" fill="#000000">hydra/functions/detail</text>
<text text-anchor="start" x="568" y="-442.5" font-family="Helvetica,sans-Serif" font-size="10.00" fill="#000000">/wigner_d_function/wigner</text>
<text text-anchor="middle" x="624" y="-431.5" font-family="Helvetica,sans-Serif" font-size="10.00" fill="#000000">_J_half_1.inl</text>
</a>
</g>
</g>
<!-- Node67&#45;&gt;Node71 -->
<g id="edge159" class="edge">
<title>Node67&#45;&gt;Node71</title>
<path fill="none" stroke="#191970" d="M642.5654,-507.9608C639.8469,-498.7417 636.2685,-486.6062 632.9794,-475.4518"/>
<polygon fill="#191970" stroke="#191970" points="636.2585,-474.1974 630.0731,-465.5956 629.5444,-476.1772 636.2585,-474.1974"/>
</g>
<!-- Node70&#45;&gt;Node68 -->
<g id="edge158" class="edge">
<title>Node70&#45;&gt;Node68</title>
<path fill="none" stroke="#191970" d="M306.3272,-424.0974C311.3171,-415.6363 317.1681,-405.7149 322.5804,-396.5375"/>
<polygon fill="#191970" stroke="#191970" points="325.7332,-398.0814 327.7983,-387.6898 319.7036,-394.5255 325.7332,-398.0814"/>
</g>
</g>
</svg>
