<?xml version="1.0" encoding="UTF-8" standalone="no"?>
<!DOCTYPE svg PUBLIC "-//W3C//DTD SVG 1.1//EN"
 "http://www.w3.org/Graphics/SVG/1.1/DTD/svg11.dtd">
<!-- Generated by graphviz version 2.40.1 (20161225.0304)
 -->
<!-- Title: wigner_d_matrix.h Pages: 1 -->
<svg width="788pt" height="252pt"
 viewBox="0.00 0.00 787.50 252.00" xmlns="http://www.w3.org/2000/svg" xmlns:xlink="http://www.w3.org/1999/xlink">
<g id="graph0" class="graph" transform="scale(1 1) rotate(0) translate(4 248)">
<title>wigner_d_matrix.h</title>
<!-- Node60 -->
<g id="node1" class="node">
<title>Node60</title>
<polygon fill="#bfbfbf" stroke="#000000" points="414,-224.5 414,-243.5 509,-243.5 509,-224.5 414,-224.5"/>
<text text-anchor="middle" x="461.5" y="-231.5" font-family="Helvetica,sans-Serif" font-size="10.00" fill="#000000">wigner_d_matrix.h</text>
</g>
<!-- Node61 -->
<g id="node2" class="node">
<title>Node61</title>
<g id="a_node2"><a xlink:href="Math_8h.html" target="_top" xlink:title="Math.h">
<polygon fill="none" stroke="#000000" points="438,-168.5 438,-187.5 485,-187.5 485,-168.5 438,-168.5"/>
<text text-anchor="middle" x="461.5" y="-175.5" font-family="Helvetica,sans-Serif" font-size="10.00" fill="#000000">Math.h</text>
</a>
</g>
</g>
<!-- Node60&#45;&gt;Node61 -->
<g id="edge1" class="edge">
<title>Node60&#45;&gt;Node61</title>
<path fill="none" stroke="#191970" d="M461.5,-214.1575C461.5,-205.155 461.5,-194.9199 461.5,-187.6427"/>
<polygon fill="#191970" stroke="#191970" points="458.0001,-214.2455 461.5,-224.2455 465.0001,-214.2456 458.0001,-214.2455"/>
</g>
<!-- Node62 -->
<g id="node3" class="node">
<title>Node62</title>
<g id="a_node3"><a xlink:href="Chebychev_8h.html" target="_top" xlink:title="Chebychev.h">
<polygon fill="none" stroke="#000000" points="293.5,-112.5 293.5,-131.5 367.5,-131.5 367.5,-112.5 293.5,-112.5"/>
<text text-anchor="middle" x="330.5" y="-119.5" font-family="Helvetica,sans-Serif" font-size="10.00" fill="#000000">Chebychev.h</text>
</a>
</g>
</g>
<!-- Node61&#45;&gt;Node62 -->
<g id="edge2" class="edge">
<title>Node61&#45;&gt;Node62</title>
<path fill="none" stroke="#191970" d="M429.6466,-164.3833C405.8215,-154.1985 373.8432,-140.5284 352.7258,-131.5011"/>
<polygon fill="#191970" stroke="#191970" points="428.4094,-167.6608 438.9803,-168.3733 431.161,-161.2242 428.4094,-167.6608"/>
</g>
<!-- Node66 -->
<g id="node7" class="node">
<title>Node66</title>
<g id="a_node7"><a xlink:href="WignerDMatrix_8h.html" target="_top" xlink:title="WignerDMatrix.h">
<polygon fill="none" stroke="#000000" points="417,-112.5 417,-131.5 506,-131.5 506,-112.5 417,-112.5"/>
<text text-anchor="middle" x="461.5" y="-119.5" font-family="Helvetica,sans-Serif" font-size="10.00" fill="#000000">WignerDMatrix.h</text>
</a>
</g>
</g>
<!-- Node61&#45;&gt;Node66 -->
<g id="edge6" class="edge">
<title>Node61&#45;&gt;Node66</title>
<path fill="none" stroke="#191970" d="M461.5,-158.1575C461.5,-149.155 461.5,-138.9199 461.5,-131.6427"/>
<polygon fill="#191970" stroke="#191970" points="458.0001,-158.2455 461.5,-168.2455 465.0001,-158.2456 458.0001,-158.2455"/>
</g>
<!-- Node67 -->
<g id="node8" class="node">
<title>Node67</title>
<g id="a_node8"><a xlink:href="ZemachFunctions_8h.html" target="_top" xlink:title="ZemachFunctions.h">
<polygon fill="none" stroke="#000000" points="540,-112.5 540,-131.5 643,-131.5 643,-112.5 540,-112.5"/>
<text text-anchor="middle" x="591.5" y="-119.5" font-family="Helvetica,sans-Serif" font-size="10.00" fill="#000000">ZemachFunctions.h</text>
</a>
</g>
</g>
<!-- Node61&#45;&gt;Node67 -->
<g id="edge7" class="edge">
<title>Node61&#45;&gt;Node67</title>
<path fill="none" stroke="#191970" d="M493.1102,-164.3833C516.7535,-154.1985 548.4876,-140.5284 569.4438,-131.5011"/>
<polygon fill="#191970" stroke="#191970" points="491.6472,-161.2025 483.8478,-168.3733 494.4166,-167.6314 491.6472,-161.2025"/>
</g>
<!-- Node63 -->
<g id="node4" class="node">
<title>Node63</title>
<g id="a_node4"><a xlink:href="breit__wigner__plus__chebychev_8inl.html" target="_top" xlink:title="breit_wigner_plus_chebychev.inl">
<polygon fill="none" stroke="#000000" points="182,-56.5 182,-75.5 339,-75.5 339,-56.5 182,-56.5"/>
<text text-anchor="middle" x="260.5" y="-63.5" font-family="Helvetica,sans-Serif" font-size="10.00" fill="#000000">breit_wigner_plus_chebychev.inl</text>
</a>
</g>
</g>
<!-- Node62&#45;&gt;Node63 -->
<g id="edge3" class="edge">
<title>Node62&#45;&gt;Node63</title>
<path fill="none" stroke="#191970" d="M310.41,-105.928C298.1747,-96.1397 282.9493,-83.9595 272.5533,-75.6427"/>
<polygon fill="#191970" stroke="#191970" points="308.3118,-108.7316 318.3069,-112.2455 312.6847,-103.2655 308.3118,-108.7316"/>
</g>
<!-- Node64 -->
<g id="node5" class="node">
<title>Node64</title>
<g id="a_node5"><a xlink:href="breit__wigner__plus__chebychev_8cpp.html" target="_top" xlink:title="breit_wigner_plus_chebychev.cpp">
<polygon fill="none" stroke="#000000" points="0,-.5 0,-19.5 163,-19.5 163,-.5 0,-.5"/>
<text text-anchor="middle" x="81.5" y="-7.5" font-family="Helvetica,sans-Serif" font-size="10.00" fill="#000000">breit_wigner_plus_chebychev.cpp</text>
</a>
</g>
</g>
<!-- Node63&#45;&gt;Node64 -->
<g id="edge4" class="edge">
<title>Node63&#45;&gt;Node64</title>
<path fill="none" stroke="#191970" d="M219.9805,-53.3235C187.1534,-43.0536 141.6224,-28.8093 111.8697,-19.5011"/>
<polygon fill="#191970" stroke="#191970" points="219.1399,-56.7278 229.7288,-56.3733 221.23,-50.0471 219.1399,-56.7278"/>
</g>
<!-- Node65 -->
<g id="node6" class="node">
<title>Node65</title>
<g id="a_node6"><a xlink:href="breit__wigner__plus__chebychev_8cu.html" target="_top" xlink:title="breit_wigner_plus_chebychev.cu">
<polygon fill="none" stroke="#000000" points="181.5,-.5 181.5,-19.5 339.5,-19.5 339.5,-.5 181.5,-.5"/>
<text text-anchor="middle" x="260.5" y="-7.5" font-family="Helvetica,sans-Serif" font-size="10.00" fill="#000000">breit_wigner_plus_chebychev.cu</text>
</a>
</g>
</g>
<!-- Node63&#45;&gt;Node65 -->
<g id="edge5" class="edge">
<title>Node63&#45;&gt;Node65</title>
<path fill="none" stroke="#191970" d="M260.5,-46.1575C260.5,-37.155 260.5,-26.9199 260.5,-19.6427"/>
<polygon fill="#191970" stroke="#191970" points="257.0001,-46.2455 260.5,-56.2455 264.0001,-46.2456 257.0001,-46.2455"/>
</g>
<!-- Node68 -->
<g id="node9" class="node">
<title>Node68</title>
<g id="a_node9"><a xlink:href="caching__functors_8inl.html" target="_top" xlink:title="caching_functors.inl">
<polygon fill="none" stroke="#000000" points="485.5,-56.5 485.5,-75.5 589.5,-75.5 589.5,-56.5 485.5,-56.5"/>
<text text-anchor="middle" x="537.5" y="-63.5" font-family="Helvetica,sans-Serif" font-size="10.00" fill="#000000">caching_functors.inl</text>
</a>
</g>
</g>
<!-- Node67&#45;&gt;Node68 -->
<g id="edge8" class="edge">
<title>Node67&#45;&gt;Node68</title>
<path fill="none" stroke="#191970" d="M574.9031,-104.7884C565.6653,-95.2085 554.5096,-83.6396 546.7983,-75.6427"/>
<polygon fill="#191970" stroke="#191970" points="572.6331,-107.4766 582.0939,-112.2455 577.672,-102.6176 572.6331,-107.4766"/>
</g>
<!-- Node71 -->
<g id="node12" class="node">
<title>Node71</title>
<g id="a_node12"><a xlink:href="dalitz__plot_8inl.html" target="_top" xlink:title="dalitz_plot.inl">
<polygon fill="none" stroke="#000000" points="608.5,-56.5 608.5,-75.5 682.5,-75.5 682.5,-56.5 608.5,-56.5"/>
<text text-anchor="middle" x="645.5" y="-63.5" font-family="Helvetica,sans-Serif" font-size="10.00" fill="#000000">dalitz_plot.inl</text>
</a>
</g>
</g>
<!-- Node67&#45;&gt;Node71 -->
<g id="edge11" class="edge">
<title>Node67&#45;&gt;Node71</title>
<path fill="none" stroke="#191970" d="M608.0969,-104.7884C617.3347,-95.2085 628.4904,-83.6396 636.2017,-75.6427"/>
<polygon fill="#191970" stroke="#191970" points="605.328,-102.6176 600.9061,-112.2455 610.3669,-107.4766 605.328,-102.6176"/>
</g>
<!-- Node74 -->
<g id="node15" class="node">
<title>Node74</title>
<g id="a_node15"><a xlink:href="dalitz__plot_8C.html" target="_top" xlink:title="dalitz_plot.C">
<polygon fill="none" stroke="#000000" points="701,-56.5 701,-75.5 772,-75.5 772,-56.5 701,-56.5"/>
<text text-anchor="middle" x="736.5" y="-63.5" font-family="Helvetica,sans-Serif" font-size="10.00" fill="#000000">dalitz_plot.C</text>
</a>
</g>
</g>
<!-- Node67&#45;&gt;Node74 -->
<g id="edge14" class="edge">
<title>Node67&#45;&gt;Node74</title>
<path fill="none" stroke="#191970" d="M626.0565,-108.6541C652.4986,-98.4419 688.3169,-84.6086 711.8989,-75.5011"/>
<polygon fill="#191970" stroke="#191970" points="624.4939,-105.5055 616.4264,-112.3733 627.0158,-112.0354 624.4939,-105.5055"/>
</g>
<!-- Node69 -->
<g id="node10" class="node">
<title>Node69</title>
<g id="a_node10"><a xlink:href="caching__functors_8cpp.html" target="_top" xlink:title="caching_functors.cpp">
<polygon fill="none" stroke="#000000" points="357.5,-.5 357.5,-19.5 467.5,-19.5 467.5,-.5 357.5,-.5"/>
<text text-anchor="middle" x="412.5" y="-7.5" font-family="Helvetica,sans-Serif" font-size="10.00" fill="#000000">caching_functors.cpp</text>
</a>
</g>
</g>
<!-- Node68&#45;&gt;Node69 -->
<g id="edge9" class="edge">
<title>Node68&#45;&gt;Node69</title>
<path fill="none" stroke="#191970" d="M506.802,-52.2473C484.1007,-42.0771 453.7685,-28.4883 433.7079,-19.5011"/>
<polygon fill="#191970" stroke="#191970" points="505.4547,-55.4789 516.0117,-56.3733 508.3167,-49.0906 505.4547,-55.4789"/>
</g>
<!-- Node70 -->
<g id="node11" class="node">
<title>Node70</title>
<g id="a_node11"><a xlink:href="caching__functors_8cu.html" target="_top" xlink:title="caching_functors.cu">
<polygon fill="none" stroke="#000000" points="485.5,-.5 485.5,-19.5 589.5,-19.5 589.5,-.5 485.5,-.5"/>
<text text-anchor="middle" x="537.5" y="-7.5" font-family="Helvetica,sans-Serif" font-size="10.00" fill="#000000">caching_functors.cu</text>
</a>
</g>
</g>
<!-- Node68&#45;&gt;Node70 -->
<g id="edge10" class="edge">
<title>Node68&#45;&gt;Node70</title>
<path fill="none" stroke="#191970" d="M537.5,-46.1575C537.5,-37.155 537.5,-26.9199 537.5,-19.6427"/>
<polygon fill="#191970" stroke="#191970" points="534.0001,-46.2455 537.5,-56.2455 541.0001,-46.2456 534.0001,-46.2455"/>
</g>
<!-- Node72 -->
<g id="node13" class="node">
<title>Node72</title>
<g id="a_node13"><a xlink:href="dalitz__plot_8cpp.html" target="_top" xlink:title="dalitz_plot.cpp">
<polygon fill="none" stroke="#000000" points="607.5,-.5 607.5,-19.5 687.5,-19.5 687.5,-.5 607.5,-.5"/>
<text text-anchor="middle" x="647.5" y="-7.5" font-family="Helvetica,sans-Serif" font-size="10.00" fill="#000000">dalitz_plot.cpp</text>
</a>
</g>
</g>
<!-- Node71&#45;&gt;Node72 -->
<g id="edge12" class="edge">
<title>Node71&#45;&gt;Node72</title>
<path fill="none" stroke="#191970" d="M646.2087,-46.1575C646.5302,-37.155 646.8957,-26.9199 647.1556,-19.6427"/>
<polygon fill="#191970" stroke="#191970" points="642.7076,-46.127 645.8484,-56.2455 649.7032,-46.3769 642.7076,-46.127"/>
</g>
<!-- Node73 -->
<g id="node14" class="node">
<title>Node73</title>
<g id="a_node14"><a xlink:href="dalitz__plot_8cu.html" target="_top" xlink:title="dalitz_plot.cu">
<polygon fill="none" stroke="#000000" points="705.5,-.5 705.5,-19.5 779.5,-19.5 779.5,-.5 705.5,-.5"/>
<text text-anchor="middle" x="742.5" y="-7.5" font-family="Helvetica,sans-Serif" font-size="10.00" fill="#000000">dalitz_plot.cu</text>
</a>
</g>
</g>
<!-- Node71&#45;&gt;Node73 -->
<g id="edge13" class="edge">
<title>Node71&#45;&gt;Node73</title>
<path fill="none" stroke="#191970" d="M671.4016,-51.0465C688.6609,-41.0824 710.8376,-28.2794 725.7975,-19.6427"/>
<polygon fill="#191970" stroke="#191970" points="669.3065,-48.2146 662.3961,-56.2455 672.8064,-54.2768 669.3065,-48.2146"/>
</g>
</g>
</svg>
