<?xml version="1.0" encoding="UTF-8" standalone="no"?>
<!DOCTYPE svg PUBLIC "-//W3C//DTD SVG 1.1//EN"
 "http://www.w3.org/Graphics/SVG/1.1/DTD/svg11.dtd">
<!-- Generated by graphviz version 2.42.4 (0)
 -->
<!-- Title: WrappersFFTW.h Pages: 1 -->
<svg width="484pt" height="308pt"
 viewBox="0.00 0.00 483.59 308.00" xmlns="http://www.w3.org/2000/svg" xmlns:xlink="http://www.w3.org/1999/xlink">
<g id="graph0" class="graph" transform="scale(1 1) rotate(0) translate(4 304)">
<title>WrappersFFTW.h</title>
<!-- Node74 -->
<g id="node1" class="node">
<title>Node74</title>
<polygon fill="#bfbfbf" stroke="black" points="147.09,-280.5 147.09,-299.5 239.09,-299.5 239.09,-280.5 147.09,-280.5"/>
<text text-anchor="middle" x="193.09" y="-287.5" font-family="Helvetica,sans-Serif" font-size="10.00">WrappersFFTW.h</text>
</g>
<!-- Node75 -->
<g id="node2" class="node">
<title>Node75</title>
<g id="a_node2"><a xlink:href="BaseFFTW_8h.html" target="_top" xlink:title="BaseFFTW.h">
<polygon fill="none" stroke="black" points="156.09,-224.5 156.09,-243.5 230.09,-243.5 230.09,-224.5 156.09,-224.5"/>
<text text-anchor="middle" x="193.09" y="-231.5" font-family="Helvetica,sans-Serif" font-size="10.00">BaseFFTW.h</text>
</a>
</g>
</g>
<!-- Node74&#45;&gt;Node75 -->
<g id="edge1" class="edge">
<title>Node74&#45;&gt;Node75</title>
<path fill="none" stroke="midnightblue" d="M193.09,-269.8C193.09,-260.91 193.09,-250.78 193.09,-243.75"/>
<polygon fill="midnightblue" stroke="midnightblue" points="189.59,-270.08 193.09,-280.08 196.59,-270.08 189.59,-270.08"/>
</g>
<!-- Node76 -->
<g id="node3" class="node">
<title>Node76</title>
<g id="a_node3"><a xlink:href="ComplexToComplexFFTW_8h.html" target="_top" xlink:title="ComplexToComplexFFTW.h">
<polygon fill="none" stroke="black" points="19.09,-168.5 19.09,-187.5 159.09,-187.5 159.09,-168.5 19.09,-168.5"/>
<text text-anchor="middle" x="89.09" y="-175.5" font-family="Helvetica,sans-Serif" font-size="10.00">ComplexToComplexFFTW.h</text>
</a>
</g>
</g>
<!-- Node74&#45;&gt;Node76 -->
<g id="edge12" class="edge">
<title>Node74&#45;&gt;Node76</title>
<path fill="none" stroke="midnightblue" d="M176.32,-273.12C167.48,-264.63 156.54,-253.9 147.09,-244 128.29,-224.31 107.25,-200.18 96.42,-187.58"/>
<polygon fill="midnightblue" stroke="midnightblue" points="174.1,-275.84 183.74,-280.21 178.93,-270.78 174.1,-275.84"/>
</g>
<!-- Node77 -->
<g id="node4" class="node">
<title>Node77</title>
<g id="a_node4"><a xlink:href="FFTW_8h.html" target="_top" xlink:title="FFTW.h">
<polygon fill="none" stroke="black" points="161.59,-112.5 161.59,-131.5 212.59,-131.5 212.59,-112.5 161.59,-112.5"/>
<text text-anchor="middle" x="187.09" y="-119.5" font-family="Helvetica,sans-Serif" font-size="10.00">FFTW.h</text>
</a>
</g>
</g>
<!-- Node74&#45;&gt;Node77 -->
<g id="edge15" class="edge">
<title>Node74&#45;&gt;Node77</title>
<path fill="none" stroke="midnightblue" d="M144.23,-277.93C76.73,-260.36 -32.22,-222.41 10.09,-168 28.58,-144.22 117.12,-130.95 161.55,-125.69"/>
<polygon fill="midnightblue" stroke="midnightblue" points="143.72,-281.41 154.27,-280.48 145.44,-274.63 143.72,-281.41"/>
</g>
<!-- Node81 -->
<g id="node8" class="node">
<title>Node81</title>
<g id="a_node8"><a xlink:href="ComplexToRealFFTW_8h.html" target="_top" xlink:title="ComplexToRealFFTW.h">
<polygon fill="none" stroke="black" points="215.59,-168.5 215.59,-187.5 336.59,-187.5 336.59,-168.5 215.59,-168.5"/>
<text text-anchor="middle" x="276.09" y="-175.5" font-family="Helvetica,sans-Serif" font-size="10.00">ComplexToRealFFTW.h</text>
</a>
</g>
</g>
<!-- Node74&#45;&gt;Node81 -->
<g id="edge13" class="edge">
<title>Node74&#45;&gt;Node81</title>
<path fill="none" stroke="midnightblue" d="M211.09,-273.58C220.11,-265.34 230.84,-254.7 239.09,-244 253.36,-225.49 265.86,-200.88 272.02,-187.89"/>
<polygon fill="midnightblue" stroke="midnightblue" points="208.56,-271.15 203.41,-280.41 213.21,-276.38 208.56,-271.15"/>
</g>
<!-- Node82 -->
<g id="node9" class="node">
<title>Node82</title>
<g id="a_node9"><a xlink:href="RealToComplexFFTW_8h.html" target="_top" xlink:title="RealToComplexFFTW.h">
<polygon fill="none" stroke="black" points="354.59,-168.5 354.59,-187.5 475.59,-187.5 475.59,-168.5 354.59,-168.5"/>
<text text-anchor="middle" x="415.09" y="-175.5" font-family="Helvetica,sans-Serif" font-size="10.00">RealToComplexFFTW.h</text>
</a>
</g>
</g>
<!-- Node74&#45;&gt;Node82 -->
<g id="edge14" class="edge">
<title>Node74&#45;&gt;Node82</title>
<path fill="none" stroke="midnightblue" d="M219.57,-275.88C265.59,-253.08 359.08,-206.75 397.75,-187.59"/>
<polygon fill="midnightblue" stroke="midnightblue" points="217.92,-272.79 210.51,-280.37 221.02,-279.06 217.92,-272.79"/>
</g>
<!-- Node75&#45;&gt;Node76 -->
<g id="edge2" class="edge">
<title>Node75&#45;&gt;Node76</title>
<path fill="none" stroke="midnightblue" d="M167.26,-219.59C148.03,-209.61 122.35,-196.27 105.76,-187.65"/>
<polygon fill="midnightblue" stroke="midnightblue" points="165.89,-222.82 176.38,-224.32 169.12,-216.61 165.89,-222.82"/>
</g>
<!-- Node75&#45;&gt;Node77 -->
<g id="edge11" class="edge">
<title>Node75&#45;&gt;Node77</title>
<path fill="none" stroke="midnightblue" d="M192.07,-214.35C190.76,-190.25 188.53,-149.31 187.56,-131.59"/>
<polygon fill="midnightblue" stroke="midnightblue" points="188.58,-214.57 192.62,-224.37 195.57,-214.19 188.58,-214.57"/>
</g>
<!-- Node75&#45;&gt;Node81 -->
<g id="edge7" class="edge">
<title>Node75&#45;&gt;Node81</title>
<path fill="none" stroke="midnightblue" d="M215.19,-218.62C230.35,-208.76 249.97,-195.99 262.79,-187.65"/>
<polygon fill="midnightblue" stroke="midnightblue" points="212.9,-215.94 206.43,-224.32 216.72,-221.8 212.9,-215.94"/>
</g>
<!-- Node75&#45;&gt;Node82 -->
<g id="edge9" class="edge">
<title>Node75&#45;&gt;Node82</title>
<path fill="none" stroke="midnightblue" d="M238.21,-222.02C280.15,-211.82 341.74,-196.84 380.08,-187.52"/>
<polygon fill="midnightblue" stroke="midnightblue" points="237.16,-218.68 228.27,-224.44 238.81,-225.48 237.16,-218.68"/>
</g>
<!-- Node76&#45;&gt;Node77 -->
<g id="edge3" class="edge">
<title>Node76&#45;&gt;Node77</title>
<path fill="none" stroke="midnightblue" d="M113.68,-163.45C131.77,-153.48 155.82,-140.23 171.38,-131.65"/>
<polygon fill="midnightblue" stroke="midnightblue" points="111.9,-160.43 104.84,-168.32 115.28,-166.56 111.9,-160.43"/>
</g>
<!-- Node78 -->
<g id="node5" class="node">
<title>Node78</title>
<g id="a_node5"><a xlink:href="fft_8inl.html" target="_top" xlink:title="fft.inl">
<polygon fill="none" stroke="black" points="168.09,-56.5 168.09,-75.5 206.09,-75.5 206.09,-56.5 168.09,-56.5"/>
<text text-anchor="middle" x="187.09" y="-63.5" font-family="Helvetica,sans-Serif" font-size="10.00">fft.inl</text>
</a>
</g>
</g>
<!-- Node77&#45;&gt;Node78 -->
<g id="edge4" class="edge">
<title>Node77&#45;&gt;Node78</title>
<path fill="none" stroke="midnightblue" d="M187.09,-101.8C187.09,-92.91 187.09,-82.78 187.09,-75.75"/>
<polygon fill="midnightblue" stroke="midnightblue" points="183.59,-102.08 187.09,-112.08 190.59,-102.08 183.59,-102.08"/>
</g>
<!-- Node79 -->
<g id="node6" class="node">
<title>Node79</title>
<g id="a_node6"><a xlink:href="fft_8cpp.html" target="_top" xlink:title="fft.cpp">
<polygon fill="none" stroke="black" points="135.09,-0.5 135.09,-19.5 179.09,-19.5 179.09,-0.5 135.09,-0.5"/>
<text text-anchor="middle" x="157.09" y="-7.5" font-family="Helvetica,sans-Serif" font-size="10.00">fft.cpp</text>
</a>
</g>
</g>
<!-- Node78&#45;&gt;Node79 -->
<g id="edge5" class="edge">
<title>Node78&#45;&gt;Node79</title>
<path fill="none" stroke="midnightblue" d="M177.24,-47.27C172.12,-38.05 166.07,-27.17 161.95,-19.75"/>
<polygon fill="midnightblue" stroke="midnightblue" points="174.22,-49.04 182.14,-56.08 180.34,-45.64 174.22,-49.04"/>
</g>
<!-- Node80 -->
<g id="node7" class="node">
<title>Node80</title>
<g id="a_node7"><a xlink:href="fft_8cu.html" target="_top" xlink:title="fft.cu">
<polygon fill="none" stroke="black" points="197.59,-0.5 197.59,-19.5 236.59,-19.5 236.59,-0.5 197.59,-0.5"/>
<text text-anchor="middle" x="217.09" y="-7.5" font-family="Helvetica,sans-Serif" font-size="10.00">fft.cu</text>
</a>
</g>
</g>
<!-- Node78&#45;&gt;Node80 -->
<g id="edge6" class="edge">
<title>Node78&#45;&gt;Node80</title>
<path fill="none" stroke="midnightblue" d="M196.94,-47.27C202.06,-38.05 208.11,-27.17 212.23,-19.75"/>
<polygon fill="midnightblue" stroke="midnightblue" points="193.84,-45.64 192.04,-56.08 199.96,-49.04 193.84,-45.64"/>
</g>
<!-- Node81&#45;&gt;Node77 -->
<g id="edge8" class="edge">
<title>Node81&#45;&gt;Node77</title>
<path fill="none" stroke="midnightblue" d="M252.85,-162.9C236.53,-153 215.22,-140.07 201.35,-131.65"/>
<polygon fill="midnightblue" stroke="midnightblue" points="251.43,-166.13 261.79,-168.32 255.06,-160.14 251.43,-166.13"/>
</g>
<!-- Node82&#45;&gt;Node77 -->
<g id="edge10" class="edge">
<title>Node82&#45;&gt;Node77</title>
<path fill="none" stroke="midnightblue" d="M369.02,-166.09C321.98,-154.95 250.64,-138.05 212.79,-129.09"/>
<polygon fill="midnightblue" stroke="midnightblue" points="368.43,-169.54 378.96,-168.44 370.04,-162.73 368.43,-169.54"/>
</g>
</g>
</svg>
