<?xml version="1.0" encoding="UTF-8" standalone="no"?>
<!DOCTYPE svg PUBLIC "-//W3C//DTD SVG 1.1//EN"
 "http://www.w3.org/Graphics/SVG/1.1/DTD/svg11.dtd">
<!-- Generated by graphviz version 2.38.0 (20140413.2041)
 -->
<!-- Title: ZemachFunctions.h Pages: 1 -->
<svg width="180pt" height="140pt"
 viewBox="0.00 0.00 180.00 140.00" xmlns="http://www.w3.org/2000/svg" xmlns:xlink="http://www.w3.org/1999/xlink">
<g id="graph0" class="graph" transform="scale(1 1) rotate(0) translate(4 136)">
<title>ZemachFunctions.h</title>
<!-- Node57 -->
<g id="node1" class="node"><title>Node57</title>
<polygon fill="#bfbfbf" stroke="black" points="35.5,-112.5 35.5,-131.5 138.5,-131.5 138.5,-112.5 35.5,-112.5"/>
<text text-anchor="middle" x="87" y="-119.5" font-family="Helvetica,sans-Serif" font-size="10.00">ZemachFunctions.h</text>
</g>
<!-- Node58 -->
<g id="node2" class="node"><title>Node58</title>
<g id="a_node2"><a xlink:href="dalitz__plot_8inl.html" target="_top" xlink:title="dalitz_plot.inl">
<polygon fill="none" stroke="black" points="50,-56.5 50,-75.5 124,-75.5 124,-56.5 50,-56.5"/>
<text text-anchor="middle" x="87" y="-63.5" font-family="Helvetica,sans-Serif" font-size="10.00">dalitz_plot.inl</text>
</a>
</g>
</g>
<!-- Node57&#45;&gt;Node58 -->
<g id="edge1" class="edge"><title>Node57&#45;&gt;Node58</title>
<path fill="none" stroke="midnightblue" d="M87,-101.805C87,-92.9102 87,-82.7798 87,-75.7511"/>
<polygon fill="midnightblue" stroke="midnightblue" points="83.5001,-102.083 87,-112.083 90.5001,-102.083 83.5001,-102.083"/>
</g>
<!-- Node59 -->
<g id="node3" class="node"><title>Node59</title>
<g id="a_node3"><a xlink:href="dalitz__plot_8cpp.html" target="_top" xlink:title="dalitz_plot.cpp">
<polygon fill="none" stroke="black" points="0,-0.5 0,-19.5 80,-19.5 80,-0.5 0,-0.5"/>
<text text-anchor="middle" x="40" y="-7.5" font-family="Helvetica,sans-Serif" font-size="10.00">dalitz_plot.cpp</text>
</a>
</g>
</g>
<!-- Node58&#45;&gt;Node59 -->
<g id="edge2" class="edge"><title>Node58&#45;&gt;Node59</title>
<path fill="none" stroke="midnightblue" d="M72.5792,-48.4314C64.3419,-38.9673 54.3461,-27.4827 47.6167,-19.7511"/>
<polygon fill="midnightblue" stroke="midnightblue" points="70.0336,-50.8378 79.2389,-56.083 75.3137,-46.2421 70.0336,-50.8378"/>
</g>
<!-- Node60 -->
<g id="node4" class="node"><title>Node60</title>
<g id="a_node4"><a xlink:href="dalitz__plot_8cu.html" target="_top" xlink:title="dalitz_plot.cu">
<polygon fill="none" stroke="black" points="98,-0.5 98,-19.5 172,-19.5 172,-0.5 98,-0.5"/>
<text text-anchor="middle" x="135" y="-7.5" font-family="Helvetica,sans-Serif" font-size="10.00">dalitz_plot.cu</text>
</a>
</g>
</g>
<!-- Node58&#45;&gt;Node60 -->
<g id="edge3" class="edge"><title>Node58&#45;&gt;Node60</title>
<path fill="none" stroke="midnightblue" d="M101.728,-48.4314C110.14,-38.9673 120.349,-27.4827 127.221,-19.7511"/>
<polygon fill="midnightblue" stroke="midnightblue" points="98.954,-46.2836 94.9262,-56.083 104.186,-50.9342 98.954,-46.2836"/>
</g>
</g>
</svg>
