<?xml version="1.0" encoding="UTF-8" standalone="no"?>
<!DOCTYPE svg PUBLIC "-//W3C//DTD SVG 1.1//EN"
 "http://www.w3.org/Graphics/SVG/1.1/DTD/svg11.dtd">
<!-- Generated by graphviz version 5.0.0 (0)
 -->
<!-- Title: Zip.h Pages: 1 -->
<!--zoomable 308 -->
<svg id="main" version="1.1" xmlns="http://www.w3.org/2000/svg" xmlns:xlink="http://www.w3.org/1999/xlink" xml:space="preserve" onload="init(evt)">
<style type="text/css"><![CDATA[
.edge:hover path { stroke: red; }
.edge:hover polygon { stroke: red; fill: red; }
]]></style>
<script type="text/javascript"><![CDATA[
var edges = document.getElementsByTagName('g');
if (edges && edges.length) {
  for (var i=0;i<edges.length;i++) {
    if (edges[i].id.substr(0,4)=='edge') {
      edges[i].setAttribute('class','edge');
    }
  }
}
]]></script>
        <defs>
                <circle id="rim" cx="0" cy="0" r="7"/>
                <circle id="rim2" cx="0" cy="0" r="3.5"/>
                <g id="zoomPlus">
                        <use xlink:href="#rim" fill="#404040">
                                <set attributeName="fill" to="#808080" begin="zoomplus.mouseover" end="zoomplus.mouseout"/>
                        </use>
                        <path d="M-4,0h8M0,-4v8" fill="none" stroke="white" stroke-width="1.5" pointer-events="none"/>
                </g>
                <g id="zoomMin">
                        <use xlink:href="#rim" fill="#404040">
                                <set attributeName="fill" to="#808080" begin="zoomminus.mouseover" end="zoomminus.mouseout"/>
                        </use>
                        <path d="M-4,0h8" fill="none" stroke="white" stroke-width="1.5" pointer-events="none"/>
                </g>
                <g id="dirArrow">
                        <path fill="none" stroke="white" stroke-width="1.5" d="M0,-3.0v7 M-2.5,-0.5L0,-3.0L2.5,-0.5"/>
                </g>
               <g id="resetDef">
                       <use xlink:href="#rim2" fill="#404040">
                               <set attributeName="fill" to="#808080" begin="reset.mouseover" end="reset.mouseout"/>
                       </use>
               </g>
        </defs>

<script type="text/javascript">
var viewWidth = 1451;
var viewHeight = 308;
var sectionId = 'dynsection-1';
</script>
<script xlink:href="svgpan.js"/>
<svg id="graph" class="graph">
<g id="viewport">
<title>Zip.h</title>
<!-- Node85 -->
<g id="node1" class="node">
<title>Node85</title>
<polygon fill="#bfbfbf" stroke="black" points="619,-280.5 619,-299.5 657,-299.5 657,-280.5 619,-280.5"/>
<text text-anchor="middle" x="638" y="-287.5" font-family="Helvetica,sans-Serif" font-size="10.00">Zip.h</text>
</g>
<!-- Node86 -->
<g id="node2" class="node">
<title>Node86</title>
<g id="a_node2"><a xlink:href="Convolution_8h.html" target="_top" xlink:title="Convolution.h">
<polygon fill="none" stroke="black" points="201.5,-168.5 201.5,-187.5 278.5,-187.5 278.5,-168.5 201.5,-168.5"/>
<text text-anchor="middle" x="240" y="-175.5" font-family="Helvetica,sans-Serif" font-size="10.00">Convolution.h</text>
</a>
</g>
</g>
<!-- Node85&#45;&gt;Node86 -->
<g id="edge1" class="edge">
<title>Node85&#45;&gt;Node86</title>
<path fill="none" stroke="midnightblue" d="M608.48,-289.44C529.17,-290.04 313.87,-287.5 261,-244 243.97,-229.98 240.6,-202.02 240.03,-187.78"/>
<polygon fill="midnightblue" stroke="midnightblue" points="608.77,-292.94 618.74,-289.34 608.71,-285.94 608.77,-292.94"/>
</g>
<!-- Node94 -->
<g id="node10" class="node">
<title>Node94</title>
<g id="a_node10"><a xlink:href="Convolution_8inl.html" target="_top" xlink:title="Convolution.inl">
<polygon fill="none" stroke="black" points="270.5,-224.5 270.5,-243.5 351.5,-243.5 351.5,-224.5 270.5,-224.5"/>
<text text-anchor="middle" x="311" y="-231.5" font-family="Helvetica,sans-Serif" font-size="10.00">Convolution.inl</text>
</a>
</g>
</g>
<!-- Node85&#45;&gt;Node94 -->
<g id="edge10" class="edge">
<title>Node85&#45;&gt;Node94</title>
<path fill="none" stroke="midnightblue" d="M608.96,-284.45C558.49,-276.5 451.34,-259.47 361,-244 357.96,-243.48 354.81,-242.93 351.65,-242.38"/>
<polygon fill="midnightblue" stroke="midnightblue" points="608.42,-287.91 618.84,-286 609.5,-280.99 608.42,-287.91"/>
</g>
<!-- Node95 -->
<g id="node11" class="node">
<title>Node95</title>
<g id="a_node11"><a xlink:href="cufft_8inl.html" target="_top" xlink:title="cufft.inl">
<polygon fill="none" stroke="black" points="370.5,-224.5 370.5,-243.5 419.5,-243.5 419.5,-224.5 370.5,-224.5"/>
<text text-anchor="middle" x="395" y="-231.5" font-family="Helvetica,sans-Serif" font-size="10.00">cufft.inl</text>
</a>
</g>
</g>
<!-- Node85&#45;&gt;Node95 -->
<g id="edge12" class="edge">
<title>Node85&#45;&gt;Node95</title>
<path fill="none" stroke="midnightblue" d="M609.13,-282.59C560.93,-271.87 464.89,-250.53 419.65,-240.48"/>
<polygon fill="midnightblue" stroke="midnightblue" points="608.41,-286.01 618.93,-284.76 609.93,-279.18 608.41,-286.01"/>
</g>
<!-- Node98 -->
<g id="node14" class="node">
<title>Node98</title>
<g id="a_node14"><a xlink:href="fft_8inl.html" target="_top" xlink:title="fft.inl">
<polygon fill="none" stroke="black" points="501,-224.5 501,-243.5 539,-243.5 539,-224.5 501,-224.5"/>
<text text-anchor="middle" x="520" y="-231.5" font-family="Helvetica,sans-Serif" font-size="10.00">fft.inl</text>
</a>
</g>
</g>
<!-- Node85&#45;&gt;Node98 -->
<g id="edge15" class="edge">
<title>Node85&#45;&gt;Node98</title>
<path fill="none" stroke="midnightblue" d="M610.1,-276.23C588.03,-266.13 557.82,-252.31 538.61,-243.52"/>
<polygon fill="midnightblue" stroke="midnightblue" points="608.75,-279.46 619.3,-280.44 611.67,-273.1 608.75,-279.46"/>
</g>
<!-- Node101 -->
<g id="node17" class="node">
<title>Node101</title>
<g id="a_node17"><a xlink:href="basic__fit_8inl.html" target="_top" xlink:title="basic_fit.inl">
<polygon fill="none" stroke="black" points="605,-224.5 605,-243.5 671,-243.5 671,-224.5 605,-224.5"/>
<text text-anchor="middle" x="638" y="-231.5" font-family="Helvetica,sans-Serif" font-size="10.00">basic_fit.inl</text>
</a>
</g>
</g>
<!-- Node85&#45;&gt;Node101 -->
<g id="edge18" class="edge">
<title>Node85&#45;&gt;Node101</title>
<path fill="none" stroke="midnightblue" d="M638,-269.8C638,-260.91 638,-250.78 638,-243.75"/>
<polygon fill="midnightblue" stroke="midnightblue" points="634.5,-270.08 638,-280.08 641.5,-270.08 634.5,-270.08"/>
</g>
<!-- Node104 -->
<g id="node20" class="node">
<title>Node104</title>
<g id="a_node20"><a xlink:href="range__semantics_8inl.html" target="_top" xlink:title="range_semantics.inl">
<polygon fill="none" stroke="black" points="737,-224.5 737,-243.5 841,-243.5 841,-224.5 737,-224.5"/>
<text text-anchor="middle" x="789" y="-231.5" font-family="Helvetica,sans-Serif" font-size="10.00">range_semantics.inl</text>
</a>
</g>
</g>
<!-- Node85&#45;&gt;Node104 -->
<g id="edge21" class="edge">
<title>Node85&#45;&gt;Node104</title>
<path fill="none" stroke="midnightblue" d="M666.91,-278.66C695.4,-268.47 738.43,-253.09 765.06,-243.56"/>
<polygon fill="midnightblue" stroke="midnightblue" points="665.36,-275.5 657.12,-282.16 667.72,-282.09 665.36,-275.5"/>
</g>
<!-- Node107 -->
<g id="node23" class="node">
<title>Node107</title>
<g id="a_node23"><a xlink:href="zipping__iterables_8inl.html" target="_top" xlink:title="zipping_iterables.inl">
<polygon fill="none" stroke="black" points="987,-224.5 987,-243.5 1089,-243.5 1089,-224.5 987,-224.5"/>
<text text-anchor="middle" x="1038" y="-231.5" font-family="Helvetica,sans-Serif" font-size="10.00">zipping_iterables.inl</text>
</a>
</g>
</g>
<!-- Node85&#45;&gt;Node107 -->
<g id="edge24" class="edge">
<title>Node85&#45;&gt;Node107</title>
<path fill="none" stroke="midnightblue" d="M667.35,-285.04C734.89,-275.92 902.03,-253.36 986.85,-241.9"/>
<polygon fill="midnightblue" stroke="midnightblue" points="666.47,-281.63 657.02,-286.43 667.4,-288.56 666.47,-281.63"/>
</g>
<!-- Node110 -->
<g id="node26" class="node">
<title>Node110</title>
<g id="a_node26"><a xlink:href="booststrapping_8inl.html" target="_top" xlink:title="booststrapping.inl">
<polygon fill="none" stroke="black" points="1170.5,-224.5 1170.5,-243.5 1263.5,-243.5 1263.5,-224.5 1170.5,-224.5"/>
<text text-anchor="middle" x="1217" y="-231.5" font-family="Helvetica,sans-Serif" font-size="10.00">booststrapping.inl</text>
</a>
</g>
</g>
<!-- Node85&#45;&gt;Node110 -->
<g id="edge27" class="edge">
<title>Node85&#45;&gt;Node110</title>
<path fill="none" stroke="midnightblue" d="M667.48,-286.25C761.53,-277.48 1055.08,-250.1 1170.1,-239.37"/>
<polygon fill="midnightblue" stroke="midnightblue" points="666.9,-282.79 657.26,-287.2 667.55,-289.76 666.9,-282.79"/>
</g>
<!-- Node113 -->
<g id="node29" class="node">
<title>Node113</title>
<g id="a_node29"><a xlink:href="fit__gaussian_8C.html" target="_top" xlink:title="fit_gaussian.C">
<polygon fill="none" stroke="black" points="1282,-224.5 1282,-243.5 1362,-243.5 1362,-224.5 1282,-224.5"/>
<text text-anchor="middle" x="1322" y="-231.5" font-family="Helvetica,sans-Serif" font-size="10.00">fit_gaussian.C</text>
</a>
</g>
</g>
<!-- Node85&#45;&gt;Node113 -->
<g id="edge30" class="edge">
<title>Node85&#45;&gt;Node113</title>
<path fill="none" stroke="midnightblue" d="M667.07,-288.09C757.28,-285.01 1040.42,-273.51 1273,-244 1275.92,-243.63 1278.92,-243.2 1281.95,-242.73"/>
<polygon fill="midnightblue" stroke="midnightblue" points="666.91,-284.59 657.04,-288.42 667.15,-291.59 666.91,-284.59"/>
</g>
<!-- Node87 -->
<g id="node3" class="node">
<title>Node87</title>
<g id="a_node3"><a xlink:href="ConvolutionFunctor_8h.html" target="_top" xlink:title="ConvolutionFunctor.h">
<polygon fill="none" stroke="black" points="227.5,-112.5 227.5,-131.5 336.5,-131.5 336.5,-112.5 227.5,-112.5"/>
<text text-anchor="middle" x="282" y="-119.5" font-family="Helvetica,sans-Serif" font-size="10.00">ConvolutionFunctor.h</text>
</a>
</g>
</g>
<!-- Node86&#45;&gt;Node87 -->
<g id="edge2" class="edge">
<title>Node86&#45;&gt;Node87</title>
<path fill="none" stroke="midnightblue" d="M253.11,-160.14C260.43,-150.74 269.24,-139.4 275.19,-131.75"/>
<polygon fill="midnightblue" stroke="midnightblue" points="250.31,-158.04 246.94,-168.08 255.84,-162.34 250.31,-158.04"/>
</g>
<!-- Node88 -->
<g id="node4" class="node">
<title>Node88</title>
<g id="a_node4"><a xlink:href="convolute__functions_8inl.html" target="_top" xlink:title="convolute_functions.inl">
<polygon fill="none" stroke="black" points="141,-56.5 141,-75.5 257,-75.5 257,-56.5 141,-56.5"/>
<text text-anchor="middle" x="199" y="-63.5" font-family="Helvetica,sans-Serif" font-size="10.00">convolute_functions.inl</text>
</a>
</g>
</g>
<!-- Node86&#45;&gt;Node88 -->
<g id="edge9" class="edge">
<title>Node86&#45;&gt;Node88</title>
<path fill="none" stroke="midnightblue" d="M230.48,-159.3C226.31,-151.14 221.57,-141.22 218,-132 210.36,-112.27 204.07,-88.15 201.01,-75.57"/>
<polygon fill="midnightblue" stroke="midnightblue" points="227.42,-161 235.16,-168.24 233.62,-157.75 227.42,-161"/>
</g>
<!-- Node87&#45;&gt;Node88 -->
<g id="edge3" class="edge">
<title>Node87&#45;&gt;Node88</title>
<path fill="none" stroke="midnightblue" d="M259.9,-106.62C244.74,-96.76 225.12,-83.99 212.3,-75.65"/>
<polygon fill="midnightblue" stroke="midnightblue" points="258.37,-109.8 268.66,-112.32 262.19,-103.94 258.37,-109.8"/>
</g>
<!-- Node91 -->
<g id="node7" class="node">
<title>Node91</title>
<g id="a_node7"><a xlink:href="fit__convoluted__pdfs_8inl.html" target="_top" xlink:title="fit_convoluted_pdfs.inl">
<polygon fill="none" stroke="black" points="279,-56.5 279,-75.5 393,-75.5 393,-56.5 279,-56.5"/>
<text text-anchor="middle" x="336" y="-63.5" font-family="Helvetica,sans-Serif" font-size="10.00">fit_convoluted_pdfs.inl</text>
</a>
</g>
</g>
<!-- Node87&#45;&gt;Node91 -->
<g id="edge6" class="edge">
<title>Node87&#45;&gt;Node91</title>
<path fill="none" stroke="midnightblue" d="M298,-105C307.57,-95.43 319.36,-83.64 327.25,-75.75"/>
<polygon fill="midnightblue" stroke="midnightblue" points="295.51,-102.54 290.92,-112.08 300.46,-107.49 295.51,-102.54"/>
</g>
<!-- Node89 -->
<g id="node5" class="node">
<title>Node89</title>
<g id="a_node5"><a xlink:href="convolute__functions_8cpp.html" target="_top" xlink:title="convolute_functions.cpp">
<polygon fill="none" stroke="black" points="0,-0.5 0,-19.5 122,-19.5 122,-0.5 0,-0.5"/>
<text text-anchor="middle" x="61" y="-7.5" font-family="Helvetica,sans-Serif" font-size="10.00">convolute_functions.cpp</text>
</a>
</g>
</g>
<!-- Node88&#45;&gt;Node89 -->
<g id="edge4" class="edge">
<title>Node88&#45;&gt;Node89</title>
<path fill="none" stroke="midnightblue" d="M167.75,-52.77C141.83,-42.63 105.64,-28.47 82.76,-19.52"/>
<polygon fill="midnightblue" stroke="midnightblue" points="166.55,-56.06 177.13,-56.44 169.1,-49.54 166.55,-56.06"/>
</g>
<!-- Node90 -->
<g id="node6" class="node">
<title>Node90</title>
<g id="a_node6"><a xlink:href="convolute__functions_8cu.html" target="_top" xlink:title="convolute_functions.cu">
<polygon fill="none" stroke="black" points="140.5,-0.5 140.5,-19.5 257.5,-19.5 257.5,-0.5 140.5,-0.5"/>
<text text-anchor="middle" x="199" y="-7.5" font-family="Helvetica,sans-Serif" font-size="10.00">convolute_functions.cu</text>
</a>
</g>
</g>
<!-- Node88&#45;&gt;Node90 -->
<g id="edge5" class="edge">
<title>Node88&#45;&gt;Node90</title>
<path fill="none" stroke="midnightblue" d="M199,-45.8C199,-36.91 199,-26.78 199,-19.75"/>
<polygon fill="midnightblue" stroke="midnightblue" points="195.5,-46.08 199,-56.08 202.5,-46.08 195.5,-46.08"/>
</g>
<!-- Node92 -->
<g id="node8" class="node">
<title>Node92</title>
<g id="a_node8"><a xlink:href="fit__convoluted__pdfs_8cpp.html" target="_top" xlink:title="fit_convoluted_pdfs.cpp">
<polygon fill="none" stroke="black" points="276,-0.5 276,-19.5 396,-19.5 396,-0.5 276,-0.5"/>
<text text-anchor="middle" x="336" y="-7.5" font-family="Helvetica,sans-Serif" font-size="10.00">fit_convoluted_pdfs.cpp</text>
</a>
</g>
</g>
<!-- Node91&#45;&gt;Node92 -->
<g id="edge7" class="edge">
<title>Node91&#45;&gt;Node92</title>
<path fill="none" stroke="midnightblue" d="M336,-45.8C336,-36.91 336,-26.78 336,-19.75"/>
<polygon fill="midnightblue" stroke="midnightblue" points="332.5,-46.08 336,-56.08 339.5,-46.08 332.5,-46.08"/>
</g>
<!-- Node93 -->
<g id="node9" class="node">
<title>Node93</title>
<g id="a_node9"><a xlink:href="fit__convoluted__pdfs_8cu.html" target="_top" xlink:title="fit_convoluted_pdfs.cu">
<polygon fill="none" stroke="black" points="414.5,-0.5 414.5,-19.5 529.5,-19.5 529.5,-0.5 414.5,-0.5"/>
<text text-anchor="middle" x="472" y="-7.5" font-family="Helvetica,sans-Serif" font-size="10.00">fit_convoluted_pdfs.cu</text>
</a>
</g>
</g>
<!-- Node91&#45;&gt;Node93 -->
<g id="edge8" class="edge">
<title>Node91&#45;&gt;Node93</title>
<path fill="none" stroke="midnightblue" d="M367.13,-52.64C392.66,-42.5 428.11,-28.43 450.55,-19.52"/>
<polygon fill="midnightblue" stroke="midnightblue" points="365.55,-49.5 357.55,-56.44 368.14,-56.01 365.55,-49.5"/>
</g>
<!-- Node94&#45;&gt;Node86 -->
<g id="edge11" class="edge">
<title>Node94&#45;&gt;Node86</title>
<path fill="none" stroke="midnightblue" d="M291.41,-218.1C278.63,-208.38 262.39,-196.03 251.61,-187.83"/>
<polygon fill="midnightblue" stroke="midnightblue" points="289.51,-221.06 299.59,-224.32 293.75,-215.48 289.51,-221.06"/>
</g>
<!-- Node96 -->
<g id="node12" class="node">
<title>Node96</title>
<g id="a_node12"><a xlink:href="cufft_8cpp.html" target="_top" xlink:title="cufft.cpp">
<polygon fill="none" stroke="black" points="296.5,-168.5 296.5,-187.5 351.5,-187.5 351.5,-168.5 296.5,-168.5"/>
<text text-anchor="middle" x="324" y="-175.5" font-family="Helvetica,sans-Serif" font-size="10.00">cufft.cpp</text>
</a>
</g>
</g>
<!-- Node95&#45;&gt;Node96 -->
<g id="edge13" class="edge">
<title>Node95&#45;&gt;Node96</title>
<path fill="none" stroke="midnightblue" d="M375.41,-218.1C362.63,-208.38 346.39,-196.03 335.61,-187.83"/>
<polygon fill="midnightblue" stroke="midnightblue" points="373.51,-221.06 383.59,-224.32 377.75,-215.48 373.51,-221.06"/>
</g>
<!-- Node97 -->
<g id="node13" class="node">
<title>Node97</title>
<g id="a_node13"><a xlink:href="cufft_8cu.html" target="_top" xlink:title="cufft.cu">
<polygon fill="none" stroke="black" points="370,-168.5 370,-187.5 420,-187.5 420,-168.5 370,-168.5"/>
<text text-anchor="middle" x="395" y="-175.5" font-family="Helvetica,sans-Serif" font-size="10.00">cufft.cu</text>
</a>
</g>
</g>
<!-- Node95&#45;&gt;Node97 -->
<g id="edge14" class="edge">
<title>Node95&#45;&gt;Node97</title>
<path fill="none" stroke="midnightblue" d="M395,-213.8C395,-204.91 395,-194.78 395,-187.75"/>
<polygon fill="midnightblue" stroke="midnightblue" points="391.5,-214.08 395,-224.08 398.5,-214.08 391.5,-214.08"/>
</g>
<!-- Node99 -->
<g id="node15" class="node">
<title>Node99</title>
<g id="a_node15"><a xlink:href="fft_8cpp.html" target="_top" xlink:title="fft.cpp">
<polygon fill="none" stroke="black" points="438,-168.5 438,-187.5 482,-187.5 482,-168.5 438,-168.5"/>
<text text-anchor="middle" x="460" y="-175.5" font-family="Helvetica,sans-Serif" font-size="10.00">fft.cpp</text>
</a>
</g>
</g>
<!-- Node98&#45;&gt;Node99 -->
<g id="edge16" class="edge">
<title>Node98&#45;&gt;Node99</title>
<path fill="none" stroke="midnightblue" d="M502.82,-217.54C492.12,-207.91 478.74,-195.87 469.82,-187.83"/>
<polygon fill="midnightblue" stroke="midnightblue" points="500.59,-220.24 510.36,-224.32 505.27,-215.03 500.59,-220.24"/>
</g>
<!-- Node100 -->
<g id="node16" class="node">
<title>Node100</title>
<g id="a_node16"><a xlink:href="fft_8cu.html" target="_top" xlink:title="fft.cu">
<polygon fill="none" stroke="black" points="500.5,-168.5 500.5,-187.5 539.5,-187.5 539.5,-168.5 500.5,-168.5"/>
<text text-anchor="middle" x="520" y="-175.5" font-family="Helvetica,sans-Serif" font-size="10.00">fft.cu</text>
</a>
</g>
</g>
<!-- Node98&#45;&gt;Node100 -->
<g id="edge17" class="edge">
<title>Node98&#45;&gt;Node100</title>
<path fill="none" stroke="midnightblue" d="M520,-213.8C520,-204.91 520,-194.78 520,-187.75"/>
<polygon fill="midnightblue" stroke="midnightblue" points="516.5,-214.08 520,-224.08 523.5,-214.08 516.5,-214.08"/>
</g>
<!-- Node102 -->
<g id="node18" class="node">
<title>Node102</title>
<g id="a_node18"><a xlink:href="basic__fit_8cpp.html" target="_top" xlink:title="basic_fit.cpp">
<polygon fill="none" stroke="black" points="558,-168.5 558,-187.5 630,-187.5 630,-168.5 558,-168.5"/>
<text text-anchor="middle" x="594" y="-175.5" font-family="Helvetica,sans-Serif" font-size="10.00">basic_fit.cpp</text>
</a>
</g>
</g>
<!-- Node101&#45;&gt;Node102 -->
<g id="edge19" class="edge">
<title>Node101&#45;&gt;Node102</title>
<path fill="none" stroke="midnightblue" d="M624.27,-216.14C616.6,-206.74 607.37,-195.4 601.13,-187.75"/>
<polygon fill="midnightblue" stroke="midnightblue" points="621.7,-218.54 630.73,-224.08 627.13,-214.12 621.7,-218.54"/>
</g>
<!-- Node103 -->
<g id="node19" class="node">
<title>Node103</title>
<g id="a_node19"><a xlink:href="basic__fit_8cu.html" target="_top" xlink:title="basic_fit.cu">
<polygon fill="none" stroke="black" points="648.5,-168.5 648.5,-187.5 715.5,-187.5 715.5,-168.5 648.5,-168.5"/>
<text text-anchor="middle" x="682" y="-175.5" font-family="Helvetica,sans-Serif" font-size="10.00">basic_fit.cu</text>
</a>
</g>
</g>
<!-- Node101&#45;&gt;Node103 -->
<g id="edge20" class="edge">
<title>Node101&#45;&gt;Node103</title>
<path fill="none" stroke="midnightblue" d="M651.73,-216.14C659.4,-206.74 668.63,-195.4 674.87,-187.75"/>
<polygon fill="midnightblue" stroke="midnightblue" points="648.87,-214.12 645.27,-224.08 654.3,-218.54 648.87,-214.12"/>
</g>
<!-- Node105 -->
<g id="node21" class="node">
<title>Node105</title>
<g id="a_node21"><a xlink:href="range__semantics_8cpp.html" target="_top" xlink:title="range_semantics.cpp">
<polygon fill="none" stroke="black" points="734,-168.5 734,-187.5 844,-187.5 844,-168.5 734,-168.5"/>
<text text-anchor="middle" x="789" y="-175.5" font-family="Helvetica,sans-Serif" font-size="10.00">range_semantics.cpp</text>
</a>
</g>
</g>
<!-- Node104&#45;&gt;Node105 -->
<g id="edge22" class="edge">
<title>Node104&#45;&gt;Node105</title>
<path fill="none" stroke="midnightblue" d="M789,-213.8C789,-204.91 789,-194.78 789,-187.75"/>
<polygon fill="midnightblue" stroke="midnightblue" points="785.5,-214.08 789,-224.08 792.5,-214.08 785.5,-214.08"/>
</g>
<!-- Node106 -->
<g id="node22" class="node">
<title>Node106</title>
<g id="a_node22"><a xlink:href="range__semantics_8cu.html" target="_top" xlink:title="range_semantics.cu">
<polygon fill="none" stroke="black" points="862,-168.5 862,-187.5 966,-187.5 966,-168.5 862,-168.5"/>
<text text-anchor="middle" x="914" y="-175.5" font-family="Helvetica,sans-Serif" font-size="10.00">range_semantics.cu</text>
</a>
</g>
</g>
<!-- Node104&#45;&gt;Node106 -->
<g id="edge23" class="edge">
<title>Node104&#45;&gt;Node106</title>
<path fill="none" stroke="midnightblue" d="M818.24,-220.37C841.65,-210.26 873.84,-196.35 894.29,-187.52"/>
<polygon fill="midnightblue" stroke="midnightblue" points="816.6,-217.26 808.81,-224.44 819.37,-223.69 816.6,-217.26"/>
</g>
<!-- Node108 -->
<g id="node24" class="node">
<title>Node108</title>
<g id="a_node24"><a xlink:href="zipping__iterables_8cpp.html" target="_top" xlink:title="zipping_iterables.cpp">
<polygon fill="none" stroke="black" points="984,-168.5 984,-187.5 1092,-187.5 1092,-168.5 984,-168.5"/>
<text text-anchor="middle" x="1038" y="-175.5" font-family="Helvetica,sans-Serif" font-size="10.00">zipping_iterables.cpp</text>
</a>
</g>
</g>
<!-- Node107&#45;&gt;Node108 -->
<g id="edge25" class="edge">
<title>Node107&#45;&gt;Node108</title>
<path fill="none" stroke="midnightblue" d="M1038,-213.8C1038,-204.91 1038,-194.78 1038,-187.75"/>
<polygon fill="midnightblue" stroke="midnightblue" points="1034.5,-214.08 1038,-224.08 1041.5,-214.08 1034.5,-214.08"/>
</g>
<!-- Node109 -->
<g id="node25" class="node">
<title>Node109</title>
<g id="a_node25"><a xlink:href="zipping__iterables_8cu.html" target="_top" xlink:title="zipping_iterables.cu">
<polygon fill="none" stroke="black" points="1110.5,-168.5 1110.5,-187.5 1213.5,-187.5 1213.5,-168.5 1110.5,-168.5"/>
<text text-anchor="middle" x="1162" y="-175.5" font-family="Helvetica,sans-Serif" font-size="10.00">zipping_iterables.cu</text>
</a>
</g>
</g>
<!-- Node107&#45;&gt;Node109 -->
<g id="edge26" class="edge">
<title>Node107&#45;&gt;Node109</title>
<path fill="none" stroke="midnightblue" d="M1067.01,-220.37C1090.23,-210.26 1122.16,-196.35 1142.44,-187.52"/>
<polygon fill="midnightblue" stroke="midnightblue" points="1065.42,-217.24 1057.65,-224.44 1068.21,-223.66 1065.42,-217.24"/>
</g>
<!-- Node111 -->
<g id="node27" class="node">
<title>Node111</title>
<g id="a_node27"><a xlink:href="booststrapping_8cpp.html" target="_top" xlink:title="booststrapping.cpp">
<polygon fill="none" stroke="black" points="1231.5,-168.5 1231.5,-187.5 1330.5,-187.5 1330.5,-168.5 1231.5,-168.5"/>
<text text-anchor="middle" x="1281" y="-175.5" font-family="Helvetica,sans-Serif" font-size="10.00">booststrapping.cpp</text>
</a>
</g>
</g>
<!-- Node110&#45;&gt;Node111 -->
<g id="edge28" class="edge">
<title>Node110&#45;&gt;Node111</title>
<path fill="none" stroke="midnightblue" d="M1234.99,-217.82C1246.46,-208.15 1260.91,-195.95 1270.53,-187.83"/>
<polygon fill="midnightblue" stroke="midnightblue" points="1232.67,-215.2 1227.28,-224.32 1237.18,-220.55 1232.67,-215.2"/>
</g>
<!-- Node112 -->
<g id="node28" class="node">
<title>Node112</title>
<g id="a_node28"><a xlink:href="booststrapping_8cu.html" target="_top" xlink:title="booststrapping.cu">
<polygon fill="none" stroke="black" points="1349,-168.5 1349,-187.5 1443,-187.5 1443,-168.5 1349,-168.5"/>
<text text-anchor="middle" x="1396" y="-175.5" font-family="Helvetica,sans-Serif" font-size="10.00">booststrapping.cu</text>
</a>
</g>
</g>
<!-- Node110&#45;&gt;Node112 -->
<g id="edge29" class="edge">
<title>Node110&#45;&gt;Node112</title>
<path fill="none" stroke="midnightblue" d="M1255.33,-221.44C1289.08,-211.26 1337.45,-196.66 1367.77,-187.52"/>
<polygon fill="midnightblue" stroke="midnightblue" points="1253.93,-218.2 1245.36,-224.44 1255.95,-224.91 1253.93,-218.2"/>
</g>
</g>
</svg>
        <g id="navigator" transform="translate(0 0)" fill="#404254">
                <rect fill="#f2f5e9" fill-opacity="0.5" stroke="#606060" stroke-width=".5" x="0" y="0" width="60" height="60"/>
                <use id="zoomplus" xlink:href="#zoomPlus" x="17" y="9" onmousedown="handleZoom(evt,'in')"/>
                <use id="zoomminus" xlink:href="#zoomMin" x="42" y="9" onmousedown="handleZoom(evt,'out')"/>
                <use id="reset" xlink:href="#resetDef" x="30" y="36" onmousedown="handleReset()"/>
                <g id="arrowUp" xlink:href="#dirArrow" transform="translate(30 24)" onmousedown="handlePan(0,-1)">
                  <use xlink:href="#rim" fill="#404040">
                        <set attributeName="fill" to="#808080" begin="arrowUp.mouseover" end="arrowUp.mouseout"/>
                  </use>
                  <path fill="none" stroke="white" stroke-width="1.5" d="M0,-3.0v7 M-2.5,-0.5L0,-3.0L2.5,-0.5"/>
                </g>
                <g id="arrowRight" xlink:href="#dirArrow" transform="rotate(90) translate(36 -43)" onmousedown="handlePan(1,0)">
                  <use xlink:href="#rim" fill="#404040">
                        <set attributeName="fill" to="#808080" begin="arrowRight.mouseover" end="arrowRight.mouseout"/>
                  </use>
                  <path fill="none" stroke="white" stroke-width="1.5" d="M0,-3.0v7 M-2.5,-0.5L0,-3.0L2.5,-0.5"/>
                </g>
                <g id="arrowDown" xlink:href="#dirArrow" transform="rotate(180) translate(-30 -48)" onmousedown="handlePan(0,1)">
                  <use xlink:href="#rim" fill="#404040">
                        <set attributeName="fill" to="#808080" begin="arrowDown.mouseover" end="arrowDown.mouseout"/>
                  </use>
                  <path fill="none" stroke="white" stroke-width="1.5" d="M0,-3.0v7 M-2.5,-0.5L0,-3.0L2.5,-0.5"/>
                </g>
                <g id="arrowLeft" xlink:href="#dirArrow" transform="rotate(270) translate(-36 17)" onmousedown="handlePan(-1,0)">
                  <use xlink:href="#rim" fill="#404040">
                        <set attributeName="fill" to="#808080" begin="arrowLeft.mouseover" end="arrowLeft.mouseout"/>
                  </use>
                  <path fill="none" stroke="white" stroke-width="1.5" d="M0,-3.0v7 M-2.5,-0.5L0,-3.0L2.5,-0.5"/>
                </g>
        </g>
        <svg viewBox="0 0 15 15" width="100%" height="30px" preserveAspectRatio="xMaxYMin meet">
         <g id="arrow_out" transform="scale(0.3 0.3)">
          <a xlink:href="Zip_8h__dep__incl_org.svg" target="_base">
           <rect id="button" ry="5" rx="5" y="6" x="6" height="38" width="38"
                fill="#f2f5e9" fill-opacity="0.5" stroke="#606060" stroke-width="1.0"/>
           <path id="arrow"
             d="M 11.500037,31.436501 C 11.940474,20.09759 22.043105,11.32322 32.158766,21.979434 L 37.068811,17.246167 C 37.068811,17.246167 37.088388,32 37.088388,32 L 22.160133,31.978069 C 22.160133,31.978069 26.997745,27.140456 26.997745,27.140456 C 18.528582,18.264221 13.291696,25.230495 11.500037,31.436501 z"
             style="fill:#404040;"/>
          </a>
         </g>
        </svg>
</svg>
