<?xml version="1.0" encoding="UTF-8" standalone="no"?>
<!DOCTYPE svg PUBLIC "-//W3C//DTD SVG 1.1//EN"
 "http://www.w3.org/Graphics/SVG/1.1/DTD/svg11.dtd">
<!-- Generated by graphviz version 5.0.0 (0)
 -->
<!-- Title: ZipIteratorTraits.h Pages: 1 -->
<svg width="760pt" height="198pt"
 viewBox="0.00 0.00 760.00 197.56" xmlns="http://www.w3.org/2000/svg" xmlns:xlink="http://www.w3.org/1999/xlink">
<g id="graph0" class="graph" transform="scale(1 1) rotate(0) translate(4 193.56)">
<title>ZipIteratorTraits.h</title>
<!-- Node0 -->
<g id="node1" class="node">
<title>Node0</title>
<polygon fill="#bfbfbf" stroke="black" points="431,-167.5 431,-186.5 525,-186.5 525,-167.5 431,-167.5"/>
<text text-anchor="middle" x="478" y="-174.5" font-family="Helvetica,sans-Serif" font-size="10.00">ZipIteratorTraits.h</text>
</g>
<!-- Node0&#45;&gt;Node0 -->
<g id="edge8" class="edge">
<title>Node0&#45;&gt;Node0</title>
<path fill="none" stroke="midnightblue" d="M498.3,-186.56C519.38,-192.37 543,-189.18 543,-177 543,-166.72 526.19,-162.85 508.27,-165.37"/>
<polygon fill="midnightblue" stroke="midnightblue" points="507.38,-161.98 498.3,-167.44 508.8,-168.84 507.38,-161.98"/>
</g>
<!-- Node1 -->
<g id="node2" class="node">
<title>Node1</title>
<g id="a_node2"><a xlink:href="Config_8h.html" target="_top" xlink:title="hydra/detail/Config.h">
<polygon fill="none" stroke="black" points="123.5,-100.5 123.5,-119.5 230.5,-119.5 230.5,-100.5 123.5,-100.5"/>
<text text-anchor="middle" x="177" y="-107.5" font-family="Helvetica,sans-Serif" font-size="10.00">hydra/detail/Config.h</text>
</a>
</g>
</g>
<!-- Node0&#45;&gt;Node1 -->
<g id="edge1" class="edge">
<title>Node0&#45;&gt;Node1</title>
<path fill="none" stroke="midnightblue" d="M435.92,-167.48C392.53,-158.63 322.95,-144.24 263,-131 250.01,-128.13 235.94,-124.91 223.02,-121.9"/>
<polygon fill="midnightblue" stroke="midnightblue" points="223.48,-118.41 212.94,-119.55 221.89,-125.23 223.48,-118.41"/>
</g>
<!-- Node4 -->
<g id="node5" class="node">
<title>Node4</title>
<g id="a_node5"><a xlink:href="IteratorTraits_8h.html" target="_top" xlink:title="hydra/detail/IteratorTraits.h">
<polygon fill="none" stroke="black" points="272,-100.5 272,-119.5 406,-119.5 406,-100.5 272,-100.5"/>
<text text-anchor="middle" x="339" y="-107.5" font-family="Helvetica,sans-Serif" font-size="10.00">hydra/detail/IteratorTraits.h</text>
</a>
</g>
</g>
<!-- Node0&#45;&gt;Node4 -->
<g id="edge4" class="edge">
<title>Node0&#45;&gt;Node4</title>
<path fill="none" stroke="midnightblue" d="M459.54,-167.37C435.76,-156.25 394.21,-136.82 366.65,-123.93"/>
<polygon fill="midnightblue" stroke="midnightblue" points="368.08,-120.73 357.53,-119.67 365.11,-127.07 368.08,-120.73"/>
</g>
<!-- Node8 -->
<g id="node9" class="node">
<title>Node8</title>
<polygon fill="none" stroke="#bfbfbf" points="424.5,-89.5 424.5,-130.5 531.5,-130.5 531.5,-89.5 424.5,-89.5"/>
<text text-anchor="start" x="432.5" y="-118.5" font-family="Helvetica,sans-Serif" font-size="10.00">hydra/detail/external</text>
<text text-anchor="start" x="432.5" y="-107.5" font-family="Helvetica,sans-Serif" font-size="10.00">/hydra_thrust/iterator</text>
<text text-anchor="middle" x="478" y="-96.5" font-family="Helvetica,sans-Serif" font-size="10.00">/zip_iterator.h</text>
</g>
<!-- Node0&#45;&gt;Node8 -->
<g id="edge9" class="edge">
<title>Node0&#45;&gt;Node8</title>
<path fill="none" stroke="midnightblue" d="M478,-167.23C478,-160.36 478,-150.38 478,-140.73"/>
<polygon fill="midnightblue" stroke="midnightblue" points="481.5,-140.54 478,-130.54 474.5,-140.54 481.5,-140.54"/>
</g>
<!-- Node9 -->
<g id="node10" class="node">
<title>Node9</title>
<polygon fill="none" stroke="#bfbfbf" points="550,-89.5 550,-130.5 672,-130.5 672,-89.5 550,-89.5"/>
<text text-anchor="start" x="558" y="-118.5" font-family="Helvetica,sans-Serif" font-size="10.00">hydra/detail/external</text>
<text text-anchor="start" x="558" y="-107.5" font-family="Helvetica,sans-Serif" font-size="10.00">/hydra_thrust/type_traits</text>
<text text-anchor="middle" x="611" y="-96.5" font-family="Helvetica,sans-Serif" font-size="10.00">/void_t.h</text>
</g>
<!-- Node0&#45;&gt;Node9 -->
<g id="edge10" class="edge">
<title>Node0&#45;&gt;Node9</title>
<path fill="none" stroke="midnightblue" d="M495.66,-167.37C512.5,-159.14 538.66,-146.35 561.81,-135.04"/>
<polygon fill="midnightblue" stroke="midnightblue" points="563.4,-138.16 570.84,-130.63 560.32,-131.87 563.4,-138.16"/>
</g>
<!-- Node10 -->
<g id="node11" class="node">
<title>Node10</title>
<polygon fill="none" stroke="#bfbfbf" points="690,-100.5 690,-119.5 752,-119.5 752,-100.5 690,-100.5"/>
<text text-anchor="middle" x="721" y="-107.5" font-family="Helvetica,sans-Serif" font-size="10.00">type_traits</text>
</g>
<!-- Node0&#45;&gt;Node10 -->
<g id="edge11" class="edge">
<title>Node0&#45;&gt;Node10</title>
<path fill="none" stroke="midnightblue" d="M525.27,-168.91C567.01,-161.85 629.12,-149.41 681,-131 686.17,-129.17 691.54,-126.82 696.6,-124.38"/>
<polygon fill="midnightblue" stroke="midnightblue" points="698.48,-127.35 705.81,-119.7 695.31,-121.11 698.48,-127.35"/>
</g>
<!-- Node2 -->
<g id="node3" class="node">
<title>Node2</title>
<polygon fill="none" stroke="#bfbfbf" points="0,-6 0,-47 104,-47 104,-6 0,-6"/>
<text text-anchor="start" x="8" y="-35" font-family="Helvetica,sans-Serif" font-size="10.00">hydra/detail/external</text>
<text text-anchor="start" x="8" y="-24" font-family="Helvetica,sans-Serif" font-size="10.00">/hydra_thrust/detail</text>
<text text-anchor="middle" x="52" y="-13" font-family="Helvetica,sans-Serif" font-size="10.00">/config.h</text>
</g>
<!-- Node1&#45;&gt;Node2 -->
<g id="edge2" class="edge">
<title>Node1&#45;&gt;Node2</title>
<path fill="none" stroke="midnightblue" d="M163.62,-100.28C146.33,-89 115.47,-68.88 90.58,-52.65"/>
<polygon fill="midnightblue" stroke="midnightblue" points="92.34,-49.63 82.05,-47.1 88.52,-55.49 92.34,-49.63"/>
</g>
<!-- Node3 -->
<g id="node4" class="node">
<title>Node3</title>
<polygon fill="none" stroke="#bfbfbf" points="122,-6 122,-47 232,-47 232,-6 122,-6"/>
<text text-anchor="start" x="130" y="-35" font-family="Helvetica,sans-Serif" font-size="10.00">hydra/detail/external</text>
<text text-anchor="start" x="130" y="-24" font-family="Helvetica,sans-Serif" font-size="10.00">/hydra_thrust/detail</text>
<text text-anchor="middle" x="177" y="-13" font-family="Helvetica,sans-Serif" font-size="10.00">/config/host_device.h</text>
</g>
<!-- Node1&#45;&gt;Node3 -->
<g id="edge3" class="edge">
<title>Node1&#45;&gt;Node3</title>
<path fill="none" stroke="midnightblue" d="M177,-100.28C177,-90.07 177,-72.61 177,-57.36"/>
<polygon fill="midnightblue" stroke="midnightblue" points="180.5,-57.26 177,-47.26 173.5,-57.26 180.5,-57.26"/>
</g>
<!-- Node5 -->
<g id="node6" class="node">
<title>Node5</title>
<polygon fill="none" stroke="#bfbfbf" points="250,-17 250,-36 290,-36 290,-17 250,-17"/>
<text text-anchor="middle" x="270" y="-24" font-family="Helvetica,sans-Serif" font-size="10.00">utility</text>
</g>
<!-- Node4&#45;&gt;Node5 -->
<g id="edge5" class="edge">
<title>Node4&#45;&gt;Node5</title>
<path fill="none" stroke="midnightblue" d="M331.62,-100.28C320.31,-86.92 298.5,-61.16 284.09,-44.15"/>
<polygon fill="midnightblue" stroke="midnightblue" points="286.46,-41.53 277.33,-36.16 281.12,-46.05 286.46,-41.53"/>
</g>
<!-- Node6 -->
<g id="node7" class="node">
<title>Node6</title>
<polygon fill="none" stroke="#bfbfbf" points="308.5,-6 308.5,-47 415.5,-47 415.5,-6 308.5,-6"/>
<text text-anchor="start" x="316.5" y="-35" font-family="Helvetica,sans-Serif" font-size="10.00">hydra/detail/external</text>
<text text-anchor="start" x="316.5" y="-24" font-family="Helvetica,sans-Serif" font-size="10.00">/hydra_thrust/iterator</text>
<text text-anchor="middle" x="362" y="-13" font-family="Helvetica,sans-Serif" font-size="10.00">/iterator_traits.h</text>
</g>
<!-- Node4&#45;&gt;Node6 -->
<g id="edge6" class="edge">
<title>Node4&#45;&gt;Node6</title>
<path fill="none" stroke="midnightblue" d="M341.46,-100.28C344.37,-89.97 349.36,-72.28 353.7,-56.92"/>
<polygon fill="midnightblue" stroke="midnightblue" points="357.08,-57.84 356.42,-47.26 350.34,-55.93 357.08,-57.84"/>
</g>
<!-- Node7 -->
<g id="node8" class="node">
<title>Node7</title>
<polygon fill="none" stroke="#bfbfbf" points="433.5,-0.5 433.5,-52.5 542.5,-52.5 542.5,-0.5 433.5,-0.5"/>
<text text-anchor="start" x="441.5" y="-40.5" font-family="Helvetica,sans-Serif" font-size="10.00">hydra/detail/external</text>
<text text-anchor="start" x="441.5" y="-29.5" font-family="Helvetica,sans-Serif" font-size="10.00">/hydra_thrust/system</text>
<text text-anchor="start" x="441.5" y="-18.5" font-family="Helvetica,sans-Serif" font-size="10.00">/detail/generic/select</text>
<text text-anchor="middle" x="488" y="-7.5" font-family="Helvetica,sans-Serif" font-size="10.00">_system.h</text>
</g>
<!-- Node4&#45;&gt;Node7 -->
<g id="edge7" class="edge">
<title>Node4&#45;&gt;Node7</title>
<path fill="none" stroke="midnightblue" d="M354.66,-100.43C373.27,-90.25 405.33,-72.72 433.34,-57.4"/>
<polygon fill="midnightblue" stroke="midnightblue" points="435.18,-60.38 442.27,-52.51 431.82,-54.24 435.18,-60.38"/>
</g>
</g>
</svg>
