<?xml version="1.0" encoding="UTF-8" standalone="no"?>
<!DOCTYPE svg PUBLIC "-//W3C//DTD SVG 1.1//EN"
 "http://www.w3.org/Graphics/SVG/1.1/DTD/svg11.dtd">
<!-- Generated by graphviz version 2.42.4 (0)
 -->
<!-- Title: zipping_iterables.inl Pages: 1 -->
<svg width="238pt" height="84pt"
 viewBox="0.00 0.00 237.50 84.00" xmlns="http://www.w3.org/2000/svg" xmlns:xlink="http://www.w3.org/1999/xlink">
<g id="graph0" class="graph" transform="scale(1 1) rotate(0) translate(4 80)">
<title>zipping_iterables.inl</title>
<!-- Node130 -->
<g id="node1" class="node">
<title>Node130</title>
<polygon fill="#bfbfbf" stroke="black" points="65,-56.5 65,-75.5 167,-75.5 167,-56.5 65,-56.5"/>
<text text-anchor="middle" x="116" y="-63.5" font-family="Helvetica,sans-Serif" font-size="10.00">zipping_iterables.inl</text>
</g>
<!-- Node131 -->
<g id="node2" class="node">
<title>Node131</title>
<g id="a_node2"><a xlink:href="zipping__iterables_8cpp.html" target="_top" xlink:title="zipping_iterables.cpp">
<polygon fill="none" stroke="black" points="0,-0.5 0,-19.5 108,-19.5 108,-0.5 0,-0.5"/>
<text text-anchor="middle" x="54" y="-7.5" font-family="Helvetica,sans-Serif" font-size="10.00">zipping_iterables.cpp</text>
</a>
</g>
</g>
<!-- Node130&#45;&gt;Node131 -->
<g id="edge1" class="edge">
<title>Node130&#45;&gt;Node131</title>
<path fill="none" stroke="midnightblue" d="M98.25,-49.54C87.19,-39.91 73.37,-27.87 64.14,-19.83"/>
<polygon fill="midnightblue" stroke="midnightblue" points="96.2,-52.4 106.04,-56.32 100.8,-47.12 96.2,-52.4"/>
</g>
<!-- Node132 -->
<g id="node3" class="node">
<title>Node132</title>
<g id="a_node3"><a xlink:href="zipping__iterables_8cu.html" target="_top" xlink:title="zipping_iterables.cu">
<polygon fill="none" stroke="black" points="126.5,-0.5 126.5,-19.5 229.5,-19.5 229.5,-0.5 126.5,-0.5"/>
<text text-anchor="middle" x="178" y="-7.5" font-family="Helvetica,sans-Serif" font-size="10.00">zipping_iterables.cu</text>
</a>
</g>
</g>
<!-- Node130&#45;&gt;Node132 -->
<g id="edge2" class="edge">
<title>Node130&#45;&gt;Node132</title>
<path fill="none" stroke="midnightblue" d="M133.75,-49.54C144.81,-39.91 158.63,-27.87 167.86,-19.83"/>
<polygon fill="midnightblue" stroke="midnightblue" points="131.2,-47.12 125.96,-56.32 135.8,-52.4 131.2,-47.12"/>
</g>
</g>
</svg>
