<?xml version="1.0" encoding="UTF-8" standalone="no"?>
<!DOCTYPE svg PUBLIC "-//W3C//DTD SVG 1.1//EN"
 "http://www.w3.org/Graphics/SVG/1.1/DTD/svg11.dtd">
<!-- Generated by graphviz version 2.38.0 (20140413.2041)
 -->
<!-- Title: float4::operator+= Pages: 1 -->
<svg width="412pt" height="180pt"
 viewBox="0.00 0.00 412.00 180.00" xmlns="http://www.w3.org/2000/svg" xmlns:xlink="http://www.w3.org/1999/xlink">
<g id="graph0" class="graph" transform="scale(1 1) rotate(0) translate(4 176)">
<title>float4::operator+=</title>
<!-- Node1 -->
<g id="node1" class="node"><title>Node1</title>
<polygon fill="#bfbfbf" stroke="black" points="0,-57.5 0,-76.5 94,-76.5 94,-57.5 0,-57.5"/>
<text text-anchor="middle" x="47" y="-64.5" font-family="Helvetica,sans-Serif" font-size="10.00">float4::operator+=</text>
</g>
<!-- Node2 -->
<g id="node2" class="node"><title>Node2</title>
<g id="a_node2"><a xlink:href="../../d0/dc0/a00033.html#a5023371be89ac7baec7d3fa899556856" target="_top" xlink:title="float4::W">
<polygon fill="none" stroke="black" points="130,-114.5 130,-133.5 186,-133.5 186,-114.5 130,-114.5"/>
<text text-anchor="middle" x="158" y="-121.5" font-family="Helvetica,sans-Serif" font-size="10.00">float4::W</text>
</a>
</g>
</g>
<!-- Node1&#45;&gt;Node2 -->
<g id="edge1" class="edge"><title>Node1&#45;&gt;Node2</title>
<path fill="none" stroke="midnightblue" d="M66.4904,-76.6693C83.8199,-85.7315 109.941,-99.3914 129.675,-109.711"/>
<polygon fill="midnightblue" stroke="midnightblue" points="128.299,-112.941 138.783,-114.474 131.543,-106.738 128.299,-112.941"/>
</g>
<!-- Node6 -->
<g id="node6" class="node"><title>Node6</title>
<g id="a_node6"><a xlink:href="../../d0/dc0/a00033.html#a8dab278821753f84aefccbb5df2dd010" target="_top" xlink:title="float4::X">
<polygon fill="none" stroke="black" points="131.5,-76.5 131.5,-95.5 184.5,-95.5 184.5,-76.5 131.5,-76.5"/>
<text text-anchor="middle" x="158" y="-83.5" font-family="Helvetica,sans-Serif" font-size="10.00">float4::X</text>
</a>
</g>
</g>
<!-- Node1&#45;&gt;Node6 -->
<g id="edge5" class="edge"><title>Node1&#45;&gt;Node6</title>
<path fill="none" stroke="midnightblue" d="M94.2258,-75.0577C103.401,-76.657 112.896,-78.3121 121.639,-79.8361"/>
<polygon fill="midnightblue" stroke="midnightblue" points="121.039,-83.2843 131.492,-81.5536 122.241,-76.3883 121.039,-83.2843"/>
</g>
<!-- Node8 -->
<g id="node8" class="node"><title>Node8</title>
<g id="a_node8"><a xlink:href="../../d0/dc0/a00033.html#a67516b2c4dec0d932f87864ee4824433" target="_top" xlink:title="float4::Y">
<polygon fill="none" stroke="black" points="131.5,-38.5 131.5,-57.5 184.5,-57.5 184.5,-38.5 131.5,-38.5"/>
<text text-anchor="middle" x="158" y="-45.5" font-family="Helvetica,sans-Serif" font-size="10.00">float4::Y</text>
</a>
</g>
</g>
<!-- Node1&#45;&gt;Node8 -->
<g id="edge7" class="edge"><title>Node1&#45;&gt;Node8</title>
<path fill="none" stroke="midnightblue" d="M94.2258,-58.9423C103.401,-57.343 112.896,-55.6879 121.639,-54.1639"/>
<polygon fill="midnightblue" stroke="midnightblue" points="122.241,-57.6117 131.492,-52.4464 121.039,-50.7157 122.241,-57.6117"/>
</g>
<!-- Node10 -->
<g id="node10" class="node"><title>Node10</title>
<g id="a_node10"><a xlink:href="../../d0/dc0/a00033.html#a4f27b2f779885b23c38dc36c771a960f" target="_top" xlink:title="float4::Z">
<polygon fill="none" stroke="black" points="131.5,-0.5 131.5,-19.5 184.5,-19.5 184.5,-0.5 131.5,-0.5"/>
<text text-anchor="middle" x="158" y="-7.5" font-family="Helvetica,sans-Serif" font-size="10.00">float4::Z</text>
</a>
</g>
</g>
<!-- Node1&#45;&gt;Node10 -->
<g id="edge9" class="edge"><title>Node1&#45;&gt;Node10</title>
<path fill="none" stroke="midnightblue" d="M66.4904,-57.3307C83.8199,-48.2685 109.941,-34.6086 129.675,-24.2892"/>
<polygon fill="midnightblue" stroke="midnightblue" points="131.543,-27.262 138.783,-19.5265 128.299,-21.059 131.543,-27.262"/>
</g>
<!-- Node3 -->
<g id="node3" class="node"><title>Node3</title>
<g id="a_node3"><a xlink:href="../../d0/dc0/a00033.html#a95c47e30a5482142e31bf02d9ab30049" target="_top" xlink:title="float4::w">
<polygon fill="none" stroke="black" points="231.5,-152.5 231.5,-171.5 285.5,-171.5 285.5,-152.5 231.5,-152.5"/>
<text text-anchor="middle" x="258.5" y="-159.5" font-family="Helvetica,sans-Serif" font-size="10.00">float4::w</text>
</a>
</g>
</g>
<!-- Node2&#45;&gt;Node3 -->
<g id="edge2" class="edge"><title>Node2&#45;&gt;Node3</title>
<path fill="none" stroke="midnightblue" d="M183.856,-133.589C195.755,-138.179 210.195,-143.75 223.126,-148.739"/>
<polygon fill="midnightblue" stroke="midnightblue" points="222.063,-152.08 232.652,-152.414 224.582,-145.549 222.063,-152.08"/>
</g>
<!-- Node5 -->
<g id="node5" class="node"><title>Node5</title>
<g id="a_node5"><a xlink:href="../../d2/db1/a00070.html#ae30b03f5e61a89cf9a12ec6736c8d4c1" target="_top" xlink:title="__attribute__">
<polygon fill="none" stroke="black" points="222,-114.5 222,-133.5 295,-133.5 295,-114.5 222,-114.5"/>
<text text-anchor="middle" x="258.5" y="-121.5" font-family="Helvetica,sans-Serif" font-size="10.00">__attribute__</text>
</a>
</g>
</g>
<!-- Node2&#45;&gt;Node5 -->
<g id="edge4" class="edge"><title>Node2&#45;&gt;Node5</title>
<path fill="none" stroke="midnightblue" d="M186.176,-124C194.116,-124 203.022,-124 211.778,-124"/>
<polygon fill="midnightblue" stroke="midnightblue" points="211.921,-127.5 221.921,-124 211.921,-120.5 211.921,-127.5"/>
</g>
<!-- Node4 -->
<g id="node4" class="node"><title>Node4</title>
<g id="a_node4"><a xlink:href="../../d1/dd6/a00108.html#a87dd693c1d564d495f8e4004ff19b13d" target="_top" xlink:title="__attribute__">
<polygon fill="none" stroke="black" points="331,-152.5 331,-171.5 404,-171.5 404,-152.5 331,-152.5"/>
<text text-anchor="middle" x="367.5" y="-159.5" font-family="Helvetica,sans-Serif" font-size="10.00">__attribute__</text>
</a>
</g>
</g>
<!-- Node3&#45;&gt;Node4 -->
<g id="edge3" class="edge"><title>Node3&#45;&gt;Node4</title>
<path fill="none" stroke="midnightblue" d="M285.675,-162C296.203,-162 308.66,-162 320.601,-162"/>
<polygon fill="midnightblue" stroke="midnightblue" points="320.901,-165.5 330.901,-162 320.901,-158.5 320.901,-165.5"/>
</g>
<!-- Node7 -->
<g id="node7" class="node"><title>Node7</title>
<g id="a_node7"><a xlink:href="../../d0/dc0/a00033.html#ab5b9d8bd2ecfb4313c1192ce061d13d8" target="_top" xlink:title="float4::x">
<polygon fill="none" stroke="black" points="232.5,-76.5 232.5,-95.5 284.5,-95.5 284.5,-76.5 232.5,-76.5"/>
<text text-anchor="middle" x="258.5" y="-83.5" font-family="Helvetica,sans-Serif" font-size="10.00">float4::x</text>
</a>
</g>
</g>
<!-- Node6&#45;&gt;Node7 -->
<g id="edge6" class="edge"><title>Node6&#45;&gt;Node7</title>
<path fill="none" stroke="midnightblue" d="M184.623,-86C196.112,-86 209.85,-86 222.285,-86"/>
<polygon fill="midnightblue" stroke="midnightblue" points="222.347,-89.5001 232.347,-86 222.347,-82.5001 222.347,-89.5001"/>
</g>
<!-- Node9 -->
<g id="node9" class="node"><title>Node9</title>
<g id="a_node9"><a xlink:href="../../d0/dc0/a00033.html#a79031184c8e04a4d207254b7727407c9" target="_top" xlink:title="float4::y">
<polygon fill="none" stroke="black" points="232.5,-38.5 232.5,-57.5 284.5,-57.5 284.5,-38.5 232.5,-38.5"/>
<text text-anchor="middle" x="258.5" y="-45.5" font-family="Helvetica,sans-Serif" font-size="10.00">float4::y</text>
</a>
</g>
</g>
<!-- Node8&#45;&gt;Node9 -->
<g id="edge8" class="edge"><title>Node8&#45;&gt;Node9</title>
<path fill="none" stroke="midnightblue" d="M184.623,-48C196.112,-48 209.85,-48 222.285,-48"/>
<polygon fill="midnightblue" stroke="midnightblue" points="222.347,-51.5001 232.347,-48 222.347,-44.5001 222.347,-51.5001"/>
</g>
<!-- Node11 -->
<g id="node11" class="node"><title>Node11</title>
<g id="a_node11"><a xlink:href="../../d0/dc0/a00033.html#acedd42bf764426d0e6dd1b6e1d05a22c" target="_top" xlink:title="float4::z">
<polygon fill="none" stroke="black" points="232.5,-0.5 232.5,-19.5 284.5,-19.5 284.5,-0.5 232.5,-0.5"/>
<text text-anchor="middle" x="258.5" y="-7.5" font-family="Helvetica,sans-Serif" font-size="10.00">float4::z</text>
</a>
</g>
</g>
<!-- Node10&#45;&gt;Node11 -->
<g id="edge10" class="edge"><title>Node10&#45;&gt;Node11</title>
<path fill="none" stroke="midnightblue" d="M184.623,-10C196.112,-10 209.85,-10 222.285,-10"/>
<polygon fill="midnightblue" stroke="midnightblue" points="222.347,-13.5001 232.347,-10 222.347,-6.5001 222.347,-13.5001"/>
</g>
</g>
</svg>
