<?xml version="1.0" encoding="UTF-8" standalone="no"?>
<!DOCTYPE svg PUBLIC "-//W3C//DTD SVG 1.1//EN"
 "http://www.w3.org/Graphics/SVG/1.1/DTD/svg11.dtd">
<!-- Generated by graphviz version 2.38.0 (20140413.2041)
 -->
<!-- Title: float4::operator*= Pages: 1 -->
<svg width="410pt" height="180pt"
 viewBox="0.00 0.00 410.00 180.00" xmlns="http://www.w3.org/2000/svg" xmlns:xlink="http://www.w3.org/1999/xlink">
<g id="graph0" class="graph" transform="scale(1 1) rotate(0) translate(4 176)">
<title>float4::operator*=</title>
<!-- Node1 -->
<g id="node1" class="node"><title>Node1</title>
<polygon fill="#bfbfbf" stroke="black" points="0,-57.5 0,-76.5 92,-76.5 92,-57.5 0,-57.5"/>
<text text-anchor="middle" x="46" y="-64.5" font-family="Helvetica,sans-Serif" font-size="10.00">float4::operator*=</text>
</g>
<!-- Node2 -->
<g id="node2" class="node"><title>Node2</title>
<g id="a_node2"><a xlink:href="../../d0/dc0/a00033.html#a5023371be89ac7baec7d3fa899556856" target="_top" xlink:title="float4::W">
<polygon fill="none" stroke="black" points="128,-114.5 128,-133.5 184,-133.5 184,-114.5 128,-114.5"/>
<text text-anchor="middle" x="156" y="-121.5" font-family="Helvetica,sans-Serif" font-size="10.00">float4::W</text>
</a>
</g>
</g>
<!-- Node1&#45;&gt;Node2 -->
<g id="edge1" class="edge"><title>Node1&#45;&gt;Node2</title>
<path fill="none" stroke="midnightblue" d="M65.3207,-76.6693C82.4912,-85.7315 108.373,-99.3914 127.926,-109.711"/>
<polygon fill="midnightblue" stroke="midnightblue" points="126.472,-112.901 136.95,-114.474 129.74,-106.711 126.472,-112.901"/>
</g>
<!-- Node6 -->
<g id="node6" class="node"><title>Node6</title>
<g id="a_node6"><a xlink:href="../../d0/dc0/a00033.html#a8dab278821753f84aefccbb5df2dd010" target="_top" xlink:title="float4::X">
<polygon fill="none" stroke="black" points="129.5,-76.5 129.5,-95.5 182.5,-95.5 182.5,-76.5 129.5,-76.5"/>
<text text-anchor="middle" x="156" y="-83.5" font-family="Helvetica,sans-Serif" font-size="10.00">float4::X</text>
</a>
</g>
</g>
<!-- Node1&#45;&gt;Node6 -->
<g id="edge5" class="edge"><title>Node1&#45;&gt;Node6</title>
<path fill="none" stroke="midnightblue" d="M92.176,-74.9476C101.316,-76.5556 110.803,-78.2245 119.55,-79.7634"/>
<polygon fill="midnightblue" stroke="midnightblue" points="118.959,-83.2131 129.414,-81.4988 120.172,-76.319 118.959,-83.2131"/>
</g>
<!-- Node8 -->
<g id="node8" class="node"><title>Node8</title>
<g id="a_node8"><a xlink:href="../../d0/dc0/a00033.html#a67516b2c4dec0d932f87864ee4824433" target="_top" xlink:title="float4::Y">
<polygon fill="none" stroke="black" points="129.5,-38.5 129.5,-57.5 182.5,-57.5 182.5,-38.5 129.5,-38.5"/>
<text text-anchor="middle" x="156" y="-45.5" font-family="Helvetica,sans-Serif" font-size="10.00">float4::Y</text>
</a>
</g>
</g>
<!-- Node1&#45;&gt;Node8 -->
<g id="edge7" class="edge"><title>Node1&#45;&gt;Node8</title>
<path fill="none" stroke="midnightblue" d="M92.176,-59.0524C101.316,-57.4444 110.803,-55.7755 119.55,-54.2366"/>
<polygon fill="midnightblue" stroke="midnightblue" points="120.172,-57.681 129.414,-52.5012 118.959,-50.7869 120.172,-57.681"/>
</g>
<!-- Node10 -->
<g id="node10" class="node"><title>Node10</title>
<g id="a_node10"><a xlink:href="../../d0/dc0/a00033.html#a4f27b2f779885b23c38dc36c771a960f" target="_top" xlink:title="float4::Z">
<polygon fill="none" stroke="black" points="129.5,-0.5 129.5,-19.5 182.5,-19.5 182.5,-0.5 129.5,-0.5"/>
<text text-anchor="middle" x="156" y="-7.5" font-family="Helvetica,sans-Serif" font-size="10.00">float4::Z</text>
</a>
</g>
</g>
<!-- Node1&#45;&gt;Node10 -->
<g id="edge9" class="edge"><title>Node1&#45;&gt;Node10</title>
<path fill="none" stroke="midnightblue" d="M65.3207,-57.3307C82.4912,-48.2685 108.373,-34.6086 127.926,-24.2892"/>
<polygon fill="midnightblue" stroke="midnightblue" points="129.74,-27.2895 136.95,-19.5265 126.472,-21.0988 129.74,-27.2895"/>
</g>
<!-- Node3 -->
<g id="node3" class="node"><title>Node3</title>
<g id="a_node3"><a xlink:href="../../d0/dc0/a00033.html#a95c47e30a5482142e31bf02d9ab30049" target="_top" xlink:title="float4::w">
<polygon fill="none" stroke="black" points="229.5,-152.5 229.5,-171.5 283.5,-171.5 283.5,-152.5 229.5,-152.5"/>
<text text-anchor="middle" x="256.5" y="-159.5" font-family="Helvetica,sans-Serif" font-size="10.00">float4::w</text>
</a>
</g>
</g>
<!-- Node2&#45;&gt;Node3 -->
<g id="edge2" class="edge"><title>Node2&#45;&gt;Node3</title>
<path fill="none" stroke="midnightblue" d="M181.856,-133.589C193.755,-138.179 208.195,-143.75 221.126,-148.739"/>
<polygon fill="midnightblue" stroke="midnightblue" points="220.063,-152.08 230.652,-152.414 222.582,-145.549 220.063,-152.08"/>
</g>
<!-- Node5 -->
<g id="node5" class="node"><title>Node5</title>
<g id="a_node5"><a xlink:href="../../d2/db1/a00070.html#ae30b03f5e61a89cf9a12ec6736c8d4c1" target="_top" xlink:title="__attribute__">
<polygon fill="none" stroke="black" points="220,-114.5 220,-133.5 293,-133.5 293,-114.5 220,-114.5"/>
<text text-anchor="middle" x="256.5" y="-121.5" font-family="Helvetica,sans-Serif" font-size="10.00">__attribute__</text>
</a>
</g>
</g>
<!-- Node2&#45;&gt;Node5 -->
<g id="edge4" class="edge"><title>Node2&#45;&gt;Node5</title>
<path fill="none" stroke="midnightblue" d="M184.176,-124C192.116,-124 201.022,-124 209.778,-124"/>
<polygon fill="midnightblue" stroke="midnightblue" points="209.921,-127.5 219.921,-124 209.921,-120.5 209.921,-127.5"/>
</g>
<!-- Node4 -->
<g id="node4" class="node"><title>Node4</title>
<g id="a_node4"><a xlink:href="../../d1/dd6/a00108.html#a87dd693c1d564d495f8e4004ff19b13d" target="_top" xlink:title="__attribute__">
<polygon fill="none" stroke="black" points="329,-152.5 329,-171.5 402,-171.5 402,-152.5 329,-152.5"/>
<text text-anchor="middle" x="365.5" y="-159.5" font-family="Helvetica,sans-Serif" font-size="10.00">__attribute__</text>
</a>
</g>
</g>
<!-- Node3&#45;&gt;Node4 -->
<g id="edge3" class="edge"><title>Node3&#45;&gt;Node4</title>
<path fill="none" stroke="midnightblue" d="M283.675,-162C294.203,-162 306.66,-162 318.601,-162"/>
<polygon fill="midnightblue" stroke="midnightblue" points="318.901,-165.5 328.901,-162 318.901,-158.5 318.901,-165.5"/>
</g>
<!-- Node7 -->
<g id="node7" class="node"><title>Node7</title>
<g id="a_node7"><a xlink:href="../../d0/dc0/a00033.html#ab5b9d8bd2ecfb4313c1192ce061d13d8" target="_top" xlink:title="float4::x">
<polygon fill="none" stroke="black" points="230.5,-76.5 230.5,-95.5 282.5,-95.5 282.5,-76.5 230.5,-76.5"/>
<text text-anchor="middle" x="256.5" y="-83.5" font-family="Helvetica,sans-Serif" font-size="10.00">float4::x</text>
</a>
</g>
</g>
<!-- Node6&#45;&gt;Node7 -->
<g id="edge6" class="edge"><title>Node6&#45;&gt;Node7</title>
<path fill="none" stroke="midnightblue" d="M182.623,-86C194.112,-86 207.85,-86 220.285,-86"/>
<polygon fill="midnightblue" stroke="midnightblue" points="220.347,-89.5001 230.347,-86 220.347,-82.5001 220.347,-89.5001"/>
</g>
<!-- Node9 -->
<g id="node9" class="node"><title>Node9</title>
<g id="a_node9"><a xlink:href="../../d0/dc0/a00033.html#a79031184c8e04a4d207254b7727407c9" target="_top" xlink:title="float4::y">
<polygon fill="none" stroke="black" points="230.5,-38.5 230.5,-57.5 282.5,-57.5 282.5,-38.5 230.5,-38.5"/>
<text text-anchor="middle" x="256.5" y="-45.5" font-family="Helvetica,sans-Serif" font-size="10.00">float4::y</text>
</a>
</g>
</g>
<!-- Node8&#45;&gt;Node9 -->
<g id="edge8" class="edge"><title>Node8&#45;&gt;Node9</title>
<path fill="none" stroke="midnightblue" d="M182.623,-48C194.112,-48 207.85,-48 220.285,-48"/>
<polygon fill="midnightblue" stroke="midnightblue" points="220.347,-51.5001 230.347,-48 220.347,-44.5001 220.347,-51.5001"/>
</g>
<!-- Node11 -->
<g id="node11" class="node"><title>Node11</title>
<g id="a_node11"><a xlink:href="../../d0/dc0/a00033.html#acedd42bf764426d0e6dd1b6e1d05a22c" target="_top" xlink:title="float4::z">
<polygon fill="none" stroke="black" points="230.5,-0.5 230.5,-19.5 282.5,-19.5 282.5,-0.5 230.5,-0.5"/>
<text text-anchor="middle" x="256.5" y="-7.5" font-family="Helvetica,sans-Serif" font-size="10.00">float4::z</text>
</a>
</g>
</g>
<!-- Node10&#45;&gt;Node11 -->
<g id="edge10" class="edge"><title>Node10&#45;&gt;Node11</title>
<path fill="none" stroke="midnightblue" d="M182.623,-10C194.112,-10 207.85,-10 220.285,-10"/>
<polygon fill="midnightblue" stroke="midnightblue" points="220.347,-13.5001 230.347,-10 220.347,-6.5001 220.347,-13.5001"/>
</g>
</g>
</svg>
