<?xml version="1.0" encoding="UTF-8" standalone="no"?>
<!DOCTYPE svg PUBLIC "-//W3C//DTD SVG 1.1//EN"
 "http://www.w3.org/Graphics/SVG/1.1/DTD/svg11.dtd">
<!-- Generated by graphviz version 2.38.0 (20140413.2041)
 -->
<!-- Title: float4::rsqrt Pages: 1 -->
<svg width="280pt" height="47pt"
 viewBox="0.00 0.00 280.00 47.00" xmlns="http://www.w3.org/2000/svg" xmlns:xlink="http://www.w3.org/1999/xlink">
<g id="graph0" class="graph" transform="scale(1 1) rotate(0) translate(4 43)">
<title>float4::rsqrt</title>
<!-- Node1 -->
<g id="node1" class="node"><title>Node1</title>
<polygon fill="#bfbfbf" stroke="black" points="0,-19.5 0,-38.5 66,-38.5 66,-19.5 0,-19.5"/>
<text text-anchor="middle" x="33" y="-26.5" font-family="Helvetica,sans-Serif" font-size="10.00">float4::rsqrt</text>
</g>
<!-- Node2 -->
<g id="node2" class="node"><title>Node2</title>
<g id="a_node2"><a xlink:href="../../d0/dc0/a00033.html#a219529d0e59732edc22565b299bd4bd9" target="_top" xlink:title="float4::float4">
<polygon fill="none" stroke="black" points="201,-19.5 201,-38.5 272,-38.5 272,-19.5 201,-19.5"/>
<text text-anchor="middle" x="236.5" y="-26.5" font-family="Helvetica,sans-Serif" font-size="10.00">float4::float4</text>
</a>
</g>
</g>
<!-- Node1&#45;&gt;Node2 -->
<g id="edge1" class="edge"><title>Node1&#45;&gt;Node2</title>
<path fill="none" stroke="midnightblue" d="M66.3745,-29C100.033,-29 152.97,-29 190.648,-29"/>
<polygon fill="midnightblue" stroke="midnightblue" points="190.841,-32.5001 200.841,-29 190.841,-25.5001 190.841,-32.5001"/>
</g>
<!-- Node3 -->
<g id="node3" class="node"><title>Node3</title>
<g id="a_node3"><a xlink:href="../../d0/dc0/a00033.html#a15fa011b81c338729cff238e72252931" target="_top" xlink:title="float4::sqrt">
<polygon fill="none" stroke="black" points="102,-0.5 102,-19.5 165,-19.5 165,-0.5 102,-0.5"/>
<text text-anchor="middle" x="133.5" y="-7.5" font-family="Helvetica,sans-Serif" font-size="10.00">float4::sqrt</text>
</a>
</g>
</g>
<!-- Node1&#45;&gt;Node3 -->
<g id="edge2" class="edge"><title>Node1&#45;&gt;Node3</title>
<path fill="none" stroke="midnightblue" d="M66.2526,-22.7787C74.4793,-21.1918 83.4271,-19.4658 92.0085,-17.8105"/>
<polygon fill="midnightblue" stroke="midnightblue" points="92.6926,-21.2432 101.849,-15.9124 91.3667,-14.3699 92.6926,-21.2432"/>
</g>
<!-- Node3&#45;&gt;Node2 -->
<g id="edge3" class="edge"><title>Node3&#45;&gt;Node2</title>
<path fill="none" stroke="midnightblue" d="M165.077,-15.7522C173.173,-17.2752 182.083,-18.9512 190.762,-20.5839"/>
<polygon fill="midnightblue" stroke="midnightblue" points="190.308,-24.0598 200.782,-22.469 191.602,-17.1805 190.308,-24.0598"/>
</g>
</g>
</svg>
