<?xml version="1.0" encoding="UTF-8" standalone="no"?>
<!DOCTYPE svg PUBLIC "-//W3C//DTD SVG 1.1//EN"
 "http://www.w3.org/Graphics/SVG/1.1/DTD/svg11.dtd">
<!-- Generated by graphviz version 2.38.0 (20140413.2041)
 -->
<!-- Title: float4::z Pages: 1 -->
<!--zoomable 598 -->
<svg id="main" version="1.1" xmlns="http://www.w3.org/2000/svg" xmlns:xlink="http://www.w3.org/1999/xlink" xml:space="preserve" onload="init(evt)">
<style type="text/css"><![CDATA[
.edge:hover path { stroke: red; }
.edge:hover polygon { stroke: red; fill: red; }
]]></style>
<script type="text/javascript"><![CDATA[
var edges = document.getElementsByTagName('g');
if (edges && edges.length) {
  for (var i=0;i<edges.length;i++) {
    if (edges[i].id.substr(0,4)=='edge') {
      edges[i].setAttribute('class','edge');
    }
  }
}
]]></script>
        <defs>
                <circle id="rim" cx="0" cy="0" r="7"/>
                <circle id="rim2" cx="0" cy="0" r="3.5"/>
                <g id="zoomPlus">
                        <use xlink:href="#rim" fill="#404040">
                                <set attributeName="fill" to="#808080" begin="zoomplus.mouseover" end="zoomplus.mouseout"/>
                        </use>
                        <path d="M-4,0h8M0,-4v8" fill="none" stroke="white" stroke-width="1.5" pointer-events="none"/>
                </g>
                <g id="zoomMin">
                        <use xlink:href="#rim" fill="#404040">
                                <set attributeName="fill" to="#808080" begin="zoomminus.mouseover" end="zoomminus.mouseout"/>
                        </use>
                        <path d="M-4,0h8" fill="none" stroke="white" stroke-width="1.5" pointer-events="none"/>
                </g>
                <g id="dirArrow">
                        <path fill="none" stroke="white" stroke-width="1.5" d="M0,-3.0v7 M-2.5,-0.5L0,-3.0L2.5,-0.5"/>
                </g>
               <g id="resetDef">
                       <use xlink:href="#rim2" fill="#404040">
                               <set attributeName="fill" to="#808080" begin="reset.mouseover" end="reset.mouseout"/>
                       </use>
               </g>
        </defs>

<script type="text/javascript">
var viewWidth = 279;
var viewHeight = 598;
var sectionId = 'dynsection-53';
</script>
<script xlink:href="../../svgpan.js"/>
<svg id="graph" class="graph">
<g id="viewport">
<title>float4::z</title>
<!-- Node1 -->
<g id="node1" class="node"><title>Node1</title>
<polygon fill="#bfbfbf" stroke="black" points="0,-285.5 0,-304.5 52,-304.5 52,-285.5 0,-285.5"/>
<text text-anchor="middle" x="26" y="-292.5" font-family="Helvetica,sans-Serif" font-size="10.00">float4::z</text>
</g>
<!-- Node2 -->
<g id="node2" class="node"><title>Node2</title>
<g id="a_node2"><a xlink:href="../../d0/dc0/a00033.html#a4f27b2f779885b23c38dc36c771a960f" target="_top" xlink:title="float4::Z">
<polygon fill="none" stroke="black" points="88,-285.5 88,-304.5 141,-304.5 141,-285.5 88,-285.5"/>
<text text-anchor="middle" x="114.5" y="-292.5" font-family="Helvetica,sans-Serif" font-size="10.00">float4::Z</text>
</a>
</g>
</g>
<!-- Node1&#45;&gt;Node2 -->
<g id="edge1" class="edge"><title>Node1&#45;&gt;Node2</title>
<path fill="none" stroke="midnightblue" d="M62.2093,-295C70.8214,-295 79.8743,-295 87.9366,-295"/>
<polygon fill="midnightblue" stroke="midnightblue" points="62.0194,-291.5 52.0194,-295 62.0193,-298.5 62.0194,-291.5"/>
</g>
<!-- Node3 -->
<g id="node3" class="node"><title>Node3</title>
<g id="a_node3"><a xlink:href="../../d0/dc0/a00033.html#acacdccede90173e9ad403439fe050b9e" target="_top" xlink:title="float4::add">
<polygon fill="none" stroke="black" points="193,-570.5 193,-589.5 255,-589.5 255,-570.5 193,-570.5"/>
<text text-anchor="middle" x="224" y="-577.5" font-family="Helvetica,sans-Serif" font-size="10.00">float4::add</text>
</a>
</g>
</g>
<!-- Node2&#45;&gt;Node3 -->
<g id="edge2" class="edge"><title>Node2&#45;&gt;Node3</title>
<path fill="none" stroke="midnightblue" d="M117.707,-314.686C124.224,-369.649 144.952,-523.194 177,-561 181.135,-565.877 186.722,-569.523 192.578,-572.24"/>
<polygon fill="midnightblue" stroke="midnightblue" points="121.159,-314.063 116.533,-304.531 114.205,-314.867 121.159,-314.063"/>
</g>
<!-- Node4 -->
<g id="node4" class="node"><title>Node4</title>
<g id="a_node4"><a xlink:href="../../d0/dc0/a00033.html#a0fee71b0818eb7cc66fb70510e6af8b1" target="_top" xlink:title="float4::sub">
<polygon fill="none" stroke="black" points="193,-532.5 193,-551.5 255,-551.5 255,-532.5 193,-532.5"/>
<text text-anchor="middle" x="224" y="-539.5" font-family="Helvetica,sans-Serif" font-size="10.00">float4::sub</text>
</a>
</g>
</g>
<!-- Node2&#45;&gt;Node4 -->
<g id="edge3" class="edge"><title>Node2&#45;&gt;Node4</title>
<path fill="none" stroke="midnightblue" d="M115.275,-314.635C115.832,-357.737 123.071,-461.671 177,-523 181.222,-527.802 186.847,-531.415 192.711,-534.126"/>
<polygon fill="midnightblue" stroke="midnightblue" points="118.775,-314.604 115.257,-304.611 111.775,-314.617 118.775,-314.604"/>
</g>
<!-- Node5 -->
<g id="node5" class="node"><title>Node5</title>
<g id="a_node5"><a xlink:href="../../d0/dc0/a00033.html#a443cb7ad5926cbffc3382449a48cc718" target="_top" xlink:title="float4::min">
<polygon fill="none" stroke="black" points="193,-494.5 193,-513.5 255,-513.5 255,-494.5 193,-494.5"/>
<text text-anchor="middle" x="224" y="-501.5" font-family="Helvetica,sans-Serif" font-size="10.00">float4::min</text>
</a>
</g>
</g>
<!-- Node2&#45;&gt;Node5 -->
<g id="edge4" class="edge"><title>Node2&#45;&gt;Node5</title>
<path fill="none" stroke="midnightblue" d="M116.587,-314.91C119.686,-352.796 131.573,-435.852 177,-485 181.34,-489.696 187.015,-493.264 192.889,-495.965"/>
<polygon fill="midnightblue" stroke="midnightblue" points="120.062,-314.425 115.88,-304.691 113.079,-314.908 120.062,-314.425"/>
</g>
<!-- Node6 -->
<g id="node6" class="node"><title>Node6</title>
<g id="a_node6"><a xlink:href="../../d0/dc0/a00033.html#aa833d66c0a54736747367808adbeecaf" target="_top" xlink:title="float4::max">
<polygon fill="none" stroke="black" points="191.5,-456.5 191.5,-475.5 256.5,-475.5 256.5,-456.5 191.5,-456.5"/>
<text text-anchor="middle" x="224" y="-463.5" font-family="Helvetica,sans-Serif" font-size="10.00">float4::max</text>
</a>
</g>
</g>
<!-- Node2&#45;&gt;Node6 -->
<g id="edge5" class="edge"><title>Node2&#45;&gt;Node6</title>
<path fill="none" stroke="midnightblue" d="M118.482,-314.837C124.259,-346.721 139.846,-409.576 177,-447 181.018,-451.047 186.021,-454.27 191.236,-456.825"/>
<polygon fill="midnightblue" stroke="midnightblue" points="121.872,-313.884 116.776,-304.596 114.967,-315.035 121.872,-313.884"/>
</g>
<!-- Node7 -->
<g id="node7" class="node"><title>Node7</title>
<g id="a_node7"><a xlink:href="../../d0/dc0/a00033.html#a8f30dafac375fb4f3aeb538a478c5112" target="_top" xlink:title="float4::andnot">
<polygon fill="none" stroke="black" points="186,-418.5 186,-437.5 262,-437.5 262,-418.5 186,-418.5"/>
<text text-anchor="middle" x="224" y="-425.5" font-family="Helvetica,sans-Serif" font-size="10.00">float4::andnot</text>
</a>
</g>
</g>
<!-- Node2&#45;&gt;Node7 -->
<g id="edge6" class="edge"><title>Node2&#45;&gt;Node7</title>
<path fill="none" stroke="midnightblue" d="M121.412,-314.435C129.929,-339.437 147.907,-382.76 177,-409 181.235,-412.819 186.343,-415.932 191.594,-418.449"/>
<polygon fill="midnightblue" stroke="midnightblue" points="124.655,-313.091 118.247,-304.654 117.995,-315.246 124.655,-313.091"/>
</g>
<!-- Node8 -->
<g id="node8" class="node"><title>Node8</title>
<g id="a_node8"><a xlink:href="../../d0/dc0/a00033.html#aa8750c4135be10989041d0d3d041c89d" target="_top" xlink:title="float4::operator&amp;">
<polygon fill="none" stroke="black" points="179.5,-380.5 179.5,-399.5 268.5,-399.5 268.5,-380.5 179.5,-380.5"/>
<text text-anchor="middle" x="224" y="-387.5" font-family="Helvetica,sans-Serif" font-size="10.00">float4::operator&amp;</text>
</a>
</g>
</g>
<!-- Node2&#45;&gt;Node8 -->
<g id="edge7" class="edge"><title>Node2&#45;&gt;Node8</title>
<path fill="none" stroke="midnightblue" d="M126.716,-313.649C137.704,-330.57 155.849,-355.217 177,-371 181.986,-374.721 187.806,-377.851 193.597,-380.43"/>
<polygon fill="midnightblue" stroke="midnightblue" points="129.384,-311.316 121.105,-304.704 123.454,-315.036 129.384,-311.316"/>
</g>
<!-- Node9 -->
<g id="node9" class="node"><title>Node9</title>
<g id="a_node9"><a xlink:href="../../d0/dc0/a00033.html#a31471b46461f7d2f2d90dc87adff880f" target="_top" xlink:title="float4::operator\|">
<polygon fill="none" stroke="black" points="182,-342.5 182,-361.5 266,-361.5 266,-342.5 182,-342.5"/>
<text text-anchor="middle" x="224" y="-349.5" font-family="Helvetica,sans-Serif" font-size="10.00">float4::operator|</text>
</a>
</g>
</g>
<!-- Node2&#45;&gt;Node9 -->
<g id="edge8" class="edge"><title>Node2&#45;&gt;Node9</title>
<path fill="none" stroke="midnightblue" d="M138.247,-310.278C149.631,-317.606 163.773,-326.238 177,-333 183.616,-336.382 190.979,-339.637 197.839,-342.467"/>
<polygon fill="midnightblue" stroke="midnightblue" points="140.064,-307.285 129.778,-304.742 136.233,-313.144 140.064,-307.285"/>
</g>
<!-- Node10 -->
<g id="node10" class="node"><title>Node10</title>
<g id="a_node10"><a xlink:href="../../d0/dc0/a00033.html#ad1ef3367483d5a9fea2643d31fc44481" target="_top" xlink:title="float4::operator^">
<polygon fill="none" stroke="black" points="181,-304.5 181,-323.5 267,-323.5 267,-304.5 181,-304.5"/>
<text text-anchor="middle" x="224" y="-311.5" font-family="Helvetica,sans-Serif" font-size="10.00">float4::operator^</text>
</a>
</g>
</g>
<!-- Node2&#45;&gt;Node10 -->
<g id="edge9" class="edge"><title>Node2&#45;&gt;Node10</title>
<path fill="none" stroke="midnightblue" d="M151.117,-301.295C160.579,-302.967 170.889,-304.79 180.671,-306.519"/>
<polygon fill="midnightblue" stroke="midnightblue" points="151.705,-297.845 141.249,-299.551 150.487,-304.738 151.705,-297.845"/>
</g>
<!-- Node11 -->
<g id="node11" class="node"><title>Node11</title>
<g id="a_node11"><a xlink:href="../../d0/dc0/a00033.html#a1f1753b62b845c4ce3f4f80efecb875d" target="_top" xlink:title="float4::operator*">
<polygon fill="none" stroke="black" points="181,-266.5 181,-285.5 267,-285.5 267,-266.5 181,-266.5"/>
<text text-anchor="middle" x="224" y="-273.5" font-family="Helvetica,sans-Serif" font-size="10.00">float4::operator*</text>
</a>
</g>
</g>
<!-- Node2&#45;&gt;Node11 -->
<g id="edge10" class="edge"><title>Node2&#45;&gt;Node11</title>
<path fill="none" stroke="midnightblue" d="M151.117,-288.705C160.579,-287.033 170.889,-285.21 180.671,-283.481"/>
<polygon fill="midnightblue" stroke="midnightblue" points="150.487,-285.262 141.249,-290.449 151.705,-292.155 150.487,-285.262"/>
</g>
<!-- Node12 -->
<g id="node12" class="node"><title>Node12</title>
<g id="a_node12"><a xlink:href="../../d0/dc0/a00033.html#a09a3de4ff68edac15d16ab6092d56cde" target="_top" xlink:title="float4::operator+">
<polygon fill="none" stroke="black" points="180,-228.5 180,-247.5 268,-247.5 268,-228.5 180,-228.5"/>
<text text-anchor="middle" x="224" y="-235.5" font-family="Helvetica,sans-Serif" font-size="10.00">float4::operator+</text>
</a>
</g>
</g>
<!-- Node2&#45;&gt;Node12 -->
<g id="edge11" class="edge"><title>Node2&#45;&gt;Node12</title>
<path fill="none" stroke="midnightblue" d="M138.247,-279.722C149.631,-272.394 163.773,-263.762 177,-257 183.616,-253.618 190.979,-250.363 197.839,-247.533"/>
<polygon fill="midnightblue" stroke="midnightblue" points="136.233,-276.856 129.778,-285.258 140.064,-282.715 136.233,-276.856"/>
</g>
<!-- Node13 -->
<g id="node13" class="node"><title>Node13</title>
<g id="a_node13"><a xlink:href="../../d0/dc0/a00033.html#aeb7b6452b479bc8dc3231fb36d0aac37" target="_top" xlink:title="float4::operator&#45;">
<polygon fill="none" stroke="black" points="181.5,-190.5 181.5,-209.5 266.5,-209.5 266.5,-190.5 181.5,-190.5"/>
<text text-anchor="middle" x="224" y="-197.5" font-family="Helvetica,sans-Serif" font-size="10.00">float4::operator&#45;</text>
</a>
</g>
</g>
<!-- Node2&#45;&gt;Node13 -->
<g id="edge12" class="edge"><title>Node2&#45;&gt;Node13</title>
<path fill="none" stroke="midnightblue" d="M126.716,-276.351C137.704,-259.43 155.849,-234.783 177,-219 181.986,-215.279 187.806,-212.149 193.597,-209.57"/>
<polygon fill="midnightblue" stroke="midnightblue" points="123.454,-274.964 121.105,-285.296 129.384,-278.684 123.454,-274.964"/>
</g>
<!-- Node14 -->
<g id="node14" class="node"><title>Node14</title>
<g id="a_node14"><a xlink:href="../../d0/dc0/a00033.html#ae2e2701bb528104185d42c7935294db9" target="_top" xlink:title="float4::operator/">
<polygon fill="none" stroke="black" points="181.5,-152.5 181.5,-171.5 266.5,-171.5 266.5,-152.5 181.5,-152.5"/>
<text text-anchor="middle" x="224" y="-159.5" font-family="Helvetica,sans-Serif" font-size="10.00">float4::operator/</text>
</a>
</g>
</g>
<!-- Node2&#45;&gt;Node14 -->
<g id="edge13" class="edge"><title>Node2&#45;&gt;Node14</title>
<path fill="none" stroke="midnightblue" d="M121.412,-275.565C129.929,-250.563 147.907,-207.24 177,-181 181.235,-177.181 186.343,-174.068 191.594,-171.551"/>
<polygon fill="midnightblue" stroke="midnightblue" points="117.995,-274.754 118.247,-285.346 124.655,-276.909 117.995,-274.754"/>
</g>
<!-- Node15 -->
<g id="node15" class="node"><title>Node15</title>
<g id="a_node15"><a xlink:href="../../d0/dc0/a00033.html#aeef0afffa81f6eeeb635b19db74b4aaf" target="_top" xlink:title="float4::operator*=">
<polygon fill="none" stroke="black" points="178,-114.5 178,-133.5 270,-133.5 270,-114.5 178,-114.5"/>
<text text-anchor="middle" x="224" y="-121.5" font-family="Helvetica,sans-Serif" font-size="10.00">float4::operator*=</text>
</a>
</g>
</g>
<!-- Node2&#45;&gt;Node15 -->
<g id="edge14" class="edge"><title>Node2&#45;&gt;Node15</title>
<path fill="none" stroke="midnightblue" d="M118.482,-275.163C124.259,-243.279 139.846,-180.424 177,-143 180.774,-139.198 185.419,-136.124 190.29,-133.647"/>
<polygon fill="midnightblue" stroke="midnightblue" points="114.967,-274.965 116.776,-285.404 121.872,-276.116 114.967,-274.965"/>
</g>
<!-- Node16 -->
<g id="node16" class="node"><title>Node16</title>
<g id="a_node16"><a xlink:href="../../d0/dc0/a00033.html#a82348e5203a86345c97c358730efb4a5" target="_top" xlink:title="float4::operator+=">
<polygon fill="none" stroke="black" points="177,-76.5 177,-95.5 271,-95.5 271,-76.5 177,-76.5"/>
<text text-anchor="middle" x="224" y="-83.5" font-family="Helvetica,sans-Serif" font-size="10.00">float4::operator+=</text>
</a>
</g>
</g>
<!-- Node2&#45;&gt;Node16 -->
<g id="edge15" class="edge"><title>Node2&#45;&gt;Node16</title>
<path fill="none" stroke="midnightblue" d="M116.587,-275.09C119.686,-237.204 131.573,-154.148 177,-105 180.519,-101.193 184.915,-98.1266 189.584,-95.663"/>
<polygon fill="midnightblue" stroke="midnightblue" points="113.079,-275.092 115.88,-285.309 120.062,-275.575 113.079,-275.092"/>
</g>
<!-- Node17 -->
<g id="node17" class="node"><title>Node17</title>
<g id="a_node17"><a xlink:href="../../d0/dc0/a00033.html#a73b8f4c7465237b7b7ba8f78da705f24" target="_top" xlink:title="float4::operator&#45;=">
<polygon fill="none" stroke="black" points="178.5,-38.5 178.5,-57.5 269.5,-57.5 269.5,-38.5 178.5,-38.5"/>
<text text-anchor="middle" x="224" y="-45.5" font-family="Helvetica,sans-Serif" font-size="10.00">float4::operator&#45;=</text>
</a>
</g>
</g>
<!-- Node2&#45;&gt;Node17 -->
<g id="edge16" class="edge"><title>Node2&#45;&gt;Node17</title>
<path fill="none" stroke="midnightblue" d="M115.275,-275.365C115.832,-232.263 123.071,-128.329 177,-67 180.423,-63.1068 184.769,-59.9948 189.416,-57.5117"/>
<polygon fill="midnightblue" stroke="midnightblue" points="111.775,-275.383 115.257,-285.389 118.775,-275.396 111.775,-275.383"/>
</g>
<!-- Node18 -->
<g id="node18" class="node"><title>Node18</title>
<g id="a_node18"><a xlink:href="../../d0/dc0/a00033.html#a8333053779355da0d6769489fe544662" target="_top" xlink:title="float4::operator/=">
<polygon fill="none" stroke="black" points="178.5,-0.5 178.5,-19.5 269.5,-19.5 269.5,-0.5 178.5,-0.5"/>
<text text-anchor="middle" x="224" y="-7.5" font-family="Helvetica,sans-Serif" font-size="10.00">float4::operator/=</text>
</a>
</g>
</g>
<!-- Node2&#45;&gt;Node18 -->
<g id="edge17" class="edge"><title>Node2&#45;&gt;Node18</title>
<path fill="none" stroke="midnightblue" d="M117.707,-275.314C124.224,-220.351 144.952,-66.8057 177,-29 180.241,-25.1772 184.374,-22.1113 188.829,-19.6556"/>
<polygon fill="midnightblue" stroke="midnightblue" points="114.205,-275.133 116.533,-285.469 121.159,-275.937 114.205,-275.133"/>
</g>
</g>
</svg>
        <g id="navigator" transform="translate(0 0)" fill="#404254">
                <rect fill="#f2f5e9" fill-opacity="0.5" stroke="#606060" stroke-width=".5" x="0" y="0" width="60" height="60"/>
                <use id="zoomplus" xlink:href="#zoomPlus" x="17" y="9" onmousedown="handleZoom(evt,'in')"/>
                <use id="zoomminus" xlink:href="#zoomMin" x="42" y="9" onmousedown="handleZoom(evt,'out')"/>
                <use id="reset" xlink:href="#resetDef" x="30" y="36" onmousedown="handleReset()"/>
                <g id="arrowUp" xlink:href="#dirArrow" transform="translate(30 24)" onmousedown="handlePan(0,-1)">
                  <use xlink:href="#rim" fill="#404040">
                        <set attributeName="fill" to="#808080" begin="arrowUp.mouseover" end="arrowUp.mouseout"/>
                  </use>
                  <path fill="none" stroke="white" stroke-width="1.5" d="M0,-3.0v7 M-2.5,-0.5L0,-3.0L2.5,-0.5"/>
                </g>
                <g id="arrowRight" xlink:href="#dirArrow" transform="rotate(90) translate(36 -43)" onmousedown="handlePan(1,0)">
                  <use xlink:href="#rim" fill="#404040">
                        <set attributeName="fill" to="#808080" begin="arrowRight.mouseover" end="arrowRight.mouseout"/>
                  </use>
                  <path fill="none" stroke="white" stroke-width="1.5" d="M0,-3.0v7 M-2.5,-0.5L0,-3.0L2.5,-0.5"/>
                </g>
                <g id="arrowDown" xlink:href="#dirArrow" transform="rotate(180) translate(-30 -48)" onmousedown="handlePan(0,1)">
                  <use xlink:href="#rim" fill="#404040">
                        <set attributeName="fill" to="#808080" begin="arrowDown.mouseover" end="arrowDown.mouseout"/>
                  </use>
                  <path fill="none" stroke="white" stroke-width="1.5" d="M0,-3.0v7 M-2.5,-0.5L0,-3.0L2.5,-0.5"/>
                </g>
                <g id="arrowLeft" xlink:href="#dirArrow" transform="rotate(270) translate(-36 17)" onmousedown="handlePan(-1,0)">
                  <use xlink:href="#rim" fill="#404040">
                        <set attributeName="fill" to="#808080" begin="arrowLeft.mouseover" end="arrowLeft.mouseout"/>
                  </use>
                  <path fill="none" stroke="white" stroke-width="1.5" d="M0,-3.0v7 M-2.5,-0.5L0,-3.0L2.5,-0.5"/>
                </g>
        </g>
        <svg viewBox="0 0 15 15" width="100%" height="30px" preserveAspectRatio="xMaxYMin meet">
         <g id="arrow_out" transform="scale(0.3 0.3)">
          <a xlink:href="a00033_acedd42bf764426d0e6dd1b6e1d05a22c_icgraph_org.svg" target="_base">
           <rect id="button" ry="5" rx="5" y="6" x="6" height="38" width="38"
                fill="#f2f5e9" fill-opacity="0.5" stroke="#606060" stroke-width="1.0"/>
           <path id="arrow"
             d="M 11.500037,31.436501 C 11.940474,20.09759 22.043105,11.32322 32.158766,21.979434 L 37.068811,17.246167 C 37.068811,17.246167 37.088388,32 37.088388,32 L 22.160133,31.978069 C 22.160133,31.978069 26.997745,27.140456 26.997745,27.140456 C 18.528582,18.264221 13.291696,25.230495 11.500037,31.436501 z"
             style="fill:#404040;"/>
          </a>
         </g>
        </svg>
</svg>
