<?xml version="1.0" encoding="UTF-8" standalone="no"?>
<!DOCTYPE svg PUBLIC "-//W3C//DTD SVG 1.1//EN"
 "http://www.w3.org/Graphics/SVG/1.1/DTD/svg11.dtd">
<!-- Generated by graphviz version 2.38.0 (20140413.2041)
 -->
<!-- Title: hydra::Random::Exp Pages: 1 -->
<svg width="352pt" height="66pt"
 viewBox="0.00 0.00 352.00 66.00" xmlns="http://www.w3.org/2000/svg" xmlns:xlink="http://www.w3.org/1999/xlink">
<g id="graph0" class="graph" transform="scale(1 1) rotate(0) translate(4 62)">
<title>hydra::Random::Exp</title>
<!-- Node1 -->
<g id="node1" class="node"><title>Node1</title>
<polygon fill="#bfbfbf" stroke="black" points="0,-19.5 0,-38.5 107,-38.5 107,-19.5 0,-19.5"/>
<text text-anchor="middle" x="53.5" y="-26.5" font-family="Helvetica,sans-Serif" font-size="10.00">hydra::Random::Exp</text>
</g>
<!-- Node2 -->
<g id="node2" class="node"><title>Node2</title>
<g id="a_node2"><a xlink:href="../../d7/dd4/a00013.html#a32c166bdb75e9b204c87878f510ea1c5" target="_top" xlink:title="main">
<polygon fill="none" stroke="black" points="187.5,-38.5 187.5,-57.5 225.5,-57.5 225.5,-38.5 187.5,-38.5"/>
<text text-anchor="middle" x="206.5" y="-45.5" font-family="Helvetica,sans-Serif" font-size="10.00">main</text>
</a>
</g>
</g>
<!-- Node1&#45;&gt;Node2 -->
<g id="edge1" class="edge"><title>Node1&#45;&gt;Node2</title>
<path fill="none" stroke="midnightblue" d="M117.279,-36.8994C142.639,-40.0903 169.97,-43.5293 187.38,-45.72"/>
<polygon fill="midnightblue" stroke="midnightblue" points="117.671,-33.4212 107.312,-35.6453 116.797,-40.3664 117.671,-33.4212"/>
</g>
<!-- Node3 -->
<g id="node3" class="node"><title>Node3</title>
<g id="a_node3"><a xlink:href="../../d5/de0/a00050.html#ade43b0c4c234c35cd10b5b984a6a555e" target="_top" xlink:title="hydra::Random::SetSeed">
<polygon fill="none" stroke="black" points="143,-0.5 143,-19.5 270,-19.5 270,-0.5 143,-0.5"/>
<text text-anchor="middle" x="206.5" y="-7.5" font-family="Helvetica,sans-Serif" font-size="10.00">hydra::Random::SetSeed</text>
</a>
</g>
</g>
<!-- Node1&#45;&gt;Node3 -->
<g id="edge2" class="edge"><title>Node1&#45;&gt;Node3</title>
<path fill="none" stroke="midnightblue" d="M117.433,-21.0812C125.841,-20.0233 134.463,-18.9384 142.866,-17.8811"/>
<polygon fill="midnightblue" stroke="midnightblue" points="116.797,-17.6336 107.312,-22.3547 117.671,-24.5788 116.797,-17.6336"/>
</g>
<!-- Node4 -->
<g id="node4" class="node"><title>Node4</title>
<g id="a_node4"><a xlink:href="../../dd/dad/a00005.html#a32c166bdb75e9b204c87878f510ea1c5" target="_top" xlink:title="main">
<polygon fill="none" stroke="black" points="306,-0.5 306,-19.5 344,-19.5 344,-0.5 306,-0.5"/>
<text text-anchor="middle" x="325" y="-7.5" font-family="Helvetica,sans-Serif" font-size="10.00">main</text>
</a>
</g>
</g>
<!-- Node3&#45;&gt;Node4 -->
<g id="edge3" class="edge"><title>Node3&#45;&gt;Node4</title>
<path fill="none" stroke="midnightblue" d="M280.373,-10C289.618,-10 298.338,-10 305.516,-10"/>
<polygon fill="midnightblue" stroke="midnightblue" points="280.183,-6.5001 270.183,-10 280.183,-13.5001 280.183,-6.5001"/>
</g>
</g>
</svg>
