<?xml version="1.0" encoding="UTF-8" standalone="no"?>
<!DOCTYPE svg PUBLIC "-//W3C//DTD SVG 1.1//EN"
 "http://www.w3.org/Graphics/SVG/1.1/DTD/svg11.dtd">
<!-- Generated by graphviz version 2.38.0 (20140413.2041)
 -->
<!-- Title: hydra::Vector4R::applyBoostTo Pages: 1 -->
<svg width="308pt" height="127pt"
 viewBox="0.00 0.00 308.00 126.50" xmlns="http://www.w3.org/2000/svg" xmlns:xlink="http://www.w3.org/1999/xlink">
<g id="graph0" class="graph" transform="scale(1 1) rotate(0) translate(4 122.5)">
<title>hydra::Vector4R::applyBoostTo</title>
<!-- Node1 -->
<g id="node1" class="node"><title>Node1</title>
<polygon fill="#bfbfbf" stroke="black" points="0,-55 0,-74 154,-74 154,-55 0,-55"/>
<text text-anchor="middle" x="77" y="-62" font-family="Helvetica,sans-Serif" font-size="10.00">hydra::Vector4R::applyBoostTo</text>
</g>
<!-- Node2 -->
<g id="node2" class="node"><title>Node2</title>
<g id="a_node2"><a xlink:href="../../d7/dd4/a00013.html#a52d2bb64b855258800238a7263f26699" target="_top" xlink:title="hydra::boostTo">
<polygon fill="none" stroke="black" points="204,-99 204,-118 286,-118 286,-99 204,-99"/>
<text text-anchor="middle" x="245" y="-106" font-family="Helvetica,sans-Serif" font-size="10.00">hydra::boostTo</text>
</a>
</g>
</g>
<!-- Node1&#45;&gt;Node2 -->
<g id="edge1" class="edge"><title>Node1&#45;&gt;Node2</title>
<path fill="none" stroke="midnightblue" d="M123.856,-76.6547C150.419,-83.6955 183.377,-92.4312 208.051,-98.9713"/>
<polygon fill="midnightblue" stroke="midnightblue" points="124.583,-73.2264 114.02,-74.0473 122.789,-79.9927 124.583,-73.2264"/>
</g>
<!-- Node3 -->
<g id="node3" class="node"><title>Node3</title>
<g id="a_node3"><a xlink:href="../../da/d45/a00011.html#a2a57eb5a3b47dc976ec7d8794d408a6b" target="_top" xlink:title="hydra::DecayMothers\l::process">
<polygon fill="none" stroke="black" points="190,-49.5 190,-79.5 300,-79.5 300,-49.5 190,-49.5"/>
<text text-anchor="start" x="198" y="-67.5" font-family="Helvetica,sans-Serif" font-size="10.00">hydra::DecayMothers</text>
<text text-anchor="middle" x="245" y="-56.5" font-family="Helvetica,sans-Serif" font-size="10.00">::process</text>
</a>
</g>
</g>
<!-- Node1&#45;&gt;Node3 -->
<g id="edge2" class="edge"><title>Node1&#45;&gt;Node3</title>
<path fill="none" stroke="midnightblue" d="M164.289,-64.5C172.885,-64.5 181.434,-64.5 189.566,-64.5"/>
<polygon fill="midnightblue" stroke="midnightblue" points="164.198,-61.0001 154.198,-64.5 164.198,-68.0001 164.198,-61.0001"/>
</g>
<!-- Node4 -->
<g id="node4" class="node"><title>Node4</title>
<g id="a_node4"><a xlink:href="../../d7/dec/a00010.html#a6a6394b7f9379537cd51122949b45463" target="_top" xlink:title="hydra::DecayMother\l::process">
<polygon fill="none" stroke="black" points="192.5,-0.5 192.5,-30.5 297.5,-30.5 297.5,-0.5 192.5,-0.5"/>
<text text-anchor="start" x="200.5" y="-18.5" font-family="Helvetica,sans-Serif" font-size="10.00">hydra::DecayMother</text>
<text text-anchor="middle" x="245" y="-7.5" font-family="Helvetica,sans-Serif" font-size="10.00">::process</text>
</a>
</g>
</g>
<!-- Node1&#45;&gt;Node4 -->
<g id="edge3" class="edge"><title>Node1&#45;&gt;Node4</title>
<path fill="none" stroke="midnightblue" d="M120.191,-52.0459C142.365,-45.5008 169.711,-37.4287 193.058,-30.537"/>
<polygon fill="midnightblue" stroke="midnightblue" points="119.001,-48.7481 110.401,-54.936 120.982,-55.4617 119.001,-48.7481"/>
</g>
</g>
</svg>
