<?xml version="1.0" encoding="UTF-8" standalone="no"?>
<!DOCTYPE svg PUBLIC "-//W3C//DTD SVG 1.1//EN"
 "http://www.w3.org/Graphics/SVG/1.1/DTD/svg11.dtd">
<!-- Generated by graphviz version 2.38.0 (20140413.2041)
 -->
<!-- Title: Pdf.h Pages: 1 -->
<svg width="1985pt" height="475pt"
 viewBox="0.00 0.00 1985.00 475.00" xmlns="http://www.w3.org/2000/svg" xmlns:xlink="http://www.w3.org/1999/xlink">
<g id="graph0" class="graph" transform="scale(1 1) rotate(0) translate(4 471)">
<title>Pdf.h</title>
<!-- Node1 -->
<g id="node1" class="node"><title>Node1</title>
<polygon fill="#bfbfbf" stroke="black" points="1441.5,-447.5 1441.5,-466.5 1481.5,-466.5 1481.5,-447.5 1441.5,-447.5"/>
<text text-anchor="middle" x="1461.5" y="-454.5" font-family="Helvetica,sans-Serif" font-size="10.00">Pdf.h</text>
</g>
<!-- Node2 -->
<g id="node2" class="node"><title>Node2</title>
<g id="a_node2"><a xlink:href="../../da/dec/a00080.html" target="_top" xlink:title="hydra/detail/Config.h">
<polygon fill="none" stroke="black" points="353,-78.5 353,-97.5 460,-97.5 460,-78.5 353,-78.5"/>
<text text-anchor="middle" x="406.5" y="-85.5" font-family="Helvetica,sans-Serif" font-size="10.00">hydra/detail/Config.h</text>
</a>
</g>
</g>
<!-- Node1&#45;&gt;Node2 -->
<g id="edge1" class="edge"><title>Node1&#45;&gt;Node2</title>
<path fill="none" stroke="midnightblue" d="M1441.37,-456.028C1291.27,-456.137 349.341,-455.055 231.5,-411 177.471,-390.802 130.5,-387.181 130.5,-329.5 130.5,-329.5 130.5,-329.5 130.5,-199 130.5,-152.131 269.582,-116.373 350.285,-99.5692"/>
<polygon fill="midnightblue" stroke="midnightblue" points="351.209,-102.953 360.304,-97.5177 349.805,-96.0948 351.209,-102.953"/>
</g>
<!-- Node12 -->
<g id="node12" class="node"><title>Node12</title>
<g id="a_node12"><a xlink:href="../../de/d36/a00123.html" target="_top" xlink:title="hydra/Types.h">
<polygon fill="none" stroke="black" points="1026,-78.5 1026,-97.5 1105,-97.5 1105,-78.5 1026,-78.5"/>
<text text-anchor="middle" x="1065.5" y="-85.5" font-family="Helvetica,sans-Serif" font-size="10.00">hydra/Types.h</text>
</a>
</g>
</g>
<!-- Node1&#45;&gt;Node12 -->
<g id="edge11" class="edge"><title>Node1&#45;&gt;Node12</title>
<path fill="none" stroke="midnightblue" d="M1481.56,-448.131C1518.94,-432 1595.5,-391.406 1595.5,-329.5 1595.5,-329.5 1595.5,-329.5 1595.5,-199 1595.5,-101.556 1247.69,-89.8017 1115.58,-88.8517"/>
<polygon fill="midnightblue" stroke="midnightblue" points="1115.35,-85.3505 1105.34,-88.7968 1115.32,-92.3504 1115.35,-85.3505"/>
</g>
<!-- Node13 -->
<g id="node13" class="node"><title>Node13</title>
<g id="a_node13"><a xlink:href="../../d8/d17/a00114.html" target="_top" xlink:title="hydra/detail/Print.h">
<polygon fill="none" stroke="black" points="501.5,-134.5 501.5,-153.5 599.5,-153.5 599.5,-134.5 501.5,-134.5"/>
<text text-anchor="middle" x="550.5" y="-141.5" font-family="Helvetica,sans-Serif" font-size="10.00">hydra/detail/Print.h</text>
</a>
</g>
</g>
<!-- Node1&#45;&gt;Node13 -->
<g id="edge12" class="edge"><title>Node1&#45;&gt;Node13</title>
<path fill="none" stroke="midnightblue" d="M1441.19,-455.167C1369.44,-452.042 1121.27,-439.703 918.5,-411 769.024,-389.841 724.739,-402.338 585.5,-344 490.529,-304.209 442.714,-302.017 396.5,-210 375.925,-169.034 439.381,-153.875 490.997,-148.273"/>
<polygon fill="midnightblue" stroke="midnightblue" points="491.525,-151.738 501.134,-147.275 490.839,-144.772 491.525,-151.738"/>
</g>
<!-- Node15 -->
<g id="node15" class="node"><title>Node15</title>
<g id="a_node15"><a xlink:href="../../df/d98/a00107.html" target="_top" xlink:title="hydra/Parameter.h">
<polygon fill="none" stroke="black" points="241,-386 241,-405 338,-405 338,-386 241,-386"/>
<text text-anchor="middle" x="289.5" y="-393" font-family="Helvetica,sans-Serif" font-size="10.00">hydra/Parameter.h</text>
</a>
</g>
</g>
<!-- Node1&#45;&gt;Node15 -->
<g id="edge16" class="edge"><title>Node1&#45;&gt;Node15</title>
<path fill="none" stroke="midnightblue" d="M1441.37,-455.62C1310.74,-453.085 581.5,-437.906 360.5,-411 352.332,-410.006 343.703,-408.573 335.381,-406.99"/>
<polygon fill="midnightblue" stroke="midnightblue" points="335.927,-403.53 325.436,-405.006 334.557,-410.395 335.927,-403.53"/>
</g>
<!-- Node19 -->
<g id="node19" class="node"><title>Node19</title>
<polygon fill="none" stroke="#bfbfbf" points="1131.5,-190.5 1131.5,-209.5 1169.5,-209.5 1169.5,-190.5 1131.5,-190.5"/>
<text text-anchor="middle" x="1150.5" y="-197.5" font-family="Helvetica,sans-Serif" font-size="10.00">array</text>
</g>
<!-- Node1&#45;&gt;Node19 -->
<g id="edge67" class="edge"><title>Node1&#45;&gt;Node19</title>
<path fill="none" stroke="midnightblue" d="M1472.74,-447.415C1501.59,-424.353 1573.59,-359.645 1538.5,-313 1494.29,-254.223 1261.94,-216.561 1179.53,-204.883"/>
<polygon fill="midnightblue" stroke="midnightblue" points="1179.97,-201.411 1169.58,-203.498 1179,-208.344 1179.97,-201.411"/>
</g>
<!-- Node34 -->
<g id="node34" class="node"><title>Node34</title>
<g id="a_node34"><a xlink:href="../../d7/d12/a00126.html" target="_top" xlink:title="hydra/detail/utility\l/Utility_Tuple.h">
<polygon fill="none" stroke="black" points="928,-380.5 928,-410.5 1021,-410.5 1021,-380.5 928,-380.5"/>
<text text-anchor="start" x="936" y="-398.5" font-family="Helvetica,sans-Serif" font-size="10.00">hydra/detail/utility</text>
<text text-anchor="middle" x="974.5" y="-387.5" font-family="Helvetica,sans-Serif" font-size="10.00">/Utility_Tuple.h</text>
</a>
</g>
</g>
<!-- Node1&#45;&gt;Node34 -->
<g id="edge49" class="edge"><title>Node1&#45;&gt;Node34</title>
<path fill="none" stroke="midnightblue" d="M1441.19,-453.519C1371.35,-444.986 1139.37,-416.643 1031.08,-403.413"/>
<polygon fill="midnightblue" stroke="midnightblue" points="1031.35,-399.92 1021,-402.181 1030.5,-406.868 1031.35,-399.92"/>
</g>
<!-- Node36 -->
<g id="node36" class="node"><title>Node36</title>
<polygon fill="none" stroke="#bfbfbf" points="1133.5,-319 1133.5,-338 1207.5,-338 1207.5,-319 1133.5,-319"/>
<text text-anchor="middle" x="1170.5" y="-326" font-family="Helvetica,sans-Serif" font-size="10.00">thrust/tuple.h</text>
</g>
<!-- Node1&#45;&gt;Node36 -->
<g id="edge66" class="edge"><title>Node1&#45;&gt;Node36</title>
<path fill="none" stroke="midnightblue" d="M1441.5,-447.305C1391.12,-425.407 1258.84,-367.904 1199.75,-342.214"/>
<polygon fill="midnightblue" stroke="midnightblue" points="1200.82,-338.865 1190.26,-338.088 1198.03,-345.285 1200.82,-338.865"/>
</g>
<!-- Node37 -->
<g id="node37" class="node"><title>Node37</title>
<polygon fill="none" stroke="#bfbfbf" points="1226,-313.5 1226,-343.5 1375,-343.5 1375,-313.5 1226,-313.5"/>
<text text-anchor="start" x="1234" y="-331.5" font-family="Helvetica,sans-Serif" font-size="10.00">thrust/iterator/detail</text>
<text text-anchor="middle" x="1300.5" y="-320.5" font-family="Helvetica,sans-Serif" font-size="10.00">/tuple_of_iterator_references.h</text>
</g>
<!-- Node1&#45;&gt;Node37 -->
<g id="edge64" class="edge"><title>Node1&#45;&gt;Node37</title>
<path fill="none" stroke="midnightblue" d="M1450.43,-447.305C1425.11,-427.409 1362.38,-378.124 1326.6,-350.01"/>
<polygon fill="midnightblue" stroke="midnightblue" points="1328.58,-347.108 1318.55,-343.682 1324.25,-352.612 1328.58,-347.108"/>
</g>
<!-- Node38 -->
<g id="node38" class="node"><title>Node38</title>
<g id="a_node38"><a xlink:href="../../d9/d77/a00095.html" target="_top" xlink:title="hydra/detail/FunctorTraits.h">
<polygon fill="none" stroke="black" points="1393.5,-319 1393.5,-338 1529.5,-338 1529.5,-319 1393.5,-319"/>
<text text-anchor="middle" x="1461.5" y="-326" font-family="Helvetica,sans-Serif" font-size="10.00">hydra/detail/FunctorTraits.h</text>
</a>
</g>
</g>
<!-- Node1&#45;&gt;Node38 -->
<g id="edge61" class="edge"><title>Node1&#45;&gt;Node38</title>
<path fill="none" stroke="midnightblue" d="M1461.5,-447.305C1461.5,-426.994 1461.5,-376.053 1461.5,-348.277"/>
<polygon fill="midnightblue" stroke="midnightblue" points="1465,-348.256 1461.5,-338.256 1458,-348.256 1465,-348.256"/>
</g>
<!-- Node39 -->
<g id="node39" class="node"><title>Node39</title>
<polygon fill="none" stroke="#bfbfbf" points="1623.5,-380.5 1623.5,-410.5 1713.5,-410.5 1713.5,-380.5 1623.5,-380.5"/>
<text text-anchor="start" x="1631.5" y="-398.5" font-family="Helvetica,sans-Serif" font-size="10.00">thrust/iterator/zip</text>
<text text-anchor="middle" x="1668.5" y="-387.5" font-family="Helvetica,sans-Serif" font-size="10.00">_iterator.h</text>
</g>
<!-- Node1&#45;&gt;Node39 -->
<g id="edge65" class="edge"><title>Node1&#45;&gt;Node39</title>
<path fill="none" stroke="midnightblue" d="M1481.72,-450.187C1511.93,-441.505 1569.9,-424.842 1613.28,-412.371"/>
<polygon fill="midnightblue" stroke="midnightblue" points="1614.49,-415.666 1623.14,-409.539 1612.56,-408.938 1614.49,-415.666"/>
</g>
<!-- Node40 -->
<g id="node40" class="node"><title>Node40</title>
<polygon fill="none" stroke="#bfbfbf" points="1732,-386 1732,-405 1805,-405 1805,-386 1732,-386"/>
<text text-anchor="middle" x="1768.5" y="-393" font-family="Helvetica,sans-Serif" font-size="10.00">initializer_list</text>
</g>
<!-- Node1&#45;&gt;Node40 -->
<g id="edge68" class="edge"><title>Node1&#45;&gt;Node40</title>
<path fill="none" stroke="midnightblue" d="M1481.66,-453.467C1525.73,-447.724 1633.8,-432.522 1722.5,-411 1726.13,-410.119 1729.89,-409.104 1733.63,-408.03"/>
<polygon fill="midnightblue" stroke="midnightblue" points="1734.8,-411.333 1743.36,-405.095 1732.78,-404.631 1734.8,-411.333"/>
</g>
<!-- Node41 -->
<g id="node41" class="node"><title>Node41</title>
<polygon fill="none" stroke="#bfbfbf" points="1823.5,-386 1823.5,-405 1875.5,-405 1875.5,-386 1823.5,-386"/>
<text text-anchor="middle" x="1849.5" y="-393" font-family="Helvetica,sans-Serif" font-size="10.00">memory</text>
</g>
<!-- Node1&#45;&gt;Node41 -->
<g id="edge69" class="edge"><title>Node1&#45;&gt;Node41</title>
<path fill="none" stroke="midnightblue" d="M1481.76,-455.296C1536.39,-452.997 1690.9,-443.85 1814.5,-411 1816.95,-410.35 1819.45,-409.567 1821.94,-408.706"/>
<polygon fill="midnightblue" stroke="midnightblue" points="1823.21,-411.967 1831.29,-405.117 1820.7,-405.432 1823.21,-411.967"/>
</g>
<!-- Node42 -->
<g id="node42" class="node"><title>Node42</title>
<polygon fill="none" stroke="#bfbfbf" points="1894,-386 1894,-405 1977,-405 1977,-386 1894,-386"/>
<text text-anchor="middle" x="1935.5" y="-393" font-family="Helvetica,sans-Serif" font-size="10.00">unordered_map</text>
</g>
<!-- Node1&#45;&gt;Node42 -->
<g id="edge70" class="edge"><title>Node1&#45;&gt;Node42</title>
<path fill="none" stroke="midnightblue" d="M1481.5,-455.088C1542.47,-452.05 1731.16,-440.728 1884.5,-411 1889.22,-410.085 1894.14,-408.939 1898.98,-407.695"/>
<polygon fill="midnightblue" stroke="midnightblue" points="1899.98,-411.05 1908.71,-405.046 1898.14,-404.295 1899.98,-411.05"/>
</g>
<!-- Node3 -->
<g id="node3" class="node"><title>Node3</title>
<polygon fill="none" stroke="#bfbfbf" points="0,-11.5 0,-30.5 105,-30.5 105,-11.5 0,-11.5"/>
<text text-anchor="middle" x="52.5" y="-18.5" font-family="Helvetica,sans-Serif" font-size="10.00">thrust/detail/config.h</text>
</g>
<!-- Node2&#45;&gt;Node3 -->
<g id="edge2" class="edge"><title>Node2&#45;&gt;Node3</title>
<path fill="none" stroke="midnightblue" d="M352.791,-81.4363C293.638,-74.6884 195.965,-61.71 113.5,-42 104.107,-39.7549 94.0832,-36.7381 84.9324,-33.7293"/>
<polygon fill="midnightblue" stroke="midnightblue" points="86.0107,-30.3992 75.4164,-30.5044 83.7639,-37.0289 86.0107,-30.3992"/>
</g>
<!-- Node4 -->
<g id="node4" class="node"><title>Node4</title>
<polygon fill="none" stroke="#bfbfbf" points="123,-6 123,-36 220,-36 220,-6 123,-6"/>
<text text-anchor="start" x="131" y="-24" font-family="Helvetica,sans-Serif" font-size="10.00">thrust/detail/config</text>
<text text-anchor="middle" x="171.5" y="-13" font-family="Helvetica,sans-Serif" font-size="10.00">/host_device.h</text>
</g>
<!-- Node2&#45;&gt;Node4 -->
<g id="edge3" class="edge"><title>Node2&#45;&gt;Node4</title>
<path fill="none" stroke="midnightblue" d="M369.303,-78.4937C333.316,-70.0408 277.346,-56.3044 229.5,-42 226.584,-41.1281 223.596,-40.2016 220.588,-39.2436"/>
<polygon fill="midnightblue" stroke="midnightblue" points="221.574,-35.8837 210.981,-36.1048 219.4,-42.5375 221.574,-35.8837"/>
</g>
<!-- Node5 -->
<g id="node5" class="node"><title>Node5</title>
<polygon fill="none" stroke="#bfbfbf" points="238.5,-11.5 238.5,-30.5 282.5,-30.5 282.5,-11.5 238.5,-11.5"/>
<text text-anchor="middle" x="260.5" y="-18.5" font-family="Helvetica,sans-Serif" font-size="10.00">omp.h</text>
</g>
<!-- Node2&#45;&gt;Node5 -->
<g id="edge4" class="edge"><title>Node2&#45;&gt;Node5</title>
<path fill="none" stroke="midnightblue" d="M380.277,-78.4243C356.538,-70.2698 320.892,-57.0404 291.5,-42 288.047,-40.233 284.493,-38.1827 281.078,-36.0821"/>
<polygon fill="midnightblue" stroke="midnightblue" points="282.833,-33.0485 272.533,-30.564 279.035,-38.929 282.833,-33.0485"/>
</g>
<!-- Node6 -->
<g id="node6" class="node"><title>Node6</title>
<polygon fill="none" stroke="#bfbfbf" points="300.5,-11.5 300.5,-30.5 346.5,-30.5 346.5,-11.5 300.5,-11.5"/>
<text text-anchor="middle" x="323.5" y="-18.5" font-family="Helvetica,sans-Serif" font-size="10.00">cuda.h</text>
</g>
<!-- Node2&#45;&gt;Node6 -->
<g id="edge5" class="edge"><title>Node2&#45;&gt;Node6</title>
<path fill="none" stroke="midnightblue" d="M395.306,-78.2338C381.866,-67.708 359.1,-49.8793 342.804,-37.1174"/>
<polygon fill="midnightblue" stroke="midnightblue" points="344.547,-34.0374 334.516,-30.6273 340.231,-39.5486 344.547,-34.0374"/>
</g>
<!-- Node7 -->
<g id="node7" class="node"><title>Node7</title>
<polygon fill="none" stroke="#bfbfbf" points="365,-11.5 365,-30.5 448,-30.5 448,-11.5 365,-11.5"/>
<text text-anchor="middle" x="406.5" y="-18.5" font-family="Helvetica,sans-Serif" font-size="10.00">cuda_runtime.h</text>
</g>
<!-- Node2&#45;&gt;Node7 -->
<g id="edge6" class="edge"><title>Node2&#45;&gt;Node7</title>
<path fill="none" stroke="midnightblue" d="M406.5,-78.2338C406.5,-68.6826 406.5,-53.1183 406.5,-40.7829"/>
<polygon fill="midnightblue" stroke="midnightblue" points="410,-40.6273 406.5,-30.6273 403,-40.6273 410,-40.6273"/>
</g>
<!-- Node8 -->
<g id="node8" class="node"><title>Node8</title>
<polygon fill="none" stroke="#bfbfbf" points="466,-11.5 466,-30.5 567,-30.5 567,-11.5 466,-11.5"/>
<text text-anchor="middle" x="516.5" y="-18.5" font-family="Helvetica,sans-Serif" font-size="10.00">cuda_runtime_api.h</text>
</g>
<!-- Node2&#45;&gt;Node8 -->
<g id="edge7" class="edge"><title>Node2&#45;&gt;Node8</title>
<path fill="none" stroke="midnightblue" d="M421.335,-78.2338C439.808,-67.3182 471.572,-48.5487 493.28,-35.7209"/>
<polygon fill="midnightblue" stroke="midnightblue" points="495.071,-38.7279 501.9,-30.6273 491.51,-32.7014 495.071,-38.7279"/>
</g>
<!-- Node9 -->
<g id="node9" class="node"><title>Node9</title>
<polygon fill="none" stroke="#bfbfbf" points="585.5,-11.5 585.5,-30.5 677.5,-30.5 677.5,-11.5 585.5,-11.5"/>
<text text-anchor="middle" x="631.5" y="-18.5" font-family="Helvetica,sans-Serif" font-size="10.00">math_functions.h</text>
</g>
<!-- Node2&#45;&gt;Node9 -->
<g id="edge8" class="edge"><title>Node2&#45;&gt;Node9</title>
<path fill="none" stroke="midnightblue" d="M442.025,-78.4502C476.393,-69.9654 529.838,-56.2065 575.5,-42 583.332,-39.5632 591.697,-36.7125 599.509,-33.9395"/>
<polygon fill="midnightblue" stroke="midnightblue" points="600.809,-37.1916 609.028,-30.5057 598.433,-30.6069 600.809,-37.1916"/>
</g>
<!-- Node10 -->
<g id="node10" class="node"><title>Node10</title>
<polygon fill="none" stroke="#bfbfbf" points="696,-6 696,-36 797,-36 797,-6 696,-6"/>
<text text-anchor="start" x="704" y="-24" font-family="Helvetica,sans-Serif" font-size="10.00">thrust/system/cuda</text>
<text text-anchor="middle" x="746.5" y="-13" font-family="Helvetica,sans-Serif" font-size="10.00">/execution_policy.h</text>
</g>
<!-- Node2&#45;&gt;Node10 -->
<g id="edge9" class="edge"><title>Node2&#45;&gt;Node10</title>
<path fill="none" stroke="midnightblue" d="M460.173,-81.0042C516.921,-74.0549 608.797,-61.0606 686.5,-42 690.126,-41.1106 693.847,-40.1047 697.574,-39.0288"/>
<polygon fill="midnightblue" stroke="midnightblue" points="698.839,-42.3026 707.392,-36.0498 696.807,-35.6041 698.839,-42.3026"/>
</g>
<!-- Node11 -->
<g id="node11" class="node"><title>Node11</title>
<polygon fill="none" stroke="#bfbfbf" points="815,-0.5 815,-41.5 922,-41.5 922,-0.5 815,-0.5"/>
<text text-anchor="start" x="823" y="-29.5" font-family="Helvetica,sans-Serif" font-size="10.00">thrust/system/cuda</text>
<text text-anchor="start" x="823" y="-18.5" font-family="Helvetica,sans-Serif" font-size="10.00">/experimental/pinned</text>
<text text-anchor="middle" x="868.5" y="-7.5" font-family="Helvetica,sans-Serif" font-size="10.00">_allocator.h</text>
</g>
<!-- Node2&#45;&gt;Node11 -->
<g id="edge10" class="edge"><title>Node2&#45;&gt;Node11</title>
<path fill="none" stroke="midnightblue" d="M460.277,-84.2711C535.46,-79.7236 676.247,-68.5445 804.715,-41.9409"/>
<polygon fill="midnightblue" stroke="midnightblue" points="805.666,-45.3174 814.729,-39.8301 804.222,-38.4679 805.666,-45.3174"/>
</g>
<!-- Node13&#45;&gt;Node2 -->
<g id="edge13" class="edge"><title>Node13&#45;&gt;Node2</title>
<path fill="none" stroke="midnightblue" d="M527.683,-134.444C503.668,-125.438 465.671,-111.189 438.631,-101.049"/>
<polygon fill="midnightblue" stroke="midnightblue" points="439.803,-97.7506 429.21,-97.5164 437.345,-104.305 439.803,-97.7506"/>
</g>
<!-- Node13&#45;&gt;Node12 -->
<g id="edge14" class="edge"><title>Node13&#45;&gt;Node12</title>
<path fill="none" stroke="midnightblue" d="M599.524,-138.38C706.675,-128.267 956.318,-104.622 1015.71,-97.8274"/>
<polygon fill="midnightblue" stroke="midnightblue" points="1016.47,-101.26 1025.97,-96.5606 1015.61,-94.3127 1016.47,-101.26"/>
</g>
<!-- Node14 -->
<g id="node14" class="node"><title>Node14</title>
<polygon fill="none" stroke="#bfbfbf" points="600.5,-78.5 600.5,-97.5 654.5,-97.5 654.5,-78.5 600.5,-78.5"/>
<text text-anchor="middle" x="627.5" y="-85.5" font-family="Helvetica,sans-Serif" font-size="10.00">iostream</text>
</g>
<!-- Node13&#45;&gt;Node14 -->
<g id="edge15" class="edge"><title>Node13&#45;&gt;Node14</title>
<path fill="none" stroke="midnightblue" d="M562.871,-134.324C574.658,-126.058 592.632,-113.453 606.636,-103.632"/>
<polygon fill="midnightblue" stroke="midnightblue" points="608.982,-106.262 615.159,-97.6545 604.962,-100.531 608.982,-106.262"/>
</g>
<!-- Node15&#45;&gt;Node2 -->
<g id="edge17" class="edge"><title>Node15&#45;&gt;Node2</title>
<path fill="none" stroke="midnightblue" d="M279.997,-385.765C270.359,-376.371 255.724,-360.542 247.5,-344 230.941,-310.696 228.5,-299.694 228.5,-262.5 228.5,-262.5 228.5,-262.5 228.5,-199 228.5,-141.836 295.754,-113.385 347.583,-99.9478"/>
<polygon fill="midnightblue" stroke="midnightblue" points="348.516,-103.323 357.39,-97.533 346.843,-96.5256 348.516,-103.323"/>
</g>
<!-- Node15&#45;&gt;Node12 -->
<g id="edge18" class="edge"><title>Node15&#45;&gt;Node12</title>
<path fill="none" stroke="midnightblue" d="M338.255,-392.94C437.775,-389.104 660.625,-376.999 728.5,-344 783.615,-317.204 771.216,-274.441 825.5,-246 907.053,-203.273 958.234,-268.289 1029.5,-210 1060.08,-184.989 1065.44,-135.212 1065.94,-107.943"/>
<polygon fill="midnightblue" stroke="midnightblue" points="1069.44,-107.764 1065.92,-97.7731 1062.44,-107.782 1069.44,-107.764"/>
</g>
<!-- Node16 -->
<g id="node16" class="node"><title>Node16</title>
<g id="a_node16"><a xlink:href="../../da/d72/a00124.html" target="_top" xlink:title="hydra/detail/TypeTraits.h">
<polygon fill="none" stroke="black" points="595,-319 595,-338 720,-338 720,-319 595,-319"/>
<text text-anchor="middle" x="657.5" y="-326" font-family="Helvetica,sans-Serif" font-size="10.00">hydra/detail/TypeTraits.h</text>
</a>
</g>
</g>
<!-- Node15&#45;&gt;Node16 -->
<g id="edge19" class="edge"><title>Node15&#45;&gt;Node16</title>
<path fill="none" stroke="midnightblue" d="M337.988,-385.936C405.235,-374.058 526.672,-352.608 598.909,-339.849"/>
<polygon fill="midnightblue" stroke="midnightblue" points="599.959,-343.218 609.197,-338.032 598.741,-336.325 599.959,-343.218"/>
</g>
<!-- Node32 -->
<g id="node32" class="node"><title>Node32</title>
<polygon fill="none" stroke="#bfbfbf" points="159,-319 159,-338 200,-338 200,-319 159,-319"/>
<text text-anchor="middle" x="179.5" y="-326" font-family="Helvetica,sans-Serif" font-size="10.00">string</text>
</g>
<!-- Node15&#45;&gt;Node32 -->
<g id="edge47" class="edge"><title>Node15&#45;&gt;Node32</title>
<path fill="none" stroke="midnightblue" d="M274.665,-385.734C256.192,-374.818 224.428,-356.049 202.72,-343.221"/>
<polygon fill="midnightblue" stroke="midnightblue" points="204.49,-340.201 194.1,-338.127 200.929,-346.228 204.49,-340.201"/>
</g>
<!-- Node33 -->
<g id="node33" class="node"><title>Node33</title>
<polygon fill="none" stroke="#bfbfbf" points="256.5,-319 256.5,-338 308.5,-338 308.5,-319 256.5,-319"/>
<text text-anchor="middle" x="282.5" y="-326" font-family="Helvetica,sans-Serif" font-size="10.00">ostream</text>
</g>
<!-- Node15&#45;&gt;Node33 -->
<g id="edge48" class="edge"><title>Node15&#45;&gt;Node33</title>
<path fill="none" stroke="midnightblue" d="M288.556,-385.734C287.527,-376.183 285.851,-360.618 284.523,-348.283"/>
<polygon fill="midnightblue" stroke="midnightblue" points="287.98,-347.695 283.429,-338.127 281.02,-348.445 287.98,-347.695"/>
</g>
<!-- Node16&#45;&gt;Node2 -->
<g id="edge20" class="edge"><title>Node16&#45;&gt;Node2</title>
<path fill="none" stroke="midnightblue" d="M594.774,-321.099C529.903,-310.566 433.076,-282.827 396.5,-210 379.854,-176.855 390.815,-132.108 399.297,-107.368"/>
<polygon fill="midnightblue" stroke="midnightblue" points="402.648,-108.395 402.802,-97.8012 396.076,-105.987 402.648,-108.395"/>
</g>
<!-- Node17 -->
<g id="node17" class="node"><title>Node17</title>
<g id="a_node17"><a xlink:href="../../d4/d63/a00082.html" target="_top" xlink:title="Typedef for useful container classes used in MCBooster. ">
<polygon fill="none" stroke="black" points="679,-252 679,-271 778,-271 778,-252 679,-252"/>
<text text-anchor="middle" x="728.5" y="-259" font-family="Helvetica,sans-Serif" font-size="10.00">hydra/Containers.h</text>
</a>
</g>
</g>
<!-- Node16&#45;&gt;Node17 -->
<g id="edge21" class="edge"><title>Node16&#45;&gt;Node17</title>
<path fill="none" stroke="midnightblue" d="M667.075,-318.734C678.466,-308.305 697.687,-290.709 711.599,-277.973"/>
<polygon fill="midnightblue" stroke="midnightblue" points="714.064,-280.461 719.076,-271.127 709.337,-275.298 714.064,-280.461"/>
</g>
<!-- Node28 -->
<g id="node28" class="node"><title>Node28</title>
<polygon fill="none" stroke="#bfbfbf" points="406,-190.5 406,-209.5 495,-209.5 495,-190.5 406,-190.5"/>
<text text-anchor="middle" x="450.5" y="-197.5" font-family="Helvetica,sans-Serif" font-size="10.00">thrust/complex.h</text>
</g>
<!-- Node16&#45;&gt;Node28 -->
<g id="edge44" class="edge"><title>Node16&#45;&gt;Node28</title>
<path fill="none" stroke="midnightblue" d="M624.485,-318.949C596.857,-310.846 557.149,-296.935 526.5,-277 501.191,-260.539 477.516,-234.527 463.518,-217.613"/>
<polygon fill="midnightblue" stroke="midnightblue" points="466.13,-215.275 457.124,-209.695 460.684,-219.674 466.13,-215.275"/>
</g>
<!-- Node29 -->
<g id="node29" class="node"><title>Node29</title>
<polygon fill="none" stroke="#bfbfbf" points="1027.5,-252 1027.5,-271 1089.5,-271 1089.5,-252 1027.5,-252"/>
<text text-anchor="middle" x="1058.5" y="-259" font-family="Helvetica,sans-Serif" font-size="10.00">type_traits</text>
</g>
<!-- Node16&#45;&gt;Node29 -->
<g id="edge43" class="edge"><title>Node16&#45;&gt;Node29</title>
<path fill="none" stroke="midnightblue" d="M710.336,-318.936C791.114,-305.842 943.646,-281.117 1017.02,-269.224"/>
<polygon fill="midnightblue" stroke="midnightblue" points="1017.94,-272.62 1027.25,-267.565 1016.82,-265.71 1017.94,-272.62"/>
</g>
<!-- Node30 -->
<g id="node30" class="node"><title>Node30</title>
<polygon fill="none" stroke="#bfbfbf" points="835,-246.5 835,-276.5 924,-276.5 924,-246.5 835,-246.5"/>
<text text-anchor="start" x="843" y="-264.5" font-family="Helvetica,sans-Serif" font-size="10.00">thrust/detail/type</text>
<text text-anchor="middle" x="879.5" y="-253.5" font-family="Helvetica,sans-Serif" font-size="10.00">_traits.h</text>
</g>
<!-- Node16&#45;&gt;Node30 -->
<g id="edge45" class="edge"><title>Node16&#45;&gt;Node30</title>
<path fill="none" stroke="midnightblue" d="M686.98,-318.869C722.105,-308.584 781.501,-291.193 825.051,-278.442"/>
<polygon fill="midnightblue" stroke="midnightblue" points="826.307,-281.722 834.92,-275.553 824.34,-275.004 826.307,-281.722"/>
</g>
<!-- Node31 -->
<g id="node31" class="node"><title>Node31</title>
<polygon fill="none" stroke="#bfbfbf" points="536,-252 536,-271 661,-271 661,-252 536,-252"/>
<text text-anchor="middle" x="598.5" y="-259" font-family="Helvetica,sans-Serif" font-size="10.00">thrust/execution_policy.h</text>
</g>
<!-- Node16&#45;&gt;Node31 -->
<g id="edge46" class="edge"><title>Node16&#45;&gt;Node31</title>
<path fill="none" stroke="midnightblue" d="M649.543,-318.734C640.254,-308.5 624.7,-291.364 613.198,-278.692"/>
<polygon fill="midnightblue" stroke="midnightblue" points="615.644,-276.179 606.331,-271.127 610.46,-280.884 615.644,-276.179"/>
</g>
<!-- Node17&#45;&gt;Node2 -->
<g id="edge24" class="edge"><title>Node17&#45;&gt;Node2</title>
<path fill="none" stroke="midnightblue" d="M694.757,-251.936C645.037,-239.227 556.449,-216.204 542.5,-210 521.492,-200.656 472.349,-169.645 455.5,-154 440.186,-139.78 426.215,-120.3 417.144,-106.381"/>
<polygon fill="midnightblue" stroke="midnightblue" points="419.997,-104.344 411.691,-97.7666 414.082,-108.088 419.997,-104.344"/>
</g>
<!-- Node17&#45;&gt;Node12 -->
<g id="edge25" class="edge"><title>Node17&#45;&gt;Node12</title>
<path fill="none" stroke="midnightblue" d="M764.64,-251.935C773.714,-249.888 783.446,-247.782 792.5,-246 887.562,-227.288 930.07,-268.237 1007.5,-210 1024.99,-196.843 1048.06,-137.8 1059.09,-107.328"/>
<polygon fill="midnightblue" stroke="midnightblue" points="1062.52,-108.127 1062.57,-97.5325 1055.92,-105.78 1062.52,-108.127"/>
</g>
<!-- Node18 -->
<g id="node18" class="node"><title>Node18</title>
<polygon fill="none" stroke="#bfbfbf" points="673.5,-190.5 673.5,-209.5 717.5,-209.5 717.5,-190.5 673.5,-190.5"/>
<text text-anchor="middle" x="695.5" y="-197.5" font-family="Helvetica,sans-Serif" font-size="10.00">vector</text>
</g>
<!-- Node17&#45;&gt;Node18 -->
<g id="edge22" class="edge"><title>Node17&#45;&gt;Node18</title>
<path fill="none" stroke="midnightblue" d="M723.772,-251.975C718.92,-243.227 711.234,-229.369 705.1,-218.309"/>
<polygon fill="midnightblue" stroke="midnightblue" points="708.13,-216.557 700.219,-209.509 702.009,-219.952 708.13,-216.557"/>
</g>
<!-- Node17&#45;&gt;Node19 -->
<g id="edge23" class="edge"><title>Node17&#45;&gt;Node19</title>
<path fill="none" stroke="midnightblue" d="M778.33,-252.946C793.473,-250.678 810.163,-248.208 825.5,-246 934.612,-230.291 1064.49,-212.616 1121.38,-204.925"/>
<polygon fill="midnightblue" stroke="midnightblue" points="1122,-208.373 1131.44,-203.566 1121.06,-201.436 1122,-208.373"/>
</g>
<!-- Node20 -->
<g id="node20" class="node"><title>Node20</title>
<g id="a_node20"><a xlink:href="../../df/dcd/a00127.html" target="_top" xlink:title="hydra/Vector3R.h">
<polygon fill="none" stroke="black" points="836,-134.5 836,-153.5 929,-153.5 929,-134.5 836,-134.5"/>
<text text-anchor="middle" x="882.5" y="-141.5" font-family="Helvetica,sans-Serif" font-size="10.00">hydra/Vector3R.h</text>
</a>
</g>
</g>
<!-- Node17&#45;&gt;Node20 -->
<g id="edge26" class="edge"><title>Node17&#45;&gt;Node20</title>
<path fill="none" stroke="midnightblue" d="M757.247,-251.895C780.699,-243.833 813.723,-230.009 837.5,-210 853.049,-196.915 865.665,-177.223 873.539,-162.943"/>
<polygon fill="midnightblue" stroke="midnightblue" points="876.856,-164.154 878.409,-153.674 870.66,-160.899 876.856,-164.154"/>
</g>
<!-- Node24 -->
<g id="node24" class="node"><title>Node24</title>
<g id="a_node24"><a xlink:href="../../d1/d88/a00128.html" target="_top" xlink:title="hydra/Vector4R.h">
<polygon fill="none" stroke="black" points="736,-190.5 736,-209.5 829,-209.5 829,-190.5 736,-190.5"/>
<text text-anchor="middle" x="782.5" y="-197.5" font-family="Helvetica,sans-Serif" font-size="10.00">hydra/Vector4R.h</text>
</a>
</g>
</g>
<!-- Node17&#45;&gt;Node24 -->
<g id="edge33" class="edge"><title>Node17&#45;&gt;Node24</title>
<path fill="none" stroke="midnightblue" d="M736.237,-251.975C744.497,-242.873 757.777,-228.241 767.994,-216.983"/>
<polygon fill="midnightblue" stroke="midnightblue" points="770.649,-219.266 774.777,-209.509 765.465,-214.562 770.649,-219.266"/>
</g>
<!-- Node26 -->
<g id="node26" class="node"><title>Node26</title>
<polygon fill="none" stroke="#bfbfbf" points="886,-190.5 886,-209.5 999,-209.5 999,-190.5 886,-190.5"/>
<text text-anchor="middle" x="942.5" y="-197.5" font-family="Helvetica,sans-Serif" font-size="10.00">thrust/device_vector.h</text>
</g>
<!-- Node17&#45;&gt;Node26 -->
<g id="edge40" class="edge"><title>Node17&#45;&gt;Node26</title>
<path fill="none" stroke="midnightblue" d="M759.161,-251.975C796.744,-241.526 860.544,-223.787 902.098,-212.233"/>
<polygon fill="midnightblue" stroke="midnightblue" points="903.199,-215.56 911.896,-209.509 901.324,-208.816 903.199,-215.56"/>
</g>
<!-- Node27 -->
<g id="node27" class="node"><title>Node27</title>
<polygon fill="none" stroke="#bfbfbf" points="551.5,-190.5 551.5,-209.5 655.5,-209.5 655.5,-190.5 551.5,-190.5"/>
<text text-anchor="middle" x="603.5" y="-197.5" font-family="Helvetica,sans-Serif" font-size="10.00">thrust/host_vector.h</text>
</g>
<!-- Node17&#45;&gt;Node27 -->
<g id="edge41" class="edge"><title>Node17&#45;&gt;Node27</title>
<path fill="none" stroke="midnightblue" d="M710.591,-251.975C689.613,-241.99 654.65,-225.348 630.407,-213.807"/>
<polygon fill="midnightblue" stroke="midnightblue" points="631.91,-210.647 621.376,-209.509 628.901,-216.967 631.91,-210.647"/>
</g>
<!-- Node17&#45;&gt;Node28 -->
<g id="edge42" class="edge"><title>Node17&#45;&gt;Node28</title>
<path fill="none" stroke="midnightblue" d="M694.856,-251.995C686.58,-249.969 677.732,-247.856 669.5,-246 613.471,-233.364 549.044,-220.3 504.647,-211.526"/>
<polygon fill="midnightblue" stroke="midnightblue" points="505.139,-208.055 494.651,-209.556 503.785,-214.923 505.139,-208.055"/>
</g>
<!-- Node20&#45;&gt;Node2 -->
<g id="edge27" class="edge"><title>Node20&#45;&gt;Node2</title>
<path fill="none" stroke="midnightblue" d="M835.992,-137.724C750.249,-127.997 567.163,-107.226 470.047,-96.2091"/>
<polygon fill="midnightblue" stroke="midnightblue" points="470.398,-92.7266 460.067,-95.077 469.609,-99.682 470.398,-92.7266"/>
</g>
<!-- Node20&#45;&gt;Node12 -->
<g id="edge28" class="edge"><title>Node20&#45;&gt;Node12</title>
<path fill="none" stroke="midnightblue" d="M911.497,-134.444C942.685,-125.241 992.43,-110.562 1026.91,-100.388"/>
<polygon fill="midnightblue" stroke="midnightblue" points="1028.04,-103.704 1036.64,-97.5164 1026.06,-96.9898 1028.04,-103.704"/>
</g>
<!-- Node20&#45;&gt;Node14 -->
<g id="edge30" class="edge"><title>Node20&#45;&gt;Node14</title>
<path fill="none" stroke="midnightblue" d="M842.094,-134.444C793.293,-124.109 711.882,-106.869 664.608,-96.8581"/>
<polygon fill="midnightblue" stroke="midnightblue" points="665.287,-93.4245 654.779,-94.7767 663.837,-100.273 665.287,-93.4245"/>
</g>
<!-- Node21 -->
<g id="node21" class="node"><title>Node21</title>
<polygon fill="none" stroke="#bfbfbf" points="963,-78.5 963,-97.5 1008,-97.5 1008,-78.5 963,-78.5"/>
<text text-anchor="middle" x="985.5" y="-85.5" font-family="Helvetica,sans-Serif" font-size="10.00">iosfwd</text>
</g>
<!-- Node20&#45;&gt;Node21 -->
<g id="edge29" class="edge"><title>Node20&#45;&gt;Node21</title>
<path fill="none" stroke="midnightblue" d="M899.049,-134.324C915.492,-125.703 940.935,-112.364 959.968,-102.386"/>
<polygon fill="midnightblue" stroke="midnightblue" points="961.761,-105.398 968.992,-97.6545 958.511,-99.198 961.761,-105.398"/>
</g>
<!-- Node22 -->
<g id="node22" class="node"><title>Node22</title>
<polygon fill="none" stroke="#bfbfbf" points="755,-78.5 755,-97.5 802,-97.5 802,-78.5 755,-78.5"/>
<text text-anchor="middle" x="778.5" y="-85.5" font-family="Helvetica,sans-Serif" font-size="10.00">math.h</text>
</g>
<!-- Node20&#45;&gt;Node22 -->
<g id="edge31" class="edge"><title>Node20&#45;&gt;Node22</title>
<path fill="none" stroke="midnightblue" d="M865.791,-134.324C849.188,-125.703 823.498,-112.364 804.28,-102.386"/>
<polygon fill="midnightblue" stroke="midnightblue" points="805.656,-99.1565 795.168,-97.6545 802.43,-105.369 805.656,-99.1565"/>
</g>
<!-- Node23 -->
<g id="node23" class="node"><title>Node23</title>
<polygon fill="none" stroke="#bfbfbf" points="820.5,-78.5 820.5,-97.5 944.5,-97.5 944.5,-78.5 820.5,-78.5"/>
<text text-anchor="middle" x="882.5" y="-85.5" font-family="Helvetica,sans-Serif" font-size="10.00">hydra/detail/Vector3R.inl</text>
</g>
<!-- Node20&#45;&gt;Node23 -->
<g id="edge32" class="edge"><title>Node20&#45;&gt;Node23</title>
<path fill="none" stroke="midnightblue" d="M882.5,-134.083C882.5,-127.006 882.5,-116.861 882.5,-107.986"/>
<polygon fill="midnightblue" stroke="midnightblue" points="886,-107.751 882.5,-97.7511 879,-107.751 886,-107.751"/>
</g>
<!-- Node24&#45;&gt;Node2 -->
<g id="edge36" class="edge"><title>Node24&#45;&gt;Node2</title>
<path fill="none" stroke="midnightblue" d="M735.753,-191.463C732.622,-190.966 729.515,-190.474 726.5,-190 622.554,-173.652 589.42,-194.969 492.5,-154 465.196,-142.458 438.757,-120.316 422.565,-105.109"/>
<polygon fill="midnightblue" stroke="midnightblue" points="424.706,-102.311 415.082,-97.8819 419.844,-107.346 424.706,-102.311"/>
</g>
<!-- Node24&#45;&gt;Node12 -->
<g id="edge37" class="edge"><title>Node24&#45;&gt;Node12</title>
<path fill="none" stroke="midnightblue" d="M819.16,-190.423C850.982,-182.493 898.017,-169.597 937.5,-154 975.32,-139.06 1016.92,-116.761 1042.13,-102.552"/>
<polygon fill="midnightblue" stroke="midnightblue" points="1043.98,-105.523 1050.94,-97.5344 1040.52,-99.4399 1043.98,-105.523"/>
</g>
<!-- Node24&#45;&gt;Node14 -->
<g id="edge35" class="edge"><title>Node24&#45;&gt;Node14</title>
<path fill="none" stroke="midnightblue" d="M743.968,-190.48C708.753,-181.963 660.146,-168.135 646.5,-154 634.644,-141.72 630.125,-122.462 628.434,-108.09"/>
<polygon fill="midnightblue" stroke="midnightblue" points="631.899,-107.522 627.598,-97.8394 624.922,-108.091 631.899,-107.522"/>
</g>
<!-- Node24&#45;&gt;Node20 -->
<g id="edge38" class="edge"><title>Node24&#45;&gt;Node20</title>
<path fill="none" stroke="midnightblue" d="M798.567,-190.324C814.458,-181.743 839.007,-168.486 857.458,-158.522"/>
<polygon fill="midnightblue" stroke="midnightblue" points="859.337,-161.486 866.473,-153.655 856.011,-155.326 859.337,-161.486"/>
</g>
<!-- Node24&#45;&gt;Node22 -->
<g id="edge34" class="edge"><title>Node24&#45;&gt;Node22</title>
<path fill="none" stroke="midnightblue" d="M784.445,-190.159C786.941,-177.644 790.701,-154.052 788.5,-134 787.527,-125.14 785.508,-115.472 783.537,-107.375"/>
<polygon fill="midnightblue" stroke="midnightblue" points="786.883,-106.333 780.982,-97.5332 780.107,-108.092 786.883,-106.333"/>
</g>
<!-- Node25 -->
<g id="node25" class="node"><title>Node25</title>
<polygon fill="none" stroke="#bfbfbf" points="655.5,-134.5 655.5,-153.5 779.5,-153.5 779.5,-134.5 655.5,-134.5"/>
<text text-anchor="middle" x="717.5" y="-141.5" font-family="Helvetica,sans-Serif" font-size="10.00">hydra/detail/Vector4R.inl</text>
</g>
<!-- Node24&#45;&gt;Node25 -->
<g id="edge39" class="edge"><title>Node24&#45;&gt;Node25</title>
<path fill="none" stroke="midnightblue" d="M772.057,-190.324C762.354,-182.263 747.685,-170.077 736,-160.369"/>
<polygon fill="midnightblue" stroke="midnightblue" points="738.062,-157.532 728.133,-153.834 733.589,-162.916 738.062,-157.532"/>
</g>
<!-- Node34&#45;&gt;Node2 -->
<g id="edge50" class="edge"><title>Node34&#45;&gt;Node2</title>
<path fill="none" stroke="midnightblue" d="M927.96,-392.285C854.238,-387.927 706.547,-375.73 585.5,-344 508.54,-323.827 489.266,-315.243 419.5,-277 374.512,-252.339 348.999,-255.606 325.5,-210 304.529,-169.299 353.777,-125.622 384.382,-103.554"/>
<polygon fill="midnightblue" stroke="midnightblue" points="386.614,-106.265 392.814,-97.6738 382.61,-100.523 386.614,-106.265"/>
</g>
<!-- Node34&#45;&gt;Node12 -->
<g id="edge51" class="edge"><title>Node34&#45;&gt;Node12</title>
<path fill="none" stroke="midnightblue" d="M971.634,-380.074C966.714,-350.747 960.235,-283.757 994.5,-246 1022.07,-215.619 1056.84,-244.202 1079.5,-210 1100.34,-178.546 1085.33,-132.162 1074.32,-106.937"/>
<polygon fill="midnightblue" stroke="midnightblue" points="1077.47,-105.418 1070.1,-97.8096 1071.12,-108.355 1077.47,-105.418"/>
</g>
<!-- Node34&#45;&gt;Node16 -->
<g id="edge55" class="edge"><title>Node34&#45;&gt;Node16</title>
<path fill="none" stroke="midnightblue" d="M927.726,-384.909C869.441,-372.958 770.146,-352.598 709.519,-340.166"/>
<polygon fill="midnightblue" stroke="midnightblue" points="709.9,-336.672 699.401,-338.092 708.494,-343.529 709.9,-336.672"/>
</g>
<!-- Node34&#45;&gt;Node19 -->
<g id="edge60" class="edge"><title>Node34&#45;&gt;Node19</title>
<path fill="none" stroke="midnightblue" d="M974.343,-380.316C974.824,-350.841 980.272,-282.669 1018.5,-246 1026.17,-238.646 1085.36,-220.226 1121.83,-209.369"/>
<polygon fill="midnightblue" stroke="midnightblue" points="1122.85,-212.716 1131.45,-206.523 1120.87,-206.003 1122.85,-212.716"/>
</g>
<!-- Node34&#45;&gt;Node29 -->
<g id="edge59" class="edge"><title>Node34&#45;&gt;Node29</title>
<path fill="none" stroke="midnightblue" d="M979.616,-380.268C985.999,-363.444 997.875,-334.959 1012.5,-313 1020.92,-300.353 1032.44,-287.716 1041.84,-278.247"/>
<polygon fill="midnightblue" stroke="midnightblue" points="1044.43,-280.606 1049.12,-271.107 1039.53,-275.606 1044.43,-280.606"/>
</g>
<!-- Node34&#45;&gt;Node30 -->
<g id="edge57" class="edge"><title>Node34&#45;&gt;Node30</title>
<path fill="none" stroke="midnightblue" d="M946.376,-380.456C931.663,-371.796 914.478,-359.395 903.5,-344 891.373,-326.994 885.318,-303.864 882.329,-286.589"/>
<polygon fill="midnightblue" stroke="midnightblue" points="885.79,-286.063 880.837,-276.696 878.868,-287.107 885.79,-286.063"/>
</g>
<!-- Node35 -->
<g id="node35" class="node"><title>Node35</title>
<g id="a_node35"><a xlink:href="../../d1/d84/a00097.html" target="_top" xlink:title="hydra/detail/utility\l/Generic.h">
<polygon fill="none" stroke="black" points="1022,-313.5 1022,-343.5 1115,-343.5 1115,-313.5 1022,-313.5"/>
<text text-anchor="start" x="1030" y="-331.5" font-family="Helvetica,sans-Serif" font-size="10.00">hydra/detail/utility</text>
<text text-anchor="middle" x="1068.5" y="-320.5" font-family="Helvetica,sans-Serif" font-size="10.00">/Generic.h</text>
</a>
</g>
</g>
<!-- Node34&#45;&gt;Node35 -->
<g id="edge52" class="edge"><title>Node34&#45;&gt;Node35</title>
<path fill="none" stroke="midnightblue" d="M994.897,-380.396C1007.95,-371.367 1025.1,-359.514 1039.55,-349.518"/>
<polygon fill="midnightblue" stroke="midnightblue" points="1041.91,-352.143 1048.14,-343.577 1037.93,-346.385 1041.91,-352.143"/>
</g>
<!-- Node34&#45;&gt;Node36 -->
<g id="edge56" class="edge"><title>Node34&#45;&gt;Node36</title>
<path fill="none" stroke="midnightblue" d="M1017.03,-380.396C1052.33,-368.688 1101.96,-352.231 1135.12,-341.234"/>
<polygon fill="midnightblue" stroke="midnightblue" points="1136.46,-344.477 1144.85,-338.007 1134.25,-337.833 1136.46,-344.477"/>
</g>
<!-- Node34&#45;&gt;Node37 -->
<g id="edge58" class="edge"><title>Node34&#45;&gt;Node37</title>
<path fill="none" stroke="midnightblue" d="M1021.21,-385.187C1073.1,-374.841 1157.8,-357.953 1220.34,-345.484"/>
<polygon fill="midnightblue" stroke="midnightblue" points="1221.05,-348.91 1230.18,-343.522 1219.68,-342.045 1221.05,-348.91"/>
</g>
<!-- Node35&#45;&gt;Node19 -->
<g id="edge54" class="edge"><title>Node35&#45;&gt;Node19</title>
<path fill="none" stroke="midnightblue" d="M1077.59,-313.479C1092.67,-290.206 1122.84,-243.663 1139.25,-218.355"/>
<polygon fill="midnightblue" stroke="midnightblue" points="1142.3,-220.084 1144.8,-209.789 1136.43,-216.276 1142.3,-220.084"/>
</g>
<!-- Node35&#45;&gt;Node29 -->
<g id="edge53" class="edge"><title>Node35&#45;&gt;Node29</title>
<path fill="none" stroke="midnightblue" d="M1066.33,-313.396C1064.88,-303.963 1062.95,-291.448 1061.38,-281.189"/>
<polygon fill="midnightblue" stroke="midnightblue" points="1064.82,-280.546 1059.84,-271.195 1057.9,-281.61 1064.82,-280.546"/>
</g>
<!-- Node38&#45;&gt;Node12 -->
<g id="edge63" class="edge"><title>Node38&#45;&gt;Node12</title>
<path fill="none" stroke="midnightblue" d="M1446.94,-318.729C1387.38,-282.857 1162.03,-147.135 1088.71,-102.976"/>
<polygon fill="midnightblue" stroke="midnightblue" points="1090.15,-99.7605 1079.78,-97.5994 1086.54,-105.757 1090.15,-99.7605"/>
</g>
<!-- Node38&#45;&gt;Node29 -->
<g id="edge62" class="edge"><title>Node38&#45;&gt;Node29</title>
<path fill="none" stroke="midnightblue" d="M1417.57,-318.972C1406.77,-316.946 1395.23,-314.84 1384.5,-313 1282.31,-295.469 1161.63,-277.479 1099.71,-268.446"/>
<polygon fill="midnightblue" stroke="midnightblue" points="1099.97,-264.947 1089.57,-266.97 1098.96,-271.874 1099.97,-264.947"/>
</g>
</g>
</svg>
