<?xml version="1.0" encoding="UTF-8" standalone="no"?>
<!DOCTYPE svg PUBLIC "-//W3C//DTD SVG 1.1//EN"
 "http://www.w3.org/Graphics/SVG/1.1/DTD/svg11.dtd">
<!-- Generated by graphviz version 2.38.0 (20140413.2041)
 -->
<!-- Title: DecayMother.h Pages: 1 -->
<!--zoomable 475 -->
<svg id="main" version="1.1" xmlns="http://www.w3.org/2000/svg" xmlns:xlink="http://www.w3.org/1999/xlink" xml:space="preserve" onload="init(evt)">
<style type="text/css"><![CDATA[
.edge:hover path { stroke: red; }
.edge:hover polygon { stroke: red; fill: red; }
]]></style>
<script type="text/javascript"><![CDATA[
var edges = document.getElementsByTagName('g');
if (edges && edges.length) {
  for (var i=0;i<edges.length;i++) {
    if (edges[i].id.substr(0,4)=='edge') {
      edges[i].setAttribute('class','edge');
    }
  }
}
]]></script>
        <defs>
                <circle id="rim" cx="0" cy="0" r="7"/>
                <circle id="rim2" cx="0" cy="0" r="3.5"/>
                <g id="zoomPlus">
                        <use xlink:href="#rim" fill="#404040">
                                <set attributeName="fill" to="#808080" begin="zoomplus.mouseover" end="zoomplus.mouseout"/>
                        </use>
                        <path d="M-4,0h8M0,-4v8" fill="none" stroke="white" stroke-width="1.5" pointer-events="none"/>
                </g>
                <g id="zoomMin">
                        <use xlink:href="#rim" fill="#404040">
                                <set attributeName="fill" to="#808080" begin="zoomminus.mouseover" end="zoomminus.mouseout"/>
                        </use>
                        <path d="M-4,0h8" fill="none" stroke="white" stroke-width="1.5" pointer-events="none"/>
                </g>
                <g id="dirArrow">
                        <path fill="none" stroke="white" stroke-width="1.5" d="M0,-3.0v7 M-2.5,-0.5L0,-3.0L2.5,-0.5"/>
                </g>
               <g id="resetDef">
                       <use xlink:href="#rim2" fill="#404040">
                               <set attributeName="fill" to="#808080" begin="reset.mouseover" end="reset.mouseout"/>
                       </use>
               </g>
        </defs>

<script type="text/javascript">
var viewWidth = 1356;
var viewHeight = 475;
var sectionId = 'dynsection-0';
</script>
<script xlink:href="../../svgpan.js"/>
<svg id="graph" class="graph">
<g id="viewport">
<title>DecayMother.h</title>
<!-- Node1 -->
<g id="node1" class="node"><title>Node1</title>
<polygon fill="#bfbfbf" stroke="black" points="495.5,-447.5 495.5,-466.5 578.5,-466.5 578.5,-447.5 495.5,-447.5"/>
<text text-anchor="middle" x="537" y="-454.5" font-family="Helvetica,sans-Serif" font-size="10.00">DecayMother.h</text>
</g>
<!-- Node2 -->
<g id="node2" class="node"><title>Node2</title>
<g id="a_node2"><a xlink:href="../../d1/d6f/a00063.html" target="_top" xlink:title="hydra/detail/Config.h">
<polygon fill="none" stroke="black" points="778.5,-78.5 778.5,-97.5 885.5,-97.5 885.5,-78.5 778.5,-78.5"/>
<text text-anchor="middle" x="832" y="-85.5" font-family="Helvetica,sans-Serif" font-size="10.00">hydra/detail/Config.h</text>
</a>
</g>
</g>
<!-- Node1&#45;&gt;Node2 -->
<g id="edge1" class="edge"><title>Node1&#45;&gt;Node2</title>
<path fill="none" stroke="midnightblue" d="M578.745,-455.915C712.85,-454.53 1124,-441.177 1124,-329.5 1124,-329.5 1124,-329.5 1124,-199 1124,-150.148 979.063,-115.532 893.414,-99.3403"/>
<polygon fill="midnightblue" stroke="midnightblue" points="894.003,-95.8899 883.532,-97.5039 892.724,-102.772 894.003,-95.8899"/>
</g>
<!-- Node12 -->
<g id="node12" class="node"><title>Node12</title>
<g id="a_node12"><a xlink:href="../../d7/d70/a00106.html" target="_top" xlink:title="hydra/Types.h">
<polygon fill="none" stroke="black" points="29.5,-78.5 29.5,-97.5 108.5,-97.5 108.5,-78.5 29.5,-78.5"/>
<text text-anchor="middle" x="69" y="-85.5" font-family="Helvetica,sans-Serif" font-size="10.00">hydra/Types.h</text>
</a>
</g>
</g>
<!-- Node1&#45;&gt;Node12 -->
<g id="edge11" class="edge"><title>Node1&#45;&gt;Node12</title>
<path fill="none" stroke="midnightblue" d="M495.309,-455.085C369.139,-451.2 0,-431.148 0,-329.5 0,-329.5 0,-329.5 0,-199 0,-160.391 30.8823,-124.209 51.326,-104.486"/>
<polygon fill="midnightblue" stroke="midnightblue" points="53.868,-106.902 58.8188,-97.5352 49.1073,-101.77 53.868,-106.902"/>
</g>
<!-- Node13 -->
<g id="node13" class="node"><title>Node13</title>
<g id="a_node13"><a xlink:href="../../de/de1/a00065.html" target="_top" xlink:title="Typedef for useful container classes used in MCBooster. ">
<polygon fill="none" stroke="black" points="218.5,-252 218.5,-271 317.5,-271 317.5,-252 218.5,-252"/>
<text text-anchor="middle" x="268" y="-259" font-family="Helvetica,sans-Serif" font-size="10.00">hydra/Containers.h</text>
</a>
</g>
</g>
<!-- Node1&#45;&gt;Node13 -->
<g id="edge12" class="edge"><title>Node1&#45;&gt;Node13</title>
<path fill="none" stroke="midnightblue" d="M495.39,-447.5C441.691,-434.416 348.79,-404.273 295,-344 279.294,-326.401 272.688,-299.417 269.934,-281.376"/>
<polygon fill="midnightblue" stroke="midnightblue" points="273.377,-280.71 268.646,-271.231 266.433,-281.592 273.377,-280.71"/>
</g>
<!-- Node16 -->
<g id="node16" class="node"><title>Node16</title>
<g id="a_node16"><a xlink:href="../../d4/d81/a00110.html" target="_top" xlink:title="hydra/Vector3R.h">
<polygon fill="none" stroke="black" points="142.5,-134.5 142.5,-153.5 235.5,-153.5 235.5,-134.5 142.5,-134.5"/>
<text text-anchor="middle" x="189" y="-141.5" font-family="Helvetica,sans-Serif" font-size="10.00">hydra/Vector3R.h</text>
</a>
</g>
</g>
<!-- Node1&#45;&gt;Node16 -->
<g id="edge34" class="edge"><title>Node1&#45;&gt;Node16</title>
<path fill="none" stroke="midnightblue" d="M495.283,-452.48C388.567,-442.334 114,-408.546 114,-329.5 114,-329.5 114,-329.5 114,-260.5 114,-218.977 148.518,-180.636 170.719,-160.27"/>
<polygon fill="midnightblue" stroke="midnightblue" points="173.081,-162.853 178.254,-153.607 168.444,-157.609 173.081,-162.853"/>
</g>
<!-- Node21 -->
<g id="node21" class="node"><title>Node21</title>
<g id="a_node21"><a xlink:href="../../dd/d6d/a00111.html" target="_top" xlink:title="hydra/Vector4R.h">
<polygon fill="none" stroke="black" points="180.5,-190.5 180.5,-209.5 273.5,-209.5 273.5,-190.5 180.5,-190.5"/>
<text text-anchor="middle" x="227" y="-197.5" font-family="Helvetica,sans-Serif" font-size="10.00">hydra/Vector4R.h</text>
</a>
</g>
</g>
<!-- Node1&#45;&gt;Node21 -->
<g id="edge35" class="edge"><title>Node1&#45;&gt;Node21</title>
<path fill="none" stroke="midnightblue" d="M495.129,-453.955C452.161,-450.263 384.618,-439.924 334,-411 263.286,-370.592 238.856,-352.775 209,-277 201.416,-257.751 209.266,-234.45 216.847,-218.765"/>
<polygon fill="midnightblue" stroke="midnightblue" points="220.07,-220.156 221.625,-209.676 213.874,-216.899 220.07,-220.156"/>
</g>
<!-- Node26 -->
<g id="node26" class="node"><title>Node26</title>
<g id="a_node26"><a xlink:href="../../dd/d42/a00109.html" target="_top" xlink:title="hydra/detail/utility\l/Utility_Tuple.h">
<polygon fill="none" stroke="black" points="490.5,-380.5 490.5,-410.5 583.5,-410.5 583.5,-380.5 490.5,-380.5"/>
<text text-anchor="start" x="498.5" y="-398.5" font-family="Helvetica,sans-Serif" font-size="10.00">hydra/detail/utility</text>
<text text-anchor="middle" x="537" y="-387.5" font-family="Helvetica,sans-Serif" font-size="10.00">/Utility_Tuple.h</text>
</a>
</g>
</g>
<!-- Node1&#45;&gt;Node26 -->
<g id="edge36" class="edge"><title>Node1&#45;&gt;Node26</title>
<path fill="none" stroke="midnightblue" d="M537,-447.475C537,-440.471 537,-430.192 537,-420.696"/>
<polygon fill="midnightblue" stroke="midnightblue" points="540.5,-420.523 537,-410.523 533.5,-420.523 540.5,-420.523"/>
</g>
<!-- Node34 -->
<g id="node34" class="node"><title>Node34</title>
<polygon fill="none" stroke="#bfbfbf" points="981,-319 981,-338 1055,-338 1055,-319 981,-319"/>
<text text-anchor="middle" x="1018" y="-326" font-family="Helvetica,sans-Serif" font-size="10.00">thrust/tuple.h</text>
</g>
<!-- Node1&#45;&gt;Node34 -->
<g id="edge56" class="edge"><title>Node1&#45;&gt;Node34</title>
<path fill="none" stroke="midnightblue" d="M572.31,-447.481C646.457,-429.462 823.688,-385.707 971,-344 974.204,-343.093 977.523,-342.125 980.847,-341.137"/>
<polygon fill="midnightblue" stroke="midnightblue" points="982.167,-344.395 990.726,-338.15 980.141,-337.695 982.167,-344.395"/>
</g>
<!-- Node36 -->
<g id="node36" class="node"><title>Node36</title>
<polygon fill="none" stroke="#bfbfbf" points="1152,-380.5 1152,-410.5 1242,-410.5 1242,-380.5 1152,-380.5"/>
<text text-anchor="start" x="1160" y="-398.5" font-family="Helvetica,sans-Serif" font-size="10.00">thrust/iterator/zip</text>
<text text-anchor="middle" x="1197" y="-387.5" font-family="Helvetica,sans-Serif" font-size="10.00">_iterator.h</text>
</g>
<!-- Node1&#45;&gt;Node36 -->
<g id="edge57" class="edge"><title>Node1&#45;&gt;Node36</title>
<path fill="none" stroke="midnightblue" d="M578.808,-455.256C677.003,-452.992 929.787,-444.144 1138,-411 1139.26,-410.799 1140.53,-410.586 1141.81,-410.36"/>
<polygon fill="midnightblue" stroke="midnightblue" points="1142.59,-413.775 1151.74,-408.429 1141.25,-406.903 1142.59,-413.775"/>
</g>
<!-- Node37 -->
<g id="node37" class="node"><title>Node37</title>
<polygon fill="none" stroke="#bfbfbf" points="1260.5,-386 1260.5,-405 1345.5,-405 1345.5,-386 1260.5,-386"/>
<text text-anchor="middle" x="1303" y="-393" font-family="Helvetica,sans-Serif" font-size="10.00">thrust/random.h</text>
</g>
<!-- Node1&#45;&gt;Node37 -->
<g id="edge58" class="edge"><title>Node1&#45;&gt;Node37</title>
<path fill="none" stroke="midnightblue" d="M578.797,-456.399C689.372,-456.803 998.411,-453.693 1251,-411 1256.12,-410.134 1261.47,-408.963 1266.7,-407.659"/>
<polygon fill="midnightblue" stroke="midnightblue" points="1267.76,-410.997 1276.52,-405.035 1265.96,-404.234 1267.76,-410.997"/>
</g>
<!-- Node3 -->
<g id="node3" class="node"><title>Node3</title>
<polygon fill="none" stroke="#bfbfbf" points="425.5,-11.5 425.5,-30.5 530.5,-30.5 530.5,-11.5 425.5,-11.5"/>
<text text-anchor="middle" x="478" y="-18.5" font-family="Helvetica,sans-Serif" font-size="10.00">thrust/detail/config.h</text>
</g>
<!-- Node2&#45;&gt;Node3 -->
<g id="edge2" class="edge"><title>Node2&#45;&gt;Node3</title>
<path fill="none" stroke="midnightblue" d="M778.291,-81.4363C719.138,-74.6884 621.465,-61.71 539,-42 529.607,-39.7549 519.583,-36.7381 510.432,-33.7293"/>
<polygon fill="midnightblue" stroke="midnightblue" points="511.511,-30.3992 500.916,-30.5044 509.264,-37.0289 511.511,-30.3992"/>
</g>
<!-- Node4 -->
<g id="node4" class="node"><title>Node4</title>
<polygon fill="none" stroke="#bfbfbf" points="548.5,-6 548.5,-36 645.5,-36 645.5,-6 548.5,-6"/>
<text text-anchor="start" x="556.5" y="-24" font-family="Helvetica,sans-Serif" font-size="10.00">thrust/detail/config</text>
<text text-anchor="middle" x="597" y="-13" font-family="Helvetica,sans-Serif" font-size="10.00">/host_device.h</text>
</g>
<!-- Node2&#45;&gt;Node4 -->
<g id="edge3" class="edge"><title>Node2&#45;&gt;Node4</title>
<path fill="none" stroke="midnightblue" d="M794.803,-78.4937C758.816,-70.0408 702.846,-56.3044 655,-42 652.084,-41.1281 649.096,-40.2016 646.088,-39.2436"/>
<polygon fill="midnightblue" stroke="midnightblue" points="647.074,-35.8837 636.481,-36.1048 644.9,-42.5375 647.074,-35.8837"/>
</g>
<!-- Node5 -->
<g id="node5" class="node"><title>Node5</title>
<polygon fill="none" stroke="#bfbfbf" points="664,-11.5 664,-30.5 708,-30.5 708,-11.5 664,-11.5"/>
<text text-anchor="middle" x="686" y="-18.5" font-family="Helvetica,sans-Serif" font-size="10.00">omp.h</text>
</g>
<!-- Node2&#45;&gt;Node5 -->
<g id="edge4" class="edge"><title>Node2&#45;&gt;Node5</title>
<path fill="none" stroke="midnightblue" d="M805.777,-78.4243C782.038,-70.2698 746.392,-57.0404 717,-42 713.547,-40.233 709.993,-38.1827 706.578,-36.0821"/>
<polygon fill="midnightblue" stroke="midnightblue" points="708.333,-33.0485 698.033,-30.564 704.535,-38.929 708.333,-33.0485"/>
</g>
<!-- Node6 -->
<g id="node6" class="node"><title>Node6</title>
<polygon fill="none" stroke="#bfbfbf" points="726,-11.5 726,-30.5 772,-30.5 772,-11.5 726,-11.5"/>
<text text-anchor="middle" x="749" y="-18.5" font-family="Helvetica,sans-Serif" font-size="10.00">cuda.h</text>
</g>
<!-- Node2&#45;&gt;Node6 -->
<g id="edge5" class="edge"><title>Node2&#45;&gt;Node6</title>
<path fill="none" stroke="midnightblue" d="M820.806,-78.2338C807.366,-67.708 784.6,-49.8793 768.304,-37.1174"/>
<polygon fill="midnightblue" stroke="midnightblue" points="770.047,-34.0374 760.016,-30.6273 765.731,-39.5486 770.047,-34.0374"/>
</g>
<!-- Node7 -->
<g id="node7" class="node"><title>Node7</title>
<polygon fill="none" stroke="#bfbfbf" points="790.5,-11.5 790.5,-30.5 873.5,-30.5 873.5,-11.5 790.5,-11.5"/>
<text text-anchor="middle" x="832" y="-18.5" font-family="Helvetica,sans-Serif" font-size="10.00">cuda_runtime.h</text>
</g>
<!-- Node2&#45;&gt;Node7 -->
<g id="edge6" class="edge"><title>Node2&#45;&gt;Node7</title>
<path fill="none" stroke="midnightblue" d="M832,-78.2338C832,-68.6826 832,-53.1183 832,-40.7829"/>
<polygon fill="midnightblue" stroke="midnightblue" points="835.5,-40.6273 832,-30.6273 828.5,-40.6273 835.5,-40.6273"/>
</g>
<!-- Node8 -->
<g id="node8" class="node"><title>Node8</title>
<polygon fill="none" stroke="#bfbfbf" points="891.5,-11.5 891.5,-30.5 992.5,-30.5 992.5,-11.5 891.5,-11.5"/>
<text text-anchor="middle" x="942" y="-18.5" font-family="Helvetica,sans-Serif" font-size="10.00">cuda_runtime_api.h</text>
</g>
<!-- Node2&#45;&gt;Node8 -->
<g id="edge7" class="edge"><title>Node2&#45;&gt;Node8</title>
<path fill="none" stroke="midnightblue" d="M846.835,-78.2338C865.308,-67.3182 897.072,-48.5487 918.78,-35.7209"/>
<polygon fill="midnightblue" stroke="midnightblue" points="920.571,-38.7279 927.4,-30.6273 917.01,-32.7014 920.571,-38.7279"/>
</g>
<!-- Node9 -->
<g id="node9" class="node"><title>Node9</title>
<polygon fill="none" stroke="#bfbfbf" points="1011,-11.5 1011,-30.5 1103,-30.5 1103,-11.5 1011,-11.5"/>
<text text-anchor="middle" x="1057" y="-18.5" font-family="Helvetica,sans-Serif" font-size="10.00">math_functions.h</text>
</g>
<!-- Node2&#45;&gt;Node9 -->
<g id="edge8" class="edge"><title>Node2&#45;&gt;Node9</title>
<path fill="none" stroke="midnightblue" d="M867.525,-78.4502C901.893,-69.9654 955.338,-56.2065 1001,-42 1008.83,-39.5632 1017.2,-36.7125 1025.01,-33.9395"/>
<polygon fill="midnightblue" stroke="midnightblue" points="1026.31,-37.1916 1034.53,-30.5057 1023.93,-30.6069 1026.31,-37.1916"/>
</g>
<!-- Node10 -->
<g id="node10" class="node"><title>Node10</title>
<polygon fill="none" stroke="#bfbfbf" points="1121.5,-6 1121.5,-36 1222.5,-36 1222.5,-6 1121.5,-6"/>
<text text-anchor="start" x="1129.5" y="-24" font-family="Helvetica,sans-Serif" font-size="10.00">thrust/system/cuda</text>
<text text-anchor="middle" x="1172" y="-13" font-family="Helvetica,sans-Serif" font-size="10.00">/execution_policy.h</text>
</g>
<!-- Node2&#45;&gt;Node10 -->
<g id="edge9" class="edge"><title>Node2&#45;&gt;Node10</title>
<path fill="none" stroke="midnightblue" d="M885.673,-81.0042C942.421,-74.0549 1034.3,-61.0606 1112,-42 1115.63,-41.1106 1119.35,-40.1047 1123.07,-39.0288"/>
<polygon fill="midnightblue" stroke="midnightblue" points="1124.34,-42.3026 1132.89,-36.0498 1122.31,-35.6041 1124.34,-42.3026"/>
</g>
<!-- Node11 -->
<g id="node11" class="node"><title>Node11</title>
<polygon fill="none" stroke="#bfbfbf" points="1240.5,-0.5 1240.5,-41.5 1347.5,-41.5 1347.5,-0.5 1240.5,-0.5"/>
<text text-anchor="start" x="1248.5" y="-29.5" font-family="Helvetica,sans-Serif" font-size="10.00">thrust/system/cuda</text>
<text text-anchor="start" x="1248.5" y="-18.5" font-family="Helvetica,sans-Serif" font-size="10.00">/experimental/pinned</text>
<text text-anchor="middle" x="1294" y="-7.5" font-family="Helvetica,sans-Serif" font-size="10.00">_allocator.h</text>
</g>
<!-- Node2&#45;&gt;Node11 -->
<g id="edge10" class="edge"><title>Node2&#45;&gt;Node11</title>
<path fill="none" stroke="midnightblue" d="M885.604,-84.3805C960.911,-79.9524 1102.3,-68.9053 1230.42,-42.1359"/>
<polygon fill="midnightblue" stroke="midnightblue" points="1231.36,-45.5159 1240.41,-40.0115 1229.9,-38.6691 1231.36,-45.5159"/>
</g>
<!-- Node13&#45;&gt;Node2 -->
<g id="edge15" class="edge"><title>Node13&#45;&gt;Node2</title>
<path fill="none" stroke="midnightblue" d="M312.651,-251.99C323.851,-249.942 335.853,-247.822 347,-246 458.222,-227.824 490.795,-244.751 598,-210 616.155,-204.115 619.073,-198.816 636,-190 696.775,-158.349 768.388,-121.579 805.968,-102.324"/>
<polygon fill="midnightblue" stroke="midnightblue" points="807.89,-105.272 815.195,-97.5978 804.699,-99.0415 807.89,-105.272"/>
</g>
<!-- Node13&#45;&gt;Node12 -->
<g id="edge16" class="edge"><title>Node13&#45;&gt;Node12</title>
<path fill="none" stroke="midnightblue" d="M244.695,-251.875C222.591,-243.114 188.986,-228.256 163,-210 133.94,-189.585 127.658,-182.145 106,-154 94.6415,-139.239 84.3956,-120.613 77.5815,-107.088"/>
<polygon fill="midnightblue" stroke="midnightblue" points="80.618,-105.33 73.078,-97.8872 74.3308,-108.408 80.618,-105.33"/>
</g>
<!-- Node14 -->
<g id="node14" class="node"><title>Node14</title>
<polygon fill="none" stroke="#bfbfbf" points="545,-190.5 545,-209.5 589,-209.5 589,-190.5 545,-190.5"/>
<text text-anchor="middle" x="567" y="-197.5" font-family="Helvetica,sans-Serif" font-size="10.00">vector</text>
</g>
<!-- Node13&#45;&gt;Node14 -->
<g id="edge13" class="edge"><title>Node13&#45;&gt;Node14</title>
<path fill="none" stroke="midnightblue" d="M304.151,-251.99C313.225,-249.943 322.954,-247.822 332,-246 419.171,-228.444 444.605,-230.682 534.89,-210.056"/>
<polygon fill="midnightblue" stroke="midnightblue" points="535.772,-213.445 544.725,-207.779 534.193,-206.625 535.772,-213.445"/>
</g>
<!-- Node15 -->
<g id="node15" class="node"><title>Node15</title>
<polygon fill="none" stroke="#bfbfbf" points="645,-190.5 645,-209.5 683,-209.5 683,-190.5 645,-190.5"/>
<text text-anchor="middle" x="664" y="-197.5" font-family="Helvetica,sans-Serif" font-size="10.00">array</text>
</g>
<!-- Node13&#45;&gt;Node15 -->
<g id="edge14" class="edge"><title>Node13&#45;&gt;Node15</title>
<path fill="none" stroke="midnightblue" d="M302.746,-251.944C312.197,-249.804 322.458,-247.651 332,-246 463.889,-223.182 499.637,-235.678 631,-210 632.279,-209.75 633.58,-209.477 634.892,-209.186"/>
<polygon fill="midnightblue" stroke="midnightblue" points="636.046,-212.507 644.917,-206.714 634.37,-205.71 636.046,-212.507"/>
</g>
<!-- Node13&#45;&gt;Node16 -->
<g id="edge17" class="edge"><title>Node13&#45;&gt;Node16</title>
<path fill="none" stroke="midnightblue" d="M231.9,-251.843C210.156,-244.567 184.198,-231.75 171,-210 162.018,-195.197 169.418,-175.807 177.272,-162.069"/>
<polygon fill="midnightblue" stroke="midnightblue" points="180.243,-163.919 182.586,-153.587 174.311,-160.203 180.243,-163.919"/>
</g>
<!-- Node13&#45;&gt;Node21 -->
<g id="edge24" class="edge"><title>Node13&#45;&gt;Node21</title>
<path fill="none" stroke="midnightblue" d="M262.126,-251.975C256.037,-243.138 246.355,-229.089 238.697,-217.975"/>
<polygon fill="midnightblue" stroke="midnightblue" points="241.42,-215.758 232.863,-209.509 235.656,-219.729 241.42,-215.758"/>
</g>
<!-- Node23 -->
<g id="node23" class="node"><title>Node23</title>
<polygon fill="none" stroke="#bfbfbf" points="291.5,-190.5 291.5,-209.5 404.5,-209.5 404.5,-190.5 291.5,-190.5"/>
<text text-anchor="middle" x="348" y="-197.5" font-family="Helvetica,sans-Serif" font-size="10.00">thrust/device_vector.h</text>
</g>
<!-- Node13&#45;&gt;Node23 -->
<g id="edge31" class="edge"><title>Node13&#45;&gt;Node23</title>
<path fill="none" stroke="midnightblue" d="M279.462,-251.975C292.175,-242.52 312.913,-227.096 328.253,-215.687"/>
<polygon fill="midnightblue" stroke="midnightblue" points="330.624,-218.285 336.559,-209.509 326.446,-212.669 330.624,-218.285"/>
</g>
<!-- Node24 -->
<g id="node24" class="node"><title>Node24</title>
<polygon fill="none" stroke="#bfbfbf" points="423,-190.5 423,-209.5 527,-209.5 527,-190.5 423,-190.5"/>
<text text-anchor="middle" x="475" y="-197.5" font-family="Helvetica,sans-Serif" font-size="10.00">thrust/host_vector.h</text>
</g>
<!-- Node13&#45;&gt;Node24 -->
<g id="edge32" class="edge"><title>Node13&#45;&gt;Node24</title>
<path fill="none" stroke="midnightblue" d="M297.658,-251.975C333.934,-241.548 395.464,-223.862 435.664,-212.307"/>
<polygon fill="midnightblue" stroke="midnightblue" points="436.753,-215.635 445.397,-209.509 434.819,-208.908 436.753,-215.635"/>
</g>
<!-- Node25 -->
<g id="node25" class="node"><title>Node25</title>
<polygon fill="none" stroke="#bfbfbf" points="761.5,-190.5 761.5,-209.5 850.5,-209.5 850.5,-190.5 761.5,-190.5"/>
<text text-anchor="middle" x="806" y="-197.5" font-family="Helvetica,sans-Serif" font-size="10.00">thrust/complex.h</text>
</g>
<!-- Node13&#45;&gt;Node25 -->
<g id="edge33" class="edge"><title>Node13&#45;&gt;Node25</title>
<path fill="none" stroke="midnightblue" d="M317.784,-252.602C332.925,-250.323 349.626,-247.932 365,-246 503.907,-228.54 668.082,-213.172 751.474,-205.738"/>
<polygon fill="midnightblue" stroke="midnightblue" points="751.828,-209.221 761.479,-204.85 751.209,-202.248 751.828,-209.221"/>
</g>
<!-- Node16&#45;&gt;Node2 -->
<g id="edge18" class="edge"><title>Node16&#45;&gt;Node2</title>
<path fill="none" stroke="midnightblue" d="M235.71,-135.196C238.85,-134.763 241.969,-134.359 245,-134 434.771,-111.516 660.454,-97.8708 768.368,-92.1469"/>
<polygon fill="midnightblue" stroke="midnightblue" points="768.636,-95.6377 778.438,-91.6177 768.268,-88.6474 768.636,-95.6377"/>
</g>
<!-- Node16&#45;&gt;Node12 -->
<g id="edge19" class="edge"><title>Node16&#45;&gt;Node12</title>
<path fill="none" stroke="midnightblue" d="M169.986,-134.444C150.412,-125.636 119.692,-111.812 97.2711,-101.722"/>
<polygon fill="midnightblue" stroke="midnightblue" points="98.4809,-98.4284 87.9254,-97.5164 95.6083,-104.812 98.4809,-98.4284"/>
</g>
<!-- Node17 -->
<g id="node17" class="node"><title>Node17</title>
<polygon fill="none" stroke="#bfbfbf" points="269.5,-78.5 269.5,-97.5 314.5,-97.5 314.5,-78.5 269.5,-78.5"/>
<text text-anchor="middle" x="292" y="-85.5" font-family="Helvetica,sans-Serif" font-size="10.00">iosfwd</text>
</g>
<!-- Node16&#45;&gt;Node17 -->
<g id="edge20" class="edge"><title>Node16&#45;&gt;Node17</title>
<path fill="none" stroke="midnightblue" d="M205.549,-134.324C221.992,-125.703 247.435,-112.364 266.468,-102.386"/>
<polygon fill="midnightblue" stroke="midnightblue" points="268.261,-105.398 275.492,-97.6545 265.011,-99.198 268.261,-105.398"/>
</g>
<!-- Node18 -->
<g id="node18" class="node"><title>Node18</title>
<polygon fill="none" stroke="#bfbfbf" points="337,-78.5 337,-97.5 391,-97.5 391,-78.5 337,-78.5"/>
<text text-anchor="middle" x="364" y="-85.5" font-family="Helvetica,sans-Serif" font-size="10.00">iostream</text>
</g>
<!-- Node16&#45;&gt;Node18 -->
<g id="edge21" class="edge"><title>Node16&#45;&gt;Node18</title>
<path fill="none" stroke="midnightblue" d="M216.729,-134.444C246.6,-125.226 294.273,-110.516 327.249,-100.34"/>
<polygon fill="midnightblue" stroke="midnightblue" points="328.452,-103.632 336.975,-97.339 326.388,-96.9432 328.452,-103.632"/>
</g>
<!-- Node19 -->
<g id="node19" class="node"><title>Node19</title>
<polygon fill="none" stroke="#bfbfbf" points="413.5,-78.5 413.5,-97.5 460.5,-97.5 460.5,-78.5 413.5,-78.5"/>
<text text-anchor="middle" x="437" y="-85.5" font-family="Helvetica,sans-Serif" font-size="10.00">math.h</text>
</g>
<!-- Node16&#45;&gt;Node19 -->
<g id="edge22" class="edge"><title>Node16&#45;&gt;Node19</title>
<path fill="none" stroke="midnightblue" d="M230.714,-134.469C273.334,-125.667 341.39,-111.375 400,-98 401.063,-97.7573 402.144,-97.5085 403.234,-97.2554"/>
<polygon fill="midnightblue" stroke="midnightblue" points="404.215,-100.62 413.139,-94.9096 402.602,-93.8083 404.215,-100.62"/>
</g>
<!-- Node20 -->
<g id="node20" class="node"><title>Node20</title>
<polygon fill="none" stroke="#bfbfbf" points="127,-78.5 127,-97.5 251,-97.5 251,-78.5 127,-78.5"/>
<text text-anchor="middle" x="189" y="-85.5" font-family="Helvetica,sans-Serif" font-size="10.00">hydra/detail/Vector3R.inl</text>
</g>
<!-- Node16&#45;&gt;Node20 -->
<g id="edge23" class="edge"><title>Node16&#45;&gt;Node20</title>
<path fill="none" stroke="midnightblue" d="M189,-134.083C189,-127.006 189,-116.861 189,-107.986"/>
<polygon fill="midnightblue" stroke="midnightblue" points="192.5,-107.751 189,-97.7511 185.5,-107.751 192.5,-107.751"/>
</g>
<!-- Node21&#45;&gt;Node2 -->
<g id="edge27" class="edge"><title>Node21&#45;&gt;Node2</title>
<path fill="none" stroke="midnightblue" d="M273.719,-190.506C383.196,-170.601 656.02,-120.996 775.005,-99.3628"/>
<polygon fill="midnightblue" stroke="midnightblue" points="775.796,-102.776 785.008,-97.544 774.543,-95.8893 775.796,-102.776"/>
</g>
<!-- Node21&#45;&gt;Node12 -->
<g id="edge28" class="edge"><title>Node21&#45;&gt;Node12</title>
<path fill="none" stroke="midnightblue" d="M203.36,-190.352C183.567,-182.505 155.091,-169.765 133,-154 113.358,-139.983 94.4241,-119.624 82.3146,-105.438"/>
<polygon fill="midnightblue" stroke="midnightblue" points="84.8023,-102.957 75.7112,-97.5159 79.4252,-107.438 84.8023,-102.957"/>
</g>
<!-- Node21&#45;&gt;Node16 -->
<g id="edge29" class="edge"><title>Node21&#45;&gt;Node16</title>
<path fill="none" stroke="midnightblue" d="M220.725,-190.083C215.358,-182.455 207.482,-171.264 200.921,-161.941"/>
<polygon fill="midnightblue" stroke="midnightblue" points="203.775,-159.915 195.158,-153.751 198.051,-163.943 203.775,-159.915"/>
</g>
<!-- Node21&#45;&gt;Node18 -->
<g id="edge26" class="edge"><title>Node21&#45;&gt;Node18</title>
<path fill="none" stroke="midnightblue" d="M266.531,-190.486C311.468,-180.412 379.595,-163.775 387,-154 397.792,-139.755 388.173,-120.018 378.281,-106.039"/>
<polygon fill="midnightblue" stroke="midnightblue" points="380.82,-103.599 371.952,-97.8006 375.268,-107.863 380.82,-103.599"/>
</g>
<!-- Node21&#45;&gt;Node19 -->
<g id="edge25" class="edge"><title>Node21&#45;&gt;Node19</title>
<path fill="none" stroke="midnightblue" d="M267.801,-190.488C316.67,-180.006 393.325,-162.544 404,-154 418.645,-142.278 427.394,-122.341 432.165,-107.63"/>
<polygon fill="midnightblue" stroke="midnightblue" points="435.643,-108.202 435.07,-97.6226 428.921,-106.251 435.643,-108.202"/>
</g>
<!-- Node22 -->
<g id="node22" class="node"><title>Node22</title>
<polygon fill="none" stroke="#bfbfbf" points="254,-134.5 254,-153.5 378,-153.5 378,-134.5 254,-134.5"/>
<text text-anchor="middle" x="316" y="-141.5" font-family="Helvetica,sans-Serif" font-size="10.00">hydra/detail/Vector4R.inl</text>
</g>
<!-- Node21&#45;&gt;Node22 -->
<g id="edge30" class="edge"><title>Node21&#45;&gt;Node22</title>
<path fill="none" stroke="midnightblue" d="M241.299,-190.324C255.183,-181.9 276.492,-168.971 292.804,-159.074"/>
<polygon fill="midnightblue" stroke="midnightblue" points="295.002,-161.834 301.736,-153.655 291.371,-155.85 295.002,-161.834"/>
</g>
<!-- Node26&#45;&gt;Node2 -->
<g id="edge37" class="edge"><title>Node26&#45;&gt;Node2</title>
<path fill="none" stroke="midnightblue" d="M583.512,-383.396C621.595,-373.958 676.706,-359.501 724,-344 760.235,-332.124 767.126,-322.711 804,-313 857.427,-298.93 1013.87,-318.8 1050,-277 1063.45,-261.436 1041.5,-197.086 1037,-190 1004.48,-138.761 937.633,-112.695 889.091,-100.013"/>
<polygon fill="midnightblue" stroke="midnightblue" points="889.887,-96.6037 879.337,-97.5782 888.192,-103.395 889.887,-96.6037"/>
</g>
<!-- Node26&#45;&gt;Node12 -->
<g id="edge38" class="edge"><title>Node26&#45;&gt;Node12</title>
<path fill="none" stroke="midnightblue" d="M490.447,-391.084C440.222,-385.989 358.868,-373.584 295,-344 181.984,-291.649 147.365,-264.031 89,-154 81.2196,-139.332 75.9521,-121.165 72.7844,-107.77"/>
<polygon fill="midnightblue" stroke="midnightblue" points="76.1643,-106.842 70.6083,-97.8208 69.326,-108.338 76.1643,-106.842"/>
</g>
<!-- Node26&#45;&gt;Node15 -->
<g id="edge55" class="edge"><title>Node26&#45;&gt;Node15</title>
<path fill="none" stroke="midnightblue" d="M523.633,-380.388C498.579,-352.206 449.945,-288.059 483,-246 524.831,-192.775 565.45,-226.908 631,-210 632.261,-209.675 633.549,-209.339 634.849,-208.997"/>
<polygon fill="midnightblue" stroke="midnightblue" points="636.075,-212.292 644.829,-206.325 634.264,-205.53 636.075,-212.292"/>
</g>
<!-- Node27 -->
<g id="node27" class="node"><title>Node27</title>
<g id="a_node27"><a xlink:href="../../da/dec/a00080.html" target="_top" xlink:title="hydra/detail/utility\l/Generic.h">
<polygon fill="none" stroke="black" points="304.5,-313.5 304.5,-343.5 397.5,-343.5 397.5,-313.5 304.5,-313.5"/>
<text text-anchor="start" x="312.5" y="-331.5" font-family="Helvetica,sans-Serif" font-size="10.00">hydra/detail/utility</text>
<text text-anchor="middle" x="351" y="-320.5" font-family="Helvetica,sans-Serif" font-size="10.00">/Generic.h</text>
</a>
</g>
</g>
<!-- Node26&#45;&gt;Node27 -->
<g id="edge39" class="edge"><title>Node26&#45;&gt;Node27</title>
<path fill="none" stroke="midnightblue" d="M496.641,-380.396C468.489,-370.558 430.742,-357.367 400.731,-346.879"/>
<polygon fill="midnightblue" stroke="midnightblue" points="401.875,-343.571 391.28,-343.577 399.566,-350.18 401.875,-343.571"/>
</g>
<!-- Node28 -->
<g id="node28" class="node"><title>Node28</title>
<polygon fill="none" stroke="#bfbfbf" points="374,-252 374,-271 436,-271 436,-252 374,-252"/>
<text text-anchor="middle" x="405" y="-259" font-family="Helvetica,sans-Serif" font-size="10.00">type_traits</text>
</g>
<!-- Node26&#45;&gt;Node28 -->
<g id="edge54" class="edge"><title>Node26&#45;&gt;Node28</title>
<path fill="none" stroke="midnightblue" d="M503.544,-380.411C486.033,-371.808 465.148,-359.476 450,-344 431.939,-325.548 418.896,-298.388 411.641,-280.574"/>
<polygon fill="midnightblue" stroke="midnightblue" points="414.838,-279.136 407.961,-271.076 408.31,-281.665 414.838,-279.136"/>
</g>
<!-- Node29 -->
<g id="node29" class="node"><title>Node29</title>
<g id="a_node29"><a xlink:href="../../df/d98/a00107.html" target="_top" xlink:title="hydra/detail/TypeTraits.h">
<polygon fill="none" stroke="black" points="590.5,-319 590.5,-338 715.5,-338 715.5,-319 590.5,-319"/>
<text text-anchor="middle" x="653" y="-326" font-family="Helvetica,sans-Serif" font-size="10.00">hydra/detail/TypeTraits.h</text>
</a>
</g>
</g>
<!-- Node26&#45;&gt;Node29 -->
<g id="edge42" class="edge"><title>Node26&#45;&gt;Node29</title>
<path fill="none" stroke="midnightblue" d="M562.17,-380.396C581.983,-369.294 609.418,-353.921 628.939,-342.983"/>
<polygon fill="midnightblue" stroke="midnightblue" points="630.805,-345.949 637.818,-338.007 627.384,-339.842 630.805,-345.949"/>
</g>
<!-- Node30 -->
<g id="node30" class="node"><title>Node30</title>
<polygon fill="none" stroke="#bfbfbf" points="492.5,-246.5 492.5,-276.5 581.5,-276.5 581.5,-246.5 492.5,-246.5"/>
<text text-anchor="start" x="500.5" y="-264.5" font-family="Helvetica,sans-Serif" font-size="10.00">thrust/detail/type</text>
<text text-anchor="middle" x="537" y="-253.5" font-family="Helvetica,sans-Serif" font-size="10.00">_traits.h</text>
</g>
<!-- Node26&#45;&gt;Node30 -->
<g id="edge52" class="edge"><title>Node26&#45;&gt;Node30</title>
<path fill="none" stroke="midnightblue" d="M537,-380.374C537,-358.044 537,-314.313 537,-286.851"/>
<polygon fill="midnightblue" stroke="midnightblue" points="540.5,-286.525 537,-276.525 533.5,-286.525 540.5,-286.525"/>
</g>
<!-- Node26&#45;&gt;Node34 -->
<g id="edge51" class="edge"><title>Node26&#45;&gt;Node34</title>
<path fill="none" stroke="midnightblue" d="M583.697,-391.883C663.703,-386.774 831.823,-373.307 971,-344 975.136,-343.129 979.43,-342.053 983.666,-340.883"/>
<polygon fill="midnightblue" stroke="midnightblue" points="984.737,-344.216 993.343,-338.037 982.762,-337.501 984.737,-344.216"/>
</g>
<!-- Node35 -->
<g id="node35" class="node"><title>Node35</title>
<polygon fill="none" stroke="#bfbfbf" points="813.5,-313.5 813.5,-343.5 962.5,-343.5 962.5,-313.5 813.5,-313.5"/>
<text text-anchor="start" x="821.5" y="-331.5" font-family="Helvetica,sans-Serif" font-size="10.00">thrust/iterator/detail</text>
<text text-anchor="middle" x="888" y="-320.5" font-family="Helvetica,sans-Serif" font-size="10.00">/tuple_of_iterator_references.h</text>
</g>
<!-- Node26&#45;&gt;Node35 -->
<g id="edge53" class="edge"><title>Node26&#45;&gt;Node35</title>
<path fill="none" stroke="midnightblue" d="M583.61,-385.869C639.51,-375.517 734.29,-357.965 803.264,-345.192"/>
<polygon fill="midnightblue" stroke="midnightblue" points="804.05,-348.606 813.246,-343.343 802.775,-341.723 804.05,-348.606"/>
</g>
<!-- Node27&#45;&gt;Node15 -->
<g id="edge41" class="edge"><title>Node27&#45;&gt;Node15</title>
<path fill="none" stroke="midnightblue" d="M348.888,-313.425C347.017,-295.125 346.921,-263.446 365,-246 407.923,-204.578 572.544,-221.873 631,-210 632.277,-209.741 633.577,-209.46 634.887,-209.163"/>
<polygon fill="midnightblue" stroke="midnightblue" points="636.051,-212.48 644.907,-206.665 634.358,-205.688 636.051,-212.48"/>
</g>
<!-- Node27&#45;&gt;Node28 -->
<g id="edge40" class="edge"><title>Node27&#45;&gt;Node28</title>
<path fill="none" stroke="midnightblue" d="M362.717,-313.396C371.137,-303.261 382.513,-289.567 391.345,-278.937"/>
<polygon fill="midnightblue" stroke="midnightblue" points="394.079,-281.123 397.777,-271.195 388.694,-276.65 394.079,-281.123"/>
</g>
<!-- Node29&#45;&gt;Node2 -->
<g id="edge43" class="edge"><title>Node29&#45;&gt;Node2</title>
<path fill="none" stroke="midnightblue" d="M715.668,-319.587C821.728,-306.124 1025.44,-279.925 1028,-277 1090.4,-205.638 933.908,-130.414 863.846,-101.406"/>
<polygon fill="midnightblue" stroke="midnightblue" points="865.147,-98.1564 854.565,-97.6244 862.505,-104.639 865.147,-98.1564"/>
</g>
<!-- Node29&#45;&gt;Node13 -->
<g id="edge44" class="edge"><title>Node29&#45;&gt;Node13</title>
<path fill="none" stroke="midnightblue" d="M602.272,-318.936C531.482,-306.984 403.293,-285.342 327.897,-272.612"/>
<polygon fill="midnightblue" stroke="midnightblue" points="328.063,-269.091 317.62,-270.877 326.898,-275.993 328.063,-269.091"/>
</g>
<!-- Node29&#45;&gt;Node25 -->
<g id="edge46" class="edge"><title>Node29&#45;&gt;Node25</title>
<path fill="none" stroke="midnightblue" d="M715.705,-319.429C765.744,-311.549 830.02,-297.699 846,-277 860.721,-257.932 840.929,-232.661 824.324,-216.612"/>
<polygon fill="midnightblue" stroke="midnightblue" points="826.335,-213.708 816.593,-209.542 821.61,-218.873 826.335,-213.708"/>
</g>
<!-- Node29&#45;&gt;Node28 -->
<g id="edge45" class="edge"><title>Node29&#45;&gt;Node28</title>
<path fill="none" stroke="midnightblue" d="M620.323,-318.936C575.503,-307.188 494.964,-286.079 446.105,-273.274"/>
<polygon fill="midnightblue" stroke="midnightblue" points="446.745,-269.823 436.184,-270.673 444.97,-276.594 446.745,-269.823"/>
</g>
<!-- Node29&#45;&gt;Node30 -->
<g id="edge47" class="edge"><title>Node29&#45;&gt;Node30</title>
<path fill="none" stroke="midnightblue" d="M637.356,-318.734C620.473,-309.274 593.062,-293.914 571.151,-281.636"/>
<polygon fill="midnightblue" stroke="midnightblue" points="572.578,-278.424 562.143,-276.589 569.156,-284.531 572.578,-278.424"/>
</g>
<!-- Node31 -->
<g id="node31" class="node"><title>Node31</title>
<polygon fill="none" stroke="#bfbfbf" points="894.5,-252 894.5,-271 1019.5,-271 1019.5,-252 894.5,-252"/>
<text text-anchor="middle" x="957" y="-259" font-family="Helvetica,sans-Serif" font-size="10.00">thrust/execution_policy.h</text>
</g>
<!-- Node29&#45;&gt;Node31 -->
<g id="edge48" class="edge"><title>Node29&#45;&gt;Node31</title>
<path fill="none" stroke="midnightblue" d="M693.055,-318.936C748.076,-307.171 847.009,-286.018 906.874,-273.218"/>
<polygon fill="midnightblue" stroke="midnightblue" points="907.809,-276.597 916.856,-271.083 906.345,-269.752 907.809,-276.597"/>
</g>
<!-- Node32 -->
<g id="node32" class="node"><title>Node32</title>
<polygon fill="none" stroke="#bfbfbf" points="599.5,-246.5 599.5,-276.5 706.5,-276.5 706.5,-246.5 599.5,-246.5"/>
<text text-anchor="start" x="607.5" y="-264.5" font-family="Helvetica,sans-Serif" font-size="10.00">thrust/iterator/iterator</text>
<text text-anchor="middle" x="653" y="-253.5" font-family="Helvetica,sans-Serif" font-size="10.00">_categories.h</text>
</g>
<!-- Node29&#45;&gt;Node32 -->
<g id="edge49" class="edge"><title>Node29&#45;&gt;Node32</title>
<path fill="none" stroke="midnightblue" d="M653,-318.734C653,-310.541 653,-297.923 653,-286.714"/>
<polygon fill="midnightblue" stroke="midnightblue" points="656.5,-286.589 653,-276.589 649.5,-286.589 656.5,-286.589"/>
</g>
<!-- Node33 -->
<g id="node33" class="node"><title>Node33</title>
<polygon fill="none" stroke="#bfbfbf" points="724.5,-246.5 724.5,-276.5 837.5,-276.5 837.5,-246.5 724.5,-246.5"/>
<text text-anchor="start" x="732.5" y="-264.5" font-family="Helvetica,sans-Serif" font-size="10.00">thrust/iterator/detail</text>
<text text-anchor="middle" x="781" y="-253.5" font-family="Helvetica,sans-Serif" font-size="10.00">/is_iterator_category.h</text>
</g>
<!-- Node29&#45;&gt;Node33 -->
<g id="edge50" class="edge"><title>Node29&#45;&gt;Node33</title>
<path fill="none" stroke="midnightblue" d="M669.997,-318.869C688.811,-309.315 719.703,-293.627 744.127,-281.225"/>
<polygon fill="midnightblue" stroke="midnightblue" points="745.801,-284.3 753.132,-276.652 742.631,-278.059 745.801,-284.3"/>
</g>
</g>
</svg>
        <g id="navigator" transform="translate(0 0)" fill="#404254">
                <rect fill="#f2f5e9" fill-opacity="0.5" stroke="#606060" stroke-width=".5" x="0" y="0" width="60" height="60"/>
                <use id="zoomplus" xlink:href="#zoomPlus" x="17" y="9" onmousedown="handleZoom(evt,'in')"/>
                <use id="zoomminus" xlink:href="#zoomMin" x="42" y="9" onmousedown="handleZoom(evt,'out')"/>
                <use id="reset" xlink:href="#resetDef" x="30" y="36" onmousedown="handleReset()"/>
                <g id="arrowUp" xlink:href="#dirArrow" transform="translate(30 24)" onmousedown="handlePan(0,-1)">
                  <use xlink:href="#rim" fill="#404040">
                        <set attributeName="fill" to="#808080" begin="arrowUp.mouseover" end="arrowUp.mouseout"/>
                  </use>
                  <path fill="none" stroke="white" stroke-width="1.5" d="M0,-3.0v7 M-2.5,-0.5L0,-3.0L2.5,-0.5"/>
                </g>
                <g id="arrowRight" xlink:href="#dirArrow" transform="rotate(90) translate(36 -43)" onmousedown="handlePan(1,0)">
                  <use xlink:href="#rim" fill="#404040">
                        <set attributeName="fill" to="#808080" begin="arrowRight.mouseover" end="arrowRight.mouseout"/>
                  </use>
                  <path fill="none" stroke="white" stroke-width="1.5" d="M0,-3.0v7 M-2.5,-0.5L0,-3.0L2.5,-0.5"/>
                </g>
                <g id="arrowDown" xlink:href="#dirArrow" transform="rotate(180) translate(-30 -48)" onmousedown="handlePan(0,1)">
                  <use xlink:href="#rim" fill="#404040">
                        <set attributeName="fill" to="#808080" begin="arrowDown.mouseover" end="arrowDown.mouseout"/>
                  </use>
                  <path fill="none" stroke="white" stroke-width="1.5" d="M0,-3.0v7 M-2.5,-0.5L0,-3.0L2.5,-0.5"/>
                </g>
                <g id="arrowLeft" xlink:href="#dirArrow" transform="rotate(270) translate(-36 17)" onmousedown="handlePan(-1,0)">
                  <use xlink:href="#rim" fill="#404040">
                        <set attributeName="fill" to="#808080" begin="arrowLeft.mouseover" end="arrowLeft.mouseout"/>
                  </use>
                  <path fill="none" stroke="white" stroke-width="1.5" d="M0,-3.0v7 M-2.5,-0.5L0,-3.0L2.5,-0.5"/>
                </g>
        </g>
        <svg viewBox="0 0 15 15" width="100%" height="30px" preserveAspectRatio="xMaxYMin meet">
         <g id="arrow_out" transform="scale(0.3 0.3)">
          <a xlink:href="a00147_org.svg" target="_base">
           <rect id="button" ry="5" rx="5" y="6" x="6" height="38" width="38"
                fill="#f2f5e9" fill-opacity="0.5" stroke="#606060" stroke-width="1.0"/>
           <path id="arrow"
             d="M 11.500037,31.436501 C 11.940474,20.09759 22.043105,11.32322 32.158766,21.979434 L 37.068811,17.246167 C 37.068811,17.246167 37.088388,32 37.088388,32 L 22.160133,31.978069 C 22.160133,31.978069 26.997745,27.140456 26.997745,27.140456 C 18.528582,18.264221 13.291696,25.230495 11.500037,31.436501 z"
             style="fill:#404040;"/>
          </a>
         </g>
        </svg>
</svg>
