<?xml version="1.0" encoding="UTF-8" standalone="no"?>
<!DOCTYPE svg PUBLIC "-//W3C//DTD SVG 1.1//EN"
 "http://www.w3.org/Graphics/SVG/1.1/DTD/svg11.dtd">
<!-- Generated by graphviz version 2.38.0 (20140413.2041)
 -->
<!-- Title: hydra::Events::WeightsEnd Pages: 1 -->
<svg width="306pt" height="66pt"
 viewBox="0.00 0.00 306.00 66.00" xmlns="http://www.w3.org/2000/svg" xmlns:xlink="http://www.w3.org/1999/xlink">
<g id="graph0" class="graph" transform="scale(1 1) rotate(0) translate(4 62)">
<title>hydra::Events::WeightsEnd</title>
<!-- Node1 -->
<g id="node1" class="node"><title>Node1</title>
<polygon fill="#bfbfbf" stroke="black" points="0,-19.5 0,-38.5 137,-38.5 137,-19.5 0,-19.5"/>
<text text-anchor="middle" x="68.5" y="-26.5" font-family="Helvetica,sans-Serif" font-size="10.00">hydra::Events::WeightsEnd</text>
</g>
<!-- Node2 -->
<g id="node2" class="node"><title>Node2</title>
<g id="a_node2"><a xlink:href="../../d7/de0/a00022.html#a4bc30bbd45a57a1724f16f60b1353cf5" target="_top" xlink:title="hydra::Events::Events">
<polygon fill="none" stroke="black" points="178.5,-38.5 178.5,-57.5 292.5,-57.5 292.5,-38.5 178.5,-38.5"/>
<text text-anchor="middle" x="235.5" y="-45.5" font-family="Helvetica,sans-Serif" font-size="10.00">hydra::Events::Events</text>
</a>
</g>
</g>
<!-- Node1&#45;&gt;Node2 -->
<g id="edge1" class="edge"><title>Node1&#45;&gt;Node2</title>
<path fill="none" stroke="midnightblue" d="M147.123,-37.9385C157.648,-39.1504 168.279,-40.3745 178.327,-41.5316"/>
<polygon fill="midnightblue" stroke="midnightblue" points="147.423,-34.4499 137.088,-36.7828 146.622,-41.4039 147.423,-34.4499"/>
</g>
<!-- Node3 -->
<g id="node3" class="node"><title>Node3</title>
<g id="a_node3"><a xlink:href="../../d7/de0/a00022.html#ace3fe647bf093ad875cc1568ac8bdb53" target="_top" xlink:title="hydra::Events::operator=">
<polygon fill="none" stroke="black" points="173,-0.5 173,-19.5 298,-19.5 298,-0.5 173,-0.5"/>
<text text-anchor="middle" x="235.5" y="-7.5" font-family="Helvetica,sans-Serif" font-size="10.00">hydra::Events::operator=</text>
</a>
</g>
</g>
<!-- Node1&#45;&gt;Node3 -->
<g id="edge2" class="edge"><title>Node1&#45;&gt;Node3</title>
<path fill="none" stroke="midnightblue" d="M147.153,-20.0581C155.774,-19.0654 164.466,-18.0645 172.85,-17.0991"/>
<polygon fill="midnightblue" stroke="midnightblue" points="146.622,-16.5961 137.088,-21.2172 147.423,-23.5501 146.622,-16.5961"/>
</g>
</g>
</svg>
