<?xml version="1.0" encoding="UTF-8" standalone="no"?>
<!DOCTYPE svg PUBLIC "-//W3C//DTD SVG 1.1//EN"
 "http://www.w3.org/Graphics/SVG/1.1/DTD/svg11.dtd">
<!-- Generated by graphviz version 2.38.0 (20140413.2041)
 -->
<!-- Title: hydra::Print::Level Pages: 1 -->
<svg width="297pt" height="149pt"
 viewBox="0.00 0.00 297.00 148.50" xmlns="http://www.w3.org/2000/svg" xmlns:xlink="http://www.w3.org/1999/xlink">
<g id="graph0" class="graph" transform="scale(1 1) rotate(0) translate(4 144.5)">
<title>hydra::Print::Level</title>
<!-- Node1 -->
<g id="node1" class="node"><title>Node1</title>
<polygon fill="#bfbfbf" stroke="black" points="0,-55.5 0,-74.5 96,-74.5 96,-55.5 0,-55.5"/>
<text text-anchor="middle" x="48" y="-62.5" font-family="Helvetica,sans-Serif" font-size="10.00">hydra::Print::Level</text>
</g>
<!-- Node2 -->
<g id="node2" class="node"><title>Node2</title>
<g id="a_node2"><a xlink:href="../../d0/dc0/a00033.html#a60096c5b9263034deaf53ff2bfcf0e60" target="_top" xlink:title="hydra::LogLikelihoodFCN\l::Eval">
<polygon fill="none" stroke="black" points="147,-110 147,-140 274,-140 274,-110 147,-110"/>
<text text-anchor="start" x="155" y="-128" font-family="Helvetica,sans-Serif" font-size="10.00">hydra::LogLikelihoodFCN</text>
<text text-anchor="middle" x="210.5" y="-117" font-family="Helvetica,sans-Serif" font-size="10.00">::Eval</text>
</a>
</g>
</g>
<!-- Node1&#45;&gt;Node2 -->
<g id="edge1" class="edge"><title>Node1&#45;&gt;Node2</title>
<path fill="none" stroke="midnightblue" d="M78.4293,-78.6956C94.1569,-85.777 113.948,-94.3127 132,-101 140.321,-104.083 149.24,-107.101 157.959,-109.901"/>
<polygon fill="midnightblue" stroke="midnightblue" points="79.7655,-75.4584 69.2137,-74.5039 76.8672,-81.8302 79.7655,-75.4584"/>
</g>
<!-- Node3 -->
<g id="node3" class="node"><title>Node3</title>
<g id="a_node3"><a xlink:href="../../de/d21/a00006.html#a1626ed818255626d007def610b3e9801" target="_top" xlink:title="hydra::BaseFunctor\l\&lt; LambdaWrapper\&lt; ReturnType\l(ArgType), L \&gt;, ReturnType,\l 0 \&gt;::SetParameters">
<polygon fill="none" stroke="black" points="132,-39 132,-91 289,-91 289,-39 132,-39"/>
<text text-anchor="start" x="140" y="-79" font-family="Helvetica,sans-Serif" font-size="10.00">hydra::BaseFunctor</text>
<text text-anchor="start" x="140" y="-68" font-family="Helvetica,sans-Serif" font-size="10.00">&lt; LambdaWrapper&lt; ReturnType</text>
<text text-anchor="start" x="140" y="-57" font-family="Helvetica,sans-Serif" font-size="10.00">(ArgType), L &gt;, ReturnType,</text>
<text text-anchor="middle" x="210.5" y="-46" font-family="Helvetica,sans-Serif" font-size="10.00"> 0 &gt;::SetParameters</text>
</a>
</g>
</g>
<!-- Node1&#45;&gt;Node3 -->
<g id="edge2" class="edge"><title>Node1&#45;&gt;Node3</title>
<path fill="none" stroke="midnightblue" d="M106.496,-65C114.726,-65 123.304,-65 131.843,-65"/>
<polygon fill="midnightblue" stroke="midnightblue" points="106.287,-61.5001 96.2872,-65 106.287,-68.5001 106.287,-61.5001"/>
</g>
<!-- Node4 -->
<g id="node4" class="node"><title>Node4</title>
<g id="a_node4"><a xlink:href="../../d1/dc6/a00037.html#a147a726e743f6647f32ac604065ad58e" target="_top" xlink:title="hydra::Pdf::UpdateNorm">
<polygon fill="none" stroke="black" points="149,-0.5 149,-19.5 272,-19.5 272,-0.5 149,-0.5"/>
<text text-anchor="middle" x="210.5" y="-7.5" font-family="Helvetica,sans-Serif" font-size="10.00">hydra::Pdf::UpdateNorm</text>
</a>
</g>
</g>
<!-- Node1&#45;&gt;Node4 -->
<g id="edge3" class="edge"><title>Node1&#45;&gt;Node4</title>
<path fill="none" stroke="midnightblue" d="M78.6611,-51.2445C94.3129,-44.306 113.964,-36.0934 132,-30 143.453,-26.1306 156.073,-22.5812 167.743,-19.5814"/>
<polygon fill="midnightblue" stroke="midnightblue" points="77.1689,-48.0778 69.4826,-55.3697 80.0385,-54.4626 77.1689,-48.0778"/>
</g>
</g>
</svg>
