<?xml version="1.0" encoding="UTF-8" standalone="no"?>
<!DOCTYPE svg PUBLIC "-//W3C//DTD SVG 1.1//EN"
 "http://www.w3.org/Graphics/SVG/1.1/DTD/svg11.dtd">
<!-- Generated by graphviz version 2.38.0 (20140413.2041)
 -->
<!-- Title: hydra::strided_range::stride_functor::stride_functor Pages: 1 -->
<svg width="424pt" height="50pt"
 viewBox="0.00 0.00 424.00 50.00" xmlns="http://www.w3.org/2000/svg" xmlns:xlink="http://www.w3.org/1999/xlink">
<g id="graph0" class="graph" transform="scale(1 1) rotate(0) translate(4 46)">
<title>hydra::strided_range::stride_functor::stride_functor</title>
<!-- Node1 -->
<g id="node1" class="node"><title>Node1</title>
<polygon fill="#bfbfbf" stroke="black" points="0,-0.5 0,-41.5 112,-41.5 112,-0.5 0,-0.5"/>
<text text-anchor="start" x="8" y="-29.5" font-family="Helvetica,sans-Serif" font-size="10.00">hydra::strided_range</text>
<text text-anchor="start" x="8" y="-18.5" font-family="Helvetica,sans-Serif" font-size="10.00">::stride_functor::stride</text>
<text text-anchor="middle" x="56" y="-7.5" font-family="Helvetica,sans-Serif" font-size="10.00">_functor</text>
</g>
<!-- Node2 -->
<g id="node2" class="node"><title>Node2</title>
<g id="a_node2"><a xlink:href="../../d5/de0/a00050.html#a3a4297ab2ff39f43a8a0b42bdf7a9c40" target="_top" xlink:title="hydra::strided_range\l::begin">
<polygon fill="none" stroke="black" points="148,-6 148,-36 253,-36 253,-6 148,-6"/>
<text text-anchor="start" x="156" y="-24" font-family="Helvetica,sans-Serif" font-size="10.00">hydra::strided_range</text>
<text text-anchor="middle" x="200.5" y="-13" font-family="Helvetica,sans-Serif" font-size="10.00">::begin</text>
</a>
</g>
</g>
<!-- Node1&#45;&gt;Node2 -->
<g id="edge1" class="edge"><title>Node1&#45;&gt;Node2</title>
<path fill="none" stroke="midnightblue" d="M122.123,-21C130.739,-21 139.475,-21 147.823,-21"/>
<polygon fill="midnightblue" stroke="midnightblue" points="122.094,-17.5001 112.094,-21 122.094,-24.5001 122.094,-17.5001"/>
</g>
<!-- Node3 -->
<g id="node3" class="node"><title>Node3</title>
<g id="a_node3"><a xlink:href="../../d5/de0/a00050.html#a33d579080c354eb18be40618b508b34b" target="_top" xlink:title="hydra::strided_range::end">
<polygon fill="none" stroke="black" points="289,-11.5 289,-30.5 416,-30.5 416,-11.5 289,-11.5"/>
<text text-anchor="middle" x="352.5" y="-18.5" font-family="Helvetica,sans-Serif" font-size="10.00">hydra::strided_range::end</text>
</a>
</g>
</g>
<!-- Node2&#45;&gt;Node3 -->
<g id="edge2" class="edge"><title>Node2&#45;&gt;Node3</title>
<path fill="none" stroke="midnightblue" d="M263.291,-21C271.747,-21 280.435,-21 288.905,-21"/>
<polygon fill="midnightblue" stroke="midnightblue" points="263.122,-17.5001 253.121,-21 263.121,-24.5001 263.122,-17.5001"/>
</g>
</g>
</svg>
