<?xml version="1.0" encoding="UTF-8" standalone="no"?>
<!DOCTYPE svg PUBLIC "-//W3C//DTD SVG 1.1//EN"
 "http://www.w3.org/Graphics/SVG/1.1/DTD/svg11.dtd">
<!-- Generated by graphviz version 2.38.0 (20140413.2041)
 -->
<!-- Title: __attribute__ Pages: 1 -->
<svg width="412pt" height="598pt"
 viewBox="0.00 0.00 412.00 598.00" xmlns="http://www.w3.org/2000/svg" xmlns:xlink="http://www.w3.org/1999/xlink">
<g id="graph0" class="graph" transform="scale(1 1) rotate(0) translate(4 594)">
<title>__attribute__</title>
<!-- Node1 -->
<g id="node1" class="node"><title>Node1</title>
<polygon fill="#bfbfbf" stroke="black" points="0,-266.5 0,-285.5 73,-285.5 73,-266.5 0,-266.5"/>
<text text-anchor="middle" x="36.5" y="-273.5" font-family="Helvetica,sans-Serif" font-size="10.00">__attribute__</text>
</g>
<!-- Node2 -->
<g id="node2" class="node"><title>Node2</title>
<g id="a_node2"><a xlink:href="../../d0/dc0/a00033.html#a95c47e30a5482142e31bf02d9ab30049" target="_top" xlink:title="float4::w">
<polygon fill="none" stroke="black" points="114,-304.5 114,-323.5 168,-323.5 168,-304.5 114,-304.5"/>
<text text-anchor="middle" x="141" y="-311.5" font-family="Helvetica,sans-Serif" font-size="10.00">float4::w</text>
</a>
</g>
</g>
<!-- Node1&#45;&gt;Node2 -->
<g id="edge1" class="edge"><title>Node1&#45;&gt;Node2</title>
<path fill="none" stroke="midnightblue" d="M72.8841,-289.118C86.4409,-294.144 101.641,-299.779 114.143,-304.414"/>
<polygon fill="midnightblue" stroke="midnightblue" points="73.9581,-285.783 63.3651,-285.589 71.5248,-292.347 73.9581,-285.783"/>
</g>
<!-- Node21 -->
<g id="node21" class="node"><title>Node21</title>
<g id="a_node21"><a xlink:href="../../dc/d3c/a00028.html#ab0cdfe2f11de5c07a4d16d01ff900f1f" target="_top" xlink:title="double4::w">
<polygon fill="none" stroke="black" points="109,-266.5 109,-285.5 173,-285.5 173,-266.5 109,-266.5"/>
<text text-anchor="middle" x="141" y="-273.5" font-family="Helvetica,sans-Serif" font-size="10.00">double4::w</text>
</a>
</g>
</g>
<!-- Node1&#45;&gt;Node21 -->
<g id="edge20" class="edge"><title>Node1&#45;&gt;Node21</title>
<path fill="none" stroke="midnightblue" d="M83.1407,-276C91.8647,-276 100.808,-276 108.943,-276"/>
<polygon fill="midnightblue" stroke="midnightblue" points="83.0619,-272.5 73.0619,-276 83.0618,-279.5 83.0619,-272.5"/>
</g>
<!-- Node22 -->
<g id="node22" class="node"><title>Node22</title>
<g id="a_node22"><a xlink:href="../../d0/d33/a00027.html#aa3d565299bea164ccc683f4c5ac4a0a7" target="_top" xlink:title="double2::y">
<polygon fill="none" stroke="black" points="110,-228.5 110,-247.5 172,-247.5 172,-228.5 110,-228.5"/>
<text text-anchor="middle" x="141" y="-235.5" font-family="Helvetica,sans-Serif" font-size="10.00">double2::y</text>
</a>
</g>
</g>
<!-- Node1&#45;&gt;Node22 -->
<g id="edge21" class="edge"><title>Node1&#45;&gt;Node22</title>
<path fill="none" stroke="midnightblue" d="M72.8841,-262.882C86.4409,-257.856 101.641,-252.221 114.143,-247.586"/>
<polygon fill="midnightblue" stroke="midnightblue" points="71.5248,-259.653 63.3651,-266.411 73.9581,-266.217 71.5248,-259.653"/>
</g>
<!-- Node3 -->
<g id="node3" class="node"><title>Node3</title>
<g id="a_node3"><a xlink:href="../../d0/dc0/a00033.html#a09cd90ac35a47a68f258b6b28b1051b6" target="_top" xlink:title="float4::sum">
<polygon fill="none" stroke="black" points="209,-323.5 209,-342.5 274,-342.5 274,-323.5 209,-323.5"/>
<text text-anchor="middle" x="241.5" y="-330.5" font-family="Helvetica,sans-Serif" font-size="10.00">float4::sum</text>
</a>
</g>
</g>
<!-- Node2&#45;&gt;Node3 -->
<g id="edge2" class="edge"><title>Node2&#45;&gt;Node3</title>
<path fill="none" stroke="midnightblue" d="M178.273,-320.997C188.345,-322.94 199.196,-325.033 208.972,-326.918"/>
<polygon fill="midnightblue" stroke="midnightblue" points="178.62,-317.499 168.138,-319.042 177.294,-324.373 178.62,-317.499"/>
</g>
<!-- Node4 -->
<g id="node4" class="node"><title>Node4</title>
<g id="a_node4"><a xlink:href="../../d0/dc0/a00033.html#a5023371be89ac7baec7d3fa899556856" target="_top" xlink:title="float4::W">
<polygon fill="none" stroke="black" points="213.5,-285.5 213.5,-304.5 269.5,-304.5 269.5,-285.5 213.5,-285.5"/>
<text text-anchor="middle" x="241.5" y="-292.5" font-family="Helvetica,sans-Serif" font-size="10.00">float4::W</text>
</a>
</g>
</g>
<!-- Node2&#45;&gt;Node4 -->
<g id="edge3" class="edge"><title>Node2&#45;&gt;Node4</title>
<path fill="none" stroke="midnightblue" d="M178.007,-307.054C189.632,-304.812 202.32,-302.365 213.207,-300.265"/>
<polygon fill="midnightblue" stroke="midnightblue" points="177.294,-303.627 168.138,-308.958 178.62,-310.501 177.294,-303.627"/>
</g>
<!-- Node5 -->
<g id="node5" class="node"><title>Node5</title>
<g id="a_node5"><a xlink:href="../../d0/dc0/a00033.html#acacdccede90173e9ad403439fe050b9e" target="_top" xlink:title="float4::add">
<polygon fill="none" stroke="black" points="326,-570.5 326,-589.5 388,-589.5 388,-570.5 326,-570.5"/>
<text text-anchor="middle" x="357" y="-577.5" font-family="Helvetica,sans-Serif" font-size="10.00">float4::add</text>
</a>
</g>
</g>
<!-- Node4&#45;&gt;Node5 -->
<g id="edge4" class="edge"><title>Node4&#45;&gt;Node5</title>
<path fill="none" stroke="midnightblue" d="M271.968,-311.322C272.7,-312.177 273.382,-313.069 274,-314 335.388,-406.405 241.815,-473.49 310,-561 314.036,-566.18 319.73,-569.959 325.742,-572.712"/>
<polygon fill="midnightblue" stroke="midnightblue" points="274.136,-308.568 264.305,-304.618 269.527,-313.836 274.136,-308.568"/>
</g>
<!-- Node6 -->
<g id="node6" class="node"><title>Node6</title>
<g id="a_node6"><a xlink:href="../../d0/dc0/a00033.html#a0fee71b0818eb7cc66fb70510e6af8b1" target="_top" xlink:title="float4::sub">
<polygon fill="none" stroke="black" points="326,-532.5 326,-551.5 388,-551.5 388,-532.5 326,-532.5"/>
<text text-anchor="middle" x="357" y="-539.5" font-family="Helvetica,sans-Serif" font-size="10.00">float4::sub</text>
</a>
</g>
</g>
<!-- Node4&#45;&gt;Node6 -->
<g id="edge5" class="edge"><title>Node4&#45;&gt;Node6</title>
<path fill="none" stroke="midnightblue" d="M271.937,-311.343C272.678,-312.192 273.37,-313.077 274,-314 327.168,-391.83 251.111,-449.403 310,-523 314.103,-528.127 319.824,-531.885 325.84,-534.634"/>
<polygon fill="midnightblue" stroke="midnightblue" points="274.08,-308.569 264.229,-304.669 269.498,-313.861 274.08,-308.569"/>
</g>
<!-- Node7 -->
<g id="node7" class="node"><title>Node7</title>
<g id="a_node7"><a xlink:href="../../d0/dc0/a00033.html#a443cb7ad5926cbffc3382449a48cc718" target="_top" xlink:title="float4::min">
<polygon fill="none" stroke="black" points="326,-494.5 326,-513.5 388,-513.5 388,-494.5 326,-494.5"/>
<text text-anchor="middle" x="357" y="-501.5" font-family="Helvetica,sans-Serif" font-size="10.00">float4::min</text>
</a>
</g>
</g>
<!-- Node4&#45;&gt;Node7 -->
<g id="edge6" class="edge"><title>Node4&#45;&gt;Node7</title>
<path fill="none" stroke="midnightblue" d="M271.534,-310.98C272.423,-311.939 273.251,-312.946 274,-314 318.986,-377.311 260.366,-425.264 310,-485 314.197,-490.051 319.956,-493.777 325.98,-496.521"/>
<polygon fill="midnightblue" stroke="midnightblue" points="273.72,-308.245 263.799,-304.527 269.236,-313.621 273.72,-308.245"/>
</g>
<!-- Node8 -->
<g id="node8" class="node"><title>Node8</title>
<g id="a_node8"><a xlink:href="../../d0/dc0/a00033.html#aa833d66c0a54736747367808adbeecaf" target="_top" xlink:title="float4::max">
<polygon fill="none" stroke="black" points="324.5,-456.5 324.5,-475.5 389.5,-475.5 389.5,-456.5 324.5,-456.5"/>
<text text-anchor="middle" x="357" y="-463.5" font-family="Helvetica,sans-Serif" font-size="10.00">float4::max</text>
</a>
</g>
</g>
<!-- Node4&#45;&gt;Node8 -->
<g id="edge7" class="edge"><title>Node4&#45;&gt;Node8</title>
<path fill="none" stroke="midnightblue" d="M271.459,-311.035C272.369,-311.979 273.221,-312.967 274,-314 310.875,-362.891 269.541,-401.03 310,-447 313.882,-451.411 318.947,-454.819 324.293,-457.446"/>
<polygon fill="midnightblue" stroke="midnightblue" points="273.595,-308.261 263.635,-304.647 269.167,-313.683 273.595,-308.261"/>
</g>
<!-- Node9 -->
<g id="node9" class="node"><title>Node9</title>
<g id="a_node9"><a xlink:href="../../d0/dc0/a00033.html#a8f30dafac375fb4f3aeb538a478c5112" target="_top" xlink:title="float4::andnot">
<polygon fill="none" stroke="black" points="319,-418.5 319,-437.5 395,-437.5 395,-418.5 319,-418.5"/>
<text text-anchor="middle" x="357" y="-425.5" font-family="Helvetica,sans-Serif" font-size="10.00">float4::andnot</text>
</a>
</g>
</g>
<!-- Node4&#45;&gt;Node9 -->
<g id="edge8" class="edge"><title>Node4&#45;&gt;Node9</title>
<path fill="none" stroke="midnightblue" d="M271.254,-311.059C272.228,-311.999 273.149,-312.979 274,-314 302.92,-348.675 278.547,-376.606 310,-409 313.732,-412.843 318.354,-415.94 323.217,-418.425"/>
<polygon fill="midnightblue" stroke="midnightblue" points="273.074,-308.04 263.036,-304.652 268.77,-313.561 273.074,-308.04"/>
</g>
<!-- Node10 -->
<g id="node10" class="node"><title>Node10</title>
<g id="a_node10"><a xlink:href="../../d0/dc0/a00033.html#aa8750c4135be10989041d0d3d041c89d" target="_top" xlink:title="float4::operator&amp;">
<polygon fill="none" stroke="black" points="312.5,-380.5 312.5,-399.5 401.5,-399.5 401.5,-380.5 312.5,-380.5"/>
<text text-anchor="middle" x="357" y="-387.5" font-family="Helvetica,sans-Serif" font-size="10.00">float4::operator&amp;</text>
</a>
</g>
</g>
<!-- Node4&#45;&gt;Node10 -->
<g id="edge9" class="edge"><title>Node4&#45;&gt;Node10</title>
<path fill="none" stroke="midnightblue" d="M269.989,-310.452C271.397,-311.587 272.745,-312.771 274,-314 295.404,-334.968 287.075,-351.707 310,-371 314.495,-374.783 319.848,-377.897 325.286,-380.431"/>
<polygon fill="midnightblue" stroke="midnightblue" points="271.719,-307.39 261.519,-304.523 267.705,-313.125 271.719,-307.39"/>
</g>
<!-- Node11 -->
<g id="node11" class="node"><title>Node11</title>
<g id="a_node11"><a xlink:href="../../d0/dc0/a00033.html#a31471b46461f7d2f2d90dc87adff880f" target="_top" xlink:title="float4::operator\|">
<polygon fill="none" stroke="black" points="315,-342.5 315,-361.5 399,-361.5 399,-342.5 315,-342.5"/>
<text text-anchor="middle" x="357" y="-349.5" font-family="Helvetica,sans-Serif" font-size="10.00">float4::operator|</text>
</a>
</g>
</g>
<!-- Node4&#45;&gt;Node11 -->
<g id="edge10" class="edge"><title>Node4&#45;&gt;Node11</title>
<path fill="none" stroke="midnightblue" d="M267.268,-309.895C279.869,-317.227 295.541,-325.976 310,-333 316.839,-336.323 324.412,-339.606 331.406,-342.485"/>
<polygon fill="midnightblue" stroke="midnightblue" points="268.695,-306.673 258.302,-304.616 265.144,-312.706 268.695,-306.673"/>
</g>
<!-- Node12 -->
<g id="node12" class="node"><title>Node12</title>
<g id="a_node12"><a xlink:href="../../d0/dc0/a00033.html#ad1ef3367483d5a9fea2643d31fc44481" target="_top" xlink:title="float4::operator^">
<polygon fill="none" stroke="black" points="314,-304.5 314,-323.5 400,-323.5 400,-304.5 314,-304.5"/>
<text text-anchor="middle" x="357" y="-311.5" font-family="Helvetica,sans-Serif" font-size="10.00">float4::operator^</text>
</a>
</g>
</g>
<!-- Node4&#45;&gt;Node12 -->
<g id="edge11" class="edge"><title>Node4&#45;&gt;Node12</title>
<path fill="none" stroke="midnightblue" d="M279.773,-301.24C290.711,-303.071 302.747,-305.085 313.96,-306.962"/>
<polygon fill="midnightblue" stroke="midnightblue" points="280.127,-297.75 269.686,-299.551 278.971,-304.654 280.127,-297.75"/>
</g>
<!-- Node13 -->
<g id="node13" class="node"><title>Node13</title>
<g id="a_node13"><a xlink:href="../../d0/dc0/a00033.html#a1f1753b62b845c4ce3f4f80efecb875d" target="_top" xlink:title="float4::operator*">
<polygon fill="none" stroke="black" points="314,-266.5 314,-285.5 400,-285.5 400,-266.5 314,-266.5"/>
<text text-anchor="middle" x="357" y="-273.5" font-family="Helvetica,sans-Serif" font-size="10.00">float4::operator*</text>
</a>
</g>
</g>
<!-- Node4&#45;&gt;Node13 -->
<g id="edge12" class="edge"><title>Node4&#45;&gt;Node13</title>
<path fill="none" stroke="midnightblue" d="M279.773,-288.76C290.711,-286.929 302.747,-284.915 313.96,-283.038"/>
<polygon fill="midnightblue" stroke="midnightblue" points="278.971,-285.346 269.686,-290.449 280.127,-292.25 278.971,-285.346"/>
</g>
<!-- Node14 -->
<g id="node14" class="node"><title>Node14</title>
<g id="a_node14"><a xlink:href="../../d0/dc0/a00033.html#a09a3de4ff68edac15d16ab6092d56cde" target="_top" xlink:title="float4::operator+">
<polygon fill="none" stroke="black" points="313,-228.5 313,-247.5 401,-247.5 401,-228.5 313,-228.5"/>
<text text-anchor="middle" x="357" y="-235.5" font-family="Helvetica,sans-Serif" font-size="10.00">float4::operator+</text>
</a>
</g>
</g>
<!-- Node4&#45;&gt;Node14 -->
<g id="edge13" class="edge"><title>Node4&#45;&gt;Node14</title>
<path fill="none" stroke="midnightblue" d="M267.268,-280.105C279.869,-272.773 295.541,-264.024 310,-257 316.839,-253.677 324.412,-250.394 331.406,-247.515"/>
<polygon fill="midnightblue" stroke="midnightblue" points="265.144,-277.294 258.302,-285.384 268.695,-283.327 265.144,-277.294"/>
</g>
<!-- Node15 -->
<g id="node15" class="node"><title>Node15</title>
<g id="a_node15"><a xlink:href="../../d0/dc0/a00033.html#aeb7b6452b479bc8dc3231fb36d0aac37" target="_top" xlink:title="float4::operator&#45;">
<polygon fill="none" stroke="black" points="314.5,-190.5 314.5,-209.5 399.5,-209.5 399.5,-190.5 314.5,-190.5"/>
<text text-anchor="middle" x="357" y="-197.5" font-family="Helvetica,sans-Serif" font-size="10.00">float4::operator&#45;</text>
</a>
</g>
</g>
<!-- Node4&#45;&gt;Node15 -->
<g id="edge14" class="edge"><title>Node4&#45;&gt;Node15</title>
<path fill="none" stroke="midnightblue" d="M254.861,-276.877C267.165,-259.983 287.43,-235.05 310,-219 315.211,-215.295 321.253,-212.144 327.21,-209.537"/>
<polygon fill="midnightblue" stroke="midnightblue" points="251.8,-275.143 248.88,-285.327 257.514,-279.186 251.8,-275.143"/>
</g>
<!-- Node16 -->
<g id="node16" class="node"><title>Node16</title>
<g id="a_node16"><a xlink:href="../../d0/dc0/a00033.html#ae2e2701bb528104185d42c7935294db9" target="_top" xlink:title="float4::operator/">
<polygon fill="none" stroke="black" points="314.5,-152.5 314.5,-171.5 399.5,-171.5 399.5,-152.5 314.5,-152.5"/>
<text text-anchor="middle" x="357" y="-159.5" font-family="Helvetica,sans-Serif" font-size="10.00">float4::operator/</text>
</a>
</g>
</g>
<!-- Node4&#45;&gt;Node16 -->
<g id="edge15" class="edge"><title>Node4&#45;&gt;Node16</title>
<path fill="none" stroke="midnightblue" d="M249.36,-275.9C259.206,-250.952 279.579,-207.358 310,-181 314.31,-177.266 319.455,-174.194 324.718,-171.691"/>
<polygon fill="midnightblue" stroke="midnightblue" points="246.051,-274.754 245.786,-285.346 252.598,-277.231 246.051,-274.754"/>
</g>
<!-- Node17 -->
<g id="node17" class="node"><title>Node17</title>
<g id="a_node17"><a xlink:href="../../d0/dc0/a00033.html#aeef0afffa81f6eeeb635b19db74b4aaf" target="_top" xlink:title="float4::operator*=">
<polygon fill="none" stroke="black" points="311,-114.5 311,-133.5 403,-133.5 403,-114.5 311,-114.5"/>
<text text-anchor="middle" x="357" y="-121.5" font-family="Helvetica,sans-Serif" font-size="10.00">float4::operator*=</text>
</a>
</g>
</g>
<!-- Node4&#45;&gt;Node17 -->
<g id="edge16" class="edge"><title>Node4&#45;&gt;Node17</title>
<path fill="none" stroke="midnightblue" d="M246.244,-275.559C253.317,-243.776 271.517,-180.487 310,-143 313.961,-139.141 318.817,-136.025 323.872,-133.52"/>
<polygon fill="midnightblue" stroke="midnightblue" points="242.809,-274.888 244.192,-285.393 249.661,-276.319 242.809,-274.888"/>
</g>
<!-- Node18 -->
<g id="node18" class="node"><title>Node18</title>
<g id="a_node18"><a xlink:href="../../d0/dc0/a00033.html#a82348e5203a86345c97c358730efb4a5" target="_top" xlink:title="float4::operator+=">
<polygon fill="none" stroke="black" points="310,-76.5 310,-95.5 404,-95.5 404,-76.5 310,-76.5"/>
<text text-anchor="middle" x="357" y="-83.5" font-family="Helvetica,sans-Serif" font-size="10.00">float4::operator+=</text>
</a>
</g>
</g>
<!-- Node4&#45;&gt;Node18 -->
<g id="edge17" class="edge"><title>Node4&#45;&gt;Node18</title>
<path fill="none" stroke="midnightblue" d="M244.291,-275.057C248.716,-237.116 263.437,-153.968 310,-105 313.692,-101.118 318.293,-98.0016 323.147,-95.5081"/>
<polygon fill="midnightblue" stroke="midnightblue" points="240.78,-274.984 243.225,-285.293 247.742,-275.709 240.78,-274.984"/>
</g>
<!-- Node19 -->
<g id="node19" class="node"><title>Node19</title>
<g id="a_node19"><a xlink:href="../../d0/dc0/a00033.html#a73b8f4c7465237b7b7ba8f78da705f24" target="_top" xlink:title="float4::operator&#45;=">
<polygon fill="none" stroke="black" points="311.5,-38.5 311.5,-57.5 402.5,-57.5 402.5,-38.5 311.5,-38.5"/>
<text text-anchor="middle" x="357" y="-45.5" font-family="Helvetica,sans-Serif" font-size="10.00">float4::operator&#45;=</text>
</a>
</g>
</g>
<!-- Node4&#45;&gt;Node19 -->
<g id="edge18" class="edge"><title>Node4&#45;&gt;Node19</title>
<path fill="none" stroke="midnightblue" d="M242.864,-275.33C244.702,-232.156 254.95,-128.087 310,-67 313.471,-63.1488 317.841,-60.0591 322.499,-57.5856"/>
<polygon fill="midnightblue" stroke="midnightblue" points="239.364,-275.265 242.547,-285.371 246.361,-275.486 239.364,-275.265"/>
</g>
<!-- Node20 -->
<g id="node20" class="node"><title>Node20</title>
<g id="a_node20"><a xlink:href="../../d0/dc0/a00033.html#a8333053779355da0d6769489fe544662" target="_top" xlink:title="float4::operator/=">
<polygon fill="none" stroke="black" points="311.5,-0.5 311.5,-19.5 402.5,-19.5 402.5,-0.5 311.5,-0.5"/>
<text text-anchor="middle" x="357" y="-7.5" font-family="Helvetica,sans-Serif" font-size="10.00">float4::operator/=</text>
</a>
</g>
</g>
<!-- Node4&#45;&gt;Node20 -->
<g id="edge19" class="edge"><title>Node4&#45;&gt;Node20</title>
<path fill="none" stroke="midnightblue" d="M241.844,-275.395C241.302,-227.356 246.468,-102.349 310,-29 313.281,-25.2119 317.437,-22.165 321.902,-19.7179"/>
<polygon fill="midnightblue" stroke="midnightblue" points="238.345,-275.476 242.058,-285.399 245.344,-275.327 238.345,-275.476"/>
</g>
</g>
</svg>
