<?xml version="1.0" encoding="UTF-8" standalone="no"?>
<!DOCTYPE svg PUBLIC "-//W3C//DTD SVG 1.1//EN"
 "http://www.w3.org/Graphics/SVG/1.1/DTD/svg11.dtd">
<!-- Generated by graphviz version 2.38.0 (20140413.2041)
 -->
<!-- Title: Constant.h Pages: 1 -->
<svg width="1260pt" height="531pt"
 viewBox="0.00 0.00 1259.50 531.00" xmlns="http://www.w3.org/2000/svg" xmlns:xlink="http://www.w3.org/1999/xlink">
<g id="graph0" class="graph" transform="scale(1 1) rotate(0) translate(4 527)">
<title>Constant.h</title>
<!-- Node1 -->
<g id="node1" class="node"><title>Node1</title>
<polygon fill="#bfbfbf" stroke="black" points="387,-503.5 387,-522.5 452,-522.5 452,-503.5 387,-503.5"/>
<text text-anchor="middle" x="419.5" y="-510.5" font-family="Helvetica,sans-Serif" font-size="10.00">Constant.h</text>
</g>
<!-- Node2 -->
<g id="node2" class="node"><title>Node2</title>
<polygon fill="none" stroke="#bfbfbf" points="240.5,-252 240.5,-271 302.5,-271 302.5,-252 240.5,-252"/>
<text text-anchor="middle" x="271.5" y="-259" font-family="Helvetica,sans-Serif" font-size="10.00">type_traits</text>
</g>
<!-- Node1&#45;&gt;Node2 -->
<g id="edge1" class="edge"><title>Node1&#45;&gt;Node2</title>
<path fill="none" stroke="midnightblue" d="M401.569,-503.448C385.476,-495.31 361.663,-482.091 343.5,-467 318.063,-445.865 312.851,-438.513 294.5,-411 268.997,-372.766 257.015,-358.739 261.5,-313 262.553,-302.259 264.838,-290.416 266.958,-280.899"/>
<polygon fill="midnightblue" stroke="midnightblue" points="270.403,-281.538 269.287,-271.002 263.589,-279.934 270.403,-281.538"/>
</g>
<!-- Node3 -->
<g id="node3" class="node"><title>Node3</title>
<g id="a_node3"><a xlink:href="../../d9/db3/a00066.html" target="_top" xlink:title="hydra/detail/Config.h">
<polygon fill="none" stroke="black" points="353,-78.5 353,-97.5 460,-97.5 460,-78.5 353,-78.5"/>
<text text-anchor="middle" x="406.5" y="-85.5" font-family="Helvetica,sans-Serif" font-size="10.00">hydra/detail/Config.h</text>
</a>
</g>
</g>
<!-- Node1&#45;&gt;Node3 -->
<g id="edge2" class="edge"><title>Node1&#45;&gt;Node3</title>
<path fill="none" stroke="midnightblue" d="M386.991,-512.974C313.023,-513.336 138.5,-502.913 138.5,-396.5 138.5,-396.5 138.5,-396.5 138.5,-199 138.5,-111.157 263.248,-91.9745 342.523,-88.6533"/>
<polygon fill="midnightblue" stroke="midnightblue" points="343.036,-92.1379 352.91,-88.2971 342.796,-85.142 343.036,-92.1379"/>
</g>
<!-- Node13 -->
<g id="node13" class="node"><title>Node13</title>
<g id="a_node13"><a xlink:href="../../dd/d6d/a00111.html" target="_top" xlink:title="hydra/Types.h">
<polygon fill="none" stroke="black" points="1023,-78.5 1023,-97.5 1102,-97.5 1102,-78.5 1023,-78.5"/>
<text text-anchor="middle" x="1062.5" y="-85.5" font-family="Helvetica,sans-Serif" font-size="10.00">hydra/Types.h</text>
</a>
</g>
</g>
<!-- Node1&#45;&gt;Node13 -->
<g id="edge12" class="edge"><title>Node1&#45;&gt;Node13</title>
<path fill="none" stroke="midnightblue" d="M452.115,-510.973C605.94,-505.707 1251.5,-478.711 1251.5,-396.5 1251.5,-396.5 1251.5,-396.5 1251.5,-199 1251.5,-134.488 1168.23,-107.153 1112.23,-96.065"/>
<polygon fill="midnightblue" stroke="midnightblue" points="1112.59,-92.5718 1102.12,-94.1783 1111.31,-99.4531 1112.59,-92.5718"/>
</g>
<!-- Node14 -->
<g id="node14" class="node"><title>Node14</title>
<g id="a_node14"><a xlink:href="../../d8/d17/a00114.html" target="_top" xlink:title="hydra/detail/utility\l/Utility_Tuple.h">
<polygon fill="none" stroke="black" points="486,-380.5 486,-410.5 579,-410.5 579,-380.5 486,-380.5"/>
<text text-anchor="start" x="494" y="-398.5" font-family="Helvetica,sans-Serif" font-size="10.00">hydra/detail/utility</text>
<text text-anchor="middle" x="532.5" y="-387.5" font-family="Helvetica,sans-Serif" font-size="10.00">/Utility_Tuple.h</text>
</a>
</g>
</g>
<!-- Node1&#45;&gt;Node14 -->
<g id="edge13" class="edge"><title>Node1&#45;&gt;Node14</title>
<path fill="none" stroke="midnightblue" d="M440.658,-503.361C457.22,-495.754 479.975,-483.342 495.5,-467 508.263,-453.565 517.806,-434.867 524,-420.103"/>
<polygon fill="midnightblue" stroke="midnightblue" points="527.327,-421.21 527.753,-410.623 520.818,-418.633 527.327,-421.21"/>
</g>
<!-- Node36 -->
<g id="node36" class="node"><title>Node36</title>
<g id="a_node36"><a xlink:href="../../df/d5f/a00064.html" target="_top" xlink:title="hydra/detail/base_functor.h">
<polygon fill="none" stroke="black" points="352.5,-447.5 352.5,-466.5 486.5,-466.5 486.5,-447.5 352.5,-447.5"/>
<text text-anchor="middle" x="419.5" y="-454.5" font-family="Helvetica,sans-Serif" font-size="10.00">hydra/detail/base_functor.h</text>
</a>
</g>
</g>
<!-- Node1&#45;&gt;Node36 -->
<g id="edge54" class="edge"><title>Node1&#45;&gt;Node36</title>
<path fill="none" stroke="midnightblue" d="M419.5,-503.083C419.5,-496.006 419.5,-485.861 419.5,-476.986"/>
<polygon fill="midnightblue" stroke="midnightblue" points="423,-476.751 419.5,-466.751 416,-476.751 423,-476.751"/>
</g>
<!-- Node4 -->
<g id="node4" class="node"><title>Node4</title>
<polygon fill="none" stroke="#bfbfbf" points="0,-11.5 0,-30.5 105,-30.5 105,-11.5 0,-11.5"/>
<text text-anchor="middle" x="52.5" y="-18.5" font-family="Helvetica,sans-Serif" font-size="10.00">thrust/detail/config.h</text>
</g>
<!-- Node3&#45;&gt;Node4 -->
<g id="edge3" class="edge"><title>Node3&#45;&gt;Node4</title>
<path fill="none" stroke="midnightblue" d="M352.791,-81.4363C293.638,-74.6884 195.965,-61.71 113.5,-42 104.107,-39.7549 94.0832,-36.7381 84.9324,-33.7293"/>
<polygon fill="midnightblue" stroke="midnightblue" points="86.0107,-30.3992 75.4164,-30.5044 83.7639,-37.0289 86.0107,-30.3992"/>
</g>
<!-- Node5 -->
<g id="node5" class="node"><title>Node5</title>
<polygon fill="none" stroke="#bfbfbf" points="123,-6 123,-36 220,-36 220,-6 123,-6"/>
<text text-anchor="start" x="131" y="-24" font-family="Helvetica,sans-Serif" font-size="10.00">thrust/detail/config</text>
<text text-anchor="middle" x="171.5" y="-13" font-family="Helvetica,sans-Serif" font-size="10.00">/host_device.h</text>
</g>
<!-- Node3&#45;&gt;Node5 -->
<g id="edge4" class="edge"><title>Node3&#45;&gt;Node5</title>
<path fill="none" stroke="midnightblue" d="M369.303,-78.4937C333.316,-70.0408 277.346,-56.3044 229.5,-42 226.584,-41.1281 223.596,-40.2016 220.588,-39.2436"/>
<polygon fill="midnightblue" stroke="midnightblue" points="221.574,-35.8837 210.981,-36.1048 219.4,-42.5375 221.574,-35.8837"/>
</g>
<!-- Node6 -->
<g id="node6" class="node"><title>Node6</title>
<polygon fill="none" stroke="#bfbfbf" points="238.5,-11.5 238.5,-30.5 282.5,-30.5 282.5,-11.5 238.5,-11.5"/>
<text text-anchor="middle" x="260.5" y="-18.5" font-family="Helvetica,sans-Serif" font-size="10.00">omp.h</text>
</g>
<!-- Node3&#45;&gt;Node6 -->
<g id="edge5" class="edge"><title>Node3&#45;&gt;Node6</title>
<path fill="none" stroke="midnightblue" d="M380.277,-78.4243C356.538,-70.2698 320.892,-57.0404 291.5,-42 288.047,-40.233 284.493,-38.1827 281.078,-36.0821"/>
<polygon fill="midnightblue" stroke="midnightblue" points="282.833,-33.0485 272.533,-30.564 279.035,-38.929 282.833,-33.0485"/>
</g>
<!-- Node7 -->
<g id="node7" class="node"><title>Node7</title>
<polygon fill="none" stroke="#bfbfbf" points="300.5,-11.5 300.5,-30.5 346.5,-30.5 346.5,-11.5 300.5,-11.5"/>
<text text-anchor="middle" x="323.5" y="-18.5" font-family="Helvetica,sans-Serif" font-size="10.00">cuda.h</text>
</g>
<!-- Node3&#45;&gt;Node7 -->
<g id="edge6" class="edge"><title>Node3&#45;&gt;Node7</title>
<path fill="none" stroke="midnightblue" d="M395.306,-78.2338C381.866,-67.708 359.1,-49.8793 342.804,-37.1174"/>
<polygon fill="midnightblue" stroke="midnightblue" points="344.547,-34.0374 334.516,-30.6273 340.231,-39.5486 344.547,-34.0374"/>
</g>
<!-- Node8 -->
<g id="node8" class="node"><title>Node8</title>
<polygon fill="none" stroke="#bfbfbf" points="365,-11.5 365,-30.5 448,-30.5 448,-11.5 365,-11.5"/>
<text text-anchor="middle" x="406.5" y="-18.5" font-family="Helvetica,sans-Serif" font-size="10.00">cuda_runtime.h</text>
</g>
<!-- Node3&#45;&gt;Node8 -->
<g id="edge7" class="edge"><title>Node3&#45;&gt;Node8</title>
<path fill="none" stroke="midnightblue" d="M406.5,-78.2338C406.5,-68.6826 406.5,-53.1183 406.5,-40.7829"/>
<polygon fill="midnightblue" stroke="midnightblue" points="410,-40.6273 406.5,-30.6273 403,-40.6273 410,-40.6273"/>
</g>
<!-- Node9 -->
<g id="node9" class="node"><title>Node9</title>
<polygon fill="none" stroke="#bfbfbf" points="466,-11.5 466,-30.5 567,-30.5 567,-11.5 466,-11.5"/>
<text text-anchor="middle" x="516.5" y="-18.5" font-family="Helvetica,sans-Serif" font-size="10.00">cuda_runtime_api.h</text>
</g>
<!-- Node3&#45;&gt;Node9 -->
<g id="edge8" class="edge"><title>Node3&#45;&gt;Node9</title>
<path fill="none" stroke="midnightblue" d="M421.335,-78.2338C439.808,-67.3182 471.572,-48.5487 493.28,-35.7209"/>
<polygon fill="midnightblue" stroke="midnightblue" points="495.071,-38.7279 501.9,-30.6273 491.51,-32.7014 495.071,-38.7279"/>
</g>
<!-- Node10 -->
<g id="node10" class="node"><title>Node10</title>
<polygon fill="none" stroke="#bfbfbf" points="585.5,-11.5 585.5,-30.5 677.5,-30.5 677.5,-11.5 585.5,-11.5"/>
<text text-anchor="middle" x="631.5" y="-18.5" font-family="Helvetica,sans-Serif" font-size="10.00">math_functions.h</text>
</g>
<!-- Node3&#45;&gt;Node10 -->
<g id="edge9" class="edge"><title>Node3&#45;&gt;Node10</title>
<path fill="none" stroke="midnightblue" d="M442.025,-78.4502C476.393,-69.9654 529.838,-56.2065 575.5,-42 583.332,-39.5632 591.697,-36.7125 599.509,-33.9395"/>
<polygon fill="midnightblue" stroke="midnightblue" points="600.809,-37.1916 609.028,-30.5057 598.433,-30.6069 600.809,-37.1916"/>
</g>
<!-- Node11 -->
<g id="node11" class="node"><title>Node11</title>
<polygon fill="none" stroke="#bfbfbf" points="696,-6 696,-36 797,-36 797,-6 696,-6"/>
<text text-anchor="start" x="704" y="-24" font-family="Helvetica,sans-Serif" font-size="10.00">thrust/system/cuda</text>
<text text-anchor="middle" x="746.5" y="-13" font-family="Helvetica,sans-Serif" font-size="10.00">/execution_policy.h</text>
</g>
<!-- Node3&#45;&gt;Node11 -->
<g id="edge10" class="edge"><title>Node3&#45;&gt;Node11</title>
<path fill="none" stroke="midnightblue" d="M460.173,-81.0042C516.921,-74.0549 608.797,-61.0606 686.5,-42 690.126,-41.1106 693.847,-40.1047 697.574,-39.0288"/>
<polygon fill="midnightblue" stroke="midnightblue" points="698.839,-42.3026 707.392,-36.0498 696.807,-35.6041 698.839,-42.3026"/>
</g>
<!-- Node12 -->
<g id="node12" class="node"><title>Node12</title>
<polygon fill="none" stroke="#bfbfbf" points="815,-0.5 815,-41.5 922,-41.5 922,-0.5 815,-0.5"/>
<text text-anchor="start" x="823" y="-29.5" font-family="Helvetica,sans-Serif" font-size="10.00">thrust/system/cuda</text>
<text text-anchor="start" x="823" y="-18.5" font-family="Helvetica,sans-Serif" font-size="10.00">/experimental/pinned</text>
<text text-anchor="middle" x="868.5" y="-7.5" font-family="Helvetica,sans-Serif" font-size="10.00">_allocator.h</text>
</g>
<!-- Node3&#45;&gt;Node12 -->
<g id="edge11" class="edge"><title>Node3&#45;&gt;Node12</title>
<path fill="none" stroke="midnightblue" d="M460.277,-84.2711C535.46,-79.7236 676.247,-68.5445 804.715,-41.9409"/>
<polygon fill="midnightblue" stroke="midnightblue" points="805.666,-45.3174 814.729,-39.8301 804.222,-38.4679 805.666,-45.3174"/>
</g>
<!-- Node14&#45;&gt;Node2 -->
<g id="edge52" class="edge"><title>Node14&#45;&gt;Node2</title>
<path fill="none" stroke="midnightblue" d="M526.349,-380.25C517.604,-361.755 499.785,-329.862 474.5,-313 414.58,-273.04 385.953,-296.063 316.5,-277 313.153,-276.081 309.685,-275.071 306.225,-274.023"/>
<polygon fill="midnightblue" stroke="midnightblue" points="307.2,-270.661 296.611,-271.021 305.113,-277.343 307.2,-270.661"/>
</g>
<!-- Node14&#45;&gt;Node3 -->
<g id="edge14" class="edge"><title>Node14&#45;&gt;Node3</title>
<path fill="none" stroke="midnightblue" d="M531.065,-380.398C528.567,-362.646 521.896,-332.165 504.5,-313 478.566,-284.43 447.981,-308.359 425.5,-277 388.419,-225.275 396.628,-143.978 402.779,-107.636"/>
<polygon fill="midnightblue" stroke="midnightblue" points="406.275,-107.98 404.644,-97.511 399.39,-106.712 406.275,-107.98"/>
</g>
<!-- Node14&#45;&gt;Node13 -->
<g id="edge15" class="edge"><title>Node14&#45;&gt;Node13</title>
<path fill="none" stroke="midnightblue" d="M579.226,-392.135C654.407,-387.542 806.459,-374.991 931.5,-344 952.012,-338.916 1092.86,-290.033 1109.5,-277 1143.93,-250.025 1171.4,-230.746 1155.5,-190 1140.98,-152.787 1105.61,-121.012 1082.92,-103.503"/>
<polygon fill="midnightblue" stroke="midnightblue" points="1085.01,-100.7 1074.91,-97.5094 1080.82,-106.304 1085.01,-100.7"/>
</g>
<!-- Node15 -->
<g id="node15" class="node"><title>Node15</title>
<g id="a_node15"><a xlink:href="../../df/d5d/a00084.html" target="_top" xlink:title="hydra/detail/utility\l/Generic.h">
<polygon fill="none" stroke="black" points="373,-313.5 373,-343.5 466,-343.5 466,-313.5 373,-313.5"/>
<text text-anchor="start" x="381" y="-331.5" font-family="Helvetica,sans-Serif" font-size="10.00">hydra/detail/utility</text>
<text text-anchor="middle" x="419.5" y="-320.5" font-family="Helvetica,sans-Serif" font-size="10.00">/Generic.h</text>
</a>
</g>
</g>
<!-- Node14&#45;&gt;Node15 -->
<g id="edge16" class="edge"><title>Node14&#45;&gt;Node15</title>
<path fill="none" stroke="midnightblue" d="M507.981,-380.396C491.84,-371.112 470.508,-358.841 452.834,-348.674"/>
<polygon fill="midnightblue" stroke="midnightblue" points="454.385,-345.529 443.971,-343.577 450.895,-351.597 454.385,-345.529"/>
</g>
<!-- Node16 -->
<g id="node16" class="node"><title>Node16</title>
<polygon fill="none" stroke="#bfbfbf" points="459.5,-190.5 459.5,-209.5 497.5,-209.5 497.5,-190.5 459.5,-190.5"/>
<text text-anchor="middle" x="478.5" y="-197.5" font-family="Helvetica,sans-Serif" font-size="10.00">array</text>
</g>
<!-- Node14&#45;&gt;Node16 -->
<g id="edge53" class="edge"><title>Node14&#45;&gt;Node16</title>
<path fill="none" stroke="midnightblue" d="M579.376,-392.785C705.503,-386.635 1035.71,-359.529 931.5,-246 899.826,-211.495 557.615,-218.195 511.5,-210 510.217,-209.772 508.912,-209.517 507.598,-209.241"/>
<polygon fill="midnightblue" stroke="midnightblue" points="508.103,-205.763 497.562,-206.827 506.466,-212.569 508.103,-205.763"/>
</g>
<!-- Node17 -->
<g id="node17" class="node"><title>Node17</title>
<g id="a_node17"><a xlink:href="../../db/d57/a00112.html" target="_top" xlink:title="hydra/detail/TypeTraits.h">
<polygon fill="none" stroke="black" points="564,-319 564,-338 689,-338 689,-319 564,-319"/>
<text text-anchor="middle" x="626.5" y="-326" font-family="Helvetica,sans-Serif" font-size="10.00">hydra/detail/TypeTraits.h</text>
</a>
</g>
</g>
<!-- Node14&#45;&gt;Node17 -->
<g id="edge19" class="edge"><title>Node14&#45;&gt;Node17</title>
<path fill="none" stroke="midnightblue" d="M552.897,-380.396C568.514,-369.597 589.975,-354.756 605.694,-343.887"/>
<polygon fill="midnightblue" stroke="midnightblue" points="607.963,-346.573 614.198,-338.007 603.982,-340.816 607.963,-346.573"/>
</g>
<!-- Node30 -->
<g id="node30" class="node"><title>Node30</title>
<polygon fill="none" stroke="#bfbfbf" points="834,-246.5 834,-276.5 923,-276.5 923,-246.5 834,-246.5"/>
<text text-anchor="start" x="842" y="-264.5" font-family="Helvetica,sans-Serif" font-size="10.00">thrust/detail/type</text>
<text text-anchor="middle" x="878.5" y="-253.5" font-family="Helvetica,sans-Serif" font-size="10.00">_traits.h</text>
</g>
<!-- Node14&#45;&gt;Node30 -->
<g id="edge50" class="edge"><title>Node14&#45;&gt;Node30</title>
<path fill="none" stroke="midnightblue" d="M579.255,-381.892C612.582,-372.494 658.249,-358.776 697.5,-344 748.128,-324.941 804.721,-298.612 840.929,-281.095"/>
<polygon fill="midnightblue" stroke="midnightblue" points="842.666,-284.142 850.129,-276.622 839.605,-277.847 842.666,-284.142"/>
</g>
<!-- Node34 -->
<g id="node34" class="node"><title>Node34</title>
<polygon fill="none" stroke="#bfbfbf" points="280.5,-319 280.5,-338 354.5,-338 354.5,-319 280.5,-319"/>
<text text-anchor="middle" x="317.5" y="-326" font-family="Helvetica,sans-Serif" font-size="10.00">thrust/tuple.h</text>
</g>
<!-- Node14&#45;&gt;Node34 -->
<g id="edge49" class="edge"><title>Node14&#45;&gt;Node34</title>
<path fill="none" stroke="midnightblue" d="M485.817,-380.755C451.852,-370.704 404.776,-356.672 363.5,-344 360.378,-343.042 357.14,-342.039 353.893,-341.027"/>
<polygon fill="midnightblue" stroke="midnightblue" points="354.824,-337.651 344.235,-338.002 352.732,-344.331 354.824,-337.651"/>
</g>
<!-- Node35 -->
<g id="node35" class="node"><title>Node35</title>
<polygon fill="none" stroke="#bfbfbf" points="1036,-313.5 1036,-343.5 1185,-343.5 1185,-313.5 1036,-313.5"/>
<text text-anchor="start" x="1044" y="-331.5" font-family="Helvetica,sans-Serif" font-size="10.00">thrust/iterator/detail</text>
<text text-anchor="middle" x="1110.5" y="-320.5" font-family="Helvetica,sans-Serif" font-size="10.00">/tuple_of_iterator_references.h</text>
</g>
<!-- Node14&#45;&gt;Node35 -->
<g id="edge51" class="edge"><title>Node14&#45;&gt;Node35</title>
<path fill="none" stroke="midnightblue" d="M579.129,-390.601C666.228,-383.115 859.486,-365.545 1021.5,-344 1022.81,-343.826 1024.13,-343.647 1025.46,-343.465"/>
<polygon fill="midnightblue" stroke="midnightblue" points="1026.36,-346.873 1035.77,-342.002 1025.37,-339.942 1026.36,-346.873"/>
</g>
<!-- Node15&#45;&gt;Node2 -->
<g id="edge17" class="edge"><title>Node15&#45;&gt;Node2</title>
<path fill="none" stroke="midnightblue" d="M387.386,-313.396C361.418,-301.991 325.188,-286.079 300.184,-275.098"/>
<polygon fill="midnightblue" stroke="midnightblue" points="301.433,-271.824 290.87,-271.007 298.618,-278.233 301.433,-271.824"/>
</g>
<!-- Node15&#45;&gt;Node16 -->
<g id="edge18" class="edge"><title>Node15&#45;&gt;Node16</title>
<path fill="none" stroke="midnightblue" d="M417.377,-313.367C415.513,-296.386 414.573,-267.502 425.5,-246 431.866,-233.474 443.401,-223.035 454.088,-215.375"/>
<polygon fill="midnightblue" stroke="midnightblue" points="456.355,-218.07 462.733,-209.609 452.472,-212.246 456.355,-218.07"/>
</g>
<!-- Node17&#45;&gt;Node2 -->
<g id="edge43" class="edge"><title>Node17&#45;&gt;Node2</title>
<path fill="none" stroke="midnightblue" d="M563.9,-320.111C500.893,-312.019 401.183,-297.419 316.5,-277 312.854,-276.121 309.077,-275.094 305.33,-274"/>
<polygon fill="midnightblue" stroke="midnightblue" points="306.186,-270.601 295.598,-271.001 304.125,-277.291 306.186,-270.601"/>
</g>
<!-- Node17&#45;&gt;Node3 -->
<g id="edge20" class="edge"><title>Node17&#45;&gt;Node3</title>
<path fill="none" stroke="midnightblue" d="M564.849,-318.971C513.304,-310.621 445.15,-296.339 425.5,-277 379.011,-231.248 382.701,-198.486 392.5,-134 393.868,-125.001 396.69,-115.325 399.445,-107.26"/>
<polygon fill="midnightblue" stroke="midnightblue" points="402.765,-108.372 402.9,-97.7782 396.188,-105.976 402.765,-108.372"/>
</g>
<!-- Node18 -->
<g id="node18" class="node"><title>Node18</title>
<g id="a_node18"><a xlink:href="../../da/d24/a00068.html" target="_top" xlink:title="Typedef for useful container classes used in MCBooster. ">
<polygon fill="none" stroke="black" points="980,-252 980,-271 1079,-271 1079,-252 980,-252"/>
<text text-anchor="middle" x="1029.5" y="-259" font-family="Helvetica,sans-Serif" font-size="10.00">hydra/Containers.h</text>
</a>
</g>
</g>
<!-- Node17&#45;&gt;Node18 -->
<g id="edge21" class="edge"><title>Node17&#45;&gt;Node18</title>
<path fill="none" stroke="midnightblue" d="M679.6,-318.936C754.567,-306.844 891.032,-284.834 969.552,-272.169"/>
<polygon fill="midnightblue" stroke="midnightblue" points="970.452,-275.569 979.767,-270.522 969.337,-268.659 970.452,-275.569"/>
</g>
<!-- Node29 -->
<g id="node29" class="node"><title>Node29</title>
<polygon fill="none" stroke="#bfbfbf" points="1058,-190.5 1058,-209.5 1147,-209.5 1147,-190.5 1058,-190.5"/>
<text text-anchor="middle" x="1102.5" y="-197.5" font-family="Helvetica,sans-Serif" font-size="10.00">thrust/complex.h</text>
</g>
<!-- Node17&#45;&gt;Node29 -->
<g id="edge44" class="edge"><title>Node17&#45;&gt;Node29</title>
<path fill="none" stroke="midnightblue" d="M689.46,-324.695C808.822,-318.79 1058.73,-303.403 1087.5,-277 1103.11,-262.678 1105.19,-237.212 1104.48,-219.735"/>
<polygon fill="midnightblue" stroke="midnightblue" points="1107.96,-219.314 1103.72,-209.601 1100.98,-219.834 1107.96,-219.314"/>
</g>
<!-- Node17&#45;&gt;Node30 -->
<g id="edge45" class="edge"><title>Node17&#45;&gt;Node30</title>
<path fill="none" stroke="midnightblue" d="M660.518,-318.962C698.063,-309.509 760.536,-293.689 823.952,-277.126"/>
<polygon fill="midnightblue" stroke="midnightblue" points="824.934,-280.487 833.722,-274.57 823.162,-273.715 824.934,-280.487"/>
</g>
<!-- Node31 -->
<g id="node31" class="node"><title>Node31</title>
<polygon fill="none" stroke="#bfbfbf" points="566,-252 566,-271 691,-271 691,-252 566,-252"/>
<text text-anchor="middle" x="628.5" y="-259" font-family="Helvetica,sans-Serif" font-size="10.00">thrust/execution_policy.h</text>
</g>
<!-- Node17&#45;&gt;Node31 -->
<g id="edge46" class="edge"><title>Node17&#45;&gt;Node31</title>
<path fill="none" stroke="midnightblue" d="M626.77,-318.734C627.064,-309.183 627.543,-293.618 627.922,-281.283"/>
<polygon fill="midnightblue" stroke="midnightblue" points="631.425,-281.23 628.235,-271.127 624.429,-281.015 631.425,-281.23"/>
</g>
<!-- Node32 -->
<g id="node32" class="node"><title>Node32</title>
<polygon fill="none" stroke="#bfbfbf" points="709,-246.5 709,-276.5 816,-276.5 816,-246.5 709,-246.5"/>
<text text-anchor="start" x="717" y="-264.5" font-family="Helvetica,sans-Serif" font-size="10.00">thrust/iterator/iterator</text>
<text text-anchor="middle" x="762.5" y="-253.5" font-family="Helvetica,sans-Serif" font-size="10.00">_categories.h</text>
</g>
<!-- Node17&#45;&gt;Node32 -->
<g id="edge47" class="edge"><title>Node17&#45;&gt;Node32</title>
<path fill="none" stroke="midnightblue" d="M644.56,-318.869C664.702,-309.242 697.873,-293.388 723.915,-280.942"/>
<polygon fill="midnightblue" stroke="midnightblue" points="725.636,-283.998 733.149,-276.528 722.617,-277.682 725.636,-283.998"/>
</g>
<!-- Node33 -->
<g id="node33" class="node"><title>Node33</title>
<polygon fill="none" stroke="#bfbfbf" points="435,-246.5 435,-276.5 548,-276.5 548,-246.5 435,-246.5"/>
<text text-anchor="start" x="443" y="-264.5" font-family="Helvetica,sans-Serif" font-size="10.00">thrust/iterator/detail</text>
<text text-anchor="middle" x="491.5" y="-253.5" font-family="Helvetica,sans-Serif" font-size="10.00">/is_iterator_category.h</text>
</g>
<!-- Node17&#45;&gt;Node33 -->
<g id="edge48" class="edge"><title>Node17&#45;&gt;Node33</title>
<path fill="none" stroke="midnightblue" d="M608.573,-318.869C588.579,-309.242 555.652,-293.388 529.802,-280.942"/>
<polygon fill="midnightblue" stroke="midnightblue" points="531.164,-277.713 520.635,-276.528 528.127,-284.02 531.164,-277.713"/>
</g>
<!-- Node18&#45;&gt;Node3 -->
<g id="edge24" class="edge"><title>Node18&#45;&gt;Node3</title>
<path fill="none" stroke="midnightblue" d="M989.537,-251.98C978.248,-249.79 965.926,-247.602 954.5,-246 863.924,-233.302 628.609,-245.93 544.5,-210 489.768,-186.62 441.439,-132.942 419.306,-105.625"/>
<polygon fill="midnightblue" stroke="midnightblue" points="422.021,-103.416 413.065,-97.7542 416.536,-107.765 422.021,-103.416"/>
</g>
<!-- Node18&#45;&gt;Node13 -->
<g id="edge25" class="edge"><title>Node18&#45;&gt;Node13</title>
<path fill="none" stroke="midnightblue" d="M1031.18,-251.76C1036.32,-225.036 1051.91,-144.017 1058.97,-107.362"/>
<polygon fill="midnightblue" stroke="midnightblue" points="1062.41,-108.001 1060.86,-97.5194 1055.53,-106.678 1062.41,-108.001"/>
</g>
<!-- Node18&#45;&gt;Node16 -->
<g id="edge23" class="edge"><title>Node18&#45;&gt;Node16</title>
<path fill="none" stroke="midnightblue" d="M996.125,-251.986C986.314,-249.742 975.524,-247.525 965.5,-246 765.391,-215.559 710.9,-244.781 511.5,-210 510.217,-209.776 508.911,-209.525 507.596,-209.252"/>
<polygon fill="midnightblue" stroke="midnightblue" points="508.098,-205.773 497.558,-206.848 506.468,-212.581 508.098,-205.773"/>
</g>
<!-- Node19 -->
<g id="node19" class="node"><title>Node19</title>
<polygon fill="none" stroke="#bfbfbf" points="553.5,-190.5 553.5,-209.5 597.5,-209.5 597.5,-190.5 553.5,-190.5"/>
<text text-anchor="middle" x="575.5" y="-197.5" font-family="Helvetica,sans-Serif" font-size="10.00">vector</text>
</g>
<!-- Node18&#45;&gt;Node19 -->
<g id="edge22" class="edge"><title>Node18&#45;&gt;Node19</title>
<path fill="none" stroke="midnightblue" d="M995.441,-251.968C985.808,-249.777 975.283,-247.593 965.5,-246 810.473,-220.763 765.756,-239.67 607.804,-209.915"/>
<polygon fill="midnightblue" stroke="midnightblue" points="608.213,-206.43 597.732,-207.982 606.893,-213.304 608.213,-206.43"/>
</g>
<!-- Node20 -->
<g id="node20" class="node"><title>Node20</title>
<g id="a_node20"><a xlink:href="../../d2/da3/a00115.html" target="_top" xlink:title="hydra/Vector3R.h">
<polygon fill="none" stroke="black" points="672,-134.5 672,-153.5 765,-153.5 765,-134.5 672,-134.5"/>
<text text-anchor="middle" x="718.5" y="-141.5" font-family="Helvetica,sans-Serif" font-size="10.00">hydra/Vector3R.h</text>
</a>
</g>
</g>
<!-- Node18&#45;&gt;Node20 -->
<g id="edge26" class="edge"><title>Node18&#45;&gt;Node20</title>
<path fill="none" stroke="midnightblue" d="M1004.52,-251.851C977.893,-242.407 934.676,-226.425 898.5,-210 881.122,-202.11 878.111,-197.356 860.5,-190 827.734,-176.313 789.265,-164.362 760.637,-156.223"/>
<polygon fill="midnightblue" stroke="midnightblue" points="761.521,-152.836 750.947,-153.507 759.631,-159.576 761.521,-152.836"/>
</g>
<!-- Node25 -->
<g id="node25" class="node"><title>Node25</title>
<g id="a_node25"><a xlink:href="../../d4/d3e/a00116.html" target="_top" xlink:title="hydra/Vector4R.h">
<polygon fill="none" stroke="black" points="908,-190.5 908,-209.5 1001,-209.5 1001,-190.5 908,-190.5"/>
<text text-anchor="middle" x="954.5" y="-197.5" font-family="Helvetica,sans-Serif" font-size="10.00">hydra/Vector4R.h</text>
</a>
</g>
</g>
<!-- Node18&#45;&gt;Node25 -->
<g id="edge33" class="edge"><title>Node18&#45;&gt;Node25</title>
<path fill="none" stroke="midnightblue" d="M1018.75,-251.975C1006.95,-242.608 987.757,-227.384 973.418,-216.008"/>
<polygon fill="midnightblue" stroke="midnightblue" points="975.235,-212.982 965.226,-209.509 970.885,-218.466 975.235,-212.982"/>
</g>
<!-- Node27 -->
<g id="node27" class="node"><title>Node27</title>
<polygon fill="none" stroke="#bfbfbf" points="616,-190.5 616,-209.5 729,-209.5 729,-190.5 616,-190.5"/>
<text text-anchor="middle" x="672.5" y="-197.5" font-family="Helvetica,sans-Serif" font-size="10.00">thrust/device_vector.h</text>
</g>
<!-- Node18&#45;&gt;Node27 -->
<g id="edge40" class="edge"><title>Node18&#45;&gt;Node27</title>
<path fill="none" stroke="midnightblue" d="M993.713,-251.925C984.543,-249.856 974.678,-247.742 965.5,-246 923.367,-238.002 811.911,-221.345 739.251,-210.694"/>
<polygon fill="midnightblue" stroke="midnightblue" points="739.669,-207.218 729.267,-209.232 738.655,-214.144 739.669,-207.218"/>
</g>
<!-- Node28 -->
<g id="node28" class="node"><title>Node28</title>
<polygon fill="none" stroke="#bfbfbf" points="747.5,-190.5 747.5,-209.5 851.5,-209.5 851.5,-190.5 747.5,-190.5"/>
<text text-anchor="middle" x="799.5" y="-197.5" font-family="Helvetica,sans-Serif" font-size="10.00">thrust/host_vector.h</text>
</g>
<!-- Node18&#45;&gt;Node28 -->
<g id="edge41" class="edge"><title>Node18&#45;&gt;Node28</title>
<path fill="none" stroke="midnightblue" d="M996.547,-251.975C955.898,-241.459 886.713,-223.562 842.076,-212.014"/>
<polygon fill="midnightblue" stroke="midnightblue" points="842.95,-208.625 832.392,-209.509 841.197,-215.402 842.95,-208.625"/>
</g>
<!-- Node18&#45;&gt;Node29 -->
<g id="edge42" class="edge"><title>Node18&#45;&gt;Node29</title>
<path fill="none" stroke="midnightblue" d="M1039.96,-251.975C1051.45,-242.608 1070.13,-227.384 1084.09,-216.008"/>
<polygon fill="midnightblue" stroke="midnightblue" points="1086.52,-218.54 1092.06,-209.509 1082.1,-213.114 1086.52,-218.54"/>
</g>
<!-- Node20&#45;&gt;Node3 -->
<g id="edge27" class="edge"><title>Node20&#45;&gt;Node3</title>
<path fill="none" stroke="midnightblue" d="M671.79,-134.916C616.912,-125.417 525.771,-109.643 465.912,-99.2829"/>
<polygon fill="midnightblue" stroke="midnightblue" points="466.301,-95.7982 455.851,-97.5414 465.107,-102.696 466.301,-95.7982"/>
</g>
<!-- Node20&#45;&gt;Node13 -->
<g id="edge28" class="edge"><title>Node20&#45;&gt;Node13</title>
<path fill="none" stroke="midnightblue" d="M765.248,-135.471C768.379,-134.972 771.485,-134.478 774.5,-134 858.194,-120.736 955.617,-105.571 1013,-96.667"/>
<polygon fill="midnightblue" stroke="midnightblue" points="1013.55,-100.124 1022.89,-95.1326 1012.48,-93.2069 1013.55,-100.124"/>
</g>
<!-- Node21 -->
<g id="node21" class="node"><title>Node21</title>
<polygon fill="none" stroke="#bfbfbf" points="609,-78.5 609,-97.5 654,-97.5 654,-78.5 609,-78.5"/>
<text text-anchor="middle" x="631.5" y="-85.5" font-family="Helvetica,sans-Serif" font-size="10.00">iosfwd</text>
</g>
<!-- Node20&#45;&gt;Node21 -->
<g id="edge29" class="edge"><title>Node20&#45;&gt;Node21</title>
<path fill="none" stroke="midnightblue" d="M704.522,-134.324C690.95,-125.9 670.12,-112.971 654.175,-103.074"/>
<polygon fill="midnightblue" stroke="midnightblue" points="655.786,-99.9544 645.443,-97.6545 652.094,-105.902 655.786,-99.9544"/>
</g>
<!-- Node22 -->
<g id="node22" class="node"><title>Node22</title>
<polygon fill="none" stroke="#bfbfbf" points="932.5,-78.5 932.5,-97.5 986.5,-97.5 986.5,-78.5 932.5,-78.5"/>
<text text-anchor="middle" x="959.5" y="-85.5" font-family="Helvetica,sans-Serif" font-size="10.00">iostream</text>
</g>
<!-- Node20&#45;&gt;Node22 -->
<g id="edge30" class="edge"><title>Node20&#45;&gt;Node22</title>
<path fill="none" stroke="midnightblue" d="M756.687,-134.444C802.124,-124.263 877.469,-107.38 922.415,-97.3095"/>
<polygon fill="midnightblue" stroke="midnightblue" points="923.344,-100.688 932.336,-95.0865 921.813,-93.8577 923.344,-100.688"/>
</g>
<!-- Node23 -->
<g id="node23" class="node"><title>Node23</title>
<polygon fill="none" stroke="#bfbfbf" points="831,-78.5 831,-97.5 878,-97.5 878,-78.5 831,-78.5"/>
<text text-anchor="middle" x="854.5" y="-85.5" font-family="Helvetica,sans-Serif" font-size="10.00">math.h</text>
</g>
<!-- Node20&#45;&gt;Node23 -->
<g id="edge31" class="edge"><title>Node20&#45;&gt;Node23</title>
<path fill="none" stroke="midnightblue" d="M740.05,-134.444C762.531,-125.517 797.988,-111.439 823.48,-101.317"/>
<polygon fill="midnightblue" stroke="midnightblue" points="825.049,-104.46 833.051,-97.5164 822.465,-97.9539 825.049,-104.46"/>
</g>
<!-- Node24 -->
<g id="node24" class="node"><title>Node24</title>
<polygon fill="none" stroke="#bfbfbf" points="672.5,-78.5 672.5,-97.5 796.5,-97.5 796.5,-78.5 672.5,-78.5"/>
<text text-anchor="middle" x="734.5" y="-85.5" font-family="Helvetica,sans-Serif" font-size="10.00">hydra/detail/Vector3R.inl</text>
</g>
<!-- Node20&#45;&gt;Node24 -->
<g id="edge32" class="edge"><title>Node20&#45;&gt;Node24</title>
<path fill="none" stroke="midnightblue" d="M721.142,-134.083C723.286,-126.849 726.379,-116.409 729.049,-107.397"/>
<polygon fill="midnightblue" stroke="midnightblue" points="732.422,-108.333 731.907,-97.7511 725.71,-106.345 732.422,-108.333"/>
</g>
<!-- Node25&#45;&gt;Node3 -->
<g id="edge36" class="edge"><title>Node25&#45;&gt;Node3</title>
<path fill="none" stroke="midnightblue" d="M907.983,-193.23C850.157,-185.736 748.575,-171.518 662.5,-154 585.151,-138.258 496.073,-114.296 446.014,-100.287"/>
<polygon fill="midnightblue" stroke="midnightblue" points="446.814,-96.8766 436.24,-97.5396 444.919,-103.615 446.814,-96.8766"/>
</g>
<!-- Node25&#45;&gt;Node13 -->
<g id="edge37" class="edge"><title>Node25&#45;&gt;Node13</title>
<path fill="none" stroke="midnightblue" d="M962.975,-190.368C981.113,-171.894 1023.92,-128.293 1047.04,-104.744"/>
<polygon fill="midnightblue" stroke="midnightblue" points="1049.56,-107.179 1054.06,-97.5914 1044.56,-102.275 1049.56,-107.179"/>
</g>
<!-- Node25&#45;&gt;Node20 -->
<g id="edge38" class="edge"><title>Node25&#45;&gt;Node20</title>
<path fill="none" stroke="midnightblue" d="M917.105,-190.444C876.108,-181.063 810.246,-165.993 765.716,-155.804"/>
<polygon fill="midnightblue" stroke="midnightblue" points="766.249,-152.335 755.72,-153.516 764.687,-159.159 766.249,-152.335"/>
</g>
<!-- Node25&#45;&gt;Node22 -->
<g id="edge35" class="edge"><title>Node25&#45;&gt;Node22</title>
<path fill="none" stroke="midnightblue" d="M954.892,-190.368C955.699,-172.617 957.561,-131.666 958.655,-107.597"/>
<polygon fill="midnightblue" stroke="midnightblue" points="962.152,-107.74 959.109,-97.5914 955.159,-107.422 962.152,-107.74"/>
</g>
<!-- Node25&#45;&gt;Node23 -->
<g id="edge34" class="edge"><title>Node25&#45;&gt;Node23</title>
<path fill="none" stroke="midnightblue" d="M950.814,-190.266C944.94,-177.047 932.471,-151.633 916.5,-134 905.435,-121.784 890.555,-110.85 878.145,-102.82"/>
<polygon fill="midnightblue" stroke="midnightblue" points="879.972,-99.8346 869.636,-97.5089 876.266,-105.773 879.972,-99.8346"/>
</g>
<!-- Node26 -->
<g id="node26" class="node"><title>Node26</title>
<polygon fill="none" stroke="#bfbfbf" points="783.5,-134.5 783.5,-153.5 907.5,-153.5 907.5,-134.5 783.5,-134.5"/>
<text text-anchor="middle" x="845.5" y="-141.5" font-family="Helvetica,sans-Serif" font-size="10.00">hydra/detail/Vector4R.inl</text>
</g>
<!-- Node25&#45;&gt;Node26 -->
<g id="edge39" class="edge"><title>Node25&#45;&gt;Node26</title>
<path fill="none" stroke="midnightblue" d="M936.987,-190.324C919.428,-181.625 892.169,-168.12 871.969,-158.113"/>
<polygon fill="midnightblue" stroke="midnightblue" points="873.484,-154.958 862.969,-153.655 870.376,-161.23 873.484,-154.958"/>
</g>
<!-- Node36&#45;&gt;Node2 -->
<g id="edge55" class="edge"><title>Node36&#45;&gt;Node2</title>
<path fill="none" stroke="midnightblue" d="M397.909,-447.449C363.492,-432.469 297.432,-397.855 271.5,-344 261.932,-324.13 264.015,-298.246 267.108,-281.035"/>
<polygon fill="midnightblue" stroke="midnightblue" points="270.559,-281.632 269.174,-271.128 263.706,-280.203 270.559,-281.632"/>
</g>
<!-- Node36&#45;&gt;Node3 -->
<g id="edge56" class="edge"><title>Node36&#45;&gt;Node3</title>
<path fill="none" stroke="midnightblue" d="M370.468,-447.49C345.335,-441.032 315.653,-429.905 294.5,-411 245.432,-367.146 245.25,-341.357 231.5,-277 213.438,-192.464 323.086,-128.151 377.38,-101.911"/>
<polygon fill="midnightblue" stroke="midnightblue" points="378.97,-105.031 386.522,-97.5996 375.984,-98.6994 378.97,-105.031"/>
</g>
<!-- Node36&#45;&gt;Node13 -->
<g id="edge57" class="edge"><title>Node36&#45;&gt;Node13</title>
<path fill="none" stroke="midnightblue" d="M486.512,-452.353C677.935,-441.05 1213.5,-402.87 1213.5,-329.5 1213.5,-329.5 1213.5,-329.5 1213.5,-199 1213.5,-145.629 1151.11,-115.421 1106.54,-100.65"/>
<polygon fill="midnightblue" stroke="midnightblue" points="1107.35,-97.2374 1096.76,-97.5599 1105.24,-103.912 1107.35,-97.2374"/>
</g>
<!-- Node36&#45;&gt;Node14 -->
<g id="edge58" class="edge"><title>Node36&#45;&gt;Node14</title>
<path fill="none" stroke="midnightblue" d="M435.69,-447.475C451.567,-439.115 476.303,-426.09 496.798,-415.299"/>
<polygon fill="midnightblue" stroke="midnightblue" points="498.65,-418.279 505.868,-410.523 495.389,-412.085 498.65,-418.279"/>
</g>
<!-- Node36&#45;&gt;Node15 -->
<g id="edge59" class="edge"><title>Node36&#45;&gt;Node15</title>
<path fill="none" stroke="midnightblue" d="M419.5,-447.305C419.5,-428.298 419.5,-382.47 419.5,-353.9"/>
<polygon fill="midnightblue" stroke="midnightblue" points="423,-353.888 419.5,-343.888 416,-353.888 423,-353.888"/>
</g>
<!-- Node36&#45;&gt;Node17 -->
<g id="edge60" class="edge"><title>Node36&#45;&gt;Node17</title>
<path fill="none" stroke="midnightblue" d="M423.721,-447.359C431.807,-431.679 450.972,-398.458 476.5,-380 503.608,-360.4 538.854,-348.021 568.369,-340.428"/>
<polygon fill="midnightblue" stroke="midnightblue" points="569.26,-343.813 578.139,-338.033 567.593,-337.015 569.26,-343.813"/>
</g>
<!-- Node36&#45;&gt;Node34 -->
<g id="edge61" class="edge"><title>Node36&#45;&gt;Node34</title>
<path fill="none" stroke="midnightblue" d="M412.489,-447.305C395.675,-426.452 352.829,-373.315 330.889,-346.105"/>
<polygon fill="midnightblue" stroke="midnightblue" points="333.562,-343.843 324.56,-338.256 328.112,-348.237 333.562,-343.843"/>
</g>
</g>
</svg>
