<?xml version="1.0" encoding="UTF-8" standalone="no"?>
<!DOCTYPE svg PUBLIC "-//W3C//DTD SVG 1.1//EN"
 "http://www.w3.org/Graphics/SVG/1.1/DTD/svg11.dtd">
<!-- Generated by graphviz version 2.38.0 (20140413.2041)
 -->
<!-- Title: Print.h Pages: 1 -->
<svg width="459pt" height="196pt"
 viewBox="0.00 0.00 459.00 196.00" xmlns="http://www.w3.org/2000/svg" xmlns:xlink="http://www.w3.org/1999/xlink">
<g id="graph0" class="graph" transform="scale(1 1) rotate(0) translate(4 192)">
<title>Print.h</title>
<!-- Node1 -->
<g id="node1" class="node"><title>Node1</title>
<polygon fill="#bfbfbf" stroke="black" points="248.5,-168.5 248.5,-187.5 293.5,-187.5 293.5,-168.5 248.5,-168.5"/>
<text text-anchor="middle" x="271" y="-175.5" font-family="Helvetica,sans-Serif" font-size="10.00">Print.h</text>
</g>
<!-- Node2 -->
<g id="node2" class="node"><title>Node2</title>
<g id="a_node2"><a xlink:href="../../d7/d70/a00106.html" target="_top" xlink:title="Function.h">
<polygon fill="none" stroke="black" points="92,-112.5 92,-131.5 154,-131.5 154,-112.5 92,-112.5"/>
<text text-anchor="middle" x="123" y="-119.5" font-family="Helvetica,sans-Serif" font-size="10.00">Function.h</text>
</a>
</g>
</g>
<!-- Node1&#45;&gt;Node2 -->
<g id="edge1" class="edge"><title>Node1&#45;&gt;Node2</title>
<path fill="none" stroke="midnightblue" d="M238.534,-165.154C210.751,-155.017 171.414,-140.665 146.561,-131.597"/>
<polygon fill="midnightblue" stroke="midnightblue" points="237.605,-168.541 248.199,-168.681 240.005,-161.965 237.605,-168.541"/>
</g>
<!-- Node7 -->
<g id="node7" class="node"><title>Node7</title>
<g id="a_node7"><a xlink:href="../../d9/d4b/a00117.html" target="_top" xlink:title="LogLikelihoodFCN.h">
<polygon fill="none" stroke="black" points="173.5,-112.5 173.5,-131.5 278.5,-131.5 278.5,-112.5 173.5,-112.5"/>
<text text-anchor="middle" x="226" y="-119.5" font-family="Helvetica,sans-Serif" font-size="10.00">LogLikelihoodFCN.h</text>
</a>
</g>
</g>
<!-- Node1&#45;&gt;Node7 -->
<g id="edge6" class="edge"><title>Node1&#45;&gt;Node7</title>
<path fill="none" stroke="midnightblue" d="M256.953,-160.144C249.113,-150.736 239.671,-139.405 233.293,-131.751"/>
<polygon fill="midnightblue" stroke="midnightblue" points="254.479,-162.641 263.569,-168.083 259.856,-158.16 254.479,-162.641"/>
</g>
<!-- Node8 -->
<g id="node8" class="node"><title>Node8</title>
<g id="a_node8"><a xlink:href="../../df/dc8/a00122.html" target="_top" xlink:title="Pdf.h">
<polygon fill="none" stroke="black" points="297,-112.5 297,-131.5 337,-131.5 337,-112.5 297,-112.5"/>
<text text-anchor="middle" x="317" y="-119.5" font-family="Helvetica,sans-Serif" font-size="10.00">Pdf.h</text>
</a>
</g>
</g>
<!-- Node1&#45;&gt;Node8 -->
<g id="edge7" class="edge"><title>Node1&#45;&gt;Node8</title>
<path fill="none" stroke="midnightblue" d="M285.114,-160.431C293.176,-150.967 302.959,-139.483 309.545,-131.751"/>
<polygon fill="midnightblue" stroke="midnightblue" points="282.416,-158.201 278.596,-168.083 287.745,-162.74 282.416,-158.201"/>
</g>
<!-- Node10 -->
<g id="node10" class="node"><title>Node10</title>
<g id="a_node10"><a xlink:href="../../d5/d4e/a00141.html" target="_top" xlink:title="UserParameters.h">
<polygon fill="none" stroke="black" points="355,-112.5 355,-131.5 451,-131.5 451,-112.5 355,-112.5"/>
<text text-anchor="middle" x="403" y="-119.5" font-family="Helvetica,sans-Serif" font-size="10.00">UserParameters.h</text>
</a>
</g>
</g>
<!-- Node1&#45;&gt;Node10 -->
<g id="edge9" class="edge"><title>Node1&#45;&gt;Node10</title>
<path fill="none" stroke="midnightblue" d="M301.219,-164.638C325.99,-154.504 360.4,-140.427 382.182,-131.516"/>
<polygon fill="midnightblue" stroke="midnightblue" points="299.846,-161.418 291.916,-168.444 302.497,-167.897 299.846,-161.418"/>
</g>
<!-- Node3 -->
<g id="node3" class="node"><title>Node3</title>
<g id="a_node3"><a xlink:href="../../d4/ddd/a00138.html" target="_top" xlink:title="Sum.h">
<polygon fill="none" stroke="black" points="28.5,-56.5 28.5,-75.5 73.5,-75.5 73.5,-56.5 28.5,-56.5"/>
<text text-anchor="middle" x="51" y="-63.5" font-family="Helvetica,sans-Serif" font-size="10.00">Sum.h</text>
</a>
</g>
</g>
<!-- Node2&#45;&gt;Node3 -->
<g id="edge2" class="edge"><title>Node2&#45;&gt;Node3</title>
<path fill="none" stroke="midnightblue" d="M103.134,-106.101C90.1765,-96.3824 73.7026,-84.0269 62.7785,-75.8339"/>
<polygon fill="midnightblue" stroke="midnightblue" points="101.332,-109.124 111.432,-112.324 105.532,-103.524 101.332,-109.124"/>
</g>
<!-- Node5 -->
<g id="node5" class="node"><title>Node5</title>
<g id="a_node5"><a xlink:href="../../d4/d3a/a00101.html" target="_top" xlink:title="Evaluate.h">
<polygon fill="none" stroke="black" points="91.5,-56.5 91.5,-75.5 154.5,-75.5 154.5,-56.5 91.5,-56.5"/>
<text text-anchor="middle" x="123" y="-63.5" font-family="Helvetica,sans-Serif" font-size="10.00">Evaluate.h</text>
</a>
</g>
</g>
<!-- Node2&#45;&gt;Node5 -->
<g id="edge4" class="edge"><title>Node2&#45;&gt;Node5</title>
<path fill="none" stroke="midnightblue" d="M123,-101.805C123,-92.9102 123,-82.7798 123,-75.7511"/>
<polygon fill="midnightblue" stroke="midnightblue" points="119.5,-102.083 123,-112.083 126.5,-102.083 119.5,-102.083"/>
</g>
<!-- Node6 -->
<g id="node6" class="node"><title>Node6</title>
<g id="a_node6"><a xlink:href="../../df/d98/a00107.html" target="_top" xlink:title="FunctionWrapper.h">
<polygon fill="none" stroke="black" points="172.5,-56.5 172.5,-75.5 271.5,-75.5 271.5,-56.5 172.5,-56.5"/>
<text text-anchor="middle" x="222" y="-63.5" font-family="Helvetica,sans-Serif" font-size="10.00">FunctionWrapper.h</text>
</a>
</g>
</g>
<!-- Node2&#45;&gt;Node6 -->
<g id="edge5" class="edge"><title>Node2&#45;&gt;Node6</title>
<path fill="none" stroke="midnightblue" d="M147.837,-107.453C166.114,-97.4835 190.416,-84.2279 206.133,-75.6545"/>
<polygon fill="midnightblue" stroke="midnightblue" points="146.009,-104.463 138.906,-112.324 149.361,-110.608 146.009,-104.463"/>
</g>
<!-- Node4 -->
<g id="node4" class="node"><title>Node4</title>
<g id="a_node4"><a xlink:href="../../d1/dd6/a00108.html" target="_top" xlink:title="FunctorArithmetic.h">
<polygon fill="none" stroke="black" points="0,-0.5 0,-19.5 102,-19.5 102,-0.5 0,-0.5"/>
<text text-anchor="middle" x="51" y="-7.5" font-family="Helvetica,sans-Serif" font-size="10.00">FunctorArithmetic.h</text>
</a>
</g>
</g>
<!-- Node3&#45;&gt;Node4 -->
<g id="edge3" class="edge"><title>Node3&#45;&gt;Node4</title>
<path fill="none" stroke="midnightblue" d="M51,-45.8045C51,-36.9102 51,-26.7798 51,-19.7511"/>
<polygon fill="midnightblue" stroke="midnightblue" points="47.5001,-46.083 51,-56.083 54.5001,-46.083 47.5001,-46.083"/>
</g>
<!-- Node9 -->
<g id="node9" class="node"><title>Node9</title>
<g id="a_node9"><a xlink:href="../../db/dab/a00089.html" target="_top" xlink:title="AddPdf.h">
<polygon fill="none" stroke="black" points="289.5,-56.5 289.5,-75.5 346.5,-75.5 346.5,-56.5 289.5,-56.5"/>
<text text-anchor="middle" x="318" y="-63.5" font-family="Helvetica,sans-Serif" font-size="10.00">AddPdf.h</text>
</a>
</g>
</g>
<!-- Node8&#45;&gt;Node9 -->
<g id="edge8" class="edge"><title>Node8&#45;&gt;Node9</title>
<path fill="none" stroke="midnightblue" d="M317.355,-101.805C317.52,-92.9102 317.708,-82.7798 317.838,-75.7511"/>
<polygon fill="midnightblue" stroke="midnightblue" points="313.851,-102.02 317.165,-112.083 320.85,-102.15 313.851,-102.02"/>
</g>
</g>
</svg>
