<?xml version="1.0" encoding="UTF-8" standalone="no"?>
<!DOCTYPE svg PUBLIC "-//W3C//DTD SVG 1.1//EN"
 "http://www.w3.org/Graphics/SVG/1.1/DTD/svg11.dtd">
<!-- Generated by graphviz version 2.38.0 (20140413.2041)
 -->
<!-- Title: hydra::Vegas::PrintResults Pages: 1 -->
<svg width="441pt" height="47pt"
 viewBox="0.00 0.00 441.00 47.00" xmlns="http://www.w3.org/2000/svg" xmlns:xlink="http://www.w3.org/1999/xlink">
<g id="graph0" class="graph" transform="scale(1 1) rotate(0) translate(4 43)">
<title>hydra::Vegas::PrintResults</title>
<!-- Node1 -->
<g id="node1" class="node"><title>Node1</title>
<polygon fill="#bfbfbf" stroke="black" points="0,-0.5 0,-19.5 134,-19.5 134,-0.5 0,-0.5"/>
<text text-anchor="middle" x="67" y="-7.5" font-family="Helvetica,sans-Serif" font-size="10.00">hydra::Vegas::PrintResults</text>
</g>
<!-- Node2 -->
<g id="node2" class="node"><title>Node2</title>
<g id="a_node2"><a xlink:href="../../d1/d1e/a00087.html#a87f00c841d243f5aed0de39c3d1efaea" target="_top" xlink:title="hydra::Vegas::Integrate">
<polygon fill="none" stroke="black" points="170,-19.5 170,-38.5 289,-38.5 289,-19.5 170,-19.5"/>
<text text-anchor="middle" x="229.5" y="-26.5" font-family="Helvetica,sans-Serif" font-size="10.00">hydra::Vegas::Integrate</text>
</a>
</g>
</g>
<!-- Node1&#45;&gt;Node2 -->
<g id="edge1" class="edge"><title>Node1&#45;&gt;Node2</title>
<path fill="none" stroke="midnightblue" d="M144.266,-19.0283C152.877,-20.0478 161.55,-21.0745 169.887,-22.0614"/>
<polygon fill="midnightblue" stroke="midnightblue" points="144.55,-15.5377 134.208,-17.8377 143.727,-22.4891 144.55,-15.5377"/>
</g>
<!-- Node3 -->
<g id="node3" class="node"><title>Node3</title>
<g id="a_node3"><a xlink:href="../../d1/d1e/a00087.html#a93dc7dcfa985d3b47edeb355e4c3f947" target="_top" xlink:title="hydra::Vegas::Vegas">
<polygon fill="none" stroke="black" points="325,-0.5 325,-19.5 433,-19.5 433,-0.5 325,-0.5"/>
<text text-anchor="middle" x="379" y="-7.5" font-family="Helvetica,sans-Serif" font-size="10.00">hydra::Vegas::Vegas</text>
</a>
</g>
</g>
<!-- Node1&#45;&gt;Node3 -->
<g id="edge3" class="edge"><title>Node1&#45;&gt;Node3</title>
<path fill="none" stroke="midnightblue" d="M144.363,-10C200.425,-10 275.156,-10 324.841,-10"/>
<polygon fill="midnightblue" stroke="midnightblue" points="144.123,-6.5001 134.123,-10 144.123,-13.5001 144.123,-6.5001"/>
</g>
<!-- Node2&#45;&gt;Node3 -->
<g id="edge2" class="edge"><title>Node2&#45;&gt;Node3</title>
<path fill="none" stroke="midnightblue" d="M299.214,-20.1487C307.787,-19.0443 316.452,-17.9283 324.741,-16.8605"/>
<polygon fill="midnightblue" stroke="midnightblue" points="298.691,-16.6871 289.22,-21.4361 299.585,-23.6298 298.691,-16.6871"/>
</g>
</g>
</svg>
