<?xml version="1.0" encoding="UTF-8" standalone="no"?>
<!DOCTYPE svg PUBLIC "-//W3C//DTD SVG 1.1//EN"
 "http://www.w3.org/Graphics/SVG/1.1/DTD/svg11.dtd">
<!-- Generated by graphviz version 2.38.0 (20140413.2041)
 -->
<!-- Title: hydra::Parameter::GetName Pages: 1 -->
<svg width="401pt" height="154pt"
 viewBox="0.00 0.00 401.00 153.50" xmlns="http://www.w3.org/2000/svg" xmlns:xlink="http://www.w3.org/1999/xlink">
<g id="graph0" class="graph" transform="scale(1 1) rotate(0) translate(4 149.5)">
<title>hydra::Parameter::GetName</title>
<!-- Node1 -->
<g id="node1" class="node"><title>Node1</title>
<polygon fill="#bfbfbf" stroke="black" points="0,-57.5 0,-76.5 140,-76.5 140,-57.5 0,-57.5"/>
<text text-anchor="middle" x="70" y="-64.5" font-family="Helvetica,sans-Serif" font-size="10.00">hydra::Parameter::GetName</text>
</g>
<!-- Node2 -->
<g id="node2" class="node"><title>Node2</title>
<g id="a_node2"><a xlink:href="../../dc/dee/a00053.html#a891111b3ecb2c6ed41a9d00eba3fbf6d" target="_top" xlink:title="hydra::UserParameters\l::AddParameter">
<polygon fill="none" stroke="black" points="188.5,-115 188.5,-145 306.5,-145 306.5,-115 188.5,-115"/>
<text text-anchor="start" x="196.5" y="-133" font-family="Helvetica,sans-Serif" font-size="10.00">hydra::UserParameters</text>
<text text-anchor="middle" x="247.5" y="-122" font-family="Helvetica,sans-Serif" font-size="10.00">::AddParameter</text>
</a>
</g>
</g>
<!-- Node1&#45;&gt;Node2 -->
<g id="edge1" class="edge"><title>Node1&#45;&gt;Node2</title>
<path fill="none" stroke="midnightblue" d="M106.782,-80.0146C127.075,-87.379 152.945,-96.7403 176,-105 185.047,-108.241 194.754,-111.697 203.984,-114.974"/>
<polygon fill="midnightblue" stroke="midnightblue" points="107.9,-76.6967 97.3054,-76.5733 105.51,-83.2764 107.9,-76.6967"/>
</g>
<!-- Node4 -->
<g id="node4" class="node"><title>Node4</title>
<g id="a_node4"><a xlink:href="../../d7/dd4/a00013.html#a8a067a6647c6343cc50dee7a51fabb68" target="_top" xlink:title="hydra::operator\&lt;\&lt;">
<polygon fill="none" stroke="black" points="200.5,-76.5 200.5,-95.5 294.5,-95.5 294.5,-76.5 200.5,-76.5"/>
<text text-anchor="middle" x="247.5" y="-83.5" font-family="Helvetica,sans-Serif" font-size="10.00">hydra::operator&lt;&lt;</text>
</a>
</g>
</g>
<!-- Node1&#45;&gt;Node4 -->
<g id="edge3" class="edge"><title>Node1&#45;&gt;Node4</title>
<path fill="none" stroke="midnightblue" d="M150.164,-75.5704C167.36,-77.4321 185,-79.3419 200.409,-81.0101"/>
<polygon fill="midnightblue" stroke="midnightblue" points="150.429,-72.0788 140.11,-74.482 149.675,-79.0381 150.429,-72.0788"/>
</g>
<!-- Node5 -->
<g id="node5" class="node"><title>Node5</title>
<g id="a_node5"><a xlink:href="../../db/df3/a00034.html#a9dd2160f37eee9b4bb5441415bf6dd09" target="_top" xlink:title="hydra::Parameter::operator=">
<polygon fill="none" stroke="black" points="178,-38.5 178,-57.5 317,-57.5 317,-38.5 178,-38.5"/>
<text text-anchor="middle" x="247.5" y="-45.5" font-family="Helvetica,sans-Serif" font-size="10.00">hydra::Parameter::operator=</text>
</a>
</g>
</g>
<!-- Node1&#45;&gt;Node5 -->
<g id="edge4" class="edge"><title>Node1&#45;&gt;Node5</title>
<path fill="none" stroke="midnightblue" d="M150.061,-58.4407C159.296,-57.4409 168.661,-56.4271 177.74,-55.4441"/>
<polygon fill="midnightblue" stroke="midnightblue" points="149.675,-54.9619 140.11,-59.518 150.429,-61.9212 149.675,-54.9619"/>
</g>
<!-- Node6 -->
<g id="node6" class="node"><title>Node6</title>
<g id="a_node6"><a xlink:href="../../db/df3/a00034.html#a6d0126d965469159f637101142f8d759" target="_top" xlink:title="hydra::Parameter::Parameter">
<polygon fill="none" stroke="black" points="176,-0.5 176,-19.5 319,-19.5 319,-0.5 176,-0.5"/>
<text text-anchor="middle" x="247.5" y="-7.5" font-family="Helvetica,sans-Serif" font-size="10.00">hydra::Parameter::Parameter</text>
</a>
</g>
</g>
<!-- Node1&#45;&gt;Node6 -->
<g id="edge5" class="edge"><title>Node1&#45;&gt;Node6</title>
<path fill="none" stroke="midnightblue" d="M105.319,-53.7549C125.711,-46.092 152.165,-36.5102 176,-29 186.519,-25.6857 198.03,-22.4297 208.645,-19.5751"/>
<polygon fill="midnightblue" stroke="midnightblue" points="103.946,-50.5319 95.8328,-57.3451 106.424,-57.0787 103.946,-50.5319"/>
</g>
<!-- Node3 -->
<g id="node3" class="node"><title>Node3</title>
<g id="a_node3"><a xlink:href="../../d1/d1e/a00087.html#a32c166bdb75e9b204c87878f510ea1c5" target="_top" xlink:title="main">
<polygon fill="none" stroke="black" points="355,-120.5 355,-139.5 393,-139.5 393,-120.5 355,-120.5"/>
<text text-anchor="middle" x="374" y="-127.5" font-family="Helvetica,sans-Serif" font-size="10.00">main</text>
</a>
</g>
</g>
<!-- Node2&#45;&gt;Node3 -->
<g id="edge2" class="edge"><title>Node2&#45;&gt;Node3</title>
<path fill="none" stroke="midnightblue" d="M316.982,-130C331.001,-130 344.593,-130 354.878,-130"/>
<polygon fill="midnightblue" stroke="midnightblue" points="316.74,-126.5 306.74,-130 316.74,-133.5 316.74,-126.5"/>
</g>
</g>
</svg>
