<?xml version="1.0" encoding="UTF-8" standalone="no"?>
<!DOCTYPE svg PUBLIC "-//W3C//DTD SVG 1.1//EN"
 "http://www.w3.org/Graphics/SVG/1.1/DTD/svg11.dtd">
<!-- Generated by graphviz version 2.38.0 (20140413.2041)
 -->
<!-- Title: Config.h Pages: 1 -->
<svg width="3904pt" height="644pt"
 viewBox="0.00 0.00 3904.00 644.00" xmlns="http://www.w3.org/2000/svg" xmlns:xlink="http://www.w3.org/1999/xlink">
<g id="graph0" class="graph" transform="scale(1 1) rotate(0) translate(4 640)">
<title>Config.h</title>
<!-- Node1 -->
<g id="node1" class="node"><title>Node1</title>
<polygon fill="#bfbfbf" stroke="black" points="1714.5,-616.5 1714.5,-635.5 1767.5,-635.5 1767.5,-616.5 1714.5,-616.5"/>
<text text-anchor="middle" x="1741" y="-623.5" font-family="Helvetica,sans-Serif" font-size="10.00">Config.h</text>
</g>
<!-- Node2 -->
<g id="node2" class="node"><title>Node2</title>
<g id="a_node2"><a xlink:href="../../d1/d6f/a00063.html" target="_top" xlink:title="AddPdf.h">
<polygon fill="none" stroke="black" points="670.5,-224.5 670.5,-243.5 727.5,-243.5 727.5,-224.5 670.5,-224.5"/>
<text text-anchor="middle" x="699" y="-231.5" font-family="Helvetica,sans-Serif" font-size="10.00">AddPdf.h</text>
</a>
</g>
</g>
<!-- Node1&#45;&gt;Node2 -->
<g id="edge1" class="edge"><title>Node1&#45;&gt;Node2</title>
<path fill="none" stroke="midnightblue" d="M1703.83,-625.006C1529.5,-624.82 797.491,-621.55 705,-580 668.302,-563.514 642,-555.231 642,-515 642,-515 642,-515 642,-345 642,-314.902 646.76,-306.516 661,-280 668.547,-265.947 681.007,-252.311 689.59,-243.802"/>
<polygon fill="midnightblue" stroke="midnightblue" points="1704.03,-628.507 1714.03,-625.014 1704.04,-621.507 1704.03,-628.507"/>
</g>
<!-- Node5 -->
<g id="node5" class="node"><title>Node5</title>
<g id="a_node5"><a xlink:href="../../d2/db1/a00070.html" target="_top" xlink:title="Typedef for useful container classes used in MCBooster. ">
<polygon fill="none" stroke="red" points="2645,-448.5 2645,-467.5 2717,-467.5 2717,-448.5 2645,-448.5"/>
<text text-anchor="middle" x="2681" y="-455.5" font-family="Helvetica,sans-Serif" font-size="10.00">Containers.h</text>
</a>
</g>
</g>
<!-- Node1&#45;&gt;Node5 -->
<g id="edge4" class="edge"><title>Node1&#45;&gt;Node5</title>
<path fill="none" stroke="midnightblue" d="M1778.23,-624.294C1926.17,-621.3 2467.92,-608.475 2539,-580 2601.54,-554.947 2656.19,-490.726 2674.49,-467.524"/>
<polygon fill="midnightblue" stroke="midnightblue" points="1777.8,-620.802 1767.87,-624.501 1777.94,-627.801 1777.8,-620.802"/>
</g>
<!-- Node6 -->
<g id="node6" class="node"><title>Node6</title>
<g id="a_node6"><a xlink:href="../../d0/d89/a00071.html" target="_top" xlink:title="Copy.h">
<polygon fill="none" stroke="black" points="2738,-336.5 2738,-355.5 2786,-355.5 2786,-336.5 2738,-336.5"/>
<text text-anchor="middle" x="2762" y="-343.5" font-family="Helvetica,sans-Serif" font-size="10.00">Copy.h</text>
</a>
</g>
</g>
<!-- Node1&#45;&gt;Node6 -->
<g id="edge129" class="edge"><title>Node1&#45;&gt;Node6</title>
<path fill="none" stroke="midnightblue" d="M1777.73,-625.173C1966,-625.588 2814,-621.543 2814,-515 2814,-515 2814,-515 2814,-457 2814,-415.809 2783.83,-373.546 2769.45,-355.744"/>
<polygon fill="midnightblue" stroke="midnightblue" points="1777.53,-621.673 1767.52,-625.145 1777.51,-628.673 1777.53,-621.673"/>
</g>
<!-- Node9 -->
<g id="node9" class="node"><title>Node9</title>
<g id="a_node9"><a xlink:href="../../d6/d2c/a00072.html" target="_top" xlink:title="DecayMother.h">
<polygon fill="none" stroke="black" points="3197.5,-280.5 3197.5,-299.5 3280.5,-299.5 3280.5,-280.5 3197.5,-280.5"/>
<text text-anchor="middle" x="3239" y="-287.5" font-family="Helvetica,sans-Serif" font-size="10.00">DecayMother.h</text>
</a>
</g>
</g>
<!-- Node1&#45;&gt;Node9 -->
<g id="edge135" class="edge"><title>Node1&#45;&gt;Node9</title>
<path fill="none" stroke="midnightblue" d="M1778,-624.775C2009.46,-623.262 3250.72,-613.602 3323,-580 3384.19,-551.554 3424.02,-510.257 3398,-448 3367.93,-376.055 3287.06,-320.3 3253.7,-299.664"/>
<polygon fill="midnightblue" stroke="midnightblue" points="1777.73,-621.276 1767.75,-624.841 1777.77,-628.276 1777.73,-621.276"/>
</g>
<!-- Node10 -->
<g id="node10" class="node"><title>Node10</title>
<g id="a_node10"><a xlink:href="../../d5/d1e/a00103.html" target="_top" xlink:title="Implements the struct Events and the class PhaseSpace. ">
<polygon fill="none" stroke="black" points="3154,-224.5 3154,-243.5 3234,-243.5 3234,-224.5 3154,-224.5"/>
<text text-anchor="middle" x="3194" y="-231.5" font-family="Helvetica,sans-Serif" font-size="10.00">PhaseSpace.h</text>
</a>
</g>
</g>
<!-- Node1&#45;&gt;Node10 -->
<g id="edge168" class="edge"><title>Node1&#45;&gt;Node10</title>
<path fill="none" stroke="midnightblue" d="M1777.7,-625.189C2021.54,-626.302 3403.36,-630.339 3583,-580 3638.79,-564.367 3696,-572.938 3696,-515 3696,-515 3696,-515 3696,-345 3696,-250.649 3353.35,-237.117 3234.23,-235.263"/>
<polygon fill="midnightblue" stroke="midnightblue" points="1777.6,-621.689 1767.59,-625.142 1777.57,-628.689 1777.6,-621.689"/>
</g>
<!-- Node11 -->
<g id="node11" class="node"><title>Node11</title>
<g id="a_node11"><a xlink:href="../../d1/d6e/a00073.html" target="_top" xlink:title="DecayMothers.h">
<polygon fill="none" stroke="black" points="3032.5,-280.5 3032.5,-299.5 3121.5,-299.5 3121.5,-280.5 3032.5,-280.5"/>
<text text-anchor="middle" x="3077" y="-287.5" font-family="Helvetica,sans-Serif" font-size="10.00">DecayMothers.h</text>
</a>
</g>
</g>
<!-- Node1&#45;&gt;Node11 -->
<g id="edge136" class="edge"><title>Node1&#45;&gt;Node11</title>
<path fill="none" stroke="midnightblue" d="M1778.05,-624.925C1948.57,-624.364 2658.84,-619.65 2877,-580 2954.85,-565.851 2995.54,-584.949 3046,-524 3102.99,-455.162 3085.16,-333.586 3078.82,-299.881"/>
<polygon fill="midnightblue" stroke="midnightblue" points="1777.82,-621.425 1767.83,-624.955 1777.85,-628.425 1777.82,-621.425"/>
</g>
<!-- Node12 -->
<g id="node12" class="node"><title>Node12</title>
<g id="a_node12"><a xlink:href="../../d8/d87/a00118.html" target="_top" xlink:title="TypeTraits.h">
<polygon fill="none" stroke="black" points="1705.5,-392.5 1705.5,-411.5 1776.5,-411.5 1776.5,-392.5 1705.5,-392.5"/>
<text text-anchor="middle" x="1741" y="-399.5" font-family="Helvetica,sans-Serif" font-size="10.00">TypeTraits.h</text>
</a>
</g>
</g>
<!-- Node1&#45;&gt;Node12 -->
<g id="edge156" class="edge"><title>Node1&#45;&gt;Node12</title>
<path fill="none" stroke="midnightblue" d="M1741,-606.295C1741,-560.644 1741,-444.854 1741,-411.884"/>
<polygon fill="midnightblue" stroke="midnightblue" points="1737.5,-606.297 1741,-616.297 1744.5,-606.297 1737.5,-606.297"/>
</g>
<!-- Node13 -->
<g id="node13" class="node"><title>Node13</title>
<g id="a_node13"><a xlink:href="../../d9/db3/a00066.html" target="_top" xlink:title="base_functor.h">
<polygon fill="none" stroke="black" points="1554.5,-280.5 1554.5,-299.5 1635.5,-299.5 1635.5,-280.5 1554.5,-280.5"/>
<text text-anchor="middle" x="1595" y="-287.5" font-family="Helvetica,sans-Serif" font-size="10.00">base_functor.h</text>
</a>
</g>
</g>
<!-- Node1&#45;&gt;Node13 -->
<g id="edge131" class="edge"><title>Node1&#45;&gt;Node13</title>
<path fill="none" stroke="midnightblue" d="M1704.27,-619.059C1652.42,-608.339 1564,-580.463 1564,-515 1564,-515 1564,-515 1564,-457 1564,-395.726 1584.66,-323.859 1592.25,-299.535"/>
<polygon fill="midnightblue" stroke="midnightblue" points="1703.63,-622.5 1714.12,-620.98 1704.97,-615.63 1703.63,-622.5"/>
</g>
<!-- Node14 -->
<g id="node14" class="node"><title>Node14</title>
<g id="a_node14"><a xlink:href="../../df/d5f/a00064.html" target="_top" xlink:title="Argument.h">
<polygon fill="none" stroke="black" points="1262.5,-224.5 1262.5,-243.5 1329.5,-243.5 1329.5,-224.5 1262.5,-224.5"/>
<text text-anchor="middle" x="1296" y="-231.5" font-family="Helvetica,sans-Serif" font-size="10.00">Argument.h</text>
</a>
</g>
</g>
<!-- Node1&#45;&gt;Node14 -->
<g id="edge130" class="edge"><title>Node1&#45;&gt;Node14</title>
<path fill="none" stroke="midnightblue" d="M1704.04,-622.108C1574.09,-611.454 1146,-572.027 1146,-515 1146,-515 1146,-515 1146,-345 1146,-287.679 1218.11,-256.964 1262.34,-243.517"/>
<polygon fill="midnightblue" stroke="midnightblue" points="1704.03,-625.619 1714.28,-622.938 1704.59,-618.642 1704.03,-625.619"/>
</g>
<!-- Node15 -->
<g id="node15" class="node"><title>Node15</title>
<g id="a_node15"><a xlink:href="../../d0/d61/a00100.html" target="_top" xlink:title="Multiply.h">
<polygon fill="none" stroke="red" points="1328.5,-168.5 1328.5,-187.5 1387.5,-187.5 1387.5,-168.5 1328.5,-168.5"/>
<text text-anchor="middle" x="1358" y="-175.5" font-family="Helvetica,sans-Serif" font-size="10.00">Multiply.h</text>
</a>
</g>
</g>
<!-- Node1&#45;&gt;Node15 -->
<g id="edge148" class="edge"><title>Node1&#45;&gt;Node15</title>
<path fill="none" stroke="midnightblue" d="M1703.95,-624.401C1579.01,-622.092 1178.34,-612.221 1131,-580 1020.6,-504.86 1022.36,-377.14 1114,-280 1173.3,-217.139 1277.57,-192.09 1328.42,-183.252"/>
<polygon fill="midnightblue" stroke="midnightblue" points="1704.1,-627.904 1714.16,-624.584 1704.22,-620.906 1704.1,-627.904"/>
</g>
<!-- Node16 -->
<g id="node16" class="node"><title>Node16</title>
<g id="a_node16"><a xlink:href="../../dc/ddf/a00067.html" target="_top" xlink:title="Compose.h">
<polygon fill="none" stroke="red" points="1675.5,-168.5 1675.5,-187.5 1742.5,-187.5 1742.5,-168.5 1675.5,-168.5"/>
<text text-anchor="middle" x="1709" y="-175.5" font-family="Helvetica,sans-Serif" font-size="10.00">Compose.h</text>
</a>
</g>
</g>
<!-- Node1&#45;&gt;Node16 -->
<g id="edge132" class="edge"><title>Node1&#45;&gt;Node16</title>
<path fill="none" stroke="midnightblue" d="M1778.04,-623.567C1845.25,-620.248 1983.68,-609.887 2020,-580 2043.78,-560.433 2044,-545.795 2044,-515 2044,-515 2044,-515 2044,-401 2044,-296.434 1985.58,-264.092 1889,-224 1840.06,-203.684 1779.69,-190.896 1742.79,-184.351"/>
<polygon fill="midnightblue" stroke="midnightblue" points="1777.72,-620.078 1767.9,-624.041 1778.05,-627.07 1777.72,-620.078"/>
</g>
<!-- Node17 -->
<g id="node17" class="node"><title>Node17</title>
<g id="a_node17"><a xlink:href="../../d4/d31/a00069.html" target="_top" xlink:title="Constant.h">
<polygon fill="none" stroke="black" points="1462.5,-224.5 1462.5,-243.5 1527.5,-243.5 1527.5,-224.5 1462.5,-224.5"/>
<text text-anchor="middle" x="1495" y="-231.5" font-family="Helvetica,sans-Serif" font-size="10.00">Constant.h</text>
</a>
</g>
</g>
<!-- Node1&#45;&gt;Node17 -->
<g id="edge133" class="edge"><title>Node1&#45;&gt;Node17</title>
<path fill="none" stroke="midnightblue" d="M1704.31,-620.342C1620.07,-608.625 1420,-574.531 1420,-515 1420,-515 1420,-515 1420,-401 1420,-335.537 1469.04,-267.405 1487.81,-243.722"/>
<polygon fill="midnightblue" stroke="midnightblue" points="1704.08,-623.843 1714.46,-621.723 1705.02,-616.907 1704.08,-623.843"/>
</g>
<!-- Node18 -->
<g id="node18" class="node"><title>Node18</title>
<g id="a_node18"><a xlink:href="../../db/db6/a00074.html" target="_top" xlink:title="Divide.h">
<polygon fill="none" stroke="red" points="1604.5,-168.5 1604.5,-187.5 1657.5,-187.5 1657.5,-168.5 1604.5,-168.5"/>
<text text-anchor="middle" x="1631" y="-175.5" font-family="Helvetica,sans-Serif" font-size="10.00">Divide.h</text>
</a>
</g>
</g>
<!-- Node1&#45;&gt;Node18 -->
<g id="edge134" class="edge"><title>Node1&#45;&gt;Node18</title>
<path fill="none" stroke="midnightblue" d="M1778,-625.793C1850.87,-625.229 2006,-612.567 2006,-515 2006,-515 2006,-515 2006,-401 2006,-297.307 1943.72,-275.992 1854,-224 1780.39,-181.344 1749.01,-206.602 1666,-188 1663.31,-187.396 1660.5,-186.734 1657.71,-186.052"/>
<polygon fill="midnightblue" stroke="midnightblue" points="1777.87,-622.293 1767.87,-625.798 1777.87,-629.293 1777.87,-622.293"/>
</g>
<!-- Node19 -->
<g id="node19" class="node"><title>Node19</title>
<g id="a_node19"><a xlink:href="../../d4/d3e/a00116.html" target="_top" xlink:title="Sum.h">
<polygon fill="none" stroke="red" points="1472.5,-168.5 1472.5,-187.5 1517.5,-187.5 1517.5,-168.5 1472.5,-168.5"/>
<text text-anchor="middle" x="1495" y="-175.5" font-family="Helvetica,sans-Serif" font-size="10.00">Sum.h</text>
</a>
</g>
</g>
<!-- Node1&#45;&gt;Node19 -->
<g id="edge155" class="edge"><title>Node1&#45;&gt;Node19</title>
<path fill="none" stroke="midnightblue" d="M1704.03,-623.394C1603.9,-618.771 1329.13,-604.189 1242,-580 1178.22,-562.294 1108,-581.192 1108,-515 1108,-515 1108,-515 1108,-345 1108,-261.065 1174.6,-253.986 1253,-224 1330.03,-194.535 1428.46,-183.921 1472.24,-180.481"/>
<polygon fill="midnightblue" stroke="midnightblue" points="1704.12,-626.902 1714.27,-623.86 1704.43,-619.909 1704.12,-626.902"/>
</g>
<!-- Node20 -->
<g id="node20" class="node"><title>Node20</title>
<g id="a_node20"><a xlink:href="../../da/d74/a00099.html" target="_top" xlink:title="Minus.h">
<polygon fill="none" stroke="red" points="1774.5,-224.5 1774.5,-243.5 1825.5,-243.5 1825.5,-224.5 1774.5,-224.5"/>
<text text-anchor="middle" x="1800" y="-231.5" font-family="Helvetica,sans-Serif" font-size="10.00">Minus.h</text>
</a>
</g>
</g>
<!-- Node1&#45;&gt;Node20 -->
<g id="edge147" class="edge"><title>Node1&#45;&gt;Node20</title>
<path fill="none" stroke="midnightblue" d="M1777.31,-615.818C1821.99,-602.082 1892,-571.537 1892,-515 1892,-515 1892,-515 1892,-345 1892,-297.697 1841.32,-260.017 1815.19,-243.732"/>
<polygon fill="midnightblue" stroke="midnightblue" points="1776.26,-612.478 1767.65,-618.65 1778.23,-619.195 1776.26,-612.478"/>
</g>
<!-- Node21 -->
<g id="node21" class="node"><title>Node21</title>
<g id="a_node21"><a xlink:href="../../d1/d84/a00097.html" target="_top" xlink:title="LogLikelihood.h">
<polygon fill="none" stroke="black" points="864,-168.5 864,-187.5 948,-187.5 948,-168.5 864,-168.5"/>
<text text-anchor="middle" x="906" y="-175.5" font-family="Helvetica,sans-Serif" font-size="10.00">LogLikelihood.h</text>
</a>
</g>
</g>
<!-- Node1&#45;&gt;Node21 -->
<g id="edge142" class="edge"><title>Node1&#45;&gt;Node21</title>
<path fill="none" stroke="midnightblue" d="M1703.75,-624.641C1548.06,-622.926 953.998,-614.178 878,-580 841.025,-563.372 814,-555.542 814,-515 814,-515 814,-515 814,-345 814,-277.124 873.572,-210.997 896.842,-187.756"/>
<polygon fill="midnightblue" stroke="midnightblue" points="1704.15,-628.145 1714.19,-624.752 1704.23,-621.146 1704.15,-628.145"/>
</g>
<!-- Node22 -->
<g id="node22" class="node"><title>Node22</title>
<g id="a_node22"><a xlink:href="../../d1/d51/a00079.html" target="_top" xlink:title="FCN.h">
<polygon fill="none" stroke="black" points="883,-112.5 883,-131.5 929,-131.5 929,-112.5 883,-112.5"/>
<text text-anchor="middle" x="906" y="-119.5" font-family="Helvetica,sans-Serif" font-size="10.00">FCN.h</text>
</a>
</g>
</g>
<!-- Node1&#45;&gt;Node22 -->
<g id="edge162" class="edge"><title>Node1&#45;&gt;Node22</title>
<path fill="none" stroke="midnightblue" d="M1704.27,-625.157C1526.26,-625.691 757.808,-625.335 662,-580 627.003,-563.44 604,-553.718 604,-515 604,-515 604,-515 604,-345 604,-285.554 618.957,-266.026 661,-224 724.938,-160.087 835.069,-134.784 882.809,-126.474"/>
<polygon fill="midnightblue" stroke="midnightblue" points="1704.44,-628.656 1714.43,-625.123 1704.42,-621.656 1704.44,-628.656"/>
</g>
<!-- Node23 -->
<g id="node23" class="node"><title>Node23</title>
<g id="a_node23"><a xlink:href="../../d1/d44/a00098.html" target="_top" xlink:title="LogLikelihoodFCN.h">
<polygon fill="none" stroke="black" points="802.5,-56.5 802.5,-75.5 907.5,-75.5 907.5,-56.5 802.5,-56.5"/>
<text text-anchor="middle" x="855" y="-63.5" font-family="Helvetica,sans-Serif" font-size="10.00">LogLikelihoodFCN.h</text>
</a>
</g>
</g>
<!-- Node1&#45;&gt;Node23 -->
<g id="edge165" class="edge"><title>Node1&#45;&gt;Node23</title>
<path fill="none" stroke="midnightblue" d="M1704.25,-625.199C1509.72,-626.048 604.623,-627.407 490,-580 450.768,-563.774 420,-557.455 420,-515 420,-515 420,-515 420,-401 420,-346.913 402.942,-324.966 433,-280 520.794,-148.661 715.167,-94.4064 806.192,-75.5717"/>
<polygon fill="midnightblue" stroke="midnightblue" points="1704.28,-628.699 1714.26,-625.153 1704.25,-621.699 1704.28,-628.699"/>
</g>
<!-- Node24 -->
<g id="node24" class="node"><title>Node24</title>
<g id="a_node24"><a xlink:href="../../d4/d98/a00120.html" target="_top" xlink:title="Utility_Tuple.h">
<polygon fill="none" stroke="black" points="1486,-336.5 1486,-355.5 1566,-355.5 1566,-336.5 1486,-336.5"/>
<text text-anchor="middle" x="1526" y="-343.5" font-family="Helvetica,sans-Serif" font-size="10.00">Utility_Tuple.h</text>
</a>
</g>
</g>
<!-- Node1&#45;&gt;Node24 -->
<g id="edge159" class="edge"><title>Node1&#45;&gt;Node24</title>
<path fill="none" stroke="midnightblue" d="M1704.12,-620.497C1655.25,-613.843 1572.58,-599.978 1550,-580 1526.93,-559.596 1526,-545.795 1526,-515 1526,-515 1526,-515 1526,-457 1526,-419.188 1526,-374.064 1526,-355.558"/>
<polygon fill="midnightblue" stroke="midnightblue" points="1703.92,-624.001 1714.29,-621.845 1704.84,-617.062 1703.92,-624.001"/>
</g>
<!-- Node25 -->
<g id="node25" class="node"><title>Node25</title>
<g id="a_node25"><a xlink:href="../../dd/d42/a00109.html" target="_top" xlink:title="ProcessCallsPlain.h">
<polygon fill="none" stroke="black" points="3724.5,-280.5 3724.5,-299.5 3829.5,-299.5 3829.5,-280.5 3724.5,-280.5"/>
<text text-anchor="middle" x="3777" y="-287.5" font-family="Helvetica,sans-Serif" font-size="10.00">ProcessCallsPlain.h</text>
</a>
</g>
</g>
<!-- Node1&#45;&gt;Node25 -->
<g id="edge143" class="edge"><title>Node1&#45;&gt;Node25</title>
<path fill="none" stroke="midnightblue" d="M1778.2,-624.727C2045.89,-622.692 3669.15,-609.163 3710,-580 3735.06,-562.108 3734,-545.795 3734,-515 3734,-515 3734,-515 3734,-401 3734,-360.811 3759.21,-317.682 3771.02,-299.672"/>
<polygon fill="midnightblue" stroke="midnightblue" points="1777.83,-621.23 1767.85,-624.805 1777.88,-628.229 1777.83,-621.23"/>
</g>
<!-- Node26 -->
<g id="node26" class="node"><title>Node26</title>
<g id="a_node26"><a xlink:href="../../d0/dc2/a00104.html" target="_top" xlink:title="Plain.h">
<polygon fill="none" stroke="black" points="3793.5,-224.5 3793.5,-243.5 3840.5,-243.5 3840.5,-224.5 3793.5,-224.5"/>
<text text-anchor="middle" x="3817" y="-231.5" font-family="Helvetica,sans-Serif" font-size="10.00">Plain.h</text>
</a>
</g>
</g>
<!-- Node1&#45;&gt;Node26 -->
<g id="edge169" class="edge"><title>Node1&#45;&gt;Node26</title>
<path fill="none" stroke="midnightblue" d="M1777.82,-624.675C2044.66,-622.255 3674.67,-606.426 3775,-580 3834.03,-564.452 3896,-576.046 3896,-515 3896,-515 3896,-515 3896,-345 3896,-299.857 3851.56,-260.554 3829.34,-243.723"/>
<polygon fill="midnightblue" stroke="midnightblue" points="1777.48,-621.177 1767.51,-624.767 1777.54,-628.177 1777.48,-621.177"/>
</g>
<!-- Node27 -->
<g id="node27" class="node"><title>Node27</title>
<g id="a_node27"><a xlink:href="../../d4/d81/a00110.html" target="_top" xlink:title="ProcessCallsVegas.h">
<polygon fill="none" stroke="black" points="104.5,-280.5 104.5,-299.5 215.5,-299.5 215.5,-280.5 104.5,-280.5"/>
<text text-anchor="middle" x="160" y="-287.5" font-family="Helvetica,sans-Serif" font-size="10.00">ProcessCallsVegas.h</text>
</a>
</g>
</g>
<!-- Node1&#45;&gt;Node27 -->
<g id="edge144" class="edge"><title>Node1&#45;&gt;Node27</title>
<path fill="none" stroke="midnightblue" d="M1704.29,-625.064C1494.01,-625.267 446.942,-624.044 311,-580 261.982,-564.119 215,-566.527 215,-515 215,-515 215,-515 215,-401 215,-359.365 183.088,-317.335 167.88,-299.668"/>
<polygon fill="midnightblue" stroke="midnightblue" points="1704.49,-628.564 1714.49,-625.052 1704.49,-621.564 1704.49,-628.564"/>
</g>
<!-- Node28 -->
<g id="node28" class="node"><title>Node28</title>
<g id="a_node28"><a xlink:href="../../de/d36/a00123.html" target="_top" xlink:title="Vegas.h">
<polygon fill="none" stroke="black" points="137.5,-224.5 137.5,-243.5 190.5,-243.5 190.5,-224.5 137.5,-224.5"/>
<text text-anchor="middle" x="164" y="-231.5" font-family="Helvetica,sans-Serif" font-size="10.00">Vegas.h</text>
</a>
</g>
</g>
<!-- Node1&#45;&gt;Node28 -->
<g id="edge194" class="edge"><title>Node1&#45;&gt;Node28</title>
<path fill="none" stroke="midnightblue" d="M1704.15,-624.836C1482.38,-623.731 329.771,-616.269 177,-580 110.646,-564.247 38,-583.199 38,-515 38,-515 38,-515 38,-345 38,-291.57 103.092,-258.119 139.706,-243.53"/>
<polygon fill="midnightblue" stroke="midnightblue" points="1704.27,-628.337 1714.29,-624.885 1704.31,-621.337 1704.27,-628.337"/>
</g>
<!-- Node29 -->
<g id="node29" class="node"><title>Node29</title>
<g id="a_node29"><a xlink:href="../../db/d57/a00112.html" target="_top" xlink:title="RandomUtils.h">
<polygon fill="none" stroke="black" points="2034,-280.5 2034,-299.5 2116,-299.5 2116,-280.5 2034,-280.5"/>
<text text-anchor="middle" x="2075" y="-287.5" font-family="Helvetica,sans-Serif" font-size="10.00">RandomUtils.h</text>
</a>
</g>
</g>
<!-- Node1&#45;&gt;Node29 -->
<g id="edge154" class="edge"><title>Node1&#45;&gt;Node29</title>
<path fill="none" stroke="midnightblue" d="M1777.97,-624.384C1852.13,-622.424 2015.59,-614.232 2058,-580 2081.96,-560.659 2082,-545.795 2082,-515 2082,-515 2082,-515 2082,-401 2082,-363.111 2077.81,-318.029 2075.92,-299.546"/>
<polygon fill="midnightblue" stroke="midnightblue" points="1777.62,-620.892 1767.7,-624.631 1777.78,-627.89 1777.62,-620.892"/>
</g>
<!-- Node30 -->
<g id="node30" class="node"><title>Node30</title>
<g id="a_node30"><a xlink:href="../../dd/d6d/a00111.html" target="_top" xlink:title="Random.h">
<polygon fill="none" stroke="red" points="2013,-168.5 2013,-187.5 2075,-187.5 2075,-168.5 2013,-168.5"/>
<text text-anchor="middle" x="2044" y="-175.5" font-family="Helvetica,sans-Serif" font-size="10.00">Random.h</text>
</a>
</g>
</g>
<!-- Node1&#45;&gt;Node30 -->
<g id="edge175" class="edge"><title>Node1&#45;&gt;Node30</title>
<path fill="none" stroke="midnightblue" d="M1777.81,-623.683C1883.77,-618.899 2182,-598.059 2182,-515 2182,-515 2182,-515 2182,-345 2182,-268.921 2095.23,-209.118 2059.3,-187.616"/>
<polygon fill="midnightblue" stroke="midnightblue" points="1777.43,-620.195 1767.59,-624.121 1777.73,-627.189 1777.43,-620.195"/>
</g>
<!-- Node33 -->
<g id="node33" class="node"><title>Node33</title>
<g id="a_node33"><a xlink:href="../../db/df8/a00076.html" target="_top" xlink:title="Evaluate.h">
<polygon fill="none" stroke="black" points="2570.5,-224.5 2570.5,-243.5 2633.5,-243.5 2633.5,-224.5 2570.5,-224.5"/>
<text text-anchor="middle" x="2602" y="-231.5" font-family="Helvetica,sans-Serif" font-size="10.00">Evaluate.h</text>
</a>
</g>
</g>
<!-- Node1&#45;&gt;Node33 -->
<g id="edge160" class="edge"><title>Node1&#45;&gt;Node33</title>
<path fill="none" stroke="midnightblue" d="M1777.95,-623.763C1933.23,-618.083 2525,-591.423 2525,-515 2525,-515 2525,-515 2525,-401 2525,-335.238 2575.34,-267.291 2594.62,-243.689"/>
<polygon fill="midnightblue" stroke="midnightblue" points="1777.4,-620.28 1767.53,-624.136 1777.65,-627.276 1777.4,-620.28"/>
</g>
<!-- Node34 -->
<g id="node34" class="node"><title>Node34</title>
<g id="a_node34"><a xlink:href="../../d1/d09/a00077.html" target="_top" xlink:title="Events.h">
<polygon fill="none" stroke="black" points="3318,-280.5 3318,-299.5 3374,-299.5 3374,-280.5 3318,-280.5"/>
<text text-anchor="middle" x="3346" y="-287.5" font-family="Helvetica,sans-Serif" font-size="10.00">Events.h</text>
</a>
</g>
</g>
<!-- Node1&#45;&gt;Node34 -->
<g id="edge161" class="edge"><title>Node1&#45;&gt;Node34</title>
<path fill="none" stroke="midnightblue" d="M1777.62,-624.72C2010.7,-622.846 3279.79,-611.234 3355,-580 3414.69,-555.214 3429.45,-511.212 3416,-448 3403.2,-387.869 3365.67,-322.85 3351.5,-299.746"/>
<polygon fill="midnightblue" stroke="midnightblue" points="1777.59,-621.22 1767.62,-624.8 1777.64,-628.22 1777.59,-621.22"/>
</g>
<!-- Node35 -->
<g id="node35" class="node"><title>Node35</title>
<g id="a_node35"><a xlink:href="../../d8/d53/a00081.html" target="_top" xlink:title="Function.h">
<polygon fill="none" stroke="red" points="2286,-280.5 2286,-299.5 2348,-299.5 2348,-280.5 2286,-280.5"/>
<text text-anchor="middle" x="2317" y="-287.5" font-family="Helvetica,sans-Serif" font-size="10.00">Function.h</text>
</a>
</g>
</g>
<!-- Node1&#45;&gt;Node35 -->
<g id="edge163" class="edge"><title>Node1&#45;&gt;Node35</title>
<path fill="none" stroke="midnightblue" d="M1777.72,-625.435C1900.2,-625.913 2287,-619.176 2287,-515 2287,-515 2287,-515 2287,-401 2287,-362.004 2304.77,-317.886 2312.95,-299.621"/>
<polygon fill="midnightblue" stroke="midnightblue" points="1777.72,-621.935 1767.7,-625.377 1777.68,-628.935 1777.72,-621.935"/>
</g>
<!-- Node36 -->
<g id="node36" class="node"><title>Node36</title>
<g id="a_node36"><a xlink:href="../../d4/d63/a00082.html" target="_top" xlink:title="FunctionWrapper.h">
<polygon fill="none" stroke="red" points="2376.5,-224.5 2376.5,-243.5 2475.5,-243.5 2475.5,-224.5 2376.5,-224.5"/>
<text text-anchor="middle" x="2426" y="-231.5" font-family="Helvetica,sans-Serif" font-size="10.00">FunctionWrapper.h</text>
</a>
</g>
</g>
<!-- Node1&#45;&gt;Node36 -->
<g id="edge164" class="edge"><title>Node1&#45;&gt;Node36</title>
<path fill="none" stroke="midnightblue" d="M1777.78,-624.002C1879.28,-620.893 2161.56,-609.74 2249,-580 2299.89,-562.69 2351,-568.756 2351,-515 2351,-515 2351,-515 2351,-401 2351,-335.537 2400.04,-267.405 2418.81,-243.722"/>
<polygon fill="midnightblue" stroke="midnightblue" points="1777.59,-620.506 1767.7,-624.303 1777.8,-627.503 1777.59,-620.506"/>
</g>
<!-- Node37 -->
<g id="node37" class="node"><title>Node37</title>
<g id="a_node37"><a xlink:href="../../d9/dcc/a00102.html" target="_top" xlink:title="Pdf.h">
<polygon fill="none" stroke="black" points="670,-280.5 670,-299.5 710,-299.5 710,-280.5 670,-280.5"/>
<text text-anchor="middle" x="690" y="-287.5" font-family="Helvetica,sans-Serif" font-size="10.00">Pdf.h</text>
</a>
</g>
</g>
<!-- Node1&#45;&gt;Node37 -->
<g id="edge167" class="edge"><title>Node1&#45;&gt;Node37</title>
<path fill="none" stroke="midnightblue" d="M1704.02,-624.424C1538.27,-621.689 868.088,-608.917 779,-580 728.935,-563.749 680,-567.636 680,-515 680,-515 680,-515 680,-401 680,-363.032 685.982,-317.993 688.693,-299.534"/>
<polygon fill="midnightblue" stroke="midnightblue" points="1704.14,-627.927 1714.19,-624.59 1704.25,-620.928 1704.14,-627.927"/>
</g>
<!-- Node38 -->
<g id="node38" class="node"><title>Node38</title>
<g id="a_node38"><a xlink:href="../../d7/d70/a00106.html" target="_top" xlink:title="Point.h">
<polygon fill="none" stroke="black" points="842.5,-280.5 842.5,-299.5 889.5,-299.5 889.5,-280.5 842.5,-280.5"/>
<text text-anchor="middle" x="866" y="-287.5" font-family="Helvetica,sans-Serif" font-size="10.00">Point.h</text>
</a>
</g>
</g>
<!-- Node1&#45;&gt;Node38 -->
<g id="edge173" class="edge"><title>Node1&#45;&gt;Node38</title>
<path fill="none" stroke="midnightblue" d="M1704.06,-625.186C1568.99,-625.508 1102.41,-623.382 961,-580 907.076,-563.457 852,-571.404 852,-515 852,-515 852,-515 852,-401 852,-362.882 860.375,-317.925 864.17,-299.511"/>
<polygon fill="midnightblue" stroke="midnightblue" points="1704.3,-628.685 1714.29,-625.155 1704.28,-621.685 1704.3,-628.685"/>
</g>
<!-- Node39 -->
<g id="node39" class="node"><title>Node39</title>
<g id="a_node39"><a xlink:href="../../df/d98/a00107.html" target="_top" xlink:title="PointVector.h">
<polygon fill="none" stroke="black" points="978,-224.5 978,-243.5 1054,-243.5 1054,-224.5 978,-224.5"/>
<text text-anchor="middle" x="1016" y="-231.5" font-family="Helvetica,sans-Serif" font-size="10.00">PointVector.h</text>
</a>
</g>
</g>
<!-- Node1&#45;&gt;Node39 -->
<g id="edge174" class="edge"><title>Node1&#45;&gt;Node39</title>
<path fill="none" stroke="midnightblue" d="M1704.04,-625.209C1565.4,-625.65 1081.49,-624.005 1030,-580 987.924,-544.04 970.571,-390.54 980,-336 986.152,-300.414 1003.65,-260.761 1011.77,-243.641"/>
<polygon fill="midnightblue" stroke="midnightblue" points="1704.18,-628.708 1714.16,-625.17 1704.15,-621.708 1704.18,-628.708"/>
</g>
<!-- Node40 -->
<g id="node40" class="node"><title>Node40</title>
<g id="a_node40"><a xlink:href="../../d4/d3a/a00101.html" target="_top" xlink:title="Parameter.h">
<polygon fill="none" stroke="red" points="712,-336.5 712,-355.5 782,-355.5 782,-336.5 712,-336.5"/>
<text text-anchor="middle" x="747" y="-343.5" font-family="Helvetica,sans-Serif" font-size="10.00">Parameter.h</text>
</a>
</g>
</g>
<!-- Node1&#45;&gt;Node40 -->
<g id="edge166" class="edge"><title>Node1&#45;&gt;Node40</title>
<path fill="none" stroke="midnightblue" d="M1704.33,-624.477C1534.98,-621.909 835.246,-609.535 800,-580 729.729,-521.116 741.287,-390.255 745.761,-355.573"/>
<polygon fill="midnightblue" stroke="midnightblue" points="1704.43,-627.979 1714.48,-624.629 1704.54,-620.98 1704.43,-627.979"/>
</g>
<!-- Node41 -->
<g id="node41" class="node"><title>Node41</title>
<g id="a_node41"><a xlink:href="../../df/d6a/a00119.html" target="_top" xlink:title="UserParameters.h">
<polygon fill="none" stroke="black" points="442,-280.5 442,-299.5 538,-299.5 538,-280.5 442,-280.5"/>
<text text-anchor="middle" x="490" y="-287.5" font-family="Helvetica,sans-Serif" font-size="10.00">UserParameters.h</text>
</a>
</g>
</g>
<!-- Node1&#45;&gt;Node41 -->
<g id="edge176" class="edge"><title>Node1&#45;&gt;Node41</title>
<path fill="none" stroke="midnightblue" d="M1704.27,-624.735C1517.41,-623.235 676.744,-614.6 566,-580 514.69,-563.969 464,-568.756 464,-515 464,-515 464,-515 464,-401 464,-362.342 479.397,-318.041 486.494,-299.675"/>
<polygon fill="midnightblue" stroke="midnightblue" points="1704.38,-628.236 1714.41,-624.815 1704.43,-621.236 1704.38,-628.236"/>
</g>
<!-- Node42 -->
<g id="node42" class="node"><title>Node42</title>
<g id="a_node42"><a xlink:href="../../da/d72/a00124.html" target="_top" xlink:title="VegasState.h">
<polygon fill="none" stroke="black" points="234,-280.5 234,-299.5 310,-299.5 310,-280.5 234,-280.5"/>
<text text-anchor="middle" x="272" y="-287.5" font-family="Helvetica,sans-Serif" font-size="10.00">VegasState.h</text>
</a>
</g>
</g>
<!-- Node1&#45;&gt;Node42 -->
<g id="edge195" class="edge"><title>Node1&#45;&gt;Node42</title>
<path fill="none" stroke="midnightblue" d="M1704.25,-624.775C1502.53,-623.403 534.15,-615.028 406,-580 347.868,-564.111 287,-575.264 287,-515 287,-515 287,-515 287,-401 287,-362.838 278.027,-317.905 273.961,-299.504"/>
<polygon fill="midnightblue" stroke="midnightblue" points="1704.31,-628.275 1714.34,-624.842 1704.36,-621.275 1704.31,-628.275"/>
</g>
<!-- Node43 -->
<g id="node43" class="node"><title>Node43</title>
<g id="a_node43"><a xlink:href="../../da/dec/a00080.html" target="_top" xlink:title="Implements FlagAcceptReject. ">
<polygon fill="none" stroke="black" points="3526.5,-336.5 3526.5,-355.5 3629.5,-355.5 3629.5,-336.5 3526.5,-336.5"/>
<text text-anchor="middle" x="3578" y="-343.5" font-family="Helvetica,sans-Serif" font-size="10.00">FlagAcceptReject.h</text>
</a>
</g>
</g>
<!-- Node1&#45;&gt;Node43 -->
<g id="edge137" class="edge"><title>Node1&#45;&gt;Node43</title>
<path fill="none" stroke="midnightblue" d="M1777.79,-625.139C2025,-625.944 3436.38,-628.401 3512,-580 3539.12,-562.641 3544,-547.2 3544,-515 3544,-515 3544,-515 3544,-457 3544,-417.622 3564.13,-373.71 3573.41,-355.56"/>
<polygon fill="midnightblue" stroke="midnightblue" points="1777.56,-621.639 1767.55,-625.105 1777.54,-628.639 1777.56,-621.639"/>
</g>
<!-- Node44 -->
<g id="node44" class="node"><title>Node44</title>
<g id="a_node44"><a xlink:href="../../d9/df8/a00096.html" target="_top" xlink:title="Implements isAccepted. ">
<polygon fill="none" stroke="black" points="3587,-448.5 3587,-467.5 3661,-467.5 3661,-448.5 3587,-448.5"/>
<text text-anchor="middle" x="3624" y="-455.5" font-family="Helvetica,sans-Serif" font-size="10.00">IsAccepted.h</text>
</a>
</g>
</g>
<!-- Node1&#45;&gt;Node44 -->
<g id="edge140" class="edge"><title>Node1&#45;&gt;Node44</title>
<path fill="none" stroke="midnightblue" d="M1777.56,-625.127C2027.7,-625.866 3479.26,-628.071 3558,-580 3600.28,-554.19 3617.34,-491.007 3622.32,-467.765"/>
<polygon fill="midnightblue" stroke="midnightblue" points="1777.54,-621.627 1767.53,-625.096 1777.52,-628.627 1777.54,-621.627"/>
</g>
<!-- Node45 -->
<g id="node45" class="node"><title>Node45</title>
<g id="a_node45"><a xlink:href="../../d9/d77/a00095.html" target="_top" xlink:title="Integrator.h">
<polygon fill="none" stroke="black" points="103,-392.5 103,-411.5 169,-411.5 169,-392.5 103,-392.5"/>
<text text-anchor="middle" x="136" y="-399.5" font-family="Helvetica,sans-Serif" font-size="10.00">Integrator.h</text>
</a>
</g>
</g>
<!-- Node1&#45;&gt;Node45 -->
<g id="edge145" class="edge"><title>Node1&#45;&gt;Node45</title>
<path fill="none" stroke="midnightblue" d="M1704.06,-625.084C1475.71,-625.456 263.9,-625.289 201,-580 143.618,-538.684 136.794,-441.08 136.062,-411.587"/>
<polygon fill="midnightblue" stroke="midnightblue" points="1704.19,-628.583 1714.19,-625.066 1704.18,-621.583 1704.19,-628.583"/>
</g>
<!-- Node46 -->
<g id="node46" class="node"><title>Node46</title>
<g id="a_node46"><a xlink:href="../../d1/dd6/a00108.html" target="_top" xlink:title="Print.h">
<polygon fill="none" stroke="black" points="530.5,-336.5 530.5,-355.5 575.5,-355.5 575.5,-336.5 530.5,-336.5"/>
<text text-anchor="middle" x="553" y="-343.5" font-family="Helvetica,sans-Serif" font-size="10.00">Print.h</text>
</a>
</g>
</g>
<!-- Node1&#45;&gt;Node46 -->
<g id="edge149" class="edge"><title>Node1&#45;&gt;Node46</title>
<path fill="none" stroke="midnightblue" d="M1704.26,-624.626C1512.94,-622.547 637.585,-611.342 590,-580 563.271,-562.395 559,-547.006 559,-515 559,-515 559,-515 559,-457 559,-419.131 555.411,-374.038 553.784,-355.549"/>
<polygon fill="midnightblue" stroke="midnightblue" points="1704.33,-628.127 1714.37,-624.734 1704.41,-621.128 1704.33,-628.127"/>
</g>
<!-- Node47 -->
<g id="node47" class="node"><title>Node47</title>
<g id="a_node47"><a xlink:href="../../de/de1/a00065.html" target="_top" xlink:title="Arithmetic_Tuple.h">
<polygon fill="none" stroke="black" points="880,-504.5 880,-523.5 978,-523.5 978,-504.5 880,-504.5"/>
<text text-anchor="middle" x="929" y="-511.5" font-family="Helvetica,sans-Serif" font-size="10.00">Arithmetic_Tuple.h</text>
</a>
</g>
</g>
<!-- Node1&#45;&gt;Node47 -->
<g id="edge157" class="edge"><title>Node1&#45;&gt;Node47</title>
<path fill="none" stroke="midnightblue" d="M1704.16,-624.346C1562.43,-621.619 1057.04,-609.871 992,-580 965.151,-567.67 943.76,-538.395 934.291,-523.712"/>
<polygon fill="midnightblue" stroke="midnightblue" points="1704.42,-627.852 1714.48,-624.541 1704.55,-620.853 1704.42,-627.852"/>
</g>
<!-- Node48 -->
<g id="node48" class="node"><title>Node48</title>
<g id="a_node48"><a xlink:href="../../d3/d32/a00105.html" target="_top" xlink:title="PlainState.h">
<polygon fill="none" stroke="black" points="3762,-336.5 3762,-355.5 3832,-355.5 3832,-336.5 3762,-336.5"/>
<text text-anchor="middle" x="3797" y="-343.5" font-family="Helvetica,sans-Serif" font-size="10.00">PlainState.h</text>
</a>
</g>
</g>
<!-- Node1&#45;&gt;Node48 -->
<g id="edge170" class="edge"><title>Node1&#45;&gt;Node48</title>
<path fill="none" stroke="midnightblue" d="M1777.61,-624.678C2046.28,-622.254 3703.99,-606.25 3748,-580 3776.55,-562.97 3785,-548.241 3785,-515 3785,-515 3785,-515 3785,-457 3785,-418.963 3792.18,-373.962 3795.43,-355.523"/>
<polygon fill="midnightblue" stroke="midnightblue" points="1777.56,-621.178 1767.6,-624.768 1777.63,-628.178 1777.56,-621.178"/>
</g>
<!-- Node49 -->
<g id="node49" class="node"><title>Node49</title>
<g id="a_node49"><a xlink:href="../../d8/dfa/a00121.html" target="_top" xlink:title="Vector3R.h">
<polygon fill="none" stroke="black" points="3248,-560.5 3248,-579.5 3314,-579.5 3314,-560.5 3248,-560.5"/>
<text text-anchor="middle" x="3281" y="-567.5" font-family="Helvetica,sans-Serif" font-size="10.00">Vector3R.h</text>
</a>
</g>
</g>
<!-- Node1&#45;&gt;Node49 -->
<g id="edge177" class="edge"><title>Node1&#45;&gt;Node49</title>
<path fill="none" stroke="midnightblue" d="M1777.72,-624.686C1977.87,-622.854 2938.99,-612.483 3234,-580 3238.54,-579.5 3243.3,-578.799 3247.98,-578.007"/>
<polygon fill="midnightblue" stroke="midnightblue" points="1777.68,-621.186 1767.72,-624.776 1777.75,-628.186 1777.68,-621.186"/>
</g>
<!-- Node50 -->
<g id="node50" class="node"><title>Node50</title>
<g id="a_node50"><a xlink:href="../../df/dc8/a00122.html" target="_top" xlink:title="Vector4R.h">
<polygon fill="none" stroke="red" points="2971,-504.5 2971,-523.5 3037,-523.5 3037,-504.5 2971,-504.5"/>
<text text-anchor="middle" x="3004" y="-511.5" font-family="Helvetica,sans-Serif" font-size="10.00">Vector4R.h</text>
</a>
</g>
</g>
<!-- Node1&#45;&gt;Node50 -->
<g id="edge193" class="edge"><title>Node1&#45;&gt;Node50</title>
<path fill="none" stroke="midnightblue" d="M1777.81,-625.013C1943.43,-624.837 2620.5,-621.539 2828,-580 2888.36,-567.916 2955.53,-538.246 2986.55,-523.543"/>
<polygon fill="midnightblue" stroke="midnightblue" points="1777.64,-621.513 1767.65,-625.021 1777.65,-628.513 1777.64,-621.513"/>
</g>
<!-- Node3 -->
<g id="node3" class="node"><title>Node3</title>
<g id="a_node3"><a xlink:href="../../db/dab/a00089.html" target="_top" xlink:title="HydraFitExample.cpp">
<polygon fill="none" stroke="black" points="1532.5,-0.5 1532.5,-19.5 1643.5,-19.5 1643.5,-0.5 1532.5,-0.5"/>
<text text-anchor="middle" x="1588" y="-7.5" font-family="Helvetica,sans-Serif" font-size="10.00">HydraFitExample.cpp</text>
</a>
</g>
</g>
<!-- Node2&#45;&gt;Node3 -->
<g id="edge2" class="edge"><title>Node2&#45;&gt;Node3</title>
<path fill="none" stroke="midnightblue" d="M702.638,-214.306C711.041,-176.778 735.643,-92.7291 793,-56 854.847,-16.3954 1361.8,-11.5343 1532.29,-11.0258"/>
<polygon fill="midnightblue" stroke="midnightblue" points="699.158,-213.85 700.532,-224.355 706.009,-215.286 699.158,-213.85"/>
</g>
<!-- Node4 -->
<g id="node4" class="node"><title>Node4</title>
<g id="a_node4"><a xlink:href="../../d9/dec/a00090.html" target="_top" xlink:title="HydraFitExample.cu">
<polygon fill="none" stroke="black" points="380,-0.5 380,-19.5 486,-19.5 486,-0.5 380,-0.5"/>
<text text-anchor="middle" x="433" y="-7.5" font-family="Helvetica,sans-Serif" font-size="10.00">HydraFitExample.cu</text>
</a>
</g>
</g>
<!-- Node2&#45;&gt;Node4 -->
<g id="edge3" class="edge"><title>Node2&#45;&gt;Node4</title>
<path fill="none" stroke="midnightblue" d="M675.172,-219.306C661.057,-210.852 643.047,-199.462 628,-188 550.895,-129.265 467.766,-46.4249 441.468,-19.6836"/>
<polygon fill="midnightblue" stroke="midnightblue" points="673.425,-222.339 683.816,-224.408 676.984,-216.311 673.425,-222.339"/>
</g>
<!-- Node5&#45;&gt;Node3 -->
<g id="edge125" class="edge"><title>Node5&#45;&gt;Node3</title>
<path fill="none" stroke="midnightblue" d="M2675.78,-438.39C2670.16,-416.65 2662,-379.511 2662,-347 2662,-347 2662,-347 2662,-289 2662,-144.113 2574.21,-92.5293 2434,-56 2283.93,-16.9007 1807.06,-11.682 1643.6,-11.0571"/>
<polygon fill="midnightblue" stroke="midnightblue" points="2672.46,-439.502 2678.44,-448.249 2679.22,-437.683 2672.46,-439.502"/>
</g>
<!-- Node5&#45;&gt;Node4 -->
<g id="edge126" class="edge"><title>Node5&#45;&gt;Node4</title>
<path fill="none" stroke="midnightblue" d="M2634.3,-455.5C2328.85,-445.601 625.214,-389.059 521,-356 480.997,-343.31 376,-276.968 376,-235 376,-235 376,-235 376,-177 376,-113.62 413.629,-43.6466 427.74,-19.6347"/>
<polygon fill="midnightblue" stroke="midnightblue" points="2634.46,-459.007 2644.57,-455.832 2634.69,-452.01 2634.46,-459.007"/>
</g>
<!-- Node5&#45;&gt;Node6 -->
<g id="edge5" class="edge"><title>Node5&#45;&gt;Node6</title>
<path fill="none" stroke="midnightblue" d="M2693.32,-440.272C2710.83,-416.494 2742.27,-373.789 2755.67,-355.591"/>
<polygon fill="midnightblue" stroke="midnightblue" points="2690.47,-438.241 2687.36,-448.368 2696.1,-442.391 2690.47,-438.241"/>
</g>
<!-- Node7 -->
<g id="node7" class="node"><title>Node7</title>
<g id="a_node7"><a xlink:href="../../da/d82/a00091.html" target="_top" xlink:title="HydraPhaseSpaceExample.cpp">
<polygon fill="none" stroke="black" points="2848.5,-168.5 2848.5,-187.5 3003.5,-187.5 3003.5,-168.5 2848.5,-168.5"/>
<text text-anchor="middle" x="2926" y="-175.5" font-family="Helvetica,sans-Serif" font-size="10.00">HydraPhaseSpaceExample.cpp</text>
</a>
</g>
</g>
<!-- Node5&#45;&gt;Node7 -->
<g id="edge127" class="edge"><title>Node5&#45;&gt;Node7</title>
<path fill="none" stroke="midnightblue" d="M2700.06,-441.976C2710.78,-433.385 2724.32,-422.3 2736,-412 2763.12,-388.093 2771.04,-383.077 2795,-356 2848.7,-295.299 2903.3,-213.749 2920.48,-187.509"/>
<polygon fill="midnightblue" stroke="midnightblue" points="2697.8,-439.302 2692.16,-448.269 2702.16,-444.779 2697.8,-439.302"/>
</g>
<!-- Node8 -->
<g id="node8" class="node"><title>Node8</title>
<g id="a_node8"><a xlink:href="../../d1/dc1/a00092.html" target="_top" xlink:title="HydraPhaseSpaceExample.cu">
<polygon fill="none" stroke="black" points="2680,-168.5 2680,-187.5 2830,-187.5 2830,-168.5 2680,-168.5"/>
<text text-anchor="middle" x="2755" y="-175.5" font-family="Helvetica,sans-Serif" font-size="10.00">HydraPhaseSpaceExample.cu</text>
</a>
</g>
</g>
<!-- Node5&#45;&gt;Node8 -->
<g id="edge128" class="edge"><title>Node5&#45;&gt;Node8</title>
<path fill="none" stroke="midnightblue" d="M2686.22,-438.39C2691.84,-416.65 2700,-379.511 2700,-347 2700,-347 2700,-347 2700,-289 2700,-247.365 2731.91,-205.335 2747.12,-187.668"/>
<polygon fill="midnightblue" stroke="midnightblue" points="2682.78,-437.683 2683.56,-448.249 2689.54,-439.502 2682.78,-437.683"/>
</g>
<!-- Node5&#45;&gt;Node9 -->
<g id="edge8" class="edge"><title>Node5&#45;&gt;Node9</title>
<path fill="none" stroke="midnightblue" d="M2727.42,-449.551C2772.46,-441.855 2842.53,-428.638 2902,-412 3024.42,-377.749 3166.31,-321.006 3218.44,-299.562"/>
<polygon fill="midnightblue" stroke="midnightblue" points="2726.64,-446.133 2717.36,-451.249 2727.81,-453.035 2726.64,-446.133"/>
</g>
<!-- Node5&#45;&gt;Node10 -->
<g id="edge117" class="edge"><title>Node5&#45;&gt;Node10</title>
<path fill="none" stroke="midnightblue" d="M2713.41,-444.837C2735.34,-436.314 2764.78,-424.289 2790,-412 2896.99,-359.858 2912.76,-324.851 3023,-280 3066.22,-262.416 3118.4,-249.849 3153.66,-242.54"/>
<polygon fill="midnightblue" stroke="midnightblue" points="2711.98,-441.637 2703.91,-448.496 2714.5,-448.169 2711.98,-441.637"/>
</g>
<!-- Node5&#45;&gt;Node11 -->
<g id="edge13" class="edge"><title>Node5&#45;&gt;Node11</title>
<path fill="none" stroke="midnightblue" d="M2727.32,-449.487C2765.43,-442.425 2820.4,-430.195 2866,-412 2946.4,-379.919 3033.34,-321.626 3064.79,-299.674"/>
<polygon fill="midnightblue" stroke="midnightblue" points="2726.26,-446.122 2717.04,-451.342 2727.51,-453.011 2726.26,-446.122"/>
</g>
<!-- Node5&#45;&gt;Node12 -->
<g id="edge15" class="edge"><title>Node5&#45;&gt;Node12</title>
<path fill="none" stroke="midnightblue" d="M2634.5,-454.329C2470.64,-444.915 1922.13,-413.405 1776.66,-405.049"/>
<polygon fill="midnightblue" stroke="midnightblue" points="2634.54,-457.837 2644.73,-454.916 2634.94,-450.848 2634.54,-457.837"/>
</g>
<!-- Node5&#45;&gt;Node30 -->
<g id="edge118" class="edge"><title>Node5&#45;&gt;Node30</title>
<path fill="none" stroke="midnightblue" d="M2634.81,-457.442C2573.12,-456.448 2461.57,-449.035 2375,-412 2250.1,-358.568 2248.88,-296.512 2134,-224 2110.95,-209.453 2082.58,-195.925 2063.92,-187.576"/>
<polygon fill="midnightblue" stroke="midnightblue" points="2634.96,-460.944 2645,-457.555 2635.04,-453.945 2634.96,-460.944"/>
</g>
<!-- Node31 -->
<g id="node31" class="node"><title>Node31</title>
<g id="a_node31"><a xlink:href="../../d1/d7c/a00003.html" target="_top" xlink:title="HydraEvaluateExample take parameters from the command line, fill a range with random numbers and eval...">
<polygon fill="none" stroke="black" points="2135,-112.5 2135,-131.5 2273,-131.5 2273,-112.5 2135,-112.5"/>
<text text-anchor="middle" x="2204" y="-119.5" font-family="Helvetica,sans-Serif" font-size="10.00">HydraEvaluateExample.cpp</text>
</a>
</g>
</g>
<!-- Node5&#45;&gt;Node31 -->
<g id="edge123" class="edge"><title>Node5&#45;&gt;Node31</title>
<path fill="none" stroke="midnightblue" d="M2634.81,-451.05C2552.42,-438.12 2379.19,-400.117 2277,-300 2226.19,-250.22 2209.32,-159.98 2205.15,-131.71"/>
<polygon fill="midnightblue" stroke="midnightblue" points="2634.46,-454.537 2644.87,-452.574 2635.5,-447.616 2634.46,-454.537"/>
</g>
<!-- Node32 -->
<g id="node32" class="node"><title>Node32</title>
<g id="a_node32"><a xlink:href="../../d8/d84/a00001.html" target="_top" xlink:title="HydraEvaluateExample takes parameters from the command line, fill a range with random numbers and eva...">
<polygon fill="none" stroke="black" points="2329.5,-112.5 2329.5,-131.5 2462.5,-131.5 2462.5,-112.5 2329.5,-112.5"/>
<text text-anchor="middle" x="2396" y="-119.5" font-family="Helvetica,sans-Serif" font-size="10.00">HydraEvaluateExample.cu</text>
</a>
</g>
</g>
<!-- Node5&#45;&gt;Node32 -->
<g id="edge124" class="edge"><title>Node5&#45;&gt;Node32</title>
<path fill="none" stroke="midnightblue" d="M2664.85,-441.198C2656.37,-432.719 2645.91,-421.986 2637,-412 2565.27,-331.625 2553.39,-306.401 2484,-224 2454.79,-189.312 2419.02,-148.867 2403.63,-131.562"/>
<polygon fill="midnightblue" stroke="midnightblue" points="2662.42,-443.714 2671.99,-448.264 2667.35,-438.741 2662.42,-443.714"/>
</g>
<!-- Node5&#45;&gt;Node33 -->
<g id="edge115" class="edge"><title>Node5&#45;&gt;Node33</title>
<path fill="none" stroke="midnightblue" d="M2666.52,-440.459C2660.05,-432.348 2652.82,-422.154 2648,-412 2619.12,-351.202 2606.52,-269.716 2603.05,-243.501"/>
<polygon fill="midnightblue" stroke="midnightblue" points="2663.99,-442.898 2673.08,-448.344 2669.37,-438.419 2663.99,-442.898"/>
</g>
<!-- Node5&#45;&gt;Node34 -->
<g id="edge116" class="edge"><title>Node5&#45;&gt;Node34</title>
<path fill="none" stroke="midnightblue" d="M2727.61,-450.942C2781,-443.582 2870.92,-429.896 2947,-412 3091.1,-378.106 3259.59,-321.15 3321.55,-299.605"/>
<polygon fill="midnightblue" stroke="midnightblue" points="2726.87,-447.511 2717.43,-452.329 2727.81,-454.446 2726.87,-447.511"/>
</g>
<!-- Node5&#45;&gt;Node42 -->
<g id="edge119" class="edge"><title>Node5&#45;&gt;Node42</title>
<path fill="none" stroke="midnightblue" d="M2634.86,-456.44C2358.69,-452.851 921.863,-430.805 488,-356 415.255,-343.457 332.527,-314.144 293.959,-299.558"/>
<polygon fill="midnightblue" stroke="midnightblue" points="2634.89,-459.94 2644.93,-456.569 2634.98,-452.941 2634.89,-459.94"/>
</g>
<!-- Node6&#45;&gt;Node7 -->
<g id="edge6" class="edge"><title>Node6&#45;&gt;Node7</title>
<path fill="none" stroke="midnightblue" d="M2769.54,-327.011C2781.06,-301.352 2805.19,-254.035 2838,-224 2856.35,-207.198 2882.15,-194.993 2901.06,-187.568"/>
<polygon fill="midnightblue" stroke="midnightblue" points="2766.29,-325.715 2765.51,-336.281 2772.71,-328.506 2766.29,-325.715"/>
</g>
<!-- Node6&#45;&gt;Node8 -->
<g id="edge7" class="edge"><title>Node6&#45;&gt;Node8</title>
<path fill="none" stroke="midnightblue" d="M2761.2,-325.93C2759.68,-289.92 2756.44,-213.231 2755.36,-187.568"/>
<polygon fill="midnightblue" stroke="midnightblue" points="2757.71,-326.231 2761.62,-336.075 2764.7,-325.937 2757.71,-326.231"/>
</g>
<!-- Node9&#45;&gt;Node10 -->
<g id="edge9" class="edge"><title>Node9&#45;&gt;Node10</title>
<path fill="none" stroke="midnightblue" d="M3224.95,-272.144C3217.11,-262.736 3207.67,-251.405 3201.29,-243.751"/>
<polygon fill="midnightblue" stroke="midnightblue" points="3222.48,-274.641 3231.57,-280.083 3227.86,-270.16 3222.48,-274.641"/>
</g>
<!-- Node10&#45;&gt;Node3 -->
<g id="edge10" class="edge"><title>Node10&#45;&gt;Node3</title>
<path fill="none" stroke="midnightblue" d="M3185.47,-214.88C3166.57,-177.106 3117.12,-90.5863 3046,-56 2981.91,-24.834 1903.02,-13.6823 1643.71,-11.4458"/>
<polygon fill="midnightblue" stroke="midnightblue" points="3182.47,-216.697 3189.99,-224.158 3188.76,-213.634 3182.47,-216.697"/>
</g>
<!-- Node10&#45;&gt;Node7 -->
<g id="edge11" class="edge"><title>Node10&#45;&gt;Node7</title>
<path fill="none" stroke="midnightblue" d="M3143.83,-222.892C3093.33,-212.715 3016.25,-197.186 2968.61,-187.587"/>
<polygon fill="midnightblue" stroke="midnightblue" points="3143.38,-226.371 3153.88,-224.916 3144.77,-219.509 3143.38,-226.371"/>
</g>
<!-- Node10&#45;&gt;Node8 -->
<g id="edge12" class="edge"><title>Node10&#45;&gt;Node8</title>
<path fill="none" stroke="midnightblue" d="M3143.75,-226.819C3065.15,-217.151 2912.96,-198.43 2824.11,-187.5"/>
<polygon fill="midnightblue" stroke="midnightblue" points="3143.53,-230.318 3153.88,-228.065 3144.38,-223.37 3143.53,-230.318"/>
</g>
<!-- Node11&#45;&gt;Node10 -->
<g id="edge14" class="edge"><title>Node11&#45;&gt;Node10</title>
<path fill="none" stroke="midnightblue" d="M3104.66,-276.232C3126.55,-266.131 3156.5,-252.309 3175.55,-243.516"/>
<polygon fill="midnightblue" stroke="midnightblue" points="3103.15,-273.075 3095.54,-280.444 3106.09,-279.431 3103.15,-273.075"/>
</g>
<!-- Node12&#45;&gt;Node6 -->
<g id="edge16" class="edge"><title>Node12&#45;&gt;Node6</title>
<path fill="none" stroke="midnightblue" d="M1786.8,-398.578C1964.45,-389.182 2604.77,-355.316 2737.72,-348.284"/>
<polygon fill="midnightblue" stroke="midnightblue" points="1786.54,-395.086 1776.74,-399.11 1786.91,-402.077 1786.54,-395.086"/>
</g>
<!-- Node12&#45;&gt;Node13 -->
<g id="edge17" class="edge"><title>Node12&#45;&gt;Node13</title>
<path fill="none" stroke="midnightblue" d="M1721.25,-386.118C1690.26,-362.769 1631.19,-318.27 1606.4,-299.591"/>
<polygon fill="midnightblue" stroke="midnightblue" points="1719.45,-389.146 1729.54,-392.368 1723.66,-383.556 1719.45,-389.146"/>
</g>
<!-- Node12&#45;&gt;Node15 -->
<g id="edge39" class="edge"><title>Node12&#45;&gt;Node15</title>
<path fill="none" stroke="midnightblue" d="M1695.03,-394.732C1630.57,-385.677 1516.77,-368.636 1477,-356 1422.06,-338.544 1411.55,-325.815 1360,-300 1312.01,-275.965 1280.79,-289.918 1253,-244 1233.4,-211.628 1290.74,-192.997 1328.24,-184.547"/>
<polygon fill="midnightblue" stroke="midnightblue" points="1694.92,-398.252 1705.31,-396.168 1695.89,-391.319 1694.92,-398.252"/>
</g>
<!-- Node12&#45;&gt;Node16 -->
<g id="edge30" class="edge"><title>Node12&#45;&gt;Node16</title>
<path fill="none" stroke="midnightblue" d="M1786.85,-397.668C1815.26,-392.956 1849.73,-381.862 1868,-356 1901.85,-308.087 1903.39,-270.792 1868,-224 1852.95,-204.093 1784.9,-190.458 1742.86,-183.766"/>
<polygon fill="midnightblue" stroke="midnightblue" points="1786.09,-394.241 1776.69,-399.131 1787.09,-401.169 1786.09,-394.241"/>
</g>
<!-- Node12&#45;&gt;Node18 -->
<g id="edge31" class="edge"><title>Node12&#45;&gt;Node18</title>
<path fill="none" stroke="midnightblue" d="M1760.34,-385.649C1798.67,-353.401 1877.01,-277.205 1834,-224 1785.99,-164.616 1740.33,-205.512 1666,-188 1663.31,-187.367 1660.52,-186.686 1657.73,-185.991"/>
<polygon fill="midnightblue" stroke="midnightblue" points="1757.9,-383.126 1752.4,-392.183 1762.34,-388.532 1757.9,-383.126"/>
</g>
<!-- Node12&#45;&gt;Node20 -->
<g id="edge38" class="edge"><title>Node12&#45;&gt;Node20</title>
<path fill="none" stroke="midnightblue" d="M1748.08,-382.956C1755.92,-362.823 1768.78,-329.234 1779,-300 1785.96,-280.072 1793.4,-256.432 1797.28,-243.876"/>
<polygon fill="midnightblue" stroke="midnightblue" points="1744.77,-381.816 1744.39,-392.404 1751.29,-384.364 1744.77,-381.816"/>
</g>
<!-- Node12&#45;&gt;Node21 -->
<g id="edge32" class="edge"><title>Node12&#45;&gt;Node21</title>
<path fill="none" stroke="midnightblue" d="M1695.4,-396.241C1598.44,-386.062 1377.84,-362.565 1344,-356 1161.08,-320.508 1084.92,-361.11 940,-244 921.576,-229.112 911.976,-201.545 908.104,-187.583"/>
<polygon fill="midnightblue" stroke="midnightblue" points="1695.19,-399.737 1705.5,-397.299 1695.92,-392.776 1695.19,-399.737"/>
</g>
<!-- Node12&#45;&gt;Node24 -->
<g id="edge40" class="edge"><title>Node12&#45;&gt;Node24</title>
<path fill="none" stroke="midnightblue" d="M1697.04,-389.959C1656.43,-379.76 1596.96,-364.822 1559.91,-355.516"/>
<polygon fill="midnightblue" stroke="midnightblue" points="1696.38,-393.402 1706.93,-392.444 1698.09,-386.613 1696.38,-393.402"/>
</g>
<!-- Node12&#45;&gt;Node30 -->
<g id="edge114" class="edge"><title>Node12&#45;&gt;Node30</title>
<path fill="none" stroke="midnightblue" d="M1786.99,-395.848C1879.68,-384.418 2083.66,-353.618 2125,-300 2141.13,-279.079 2076.93,-211.669 2052.82,-187.622"/>
<polygon fill="midnightblue" stroke="midnightblue" points="1786.29,-392.407 1776.78,-397.084 1787.13,-399.356 1786.29,-392.407"/>
</g>
<!-- Node12&#45;&gt;Node39 -->
<g id="edge113" class="edge"><title>Node12&#45;&gt;Node39</title>
<path fill="none" stroke="midnightblue" d="M1695.14,-395.248C1636.62,-387.634 1532.38,-373.151 1444,-356 1338.17,-335.463 1311.61,-329.761 1208,-300 1146.1,-282.221 1074.59,-256.645 1038.83,-243.505"/>
<polygon fill="midnightblue" stroke="midnightblue" points="1694.81,-398.734 1705.18,-396.545 1695.71,-391.792 1694.81,-398.734"/>
</g>
<!-- Node12&#45;&gt;Node40 -->
<g id="edge104" class="edge"><title>Node12&#45;&gt;Node40</title>
<path fill="none" stroke="midnightblue" d="M1695.16,-395.793C1681.89,-394.413 1667.38,-393.023 1654,-392 1314.84,-366.062 903.138,-351.882 782.061,-348.064"/>
<polygon fill="midnightblue" stroke="midnightblue" points="1695.17,-399.314 1705.48,-396.892 1695.91,-392.354 1695.17,-399.314"/>
</g>
<!-- Node13&#45;&gt;Node14 -->
<g id="edge18" class="edge"><title>Node13&#45;&gt;Node14</title>
<path fill="none" stroke="midnightblue" d="M1544.16,-279.818C1482.95,-268.763 1381.88,-250.51 1329.62,-241.072"/>
<polygon fill="midnightblue" stroke="midnightblue" points="1543.9,-283.328 1554.36,-281.661 1545.15,-276.439 1543.9,-283.328"/>
</g>
<!-- Node13&#45;&gt;Node15 -->
<g id="edge28" class="edge"><title>Node13&#45;&gt;Node15</title>
<path fill="none" stroke="midnightblue" d="M1547.94,-277.815C1519.63,-270.186 1483.33,-258.782 1453,-244 1419.95,-227.891 1385.33,-201.36 1368.47,-187.71"/>
<polygon fill="midnightblue" stroke="midnightblue" points="1547.42,-281.297 1557.98,-280.454 1549.2,-274.527 1547.42,-281.297"/>
</g>
<!-- Node13&#45;&gt;Node16 -->
<g id="edge20" class="edge"><title>Node13&#45;&gt;Node16</title>
<path fill="none" stroke="midnightblue" d="M1611.37,-273.205C1635.8,-249.627 1680.99,-206.029 1700.1,-187.591"/>
<polygon fill="midnightblue" stroke="midnightblue" points="1608.71,-270.906 1603.95,-280.368 1613.57,-275.943 1608.71,-270.906"/>
</g>
<!-- Node13&#45;&gt;Node17 -->
<g id="edge21" class="edge"><title>Node13&#45;&gt;Node17</title>
<path fill="none" stroke="midnightblue" d="M1569.91,-275.453C1551.45,-265.483 1526.9,-252.228 1511.03,-243.655"/>
<polygon fill="midnightblue" stroke="midnightblue" points="1568.47,-278.652 1578.93,-280.324 1571.8,-272.493 1568.47,-278.652"/>
</g>
<!-- Node13&#45;&gt;Node18 -->
<g id="edge26" class="edge"><title>Node13&#45;&gt;Node18</title>
<path fill="none" stroke="midnightblue" d="M1601,-270.674C1608.87,-246.625 1622.36,-205.388 1628.19,-187.591"/>
<polygon fill="midnightblue" stroke="midnightblue" points="1597.61,-269.776 1597.82,-280.368 1604.26,-271.953 1597.61,-269.776"/>
</g>
<!-- Node13&#45;&gt;Node19 -->
<g id="edge29" class="edge"><title>Node13&#45;&gt;Node19</title>
<path fill="none" stroke="midnightblue" d="M1579.98,-272.433C1568.06,-259.292 1550.97,-240.463 1536,-224 1524.48,-211.333 1511.12,-196.677 1502.86,-187.622"/>
<polygon fill="midnightblue" stroke="midnightblue" points="1577.68,-275.108 1586.99,-280.164 1582.86,-270.405 1577.68,-275.108"/>
</g>
<!-- Node13&#45;&gt;Node20 -->
<g id="edge27" class="edge"><title>Node13&#45;&gt;Node20</title>
<path fill="none" stroke="midnightblue" d="M1637.26,-277.868C1678.57,-266.985 1740.12,-250.773 1774.47,-241.725"/>
<polygon fill="midnightblue" stroke="midnightblue" points="1636.26,-274.512 1627.48,-280.444 1638.04,-281.281 1636.26,-274.512"/>
</g>
<!-- Node14&#45;&gt;Node15 -->
<g id="edge19" class="edge"><title>Node14&#45;&gt;Node15</title>
<path fill="none" stroke="midnightblue" d="M1313.75,-217.537C1324.81,-207.909 1338.63,-195.869 1347.86,-187.834"/>
<polygon fill="midnightblue" stroke="midnightblue" points="1311.2,-215.117 1305.96,-224.324 1315.8,-220.395 1311.2,-215.117"/>
</g>
<!-- Node17&#45;&gt;Node15 -->
<g id="edge24" class="edge"><title>Node17&#45;&gt;Node15</title>
<path fill="none" stroke="midnightblue" d="M1463.98,-220.772C1438.24,-210.629 1402.31,-196.467 1379.61,-187.516"/>
<polygon fill="midnightblue" stroke="midnightblue" points="1462.71,-224.033 1473.29,-224.444 1465.27,-217.52 1462.71,-224.033"/>
</g>
<!-- Node17&#45;&gt;Node16 -->
<g id="edge22" class="edge"><title>Node17&#45;&gt;Node16</title>
<path fill="none" stroke="midnightblue" d="M1537.35,-222.313C1577.88,-212.087 1638.2,-196.866 1675.49,-187.457"/>
<polygon fill="midnightblue" stroke="midnightblue" points="1536.34,-218.958 1527.5,-224.799 1538.05,-225.745 1536.34,-218.958"/>
</g>
<!-- Node17&#45;&gt;Node18 -->
<g id="edge23" class="edge"><title>Node17&#45;&gt;Node18</title>
<path fill="none" stroke="midnightblue" d="M1526.13,-220.638C1551.66,-210.504 1587.11,-196.427 1609.55,-187.516"/>
<polygon fill="midnightblue" stroke="midnightblue" points="1524.55,-217.5 1516.55,-224.444 1527.14,-224.006 1524.55,-217.5"/>
</g>
<!-- Node17&#45;&gt;Node19 -->
<g id="edge25" class="edge"><title>Node17&#45;&gt;Node19</title>
<path fill="none" stroke="midnightblue" d="M1495,-213.805C1495,-204.91 1495,-194.78 1495,-187.751"/>
<polygon fill="midnightblue" stroke="midnightblue" points="1491.5,-214.083 1495,-224.083 1498.5,-214.083 1491.5,-214.083"/>
</g>
<!-- Node21&#45;&gt;Node22 -->
<g id="edge33" class="edge"><title>Node21&#45;&gt;Node22</title>
<path fill="none" stroke="midnightblue" d="M906,-157.805C906,-148.91 906,-138.78 906,-131.751"/>
<polygon fill="midnightblue" stroke="midnightblue" points="902.5,-158.083 906,-168.083 909.5,-158.083 902.5,-158.083"/>
</g>
<!-- Node21&#45;&gt;Node23 -->
<g id="edge37" class="edge"><title>Node21&#45;&gt;Node23</title>
<path fill="none" stroke="midnightblue" d="M892.113,-160.33C885.878,-152.19 878.851,-142.01 874,-132 864.771,-112.956 859.127,-88.5576 856.589,-75.7495"/>
<polygon fill="midnightblue" stroke="midnightblue" points="889.458,-162.616 898.426,-168.258 894.934,-158.255 889.458,-162.616"/>
</g>
<!-- Node22&#45;&gt;Node23 -->
<g id="edge34" class="edge"><title>Node22&#45;&gt;Node23</title>
<path fill="none" stroke="midnightblue" d="M890.622,-104.718C881.633,-95.1997 870.641,-83.5608 863.265,-75.7511"/>
<polygon fill="midnightblue" stroke="midnightblue" points="888.168,-107.216 897.578,-112.083 893.257,-102.41 888.168,-107.216"/>
</g>
<!-- Node23&#45;&gt;Node3 -->
<g id="edge35" class="edge"><title>Node23&#45;&gt;Node3</title>
<path fill="none" stroke="midnightblue" d="M917.922,-60.3645C1058.93,-49.9768 1398.33,-24.9731 1532.28,-15.1048"/>
<polygon fill="midnightblue" stroke="midnightblue" points="917.431,-56.8911 907.716,-61.1165 917.946,-63.8722 917.431,-56.8911"/>
</g>
<!-- Node23&#45;&gt;Node4 -->
<g id="edge36" class="edge"><title>Node23&#45;&gt;Node4</title>
<path fill="none" stroke="midnightblue" d="M792.351,-56.9833C709.323,-46.3589 564.266,-27.7971 486.256,-17.8148"/>
<polygon fill="midnightblue" stroke="midnightblue" points="792.043,-60.4724 802.407,-58.27 792.932,-53.529 792.043,-60.4724"/>
</g>
<!-- Node24&#45;&gt;Node2 -->
<g id="edge41" class="edge"><title>Node24&#45;&gt;Node2</title>
<path fill="none" stroke="midnightblue" d="M1475.8,-338.837C1406.84,-330.331 1278.97,-314.406 1170,-300 1002.24,-277.822 801.129,-249.482 727.657,-239.071"/>
<polygon fill="midnightblue" stroke="midnightblue" points="1475.59,-342.338 1485.94,-340.087 1476.44,-335.39 1475.59,-342.338"/>
</g>
<!-- Node24&#45;&gt;Node9 -->
<g id="edge47" class="edge"><title>Node24&#45;&gt;Node9</title>
<path fill="none" stroke="midnightblue" d="M1576.1,-344.586C1773.7,-342.741 2518.22,-333.814 3130,-300 3152.28,-298.769 3177.07,-296.772 3197.37,-294.971"/>
<polygon fill="midnightblue" stroke="midnightblue" points="1575.99,-341.086 1566.02,-344.678 1576.05,-348.086 1575.99,-341.086"/>
</g>
<!-- Node24&#45;&gt;Node11 -->
<g id="edge48" class="edge"><title>Node24&#45;&gt;Node11</title>
<path fill="none" stroke="midnightblue" d="M1576.31,-343.248C1812.45,-335.027 2808.66,-300.343 3032.31,-292.556"/>
<polygon fill="midnightblue" stroke="midnightblue" points="1576.16,-339.751 1566.29,-343.597 1576.41,-346.747 1576.16,-339.751"/>
</g>
<!-- Node24&#45;&gt;Node13 -->
<g id="edge43" class="edge"><title>Node24&#45;&gt;Node13</title>
<path fill="none" stroke="midnightblue" d="M1545.04,-330.101C1557.46,-320.382 1573.24,-308.027 1583.71,-299.834"/>
<polygon fill="midnightblue" stroke="midnightblue" points="1542.8,-327.405 1537.09,-336.324 1547.12,-332.917 1542.8,-327.405"/>
</g>
<!-- Node24&#45;&gt;Node14 -->
<g id="edge42" class="edge"><title>Node24&#45;&gt;Node14</title>
<path fill="none" stroke="midnightblue" d="M1485.69,-333.442C1460,-325.444 1426.33,-313.78 1398,-300 1363.26,-283.1 1325.76,-256.915 1307.42,-243.522"/>
<polygon fill="midnightblue" stroke="midnightblue" points="1484.88,-336.855 1495.47,-336.43 1486.93,-330.161 1484.88,-336.855"/>
</g>
<!-- Node24&#45;&gt;Node15 -->
<g id="edge58" class="edge"><title>Node24&#45;&gt;Node15</title>
<path fill="none" stroke="midnightblue" d="M1505.02,-330.463C1493.39,-322.056 1478.93,-310.991 1467,-300 1425,-261.298 1381.42,-208.336 1364.9,-187.714"/>
<polygon fill="midnightblue" stroke="midnightblue" points="1503.08,-333.384 1513.26,-336.329 1507.14,-327.68 1503.08,-333.384"/>
</g>
<!-- Node24&#45;&gt;Node16 -->
<g id="edge44" class="edge"><title>Node24&#45;&gt;Node16</title>
<path fill="none" stroke="midnightblue" d="M1575.98,-339.325C1604.66,-333.681 1639.52,-322.428 1663,-300 1696.32,-268.179 1705.77,-209.73 1708.22,-187.705"/>
<polygon fill="midnightblue" stroke="midnightblue" points="1575.35,-335.883 1566.13,-341.097 1576.59,-342.773 1575.35,-335.883"/>
</g>
<!-- Node24&#45;&gt;Node17 -->
<g id="edge45" class="edge"><title>Node24&#45;&gt;Node17</title>
<path fill="none" stroke="midnightblue" d="M1520.84,-326.674C1514.06,-302.625 1502.44,-261.388 1497.42,-243.591"/>
<polygon fill="midnightblue" stroke="midnightblue" points="1517.49,-327.693 1523.57,-336.368 1524.22,-325.794 1517.49,-327.693"/>
</g>
<!-- Node24&#45;&gt;Node18 -->
<g id="edge46" class="edge"><title>Node24&#45;&gt;Node18</title>
<path fill="none" stroke="midnightblue" d="M1576.04,-339.172C1600.84,-333.473 1628.7,-322.217 1644,-300 1668.45,-264.506 1645.68,-208.744 1635.42,-187.556"/>
<polygon fill="midnightblue" stroke="midnightblue" points="1575.1,-335.792 1566,-341.225 1576.5,-342.65 1575.1,-335.792"/>
</g>
<!-- Node24&#45;&gt;Node19 -->
<g id="edge65" class="edge"><title>Node24&#45;&gt;Node19</title>
<path fill="none" stroke="midnightblue" d="M1509.5,-329.124C1491.59,-310.641 1464.08,-278.249 1453,-244 1450.26,-235.543 1449.74,-232.27 1453,-224 1458.96,-208.888 1472.65,-195.857 1482.79,-187.764"/>
<polygon fill="midnightblue" stroke="midnightblue" points="1507.19,-331.768 1516.73,-336.377 1512.15,-326.825 1507.19,-331.768"/>
</g>
<!-- Node24&#45;&gt;Node20 -->
<g id="edge57" class="edge"><title>Node24&#45;&gt;Node20</title>
<path fill="none" stroke="midnightblue" d="M1576.47,-345.529C1625.52,-343.761 1700.26,-334.819 1754,-300 1775.58,-286.018 1790.08,-258.041 1796.4,-243.786"/>
<polygon fill="midnightblue" stroke="midnightblue" points="1576.32,-342.031 1566.42,-345.804 1576.51,-349.029 1576.32,-342.031"/>
</g>
<!-- Node24&#45;&gt;Node21 -->
<g id="edge49" class="edge"><title>Node24&#45;&gt;Node21</title>
<path fill="none" stroke="midnightblue" d="M1475.59,-339.724C1410.97,-332.587 1295.61,-318.58 1198,-300 1191.57,-298.776 974.682,-247.256 969,-244 943.639,-229.465 921.874,-201.738 911.867,-187.662"/>
<polygon fill="midnightblue" stroke="midnightblue" points="1475.57,-343.244 1485.9,-340.852 1476.34,-336.285 1475.57,-343.244"/>
</g>
<!-- Node24&#45;&gt;Node22 -->
<g id="edge74" class="edge"><title>Node24&#45;&gt;Node22</title>
<path fill="none" stroke="midnightblue" d="M1476.02,-336.649C1434.29,-329.045 1373.54,-316.491 1322,-300 1162.03,-248.81 978.812,-159.517 923,-131.596"/>
<polygon fill="midnightblue" stroke="midnightblue" points="1475.47,-340.107 1485.93,-338.429 1476.71,-333.218 1475.47,-340.107"/>
</g>
<!-- Node24&#45;&gt;Node23 -->
<g id="edge90" class="edge"><title>Node24&#45;&gt;Node23</title>
<path fill="none" stroke="midnightblue" d="M1477.21,-334.057C1443.78,-326.005 1398.66,-314.046 1360,-300 1161.25,-227.79 932.978,-108.611 871.143,-75.6694"/>
<polygon fill="midnightblue" stroke="midnightblue" points="1476.65,-337.521 1487.19,-336.428 1478.27,-330.711 1476.65,-337.521"/>
</g>
<!-- Node24&#45;&gt;Node25 -->
<g id="edge50" class="edge"><title>Node24&#45;&gt;Node25</title>
<path fill="none" stroke="midnightblue" d="M1576.13,-343.797C1874.96,-336.629 3418.83,-299.592 3724.41,-292.262"/>
<polygon fill="midnightblue" stroke="midnightblue" points="1575.94,-340.301 1566.03,-344.04 1576.11,-347.299 1575.94,-340.301"/>
</g>
<!-- Node24&#45;&gt;Node27 -->
<g id="edge53" class="edge"><title>Node24&#45;&gt;Node27</title>
<path fill="none" stroke="midnightblue" d="M1475.88,-345.121C1302.31,-345.147 711.001,-341.939 225,-300 221.935,-299.736 218.794,-299.427 215.627,-299.086"/>
<polygon fill="midnightblue" stroke="midnightblue" points="1475.99,-348.621 1485.99,-345.116 1475.98,-341.621 1475.99,-348.621"/>
</g>
<!-- Node24&#45;&gt;Node29 -->
<g id="edge59" class="edge"><title>Node24&#45;&gt;Node29</title>
<path fill="none" stroke="midnightblue" d="M1576.33,-340.049C1683.99,-329.46 1934.88,-304.782 2033.83,-295.05"/>
<polygon fill="midnightblue" stroke="midnightblue" points="1575.98,-336.567 1566.37,-341.029 1576.66,-343.533 1575.98,-336.567"/>
</g>
<!-- Node24&#45;&gt;Node30 -->
<g id="edge103" class="edge"><title>Node24&#45;&gt;Node30</title>
<path fill="none" stroke="midnightblue" d="M1576.5,-337.177C1609.03,-330.618 1651.37,-319.155 1685,-300 1727.61,-275.726 1721.05,-245.765 1765,-224 1847.66,-183.064 1959.38,-177.984 2012.9,-178.173"/>
<polygon fill="midnightblue" stroke="midnightblue" points="1575.47,-333.812 1566.31,-339.137 1576.79,-340.686 1575.47,-333.812"/>
</g>
<!-- Node24&#45;&gt;Node33 -->
<g id="edge66" class="edge"><title>Node24&#45;&gt;Node33</title>
<path fill="none" stroke="midnightblue" d="M1576.44,-343.626C1732.38,-339.165 2205.29,-323.972 2357,-300 2438.72,-287.088 2532.54,-258.085 2576.62,-243.589"/>
<polygon fill="midnightblue" stroke="midnightblue" points="1576.1,-340.134 1566.2,-343.917 1576.3,-347.132 1576.1,-340.134"/>
</g>
<!-- Node24&#45;&gt;Node34 -->
<g id="edge72" class="edge"><title>Node24&#45;&gt;Node34</title>
<path fill="none" stroke="midnightblue" d="M1576.27,-344.608C1826.93,-342.517 2943.32,-331.565 3289,-300 3298.48,-299.135 3308.77,-297.672 3317.97,-296.175"/>
<polygon fill="midnightblue" stroke="midnightblue" points="1575.98,-341.11 1566.01,-344.693 1576.04,-348.11 1575.98,-341.11"/>
</g>
<!-- Node24&#45;&gt;Node35 -->
<g id="edge75" class="edge"><title>Node24&#45;&gt;Node35</title>
<path fill="none" stroke="midnightblue" d="M1576.29,-341.566C1725.78,-331.361 2164.49,-301.412 2285.67,-293.139"/>
<polygon fill="midnightblue" stroke="midnightblue" points="1575.78,-338.093 1566.04,-342.267 1576.26,-345.077 1575.78,-338.093"/>
</g>
<!-- Node24&#45;&gt;Node37 -->
<g id="edge91" class="edge"><title>Node24&#45;&gt;Node37</title>
<path fill="none" stroke="midnightblue" d="M1475.86,-341.761C1315.04,-331.373 816.413,-299.165 710.077,-292.297"/>
<polygon fill="midnightblue" stroke="midnightblue" points="1475.75,-345.262 1485.96,-342.414 1476.21,-338.276 1475.75,-345.262"/>
</g>
<!-- Node24&#45;&gt;Node38 -->
<g id="edge95" class="edge"><title>Node24&#45;&gt;Node38</title>
<path fill="none" stroke="midnightblue" d="M1475.38,-340.858C1342.05,-329.949 984.934,-300.731 889.644,-292.935"/>
<polygon fill="midnightblue" stroke="midnightblue" points="1475.46,-344.376 1485.71,-341.703 1476.03,-337.399 1475.46,-344.376"/>
</g>
<!-- Node24&#45;&gt;Node39 -->
<g id="edge102" class="edge"><title>Node24&#45;&gt;Node39</title>
<path fill="none" stroke="midnightblue" d="M1475.58,-336.443C1426.52,-327.924 1349.93,-314.114 1284,-300 1239.29,-290.429 1112.11,-258.957 1050.41,-243.592"/>
<polygon fill="midnightblue" stroke="midnightblue" points="1475.17,-339.924 1485.62,-338.179 1476.36,-333.026 1475.17,-339.924"/>
</g>
<!-- Node25&#45;&gt;Node26 -->
<g id="edge51" class="edge"><title>Node25&#45;&gt;Node26</title>
<path fill="none" stroke="midnightblue" d="M3789.7,-271.855C3796.63,-262.505 3804.91,-251.327 3810.52,-243.751"/>
<polygon fill="midnightblue" stroke="midnightblue" points="3786.75,-269.964 3783.61,-280.083 3792.37,-274.131 3786.75,-269.964"/>
</g>
<!-- Node26&#45;&gt;Node3 -->
<g id="edge52" class="edge"><title>Node26&#45;&gt;Node3</title>
<path fill="none" stroke="midnightblue" d="M3783.8,-222.474C3680.47,-190.271 3354.83,-93.0282 3077,-56 2791.96,-18.0112 1878.59,-12.0655 1643.56,-11.1589"/>
<polygon fill="midnightblue" stroke="midnightblue" points="3782.79,-225.823 3793.38,-225.47 3784.88,-219.143 3782.79,-225.823"/>
</g>
<!-- Node27&#45;&gt;Node28 -->
<g id="edge54" class="edge"><title>Node27&#45;&gt;Node28</title>
<path fill="none" stroke="midnightblue" d="M161.4,-270.101C162.064,-261.136 162.825,-250.858 163.352,-243.751"/>
<polygon fill="midnightblue" stroke="midnightblue" points="157.909,-269.852 160.661,-280.083 164.89,-270.369 157.909,-269.852"/>
</g>
<!-- Node28&#45;&gt;Node3 -->
<g id="edge55" class="edge"><title>Node28&#45;&gt;Node3</title>
<path fill="none" stroke="midnightblue" d="M176.367,-215.754C204.367,-178.337 276.842,-90.3168 362,-56 471.272,-11.9658 1307.42,-10.433 1532.4,-10.8283"/>
<polygon fill="midnightblue" stroke="midnightblue" points="173.326,-213.982 170.226,-224.113 178.967,-218.126 173.326,-213.982"/>
</g>
<!-- Node28&#45;&gt;Node4 -->
<g id="edge56" class="edge"><title>Node28&#45;&gt;Node4</title>
<path fill="none" stroke="midnightblue" d="M162.915,-214.335C161.913,-178.158 165.261,-98.3378 210,-56 233.989,-33.2982 321.816,-21.0523 379.828,-15.2899"/>
<polygon fill="midnightblue" stroke="midnightblue" points="159.423,-214.603 163.346,-224.445 166.417,-214.304 159.423,-214.603"/>
</g>
<!-- Node29&#45;&gt;Node30 -->
<g id="edge60" class="edge"><title>Node29&#45;&gt;Node30</title>
<path fill="none" stroke="midnightblue" d="M2069.84,-270.674C2063.06,-246.625 2051.44,-205.388 2046.42,-187.591"/>
<polygon fill="midnightblue" stroke="midnightblue" points="2066.49,-271.693 2072.57,-280.368 2073.22,-269.794 2066.49,-271.693"/>
</g>
<!-- Node30&#45;&gt;Node3 -->
<g id="edge63" class="edge"><title>Node30&#45;&gt;Node3</title>
<path fill="none" stroke="midnightblue" d="M2011,-164.988C1923.45,-133.116 1686.81,-46.9718 1611.42,-19.5241"/>
<polygon fill="midnightblue" stroke="midnightblue" points="2009.85,-168.293 2020.44,-168.425 2012.24,-161.715 2009.85,-168.293"/>
</g>
<!-- Node30&#45;&gt;Node4 -->
<g id="edge64" class="edge"><title>Node30&#45;&gt;Node4</title>
<path fill="none" stroke="midnightblue" d="M2002.66,-175.113C1910.49,-170.582 1681.29,-157.526 1491,-132 1309.48,-107.651 1267.66,-79.2239 1086,-56 864.224,-27.6482 597.63,-16.2958 486.107,-12.5596"/>
<polygon fill="midnightblue" stroke="midnightblue" points="2002.54,-178.611 2012.7,-175.599 2002.88,-171.619 2002.54,-178.611"/>
</g>
<!-- Node30&#45;&gt;Node31 -->
<g id="edge61" class="edge"><title>Node30&#45;&gt;Node31</title>
<path fill="none" stroke="midnightblue" d="M2079.05,-165.172C2109.17,-155.004 2151.9,-140.585 2178.77,-131.516"/>
<polygon fill="midnightblue" stroke="midnightblue" points="2077.71,-161.929 2069.35,-168.444 2079.95,-168.562 2077.71,-161.929"/>
</g>
<!-- Node30&#45;&gt;Node32 -->
<g id="edge62" class="edge"><title>Node30&#45;&gt;Node32</title>
<path fill="none" stroke="midnightblue" d="M2085.25,-170.672C2148.53,-160.965 2269.65,-142.383 2340.55,-131.507"/>
<polygon fill="midnightblue" stroke="midnightblue" points="2084.59,-167.232 2075.24,-172.208 2085.65,-174.151 2084.59,-167.232"/>
</g>
<!-- Node33&#45;&gt;Node3 -->
<g id="edge69" class="edge"><title>Node33&#45;&gt;Node3</title>
<path fill="none" stroke="midnightblue" d="M2598.13,-214.187C2594.52,-200.256 2587.99,-181.44 2577,-168 2514.94,-92.1269 2481.23,-83.0118 2387,-56 2247.1,-15.896 1801.08,-11.2939 1643.66,-10.9452"/>
<polygon fill="midnightblue" stroke="midnightblue" points="2594.77,-215.164 2600.43,-224.116 2601.59,-213.584 2594.77,-215.164"/>
</g>
<!-- Node33&#45;&gt;Node7 -->
<g id="edge70" class="edge"><title>Node33&#45;&gt;Node7</title>
<path fill="none" stroke="midnightblue" d="M2643.76,-226.039C2702.93,-216.179 2811.03,-198.161 2874.9,-187.516"/>
<polygon fill="midnightblue" stroke="midnightblue" points="2642.94,-222.627 2633.66,-227.724 2644.1,-229.532 2642.94,-222.627"/>
</g>
<!-- Node33&#45;&gt;Node8 -->
<g id="edge71" class="edge"><title>Node33&#45;&gt;Node8</title>
<path fill="none" stroke="midnightblue" d="M2635.89,-221.039C2664.68,-210.879 2705.29,-196.546 2730.87,-187.516"/>
<polygon fill="midnightblue" stroke="midnightblue" points="2634.51,-217.815 2626.24,-224.444 2636.84,-224.416 2634.51,-217.815"/>
</g>
<!-- Node33&#45;&gt;Node31 -->
<g id="edge67" class="edge"><title>Node33&#45;&gt;Node31</title>
<path fill="none" stroke="midnightblue" d="M2561.41,-221.781C2481.65,-199.737 2306.06,-151.207 2234.88,-131.535"/>
<polygon fill="midnightblue" stroke="midnightblue" points="2560.53,-225.17 2571.1,-224.46 2562.39,-218.422 2560.53,-225.17"/>
</g>
<!-- Node33&#45;&gt;Node32 -->
<g id="edge68" class="edge"><title>Node33&#45;&gt;Node32</title>
<path fill="none" stroke="midnightblue" d="M2592.65,-215.31C2583.99,-200.576 2569.78,-180.113 2552,-168 2524.16,-149.037 2488.32,-137.972 2458.01,-131.564"/>
<polygon fill="midnightblue" stroke="midnightblue" points="2589.81,-217.395 2597.74,-224.422 2595.92,-213.984 2589.81,-217.395"/>
</g>
<!-- Node34&#45;&gt;Node10 -->
<g id="edge73" class="edge"><title>Node34&#45;&gt;Node10</title>
<path fill="none" stroke="midnightblue" d="M3312.33,-277.039C3283.73,-266.879 3243.39,-252.546 3217.97,-243.516"/>
<polygon fill="midnightblue" stroke="midnightblue" points="3311.32,-280.394 3321.92,-280.444 3313.66,-273.798 3311.32,-280.394"/>
</g>
<!-- Node35&#45;&gt;Node3 -->
<g id="edge86" class="edge"><title>Node35&#45;&gt;Node3</title>
<path fill="none" stroke="midnightblue" d="M2319.59,-270.252C2323.43,-233.93 2326.05,-153.868 2282,-112 2190.5,-25.0228 1791.84,-12.6832 1643.7,-11.1335"/>
<polygon fill="midnightblue" stroke="midnightblue" points="2316.08,-270.055 2318.35,-280.404 2323.03,-270.901 2316.08,-270.055"/>
</g>
<!-- Node35&#45;&gt;Node4 -->
<g id="edge87" class="edge"><title>Node35&#45;&gt;Node4</title>
<path fill="none" stroke="midnightblue" d="M2296.05,-274.794C2256.53,-248.782 2167.45,-193.808 2084,-168 1774.54,-72.2978 733.696,-23.5434 486.153,-13.139"/>
<polygon fill="midnightblue" stroke="midnightblue" points="2294.3,-277.837 2304.57,-280.462 2298.18,-272.009 2294.3,-277.837"/>
</g>
<!-- Node35&#45;&gt;Node7 -->
<g id="edge88" class="edge"><title>Node35&#45;&gt;Node7</title>
<path fill="none" stroke="midnightblue" d="M2358.2,-284.466C2420.08,-277.392 2540.57,-262.592 2642,-244 2733.54,-227.22 2840.21,-200.982 2892.97,-187.551"/>
<polygon fill="midnightblue" stroke="midnightblue" points="2357.61,-281.011 2348.06,-285.615 2358.39,-287.966 2357.61,-281.011"/>
</g>
<!-- Node35&#45;&gt;Node8 -->
<g id="edge89" class="edge"><title>Node35&#45;&gt;Node8</title>
<path fill="none" stroke="midnightblue" d="M2358.08,-277.884C2416.99,-261.972 2522.6,-233.566 2561,-224 2614.85,-210.586 2677.43,-196.304 2716.63,-187.515"/>
<polygon fill="midnightblue" stroke="midnightblue" points="2357.09,-274.526 2348.35,-280.514 2358.91,-281.284 2357.09,-274.526"/>
</g>
<!-- Node35&#45;&gt;Node19 -->
<g id="edge76" class="edge"><title>Node35&#45;&gt;Node19</title>
<path fill="none" stroke="midnightblue" d="M2275.85,-283.437C2192.48,-272.172 1997.66,-245.875 1834,-224 1714.83,-208.072 1572.08,-189.186 1517.62,-181.988"/>
<polygon fill="midnightblue" stroke="midnightblue" points="2275.55,-286.927 2285.92,-284.798 2276.48,-279.99 2275.55,-286.927"/>
</g>
<!-- Node35&#45;&gt;Node31 -->
<g id="edge84" class="edge"><title>Node35&#45;&gt;Node31</title>
<path fill="none" stroke="midnightblue" d="M2305.27,-271.763C2281.32,-236.592 2227.6,-157.676 2209.83,-131.568"/>
<polygon fill="midnightblue" stroke="midnightblue" points="2302.4,-273.778 2310.92,-280.075 2308.19,-269.839 2302.4,-273.778"/>
</g>
<!-- Node35&#45;&gt;Node32 -->
<g id="edge85" class="edge"><title>Node35&#45;&gt;Node32</title>
<path fill="none" stroke="midnightblue" d="M2325.63,-270.856C2342.58,-235.252 2379.6,-157.453 2391.92,-131.568"/>
<polygon fill="midnightblue" stroke="midnightblue" points="2322.38,-269.541 2321.25,-280.075 2328.71,-272.55 2322.38,-269.541"/>
</g>
<!-- Node35&#45;&gt;Node33 -->
<g id="edge77" class="edge"><title>Node35&#45;&gt;Node33</title>
<path fill="none" stroke="midnightblue" d="M2358.2,-281.193C2415.56,-270.326 2518.24,-250.871 2570.13,-241.039"/>
<polygon fill="midnightblue" stroke="midnightblue" points="2357.22,-277.818 2348.04,-283.118 2358.52,-284.695 2357.22,-277.818"/>
</g>
<!-- Node35&#45;&gt;Node36 -->
<g id="edge78" class="edge"><title>Node35&#45;&gt;Node36</title>
<path fill="none" stroke="midnightblue" d="M2343.52,-275.862C2363.73,-265.849 2390.99,-252.346 2408.53,-243.655"/>
<polygon fill="midnightblue" stroke="midnightblue" points="2341.92,-272.748 2334.51,-280.324 2345.03,-279.021 2341.92,-272.748"/>
</g>
<!-- Node36&#45;&gt;Node3 -->
<g id="edge81" class="edge"><title>Node36&#45;&gt;Node3</title>
<path fill="none" stroke="midnightblue" d="M2441.13,-216.711C2461.97,-192.233 2494.42,-145.287 2471,-112 2428.61,-51.7505 2387.15,-70.8684 2315,-56 2186.81,-29.583 1790.6,-16.4652 1643.62,-12.4113"/>
<polygon fill="midnightblue" stroke="midnightblue" points="2438.36,-214.564 2434.35,-224.373 2443.6,-219.202 2438.36,-214.564"/>
</g>
<!-- Node36&#45;&gt;Node7 -->
<g id="edge82" class="edge"><title>Node36&#45;&gt;Node7</title>
<path fill="none" stroke="midnightblue" d="M2485.87,-226.534C2576.44,-216.752 2748.31,-198.191 2848.38,-187.383"/>
<polygon fill="midnightblue" stroke="midnightblue" points="2485.34,-223.071 2475.77,-227.625 2486.09,-230.031 2485.34,-223.071"/>
</g>
<!-- Node36&#45;&gt;Node8 -->
<g id="edge83" class="edge"><title>Node36&#45;&gt;Node8</title>
<path fill="none" stroke="midnightblue" d="M2485.65,-223.209C2547.75,-213.017 2644.02,-197.215 2703.08,-187.522"/>
<polygon fill="midnightblue" stroke="midnightblue" points="2484.91,-219.784 2475.61,-224.857 2486.05,-226.691 2484.91,-219.784"/>
</g>
<!-- Node36&#45;&gt;Node31 -->
<g id="edge79" class="edge"><title>Node36&#45;&gt;Node31</title>
<path fill="none" stroke="midnightblue" d="M2399.52,-219.878C2353.5,-197.078 2260.01,-150.751 2221.34,-131.591"/>
<polygon fill="midnightblue" stroke="midnightblue" points="2398.07,-223.065 2408.58,-224.368 2401.17,-216.792 2398.07,-223.065"/>
</g>
<!-- Node36&#45;&gt;Node32 -->
<g id="edge80" class="edge"><title>Node36&#45;&gt;Node32</title>
<path fill="none" stroke="midnightblue" d="M2421,-214.674C2414.44,-190.625 2403.2,-149.388 2398.34,-131.591"/>
<polygon fill="midnightblue" stroke="midnightblue" points="2417.64,-215.642 2423.65,-224.368 2424.39,-213.8 2417.64,-215.642"/>
</g>
<!-- Node37&#45;&gt;Node2 -->
<g id="edge92" class="edge"><title>Node37&#45;&gt;Node2</title>
<path fill="none" stroke="midnightblue" d="M693.15,-270.101C694.644,-261.136 696.357,-250.858 697.541,-243.751"/>
<polygon fill="midnightblue" stroke="midnightblue" points="689.678,-269.644 691.486,-280.083 696.583,-270.794 689.678,-269.644"/>
</g>
<!-- Node37&#45;&gt;Node3 -->
<g id="edge93" class="edge"><title>Node37&#45;&gt;Node3</title>
<path fill="none" stroke="midnightblue" d="M706.241,-273.248C715.078,-264.643 726.18,-253.777 736,-244 769.629,-210.517 769.851,-191.64 811,-168 832.732,-155.515 1223.39,-60.7638 1248,-56 1347.38,-36.76 1464.7,-23.2291 1532.31,-16.3093"/>
<polygon fill="midnightblue" stroke="midnightblue" points="703.595,-270.939 698.864,-280.419 708.474,-275.959 703.595,-270.939"/>
</g>
<!-- Node37&#45;&gt;Node4 -->
<g id="edge94" class="edge"><title>Node37&#45;&gt;Node4</title>
<path fill="none" stroke="midnightblue" d="M659.388,-288.52C595.115,-285.727 452,-269.363 452,-179 452,-179 452,-179 452,-121 452,-82.8214 440.749,-38.2624 435.562,-19.7514"/>
<polygon fill="midnightblue" stroke="midnightblue" points="659.592,-292.03 669.708,-288.881 659.836,-285.034 659.592,-292.03"/>
</g>
<!-- Node38&#45;&gt;Node21 -->
<g id="edge96" class="edge"><title>Node38&#45;&gt;Node21</title>
<path fill="none" stroke="midnightblue" d="M872.664,-270.674C881.409,-246.625 896.404,-205.388 902.876,-187.591"/>
<polygon fill="midnightblue" stroke="midnightblue" points="869.267,-269.774 869.139,-280.368 875.846,-272.167 869.267,-269.774"/>
</g>
<!-- Node38&#45;&gt;Node39 -->
<g id="edge97" class="edge"><title>Node38&#45;&gt;Node39</title>
<path fill="none" stroke="midnightblue" d="M899.225,-277.039C927.448,-266.879 967.262,-252.546 992.343,-243.516"/>
<polygon fill="midnightblue" stroke="midnightblue" points="897.991,-273.763 889.768,-280.444 900.362,-280.349 897.991,-273.763"/>
</g>
<!-- Node39&#45;&gt;Node3 -->
<g id="edge100" class="edge"><title>Node39&#45;&gt;Node3</title>
<path fill="none" stroke="midnightblue" d="M1047.65,-220.715C1151.16,-180.543 1477.99,-53.6962 1565.99,-19.5411"/>
<polygon fill="midnightblue" stroke="midnightblue" points="1046.13,-217.552 1038.07,-224.433 1048.66,-224.078 1046.13,-217.552"/>
</g>
<!-- Node39&#45;&gt;Node4 -->
<g id="edge101" class="edge"><title>Node39&#45;&gt;Node4</title>
<path fill="none" stroke="midnightblue" d="M1011.63,-214.443C1001.76,-177.168 973.989,-93.5563 916,-56 880.568,-33.0527 604.361,-18.4469 486.265,-13.1924"/>
<polygon fill="midnightblue" stroke="midnightblue" points="1008.3,-215.572 1014.13,-224.422 1015.09,-213.871 1008.3,-215.572"/>
</g>
<!-- Node39&#45;&gt;Node21 -->
<g id="edge98" class="edge"><title>Node39&#45;&gt;Node21</title>
<path fill="none" stroke="midnightblue" d="M989.238,-219.862C968.841,-209.849 941.334,-196.346 923.63,-187.655"/>
<polygon fill="midnightblue" stroke="midnightblue" points="987.808,-223.059 998.327,-224.324 990.892,-216.775 987.808,-223.059"/>
</g>
<!-- Node39&#45;&gt;Node30 -->
<g id="edge99" class="edge"><title>Node39&#45;&gt;Node30</title>
<path fill="none" stroke="midnightblue" d="M1064.28,-230.464C1243.28,-221.061 1866.29,-188.335 2012.92,-180.632"/>
<polygon fill="midnightblue" stroke="midnightblue" points="1063.92,-226.978 1054.11,-230.998 1064.28,-233.968 1063.92,-226.978"/>
</g>
<!-- Node40&#45;&gt;Node2 -->
<g id="edge105" class="edge"><title>Node40&#45;&gt;Node2</title>
<path fill="none" stroke="midnightblue" d="M739.265,-326.891C733.674,-313.838 725.918,-295.81 719,-280 713.448,-267.312 706.914,-252.662 702.864,-243.614"/>
<polygon fill="midnightblue" stroke="midnightblue" points="736.077,-328.337 743.228,-336.155 742.513,-325.584 736.077,-328.337"/>
</g>
<!-- Node40&#45;&gt;Node3 -->
<g id="edge111" class="edge"><title>Node40&#45;&gt;Node3</title>
<path fill="none" stroke="midnightblue" d="M752.67,-326.355C764.878,-289.6 797.319,-207.906 855,-168 883.997,-147.938 1389.35,-49.3003 1543.64,-19.5254"/>
<polygon fill="midnightblue" stroke="midnightblue" points="749.227,-325.632 749.526,-336.223 755.897,-327.757 749.227,-325.632"/>
</g>
<!-- Node40&#45;&gt;Node4 -->
<g id="edge112" class="edge"><title>Node40&#45;&gt;Node4</title>
<path fill="none" stroke="midnightblue" d="M701.73,-342.53C558.607,-334.635 123.623,-309.948 95,-300 46.6758,-283.206 0,-286.159 0,-235 0,-235 0,-235 0,-121 0,-43.4386 264.282,-19.9282 379.906,-13.3539"/>
<polygon fill="midnightblue" stroke="midnightblue" points="701.739,-346.036 711.916,-343.091 702.124,-339.046 701.739,-346.036"/>
</g>
<!-- Node40&#45;&gt;Node35 -->
<g id="edge106" class="edge"><title>Node40&#45;&gt;Node35</title>
<path fill="none" stroke="midnightblue" d="M792.15,-343.759C964.985,-338.957 1601.15,-320.83 2125,-300 2181.68,-297.746 2247.75,-294.517 2285.75,-292.602"/>
<polygon fill="midnightblue" stroke="midnightblue" points="792.042,-340.26 782.143,-344.036 792.236,-347.257 792.042,-340.26"/>
</g>
<!-- Node40&#45;&gt;Node37 -->
<g id="edge107" class="edge"><title>Node40&#45;&gt;Node37</title>
<path fill="none" stroke="midnightblue" d="M730.379,-329.253C720.266,-319.673 707.723,-307.791 699.325,-299.834"/>
<polygon fill="midnightblue" stroke="midnightblue" points="728.175,-331.987 737.842,-336.324 732.99,-326.906 728.175,-331.987"/>
</g>
<!-- Node40&#45;&gt;Node41 -->
<g id="edge108" class="edge"><title>Node40&#45;&gt;Node41</title>
<path fill="none" stroke="midnightblue" d="M701.92,-335.528C653.524,-325.359 577.327,-309.349 530.696,-299.551"/>
<polygon fill="midnightblue" stroke="midnightblue" points="701.298,-338.974 711.804,-337.605 702.738,-332.123 701.298,-338.974"/>
</g>
<!-- Node41&#45;&gt;Node3 -->
<g id="edge109" class="edge"><title>Node41&#45;&gt;Node3</title>
<path fill="none" stroke="midnightblue" d="M509.518,-273.846C532.036,-254.496 566,-218.724 566,-179 566,-179 566,-179 566,-121 566,-22.9611 1319.06,-12.1818 1532.33,-11.0949"/>
<polygon fill="midnightblue" stroke="midnightblue" points="507.024,-271.366 501.543,-280.433 511.482,-276.764 507.024,-271.366"/>
</g>
<!-- Node41&#45;&gt;Node4 -->
<g id="edge110" class="edge"><title>Node41&#45;&gt;Node4</title>
<path fill="none" stroke="midnightblue" d="M468.552,-274.429C458.153,-266.458 446.176,-255.81 438,-244 420.47,-218.681 414,-209.795 414,-179 414,-179 414,-179 414,-121 414,-82.8214 425.251,-38.2624 430.438,-19.7514"/>
<polygon fill="midnightblue" stroke="midnightblue" points="466.66,-277.381 476.797,-280.46 470.793,-271.731 466.66,-277.381"/>
</g>
<!-- Node42&#45;&gt;Node3 -->
<g id="edge121" class="edge"><title>Node42&#45;&gt;Node3</title>
<path fill="none" stroke="midnightblue" d="M287.714,-272.789C312.233,-248.084 361.797,-200.46 410,-168 501.995,-106.051 525.713,-84.1118 633,-56 804.501,-11.0628 1354.79,-9.78782 1532.26,-10.597"/>
<polygon fill="midnightblue" stroke="midnightblue" points="284.91,-270.649 280.397,-280.234 289.903,-275.556 284.91,-270.649"/>
</g>
<!-- Node42&#45;&gt;Node4 -->
<g id="edge122" class="edge"><title>Node42&#45;&gt;Node4</title>
<path fill="none" stroke="midnightblue" d="M259.381,-272.08C245.159,-251.293 224,-214.415 224,-179 224,-179 224,-179 224,-121 224,-90.2048 225.008,-76.487 248,-56 284.031,-23.8944 339.137,-13.7727 379.84,-11.0021"/>
<polygon fill="midnightblue" stroke="midnightblue" points="256.676,-274.316 265.326,-280.435 262.38,-270.258 256.676,-274.316"/>
</g>
<!-- Node42&#45;&gt;Node28 -->
<g id="edge120" class="edge"><title>Node42&#45;&gt;Node28</title>
<path fill="none" stroke="midnightblue" d="M245.452,-275.726C225.454,-265.727 198.613,-252.307 181.309,-243.655"/>
<polygon fill="midnightblue" stroke="midnightblue" points="244.138,-278.982 254.648,-280.324 247.269,-272.721 244.138,-278.982"/>
</g>
<!-- Node43&#45;&gt;Node10 -->
<g id="edge139" class="edge"><title>Node43&#45;&gt;Node10</title>
<path fill="none" stroke="midnightblue" d="M3565.83,-327.932C3553.95,-312.681 3534.42,-291.082 3512,-280 3463.89,-256.214 3308.33,-242.756 3234.11,-237.542"/>
<polygon fill="midnightblue" stroke="midnightblue" points="3563.12,-330.143 3571.91,-336.052 3568.72,-325.949 3563.12,-330.143"/>
</g>
<!-- Node43&#45;&gt;Node34 -->
<g id="edge138" class="edge"><title>Node43&#45;&gt;Node34</title>
<path fill="none" stroke="midnightblue" d="M3531.3,-334.129C3484.26,-323.182 3413.24,-306.651 3374.2,-297.563"/>
<polygon fill="midnightblue" stroke="midnightblue" points="3530.71,-337.585 3541.24,-336.444 3532.29,-330.768 3530.71,-337.585"/>
</g>
<!-- Node44&#45;&gt;Node10 -->
<g id="edge141" class="edge"><title>Node44&#45;&gt;Node10</title>
<path fill="none" stroke="midnightblue" d="M3632.43,-439.056C3642.8,-414.145 3656.85,-368.488 3638,-336 3612.82,-292.612 3587.55,-295.982 3540,-280 3433.49,-244.201 3299.66,-236.655 3234.04,-235.214"/>
<polygon fill="midnightblue" stroke="midnightblue" points="3629.16,-437.801 3628.32,-448.363 3635.57,-440.63 3629.16,-437.801"/>
</g>
<!-- Node45&#45;&gt;Node28 -->
<g id="edge146" class="edge"><title>Node45&#45;&gt;Node28</title>
<path fill="none" stroke="midnightblue" d="M122.007,-384.267C103.705,-360.217 76.0772,-314.932 95,-280 104.537,-262.395 124.279,-250.587 140.212,-243.501"/>
<polygon fill="midnightblue" stroke="midnightblue" points="119.489,-386.724 128.448,-392.378 124.971,-382.371 119.489,-386.724"/>
</g>
<!-- Node46&#45;&gt;Node23 -->
<g id="edge151" class="edge"><title>Node46&#45;&gt;Node23</title>
<path fill="none" stroke="midnightblue" d="M561.067,-327.153C573.042,-302.036 597.431,-255.78 628,-224 695.267,-154.069 798.151,-96.5351 838.215,-75.5421"/>
<polygon fill="midnightblue" stroke="midnightblue" points="557.885,-325.695 556.84,-336.238 564.232,-328.647 557.885,-325.695"/>
</g>
<!-- Node46&#45;&gt;Node35 -->
<g id="edge150" class="edge"><title>Node46&#45;&gt;Node35</title>
<path fill="none" stroke="midnightblue" d="M585.638,-342.715C616.012,-340.666 662.547,-337.725 703,-336 1334.63,-309.064 1493.21,-322.802 2125,-300 2181.69,-297.954 2247.76,-294.656 2285.75,-292.672"/>
<polygon fill="midnightblue" stroke="midnightblue" points="585.343,-339.227 575.604,-343.399 585.819,-346.211 585.343,-339.227"/>
</g>
<!-- Node46&#45;&gt;Node37 -->
<g id="edge152" class="edge"><title>Node46&#45;&gt;Node37</title>
<path fill="none" stroke="midnightblue" d="M584.197,-332.703C610.432,-322.363 647.17,-307.882 669.733,-298.988"/>
<polygon fill="midnightblue" stroke="midnightblue" points="582.728,-329.52 574.708,-336.444 585.295,-336.033 582.728,-329.52"/>
</g>
<!-- Node46&#45;&gt;Node41 -->
<g id="edge153" class="edge"><title>Node46&#45;&gt;Node41</title>
<path fill="none" stroke="midnightblue" d="M534.96,-329.537C523.727,-319.909 509.681,-307.869 500.306,-299.834"/>
<polygon fill="midnightblue" stroke="midnightblue" points="533.008,-332.473 542.878,-336.324 537.563,-327.159 533.008,-332.473"/>
</g>
<!-- Node47&#45;&gt;Node38 -->
<g id="edge158" class="edge"><title>Node47&#45;&gt;Node38</title>
<path fill="none" stroke="midnightblue" d="M923.774,-494.585C910.876,-449.135 877.897,-332.924 868.521,-299.884"/>
<polygon fill="midnightblue" stroke="midnightblue" points="920.433,-495.633 926.53,-504.297 927.167,-493.722 920.433,-495.633"/>
</g>
<!-- Node48&#45;&gt;Node25 -->
<g id="edge171" class="edge"><title>Node48&#45;&gt;Node25</title>
<path fill="none" stroke="midnightblue" d="M3790.22,-326.69C3786.85,-317.589 3782.93,-307.014 3780.24,-299.751"/>
<polygon fill="midnightblue" stroke="midnightblue" points="3786.94,-327.921 3793.7,-336.083 3793.51,-325.49 3786.94,-327.921"/>
</g>
<!-- Node48&#45;&gt;Node26 -->
<g id="edge172" class="edge"><title>Node48&#45;&gt;Node26</title>
<path fill="none" stroke="midnightblue" d="M3816.25,-329.745C3824.63,-321.869 3833.55,-311.502 3838,-300 3845.71,-280.094 3832.19,-256.046 3823.49,-243.522"/>
<polygon fill="midnightblue" stroke="midnightblue" points="3813.76,-327.271 3808.54,-336.49 3818.37,-332.54 3813.76,-327.271"/>
</g>
<!-- Node49&#45;&gt;Node5 -->
<g id="edge178" class="edge"><title>Node49&#45;&gt;Node5</title>
<path fill="none" stroke="midnightblue" d="M3237.66,-564.102C3176.12,-556.871 3059.99,-542.208 2962,-524 2871.42,-507.167 2765.88,-480.952 2713.68,-467.538"/>
<polygon fill="midnightblue" stroke="midnightblue" points="3237.44,-567.6 3247.78,-565.282 3238.25,-560.647 3237.44,-567.6"/>
</g>
<!-- Node49&#45;&gt;Node9 -->
<g id="edge179" class="edge"><title>Node49&#45;&gt;Node9</title>
<path fill="none" stroke="midnightblue" d="M3284.07,-550.091C3288.77,-517.424 3296.02,-448.491 3284,-392 3276.29,-355.762 3254.63,-316.758 3244.43,-299.756"/>
<polygon fill="midnightblue" stroke="midnightblue" points="3280.55,-549.981 3282.5,-560.395 3287.47,-551.039 3280.55,-549.981"/>
</g>
<!-- Node49&#45;&gt;Node10 -->
<g id="edge182" class="edge"><title>Node49&#45;&gt;Node10</title>
<path fill="none" stroke="midnightblue" d="M3320.39,-556.739C3338.29,-549.548 3358.62,-538.894 3373,-524 3434.21,-460.606 3468.6,-417.871 3436,-336 3405.18,-258.598 3294.76,-240.245 3234.29,-236.073"/>
<polygon fill="midnightblue" stroke="midnightblue" points="3318.87,-553.572 3310.76,-560.382 3321.35,-560.12 3318.87,-553.572"/>
</g>
<!-- Node49&#45;&gt;Node11 -->
<g id="edge180" class="edge"><title>Node49&#45;&gt;Node11</title>
<path fill="none" stroke="midnightblue" d="M3276.98,-550.352C3268.85,-515.997 3247.72,-441.688 3208,-392 3174.29,-349.828 3119.44,-315.126 3092.68,-299.666"/>
<polygon fill="midnightblue" stroke="midnightblue" points="3273.63,-551.397 3279.25,-560.377 3280.46,-549.851 3273.63,-551.397"/>
</g>
<!-- Node49&#45;&gt;Node34 -->
<g id="edge181" class="edge"><title>Node49&#45;&gt;Node34</title>
<path fill="none" stroke="midnightblue" d="M3307.86,-555.274C3338.38,-537.54 3384,-503.574 3384,-459 3384,-459 3384,-459 3384,-401 3384,-361.399 3361.73,-317.957 3351.28,-299.769"/>
<polygon fill="midnightblue" stroke="midnightblue" points="3305.97,-552.322 3298.94,-560.25 3309.38,-558.434 3305.97,-552.322"/>
</g>
<!-- Node49&#45;&gt;Node50 -->
<g id="edge183" class="edge"><title>Node49&#45;&gt;Node50</title>
<path fill="none" stroke="midnightblue" d="M3237.99,-560.616C3182.56,-549.81 3087.35,-531.249 3037.18,-521.467"/>
<polygon fill="midnightblue" stroke="midnightblue" points="3237.38,-564.062 3247.86,-562.54 3238.72,-557.191 3237.38,-564.062"/>
</g>
<!-- Node50&#45;&gt;Node3 -->
<g id="edge189" class="edge"><title>Node50&#45;&gt;Node3</title>
<path fill="none" stroke="midnightblue" d="M3004,-494.251C3004,-472.357 3004,-435.052 3004,-403 3004,-403 3004,-403 3004,-345 3004,-266.253 3061.6,-229.159 3012,-168 2860.07,19.3231 2720.18,-87.0545 2481,-56 2166.19,-15.1272 1784.49,-10.8394 1643.66,-10.7684"/>
<polygon fill="midnightblue" stroke="midnightblue" points="3000.5,-494.442 3004,-504.442 3007.5,-494.442 3000.5,-494.442"/>
</g>
<!-- Node50&#45;&gt;Node4 -->
<g id="edge190" class="edge"><title>Node50&#45;&gt;Node4</title>
<path fill="none" stroke="midnightblue" d="M2960.47,-511.871C2645.24,-503.494 717.97,-448.724 477,-356 392.552,-323.505 369.984,-278.132 362,-188 356.654,-127.655 366.978,-109.178 396,-56 403.655,-41.9725 415.955,-28.1188 424.25,-19.5677"/>
<polygon fill="midnightblue" stroke="midnightblue" points="2960.49,-515.373 2970.58,-512.139 2960.67,-508.376 2960.49,-515.373"/>
</g>
<!-- Node50&#45;&gt;Node5 -->
<g id="edge184" class="edge"><title>Node50&#45;&gt;Node5</title>
<path fill="none" stroke="midnightblue" d="M2960.76,-505.771C2896.53,-495.033 2777.08,-475.063 2717.2,-465.051"/>
<polygon fill="midnightblue" stroke="midnightblue" points="2960.51,-509.278 2970.95,-507.475 2961.67,-502.374 2960.51,-509.278"/>
</g>
<!-- Node50&#45;&gt;Node7 -->
<g id="edge191" class="edge"><title>Node50&#45;&gt;Node7</title>
<path fill="none" stroke="midnightblue" d="M2997.97,-494.849C2995.36,-486.688 2992.37,-476.907 2990,-468 2960.83,-358.241 2934.33,-222.609 2927.63,-187.574"/>
<polygon fill="midnightblue" stroke="midnightblue" points="2994.67,-496.014 3001.1,-504.435 3001.33,-493.843 2994.67,-496.014"/>
</g>
<!-- Node50&#45;&gt;Node8 -->
<g id="edge192" class="edge"><title>Node50&#45;&gt;Node8</title>
<path fill="none" stroke="midnightblue" d="M2991.58,-496.335C2946.77,-436.24 2794.42,-231.88 2761.36,-187.535"/>
<polygon fill="midnightblue" stroke="midnightblue" points="2988.81,-498.483 2997.59,-504.408 2994.42,-494.299 2988.81,-498.483"/>
</g>
<!-- Node50&#45;&gt;Node9 -->
<g id="edge185" class="edge"><title>Node50&#45;&gt;Node9</title>
<path fill="none" stroke="midnightblue" d="M3047.27,-510.022C3080.96,-505.616 3127.07,-494.747 3158,-468 3212.96,-420.477 3232.74,-327.933 3237.66,-299.509"/>
<polygon fill="midnightblue" stroke="midnightblue" points="3046.76,-506.557 3037.24,-511.192 3047.57,-513.509 3046.76,-506.557"/>
</g>
<!-- Node50&#45;&gt;Node10 -->
<g id="edge188" class="edge"><title>Node50&#45;&gt;Node10</title>
<path fill="none" stroke="midnightblue" d="M3016.54,-496.227C3022.78,-487.812 3030.37,-477.428 3037,-468 3097.88,-381.415 3168.36,-274.203 3188.42,-243.547"/>
<polygon fill="midnightblue" stroke="midnightblue" points="3013.59,-494.335 3010.43,-504.447 3019.21,-498.513 3013.59,-494.335"/>
</g>
<!-- Node50&#45;&gt;Node11 -->
<g id="edge186" class="edge"><title>Node50&#45;&gt;Node11</title>
<path fill="none" stroke="midnightblue" d="M3010.06,-494.585C3025,-449.135 3063.21,-332.924 3074.08,-299.884"/>
<polygon fill="midnightblue" stroke="midnightblue" points="3006.66,-493.704 3006.86,-504.297 3013.31,-495.891 3006.66,-493.704"/>
</g>
<!-- Node50&#45;&gt;Node34 -->
<g id="edge187" class="edge"><title>Node50&#45;&gt;Node34</title>
<path fill="none" stroke="midnightblue" d="M3047.49,-509.015C3085.26,-503.982 3140.28,-492.756 3182,-468 3259.46,-422.036 3322.49,-328.432 3340.69,-299.629"/>
<polygon fill="midnightblue" stroke="midnightblue" points="3046.81,-505.572 3037.32,-510.276 3047.68,-512.519 3046.81,-505.572"/>
</g>
</g>
</svg>
