<?xml version="1.0" encoding="UTF-8" standalone="no"?>
<!DOCTYPE svg PUBLIC "-//W3C//DTD SVG 1.1//EN"
 "http://www.w3.org/Graphics/SVG/1.1/DTD/svg11.dtd">
<!-- Generated by graphviz version 2.38.0 (20140413.2041)
 -->
<!-- Title: Utility_Tuple.h Pages: 1 -->
<svg width="1667pt" height="308pt"
 viewBox="0.00 0.00 1667.00 308.00" xmlns="http://www.w3.org/2000/svg" xmlns:xlink="http://www.w3.org/1999/xlink">
<g id="graph0" class="graph" transform="scale(1 1) rotate(0) translate(4 304)">
<title>Utility_Tuple.h</title>
<!-- Node1 -->
<g id="node1" class="node"><title>Node1</title>
<polygon fill="#bfbfbf" stroke="black" points="724.5,-280.5 724.5,-299.5 804.5,-299.5 804.5,-280.5 724.5,-280.5"/>
<text text-anchor="middle" x="764.5" y="-287.5" font-family="Helvetica,sans-Serif" font-size="10.00">Utility_Tuple.h</text>
</g>
<!-- Node2 -->
<g id="node2" class="node"><title>Node2</title>
<g id="a_node2"><a xlink:href="../../d9/d2e/a00056.html" target="_top" xlink:title="AddPdf.h">
<polygon fill="none" stroke="black" points="0,-168.5 0,-187.5 57,-187.5 57,-168.5 0,-168.5"/>
<text text-anchor="middle" x="28.5" y="-175.5" font-family="Helvetica,sans-Serif" font-size="10.00">AddPdf.h</text>
</a>
</g>
</g>
<!-- Node1&#45;&gt;Node2 -->
<g id="edge1" class="edge"><title>Node1&#45;&gt;Node2</title>
<path fill="none" stroke="midnightblue" d="M714.135,-287.795C551.885,-283.67 51.9963,-268.977 28.5,-244 14.2728,-228.876 20.4972,-201.914 25.1238,-187.944"/>
<polygon fill="midnightblue" stroke="midnightblue" points="714.241,-291.299 724.325,-288.051 714.417,-284.301 714.241,-291.299"/>
</g>
<!-- Node3 -->
<g id="node3" class="node"><title>Node3</title>
<g id="a_node3"><a xlink:href="../../d1/d22/a00057.html" target="_top" xlink:title="Argument.h">
<polygon fill="none" stroke="black" points="172,-168.5 172,-187.5 239,-187.5 239,-168.5 172,-168.5"/>
<text text-anchor="middle" x="205.5" y="-175.5" font-family="Helvetica,sans-Serif" font-size="10.00">Argument.h</text>
</a>
</g>
</g>
<!-- Node1&#45;&gt;Node3 -->
<g id="edge2" class="edge"><title>Node1&#45;&gt;Node3</title>
<path fill="none" stroke="midnightblue" d="M713.954,-289.108C633.549,-288.07 472.24,-281.017 341.5,-244 294.414,-230.668 243.55,-202.13 219.552,-187.715"/>
<polygon fill="midnightblue" stroke="midnightblue" points="714.25,-292.611 724.285,-289.214 714.321,-285.612 714.25,-292.611"/>
</g>
<!-- Node4 -->
<g id="node4" class="node"><title>Node4</title>
<g id="a_node4"><a xlink:href="../../df/d5d/a00084.html" target="_top" xlink:title="Multiply.h">
<polygon fill="none" stroke="black" points="238,-112.5 238,-131.5 297,-131.5 297,-112.5 238,-112.5"/>
<text text-anchor="middle" x="267.5" y="-119.5" font-family="Helvetica,sans-Serif" font-size="10.00">Multiply.h</text>
</a>
</g>
</g>
<!-- Node1&#45;&gt;Node4 -->
<g id="edge37" class="edge"><title>Node1&#45;&gt;Node4</title>
<path fill="none" stroke="midnightblue" d="M713.938,-289.538C594.067,-290.083 296.05,-286.94 207.5,-244 170.674,-226.142 132.581,-201.908 155.5,-168 173.806,-140.916 211.392,-130.131 237.962,-125.837"/>
<polygon fill="midnightblue" stroke="midnightblue" points="714.314,-293.036 724.294,-289.48 714.275,-286.036 714.314,-293.036"/>
</g>
<!-- Node6 -->
<g id="node6" class="node"><title>Node6</title>
<g id="a_node6"><a xlink:href="../../d3/d8b/a00059.html" target="_top" xlink:title="base_functor.h">
<polygon fill="none" stroke="black" points="372,-224.5 372,-243.5 453,-243.5 453,-224.5 372,-224.5"/>
<text text-anchor="middle" x="412.5" y="-231.5" font-family="Helvetica,sans-Serif" font-size="10.00">base_functor.h</text>
</a>
</g>
</g>
<!-- Node1&#45;&gt;Node6 -->
<g id="edge5" class="edge"><title>Node1&#45;&gt;Node6</title>
<path fill="none" stroke="midnightblue" d="M714.525,-281.333C644.297,-270.56 517.768,-251.149 453.041,-241.219"/>
<polygon fill="midnightblue" stroke="midnightblue" points="714.049,-284.801 724.464,-282.858 715.11,-277.882 714.049,-284.801"/>
</g>
<!-- Node7 -->
<g id="node7" class="node"><title>Node7</title>
<g id="a_node7"><a xlink:href="../../d9/d73/a00060.html" target="_top" xlink:title="Compose.h">
<polygon fill="none" stroke="black" points="316,-112.5 316,-131.5 383,-131.5 383,-112.5 316,-112.5"/>
<text text-anchor="middle" x="349.5" y="-119.5" font-family="Helvetica,sans-Serif" font-size="10.00">Compose.h</text>
</a>
</g>
</g>
<!-- Node1&#45;&gt;Node7 -->
<g id="edge21" class="edge"><title>Node1&#45;&gt;Node7</title>
<path fill="none" stroke="midnightblue" d="M714.077,-289.434C580.254,-289.311 222.242,-280.228 162.5,-188 157.667,-180.54 156.999,-174.982 162.5,-168 167.292,-161.918 263.325,-141.023 315.855,-129.975"/>
<polygon fill="midnightblue" stroke="midnightblue" points="714.449,-292.934 724.446,-289.426 714.443,-285.934 714.449,-292.934"/>
</g>
<!-- Node8 -->
<g id="node8" class="node"><title>Node8</title>
<g id="a_node8"><a xlink:href="../../df/d03/a00062.html" target="_top" xlink:title="Constant.h">
<polygon fill="none" stroke="black" points="296,-168.5 296,-187.5 361,-187.5 361,-168.5 296,-168.5"/>
<text text-anchor="middle" x="328.5" y="-175.5" font-family="Helvetica,sans-Serif" font-size="10.00">Constant.h</text>
</a>
</g>
</g>
<!-- Node1&#45;&gt;Node8 -->
<g id="edge22" class="edge"><title>Node1&#45;&gt;Node8</title>
<path fill="none" stroke="midnightblue" d="M713.983,-289.122C619.043,-288.432 418.5,-282.326 362.5,-244 342.952,-230.622 333.861,-202.371 330.351,-187.921"/>
<polygon fill="midnightblue" stroke="midnightblue" points="714.182,-292.623 724.202,-289.179 714.221,-285.623 714.182,-292.623"/>
</g>
<!-- Node9 -->
<g id="node9" class="node"><title>Node9</title>
<g id="a_node9"><a xlink:href="../../dc/ddf/a00067.html" target="_top" xlink:title="Divide.h">
<polygon fill="none" stroke="black" points="401,-112.5 401,-131.5 454,-131.5 454,-112.5 401,-112.5"/>
<text text-anchor="middle" x="427.5" y="-119.5" font-family="Helvetica,sans-Serif" font-size="10.00">Divide.h</text>
</a>
</g>
</g>
<!-- Node1&#45;&gt;Node9 -->
<g id="edge23" class="edge"><title>Node1&#45;&gt;Node9</title>
<path fill="none" stroke="midnightblue" d="M714.457,-282.681C682.487,-276.738 641.389,-265.396 610.5,-244 575.791,-219.958 587.488,-193.051 553.5,-168 523.396,-145.812 481.321,-133.734 454.24,-127.825"/>
<polygon fill="midnightblue" stroke="midnightblue" points="714.039,-286.161 724.491,-284.427 715.239,-279.265 714.039,-286.161"/>
</g>
<!-- Node10 -->
<g id="node10" class="node"><title>Node10</title>
<g id="a_node10"><a xlink:href="../../d0/d61/a00100.html" target="_top" xlink:title="Sum.h">
<polygon fill="none" stroke="black" points="511,-112.5 511,-131.5 556,-131.5 556,-112.5 511,-112.5"/>
<text text-anchor="middle" x="533.5" y="-119.5" font-family="Helvetica,sans-Serif" font-size="10.00">Sum.h</text>
</a>
</g>
</g>
<!-- Node1&#45;&gt;Node10 -->
<g id="edge40" class="edge"><title>Node1&#45;&gt;Node10</title>
<path fill="none" stroke="midnightblue" d="M714.324,-281.186C687.138,-274.875 654.333,-263.668 630.5,-244 600.567,-219.298 612.367,-197.796 587.5,-168 575.302,-153.384 557.918,-139.871 546.198,-131.544"/>
<polygon fill="midnightblue" stroke="midnightblue" points="713.924,-284.68 724.438,-283.372 715.403,-277.838 713.924,-284.68"/>
</g>
<!-- Node11 -->
<g id="node11" class="node"><title>Node11</title>
<g id="a_node11"><a xlink:href="../../d2/d1f/a00083.html" target="_top" xlink:title="Minus.h">
<polygon fill="none" stroke="black" points="494,-168.5 494,-187.5 545,-187.5 545,-168.5 494,-168.5"/>
<text text-anchor="middle" x="519.5" y="-175.5" font-family="Helvetica,sans-Serif" font-size="10.00">Minus.h</text>
</a>
</g>
</g>
<!-- Node1&#45;&gt;Node11 -->
<g id="edge36" class="edge"><title>Node1&#45;&gt;Node11</title>
<path fill="none" stroke="midnightblue" d="M714.19,-288.714C669.753,-286.121 605.111,-276.398 559.5,-244 539.407,-229.728 527.396,-201.882 522.33,-187.721"/>
<polygon fill="midnightblue" stroke="midnightblue" points="714.03,-292.21 724.188,-289.198 714.369,-285.219 714.03,-292.21"/>
</g>
<!-- Node12 -->
<g id="node12" class="node"><title>Node12</title>
<g id="a_node12"><a xlink:href="../../de/de1/a00065.html" target="_top" xlink:title="DecayMother.h">
<polygon fill="none" stroke="black" points="758,-224.5 758,-243.5 841,-243.5 841,-224.5 758,-224.5"/>
<text text-anchor="middle" x="799.5" y="-231.5" font-family="Helvetica,sans-Serif" font-size="10.00">DecayMother.h</text>
</a>
</g>
</g>
<!-- Node1&#45;&gt;Node12 -->
<g id="edge24" class="edge"><title>Node1&#45;&gt;Node12</title>
<path fill="none" stroke="midnightblue" d="M775.8,-271.566C781.822,-262.275 788.969,-251.248 793.828,-243.751"/>
<polygon fill="midnightblue" stroke="midnightblue" points="772.781,-269.788 770.28,-280.083 778.656,-273.595 772.781,-269.788"/>
</g>
<!-- Node14 -->
<g id="node14" class="node"><title>Node14</title>
<g id="a_node14"><a xlink:href="../../d9/db3/a00066.html" target="_top" xlink:title="DecayMothers.h">
<polygon fill="none" stroke="black" points="859,-224.5 859,-243.5 948,-243.5 948,-224.5 859,-224.5"/>
<text text-anchor="middle" x="903.5" y="-231.5" font-family="Helvetica,sans-Serif" font-size="10.00">DecayMothers.h</text>
</a>
</g>
</g>
<!-- Node1&#45;&gt;Node14 -->
<g id="edge26" class="edge"><title>Node1&#45;&gt;Node14</title>
<path fill="none" stroke="midnightblue" d="M795.976,-276.772C822.085,-266.629 858.539,-252.467 881.578,-243.516"/>
<polygon fill="midnightblue" stroke="midnightblue" points="794.579,-273.56 786.525,-280.444 797.114,-280.085 794.579,-273.56"/>
</g>
<!-- Node15 -->
<g id="node15" class="node"><title>Node15</title>
<g id="a_node15"><a xlink:href="../../d8/d53/a00081.html" target="_top" xlink:title="LogLikelihood.h">
<polygon fill="none" stroke="black" points="1084.5,-112.5 1084.5,-131.5 1168.5,-131.5 1168.5,-112.5 1084.5,-112.5"/>
<text text-anchor="middle" x="1126.5" y="-119.5" font-family="Helvetica,sans-Serif" font-size="10.00">LogLikelihood.h</text>
</a>
</g>
</g>
<!-- Node1&#45;&gt;Node15 -->
<g id="edge28" class="edge"><title>Node1&#45;&gt;Node15</title>
<path fill="none" stroke="midnightblue" d="M814.642,-286.947C889.39,-282.992 1025.44,-272.068 1064.5,-244 1103.99,-215.626 1120.07,-154.566 1124.85,-131.797"/>
<polygon fill="midnightblue" stroke="midnightblue" points="814.329,-283.458 804.518,-287.46 814.683,-290.45 814.329,-283.458"/>
</g>
<!-- Node16 -->
<g id="node16" class="node"><title>Node16</title>
<g id="a_node16"><a xlink:href="../../d2/db1/a00070.html" target="_top" xlink:title="FCN.h">
<polygon fill="none" stroke="black" points="1135.5,-56.5 1135.5,-75.5 1181.5,-75.5 1181.5,-56.5 1135.5,-56.5"/>
<text text-anchor="middle" x="1158.5" y="-63.5" font-family="Helvetica,sans-Serif" font-size="10.00">FCN.h</text>
</a>
</g>
</g>
<!-- Node1&#45;&gt;Node16 -->
<g id="edge44" class="edge"><title>Node1&#45;&gt;Node16</title>
<path fill="none" stroke="midnightblue" d="M814.868,-288.45C913.737,-286.611 1129.18,-278.626 1193.5,-244 1228.27,-225.285 1252.59,-205.249 1239.5,-168 1225.34,-127.709 1187.58,-91.5901 1169.05,-75.6441"/>
<polygon fill="midnightblue" stroke="midnightblue" points="814.76,-284.952 804.822,-288.623 814.881,-291.951 814.76,-284.952"/>
</g>
<!-- Node17 -->
<g id="node17" class="node"><title>Node17</title>
<g id="a_node17"><a xlink:href="../../d4/d63/a00082.html" target="_top" xlink:title="LogLikelihoodFCN.h">
<polygon fill="none" stroke="black" points="1055,-0.5 1055,-19.5 1160,-19.5 1160,-0.5 1055,-0.5"/>
<text text-anchor="middle" x="1107.5" y="-7.5" font-family="Helvetica,sans-Serif" font-size="10.00">LogLikelihoodFCN.h</text>
</a>
</g>
</g>
<!-- Node1&#45;&gt;Node17 -->
<g id="edge49" class="edge"><title>Node1&#45;&gt;Node17</title>
<path fill="none" stroke="midnightblue" d="M814.651,-286.778C882.909,-282.736 1000.17,-271.85 1031.5,-244 1053.99,-224.003 1050.5,-209.098 1050.5,-179 1050.5,-179 1050.5,-179 1050.5,-121 1050.5,-79.0577 1083.57,-37.1882 1099.33,-19.6161"/>
<polygon fill="midnightblue" stroke="midnightblue" points="814.332,-283.29 804.545,-287.348 814.726,-290.279 814.332,-283.29"/>
</g>
<!-- Node18 -->
<g id="node18" class="node"><title>Node18</title>
<g id="a_node18"><a xlink:href="../../d4/d7d/a00093.html" target="_top" xlink:title="ProcessCallsPlain.h">
<polygon fill="none" stroke="black" points="1425,-224.5 1425,-243.5 1530,-243.5 1530,-224.5 1425,-224.5"/>
<text text-anchor="middle" x="1477.5" y="-231.5" font-family="Helvetica,sans-Serif" font-size="10.00">ProcessCallsPlain.h</text>
</a>
</g>
</g>
<!-- Node1&#45;&gt;Node18 -->
<g id="edge32" class="edge"><title>Node1&#45;&gt;Node18</title>
<path fill="none" stroke="midnightblue" d="M814.677,-286.819C924.052,-281.782 1192.06,-267.906 1415.5,-244 1418.53,-243.676 1421.64,-243.315 1424.77,-242.93"/>
<polygon fill="midnightblue" stroke="midnightblue" points="814.425,-283.326 804.594,-287.279 814.744,-290.319 814.425,-283.326"/>
</g>
<!-- Node20 -->
<g id="node20" class="node"><title>Node20</title>
<g id="a_node20"><a xlink:href="../../dc/d54/a00094.html" target="_top" xlink:title="ProcessCallsVegas.h">
<polygon fill="none" stroke="black" points="1548,-224.5 1548,-243.5 1659,-243.5 1659,-224.5 1548,-224.5"/>
<text text-anchor="middle" x="1603.5" y="-231.5" font-family="Helvetica,sans-Serif" font-size="10.00">ProcessCallsVegas.h</text>
</a>
</g>
</g>
<!-- Node1&#45;&gt;Node20 -->
<g id="edge34" class="edge"><title>Node1&#45;&gt;Node20</title>
<path fill="none" stroke="midnightblue" d="M815.174,-287.449C938.95,-283.357 1266.46,-270.699 1538.5,-244 1541.56,-243.7 1544.7,-243.362 1547.87,-243"/>
<polygon fill="midnightblue" stroke="midnightblue" points="814.757,-283.961 804.876,-287.785 814.985,-290.957 814.757,-283.961"/>
</g>
<!-- Node22 -->
<g id="node22" class="node"><title>Node22</title>
<g id="a_node22"><a xlink:href="../../d9/df8/a00096.html" target="_top" xlink:title="RandomUtils.h">
<polygon fill="none" stroke="black" points="1324.5,-224.5 1324.5,-243.5 1406.5,-243.5 1406.5,-224.5 1324.5,-224.5"/>
<text text-anchor="middle" x="1365.5" y="-231.5" font-family="Helvetica,sans-Serif" font-size="10.00">RandomUtils.h</text>
</a>
</g>
</g>
<!-- Node1&#45;&gt;Node22 -->
<g id="edge38" class="edge"><title>Node1&#45;&gt;Node22</title>
<path fill="none" stroke="midnightblue" d="M814.731,-286.207C911.106,-280.551 1128.56,-266.347 1310.5,-244 1315.01,-243.446 1319.72,-242.791 1324.41,-242.093"/>
<polygon fill="midnightblue" stroke="midnightblue" points="814.465,-282.717 804.685,-286.792 814.872,-289.705 814.465,-282.717"/>
</g>
<!-- Node23 -->
<g id="node23" class="node"><title>Node23</title>
<g id="a_node23"><a xlink:href="../../d9/d77/a00095.html" target="_top" xlink:title="Random.h">
<polygon fill="none" stroke="black" points="1286.5,-112.5 1286.5,-131.5 1348.5,-131.5 1348.5,-112.5 1286.5,-112.5"/>
<text text-anchor="middle" x="1317.5" y="-119.5" font-family="Helvetica,sans-Serif" font-size="10.00">Random.h</text>
</a>
</g>
</g>
<!-- Node1&#45;&gt;Node23 -->
<g id="edge58" class="edge"><title>Node1&#45;&gt;Node23</title>
<path fill="none" stroke="midnightblue" d="M814.759,-287.563C935.89,-283.677 1236.63,-271.357 1272.5,-244 1309.39,-215.866 1316.04,-154.117 1317.24,-131.51"/>
<polygon fill="midnightblue" stroke="midnightblue" points="814.522,-284.068 804.637,-287.881 814.742,-291.065 814.522,-284.068"/>
</g>
<!-- Node24 -->
<g id="node24" class="node"><title>Node24</title>
<g id="a_node24"><a xlink:href="../../da/d24/a00068.html" target="_top" xlink:title="Evaluate.h">
<polygon fill="none" stroke="black" points="795,-168.5 795,-187.5 858,-187.5 858,-168.5 795,-168.5"/>
<text text-anchor="middle" x="826.5" y="-175.5" font-family="Helvetica,sans-Serif" font-size="10.00">Evaluate.h</text>
</a>
</g>
</g>
<!-- Node1&#45;&gt;Node24 -->
<g id="edge41" class="edge"><title>Node1&#45;&gt;Node24</title>
<path fill="none" stroke="midnightblue" d="M753.542,-271.576C746.451,-257.887 739.988,-238.739 748.5,-224 758.977,-205.859 779.857,-194.38 797.379,-187.559"/>
<polygon fill="midnightblue" stroke="midnightblue" points="750.607,-273.495 758.61,-280.438 756.684,-270.019 750.607,-273.495"/>
</g>
<!-- Node25 -->
<g id="node25" class="node"><title>Node25</title>
<g id="a_node25"><a xlink:href="../../d4/d31/a00069.html" target="_top" xlink:title="Events.h">
<polygon fill="none" stroke="black" points="966.5,-224.5 966.5,-243.5 1022.5,-243.5 1022.5,-224.5 966.5,-224.5"/>
<text text-anchor="middle" x="994.5" y="-231.5" font-family="Helvetica,sans-Serif" font-size="10.00">Events.h</text>
</a>
</g>
</g>
<!-- Node1&#45;&gt;Node25 -->
<g id="edge42" class="edge"><title>Node1&#45;&gt;Node25</title>
<path fill="none" stroke="midnightblue" d="M810.931,-278.15C849.821,-269.054 906.79,-255.712 956.5,-244 959.668,-243.254 962.983,-242.471 966.28,-241.691"/>
<polygon fill="midnightblue" stroke="midnightblue" points="809.897,-274.797 800.956,-280.482 811.491,-281.613 809.897,-274.797"/>
</g>
<!-- Node26 -->
<g id="node26" class="node"><title>Node26</title>
<g id="a_node26"><a xlink:href="../../d6/d2c/a00072.html" target="_top" xlink:title="Function.h">
<polygon fill="none" stroke="black" points="639.5,-224.5 639.5,-243.5 701.5,-243.5 701.5,-224.5 639.5,-224.5"/>
<text text-anchor="middle" x="670.5" y="-231.5" font-family="Helvetica,sans-Serif" font-size="10.00">Function.h</text>
</a>
</g>
</g>
<!-- Node1&#45;&gt;Node26 -->
<g id="edge45" class="edge"><title>Node1&#45;&gt;Node26</title>
<path fill="none" stroke="midnightblue" d="M740.438,-275.177C723.141,-265.241 700.352,-252.149 685.565,-243.655"/>
<polygon fill="midnightblue" stroke="midnightblue" points="738.983,-278.378 749.397,-280.324 742.47,-272.308 738.983,-278.378"/>
</g>
<!-- Node28 -->
<g id="node28" class="node"><title>Node28</title>
<g id="a_node28"><a xlink:href="../../da/d2a/a00086.html" target="_top" xlink:title="Pdf.h">
<polygon fill="none" stroke="black" points="37.5,-224.5 37.5,-243.5 77.5,-243.5 77.5,-224.5 37.5,-224.5"/>
<text text-anchor="middle" x="57.5" y="-231.5" font-family="Helvetica,sans-Serif" font-size="10.00">Pdf.h</text>
</a>
</g>
</g>
<!-- Node1&#45;&gt;Node28 -->
<g id="edge50" class="edge"><title>Node1&#45;&gt;Node28</title>
<path fill="none" stroke="midnightblue" d="M714.348,-288.924C602.032,-288.041 322.054,-281.862 91.5,-244 87.0412,-243.268 82.3192,-242.207 77.8588,-241.068"/>
<polygon fill="midnightblue" stroke="midnightblue" points="714.346,-292.424 724.37,-288.992 714.394,-285.424 714.346,-292.424"/>
</g>
<!-- Node29 -->
<g id="node29" class="node"><title>Node29</title>
<g id="a_node29"><a xlink:href="../../d9/dec/a00090.html" target="_top" xlink:title="Point.h">
<polygon fill="none" stroke="black" points="1117,-224.5 1117,-243.5 1164,-243.5 1164,-224.5 1117,-224.5"/>
<text text-anchor="middle" x="1140.5" y="-231.5" font-family="Helvetica,sans-Serif" font-size="10.00">Point.h</text>
</a>
</g>
</g>
<!-- Node1&#45;&gt;Node29 -->
<g id="edge52" class="edge"><title>Node1&#45;&gt;Node29</title>
<path fill="none" stroke="midnightblue" d="M814.664,-283.911C880.883,-276.83 1000.96,-262.735 1102.5,-244 1107.17,-243.139 1112.12,-242.076 1116.86,-240.986"/>
<polygon fill="midnightblue" stroke="midnightblue" points="814.085,-280.452 804.509,-284.987 814.822,-287.413 814.085,-280.452"/>
</g>
<!-- Node30 -->
<g id="node30" class="node"><title>Node30</title>
<g id="a_node30"><a xlink:href="../../da/d82/a00091.html" target="_top" xlink:title="PointVector.h">
<polygon fill="none" stroke="black" points="1154.5,-168.5 1154.5,-187.5 1230.5,-187.5 1230.5,-168.5 1154.5,-168.5"/>
<text text-anchor="middle" x="1192.5" y="-175.5" font-family="Helvetica,sans-Serif" font-size="10.00">PointVector.h</text>
</a>
</g>
</g>
<!-- Node1&#45;&gt;Node30 -->
<g id="edge57" class="edge"><title>Node1&#45;&gt;Node30</title>
<path fill="none" stroke="midnightblue" d="M814.86,-286.515C917.903,-280.993 1145.42,-266.395 1172.5,-244 1189.42,-230.003 1192.31,-202.032 1192.63,-187.782"/>
<polygon fill="midnightblue" stroke="midnightblue" points="814.498,-283.029 804.697,-287.051 814.867,-290.019 814.498,-283.029"/>
</g>
<!-- Node3&#45;&gt;Node4 -->
<g id="edge3" class="edge"><title>Node3&#45;&gt;Node4</title>
<path fill="none" stroke="midnightblue" d="M223.254,-161.537C234.308,-151.909 248.131,-139.869 257.357,-131.834"/>
<polygon fill="midnightblue" stroke="midnightblue" points="220.703,-159.117 215.461,-168.324 225.301,-164.395 220.703,-159.117"/>
</g>
<!-- Node5 -->
<g id="node5" class="node"><title>Node5</title>
<g id="a_node5"><a xlink:href="../../db/db6/a00074.html" target="_top" xlink:title="FunctorArithmetic.h">
<polygon fill="none" stroke="black" points="376.5,-56.5 376.5,-75.5 478.5,-75.5 478.5,-56.5 376.5,-56.5"/>
<text text-anchor="middle" x="427.5" y="-63.5" font-family="Helvetica,sans-Serif" font-size="10.00">FunctorArithmetic.h</text>
</a>
</g>
</g>
<!-- Node4&#45;&gt;Node5 -->
<g id="edge4" class="edge"><title>Node4&#45;&gt;Node5</title>
<path fill="none" stroke="midnightblue" d="M302.546,-109.172C332.674,-99.0039 375.396,-84.5852 402.266,-75.5164"/>
<polygon fill="midnightblue" stroke="midnightblue" points="301.208,-105.929 292.852,-112.444 303.447,-112.562 301.208,-105.929"/>
</g>
<!-- Node6&#45;&gt;Node3 -->
<g id="edge6" class="edge"><title>Node6&#45;&gt;Node3</title>
<path fill="none" stroke="midnightblue" d="M369.678,-221.829C330.594,-211.633 273.665,-196.782 238.146,-187.516"/>
<polygon fill="midnightblue" stroke="midnightblue" points="369.141,-225.306 379.7,-224.444 370.908,-218.533 369.141,-225.306"/>
</g>
<!-- Node6&#45;&gt;Node4 -->
<g id="edge19" class="edge"><title>Node6&#45;&gt;Node4</title>
<path fill="none" stroke="midnightblue" d="M361.778,-226.036C336.028,-220.014 306.126,-208.812 286.5,-188 271.658,-172.261 268.336,-145.568 267.641,-131.798"/>
<polygon fill="midnightblue" stroke="midnightblue" points="361.269,-229.506 371.779,-228.171 362.73,-222.66 361.269,-229.506"/>
</g>
<!-- Node6&#45;&gt;Node7 -->
<g id="edge7" class="edge"><title>Node6&#45;&gt;Node7</title>
<path fill="none" stroke="midnightblue" d="M402.557,-215.64C388.871,-191.744 364.751,-149.629 354.421,-131.591"/>
<polygon fill="midnightblue" stroke="midnightblue" points="399.549,-217.43 407.556,-224.368 405.624,-213.951 399.549,-217.43"/>
</g>
<!-- Node6&#45;&gt;Node8 -->
<g id="edge9" class="edge"><title>Node6&#45;&gt;Node8</title>
<path fill="none" stroke="midnightblue" d="M390.568,-218.901C375.165,-208.999 355.054,-196.071 341.963,-187.655"/>
<polygon fill="midnightblue" stroke="midnightblue" points="388.699,-221.86 399.004,-224.324 392.485,-215.972 388.699,-221.86"/>
</g>
<!-- Node6&#45;&gt;Node9 -->
<g id="edge16" class="edge"><title>Node6&#45;&gt;Node9</title>
<path fill="none" stroke="midnightblue" d="M415.043,-214.348C418.329,-190.254 423.913,-149.308 426.328,-131.591"/>
<polygon fill="midnightblue" stroke="midnightblue" points="411.56,-213.987 413.677,-224.368 418.496,-214.933 411.56,-213.987"/>
</g>
<!-- Node6&#45;&gt;Node10 -->
<g id="edge20" class="edge"><title>Node6&#45;&gt;Node10</title>
<path fill="none" stroke="midnightblue" d="M429.537,-217.512C455.392,-194.007 503.679,-150.11 524.049,-131.591"/>
<polygon fill="midnightblue" stroke="midnightblue" points="427.04,-215.052 421.995,-224.368 431.748,-220.232 427.04,-215.052"/>
</g>
<!-- Node6&#45;&gt;Node11 -->
<g id="edge17" class="edge"><title>Node6&#45;&gt;Node11</title>
<path fill="none" stroke="midnightblue" d="M438.802,-219.726C458.615,-209.727 485.207,-196.307 502.351,-187.655"/>
<polygon fill="midnightblue" stroke="midnightblue" points="437.042,-216.694 429.691,-224.324 440.196,-222.943 437.042,-216.694"/>
</g>
<!-- Node7&#45;&gt;Node5 -->
<g id="edge8" class="edge"><title>Node7&#45;&gt;Node5</title>
<path fill="none" stroke="midnightblue" d="M370.268,-106.622C384.517,-96.7574 402.956,-83.9919 414.999,-75.6545"/>
<polygon fill="midnightblue" stroke="midnightblue" points="368.262,-103.754 362.032,-112.324 372.246,-109.51 368.262,-103.754"/>
</g>
<!-- Node8&#45;&gt;Node4 -->
<g id="edge13" class="edge"><title>Node8&#45;&gt;Node4</title>
<path fill="none" stroke="midnightblue" d="M311.033,-161.537C300.156,-151.909 286.556,-139.869 277.479,-131.834"/>
<polygon fill="midnightblue" stroke="midnightblue" points="308.892,-164.316 318.699,-168.324 313.532,-159.075 308.892,-164.316"/>
</g>
<!-- Node8&#45;&gt;Node7 -->
<g id="edge10" class="edge"><title>Node8&#45;&gt;Node7</title>
<path fill="none" stroke="midnightblue" d="M335.621,-158.69C339.16,-149.589 343.272,-139.014 346.097,-131.751"/>
<polygon fill="midnightblue" stroke="midnightblue" points="332.33,-157.494 331.968,-168.083 338.854,-160.032 332.33,-157.494"/>
</g>
<!-- Node8&#45;&gt;Node9 -->
<g id="edge11" class="edge"><title>Node8&#45;&gt;Node9</title>
<path fill="none" stroke="midnightblue" d="M353.337,-163.453C371.614,-153.483 395.916,-140.228 411.633,-131.655"/>
<polygon fill="midnightblue" stroke="midnightblue" points="351.509,-160.463 344.406,-168.324 354.861,-166.608 351.509,-160.463"/>
</g>
<!-- Node8&#45;&gt;Node10 -->
<g id="edge14" class="edge"><title>Node8&#45;&gt;Node10</title>
<path fill="none" stroke="midnightblue" d="M370.776,-165.864C413.326,-154.656 477.332,-137.795 510.985,-128.931"/>
<polygon fill="midnightblue" stroke="midnightblue" points="369.761,-162.512 360.983,-168.444 371.545,-169.281 369.761,-162.512"/>
</g>
<!-- Node9&#45;&gt;Node5 -->
<g id="edge12" class="edge"><title>Node9&#45;&gt;Node5</title>
<path fill="none" stroke="midnightblue" d="M427.5,-101.805C427.5,-92.9102 427.5,-82.7798 427.5,-75.7511"/>
<polygon fill="midnightblue" stroke="midnightblue" points="424,-102.083 427.5,-112.083 431,-102.083 424,-102.083"/>
</g>
<!-- Node10&#45;&gt;Node5 -->
<g id="edge15" class="edge"><title>Node10&#45;&gt;Node5</title>
<path fill="none" stroke="midnightblue" d="M507.444,-107.726C487.816,-97.7271 461.472,-84.3065 444.488,-75.6545"/>
<polygon fill="midnightblue" stroke="midnightblue" points="505.97,-110.903 516.469,-112.324 509.148,-104.666 505.97,-110.903"/>
</g>
<!-- Node11&#45;&gt;Node5 -->
<g id="edge18" class="edge"><title>Node11&#45;&gt;Node5</title>
<path fill="none" stroke="midnightblue" d="M505.772,-160.586C485.937,-136.871 449.972,-93.8691 434.686,-75.5914"/>
<polygon fill="midnightblue" stroke="midnightblue" points="503.181,-162.943 512.281,-168.368 508.55,-158.452 503.181,-162.943"/>
</g>
<!-- Node13 -->
<g id="node13" class="node"><title>Node13</title>
<g id="a_node13"><a xlink:href="../../d1/d1e/a00087.html" target="_top" xlink:title="Implements the struct Events and the class PhaseSpace. ">
<polygon fill="none" stroke="black" points="876.5,-168.5 876.5,-187.5 956.5,-187.5 956.5,-168.5 876.5,-168.5"/>
<text text-anchor="middle" x="916.5" y="-175.5" font-family="Helvetica,sans-Serif" font-size="10.00">PhaseSpace.h</text>
</a>
</g>
</g>
<!-- Node12&#45;&gt;Node13 -->
<g id="edge25" class="edge"><title>Node12&#45;&gt;Node13</title>
<path fill="none" stroke="midnightblue" d="M827.164,-220.232C849.049,-210.131 878.997,-196.309 898.048,-187.516"/>
<polygon fill="midnightblue" stroke="midnightblue" points="825.652,-217.075 818.039,-224.444 828.585,-223.431 825.652,-217.075"/>
</g>
<!-- Node14&#45;&gt;Node13 -->
<g id="edge27" class="edge"><title>Node14&#45;&gt;Node13</title>
<path fill="none" stroke="midnightblue" d="M908.05,-214.101C910.208,-205.136 912.682,-194.858 914.393,-187.751"/>
<polygon fill="midnightblue" stroke="midnightblue" points="904.585,-213.542 905.647,-224.083 911.39,-215.18 904.585,-213.542"/>
</g>
<!-- Node15&#45;&gt;Node16 -->
<g id="edge29" class="edge"><title>Node15&#45;&gt;Node16</title>
<path fill="none" stroke="midnightblue" d="M1137,-103.275C1142.47,-94.0454 1148.92,-83.1703 1153.31,-75.7511"/>
<polygon fill="midnightblue" stroke="midnightblue" points="1133.87,-101.696 1131.78,-112.083 1139.89,-105.264 1133.87,-101.696"/>
</g>
<!-- Node15&#45;&gt;Node17 -->
<g id="edge31" class="edge"><title>Node15&#45;&gt;Node17</title>
<path fill="none" stroke="midnightblue" d="M1123.28,-102.348C1119.12,-78.2538 1112.04,-37.3079 1108.98,-19.5914"/>
<polygon fill="midnightblue" stroke="midnightblue" points="1119.86,-103.11 1125.01,-112.368 1126.76,-101.919 1119.86,-103.11"/>
</g>
<!-- Node16&#45;&gt;Node17 -->
<g id="edge30" class="edge"><title>Node16&#45;&gt;Node17</title>
<path fill="none" stroke="midnightblue" d="M1143.12,-48.7175C1134.13,-39.1997 1123.14,-27.5608 1115.76,-19.7511"/>
<polygon fill="midnightblue" stroke="midnightblue" points="1140.67,-51.216 1150.08,-56.083 1145.76,-46.4096 1140.67,-51.216"/>
</g>
<!-- Node19 -->
<g id="node19" class="node"><title>Node19</title>
<g id="a_node19"><a xlink:href="../../db/ddf/a00088.html" target="_top" xlink:title="Plain.h">
<polygon fill="none" stroke="black" points="1454,-168.5 1454,-187.5 1501,-187.5 1501,-168.5 1454,-168.5"/>
<text text-anchor="middle" x="1477.5" y="-175.5" font-family="Helvetica,sans-Serif" font-size="10.00">Plain.h</text>
</a>
</g>
</g>
<!-- Node18&#45;&gt;Node19 -->
<g id="edge33" class="edge"><title>Node18&#45;&gt;Node19</title>
<path fill="none" stroke="midnightblue" d="M1477.5,-213.805C1477.5,-204.91 1477.5,-194.78 1477.5,-187.751"/>
<polygon fill="midnightblue" stroke="midnightblue" points="1474,-214.083 1477.5,-224.083 1481,-214.083 1474,-214.083"/>
</g>
<!-- Node21 -->
<g id="node21" class="node"><title>Node21</title>
<g id="a_node21"><a xlink:href="../../df/d98/a00107.html" target="_top" xlink:title="Vegas.h">
<polygon fill="none" stroke="black" points="1577,-168.5 1577,-187.5 1630,-187.5 1630,-168.5 1577,-168.5"/>
<text text-anchor="middle" x="1603.5" y="-175.5" font-family="Helvetica,sans-Serif" font-size="10.00">Vegas.h</text>
</a>
</g>
</g>
<!-- Node20&#45;&gt;Node21 -->
<g id="edge35" class="edge"><title>Node20&#45;&gt;Node21</title>
<path fill="none" stroke="midnightblue" d="M1603.5,-213.805C1603.5,-204.91 1603.5,-194.78 1603.5,-187.751"/>
<polygon fill="midnightblue" stroke="midnightblue" points="1600,-214.083 1603.5,-224.083 1607,-214.083 1600,-214.083"/>
</g>
<!-- Node22&#45;&gt;Node23 -->
<g id="edge39" class="edge"><title>Node22&#45;&gt;Node23</title>
<path fill="none" stroke="midnightblue" d="M1357.64,-214.998C1347.17,-190.997 1329.05,-149.468 1321.25,-131.591"/>
<polygon fill="midnightblue" stroke="midnightblue" points="1354.53,-216.603 1361.73,-224.368 1360.94,-213.803 1354.53,-216.603"/>
</g>
<!-- Node25&#45;&gt;Node13 -->
<g id="edge43" class="edge"><title>Node25&#45;&gt;Node13</title>
<path fill="none" stroke="midnightblue" d="M973.732,-218.622C959.483,-208.757 941.044,-195.992 929.001,-187.655"/>
<polygon fill="midnightblue" stroke="midnightblue" points="971.754,-221.51 981.968,-224.324 975.738,-215.754 971.754,-221.51"/>
</g>
<!-- Node26&#45;&gt;Node10 -->
<g id="edge46" class="edge"><title>Node26&#45;&gt;Node10</title>
<path fill="none" stroke="midnightblue" d="M661.465,-215.144C653.548,-200.915 640.91,-181.248 625.5,-168 604.871,-150.266 576.038,-137.656 556.176,-130.379"/>
<polygon fill="midnightblue" stroke="midnightblue" points="658.586,-217.185 666.368,-224.374 664.768,-213.901 658.586,-217.185"/>
</g>
<!-- Node26&#45;&gt;Node24 -->
<g id="edge47" class="edge"><title>Node26&#45;&gt;Node24</title>
<path fill="none" stroke="midnightblue" d="M704.67,-221.172C734.044,-211.004 775.698,-196.585 801.897,-187.516"/>
<polygon fill="midnightblue" stroke="midnightblue" points="703.524,-217.865 695.219,-224.444 705.813,-224.48 703.524,-217.865"/>
</g>
<!-- Node27 -->
<g id="node27" class="node"><title>Node27</title>
<g id="a_node27"><a xlink:href="../../d1/d6e/a00073.html" target="_top" xlink:title="FunctionWrapper.h">
<polygon fill="none" stroke="black" points="678,-168.5 678,-187.5 777,-187.5 777,-168.5 678,-168.5"/>
<text text-anchor="middle" x="727.5" y="-175.5" font-family="Helvetica,sans-Serif" font-size="10.00">FunctionWrapper.h</text>
</a>
</g>
</g>
<!-- Node26&#45;&gt;Node27 -->
<g id="edge48" class="edge"><title>Node26&#45;&gt;Node27</title>
<path fill="none" stroke="midnightblue" d="M687.121,-217.253C697.234,-207.673 709.777,-195.791 718.175,-187.834"/>
<polygon fill="midnightblue" stroke="midnightblue" points="684.51,-214.906 679.658,-224.324 689.325,-219.987 684.51,-214.906"/>
</g>
<!-- Node28&#45;&gt;Node2 -->
<g id="edge51" class="edge"><title>Node28&#45;&gt;Node2</title>
<path fill="none" stroke="midnightblue" d="M47.8241,-214.983C42.9016,-205.817 37.1421,-195.092 33.1997,-187.751"/>
<polygon fill="midnightblue" stroke="midnightblue" points="44.8964,-216.929 52.7112,-224.083 51.0634,-213.617 44.8964,-216.929"/>
</g>
<!-- Node29&#45;&gt;Node15 -->
<g id="edge53" class="edge"><title>Node29&#45;&gt;Node15</title>
<path fill="none" stroke="midnightblue" d="M1138.13,-214.348C1135.06,-190.254 1129.85,-149.308 1127.59,-131.591"/>
<polygon fill="midnightblue" stroke="midnightblue" points="1134.67,-214.89 1139.4,-224.368 1141.61,-214.007 1134.67,-214.89"/>
</g>
<!-- Node29&#45;&gt;Node30 -->
<g id="edge54" class="edge"><title>Node29&#45;&gt;Node30</title>
<path fill="none" stroke="midnightblue" d="M1156.18,-216.718C1165.34,-207.2 1176.55,-195.561 1184.07,-187.751"/>
<polygon fill="midnightblue" stroke="midnightblue" points="1153.5,-214.452 1149.09,-224.083 1158.54,-219.308 1153.5,-214.452"/>
</g>
<!-- Node30&#45;&gt;Node15 -->
<g id="edge55" class="edge"><title>Node30&#45;&gt;Node15</title>
<path fill="none" stroke="midnightblue" d="M1173.95,-161.82C1162.12,-152.145 1147.21,-139.948 1137.3,-131.834"/>
<polygon fill="midnightblue" stroke="midnightblue" points="1171.94,-164.7 1181.9,-168.324 1176.37,-159.283 1171.94,-164.7"/>
</g>
<!-- Node30&#45;&gt;Node23 -->
<g id="edge56" class="edge"><title>Node30&#45;&gt;Node23</title>
<path fill="none" stroke="midnightblue" d="M1221.74,-164.368C1245.15,-154.255 1277.34,-140.349 1297.79,-131.516"/>
<polygon fill="midnightblue" stroke="midnightblue" points="1220.1,-161.265 1212.31,-168.444 1222.87,-167.691 1220.1,-161.265"/>
</g>
</g>
</svg>
