<?xml version="1.0" encoding="UTF-8" standalone="no"?>
<!DOCTYPE svg PUBLIC "-//W3C//DTD SVG 1.1//EN"
 "http://www.w3.org/Graphics/SVG/1.1/DTD/svg11.dtd">
<!-- Generated by graphviz version 2.38.0 (20140413.2041)
 -->
<!-- Title: hydra::Vector4R::get Pages: 1 -->
<svg width="451pt" height="242pt"
 viewBox="0.00 0.00 451.00 241.50" xmlns="http://www.w3.org/2000/svg" xmlns:xlink="http://www.w3.org/1999/xlink">
<g id="graph0" class="graph" transform="scale(1 1) rotate(0) translate(4 237.5)">
<title>hydra::Vector4R::get</title>
<!-- Node1 -->
<g id="node1" class="node"><title>Node1</title>
<polygon fill="#bfbfbf" stroke="black" points="0,-104.5 0,-123.5 107,-123.5 107,-104.5 0,-104.5"/>
<text text-anchor="middle" x="53.5" y="-111.5" font-family="Helvetica,sans-Serif" font-size="10.00">hydra::Vector4R::get</text>
</g>
<!-- Node2 -->
<g id="node2" class="node"><title>Node2</title>
<g id="a_node2"><a xlink:href="../../da/d2a/a00086.html#ac30a0beccf6db256aa597c079ee4e2f2" target="_top" xlink:title="hydra::Vector4R::applyBoostTo">
<polygon fill="none" stroke="black" points="143,-164.5 143,-183.5 297,-183.5 297,-164.5 143,-164.5"/>
<text text-anchor="middle" x="220" y="-171.5" font-family="Helvetica,sans-Serif" font-size="10.00">hydra::Vector4R::applyBoostTo</text>
</a>
</g>
</g>
<!-- Node1&#45;&gt;Node2 -->
<g id="edge1" class="edge"><title>Node1&#45;&gt;Node2</title>
<path fill="none" stroke="midnightblue" d="M85.8488,-127.47C102.668,-134.514 123.826,-143.085 143,-150 157.188,-155.116 173.072,-160.227 186.635,-164.409"/>
<polygon fill="midnightblue" stroke="midnightblue" points="87.0691,-124.186 76.495,-123.523 84.3476,-130.635 87.0691,-124.186"/>
</g>
<!-- Node4 -->
<g id="node4" class="node"><title>Node4</title>
<g id="a_node4"><a xlink:href="../../db/db2/a00020.html#a2a57eb5a3b47dc976ec7d8794d408a6b" target="_top" xlink:title="hydra::DecayMothers\l::process">
<polygon fill="none" stroke="black" points="333,-203 333,-233 443,-233 443,-203 333,-203"/>
<text text-anchor="start" x="341" y="-221" font-family="Helvetica,sans-Serif" font-size="10.00">hydra::DecayMothers</text>
<text text-anchor="middle" x="388" y="-210" font-family="Helvetica,sans-Serif" font-size="10.00">::process</text>
</a>
</g>
</g>
<!-- Node1&#45;&gt;Node4 -->
<g id="edge7" class="edge"><title>Node1&#45;&gt;Node4</title>
<path fill="none" stroke="midnightblue" d="M68.1301,-131.436C83.9175,-150.21 111.788,-179.233 143,-193 203.974,-219.895 281.586,-223.25 332.706,-221.795"/>
<polygon fill="midnightblue" stroke="midnightblue" points="70.7905,-129.16 61.7581,-123.622 65.3658,-133.584 70.7905,-129.16"/>
</g>
<!-- Node5 -->
<g id="node5" class="node"><title>Node5</title>
<g id="a_node5"><a xlink:href="../../dd/da2/a00019.html#a6a6394b7f9379537cd51122949b45463" target="_top" xlink:title="hydra::DecayMother\l::process">
<polygon fill="none" stroke="black" points="335.5,-115 335.5,-145 440.5,-145 440.5,-115 335.5,-115"/>
<text text-anchor="start" x="343.5" y="-133" font-family="Helvetica,sans-Serif" font-size="10.00">hydra::DecayMother</text>
<text text-anchor="middle" x="388" y="-122" font-family="Helvetica,sans-Serif" font-size="10.00">::process</text>
</a>
</g>
</g>
<!-- Node1&#45;&gt;Node5 -->
<g id="edge8" class="edge"><title>Node1&#45;&gt;Node5</title>
<path fill="none" stroke="midnightblue" d="M117.409,-117.027C180.531,-120.065 276.591,-124.687 335.381,-127.516"/>
<polygon fill="midnightblue" stroke="midnightblue" points="117.342,-113.52 107.186,-116.535 117.006,-120.512 117.342,-113.52"/>
</g>
<!-- Node6 -->
<g id="node6" class="node"><title>Node6</title>
<g id="a_node6"><a xlink:href="../../dd/da2/a00019.html#aae39e61930903a9164d31d590ea583f0" target="_top" xlink:title="hydra::DecayMother\l::DecayMother">
<polygon fill="none" stroke="black" points="167.5,-77 167.5,-107 272.5,-107 272.5,-77 167.5,-77"/>
<text text-anchor="start" x="175.5" y="-95" font-family="Helvetica,sans-Serif" font-size="10.00">hydra::DecayMother</text>
<text text-anchor="middle" x="220" y="-84" font-family="Helvetica,sans-Serif" font-size="10.00">::DecayMother</text>
</a>
</g>
</g>
<!-- Node1&#45;&gt;Node6 -->
<g id="edge5" class="edge"><title>Node1&#45;&gt;Node6</title>
<path fill="none" stroke="midnightblue" d="M117.137,-105.623C133.692,-103.409 151.373,-101.044 167.278,-98.9172"/>
<polygon fill="midnightblue" stroke="midnightblue" points="116.449,-102.184 107.001,-106.979 117.377,-109.122 116.449,-102.184"/>
</g>
<!-- Node7 -->
<g id="node7" class="node"><title>Node7</title>
<g id="a_node7"><a xlink:href="../../da/d2a/a00086.html#a6e77570e4c93ffcb019d81ec8144122d" target="_top" xlink:title="hydra::Vector4R::operator=">
<polygon fill="none" stroke="black" points="152.5,-38.5 152.5,-57.5 287.5,-57.5 287.5,-38.5 152.5,-38.5"/>
<text text-anchor="middle" x="220" y="-45.5" font-family="Helvetica,sans-Serif" font-size="10.00">hydra::Vector4R::operator=</text>
</a>
</g>
</g>
<!-- Node1&#45;&gt;Node7 -->
<g id="edge6" class="edge"><title>Node1&#45;&gt;Node7</title>
<path fill="none" stroke="midnightblue" d="M79.2239,-99.2544C96.6008,-89.368 120.646,-76.6275 143,-68 153.437,-63.9717 164.986,-60.472 175.863,-57.5757"/>
<polygon fill="midnightblue" stroke="midnightblue" points="77.2143,-96.3734 70.3092,-104.409 80.7182,-102.433 77.2143,-96.3734"/>
</g>
<!-- Node8 -->
<g id="node8" class="node"><title>Node8</title>
<g id="a_node8"><a xlink:href="../../da/d2a/a00086.html#a3fddb244df8e2bd1cff7027bc5f2d891" target="_top" xlink:title="hydra::Vector4R::Vector4R">
<polygon fill="none" stroke="black" points="152.5,-0.5 152.5,-19.5 287.5,-19.5 287.5,-0.5 152.5,-0.5"/>
<text text-anchor="middle" x="220" y="-7.5" font-family="Helvetica,sans-Serif" font-size="10.00">hydra::Vector4R::Vector4R</text>
</a>
</g>
</g>
<!-- Node1&#45;&gt;Node8 -->
<g id="edge9" class="edge"><title>Node1&#45;&gt;Node8</title>
<path fill="none" stroke="midnightblue" d="M68.0056,-96.3903C83.8594,-76.9571 111.959,-46.164 143,-29 150.022,-25.1171 157.845,-22.0147 165.725,-19.5394"/>
<polygon fill="midnightblue" stroke="midnightblue" points="65.0981,-94.4234 61.6166,-104.43 70.5783,-98.7785 65.0981,-94.4234"/>
</g>
<!-- Node3 -->
<g id="node3" class="node"><title>Node3</title>
<g id="a_node3"><a xlink:href="../../d7/de0/a00022.html#a52d2bb64b855258800238a7263f26699" target="_top" xlink:title="hydra::boostTo">
<polygon fill="none" stroke="black" points="347,-164.5 347,-183.5 429,-183.5 429,-164.5 347,-164.5"/>
<text text-anchor="middle" x="388" y="-171.5" font-family="Helvetica,sans-Serif" font-size="10.00">hydra::boostTo</text>
</a>
</g>
</g>
<!-- Node2&#45;&gt;Node3 -->
<g id="edge2" class="edge"><title>Node2&#45;&gt;Node3</title>
<path fill="none" stroke="midnightblue" d="M307.209,-174C320.958,-174 334.589,-174 346.591,-174"/>
<polygon fill="midnightblue" stroke="midnightblue" points="307.198,-170.5 297.198,-174 307.198,-177.5 307.198,-170.5"/>
</g>
<!-- Node2&#45;&gt;Node4 -->
<g id="edge3" class="edge"><title>Node2&#45;&gt;Node4</title>
<path fill="none" stroke="midnightblue" d="M266.717,-186.118C287.154,-191.535 311.397,-197.961 332.746,-203.619"/>
<polygon fill="midnightblue" stroke="midnightblue" points="267.583,-182.726 257.02,-183.547 265.789,-189.493 267.583,-182.726"/>
</g>
<!-- Node2&#45;&gt;Node5 -->
<g id="edge4" class="edge"><title>Node2&#45;&gt;Node5</title>
<path fill="none" stroke="midnightblue" d="M266.775,-161.867C288.02,-156.236 313.369,-149.517 335.301,-143.703"/>
<polygon fill="midnightblue" stroke="midnightblue" points="265.789,-158.507 257.02,-164.453 267.583,-165.274 265.789,-158.507"/>
</g>
</g>
</svg>
