<?xml version="1.0" encoding="UTF-8" standalone="no"?>
<!DOCTYPE svg PUBLIC "-//W3C//DTD SVG 1.1//EN"
 "http://www.w3.org/Graphics/SVG/1.1/DTD/svg11.dtd">
<!-- Generated by graphviz version 2.38.0 (20140413.2041)
 -->
<!-- Title: Arithmetic_Tuple.h Pages: 1 -->
<svg width="855pt" height="364pt"
 viewBox="0.00 0.00 855.00 364.00" xmlns="http://www.w3.org/2000/svg" xmlns:xlink="http://www.w3.org/1999/xlink">
<g id="graph0" class="graph" transform="scale(1 1) rotate(0) translate(4 360)">
<title>Arithmetic_Tuple.h</title>
<!-- Node1 -->
<g id="node1" class="node"><title>Node1</title>
<polygon fill="#bfbfbf" stroke="black" points="131.5,-336.5 131.5,-355.5 229.5,-355.5 229.5,-336.5 131.5,-336.5"/>
<text text-anchor="middle" x="180.5" y="-343.5" font-family="Helvetica,sans-Serif" font-size="10.00">Arithmetic_Tuple.h</text>
</g>
<!-- Node2 -->
<g id="node2" class="node"><title>Node2</title>
<g id="a_node2"><a xlink:href="../../d7/d70/a00106.html" target="_top" xlink:title="Point.h">
<polygon fill="none" stroke="black" points="157,-280.5 157,-299.5 204,-299.5 204,-280.5 157,-280.5"/>
<text text-anchor="middle" x="180.5" y="-287.5" font-family="Helvetica,sans-Serif" font-size="10.00">Point.h</text>
</a>
</g>
</g>
<!-- Node1&#45;&gt;Node2 -->
<g id="edge1" class="edge"><title>Node1&#45;&gt;Node2</title>
<path fill="none" stroke="midnightblue" d="M180.5,-325.805C180.5,-316.91 180.5,-306.78 180.5,-299.751"/>
<polygon fill="midnightblue" stroke="midnightblue" points="177,-326.083 180.5,-336.083 184,-326.083 177,-326.083"/>
</g>
<!-- Node3 -->
<g id="node3" class="node"><title>Node3</title>
<g id="a_node3"><a xlink:href="../../d1/d84/a00097.html" target="_top" xlink:title="LogLikelihood.h">
<polygon fill="none" stroke="black" points="105.5,-168.5 105.5,-187.5 189.5,-187.5 189.5,-168.5 105.5,-168.5"/>
<text text-anchor="middle" x="147.5" y="-175.5" font-family="Helvetica,sans-Serif" font-size="10.00">LogLikelihood.h</text>
</a>
</g>
</g>
<!-- Node2&#45;&gt;Node3 -->
<g id="edge2" class="edge"><title>Node2&#45;&gt;Node3</title>
<path fill="none" stroke="midnightblue" d="M174.75,-270.771C172.192,-262.594 169.162,-252.823 166.5,-244 160.456,-223.965 153.631,-200.366 150.033,-187.846"/>
<polygon fill="midnightblue" stroke="midnightblue" points="171.435,-271.896 177.772,-280.387 178.113,-269.797 171.435,-271.896"/>
</g>
<!-- Node8 -->
<g id="node8" class="node"><title>Node8</title>
<g id="a_node8"><a xlink:href="../../df/d98/a00107.html" target="_top" xlink:title="PointVector.h">
<polygon fill="none" stroke="black" points="175.5,-224.5 175.5,-243.5 251.5,-243.5 251.5,-224.5 175.5,-224.5"/>
<text text-anchor="middle" x="213.5" y="-231.5" font-family="Helvetica,sans-Serif" font-size="10.00">PointVector.h</text>
</a>
</g>
</g>
<!-- Node2&#45;&gt;Node8 -->
<g id="edge8" class="edge"><title>Node2&#45;&gt;Node8</title>
<path fill="none" stroke="midnightblue" d="M191.332,-271.275C196.972,-262.045 203.618,-251.17 208.152,-243.751"/>
<polygon fill="midnightblue" stroke="midnightblue" points="188.177,-269.725 185.949,-280.083 194.15,-273.375 188.177,-269.725"/>
</g>
<!-- Node4 -->
<g id="node4" class="node"><title>Node4</title>
<g id="a_node4"><a xlink:href="../../d1/d51/a00079.html" target="_top" xlink:title="FCN.h">
<polygon fill="none" stroke="black" points="134.5,-112.5 134.5,-131.5 180.5,-131.5 180.5,-112.5 134.5,-112.5"/>
<text text-anchor="middle" x="157.5" y="-119.5" font-family="Helvetica,sans-Serif" font-size="10.00">FCN.h</text>
</a>
</g>
</g>
<!-- Node3&#45;&gt;Node4 -->
<g id="edge3" class="edge"><title>Node3&#45;&gt;Node4</title>
<path fill="none" stroke="midnightblue" d="M151,-158.101C152.66,-149.136 154.563,-138.858 155.879,-131.751"/>
<polygon fill="midnightblue" stroke="midnightblue" points="147.531,-157.613 149.151,-168.083 154.414,-158.888 147.531,-157.613"/>
</g>
<!-- Node5 -->
<g id="node5" class="node"><title>Node5</title>
<g id="a_node5"><a xlink:href="../../d1/d44/a00098.html" target="_top" xlink:title="LogLikelihoodFCN.h">
<polygon fill="none" stroke="black" points="84,-56.5 84,-75.5 189,-75.5 189,-56.5 84,-56.5"/>
<text text-anchor="middle" x="136.5" y="-63.5" font-family="Helvetica,sans-Serif" font-size="10.00">LogLikelihoodFCN.h</text>
</a>
</g>
</g>
<!-- Node3&#45;&gt;Node5 -->
<g id="edge7" class="edge"><title>Node3&#45;&gt;Node5</title>
<path fill="none" stroke="midnightblue" d="M136.736,-159.685C132.321,-151.595 127.73,-141.637 125.5,-132 120.908,-112.152 128.02,-88.4802 132.78,-75.8978"/>
<polygon fill="midnightblue" stroke="midnightblue" points="133.803,-161.603 141.862,-168.481 139.851,-158.078 133.803,-161.603"/>
</g>
<!-- Node4&#45;&gt;Node5 -->
<g id="edge4" class="edge"><title>Node4&#45;&gt;Node5</title>
<path fill="none" stroke="midnightblue" d="M150.379,-102.69C146.84,-93.589 142.728,-83.0141 139.903,-75.7511"/>
<polygon fill="midnightblue" stroke="midnightblue" points="147.146,-104.032 154.032,-112.083 153.67,-101.494 147.146,-104.032"/>
</g>
<!-- Node6 -->
<g id="node6" class="node"><title>Node6</title>
<g id="a_node6"><a xlink:href="../../db/dab/a00089.html" target="_top" xlink:title="HydraFitExample.cpp">
<polygon fill="none" stroke="black" points="0,-0.5 0,-19.5 111,-19.5 111,-0.5 0,-0.5"/>
<text text-anchor="middle" x="55.5" y="-7.5" font-family="Helvetica,sans-Serif" font-size="10.00">HydraFitExample.cpp</text>
</a>
</g>
</g>
<!-- Node5&#45;&gt;Node6 -->
<g id="edge5" class="edge"><title>Node5&#45;&gt;Node6</title>
<path fill="none" stroke="midnightblue" d="M114.933,-50.6221C100.136,-40.7574 80.9878,-27.9919 68.4818,-19.6545"/>
<polygon fill="midnightblue" stroke="midnightblue" points="113.224,-53.6891 123.486,-56.324 117.107,-47.8647 113.224,-53.6891"/>
</g>
<!-- Node7 -->
<g id="node7" class="node"><title>Node7</title>
<g id="a_node7"><a xlink:href="../../d9/dec/a00090.html" target="_top" xlink:title="HydraFitExample.cu">
<polygon fill="none" stroke="black" points="129.5,-0.5 129.5,-19.5 235.5,-19.5 235.5,-0.5 129.5,-0.5"/>
<text text-anchor="middle" x="182.5" y="-7.5" font-family="Helvetica,sans-Serif" font-size="10.00">HydraFitExample.cu</text>
</a>
</g>
</g>
<!-- Node5&#45;&gt;Node7 -->
<g id="edge6" class="edge"><title>Node5&#45;&gt;Node7</title>
<path fill="none" stroke="midnightblue" d="M150.614,-48.4314C158.676,-38.9673 168.459,-27.4827 175.045,-19.7511"/>
<polygon fill="midnightblue" stroke="midnightblue" points="147.916,-46.2009 144.096,-56.083 153.245,-50.7402 147.916,-46.2009"/>
</g>
<!-- Node8&#45;&gt;Node3 -->
<g id="edge9" class="edge"><title>Node8&#45;&gt;Node3</title>
<path fill="none" stroke="midnightblue" d="M194.946,-217.82C183.122,-208.145 168.214,-195.948 158.297,-187.834"/>
<polygon fill="midnightblue" stroke="midnightblue" points="192.94,-220.7 202.896,-224.324 197.373,-215.283 192.94,-220.7"/>
</g>
<!-- Node8&#45;&gt;Node6 -->
<g id="edge17" class="edge"><title>Node8&#45;&gt;Node6</title>
<path fill="none" stroke="midnightblue" d="M165.245,-225.399C141.336,-219.208 113.929,-208.048 96.5,-188 52.213,-137.058 53.3179,-47.5984 54.8725,-19.6158"/>
<polygon fill="midnightblue" stroke="midnightblue" points="164.701,-228.867 175.238,-227.759 166.31,-222.054 164.701,-228.867"/>
</g>
<!-- Node8&#45;&gt;Node7 -->
<g id="edge18" class="edge"><title>Node8&#45;&gt;Node7</title>
<path fill="none" stroke="midnightblue" d="M213.223,-214.147C212.428,-181.565 209.357,-112.757 197.5,-56 194.806,-43.1023 189.62,-28.7486 186.109,-19.7971"/>
<polygon fill="midnightblue" stroke="midnightblue" points="209.729,-214.493 213.425,-224.423 216.728,-214.356 209.729,-214.493"/>
</g>
<!-- Node9 -->
<g id="node9" class="node"><title>Node9</title>
<g id="a_node9"><a xlink:href="../../dd/d6d/a00111.html" target="_top" xlink:title="Random.h">
<polygon fill="none" stroke="black" points="291.5,-56.5 291.5,-75.5 353.5,-75.5 353.5,-56.5 291.5,-56.5"/>
<text text-anchor="middle" x="322.5" y="-63.5" font-family="Helvetica,sans-Serif" font-size="10.00">Random.h</text>
</a>
</g>
</g>
<!-- Node8&#45;&gt;Node9 -->
<g id="edge10" class="edge"><title>Node8&#45;&gt;Node9</title>
<path fill="none" stroke="midnightblue" d="M225.115,-215.312C248.353,-179.921 299.804,-101.565 316.874,-75.5681"/>
<polygon fill="midnightblue" stroke="midnightblue" points="221.923,-213.795 219.36,-224.075 227.775,-217.637 221.923,-213.795"/>
</g>
<!-- Node9&#45;&gt;Node6 -->
<g id="edge13" class="edge"><title>Node9&#45;&gt;Node6</title>
<path fill="none" stroke="midnightblue" d="M281.256,-56.6585C231.459,-46.5872 148.148,-29.7378 97.8576,-19.5667"/>
<polygon fill="midnightblue" stroke="midnightblue" points="280.854,-60.148 291.349,-58.6998 282.241,-53.2869 280.854,-60.148"/>
</g>
<!-- Node9&#45;&gt;Node7 -->
<g id="edge14" class="edge"><title>Node9&#45;&gt;Node7</title>
<path fill="none" stroke="midnightblue" d="M290.798,-52.772C264.5,-42.6287 227.784,-28.4669 204.58,-19.5164"/>
<polygon fill="midnightblue" stroke="midnightblue" points="289.727,-56.1103 300.317,-56.4435 292.246,-49.5792 289.727,-56.1103"/>
</g>
<!-- Node10 -->
<g id="node10" class="node"><title>Node10</title>
<g id="a_node10"><a xlink:href="../../d1/d7c/a00003.html" target="_top" xlink:title="HydraEvaluateExample take parameters from the command line, fill a range with random numbers and eval...">
<polygon fill="none" stroke="black" points="253.5,-0.5 253.5,-19.5 391.5,-19.5 391.5,-0.5 253.5,-0.5"/>
<text text-anchor="middle" x="322.5" y="-7.5" font-family="Helvetica,sans-Serif" font-size="10.00">HydraEvaluateExample.cpp</text>
</a>
</g>
</g>
<!-- Node9&#45;&gt;Node10 -->
<g id="edge11" class="edge"><title>Node9&#45;&gt;Node10</title>
<path fill="none" stroke="midnightblue" d="M322.5,-45.8045C322.5,-36.9102 322.5,-26.7798 322.5,-19.7511"/>
<polygon fill="midnightblue" stroke="midnightblue" points="319,-46.083 322.5,-56.083 326,-46.083 319,-46.083"/>
</g>
<!-- Node11 -->
<g id="node11" class="node"><title>Node11</title>
<g id="a_node11"><a xlink:href="../../d8/d84/a00001.html" target="_top" xlink:title="HydraEvaluateExample takes parameters from the command line, fill a range with random numbers and eva...">
<polygon fill="none" stroke="black" points="410,-0.5 410,-19.5 543,-19.5 543,-0.5 410,-0.5"/>
<text text-anchor="middle" x="476.5" y="-7.5" font-family="Helvetica,sans-Serif" font-size="10.00">HydraEvaluateExample.cu</text>
</a>
</g>
</g>
<!-- Node9&#45;&gt;Node11 -->
<g id="edge12" class="edge"><title>Node9&#45;&gt;Node11</title>
<path fill="none" stroke="midnightblue" d="M356.611,-53.0392C385.587,-42.8786 426.462,-28.5457 452.212,-19.5164"/>
<polygon fill="midnightblue" stroke="midnightblue" points="355.18,-49.8317 346.902,-56.4435 357.497,-56.4373 355.18,-49.8317"/>
</g>
<!-- Node12 -->
<g id="node12" class="node"><title>Node12</title>
<g id="a_node12"><a xlink:href="../../d4/d7d/a00093.html" target="_top" xlink:title="HydraRandomExample.cpp">
<polygon fill="none" stroke="black" points="561,-0.5 561,-19.5 698,-19.5 698,-0.5 561,-0.5"/>
<text text-anchor="middle" x="629.5" y="-7.5" font-family="Helvetica,sans-Serif" font-size="10.00">HydraRandomExample.cpp</text>
</a>
</g>
</g>
<!-- Node9&#45;&gt;Node12 -->
<g id="edge15" class="edge"><title>Node9&#45;&gt;Node12</title>
<path fill="none" stroke="midnightblue" d="M363.606,-57.7697C419.944,-47.86 520.977,-30.0888 580.964,-19.5373"/>
<polygon fill="midnightblue" stroke="midnightblue" points="362.869,-54.3455 353.626,-59.525 364.081,-61.2397 362.869,-54.3455"/>
</g>
<!-- Node13 -->
<g id="node13" class="node"><title>Node13</title>
<g id="a_node13"><a xlink:href="../../dc/d54/a00094.html" target="_top" xlink:title="HydraRandomExample.cu">
<polygon fill="none" stroke="black" points="716,-0.5 716,-19.5 847,-19.5 847,-0.5 716,-0.5"/>
<text text-anchor="middle" x="781.5" y="-7.5" font-family="Helvetica,sans-Serif" font-size="10.00">HydraRandomExample.cu</text>
</a>
</g>
</g>
<!-- Node9&#45;&gt;Node13 -->
<g id="edge16" class="edge"><title>Node9&#45;&gt;Node13</title>
<path fill="none" stroke="midnightblue" d="M364.204,-60.1901C434.86,-52.0267 582.606,-34.8938 707.5,-20 710.199,-19.6782 712.953,-19.3486 715.734,-19.0147"/>
<polygon fill="midnightblue" stroke="midnightblue" points="363.478,-56.7506 353.946,-61.3749 364.282,-63.7044 363.478,-56.7506"/>
</g>
</g>
</svg>
