<?xml version="1.0" encoding="UTF-8" standalone="no"?>
<!DOCTYPE svg PUBLIC "-//W3C//DTD SVG 1.1//EN"
 "http://www.w3.org/Graphics/SVG/1.1/DTD/svg11.dtd">
<!-- Generated by graphviz version 2.38.0 (20140413.2041)
 -->
<!-- Title: hydra::UserParameters::GetState Pages: 1 -->
<svg width="281pt" height="116pt"
 viewBox="0.00 0.00 281.00 115.50" xmlns="http://www.w3.org/2000/svg" xmlns:xlink="http://www.w3.org/1999/xlink">
<g id="graph0" class="graph" transform="scale(1 1) rotate(0) translate(4 111.5)">
<title>hydra::UserParameters::GetState</title>
<!-- Node1 -->
<g id="node1" class="node"><title>Node1</title>
<polygon fill="#bfbfbf" stroke="black" points="0,-44.5 0,-74.5 118,-74.5 118,-44.5 0,-44.5"/>
<text text-anchor="start" x="8" y="-62.5" font-family="Helvetica,sans-Serif" font-size="10.00">hydra::UserParameters</text>
<text text-anchor="middle" x="59" y="-51.5" font-family="Helvetica,sans-Serif" font-size="10.00">::GetState</text>
</g>
<!-- Node2 -->
<g id="node2" class="node"><title>Node2</title>
<g id="a_node2"><a xlink:href="../../dd/dad/a00005.html#a32c166bdb75e9b204c87878f510ea1c5" target="_top" xlink:title="main">
<polygon fill="none" stroke="black" points="194.5,-88 194.5,-107 232.5,-107 232.5,-88 194.5,-88"/>
<text text-anchor="middle" x="213.5" y="-95" font-family="Helvetica,sans-Serif" font-size="10.00">main</text>
</a>
</g>
</g>
<!-- Node1&#45;&gt;Node2 -->
<g id="edge1" class="edge"><title>Node1&#45;&gt;Node2</title>
<path fill="none" stroke="midnightblue" d="M128.052,-76.4571C152.374,-82.5179 177.823,-88.8591 194.343,-92.9755"/>
<polygon fill="midnightblue" stroke="midnightblue" points="128.638,-72.9964 118.089,-73.9746 126.946,-79.7887 128.638,-72.9964"/>
</g>
<!-- Node3 -->
<g id="node3" class="node"><title>Node3</title>
<g id="a_node3"><a xlink:href="../../d3/dfe/a00025.html#a268e82d7c372bfc5fe6a107f6e076b84" target="_top" xlink:title="hydra::operator\&lt;\&lt;">
<polygon fill="none" stroke="black" points="166.5,-50 166.5,-69 260.5,-69 260.5,-50 166.5,-50"/>
<text text-anchor="middle" x="213.5" y="-57" font-family="Helvetica,sans-Serif" font-size="10.00">hydra::operator&lt;&lt;</text>
</a>
</g>
</g>
<!-- Node1&#45;&gt;Node3 -->
<g id="edge2" class="edge"><title>Node1&#45;&gt;Node3</title>
<path fill="none" stroke="midnightblue" d="M128.332,-59.5C141.221,-59.5 154.415,-59.5 166.42,-59.5"/>
<polygon fill="midnightblue" stroke="midnightblue" points="128.089,-56.0001 118.089,-59.5 128.089,-63.0001 128.089,-56.0001"/>
</g>
<!-- Node4 -->
<g id="node4" class="node"><title>Node4</title>
<g id="a_node4"><a xlink:href="../../de/de1/a00065.html#ae827fda081825eb09704bc35e289fdf3" target="_top" xlink:title="hydra::UserParameters\l::PrintMinuitParameters">
<polygon fill="none" stroke="black" points="154,-0.5 154,-30.5 273,-30.5 273,-0.5 154,-0.5"/>
<text text-anchor="start" x="162" y="-18.5" font-family="Helvetica,sans-Serif" font-size="10.00">hydra::UserParameters</text>
<text text-anchor="middle" x="213.5" y="-7.5" font-family="Helvetica,sans-Serif" font-size="10.00">::PrintMinuitParameters</text>
</a>
</g>
</g>
<!-- Node1&#45;&gt;Node4 -->
<g id="edge3" class="edge"><title>Node1&#45;&gt;Node4</title>
<path fill="none" stroke="midnightblue" d="M121.734,-41.6882C134.569,-37.985 147.974,-34.1173 160.421,-30.5262"/>
<polygon fill="midnightblue" stroke="midnightblue" points="120.693,-38.3457 112.055,-44.4808 122.634,-45.0713 120.693,-38.3457"/>
</g>
</g>
</svg>
