<?xml version="1.0" encoding="UTF-8" standalone="no"?>
<!DOCTYPE svg PUBLIC "-//W3C//DTD SVG 1.1//EN"
 "http://www.w3.org/Graphics/SVG/1.1/DTD/svg11.dtd">
<!-- Generated by graphviz version 2.38.0 (20140413.2041)
 -->
<!-- Title: hydra::LogLikelihoodFCN::Eval Pages: 1 -->
<!--zoomable 526 -->
<svg id="main" version="1.1" xmlns="http://www.w3.org/2000/svg" xmlns:xlink="http://www.w3.org/1999/xlink" xml:space="preserve" onload="init(evt)">
<style type="text/css"><![CDATA[
.edge:hover path { stroke: red; }
.edge:hover polygon { stroke: red; fill: red; }
]]></style>
<script type="text/javascript"><![CDATA[
var edges = document.getElementsByTagName('g');
if (edges && edges.length) {
  for (var i=0;i<edges.length;i++) {
    if (edges[i].id.substr(0,4)=='edge') {
      edges[i].setAttribute('class','edge');
    }
  }
}
]]></script>
        <defs>
                <circle id="rim" cx="0" cy="0" r="7"/>
                <circle id="rim2" cx="0" cy="0" r="3.5"/>
                <g id="zoomPlus">
                        <use xlink:href="#rim" fill="#404040">
                                <set attributeName="fill" to="#808080" begin="zoomplus.mouseover" end="zoomplus.mouseout"/>
                        </use>
                        <path d="M-4,0h8M0,-4v8" fill="none" stroke="white" stroke-width="1.5" pointer-events="none"/>
                </g>
                <g id="zoomMin">
                        <use xlink:href="#rim" fill="#404040">
                                <set attributeName="fill" to="#808080" begin="zoomminus.mouseover" end="zoomminus.mouseout"/>
                        </use>
                        <path d="M-4,0h8" fill="none" stroke="white" stroke-width="1.5" pointer-events="none"/>
                </g>
                <g id="dirArrow">
                        <path fill="none" stroke="white" stroke-width="1.5" d="M0,-3.0v7 M-2.5,-0.5L0,-3.0L2.5,-0.5"/>
                </g>
               <g id="resetDef">
                       <use xlink:href="#rim2" fill="#404040">
                               <set attributeName="fill" to="#808080" begin="reset.mouseover" end="reset.mouseout"/>
                       </use>
               </g>
        </defs>

<script type="text/javascript">
var viewWidth = 334;
var viewHeight = 526;
var sectionId = 'dynsection-3';
</script>
<script xlink:href="../../svgpan.js"/>
<svg id="graph" class="graph">
<g id="viewport">
<title>hydra::LogLikelihoodFCN::Eval</title>
<!-- Node1 -->
<g id="node1" class="node"><title>Node1</title>
<polygon fill="#bfbfbf" stroke="black" points="0,-227 0,-257 127,-257 127,-227 0,-227"/>
<text text-anchor="start" x="8" y="-245" font-family="Helvetica,sans-Serif" font-size="10.00">hydra::LogLikelihoodFCN</text>
<text text-anchor="middle" x="63.5" y="-234" font-family="Helvetica,sans-Serif" font-size="10.00">::Eval</text>
</g>
<!-- Node2 -->
<g id="node2" class="node"><title>Node2</title>
<g id="a_node2"><a xlink:href="../../dc/de2/a00024.html#a2ceeba06f1eb9d820f8499262e536bf2" target="_top" xlink:title="hydra::FCN\&lt; LogLikelihood\lFCN\&lt; FUNCTOR, IteratorData,\l IteratorCache \&gt;, IteratorData,\l IteratorCache \&gt;::GetCacheBegin">
<polygon fill="none" stroke="black" points="163,-465 163,-517 326,-517 326,-465 163,-465"/>
<text text-anchor="start" x="171" y="-505" font-family="Helvetica,sans-Serif" font-size="10.00">hydra::FCN&lt; LogLikelihood</text>
<text text-anchor="start" x="171" y="-494" font-family="Helvetica,sans-Serif" font-size="10.00">FCN&lt; FUNCTOR, IteratorData,</text>
<text text-anchor="start" x="171" y="-483" font-family="Helvetica,sans-Serif" font-size="10.00"> IteratorCache &gt;, IteratorData,</text>
<text text-anchor="middle" x="244.5" y="-472" font-family="Helvetica,sans-Serif" font-size="10.00"> IteratorCache &gt;::GetCacheBegin</text>
</a>
</g>
</g>
<!-- Node1&#45;&gt;Node2 -->
<g id="edge1" class="edge"><title>Node1&#45;&gt;Node2</title>
<path fill="none" stroke="midnightblue" d="M67.5367,-257.112C75.9653,-295.403 103.087,-397.347 163,-456 163.817,-456.8 164.655,-457.582 165.512,-458.349"/>
<polygon fill="midnightblue" stroke="midnightblue" points="163.678,-461.359 173.696,-464.807 168.014,-455.865 163.678,-461.359"/>
</g>
<!-- Node3 -->
<g id="node3" class="node"><title>Node3</title>
<g id="a_node3"><a xlink:href="../../dc/de2/a00024.html#a4a200b009dea92aebcd736215b738263" target="_top" xlink:title="hydra::FCN\&lt; LogLikelihood\lFCN\&lt; FUNCTOR, IteratorData,\l IteratorCache \&gt;, IteratorData,\l IteratorCache \&gt;::GetDataBegin">
<polygon fill="none" stroke="black" points="166,-394 166,-446 323,-446 323,-394 166,-394"/>
<text text-anchor="start" x="174" y="-434" font-family="Helvetica,sans-Serif" font-size="10.00">hydra::FCN&lt; LogLikelihood</text>
<text text-anchor="start" x="174" y="-423" font-family="Helvetica,sans-Serif" font-size="10.00">FCN&lt; FUNCTOR, IteratorData,</text>
<text text-anchor="start" x="174" y="-412" font-family="Helvetica,sans-Serif" font-size="10.00"> IteratorCache &gt;, IteratorData,</text>
<text text-anchor="middle" x="244.5" y="-401" font-family="Helvetica,sans-Serif" font-size="10.00"> IteratorCache &gt;::GetDataBegin</text>
</a>
</g>
</g>
<!-- Node1&#45;&gt;Node3 -->
<g id="edge2" class="edge"><title>Node1&#45;&gt;Node3</title>
<path fill="none" stroke="midnightblue" d="M71.5128,-257.445C85.253,-286.166 118.318,-348.207 163,-385 164.335,-386.099 165.709,-387.169 167.117,-388.211"/>
<polygon fill="midnightblue" stroke="midnightblue" points="165.259,-391.18 175.506,-393.872 169.174,-385.377 165.259,-391.18"/>
</g>
<!-- Node4 -->
<g id="node4" class="node"><title>Node4</title>
<g id="a_node4"><a xlink:href="../../dc/de2/a00024.html#a54c88c115e2c2da2f0fbf118c0ecf4f9" target="_top" xlink:title="hydra::FCN\&lt; LogLikelihood\lFCN\&lt; FUNCTOR, IteratorData,\l IteratorCache \&gt;, IteratorData,\l IteratorCache \&gt;::GetNEvents">
<polygon fill="none" stroke="black" points="166,-323 166,-375 323,-375 323,-323 166,-323"/>
<text text-anchor="start" x="174" y="-363" font-family="Helvetica,sans-Serif" font-size="10.00">hydra::FCN&lt; LogLikelihood</text>
<text text-anchor="start" x="174" y="-352" font-family="Helvetica,sans-Serif" font-size="10.00">FCN&lt; FUNCTOR, IteratorData,</text>
<text text-anchor="start" x="174" y="-341" font-family="Helvetica,sans-Serif" font-size="10.00"> IteratorCache &gt;, IteratorData,</text>
<text text-anchor="middle" x="244.5" y="-330" font-family="Helvetica,sans-Serif" font-size="10.00"> IteratorCache &gt;::GetNEvents</text>
</a>
</g>
</g>
<!-- Node1&#45;&gt;Node4 -->
<g id="edge3" class="edge"><title>Node1&#45;&gt;Node4</title>
<path fill="none" stroke="midnightblue" d="M82.5479,-257.089C101.695,-272.631 133.232,-296.93 163,-314 165.625,-315.506 168.328,-316.988 171.08,-318.442"/>
<polygon fill="midnightblue" stroke="midnightblue" points="169.503,-321.567 180.002,-322.983 172.677,-315.328 169.503,-321.567"/>
</g>
<!-- Node5 -->
<g id="node5" class="node"><title>Node5</title>
<g id="a_node5"><a xlink:href="../../dc/de2/a00024.html#a79871bfff713041bf6ece3f68f42f002" target="_top" xlink:title="hydra::FCN\&lt; LogLikelihood\lFCN\&lt; FUNCTOR, IteratorData,\l IteratorCache \&gt;, IteratorData,\l IteratorCache \&gt;::GetSumW">
<polygon fill="none" stroke="black" points="166,-252 166,-304 323,-304 323,-252 166,-252"/>
<text text-anchor="start" x="174" y="-292" font-family="Helvetica,sans-Serif" font-size="10.00">hydra::FCN&lt; LogLikelihood</text>
<text text-anchor="start" x="174" y="-281" font-family="Helvetica,sans-Serif" font-size="10.00">FCN&lt; FUNCTOR, IteratorData,</text>
<text text-anchor="start" x="174" y="-270" font-family="Helvetica,sans-Serif" font-size="10.00"> IteratorCache &gt;, IteratorData,</text>
<text text-anchor="middle" x="244.5" y="-259" font-family="Helvetica,sans-Serif" font-size="10.00"> IteratorCache &gt;::GetSumW</text>
</a>
</g>
</g>
<!-- Node1&#45;&gt;Node5 -->
<g id="edge4" class="edge"><title>Node1&#45;&gt;Node5</title>
<path fill="none" stroke="midnightblue" d="M127.106,-254.591C136.384,-256.457 146.087,-258.409 155.763,-260.355"/>
<polygon fill="midnightblue" stroke="midnightblue" points="155.324,-263.836 165.818,-262.377 156.704,-256.974 155.324,-263.836"/>
</g>
<!-- Node6 -->
<g id="node6" class="node"><title>Node6</title>
<g id="a_node6"><a xlink:href="../../dc/de2/a00024.html#a1166208c68b5ee7340344f5145e4420a" target="_top" xlink:title="hydra::FCN\&lt; LogLikelihood\lFCN\&lt; FUNCTOR, IteratorData,\l IteratorCache \&gt;, IteratorData,\l IteratorCache \&gt;::GetSumW2">
<polygon fill="none" stroke="black" points="166,-181 166,-233 323,-233 323,-181 166,-181"/>
<text text-anchor="start" x="174" y="-221" font-family="Helvetica,sans-Serif" font-size="10.00">hydra::FCN&lt; LogLikelihood</text>
<text text-anchor="start" x="174" y="-210" font-family="Helvetica,sans-Serif" font-size="10.00">FCN&lt; FUNCTOR, IteratorData,</text>
<text text-anchor="start" x="174" y="-199" font-family="Helvetica,sans-Serif" font-size="10.00"> IteratorCache &gt;, IteratorData,</text>
<text text-anchor="middle" x="244.5" y="-188" font-family="Helvetica,sans-Serif" font-size="10.00"> IteratorCache &gt;::GetSumW2</text>
</a>
</g>
</g>
<!-- Node1&#45;&gt;Node6 -->
<g id="edge5" class="edge"><title>Node1&#45;&gt;Node6</title>
<path fill="none" stroke="midnightblue" d="M127.106,-229.759C136.384,-227.944 146.087,-226.047 155.763,-224.155"/>
<polygon fill="midnightblue" stroke="midnightblue" points="156.675,-227.543 165.818,-222.189 155.332,-220.673 156.675,-227.543"/>
</g>
<!-- Node7 -->
<g id="node7" class="node"><title>Node7</title>
<g id="a_node7"><a xlink:href="../../dc/de2/a00024.html#a9840a60c22a24b9974b562c12c5c40d3" target="_top" xlink:title="hydra::FCN\&lt; LogLikelihood\lFCN\&lt; FUNCTOR, IteratorData,\l IteratorCache \&gt;, IteratorData,\l IteratorCache \&gt;::isCached">
<polygon fill="none" stroke="black" points="166,-110 166,-162 323,-162 323,-110 166,-110"/>
<text text-anchor="start" x="174" y="-150" font-family="Helvetica,sans-Serif" font-size="10.00">hydra::FCN&lt; LogLikelihood</text>
<text text-anchor="start" x="174" y="-139" font-family="Helvetica,sans-Serif" font-size="10.00">FCN&lt; FUNCTOR, IteratorData,</text>
<text text-anchor="start" x="174" y="-128" font-family="Helvetica,sans-Serif" font-size="10.00"> IteratorCache &gt;, IteratorData,</text>
<text text-anchor="middle" x="244.5" y="-117" font-family="Helvetica,sans-Serif" font-size="10.00"> IteratorCache &gt;::isCached</text>
</a>
</g>
</g>
<!-- Node1&#45;&gt;Node7 -->
<g id="edge6" class="edge"><title>Node1&#45;&gt;Node7</title>
<path fill="none" stroke="midnightblue" d="M83.3712,-226.878C102.666,-211.835 133.857,-188.655 163,-172 166.178,-170.184 169.464,-168.393 172.811,-166.639"/>
<polygon fill="midnightblue" stroke="midnightblue" points="174.445,-169.734 181.778,-162.087 171.277,-163.492 174.445,-169.734"/>
</g>
<!-- Node8 -->
<g id="node8" class="node"><title>Node8</title>
<g id="a_node8"><a xlink:href="../../dc/de2/a00024.html#af0c8152f43015d5aa4c783fad76b57b2" target="_top" xlink:title="hydra::FCN\&lt; LogLikelihood\lFCN\&lt; FUNCTOR, IteratorData,\l IteratorCache \&gt;, IteratorData,\l IteratorCache \&gt;::isWeighted">
<polygon fill="none" stroke="black" points="166,-39 166,-91 323,-91 323,-39 166,-39"/>
<text text-anchor="start" x="174" y="-79" font-family="Helvetica,sans-Serif" font-size="10.00">hydra::FCN&lt; LogLikelihood</text>
<text text-anchor="start" x="174" y="-68" font-family="Helvetica,sans-Serif" font-size="10.00">FCN&lt; FUNCTOR, IteratorData,</text>
<text text-anchor="start" x="174" y="-57" font-family="Helvetica,sans-Serif" font-size="10.00"> IteratorCache &gt;, IteratorData,</text>
<text text-anchor="middle" x="244.5" y="-46" font-family="Helvetica,sans-Serif" font-size="10.00"> IteratorCache &gt;::isWeighted</text>
</a>
</g>
</g>
<!-- Node1&#45;&gt;Node8 -->
<g id="edge7" class="edge"><title>Node1&#45;&gt;Node8</title>
<path fill="none" stroke="midnightblue" d="M71.6051,-226.818C85.4991,-198.577 118.811,-137.529 163,-101 164.774,-99.5338 166.617,-98.1157 168.514,-96.745"/>
<polygon fill="midnightblue" stroke="midnightblue" points="170.734,-99.4734 177.144,-91.0377 166.872,-93.6348 170.734,-99.4734"/>
</g>
<!-- Node9 -->
<g id="node9" class="node"><title>Node9</title>
<g id="a_node9"><a xlink:href="../../d5/de0/a00050.html#a8420ebe5433589b26123013d567a887a" target="_top" xlink:title="hydra::Print::Level">
<polygon fill="none" stroke="black" points="196.5,-0.5 196.5,-19.5 292.5,-19.5 292.5,-0.5 196.5,-0.5"/>
<text text-anchor="middle" x="244.5" y="-7.5" font-family="Helvetica,sans-Serif" font-size="10.00">hydra::Print::Level</text>
</a>
</g>
</g>
<!-- Node1&#45;&gt;Node9 -->
<g id="edge8" class="edge"><title>Node1&#45;&gt;Node9</title>
<path fill="none" stroke="midnightblue" d="M66.9237,-226.985C74.0254,-188.054 98.5042,-83.1963 163,-30 169.861,-24.3411 178.096,-20.2486 186.644,-17.2961"/>
<polygon fill="midnightblue" stroke="midnightblue" points="187.771,-20.6128 196.371,-14.4242 185.789,-13.8993 187.771,-20.6128"/>
</g>
</g>
</svg>
        <g id="navigator" transform="translate(0 0)" fill="#404254">
                <rect fill="#f2f5e9" fill-opacity="0.5" stroke="#606060" stroke-width=".5" x="0" y="0" width="60" height="60"/>
                <use id="zoomplus" xlink:href="#zoomPlus" x="17" y="9" onmousedown="handleZoom(evt,'in')"/>
                <use id="zoomminus" xlink:href="#zoomMin" x="42" y="9" onmousedown="handleZoom(evt,'out')"/>
                <use id="reset" xlink:href="#resetDef" x="30" y="36" onmousedown="handleReset()"/>
                <g id="arrowUp" xlink:href="#dirArrow" transform="translate(30 24)" onmousedown="handlePan(0,-1)">
                  <use xlink:href="#rim" fill="#404040">
                        <set attributeName="fill" to="#808080" begin="arrowUp.mouseover" end="arrowUp.mouseout"/>
                  </use>
                  <path fill="none" stroke="white" stroke-width="1.5" d="M0,-3.0v7 M-2.5,-0.5L0,-3.0L2.5,-0.5"/>
                </g>
                <g id="arrowRight" xlink:href="#dirArrow" transform="rotate(90) translate(36 -43)" onmousedown="handlePan(1,0)">
                  <use xlink:href="#rim" fill="#404040">
                        <set attributeName="fill" to="#808080" begin="arrowRight.mouseover" end="arrowRight.mouseout"/>
                  </use>
                  <path fill="none" stroke="white" stroke-width="1.5" d="M0,-3.0v7 M-2.5,-0.5L0,-3.0L2.5,-0.5"/>
                </g>
                <g id="arrowDown" xlink:href="#dirArrow" transform="rotate(180) translate(-30 -48)" onmousedown="handlePan(0,1)">
                  <use xlink:href="#rim" fill="#404040">
                        <set attributeName="fill" to="#808080" begin="arrowDown.mouseover" end="arrowDown.mouseout"/>
                  </use>
                  <path fill="none" stroke="white" stroke-width="1.5" d="M0,-3.0v7 M-2.5,-0.5L0,-3.0L2.5,-0.5"/>
                </g>
                <g id="arrowLeft" xlink:href="#dirArrow" transform="rotate(270) translate(-36 17)" onmousedown="handlePan(-1,0)">
                  <use xlink:href="#rim" fill="#404040">
                        <set attributeName="fill" to="#808080" begin="arrowLeft.mouseover" end="arrowLeft.mouseout"/>
                  </use>
                  <path fill="none" stroke="white" stroke-width="1.5" d="M0,-3.0v7 M-2.5,-0.5L0,-3.0L2.5,-0.5"/>
                </g>
        </g>
        <svg viewBox="0 0 15 15" width="100%" height="30px" preserveAspectRatio="xMaxYMin meet">
         <g id="arrow_out" transform="scale(0.3 0.3)">
          <a xlink:href="a00039_a2b19d34300cec7909a8751f9de4911c7_cgraph_org.svg" target="_base">
           <rect id="button" ry="5" rx="5" y="6" x="6" height="38" width="38"
                fill="#f2f5e9" fill-opacity="0.5" stroke="#606060" stroke-width="1.0"/>
           <path id="arrow"
             d="M 11.500037,31.436501 C 11.940474,20.09759 22.043105,11.32322 32.158766,21.979434 L 37.068811,17.246167 C 37.068811,17.246167 37.088388,32 37.088388,32 L 22.160133,31.978069 C 22.160133,31.978069 26.997745,27.140456 26.997745,27.140456 C 18.528582,18.264221 13.291696,25.230495 11.500037,31.436501 z"
             style="fill:#404040;"/>
          </a>
         </g>
        </svg>
</svg>
