<?xml version="1.0" encoding="UTF-8" standalone="no"?>
<!DOCTYPE svg PUBLIC "-//W3C//DTD SVG 1.1//EN"
 "http://www.w3.org/Graphics/SVG/1.1/DTD/svg11.dtd">
<!-- Generated by graphviz version 2.38.0 (20140413.2041)
 -->
<!-- Title: RandomUtils.h Pages: 1 -->
<svg width="1124pt" height="475pt"
 viewBox="0.00 0.00 1124.00 475.00" xmlns="http://www.w3.org/2000/svg" xmlns:xlink="http://www.w3.org/1999/xlink">
<g id="graph0" class="graph" transform="scale(1 1) rotate(0) translate(4 471)">
<title>RandomUtils.h</title>
<!-- Node1 -->
<g id="node1" class="node"><title>Node1</title>
<polygon fill="#bfbfbf" stroke="black" points="233.5,-447.5 233.5,-466.5 315.5,-466.5 315.5,-447.5 233.5,-447.5"/>
<text text-anchor="middle" x="274.5" y="-454.5" font-family="Helvetica,sans-Serif" font-size="10.00">RandomUtils.h</text>
</g>
<!-- Node2 -->
<g id="node2" class="node"><title>Node2</title>
<g id="a_node2"><a xlink:href="../../da/d24/a00068.html" target="_top" xlink:title="hydra/detail/Config.h">
<polygon fill="none" stroke="black" points="353,-78.5 353,-97.5 460,-97.5 460,-78.5 353,-78.5"/>
<text text-anchor="middle" x="406.5" y="-85.5" font-family="Helvetica,sans-Serif" font-size="10.00">hydra/detail/Config.h</text>
</a>
</g>
</g>
<!-- Node1&#45;&gt;Node2 -->
<g id="edge1" class="edge"><title>Node1&#45;&gt;Node2</title>
<path fill="none" stroke="midnightblue" d="M233.076,-452.796C176.558,-447.57 79.4366,-435.266 54.5,-411 27.844,-385.061 35.5,-366.694 35.5,-329.5 35.5,-329.5 35.5,-329.5 35.5,-199 35.5,-135.627 236.999,-105.918 343,-94.6741"/>
<polygon fill="midnightblue" stroke="midnightblue" points="343.364,-98.1552 352.95,-93.6431 342.642,-91.1925 343.364,-98.1552"/>
</g>
<!-- Node12 -->
<g id="node12" class="node"><title>Node12</title>
<polygon fill="none" stroke="#bfbfbf" points="64,-386 64,-405 159,-405 159,-386 64,-386"/>
<text text-anchor="middle" x="111.5" y="-393" font-family="Helvetica,sans-Serif" font-size="10.00">thrust/functional.h</text>
</g>
<!-- Node1&#45;&gt;Node12 -->
<g id="edge11" class="edge"><title>Node1&#45;&gt;Node12</title>
<path fill="none" stroke="midnightblue" d="M251.146,-447.475C223.186,-437.269 176.174,-420.108 144.509,-408.549"/>
<polygon fill="midnightblue" stroke="midnightblue" points="145.405,-405.15 134.811,-405.009 143.004,-411.726 145.405,-405.15"/>
</g>
<!-- Node13 -->
<g id="node13" class="node"><title>Node13</title>
<polygon fill="none" stroke="#bfbfbf" points="177,-386 177,-405 266,-405 266,-386 177,-386"/>
<text text-anchor="middle" x="221.5" y="-393" font-family="Helvetica,sans-Serif" font-size="10.00">thrust/distance.h</text>
</g>
<!-- Node1&#45;&gt;Node13 -->
<g id="edge12" class="edge"><title>Node1&#45;&gt;Node13</title>
<path fill="none" stroke="midnightblue" d="M266.906,-447.475C258.799,-438.373 245.765,-423.741 235.737,-412.483"/>
<polygon fill="midnightblue" stroke="midnightblue" points="238.344,-410.148 229.08,-405.009 233.117,-414.804 238.344,-410.148"/>
</g>
<!-- Node14 -->
<g id="node14" class="node"><title>Node14</title>
<polygon fill="none" stroke="#bfbfbf" points="284.5,-386 284.5,-405 372.5,-405 372.5,-386 284.5,-386"/>
<text text-anchor="middle" x="328.5" y="-393" font-family="Helvetica,sans-Serif" font-size="10.00">thrust/extrema.h</text>
</g>
<!-- Node1&#45;&gt;Node14 -->
<g id="edge13" class="edge"><title>Node1&#45;&gt;Node14</title>
<path fill="none" stroke="midnightblue" d="M282.237,-447.475C290.497,-438.373 303.777,-423.741 313.994,-412.483"/>
<polygon fill="midnightblue" stroke="midnightblue" points="316.649,-414.766 320.777,-405.009 311.465,-410.062 316.649,-414.766"/>
</g>
<!-- Node15 -->
<g id="node15" class="node"><title>Node15</title>
<polygon fill="none" stroke="#bfbfbf" points="391,-386 391,-405 476,-405 476,-386 391,-386"/>
<text text-anchor="middle" x="433.5" y="-393" font-family="Helvetica,sans-Serif" font-size="10.00">thrust/random.h</text>
</g>
<!-- Node1&#45;&gt;Node15 -->
<g id="edge14" class="edge"><title>Node1&#45;&gt;Node15</title>
<path fill="none" stroke="midnightblue" d="M297.281,-447.475C324.555,-437.269 370.413,-420.108 401.301,-408.549"/>
<polygon fill="midnightblue" stroke="midnightblue" points="402.622,-411.792 410.761,-405.009 400.169,-405.236 402.622,-411.792"/>
</g>
<!-- Node16 -->
<g id="node16" class="node"><title>Node16</title>
<g id="a_node16"><a xlink:href="../../d4/d98/a00120.html" target="_top" xlink:title="hydra/detail/utility\l/Utility_Tuple.h">
<polygon fill="none" stroke="black" points="494,-380.5 494,-410.5 587,-410.5 587,-380.5 494,-380.5"/>
<text text-anchor="start" x="502" y="-398.5" font-family="Helvetica,sans-Serif" font-size="10.00">hydra/detail/utility</text>
<text text-anchor="middle" x="540.5" y="-387.5" font-family="Helvetica,sans-Serif" font-size="10.00">/Utility_Tuple.h</text>
</a>
</g>
</g>
<!-- Node1&#45;&gt;Node16 -->
<g id="edge15" class="edge"><title>Node1&#45;&gt;Node16</title>
<path fill="none" stroke="midnightblue" d="M315.659,-447.716C356.011,-439.476 419.501,-426.193 483.869,-411.093"/>
<polygon fill="midnightblue" stroke="midnightblue" points="484.857,-414.456 493.786,-408.753 483.249,-407.643 484.857,-414.456"/>
</g>
<!-- Node3 -->
<g id="node3" class="node"><title>Node3</title>
<polygon fill="none" stroke="#bfbfbf" points="0,-11.5 0,-30.5 105,-30.5 105,-11.5 0,-11.5"/>
<text text-anchor="middle" x="52.5" y="-18.5" font-family="Helvetica,sans-Serif" font-size="10.00">thrust/detail/config.h</text>
</g>
<!-- Node2&#45;&gt;Node3 -->
<g id="edge2" class="edge"><title>Node2&#45;&gt;Node3</title>
<path fill="none" stroke="midnightblue" d="M352.791,-81.4363C293.638,-74.6884 195.965,-61.71 113.5,-42 104.107,-39.7549 94.0832,-36.7381 84.9324,-33.7293"/>
<polygon fill="midnightblue" stroke="midnightblue" points="86.0107,-30.3992 75.4164,-30.5044 83.7639,-37.0289 86.0107,-30.3992"/>
</g>
<!-- Node4 -->
<g id="node4" class="node"><title>Node4</title>
<polygon fill="none" stroke="#bfbfbf" points="123,-6 123,-36 220,-36 220,-6 123,-6"/>
<text text-anchor="start" x="131" y="-24" font-family="Helvetica,sans-Serif" font-size="10.00">thrust/detail/config</text>
<text text-anchor="middle" x="171.5" y="-13" font-family="Helvetica,sans-Serif" font-size="10.00">/host_device.h</text>
</g>
<!-- Node2&#45;&gt;Node4 -->
<g id="edge3" class="edge"><title>Node2&#45;&gt;Node4</title>
<path fill="none" stroke="midnightblue" d="M369.303,-78.4937C333.316,-70.0408 277.346,-56.3044 229.5,-42 226.584,-41.1281 223.596,-40.2016 220.588,-39.2436"/>
<polygon fill="midnightblue" stroke="midnightblue" points="221.574,-35.8837 210.981,-36.1048 219.4,-42.5375 221.574,-35.8837"/>
</g>
<!-- Node5 -->
<g id="node5" class="node"><title>Node5</title>
<polygon fill="none" stroke="#bfbfbf" points="238.5,-11.5 238.5,-30.5 282.5,-30.5 282.5,-11.5 238.5,-11.5"/>
<text text-anchor="middle" x="260.5" y="-18.5" font-family="Helvetica,sans-Serif" font-size="10.00">omp.h</text>
</g>
<!-- Node2&#45;&gt;Node5 -->
<g id="edge4" class="edge"><title>Node2&#45;&gt;Node5</title>
<path fill="none" stroke="midnightblue" d="M380.277,-78.4243C356.538,-70.2698 320.892,-57.0404 291.5,-42 288.047,-40.233 284.493,-38.1827 281.078,-36.0821"/>
<polygon fill="midnightblue" stroke="midnightblue" points="282.833,-33.0485 272.533,-30.564 279.035,-38.929 282.833,-33.0485"/>
</g>
<!-- Node6 -->
<g id="node6" class="node"><title>Node6</title>
<polygon fill="none" stroke="#bfbfbf" points="300.5,-11.5 300.5,-30.5 346.5,-30.5 346.5,-11.5 300.5,-11.5"/>
<text text-anchor="middle" x="323.5" y="-18.5" font-family="Helvetica,sans-Serif" font-size="10.00">cuda.h</text>
</g>
<!-- Node2&#45;&gt;Node6 -->
<g id="edge5" class="edge"><title>Node2&#45;&gt;Node6</title>
<path fill="none" stroke="midnightblue" d="M395.306,-78.2338C381.866,-67.708 359.1,-49.8793 342.804,-37.1174"/>
<polygon fill="midnightblue" stroke="midnightblue" points="344.547,-34.0374 334.516,-30.6273 340.231,-39.5486 344.547,-34.0374"/>
</g>
<!-- Node7 -->
<g id="node7" class="node"><title>Node7</title>
<polygon fill="none" stroke="#bfbfbf" points="365,-11.5 365,-30.5 448,-30.5 448,-11.5 365,-11.5"/>
<text text-anchor="middle" x="406.5" y="-18.5" font-family="Helvetica,sans-Serif" font-size="10.00">cuda_runtime.h</text>
</g>
<!-- Node2&#45;&gt;Node7 -->
<g id="edge6" class="edge"><title>Node2&#45;&gt;Node7</title>
<path fill="none" stroke="midnightblue" d="M406.5,-78.2338C406.5,-68.6826 406.5,-53.1183 406.5,-40.7829"/>
<polygon fill="midnightblue" stroke="midnightblue" points="410,-40.6273 406.5,-30.6273 403,-40.6273 410,-40.6273"/>
</g>
<!-- Node8 -->
<g id="node8" class="node"><title>Node8</title>
<polygon fill="none" stroke="#bfbfbf" points="466,-11.5 466,-30.5 567,-30.5 567,-11.5 466,-11.5"/>
<text text-anchor="middle" x="516.5" y="-18.5" font-family="Helvetica,sans-Serif" font-size="10.00">cuda_runtime_api.h</text>
</g>
<!-- Node2&#45;&gt;Node8 -->
<g id="edge7" class="edge"><title>Node2&#45;&gt;Node8</title>
<path fill="none" stroke="midnightblue" d="M421.335,-78.2338C439.808,-67.3182 471.572,-48.5487 493.28,-35.7209"/>
<polygon fill="midnightblue" stroke="midnightblue" points="495.071,-38.7279 501.9,-30.6273 491.51,-32.7014 495.071,-38.7279"/>
</g>
<!-- Node9 -->
<g id="node9" class="node"><title>Node9</title>
<polygon fill="none" stroke="#bfbfbf" points="585.5,-11.5 585.5,-30.5 677.5,-30.5 677.5,-11.5 585.5,-11.5"/>
<text text-anchor="middle" x="631.5" y="-18.5" font-family="Helvetica,sans-Serif" font-size="10.00">math_functions.h</text>
</g>
<!-- Node2&#45;&gt;Node9 -->
<g id="edge8" class="edge"><title>Node2&#45;&gt;Node9</title>
<path fill="none" stroke="midnightblue" d="M442.025,-78.4502C476.393,-69.9654 529.838,-56.2065 575.5,-42 583.332,-39.5632 591.697,-36.7125 599.509,-33.9395"/>
<polygon fill="midnightblue" stroke="midnightblue" points="600.809,-37.1916 609.028,-30.5057 598.433,-30.6069 600.809,-37.1916"/>
</g>
<!-- Node10 -->
<g id="node10" class="node"><title>Node10</title>
<polygon fill="none" stroke="#bfbfbf" points="696,-6 696,-36 797,-36 797,-6 696,-6"/>
<text text-anchor="start" x="704" y="-24" font-family="Helvetica,sans-Serif" font-size="10.00">thrust/system/cuda</text>
<text text-anchor="middle" x="746.5" y="-13" font-family="Helvetica,sans-Serif" font-size="10.00">/execution_policy.h</text>
</g>
<!-- Node2&#45;&gt;Node10 -->
<g id="edge9" class="edge"><title>Node2&#45;&gt;Node10</title>
<path fill="none" stroke="midnightblue" d="M460.191,-78.8523C535.296,-67.3813 664.982,-47.2783 686.5,-42 690.126,-41.1106 693.847,-40.1047 697.574,-39.0288"/>
<polygon fill="midnightblue" stroke="midnightblue" points="698.839,-42.3026 707.392,-36.0498 696.807,-35.6041 698.839,-42.3026"/>
</g>
<!-- Node11 -->
<g id="node11" class="node"><title>Node11</title>
<polygon fill="none" stroke="#bfbfbf" points="815,-0.5 815,-41.5 922,-41.5 922,-0.5 815,-0.5"/>
<text text-anchor="start" x="823" y="-29.5" font-family="Helvetica,sans-Serif" font-size="10.00">thrust/system/cuda</text>
<text text-anchor="start" x="823" y="-18.5" font-family="Helvetica,sans-Serif" font-size="10.00">/experimental/pinned</text>
<text text-anchor="middle" x="868.5" y="-7.5" font-family="Helvetica,sans-Serif" font-size="10.00">_allocator.h</text>
</g>
<!-- Node2&#45;&gt;Node11 -->
<g id="edge10" class="edge"><title>Node2&#45;&gt;Node11</title>
<path fill="none" stroke="midnightblue" d="M460.252,-79.0707C463.04,-78.699 465.802,-78.3398 468.5,-78 614.738,-59.5816 656.308,-72.3683 804.796,-41.9204"/>
<polygon fill="midnightblue" stroke="midnightblue" points="805.657,-45.3163 814.734,-39.8515 804.23,-38.4632 805.657,-45.3163"/>
</g>
<!-- Node16&#45;&gt;Node2 -->
<g id="edge16" class="edge"><title>Node16&#45;&gt;Node2</title>
<path fill="none" stroke="midnightblue" d="M493.787,-382.243C490.648,-381.469 487.53,-380.715 484.5,-380 409.754,-362.371 377.608,-389.169 315.5,-344 281.683,-319.407 268.5,-304.314 268.5,-262.5 268.5,-262.5 268.5,-262.5 268.5,-199 268.5,-147.66 327.625,-116.401 368.474,-100.931"/>
<polygon fill="midnightblue" stroke="midnightblue" points="369.697,-104.211 377.906,-97.5128 367.312,-97.6296 369.697,-104.211"/>
</g>
<!-- Node17 -->
<g id="node17" class="node"><title>Node17</title>
<g id="a_node17"><a xlink:href="../../d9/d4b/a00117.html" target="_top" xlink:title="hydra/Types.h">
<polygon fill="none" stroke="black" points="478,-78.5 478,-97.5 557,-97.5 557,-78.5 478,-78.5"/>
<text text-anchor="middle" x="517.5" y="-85.5" font-family="Helvetica,sans-Serif" font-size="10.00">hydra/Types.h</text>
</a>
</g>
</g>
<!-- Node16&#45;&gt;Node17 -->
<g id="edge17" class="edge"><title>Node16&#45;&gt;Node17</title>
<path fill="none" stroke="midnightblue" d="M493.991,-382.377C438.209,-367.803 351.949,-345.143 350.5,-344 318.178,-318.51 306.5,-303.664 306.5,-262.5 306.5,-262.5 306.5,-262.5 306.5,-199 306.5,-160.65 417.483,-120.068 478.469,-100.663"/>
<polygon fill="midnightblue" stroke="midnightblue" points="479.667,-103.956 488.161,-97.6233 477.572,-97.2764 479.667,-103.956"/>
</g>
<!-- Node18 -->
<g id="node18" class="node"><title>Node18</title>
<g id="a_node18"><a xlink:href="../../da/d2a/a00086.html" target="_top" xlink:title="hydra/detail/utility\l/Generic.h">
<polygon fill="none" stroke="black" points="373,-313.5 373,-343.5 466,-343.5 466,-313.5 373,-313.5"/>
<text text-anchor="start" x="381" y="-331.5" font-family="Helvetica,sans-Serif" font-size="10.00">hydra/detail/utility</text>
<text text-anchor="middle" x="419.5" y="-320.5" font-family="Helvetica,sans-Serif" font-size="10.00">/Generic.h</text>
</a>
</g>
</g>
<!-- Node16&#45;&gt;Node18 -->
<g id="edge18" class="edge"><title>Node16&#45;&gt;Node18</title>
<path fill="none" stroke="midnightblue" d="M514.245,-380.396C496.803,-371.026 473.7,-358.615 454.674,-348.395"/>
<polygon fill="midnightblue" stroke="midnightblue" points="456.17,-345.226 445.704,-343.577 452.857,-351.392 456.17,-345.226"/>
</g>
<!-- Node19 -->
<g id="node19" class="node"><title>Node19</title>
<polygon fill="none" stroke="#bfbfbf" points="334.5,-252 334.5,-271 396.5,-271 396.5,-252 334.5,-252"/>
<text text-anchor="middle" x="365.5" y="-259" font-family="Helvetica,sans-Serif" font-size="10.00">type_traits</text>
</g>
<!-- Node16&#45;&gt;Node19 -->
<g id="edge52" class="edge"><title>Node16&#45;&gt;Node19</title>
<path fill="none" stroke="midnightblue" d="M493.772,-381.9C442.02,-367.839 365.533,-346.694 363.5,-344 349.881,-325.952 354.038,-298.692 359.089,-280.745"/>
<polygon fill="midnightblue" stroke="midnightblue" points="362.44,-281.757 362.118,-271.167 355.766,-279.646 362.44,-281.757"/>
</g>
<!-- Node20 -->
<g id="node20" class="node"><title>Node20</title>
<polygon fill="none" stroke="#bfbfbf" points="391.5,-190.5 391.5,-209.5 429.5,-209.5 429.5,-190.5 391.5,-190.5"/>
<text text-anchor="middle" x="410.5" y="-197.5" font-family="Helvetica,sans-Serif" font-size="10.00">array</text>
</g>
<!-- Node16&#45;&gt;Node20 -->
<g id="edge53" class="edge"><title>Node16&#45;&gt;Node20</title>
<path fill="none" stroke="midnightblue" d="M530.941,-380.271C507.481,-345.352 447.14,-255.537 421.884,-217.944"/>
<polygon fill="midnightblue" stroke="midnightblue" points="424.744,-215.926 416.262,-209.577 418.934,-219.829 424.744,-215.926"/>
</g>
<!-- Node21 -->
<g id="node21" class="node"><title>Node21</title>
<g id="a_node21"><a xlink:href="../../d8/d87/a00118.html" target="_top" xlink:title="hydra/detail/TypeTraits.h">
<polygon fill="none" stroke="black" points="523,-319 523,-338 648,-338 648,-319 523,-319"/>
<text text-anchor="middle" x="585.5" y="-326" font-family="Helvetica,sans-Serif" font-size="10.00">hydra/detail/TypeTraits.h</text>
</a>
</g>
</g>
<!-- Node16&#45;&gt;Node21 -->
<g id="edge21" class="edge"><title>Node16&#45;&gt;Node21</title>
<path fill="none" stroke="midnightblue" d="M550.264,-380.396C557.142,-370.462 566.387,-357.108 573.681,-346.572"/>
<polygon fill="midnightblue" stroke="midnightblue" points="576.666,-348.409 579.481,-338.195 570.911,-344.424 576.666,-348.409"/>
</g>
<!-- Node34 -->
<g id="node34" class="node"><title>Node34</title>
<polygon fill="none" stroke="#bfbfbf" points="833,-246.5 833,-276.5 922,-276.5 922,-246.5 833,-246.5"/>
<text text-anchor="start" x="841" y="-264.5" font-family="Helvetica,sans-Serif" font-size="10.00">thrust/detail/type</text>
<text text-anchor="middle" x="877.5" y="-253.5" font-family="Helvetica,sans-Serif" font-size="10.00">_traits.h</text>
</g>
<!-- Node16&#45;&gt;Node34 -->
<g id="edge50" class="edge"><title>Node16&#45;&gt;Node34</title>
<path fill="none" stroke="midnightblue" d="M579.621,-380.426C602.721,-371.402 632.119,-358.651 656.5,-344 675.479,-332.595 675.77,-323.05 695.5,-313 698.451,-311.497 770.187,-291.772 822.698,-277.427"/>
<polygon fill="midnightblue" stroke="midnightblue" points="823.863,-280.737 832.588,-274.726 822.019,-273.984 823.863,-280.737"/>
</g>
<!-- Node36 -->
<g id="node36" class="node"><title>Node36</title>
<polygon fill="none" stroke="#bfbfbf" points="704.5,-319 704.5,-338 778.5,-338 778.5,-319 704.5,-319"/>
<text text-anchor="middle" x="741.5" y="-326" font-family="Helvetica,sans-Serif" font-size="10.00">thrust/tuple.h</text>
</g>
<!-- Node16&#45;&gt;Node36 -->
<g id="edge49" class="edge"><title>Node16&#45;&gt;Node36</title>
<path fill="none" stroke="midnightblue" d="M584.114,-380.396C620.474,-368.638 671.647,-352.089 705.655,-341.092"/>
<polygon fill="midnightblue" stroke="midnightblue" points="706.756,-344.414 715.194,-338.007 704.602,-337.754 706.756,-344.414"/>
</g>
<!-- Node37 -->
<g id="node37" class="node"><title>Node37</title>
<polygon fill="none" stroke="#bfbfbf" points="797,-313.5 797,-343.5 946,-343.5 946,-313.5 797,-313.5"/>
<text text-anchor="start" x="805" y="-331.5" font-family="Helvetica,sans-Serif" font-size="10.00">thrust/iterator/detail</text>
<text text-anchor="middle" x="871.5" y="-320.5" font-family="Helvetica,sans-Serif" font-size="10.00">/tuple_of_iterator_references.h</text>
</g>
<!-- Node16&#45;&gt;Node37 -->
<g id="edge51" class="edge"><title>Node16&#45;&gt;Node37</title>
<path fill="none" stroke="midnightblue" d="M587.222,-385.325C639.829,-374.994 726.278,-358.018 790.055,-345.494"/>
<polygon fill="midnightblue" stroke="midnightblue" points="790.949,-348.885 800.087,-343.524 789.6,-342.016 790.949,-348.885"/>
</g>
<!-- Node18&#45;&gt;Node19 -->
<g id="edge19" class="edge"><title>Node18&#45;&gt;Node19</title>
<path fill="none" stroke="midnightblue" d="M407.783,-313.396C399.363,-303.261 387.987,-289.567 379.155,-278.937"/>
<polygon fill="midnightblue" stroke="midnightblue" points="381.806,-276.65 372.723,-271.195 376.421,-281.123 381.806,-276.65"/>
</g>
<!-- Node18&#45;&gt;Node20 -->
<g id="edge20" class="edge"><title>Node18&#45;&gt;Node20</title>
<path fill="none" stroke="midnightblue" d="M418.502,-313.479C416.883,-290.719 413.68,-245.702 411.856,-220.058"/>
<polygon fill="midnightblue" stroke="midnightblue" points="415.326,-219.515 411.125,-209.789 408.344,-220.012 415.326,-219.515"/>
</g>
<!-- Node21&#45;&gt;Node2 -->
<g id="edge22" class="edge"><title>Node21&#45;&gt;Node2</title>
<path fill="none" stroke="midnightblue" d="M572.806,-318.847C559.711,-309.521 539.185,-293.746 524.5,-277 475.227,-220.809 432.888,-141.86 415.255,-106.883"/>
<polygon fill="midnightblue" stroke="midnightblue" points="418.183,-104.909 410.596,-97.5137 411.915,-108.026 418.183,-104.909"/>
</g>
<!-- Node21&#45;&gt;Node19 -->
<g id="edge45" class="edge"><title>Node21&#45;&gt;Node19</title>
<path fill="none" stroke="midnightblue" d="M556.286,-318.869C517.14,-307.303 447.573,-286.749 404.134,-273.914"/>
<polygon fill="midnightblue" stroke="midnightblue" points="405.067,-270.541 394.485,-271.064 403.083,-277.254 405.067,-270.541"/>
</g>
<!-- Node22 -->
<g id="node22" class="node"><title>Node22</title>
<g id="a_node22"><a xlink:href="../../d2/db1/a00070.html" target="_top" xlink:title="Typedef for useful container classes used in MCBooster. ">
<polygon fill="none" stroke="black" points="534,-252 534,-271 633,-271 633,-252 534,-252"/>
<text text-anchor="middle" x="583.5" y="-259" font-family="Helvetica,sans-Serif" font-size="10.00">hydra/Containers.h</text>
</a>
</g>
</g>
<!-- Node21&#45;&gt;Node22 -->
<g id="edge23" class="edge"><title>Node21&#45;&gt;Node22</title>
<path fill="none" stroke="midnightblue" d="M585.23,-318.734C584.936,-309.183 584.457,-293.618 584.078,-281.283"/>
<polygon fill="midnightblue" stroke="midnightblue" points="587.571,-281.015 583.765,-271.127 580.575,-281.23 587.571,-281.015"/>
</g>
<!-- Node33 -->
<g id="node33" class="node"><title>Node33</title>
<polygon fill="none" stroke="#bfbfbf" points="1027,-190.5 1027,-209.5 1116,-209.5 1116,-190.5 1027,-190.5"/>
<text text-anchor="middle" x="1071.5" y="-197.5" font-family="Helvetica,sans-Serif" font-size="10.00">thrust/complex.h</text>
</g>
<!-- Node21&#45;&gt;Node33 -->
<g id="edge46" class="edge"><title>Node21&#45;&gt;Node33</title>
<path fill="none" stroke="midnightblue" d="M595.053,-318.732C617.101,-298.579 670.426,-250.352 680.5,-246 815.81,-187.553 866.09,-228.543 1016.68,-209.978"/>
<polygon fill="midnightblue" stroke="midnightblue" points="1017.28,-213.43 1026.74,-208.668 1016.37,-206.488 1017.28,-213.43"/>
</g>
<!-- Node21&#45;&gt;Node34 -->
<g id="edge47" class="edge"><title>Node21&#45;&gt;Node34</title>
<path fill="none" stroke="midnightblue" d="M629.086,-318.976C674.876,-309.861 749.205,-294.609 822.846,-277.085"/>
<polygon fill="midnightblue" stroke="midnightblue" points="823.848,-280.444 832.758,-274.711 822.218,-273.636 823.848,-280.444"/>
</g>
<!-- Node35 -->
<g id="node35" class="node"><title>Node35</title>
<polygon fill="none" stroke="#bfbfbf" points="690,-252 690,-271 815,-271 815,-252 690,-252"/>
<text text-anchor="middle" x="752.5" y="-259" font-family="Helvetica,sans-Serif" font-size="10.00">thrust/execution_policy.h</text>
</g>
<!-- Node21&#45;&gt;Node35 -->
<g id="edge48" class="edge"><title>Node21&#45;&gt;Node35</title>
<path fill="none" stroke="midnightblue" d="M607.676,-318.869C636.703,-307.571 687.765,-287.696 720.851,-274.818"/>
<polygon fill="midnightblue" stroke="midnightblue" points="722.448,-277.953 730.498,-271.064 719.909,-271.429 722.448,-277.953"/>
</g>
<!-- Node22&#45;&gt;Node2 -->
<g id="edge26" class="edge"><title>Node22&#45;&gt;Node2</title>
<path fill="none" stroke="midnightblue" d="M576.182,-251.695C555.145,-226.47 494.536,-154.443 471.5,-134 458.531,-122.491 442.532,-111.382 429.652,-103.081"/>
<polygon fill="midnightblue" stroke="midnightblue" points="431.238,-99.9429 420.913,-97.5672 427.503,-105.863 431.238,-99.9429"/>
</g>
<!-- Node22&#45;&gt;Node17 -->
<g id="edge27" class="edge"><title>Node22&#45;&gt;Node17</title>
<path fill="none" stroke="midnightblue" d="M577.259,-251.956C570.388,-242.217 559.402,-225.62 552.5,-210 537.164,-175.292 526.538,-132.044 521.283,-107.779"/>
<polygon fill="midnightblue" stroke="midnightblue" points="524.666,-106.86 519.192,-97.7881 517.814,-108.293 524.666,-106.86"/>
</g>
<!-- Node22&#45;&gt;Node20 -->
<g id="edge25" class="edge"><title>Node22&#45;&gt;Node20</title>
<path fill="none" stroke="midnightblue" d="M558.713,-251.975C527.131,-241.113 472.647,-222.374 439.268,-210.894"/>
<polygon fill="midnightblue" stroke="midnightblue" points="440.229,-207.524 429.635,-207.581 437.953,-214.143 440.229,-207.524"/>
</g>
<!-- Node23 -->
<g id="node23" class="node"><title>Node23</title>
<polygon fill="none" stroke="#bfbfbf" points="561.5,-190.5 561.5,-209.5 605.5,-209.5 605.5,-190.5 561.5,-190.5"/>
<text text-anchor="middle" x="583.5" y="-197.5" font-family="Helvetica,sans-Serif" font-size="10.00">vector</text>
</g>
<!-- Node22&#45;&gt;Node23 -->
<g id="edge24" class="edge"><title>Node22&#45;&gt;Node23</title>
<path fill="none" stroke="midnightblue" d="M583.5,-251.975C583.5,-243.58 583.5,-230.481 583.5,-219.663"/>
<polygon fill="midnightblue" stroke="midnightblue" points="587,-219.509 583.5,-209.509 580,-219.509 587,-219.509"/>
</g>
<!-- Node24 -->
<g id="node24" class="node"><title>Node24</title>
<g id="a_node24"><a xlink:href="../../d8/dfa/a00121.html" target="_top" xlink:title="hydra/Vector3R.h">
<polygon fill="none" stroke="black" points="638,-134.5 638,-153.5 731,-153.5 731,-134.5 638,-134.5"/>
<text text-anchor="middle" x="684.5" y="-141.5" font-family="Helvetica,sans-Serif" font-size="10.00">hydra/Vector3R.h</text>
</a>
</g>
</g>
<!-- Node22&#45;&gt;Node24 -->
<g id="edge28" class="edge"><title>Node22&#45;&gt;Node24</title>
<path fill="none" stroke="midnightblue" d="M591.091,-251.819C607.835,-232.672 648.171,-186.544 669.957,-161.631"/>
<polygon fill="midnightblue" stroke="midnightblue" points="672.872,-163.614 676.82,-153.782 667.603,-159.006 672.872,-163.614"/>
</g>
<!-- Node29 -->
<g id="node29" class="node"><title>Node29</title>
<g id="a_node29"><a xlink:href="../../df/dc8/a00122.html" target="_top" xlink:title="hydra/Vector4R.h">
<polygon fill="none" stroke="black" points="662,-190.5 662,-209.5 755,-209.5 755,-190.5 662,-190.5"/>
<text text-anchor="middle" x="708.5" y="-197.5" font-family="Helvetica,sans-Serif" font-size="10.00">hydra/Vector4R.h</text>
</a>
</g>
</g>
<!-- Node22&#45;&gt;Node29 -->
<g id="edge35" class="edge"><title>Node22&#45;&gt;Node29</title>
<path fill="none" stroke="midnightblue" d="M601.409,-251.975C622.387,-241.99 657.35,-225.348 681.593,-213.807"/>
<polygon fill="midnightblue" stroke="midnightblue" points="683.099,-216.967 690.624,-209.509 680.09,-210.647 683.099,-216.967"/>
</g>
<!-- Node31 -->
<g id="node31" class="node"><title>Node31</title>
<polygon fill="none" stroke="#bfbfbf" points="773,-190.5 773,-209.5 886,-209.5 886,-190.5 773,-190.5"/>
<text text-anchor="middle" x="829.5" y="-197.5" font-family="Helvetica,sans-Serif" font-size="10.00">thrust/device_vector.h</text>
</g>
<!-- Node22&#45;&gt;Node31 -->
<g id="edge42" class="edge"><title>Node22&#45;&gt;Node31</title>
<path fill="none" stroke="midnightblue" d="M618.746,-251.975C662.405,-241.415 736.843,-223.411 784.563,-211.869"/>
<polygon fill="midnightblue" stroke="midnightblue" points="785.423,-215.262 794.32,-209.509 783.777,-208.458 785.423,-215.262"/>
</g>
<!-- Node32 -->
<g id="node32" class="node"><title>Node32</title>
<polygon fill="none" stroke="#bfbfbf" points="904.5,-190.5 904.5,-209.5 1008.5,-209.5 1008.5,-190.5 904.5,-190.5"/>
<text text-anchor="middle" x="956.5" y="-197.5" font-family="Helvetica,sans-Serif" font-size="10.00">thrust/host_vector.h</text>
</g>
<!-- Node22&#45;&gt;Node32 -->
<g id="edge43" class="edge"><title>Node22&#45;&gt;Node32</title>
<path fill="none" stroke="midnightblue" d="M618.942,-251.948C628.207,-249.856 638.203,-247.725 647.5,-246 753.8,-226.275 783.569,-226.12 894.031,-210.201"/>
<polygon fill="midnightblue" stroke="midnightblue" points="894.865,-213.617 904.258,-208.716 893.858,-206.69 894.865,-213.617"/>
</g>
<!-- Node22&#45;&gt;Node33 -->
<g id="edge44" class="edge"><title>Node22&#45;&gt;Node33</title>
<path fill="none" stroke="midnightblue" d="M617.556,-251.949C627.189,-249.758 637.715,-247.578 647.5,-246 807.428,-220.208 851.967,-231.143 1016.75,-210.002"/>
<polygon fill="midnightblue" stroke="midnightblue" points="1017.28,-213.463 1026.75,-208.7 1016.38,-206.522 1017.28,-213.463"/>
</g>
<!-- Node24&#45;&gt;Node2 -->
<g id="edge29" class="edge"><title>Node24&#45;&gt;Node2</title>
<path fill="none" stroke="midnightblue" d="M640.45,-134.444C591.649,-124.964 512.937,-109.675 460.47,-99.4835"/>
<polygon fill="midnightblue" stroke="midnightblue" points="460.828,-95.9875 450.344,-97.5164 459.493,-102.859 460.828,-95.9875"/>
</g>
<!-- Node24&#45;&gt;Node17 -->
<g id="edge30" class="edge"><title>Node24&#45;&gt;Node17</title>
<path fill="none" stroke="midnightblue" d="M658.038,-134.444C629.822,-125.32 584.96,-110.813 553.532,-100.651"/>
<polygon fill="midnightblue" stroke="midnightblue" points="554.43,-97.263 543.838,-97.5164 552.276,-103.923 554.43,-97.263"/>
</g>
<!-- Node25 -->
<g id="node25" class="node"><title>Node25</title>
<polygon fill="none" stroke="#bfbfbf" points="575,-78.5 575,-97.5 620,-97.5 620,-78.5 575,-78.5"/>
<text text-anchor="middle" x="597.5" y="-85.5" font-family="Helvetica,sans-Serif" font-size="10.00">iosfwd</text>
</g>
<!-- Node24&#45;&gt;Node25 -->
<g id="edge31" class="edge"><title>Node24&#45;&gt;Node25</title>
<path fill="none" stroke="midnightblue" d="M670.522,-134.324C656.95,-125.9 636.12,-112.971 620.175,-103.074"/>
<polygon fill="midnightblue" stroke="midnightblue" points="621.786,-99.9544 611.443,-97.6545 618.094,-105.902 621.786,-99.9544"/>
</g>
<!-- Node26 -->
<g id="node26" class="node"><title>Node26</title>
<polygon fill="none" stroke="#bfbfbf" points="780.5,-78.5 780.5,-97.5 834.5,-97.5 834.5,-78.5 780.5,-78.5"/>
<text text-anchor="middle" x="807.5" y="-85.5" font-family="Helvetica,sans-Serif" font-size="10.00">iostream</text>
</g>
<!-- Node24&#45;&gt;Node26 -->
<g id="edge32" class="edge"><title>Node24&#45;&gt;Node26</title>
<path fill="none" stroke="midnightblue" d="M703.99,-134.444C724.142,-125.596 755.823,-111.687 778.831,-101.586"/>
<polygon fill="midnightblue" stroke="midnightblue" points="780.352,-104.741 788.101,-97.5164 777.538,-98.3316 780.352,-104.741"/>
</g>
<!-- Node27 -->
<g id="node27" class="node"><title>Node27</title>
<polygon fill="none" stroke="#bfbfbf" points="853,-78.5 853,-97.5 900,-97.5 900,-78.5 853,-78.5"/>
<text text-anchor="middle" x="876.5" y="-85.5" font-family="Helvetica,sans-Serif" font-size="10.00">math.h</text>
</g>
<!-- Node24&#45;&gt;Node27 -->
<g id="edge33" class="edge"><title>Node24&#45;&gt;Node27</title>
<path fill="none" stroke="midnightblue" d="M714.923,-134.444C749.762,-124.645 806.672,-108.639 842.821,-98.4723"/>
<polygon fill="midnightblue" stroke="midnightblue" points="844.198,-101.721 852.877,-95.6439 842.303,-94.9821 844.198,-101.721"/>
</g>
<!-- Node28 -->
<g id="node28" class="node"><title>Node28</title>
<polygon fill="none" stroke="#bfbfbf" points="638.5,-78.5 638.5,-97.5 762.5,-97.5 762.5,-78.5 638.5,-78.5"/>
<text text-anchor="middle" x="700.5" y="-85.5" font-family="Helvetica,sans-Serif" font-size="10.00">hydra/detail/Vector3R.inl</text>
</g>
<!-- Node24&#45;&gt;Node28 -->
<g id="edge34" class="edge"><title>Node24&#45;&gt;Node28</title>
<path fill="none" stroke="midnightblue" d="M687.142,-134.083C689.286,-126.849 692.379,-116.409 695.049,-107.397"/>
<polygon fill="midnightblue" stroke="midnightblue" points="698.422,-108.333 697.907,-97.7511 691.71,-106.345 698.422,-108.333"/>
</g>
<!-- Node29&#45;&gt;Node2 -->
<g id="edge38" class="edge"><title>Node29&#45;&gt;Node2</title>
<path fill="none" stroke="midnightblue" d="M684.803,-190.368C631.325,-170.89 501.161,-123.479 439.69,-101.089"/>
<polygon fill="midnightblue" stroke="midnightblue" points="440.681,-97.7253 430.087,-97.5914 438.286,-104.303 440.681,-97.7253"/>
</g>
<!-- Node29&#45;&gt;Node17 -->
<g id="edge39" class="edge"><title>Node29&#45;&gt;Node17</title>
<path fill="none" stroke="midnightblue" d="M693.119,-190.452C676.978,-181.458 650.889,-166.851 628.5,-154 598.165,-136.588 563.399,-116.151 540.98,-102.908"/>
<polygon fill="midnightblue" stroke="midnightblue" points="542.565,-99.7799 532.176,-97.7032 539.003,-105.806 542.565,-99.7799"/>
</g>
<!-- Node29&#45;&gt;Node24 -->
<g id="edge40" class="edge"><title>Node29&#45;&gt;Node24</title>
<path fill="none" stroke="midnightblue" d="M704.537,-190.083C701.287,-182.77 696.581,-172.181 692.546,-163.103"/>
<polygon fill="midnightblue" stroke="midnightblue" points="695.649,-161.468 688.389,-153.751 689.252,-164.311 695.649,-161.468"/>
</g>
<!-- Node29&#45;&gt;Node26 -->
<g id="edge37" class="edge"><title>Node29&#45;&gt;Node26</title>
<path fill="none" stroke="midnightblue" d="M716.268,-190.368C732.823,-171.974 771.796,-128.671 793.053,-105.052"/>
<polygon fill="midnightblue" stroke="midnightblue" points="795.68,-107.366 799.768,-97.5914 790.477,-102.683 795.68,-107.366"/>
</g>
<!-- Node29&#45;&gt;Node27 -->
<g id="edge36" class="edge"><title>Node29&#45;&gt;Node27</title>
<path fill="none" stroke="midnightblue" d="M721.683,-190.368C750.512,-171.492 819.403,-126.385 854.757,-103.237"/>
<polygon fill="midnightblue" stroke="midnightblue" points="856.93,-105.997 863.379,-97.5914 853.095,-100.141 856.93,-105.997"/>
</g>
<!-- Node30 -->
<g id="node30" class="node"><title>Node30</title>
<polygon fill="none" stroke="#bfbfbf" points="825.5,-134.5 825.5,-153.5 949.5,-153.5 949.5,-134.5 825.5,-134.5"/>
<text text-anchor="middle" x="887.5" y="-141.5" font-family="Helvetica,sans-Serif" font-size="10.00">hydra/detail/Vector4R.inl</text>
</g>
<!-- Node29&#45;&gt;Node30 -->
<g id="edge41" class="edge"><title>Node29&#45;&gt;Node30</title>
<path fill="none" stroke="midnightblue" d="M736.863,-190.444C767.238,-181.28 815.61,-166.688 849.316,-156.519"/>
<polygon fill="midnightblue" stroke="midnightblue" points="850.707,-159.756 859.27,-153.516 848.685,-153.054 850.707,-159.756"/>
</g>
</g>
</svg>
