<?xml version="1.0" encoding="UTF-8" standalone="no"?>
<!DOCTYPE svg PUBLIC "-//W3C//DTD SVG 1.1//EN"
 "http://www.w3.org/Graphics/SVG/1.1/DTD/svg11.dtd">
<!-- Generated by graphviz version 2.38.0 (20140413.2041)
 -->
<!-- Title: Minus.h Pages: 1 -->
<!--zoomable 531 -->
<svg id="main" version="1.1" xmlns="http://www.w3.org/2000/svg" xmlns:xlink="http://www.w3.org/1999/xlink" xml:space="preserve" onload="init(evt)">
<style type="text/css"><![CDATA[
.edge:hover path { stroke: red; }
.edge:hover polygon { stroke: red; fill: red; }
]]></style>
<script type="text/javascript"><![CDATA[
var edges = document.getElementsByTagName('g');
if (edges && edges.length) {
  for (var i=0;i<edges.length;i++) {
    if (edges[i].id.substr(0,4)=='edge') {
      edges[i].setAttribute('class','edge');
    }
  }
}
]]></script>
        <defs>
                <circle id="rim" cx="0" cy="0" r="7"/>
                <circle id="rim2" cx="0" cy="0" r="3.5"/>
                <g id="zoomPlus">
                        <use xlink:href="#rim" fill="#404040">
                                <set attributeName="fill" to="#808080" begin="zoomplus.mouseover" end="zoomplus.mouseout"/>
                        </use>
                        <path d="M-4,0h8M0,-4v8" fill="none" stroke="white" stroke-width="1.5" pointer-events="none"/>
                </g>
                <g id="zoomMin">
                        <use xlink:href="#rim" fill="#404040">
                                <set attributeName="fill" to="#808080" begin="zoomminus.mouseover" end="zoomminus.mouseout"/>
                        </use>
                        <path d="M-4,0h8" fill="none" stroke="white" stroke-width="1.5" pointer-events="none"/>
                </g>
                <g id="dirArrow">
                        <path fill="none" stroke="white" stroke-width="1.5" d="M0,-3.0v7 M-2.5,-0.5L0,-3.0L2.5,-0.5"/>
                </g>
               <g id="resetDef">
                       <use xlink:href="#rim2" fill="#404040">
                               <set attributeName="fill" to="#808080" begin="reset.mouseover" end="reset.mouseout"/>
                       </use>
               </g>
        </defs>

<script type="text/javascript">
var viewWidth = 1223;
var viewHeight = 531;
var sectionId = 'dynsection-0';
</script>
<script xlink:href="../../svgpan.js"/>
<svg id="graph" class="graph">
<g id="viewport">
<title>Minus.h</title>
<!-- Node1 -->
<g id="node1" class="node"><title>Node1</title>
<polygon fill="#bfbfbf" stroke="black" points="616.5,-503.5 616.5,-522.5 667.5,-522.5 667.5,-503.5 616.5,-503.5"/>
<text text-anchor="middle" x="642" y="-510.5" font-family="Helvetica,sans-Serif" font-size="10.00">Minus.h</text>
</g>
<!-- Node2 -->
<g id="node2" class="node"><title>Node2</title>
<g id="a_node2"><a xlink:href="../../d1/d6f/a00063.html" target="_top" xlink:title="hydra/detail/Config.h">
<polygon fill="none" stroke="black" points="411.5,-78.5 411.5,-97.5 518.5,-97.5 518.5,-78.5 411.5,-78.5"/>
<text text-anchor="middle" x="465" y="-85.5" font-family="Helvetica,sans-Serif" font-size="10.00">hydra/detail/Config.h</text>
</a>
</g>
</g>
<!-- Node1&#45;&gt;Node2 -->
<g id="edge1" class="edge"><title>Node1&#45;&gt;Node2</title>
<path fill="none" stroke="midnightblue" d="M616.437,-510.161C497.032,-501.24 0,-460.273 0,-396.5 0,-396.5 0,-396.5 0,-199 0,-117.523 273.773,-96.3183 401.183,-90.8614"/>
<polygon fill="midnightblue" stroke="midnightblue" points="401.356,-94.3574 411.204,-90.4518 401.07,-87.3632 401.356,-94.3574"/>
</g>
<!-- Node12 -->
<g id="node12" class="node"><title>Node12</title>
<g id="a_node12"><a xlink:href="../../d7/d70/a00106.html" target="_top" xlink:title="hydra/Types.h">
<polygon fill="none" stroke="black" points="1079.5,-78.5 1079.5,-97.5 1158.5,-97.5 1158.5,-78.5 1079.5,-78.5"/>
<text text-anchor="middle" x="1119" y="-85.5" font-family="Helvetica,sans-Serif" font-size="10.00">hydra/Types.h</text>
</a>
</g>
</g>
<!-- Node1&#45;&gt;Node12 -->
<g id="edge11" class="edge"><title>Node1&#45;&gt;Node12</title>
<path fill="none" stroke="midnightblue" d="M667.734,-512.375C779.23,-513.322 1215,-509.777 1215,-396.5 1215,-396.5 1215,-396.5 1215,-199 1215,-155.543 1171.94,-120.957 1143.5,-102.851"/>
<polygon fill="midnightblue" stroke="midnightblue" points="1145.21,-99.7936 1134.85,-97.5611 1141.56,-105.765 1145.21,-99.7936"/>
</g>
<!-- Node13 -->
<g id="node13" class="node"><title>Node13</title>
<g id="a_node13"><a xlink:href="../../df/d98/a00107.html" target="_top" xlink:title="hydra/detail/TypeTraits.h">
<polygon fill="none" stroke="black" points="399.5,-319 399.5,-338 524.5,-338 524.5,-319 399.5,-319"/>
<text text-anchor="middle" x="462" y="-326" font-family="Helvetica,sans-Serif" font-size="10.00">hydra/detail/TypeTraits.h</text>
</a>
</g>
</g>
<!-- Node1&#45;&gt;Node13 -->
<g id="edge12" class="edge"><title>Node1&#45;&gt;Node13</title>
<path fill="none" stroke="midnightblue" d="M623.679,-503.379C607.542,-495.287 583.89,-482.178 566,-467 523.739,-431.145 488.203,-375.221 471.774,-347.019"/>
<polygon fill="midnightblue" stroke="midnightblue" points="474.779,-345.225 466.779,-338.279 468.701,-348.698 474.779,-345.225"/>
</g>
<!-- Node32 -->
<g id="node32" class="node"><title>Node32</title>
<g id="a_node32"><a xlink:href="../../dd/d42/a00109.html" target="_top" xlink:title="hydra/detail/utility\l/Utility_Tuple.h">
<polygon fill="none" stroke="black" points="698.5,-380.5 698.5,-410.5 791.5,-410.5 791.5,-380.5 698.5,-380.5"/>
<text text-anchor="start" x="706.5" y="-398.5" font-family="Helvetica,sans-Serif" font-size="10.00">hydra/detail/utility</text>
<text text-anchor="middle" x="745" y="-387.5" font-family="Helvetica,sans-Serif" font-size="10.00">/Utility_Tuple.h</text>
</a>
</g>
</g>
<!-- Node1&#45;&gt;Node32 -->
<g id="edge42" class="edge"><title>Node1&#45;&gt;Node32</title>
<path fill="none" stroke="midnightblue" d="M664.734,-503.386C681.492,-496.003 703.759,-483.874 718,-467 729.224,-453.701 736.068,-435.233 740.056,-420.535"/>
<polygon fill="midnightblue" stroke="midnightblue" points="743.504,-421.172 742.478,-410.627 736.704,-419.51 743.504,-421.172"/>
</g>
<!-- Node36 -->
<g id="node36" class="node"><title>Node36</title>
<g id="a_node36"><a xlink:href="../../d4/de8/a00061.html" target="_top" xlink:title="hydra/detail/base_functor.h">
<polygon fill="none" stroke="black" points="575,-447.5 575,-466.5 709,-466.5 709,-447.5 575,-447.5"/>
<text text-anchor="middle" x="642" y="-454.5" font-family="Helvetica,sans-Serif" font-size="10.00">hydra/detail/base_functor.h</text>
</a>
</g>
</g>
<!-- Node1&#45;&gt;Node36 -->
<g id="edge54" class="edge"><title>Node1&#45;&gt;Node36</title>
<path fill="none" stroke="midnightblue" d="M642,-503.083C642,-496.006 642,-485.861 642,-476.986"/>
<polygon fill="midnightblue" stroke="midnightblue" points="645.5,-476.751 642,-466.751 638.5,-476.751 645.5,-476.751"/>
</g>
<!-- Node3 -->
<g id="node3" class="node"><title>Node3</title>
<polygon fill="none" stroke="#bfbfbf" points="58.5,-11.5 58.5,-30.5 163.5,-30.5 163.5,-11.5 58.5,-11.5"/>
<text text-anchor="middle" x="111" y="-18.5" font-family="Helvetica,sans-Serif" font-size="10.00">thrust/detail/config.h</text>
</g>
<!-- Node2&#45;&gt;Node3 -->
<g id="edge2" class="edge"><title>Node2&#45;&gt;Node3</title>
<path fill="none" stroke="midnightblue" d="M411.291,-81.4363C352.138,-74.6884 254.465,-61.71 172,-42 162.607,-39.7549 152.583,-36.7381 143.432,-33.7293"/>
<polygon fill="midnightblue" stroke="midnightblue" points="144.511,-30.3992 133.916,-30.5044 142.264,-37.0289 144.511,-30.3992"/>
</g>
<!-- Node4 -->
<g id="node4" class="node"><title>Node4</title>
<polygon fill="none" stroke="#bfbfbf" points="181.5,-6 181.5,-36 278.5,-36 278.5,-6 181.5,-6"/>
<text text-anchor="start" x="189.5" y="-24" font-family="Helvetica,sans-Serif" font-size="10.00">thrust/detail/config</text>
<text text-anchor="middle" x="230" y="-13" font-family="Helvetica,sans-Serif" font-size="10.00">/host_device.h</text>
</g>
<!-- Node2&#45;&gt;Node4 -->
<g id="edge3" class="edge"><title>Node2&#45;&gt;Node4</title>
<path fill="none" stroke="midnightblue" d="M427.803,-78.4937C391.816,-70.0408 335.846,-56.3044 288,-42 285.084,-41.1281 282.096,-40.2016 279.088,-39.2436"/>
<polygon fill="midnightblue" stroke="midnightblue" points="280.074,-35.8837 269.481,-36.1048 277.9,-42.5375 280.074,-35.8837"/>
</g>
<!-- Node5 -->
<g id="node5" class="node"><title>Node5</title>
<polygon fill="none" stroke="#bfbfbf" points="297,-11.5 297,-30.5 341,-30.5 341,-11.5 297,-11.5"/>
<text text-anchor="middle" x="319" y="-18.5" font-family="Helvetica,sans-Serif" font-size="10.00">omp.h</text>
</g>
<!-- Node2&#45;&gt;Node5 -->
<g id="edge4" class="edge"><title>Node2&#45;&gt;Node5</title>
<path fill="none" stroke="midnightblue" d="M438.777,-78.4243C415.038,-70.2698 379.392,-57.0404 350,-42 346.547,-40.233 342.993,-38.1827 339.578,-36.0821"/>
<polygon fill="midnightblue" stroke="midnightblue" points="341.333,-33.0485 331.033,-30.564 337.535,-38.929 341.333,-33.0485"/>
</g>
<!-- Node6 -->
<g id="node6" class="node"><title>Node6</title>
<polygon fill="none" stroke="#bfbfbf" points="359,-11.5 359,-30.5 405,-30.5 405,-11.5 359,-11.5"/>
<text text-anchor="middle" x="382" y="-18.5" font-family="Helvetica,sans-Serif" font-size="10.00">cuda.h</text>
</g>
<!-- Node2&#45;&gt;Node6 -->
<g id="edge5" class="edge"><title>Node2&#45;&gt;Node6</title>
<path fill="none" stroke="midnightblue" d="M453.806,-78.2338C440.366,-67.708 417.6,-49.8793 401.304,-37.1174"/>
<polygon fill="midnightblue" stroke="midnightblue" points="403.047,-34.0374 393.016,-30.6273 398.731,-39.5486 403.047,-34.0374"/>
</g>
<!-- Node7 -->
<g id="node7" class="node"><title>Node7</title>
<polygon fill="none" stroke="#bfbfbf" points="423.5,-11.5 423.5,-30.5 506.5,-30.5 506.5,-11.5 423.5,-11.5"/>
<text text-anchor="middle" x="465" y="-18.5" font-family="Helvetica,sans-Serif" font-size="10.00">cuda_runtime.h</text>
</g>
<!-- Node2&#45;&gt;Node7 -->
<g id="edge6" class="edge"><title>Node2&#45;&gt;Node7</title>
<path fill="none" stroke="midnightblue" d="M465,-78.2338C465,-68.6826 465,-53.1183 465,-40.7829"/>
<polygon fill="midnightblue" stroke="midnightblue" points="468.5,-40.6273 465,-30.6273 461.5,-40.6273 468.5,-40.6273"/>
</g>
<!-- Node8 -->
<g id="node8" class="node"><title>Node8</title>
<polygon fill="none" stroke="#bfbfbf" points="524.5,-11.5 524.5,-30.5 625.5,-30.5 625.5,-11.5 524.5,-11.5"/>
<text text-anchor="middle" x="575" y="-18.5" font-family="Helvetica,sans-Serif" font-size="10.00">cuda_runtime_api.h</text>
</g>
<!-- Node2&#45;&gt;Node8 -->
<g id="edge7" class="edge"><title>Node2&#45;&gt;Node8</title>
<path fill="none" stroke="midnightblue" d="M479.835,-78.2338C498.308,-67.3182 530.072,-48.5487 551.78,-35.7209"/>
<polygon fill="midnightblue" stroke="midnightblue" points="553.571,-38.7279 560.4,-30.6273 550.01,-32.7014 553.571,-38.7279"/>
</g>
<!-- Node9 -->
<g id="node9" class="node"><title>Node9</title>
<polygon fill="none" stroke="#bfbfbf" points="644,-11.5 644,-30.5 736,-30.5 736,-11.5 644,-11.5"/>
<text text-anchor="middle" x="690" y="-18.5" font-family="Helvetica,sans-Serif" font-size="10.00">math_functions.h</text>
</g>
<!-- Node2&#45;&gt;Node9 -->
<g id="edge8" class="edge"><title>Node2&#45;&gt;Node9</title>
<path fill="none" stroke="midnightblue" d="M500.525,-78.4502C534.893,-69.9654 588.338,-56.2065 634,-42 641.832,-39.5632 650.197,-36.7125 658.009,-33.9395"/>
<polygon fill="midnightblue" stroke="midnightblue" points="659.309,-37.1916 667.528,-30.5057 656.933,-30.6069 659.309,-37.1916"/>
</g>
<!-- Node10 -->
<g id="node10" class="node"><title>Node10</title>
<polygon fill="none" stroke="#bfbfbf" points="754.5,-6 754.5,-36 855.5,-36 855.5,-6 754.5,-6"/>
<text text-anchor="start" x="762.5" y="-24" font-family="Helvetica,sans-Serif" font-size="10.00">thrust/system/cuda</text>
<text text-anchor="middle" x="805" y="-13" font-family="Helvetica,sans-Serif" font-size="10.00">/execution_policy.h</text>
</g>
<!-- Node2&#45;&gt;Node10 -->
<g id="edge9" class="edge"><title>Node2&#45;&gt;Node10</title>
<path fill="none" stroke="midnightblue" d="M518.673,-81.0042C575.421,-74.0549 667.297,-61.0606 745,-42 748.626,-41.1106 752.347,-40.1047 756.074,-39.0288"/>
<polygon fill="midnightblue" stroke="midnightblue" points="757.339,-42.3026 765.892,-36.0498 755.307,-35.6041 757.339,-42.3026"/>
</g>
<!-- Node11 -->
<g id="node11" class="node"><title>Node11</title>
<polygon fill="none" stroke="#bfbfbf" points="873.5,-0.5 873.5,-41.5 980.5,-41.5 980.5,-0.5 873.5,-0.5"/>
<text text-anchor="start" x="881.5" y="-29.5" font-family="Helvetica,sans-Serif" font-size="10.00">thrust/system/cuda</text>
<text text-anchor="start" x="881.5" y="-18.5" font-family="Helvetica,sans-Serif" font-size="10.00">/experimental/pinned</text>
<text text-anchor="middle" x="927" y="-7.5" font-family="Helvetica,sans-Serif" font-size="10.00">_allocator.h</text>
</g>
<!-- Node2&#45;&gt;Node11 -->
<g id="edge10" class="edge"><title>Node2&#45;&gt;Node11</title>
<path fill="none" stroke="midnightblue" d="M518.777,-84.2711C593.96,-79.7236 734.747,-68.5445 863.215,-41.9409"/>
<polygon fill="midnightblue" stroke="midnightblue" points="864.166,-45.3174 873.229,-39.8301 862.722,-38.4679 864.166,-45.3174"/>
</g>
<!-- Node13&#45;&gt;Node2 -->
<g id="edge13" class="edge"><title>Node13&#45;&gt;Node2</title>
<path fill="none" stroke="midnightblue" d="M442.785,-318.952C401.463,-299.256 310.067,-247.904 338,-190 358.299,-147.92 405.597,-117.974 436.393,-102.1"/>
<polygon fill="midnightblue" stroke="midnightblue" points="437.982,-105.219 445.373,-97.6275 434.861,-98.9529 437.982,-105.219"/>
</g>
<!-- Node14 -->
<g id="node14" class="node"><title>Node14</title>
<g id="a_node14"><a xlink:href="../../de/de1/a00065.html" target="_top" xlink:title="Typedef for useful container classes used in MCBooster. ">
<polygon fill="none" stroke="black" points="542.5,-252 542.5,-271 641.5,-271 641.5,-252 542.5,-252"/>
<text text-anchor="middle" x="592" y="-259" font-family="Helvetica,sans-Serif" font-size="10.00">hydra/Containers.h</text>
</a>
</g>
</g>
<!-- Node13&#45;&gt;Node14 -->
<g id="edge14" class="edge"><title>Node13&#45;&gt;Node14</title>
<path fill="none" stroke="midnightblue" d="M479.263,-318.869C501.311,-307.845 539.689,-288.655 565.464,-275.768"/>
<polygon fill="midnightblue" stroke="midnightblue" points="567.287,-278.77 574.666,-271.167 564.156,-272.509 567.287,-278.77"/>
</g>
<!-- Node26 -->
<g id="node26" class="node"><title>Node26</title>
<polygon fill="none" stroke="#bfbfbf" points="347.5,-190.5 347.5,-209.5 436.5,-209.5 436.5,-190.5 347.5,-190.5"/>
<text text-anchor="middle" x="392" y="-197.5" font-family="Helvetica,sans-Serif" font-size="10.00">thrust/complex.h</text>
</g>
<!-- Node13&#45;&gt;Node26 -->
<g id="edge37" class="edge"><title>Node13&#45;&gt;Node26</title>
<path fill="none" stroke="midnightblue" d="M440.281,-318.986C423.165,-310.979 400.497,-297.183 390,-277 380.698,-259.113 383.208,-235.513 386.747,-219.387"/>
<polygon fill="midnightblue" stroke="midnightblue" points="390.169,-220.131 389.228,-209.578 383.382,-218.414 390.169,-220.131"/>
</g>
<!-- Node27 -->
<g id="node27" class="node"><title>Node27</title>
<polygon fill="none" stroke="#bfbfbf" points="767,-252 767,-271 829,-271 829,-252 767,-252"/>
<text text-anchor="middle" x="798" y="-259" font-family="Helvetica,sans-Serif" font-size="10.00">type_traits</text>
</g>
<!-- Node13&#45;&gt;Node27 -->
<g id="edge36" class="edge"><title>Node13&#45;&gt;Node27</title>
<path fill="none" stroke="midnightblue" d="M518.697,-318.973C591.304,-307.849 713.002,-288.457 757,-277 760.044,-276.207 763.182,-275.289 766.304,-274.306"/>
<polygon fill="midnightblue" stroke="midnightblue" points="767.717,-277.524 776.085,-271.026 765.491,-270.888 767.717,-277.524"/>
</g>
<!-- Node28 -->
<g id="node28" class="node"><title>Node28</title>
<polygon fill="none" stroke="#bfbfbf" points="659.5,-246.5 659.5,-276.5 748.5,-276.5 748.5,-246.5 659.5,-246.5"/>
<text text-anchor="start" x="667.5" y="-264.5" font-family="Helvetica,sans-Serif" font-size="10.00">thrust/detail/type</text>
<text text-anchor="middle" x="704" y="-253.5" font-family="Helvetica,sans-Serif" font-size="10.00">_traits.h</text>
</g>
<!-- Node13&#45;&gt;Node28 -->
<g id="edge38" class="edge"><title>Node13&#45;&gt;Node28</title>
<path fill="none" stroke="midnightblue" d="M493.886,-318.936C533.428,-308.315 601.461,-290.042 649.379,-277.171"/>
<polygon fill="midnightblue" stroke="midnightblue" points="650.532,-280.485 659.282,-274.511 648.716,-273.725 650.532,-280.485"/>
</g>
<!-- Node29 -->
<g id="node29" class="node"><title>Node29</title>
<polygon fill="none" stroke="#bfbfbf" points="399.5,-252 399.5,-271 524.5,-271 524.5,-252 399.5,-252"/>
<text text-anchor="middle" x="462" y="-259" font-family="Helvetica,sans-Serif" font-size="10.00">thrust/execution_policy.h</text>
</g>
<!-- Node13&#45;&gt;Node29 -->
<g id="edge39" class="edge"><title>Node13&#45;&gt;Node29</title>
<path fill="none" stroke="midnightblue" d="M462,-318.734C462,-309.183 462,-293.618 462,-281.283"/>
<polygon fill="midnightblue" stroke="midnightblue" points="465.5,-281.127 462,-271.127 458.5,-281.127 465.5,-281.127"/>
</g>
<!-- Node30 -->
<g id="node30" class="node"><title>Node30</title>
<polygon fill="none" stroke="#bfbfbf" points="66.5,-246.5 66.5,-276.5 173.5,-276.5 173.5,-246.5 66.5,-246.5"/>
<text text-anchor="start" x="74.5" y="-264.5" font-family="Helvetica,sans-Serif" font-size="10.00">thrust/iterator/iterator</text>
<text text-anchor="middle" x="120" y="-253.5" font-family="Helvetica,sans-Serif" font-size="10.00">_categories.h</text>
</g>
<!-- Node13&#45;&gt;Node30 -->
<g id="edge40" class="edge"><title>Node13&#45;&gt;Node30</title>
<path fill="none" stroke="midnightblue" d="M410.241,-318.983C356.073,-309.886 268.328,-294.636 183.759,-277.311"/>
<polygon fill="midnightblue" stroke="midnightblue" points="184.232,-273.835 173.731,-275.244 182.819,-280.691 184.232,-273.835"/>
</g>
<!-- Node31 -->
<g id="node31" class="node"><title>Node31</title>
<polygon fill="none" stroke="#bfbfbf" points="191.5,-246.5 191.5,-276.5 304.5,-276.5 304.5,-246.5 191.5,-246.5"/>
<text text-anchor="start" x="199.5" y="-264.5" font-family="Helvetica,sans-Serif" font-size="10.00">thrust/iterator/detail</text>
<text text-anchor="middle" x="248" y="-253.5" font-family="Helvetica,sans-Serif" font-size="10.00">/is_iterator_category.h</text>
</g>
<!-- Node13&#45;&gt;Node31 -->
<g id="edge41" class="edge"><title>Node13&#45;&gt;Node31</title>
<path fill="none" stroke="midnightblue" d="M433.582,-318.869C400.637,-308.862 345.54,-292.127 303.917,-279.484"/>
<polygon fill="midnightblue" stroke="midnightblue" points="304.77,-276.085 294.185,-276.528 302.736,-282.783 304.77,-276.085"/>
</g>
<!-- Node14&#45;&gt;Node2 -->
<g id="edge17" class="edge"><title>Node14&#45;&gt;Node2</title>
<path fill="none" stroke="midnightblue" d="M552.618,-251.969C529.046,-244.776 500.541,-232.005 484,-210 461.397,-179.93 460.96,-133.637 462.847,-107.902"/>
<polygon fill="midnightblue" stroke="midnightblue" points="466.359,-107.94 463.807,-97.657 459.39,-107.287 466.359,-107.94"/>
</g>
<!-- Node14&#45;&gt;Node12 -->
<g id="edge18" class="edge"><title>Node14&#45;&gt;Node12</title>
<path fill="none" stroke="midnightblue" d="M622.832,-251.948C631.562,-249.757 641.109,-247.577 650,-246 798.75,-219.616 850.425,-272.417 988,-210 1040.43,-186.211 1085.82,-133.127 1106.73,-105.867"/>
<polygon fill="midnightblue" stroke="midnightblue" points="1109.66,-107.793 1112.85,-97.6918 1104.06,-103.595 1109.66,-107.793"/>
</g>
<!-- Node15 -->
<g id="node15" class="node"><title>Node15</title>
<polygon fill="none" stroke="#bfbfbf" points="747,-190.5 747,-209.5 791,-209.5 791,-190.5 747,-190.5"/>
<text text-anchor="middle" x="769" y="-197.5" font-family="Helvetica,sans-Serif" font-size="10.00">vector</text>
</g>
<!-- Node14&#45;&gt;Node15 -->
<g id="edge15" class="edge"><title>Node14&#45;&gt;Node15</title>
<path fill="none" stroke="midnightblue" d="M617.36,-251.975C648.941,-241.359 702.907,-223.218 737.218,-211.684"/>
<polygon fill="midnightblue" stroke="midnightblue" points="738.4,-214.979 746.763,-208.475 736.169,-208.344 738.4,-214.979"/>
</g>
<!-- Node16 -->
<g id="node16" class="node"><title>Node16</title>
<polygon fill="none" stroke="#bfbfbf" points="1054,-190.5 1054,-209.5 1092,-209.5 1092,-190.5 1054,-190.5"/>
<text text-anchor="middle" x="1073" y="-197.5" font-family="Helvetica,sans-Serif" font-size="10.00">array</text>
</g>
<!-- Node14&#45;&gt;Node16 -->
<g id="edge16" class="edge"><title>Node14&#45;&gt;Node16</title>
<path fill="none" stroke="midnightblue" d="M622.518,-251.941C631.328,-249.724 640.996,-247.532 650,-246 821.605,-216.806 868.716,-241.018 1040,-210 1041.28,-209.768 1042.59,-209.509 1043.9,-209.231"/>
<polygon fill="midnightblue" stroke="midnightblue" points="1045.04,-212.557 1053.93,-206.805 1043.39,-205.753 1045.04,-212.557"/>
</g>
<!-- Node17 -->
<g id="node17" class="node"><title>Node17</title>
<g id="a_node17"><a xlink:href="../../d4/d81/a00110.html" target="_top" xlink:title="hydra/Vector3R.h">
<polygon fill="none" stroke="black" points="723.5,-134.5 723.5,-153.5 816.5,-153.5 816.5,-134.5 723.5,-134.5"/>
<text text-anchor="middle" x="770" y="-141.5" font-family="Helvetica,sans-Serif" font-size="10.00">hydra/Vector3R.h</text>
</a>
</g>
</g>
<!-- Node14&#45;&gt;Node17 -->
<g id="edge19" class="edge"><title>Node14&#45;&gt;Node17</title>
<path fill="none" stroke="midnightblue" d="M626.029,-251.936C633.897,-249.971 642.237,-247.902 650,-246 716.59,-229.686 757.553,-263.84 800,-210 811.707,-195.151 798.903,-174.994 786.588,-161.083"/>
<polygon fill="midnightblue" stroke="midnightblue" points="789.004,-158.545 779.582,-153.701 783.927,-163.364 789.004,-158.545"/>
</g>
<!-- Node22 -->
<g id="node22" class="node"><title>Node22</title>
<g id="a_node22"><a xlink:href="../../dd/d6d/a00111.html" target="_top" xlink:title="hydra/Vector4R.h">
<polygon fill="none" stroke="black" points="885.5,-190.5 885.5,-209.5 978.5,-209.5 978.5,-190.5 885.5,-190.5"/>
<text text-anchor="middle" x="932" y="-197.5" font-family="Helvetica,sans-Serif" font-size="10.00">hydra/Vector4R.h</text>
</a>
</g>
</g>
<!-- Node14&#45;&gt;Node22 -->
<g id="edge26" class="edge"><title>Node14&#45;&gt;Node22</title>
<path fill="none" stroke="midnightblue" d="M624.099,-251.948C632.495,-249.856 641.56,-247.725 650,-246 727.669,-230.126 818.33,-216.526 875.453,-208.552"/>
<polygon fill="midnightblue" stroke="midnightblue" points="875.945,-212.017 885.369,-207.177 874.983,-205.084 875.945,-212.017"/>
</g>
<!-- Node24 -->
<g id="node24" class="node"><title>Node24</title>
<polygon fill="none" stroke="#bfbfbf" points="493.5,-190.5 493.5,-209.5 606.5,-209.5 606.5,-190.5 493.5,-190.5"/>
<text text-anchor="middle" x="550" y="-197.5" font-family="Helvetica,sans-Serif" font-size="10.00">thrust/device_vector.h</text>
</g>
<!-- Node14&#45;&gt;Node24 -->
<g id="edge33" class="edge"><title>Node14&#45;&gt;Node24</title>
<path fill="none" stroke="midnightblue" d="M585.982,-251.975C579.745,-243.138 569.827,-229.089 561.982,-217.975"/>
<polygon fill="midnightblue" stroke="midnightblue" points="564.633,-215.66 556.006,-209.509 558.914,-219.697 564.633,-215.66"/>
</g>
<!-- Node25 -->
<g id="node25" class="node"><title>Node25</title>
<polygon fill="none" stroke="#bfbfbf" points="625,-190.5 625,-209.5 729,-209.5 729,-190.5 625,-190.5"/>
<text text-anchor="middle" x="677" y="-197.5" font-family="Helvetica,sans-Serif" font-size="10.00">thrust/host_vector.h</text>
</g>
<!-- Node14&#45;&gt;Node25 -->
<g id="edge34" class="edge"><title>Node14&#45;&gt;Node25</title>
<path fill="none" stroke="midnightblue" d="M604.178,-251.975C617.812,-242.431 640.132,-226.807 656.474,-215.368"/>
<polygon fill="midnightblue" stroke="midnightblue" points="658.659,-218.111 664.844,-209.509 654.645,-212.376 658.659,-218.111"/>
</g>
<!-- Node14&#45;&gt;Node26 -->
<g id="edge35" class="edge"><title>Node14&#45;&gt;Node26</title>
<path fill="none" stroke="midnightblue" d="M563.345,-251.975C528.444,-241.592 469.35,-224.012 430.5,-212.454"/>
<polygon fill="midnightblue" stroke="midnightblue" points="431.185,-209.006 420.602,-209.509 429.189,-215.715 431.185,-209.006"/>
</g>
<!-- Node17&#45;&gt;Node2 -->
<g id="edge20" class="edge"><title>Node17&#45;&gt;Node2</title>
<path fill="none" stroke="midnightblue" d="M723.345,-134.74C669.664,-125.236 581.456,-109.618 523.297,-99.3215"/>
<polygon fill="midnightblue" stroke="midnightblue" points="523.618,-95.8238 513.161,-97.5268 522.397,-102.717 523.618,-95.8238"/>
</g>
<!-- Node17&#45;&gt;Node12 -->
<g id="edge21" class="edge"><title>Node17&#45;&gt;Node12</title>
<path fill="none" stroke="midnightblue" d="M816.747,-135.462C819.878,-134.965 822.984,-134.474 826,-134 911.37,-120.584 1010.81,-105.407 1069.13,-96.5513"/>
<polygon fill="midnightblue" stroke="midnightblue" points="1069.82,-99.9873 1079.18,-95.0263 1068.77,-93.0665 1069.82,-99.9873"/>
</g>
<!-- Node18 -->
<g id="node18" class="node"><title>Node18</title>
<polygon fill="none" stroke="#bfbfbf" points="770.5,-78.5 770.5,-97.5 815.5,-97.5 815.5,-78.5 770.5,-78.5"/>
<text text-anchor="middle" x="793" y="-85.5" font-family="Helvetica,sans-Serif" font-size="10.00">iosfwd</text>
</g>
<!-- Node17&#45;&gt;Node18 -->
<g id="edge22" class="edge"><title>Node17&#45;&gt;Node18</title>
<path fill="none" stroke="midnightblue" d="M773.798,-134.083C776.913,-126.77 781.423,-116.181 785.289,-107.103"/>
<polygon fill="midnightblue" stroke="midnightblue" points="788.574,-108.323 789.273,-97.7511 782.134,-105.58 788.574,-108.323"/>
</g>
<!-- Node19 -->
<g id="node19" class="node"><title>Node19</title>
<polygon fill="none" stroke="#bfbfbf" points="979,-78.5 979,-97.5 1033,-97.5 1033,-78.5 979,-78.5"/>
<text text-anchor="middle" x="1006" y="-85.5" font-family="Helvetica,sans-Serif" font-size="10.00">iostream</text>
</g>
<!-- Node17&#45;&gt;Node19 -->
<g id="edge23" class="edge"><title>Node17&#45;&gt;Node19</title>
<path fill="none" stroke="midnightblue" d="M807.395,-134.444C851.554,-124.339 924.564,-107.634 968.687,-97.5377"/>
<polygon fill="midnightblue" stroke="midnightblue" points="969.745,-100.886 978.713,-95.2437 968.184,-94.0625 969.745,-100.886"/>
</g>
<!-- Node20 -->
<g id="node20" class="node"><title>Node20</title>
<polygon fill="none" stroke="#bfbfbf" points="857.5,-78.5 857.5,-97.5 904.5,-97.5 904.5,-78.5 857.5,-78.5"/>
<text text-anchor="middle" x="881" y="-85.5" font-family="Helvetica,sans-Serif" font-size="10.00">math.h</text>
</g>
<!-- Node17&#45;&gt;Node20 -->
<g id="edge24" class="edge"><title>Node17&#45;&gt;Node20</title>
<path fill="none" stroke="midnightblue" d="M787.834,-134.324C805.716,-125.625 833.475,-112.12 854.046,-102.113"/>
<polygon fill="midnightblue" stroke="midnightblue" points="855.749,-105.177 863.21,-97.6545 852.687,-98.8819 855.749,-105.177"/>
</g>
<!-- Node21 -->
<g id="node21" class="node"><title>Node21</title>
<polygon fill="none" stroke="#bfbfbf" points="628,-78.5 628,-97.5 752,-97.5 752,-78.5 628,-78.5"/>
<text text-anchor="middle" x="690" y="-85.5" font-family="Helvetica,sans-Serif" font-size="10.00">hydra/detail/Vector3R.inl</text>
</g>
<!-- Node17&#45;&gt;Node21 -->
<g id="edge25" class="edge"><title>Node17&#45;&gt;Node21</title>
<path fill="none" stroke="midnightblue" d="M757.147,-134.324C744.784,-125.979 725.87,-113.212 711.263,-103.352"/>
<polygon fill="midnightblue" stroke="midnightblue" points="713.068,-100.348 702.821,-97.6545 709.152,-106.15 713.068,-100.348"/>
</g>
<!-- Node22&#45;&gt;Node2 -->
<g id="edge29" class="edge"><title>Node22&#45;&gt;Node2</title>
<path fill="none" stroke="midnightblue" d="M885.282,-190.669C831.087,-180.775 745.186,-164.316 714,-154 693.989,-147.381 690.972,-140.734 671,-134 624.373,-118.278 569.917,-106.66 528.709,-99.1707"/>
<polygon fill="midnightblue" stroke="midnightblue" points="529.257,-95.7133 518.798,-97.4023 528.028,-102.604 529.257,-95.7133"/>
</g>
<!-- Node22&#45;&gt;Node12 -->
<g id="edge30" class="edge"><title>Node22&#45;&gt;Node12</title>
<path fill="none" stroke="midnightblue" d="M946.674,-190.368C978.899,-171.412 1056.1,-126.001 1095.3,-102.942"/>
<polygon fill="midnightblue" stroke="midnightblue" points="1097.55,-105.678 1104.39,-97.5914 1094,-99.6449 1097.55,-105.678"/>
</g>
<!-- Node22&#45;&gt;Node17 -->
<g id="edge31" class="edge"><title>Node22&#45;&gt;Node17</title>
<path fill="none" stroke="midnightblue" d="M906.331,-190.444C879.077,-181.359 835.816,-166.939 805.349,-156.783"/>
<polygon fill="midnightblue" stroke="midnightblue" points="806.143,-153.358 795.549,-153.516 803.929,-159.999 806.143,-153.358"/>
</g>
<!-- Node22&#45;&gt;Node19 -->
<g id="edge28" class="edge"><title>Node22&#45;&gt;Node19</title>
<path fill="none" stroke="midnightblue" d="M944.991,-190.438C956.435,-182.293 972.823,-169.07 983,-154 992.525,-139.895 998.565,-121.406 1002.05,-107.755"/>
<polygon fill="midnightblue" stroke="midnightblue" points="1005.55,-108.16 1004.4,-97.6279 998.732,-106.578 1005.55,-108.16"/>
</g>
<!-- Node22&#45;&gt;Node20 -->
<g id="edge27" class="edge"><title>Node22&#45;&gt;Node20</title>
<path fill="none" stroke="midnightblue" d="M942.827,-190.46C957.37,-177.912 980.072,-153.835 968,-134 956.331,-114.827 933.567,-103.462 914.251,-96.9506"/>
<polygon fill="midnightblue" stroke="midnightblue" points="915.128,-93.5588 904.542,-93.9724 913.076,-100.251 915.128,-93.5588"/>
</g>
<!-- Node23 -->
<g id="node23" class="node"><title>Node23</title>
<polygon fill="none" stroke="#bfbfbf" points="835,-134.5 835,-153.5 959,-153.5 959,-134.5 835,-134.5"/>
<text text-anchor="middle" x="897" y="-141.5" font-family="Helvetica,sans-Serif" font-size="10.00">hydra/detail/Vector4R.inl</text>
</g>
<!-- Node22&#45;&gt;Node23 -->
<g id="edge32" class="edge"><title>Node22&#45;&gt;Node23</title>
<path fill="none" stroke="midnightblue" d="M926.22,-190.083C921.328,-182.534 914.173,-171.495 908.167,-162.23"/>
<polygon fill="midnightblue" stroke="midnightblue" points="911.048,-160.239 902.672,-153.751 905.174,-164.046 911.048,-160.239"/>
</g>
<!-- Node32&#45;&gt;Node2 -->
<g id="edge43" class="edge"><title>Node32&#45;&gt;Node2</title>
<path fill="none" stroke="midnightblue" d="M753.778,-380.406C764.415,-363.715 783.249,-335.359 802,-313 816.54,-295.662 829.341,-297.905 838,-277 854.147,-238.018 834.258,-214.632 800,-190 751.672,-155.251 728.057,-170.958 671,-154 611.057,-136.184 541.801,-113.999 500.798,-100.696"/>
<polygon fill="midnightblue" stroke="midnightblue" points="501.845,-97.3562 491.253,-97.594 499.682,-104.013 501.845,-97.3562"/>
</g>
<!-- Node32&#45;&gt;Node12 -->
<g id="edge44" class="edge"><title>Node32&#45;&gt;Node12</title>
<path fill="none" stroke="midnightblue" d="M791.689,-394.594C881.314,-393.781 1072.79,-386.918 1120,-344 1147.52,-318.981 1139,-299.694 1139,-262.5 1139,-262.5 1139,-262.5 1139,-199 1139,-166.438 1130.41,-129.315 1124.49,-107.592"/>
<polygon fill="midnightblue" stroke="midnightblue" points="1127.79,-106.408 1121.7,-97.7419 1121.06,-108.317 1127.79,-106.408"/>
</g>
<!-- Node32&#45;&gt;Node13 -->
<g id="edge48" class="edge"><title>Node32&#45;&gt;Node13</title>
<path fill="none" stroke="midnightblue" d="M698.268,-383.767C646.019,-371.766 561.866,-352.437 509.362,-340.378"/>
<polygon fill="midnightblue" stroke="midnightblue" points="509.832,-336.895 499.302,-338.068 508.265,-343.717 509.832,-336.895"/>
</g>
<!-- Node32&#45;&gt;Node16 -->
<g id="edge53" class="edge"><title>Node32&#45;&gt;Node16</title>
<path fill="none" stroke="midnightblue" d="M791.727,-386.19C826.701,-378.642 874.872,-365.361 913,-344 929.317,-334.858 1018.49,-252.068 1056.17,-216.797"/>
<polygon fill="midnightblue" stroke="midnightblue" points="1058.88,-219.054 1063.79,-209.662 1054.1,-213.946 1058.88,-219.054"/>
</g>
<!-- Node32&#45;&gt;Node27 -->
<g id="edge52" class="edge"><title>Node32&#45;&gt;Node27</title>
<path fill="none" stroke="midnightblue" d="M748.106,-380.308C751.97,-363.765 759.263,-335.787 769,-313 773.946,-301.425 780.94,-289.165 786.821,-279.623"/>
<polygon fill="midnightblue" stroke="midnightblue" points="789.816,-281.434 792.213,-271.114 783.904,-277.687 789.816,-281.434"/>
</g>
<!-- Node32&#45;&gt;Node28 -->
<g id="edge50" class="edge"><title>Node32&#45;&gt;Node28</title>
<path fill="none" stroke="midnightblue" d="M740.612,-380.374C733.615,-357.845 719.852,-313.534 711.337,-286.122"/>
<polygon fill="midnightblue" stroke="midnightblue" points="714.665,-285.036 708.356,-276.525 707.98,-287.113 714.665,-285.036"/>
</g>
<!-- Node33 -->
<g id="node33" class="node"><title>Node33</title>
<g id="a_node33"><a xlink:href="../../da/dec/a00080.html" target="_top" xlink:title="hydra/detail/utility\l/Generic.h">
<polygon fill="none" stroke="black" points="811.5,-313.5 811.5,-343.5 904.5,-343.5 904.5,-313.5 811.5,-313.5"/>
<text text-anchor="start" x="819.5" y="-331.5" font-family="Helvetica,sans-Serif" font-size="10.00">hydra/detail/utility</text>
<text text-anchor="middle" x="858" y="-320.5" font-family="Helvetica,sans-Serif" font-size="10.00">/Generic.h</text>
</a>
</g>
</g>
<!-- Node32&#45;&gt;Node33 -->
<g id="edge45" class="edge"><title>Node32&#45;&gt;Node33</title>
<path fill="none" stroke="midnightblue" d="M769.519,-380.396C785.66,-371.112 806.992,-358.841 824.666,-348.674"/>
<polygon fill="midnightblue" stroke="midnightblue" points="826.605,-351.597 833.529,-343.577 823.115,-345.529 826.605,-351.597"/>
</g>
<!-- Node34 -->
<g id="node34" class="node"><title>Node34</title>
<polygon fill="none" stroke="#bfbfbf" points="605,-319 605,-338 679,-338 679,-319 605,-319"/>
<text text-anchor="middle" x="642" y="-326" font-family="Helvetica,sans-Serif" font-size="10.00">thrust/tuple.h</text>
</g>
<!-- Node32&#45;&gt;Node34 -->
<g id="edge49" class="edge"><title>Node32&#45;&gt;Node34</title>
<path fill="none" stroke="midnightblue" d="M722.651,-380.396C705.378,-369.496 681.582,-354.479 664.317,-343.584"/>
<polygon fill="midnightblue" stroke="midnightblue" points="665.805,-340.384 655.48,-338.007 662.069,-346.304 665.805,-340.384"/>
</g>
<!-- Node35 -->
<g id="node35" class="node"><title>Node35</title>
<polygon fill="none" stroke="#bfbfbf" points="961.5,-313.5 961.5,-343.5 1110.5,-343.5 1110.5,-313.5 961.5,-313.5"/>
<text text-anchor="start" x="969.5" y="-331.5" font-family="Helvetica,sans-Serif" font-size="10.00">thrust/iterator/detail</text>
<text text-anchor="middle" x="1036" y="-320.5" font-family="Helvetica,sans-Serif" font-size="10.00">/tuple_of_iterator_references.h</text>
</g>
<!-- Node32&#45;&gt;Node35 -->
<g id="edge51" class="edge"><title>Node32&#45;&gt;Node35</title>
<path fill="none" stroke="midnightblue" d="M791.754,-384.057C838.036,-373.719 909.557,-357.743 963.265,-345.747"/>
<polygon fill="midnightblue" stroke="midnightblue" points="964.079,-349.151 973.076,-343.555 962.553,-342.319 964.079,-349.151"/>
</g>
<!-- Node33&#45;&gt;Node16 -->
<g id="edge47" class="edge"><title>Node33&#45;&gt;Node16</title>
<path fill="none" stroke="midnightblue" d="M864.823,-313.479C874.411,-295.238 893.584,-263.624 919,-246 924.245,-242.363 1000.94,-220.863 1044.07,-208.945"/>
<polygon fill="midnightblue" stroke="midnightblue" points="1045.03,-212.311 1053.74,-206.278 1043.17,-205.562 1045.03,-212.311"/>
</g>
<!-- Node33&#45;&gt;Node27 -->
<g id="edge46" class="edge"><title>Node33&#45;&gt;Node27</title>
<path fill="none" stroke="midnightblue" d="M844.981,-313.396C835.533,-303.161 822.735,-289.296 812.882,-278.622"/>
<polygon fill="midnightblue" stroke="midnightblue" points="815.38,-276.169 806.026,-271.195 810.237,-280.917 815.38,-276.169"/>
</g>
<!-- Node36&#45;&gt;Node2 -->
<g id="edge56" class="edge"><title>Node36&#45;&gt;Node2</title>
<path fill="none" stroke="midnightblue" d="M586.39,-447.465C453.024,-425.744 121.272,-363.88 57,-277 -35.5595,-151.883 264.088,-107.591 400.735,-94.1412"/>
<polygon fill="midnightblue" stroke="midnightblue" points="401.452,-97.5887 411.073,-93.1519 400.785,-90.6205 401.452,-97.5887"/>
</g>
<!-- Node36&#45;&gt;Node12 -->
<g id="edge57" class="edge"><title>Node36&#45;&gt;Node12</title>
<path fill="none" stroke="midnightblue" d="M709.216,-454.125C852.906,-448.288 1177,-424.585 1177,-329.5 1177,-329.5 1177,-329.5 1177,-199 1177,-162.163 1151.23,-125.565 1134.05,-105.251"/>
<polygon fill="midnightblue" stroke="midnightblue" points="1136.54,-102.786 1127.31,-97.5894 1131.29,-107.41 1136.54,-102.786"/>
</g>
<!-- Node36&#45;&gt;Node13 -->
<g id="edge60" class="edge"><title>Node36&#45;&gt;Node13</title>
<path fill="none" stroke="midnightblue" d="M625.192,-447.441C608.869,-438.897 583.606,-425.048 563,-411 532.188,-389.994 499.001,-362.084 479.388,-344.977"/>
<polygon fill="midnightblue" stroke="midnightblue" points="481.445,-342.125 471.625,-338.15 476.823,-347.382 481.445,-342.125"/>
</g>
<!-- Node36&#45;&gt;Node27 -->
<g id="edge55" class="edge"><title>Node36&#45;&gt;Node27</title>
<path fill="none" stroke="midnightblue" d="M634.178,-447.268C613.649,-423.278 562.085,-355.336 596,-313 641.842,-255.775 686.532,-297.26 757,-277 759.789,-276.198 762.665,-275.31 765.539,-274.38"/>
<polygon fill="midnightblue" stroke="midnightblue" points="766.822,-277.641 775.171,-271.119 764.577,-271.01 766.822,-277.641"/>
</g>
<!-- Node36&#45;&gt;Node32 -->
<g id="edge58" class="edge"><title>Node36&#45;&gt;Node32</title>
<path fill="none" stroke="midnightblue" d="M656.757,-447.475C671.098,-439.191 693.371,-426.325 711.951,-415.591"/>
<polygon fill="midnightblue" stroke="midnightblue" points="713.817,-418.556 720.725,-410.523 710.315,-412.494 713.817,-418.556"/>
</g>
<!-- Node36&#45;&gt;Node33 -->
<g id="edge59" class="edge"><title>Node36&#45;&gt;Node33</title>
<path fill="none" stroke="midnightblue" d="M707.829,-447.469C738,-441.114 772.975,-430.085 800,-411 821.14,-396.071 837.322,-370.905 847.155,-352.48"/>
<polygon fill="midnightblue" stroke="midnightblue" points="850.284,-354.047 851.711,-343.549 844.049,-350.866 850.284,-354.047"/>
</g>
<!-- Node36&#45;&gt;Node34 -->
<g id="edge61" class="edge"><title>Node36&#45;&gt;Node34</title>
<path fill="none" stroke="midnightblue" d="M642,-447.305C642,-426.994 642,-376.053 642,-348.277"/>
<polygon fill="midnightblue" stroke="midnightblue" points="645.5,-348.256 642,-338.256 638.5,-348.256 645.5,-348.256"/>
</g>
</g>
</svg>
        <g id="navigator" transform="translate(0 0)" fill="#404254">
                <rect fill="#f2f5e9" fill-opacity="0.5" stroke="#606060" stroke-width=".5" x="0" y="0" width="60" height="60"/>
                <use id="zoomplus" xlink:href="#zoomPlus" x="17" y="9" onmousedown="handleZoom(evt,'in')"/>
                <use id="zoomminus" xlink:href="#zoomMin" x="42" y="9" onmousedown="handleZoom(evt,'out')"/>
                <use id="reset" xlink:href="#resetDef" x="30" y="36" onmousedown="handleReset()"/>
                <g id="arrowUp" xlink:href="#dirArrow" transform="translate(30 24)" onmousedown="handlePan(0,-1)">
                  <use xlink:href="#rim" fill="#404040">
                        <set attributeName="fill" to="#808080" begin="arrowUp.mouseover" end="arrowUp.mouseout"/>
                  </use>
                  <path fill="none" stroke="white" stroke-width="1.5" d="M0,-3.0v7 M-2.5,-0.5L0,-3.0L2.5,-0.5"/>
                </g>
                <g id="arrowRight" xlink:href="#dirArrow" transform="rotate(90) translate(36 -43)" onmousedown="handlePan(1,0)">
                  <use xlink:href="#rim" fill="#404040">
                        <set attributeName="fill" to="#808080" begin="arrowRight.mouseover" end="arrowRight.mouseout"/>
                  </use>
                  <path fill="none" stroke="white" stroke-width="1.5" d="M0,-3.0v7 M-2.5,-0.5L0,-3.0L2.5,-0.5"/>
                </g>
                <g id="arrowDown" xlink:href="#dirArrow" transform="rotate(180) translate(-30 -48)" onmousedown="handlePan(0,1)">
                  <use xlink:href="#rim" fill="#404040">
                        <set attributeName="fill" to="#808080" begin="arrowDown.mouseover" end="arrowDown.mouseout"/>
                  </use>
                  <path fill="none" stroke="white" stroke-width="1.5" d="M0,-3.0v7 M-2.5,-0.5L0,-3.0L2.5,-0.5"/>
                </g>
                <g id="arrowLeft" xlink:href="#dirArrow" transform="rotate(270) translate(-36 17)" onmousedown="handlePan(-1,0)">
                  <use xlink:href="#rim" fill="#404040">
                        <set attributeName="fill" to="#808080" begin="arrowLeft.mouseover" end="arrowLeft.mouseout"/>
                  </use>
                  <path fill="none" stroke="white" stroke-width="1.5" d="M0,-3.0v7 M-2.5,-0.5L0,-3.0L2.5,-0.5"/>
                </g>
        </g>
        <svg viewBox="0 0 15 15" width="100%" height="30px" preserveAspectRatio="xMaxYMin meet">
         <g id="arrow_out" transform="scale(0.3 0.3)">
          <a xlink:href="a00196_org.svg" target="_base">
           <rect id="button" ry="5" rx="5" y="6" x="6" height="38" width="38"
                fill="#f2f5e9" fill-opacity="0.5" stroke="#606060" stroke-width="1.0"/>
           <path id="arrow"
             d="M 11.500037,31.436501 C 11.940474,20.09759 22.043105,11.32322 32.158766,21.979434 L 37.068811,17.246167 C 37.068811,17.246167 37.088388,32 37.088388,32 L 22.160133,31.978069 C 22.160133,31.978069 26.997745,27.140456 26.997745,27.140456 C 18.528582,18.264221 13.291696,25.230495 11.500037,31.436501 z"
             style="fill:#404040;"/>
          </a>
         </g>
        </svg>
</svg>
