<?xml version="1.0" encoding="UTF-8" standalone="no"?>
<!DOCTYPE svg PUBLIC "-//W3C//DTD SVG 1.1//EN"
 "http://www.w3.org/Graphics/SVG/1.1/DTD/svg11.dtd">
<!-- Generated by graphviz version 2.38.0 (20140413.2041)
 -->
<!-- Title: Arithmetic_Tuple.h Pages: 1 -->
<svg width="183pt" height="308pt"
 viewBox="0.00 0.00 182.50 308.00" xmlns="http://www.w3.org/2000/svg" xmlns:xlink="http://www.w3.org/1999/xlink">
<g id="graph0" class="graph" transform="scale(1 1) rotate(0) translate(4 304)">
<title>Arithmetic_Tuple.h</title>
<!-- Node1 -->
<g id="node1" class="node"><title>Node1</title>
<polygon fill="#bfbfbf" stroke="black" points="36.5,-280.5 36.5,-299.5 134.5,-299.5 134.5,-280.5 36.5,-280.5"/>
<text text-anchor="middle" x="85.5" y="-287.5" font-family="Helvetica,sans-Serif" font-size="10.00">Arithmetic_Tuple.h</text>
</g>
<!-- Node2 -->
<g id="node2" class="node"><title>Node2</title>
<g id="a_node2"><a xlink:href="../../d9/dec/a00090.html" target="_top" xlink:title="Point.h">
<polygon fill="none" stroke="black" points="62,-224.5 62,-243.5 109,-243.5 109,-224.5 62,-224.5"/>
<text text-anchor="middle" x="85.5" y="-231.5" font-family="Helvetica,sans-Serif" font-size="10.00">Point.h</text>
</a>
</g>
</g>
<!-- Node1&#45;&gt;Node2 -->
<g id="edge1" class="edge"><title>Node1&#45;&gt;Node2</title>
<path fill="none" stroke="midnightblue" d="M85.5,-269.805C85.5,-260.91 85.5,-250.78 85.5,-243.751"/>
<polygon fill="midnightblue" stroke="midnightblue" points="82.0001,-270.083 85.5,-280.083 89.0001,-270.083 82.0001,-270.083"/>
</g>
<!-- Node3 -->
<g id="node3" class="node"><title>Node3</title>
<g id="a_node3"><a xlink:href="../../d8/d53/a00081.html" target="_top" xlink:title="LogLikelihood.h">
<polygon fill="none" stroke="black" points="10.5,-112.5 10.5,-131.5 94.5,-131.5 94.5,-112.5 10.5,-112.5"/>
<text text-anchor="middle" x="52.5" y="-119.5" font-family="Helvetica,sans-Serif" font-size="10.00">LogLikelihood.h</text>
</a>
</g>
</g>
<!-- Node2&#45;&gt;Node3 -->
<g id="edge2" class="edge"><title>Node2&#45;&gt;Node3</title>
<path fill="none" stroke="midnightblue" d="M79.7504,-214.771C77.1917,-206.594 74.1619,-196.823 71.5,-188 65.4556,-167.965 58.631,-144.366 55.0333,-131.846"/>
<polygon fill="midnightblue" stroke="midnightblue" points="76.4352,-215.896 82.7719,-224.387 83.1132,-213.797 76.4352,-215.896"/>
</g>
<!-- Node6 -->
<g id="node6" class="node"><title>Node6</title>
<g id="a_node6"><a xlink:href="../../da/d82/a00091.html" target="_top" xlink:title="PointVector.h">
<polygon fill="none" stroke="black" points="80.5,-168.5 80.5,-187.5 156.5,-187.5 156.5,-168.5 80.5,-168.5"/>
<text text-anchor="middle" x="118.5" y="-175.5" font-family="Helvetica,sans-Serif" font-size="10.00">PointVector.h</text>
</a>
</g>
</g>
<!-- Node2&#45;&gt;Node6 -->
<g id="edge6" class="edge"><title>Node2&#45;&gt;Node6</title>
<path fill="none" stroke="midnightblue" d="M96.3321,-215.275C101.972,-206.045 108.618,-195.17 113.152,-187.751"/>
<polygon fill="midnightblue" stroke="midnightblue" points="93.1773,-213.725 90.9493,-224.083 99.1503,-217.375 93.1773,-213.725"/>
</g>
<!-- Node4 -->
<g id="node4" class="node"><title>Node4</title>
<g id="a_node4"><a xlink:href="../../d2/db1/a00070.html" target="_top" xlink:title="FCN.h">
<polygon fill="none" stroke="black" points="4.5,-56.5 4.5,-75.5 50.5,-75.5 50.5,-56.5 4.5,-56.5"/>
<text text-anchor="middle" x="27.5" y="-63.5" font-family="Helvetica,sans-Serif" font-size="10.00">FCN.h</text>
</a>
</g>
</g>
<!-- Node3&#45;&gt;Node4 -->
<g id="edge3" class="edge"><title>Node3&#45;&gt;Node4</title>
<path fill="none" stroke="midnightblue" d="M44.1587,-102.983C39.9152,-93.8168 34.9501,-83.0922 31.5514,-75.7511"/>
<polygon fill="midnightblue" stroke="midnightblue" points="40.9943,-104.479 48.3718,-112.083 47.3466,-101.538 40.9943,-104.479"/>
</g>
<!-- Node5 -->
<g id="node5" class="node"><title>Node5</title>
<g id="a_node5"><a xlink:href="../../d4/d63/a00082.html" target="_top" xlink:title="LogLikelihoodFCN.h">
<polygon fill="none" stroke="black" points="0,-0.5 0,-19.5 105,-19.5 105,-0.5 0,-0.5"/>
<text text-anchor="middle" x="52.5" y="-7.5" font-family="Helvetica,sans-Serif" font-size="10.00">LogLikelihoodFCN.h</text>
</a>
</g>
</g>
<!-- Node3&#45;&gt;Node5 -->
<g id="edge5" class="edge"><title>Node3&#45;&gt;Node5</title>
<path fill="none" stroke="midnightblue" d="M56.0281,-102.547C57.4081,-94.4374 58.8212,-84.7796 59.5,-76 61.0573,-55.8572 57.0648,-32.3006 54.4872,-19.8158"/>
<polygon fill="midnightblue" stroke="midnightblue" points="52.5785,-101.955 54.2389,-112.419 59.4663,-103.204 52.5785,-101.955"/>
</g>
<!-- Node4&#45;&gt;Node5 -->
<g id="edge4" class="edge"><title>Node4&#45;&gt;Node5</title>
<path fill="none" stroke="midnightblue" d="M35.8413,-46.9827C40.0848,-37.8168 45.0499,-27.0922 48.4486,-19.7511"/>
<polygon fill="midnightblue" stroke="midnightblue" points="32.6534,-45.5379 31.6282,-56.083 39.0057,-48.4788 32.6534,-45.5379"/>
</g>
<!-- Node6&#45;&gt;Node3 -->
<g id="edge7" class="edge"><title>Node6&#45;&gt;Node3</title>
<path fill="none" stroke="midnightblue" d="M99.9463,-161.82C88.1219,-152.145 73.2144,-139.948 63.297,-131.834"/>
<polygon fill="midnightblue" stroke="midnightblue" points="97.94,-164.7 107.896,-168.324 102.373,-159.283 97.94,-164.7"/>
</g>
<!-- Node7 -->
<g id="node7" class="node"><title>Node7</title>
<g id="a_node7"><a xlink:href="../../d9/d77/a00095.html" target="_top" xlink:title="Random.h">
<polygon fill="none" stroke="black" points="112.5,-112.5 112.5,-131.5 174.5,-131.5 174.5,-112.5 112.5,-112.5"/>
<text text-anchor="middle" x="143.5" y="-119.5" font-family="Helvetica,sans-Serif" font-size="10.00">Random.h</text>
</a>
</g>
</g>
<!-- Node6&#45;&gt;Node7 -->
<g id="edge8" class="edge"><title>Node6&#45;&gt;Node7</title>
<path fill="none" stroke="midnightblue" d="M126.841,-158.983C131.085,-149.817 136.05,-139.092 139.449,-131.751"/>
<polygon fill="midnightblue" stroke="midnightblue" points="123.653,-157.538 122.628,-168.083 130.006,-160.479 123.653,-157.538"/>
</g>
</g>
</svg>
