<?xml version="1.0" encoding="UTF-8" standalone="no"?>
<!DOCTYPE svg PUBLIC "-//W3C//DTD SVG 1.1//EN"
 "http://www.w3.org/Graphics/SVG/1.1/DTD/svg11.dtd">
<!-- Generated by graphviz version 2.38.0 (20140413.2041)
 -->
<!-- Title: hydra::Integrator&lt; ALGORITHM, N &gt; Pages: 1 -->
<svg width="200pt" height="442pt"
 viewBox="0.00 0.00 200.00 442.00" xmlns="http://www.w3.org/2000/svg" xmlns:xlink="http://www.w3.org/1999/xlink">
<g id="graph0" class="graph" transform="scale(1 1) rotate(0) translate(4 438)">
<title>hydra::Integrator&lt; ALGORITHM, N &gt;</title>
<!-- Node1 -->
<g id="node1" class="node"><title>Node1</title>
<polygon fill="#bfbfbf" stroke="black" points="17.5,-343.5 17.5,-433.5 118.5,-433.5 118.5,-343.5 17.5,-343.5"/>
<text text-anchor="start" x="25.5" y="-421.5" font-family="Helvetica,sans-Serif" font-size="10.00">hydra::Integrator&lt;</text>
<text text-anchor="middle" x="68" y="-410.5" font-family="Helvetica,sans-Serif" font-size="10.00"> ALGORITHM, N &gt;</text>
<polyline fill="none" stroke="black" points="17.5,-403.5 118.5,-403.5 "/>
<text text-anchor="start" x="25.5" y="-391.5" font-family="Helvetica,sans-Serif" font-size="10.00">+ dimension</text>
<polyline fill="none" stroke="black" points="17.5,-384.5 118.5,-384.5 "/>
<text text-anchor="start" x="25.5" y="-372.5" font-family="Helvetica,sans-Serif" font-size="10.00">+ Integrator()</text>
<text text-anchor="start" x="25.5" y="-361.5" font-family="Helvetica,sans-Serif" font-size="10.00">+ GetIntegral()</text>
<text text-anchor="start" x="25.5" y="-350.5" font-family="Helvetica,sans-Serif" font-size="10.00">+ GetLimits()</text>
</g>
<!-- Node2 -->
<g id="node2" class="node"><title>Node2</title>
<g id="a_node2"><a xlink:href="../../dc/d3c/a00028.html" target="_top" xlink:title="{hydra::Integrator\&lt;\l Vegas\&lt; N, GRND \&gt;, N \&gt;\n|+ dimension\l|+ Integrator()\l+ GetIntegral()\l+ GetLimits()\l}">
<polygon fill="none" stroke="black" points="2.5,-205.5 2.5,-295.5 133.5,-295.5 133.5,-205.5 2.5,-205.5"/>
<text text-anchor="start" x="10.5" y="-283.5" font-family="Helvetica,sans-Serif" font-size="10.00">hydra::Integrator&lt;</text>
<text text-anchor="middle" x="68" y="-272.5" font-family="Helvetica,sans-Serif" font-size="10.00"> Vegas&lt; N, GRND &gt;, N &gt;</text>
<polyline fill="none" stroke="black" points="2.5,-265.5 133.5,-265.5 "/>
<text text-anchor="start" x="10.5" y="-253.5" font-family="Helvetica,sans-Serif" font-size="10.00">+ dimension</text>
<polyline fill="none" stroke="black" points="2.5,-246.5 133.5,-246.5 "/>
<text text-anchor="start" x="10.5" y="-234.5" font-family="Helvetica,sans-Serif" font-size="10.00">+ Integrator()</text>
<text text-anchor="start" x="10.5" y="-223.5" font-family="Helvetica,sans-Serif" font-size="10.00">+ GetIntegral()</text>
<text text-anchor="start" x="10.5" y="-212.5" font-family="Helvetica,sans-Serif" font-size="10.00">+ GetLimits()</text>
</a>
</g>
</g>
<!-- Node1&#45;&gt;Node2 -->
<g id="edge1" class="edge"><title>Node1&#45;&gt;Node2</title>
<path fill="none" stroke="orange" d="M68,-333.145C68,-320.782 68,-307.791 68,-295.899"/>
<polygon fill="orange" stroke="orange" points="64.5001,-333.345 68,-343.345 71.5001,-333.345 64.5001,-333.345"/>
<text text-anchor="middle" x="130" y="-317" font-family="Helvetica,sans-Serif" font-size="10.00"> &lt; Vegas&lt; N, GRND &gt;, N &gt;</text>
</g>
<!-- Node3 -->
<g id="node3" class="node"><title>Node3</title>
<g id="a_node3"><a xlink:href="../../d3/d8b/a00059.html" target="_top" xlink:title="{hydra::Vegas\&lt; N, GRND \&gt;\n||+ Vegas()\l+ Vegas()\l+ Vegas()\l+ Integrate()\l+ PrintLimits()\l+ PrintHead()\l+ PrintResults()\l+ PrintDistribution()\l+ PrintGrid()\l+ GetAbsError()\land 9 more...\l}">
<polygon fill="none" stroke="black" points="0,-0.5 0,-167.5 136,-167.5 136,-0.5 0,-0.5"/>
<text text-anchor="middle" x="68" y="-155.5" font-family="Helvetica,sans-Serif" font-size="10.00">hydra::Vegas&lt; N, GRND &gt;</text>
<polyline fill="none" stroke="black" points="0,-148.5 136,-148.5 "/>
<text text-anchor="middle" x="68" y="-136.5" font-family="Helvetica,sans-Serif" font-size="10.00"> </text>
<polyline fill="none" stroke="black" points="0,-129.5 136,-129.5 "/>
<text text-anchor="start" x="8" y="-117.5" font-family="Helvetica,sans-Serif" font-size="10.00">+ Vegas()</text>
<text text-anchor="start" x="8" y="-106.5" font-family="Helvetica,sans-Serif" font-size="10.00">+ Vegas()</text>
<text text-anchor="start" x="8" y="-95.5" font-family="Helvetica,sans-Serif" font-size="10.00">+ Vegas()</text>
<text text-anchor="start" x="8" y="-84.5" font-family="Helvetica,sans-Serif" font-size="10.00">+ Integrate()</text>
<text text-anchor="start" x="8" y="-73.5" font-family="Helvetica,sans-Serif" font-size="10.00">+ PrintLimits()</text>
<text text-anchor="start" x="8" y="-62.5" font-family="Helvetica,sans-Serif" font-size="10.00">+ PrintHead()</text>
<text text-anchor="start" x="8" y="-51.5" font-family="Helvetica,sans-Serif" font-size="10.00">+ PrintResults()</text>
<text text-anchor="start" x="8" y="-40.5" font-family="Helvetica,sans-Serif" font-size="10.00">+ PrintDistribution()</text>
<text text-anchor="start" x="8" y="-29.5" font-family="Helvetica,sans-Serif" font-size="10.00">+ PrintGrid()</text>
<text text-anchor="start" x="8" y="-18.5" font-family="Helvetica,sans-Serif" font-size="10.00">+ GetAbsError()</text>
<text text-anchor="start" x="8" y="-7.5" font-family="Helvetica,sans-Serif" font-size="10.00">and 9 more...</text>
</a>
</g>
</g>
<!-- Node2&#45;&gt;Node3 -->
<g id="edge2" class="edge"><title>Node2&#45;&gt;Node3</title>
<path fill="none" stroke="midnightblue" d="M68,-195.255C68,-186.38 68,-177.011 68,-167.636"/>
<polygon fill="none" stroke="midnightblue" points="64.5001,-195.417 68,-205.417 71.5001,-195.417 64.5001,-195.417"/>
</g>
</g>
</svg>
