<?xml version="1.0" encoding="UTF-8" standalone="no"?>
<!DOCTYPE svg PUBLIC "-//W3C//DTD SVG 1.1//EN"
 "http://www.w3.org/Graphics/SVG/1.1/DTD/svg11.dtd">
<!-- Generated by graphviz version 2.38.0 (20140413.2041)
 -->
<!-- Title: main Pages: 1 -->
<svg width="340pt" height="142pt"
 viewBox="0.00 0.00 340.00 142.00" xmlns="http://www.w3.org/2000/svg" xmlns:xlink="http://www.w3.org/1999/xlink">
<g id="graph0" class="graph" transform="scale(1 1) rotate(0) translate(4 138)">
<title>main</title>
<!-- Node1 -->
<g id="node1" class="node"><title>Node1</title>
<polygon fill="#bfbfbf" stroke="black" points="0,-57.5 0,-76.5 38,-76.5 38,-57.5 0,-57.5"/>
<text text-anchor="middle" x="19" y="-64.5" font-family="Helvetica,sans-Serif" font-size="10.00">main</text>
</g>
<!-- Node2 -->
<g id="node2" class="node"><title>Node2</title>
<g id="a_node2"><a xlink:href="../../d0/d33/a00027.html#a792f64fe5b6422f76bcf028f92ac2861" target="_top" xlink:title="hydra::Eval">
<polygon fill="none" stroke="black" points="100,-114.5 100,-133.5 166,-133.5 166,-114.5 100,-114.5"/>
<text text-anchor="middle" x="133" y="-121.5" font-family="Helvetica,sans-Serif" font-size="10.00">hydra::Eval</text>
</a>
</g>
</g>
<!-- Node1&#45;&gt;Node2 -->
<g id="edge1" class="edge"><title>Node1&#45;&gt;Node2</title>
<path fill="none" stroke="midnightblue" d="M31.3711,-76.5211C41.8837,-84.9417 58.2196,-97.0853 74,-105 79.0317,-107.524 84.4728,-109.818 89.9366,-111.87"/>
<polygon fill="midnightblue" stroke="midnightblue" points="89.1179,-115.292 99.7127,-115.298 91.4342,-108.686 89.1179,-115.292"/>
</g>
<!-- Node3 -->
<g id="node3" class="node"><title>Node3</title>
<g id="a_node3"><a xlink:href="../../d0/d33/a00027.html#aed731c061feb7b22667628e351da610b" target="_top" xlink:title="hydra::make_range">
<polygon fill="none" stroke="black" points="83,-76.5 83,-95.5 183,-95.5 183,-76.5 83,-76.5"/>
<text text-anchor="middle" x="133" y="-83.5" font-family="Helvetica,sans-Serif" font-size="10.00">hydra::make_range</text>
</a>
</g>
</g>
<!-- Node1&#45;&gt;Node3 -->
<g id="edge2" class="edge"><title>Node1&#45;&gt;Node3</title>
<path fill="none" stroke="midnightblue" d="M38.4945,-70.1375C48.0054,-71.7509 60.1876,-73.8175 72.5935,-75.9221"/>
<polygon fill="midnightblue" stroke="midnightblue" points="72.0995,-79.3882 82.5441,-77.6102 73.2703,-72.4868 72.0995,-79.3882"/>
</g>
<!-- Node6 -->
<g id="node6" class="node"><title>Node6</title>
<g id="a_node6"><a xlink:href="../../d4/d6d/a00055.html#ad6b0fdc4930ca1fb61b6f2e2b8f3a6fc" target="_top" xlink:title="hydra::Vector4R::mass">
<polygon fill="none" stroke="black" points="74,-38.5 74,-57.5 192,-57.5 192,-38.5 74,-38.5"/>
<text text-anchor="middle" x="133" y="-45.5" font-family="Helvetica,sans-Serif" font-size="10.00">hydra::Vector4R::mass</text>
</a>
</g>
</g>
<!-- Node1&#45;&gt;Node6 -->
<g id="edge5" class="edge"><title>Node1&#45;&gt;Node6</title>
<path fill="none" stroke="midnightblue" d="M38.4945,-63.8625C46.2298,-62.5503 55.7321,-60.9383 65.6847,-59.2499"/>
<polygon fill="midnightblue" stroke="midnightblue" points="66.4648,-62.6677 75.7385,-57.5444 65.294,-55.7663 66.4648,-62.6677"/>
</g>
<!-- Node7 -->
<g id="node7" class="node"><title>Node7</title>
<g id="a_node7"><a xlink:href="../../d0/d33/a00027.html#a53506830108537bc49811415296ba738" target="_top" xlink:title="hydra::wrap_lambda">
<polygon fill="none" stroke="black" points="81,-0.5 81,-19.5 185,-19.5 185,-0.5 81,-0.5"/>
<text text-anchor="middle" x="133" y="-7.5" font-family="Helvetica,sans-Serif" font-size="10.00">hydra::wrap_lambda</text>
</a>
</g>
</g>
<!-- Node1&#45;&gt;Node7 -->
<g id="edge6" class="edge"><title>Node1&#45;&gt;Node7</title>
<path fill="none" stroke="midnightblue" d="M31.3711,-57.4789C41.8837,-49.0583 58.2196,-36.9147 74,-29 78.3302,-26.8282 82.9636,-24.8261 87.6538,-23.0024"/>
<polygon fill="midnightblue" stroke="midnightblue" points="89.0733,-26.2108 97.2819,-19.5123 86.6877,-19.6298 89.0733,-26.2108"/>
</g>
<!-- Node4 -->
<g id="node4" class="node"><title>Node4</title>
<g id="a_node4"><a xlink:href="../../d4/dca/a00048.html#afadbbfb8b604a4fa704674dfdbbec25d" target="_top" xlink:title="hydra::Range::begin">
<polygon fill="none" stroke="black" points="228,-95.5 228,-114.5 332,-114.5 332,-95.5 228,-95.5"/>
<text text-anchor="middle" x="280" y="-102.5" font-family="Helvetica,sans-Serif" font-size="10.00">hydra::Range::begin</text>
</a>
</g>
</g>
<!-- Node3&#45;&gt;Node4 -->
<g id="edge3" class="edge"><title>Node3&#45;&gt;Node4</title>
<path fill="none" stroke="midnightblue" d="M183.09,-92.4325C194.274,-93.898 206.291,-95.4726 217.907,-96.9947"/>
<polygon fill="midnightblue" stroke="midnightblue" points="217.61,-100.486 227.98,-98.3147 218.52,-93.545 217.61,-100.486"/>
</g>
<!-- Node5 -->
<g id="node5" class="node"><title>Node5</title>
<g id="a_node5"><a xlink:href="../../d4/dca/a00048.html#ac2150681c29eaf23b4fb7c373bd75817" target="_top" xlink:title="hydra::Range::end">
<polygon fill="none" stroke="black" points="231.5,-57.5 231.5,-76.5 328.5,-76.5 328.5,-57.5 231.5,-57.5"/>
<text text-anchor="middle" x="280" y="-64.5" font-family="Helvetica,sans-Serif" font-size="10.00">hydra::Range::end</text>
</a>
</g>
</g>
<!-- Node3&#45;&gt;Node5 -->
<g id="edge4" class="edge"><title>Node3&#45;&gt;Node5</title>
<path fill="none" stroke="midnightblue" d="M183.09,-79.5675C195.408,-77.9535 208.735,-76.2071 221.425,-74.5443"/>
<polygon fill="midnightblue" stroke="midnightblue" points="221.973,-78.0025 231.434,-73.2328 221.064,-71.0618 221.973,-78.0025"/>
</g>
</g>
</svg>
