<?xml version="1.0" encoding="UTF-8" standalone="no"?>
<!DOCTYPE svg PUBLIC "-//W3C//DTD SVG 1.1//EN"
 "http://www.w3.org/Graphics/SVG/1.1/DTD/svg11.dtd">
<!-- Generated by graphviz version 2.38.0 (20140413.2041)
 -->
<!-- Title: hydra::Events::FlagsEnd Pages: 1 -->
<svg width="294pt" height="66pt"
 viewBox="0.00 0.00 294.00 66.00" xmlns="http://www.w3.org/2000/svg" xmlns:xlink="http://www.w3.org/1999/xlink">
<g id="graph0" class="graph" transform="scale(1 1) rotate(0) translate(4 62)">
<title>hydra::Events::FlagsEnd</title>
<!-- Node1 -->
<g id="node1" class="node"><title>Node1</title>
<polygon fill="#bfbfbf" stroke="black" points="0,-19.5 0,-38.5 125,-38.5 125,-19.5 0,-19.5"/>
<text text-anchor="middle" x="62.5" y="-26.5" font-family="Helvetica,sans-Serif" font-size="10.00">hydra::Events::FlagsEnd</text>
</g>
<!-- Node2 -->
<g id="node2" class="node"><title>Node2</title>
<g id="a_node2"><a xlink:href="../../d6/d5b/a00026.html#a4bc30bbd45a57a1724f16f60b1353cf5" target="_top" xlink:title="hydra::Events::Events">
<polygon fill="none" stroke="black" points="166.5,-38.5 166.5,-57.5 280.5,-57.5 280.5,-38.5 166.5,-38.5"/>
<text text-anchor="middle" x="223.5" y="-45.5" font-family="Helvetica,sans-Serif" font-size="10.00">hydra::Events::Events</text>
</a>
</g>
</g>
<!-- Node1&#45;&gt;Node2 -->
<g id="edge1" class="edge"><title>Node1&#45;&gt;Node2</title>
<path fill="none" stroke="midnightblue" d="M135.673,-37.6245C145.999,-38.8583 156.491,-40.1121 166.444,-41.3015"/>
<polygon fill="midnightblue" stroke="midnightblue" points="135.774,-34.1116 125.429,-36.4003 134.943,-41.0622 135.774,-34.1116"/>
</g>
<!-- Node3 -->
<g id="node3" class="node"><title>Node3</title>
<g id="a_node3"><a xlink:href="../../d6/d5b/a00026.html#ace3fe647bf093ad875cc1568ac8bdb53" target="_top" xlink:title="hydra::Events::operator=">
<polygon fill="none" stroke="black" points="161,-0.5 161,-19.5 286,-19.5 286,-0.5 161,-0.5"/>
<text text-anchor="middle" x="223.5" y="-7.5" font-family="Helvetica,sans-Serif" font-size="10.00">hydra::Events::operator=</text>
</a>
</g>
</g>
<!-- Node1&#45;&gt;Node3 -->
<g id="edge2" class="edge"><title>Node1&#45;&gt;Node3</title>
<path fill="none" stroke="midnightblue" d="M135.592,-20.3853C143.99,-19.3817 152.499,-18.3649 160.74,-17.3801"/>
<polygon fill="midnightblue" stroke="midnightblue" points="134.943,-16.9378 125.429,-21.5997 135.774,-23.8884 134.943,-16.9378"/>
</g>
</g>
</svg>
